version 1
nodes
0 "root" -1
end
skeleton
time 0
0  0.000000 0.000000 0.000000  0.000000 -0.000000 0.000000
end
triangles
DULLPLASTIC_MISC
0  33.902073 34.342503 33.604786  -0.115146 -0.155554 0.981094  0.820338 0.849605 1 0 1.000000
0  33.582764 38.185253 34.177341  -0.115146 -0.155553 0.981094  0.820338 0.857418 1 0 1.000000
0  32.966160 38.053123 34.078247  -0.115146 -0.155552 0.981094  0.878933 0.857418 1 0 1.000000
DULLPLASTIC_MISC
0  33.175365 -1.431398 32.404613  -0.018746 -0.011628 0.999757  0.820338 0.789056 1 0 1.000000
0  33.582764 3.545457 32.470676  -0.009367 -0.012639 0.999876  0.820338 0.796869 1 0 1.000000
0  32.602806 -0.935914 32.404613  -0.014176 -0.012636 0.999820  0.878933 0.789056 1 0 1.000000
DULLPLASTIC_MISC
0  33.131321 6.936766 32.514721  -0.005430 -0.013123 0.999899  0.878933 0.802728 1 0 1.000000
0  32.602806 -0.935914 32.404613  -0.014176 -0.012636 0.999820  0.878933 0.789056 1 0 1.000000
0  33.582764 3.545457 32.470676  -0.009367 -0.012639 0.999876  0.820338 0.796869 1 0 1.000000
DULLPLASTIC_MISC
0  33.439625 15.712327 32.624828  -0.011460 -0.015960 0.999807  0.878933 0.818354 1 0 1.000000
0  33.131321 6.936766 32.514721  -0.005430 -0.013123 0.999899  0.878933 0.802728 1 0 1.000000
0  33.582764 3.545457 32.470676  -0.009367 -0.012639 0.999876  0.820338 0.796869 1 0 1.000000
DULLPLASTIC_MISC
0  33.582764 3.545457 32.470676  -0.009367 -0.012639 0.999876  0.820338 0.796869 1 0 1.000000
0  34.133301 15.668283 32.624828  -0.008080 -0.016358 0.999834  0.820338 0.818354 1 0 1.000000
0  33.439625 15.712327 32.624828  -0.011460 -0.015960 0.999807  0.878933 0.818354 1 0 1.000000
DULLPLASTIC_MISC
0  33.439625 15.712327 32.624828  -0.011460 -0.015960 0.999807  0.878933 0.818354 1 0 1.000000
0  34.133301 15.668283 32.624828  -0.008080 -0.016358 0.999834  0.820338 0.818354 1 0 1.000000
0  34.287449 26.480833 32.845043  -0.020996 -0.045200 0.998757  0.820338 0.835932 1 0 1.000000
DULLPLASTIC_MISC
0  34.287449 26.480833 32.845043  -0.020996 -0.045200 0.998757  0.820338 0.835932 1 0 1.000000
0  33.604786 26.469822 32.823021  -0.131746 -0.065683 0.989105  0.878933 0.835932 1 0 1.000000
0  33.439625 15.712327 32.624828  -0.011460 -0.015960 0.999807  0.878933 0.818354 1 0 1.000000
DULLPLASTIC_MISC
0  33.604786 26.469822 32.823021  -0.131746 -0.065683 0.989105  0.878933 0.835932 1 0 1.000000
0  34.287449 26.480833 32.845043  -0.020996 -0.045200 0.998757  0.820338 0.835932 1 0 1.000000
0  33.902073 34.342503 33.604786  -0.150358 -0.109234 0.982578  0.820338 0.849605 1 0 1.000000
DULLPLASTIC_MISC
0  33.902073 34.342503 33.604786  -0.150358 -0.109234 0.982578  0.820338 0.849605 1 0 1.000000
0  33.362549 32.085300 33.219410  -0.211993 -0.114785 0.970507  0.878933 0.845698 1 0 1.000000
0  33.604786 26.469822 32.823021  -0.131746 -0.065683 0.989105  0.878933 0.835932 1 0 1.000000
DULLPLASTIC_MISC
0  33.902073 34.342503 33.604786  -0.150358 -0.109234 0.982578  0.820338 0.849605 1 0 1.000000
0  32.966160 38.053123 34.078247  -0.115134 -0.155548 0.981096  0.878933 0.857418 1 0 1.000000
0  33.362549 32.085300 33.219410  -0.211993 -0.114785 0.970507  0.878933 0.845698 1 0 1.000000
DULLPLASTIC_MISC
0  33.582764 3.545457 32.470676  0.796259 -0.059683 0.602005  0.820338 0.796869 1 0 1.000000
0  33.175365 -1.431398 32.404613  0.637836 -0.064391 0.767476  0.820338 0.789056 1 0 1.000000
0  33.307495 -1.530495 32.283497  0.759569 -0.066748 0.646993  0.820338 0.789056 1 0 1.000000
DULLPLASTIC_MISC
0  33.307495 -1.530495 32.283497  0.759569 -0.066748 0.646993  0.820338 0.789056 1 0 1.000000
0  33.648827 3.545457 32.360569  0.860649 -0.052555 0.506480  0.820338 0.796869 1 0 1.000000
0  33.582764 3.545457 32.470676  0.796259 -0.059683 0.602005  0.820338 0.796869 1 0 1.000000
DULLPLASTIC_MISC
0  34.133301 15.668283 32.624828  0.860430 -0.034243 0.508416  0.820338 0.818354 1 0 1.000000
0  33.582764 3.545457 32.470676  0.796259 -0.059683 0.602005  0.820338 0.796869 1 0 1.000000
0  33.648827 3.545457 32.360569  0.860649 -0.052555 0.506480  0.820338 0.796869 1 0 1.000000
DULLPLASTIC_MISC
0  33.648827 3.545457 32.360569  0.860649 -0.052555 0.506480  0.820338 0.796869 1 0 1.000000
0  34.199364 15.668283 32.514721  0.863027 -0.034272 0.503994  0.820338 0.818354 1 0 1.000000
0  34.133301 15.668283 32.624828  0.860430 -0.034243 0.508416  0.820338 0.818354 1 0 1.000000
DULLPLASTIC_MISC
0  34.133301 15.668283 32.624828  0.860430 -0.034243 0.508416  0.820338 0.818354 1 0 1.000000
0  34.199364 15.668283 32.514721  0.863027 -0.034272 0.503994  0.820338 0.818354 1 0 1.000000
0  34.364525 26.491842 32.734936  0.858103 -0.019530 0.513106  0.820338 0.835932 1 0 1.000000
DULLPLASTIC_MISC
0  34.364525 26.491842 32.734936  0.858103 -0.019530 0.513106  0.820338 0.835932 1 0 1.000000
0  34.287449 26.480833 32.845043  0.813387 -0.022582 0.581285  0.820338 0.835932 1 0 1.000000
0  34.133301 15.668283 32.624828  0.860430 -0.034243 0.508416  0.820338 0.818354 1 0 1.000000
DULLPLASTIC_MISC
0  34.287449 26.480833 32.845043  0.813387 -0.022582 0.581285  0.820338 0.835932 1 0 1.000000
0  34.364525 26.491842 32.734936  0.858103 -0.019530 0.513106  0.820338 0.835932 1 0 1.000000
0  34.012180 34.342503 33.494678  0.648214 -0.062912 0.758855  0.820338 0.849605 1 0 1.000000
DULLPLASTIC_MISC
0  34.012180 34.342503 33.494678  0.648214 -0.062912 0.758855  0.820338 0.849605 1 0 1.000000
0  33.902073 34.342503 33.604786  0.714833 -0.037965 0.698264  0.820338 0.849605 1 0 1.000000
0  34.287449 26.480833 32.845043  0.813387 -0.022582 0.581285  0.820338 0.835932 1 0 1.000000
DULLPLASTIC_MISC
0  34.012180 34.342503 33.494678  0.648214 -0.062912 0.758855  0.820338 0.849605 1 0 1.000000
0  33.582764 38.185253 34.177341  0.469811 -0.102498 0.876797  0.820338 0.857418 1 0 1.000000
0  33.902073 34.342503 33.604786  0.714833 -0.037965 0.698264  0.820338 0.849605 1 0 1.000000
DULLPLASTIC_MISC
0  33.637817 40.035057 34.452610  0.180189 -0.151310 0.971924  0.820338 0.859371 1 0 1.000000
0  33.582764 38.185253 34.177341  0.469652 -0.102537 0.876877  0.820338 0.857418 1 0 1.000000
0  34.012180 34.342503 33.494678  0.648186 -0.062900 0.758879  0.820338 0.849605 1 0 1.000000
CARSKIN_SKIN1_DMG
0  33.175365 -1.431398 32.404613  0.564849 -0.209734 0.798096  0.355263 0.428019 1 0 1.000000
0  32.701904 -3.358278 32.228443  0.564849 -0.209734 0.798096  0.353179 0.419538 1 0 1.000000
0  33.307495 -1.530495 32.283497  0.564849 -0.209735 0.798096  0.355844 0.427583 1 0 1.000000
CARSKIN_SKIN1_DMG
0  41.169163 15.525144 17.441017  0.996140 -0.077639 -0.040953  0.853603 0.478752 1 0 1.000000
0  40.420433 15.525144 10.019777  0.991951 -0.077523 -0.100114  0.888562 0.478752 1 0 1.000000
0  41.213207 25.577951 10.471217  0.993071 -0.068116 -0.095760  0.886436 0.526109 1 0 1.000000
CARSKIN_SKIN1_DMG
0  40.420433 15.525144 10.019777  0.991951 -0.077523 -0.100114  0.888562 0.478752 1 0 1.000000
0  41.169163 15.525144 17.441017  0.996140 -0.077639 -0.040953  0.853603 0.478752 1 0 1.000000
0  40.178196 3.963865 16.769361  0.995142 -0.086226 -0.047522  0.856767 0.424290 1 0 1.000000
CARSKIN_SKIN1_DMG
0  40.178196 3.963865 16.769361  0.995142 -0.086226 -0.047522  0.856767 0.424290 1 0 1.000000
0  39.462498 4.195091 9.568336  0.991266 -0.085285 -0.100590  0.890689 0.425379 1 0 1.000000
0  40.420433 15.525144 10.019777  0.991951 -0.077523 -0.100114  0.888562 0.478752 1 0 1.000000
CARSKIN_SKIN1_DMG
0  41.928905 25.577951 17.969532  0.996918 -0.071395 -0.032518  0.851113 0.526109 1 0 1.000000
0  41.213207 25.577951 10.471217  0.993071 -0.068116 -0.095760  0.886436 0.526109 1 0 1.000000
0  41.664646 32.272484 10.856593  0.990368 -0.093874 -0.101782  0.884620 0.557645 1 0 1.000000
CARSKIN_SKIN1_DMG
0  41.213207 25.577951 10.471217  0.993071 -0.068116 -0.095760  0.886436 0.526109 1 0 1.000000
0  41.928905 25.577951 17.969532  0.996918 -0.071395 -0.032518  0.851113 0.526109 1 0 1.000000
0  41.169163 15.525144 17.441017  0.996140 -0.077639 -0.040953  0.853603 0.478752 1 0 1.000000
CARSKIN_SKIN1_DMG
0  41.059055 15.536155 23.364796  0.986595 -0.081658 0.141289  0.825697 0.478804 1 0 1.000000
0  41.169163 15.525144 17.441017  0.996140 -0.077639 -0.040953  0.853603 0.478752 1 0 1.000000
0  41.928905 25.577951 17.969532  0.996918 -0.071395 -0.032518  0.851113 0.526109 1 0 1.000000
CARSKIN_SKIN1_DMG
0  41.169163 15.525144 17.441017  0.996140 -0.077639 -0.040953  0.853603 0.478752 1 0 1.000000
0  41.059055 15.536155 23.364796  0.986595 -0.081658 0.141289  0.825697 0.478804 1 0 1.000000
0  40.134155 3.941844 22.505959  0.986942 -0.094584 0.130380  0.829743 0.424186 1 0 1.000000
CARSKIN_SKIN1_DMG
0  40.134155 3.941844 22.505959  0.986942 -0.094584 0.130380  0.829743 0.424186 1 0 1.000000
0  40.178196 3.963865 16.769361  0.995142 -0.086226 -0.047522  0.856767 0.424290 1 0 1.000000
0  41.169163 15.525144 17.441017  0.996140 -0.077639 -0.040953  0.853603 0.478752 1 0 1.000000
CARSKIN_SKIN1_DMG
0  40.178196 3.963865 16.769361  0.995142 -0.086226 -0.047522  0.856767 0.424290 1 0 1.000000
0  40.134155 3.941844 22.505959  0.986942 -0.094584 0.130380  0.829743 0.424186 1 0 1.000000
0  39.110153 -7.421242 21.636110  0.988285 -0.106519 0.109298  0.833841 0.370657 1 0 1.000000
CARSKIN_SKIN1_DMG
0  39.110153 -7.421242 21.636110  0.988285 -0.106519 0.109298  0.833841 0.370657 1 0 1.000000
0  39.099144 -7.432252 16.064674  0.995112 -0.088953 -0.042883  0.860086 0.370606 1 0 1.000000
0  40.178196 3.963865 16.769361  0.995142 -0.086226 -0.047522  0.856767 0.424290 1 0 1.000000
CARSKIN_SKIN1_DMG
0  39.462498 4.195091 9.568336  0.991266 -0.085285 -0.100590  0.890689 0.425379 1 0 1.000000
0  40.178196 3.963865 16.769361  0.995142 -0.086226 -0.047522  0.856767 0.424290 1 0 1.000000
0  39.099144 -7.432252 16.064674  0.995112 -0.088953 -0.042883  0.860086 0.370606 1 0 1.000000
CARSKIN_SKIN1_DMG
0  39.099144 -7.432252 16.064674  0.995112 -0.088953 -0.042883  0.860086 0.370606 1 0 1.000000
0  38.427490 -7.333156 9.193972  0.988731 -0.086306 -0.122319  0.892452 0.371072 1 0 1.000000
0  39.462498 4.195091 9.568336  0.991266 -0.085285 -0.100590  0.890689 0.425379 1 0 1.000000
CARSKIN_SKIN1_DMG
0  38.086155 -16.328932 12.508204  0.990009 -0.085661 -0.112005  0.876840 0.328696 1 0 1.000000
0  37.513596 -15.844460 8.874660  0.980798 -0.098205 -0.168498  0.893957 0.330978 1 0 1.000000
0  38.427490 -7.333156 9.193972  0.988731 -0.086306 -0.122319  0.892452 0.371072 1 0 1.000000
CARSKIN_SKIN1_DMG
0  38.427490 -7.333156 9.193972  0.988731 -0.086306 -0.122319  0.892452 0.371072 1 0 1.000000
0  39.099144 -7.432252 16.064674  0.995112 -0.088953 -0.042883  0.860086 0.370606 1 0 1.000000
0  38.086155 -16.328932 12.508204  0.990009 -0.085661 -0.112005  0.876840 0.328696 1 0 1.000000
CARSKIN_SKIN1_DMG
0  39.099144 -7.432252 16.064674  0.995112 -0.088953 -0.042883  0.860086 0.370606 1 0 1.000000
0  38.372437 -16.439039 16.758350  0.996770 -0.080297 0.001649  0.856819 0.328177 1 0 1.000000
0  38.086155 -16.328932 12.508204  0.990009 -0.085661 -0.112005  0.876840 0.328696 1 0 1.000000
CARSKIN_SKIN1_DMG
0  38.119186 -15.888502 20.931421  0.991393 -0.106487 0.076161  0.837160 0.330770 1 0 1.000000
0  38.372437 -16.439039 16.758350  0.996770 -0.080297 0.001649  0.856819 0.328177 1 0 1.000000
0  39.099144 -7.432252 16.064674  0.995112 -0.088953 -0.042883  0.860086 0.370606 1 0 1.000000
CARSKIN_SKIN1_DMG
0  39.099144 -7.432252 16.064674  0.995112 -0.088953 -0.042883  0.860086 0.370606 1 0 1.000000
0  39.110153 -7.421242 21.636110  0.988285 -0.106519 0.109298  0.833841 0.370657 1 0 1.000000
0  38.119186 -15.888502 20.931421  0.991393 -0.106487 0.076161  0.837160 0.330770 1 0 1.000000
CARSKIN_SKIN1_DMG
0  37.733810 -15.051686 24.014429  0.972996 -0.113353 0.201071  0.822637 0.334712 1 0 1.000000
0  38.119186 -15.888502 20.931421  0.991393 -0.106487 0.076161  0.837160 0.330770 1 0 1.000000
0  39.110153 -7.421242 21.636110  0.988285 -0.106519 0.109298  0.833841 0.370657 1 0 1.000000
CARSKIN_SKIN1_DMG
0  39.110153 -7.421242 21.636110  0.988285 -0.106519 0.109298  0.833841 0.370657 1 0 1.000000
0  38.273338 -7.366188 24.961353  0.964047 -0.103128 0.244902  0.818176 0.370917 1 0 1.000000
0  37.733810 -15.051686 24.014429  0.972996 -0.113353 0.201071  0.822637 0.334712 1 0 1.000000
CARSKIN_SKIN1_DMG
0  38.273338 -7.366188 24.961353  0.964047 -0.103128 0.244902  0.818176 0.370917 1 0 1.000000
0  39.110153 -7.421242 21.636110  0.988285 -0.106519 0.109298  0.833841 0.370657 1 0 1.000000
0  40.134155 3.941844 22.505959  0.986942 -0.094584 0.130380  0.829743 0.424186 1 0 1.000000
CARSKIN_SKIN1_DMG
0  40.134155 3.941844 22.505959  0.986942 -0.094584 0.130380  0.829743 0.424186 1 0 1.000000
0  39.198242 4.029930 26.161524  0.962773 -0.097459 0.252130  0.812522 0.424601 1 0 1.000000
0  38.273338 -7.366188 24.961353  0.964047 -0.103128 0.244902  0.818176 0.370917 1 0 1.000000
CARSKIN_SKIN1_DMG
0  39.198242 4.029930 26.161524  0.962773 -0.097459 0.252130  0.812522 0.424601 1 0 1.000000
0  40.134155 3.941844 22.505959  0.986942 -0.094584 0.130380  0.829743 0.424186 1 0 1.000000
0  41.059055 15.536155 23.364796  0.986595 -0.081658 0.141289  0.825697 0.478804 1 0 1.000000
CARSKIN_SKIN1_DMG
0  41.059055 15.536155 23.364796  0.986595 -0.081658 0.141289  0.825697 0.478804 1 0 1.000000
0  40.024048 15.591208 27.229567  0.965051 -0.087526 0.247015  0.807491 0.479064 1 0 1.000000
0  39.198242 4.029930 26.161524  0.962773 -0.097459 0.252130  0.812522 0.424601 1 0 1.000000
CARSKIN_SKIN1_DMG
0  40.024048 15.591208 27.229567  0.965051 -0.087526 0.247015  0.807491 0.479064 1 0 1.000000
0  41.059055 15.536155 23.364796  0.986595 -0.081658 0.141289  0.825697 0.478804 1 0 1.000000
0  41.686668 25.688059 24.080494  0.987077 -0.079898 0.138905  0.822326 0.526627 1 0 1.000000
CARSKIN_SKIN1_DMG
0  41.928905 25.577951 17.969532  0.996918 -0.071395 -0.032518  0.851113 0.526109 1 0 1.000000
0  41.686668 25.688059 24.080494  0.987077 -0.079898 0.138905  0.822326 0.526627 1 0 1.000000
0  41.059055 15.536155 23.364796  0.986595 -0.081658 0.141289  0.825697 0.478804 1 0 1.000000
CARSKIN_SKIN1_DMG
0  41.686668 25.688059 24.080494  0.987077 -0.079898 0.138905  0.822326 0.526627 1 0 1.000000
0  41.928905 25.577951 17.969532  0.996918 -0.071395 -0.032518  0.851113 0.526109 1 0 1.000000
0  42.457420 32.206421 18.299854  0.995737 -0.089302 -0.023070  0.849557 0.557334 1 0 1.000000
CARSKIN_SKIN1_DMG
0  41.664646 32.272484 10.856593  0.990368 -0.093874 -0.101782  0.884620 0.557645 1 0 1.000000
0  42.457420 32.206421 18.299854  0.995737 -0.089302 -0.023070  0.849557 0.557334 1 0 1.000000
0  41.928905 25.577951 17.969532  0.996918 -0.071395 -0.032518  0.851113 0.526109 1 0 1.000000
CARSKIN_SKIN1_DMG
0  41.664646 32.272484 10.856593  0.990368 -0.093874 -0.101782  0.884620 0.557645 1 0 1.000000
0  42.369335 33.913086 15.106740  0.990980 -0.104905 -0.083383  0.864599 0.565374 1 0 1.000000
0  42.457420 32.206421 18.299854  0.995737 -0.089302 -0.023070  0.849557 0.557334 1 0 1.000000
CARSKIN_SKIN1_DMG
0  42.754711 35.895020 19.389917  0.996739 -0.079349 0.014682  0.844422 0.574710 1 0 1.000000
0  42.457420 32.206421 18.299854  0.995737 -0.089302 -0.023070  0.849557 0.557334 1 0 1.000000
0  42.369335 33.913086 15.106740  0.990980 -0.104905 -0.083383  0.864599 0.565374 1 0 1.000000
CARSKIN_SKIN1_DMG
0  42.193161 32.635838 24.553957  0.984694 -0.082397 0.153585  0.820095 0.559357 1 0 1.000000
0  42.457420 32.206421 18.299854  0.995737 -0.089302 -0.023070  0.849557 0.557334 1 0 1.000000
0  42.754711 35.895020 19.389917  0.996739 -0.079349 0.014682  0.844422 0.574710 1 0 1.000000
CARSKIN_SKIN1_DMG
0  41.686668 25.688059 24.080494  0.987077 -0.079898 0.138905  0.822326 0.526627 1 0 1.000000
0  40.750755 25.886251 28.286598  0.918375 -0.057545 0.391505  0.802512 0.527561 1 0 1.000000
0  40.024048 15.591208 27.229567  0.965051 -0.087526 0.247015  0.807491 0.479064 1 0 1.000000
CARSKIN_SKIN1_DMG
0  42.457420 32.206421 18.299854  0.995737 -0.089302 -0.023070  0.849557 0.557334 1 0 1.000000
0  42.193161 32.635838 24.553957  0.984694 -0.082397 0.153585  0.820095 0.559357 1 0 1.000000
0  41.686668 25.688059 24.080494  0.987077 -0.079898 0.138905  0.822326 0.526627 1 0 1.000000
CARSKIN_SKIN1_DMG
0  40.750755 25.886251 28.286598  0.918375 -0.057545 0.391505  0.802512 0.527561 1 0 1.000000
0  41.686668 25.688059 24.080494  0.987077 -0.079898 0.138905  0.822326 0.526627 1 0 1.000000
0  42.193161 32.635838 24.553957  0.984694 -0.082397 0.153585  0.820095 0.559357 1 0 1.000000
CARSKIN_SKIN1_DMG
0  42.193161 32.635838 24.553957  0.984694 -0.082397 0.153585  0.820095 0.559357 1 0 1.000000
0  41.059055 33.142334 28.705006  0.902234 -0.082191 0.423343  0.800541 0.561743 1 0 1.000000
0  40.750755 25.886251 28.286598  0.918375 -0.057545 0.391505  0.802512 0.527561 1 0 1.000000
CARSKIN_SKIN1_DMG
0  39.198242 26.106466 30.609863  0.720963 -0.045288 0.691492  0.791568 0.528598 1 0 1.000000
0  40.750755 25.886251 28.286598  0.918375 -0.057545 0.391505  0.802512 0.527561 1 0 1.000000
0  41.059055 33.142334 28.705006  0.902234 -0.082191 0.423343  0.800541 0.561743 1 0 1.000000
CARSKIN_SKIN1_DMG
0  41.059055 33.142334 28.705006  0.902234 -0.082191 0.423343  0.800541 0.561743 1 0 1.000000
0  39.396435 33.582764 31.215454  0.721030 -0.098631 0.685848  0.788715 0.563817 1 0 1.000000
0  39.198242 26.106466 30.609863  0.720963 -0.045288 0.691492  0.791568 0.528598 1 0 1.000000
CARSKIN_SKIN1_DMG
0  36.401512 26.469822 32.679882  0.442137 -0.067518 0.894403  0.781816 0.530310 1 0 1.000000
0  39.198242 26.106466 30.609863  0.720963 -0.045288 0.691492  0.791568 0.528598 1 0 1.000000
0  39.396435 33.582764 31.215454  0.721030 -0.098631 0.685848  0.788715 0.563817 1 0 1.000000
CARSKIN_SKIN1_DMG
0  39.396435 33.582764 31.215454  0.721030 -0.098631 0.685848  0.788715 0.563817 1 0 1.000000
0  36.423534 34.177341 33.571751  0.363278 -0.140489 0.921028  0.777615 0.566618 1 0 1.000000
0  36.401512 26.469822 32.679882  0.442137 -0.067518 0.894403  0.781816 0.530310 1 0 1.000000
CARSKIN_SKIN1_DMG
0  42.754711 35.895020 19.389917  0.996739 -0.079349 0.014682  0.844422 0.574710 1 0 1.000000
0  42.622581 38.306370 25.126514  0.974329 -0.090488 0.206145  0.817398 0.586069 1 0 1.000000
0  42.193161 32.635838 24.553957  0.984694 -0.082397 0.153585  0.820095 0.559357 1 0 1.000000
CARSKIN_SKIN1_DMG
0  41.059055 33.142334 28.705006  0.902234 -0.082191 0.423343  0.800541 0.561743 1 0 1.000000
0  42.193161 32.635838 24.553957  0.984694 -0.082397 0.153585  0.820095 0.559357 1 0 1.000000
0  42.622581 38.306370 25.126514  0.974329 -0.090488 0.206145  0.817398 0.586069 1 0 1.000000
CARSKIN_SKIN1_DMG
0  42.622581 38.306370 25.126514  0.974329 -0.090488 0.206145  0.817398 0.586069 1 0 1.000000
0  41.521507 39.704735 29.266554  0.875911 -0.103323 0.471279  0.797895 0.592657 1 0 1.000000
0  41.059055 33.142334 28.705006  0.902234 -0.082191 0.423343  0.800541 0.561743 1 0 1.000000
CARSKIN_SKIN1_DMG
0  39.396435 33.582764 31.215454  0.721030 -0.098631 0.685848  0.788715 0.563817 1 0 1.000000
0  41.059055 33.142334 28.705006  0.902234 -0.082191 0.423343  0.800541 0.561743 1 0 1.000000
0  41.521507 39.704735 29.266554  0.875911 -0.103323 0.471279  0.797895 0.592657 1 0 1.000000
CARSKIN_SKIN1_DMG
0  41.521507 39.704735 29.266554  0.875911 -0.103323 0.471279  0.797895 0.592657 1 0 1.000000
0  39.759789 40.332348 32.030247  0.690808 -0.129016 0.711435  0.784876 0.595613 1 0 1.000000
0  39.396435 33.582764 31.215454  0.721030 -0.098631 0.685848  0.788715 0.563817 1 0 1.000000
CARSKIN_SKIN1_DMG
0  36.423534 34.177341 33.571751  0.363278 -0.140489 0.921028  0.777615 0.566618 1 0 1.000000
0  39.396435 33.582764 31.215454  0.721030 -0.098631 0.685848  0.788715 0.563817 1 0 1.000000
0  39.759789 40.332348 32.030247  0.690808 -0.129016 0.711435  0.784876 0.595613 1 0 1.000000
CARSKIN_SKIN1_DMG
0  39.759789 40.332348 32.030247  0.690808 -0.129016 0.711435  0.784876 0.595613 1 0 1.000000
0  36.412521 40.464478 34.749901  0.396529 -0.168779 0.902374  0.772065 0.596236 1 0 1.000000
0  36.423534 34.177341 33.571751  0.363278 -0.140489 0.921028  0.777615 0.566618 1 0 1.000000
CARSKIN_SKIN1_DMG
0  36.423534 34.177341 33.571751  0.363278 -0.140489 0.921028  0.777615 0.566618 1 0 1.000000
0  36.412521 40.464478 34.749901  0.396529 -0.168779 0.902374  0.772065 0.596236 1 0 1.000000
0  36.005127 40.431442 34.804955  0.023943 -0.181418 0.983115  0.771805 0.596080 1 0 1.000000
CARSKIN_SKIN1_DMG
0  36.005127 40.431442 34.804955  0.023943 -0.181418 0.983115  0.771805 0.596080 1 0 1.000000
0  36.016136 34.210373 33.637817  0.026391 -0.139075 0.989930  0.777303 0.566774 1 0 1.000000
0  36.423534 34.177341 33.571751  0.363278 -0.140489 0.921028  0.777615 0.566618 1 0 1.000000
CARSKIN_SKIN1_DMG
0  36.423534 34.177341 33.571751  0.363278 -0.140489 0.921028  0.777615 0.566618 1 0 1.000000
0  36.016136 34.210373 33.637817  0.026391 -0.139075 0.989930  0.777303 0.566774 1 0 1.000000
0  35.994114 26.480833 32.767967  0.112750 -0.067785 0.991308  0.781401 0.530362 1 0 1.000000
CARSKIN_SKIN1_DMG
0  35.994114 26.480833 32.767967  0.112750 -0.067785 0.991308  0.781401 0.530362 1 0 1.000000
0  36.401512 26.469822 32.679882  0.442137 -0.067518 0.894403  0.781816 0.530310 1 0 1.000000
0  36.423534 34.177341 33.571751  0.363278 -0.140489 0.921028  0.777615 0.566618 1 0 1.000000
CARSKIN_SKIN1_DMG
0  36.335449 15.646262 32.448658  0.399805 -0.018337 0.916417  0.782905 0.479323 1 0 1.000000
0  36.401512 26.469822 32.679882  0.442137 -0.067518 0.894403  0.781816 0.530310 1 0 1.000000
0  35.994114 26.480833 32.767967  0.112750 -0.067785 0.991308  0.781401 0.530362 1 0 1.000000
CARSKIN_SKIN1_DMG
0  39.198242 26.106466 30.609863  0.720963 -0.045288 0.691492  0.791568 0.528598 1 0 1.000000
0  36.401512 26.469822 32.679882  0.442137 -0.067518 0.894403  0.781816 0.530310 1 0 1.000000
0  36.335449 15.646262 32.448658  0.399805 -0.018337 0.916417  0.782905 0.479323 1 0 1.000000
CARSKIN_SKIN1_DMG
0  36.335449 15.646262 32.448658  0.399805 -0.018337 0.916417  0.782905 0.479323 1 0 1.000000
0  39.308350 15.602220 30.257521  0.742068 -0.014738 0.670163  0.793227 0.479115 1 0 1.000000
0  39.198242 26.106466 30.609863  0.720963 -0.045288 0.691492  0.791568 0.528598 1 0 1.000000
CARSKIN_SKIN1_DMG
0  40.750755 25.886251 28.286598  0.918375 -0.057545 0.391505  0.802512 0.527561 1 0 1.000000
0  39.198242 26.106466 30.609863  0.720963 -0.045288 0.691492  0.791568 0.528598 1 0 1.000000
0  39.308350 15.602220 30.257521  0.742068 -0.014738 0.670163  0.793227 0.479115 1 0 1.000000
CARSKIN_SKIN1_DMG
0  39.308350 15.602220 30.257521  0.742068 -0.014738 0.670163  0.793227 0.479115 1 0 1.000000
0  40.783787 15.558176 27.636965  0.878494 -0.013734 0.477556  0.805572 0.478908 1 0 1.000000
0  40.750755 25.886251 28.286598  0.918375 -0.057545 0.391505  0.802512 0.527561 1 0 1.000000
CARSKIN_SKIN1_DMG
0  40.783787 15.558176 27.636965  0.878494 -0.013734 0.477556  0.805572 0.478908 1 0 1.000000
0  39.308350 15.602220 30.257521  0.742068 -0.014738 0.670163  0.793227 0.479115 1 0 1.000000
0  39.484520 3.853758 29.905176  0.763566 -0.009614 0.645659  0.794887 0.423771 1 0 1.000000
CARSKIN_SKIN1_DMG
0  39.484520 3.853758 29.905176  0.763566 -0.009614 0.645659  0.794887 0.423771 1 0 1.000000
0  41.004002 3.963865 26.899244  0.899004 -0.007263 0.437880  0.809047 0.424290 1 0 1.000000
0  40.783787 15.558176 27.636965  0.878494 -0.013734 0.477556  0.805572 0.478908 1 0 1.000000
CARSKIN_SKIN1_DMG
0  41.004002 3.963865 26.899244  0.899004 -0.007263 0.437880  0.809047 0.424290 1 0 1.000000
0  39.484520 3.853758 29.905176  0.763566 -0.009614 0.645659  0.794887 0.423771 1 0 1.000000
0  39.693726 -7.123952 29.519800  0.824545 -0.009185 0.565722  0.796702 0.372058 1 0 1.000000
CARSKIN_SKIN1_DMG
0  39.693726 -7.123952 29.519800  0.824545 -0.009185 0.565722  0.796702 0.372058 1 0 1.000000
0  41.268261 -9.689455 25.985353  0.911082 -0.010646 0.412088  0.813352 0.359973 1 0 1.000000
0  41.004002 3.963865 26.899244  0.899004 -0.007263 0.437880  0.809047 0.424290 1 0 1.000000
CARSKIN_SKIN1_DMG
0  36.203320 -3.864772 32.272484  0.397103 -0.013031 0.917681  0.783735 0.387411 1 0 1.000000
0  39.693726 -7.123952 29.519800  0.824545 -0.009185 0.565722  0.796702 0.372058 1 0 1.000000
0  39.484520 3.853758 29.905176  0.763566 -0.009614 0.645659  0.794887 0.423771 1 0 1.000000
CARSKIN_SKIN1_DMG
0  35.994114 26.480833 32.767967  0.112750 -0.067785 0.991308  0.781401 0.530362 1 0 1.000000
0  35.928051 15.646262 32.525730  0.084734 -0.015750 0.996279  0.782542 0.479323 1 0 1.000000
0  36.335449 15.646262 32.448658  0.399805 -0.018337 0.916417  0.782905 0.479323 1 0 1.000000
CARSKIN_SKIN1_DMG
0  36.258373 3.666575 32.338551  0.398416 -0.011869 0.917128  0.783424 0.422890 1 0 1.000000
0  36.335449 15.646262 32.448658  0.399805 -0.018337 0.916417  0.782905 0.479323 1 0 1.000000
0  35.928051 15.646262 32.525730  0.084734 -0.015750 0.996279  0.782542 0.479323 1 0 1.000000
CARSKIN_SKIN1_DMG
0  39.308350 15.602220 30.257521  0.742068 -0.014738 0.670163  0.793227 0.479115 1 0 1.000000
0  36.335449 15.646262 32.448658  0.399805 -0.018337 0.916417  0.782905 0.479323 1 0 1.000000
0  36.258373 3.666575 32.338551  0.398416 -0.011869 0.917128  0.783424 0.422890 1 0 1.000000
CARSKIN_SKIN1_DMG
0  36.258373 3.666575 32.338551  0.398416 -0.011869 0.917128  0.783424 0.422890 1 0 1.000000
0  39.484520 3.853758 29.905176  0.763566 -0.009614 0.645659  0.794887 0.423771 1 0 1.000000
0  39.308350 15.602220 30.257521  0.742068 -0.014738 0.670163  0.793227 0.479115 1 0 1.000000
CARSKIN_SKIN1_DMG
0  39.484520 3.853758 29.905176  0.763566 -0.009614 0.645659  0.794887 0.423771 1 0 1.000000
0  36.258373 3.666575 32.338551  0.398416 -0.011869 0.917128  0.783424 0.422890 1 0 1.000000
0  36.203320 -3.864772 32.272484  0.397103 -0.013031 0.917681  0.783735 0.387411 1 0 1.000000
CARSKIN_SKIN1_DMG
0  36.203320 -3.864772 32.272484  0.397103 -0.013031 0.917681  0.783735 0.387411 1 0 1.000000
0  36.258373 3.666575 32.338551  0.398416 -0.011869 0.917128  0.783424 0.422890 1 0 1.000000
0  35.839966 3.644554 32.415623  0.058502 -0.010835 0.998228  0.783061 0.422786 1 0 1.000000
CARSKIN_SKIN1_DMG
0  35.839966 3.644554 32.415623  0.058502 -0.010835 0.998228  0.783061 0.422786 1 0 1.000000
0  35.784912 -3.677589 32.338551  0.032301 -0.009031 0.999437  0.783424 0.388293 1 0 1.000000
0  36.203320 -3.864772 32.272484  0.397103 -0.013031 0.917681  0.783735 0.387411 1 0 1.000000
CARSKIN_SKIN1_DMG
0  35.928051 15.646262 32.525730  0.084734 -0.015750 0.996279  0.782542 0.479323 1 0 1.000000
0  35.839966 3.644554 32.415623  0.058502 -0.010835 0.998228  0.783061 0.422786 1 0 1.000000
0  36.258373 3.666575 32.338551  0.398416 -0.011869 0.917128  0.783424 0.422890 1 0 1.000000
CARSKIN_SKIN1_DMG
0  33.186375 -3.435353 32.261475  -0.048714 -0.005501 0.998798  0.783787 0.389434 1 0 1.000000
0  33.307495 -1.530495 32.283497  -0.038969 -0.008312 0.999206  0.783683 0.398407 1 0 1.000000
0  32.701904 -3.358278 32.228443  -0.066842 -0.004196 0.997755  0.783943 0.389797 1 0 1.000000
CARSKIN_SKIN1_DMG
0  33.307495 -1.530495 32.283497  -0.038969 -0.008312 0.999206  0.783683 0.398407 1 0 1.000000
0  33.186375 -3.435353 32.261475  -0.048714 -0.005501 0.998798  0.783787 0.389434 1 0 1.000000
0  35.784912 -3.677589 32.338551  0.032301 -0.009031 0.999437  0.783424 0.388293 1 0 1.000000
CARSKIN_SKIN1_DMG
0  35.784912 -3.677589 32.338551  0.032301 -0.009031 0.999437  0.783424 0.388293 1 0 1.000000
0  35.839966 3.644554 32.415623  0.058502 -0.010835 0.998228  0.783061 0.422786 1 0 1.000000
0  33.307495 -1.530495 32.283497  -0.038969 -0.008312 0.999206  0.783683 0.398407 1 0 1.000000
CARSKIN_SKIN1_DMG
0  33.307495 -1.530495 32.283497  -0.038969 -0.008312 0.999206  0.783683 0.398407 1 0 1.000000
0  35.839966 3.644554 32.415623  0.058502 -0.010835 0.998228  0.783061 0.422786 1 0 1.000000
0  33.648827 3.545457 32.360569  -0.025720 -0.012391 0.999592  0.783320 0.422319 1 0 1.000000
CARSKIN_SKIN1_DMG
0  34.199364 15.668283 32.514721  -0.014069 -0.013790 0.999806  0.782594 0.479427 1 0 1.000000
0  33.648827 3.545457 32.360569  -0.025720 -0.012391 0.999592  0.783320 0.422319 1 0 1.000000
0  35.839966 3.644554 32.415623  0.058502 -0.010835 0.998228  0.783061 0.422786 1 0 1.000000
CARSKIN_SKIN1_DMG
0  35.839966 3.644554 32.415623  0.058502 -0.010835 0.998228  0.783061 0.422786 1 0 1.000000
0  35.928051 15.646262 32.525730  0.084734 -0.015750 0.996279  0.782542 0.479323 1 0 1.000000
0  34.199364 15.668283 32.514721  -0.014069 -0.013790 0.999806  0.782594 0.479427 1 0 1.000000
CARSKIN_SKIN1_DMG
0  34.364525 26.491842 32.734936  -0.030550 -0.063752 0.997498  0.781557 0.530414 1 0 1.000000
0  34.199364 15.668283 32.514721  -0.014069 -0.013790 0.999806  0.782594 0.479427 1 0 1.000000
0  35.928051 15.646262 32.525730  0.084734 -0.015750 0.996279  0.782542 0.479323 1 0 1.000000
CARSKIN_SKIN1_DMG
0  35.928051 15.646262 32.525730  0.084734 -0.015750 0.996279  0.782542 0.479323 1 0 1.000000
0  35.994114 26.480833 32.767967  0.112750 -0.067785 0.991308  0.781401 0.530362 1 0 1.000000
0  34.364525 26.491842 32.734936  -0.030550 -0.063752 0.997498  0.781557 0.530414 1 0 1.000000
CARSKIN_SKIN1_DMG
0  34.364525 26.491842 32.734936  -0.030550 -0.063752 0.997498  0.781557 0.530414 1 0 1.000000
0  35.994114 26.480833 32.767967  0.112750 -0.067785 0.991308  0.781401 0.530362 1 0 1.000000
0  36.016136 34.210373 33.637817  0.026391 -0.139075 0.989930  0.777303 0.566774 1 0 1.000000
CARSKIN_SKIN1_DMG
0  36.016136 34.210373 33.637817  0.026391 -0.139075 0.989930  0.777303 0.566774 1 0 1.000000
0  34.012180 34.342503 33.494678  -0.093117 -0.152016 0.983982  0.777978 0.567396 1 0 1.000000
0  34.364525 26.491842 32.734936  -0.030550 -0.063752 0.997498  0.781557 0.530414 1 0 1.000000
CARSKIN_SKIN1_DMG
0  34.012180 34.342503 33.494678  -0.093117 -0.152016 0.983982  0.777978 0.567396 1 0 1.000000
0  36.016136 34.210373 33.637817  0.026391 -0.139075 0.989930  0.777303 0.566774 1 0 1.000000
0  36.005127 40.431442 34.804955  0.023943 -0.181418 0.983115  0.771805 0.596080 1 0 1.000000
CARSKIN_SKIN1_DMG
0  36.005127 40.431442 34.804955  0.023943 -0.181418 0.983115  0.771805 0.596080 1 0 1.000000
0  33.637817 40.035057 34.452610  -0.117607 -0.172010 0.978050  0.773465 0.594213 1 0 1.000000
0  34.012180 34.342503 33.494678  -0.093117 -0.152016 0.983982  0.777978 0.567396 1 0 1.000000
CARSKIN_SKIN1_DMG
0  38.273338 -7.366188 24.961353  0.377126 0.073788 -0.923218  0.818176 0.370917 1 0 1.000000
0  41.268261 -9.689455 25.985353  0.375259 0.077698 -0.923658  0.813352 0.359973 1 0 1.000000
0  37.733810 -15.051686 24.014429  0.380796 0.086070 -0.920645  0.822637 0.334712 1 0 1.000000
CARSKIN_SKIN1_DMG
0  41.004002 3.963865 26.899244  0.403340 0.064512 -0.912773  0.809047 0.424290 1 0 1.000000
0  41.268261 -9.689455 25.985353  0.375259 0.077698 -0.923658  0.813352 0.359973 1 0 1.000000
0  38.273338 -7.366188 24.961353  0.377126 0.073788 -0.923218  0.818176 0.370917 1 0 1.000000
CARSKIN_SKIN1_DMG
0  38.273338 -7.366188 24.961353  0.377126 0.073788 -0.923218  0.818176 0.370917 1 0 1.000000
0  39.198242 4.029930 26.161524  0.380993 0.061829 -0.922508  0.812522 0.424601 1 0 1.000000
0  41.004002 3.963865 26.899244  0.403340 0.064512 -0.912773  0.809047 0.424290 1 0 1.000000
CARSKIN_SKIN1_DMG
0  41.004002 3.963865 26.899244  0.403340 0.064512 -0.912773  0.809047 0.424290 1 0 1.000000
0  39.198242 4.029930 26.161524  0.380993 0.061829 -0.922508  0.812522 0.424601 1 0 1.000000
0  40.024048 15.591208 27.229567  0.447394 0.059574 -0.892351  0.807491 0.479064 1 0 1.000000
CARSKIN_SKIN1_DMG
0  40.024048 15.591208 27.229567  0.447394 0.059574 -0.892351  0.807491 0.479064 1 0 1.000000
0  40.783787 15.558176 27.636965  0.479722 0.060368 -0.875341  0.805572 0.478908 1 0 1.000000
0  41.004002 3.963865 26.899244  0.403340 0.064512 -0.912773  0.809047 0.424290 1 0 1.000000
CARSKIN_SKIN1_DMG
0  40.024048 15.591208 27.229567  0.447394 0.059574 -0.892351  0.807491 0.479064 1 0 1.000000
0  40.750755 25.886251 28.286598  0.479646 0.055978 -0.875675  0.802512 0.527561 1 0 1.000000
0  40.783787 15.558176 27.636965  0.479722 0.060368 -0.875341  0.805572 0.478908 1 0 1.000000
end
