version 1
nodes
0 "root" -1
end
skeleton
time 0
0  0.000000 0.000000 0.000000  0.000000 -0.000000 0.000000
end
triangles
DULLPLASTIC_MISC
0  -33.924095 34.342503 33.604786  0.115146 -0.155553 0.981094  0.820338 0.849605 1 0 1.000000
0  -32.988182 38.053123 34.078247  0.115146 -0.155551 0.981094  0.878933 0.855464 1 0 1.000000
0  -33.604786 38.185253 34.177341  0.115145 -0.155554 0.981094  0.820338 0.855464 1 0 1.000000
DULLPLASTIC_MISC
0  -33.175365 -1.431395 32.404613  0.018674 -0.011633 0.999758  0.820338 0.789056 1 0 1.000000
0  -32.602806 -0.935912 32.404613  0.014185 -0.012636 0.999820  0.878933 0.789056 1 0 1.000000
0  -33.604786 3.545460 32.470676  0.009403 -0.012633 0.999876  0.820338 0.796869 1 0 1.000000
DULLPLASTIC_MISC
0  -33.153343 6.936769 32.514721  0.005423 -0.013123 0.999899  0.878933 0.802728 1 0 1.000000
0  -33.604786 3.545460 32.470676  0.009403 -0.012633 0.999876  0.820338 0.796869 1 0 1.000000
0  -32.602806 -0.935912 32.404613  0.014185 -0.012636 0.999820  0.878933 0.789056 1 0 1.000000
DULLPLASTIC_MISC
0  -33.604786 3.545460 32.470676  0.009403 -0.012633 0.999876  0.820338 0.796869 1 0 1.000000
0  -33.153343 6.936769 32.514721  0.005423 -0.013123 0.999899  0.878933 0.802728 1 0 1.000000
0  -33.461643 15.712331 32.624828  0.011461 -0.015960 0.999807  0.878933 0.818354 1 0 1.000000
DULLPLASTIC_MISC
0  -33.461643 15.712331 32.624828  0.011461 -0.015960 0.999807  0.878933 0.818354 1 0 1.000000
0  -34.155319 15.668287 32.624828  0.008130 -0.016358 0.999833  0.820338 0.818354 1 0 1.000000
0  -33.604786 3.545460 32.470676  0.009403 -0.012633 0.999876  0.820338 0.796869 1 0 1.000000
DULLPLASTIC_MISC
0  -34.309471 26.480837 32.845043  0.021003 -0.045199 0.998757  0.820338 0.835932 1 0 1.000000
0  -34.155319 15.668287 32.624828  0.008130 -0.016358 0.999833  0.820338 0.818354 1 0 1.000000
0  -33.461643 15.712331 32.624828  0.011461 -0.015960 0.999807  0.878933 0.818354 1 0 1.000000
DULLPLASTIC_MISC
0  -33.461643 15.712331 32.624828  0.011461 -0.015960 0.999807  0.878933 0.818354 1 0 1.000000
0  -33.626804 26.469826 32.823021  0.131751 -0.065675 0.989105  0.878933 0.835932 1 0 1.000000
0  -34.309471 26.480837 32.845043  0.021003 -0.045199 0.998757  0.820338 0.835932 1 0 1.000000
DULLPLASTIC_MISC
0  -33.924095 34.342503 33.604786  0.150350 -0.109221 0.982581  0.820338 0.849605 1 0 1.000000
0  -34.309471 26.480837 32.845043  0.021003 -0.045199 0.998757  0.820338 0.835932 1 0 1.000000
0  -33.626804 26.469826 32.823021  0.131751 -0.065675 0.989105  0.878933 0.835932 1 0 1.000000
DULLPLASTIC_MISC
0  -33.626804 26.469826 32.823021  0.131751 -0.065675 0.989105  0.878933 0.835932 1 0 1.000000
0  -33.384571 32.085300 33.219410  0.211978 -0.114775 0.970511  0.878933 0.845698 1 0 1.000000
0  -33.924095 34.342503 33.604786  0.150350 -0.109221 0.982581  0.820338 0.849605 1 0 1.000000
DULLPLASTIC_MISC
0  -33.924095 34.342503 33.604786  0.150350 -0.109221 0.982581  0.820338 0.849605 1 0 1.000000
0  -33.384571 32.085300 33.219410  0.211978 -0.114775 0.970511  0.878933 0.845698 1 0 1.000000
0  -32.988182 38.053123 34.078247  0.115134 -0.155547 0.981096  0.878933 0.855464 1 0 1.000000
DULLPLASTIC_MISC
0  -33.307495 -1.530492 32.283497  -0.759597 -0.066731 0.646961  0.820338 0.787103 1 0 1.000000
0  -33.175365 -1.431395 32.404613  -0.637843 -0.064397 0.767469  0.820338 0.789056 1 0 1.000000
0  -33.604786 3.545460 32.470676  -0.796241 -0.059692 0.602027  0.820338 0.796869 1 0 1.000000
DULLPLASTIC_MISC
0  -33.604786 3.545460 32.470676  -0.796241 -0.059692 0.602027  0.820338 0.796869 1 0 1.000000
0  -33.670849 3.545460 32.360569  -0.860633 -0.052573 0.506504  0.820338 0.796869 1 0 1.000000
0  -33.307495 -1.530492 32.283497  -0.759597 -0.066731 0.646961  0.820338 0.787103 1 0 1.000000
DULLPLASTIC_MISC
0  -33.670849 3.545460 32.360569  -0.860633 -0.052573 0.506504  0.820338 0.796869 1 0 1.000000
0  -33.604786 3.545460 32.470676  -0.796241 -0.059692 0.602027  0.820338 0.796869 1 0 1.000000
0  -34.155319 15.668287 32.624828  -0.860417 -0.034243 0.508438  0.820338 0.818354 1 0 1.000000
DULLPLASTIC_MISC
0  -34.155319 15.668287 32.624828  -0.860417 -0.034243 0.508438  0.820338 0.818354 1 0 1.000000
0  -34.221386 15.668287 32.514721  -0.863014 -0.034273 0.504016  0.820338 0.818354 1 0 1.000000
0  -33.670849 3.545460 32.360569  -0.860633 -0.052573 0.506504  0.820338 0.796869 1 0 1.000000
DULLPLASTIC_MISC
0  -34.386547 26.491846 32.734936  -0.858112 -0.019536 0.513091  0.820338 0.835932 1 0 1.000000
0  -34.221386 15.668287 32.514721  -0.863014 -0.034273 0.504016  0.820338 0.818354 1 0 1.000000
0  -34.155319 15.668287 32.624828  -0.860417 -0.034243 0.508438  0.820338 0.818354 1 0 1.000000
DULLPLASTIC_MISC
0  -34.155319 15.668287 32.624828  -0.860417 -0.034243 0.508438  0.820338 0.818354 1 0 1.000000
0  -34.309471 26.480837 32.845043  -0.813368 -0.022582 0.581311  0.820338 0.835932 1 0 1.000000
0  -34.386547 26.491846 32.734936  -0.858112 -0.019536 0.513091  0.820338 0.835932 1 0 1.000000
DULLPLASTIC_MISC
0  -34.034203 34.342503 33.494678  -0.648168 -0.062930 0.758893  0.820338 0.849605 1 0 1.000000
0  -34.386547 26.491846 32.734936  -0.858112 -0.019536 0.513091  0.820338 0.835932 1 0 1.000000
0  -34.309471 26.480837 32.845043  -0.813368 -0.022582 0.581311  0.820338 0.835932 1 0 1.000000
DULLPLASTIC_MISC
0  -34.309471 26.480837 32.845043  -0.813368 -0.022582 0.581311  0.820338 0.835932 1 0 1.000000
0  -33.924095 34.342503 33.604786  -0.714833 -0.037973 0.698264  0.820338 0.849605 1 0 1.000000
0  -34.034203 34.342503 33.494678  -0.648168 -0.062930 0.758893  0.820338 0.849605 1 0 1.000000
DULLPLASTIC_MISC
0  -34.034203 34.342503 33.494678  -0.648168 -0.062930 0.758893  0.820338 0.849605 1 0 1.000000
0  -33.924095 34.342503 33.604786  -0.714833 -0.037973 0.698264  0.820338 0.849605 1 0 1.000000
0  -33.604786 38.185253 34.177341  -0.469664 -0.102529 0.876872  0.820338 0.855464 1 0 1.000000
DULLPLASTIC_MISC
0  -33.659840 40.035057 34.452610  -0.180142 -0.151310 0.971933  0.820338 0.859371 1 0 1.000000
0  -34.034203 34.342503 33.494678  -0.648168 -0.062930 0.758893  0.820338 0.849605 1 0 1.000000
0  -33.604786 38.185253 34.177341  -0.469664 -0.102529 0.876872  0.820338 0.855464 1 0 1.000000
CARSKIN_SKIN1
0  -33.175365 -1.431395 32.404613  -0.564849 -0.209734 0.798096  0.063220 0.428019 1 0 1.000000
0  -33.307495 -1.530492 32.283497  -0.564881 -0.209755 0.798068  0.062639 0.427583 1 0 1.000000
0  -32.701904 -3.358275 32.228443  -0.564849 -0.209735 0.798096  0.065304 0.419538 1 0 1.000000
CARSKIN_SKIN1
0  -42.215183 32.635838 24.553953  -0.983030 -0.086180 0.161940  0.661180 0.559367 1 0 1.000000
0  -42.479443 32.206421 18.299850  -0.995799 -0.086663 -0.029553  0.631718 0.557344 1 0 1.000000
0  -41.950928 25.577955 17.969528  -0.996763 -0.075825 -0.026714  0.630162 0.526119 1 0 1.000000
CARSKIN_SKIN1
0  -41.950928 25.577955 17.969528  -0.996763 -0.075825 -0.026714  0.630162 0.526119 1 0 1.000000
0  -41.708691 25.688063 24.080490  -0.987996 -0.072858 0.136221  0.658950 0.526638 1 0 1.000000
0  -42.215183 32.635838 24.553953  -0.983030 -0.086180 0.161940  0.661180 0.559367 1 0 1.000000
CARSKIN_SKIN1
0  -41.081078 33.142334 28.705002  -0.906606 -0.087512 0.412805  0.680735 0.561753 1 0 1.000000
0  -42.215183 32.635838 24.553953  -0.983030 -0.086180 0.161940  0.661180 0.559367 1 0 1.000000
0  -41.708691 25.688063 24.080490  -0.987996 -0.072858 0.136221  0.658950 0.526638 1 0 1.000000
CARSKIN_SKIN1
0  -41.708691 25.688063 24.080490  -0.987996 -0.072858 0.136221  0.658950 0.526638 1 0 1.000000
0  -40.772778 25.886255 28.286594  -0.913008 -0.066583 0.402470  0.678764 0.527571 1 0 1.000000
0  -41.081078 33.142334 28.705002  -0.906606 -0.087512 0.412805  0.680735 0.561753 1 0 1.000000
CARSKIN_SKIN1
0  -39.418457 33.582764 31.215450  -0.725840 -0.101391 0.680350  0.692561 0.563828 1 0 1.000000
0  -41.081078 33.142334 28.705002  -0.906606 -0.087512 0.412805  0.680735 0.561753 1 0 1.000000
0  -40.772778 25.886255 28.286594  -0.913008 -0.066583 0.402470  0.678764 0.527571 1 0 1.000000
CARSKIN_SKIN1
0  -40.772778 25.886255 28.286594  -0.913008 -0.066583 0.402470  0.678764 0.527571 1 0 1.000000
0  -39.220261 26.106470 30.609859  -0.732483 -0.051120 0.678863  0.689708 0.528609 1 0 1.000000
0  -39.418457 33.582764 31.215450  -0.725840 -0.101391 0.680350  0.692561 0.563828 1 0 1.000000
CARSKIN_SKIN1
0  -36.445557 34.177341 33.571751  -0.357085 -0.133925 0.924421  0.703661 0.566629 1 0 1.000000
0  -39.418457 33.582764 31.215450  -0.725840 -0.101391 0.680350  0.692561 0.563828 1 0 1.000000
0  -39.220261 26.106470 30.609859  -0.732483 -0.051120 0.678863  0.689708 0.528609 1 0 1.000000
CARSKIN_SKIN1
0  -39.220261 26.106470 30.609859  -0.732483 -0.051120 0.678863  0.689708 0.528609 1 0 1.000000
0  -36.423534 26.469826 32.679882  -0.438668 -0.055779 0.896917  0.699459 0.530321 1 0 1.000000
0  -36.445557 34.177341 33.571751  -0.357085 -0.133925 0.924421  0.703661 0.566629 1 0 1.000000
CARSKIN_SKIN1
0  -36.423534 26.469826 32.679882  -0.438668 -0.055779 0.896917  0.699459 0.530321 1 0 1.000000
0  -39.220261 26.106470 30.609859  -0.732483 -0.051120 0.678863  0.689708 0.528609 1 0 1.000000
0  -39.330368 15.602223 30.257517  -0.754272 -0.013550 0.656422  0.688048 0.479126 1 0 1.000000
CARSKIN_SKIN1
0  -40.805809 15.558180 27.636961  -0.858215 -0.018191 0.512968  0.675703 0.478918 1 0 1.000000
0  -39.330368 15.602223 30.257517  -0.754272 -0.013550 0.656422  0.688048 0.479126 1 0 1.000000
0  -39.220261 26.106470 30.609859  -0.732483 -0.051120 0.678863  0.689708 0.528609 1 0 1.000000
CARSKIN_SKIN1
0  -39.330368 15.602223 30.257517  -0.754272 -0.013550 0.656422  0.688048 0.479126 1 0 1.000000
0  -40.805809 15.558180 27.636961  -0.858215 -0.018191 0.512968  0.675703 0.478918 1 0 1.000000
0  -41.026024 3.963869 26.899240  -0.885676 -0.009462 0.464208  0.672228 0.424300 1 0 1.000000
CARSKIN_SKIN1
0  -39.220261 26.106470 30.609859  -0.732483 -0.051120 0.678863  0.689708 0.528609 1 0 1.000000
0  -40.772778 25.886255 28.286594  -0.913008 -0.066583 0.402470  0.678764 0.527571 1 0 1.000000
0  -40.805809 15.558180 27.636961  -0.858215 -0.018191 0.512968  0.675703 0.478918 1 0 1.000000
CARSKIN_SKIN1
0  -40.772778 25.886255 28.286594  -0.913008 -0.066583 0.402470  0.678764 0.527571 1 0 1.000000
0  -41.708691 25.688063 24.080490  -0.987996 -0.072858 0.136221  0.658950 0.526638 1 0 1.000000
0  -41.081078 15.536159 23.364792  -0.987730 -0.083426 0.132018  0.655578 0.478815 1 0 1.000000
CARSKIN_SKIN1
0  -41.191185 15.525147 17.441013  -0.996405 -0.075964 -0.037504  0.627673 0.478763 1 0 1.000000
0  -41.081078 15.536159 23.364792  -0.987730 -0.083426 0.132018  0.655578 0.478815 1 0 1.000000
0  -41.708691 25.688063 24.080490  -0.987996 -0.072858 0.136221  0.658950 0.526638 1 0 1.000000
CARSKIN_SKIN1
0  -41.708691 25.688063 24.080490  -0.987996 -0.072858 0.136221  0.658950 0.526638 1 0 1.000000
0  -41.950928 25.577955 17.969528  -0.996763 -0.075825 -0.026714  0.630162 0.526119 1 0 1.000000
0  -41.191185 15.525147 17.441013  -0.996405 -0.075964 -0.037504  0.627673 0.478763 1 0 1.000000
CARSKIN_SKIN1
0  -41.081078 15.536159 23.364792  -0.987730 -0.083426 0.132018  0.655578 0.478815 1 0 1.000000
0  -41.191185 15.525147 17.441013  -0.996405 -0.075964 -0.037504  0.627673 0.478763 1 0 1.000000
0  -40.200218 3.963869 16.769358  -0.995286 -0.086325 -0.044197  0.624509 0.424300 1 0 1.000000
CARSKIN_SKIN1
0  -36.203320 -3.864769 32.272484  -0.322787 -0.011528 0.946401  0.697540 0.387422 1 0 1.000000
0  -35.784912 -3.677586 32.338551  -0.032313 -0.009038 0.999437  0.697851 0.388303 1 0 1.000000
0  -35.861984 3.644557 32.415623  -0.058463 -0.010838 0.998231  0.698214 0.422796 1 0 1.000000
CARSKIN_SKIN1
0  -35.861984 3.644557 32.415623  -0.058463 -0.010838 0.998231  0.698214 0.422796 1 0 1.000000
0  -36.280396 3.666579 32.338551  -0.401736 -0.012337 0.915672  0.697851 0.422900 1 0 1.000000
0  -36.203320 -3.864769 32.272484  -0.322787 -0.011528 0.946401  0.697540 0.387422 1 0 1.000000
CARSKIN_SKIN1
0  -39.693726 -7.123948 29.519796  -0.730346 -0.009187 0.683016  0.684573 0.372068 1 0 1.000000
0  -36.203320 -3.864769 32.272484  -0.322787 -0.011528 0.946401  0.697540 0.387422 1 0 1.000000
0  -36.280396 3.666579 32.338551  -0.401736 -0.012337 0.915672  0.697851 0.422900 1 0 1.000000
CARSKIN_SKIN1
0  -36.280396 3.666579 32.338551  -0.401736 -0.012337 0.915672  0.697851 0.422900 1 0 1.000000
0  -39.506542 3.853761 29.905172  -0.771973 -0.009312 0.635587  0.686388 0.423782 1 0 1.000000
0  -39.693726 -7.123948 29.519796  -0.730346 -0.009187 0.683016  0.684573 0.372068 1 0 1.000000
CARSKIN_SKIN1
0  -41.268261 -9.689451 25.985350  -0.904102 -0.005430 0.427282  0.667923 0.359983 1 0 1.000000
0  -39.693726 -7.123948 29.519796  -0.730346 -0.009187 0.683016  0.684573 0.372068 1 0 1.000000
0  -39.506542 3.853761 29.905172  -0.771973 -0.009312 0.635587  0.686388 0.423782 1 0 1.000000
CARSKIN_SKIN1
0  -39.506542 3.853761 29.905172  -0.771973 -0.009312 0.635587  0.686388 0.423782 1 0 1.000000
0  -41.026024 3.963869 26.899240  -0.885676 -0.009462 0.464208  0.672228 0.424300 1 0 1.000000
0  -41.268261 -9.689451 25.985350  -0.904102 -0.005430 0.427282  0.667923 0.359983 1 0 1.000000
CARSKIN_SKIN1
0  -41.026024 3.963869 26.899240  -0.885676 -0.009462 0.464208  0.672228 0.424300 1 0 1.000000
0  -39.506542 3.853761 29.905172  -0.771973 -0.009312 0.635587  0.686388 0.423782 1 0 1.000000
0  -39.330368 15.602223 30.257517  -0.754272 -0.013550 0.656422  0.688048 0.479126 1 0 1.000000
CARSKIN_SKIN1
0  -36.357468 15.646266 32.448658  -0.401242 -0.017461 0.915806  0.698370 0.479333 1 0 1.000000
0  -39.330368 15.602223 30.257517  -0.754272 -0.013550 0.656422  0.688048 0.479126 1 0 1.000000
0  -39.506542 3.853761 29.905172  -0.771973 -0.009312 0.635587  0.686388 0.423782 1 0 1.000000
CARSKIN_SKIN1
0  -39.330368 15.602223 30.257517  -0.754272 -0.013550 0.656422  0.688048 0.479126 1 0 1.000000
0  -36.357468 15.646266 32.448658  -0.401242 -0.017461 0.915806  0.698370 0.479333 1 0 1.000000
0  -36.423534 26.469826 32.679882  -0.438668 -0.055779 0.896917  0.699459 0.530321 1 0 1.000000
CARSKIN_SKIN1
0  -36.016136 26.480837 32.767967  -0.112752 -0.067784 0.991308  0.699874 0.530372 1 0 1.000000
0  -36.423534 26.469826 32.679882  -0.438668 -0.055779 0.896917  0.699459 0.530321 1 0 1.000000
0  -36.357468 15.646266 32.448658  -0.401242 -0.017461 0.915806  0.698370 0.479333 1 0 1.000000
CARSKIN_SKIN1
0  -36.445557 34.177341 33.571751  -0.357085 -0.133925 0.924421  0.703661 0.566629 1 0 1.000000
0  -36.423534 26.469826 32.679882  -0.438668 -0.055779 0.896917  0.699459 0.530321 1 0 1.000000
0  -36.016136 26.480837 32.767967  -0.112752 -0.067784 0.991308  0.699874 0.530372 1 0 1.000000
CARSKIN_SKIN1
0  -36.016136 26.480837 32.767967  -0.112752 -0.067784 0.991308  0.699874 0.530372 1 0 1.000000
0  -36.038158 34.210373 33.637817  -0.026391 -0.139073 0.989930  0.703972 0.566784 1 0 1.000000
0  -36.445557 34.177341 33.571751  -0.357085 -0.133925 0.924421  0.703661 0.566629 1 0 1.000000
CARSKIN_SKIN1
0  -36.445557 34.177341 33.571751  -0.357085 -0.133925 0.924421  0.703661 0.566629 1 0 1.000000
0  -36.038158 34.210373 33.637817  -0.026391 -0.139073 0.989930  0.703972 0.566784 1 0 1.000000
0  -36.027145 40.431442 34.804955  -0.023843 -0.181437 0.983113  0.709470 0.596090 1 0 1.000000
CARSKIN_SKIN1
0  -36.027145 40.431442 34.804955  -0.023843 -0.181437 0.983113  0.709470 0.596090 1 0 1.000000
0  -36.434544 40.464478 34.749901  -0.468455 -0.156665 0.869486  0.709211 0.596246 1 0 1.000000
0  -36.445557 34.177341 33.571751  -0.357085 -0.133925 0.924421  0.703661 0.566629 1 0 1.000000
CARSKIN_SKIN1
0  -39.418457 33.582764 31.215450  -0.725840 -0.101391 0.680350  0.692561 0.563828 1 0 1.000000
0  -36.445557 34.177341 33.571751  -0.357085 -0.133925 0.924421  0.703661 0.566629 1 0 1.000000
0  -36.434544 40.464478 34.749901  -0.468455 -0.156665 0.869486  0.709211 0.596246 1 0 1.000000
CARSKIN_SKIN1
0  -36.434544 40.464478 34.749901  -0.468455 -0.156665 0.869486  0.709211 0.596246 1 0 1.000000
0  -39.781811 40.332348 32.030247  -0.763806 -0.115745 0.634984  0.696399 0.595624 1 0 1.000000
0  -39.418457 33.582764 31.215450  -0.725840 -0.101391 0.680350  0.692561 0.563828 1 0 1.000000
CARSKIN_SKIN1
0  -41.081078 33.142334 28.705002  -0.906606 -0.087512 0.412805  0.680735 0.561753 1 0 1.000000
0  -39.418457 33.582764 31.215450  -0.725840 -0.101391 0.680350  0.692561 0.563828 1 0 1.000000
0  -39.781811 40.332348 32.030247  -0.763806 -0.115745 0.634984  0.696399 0.595624 1 0 1.000000
CARSKIN_SKIN1
0  -39.781811 40.332348 32.030247  -0.763806 -0.115745 0.634984  0.696399 0.595624 1 0 1.000000
0  -41.543530 39.704735 29.266550  -0.922220 -0.099085 0.373756  0.683380 0.592667 1 0 1.000000
0  -41.081078 33.142334 28.705002  -0.906606 -0.087512 0.412805  0.680735 0.561753 1 0 1.000000
CARSKIN_SKIN1
0  -36.357468 15.646266 32.448658  -0.401242 -0.017461 0.915806  0.698370 0.479333 1 0 1.000000
0  -35.950073 15.646266 32.525730  -0.084735 -0.015748 0.996279  0.698733 0.479333 1 0 1.000000
0  -36.016136 26.480837 32.767967  -0.112752 -0.067784 0.991308  0.699874 0.530372 1 0 1.000000
CARSKIN_SKIN1
0  -35.950073 15.646266 32.525730  -0.084735 -0.015748 0.996279  0.698733 0.479333 1 0 1.000000
0  -36.357468 15.646266 32.448658  -0.401242 -0.017461 0.915806  0.698370 0.479333 1 0 1.000000
0  -36.280396 3.666579 32.338551  -0.401736 -0.012337 0.915672  0.697851 0.422900 1 0 1.000000
CARSKIN_SKIN1
0  -39.506542 3.853761 29.905172  -0.771973 -0.009312 0.635587  0.686388 0.423782 1 0 1.000000
0  -36.280396 3.666579 32.338551  -0.401736 -0.012337 0.915672  0.697851 0.422900 1 0 1.000000
0  -36.357468 15.646266 32.448658  -0.401242 -0.017461 0.915806  0.698370 0.479333 1 0 1.000000
CARSKIN_SKIN1
0  -36.280396 3.666579 32.338551  -0.401736 -0.012337 0.915672  0.697851 0.422900 1 0 1.000000
0  -35.861984 3.644557 32.415623  -0.058463 -0.010838 0.998231  0.698214 0.422796 1 0 1.000000
0  -35.950073 15.646266 32.525730  -0.084735 -0.015748 0.996279  0.698733 0.479333 1 0 1.000000
CARSKIN_SKIN1
0  -42.215183 32.635838 24.553953  -0.983030 -0.086180 0.161940  0.661180 0.559367 1 0 1.000000
0  -41.081078 33.142334 28.705002  -0.906606 -0.087512 0.412805  0.680735 0.561753 1 0 1.000000
0  -41.543530 39.704735 29.266550  -0.922220 -0.099085 0.373756  0.683380 0.592667 1 0 1.000000
CARSKIN_SKIN1
0  -41.543530 39.704735 29.266550  -0.922220 -0.099085 0.373756  0.683380 0.592667 1 0 1.000000
0  -42.644604 38.306370 25.126511  -0.986552 -0.093632 0.133971  0.663877 0.586080 1 0 1.000000
0  -42.215183 32.635838 24.553953  -0.983030 -0.086180 0.161940  0.661180 0.559367 1 0 1.000000
CARSKIN_SKIN1
0  -42.479443 32.206421 18.299850  -0.995799 -0.086663 -0.029553  0.631718 0.557344 1 0 1.000000
0  -42.215183 32.635838 24.553953  -0.983030 -0.086180 0.161940  0.661180 0.559367 1 0 1.000000
0  -42.644604 38.306370 25.126511  -0.986552 -0.093632 0.133971  0.663877 0.586080 1 0 1.000000
CARSKIN_SKIN1
0  -42.644604 38.306370 25.126511  -0.986552 -0.093632 0.133971  0.663877 0.586080 1 0 1.000000
0  -42.776733 35.895020 19.389914  -0.996687 -0.081311 0.002048  0.636854 0.574720 1 0 1.000000
0  -42.479443 32.206421 18.299850  -0.995799 -0.086663 -0.029553  0.631718 0.557344 1 0 1.000000
CARSKIN_SKIN1
0  -42.776733 35.895020 19.389914  -0.996687 -0.081311 0.002048  0.636854 0.574720 1 0 1.000000
0  -42.391357 33.913086 15.106736  -0.990980 -0.104906 -0.083385  0.616676 0.565384 1 0 1.000000
0  -42.479443 32.206421 18.299850  -0.995799 -0.086663 -0.029553  0.631718 0.557344 1 0 1.000000
CARSKIN_SKIN1
0  -41.686668 32.272484 10.856589  -0.988985 -0.103596 -0.105716  0.596655 0.557656 1 0 1.000000
0  -42.479443 32.206421 18.299850  -0.995799 -0.086663 -0.029553  0.631718 0.557344 1 0 1.000000
0  -42.391357 33.913086 15.106736  -0.990980 -0.104906 -0.083385  0.616676 0.565384 1 0 1.000000
CARSKIN_SKIN1
0  -42.479443 32.206421 18.299850  -0.995799 -0.086663 -0.029553  0.631718 0.557344 1 0 1.000000
0  -41.686668 32.272484 10.856589  -0.988985 -0.103596 -0.105716  0.596655 0.557656 1 0 1.000000
0  -41.235229 25.577955 10.471213  -0.992767 -0.069749 -0.097722  0.594840 0.526119 1 0 1.000000
CARSKIN_SKIN1
0  -41.235229 25.577955 10.471213  -0.992767 -0.069749 -0.097722  0.594840 0.526119 1 0 1.000000
0  -41.950928 25.577955 17.969528  -0.996763 -0.075825 -0.026714  0.630162 0.526119 1 0 1.000000
0  -42.479443 32.206421 18.299850  -0.995799 -0.086663 -0.029553  0.631718 0.557344 1 0 1.000000
CARSKIN_SKIN1
0  -41.950928 25.577955 17.969528  -0.996763 -0.075825 -0.026714  0.630162 0.526119 1 0 1.000000
0  -41.235229 25.577955 10.471213  -0.992767 -0.069749 -0.097722  0.594840 0.526119 1 0 1.000000
0  -40.442455 15.525147 10.019773  -0.992411 -0.074610 -0.097748  0.592713 0.478763 1 0 1.000000
CARSKIN_SKIN1
0  -40.442455 15.525147 10.019773  -0.992411 -0.074610 -0.097748  0.592713 0.478763 1 0 1.000000
0  -41.191185 15.525147 17.441013  -0.996405 -0.075964 -0.037504  0.627673 0.478763 1 0 1.000000
0  -41.950928 25.577955 17.969528  -0.996763 -0.075825 -0.026714  0.630162 0.526119 1 0 1.000000
CARSKIN_SKIN1
0  -41.191185 15.525147 17.441013  -0.996405 -0.075964 -0.037504  0.627673 0.478763 1 0 1.000000
0  -40.442455 15.525147 10.019773  -0.992411 -0.074610 -0.097748  0.592713 0.478763 1 0 1.000000
0  -39.484520 4.195095 9.568333  -0.991537 -0.081925 -0.100713  0.590586 0.425390 1 0 1.000000
CARSKIN_SKIN1
0  -39.484520 4.195095 9.568333  -0.991537 -0.081925 -0.100713  0.590586 0.425390 1 0 1.000000
0  -40.200218 3.963869 16.769358  -0.995286 -0.086325 -0.044197  0.624509 0.424300 1 0 1.000000
0  -41.191185 15.525147 17.441013  -0.996405 -0.075964 -0.037504  0.627673 0.478763 1 0 1.000000
CARSKIN_SKIN1
0  -40.200218 3.963869 16.769358  -0.995286 -0.086325 -0.044197  0.624509 0.424300 1 0 1.000000
0  -39.484520 4.195095 9.568333  -0.991537 -0.081925 -0.100713  0.590586 0.425390 1 0 1.000000
0  -38.427490 -7.333152 9.193968  -0.990667 -0.092731 -0.099902  0.588823 0.371083 1 0 1.000000
CARSKIN_SKIN1
0  -38.427490 -7.333152 9.193968  -0.990667 -0.092731 -0.099902  0.588823 0.371083 1 0 1.000000
0  -39.099144 -7.432249 16.064671  -0.994586 -0.084491 -0.060499  0.621189 0.370616 1 0 1.000000
0  -40.200218 3.963869 16.769358  -0.995286 -0.086325 -0.044197  0.624509 0.424300 1 0 1.000000
CARSKIN_SKIN1
0  -39.099144 -7.432249 16.064671  -0.994586 -0.084491 -0.060499  0.621189 0.370616 1 0 1.000000
0  -38.427490 -7.333152 9.193968  -0.990667 -0.092731 -0.099902  0.588823 0.371083 1 0 1.000000
0  -37.513596 -15.844456 8.874656  -0.988591 -0.074320 -0.131014  0.587319 0.330988 1 0 1.000000
CARSKIN_SKIN1
0  -37.513596 -15.844456 8.874656  -0.988591 -0.074320 -0.131014  0.587319 0.330988 1 0 1.000000
0  -38.086155 -16.328928 12.508201  -0.991098 -0.066323 -0.115438  0.604435 0.328706 1 0 1.000000
0  -39.099144 -7.432249 16.064671  -0.994586 -0.084491 -0.060499  0.621189 0.370616 1 0 1.000000
CARSKIN_SKIN1
0  -39.099144 -7.432249 16.064671  -0.994586 -0.084491 -0.060499  0.621189 0.370616 1 0 1.000000
0  -38.086155 -16.328928 12.508201  -0.991098 -0.066323 -0.115438  0.604435 0.328706 1 0 1.000000
0  -38.372437 -16.439035 16.758347  -0.995351 -0.096283 0.002332  0.624457 0.328187 1 0 1.000000
CARSKIN_SKIN1
0  -39.110153 -7.421238 21.636106  -0.985004 -0.106770 0.135527  0.647435 0.370668 1 0 1.000000
0  -39.099144 -7.432249 16.064671  -0.994586 -0.084491 -0.060499  0.621189 0.370616 1 0 1.000000
0  -38.372437 -16.439035 16.758347  -0.995351 -0.096283 0.002332  0.624457 0.328187 1 0 1.000000
CARSKIN_SKIN1
0  -38.372437 -16.439035 16.758347  -0.995351 -0.096283 0.002332  0.624457 0.328187 1 0 1.000000
0  -38.119186 -15.888498 20.931417  -0.981026 -0.114719 0.156291  0.644115 0.330781 1 0 1.000000
0  -39.110153 -7.421238 21.636106  -0.985004 -0.106770 0.135527  0.647435 0.370668 1 0 1.000000
CARSKIN_SKIN1
0  -38.273338 -7.366184 24.961349  -0.971267 -0.108613 0.211765  0.663099 0.370927 1 0 1.000000
0  -39.110153 -7.421238 21.636106  -0.985004 -0.106770 0.135527  0.647435 0.370668 1 0 1.000000
0  -38.119186 -15.888498 20.931417  -0.981026 -0.114719 0.156291  0.644115 0.330781 1 0 1.000000
CARSKIN_SKIN1
0  -38.119186 -15.888498 20.931417  -0.981026 -0.114719 0.156291  0.644115 0.330781 1 0 1.000000
0  -37.733810 -15.051682 24.014425  -0.984908 -0.088571 0.148699  0.658638 0.334723 1 0 1.000000
0  -38.273338 -7.366184 24.961349  -0.971267 -0.108613 0.211765  0.663099 0.370927 1 0 1.000000
CARSKIN_SKIN1
0  -41.081078 15.536159 23.364792  -0.987730 -0.083426 0.132018  0.655578 0.478815 1 0 1.000000
0  -40.046066 15.591212 27.229563  -0.962174 -0.094003 0.255703  0.673784 0.479074 1 0 1.000000
0  -40.772778 25.886255 28.286594  -0.913008 -0.066583 0.402470  0.678764 0.527571 1 0 1.000000
CARSKIN_SKIN1
0  -40.046066 15.591212 27.229563  -0.962174 -0.094003 0.255703  0.673784 0.479074 1 0 1.000000
0  -41.081078 15.536159 23.364792  -0.987730 -0.083426 0.132018  0.655578 0.478815 1 0 1.000000
0  -40.156174 3.941847 22.505955  -0.987081 -0.094285 0.129546  0.651532 0.424197 1 0 1.000000
CARSKIN_SKIN1
0  -40.200218 3.963869 16.769358  -0.995286 -0.086325 -0.044197  0.624509 0.424300 1 0 1.000000
0  -40.156174 3.941847 22.505955  -0.987081 -0.094285 0.129546  0.651532 0.424197 1 0 1.000000
0  -41.081078 15.536159 23.364792  -0.987730 -0.083426 0.132018  0.655578 0.478815 1 0 1.000000
CARSKIN_SKIN1
0  -40.156174 3.941847 22.505955  -0.987081 -0.094285 0.129546  0.651532 0.424197 1 0 1.000000
0  -40.200218 3.963869 16.769358  -0.995286 -0.086325 -0.044197  0.624509 0.424300 1 0 1.000000
0  -39.099144 -7.432249 16.064671  -0.994586 -0.084491 -0.060499  0.621189 0.370616 1 0 1.000000
CARSKIN_SKIN1
0  -39.099144 -7.432249 16.064671  -0.994586 -0.084491 -0.060499  0.621189 0.370616 1 0 1.000000
0  -39.110153 -7.421238 21.636106  -0.985004 -0.106770 0.135527  0.647435 0.370668 1 0 1.000000
0  -40.156174 3.941847 22.505955  -0.987081 -0.094285 0.129546  0.651532 0.424197 1 0 1.000000
CARSKIN_SKIN1
0  -39.220261 4.029933 26.161520  -0.963824 -0.100703 0.246785  0.668753 0.424612 1 0 1.000000
0  -40.156174 3.941847 22.505955  -0.987081 -0.094285 0.129546  0.651532 0.424197 1 0 1.000000
0  -39.110153 -7.421238 21.636106  -0.985004 -0.106770 0.135527  0.647435 0.370668 1 0 1.000000
CARSKIN_SKIN1
0  -39.110153 -7.421238 21.636106  -0.985004 -0.106770 0.135527  0.647435 0.370668 1 0 1.000000
0  -38.273338 -7.366184 24.961349  -0.971267 -0.108613 0.211765  0.663099 0.370927 1 0 1.000000
0  -39.220261 4.029933 26.161520  -0.963824 -0.100703 0.246785  0.668753 0.424612 1 0 1.000000
CARSKIN_SKIN1
0  -40.156174 3.941847 22.505955  -0.987081 -0.094285 0.129546  0.651532 0.424197 1 0 1.000000
0  -39.220261 4.029933 26.161520  -0.963824 -0.100703 0.246785  0.668753 0.424612 1 0 1.000000
0  -40.046066 15.591212 27.229563  -0.962174 -0.094003 0.255703  0.673784 0.479074 1 0 1.000000
CARSKIN_SKIN1
0  -33.186375 -3.435350 32.261475  0.048708 -0.005453 0.998798  0.697488 0.389445 1 0 1.000000
0  -32.701904 -3.358275 32.228443  0.066813 -0.004158 0.997757  0.697333 0.389808 1 0 1.000000
0  -33.307495 -1.530492 32.283497  0.038999 -0.008302 0.999205  0.697592 0.398418 1 0 1.000000
CARSKIN_SKIN1
0  -35.784912 -3.677586 32.338551  -0.032313 -0.009038 0.999437  0.697851 0.388303 1 0 1.000000
0  -33.186375 -3.435350 32.261475  0.048708 -0.005453 0.998798  0.697488 0.389445 1 0 1.000000
0  -33.307495 -1.530492 32.283497  0.038999 -0.008302 0.999205  0.697592 0.398418 1 0 1.000000
CARSKIN_SKIN1
0  -33.307495 -1.530492 32.283497  0.038999 -0.008302 0.999205  0.697592 0.398418 1 0 1.000000
0  -35.861984 3.644557 32.415623  -0.058463 -0.010838 0.998231  0.698214 0.422796 1 0 1.000000
0  -35.784912 -3.677586 32.338551  -0.032313 -0.009038 0.999437  0.697851 0.388303 1 0 1.000000
CARSKIN_SKIN1
0  -33.307495 -1.530492 32.283497  0.038999 -0.008302 0.999205  0.697592 0.398418 1 0 1.000000
0  -33.670849 3.545460 32.360569  0.025732 -0.012389 0.999592  0.697955 0.422329 1 0 1.000000
0  -35.861984 3.644557 32.415623  -0.058463 -0.010838 0.998231  0.698214 0.422796 1 0 1.000000
CARSKIN_SKIN1
0  -35.861984 3.644557 32.415623  -0.058463 -0.010838 0.998231  0.698214 0.422796 1 0 1.000000
0  -33.670849 3.545460 32.360569  0.025732 -0.012389 0.999592  0.697955 0.422329 1 0 1.000000
0  -34.221386 15.668287 32.514721  0.014069 -0.013790 0.999806  0.698681 0.479437 1 0 1.000000
CARSKIN_SKIN1
0  -34.221386 15.668287 32.514721  0.014069 -0.013790 0.999806  0.698681 0.479437 1 0 1.000000
0  -35.950073 15.646266 32.525730  -0.084735 -0.015748 0.996279  0.698733 0.479333 1 0 1.000000
0  -35.861984 3.644557 32.415623  -0.058463 -0.010838 0.998231  0.698214 0.422796 1 0 1.000000
CARSKIN_SKIN1
0  -35.950073 15.646266 32.525730  -0.084735 -0.015748 0.996279  0.698733 0.479333 1 0 1.000000
0  -34.221386 15.668287 32.514721  0.014069 -0.013790 0.999806  0.698681 0.479437 1 0 1.000000
0  -34.386547 26.491846 32.734936  0.030550 -0.063752 0.997498  0.699719 0.530424 1 0 1.000000
CARSKIN_SKIN1
0  -34.386547 26.491846 32.734936  0.030550 -0.063752 0.997498  0.699719 0.530424 1 0 1.000000
0  -36.016136 26.480837 32.767967  -0.112752 -0.067784 0.991308  0.699874 0.530372 1 0 1.000000
0  -35.950073 15.646266 32.525730  -0.084735 -0.015748 0.996279  0.698733 0.479333 1 0 1.000000
CARSKIN_SKIN1
0  -36.038158 34.210373 33.637817  -0.026391 -0.139073 0.989930  0.703972 0.566784 1 0 1.000000
0  -36.016136 26.480837 32.767967  -0.112752 -0.067784 0.991308  0.699874 0.530372 1 0 1.000000
0  -34.386547 26.491846 32.734936  0.030550 -0.063752 0.997498  0.699719 0.530424 1 0 1.000000
CARSKIN_SKIN1
0  -34.386547 26.491846 32.734936  0.030550 -0.063752 0.997498  0.699719 0.530424 1 0 1.000000
0  -34.034203 34.342503 33.494678  0.093119 -0.152018 0.983981  0.703298 0.567407 1 0 1.000000
0  -36.038158 34.210373 33.637817  -0.026391 -0.139073 0.989930  0.703972 0.566784 1 0 1.000000
CARSKIN_SKIN1
0  -36.027145 40.431442 34.804955  -0.023843 -0.181437 0.983113  0.709470 0.596090 1 0 1.000000
0  -36.038158 34.210373 33.637817  -0.026391 -0.139073 0.989930  0.703972 0.566784 1 0 1.000000
0  -34.034203 34.342503 33.494678  0.093119 -0.152018 0.983981  0.703298 0.567407 1 0 1.000000
CARSKIN_SKIN1
0  -34.034203 34.342503 33.494678  0.093119 -0.152018 0.983981  0.703298 0.567407 1 0 1.000000
0  -33.659840 40.035057 34.452610  0.117836 -0.171942 0.978034  0.707810 0.594223 1 0 1.000000
0  -36.027145 40.431442 34.804955  -0.023843 -0.181437 0.983113  0.709470 0.596090 1 0 1.000000
CARSKIN_SKIN1
0  -40.046066 15.591212 27.229563  -0.447480 0.059573 -0.892308  0.673784 0.479074 1 0 1.000000
0  -40.805809 15.558180 27.636961  -0.479764 0.060365 -0.875318  0.675703 0.478918 1 0 1.000000
0  -40.772778 25.886255 28.286594  -0.479729 0.055971 -0.875630  0.678764 0.527571 1 0 1.000000
CARSKIN_SKIN1
0  -41.026024 3.963869 26.899240  -0.403405 0.064513 -0.912744  0.672228 0.424300 1 0 1.000000
0  -40.805809 15.558180 27.636961  -0.479764 0.060365 -0.875318  0.675703 0.478918 1 0 1.000000
0  -40.046066 15.591212 27.229563  -0.447480 0.059573 -0.892308  0.673784 0.479074 1 0 1.000000
CARSKIN_SKIN1
0  -40.046066 15.591212 27.229563  -0.447480 0.059573 -0.892308  0.673784 0.479074 1 0 1.000000
0  -39.220261 4.029933 26.161520  -0.381031 0.061831 -0.922492  0.668753 0.424612 1 0 1.000000
0  -41.026024 3.963869 26.899240  -0.403405 0.064513 -0.912744  0.672228 0.424300 1 0 1.000000
CARSKIN_SKIN1
0  -41.026024 3.963869 26.899240  -0.403405 0.064513 -0.912744  0.672228 0.424300 1 0 1.000000
0  -39.220261 4.029933 26.161520  -0.381031 0.061831 -0.922492  0.668753 0.424612 1 0 1.000000
0  -38.273338 -7.366184 24.961349  -0.377181 0.073784 -0.923196  0.663099 0.370927 1 0 1.000000
CARSKIN_SKIN1
0  -38.273338 -7.366184 24.961349  -0.377181 0.073784 -0.923196  0.663099 0.370927 1 0 1.000000
0  -41.268261 -9.689451 25.985350  -0.375306 0.077686 -0.923640  0.667923 0.359983 1 0 1.000000
0  -41.026024 3.963869 26.899240  -0.403405 0.064513 -0.912744  0.672228 0.424300 1 0 1.000000
CARSKIN_SKIN1
0  -38.273338 -7.366184 24.961349  -0.377167 0.073760 -0.923203  0.663099 0.370927 1 0 1.000000
0  -37.733810 -15.051682 24.014425  -0.380728 0.086005 -0.920679  0.658638 0.334723 1 0 1.000000
0  -41.268261 -9.689451 25.985350  -0.375317 0.077703 -0.923634  0.667923 0.359983 1 0 1.000000
end
