// Created by Crowbar 0.74
version 1
nodes
  0 "root" -1
end
skeleton
  time 0
    0 0.000000 0.000000 0.000000 0.000000 0.000000 0.000000
end
triangles
  phy
    0 7.271648 1.515499 8.405372 0.966712 0.022871 -0.254842 0 0
    0 7.267736 -6.166039 5.926617 0.976419 0.116959 -0.181456 0 0
    0 7.271320 3.712044 7.689774 0.999139 -0.028537 -0.030098 0 0
  phy
    0 7.267736 -6.166039 5.926617 0.976419 0.116959 -0.181456 0 0
    0 7.265559 -7.542380 4.029910 0.993763 0.109556 -0.020810 0 0
    0 7.271320 3.712044 7.689774 0.999139 -0.028537 -0.030098 0 0
  phy
    0 7.265559 -7.542380 4.029910 0.993763 0.109556 -0.020810 0 0
    0 7.257355 -7.532312 -4.044271 0.993952 0.108084 0.019432 0 0
    0 7.271320 3.712044 7.689774 0.999139 -0.028537 -0.030098 0 0
  phy
    0 7.257355 -7.532312 -4.044271 0.993952 0.108084 0.019432 0 0
    0 7.255687 -6.166031 -5.930519 0.995661 0.050069 0.078431 0 0
    0 7.271320 3.712044 7.689774 0.999139 -0.028537 -0.030098 0 0
  phy
    0 7.255687 -6.166031 -5.930519 0.995661 0.050069 0.078431 0 0
    0 7.254546 1.508508 -8.423223 0.997369 0.010582 0.071712 0 0
    0 7.271320 3.712044 7.689774 0.999139 -0.028537 -0.030098 0 0
  phy
    0 7.254546 1.508508 -8.423223 0.997369 0.010582 0.071712 0 0
    0 7.263181 8.453709 -1.166446 0.993328 -0.102981 0.051908 0 0
    0 7.271320 3.712044 7.689774 0.999139 -0.028537 -0.030098 0 0
  phy
    0 7.254546 1.508508 -8.423223 0.997369 0.010582 0.071712 0 0
    0 7.255692 3.731544 -7.693433 0.967171 -0.160762 0.196813 0 0
    0 7.263181 8.453709 -1.166446 0.993328 -0.102981 0.051908 0 0
  phy
    0 7.263181 8.453709 -1.166446 0.993328 -0.102981 0.051908 0 0
    0 7.265556 8.478261 1.167147 0.967191 -0.233962 -0.099014 0 0
    0 7.271320 3.712044 7.689774 0.999139 -0.028537 -0.030098 0 0
  phy
    0 5.988310 12.114459 1.264829 0.841344 -0.538710 -0.043945 0 0
    0 7.265556 8.478261 1.167147 0.967191 -0.233962 -0.099014 0 0
    0 5.977298 12.111823 -1.266211 0.896009 -0.442249 0.039804 0 0
  phy
    0 7.265556 8.478261 1.167147 0.967191 -0.233962 -0.099014 0 0
    0 7.263181 8.453709 -1.166446 0.993328 -0.102981 0.051908 0 0
    0 5.977298 12.111823 -1.266211 0.896009 -0.442249 0.039804 0 0
  phy
    0 7.255692 3.731544 -7.693433 0.967171 -0.160762 0.196813 0 0
    0 5.977299 9.061849 -8.136930 0.919711 -0.302051 0.250793 0 0
    0 7.263181 8.453709 -1.166446 0.993328 -0.102981 0.051908 0 0
  phy
    0 7.263181 8.453709 -1.166446 0.993328 -0.102981 0.051908 0 0
    0 5.977299 9.061849 -8.136930 0.919711 -0.302051 0.250793 0 0
    0 5.977300 10.548299 -6.077907 0.871402 -0.429862 0.236383 0 0
  phy
    0 5.977299 11.583396 -3.754216 0.848611 -0.506222 0.153615 0 0
    0 5.977298 12.111823 -1.266211 0.896009 -0.442249 0.039804 0 0
    0 7.263181 8.453709 -1.166446 0.993328 -0.102981 0.051908 0 0
  phy
    0 5.977300 10.548299 -6.077907 0.871402 -0.429862 0.236383 0 0
    0 5.977299 11.583396 -3.754216 0.848611 -0.506222 0.153615 0 0
    0 7.263181 8.453709 -1.166446 0.993328 -0.102981 0.051908 0 0
  phy
    0 4.964309 -7.432231 -10.251013 0.192750 0.584062 0.788492 0 0
    0 4.990152 -5.159365 -11.554481 0.056895 0.413481 0.908733 0 0
    0 5.977300 -7.134933 -9.843622 0.848681 0.302647 0.433757 0 0
  phy
    0 4.990152 -5.159365 -11.554481 0.056895 0.413481 0.908733 0 0
    0 5.977300 -4.932817 -11.120845 0.941391 0.121816 0.314552 0 0
    0 5.977300 -7.134933 -9.843622 0.848681 0.302647 0.433757 0 0
  phy
    0 4.964309 -7.432231 -10.251013 0.192750 0.584062 0.788492 0 0
    0 5.977300 -7.134933 -9.843622 0.848681 0.302647 0.433757 0 0
    0 5.977303 -9.028796 -8.147964 0.810238 0.435243 0.392527 0 0
  phy
    0 5.977303 -9.028796 -8.147964 0.810238 0.435243 0.392527 0 0
    0 4.968540 -9.392324 -8.477325 0.185155 0.730850 0.656944 0 0
    0 4.964309 -7.432231 -10.251013 0.192750 0.584062 0.788492 0 0
  phy
    0 4.964309 -7.432231 -10.251013 0.192750 0.584062 0.788492 0 0
    0 0.472285 -9.215976 -9.491274 0.000089 0.669053 0.743215 0 0
    0 4.990152 -5.159365 -11.554481 0.056895 0.413481 0.908733 0 0
  phy
    0 4.968540 -9.392324 -8.477325 0.185155 0.730850 0.656944 0 0
    0 0.472285 -9.215976 -9.491274 0.000089 0.669053 0.743215 0 0
    0 4.964309 -7.432231 -10.251013 0.192750 0.584062 0.788492 0 0
  phy
    0 7.257355 -7.532312 -4.044271 0.993952 0.108084 0.019432 0 0
    0 5.977299 -10.526263 -6.088952 0.894933 0.381465 0.231471 0 0
    0 7.255687 -6.166031 -5.930519 0.995661 0.050069 0.078431 0 0
  phy
    0 5.977299 -10.526263 -6.088952 0.894933 0.381465 0.231471 0 0
    0 5.977303 -9.028796 -8.147964 0.810238 0.435243 0.392527 0 0
    0 7.255687 -6.166031 -5.930519 0.995661 0.050069 0.078431 0 0
  phy
    0 5.977303 -9.028796 -8.147964 0.810238 0.435243 0.392527 0 0
    0 5.977299 -10.526263 -6.088952 0.894933 0.381465 0.231471 0 0
    0 4.964309 -10.955679 -6.331191 0.052959 0.887537 0.457683 0 0
  phy
    0 5.977303 -9.028796 -8.147964 0.810238 0.435243 0.392527 0 0
    0 4.964309 -10.955679 -6.331191 0.052959 0.887537 0.457683 0 0
    0 4.968540 -9.392324 -8.477325 0.185155 0.730850 0.656944 0 0
  phy
    0 5.977303 -9.028796 -8.147964 0.810238 0.435243 0.392527 0 0
    0 5.977300 -7.134933 -9.843622 0.848681 0.302647 0.433757 0 0
    0 7.255687 -6.166031 -5.930519 0.995661 0.050069 0.078431 0 0
  phy
    0 -5.870255 -9.405544 -8.466164 -0.134034 0.736999 0.662471 0 0
    0 -5.870251 -10.955672 -6.331189 -0.067508 0.872751 0.483475 0 0
    0 -6.718084 -8.225010 -9.138932 -0.989871 0.095077 0.105431 0 0
  phy
    0 -6.718084 -8.225010 -9.138932 -0.989871 0.095077 0.105431 0 0
    0 -5.870251 -10.955672 -6.331189 -0.067508 0.872751 0.483475 0 0
    0 -6.718084 -11.230946 -4.998894 -0.820701 0.530207 0.212909 0 0
  phy
    0 -5.870251 -10.955672 -6.331189 -0.067508 0.872751 0.483475 0 0
    0 4.964309 -10.955679 -6.331191 0.052959 0.887537 0.457683 0 0
    0 -5.870253 -12.023726 -3.919847 -0.024724 0.940580 0.338670 0 0
  phy
    0 -5.870253 -12.023726 -3.919847 -0.024724 0.940580 0.338670 0 0
    0 4.964309 -10.955679 -6.331191 0.052959 0.887537 0.457683 0 0
    0 4.964311 -12.023725 -3.919833 0.028173 0.960737 0.276026 0 0
  phy
    0 -5.870251 -10.955672 -6.331189 -0.067508 0.872751 0.483475 0 0
    0 0.472285 -9.215976 -9.491274 0.000089 0.669053 0.743215 0 0
    0 4.964309 -10.955679 -6.331191 0.052959 0.887537 0.457683 0 0
  phy
    0 -5.870251 -10.955672 -6.331189 -0.067508 0.872751 0.483475 0 0
    0 -5.870255 -9.405544 -8.466164 -0.134034 0.736999 0.662471 0 0
    0 0.472285 -9.215976 -9.491274 0.000089 0.669053 0.743215 0 0
  phy
    0 -5.870251 -10.955672 -6.331189 -0.067508 0.872751 0.483475 0 0
    0 -5.870253 -12.023726 -3.919847 -0.024724 0.940580 0.338670 0 0
    0 -6.718084 -11.230946 -4.998894 -0.820701 0.530207 0.212909 0 0
  phy
    0 5.988311 -9.028815 8.136925 0.873098 0.361808 -0.326794 0 0
    0 7.267736 -6.166039 5.926617 0.976419 0.116959 -0.181456 0 0
    0 5.988312 -7.134977 9.843591 0.817527 0.339113 -0.465460 0 0
  phy
    0 5.988311 -9.028815 8.136925 0.873098 0.361808 -0.326794 0 0
    0 5.988311 -10.526277 6.088928 0.848277 0.454429 -0.271882 0 0
    0 7.267736 -6.166039 5.926617 0.976419 0.116959 -0.181456 0 0
  phy
    0 5.988311 -9.028815 8.136925 0.873098 0.361808 -0.326794 0 0
    0 5.988312 -7.134977 9.843591 0.817527 0.339113 -0.465460 0 0
    0 4.975333 -9.403198 8.467241 0.174990 0.731212 -0.659323 0 0
  phy
    0 5.988311 -9.028815 8.136925 0.873098 0.361808 -0.326794 0 0
    0 4.975333 -9.403198 8.467241 0.174990 0.731212 -0.659323 0 0
    0 5.988311 -10.526277 6.088928 0.848277 0.454429 -0.271882 0 0
  phy
    0 4.973211 5.144574 -11.578608 0.046791 -0.414152 0.909004 0 0
    0 4.964316 2.653604 -12.387080 0.031694 -0.208909 0.977421 0 0
    0 -5.870372 5.164055 -11.572283 -0.024087 -0.393079 0.919189 0 0
  phy
    0 4.964316 2.653604 -12.387080 0.031694 -0.208909 0.977421 0 0
    0 -5.870257 2.653616 -12.387080 -0.080054 -0.213013 0.973764 0 0
    0 -5.870372 5.164055 -11.572283 -0.024087 -0.393079 0.919189 0 0
  phy
    0 -5.870257 2.653616 -12.387080 -0.080054 -0.213013 0.973764 0 0
    0 4.964316 2.653604 -12.387080 0.031694 -0.208909 0.977421 0 0
    0 -5.870256 0.011025 -12.662354 -0.042373 0.003645 0.999095 0 0
  phy
    0 4.964316 2.653604 -12.387080 0.031694 -0.208909 0.977421 0 0
    0 4.970200 0.024940 -12.660905 0.075689 -0.000032 0.997131 0 0
    0 -5.870256 0.011025 -12.662354 -0.042373 0.003645 0.999095 0 0
  phy
    0 -6.718086 6.144011 -10.647380 -0.803759 -0.297791 0.515065 0 0
    0 -5.870372 5.164055 -11.572283 -0.024087 -0.393079 0.919189 0 0
    0 -5.870257 2.653616 -12.387080 -0.080054 -0.213013 0.973764 0 0
  phy
    0 -5.870257 2.653616 -12.387080 -0.080054 -0.213013 0.973764 0 0
    0 -6.718089 1.288281 -12.221920 -0.999631 -0.002836 0.027013 0 0
    0 -6.718086 6.144011 -10.647380 -0.803759 -0.297791 0.515065 0 0
  phy
    0 -5.870256 0.011025 -12.662354 -0.042373 0.003645 0.999095 0 0
    0 -6.718089 1.288281 -12.221920 -0.999631 -0.002836 0.027013 0 0
    0 -5.870257 2.653616 -12.387080 -0.080054 -0.213013 0.973764 0 0
  phy
    0 7.254546 1.508508 -8.423223 0.997369 0.010582 0.071712 0 0
    0 5.981212 2.543062 -11.900739 0.871865 -0.102777 0.478841 0 0
    0 7.255692 3.731544 -7.693433 0.967171 -0.160762 0.196813 0 0
  phy
    0 5.981212 2.543062 -11.900739 0.871865 -0.102777 0.478841 0 0
    0 5.977302 4.965863 -11.120839 0.842065 -0.209920 0.496850 0 0
    0 7.255692 3.731544 -7.693433 0.967171 -0.160762 0.196813 0 0
  phy
    0 5.977300 7.168008 -9.843591 0.848546 -0.303150 0.433671 0 0
    0 5.977299 9.061849 -8.136930 0.919711 -0.302051 0.250793 0 0
    0 7.255692 3.731544 -7.693433 0.967171 -0.160762 0.196813 0 0
  phy
    0 5.977302 4.965863 -11.120839 0.842065 -0.209920 0.496850 0 0
    0 5.977300 7.168008 -9.843591 0.848546 -0.303150 0.433671 0 0
    0 7.255692 3.731544 -7.693433 0.967171 -0.160762 0.196813 0 0
  phy
    0 5.988313 7.167989 9.843610 0.820041 -0.336911 -0.462628 0 0
    0 4.975338 7.454257 10.251019 0.048415 -0.559574 -0.827365 0 0
    0 4.987660 5.184625 11.560415 0.041239 -0.437325 -0.898357 0 0
  phy
    0 5.988313 7.167989 9.843610 0.820041 -0.336911 -0.462628 0 0
    0 4.987660 5.184625 11.560415 0.041239 -0.437325 -0.898357 0 0
    0 5.988313 4.965820 11.120859 0.872020 -0.183517 -0.453764 0 0
  phy
    0 5.988313 7.167989 9.843610 0.820041 -0.336911 -0.462628 0 0
    0 5.988557 9.050718 8.147889 0.941298 -0.261693 -0.213250 0 0
    0 4.975321 9.425181 8.478282 0.184225 -0.730905 -0.657145 0 0
  phy
    0 4.975338 7.454257 10.251019 0.048415 -0.559574 -0.827365 0 0
    0 5.988313 7.167989 9.843610 0.820041 -0.336911 -0.462628 0 0
    0 4.975321 9.425181 8.478282 0.184225 -0.730905 -0.657145 0 0
  phy
    0 5.988313 4.965820 11.120859 0.872020 -0.183517 -0.453764 0 0
    0 7.271320 3.712044 7.689774 0.999139 -0.028537 -0.030098 0 0
    0 5.988313 7.167989 9.843610 0.820041 -0.336911 -0.462628 0 0
  phy
    0 5.988313 7.167989 9.843610 0.820041 -0.336911 -0.462628 0 0
    0 7.271320 3.712044 7.689774 0.999139 -0.028537 -0.030098 0 0
    0 5.988557 9.050718 8.147889 0.941298 -0.261693 -0.213250 0 0
  phy
    0 5.977302 -2.527124 -11.900881 0.844182 0.110462 0.524552 0 0
    0 7.254546 1.508508 -8.423223 0.997369 0.010582 0.071712 0 0
    0 5.977300 -4.932817 -11.120845 0.941391 0.121816 0.314552 0 0
  phy
    0 7.254546 1.508508 -8.423223 0.997369 0.010582 0.071712 0 0
    0 7.255687 -6.166031 -5.930519 0.995661 0.050069 0.078431 0 0
    0 5.977300 -4.932817 -11.120845 0.941391 0.121816 0.314552 0 0
  phy
    0 5.977300 -7.134933 -9.843622 0.848681 0.302647 0.433757 0 0
    0 5.977300 -4.932817 -11.120845 0.941391 0.121816 0.314552 0 0
    0 7.255687 -6.166031 -5.930519 0.995661 0.050069 0.078431 0 0
  phy
    0 5.988310 12.114459 1.264829 0.841344 -0.538710 -0.043945 0 0
    0 4.978046 12.606184 1.326555 0.059576 -0.992328 -0.108328 0 0
    0 5.988312 11.583298 3.765679 0.848328 -0.506702 -0.153599 0 0
  phy
    0 4.978046 12.606184 1.326555 0.059576 -0.992328 -0.108328 0 0
    0 4.975319 12.056755 3.919840 0.041307 -0.958847 -0.280902 0 0
    0 5.988312 11.583298 3.765679 0.848328 -0.506702 -0.153599 0 0
  phy
    0 4.975319 12.056755 3.919840 0.041307 -0.958847 -0.280902 0 0
    0 5.988309 10.548295 6.088952 0.844207 -0.464147 -0.268109 0 0
    0 5.988312 11.583298 3.765679 0.848328 -0.506702 -0.153599 0 0
  phy
    0 5.988312 11.583298 3.765679 0.848328 -0.506702 -0.153599 0 0
    0 7.265556 8.478261 1.167147 0.967191 -0.233962 -0.099014 0 0
    0 5.988310 12.114459 1.264829 0.841344 -0.538710 -0.043945 0 0
  phy
    0 5.988312 11.583298 3.765679 0.848328 -0.506702 -0.153599 0 0
    0 5.988309 10.548295 6.088952 0.844207 -0.464147 -0.268109 0 0
    0 7.265556 8.478261 1.167147 0.967191 -0.233962 -0.099014 0 0
  phy
    0 4.975319 12.056755 3.919840 0.041307 -0.958847 -0.280902 0 0
    0 -5.859248 12.056758 3.919837 -0.056880 -0.937345 -0.343728 0 0
    0 4.975326 10.977697 6.331180 0.028620 -0.880196 -0.473746 0 0
  phy
    0 -5.859248 12.056758 3.919837 -0.056880 -0.937345 -0.343728 0 0
    0 -5.859315 10.977704 6.331193 -0.034425 -0.864244 -0.501893 0 0
    0 4.975326 10.977697 6.331180 0.028620 -0.880196 -0.473746 0 0
  phy
    0 4.975319 12.056755 3.919840 0.041307 -0.958847 -0.280902 0 0
    0 -5.859249 12.607297 1.321318 -0.020020 -0.994325 -0.104488 0 0
    0 -5.859248 12.056758 3.919837 -0.056880 -0.937345 -0.343728 0 0
  phy
    0 4.975319 12.056755 3.919840 0.041307 -0.958847 -0.280902 0 0
    0 4.978046 12.606184 1.326555 0.059576 -0.992328 -0.108328 0 0
    0 -5.859249 12.607297 1.321318 -0.020020 -0.994325 -0.104488 0 0
  phy
    0 4.975326 10.977697 6.331180 0.028620 -0.880196 -0.473746 0 0
    0 5.988309 10.548295 6.088952 0.844207 -0.464147 -0.268109 0 0
    0 4.975319 12.056755 3.919840 0.041307 -0.958847 -0.280902 0 0
  phy
    0 5.977300 10.548299 -6.077907 0.871402 -0.429862 0.236383 0 0
    0 5.977299 9.061849 -8.136930 0.919711 -0.302051 0.250793 0 0
    0 4.964302 10.977735 -6.331142 0.058622 -0.879836 0.471649 0 0
  phy
    0 5.977299 9.061849 -8.136930 0.919711 -0.302051 0.250793 0 0
    0 4.986160 9.446551 -8.433818 0.191992 -0.728925 0.657120 0 0
    0 4.964302 10.977735 -6.331142 0.058622 -0.879836 0.471649 0 0
  phy
    0 5.977300 10.548299 -6.077907 0.871402 -0.429862 0.236383 0 0
    0 4.964312 12.056768 -3.908803 0.031800 -0.949793 0.311258 0 0
    0 5.977299 11.583396 -3.754216 0.848611 -0.506222 0.153615 0 0
  phy
    0 5.977300 10.548299 -6.077907 0.871402 -0.429862 0.236383 0 0
    0 4.964302 10.977735 -6.331142 0.058622 -0.879836 0.471649 0 0
    0 4.964312 12.056768 -3.908803 0.031800 -0.949793 0.311258 0 0
  phy
    0 -6.707067 -3.798725 11.693400 -0.990372 0.037936 -0.133135 0 0
    0 -5.861998 -2.620577 12.387083 -0.019277 0.206843 -0.978184 0 0
    0 -5.859246 0.010985 12.662354 -0.079226 0.006749 -0.996834 0 0
  phy
    0 -6.707067 -3.798725 11.693400 -0.990372 0.037936 -0.133135 0 0
    0 -5.859246 0.010985 12.662354 -0.079226 0.006749 -0.996834 0 0
    0 -6.707073 1.288253 12.221927 -0.998594 -0.007354 -0.052506 0 0
  phy
    0 -6.718084 12.023738 -2.554468 -0.999717 -0.023181 0.005384 0 0
    0 -6.718084 -12.287988 -0.000023 -0.999884 0.015176 -0.001098 0 0
    0 -6.710372 9.938625 7.226581 -0.999538 -0.024908 -0.017425 0 0
  phy
    0 -6.710372 9.938625 7.226581 -0.999538 -0.024908 -0.017425 0 0
    0 -6.718084 -12.287988 -0.000023 -0.999884 0.015176 -0.001098 0 0
    0 -6.707073 1.288253 12.221927 -0.998594 -0.007354 -0.052506 0 0
  phy
    0 -6.710372 9.938625 7.226581 -0.999538 -0.024908 -0.017425 0 0
    0 -6.707073 1.288253 12.221927 -0.998594 -0.007354 -0.052506 0 0
    0 -6.707933 6.143660 10.646881 -0.825577 -0.299458 -0.478276 0 0
  phy
    0 -6.707933 6.143660 10.646881 -0.825577 -0.299458 -0.478276 0 0
    0 -6.707073 1.288253 12.221927 -0.998594 -0.007354 -0.052506 0 0
    0 -5.859248 5.164029 11.572295 -0.055663 -0.371727 -0.926672 0 0
  phy
    0 -6.707073 1.288253 12.221927 -0.998594 -0.007354 -0.052506 0 0
    0 -5.859247 2.642560 12.387091 -0.025900 -0.174668 -0.984287 0 0
    0 -5.859248 5.164029 11.572295 -0.055663 -0.371727 -0.926672 0 0
  phy
    0 -6.707073 1.288253 12.221927 -0.998594 -0.007354 -0.052506 0 0
    0 -6.718084 -12.287988 -0.000023 -0.999884 0.015176 -0.001098 0 0
    0 -6.707067 -3.798725 11.693400 -0.990372 0.037936 -0.133135 0 0
  phy
    0 -5.859247 2.642560 12.387091 -0.025900 -0.174668 -0.984287 0 0
    0 -6.707073 1.288253 12.221927 -0.998594 -0.007354 -0.052506 0 0
    0 -5.859246 0.010985 12.662354 -0.079226 0.006749 -0.996834 0 0
  phy
    0 5.977302 -2.527124 -11.900881 0.844182 0.110462 0.524552 0 0
    0 5.977300 -4.932817 -11.120845 0.941391 0.121816 0.314552 0 0
    0 4.990152 -5.159365 -11.554481 0.056895 0.413481 0.908733 0 0
  phy
    0 4.990152 -5.159365 -11.554481 0.056895 0.413481 0.908733 0 0
    0 4.968091 -2.620544 -12.387088 0.022134 0.208004 0.977878 0 0
    0 5.977302 -2.527124 -11.900881 0.844182 0.110462 0.524552 0 0
  phy
    0 0.472285 -9.215976 -9.491274 0.000089 0.669053 0.743215 0 0
    0 -5.879562 -5.129441 -11.572799 -0.043282 0.397961 0.916381 0 0
    0 4.990152 -5.159365 -11.554481 0.056895 0.413481 0.908733 0 0
  phy
    0 -5.879562 -5.129441 -11.572799 -0.043282 0.397961 0.916381 0 0
    0 4.968091 -2.620544 -12.387088 0.022134 0.208004 0.977878 0 0
    0 4.990152 -5.159365 -11.554481 0.056895 0.413481 0.908733 0 0
  phy
    0 0.472285 -9.215976 -9.491274 0.000089 0.669053 0.743215 0 0
    0 4.968540 -9.392324 -8.477325 0.185155 0.730850 0.656944 0 0
    0 4.964309 -10.955679 -6.331191 0.052959 0.887537 0.457683 0 0
  phy
    0 -5.870255 -9.405544 -8.466164 -0.134034 0.736999 0.662471 0 0
    0 -5.870257 -7.432226 -10.251009 -0.119798 0.583707 0.803078 0 0
    0 0.472285 -9.215976 -9.491274 0.000089 0.669053 0.743215 0 0
  phy
    0 -6.718084 -8.225010 -9.138932 -0.989871 0.095077 0.105431 0 0
    0 -5.870257 -7.432226 -10.251009 -0.119798 0.583707 0.803078 0 0
    0 -5.870255 -9.405544 -8.466164 -0.134034 0.736999 0.662471 0 0
  phy
    0 7.267736 -6.166039 5.926617 0.976419 0.116959 -0.181456 0 0
    0 5.988312 -4.932841 11.120840 0.929911 0.130833 -0.343727 0 0
    0 5.988312 -7.134977 9.843591 0.817527 0.339113 -0.465460 0 0
  phy
    0 4.975333 -9.403198 8.467241 0.174990 0.731212 -0.659323 0 0
    0 5.988312 -7.134977 9.843591 0.817527 0.339113 -0.465460 0 0
    0 4.975364 -7.432255 10.239978 0.032745 0.549220 -0.835036 0 0
  phy
    0 4.975364 -7.432255 10.239978 0.032745 0.549220 -0.835036 0 0
    0 5.988312 -7.134977 9.843591 0.817527 0.339113 -0.465460 0 0
    0 4.975324 -5.142040 11.572274 0.041367 0.379618 -0.924218 0 0
  phy
    0 5.988312 -7.134977 9.843591 0.817527 0.339113 -0.465460 0 0
    0 5.988312 -4.932841 11.120840 0.929911 0.130833 -0.343727 0 0
    0 4.975324 -5.142040 11.572274 0.041367 0.379618 -0.924218 0 0
  phy
    0 5.988311 -10.526277 6.088928 0.848277 0.454429 -0.271882 0 0
    0 4.975333 -9.403198 8.467241 0.174990 0.731212 -0.659323 0 0
    0 4.975364 -10.955700 6.331163 0.026965 0.877111 -0.479530 0 0
  phy
    0 4.975333 -9.403198 8.467241 0.174990 0.731212 -0.659323 0 0
    0 4.975364 -7.432255 10.239978 0.032745 0.549220 -0.835036 0 0
    0 0.483276 -9.204984 8.951738 -0.000002 0.742773 -0.669543 0 0
  phy
    0 4.975333 -9.403198 8.467241 0.174990 0.731212 -0.659323 0 0
    0 0.483276 -9.204984 8.951738 -0.000002 0.742773 -0.669543 0 0
    0 4.975364 -10.955700 6.331163 0.026965 0.877111 -0.479530 0 0
  phy
    0 5.988312 -12.089793 1.266238 0.940772 0.338608 -0.017116 0 0
    0 5.988311 -11.561286 3.754632 0.847557 0.507937 -0.153773 0 0
    0 4.975326 -12.585280 1.321260 0.053209 0.989544 -0.134056 0 0
  phy
    0 4.975326 -12.585280 1.321260 0.053209 0.989544 -0.134056 0 0
    0 5.988311 -11.561286 3.754632 0.847557 0.507937 -0.153773 0 0
    0 4.977274 -12.034746 3.908797 0.059540 0.948001 -0.312649 0 0
  phy
    0 4.977274 -12.034746 3.908797 0.059540 0.948001 -0.312649 0 0
    0 5.988311 -11.561286 3.754632 0.847557 0.507937 -0.153773 0 0
    0 5.988311 -10.526277 6.088928 0.848277 0.454429 -0.271882 0 0
  phy
    0 5.988311 -11.561286 3.754632 0.847557 0.507937 -0.153773 0 0
    0 5.988312 -12.089793 1.266238 0.940772 0.338608 -0.017116 0 0
    0 7.265559 -7.542380 4.029910 0.993763 0.109556 -0.020810 0 0
  phy
    0 7.265559 -7.542380 4.029910 0.993763 0.109556 -0.020810 0 0
    0 5.988311 -10.526277 6.088928 0.848277 0.454429 -0.271882 0 0
    0 5.988311 -11.561286 3.754632 0.847557 0.507937 -0.153773 0 0
  phy
    0 4.968091 -2.620544 -12.387088 0.022134 0.208004 0.977878 0 0
    0 4.970200 0.024940 -12.660905 0.075689 -0.000032 0.997131 0 0
    0 5.977302 -2.527124 -11.900881 0.844182 0.110462 0.524552 0 0
  phy
    0 4.970200 0.024940 -12.660905 0.075689 -0.000032 0.997131 0 0
    0 5.977301 0.033049 -12.166871 0.880350 0.000666 0.474324 0 0
    0 5.977302 -2.527124 -11.900881 0.844182 0.110462 0.524552 0 0
  phy
    0 5.977302 -2.527124 -11.900881 0.844182 0.110462 0.524552 0 0
    0 5.977301 0.033049 -12.166871 0.880350 0.000666 0.474324 0 0
    0 7.254546 1.508508 -8.423223 0.997369 0.010582 0.071712 0 0
  phy
    0 -5.870253 -12.023726 -3.919847 -0.024724 0.940580 0.338670 0 0
    0 4.964311 -12.023725 -3.919833 0.028173 0.960737 0.276026 0 0
    0 -5.870257 -12.574264 -1.321306 -0.053459 0.988473 0.141644 0 0
  phy
    0 -5.870257 -12.574264 -1.321306 -0.053459 0.988473 0.141644 0 0
    0 4.964311 -12.023725 -3.919833 0.028173 0.960737 0.276026 0 0
    0 4.967100 -12.574264 -1.321308 0.040553 0.996119 0.078123 0 0
  phy
    0 -5.870253 -12.023726 -3.919847 -0.024724 0.940580 0.338670 0 0
    0 -5.870257 -12.574264 -1.321306 -0.053459 0.988473 0.141644 0 0
    0 -6.718084 -11.230946 -4.998894 -0.820701 0.530207 0.212909 0 0
  phy
    0 4.986160 9.446551 -8.433818 0.191992 -0.728925 0.657120 0 0
    0 5.977299 9.061849 -8.136930 0.919711 -0.302051 0.250793 0 0
    0 4.972458 7.450225 -10.241740 0.197197 -0.584626 0.786973 0 0
  phy
    0 5.977299 9.061849 -8.136930 0.919711 -0.302051 0.250793 0 0
    0 5.977300 7.168008 -9.843591 0.848546 -0.303150 0.433671 0 0
    0 4.972458 7.450225 -10.241740 0.197197 -0.584626 0.786973 0 0
  phy
    0 5.977300 7.168008 -9.843591 0.848546 -0.303150 0.433671 0 0
    0 4.973211 5.144574 -11.578608 0.046791 -0.414152 0.909004 0 0
    0 4.972458 7.450225 -10.241740 0.197197 -0.584626 0.786973 0 0
  phy
    0 5.977300 7.168008 -9.843591 0.848546 -0.303150 0.433671 0 0
    0 5.977302 4.965863 -11.120839 0.842065 -0.209920 0.496850 0 0
    0 4.973211 5.144574 -11.578608 0.046791 -0.414152 0.909004 0 0
  phy
    0 4.973211 5.144574 -11.578608 0.046791 -0.414152 0.909004 0 0
    0 0.472306 9.271059 -9.513266 0.000300 -0.669201 0.743081 0 0
    0 4.972458 7.450225 -10.241740 0.197197 -0.584626 0.786973 0 0
  phy
    0 0.472306 9.271059 -9.513266 0.000300 -0.669201 0.743081 0 0
    0 4.986160 9.446551 -8.433818 0.191992 -0.728925 0.657120 0 0
    0 4.972458 7.450225 -10.241740 0.197197 -0.584626 0.786973 0 0
  phy
    0 5.977302 4.965863 -11.120839 0.842065 -0.209920 0.496850 0 0
    0 4.964316 2.653604 -12.387080 0.031694 -0.208909 0.977421 0 0
    0 4.973211 5.144574 -11.578608 0.046791 -0.414152 0.909004 0 0
  phy
    0 5.977302 4.965863 -11.120839 0.842065 -0.209920 0.496850 0 0
    0 5.981212 2.543062 -11.900739 0.871865 -0.102777 0.478841 0 0
    0 4.964316 2.653604 -12.387080 0.031694 -0.208909 0.977421 0 0
  phy
    0 5.977301 0.033049 -12.166871 0.880350 0.000666 0.474324 0 0
    0 4.970200 0.024940 -12.660905 0.075689 -0.000032 0.997131 0 0
    0 5.981212 2.543062 -11.900739 0.871865 -0.102777 0.478841 0 0
  phy
    0 4.970200 0.024940 -12.660905 0.075689 -0.000032 0.997131 0 0
    0 4.964316 2.653604 -12.387080 0.031694 -0.208909 0.977421 0 0
    0 5.981212 2.543062 -11.900739 0.871865 -0.102777 0.478841 0 0
  phy
    0 5.988557 9.050718 8.147889 0.941298 -0.261693 -0.213250 0 0
    0 7.265556 8.478261 1.167147 0.967191 -0.233962 -0.099014 0 0
    0 5.988309 10.548295 6.088952 0.844207 -0.464147 -0.268109 0 0
  phy
    0 5.988557 9.050718 8.147889 0.941298 -0.261693 -0.213250 0 0
    0 7.271320 3.712044 7.689774 0.999139 -0.028537 -0.030098 0 0
    0 7.265556 8.478261 1.167147 0.967191 -0.233962 -0.099014 0 0
  phy
    0 5.988557 9.050718 8.147889 0.941298 -0.261693 -0.213250 0 0
    0 5.988309 10.548295 6.088952 0.844207 -0.464147 -0.268109 0 0
    0 4.975321 9.425181 8.478282 0.184225 -0.730905 -0.657145 0 0
  phy
    0 4.987660 5.184625 11.560415 0.041239 -0.437325 -0.898357 0 0
    0 4.975338 7.454257 10.251019 0.048415 -0.559574 -0.827365 0 0
    0 -5.859221 7.454257 10.251022 -0.030621 -0.548510 -0.835583 0 0
  phy
    0 4.987660 5.184625 11.560415 0.041239 -0.437325 -0.898357 0 0
    0 -5.859221 7.454257 10.251022 -0.030621 -0.548510 -0.835583 0 0
    0 -5.859248 5.164029 11.572295 -0.055663 -0.371727 -0.926672 0 0
  phy
    0 -5.859221 7.454257 10.251022 -0.030621 -0.548510 -0.835583 0 0
    0 4.975338 7.454257 10.251019 0.048415 -0.559574 -0.827365 0 0
    0 0.483145 9.293045 8.984790 0.000001 -0.743711 -0.668501 0 0
  phy
    0 4.975338 7.454257 10.251019 0.048415 -0.559574 -0.827365 0 0
    0 4.975321 9.425181 8.478282 0.184225 -0.730905 -0.657145 0 0
    0 0.483145 9.293045 8.984790 0.000001 -0.743711 -0.668501 0 0
  phy
    0 5.977301 0.033049 -12.166871 0.880350 0.000666 0.474324 0 0
    0 5.981212 2.543062 -11.900739 0.871865 -0.102777 0.478841 0 0
    0 7.254546 1.508508 -8.423223 0.997369 0.010582 0.071712 0 0
  phy
    0 5.988310 12.114459 1.264829 0.841344 -0.538710 -0.043945 0 0
    0 4.964315 12.607303 -1.321271 0.053371 -0.995871 0.073430 0 0
    0 4.978046 12.606184 1.326555 0.059576 -0.992328 -0.108328 0 0
  phy
    0 5.988310 12.114459 1.264829 0.841344 -0.538710 -0.043945 0 0
    0 5.977298 12.111823 -1.266211 0.896009 -0.442249 0.039804 0 0
    0 4.964315 12.607303 -1.321271 0.053371 -0.995871 0.073430 0 0
  phy
    0 4.975326 10.977697 6.331180 0.028620 -0.880196 -0.473746 0 0
    0 0.483145 9.293045 8.984790 0.000001 -0.743711 -0.668501 0 0
    0 4.975321 9.425181 8.478282 0.184225 -0.730905 -0.657145 0 0
  phy
    0 -5.859315 10.977704 6.331193 -0.034425 -0.864244 -0.501893 0 0
    0 0.483145 9.293045 8.984790 0.000001 -0.743711 -0.668501 0 0
    0 4.975326 10.977697 6.331180 0.028620 -0.880196 -0.473746 0 0
  phy
    0 4.975321 9.425181 8.478282 0.184225 -0.730905 -0.657145 0 0
    0 5.988309 10.548295 6.088952 0.844207 -0.464147 -0.268109 0 0
    0 4.975326 10.977697 6.331180 0.028620 -0.880196 -0.473746 0 0
  phy
    0 -5.870185 10.977728 -6.331176 -0.054410 -0.887975 0.456662 0 0
    0 4.964312 12.056768 -3.908803 0.031800 -0.949793 0.311258 0 0
    0 4.964302 10.977735 -6.331142 0.058622 -0.879836 0.471649 0 0
  phy
    0 -5.870185 10.977728 -6.331176 -0.054410 -0.887975 0.456662 0 0
    0 -5.870262 12.056768 -3.908802 -0.038519 -0.950252 0.309091 0 0
    0 4.964312 12.056768 -3.908803 0.031800 -0.949793 0.311258 0 0
  phy
    0 4.964312 12.056768 -3.908803 0.031800 -0.949793 0.311258 0 0
    0 -5.870260 12.607302 -1.321271 -0.056702 -0.989742 0.131133 0 0
    0 4.964315 12.607303 -1.321271 0.053371 -0.995871 0.073430 0 0
  phy
    0 4.964312 12.056768 -3.908803 0.031800 -0.949793 0.311258 0 0
    0 -5.870262 12.056768 -3.908802 -0.038519 -0.950252 0.309091 0 0
    0 -5.870260 12.607302 -1.321271 -0.056702 -0.989742 0.131133 0 0
  phy
    0 4.964312 12.056768 -3.908803 0.031800 -0.949793 0.311258 0 0
    0 4.964315 12.607303 -1.321271 0.053371 -0.995871 0.073430 0 0
    0 5.977299 11.583396 -3.754216 0.848611 -0.506222 0.153615 0 0
  phy
    0 4.964315 12.607303 -1.321271 0.053371 -0.995871 0.073430 0 0
    0 5.977298 12.111823 -1.266211 0.896009 -0.442249 0.039804 0 0
    0 5.977299 11.583396 -3.754216 0.848611 -0.506222 0.153615 0 0
  phy
    0 -5.859221 7.454257 10.251022 -0.030621 -0.548510 -0.835583 0 0
    0 -6.707933 6.143660 10.646881 -0.825577 -0.299458 -0.478276 0 0
    0 -5.859248 5.164029 11.572295 -0.055663 -0.371727 -0.926672 0 0
  phy
    0 -6.710372 9.938625 7.226581 -0.999538 -0.024908 -0.017425 0 0
    0 -6.707933 6.143660 10.646881 -0.825577 -0.299458 -0.478276 0 0
    0 -5.859235 9.425183 8.478291 -0.155429 -0.727489 -0.668283 0 0
  phy
    0 -6.707933 6.143660 10.646881 -0.825577 -0.299458 -0.478276 0 0
    0 -5.859221 7.454257 10.251022 -0.030621 -0.548510 -0.835583 0 0
    0 -5.859235 9.425183 8.478291 -0.155429 -0.727489 -0.668283 0 0
  phy
    0 0.472285 -9.215976 -9.491274 0.000089 0.669053 0.743215 0 0
    0 -5.870257 -7.432226 -10.251009 -0.119798 0.583707 0.803078 0 0
    0 -5.879562 -5.129441 -11.572799 -0.043282 0.397961 0.916381 0 0
  phy
    0 4.975364 -7.432255 10.239978 0.032745 0.549220 -0.835036 0 0
    0 4.975324 -5.142040 11.572274 0.041367 0.379618 -0.924218 0 0
    0 -5.859242 -5.142029 11.572288 -0.054434 0.440588 -0.896057 0 0
  phy
    0 4.975364 -7.432255 10.239978 0.032745 0.549220 -0.835036 0 0
    0 -5.859242 -5.142029 11.572288 -0.054434 0.440588 -0.896057 0 0
    0 -5.859315 -7.432273 10.239978 -0.038525 0.574629 -0.817507 0 0
  phy
    0 0.483276 -9.204984 8.951738 -0.000002 0.742773 -0.669543 0 0
    0 4.975364 -7.432255 10.239978 0.032745 0.549220 -0.835036 0 0
    0 -5.859315 -7.432273 10.239978 -0.038525 0.574629 -0.817507 0 0
  phy
    0 7.267736 -6.166039 5.926617 0.976419 0.116959 -0.181456 0 0
    0 5.988311 -10.526277 6.088928 0.848277 0.454429 -0.271882 0 0
    0 7.265559 -7.542380 4.029910 0.993763 0.109556 -0.020810 0 0
  phy
    0 5.988312 -12.089793 1.266238 0.940772 0.338608 -0.017116 0 0
    0 7.257355 -7.532312 -4.044271 0.993952 0.108084 0.019432 0 0
    0 7.265559 -7.542380 4.029910 0.993763 0.109556 -0.020810 0 0
  phy
    0 5.977304 -11.561275 -3.765699 0.817121 0.548321 0.177926 0 0
    0 5.977301 -12.089790 -1.277260 0.870223 0.490673 0.044171 0 0
    0 4.967100 -12.574264 -1.321308 0.040553 0.996119 0.078123 0 0
  phy
    0 5.977304 -11.561275 -3.765699 0.817121 0.548321 0.177926 0 0
    0 4.967100 -12.574264 -1.321308 0.040553 0.996119 0.078123 0 0
    0 4.964311 -12.023725 -3.919833 0.028173 0.960737 0.276026 0 0
  phy
    0 5.977301 -12.089790 -1.277260 0.870223 0.490673 0.044171 0 0
    0 5.988312 -12.089793 1.266238 0.940772 0.338608 -0.017116 0 0
    0 4.975326 -12.585280 1.321260 0.053209 0.989544 -0.134056 0 0
  phy
    0 4.967100 -12.574264 -1.321308 0.040553 0.996119 0.078123 0 0
    0 5.977301 -12.089790 -1.277260 0.870223 0.490673 0.044171 0 0
    0 4.975326 -12.585280 1.321260 0.053209 0.989544 -0.134056 0 0
  phy
    0 5.977301 -12.089790 -1.277260 0.870223 0.490673 0.044171 0 0
    0 7.257355 -7.532312 -4.044271 0.993952 0.108084 0.019432 0 0
    0 5.988312 -12.089793 1.266238 0.940772 0.338608 -0.017116 0 0
  phy
    0 5.977304 -11.561275 -3.765699 0.817121 0.548321 0.177926 0 0
    0 7.257355 -7.532312 -4.044271 0.993952 0.108084 0.019432 0 0
    0 5.977301 -12.089790 -1.277260 0.870223 0.490673 0.044171 0 0
  phy
    0 5.977304 -11.561275 -3.765699 0.817121 0.548321 0.177926 0 0
    0 4.964311 -12.023725 -3.919833 0.028173 0.960737 0.276026 0 0
    0 4.964309 -10.955679 -6.331191 0.052959 0.887537 0.457683 0 0
  phy
    0 -5.870257 -12.574264 -1.321306 -0.053459 0.988473 0.141644 0 0
    0 4.967100 -12.574264 -1.321308 0.040553 0.996119 0.078123 0 0
    0 -5.859242 -12.585279 1.321267 -0.025190 0.997313 -0.068792 0 0
  phy
    0 -5.859242 -12.585279 1.321267 -0.025190 0.997313 -0.068792 0 0
    0 4.967100 -12.574264 -1.321308 0.040553 0.996119 0.078123 0 0
    0 4.975326 -12.585280 1.321260 0.053209 0.989544 -0.134056 0 0
  phy
    0 4.973211 5.144574 -11.578608 0.046791 -0.414152 0.909004 0 0
    0 -5.870372 5.164055 -11.572283 -0.024087 -0.393079 0.919189 0 0
    0 0.472306 9.271059 -9.513266 0.000300 -0.669201 0.743081 0 0
  phy
    0 -5.870274 9.425206 -8.467246 -0.195052 -0.721480 0.664395 0 0
    0 -5.870249 7.454280 -10.239982 -0.127593 -0.584105 0.801587 0 0
    0 -6.718086 6.144011 -10.647380 -0.803759 -0.297791 0.515065 0 0
  phy
    0 -6.718086 6.144011 -10.647380 -0.803759 -0.297791 0.515065 0 0
    0 -6.718086 9.942713 -7.223038 -0.975370 -0.178448 0.129655 0 0
    0 -5.870274 9.425206 -8.467246 -0.195052 -0.721480 0.664395 0 0
  phy
    0 -6.718086 9.942713 -7.223038 -0.975370 -0.178448 0.129655 0 0
    0 -5.870185 10.977728 -6.331176 -0.054410 -0.887975 0.456662 0 0
    0 -5.870274 9.425206 -8.467246 -0.195052 -0.721480 0.664395 0 0
  phy
    0 0.472306 9.271059 -9.513266 0.000300 -0.669201 0.743081 0 0
    0 -5.870249 7.454280 -10.239982 -0.127593 -0.584105 0.801587 0 0
    0 -5.870274 9.425206 -8.467246 -0.195052 -0.721480 0.664395 0 0
  phy
    0 -5.870274 9.425206 -8.467246 -0.195052 -0.721480 0.664395 0 0
    0 -5.870185 10.977728 -6.331176 -0.054410 -0.887975 0.456662 0 0
    0 0.472306 9.271059 -9.513266 0.000300 -0.669201 0.743081 0 0
  phy
    0 5.988313 4.965820 11.120859 0.872020 -0.183517 -0.453764 0 0
    0 4.987660 5.184625 11.560415 0.041239 -0.437325 -0.898357 0 0
    0 4.975324 2.642551 12.387091 0.052924 -0.237988 -0.969825 0 0
  phy
    0 5.988313 4.965820 11.120859 0.872020 -0.183517 -0.453764 0 0
    0 4.975324 2.642551 12.387091 0.052924 -0.237988 -0.969825 0 0
    0 5.988312 2.543458 11.902617 0.873934 -0.100826 -0.475473 0 0
  phy
    0 5.988312 2.543458 11.902617 0.873934 -0.100826 -0.475473 0 0
    0 7.271648 1.515499 8.405372 0.966712 0.022871 -0.254842 0 0
    0 5.988313 4.965820 11.120859 0.872020 -0.183517 -0.453764 0 0
  phy
    0 5.988313 4.965820 11.120859 0.872020 -0.183517 -0.453764 0 0
    0 7.271648 1.515499 8.405372 0.966712 0.022871 -0.254842 0 0
    0 7.271320 3.712044 7.689774 0.999139 -0.028537 -0.030098 0 0
  phy
    0 4.978046 12.606184 1.326555 0.059576 -0.992328 -0.108328 0 0
    0 4.964315 12.607303 -1.321271 0.053371 -0.995871 0.073430 0 0
    0 -5.859249 12.607297 1.321318 -0.020020 -0.994325 -0.104488 0 0
  phy
    0 0.472306 9.271059 -9.513266 0.000300 -0.669201 0.743081 0 0
    0 -5.870185 10.977728 -6.331176 -0.054410 -0.887975 0.456662 0 0
    0 4.964302 10.977735 -6.331142 0.058622 -0.879836 0.471649 0 0
  phy
    0 4.964302 10.977735 -6.331142 0.058622 -0.879836 0.471649 0 0
    0 4.986160 9.446551 -8.433818 0.191992 -0.728925 0.657120 0 0
    0 0.472306 9.271059 -9.513266 0.000300 -0.669201 0.743081 0 0
  phy
    0 -6.718084 12.023738 -2.554468 -0.999717 -0.023181 0.005384 0 0
    0 -5.870260 12.607302 -1.321271 -0.056702 -0.989742 0.131133 0 0
    0 -5.870262 12.056768 -3.908802 -0.038519 -0.950252 0.309091 0 0
  phy
    0 -5.870262 12.056768 -3.908802 -0.038519 -0.950252 0.309091 0 0
    0 -5.870185 10.977728 -6.331176 -0.054410 -0.887975 0.456662 0 0
    0 -6.718084 12.023738 -2.554468 -0.999717 -0.023181 0.005384 0 0
  phy
    0 -6.718084 12.023738 -2.554468 -0.999717 -0.023181 0.005384 0 0
    0 -6.710372 9.938625 7.226581 -0.999538 -0.024908 -0.017425 0 0
    0 -6.707074 12.023727 2.554509 -0.825340 -0.555971 -0.098540 0 0
  phy
    0 -5.859315 10.977704 6.331193 -0.034425 -0.864244 -0.501893 0 0
    0 -5.859248 12.056758 3.919837 -0.056880 -0.937345 -0.343728 0 0
    0 -6.710372 9.938625 7.226581 -0.999538 -0.024908 -0.017425 0 0
  phy
    0 -6.710372 9.938625 7.226581 -0.999538 -0.024908 -0.017425 0 0
    0 -5.859248 12.056758 3.919837 -0.056880 -0.937345 -0.343728 0 0
    0 -6.707074 12.023727 2.554509 -0.825340 -0.555971 -0.098540 0 0
  phy
    0 -6.710372 9.938625 7.226581 -0.999538 -0.024908 -0.017425 0 0
    0 -5.859235 9.425183 8.478291 -0.155429 -0.727489 -0.668283 0 0
    0 -5.859315 10.977704 6.331193 -0.034425 -0.864244 -0.501893 0 0
  phy
    0 -5.859235 9.425183 8.478291 -0.155429 -0.727489 -0.668283 0 0
    0 0.483145 9.293045 8.984790 0.000001 -0.743711 -0.668501 0 0
    0 -5.859315 10.977704 6.331193 -0.034425 -0.864244 -0.501893 0 0
  phy
    0 -5.870257 -7.432226 -10.251009 -0.119798 0.583707 0.803078 0 0
    0 -6.718084 -8.225010 -9.138932 -0.989871 0.095077 0.105431 0 0
    0 -5.879562 -5.129441 -11.572799 -0.043282 0.397961 0.916381 0 0
  phy
    0 -6.718084 -8.225010 -9.138932 -0.989871 0.095077 0.105431 0 0
    0 -6.718086 -3.798704 -11.693409 -0.824240 0.154443 0.544771 0 0
    0 -5.879562 -5.129441 -11.572799 -0.043282 0.397961 0.916381 0 0
  phy
    0 -5.879562 -5.129441 -11.572799 -0.043282 0.397961 0.916381 0 0
    0 -5.870269 -2.620538 -12.387090 -0.037146 0.207144 0.977605 0 0
    0 4.968091 -2.620544 -12.387088 0.022134 0.208004 0.977878 0 0
  phy
    0 -6.718086 -3.798704 -11.693409 -0.824240 0.154443 0.544771 0 0
    0 -5.870269 -2.620538 -12.387090 -0.037146 0.207144 0.977605 0 0
    0 -5.879562 -5.129441 -11.572799 -0.043282 0.397961 0.916381 0 0
  phy
    0 -6.718084 -12.287988 -0.000023 -0.999884 0.015176 -0.001098 0 0
    0 -6.718084 12.023738 -2.554468 -0.999717 -0.023181 0.005384 0 0
    0 -6.718089 1.288281 -12.221920 -0.999631 -0.002836 0.027013 0 0
  phy
    0 -6.718084 -12.287988 -0.000023 -0.999884 0.015176 -0.001098 0 0
    0 -6.718089 1.288281 -12.221920 -0.999631 -0.002836 0.027013 0 0
    0 -6.718084 -8.225010 -9.138932 -0.989871 0.095077 0.105431 0 0
  phy
    0 -6.718084 -12.287988 -0.000023 -0.999884 0.015176 -0.001098 0 0
    0 -6.718084 -8.225010 -9.138932 -0.989871 0.095077 0.105431 0 0
    0 -6.718084 -11.230946 -4.998894 -0.820701 0.530207 0.212909 0 0
  phy
    0 -6.718084 -8.225010 -9.138932 -0.989871 0.095077 0.105431 0 0
    0 -6.718089 1.288281 -12.221920 -0.999631 -0.002836 0.027013 0 0
    0 -6.718086 -3.798704 -11.693409 -0.824240 0.154443 0.544771 0 0
  phy
    0 -6.718089 1.288281 -12.221920 -0.999631 -0.002836 0.027013 0 0
    0 -6.718084 12.023738 -2.554468 -0.999717 -0.023181 0.005384 0 0
    0 -6.718086 9.942713 -7.223038 -0.975370 -0.178448 0.129655 0 0
  phy
    0 -6.718089 1.288281 -12.221920 -0.999631 -0.002836 0.027013 0 0
    0 -6.718086 9.942713 -7.223038 -0.975370 -0.178448 0.129655 0 0
    0 -6.718086 6.144011 -10.647380 -0.803759 -0.297791 0.515065 0 0
  phy
    0 -6.718086 6.144011 -10.647380 -0.803759 -0.297791 0.515065 0 0
    0 -5.870249 7.454280 -10.239982 -0.127593 -0.584105 0.801587 0 0
    0 -5.870372 5.164055 -11.572283 -0.024087 -0.393079 0.919189 0 0
  phy
    0 4.975364 -10.955700 6.331163 0.026965 0.877111 -0.479530 0 0
    0 0.483276 -9.204984 8.951738 -0.000002 0.742773 -0.669543 0 0
    0 -5.859315 -10.955700 6.331157 -0.061621 0.856125 -0.513082 0 0
  phy
    0 0.483276 -9.204984 8.951738 -0.000002 0.742773 -0.669543 0 0
    0 -5.861241 -9.403253 8.467098 -0.083509 0.740180 -0.667203 0 0
    0 -5.859315 -10.955700 6.331157 -0.061621 0.856125 -0.513082 0 0
  phy
    0 -5.861241 -9.403253 8.467098 -0.083509 0.740180 -0.667203 0 0
    0 0.483276 -9.204984 8.951738 -0.000002 0.742773 -0.669543 0 0
    0 -5.859315 -7.432273 10.239978 -0.038525 0.574629 -0.817507 0 0
  phy
    0 -5.859246 0.010985 12.662354 -0.079226 0.006749 -0.996834 0 0
    0 -5.861998 -2.620577 12.387083 -0.019277 0.206843 -0.978184 0 0
    0 4.975303 0.019327 12.663229 0.031725 0.002153 -0.999494 0 0
  phy
    0 4.975303 0.019327 12.663229 0.031725 0.002153 -0.999494 0 0
    0 -5.861998 -2.620577 12.387083 -0.019277 0.206843 -0.978184 0 0
    0 4.981500 -2.618282 12.387322 0.059221 0.210482 -0.975802 0 0
  phy
    0 -5.859242 -5.142029 11.572288 -0.054434 0.440588 -0.896057 0 0
    0 -5.861998 -2.620577 12.387083 -0.019277 0.206843 -0.978184 0 0
    0 -6.707067 -3.798725 11.693400 -0.990372 0.037936 -0.133135 0 0
  phy
    0 -5.861998 -2.620577 12.387083 -0.019277 0.206843 -0.978184 0 0
    0 -5.859242 -5.142029 11.572288 -0.054434 0.440588 -0.896057 0 0
    0 4.975324 -5.142040 11.572274 0.041367 0.379618 -0.924218 0 0
  phy
    0 4.981500 -2.618282 12.387322 0.059221 0.210482 -0.975802 0 0
    0 -5.861998 -2.620577 12.387083 -0.019277 0.206843 -0.978184 0 0
    0 4.975324 -5.142040 11.572274 0.041367 0.379618 -0.924218 0 0
  phy
    0 4.975364 -10.955700 6.331163 0.026965 0.877111 -0.479530 0 0
    0 -5.859315 -10.955700 6.331157 -0.061621 0.856125 -0.513082 0 0
    0 -5.859242 -12.034744 3.908798 -0.041702 0.951272 -0.305519 0 0
  phy
    0 4.975364 -10.955700 6.331163 0.026965 0.877111 -0.479530 0 0
    0 -5.859242 -12.034744 3.908798 -0.041702 0.951272 -0.305519 0 0
    0 4.977274 -12.034746 3.908797 0.059540 0.948001 -0.312649 0 0
  phy
    0 -5.859242 -12.034744 3.908798 -0.041702 0.951272 -0.305519 0 0
    0 -5.859242 -12.585279 1.321267 -0.025190 0.997313 -0.068792 0 0
    0 4.975326 -12.585280 1.321260 0.053209 0.989544 -0.134056 0 0
  phy
    0 -5.859242 -12.034744 3.908798 -0.041702 0.951272 -0.305519 0 0
    0 4.975326 -12.585280 1.321260 0.053209 0.989544 -0.134056 0 0
    0 4.977274 -12.034746 3.908797 0.059540 0.948001 -0.312649 0 0
  phy
    0 4.977274 -12.034746 3.908797 0.059540 0.948001 -0.312649 0 0
    0 5.988311 -10.526277 6.088928 0.848277 0.454429 -0.271882 0 0
    0 4.975364 -10.955700 6.331163 0.026965 0.877111 -0.479530 0 0
  phy
    0 5.988312 -4.932841 11.120840 0.929911 0.130833 -0.343727 0 0
    0 7.271648 1.515499 8.405372 0.966712 0.022871 -0.254842 0 0
    0 5.988311 -2.521998 11.902553 0.871533 0.091642 -0.481696 0 0
  phy
    0 5.988312 -4.932841 11.120840 0.929911 0.130833 -0.343727 0 0
    0 7.267736 -6.166039 5.926617 0.976419 0.116959 -0.181456 0 0
    0 7.271648 1.515499 8.405372 0.966712 0.022871 -0.254842 0 0
  phy
    0 -6.707081 -8.225037 9.138905 -0.956985 0.194204 -0.215558 0 0
    0 -6.707078 -11.230965 4.998865 -0.846285 0.486461 -0.217159 0 0
    0 -5.859315 -10.955700 6.331157 -0.061621 0.856125 -0.513082 0 0
  phy
    0 -6.707081 -8.225037 9.138905 -0.956985 0.194204 -0.215558 0 0
    0 -5.859315 -10.955700 6.331157 -0.061621 0.856125 -0.513082 0 0
    0 -5.861241 -9.403253 8.467098 -0.083509 0.740180 -0.667203 0 0
  phy
    0 -5.859242 -5.142029 11.572288 -0.054434 0.440588 -0.896057 0 0
    0 -6.707081 -8.225037 9.138905 -0.956985 0.194204 -0.215558 0 0
    0 -5.859315 -7.432273 10.239978 -0.038525 0.574629 -0.817507 0 0
  phy
    0 -6.707081 -8.225037 9.138905 -0.956985 0.194204 -0.215558 0 0
    0 -5.859242 -5.142029 11.572288 -0.054434 0.440588 -0.896057 0 0
    0 -6.707067 -3.798725 11.693400 -0.990372 0.037936 -0.133135 0 0
  phy
    0 -6.707081 -8.225037 9.138905 -0.956985 0.194204 -0.215558 0 0
    0 -5.861241 -9.403253 8.467098 -0.083509 0.740180 -0.667203 0 0
    0 -5.859315 -7.432273 10.239978 -0.038525 0.574629 -0.817507 0 0
  phy
    0 -6.707081 -8.225037 9.138905 -0.956985 0.194204 -0.215558 0 0
    0 -6.718084 -12.287988 -0.000023 -0.999884 0.015176 -0.001098 0 0
    0 -6.707078 -11.230965 4.998865 -0.846285 0.486461 -0.217159 0 0
  phy
    0 -6.718084 -12.287988 -0.000023 -0.999884 0.015176 -0.001098 0 0
    0 -6.707081 -8.225037 9.138905 -0.956985 0.194204 -0.215558 0 0
    0 -6.707067 -3.798725 11.693400 -0.990372 0.037936 -0.133135 0 0
  phy
    0 4.964315 12.607303 -1.321271 0.053371 -0.995871 0.073430 0 0
    0 -5.870260 12.607302 -1.321271 -0.056702 -0.989742 0.131133 0 0
    0 -5.859249 12.607297 1.321318 -0.020020 -0.994325 -0.104488 0 0
  phy
    0 -5.870260 12.607302 -1.321271 -0.056702 -0.989742 0.131133 0 0
    0 -6.707074 12.023727 2.554509 -0.825340 -0.555971 -0.098540 0 0
    0 -5.859249 12.607297 1.321318 -0.020020 -0.994325 -0.104488 0 0
  phy
    0 -6.707074 12.023727 2.554509 -0.825340 -0.555971 -0.098540 0 0
    0 -5.859248 12.056758 3.919837 -0.056880 -0.937345 -0.343728 0 0
    0 -5.859249 12.607297 1.321318 -0.020020 -0.994325 -0.104488 0 0
  phy
    0 -6.718084 12.023738 -2.554468 -0.999717 -0.023181 0.005384 0 0
    0 -6.707074 12.023727 2.554509 -0.825340 -0.555971 -0.098540 0 0
    0 -5.870260 12.607302 -1.321271 -0.056702 -0.989742 0.131133 0 0
  phy
    0 -6.718084 12.023738 -2.554468 -0.999717 -0.023181 0.005384 0 0
    0 -5.870185 10.977728 -6.331176 -0.054410 -0.887975 0.456662 0 0
    0 -6.718086 9.942713 -7.223038 -0.975370 -0.178448 0.129655 0 0
  phy
    0 4.968091 -2.620544 -12.387088 0.022134 0.208004 0.977878 0 0
    0 -5.870256 0.011025 -12.662354 -0.042373 0.003645 0.999095 0 0
    0 4.970200 0.024940 -12.660905 0.075689 -0.000032 0.997131 0 0
  phy
    0 -6.718084 -12.287988 -0.000023 -0.999884 0.015176 -0.001098 0 0
    0 -5.870257 -12.574264 -1.321306 -0.053459 0.988473 0.141644 0 0
    0 -5.859242 -12.585279 1.321267 -0.025190 0.997313 -0.068792 0 0
  phy
    0 -5.870257 -12.574264 -1.321306 -0.053459 0.988473 0.141644 0 0
    0 -6.718084 -12.287988 -0.000023 -0.999884 0.015176 -0.001098 0 0
    0 -6.718084 -11.230946 -4.998894 -0.820701 0.530207 0.212909 0 0
  phy
    0 5.977299 -10.526263 -6.088952 0.894933 0.381465 0.231471 0 0
    0 5.977304 -11.561275 -3.765699 0.817121 0.548321 0.177926 0 0
    0 4.964309 -10.955679 -6.331191 0.052959 0.887537 0.457683 0 0
  phy
    0 5.977299 -10.526263 -6.088952 0.894933 0.381465 0.231471 0 0
    0 7.257355 -7.532312 -4.044271 0.993952 0.108084 0.019432 0 0
    0 5.977304 -11.561275 -3.765699 0.817121 0.548321 0.177926 0 0
  phy
    0 -5.870372 5.164055 -11.572283 -0.024087 -0.393079 0.919189 0 0
    0 -5.870249 7.454280 -10.239982 -0.127593 -0.584105 0.801587 0 0
    0 0.472306 9.271059 -9.513266 0.000300 -0.669201 0.743081 0 0
  phy
    0 5.988312 2.543458 11.902617 0.873934 -0.100826 -0.475473 0 0
    0 4.975324 2.642551 12.387091 0.052924 -0.237988 -0.969825 0 0
    0 5.988311 0.033041 12.166872 0.847988 -0.010368 -0.529914 0 0
  phy
    0 5.988311 0.033041 12.166872 0.847988 -0.010368 -0.529914 0 0
    0 4.975324 2.642551 12.387091 0.052924 -0.237988 -0.969825 0 0
    0 4.975303 0.019327 12.663229 0.031725 0.002153 -0.999494 0 0
  phy
    0 5.988311 0.033041 12.166872 0.847988 -0.010368 -0.529914 0 0
    0 7.271648 1.515499 8.405372 0.966712 0.022871 -0.254842 0 0
    0 5.988312 2.543458 11.902617 0.873934 -0.100826 -0.475473 0 0
  phy
    0 4.975324 -5.142040 11.572274 0.041367 0.379618 -0.924218 0 0
    0 5.988312 -4.932841 11.120840 0.929911 0.130833 -0.343727 0 0
    0 4.981500 -2.618282 12.387322 0.059221 0.210482 -0.975802 0 0
  phy
    0 4.981500 -2.618282 12.387322 0.059221 0.210482 -0.975802 0 0
    0 5.988312 -4.932841 11.120840 0.929911 0.130833 -0.343727 0 0
    0 5.988311 -2.521998 11.902553 0.871533 0.091642 -0.481696 0 0
  phy
    0 4.981500 -2.618282 12.387322 0.059221 0.210482 -0.975802 0 0
    0 5.988311 -2.521998 11.902553 0.871533 0.091642 -0.481696 0 0
    0 4.975303 0.019327 12.663229 0.031725 0.002153 -0.999494 0 0
  phy
    0 4.975303 0.019327 12.663229 0.031725 0.002153 -0.999494 0 0
    0 5.988311 -2.521998 11.902553 0.871533 0.091642 -0.481696 0 0
    0 5.988311 0.033041 12.166872 0.847988 -0.010368 -0.529914 0 0
  phy
    0 5.988311 -2.521998 11.902553 0.871533 0.091642 -0.481696 0 0
    0 7.271648 1.515499 8.405372 0.966712 0.022871 -0.254842 0 0
    0 5.988311 0.033041 12.166872 0.847988 -0.010368 -0.529914 0 0
  phy
    0 4.975324 2.642551 12.387091 0.052924 -0.237988 -0.969825 0 0
    0 -5.859247 2.642560 12.387091 -0.025900 -0.174668 -0.984287 0 0
    0 4.975303 0.019327 12.663229 0.031725 0.002153 -0.999494 0 0
  phy
    0 -5.859247 2.642560 12.387091 -0.025900 -0.174668 -0.984287 0 0
    0 -5.859246 0.010985 12.662354 -0.079226 0.006749 -0.996834 0 0
    0 4.975303 0.019327 12.663229 0.031725 0.002153 -0.999494 0 0
  phy
    0 -5.859247 2.642560 12.387091 -0.025900 -0.174668 -0.984287 0 0
    0 4.975324 2.642551 12.387091 0.052924 -0.237988 -0.969825 0 0
    0 -5.859248 5.164029 11.572295 -0.055663 -0.371727 -0.926672 0 0
  phy
    0 -5.859235 9.425183 8.478291 -0.155429 -0.727489 -0.668283 0 0
    0 -5.859221 7.454257 10.251022 -0.030621 -0.548510 -0.835583 0 0
    0 0.483145 9.293045 8.984790 0.000001 -0.743711 -0.668501 0 0
  phy
    0 -6.718084 -12.287988 -0.000023 -0.999884 0.015176 -0.001098 0 0
    0 -5.859242 -12.034744 3.908798 -0.041702 0.951272 -0.305519 0 0
    0 -6.707078 -11.230965 4.998865 -0.846285 0.486461 -0.217159 0 0
  phy
    0 -5.859242 -12.034744 3.908798 -0.041702 0.951272 -0.305519 0 0
    0 -6.718084 -12.287988 -0.000023 -0.999884 0.015176 -0.001098 0 0
    0 -5.859242 -12.585279 1.321267 -0.025190 0.997313 -0.068792 0 0
  phy
    0 -6.707078 -11.230965 4.998865 -0.846285 0.486461 -0.217159 0 0
    0 -5.859242 -12.034744 3.908798 -0.041702 0.951272 -0.305519 0 0
    0 -5.859315 -10.955700 6.331157 -0.061621 0.856125 -0.513082 0 0
  phy
    0 4.968091 -2.620544 -12.387088 0.022134 0.208004 0.977878 0 0
    0 -5.870269 -2.620538 -12.387090 -0.037146 0.207144 0.977605 0 0
    0 -5.870256 0.011025 -12.662354 -0.042373 0.003645 0.999095 0 0
  phy
    0 -5.859248 5.164029 11.572295 -0.055663 -0.371727 -0.926672 0 0
    0 4.975324 2.642551 12.387091 0.052924 -0.237988 -0.969825 0 0
    0 4.987660 5.184625 11.560415 0.041239 -0.437325 -0.898357 0 0
  phy
    0 -5.870256 0.011025 -12.662354 -0.042373 0.003645 0.999095 0 0
    0 -5.870269 -2.620538 -12.387090 -0.037146 0.207144 0.977605 0 0
    0 -6.718086 -3.798704 -11.693409 -0.824240 0.154443 0.544771 0 0
  phy
    0 -6.718086 -3.798704 -11.693409 -0.824240 0.154443 0.544771 0 0
    0 -6.718089 1.288281 -12.221920 -0.999631 -0.002836 0.027013 0 0
    0 -5.870256 0.011025 -12.662354 -0.042373 0.003645 0.999095 0 0
end
