// Created by Crowbar 0.74
version 1
nodes
  0 "root" -1
end
skeleton
  time 0
    0 0.000000 0.000000 0.000000 0.000000 0.000000 0.000000
end
triangles
  phy
    0 7.257357 -7.533509 -4.041563 0.966590 0.249625 0.058235 0 0
    0 7.255687 -6.166031 -5.930519 0.998436 0.027044 0.048933 0 0
    0 7.265559 -7.542380 4.029910 0.978623 0.201879 -0.039268 0 0
  phy
    0 7.255687 -6.166031 -5.930519 0.998436 0.027044 0.048933 0 0
    0 7.267736 -6.166039 5.926617 0.992548 0.066279 -0.102257 0 0
    0 7.265559 -7.542380 4.029910 0.978623 0.201879 -0.039268 0 0
  phy
    0 7.255687 -6.166031 -5.930519 0.998436 0.027044 0.048933 0 0
    0 7.271648 1.515499 8.405372 0.993021 0.010690 -0.117451 0 0
    0 7.267736 -6.166039 5.926617 0.992548 0.066279 -0.102257 0 0
  phy
    0 7.255687 -6.166031 -5.930519 0.998436 0.027044 0.048933 0 0
    0 7.271320 3.712044 7.689774 0.998415 -0.038584 -0.040984 0 0
    0 7.271648 1.515499 8.405372 0.993021 0.010690 -0.117451 0 0
  phy
    0 7.255687 -6.166031 -5.930519 0.998436 0.027044 0.048933 0 0
    0 7.254546 1.508508 -8.423223 0.997370 0.010581 0.071700 0 0
    0 7.271320 3.712044 7.689774 0.998415 -0.038584 -0.040984 0 0
  phy
    0 7.254546 1.508508 -8.423223 0.997370 0.010581 0.071700 0 0
    0 7.263198 8.457232 -1.149615 0.992238 -0.113978 0.049719 0 0
    0 7.271320 3.712044 7.689774 0.998415 -0.038584 -0.040984 0 0
  phy
    0 7.254546 1.508508 -8.423223 0.997370 0.010581 0.071700 0 0
    0 7.255692 3.731544 -7.693433 0.967216 -0.160775 0.196583 0 0
    0 7.263198 8.457232 -1.149615 0.992238 -0.113978 0.049719 0 0
  phy
    0 7.263198 8.457232 -1.149615 0.992238 -0.113978 0.049719 0 0
    0 7.265556 8.478261 1.167147 0.968495 -0.223232 -0.110387 0 0
    0 7.271320 3.712044 7.689774 0.998415 -0.038584 -0.040984 0 0
  phy
    0 7.265556 8.478261 1.167147 0.968495 -0.223232 -0.110387 0 0
    0 5.988557 9.050718 8.147889 0.930541 -0.285236 -0.229638 0 0
    0 7.271320 3.712044 7.689774 0.998415 -0.038584 -0.040984 0 0
  phy
    0 7.265556 8.478261 1.167147 0.968495 -0.223232 -0.110387 0 0
    0 5.988309 10.548295 6.088952 0.901781 -0.374219 -0.216219 0 0
    0 5.988557 9.050718 8.147889 0.930541 -0.285236 -0.229638 0 0
  phy
    0 5.988313 4.965820 11.120859 0.872020 -0.183517 -0.453764 0 0
    0 7.271648 1.515499 8.405372 0.993021 0.010690 -0.117451 0 0
    0 7.271320 3.712044 7.689774 0.998415 -0.038584 -0.040984 0 0
  phy
    0 5.988313 7.167989 9.843610 0.820040 -0.336911 -0.462629 0 0
    0 5.988313 4.965820 11.120859 0.872020 -0.183517 -0.453764 0 0
    0 7.271320 3.712044 7.689774 0.998415 -0.038584 -0.040984 0 0
  phy
    0 5.988557 9.050718 8.147889 0.930541 -0.285236 -0.229638 0 0
    0 5.988313 7.167989 9.843610 0.820040 -0.336911 -0.462629 0 0
    0 7.271320 3.712044 7.689774 0.998415 -0.038584 -0.040984 0 0
  phy
    0 5.977302 -9.028796 -8.147964 0.848111 0.398992 0.348587 0 0
    0 5.977302 -10.526265 -6.088949 0.873210 0.421954 0.243843 0 0
    0 4.964316 -10.955679 -6.331187 0.040698 0.865326 0.499555 0 0
  phy
    0 5.977302 -9.028796 -8.147964 0.848111 0.398992 0.348587 0 0
    0 4.964316 -10.955679 -6.331187 0.040698 0.865326 0.499555 0 0
    0 4.967662 -9.392148 -8.478282 0.041412 0.743072 0.667929 0 0
  phy
    0 4.964316 -10.955679 -6.331187 0.040698 0.865326 0.499555 0 0
    0 -5.870262 -10.955681 -6.331188 -0.077230 0.860013 0.504394 0 0
    0 -5.870257 -9.392152 -8.478283 -0.018929 0.743576 0.668383 0 0
  phy
    0 4.964316 -10.955679 -6.331187 0.040698 0.865326 0.499555 0 0
    0 -5.870257 -9.392152 -8.478283 -0.018929 0.743576 0.668383 0 0
    0 4.967662 -9.392148 -8.478282 0.041412 0.743072 0.667929 0 0
  phy
    0 4.967662 -9.392148 -8.478282 0.041412 0.743072 0.667929 0 0
    0 -5.870257 -9.392152 -8.478283 -0.018929 0.743576 0.668383 0 0
    0 4.964311 -7.432232 -10.251010 0.053509 0.612243 0.788857 0 0
  phy
    0 -5.870257 -9.392152 -8.478283 -0.018929 0.743576 0.668383 0 0
    0 -5.870262 -7.432236 -10.251010 -0.025330 0.559526 0.828426 0 0
    0 4.964311 -7.432232 -10.251010 0.053509 0.612243 0.788857 0 0
  phy
    0 4.967662 -9.392148 -8.478282 0.041412 0.743072 0.667929 0 0
    0 4.964311 -7.432232 -10.251010 0.053509 0.612243 0.788857 0 0
    0 5.977302 -9.028796 -8.147964 0.848111 0.398992 0.348587 0 0
  phy
    0 5.977296 -7.134943 -9.843614 0.879767 0.279250 0.384745 0 0
    0 4.964311 -7.432232 -10.251010 0.053509 0.612243 0.788857 0 0
    0 5.977300 -4.932817 -11.120845 0.930138 0.138403 0.340128 0 0
  phy
    0 5.977302 -9.028796 -8.147964 0.848111 0.398992 0.348587 0 0
    0 4.964311 -7.432232 -10.251010 0.053509 0.612243 0.788857 0 0
    0 5.977296 -7.134943 -9.843614 0.879767 0.279250 0.384745 0 0
  phy
    0 5.977300 -4.932817 -11.120845 0.930138 0.138403 0.340128 0 0
    0 7.255687 -6.166031 -5.930519 0.998436 0.027044 0.048933 0 0
    0 5.977296 -7.134943 -9.843614 0.879767 0.279250 0.384745 0 0
  phy
    0 5.977296 -7.134943 -9.843614 0.879767 0.279250 0.384745 0 0
    0 7.255687 -6.166031 -5.930519 0.998436 0.027044 0.048933 0 0
    0 5.977302 -9.028796 -8.147964 0.848111 0.398992 0.348587 0 0
  phy
    0 4.968099 -2.620544 -12.387088 0.028735 0.174416 0.984253 0 0
    0 4.970200 0.024940 -12.660905 0.075689 -0.000032 0.997131 0 0
    0 5.977302 -2.527124 -11.900881 0.844075 0.110533 0.524709 0 0
  phy
    0 4.970200 0.024940 -12.660905 0.075689 -0.000032 0.997131 0 0
    0 5.977301 0.033049 -12.166871 0.880350 0.000666 0.474324 0 0
    0 5.977302 -2.527124 -11.900881 0.844075 0.110533 0.524709 0 0
  phy
    0 5.977302 -2.527124 -11.900881 0.844075 0.110533 0.524709 0 0
    0 7.254546 1.508508 -8.423223 0.997370 0.010581 0.071700 0 0
    0 5.977300 -4.932817 -11.120845 0.930138 0.138403 0.340128 0 0
  phy
    0 7.254546 1.508508 -8.423223 0.997370 0.010581 0.071700 0 0
    0 7.255687 -6.166031 -5.930519 0.998436 0.027044 0.048933 0 0
    0 5.977300 -4.932817 -11.120845 0.930138 0.138403 0.340128 0 0
  phy
    0 5.977300 -4.932817 -11.120845 0.930138 0.138403 0.340128 0 0
    0 4.973282 -5.130998 -11.572295 0.031443 0.403567 0.914410 0 0
    0 5.977302 -2.527124 -11.900881 0.844075 0.110533 0.524709 0 0
  phy
    0 4.973282 -5.130998 -11.572295 0.031443 0.403567 0.914410 0 0
    0 4.968099 -2.620544 -12.387088 0.028735 0.174416 0.984253 0 0
    0 5.977302 -2.527124 -11.900881 0.844075 0.110533 0.524709 0 0
  phy
    0 5.977301 0.033049 -12.166871 0.880350 0.000666 0.474324 0 0
    0 7.254546 1.508508 -8.423223 0.997370 0.010581 0.071700 0 0
    0 5.977302 -2.527124 -11.900881 0.844075 0.110533 0.524709 0 0
  phy
    0 5.988310 12.114459 1.264829 0.871935 -0.488581 -0.031905 0 0
    0 4.978052 12.607298 1.321313 0.059576 -0.992328 -0.108328 0 0
    0 5.988312 11.583298 3.765679 0.819546 -0.545076 -0.176737 0 0
  phy
    0 4.978052 12.607298 1.321313 0.059576 -0.992328 -0.108328 0 0
    0 4.975319 12.056755 3.919840 0.021938 -0.950735 -0.309228 0 0
    0 5.988312 11.583298 3.765679 0.819546 -0.545076 -0.176737 0 0
  phy
    0 7.263198 8.457232 -1.149615 0.992238 -0.113978 0.049719 0 0
    0 5.977299 12.111824 -1.266210 0.874457 -0.482206 0.052946 0 0
    0 5.988310 12.114459 1.264829 0.871935 -0.488581 -0.031905 0 0
  phy
    0 7.265556 8.478261 1.167147 0.968495 -0.223232 -0.110387 0 0
    0 7.263198 8.457232 -1.149615 0.992238 -0.113978 0.049719 0 0
    0 5.988310 12.114459 1.264829 0.871935 -0.488581 -0.031905 0 0
  phy
    0 5.988312 11.583298 3.765679 0.819546 -0.545076 -0.176737 0 0
    0 7.265556 8.478261 1.167147 0.968495 -0.223232 -0.110387 0 0
    0 5.988310 12.114459 1.264829 0.871935 -0.488581 -0.031905 0 0
  phy
    0 5.988310 12.114459 1.264829 0.871935 -0.488581 -0.031905 0 0
    0 5.977299 12.111824 -1.266210 0.874457 -0.482206 0.052946 0 0
    0 4.964314 12.607302 -1.321266 0.041192 -0.993650 0.104708 0 0
  phy
    0 4.964314 12.607302 -1.321266 0.041192 -0.993650 0.104708 0 0
    0 4.978052 12.607298 1.321313 0.059576 -0.992328 -0.108328 0 0
    0 5.988310 12.114459 1.264829 0.871935 -0.488581 -0.031905 0 0
  phy
    0 5.988309 10.548295 6.088952 0.901781 -0.374219 -0.216219 0 0
    0 4.990167 10.977699 6.331192 0.075651 -0.863547 -0.498561 0 0
    0 5.988557 9.050718 8.147889 0.930541 -0.285236 -0.229638 0 0
  phy
    0 4.990167 10.977699 6.331192 0.075651 -0.863547 -0.498561 0 0
    0 4.975327 9.425183 8.478277 0.041455 -0.762494 -0.645666 0 0
    0 5.988557 9.050718 8.147889 0.930541 -0.285236 -0.229638 0 0
  phy
    0 5.988313 7.167989 9.843610 0.820040 -0.336911 -0.462629 0 0
    0 5.988557 9.050718 8.147889 0.930541 -0.285236 -0.229638 0 0
    0 4.975327 9.425183 8.478277 0.041455 -0.762494 -0.645666 0 0
  phy
    0 4.964314 12.607302 -1.321266 0.041192 -0.993650 0.104708 0 0
    0 -5.870262 12.056768 -3.908802 -0.019994 -0.950767 0.309260 0 0
    0 -5.870260 12.607302 -1.321271 -0.081175 -0.991938 0.097307 0 0
  phy
    0 4.964314 12.607302 -1.321266 0.041192 -0.993650 0.104708 0 0
    0 4.966257 12.056768 -3.908804 0.059651 -0.947977 0.312699 0 0
    0 -5.870262 12.056768 -3.908802 -0.019994 -0.950767 0.309260 0 0
  phy
    0 4.966257 12.056768 -3.908804 0.059651 -0.947977 0.312699 0 0
    0 4.964302 10.977724 -6.331155 0.041264 -0.879544 0.474024 0 0
    0 -5.870262 12.056768 -3.908802 -0.019994 -0.950767 0.309260 0 0
  phy
    0 4.964302 10.977724 -6.331155 0.041264 -0.879544 0.474024 0 0
    0 -5.870248 10.977724 -6.331156 -0.056582 -0.850866 0.522327 0 0
    0 -5.870262 12.056768 -3.908802 -0.019994 -0.950767 0.309260 0 0
  phy
    0 -6.718084 12.023738 -2.554468 -0.999717 -0.023180 0.005384 0 0
    0 -5.870260 12.607302 -1.321271 -0.081175 -0.991938 0.097307 0 0
    0 -5.870262 12.056768 -3.908802 -0.019994 -0.950767 0.309260 0 0
  phy
    0 -5.870262 12.056768 -3.908802 -0.019994 -0.950767 0.309260 0 0
    0 -5.870248 10.977724 -6.331156 -0.056582 -0.850866 0.522327 0 0
    0 -6.718084 12.023738 -2.554468 -0.999717 -0.023180 0.005384 0 0
  phy
    0 -5.870257 -9.392152 -8.478283 -0.018929 0.743576 0.668383 0 0
    0 -5.870262 -10.955681 -6.331188 -0.077230 0.860013 0.504394 0 0
    0 -6.718084 -8.225010 -9.138932 -0.989869 0.095087 0.105445 0 0
  phy
    0 -6.718084 -8.225010 -9.138932 -0.989869 0.095087 0.105445 0 0
    0 -5.870262 -7.432236 -10.251010 -0.025330 0.559526 0.828426 0 0
    0 -5.870257 -9.392152 -8.478283 -0.018929 0.743576 0.668383 0 0
  phy
    0 5.977300 7.168008 -9.843591 0.848802 -0.303090 0.433210 0 0
    0 5.977298 9.061852 -8.136931 0.919338 -0.302784 0.251277 0 0
    0 7.255692 3.731544 -7.693433 0.967216 -0.160775 0.196583 0 0
  phy
    0 5.977300 7.168008 -9.843591 0.848802 -0.303090 0.433210 0 0
    0 7.255692 3.731544 -7.693433 0.967216 -0.160775 0.196583 0 0
    0 5.977302 4.965863 -11.120839 0.841947 -0.209928 0.497046 0 0
  phy
    0 4.971406 7.454290 -10.239975 0.040795 -0.565098 0.824015 0 0
    0 5.977298 9.061852 -8.136931 0.919338 -0.302784 0.251277 0 0
    0 5.977300 7.168008 -9.843591 0.848802 -0.303090 0.433210 0 0
  phy
    0 5.977302 4.965863 -11.120839 0.841947 -0.209928 0.497046 0 0
    0 4.973282 5.164060 -11.572283 0.058974 -0.411283 0.909598 0 0
    0 5.977300 7.168008 -9.843591 0.848802 -0.303090 0.433210 0 0
  phy
    0 5.977300 7.168008 -9.843591 0.848802 -0.303090 0.433210 0 0
    0 4.973282 5.164060 -11.572283 0.058974 -0.411283 0.909598 0 0
    0 4.971406 7.454290 -10.239975 0.040795 -0.565098 0.824015 0 0
  phy
    0 5.988311 -10.526277 6.088928 0.895998 0.379755 -0.230161 0 0
    0 5.988311 -9.028815 8.136925 0.810719 0.434396 -0.392472 0 0
    0 4.990713 -10.955694 6.331153 0.053209 0.879950 -0.472077 0 0
  phy
    0 4.990713 -10.955694 6.331153 0.053209 0.879950 -0.472077 0 0
    0 5.988311 -9.028815 8.136925 0.810719 0.434396 -0.392472 0 0
    0 4.975329 -9.403180 8.467252 0.021993 0.742582 -0.669394 0 0
  phy
    0 5.988311 -9.028815 8.136925 0.810719 0.434396 -0.392472 0 0
    0 5.988312 -7.134977 9.843591 0.847344 0.304272 -0.435231 0 0
    0 4.980475 -7.432267 10.239978 0.059503 0.591185 -0.804338 0 0
  phy
    0 5.988311 -9.028815 8.136925 0.810719 0.434396 -0.392472 0 0
    0 4.980475 -7.432267 10.239978 0.059503 0.591185 -0.804338 0 0
    0 4.975329 -9.403180 8.467252 0.021993 0.742582 -0.669394 0 0
  phy
    0 5.988311 -9.028815 8.136925 0.810719 0.434396 -0.392472 0 0
    0 7.267736 -6.166039 5.926617 0.992548 0.066279 -0.102257 0 0
    0 5.988312 -7.134977 9.843591 0.847344 0.304272 -0.435231 0 0
  phy
    0 5.988311 -9.028815 8.136925 0.810719 0.434396 -0.392472 0 0
    0 5.988311 -10.526277 6.088928 0.895998 0.379755 -0.230161 0 0
    0 7.267736 -6.166039 5.926617 0.992548 0.066279 -0.102257 0 0
  phy
    0 5.988312 -12.089793 1.266238 0.940755 0.338652 -0.017145 0 0
    0 5.988311 -11.561286 3.754632 0.818665 0.546348 -0.176892 0 0
    0 4.975326 -12.585280 1.321260 0.053209 0.989544 -0.134056 0 0
  phy
    0 4.975326 -12.585280 1.321260 0.053209 0.989544 -0.134056 0 0
    0 5.988311 -11.561286 3.754632 0.818665 0.546348 -0.176892 0 0
    0 4.977274 -12.034746 3.908797 0.041991 0.950156 -0.308933 0 0
  phy
    0 5.988311 -11.561286 3.754632 0.818665 0.546348 -0.176892 0 0
    0 5.988311 -10.526277 6.088928 0.895998 0.379755 -0.230161 0 0
    0 4.990713 -10.955694 6.331153 0.053209 0.879950 -0.472077 0 0
  phy
    0 4.977274 -12.034746 3.908797 0.041991 0.950156 -0.308933 0 0
    0 5.988311 -11.561286 3.754632 0.818665 0.546348 -0.176892 0 0
    0 4.990713 -10.955694 6.331153 0.053209 0.879950 -0.472077 0 0
  phy
    0 5.988311 -11.561286 3.754632 0.818665 0.546348 -0.176892 0 0
    0 5.988312 -12.089793 1.266238 0.940755 0.338652 -0.017145 0 0
    0 7.265559 -7.542380 4.029910 0.978623 0.201879 -0.039268 0 0
  phy
    0 7.265559 -7.542380 4.029910 0.978623 0.201879 -0.039268 0 0
    0 5.988311 -10.526277 6.088928 0.895998 0.379755 -0.230161 0 0
    0 5.988311 -11.561286 3.754632 0.818665 0.546348 -0.176892 0 0
  phy
    0 5.977300 -4.932817 -11.120845 0.930138 0.138403 0.340128 0 0
    0 4.964311 -7.432232 -10.251010 0.053509 0.612243 0.788857 0 0
    0 4.973282 -5.130998 -11.572295 0.031443 0.403567 0.914410 0 0
  phy
    0 -5.870250 -12.023725 -3.919857 -0.024724 0.940581 0.338669 0 0
    0 4.964311 -12.023724 -3.919841 0.028173 0.960737 0.276026 0 0
    0 -5.870257 -12.574264 -1.321306 -0.053458 0.988473 0.141644 0 0
  phy
    0 -5.870257 -12.574264 -1.321306 -0.053458 0.988473 0.141644 0 0
    0 4.964311 -12.023724 -3.919841 0.028173 0.960737 0.276026 0 0
    0 4.967100 -12.574264 -1.321308 0.040553 0.996119 0.078123 0 0
  phy
    0 4.964311 -12.023724 -3.919841 0.028173 0.960737 0.276026 0 0
    0 -5.870250 -12.023725 -3.919857 -0.024724 0.940581 0.338669 0 0
    0 4.964316 -10.955679 -6.331187 0.040698 0.865326 0.499555 0 0
  phy
    0 4.964316 -10.955679 -6.331187 0.040698 0.865326 0.499555 0 0
    0 -5.870250 -12.023725 -3.919857 -0.024724 0.940581 0.338669 0 0
    0 -5.870262 -10.955681 -6.331188 -0.077230 0.860013 0.504394 0 0
  phy
    0 -5.870262 -10.955681 -6.331188 -0.077230 0.860013 0.504394 0 0
    0 -5.870250 -12.023725 -3.919857 -0.024724 0.940581 0.338669 0 0
    0 -6.718084 -11.230946 -4.998894 -0.820703 0.530205 0.212907 0 0
  phy
    0 -5.870250 -12.023725 -3.919857 -0.024724 0.940581 0.338669 0 0
    0 -5.870257 -12.574264 -1.321306 -0.053458 0.988473 0.141644 0 0
    0 -6.718084 -11.230946 -4.998894 -0.820703 0.530205 0.212907 0 0
  phy
    0 5.977297 11.583305 -3.754639 0.848873 -0.505833 0.153453 0 0
    0 7.263198 8.457232 -1.149615 0.992238 -0.113978 0.049719 0 0
    0 5.977301 10.548299 -6.077907 0.871695 -0.429379 0.236182 0 0
  phy
    0 5.977301 10.548299 -6.077907 0.871695 -0.429379 0.236182 0 0
    0 7.263198 8.457232 -1.149615 0.992238 -0.113978 0.049719 0 0
    0 5.977298 9.061852 -8.136931 0.919338 -0.302784 0.251277 0 0
  phy
    0 5.977301 10.548299 -6.077907 0.871695 -0.429379 0.236182 0 0
    0 4.964302 10.977724 -6.331155 0.041264 -0.879544 0.474024 0 0
    0 4.966257 12.056768 -3.908804 0.059651 -0.947977 0.312699 0 0
  phy
    0 4.966257 12.056768 -3.908804 0.059651 -0.947977 0.312699 0 0
    0 5.977297 11.583305 -3.754639 0.848873 -0.505833 0.153453 0 0
    0 5.977301 10.548299 -6.077907 0.871695 -0.429379 0.236182 0 0
  phy
    0 5.977298 9.061852 -8.136931 0.919338 -0.302784 0.251277 0 0
    0 4.964302 10.977724 -6.331155 0.041264 -0.879544 0.474024 0 0
    0 5.977301 10.548299 -6.077907 0.871695 -0.429379 0.236182 0 0
  phy
    0 5.988312 11.583298 3.765679 0.819546 -0.545076 -0.176737 0 0
    0 5.988309 10.548295 6.088952 0.901781 -0.374219 -0.216219 0 0
    0 7.265556 8.478261 1.167147 0.968495 -0.223232 -0.110387 0 0
  phy
    0 5.988312 11.583298 3.765679 0.819546 -0.545076 -0.176737 0 0
    0 4.990167 10.977699 6.331192 0.075651 -0.863547 -0.498561 0 0
    0 5.988309 10.548295 6.088952 0.901781 -0.374219 -0.216219 0 0
  phy
    0 4.975319 12.056755 3.919840 0.021938 -0.950735 -0.309228 0 0
    0 4.990167 10.977699 6.331192 0.075651 -0.863547 -0.498561 0 0
    0 5.988312 11.583298 3.765679 0.819546 -0.545076 -0.176737 0 0
  phy
    0 5.988313 4.965820 11.120859 0.872020 -0.183517 -0.453764 0 0
    0 5.988313 7.167989 9.843610 0.820040 -0.336911 -0.462629 0 0
    0 4.987660 5.184625 11.560415 0.059313 -0.408929 -0.910637 0 0
  phy
    0 4.987660 5.184625 11.560415 0.059313 -0.408929 -0.910637 0 0
    0 5.988313 7.167989 9.843610 0.820040 -0.336911 -0.462629 0 0
    0 4.975329 7.454256 10.251017 0.021887 -0.587628 -0.808835 0 0
  phy
    0 4.975329 7.454256 10.251017 0.021887 -0.587628 -0.808835 0 0
    0 5.988313 7.167989 9.843610 0.820040 -0.336911 -0.462629 0 0
    0 4.975327 9.425183 8.478277 0.041455 -0.762494 -0.645666 0 0
  phy
    0 4.964314 12.607302 -1.321266 0.041192 -0.993650 0.104708 0 0
    0 5.977297 11.583305 -3.754639 0.848873 -0.505833 0.153453 0 0
    0 4.966257 12.056768 -3.908804 0.059651 -0.947977 0.312699 0 0
  phy
    0 4.964314 12.607302 -1.321266 0.041192 -0.993650 0.104708 0 0
    0 5.977299 12.111824 -1.266210 0.874457 -0.482206 0.052946 0 0
    0 5.977297 11.583305 -3.754639 0.848873 -0.505833 0.153453 0 0
  phy
    0 -6.707067 -3.798725 11.693400 -0.990372 0.037936 -0.133135 0 0
    0 -5.861998 -2.620577 12.387083 -0.019277 0.206843 -0.978184 0 0
    0 -5.859246 0.010985 12.662354 -0.079226 0.006749 -0.996834 0 0
  phy
    0 -6.707067 -3.798725 11.693400 -0.990372 0.037936 -0.133135 0 0
    0 -5.859246 0.010985 12.662354 -0.079226 0.006749 -0.996834 0 0
    0 -6.707073 1.288253 12.221927 -0.998594 -0.007354 -0.052506 0 0
  phy
    0 -6.718084 12.023738 -2.554468 -0.999717 -0.023180 0.005384 0 0
    0 -6.718084 -12.287988 -0.000023 -0.999884 0.015176 -0.001098 0 0
    0 -6.710372 9.938625 7.226581 -0.999377 -0.028235 -0.021153 0 0
  phy
    0 -6.710372 9.938625 7.226581 -0.999377 -0.028235 -0.021153 0 0
    0 -6.718084 -12.287988 -0.000023 -0.999884 0.015176 -0.001098 0 0
    0 -6.707073 1.288253 12.221927 -0.998594 -0.007354 -0.052506 0 0
  phy
    0 -6.710372 9.938625 7.226581 -0.999377 -0.028235 -0.021153 0 0
    0 -6.707073 1.288253 12.221927 -0.998594 -0.007354 -0.052506 0 0
    0 -6.707933 6.143660 10.646881 -0.851527 -0.261717 -0.454319 0 0
  phy
    0 -6.707933 6.143660 10.646881 -0.851527 -0.261717 -0.454319 0 0
    0 -6.707073 1.288253 12.221927 -0.998594 -0.007354 -0.052506 0 0
    0 -5.859248 5.164029 11.572295 -0.042931 -0.402022 -0.914623 0 0
  phy
    0 -6.707073 1.288253 12.221927 -0.998594 -0.007354 -0.052506 0 0
    0 -5.859247 2.642560 12.387091 -0.025900 -0.174668 -0.984287 0 0
    0 -5.859248 5.164029 11.572295 -0.042931 -0.402022 -0.914623 0 0
  phy
    0 -6.707073 1.288253 12.221927 -0.998594 -0.007354 -0.052506 0 0
    0 -6.718084 -12.287988 -0.000023 -0.999884 0.015176 -0.001098 0 0
    0 -6.707067 -3.798725 11.693400 -0.990372 0.037936 -0.133135 0 0
  phy
    0 -5.859247 2.642560 12.387091 -0.025900 -0.174668 -0.984287 0 0
    0 -6.707073 1.288253 12.221927 -0.998594 -0.007354 -0.052506 0 0
    0 -5.859246 0.010985 12.662354 -0.079226 0.006749 -0.996834 0 0
  phy
    0 4.964311 -7.432232 -10.251010 0.053509 0.612243 0.788857 0 0
    0 -5.870262 -7.432236 -10.251010 -0.025330 0.559526 0.828426 0 0
    0 4.973282 -5.130998 -11.572295 0.031443 0.403567 0.914410 0 0
  phy
    0 -5.870262 -7.432236 -10.251010 -0.025330 0.559526 0.828426 0 0
    0 -5.879057 -5.130988 -11.572294 -0.078115 0.410821 0.908363 0 0
    0 4.973282 -5.130998 -11.572295 0.031443 0.403567 0.914410 0 0
  phy
    0 -5.879057 -5.130988 -11.572294 -0.078115 0.410821 0.908363 0 0
    0 -5.870269 -2.620538 -12.387090 -0.025369 0.239779 0.970496 0 0
    0 4.973282 -5.130998 -11.572295 0.031443 0.403567 0.914410 0 0
  phy
    0 -5.870269 -2.620538 -12.387090 -0.025369 0.239779 0.970496 0 0
    0 4.968099 -2.620544 -12.387088 0.028735 0.174416 0.984253 0 0
    0 4.973282 -5.130998 -11.572295 0.031443 0.403567 0.914410 0 0
  phy
    0 7.255687 -6.166031 -5.930519 0.998436 0.027044 0.048933 0 0
    0 7.257357 -7.533509 -4.041563 0.966590 0.249625 0.058235 0 0
    0 5.977302 -9.028796 -8.147964 0.848111 0.398992 0.348587 0 0
  phy
    0 7.257357 -7.533509 -4.041563 0.966590 0.249625 0.058235 0 0
    0 5.977302 -10.526265 -6.088949 0.873210 0.421954 0.243843 0 0
    0 5.977302 -9.028796 -8.147964 0.848111 0.398992 0.348587 0 0
  phy
    0 -6.718084 -8.225010 -9.138932 -0.989869 0.095087 0.105445 0 0
    0 -5.870262 -10.955681 -6.331188 -0.077230 0.860013 0.504394 0 0
    0 -6.718084 -11.230946 -4.998894 -0.820703 0.530205 0.212907 0 0
  phy
    0 7.254546 1.508508 -8.423223 0.997370 0.010581 0.071700 0 0
    0 5.981212 2.543062 -11.900739 0.871865 -0.102777 0.478841 0 0
    0 7.255692 3.731544 -7.693433 0.967216 -0.160775 0.196583 0 0
  phy
    0 5.981212 2.543062 -11.900739 0.871865 -0.102777 0.478841 0 0
    0 5.977302 4.965863 -11.120839 0.841947 -0.209928 0.497046 0 0
    0 7.255692 3.731544 -7.693433 0.967216 -0.160775 0.196583 0 0
  phy
    0 5.977302 4.965863 -11.120839 0.841947 -0.209928 0.497046 0 0
    0 4.964316 2.653604 -12.387080 0.031714 -0.209109 0.977378 0 0
    0 4.973282 5.164060 -11.572283 0.058974 -0.411283 0.909598 0 0
  phy
    0 5.977302 4.965863 -11.120839 0.841947 -0.209928 0.497046 0 0
    0 5.981212 2.543062 -11.900739 0.871865 -0.102777 0.478841 0 0
    0 4.964316 2.653604 -12.387080 0.031714 -0.209109 0.977378 0 0
  phy
    0 4.971406 7.454290 -10.239975 0.040795 -0.565098 0.824015 0 0
    0 -5.870255 5.164053 -11.572283 -0.019713 -0.408210 0.912675 0 0
    0 -5.870256 7.454290 -10.239982 -0.025836 -0.614788 0.788269 0 0
  phy
    0 4.971406 7.454290 -10.239975 0.040795 -0.565098 0.824015 0 0
    0 4.973282 5.164060 -11.572283 0.058974 -0.411283 0.909598 0 0
    0 -5.870255 5.164053 -11.572283 -0.019713 -0.408210 0.912675 0 0
  phy
    0 -5.870255 9.425211 -8.467246 -0.080300 -0.735810 0.672410 0 0
    0 4.964316 9.425206 -8.467243 0.021641 -0.742608 0.669376 0 0
    0 -5.870256 7.454290 -10.239982 -0.025836 -0.614788 0.788269 0 0
  phy
    0 4.964316 9.425206 -8.467243 0.021641 -0.742608 0.669376 0 0
    0 4.971406 7.454290 -10.239975 0.040795 -0.565098 0.824015 0 0
    0 -5.870256 7.454290 -10.239982 -0.025836 -0.614788 0.788269 0 0
  phy
    0 4.971406 7.454290 -10.239975 0.040795 -0.565098 0.824015 0 0
    0 4.964316 9.425206 -8.467243 0.021641 -0.742608 0.669376 0 0
    0 5.977298 9.061852 -8.136931 0.919338 -0.302784 0.251277 0 0
  phy
    0 -5.870255 5.164053 -11.572283 -0.019713 -0.408210 0.912675 0 0
    0 4.964316 2.653604 -12.387080 0.031714 -0.209109 0.977378 0 0
    0 -5.870257 2.653616 -12.387080 -0.080053 -0.213014 0.973764 0 0
  phy
    0 -5.870255 5.164053 -11.572283 -0.019713 -0.408210 0.912675 0 0
    0 4.973282 5.164060 -11.572283 0.058974 -0.411283 0.909598 0 0
    0 4.964316 2.653604 -12.387080 0.031714 -0.209109 0.977378 0 0
  phy
    0 -5.870257 2.653616 -12.387080 -0.080053 -0.213014 0.973764 0 0
    0 4.964316 2.653604 -12.387080 0.031714 -0.209109 0.977378 0 0
    0 -5.870256 0.011025 -12.662354 -0.042373 0.003645 0.999095 0 0
  phy
    0 4.964316 2.653604 -12.387080 0.031714 -0.209109 0.977378 0 0
    0 4.970200 0.024940 -12.660905 0.075689 -0.000032 0.997131 0 0
    0 -5.870256 0.011025 -12.662354 -0.042373 0.003645 0.999095 0 0
  phy
    0 -6.718086 6.144011 -10.647380 -0.803747 -0.297798 0.515080 0 0
    0 -5.870255 5.164053 -11.572283 -0.019713 -0.408210 0.912675 0 0
    0 -5.870257 2.653616 -12.387080 -0.080053 -0.213014 0.973764 0 0
  phy
    0 -5.870257 2.653616 -12.387080 -0.080053 -0.213014 0.973764 0 0
    0 -6.718089 1.288281 -12.221920 -0.999631 -0.002836 0.027013 0 0
    0 -6.718086 6.144011 -10.647380 -0.803747 -0.297798 0.515080 0 0
  phy
    0 -5.870256 0.011025 -12.662354 -0.042373 0.003645 0.999095 0 0
    0 -6.718089 1.288281 -12.221920 -0.999631 -0.002836 0.027013 0 0
    0 -5.870257 2.653616 -12.387080 -0.080053 -0.213014 0.973764 0 0
  phy
    0 7.267736 -6.166039 5.926617 0.992548 0.066279 -0.102257 0 0
    0 5.988312 -4.932841 11.120840 0.929911 0.130833 -0.343727 0 0
    0 5.988312 -7.134977 9.843591 0.847344 0.304272 -0.435231 0 0
  phy
    0 4.980475 -7.432267 10.239978 0.059503 0.591185 -0.804338 0 0
    0 5.988312 -7.134977 9.843591 0.847344 0.304272 -0.435231 0 0
    0 4.975324 -5.142040 11.572274 0.031724 0.409249 -0.911871 0 0
  phy
    0 5.988312 -7.134977 9.843591 0.847344 0.304272 -0.435231 0 0
    0 5.988312 -4.932841 11.120840 0.929911 0.130833 -0.343727 0 0
    0 4.975324 -5.142040 11.572274 0.031724 0.409249 -0.911871 0 0
  phy
    0 4.975329 -9.403180 8.467252 0.021993 0.742582 -0.669394 0 0
    0 -5.861187 -9.403180 8.467248 -0.036389 0.742282 -0.669099 0 0
    0 -5.859253 -10.955701 6.331158 -0.054050 0.845971 -0.530483 0 0
  phy
    0 4.975329 -9.403180 8.467252 0.021993 0.742582 -0.669394 0 0
    0 -5.859253 -10.955701 6.331158 -0.054050 0.845971 -0.530483 0 0
    0 4.990713 -10.955694 6.331153 0.053209 0.879950 -0.472077 0 0
  phy
    0 -5.861187 -9.403180 8.467248 -0.036389 0.742282 -0.669099 0 0
    0 4.975329 -9.403180 8.467252 0.021993 0.742582 -0.669394 0 0
    0 -5.859242 -7.432271 10.239973 -0.018778 0.588811 -0.808053 0 0
  phy
    0 -5.859242 -7.432271 10.239973 -0.018778 0.588811 -0.808053 0 0
    0 4.975329 -9.403180 8.467252 0.021993 0.742582 -0.669394 0 0
    0 4.980475 -7.432267 10.239978 0.059503 0.591185 -0.804338 0 0
  phy
    0 4.977274 -12.034746 3.908797 0.041991 0.950156 -0.308933 0 0
    0 4.990713 -10.955694 6.331153 0.053209 0.879950 -0.472077 0 0
    0 -5.859242 -12.034744 3.908798 -0.041688 0.951262 -0.305554 0 0
  phy
    0 -5.859242 -12.034744 3.908798 -0.041688 0.951262 -0.305554 0 0
    0 4.990713 -10.955694 6.331153 0.053209 0.879950 -0.472077 0 0
    0 -5.859253 -10.955701 6.331158 -0.054050 0.845971 -0.530483 0 0
  phy
    0 -5.859242 -12.034744 3.908798 -0.041688 0.951262 -0.305554 0 0
    0 -5.859242 -12.585279 1.321267 -0.025190 0.997313 -0.068792 0 0
    0 4.975326 -12.585280 1.321260 0.053209 0.989544 -0.134056 0 0
  phy
    0 -5.859242 -12.034744 3.908798 -0.041688 0.951262 -0.305554 0 0
    0 4.975326 -12.585280 1.321260 0.053209 0.989544 -0.134056 0 0
    0 4.977274 -12.034746 3.908797 0.041991 0.950156 -0.308933 0 0
  phy
    0 7.267736 -6.166039 5.926617 0.992548 0.066279 -0.102257 0 0
    0 5.988311 -10.526277 6.088928 0.895998 0.379755 -0.230161 0 0
    0 7.265559 -7.542380 4.029910 0.978623 0.201879 -0.039268 0 0
  phy
    0 5.988312 -12.089793 1.266238 0.940755 0.338652 -0.017145 0 0
    0 7.257357 -7.533509 -4.041563 0.966590 0.249625 0.058235 0 0
    0 7.265559 -7.542380 4.029910 0.978623 0.201879 -0.039268 0 0
  phy
    0 5.977302 -11.561271 -3.765707 0.817103 0.548345 0.177933 0 0
    0 5.977301 -12.089790 -1.277261 0.870185 0.490740 0.044177 0 0
    0 4.967100 -12.574264 -1.321308 0.040553 0.996119 0.078123 0 0
  phy
    0 5.977302 -11.561271 -3.765707 0.817103 0.548345 0.177933 0 0
    0 4.967100 -12.574264 -1.321308 0.040553 0.996119 0.078123 0 0
    0 4.964311 -12.023724 -3.919841 0.028173 0.960737 0.276026 0 0
  phy
    0 5.977301 -12.089790 -1.277261 0.870185 0.490740 0.044177 0 0
    0 5.988312 -12.089793 1.266238 0.940755 0.338652 -0.017145 0 0
    0 4.975326 -12.585280 1.321260 0.053209 0.989544 -0.134056 0 0
  phy
    0 4.967100 -12.574264 -1.321308 0.040553 0.996119 0.078123 0 0
    0 5.977301 -12.089790 -1.277261 0.870185 0.490740 0.044177 0 0
    0 4.975326 -12.585280 1.321260 0.053209 0.989544 -0.134056 0 0
  phy
    0 5.977301 -12.089790 -1.277261 0.870185 0.490740 0.044177 0 0
    0 7.257357 -7.533509 -4.041563 0.966590 0.249625 0.058235 0 0
    0 5.988312 -12.089793 1.266238 0.940755 0.338652 -0.017145 0 0
  phy
    0 5.977302 -11.561271 -3.765707 0.817103 0.548345 0.177933 0 0
    0 7.257357 -7.533509 -4.041563 0.966590 0.249625 0.058235 0 0
    0 5.977301 -12.089790 -1.277261 0.870185 0.490740 0.044177 0 0
  phy
    0 5.977301 0.033049 -12.166871 0.880350 0.000666 0.474324 0 0
    0 4.970200 0.024940 -12.660905 0.075689 -0.000032 0.997131 0 0
    0 5.981212 2.543062 -11.900739 0.871865 -0.102777 0.478841 0 0
  phy
    0 4.970200 0.024940 -12.660905 0.075689 -0.000032 0.997131 0 0
    0 4.964316 2.653604 -12.387080 0.031714 -0.209109 0.977378 0 0
    0 5.981212 2.543062 -11.900739 0.871865 -0.102777 0.478841 0 0
  phy
    0 5.977301 0.033049 -12.166871 0.880350 0.000666 0.474324 0 0
    0 5.981212 2.543062 -11.900739 0.871865 -0.102777 0.478841 0 0
    0 7.254546 1.508508 -8.423223 0.997370 0.010581 0.071700 0 0
  phy
    0 5.977302 -11.561271 -3.765707 0.817103 0.548345 0.177933 0 0
    0 4.964311 -12.023724 -3.919841 0.028173 0.960737 0.276026 0 0
    0 4.964316 -10.955679 -6.331187 0.040698 0.865326 0.499555 0 0
  phy
    0 -5.870257 -12.574264 -1.321306 -0.053458 0.988473 0.141644 0 0
    0 4.967100 -12.574264 -1.321308 0.040553 0.996119 0.078123 0 0
    0 -5.859242 -12.585279 1.321267 -0.025190 0.997313 -0.068792 0 0
  phy
    0 -5.859242 -12.585279 1.321267 -0.025190 0.997313 -0.068792 0 0
    0 4.967100 -12.574264 -1.321308 0.040553 0.996119 0.078123 0 0
    0 4.975326 -12.585280 1.321260 0.053209 0.989544 -0.134056 0 0
  phy
    0 5.977298 9.061852 -8.136931 0.919338 -0.302784 0.251277 0 0
    0 7.263198 8.457232 -1.149615 0.992238 -0.113978 0.049719 0 0
    0 7.255692 3.731544 -7.693433 0.967216 -0.160775 0.196583 0 0
  phy
    0 5.977297 11.583305 -3.754639 0.848873 -0.505833 0.153453 0 0
    0 5.977299 12.111824 -1.266210 0.874457 -0.482206 0.052946 0 0
    0 7.263198 8.457232 -1.149615 0.992238 -0.113978 0.049719 0 0
  phy
    0 -5.859248 12.056758 3.919837 -0.081371 -0.945650 -0.314841 0 0
    0 -5.859252 10.977695 6.331196 -0.020063 -0.865872 -0.499863 0 0
    0 4.975319 12.056755 3.919840 0.021938 -0.950735 -0.309228 0 0
  phy
    0 -5.859252 10.977695 6.331196 -0.020063 -0.865872 -0.499863 0 0
    0 4.990167 10.977699 6.331192 0.075651 -0.863547 -0.498561 0 0
    0 4.975319 12.056755 3.919840 0.021938 -0.950735 -0.309228 0 0
  phy
    0 4.975319 12.056755 3.919840 0.021938 -0.950735 -0.309228 0 0
    0 -5.859249 12.607297 1.321318 -0.020045 -0.994324 -0.104488 0 0
    0 -5.859248 12.056758 3.919837 -0.081371 -0.945650 -0.314841 0 0
  phy
    0 4.975319 12.056755 3.919840 0.021938 -0.950735 -0.309228 0 0
    0 4.978052 12.607298 1.321313 0.059576 -0.992328 -0.108328 0 0
    0 -5.859249 12.607297 1.321318 -0.020045 -0.994324 -0.104488 0 0
  phy
    0 4.975327 9.425183 8.478277 0.041455 -0.762494 -0.645666 0 0
    0 -5.859252 9.425190 8.478287 -0.026567 -0.720502 -0.692944 0 0
    0 4.975329 7.454256 10.251017 0.021887 -0.587628 -0.808835 0 0
  phy
    0 4.975329 7.454256 10.251017 0.021887 -0.587628 -0.808835 0 0
    0 -5.859252 9.425190 8.478287 -0.026567 -0.720502 -0.692944 0 0
    0 -5.863511 7.454250 10.251015 -0.081167 -0.591184 -0.802442 0 0
  phy
    0 -5.863511 7.454250 10.251015 -0.081167 -0.591184 -0.802442 0 0
    0 -5.859248 5.164029 11.572295 -0.042931 -0.402022 -0.914623 0 0
    0 4.975329 7.454256 10.251017 0.021887 -0.587628 -0.808835 0 0
  phy
    0 4.975329 7.454256 10.251017 0.021887 -0.587628 -0.808835 0 0
    0 -5.859248 5.164029 11.572295 -0.042931 -0.402022 -0.914623 0 0
    0 4.987660 5.184625 11.560415 0.059313 -0.408929 -0.910637 0 0
  phy
    0 4.978052 12.607298 1.321313 0.059576 -0.992328 -0.108328 0 0
    0 4.964314 12.607302 -1.321266 0.041192 -0.993650 0.104708 0 0
    0 -5.859249 12.607297 1.321318 -0.020045 -0.994324 -0.104488 0 0
  phy
    0 4.964314 12.607302 -1.321266 0.041192 -0.993650 0.104708 0 0
    0 -5.870260 12.607302 -1.321271 -0.081175 -0.991938 0.097307 0 0
    0 -5.859249 12.607297 1.321318 -0.020045 -0.994324 -0.104488 0 0
  phy
    0 5.988313 4.965820 11.120859 0.872020 -0.183517 -0.453764 0 0
    0 4.987660 5.184625 11.560415 0.059313 -0.408929 -0.910637 0 0
    0 4.975324 2.642551 12.387091 0.052924 -0.237988 -0.969825 0 0
  phy
    0 5.988313 4.965820 11.120859 0.872020 -0.183517 -0.453764 0 0
    0 4.975324 2.642551 12.387091 0.052924 -0.237988 -0.969825 0 0
    0 5.988312 2.543458 11.902617 0.873934 -0.100826 -0.475473 0 0
  phy
    0 5.988312 2.543458 11.902617 0.873934 -0.100826 -0.475473 0 0
    0 4.975324 2.642551 12.387091 0.052924 -0.237988 -0.969825 0 0
    0 5.988311 0.033041 12.166872 0.847988 -0.010368 -0.529914 0 0
  phy
    0 5.988311 0.033041 12.166872 0.847988 -0.010368 -0.529914 0 0
    0 4.975324 2.642551 12.387091 0.052924 -0.237988 -0.969825 0 0
    0 4.975303 0.019327 12.663229 0.031725 0.002153 -0.999494 0 0
  phy
    0 5.988312 2.543458 11.902617 0.873934 -0.100826 -0.475473 0 0
    0 7.271648 1.515499 8.405372 0.993021 0.010690 -0.117451 0 0
    0 5.988313 4.965820 11.120859 0.872020 -0.183517 -0.453764 0 0
  phy
    0 5.988311 0.033041 12.166872 0.847988 -0.010368 -0.529914 0 0
    0 7.271648 1.515499 8.405372 0.993021 0.010690 -0.117451 0 0
    0 5.988312 2.543458 11.902617 0.873934 -0.100826 -0.475473 0 0
  phy
    0 -6.710372 9.938625 7.226581 -0.999377 -0.028235 -0.021153 0 0
    0 -6.707933 6.143660 10.646881 -0.851527 -0.261717 -0.454319 0 0
    0 -5.863511 7.454250 10.251015 -0.081167 -0.591184 -0.802442 0 0
  phy
    0 -5.863511 7.454250 10.251015 -0.081167 -0.591184 -0.802442 0 0
    0 -6.707933 6.143660 10.646881 -0.851527 -0.261717 -0.454319 0 0
    0 -5.859248 5.164029 11.572295 -0.042931 -0.402022 -0.914623 0 0
  phy
    0 -5.870262 -7.432236 -10.251010 -0.025330 0.559526 0.828426 0 0
    0 -6.718084 -8.225010 -9.138932 -0.989869 0.095087 0.105445 0 0
    0 -5.879057 -5.130988 -11.572294 -0.078115 0.410821 0.908363 0 0
  phy
    0 -6.718084 -8.225010 -9.138932 -0.989869 0.095087 0.105445 0 0
    0 -6.718086 -3.798704 -11.693409 -0.824178 0.154505 0.544848 0 0
    0 -5.879057 -5.130988 -11.572294 -0.078115 0.410821 0.908363 0 0
  phy
    0 -6.718086 -3.798704 -11.693409 -0.824178 0.154505 0.544848 0 0
    0 -5.870269 -2.620538 -12.387090 -0.025369 0.239779 0.970496 0 0
    0 -5.879057 -5.130988 -11.572294 -0.078115 0.410821 0.908363 0 0
  phy
    0 -6.718084 -12.287988 -0.000023 -0.999884 0.015176 -0.001098 0 0
    0 -6.718084 12.023738 -2.554468 -0.999717 -0.023180 0.005384 0 0
    0 -6.718089 1.288281 -12.221920 -0.999631 -0.002836 0.027013 0 0
  phy
    0 -6.718084 -12.287988 -0.000023 -0.999884 0.015176 -0.001098 0 0
    0 -6.718089 1.288281 -12.221920 -0.999631 -0.002836 0.027013 0 0
    0 -6.718084 -8.225010 -9.138932 -0.989869 0.095087 0.105445 0 0
  phy
    0 -6.718084 -12.287988 -0.000023 -0.999884 0.015176 -0.001098 0 0
    0 -6.718084 -8.225010 -9.138932 -0.989869 0.095087 0.105445 0 0
    0 -6.718084 -11.230946 -4.998894 -0.820703 0.530205 0.212907 0 0
  phy
    0 -6.718084 -8.225010 -9.138932 -0.989869 0.095087 0.105445 0 0
    0 -6.718089 1.288281 -12.221920 -0.999631 -0.002836 0.027013 0 0
    0 -6.718086 -3.798704 -11.693409 -0.824178 0.154505 0.544848 0 0
  phy
    0 -6.718089 1.288281 -12.221920 -0.999631 -0.002836 0.027013 0 0
    0 -6.718084 12.023738 -2.554468 -0.999717 -0.023180 0.005384 0 0
    0 -6.718086 9.942713 -7.223038 -0.975371 -0.178443 0.129654 0 0
  phy
    0 -6.718089 1.288281 -12.221920 -0.999631 -0.002836 0.027013 0 0
    0 -6.718086 9.942713 -7.223038 -0.975371 -0.178443 0.129654 0 0
    0 -6.718086 6.144011 -10.647380 -0.803747 -0.297798 0.515080 0 0
  phy
    0 -6.718086 6.144011 -10.647380 -0.803747 -0.297798 0.515080 0 0
    0 -6.718086 9.942713 -7.223038 -0.975371 -0.178443 0.129654 0 0
    0 -5.870255 9.425211 -8.467246 -0.080300 -0.735810 0.672410 0 0
  phy
    0 -5.870255 9.425211 -8.467246 -0.080300 -0.735810 0.672410 0 0
    0 -5.870256 7.454290 -10.239982 -0.025836 -0.614788 0.788269 0 0
    0 -6.718086 6.144011 -10.647380 -0.803747 -0.297798 0.515080 0 0
  phy
    0 -6.718086 6.144011 -10.647380 -0.803747 -0.297798 0.515080 0 0
    0 -5.870256 7.454290 -10.239982 -0.025836 -0.614788 0.788269 0 0
    0 -5.870255 5.164053 -11.572283 -0.019713 -0.408210 0.912675 0 0
  phy
    0 -5.859242 -5.142029 11.572288 -0.077955 0.412464 -0.907632 0 0
    0 -5.859242 -7.432271 10.239973 -0.018778 0.588811 -0.808053 0 0
    0 4.975324 -5.142040 11.572274 0.031724 0.409249 -0.911871 0 0
  phy
    0 4.975324 -5.142040 11.572274 0.031724 0.409249 -0.911871 0 0
    0 -5.859242 -7.432271 10.239973 -0.018778 0.588811 -0.808053 0 0
    0 4.980475 -7.432267 10.239978 0.059503 0.591185 -0.804338 0 0
  phy
    0 -5.859246 0.010985 12.662354 -0.079226 0.006749 -0.996834 0 0
    0 -5.861998 -2.620577 12.387083 -0.019277 0.206843 -0.978184 0 0
    0 4.975303 0.019327 12.663229 0.031725 0.002153 -0.999494 0 0
  phy
    0 4.975303 0.019327 12.663229 0.031725 0.002153 -0.999494 0 0
    0 -5.861998 -2.620577 12.387083 -0.019277 0.206843 -0.978184 0 0
    0 4.981500 -2.618282 12.387322 0.059221 0.210482 -0.975802 0 0
  phy
    0 -5.859242 -5.142029 11.572288 -0.077955 0.412464 -0.907632 0 0
    0 -5.861998 -2.620577 12.387083 -0.019277 0.206843 -0.978184 0 0
    0 -6.707067 -3.798725 11.693400 -0.990372 0.037936 -0.133135 0 0
  phy
    0 -5.861998 -2.620577 12.387083 -0.019277 0.206843 -0.978184 0 0
    0 -5.859242 -5.142029 11.572288 -0.077955 0.412464 -0.907632 0 0
    0 4.975324 -5.142040 11.572274 0.031724 0.409249 -0.911871 0 0
  phy
    0 4.981500 -2.618282 12.387322 0.059221 0.210482 -0.975802 0 0
    0 -5.861998 -2.620577 12.387083 -0.019277 0.206843 -0.978184 0 0
    0 4.975324 -5.142040 11.572274 0.031724 0.409249 -0.911871 0 0
  phy
    0 5.988312 -4.932841 11.120840 0.929911 0.130833 -0.343727 0 0
    0 7.271648 1.515499 8.405372 0.993021 0.010690 -0.117451 0 0
    0 5.988311 -2.521998 11.902553 0.871533 0.091642 -0.481696 0 0
  phy
    0 5.988312 -4.932841 11.120840 0.929911 0.130833 -0.343727 0 0
    0 7.267736 -6.166039 5.926617 0.992548 0.066279 -0.102257 0 0
    0 7.271648 1.515499 8.405372 0.993021 0.010690 -0.117451 0 0
  phy
    0 -6.707081 -8.225037 9.138905 -0.956980 0.194215 -0.215568 0 0
    0 -6.707078 -11.230965 4.998865 -0.846276 0.486472 -0.217169 0 0
    0 -5.859253 -10.955701 6.331158 -0.054050 0.845971 -0.530483 0 0
  phy
    0 -6.707081 -8.225037 9.138905 -0.956980 0.194215 -0.215568 0 0
    0 -5.859253 -10.955701 6.331158 -0.054050 0.845971 -0.530483 0 0
    0 -5.861187 -9.403180 8.467248 -0.036389 0.742282 -0.669099 0 0
  phy
    0 -5.859242 -5.142029 11.572288 -0.077955 0.412464 -0.907632 0 0
    0 -6.707081 -8.225037 9.138905 -0.956980 0.194215 -0.215568 0 0
    0 -5.859242 -7.432271 10.239973 -0.018778 0.588811 -0.808053 0 0
  phy
    0 -6.707081 -8.225037 9.138905 -0.956980 0.194215 -0.215568 0 0
    0 -5.859242 -5.142029 11.572288 -0.077955 0.412464 -0.907632 0 0
    0 -6.707067 -3.798725 11.693400 -0.990372 0.037936 -0.133135 0 0
  phy
    0 -6.707081 -8.225037 9.138905 -0.956980 0.194215 -0.215568 0 0
    0 -5.861187 -9.403180 8.467248 -0.036389 0.742282 -0.669099 0 0
    0 -5.859242 -7.432271 10.239973 -0.018778 0.588811 -0.808053 0 0
  phy
    0 -6.707081 -8.225037 9.138905 -0.956980 0.194215 -0.215568 0 0
    0 -6.718084 -12.287988 -0.000023 -0.999884 0.015176 -0.001098 0 0
    0 -6.707078 -11.230965 4.998865 -0.846276 0.486472 -0.217169 0 0
  phy
    0 -6.718084 -12.287988 -0.000023 -0.999884 0.015176 -0.001098 0 0
    0 -6.707081 -8.225037 9.138905 -0.956980 0.194215 -0.215568 0 0
    0 -6.707067 -3.798725 11.693400 -0.990372 0.037936 -0.133135 0 0
  phy
    0 -5.870260 12.607302 -1.321271 -0.081175 -0.991938 0.097307 0 0
    0 -6.707074 12.023727 2.554509 -0.825340 -0.555971 -0.098540 0 0
    0 -5.859249 12.607297 1.321318 -0.020045 -0.994324 -0.104488 0 0
  phy
    0 -6.707074 12.023727 2.554509 -0.825340 -0.555971 -0.098540 0 0
    0 -5.859248 12.056758 3.919837 -0.081371 -0.945650 -0.314841 0 0
    0 -5.859249 12.607297 1.321318 -0.020045 -0.994324 -0.104488 0 0
  phy
    0 -6.718084 12.023738 -2.554468 -0.999717 -0.023180 0.005384 0 0
    0 -6.710372 9.938625 7.226581 -0.999377 -0.028235 -0.021153 0 0
    0 -6.707074 12.023727 2.554509 -0.825340 -0.555971 -0.098540 0 0
  phy
    0 -6.718084 12.023738 -2.554468 -0.999717 -0.023180 0.005384 0 0
    0 -6.707074 12.023727 2.554509 -0.825340 -0.555971 -0.098540 0 0
    0 -5.870260 12.607302 -1.321271 -0.081175 -0.991938 0.097307 0 0
  phy
    0 -6.718084 12.023738 -2.554468 -0.999717 -0.023180 0.005384 0 0
    0 -5.870248 10.977724 -6.331156 -0.056582 -0.850866 0.522327 0 0
    0 -6.718086 9.942713 -7.223038 -0.975371 -0.178443 0.129654 0 0
  phy
    0 4.968099 -2.620544 -12.387088 0.028735 0.174416 0.984253 0 0
    0 -5.870256 0.011025 -12.662354 -0.042373 0.003645 0.999095 0 0
    0 4.970200 0.024940 -12.660905 0.075689 -0.000032 0.997131 0 0
  phy
    0 -6.718084 -12.287988 -0.000023 -0.999884 0.015176 -0.001098 0 0
    0 -5.870257 -12.574264 -1.321306 -0.053458 0.988473 0.141644 0 0
    0 -5.859242 -12.585279 1.321267 -0.025190 0.997313 -0.068792 0 0
  phy
    0 -5.870257 -12.574264 -1.321306 -0.053458 0.988473 0.141644 0 0
    0 -6.718084 -12.287988 -0.000023 -0.999884 0.015176 -0.001098 0 0
    0 -6.718084 -11.230946 -4.998894 -0.820703 0.530205 0.212907 0 0
  phy
    0 5.977302 -10.526265 -6.088949 0.873210 0.421954 0.243843 0 0
    0 5.977302 -11.561271 -3.765707 0.817103 0.548345 0.177933 0 0
    0 4.964316 -10.955679 -6.331187 0.040698 0.865326 0.499555 0 0
  phy
    0 5.977302 -10.526265 -6.088949 0.873210 0.421954 0.243843 0 0
    0 7.257357 -7.533509 -4.041563 0.966590 0.249625 0.058235 0 0
    0 5.977302 -11.561271 -3.765707 0.817103 0.548345 0.177933 0 0
  phy
    0 5.977298 9.061852 -8.136931 0.919338 -0.302784 0.251277 0 0
    0 4.964316 9.425206 -8.467243 0.021641 -0.742608 0.669376 0 0
    0 4.964302 10.977724 -6.331155 0.041264 -0.879544 0.474024 0 0
  phy
    0 4.964316 9.425206 -8.467243 0.021641 -0.742608 0.669376 0 0
    0 -5.870248 10.977724 -6.331156 -0.056582 -0.850866 0.522327 0 0
    0 4.964302 10.977724 -6.331155 0.041264 -0.879544 0.474024 0 0
  phy
    0 4.964316 9.425206 -8.467243 0.021641 -0.742608 0.669376 0 0
    0 -5.870255 9.425211 -8.467246 -0.080300 -0.735810 0.672410 0 0
    0 -5.870248 10.977724 -6.331156 -0.056582 -0.850866 0.522327 0 0
  phy
    0 -6.718086 9.942713 -7.223038 -0.975371 -0.178443 0.129654 0 0
    0 -5.870248 10.977724 -6.331156 -0.056582 -0.850866 0.522327 0 0
    0 -5.870255 9.425211 -8.467246 -0.080300 -0.735810 0.672410 0 0
  phy
    0 4.975327 9.425183 8.478277 0.041455 -0.762494 -0.645666 0 0
    0 -5.859252 10.977695 6.331196 -0.020063 -0.865872 -0.499863 0 0
    0 -5.859252 9.425190 8.478287 -0.026567 -0.720502 -0.692944 0 0
  phy
    0 4.975327 9.425183 8.478277 0.041455 -0.762494 -0.645666 0 0
    0 4.990167 10.977699 6.331192 0.075651 -0.863547 -0.498561 0 0
    0 -5.859252 10.977695 6.331196 -0.020063 -0.865872 -0.499863 0 0
  phy
    0 -6.710372 9.938625 7.226581 -0.999377 -0.028235 -0.021153 0 0
    0 -5.859252 9.425190 8.478287 -0.026567 -0.720502 -0.692944 0 0
    0 -5.859252 10.977695 6.331196 -0.020063 -0.865872 -0.499863 0 0
  phy
    0 -5.859252 10.977695 6.331196 -0.020063 -0.865872 -0.499863 0 0
    0 -5.859248 12.056758 3.919837 -0.081371 -0.945650 -0.314841 0 0
    0 -6.710372 9.938625 7.226581 -0.999377 -0.028235 -0.021153 0 0
  phy
    0 4.975324 -5.142040 11.572274 0.031724 0.409249 -0.911871 0 0
    0 5.988312 -4.932841 11.120840 0.929911 0.130833 -0.343727 0 0
    0 4.981500 -2.618282 12.387322 0.059221 0.210482 -0.975802 0 0
  phy
    0 4.981500 -2.618282 12.387322 0.059221 0.210482 -0.975802 0 0
    0 5.988312 -4.932841 11.120840 0.929911 0.130833 -0.343727 0 0
    0 5.988311 -2.521998 11.902553 0.871533 0.091642 -0.481696 0 0
  phy
    0 4.981500 -2.618282 12.387322 0.059221 0.210482 -0.975802 0 0
    0 5.988311 -2.521998 11.902553 0.871533 0.091642 -0.481696 0 0
    0 4.975303 0.019327 12.663229 0.031725 0.002153 -0.999494 0 0
  phy
    0 4.975303 0.019327 12.663229 0.031725 0.002153 -0.999494 0 0
    0 5.988311 -2.521998 11.902553 0.871533 0.091642 -0.481696 0 0
    0 5.988311 0.033041 12.166872 0.847988 -0.010368 -0.529914 0 0
  phy
    0 5.988311 -2.521998 11.902553 0.871533 0.091642 -0.481696 0 0
    0 7.271648 1.515499 8.405372 0.993021 0.010690 -0.117451 0 0
    0 5.988311 0.033041 12.166872 0.847988 -0.010368 -0.529914 0 0
  phy
    0 4.975324 2.642551 12.387091 0.052924 -0.237988 -0.969825 0 0
    0 -5.859247 2.642560 12.387091 -0.025900 -0.174668 -0.984287 0 0
    0 4.975303 0.019327 12.663229 0.031725 0.002153 -0.999494 0 0
  phy
    0 -5.859247 2.642560 12.387091 -0.025900 -0.174668 -0.984287 0 0
    0 -5.859246 0.010985 12.662354 -0.079226 0.006749 -0.996834 0 0
    0 4.975303 0.019327 12.663229 0.031725 0.002153 -0.999494 0 0
  phy
    0 -5.859247 2.642560 12.387091 -0.025900 -0.174668 -0.984287 0 0
    0 4.975324 2.642551 12.387091 0.052924 -0.237988 -0.969825 0 0
    0 -5.859248 5.164029 11.572295 -0.042931 -0.402022 -0.914623 0 0
  phy
    0 -6.710372 9.938625 7.226581 -0.999377 -0.028235 -0.021153 0 0
    0 -5.863511 7.454250 10.251015 -0.081167 -0.591184 -0.802442 0 0
    0 -5.859252 9.425190 8.478287 -0.026567 -0.720502 -0.692944 0 0
  phy
    0 -6.710372 9.938625 7.226581 -0.999377 -0.028235 -0.021153 0 0
    0 -5.859248 12.056758 3.919837 -0.081371 -0.945650 -0.314841 0 0
    0 -6.707074 12.023727 2.554509 -0.825340 -0.555971 -0.098540 0 0
  phy
    0 -6.718084 -12.287988 -0.000023 -0.999884 0.015176 -0.001098 0 0
    0 -5.859242 -12.034744 3.908798 -0.041688 0.951262 -0.305554 0 0
    0 -6.707078 -11.230965 4.998865 -0.846276 0.486472 -0.217169 0 0
  phy
    0 -5.859242 -12.034744 3.908798 -0.041688 0.951262 -0.305554 0 0
    0 -6.718084 -12.287988 -0.000023 -0.999884 0.015176 -0.001098 0 0
    0 -5.859242 -12.585279 1.321267 -0.025190 0.997313 -0.068792 0 0
  phy
    0 -6.707078 -11.230965 4.998865 -0.846276 0.486472 -0.217169 0 0
    0 -5.859242 -12.034744 3.908798 -0.041688 0.951262 -0.305554 0 0
    0 -5.859253 -10.955701 6.331158 -0.054050 0.845971 -0.530483 0 0
  phy
    0 4.968099 -2.620544 -12.387088 0.028735 0.174416 0.984253 0 0
    0 -5.870269 -2.620538 -12.387090 -0.025369 0.239779 0.970496 0 0
    0 -5.870256 0.011025 -12.662354 -0.042373 0.003645 0.999095 0 0
  phy
    0 -5.859248 5.164029 11.572295 -0.042931 -0.402022 -0.914623 0 0
    0 4.975324 2.642551 12.387091 0.052924 -0.237988 -0.969825 0 0
    0 4.987660 5.184625 11.560415 0.059313 -0.408929 -0.910637 0 0
  phy
    0 -5.870256 0.011025 -12.662354 -0.042373 0.003645 0.999095 0 0
    0 -5.870269 -2.620538 -12.387090 -0.025369 0.239779 0.970496 0 0
    0 -6.718086 -3.798704 -11.693409 -0.824178 0.154505 0.544848 0 0
  phy
    0 -6.718086 -3.798704 -11.693409 -0.824178 0.154505 0.544848 0 0
    0 -6.718089 1.288281 -12.221920 -0.999631 -0.002836 0.027013 0 0
    0 -5.870256 0.011025 -12.662354 -0.042373 0.003645 0.999095 0 0
end
