version 1
nodes
0 "root" -1
1 "steering_wheel" 0
end
skeleton
time 0
0  0.000000 0.000000 0.000000  0.000000 -0.000000 -1.570797
1  19.916300 17.934299 33.308498  0.000000 -0.000000 0.000000
end
triangles
policemisc
0  8.006912 8.838093 62.010284  0.001063 -0.999998 -0.001576  0.724854 0.184204 1 0 1.000000
0  12.489084 8.841877 62.632561  0.001053 -0.999998 -0.001504  0.520493 0.215546 1 0 1.000000
0  8.005238 8.837103 62.634636  0.001064 -0.999998 -0.001583  0.724854 0.215546 1 0 1.000000
policemisc
0  12.491075 8.842808 62.011780  -0.000202 -0.930346 0.366683  0.520493 0.184204 1 0 1.000000
0  12.489084 8.841877 62.632561  0.001053 -0.999998 -0.001504  0.520493 0.215546 1 0 1.000000
0  8.006912 8.838093 62.010284  0.001063 -0.999998 -0.001576  0.724854 0.184204 1 0 1.000000
policemisc
0  7.373906 15.860840 62.767487  0.001064 0.999677 0.025397  0.724854 0.215546 1 0 1.000000
0  11.857697 15.856127 62.765221  0.001057 0.999676 0.025445  0.520493 0.215546 1 0 1.000000
0  7.375525 15.876694 62.143410  0.001063 0.999677 0.025402  0.724854 0.184204 1 0 1.000000
policemisc
0  11.859690 15.871920 62.144737  0.000597 0.920333 0.391134  0.520493 0.184204 1 0 1.000000
0  7.375525 15.876694 62.143410  0.001063 0.999677 0.025402  0.724854 0.184204 1 0 1.000000
0  11.857697 15.856127 62.765221  0.001057 0.999676 0.025445  0.520493 0.215546 1 0 1.000000
policemisc
0  1.060273 15.860840 62.767487  0.001064 0.999677 0.025397  0.724854 0.215546 1 0 1.000000
0  5.544061 15.856123 62.765221  0.001057 0.999676 0.025450  0.520493 0.215546 1 0 1.000000
0  1.061890 15.876694 62.143410  0.001064 0.999677 0.025402  0.724854 0.184204 1 0 1.000000
policemisc
0  5.546056 15.871920 62.144737  0.000596 0.920331 0.391139  0.520493 0.184204 1 0 1.000000
0  1.061890 15.876694 62.143410  0.001064 0.999677 0.025402  0.724854 0.184204 1 0 1.000000
0  5.544061 15.856123 62.765221  0.001057 0.999676 0.025450  0.520493 0.215546 1 0 1.000000
policemisc
0  -0.748217 15.860840 62.767487  -0.001064 0.999677 0.025397  0.724854 0.215546 1 0 1.000000
0  -0.749835 15.876694 62.143410  -0.001064 0.999677 0.025402  0.724854 0.184204 1 0 1.000000
0  -5.232004 15.856123 62.765221  -0.001058 0.999676 0.025445  0.520493 0.215546 1 0 1.000000
policemisc
0  -5.232004 15.856123 62.765221  -0.001058 0.999676 0.025445  0.520493 0.215546 1 0 1.000000
0  -0.749835 15.876694 62.143410  -0.001064 0.999677 0.025402  0.724854 0.184204 1 0 1.000000
0  -5.233998 15.871916 62.144737  0.000197 0.920334 0.391132  0.520493 0.184204 1 0 1.000000
policemisc
0  -7.061800 15.860836 62.767487  -0.001064 0.999677 0.025408  0.724854 0.215546 1 0 1.000000
0  -7.063470 15.876694 62.143410  -0.001064 0.999677 0.025412  0.724854 0.184204 1 0 1.000000
0  -11.545639 15.856119 62.765221  -0.001058 0.999676 0.025450  0.520493 0.215546 1 0 1.000000
policemisc
0  -11.545639 15.856119 62.765221  -0.001058 0.999676 0.025450  0.520493 0.215546 1 0 1.000000
0  -7.063470 15.876694 62.143410  -0.001064 0.999677 0.025412  0.724854 0.184204 1 0 1.000000
0  -11.547635 15.871916 62.144737  0.000199 0.920332 0.391137  0.520493 0.184204 1 0 1.000000
policemisc
0  1.272356 8.838085 62.009415  0.001063 -0.999998 -0.001571  0.724854 0.184204 1 0 1.000000
0  5.754525 8.841869 62.631691  0.001053 -0.999998 -0.001506  0.520493 0.215546 1 0 1.000000
0  1.270737 8.837097 62.633766  0.001064 -0.999998 -0.001578  0.724854 0.215546 1 0 1.000000
policemisc
0  5.756521 8.842802 62.010910  -0.000205 -0.930347 0.366680  0.520493 0.184204 1 0 1.000000
0  5.754525 8.841869 62.631691  0.001053 -0.999998 -0.001506  0.520493 0.215546 1 0 1.000000
0  1.272356 8.838085 62.009415  0.001063 -0.999998 -0.001571  0.724854 0.184204 1 0 1.000000
policemisc
0  -0.960289 8.838085 62.009415  -0.001062 -0.999998 -0.001576  0.724854 0.184204 1 0 1.000000
0  -0.958671 8.837097 62.633766  -0.001063 -0.999998 -0.001583  0.724854 0.215546 1 0 1.000000
0  -5.442461 8.841866 62.631691  -0.001053 -0.999998 -0.001504  0.520493 0.215546 1 0 1.000000
policemisc
0  -5.442461 8.841866 62.631691  -0.001053 -0.999998 -0.001504  0.520493 0.215546 1 0 1.000000
0  -5.444456 8.842798 62.010910  -0.000591 -0.930345 0.366684  0.520493 0.184204 1 0 1.000000
0  -0.960289 8.838085 62.009415  -0.001062 -0.999998 -0.001576  0.724854 0.184204 1 0 1.000000
policemisc
0  -7.694844 8.838089 62.010284  -0.001062 -0.999998 -0.001573  0.724854 0.184204 1 0 1.000000
0  -7.693174 8.837101 62.634636  -0.001063 -0.999998 -0.001581  0.724854 0.215546 1 0 1.000000
0  -12.176961 8.841869 62.632561  -0.001052 -0.999998 -0.001499  0.520493 0.215546 1 0 1.000000
policemisc
0  -12.176961 8.841869 62.632561  -0.001052 -0.999998 -0.001499  0.520493 0.215546 1 0 1.000000
0  -12.179015 8.842798 62.011780  -0.000608 -0.930343 0.366689  0.520493 0.184204 1 0 1.000000
0  -7.694844 8.838089 62.010284  -0.001062 -0.999998 -0.001573  0.724854 0.184204 1 0 1.000000
end
