version 1
nodes
0 "root" -1
1 "steering_wheel" 0
end
skeleton
time 0
0  0.000000 0.000000 0.000000  0.000000 -0.000000 -1.570797
1  19.916300 17.934299 33.308498  0.000000 -0.000000 0.000000
end
triangles
driver
0  27.975328 -0.909887 21.927582  0.999124 0.038958 -0.015274  0.585938 0.050781 1 0 1.000000
0  25.306231 -5.990600 24.028675  0.734426 -0.401307 0.547331  0.580078 0.175781 1 0 1.000000
0  27.911467 -3.090052 19.739643  0.997972 -0.063217 0.007406  0.521484 0.050781 1 0 1.000000
driver
0  6.861440 -5.041174 31.620682  -0.621132 0.295168 -0.725996  0.744141 0.738281 1 0 1.000000
0  10.202198 -0.181164 31.549442  -0.826589 -0.010384 -0.562709  0.984375 0.691406 1 0 1.000000
0  10.654733 -5.977624 31.308937  0.583183 -0.225147 -0.780517  0.744141 0.687500 1 0 1.000000
driver
0  10.202198 -0.181164 31.549442  -0.826589 -0.010384 -0.562709  0.984375 0.691406 1 0 1.000000
0  6.861440 -5.041174 31.620682  -0.621132 0.295168 -0.725996  0.744141 0.738281 1 0 1.000000
0  11.130056 7.076607 33.734940  -0.649941 0.659904 -0.376965  0.960938 0.738281 1 0 1.000000
driver
0  13.857281 -2.969154 34.793064  0.232382 -0.956612 0.175762  0.990234 0.671875 1 0 1.000000
0  10.637000 -6.890076 35.843201  0.942299 -0.136622 0.305626  0.742188 0.632812 1 0 1.000000
0  10.654733 -5.977624 31.308937  0.583183 -0.225147 -0.780517  0.744141 0.687500 1 0 1.000000
driver
0  8.807960 6.992611 38.400238  -0.862948 0.446178 0.237162  0.988281 0.501953 1 0 1.000000
0  11.130056 7.076607 33.734940  -0.649941 0.659904 -0.376965  0.960938 0.414062 1 0 1.000000
0  6.861440 -5.041174 31.620682  -0.621132 0.295168 -0.725996  0.744141 0.414062 1 0 1.000000
driver
0  6.861440 -5.041174 31.620682  -0.621132 0.295168 -0.725996  0.744141 0.414062 1 0 1.000000
0  5.203799 -5.258257 35.192486  -0.992968 0.070636 0.095003  0.744141 0.501953 1 0 1.000000
0  8.807960 6.992611 38.400238  -0.862948 0.446178 0.237162  0.988281 0.501953 1 0 1.000000
driver
0  8.156940 -6.782740 38.598633  -0.425935 -0.063331 0.902535  0.744141 0.576172 1 0 1.000000
0  8.807960 6.992611 38.400238  -0.862948 0.446178 0.237162  0.988281 0.501953 1 0 1.000000
0  5.203799 -5.258257 35.192486  -0.992968 0.070636 0.095003  0.744141 0.501953 1 0 1.000000
driver
0  8.807960 6.992611 38.400238  -0.862948 0.446178 0.237162  0.988281 0.501953 1 0 1.000000
0  8.156940 -6.782740 38.598633  -0.425935 -0.063331 0.902535  0.744141 0.576172 1 0 1.000000
0  10.927752 4.580330 41.245468  -0.417708 0.077150 0.905300  0.982422 0.576172 1 0 1.000000
driver
0  8.156940 -6.782740 38.598633  -0.425935 -0.063331 0.902535  0.744141 0.576172 1 0 1.000000
0  12.332540 -0.299746 41.320358  0.149502 -0.535806 0.831000  0.958984 0.628906 1 0 1.000000
0  10.927752 4.580330 41.245468  -0.417708 0.077150 0.905300  0.982422 0.576172 1 0 1.000000
driver
0  12.332540 -0.299746 41.320358  0.149502 -0.535806 0.831000  0.958984 0.628906 1 0 1.000000
0  8.156940 -6.782740 38.598633  -0.425935 -0.063331 0.902535  0.744141 0.576172 1 0 1.000000
0  10.637000 -6.890076 35.843201  0.942299 -0.136622 0.305626  0.742188 0.632812 1 0 1.000000
driver
0  10.637000 -6.890076 35.843201  0.942299 -0.136622 0.305626  0.742188 0.632812 1 0 1.000000
0  13.857281 -2.969154 34.793064  0.232382 -0.956612 0.175762  0.876953 0.748047 1 0 1.000000
0  12.332540 -0.299746 41.320358  0.149502 -0.535806 0.831000  0.958984 0.628906 1 0 1.000000
driver
0  9.561470 -5.142443 32.461258  0.450328 -0.082897 -0.889007  0.738281 0.687500 1 0 1.000000
0  6.624203 -6.646008 32.457100  -0.468779 -0.150798 -0.870348  0.708984 0.738281 1 0 1.000000
0  6.976869 -5.134998 32.711407  -0.666485 0.174157 -0.724891  0.738281 0.738281 1 0 1.000000
driver
0  9.561470 -5.142443 32.461258  0.450328 -0.082897 -0.889007  0.738281 0.687500 1 0 1.000000
0  10.675234 -18.138260 37.410751  -0.275106 -0.446710 -0.851332  0.490234 0.738281 1 0 1.000000
0  6.624203 -6.646008 32.457100  -0.468779 -0.150798 -0.870348  0.708984 0.738281 1 0 1.000000
driver
0  9.561470 -5.142443 32.461258  0.450328 -0.082897 -0.889007  0.738281 0.687500 1 0 1.000000
0  12.682635 -17.120979 38.979939  0.923500 0.238949 0.300084  0.492188 0.628906 1 0 1.000000
0  10.675234 -18.138260 37.410751  -0.275106 -0.446710 -0.851332  0.490234 0.738281 1 0 1.000000
driver
0  9.561470 -5.142443 32.461258  0.450328 -0.082897 -0.889007  0.738281 0.687500 1 0 1.000000
0  10.637000 -6.890076 35.843201  0.942299 -0.136622 0.305626  0.742188 0.632812 1 0 1.000000
0  12.682635 -17.120979 38.979939  0.923500 0.238949 0.300084  0.492188 0.628906 1 0 1.000000
driver
0  10.637000 -6.890076 35.843201  0.942299 -0.136622 0.305626  0.742188 0.632812 1 0 1.000000
0  11.374894 -16.458557 40.257019  0.166293 0.412951 0.895443  0.492188 0.576172 1 0 1.000000
0  12.682635 -17.120979 38.979939  0.923500 0.238949 0.300084  0.492188 0.628906 1 0 1.000000
driver
0  11.374894 -16.458557 40.257019  0.166293 0.412951 0.895443  0.492188 0.576172 1 0 1.000000
0  10.637000 -6.890076 35.843201  0.942299 -0.136622 0.305626  0.742188 0.632812 1 0 1.000000
0  8.156940 -6.782740 38.598633  -0.425935 -0.063331 0.902535  0.744141 0.576172 1 0 1.000000
driver
0  9.182084 -17.452953 38.593788  -0.962452 -0.026299 0.270174  0.492188 0.501953 1 0 1.000000
0  11.374894 -16.458557 40.257019  0.166293 0.412951 0.895443  0.492188 0.576172 1 0 1.000000
0  8.156940 -6.782740 38.598633  -0.425935 -0.063331 0.902535  0.744141 0.576172 1 0 1.000000
driver
0  8.156940 -6.782740 38.598633  -0.425935 -0.063331 0.902535  0.744141 0.576172 1 0 1.000000
0  5.401900 -7.168866 34.882557  -0.969533 -0.222975 -0.101430  0.712891 0.501953 1 0 1.000000
0  9.182084 -17.452953 38.593788  -0.962452 -0.026299 0.270174  0.492188 0.501953 1 0 1.000000
driver
0  5.401900 -7.168866 34.882557  -0.969533 -0.222975 -0.101430  0.712891 0.501953 1 0 1.000000
0  10.675234 -18.138260 37.410751  -0.275106 -0.446710 -0.851332  0.492188 0.406250 1 0 1.000000
0  9.182084 -17.452953 38.593788  -0.962452 -0.026299 0.270174  0.492188 0.501953 1 0 1.000000
driver
0  10.675234 -18.138260 37.410751  -0.275106 -0.446710 -0.851332  0.492188 0.406250 1 0 1.000000
0  5.401900 -7.168866 34.882557  -0.969533 -0.222975 -0.101430  0.712891 0.501953 1 0 1.000000
0  6.624203 -6.646008 32.457100  -0.468779 -0.150798 -0.870348  0.703125 0.406250 1 0 1.000000
driver
0  5.401900 -7.168866 34.882557  -0.969533 -0.222975 -0.101430  0.712891 0.501953 1 0 1.000000
0  6.976869 -5.134998 32.711407  -0.666485 0.174157 -0.724891  0.738281 0.406250 1 0 1.000000
0  6.624203 -6.646008 32.457100  -0.468779 -0.150798 -0.870348  0.703125 0.406250 1 0 1.000000
driver
0  6.976869 -5.134998 32.711407  -0.666485 0.174157 -0.724891  0.738281 0.406250 1 0 1.000000
0  5.401900 -7.168866 34.882557  -0.969533 -0.222975 -0.101430  0.712891 0.501953 1 0 1.000000
0  5.203799 -5.258257 35.192486  -0.992968 0.070636 0.095003  0.738281 0.501953 1 0 1.000000
driver
0  5.401900 -7.168866 34.882557  -0.969533 -0.222975 -0.101430  0.712891 0.501953 1 0 1.000000
0  8.156940 -6.782740 38.598633  -0.425935 -0.063331 0.902535  0.744141 0.576172 1 0 1.000000
0  5.203799 -5.258257 35.192486  -0.992968 0.070636 0.095003  0.738281 0.501953 1 0 1.000000
driver
0  18.851248 7.939917 41.795849  0.000011 0.890492 0.454998  0.441406 0.378906 1 0 1.000000
0  12.705989 8.331131 40.969017  -0.277883 0.799290 0.532838  0.431641 0.515625 1 0 1.000000
0  16.307821 5.736206 42.181309  -0.739342 0.406698 0.536628  0.441406 0.425781 1 0 1.000000
driver
0  21.394670 5.736198 42.181316  0.739362 0.406652 0.536635  0.441406 0.425781 1 0 1.000000
0  24.996500 8.331131 40.969028  0.277871 0.799291 0.532842  0.431641 0.515625 1 0 1.000000
0  18.851248 7.939917 41.795849  0.000011 0.890492 0.454998  0.441406 0.378906 1 0 1.000000
driver
0  8.807960 6.992611 38.400238  -0.862948 0.446178 0.237162  0.410156 0.611328 1 0 1.000000
0  10.927752 4.580330 41.245468  -0.417708 0.077150 0.905300  0.468750 0.527344 1 0 1.000000
0  12.705989 8.331131 40.969017  -0.277883 0.799290 0.532838  0.431641 0.515625 1 0 1.000000
driver
0  16.307821 5.736206 42.181309  -0.739342 0.406698 0.536628  0.468750 0.458984 1 0 1.000000
0  12.705989 8.331131 40.969017  -0.277883 0.799290 0.532838  0.431641 0.515625 1 0 1.000000
0  10.927752 4.580330 41.245468  -0.417708 0.077150 0.905300  0.468750 0.527344 1 0 1.000000
driver
0  24.996500 8.331131 40.969028  0.277871 0.799291 0.532842  0.431641 0.515625 1 0 1.000000
0  26.774740 4.580332 41.245476  0.417708 0.077150 0.905300  0.468750 0.527344 1 0 1.000000
0  28.894531 6.992615 38.400242  0.862947 0.446179 0.237163  0.410156 0.611328 1 0 1.000000
driver
0  26.774740 4.580332 41.245476  0.417708 0.077150 0.905300  0.468750 0.527344 1 0 1.000000
0  24.996500 8.331131 40.969028  0.277871 0.799291 0.532842  0.431641 0.515625 1 0 1.000000
0  21.394670 5.736198 42.181316  0.739362 0.406652 0.536635  0.468750 0.458984 1 0 1.000000
driver
0  28.894531 6.992615 38.400242  0.862947 0.446179 0.237163  0.410156 0.611328 1 0 1.000000
0  26.572435 7.076607 33.734936  0.649933 0.659917 -0.376959  0.316406 0.505859 1 0 1.000000
0  24.996500 8.331131 40.969028  0.277871 0.799291 0.532842  0.425781 0.511719 1 0 1.000000
driver
0  26.572435 7.076607 33.734936  0.649933 0.659917 -0.376959  0.316406 0.505859 1 0 1.000000
0  18.851246 8.563335 34.067905  -0.000004 0.999690 -0.024914  0.306641 0.378906 1 0 1.000000
0  24.996500 8.331131 40.969028  0.277871 0.799291 0.532842  0.425781 0.511719 1 0 1.000000
driver
0  18.851248 7.939917 41.795849  0.000011 0.890492 0.454998  0.380859 0.378906 1 0 1.000000
0  24.996500 8.331131 40.969028  0.277871 0.799291 0.532842  0.425781 0.511719 1 0 1.000000
0  18.851246 8.563335 34.067905  -0.000004 0.999690 -0.024914  0.306641 0.378906 1 0 1.000000
driver
0  18.851246 8.563335 34.067905  -0.000004 0.999690 -0.024914  0.306641 0.378906 1 0 1.000000
0  12.705989 8.331131 40.969017  -0.277883 0.799290 0.532838  0.425781 0.511719 1 0 1.000000
0  18.851248 7.939917 41.795849  0.000011 0.890492 0.454998  0.380859 0.378906 1 0 1.000000
driver
0  12.705989 8.331131 40.969017  -0.277883 0.799290 0.532838  0.425781 0.511719 1 0 1.000000
0  18.851246 8.563335 34.067905  -0.000004 0.999690 -0.024914  0.306641 0.378906 1 0 1.000000
0  11.130056 7.076607 33.734940  -0.649941 0.659904 -0.376965  0.316406 0.505859 1 0 1.000000
driver
0  12.705989 8.331131 40.969017  -0.277883 0.799290 0.532838  0.425781 0.511719 1 0 1.000000
0  11.130056 7.076607 33.734940  -0.649941 0.659904 -0.376965  0.316406 0.505859 1 0 1.000000
0  8.807960 6.992611 38.400238  -0.862948 0.446178 0.237162  0.410156 0.611328 1 0 1.000000
driver
0  12.352203 4.516062 18.155954  -0.947651 0.301013 -0.106531  0.107422 0.521484 1 0 1.000000
0  10.202198 -0.181164 31.549442  -0.826589 -0.010384 -0.562709  0.404297 0.683594 1 0 1.000000
0  11.130056 7.076607 33.734940  -0.649941 0.659904 -0.376965  0.316406 0.505859 1 0 1.000000
driver
0  10.202198 -0.181164 31.549442  -0.826589 -0.010384 -0.562709  0.404297 0.683594 1 0 1.000000
0  12.352203 4.516062 18.155954  -0.947651 0.301013 -0.106531  0.107422 0.521484 1 0 1.000000
0  9.727228 -0.909887 21.927584  -0.999124 0.038955 -0.015262  0.103516 0.683594 1 0 1.000000
driver
0  26.572435 7.076607 33.734936  0.649933 0.659917 -0.376959  0.316406 0.505859 1 0 1.000000
0  27.500359 -0.181162 31.549446  0.826583 -0.010415 -0.562719  0.404297 0.683594 1 0 1.000000
0  25.350286 4.516064 18.155952  0.947639 0.301052 -0.106528  0.107422 0.521484 1 0 1.000000
driver
0  27.975328 -0.909887 21.927582  0.999124 0.038958 -0.015274  0.103516 0.683594 1 0 1.000000
0  25.350286 4.516064 18.155952  0.947639 0.301052 -0.106528  0.107422 0.521484 1 0 1.000000
0  27.500359 -0.181162 31.549446  0.826583 -0.010415 -0.562719  0.404297 0.683594 1 0 1.000000
driver
0  12.438077 1.003269 13.181007  -0.942918 0.154585 -0.294973  0.000000 0.521484 1 0 1.000000
0  9.727228 -0.909887 21.927584  -0.999124 0.038955 -0.015262  0.076172 0.683594 1 0 1.000000
0  12.352203 4.516062 18.155954  -0.947651 0.301013 -0.106531  0.109375 0.519531 1 0 1.000000
driver
0  9.727228 -0.909887 21.927584  -0.999124 0.038955 -0.015262  0.076172 0.683594 1 0 1.000000
0  12.438077 1.003269 13.181007  -0.942918 0.154585 -0.294973  0.000000 0.521484 1 0 1.000000
0  9.791022 -3.090054 19.739645  -0.997971 -0.063234 0.007403  0.000000 0.683594 1 0 1.000000
driver
0  16.162018 3.499504 43.883923  -0.941501 -0.235973 -0.240610  0.376953 0.191406 1 0 1.000000
0  17.592112 -0.161922 43.501835  -0.516896 -0.601068 -0.609537  0.400391 0.052734 1 0 1.000000
0  15.798347 1.120916 47.357391  -0.846712 -0.510232 -0.150805  0.259766 0.126953 1 0 1.000000
driver
0  16.162018 3.499504 43.883923  -0.941501 -0.235973 -0.240610  0.376953 0.191406 1 0 1.000000
0  18.851248 2.133678 42.974606  -0.000030 -0.802431 -0.596744  0.435547 0.009766 1 0 1.000000
0  17.592112 -0.161922 43.501835  -0.516896 -0.601068 -0.609537  0.400391 0.052734 1 0 1.000000
driver
0  18.851248 -0.329395 43.401741  0.000004 -0.705759 -0.708452  0.410156 0.009766 1 0 1.000000
0  17.592112 -0.161922 43.501835  -0.516896 -0.601068 -0.609537  0.400391 0.052734 1 0 1.000000
0  18.851248 2.133678 42.974606  -0.000030 -0.802431 -0.596744  0.435547 0.009766 1 0 1.000000
driver
0  18.851248 -0.329395 43.401741  0.000004 -0.705759 -0.708452  0.410156 0.009766 1 0 1.000000
0  18.851248 -0.855135 46.431015  0.000002 -0.955407 -0.295292  0.269531 0.009766 1 0 1.000000
0  17.592112 -0.161922 43.501835  -0.516896 -0.601068 -0.609537  0.400391 0.052734 1 0 1.000000
driver
0  18.851248 -0.855135 46.431015  0.000002 -0.955407 -0.295292  0.269531 0.009766 1 0 1.000000
0  15.798347 1.120916 47.357391  -0.846712 -0.510232 -0.150805  0.259766 0.126953 1 0 1.000000
0  17.592112 -0.161922 43.501835  -0.516896 -0.601068 -0.609537  0.400391 0.052734 1 0 1.000000
driver
0  18.851248 -1.582237 47.128075  0.000001 -0.991104 -0.133092  0.244141 0.009766 1 0 1.000000
0  15.798347 1.120916 47.357391  -0.846712 -0.510232 -0.150805  0.259766 0.126953 1 0 1.000000
0  18.851248 -0.855135 46.431015  0.000002 -0.955407 -0.295292  0.269531 0.009766 1 0 1.000000
driver
0  18.851248 -1.582237 47.128075  0.000001 -0.991104 -0.133092  0.244141 0.009766 1 0 1.000000
0  18.851248 -0.418846 48.997562  -0.000006 -0.985903 0.167318  0.187500 0.009766 1 0 1.000000
0  15.798347 1.120916 47.357391  -0.846712 -0.510232 -0.150805  0.259766 0.126953 1 0 1.000000
driver
0  21.904146 1.120918 47.357399  0.846712 -0.510233 -0.150804  0.259766 0.126953 1 0 1.000000
0  18.851248 -0.418846 48.997562  -0.000006 -0.985903 0.167318  0.187500 0.009766 1 0 1.000000
0  18.851248 -1.582237 47.128075  0.000001 -0.991104 -0.133092  0.244141 0.009766 1 0 1.000000
driver
0  21.904146 1.120918 47.357399  0.846712 -0.510233 -0.150804  0.259766 0.126953 1 0 1.000000
0  21.866926 0.680943 49.372498  0.686341 -0.721145 0.094264  0.169922 0.121094 1 0 1.000000
0  18.851248 -0.418846 48.997562  -0.000006 -0.985903 0.167318  0.187500 0.009766 1 0 1.000000
driver
0  18.851248 0.486912 53.367172  -0.000002 -0.833518 0.552492  0.019531 0.009766 1 0 1.000000
0  18.851248 -0.418846 48.997562  -0.000006 -0.985903 0.167318  0.187500 0.009766 1 0 1.000000
0  21.866926 0.680943 49.372498  0.686341 -0.721145 0.094264  0.169922 0.121094 1 0 1.000000
driver
0  15.835567 0.680943 49.372486  -0.686342 -0.721144 0.094265  0.169922 0.121094 1 0 1.000000
0  18.851248 -0.418846 48.997562  -0.000006 -0.985903 0.167318  0.187500 0.009766 1 0 1.000000
0  18.851248 0.486912 53.367172  -0.000002 -0.833518 0.552492  0.019531 0.009766 1 0 1.000000
driver
0  18.851248 -0.418846 48.997562  -0.000006 -0.985903 0.167318  0.187500 0.009766 1 0 1.000000
0  15.835567 0.680943 49.372486  -0.686342 -0.721144 0.094265  0.169922 0.121094 1 0 1.000000
0  15.798347 1.120916 47.357391  -0.846712 -0.510232 -0.150805  0.259766 0.126953 1 0 1.000000
driver
0  18.851248 -0.855135 46.431015  0.000002 -0.955407 -0.295292  0.269531 0.009766 1 0 1.000000
0  21.904146 1.120918 47.357399  0.846712 -0.510233 -0.150804  0.259766 0.126953 1 0 1.000000
0  18.851248 -1.582237 47.128075  0.000001 -0.991104 -0.133092  0.244141 0.009766 1 0 1.000000
driver
0  20.110382 -0.161919 43.501842  0.516898 -0.601068 -0.609536  0.400391 0.052734 1 0 1.000000
0  21.904146 1.120918 47.357399  0.846712 -0.510233 -0.150804  0.259766 0.126953 1 0 1.000000
0  18.851248 -0.855135 46.431015  0.000002 -0.955407 -0.295292  0.269531 0.009766 1 0 1.000000
driver
0  20.110382 -0.161919 43.501842  0.516898 -0.601068 -0.609536  0.400391 0.052734 1 0 1.000000
0  18.851248 -0.855135 46.431015  0.000002 -0.955407 -0.295292  0.269531 0.009766 1 0 1.000000
0  18.851248 -0.329395 43.401741  0.000004 -0.705759 -0.708452  0.410156 0.009766 1 0 1.000000
driver
0  16.162018 3.499504 43.883923  -0.941501 -0.235973 -0.240610  0.376953 0.191406 1 0 1.000000
0  16.418991 2.896389 42.324322  -0.361426 -0.525970 0.769888  0.453125 0.177734 1 0 1.000000
0  18.851248 2.133678 42.974606  -0.000030 -0.802431 -0.596744  0.435547 0.009766 1 0 1.000000
driver
0  16.162018 3.499504 43.883923  -0.941501 -0.235973 -0.240610  0.376953 0.191406 1 0 1.000000
0  16.307821 5.736206 42.181309  -0.739342 0.406698 0.536628  0.453125 0.285156 1 0 1.000000
0  16.418991 2.896389 42.324322  -0.361426 -0.525970 0.769888  0.453125 0.177734 1 0 1.000000
driver
0  16.307821 5.736206 42.181309  -0.739342 0.406698 0.536628  0.453125 0.285156 1 0 1.000000
0  16.162018 3.499504 43.883923  -0.941501 -0.235973 -0.240610  0.376953 0.191406 1 0 1.000000
0  16.299433 5.887043 45.019722  -0.918151 0.345099 -0.194692  0.343750 0.294922 1 0 1.000000
driver
0  15.798347 1.120916 47.357391  -0.846712 -0.510232 -0.150805  0.259766 0.126953 1 0 1.000000
0  16.299433 5.887043 45.019722  -0.918151 0.345099 -0.194692  0.343750 0.294922 1 0 1.000000
0  16.162018 3.499504 43.883923  -0.941501 -0.235973 -0.240610  0.376953 0.191406 1 0 1.000000
driver
0  16.299433 5.887043 45.019722  -0.918151 0.345099 -0.194692  0.343750 0.294922 1 0 1.000000
0  15.798347 1.120916 47.357391  -0.846712 -0.510232 -0.150805  0.259766 0.126953 1 0 1.000000
0  15.038792 4.612144 48.941315  -0.998964 -0.003046 -0.045410  0.179688 0.246094 1 0 1.000000
driver
0  15.835567 0.680943 49.372486  -0.686342 -0.721144 0.094265  0.169922 0.121094 1 0 1.000000
0  15.038792 4.612144 48.941315  -0.998964 -0.003046 -0.045410  0.179688 0.246094 1 0 1.000000
0  15.798347 1.120916 47.357391  -0.846712 -0.510232 -0.150805  0.259766 0.126953 1 0 1.000000
driver
0  16.515503 1.330772 53.052437  -0.717470 -0.359350 0.596745  0.031250 0.125000 1 0 1.000000
0  15.038792 4.612144 48.941315  -0.998964 -0.003046 -0.045410  0.179688 0.246094 1 0 1.000000
0  15.835567 0.680943 49.372486  -0.686342 -0.721144 0.094265  0.169922 0.121094 1 0 1.000000
driver
0  16.515503 1.330772 53.052437  -0.717470 -0.359350 0.596745  0.031250 0.125000 1 0 1.000000
0  15.835567 0.680943 49.372486  -0.686342 -0.721144 0.094265  0.169922 0.121094 1 0 1.000000
0  18.851248 0.486912 53.367172  -0.000002 -0.833518 0.552492  0.019531 0.009766 1 0 1.000000
driver
0  18.851248 3.488647 54.099209  -0.000001 -0.040685 0.999172  0.007812 0.009766 1 0 1.000000
0  16.515503 1.330772 53.052437  -0.717470 -0.359350 0.596745  0.031250 0.125000 1 0 1.000000
0  18.851248 0.486912 53.367172  -0.000002 -0.833518 0.552492  0.019531 0.009766 1 0 1.000000
driver
0  18.851248 0.486912 53.367172  -0.000002 -0.833518 0.552492  0.019531 0.009766 1 0 1.000000
0  21.186991 1.330772 53.052444  0.717471 -0.359352 0.596742  0.031250 0.125000 1 0 1.000000
0  18.851248 3.488647 54.099209  -0.000001 -0.040685 0.999172  0.007812 0.009766 1 0 1.000000
driver
0  18.851248 0.486912 53.367172  -0.000002 -0.833518 0.552492  0.019531 0.009766 1 0 1.000000
0  21.866926 0.680943 49.372498  0.686341 -0.721145 0.094264  0.169922 0.121094 1 0 1.000000
0  21.186991 1.330772 53.052444  0.717471 -0.359352 0.596742  0.031250 0.125000 1 0 1.000000
driver
0  21.866926 0.680943 49.372498  0.686341 -0.721145 0.094264  0.169922 0.121094 1 0 1.000000
0  22.663702 4.612146 48.941322  0.998964 -0.003049 -0.045411  0.179688 0.246094 1 0 1.000000
0  21.186991 1.330772 53.052444  0.717471 -0.359352 0.596742  0.031250 0.125000 1 0 1.000000
driver
0  21.904146 1.120918 47.357399  0.846712 -0.510233 -0.150804  0.259766 0.126953 1 0 1.000000
0  22.663702 4.612146 48.941322  0.998964 -0.003049 -0.045411  0.179688 0.246094 1 0 1.000000
0  21.866926 0.680943 49.372498  0.686341 -0.721145 0.094264  0.169922 0.121094 1 0 1.000000
driver
0  22.663702 4.612146 48.941322  0.998964 -0.003049 -0.045411  0.179688 0.246094 1 0 1.000000
0  21.904146 1.120918 47.357399  0.846712 -0.510233 -0.150804  0.259766 0.126953 1 0 1.000000
0  21.403061 5.887035 45.019726  0.918151 0.345098 -0.194698  0.343750 0.294922 1 0 1.000000
driver
0  21.540478 3.499506 43.883934  0.941501 -0.235972 -0.240610  0.376953 0.191406 1 0 1.000000
0  21.403061 5.887035 45.019726  0.918151 0.345098 -0.194698  0.343750 0.294922 1 0 1.000000
0  21.904146 1.120918 47.357399  0.846712 -0.510233 -0.150804  0.259766 0.126953 1 0 1.000000
driver
0  21.904146 1.120918 47.357399  0.846712 -0.510233 -0.150804  0.259766 0.126953 1 0 1.000000
0  20.110382 -0.161919 43.501842  0.516898 -0.601068 -0.609536  0.400391 0.052734 1 0 1.000000
0  21.540478 3.499506 43.883934  0.941501 -0.235972 -0.240610  0.376953 0.191406 1 0 1.000000
driver
0  20.110382 -0.161919 43.501842  0.516898 -0.601068 -0.609536  0.400391 0.052734 1 0 1.000000
0  18.851248 2.133678 42.974606  -0.000030 -0.802431 -0.596744  0.435547 0.009766 1 0 1.000000
0  21.540478 3.499506 43.883934  0.941501 -0.235972 -0.240610  0.376953 0.191406 1 0 1.000000
driver
0  18.851248 2.133678 42.974606  -0.000030 -0.802431 -0.596744  0.435547 0.009766 1 0 1.000000
0  20.110382 -0.161919 43.501842  0.516898 -0.601068 -0.609536  0.400391 0.052734 1 0 1.000000
0  18.851248 -0.329395 43.401741  0.000004 -0.705759 -0.708452  0.410156 0.009766 1 0 1.000000
driver
0  15.516065 5.167994 52.310108  -0.779794 0.113136 0.615728  0.066406 0.263672 1 0 1.000000
0  15.038792 4.612144 48.941315  -0.998964 -0.003046 -0.045410  0.179688 0.246094 1 0 1.000000
0  16.515503 1.330772 53.052437  -0.717470 -0.359350 0.596745  0.031250 0.125000 1 0 1.000000
driver
0  21.273018 8.564133 48.960709  0.653552 0.742600 -0.146337  0.193359 0.328125 1 0 1.000000
0  22.663702 4.612146 48.941322  0.998964 -0.003049 -0.045411  0.179688 0.246094 1 0 1.000000
0  21.403061 5.887035 45.019726  0.918151 0.345098 -0.194698  0.343750 0.294922 1 0 1.000000
driver
0  21.273018 8.564133 48.960709  0.653552 0.742600 -0.146337  0.193359 0.328125 1 0 1.000000
0  22.468958 6.576647 50.519093  0.932394 0.342115 0.116617  0.144531 0.287109 1 0 1.000000
0  22.663702 4.612146 48.941322  0.998964 -0.003049 -0.045411  0.179688 0.246094 1 0 1.000000
driver
0  18.851248 7.875212 44.944492  0.000072 0.967153 -0.254194  0.359375 0.359375 1 0 1.000000
0  16.307821 5.736206 42.181309  -0.739342 0.406698 0.536628  0.453125 0.285156 1 0 1.000000
0  16.299433 5.887043 45.019722  -0.918151 0.345099 -0.194692  0.343750 0.294922 1 0 1.000000
driver
0  16.299433 5.887043 45.019722  -0.918151 0.345099 -0.194692  0.343750 0.294922 1 0 1.000000
0  16.429478 8.564125 48.960701  -0.653345 0.742786 -0.146320  0.193359 0.328125 1 0 1.000000
0  18.851248 7.875212 44.944492  0.000072 0.967153 -0.254194  0.359375 0.359375 1 0 1.000000
driver
0  16.299433 5.887043 45.019722  -0.918151 0.345099 -0.194692  0.343750 0.294922 1 0 1.000000
0  15.038792 4.612144 48.941315  -0.998964 -0.003046 -0.045410  0.179688 0.246094 1 0 1.000000
0  16.429478 8.564125 48.960701  -0.653345 0.742786 -0.146320  0.193359 0.328125 1 0 1.000000
driver
0  15.038792 4.612144 48.941315  -0.998964 -0.003046 -0.045410  0.179688 0.246094 1 0 1.000000
0  15.233536 6.576647 50.519089  -0.932393 0.342116 0.116617  0.144531 0.287109 1 0 1.000000
0  16.429478 8.564125 48.960701  -0.653345 0.742786 -0.146320  0.193359 0.328125 1 0 1.000000
driver
0  15.516065 5.167994 52.310108  -0.779794 0.113136 0.615728  0.066406 0.263672 1 0 1.000000
0  15.233536 6.576647 50.519089  -0.932393 0.342116 0.116617  0.144531 0.287109 1 0 1.000000
0  15.038792 4.612144 48.941315  -0.998964 -0.003046 -0.045410  0.179688 0.246094 1 0 1.000000
driver
0  16.747412 8.281534 51.823441  -0.596560 0.643745 0.479280  0.097656 0.332031 1 0 1.000000
0  15.233536 6.576647 50.519089  -0.932393 0.342116 0.116617  0.144531 0.287109 1 0 1.000000
0  15.516065 5.167994 52.310108  -0.779794 0.113136 0.615728  0.066406 0.263672 1 0 1.000000
driver
0  16.747412 8.281534 51.823441  -0.596560 0.643745 0.479280  0.097656 0.332031 1 0 1.000000
0  16.429478 8.564125 48.960701  -0.653345 0.742786 -0.146320  0.193359 0.328125 1 0 1.000000
0  15.233536 6.576647 50.519089  -0.932393 0.342116 0.116617  0.144531 0.287109 1 0 1.000000
driver
0  18.853607 9.114155 51.660774  0.000283 0.944923 0.327292  0.111328 0.357422 1 0 1.000000
0  16.429478 8.564125 48.960701  -0.653345 0.742786 -0.146320  0.193359 0.328125 1 0 1.000000
0  16.747412 8.281534 51.823441  -0.596560 0.643745 0.479280  0.097656 0.332031 1 0 1.000000
driver
0  18.853607 9.114155 51.660774  0.000283 0.944923 0.327292  0.111328 0.357422 1 0 1.000000
0  18.853607 9.322557 48.730392  0.000334 0.989302 -0.145881  0.210938 0.357422 1 0 1.000000
0  16.429478 8.564125 48.960701  -0.653345 0.742786 -0.146320  0.193359 0.328125 1 0 1.000000
driver
0  21.273018 8.564133 48.960709  0.653552 0.742600 -0.146337  0.193359 0.328125 1 0 1.000000
0  18.853607 9.322557 48.730392  0.000334 0.989302 -0.145881  0.210938 0.357422 1 0 1.000000
0  18.853607 9.114155 51.660774  0.000283 0.944923 0.327292  0.111328 0.357422 1 0 1.000000
driver
0  18.851248 7.875212 44.944492  0.000072 0.967153 -0.254194  0.359375 0.359375 1 0 1.000000
0  18.853607 9.322557 48.730392  0.000334 0.989302 -0.145881  0.210938 0.357422 1 0 1.000000
0  21.273018 8.564133 48.960709  0.653552 0.742600 -0.146337  0.193359 0.328125 1 0 1.000000
driver
0  18.851248 7.875212 44.944492  0.000072 0.967153 -0.254194  0.359375 0.359375 1 0 1.000000
0  21.273018 8.564133 48.960709  0.653552 0.742600 -0.146337  0.193359 0.328125 1 0 1.000000
0  21.403061 5.887035 45.019726  0.918151 0.345098 -0.194698  0.343750 0.294922 1 0 1.000000
driver
0  21.403061 5.887035 45.019726  0.918151 0.345098 -0.194698  0.343750 0.294922 1 0 1.000000
0  21.394670 5.736198 42.181316  0.739362 0.406652 0.536635  0.453125 0.285156 1 0 1.000000
0  18.851248 7.875212 44.944492  0.000072 0.967153 -0.254194  0.359375 0.359375 1 0 1.000000
driver
0  21.403061 5.887035 45.019726  0.918151 0.345098 -0.194698  0.343750 0.294922 1 0 1.000000
0  21.540478 3.499506 43.883934  0.941501 -0.235972 -0.240610  0.376953 0.191406 1 0 1.000000
0  21.394670 5.736198 42.181316  0.739362 0.406652 0.536635  0.453125 0.285156 1 0 1.000000
driver
0  21.283503 2.896391 42.324326  0.361425 -0.525970 0.769888  0.453125 0.177734 1 0 1.000000
0  21.394670 5.736198 42.181316  0.739362 0.406652 0.536635  0.453125 0.285156 1 0 1.000000
0  21.540478 3.499506 43.883934  0.941501 -0.235972 -0.240610  0.376953 0.191406 1 0 1.000000
driver
0  18.851248 2.133678 42.974606  -0.000030 -0.802431 -0.596744  0.435547 0.009766 1 0 1.000000
0  21.283503 2.896391 42.324326  0.361425 -0.525970 0.769888  0.453125 0.177734 1 0 1.000000
0  21.540478 3.499506 43.883934  0.941501 -0.235972 -0.240610  0.376953 0.191406 1 0 1.000000
driver
0  18.851248 2.133678 42.974606  -0.000030 -0.802431 -0.596744  0.435547 0.009766 1 0 1.000000
0  18.851248 1.958416 41.690208  0.000037 -0.805107 0.593130  0.453125 0.009766 1 0 1.000000
0  21.283503 2.896391 42.324326  0.361425 -0.525970 0.769888  0.453125 0.177734 1 0 1.000000
driver
0  16.418991 2.896389 42.324322  -0.361426 -0.525970 0.769888  0.453125 0.177734 1 0 1.000000
0  18.851248 1.958416 41.690208  0.000037 -0.805107 0.593130  0.453125 0.009766 1 0 1.000000
0  18.851248 2.133678 42.974606  -0.000030 -0.802431 -0.596744  0.435547 0.009766 1 0 1.000000
driver
0  16.429478 8.564125 48.960701  -0.653345 0.742786 -0.146320  0.193359 0.328125 1 0 1.000000
0  18.853607 9.322557 48.730392  0.000334 0.989302 -0.145881  0.210938 0.357422 1 0 1.000000
0  18.851248 7.875212 44.944492  0.000072 0.967153 -0.254194  0.359375 0.359375 1 0 1.000000
driver
0  21.186991 1.330772 53.052444  0.717471 -0.359352 0.596742  0.031250 0.125000 1 0 1.000000
0  22.663702 4.612146 48.941322  0.998964 -0.003049 -0.045411  0.179688 0.246094 1 0 1.000000
0  22.186428 5.167995 52.310112  0.779794 0.113135 0.615729  0.066406 0.263672 1 0 1.000000
driver
0  22.663702 4.612146 48.941322  0.998964 -0.003049 -0.045411  0.179688 0.246094 1 0 1.000000
0  22.468958 6.576647 50.519093  0.932394 0.342115 0.116617  0.144531 0.287109 1 0 1.000000
0  22.186428 5.167995 52.310112  0.779794 0.113135 0.615729  0.066406 0.263672 1 0 1.000000
driver
0  22.186428 5.167995 52.310112  0.779794 0.113135 0.615729  0.066406 0.263672 1 0 1.000000
0  22.468958 6.576647 50.519093  0.932394 0.342115 0.116617  0.144531 0.287109 1 0 1.000000
0  20.955084 8.281534 51.823448  0.596728 0.643580 0.479292  0.097656 0.332031 1 0 1.000000
driver
0  22.468958 6.576647 50.519093  0.932394 0.342115 0.116617  0.144531 0.287109 1 0 1.000000
0  21.273018 8.564133 48.960709  0.653552 0.742600 -0.146337  0.193359 0.328125 1 0 1.000000
0  20.955084 8.281534 51.823448  0.596728 0.643580 0.479292  0.097656 0.332031 1 0 1.000000
driver
0  20.955084 8.281534 51.823448  0.596728 0.643580 0.479292  0.097656 0.332031 1 0 1.000000
0  21.273018 8.564133 48.960709  0.653552 0.742600 -0.146337  0.193359 0.328125 1 0 1.000000
0  18.853607 9.114155 51.660774  0.000283 0.944923 0.327292  0.111328 0.357422 1 0 1.000000
driver
0  18.851248 6.920231 53.848831  0.000064 0.418054 0.908422  0.009766 0.357422 1 0 1.000000
0  20.955084 8.281534 51.823448  0.596728 0.643580 0.479292  0.097656 0.332031 1 0 1.000000
0  18.853607 9.114155 51.660774  0.000283 0.944923 0.327292  0.111328 0.357422 1 0 1.000000
driver
0  18.853607 9.114155 51.660774  0.000283 0.944923 0.327292  0.111328 0.357422 1 0 1.000000
0  16.747412 8.281534 51.823441  -0.596560 0.643745 0.479280  0.097656 0.332031 1 0 1.000000
0  18.851248 6.920231 53.848831  0.000064 0.418054 0.908422  0.009766 0.357422 1 0 1.000000
driver
0  18.851248 6.920231 53.848831  0.000064 0.418054 0.908422  0.009766 0.357422 1 0 1.000000
0  16.747412 8.281534 51.823441  -0.596560 0.643745 0.479280  0.097656 0.332031 1 0 1.000000
0  15.516065 5.167994 52.310108  -0.779794 0.113136 0.615728  0.007812 0.320312 1 0 1.000000
driver
0  22.186428 5.167995 52.310112  0.779794 0.113135 0.615729  0.007812 0.320312 1 0 1.000000
0  20.955084 8.281534 51.823448  0.596728 0.643580 0.479292  0.097656 0.332031 1 0 1.000000
0  18.851248 6.920231 53.848831  0.000064 0.418054 0.908422  0.009766 0.357422 1 0 1.000000
driver
0  15.516065 5.167994 52.310108  -0.779794 0.113136 0.615728  0.007812 0.320312 1 0 1.000000
0  18.851248 3.488647 54.099209  -0.000001 -0.040685 0.999172  0.066406 0.263672 1 0 1.000000
0  18.851248 6.920231 53.848831  0.000064 0.418054 0.908422  0.097656 0.332031 1 0 1.000000
driver
0  18.851248 6.920231 53.848831  0.000064 0.418054 0.908422  0.097656 0.332031 1 0 1.000000
0  18.851248 3.488647 54.099209  -0.000001 -0.040685 0.999172  0.066406 0.263672 1 0 1.000000
0  22.186428 5.167995 52.310112  0.779794 0.113135 0.615729  0.007812 0.320312 1 0 1.000000
driver
0  18.851248 3.488647 54.099209  -0.000001 -0.040685 0.999172  0.031250 0.125000 1 0 1.000000
0  21.186991 1.330772 53.052444  0.717471 -0.359352 0.596742  0.007812 0.009766 1 0 1.000000
0  22.186428 5.167995 52.310112  0.779794 0.113135 0.615729  0.007812 0.320312 1 0 1.000000
driver
0  15.516065 5.167994 52.310108  -0.779794 0.113136 0.615728  0.007812 0.320312 1 0 1.000000
0  16.515503 1.330772 53.052437  -0.717470 -0.359350 0.596745  0.007812 0.009766 1 0 1.000000
0  18.851248 3.488647 54.099209  -0.000001 -0.040685 0.999172  0.031250 0.125000 1 0 1.000000
driver
0  18.851248 7.875212 44.944492  0.000072 0.967153 -0.254194  0.361328 0.359375 1 0 1.000000
0  18.851248 7.939917 41.795849  0.000011 0.890492 0.454998  0.453125 0.357422 1 0 1.000000
0  16.307821 5.736206 42.181309  -0.739342 0.406698 0.536628  0.453125 0.285156 1 0 1.000000
driver
0  21.394670 5.736198 42.181316  0.739362 0.406652 0.536635  0.453125 0.285156 1 0 1.000000
0  18.851248 7.939917 41.795849  0.000011 0.890492 0.454998  0.453125 0.357422 1 0 1.000000
0  18.851248 7.875212 44.944492  0.000072 0.967153 -0.254194  0.361328 0.359375 1 0 1.000000
driver
0  12.396262 -5.990600 24.028677  -0.734425 -0.401305 0.547333  0.066406 0.867188 1 0 1.000000
0  9.791022 -3.090054 19.739645  -0.997971 -0.063234 0.007403  0.072266 0.904297 1 0 1.000000
0  11.171631 -17.616465 22.060555  -0.912620 -0.117314 0.391613  0.136719 0.906250 1 0 1.000000
driver
0  11.171631 -17.616465 22.060555  -0.912620 -0.117314 0.391613  0.136719 0.906250 1 0 1.000000
0  14.523811 -17.675079 24.705246  -0.066681 -0.146734 0.986926  0.150391 0.820312 1 0 1.000000
0  12.396262 -5.990600 24.028677  -0.734425 -0.401305 0.547333  0.066406 0.867188 1 0 1.000000
driver
0  14.523811 -17.675079 24.705246  -0.066681 -0.146734 0.986926  0.150391 0.820312 1 0 1.000000
0  18.851248 -7.104174 25.110556  0.000002 -0.653534 0.756898  0.046875 0.820312 1 0 1.000000
0  12.396262 -5.990600 24.028677  -0.734425 -0.401305 0.547333  0.066406 0.867188 1 0 1.000000
driver
0  23.178679 -17.675079 24.705246  0.066678 -0.146731 0.986926  0.150391 0.820312 1 0 1.000000
0  18.851246 -18.206957 21.514986  0.000000 -0.269980 0.962866  0.101562 0.703125 1 0 1.000000
0  23.463100 -21.177395 23.987103  0.087002 -0.302551 0.949154  0.246094 0.822266 1 0 1.000000
driver
0  18.851315 -38.913868 16.233877  -0.000003 -0.348749 0.937216  0.460938 0.822266 1 0 1.000000
0  23.463100 -21.177395 23.987103  0.087002 -0.302551 0.949154  0.246094 0.822266 1 0 1.000000
0  18.851246 -18.206957 21.514986  0.000000 -0.269980 0.962866  0.101562 0.703125 1 0 1.000000
driver
0  23.592834 -38.080517 15.903500  0.711605 -0.340160 0.614744  0.460938 0.904297 1 0 1.000000
0  23.463100 -21.177395 23.987103  0.087002 -0.302551 0.949154  0.246094 0.822266 1 0 1.000000
0  18.851315 -38.913868 16.233877  -0.000003 -0.348749 0.937216  0.460938 0.822266 1 0 1.000000
driver
0  23.463100 -21.177395 23.987103  0.087002 -0.302551 0.949154  0.246094 0.822266 1 0 1.000000
0  23.592834 -38.080517 15.903500  0.711605 -0.340160 0.614744  0.460938 0.904297 1 0 1.000000
0  26.530859 -17.616463 22.060553  0.912606 -0.117282 0.391657  0.136719 0.906250 1 0 1.000000
driver
0  26.530859 -17.616463 22.060553  0.912606 -0.117282 0.391657  0.136719 0.906250 1 0 1.000000
0  23.178679 -17.675079 24.705246  0.066678 -0.146731 0.986926  0.150391 0.820312 1 0 1.000000
0  23.463100 -21.177395 23.987103  0.087002 -0.302551 0.949154  0.246094 0.822266 1 0 1.000000
driver
0  25.306231 -5.990600 24.028675  0.734426 -0.401307 0.547331  0.066406 0.867188 1 0 1.000000
0  23.178679 -17.675079 24.705246  0.066678 -0.146731 0.986926  0.150391 0.820312 1 0 1.000000
0  26.530859 -17.616463 22.060553  0.912606 -0.117282 0.391657  0.136719 0.906250 1 0 1.000000
driver
0  25.306231 -5.990600 24.028675  0.734426 -0.401307 0.547331  0.066406 0.867188 1 0 1.000000
0  18.851248 -7.104174 25.110556  0.000002 -0.653534 0.756898  0.046875 0.820312 1 0 1.000000
0  23.178679 -17.675079 24.705246  0.066678 -0.146731 0.986926  0.150391 0.820312 1 0 1.000000
driver
0  23.178679 -17.675079 24.705246  0.066678 -0.146731 0.986926  0.150391 0.820312 1 0 1.000000
0  18.851248 -7.104174 25.110556  0.000002 -0.653534 0.756898  0.046875 0.820312 1 0 1.000000
0  18.851246 -18.206957 21.514986  0.000000 -0.269980 0.962866  0.101562 0.703125 1 0 1.000000
driver
0  18.851246 -18.206957 21.514986  0.000000 -0.269980 0.962866  0.101562 0.703125 1 0 1.000000
0  18.851248 -7.104174 25.110556  0.000002 -0.653534 0.756898  0.046875 0.820312 1 0 1.000000
0  14.523811 -17.675079 24.705246  -0.066681 -0.146734 0.986926  0.150391 0.820312 1 0 1.000000
driver
0  14.239390 -21.177395 23.987103  -0.087003 -0.302553 0.949153  0.246094 0.822266 1 0 1.000000
0  18.851246 -18.206957 21.514986  0.000000 -0.269980 0.962866  0.101562 0.703125 1 0 1.000000
0  14.523811 -17.675079 24.705246  -0.066681 -0.146734 0.986926  0.150391 0.820312 1 0 1.000000
driver
0  14.239390 -21.177395 23.987103  -0.087003 -0.302553 0.949153  0.246094 0.822266 1 0 1.000000
0  14.523811 -17.675079 24.705246  -0.066681 -0.146734 0.986926  0.150391 0.820312 1 0 1.000000
0  11.171631 -17.616465 22.060555  -0.912620 -0.117314 0.391613  0.136719 0.906250 1 0 1.000000
driver
0  11.171631 -17.616465 22.060555  -0.912620 -0.117314 0.391613  0.136719 0.906250 1 0 1.000000
0  14.109721 -38.080517 15.903500  -0.711592 -0.340148 0.614764  0.460938 0.904297 1 0 1.000000
0  14.239390 -21.177395 23.987103  -0.087003 -0.302553 0.949153  0.246094 0.822266 1 0 1.000000
driver
0  18.851315 -38.913868 16.233877  -0.000003 -0.348749 0.937216  0.460938 0.822266 1 0 1.000000
0  14.239390 -21.177395 23.987103  -0.087003 -0.302553 0.949153  0.246094 0.822266 1 0 1.000000
0  14.109721 -38.080517 15.903500  -0.711592 -0.340148 0.614764  0.460938 0.904297 1 0 1.000000
driver
0  18.851246 -18.206957 21.514986  0.000000 -0.269980 0.962866  0.101562 0.703125 1 0 1.000000
0  14.239390 -21.177395 23.987103  -0.087003 -0.302553 0.949153  0.246094 0.822266 1 0 1.000000
0  18.851315 -38.913868 16.233877  -0.000003 -0.348749 0.937216  0.460938 0.822266 1 0 1.000000
driver
0  26.530859 -17.616463 22.060553  0.912606 -0.117282 0.391657  0.136719 0.906250 1 0 1.000000
0  27.911467 -3.090052 19.739643  0.997972 -0.063217 0.007406  0.072266 0.904297 1 0 1.000000
0  25.306231 -5.990600 24.028675  0.734426 -0.401307 0.547331  0.066406 0.867188 1 0 1.000000
driver
0  10.654733 -5.977624 31.308937  0.583183 -0.225147 -0.780517  0.539062 0.046875 1 0 1.000000
0  10.202198 -0.181164 31.549442  -0.826589 -0.010384 -0.562709  0.761719 0.046875 1 0 1.000000
0  13.857281 -2.969154 34.793064  0.232382 -0.956612 0.175762  0.761719 0.046875 1 0 1.000000
driver
0  10.202198 -0.181164 31.549442  -0.826589 -0.010384 -0.562709  0.761719 0.046875 1 0 1.000000
0  12.396262 -5.990600 24.028677  -0.734425 -0.401305 0.547333  0.589844 0.169922 1 0 1.000000
0  13.857281 -2.969154 34.793064  0.232382 -0.956612 0.175762  0.761719 0.046875 1 0 1.000000
driver
0  13.857281 -2.969154 34.793064  0.232382 -0.956612 0.175762  0.761719 0.046875 1 0 1.000000
0  12.396262 -5.990600 24.028677  -0.734425 -0.401305 0.547333  0.589844 0.169922 1 0 1.000000
0  18.851248 -7.104174 25.110556  0.000002 -0.653534 0.756898  0.589844 0.378906 1 0 1.000000
driver
0  12.396262 -5.990600 24.028677  -0.734425 -0.401305 0.547333  0.589844 0.169922 1 0 1.000000
0  10.202198 -0.181164 31.549442  -0.826589 -0.010384 -0.562709  0.761719 0.046875 1 0 1.000000
0  9.727228 -0.909887 21.927584  -0.999124 0.038955 -0.015262  0.589844 0.048828 1 0 1.000000
driver
0  10.927752 4.580330 41.245468  -0.417708 0.077150 0.905300  0.996094 0.064453 1 0 1.000000
0  16.418991 2.896389 42.324322  -0.361426 -0.525970 0.769888  0.919922 0.330078 1 0 1.000000
0  16.307821 5.736206 42.181309  -0.739342 0.406698 0.536628  0.955078 0.269531 1 0 1.000000
driver
0  16.418991 2.896389 42.324322  -0.361426 -0.525970 0.769888  0.919922 0.330078 1 0 1.000000
0  10.927752 4.580330 41.245468  -0.417708 0.077150 0.905300  0.996094 0.064453 1 0 1.000000
0  12.332540 -0.299746 41.320358  0.149502 -0.535806 0.831000  0.943359 0.060547 1 0 1.000000
driver
0  12.332540 -0.299746 41.320358  0.149502 -0.535806 0.831000  0.943359 0.060547 1 0 1.000000
0  18.851248 -1.452126 39.974392  -0.000001 -0.737374 0.675485  0.863281 0.378906 1 0 1.000000
0  16.418991 2.896389 42.324322  -0.361426 -0.525970 0.769888  0.919922 0.330078 1 0 1.000000
driver
0  13.857281 -2.969154 34.793064  0.232382 -0.956612 0.175762  0.761719 0.046875 1 0 1.000000
0  18.851248 -1.452126 39.974392  -0.000001 -0.737374 0.675485  0.863281 0.378906 1 0 1.000000
0  12.332540 -0.299746 41.320358  0.149502 -0.535806 0.831000  0.943359 0.060547 1 0 1.000000
driver
0  18.851248 -7.104174 25.110556  0.000002 -0.653534 0.756898  0.589844 0.378906 1 0 1.000000
0  18.851248 -1.452126 39.974392  -0.000001 -0.737374 0.675485  0.863281 0.378906 1 0 1.000000
0  13.857281 -2.969154 34.793064  0.232382 -0.956612 0.175762  0.761719 0.046875 1 0 1.000000
driver
0  23.845211 -2.969154 34.793072  -0.232377 -0.956613 0.175762  0.761719 0.046875 1 0 1.000000
0  18.851248 -1.452126 39.974392  -0.000001 -0.737374 0.675485  0.863281 0.378906 1 0 1.000000
0  18.851248 -7.104174 25.110556  0.000002 -0.653534 0.756898  0.589844 0.378906 1 0 1.000000
driver
0  18.851248 -7.104174 25.110556  0.000002 -0.653534 0.756898  0.589844 0.378906 1 0 1.000000
0  25.306231 -5.990600 24.028675  0.734426 -0.401307 0.547331  0.589844 0.169922 1 0 1.000000
0  23.845211 -2.969154 34.793072  -0.232377 -0.956613 0.175762  0.761719 0.046875 1 0 1.000000
driver
0  23.845211 -2.969154 34.793072  -0.232377 -0.956613 0.175762  0.761719 0.046875 1 0 1.000000
0  25.306231 -5.990600 24.028675  0.734426 -0.401307 0.547331  0.589844 0.169922 1 0 1.000000
0  27.500359 -0.181162 31.549446  0.826583 -0.010415 -0.562719  0.761719 0.046875 1 0 1.000000
driver
0  27.975328 -0.909887 21.927582  0.999124 0.038958 -0.015274  0.589844 0.048828 1 0 1.000000
0  27.500359 -0.181162 31.549446  0.826583 -0.010415 -0.562719  0.761719 0.046875 1 0 1.000000
0  25.306231 -5.990600 24.028675  0.734426 -0.401307 0.547331  0.589844 0.169922 1 0 1.000000
driver
0  23.845211 -2.969154 34.793072  -0.232377 -0.956613 0.175762  0.761719 0.046875 1 0 1.000000
0  27.500359 -0.181162 31.549446  0.826583 -0.010415 -0.562719  0.761719 0.046875 1 0 1.000000
0  27.047827 -5.977624 31.308926  -0.583175 -0.225161 -0.780519  0.539062 0.046875 1 0 1.000000
driver
0  25.369955 -0.299744 41.320366  -0.149486 -0.535832 0.830986  0.943359 0.060547 1 0 1.000000
0  18.851248 -1.452126 39.974392  -0.000001 -0.737374 0.675485  0.863281 0.378906 1 0 1.000000
0  23.845211 -2.969154 34.793072  -0.232377 -0.956613 0.175762  0.761719 0.046875 1 0 1.000000
driver
0  21.283503 2.896391 42.324326  0.361425 -0.525970 0.769888  0.919922 0.330078 1 0 1.000000
0  18.851248 -1.452126 39.974392  -0.000001 -0.737374 0.675485  0.863281 0.378906 1 0 1.000000
0  25.369955 -0.299744 41.320366  -0.149486 -0.535832 0.830986  0.943359 0.060547 1 0 1.000000
driver
0  18.851248 -1.452126 39.974392  -0.000001 -0.737374 0.675485  0.863281 0.378906 1 0 1.000000
0  21.283503 2.896391 42.324326  0.361425 -0.525970 0.769888  0.919922 0.330078 1 0 1.000000
0  18.851248 1.958416 41.690208  0.000037 -0.805107 0.593130  0.916016 0.378906 1 0 1.000000
driver
0  18.851248 1.958416 41.690208  0.000037 -0.805107 0.593130  0.916016 0.378906 1 0 1.000000
0  16.418991 2.896389 42.324322  -0.361426 -0.525970 0.769888  0.919922 0.330078 1 0 1.000000
0  18.851248 -1.452126 39.974392  -0.000001 -0.737374 0.675485  0.863281 0.378906 1 0 1.000000
driver
0  25.369955 -0.299744 41.320366  -0.149486 -0.535832 0.830986  0.943359 0.060547 1 0 1.000000
0  26.774740 4.580332 41.245476  0.417708 0.077150 0.905300  0.996094 0.064453 1 0 1.000000
0  21.283503 2.896391 42.324326  0.361425 -0.525970 0.769888  0.919922 0.330078 1 0 1.000000
driver
0  21.394670 5.736198 42.181316  0.739362 0.406652 0.536635  0.955078 0.269531 1 0 1.000000
0  21.283503 2.896391 42.324326  0.361425 -0.525970 0.769888  0.919922 0.330078 1 0 1.000000
0  26.774740 4.580332 41.245476  0.417708 0.077150 0.905300  0.996094 0.064453 1 0 1.000000
driver
0  25.664904 -18.099342 16.713634  0.969310 -0.055344 -0.239530  0.531250 0.921875 1 0 1.000000
0  25.264410 1.003273 13.181005  0.942919 0.154581 -0.294972  0.484375 0.919922 1 0 1.000000
0  27.911467 -3.090052 19.739643  0.997972 -0.063217 0.007406  0.496094 0.984375 1 0 1.000000
driver
0  27.911467 -3.090052 19.739643  0.997972 -0.063217 0.007406  0.496094 0.984375 1 0 1.000000
0  26.530859 -17.616463 22.060553  0.912606 -0.117282 0.391657  0.496094 0.984375 1 0 1.000000
0  25.664904 -18.099342 16.713634  0.969310 -0.055344 -0.239530  0.531250 0.921875 1 0 1.000000
driver
0  26.530859 -17.616463 22.060553  0.912606 -0.117282 0.391657  0.496094 0.984375 1 0 1.000000
0  24.520941 -36.070808 8.810746  0.996002 -0.080121 -0.039499  0.984375 0.921875 1 0 1.000000
0  25.664904 -18.099342 16.713634  0.969310 -0.055344 -0.239530  0.531250 0.921875 1 0 1.000000
driver
0  26.530859 -17.616463 22.060553  0.912606 -0.117282 0.391657  0.496094 0.984375 1 0 1.000000
0  23.592834 -38.080517 15.903500  0.711605 -0.340160 0.614744  0.984375 0.984375 1 0 1.000000
0  24.520941 -36.070808 8.810746  0.996002 -0.080121 -0.039499  0.984375 0.921875 1 0 1.000000
driver
0  31.078287 -6.646009 32.457096  0.472723 -0.169113 -0.864832  0.703125 0.406250 1 0 1.000000
0  32.300591 -7.168865 34.882545  0.947406 -0.304253 -0.099261  0.712891 0.501953 1 0 1.000000
0  26.290325 -18.046289 36.274090  0.108351 -0.432021 -0.895331  0.492188 0.406250 1 0 1.000000
driver
0  31.078287 -6.646009 32.457096  0.472723 -0.169113 -0.864832  0.703125 0.406250 1 0 1.000000
0  30.725622 -5.135001 32.711403  0.666485 0.174164 -0.724889  0.738281 0.406250 1 0 1.000000
0  32.300591 -7.168865 34.882545  0.947406 -0.304253 -0.099261  0.712891 0.501953 1 0 1.000000
driver
0  32.498692 -5.258255 35.192478  0.992968 0.070635 0.094999  0.738281 0.501953 1 0 1.000000
0  32.300591 -7.168865 34.882545  0.947406 -0.304253 -0.099261  0.712891 0.501953 1 0 1.000000
0  30.725622 -5.135001 32.711403  0.666485 0.174164 -0.724889  0.738281 0.406250 1 0 1.000000
driver
0  32.498692 -5.258255 35.192478  0.992968 0.070635 0.094999  0.738281 0.501953 1 0 1.000000
0  29.545553 -6.782740 38.598637  0.457278 -0.069290 0.886620  0.744141 0.576172 1 0 1.000000
0  32.300591 -7.168865 34.882545  0.947406 -0.304253 -0.099261  0.712891 0.501953 1 0 1.000000
driver
0  27.942898 -17.361248 37.221794  0.981355 -0.124739 0.146227  0.492188 0.501953 1 0 1.000000
0  32.300591 -7.168865 34.882545  0.947406 -0.304253 -0.099261  0.712891 0.501953 1 0 1.000000
0  29.545553 -6.782740 38.598637  0.457278 -0.069290 0.886620  0.744141 0.576172 1 0 1.000000
driver
0  29.545553 -6.782740 38.598637  0.457278 -0.069290 0.886620  0.744141 0.576172 1 0 1.000000
0  26.021969 -16.366587 39.192780  -0.083629 0.432854 0.897577  0.492188 0.576172 1 0 1.000000
0  27.942898 -17.361248 37.221794  0.981355 -0.124739 0.146227  0.492188 0.501953 1 0 1.000000
driver
0  27.942898 -17.361248 37.221794  0.981355 -0.124739 0.146227  0.492188 0.501953 1 0 1.000000
0  26.290325 -18.046289 36.274090  0.108351 -0.432021 -0.895331  0.492188 0.406250 1 0 1.000000
0  32.300591 -7.168865 34.882545  0.947406 -0.304253 -0.099261  0.712891 0.501953 1 0 1.000000
driver
0  30.725622 -5.135001 32.711403  0.666485 0.174164 -0.724889  0.738281 0.738281 1 0 1.000000
0  31.078287 -6.646009 32.457096  0.472723 -0.169113 -0.864832  0.708984 0.738281 1 0 1.000000
0  28.141022 -5.142442 32.461262  -0.431060 -0.014238 -0.902211  0.738281 0.687500 1 0 1.000000
driver
0  31.078287 -6.646009 32.457096  0.472723 -0.169113 -0.864832  0.708984 0.738281 1 0 1.000000
0  26.290325 -18.046289 36.274090  0.108351 -0.432021 -0.895331  0.490234 0.738281 1 0 1.000000
0  28.141022 -5.142442 32.461262  -0.431060 -0.014238 -0.902211  0.738281 0.687500 1 0 1.000000
driver
0  26.290325 -18.046289 36.274090  0.108351 -0.432021 -0.895331  0.490234 0.738281 1 0 1.000000
0  24.538778 -17.029011 38.124516  -0.847910 0.334883 0.410977  0.492188 0.628906 1 0 1.000000
0  28.141022 -5.142442 32.461262  -0.431060 -0.014238 -0.902211  0.738281 0.687500 1 0 1.000000
driver
0  24.538778 -17.029011 38.124516  -0.847910 0.334883 0.410977  0.492188 0.628906 1 0 1.000000
0  27.065557 -6.890076 35.843193  -0.935773 -0.023361 0.351828  0.742188 0.632812 1 0 1.000000
0  28.141022 -5.142442 32.461262  -0.431060 -0.014238 -0.902211  0.738281 0.687500 1 0 1.000000
driver
0  24.538778 -17.029011 38.124516  -0.847910 0.334883 0.410977  0.492188 0.628906 1 0 1.000000
0  26.021969 -16.366587 39.192780  -0.083629 0.432854 0.897577  0.492188 0.576172 1 0 1.000000
0  27.065557 -6.890076 35.843193  -0.935773 -0.023361 0.351828  0.742188 0.632812 1 0 1.000000
driver
0  29.545553 -6.782740 38.598637  0.457278 -0.069290 0.886620  0.744141 0.576172 1 0 1.000000
0  27.065557 -6.890076 35.843193  -0.935773 -0.023361 0.351828  0.742188 0.632812 1 0 1.000000
0  26.021969 -16.366587 39.192780  -0.083629 0.432854 0.897577  0.492188 0.576172 1 0 1.000000
driver
0  27.065557 -6.890076 35.843193  -0.935773 -0.023361 0.351828  0.742188 0.632812 1 0 1.000000
0  29.545553 -6.782740 38.598637  0.457278 -0.069290 0.886620  0.744141 0.576172 1 0 1.000000
0  25.369955 -0.299744 41.320366  -0.149486 -0.535832 0.830986  0.958984 0.628906 1 0 1.000000
driver
0  26.774740 4.580332 41.245476  0.417708 0.077150 0.905300  0.982422 0.576172 1 0 1.000000
0  25.369955 -0.299744 41.320366  -0.149486 -0.535832 0.830986  0.958984 0.628906 1 0 1.000000
0  29.545553 -6.782740 38.598637  0.457278 -0.069290 0.886620  0.744141 0.576172 1 0 1.000000
driver
0  25.369955 -0.299744 41.320366  -0.149486 -0.535832 0.830986  0.958984 0.628906 1 0 1.000000
0  23.845211 -2.969154 34.793072  -0.232377 -0.956613 0.175762  0.876953 0.748047 1 0 1.000000
0  27.065557 -6.890076 35.843193  -0.935773 -0.023361 0.351828  0.742188 0.632812 1 0 1.000000
driver
0  27.047827 -5.977624 31.308926  -0.583175 -0.225161 -0.780519  0.744141 0.687500 1 0 1.000000
0  27.065557 -6.890076 35.843193  -0.935773 -0.023361 0.351828  0.742188 0.632812 1 0 1.000000
0  23.845211 -2.969154 34.793072  -0.232377 -0.956613 0.175762  0.990234 0.671875 1 0 1.000000
driver
0  26.774740 4.580332 41.245476  0.417708 0.077150 0.905300  0.982422 0.576172 1 0 1.000000
0  29.545553 -6.782740 38.598637  0.457278 -0.069290 0.886620  0.744141 0.576172 1 0 1.000000
0  28.894531 6.992615 38.400242  0.862947 0.446179 0.237163  0.988281 0.501953 1 0 1.000000
driver
0  32.498692 -5.258255 35.192478  0.992968 0.070635 0.094999  0.744141 0.501953 1 0 1.000000
0  28.894531 6.992615 38.400242  0.862947 0.446179 0.237163  0.988281 0.501953 1 0 1.000000
0  29.545553 -6.782740 38.598637  0.457278 -0.069290 0.886620  0.744141 0.576172 1 0 1.000000
driver
0  28.894531 6.992615 38.400242  0.862947 0.446179 0.237163  0.988281 0.501953 1 0 1.000000
0  32.498692 -5.258255 35.192478  0.992968 0.070635 0.094999  0.744141 0.501953 1 0 1.000000
0  30.841051 -5.041175 31.620678  0.621141 0.295156 -0.725994  0.744141 0.414062 1 0 1.000000
driver
0  30.841051 -5.041175 31.620678  0.621141 0.295156 -0.725994  0.744141 0.414062 1 0 1.000000
0  26.572435 7.076607 33.734936  0.649933 0.659917 -0.376959  0.960938 0.414062 1 0 1.000000
0  28.894531 6.992615 38.400242  0.862947 0.446179 0.237163  0.988281 0.501953 1 0 1.000000
driver
0  27.047827 -5.977624 31.308926  -0.583175 -0.225161 -0.780519  0.744141 0.687500 1 0 1.000000
0  27.500359 -0.181162 31.549446  0.826583 -0.010415 -0.562719  0.984375 0.691406 1 0 1.000000
0  30.841051 -5.041175 31.620678  0.621141 0.295156 -0.725994  0.744141 0.738281 1 0 1.000000
driver
0  26.572435 7.076607 33.734936  0.649933 0.659917 -0.376959  0.960938 0.738281 1 0 1.000000
0  30.841051 -5.041175 31.620678  0.621141 0.295156 -0.725994  0.744141 0.738281 1 0 1.000000
0  27.500359 -0.181162 31.549446  0.826583 -0.010415 -0.562719  0.984375 0.691406 1 0 1.000000
driver
0  10.255184 -23.305969 39.513199  -0.709505 -0.702567 0.054790  0.439453 0.996094 1 0 1.000000
0  9.773678 -22.103407 39.315678  -0.724874 -0.351600 -0.592398  0.382812 0.998047 1 0 1.000000
0  10.512192 -22.892202 38.888580  -0.734752 -0.385835 -0.557916  0.445312 0.998047 1 0 1.000000
driver
0  9.773678 -22.103407 39.315678  -0.724874 -0.351600 -0.592398  0.382812 0.998047 1 0 1.000000
0  10.255184 -23.305969 39.513199  -0.709505 -0.702567 0.054790  0.439453 0.996094 1 0 1.000000
0  9.321531 -22.316149 39.966293  -0.857157 -0.505523 0.098632  0.392578 0.998047 1 0 1.000000
driver
0  9.321531 -22.316149 39.966293  -0.857157 -0.505523 0.098632  0.392578 0.998047 1 0 1.000000
0  9.583058 -21.167686 39.103874  -0.703143 -0.260409 -0.661647  0.337891 0.998047 1 0 1.000000
0  9.773678 -22.103407 39.315678  -0.724874 -0.351600 -0.592398  0.382812 0.998047 1 0 1.000000
driver
0  9.583058 -21.167686 39.103874  -0.703143 -0.260409 -0.661647  0.337891 0.998047 1 0 1.000000
0  9.321531 -22.316149 39.966293  -0.857157 -0.505523 0.098632  0.392578 0.998047 1 0 1.000000
0  8.686583 -20.879263 39.892319  -0.969686 -0.158428 -0.186036  0.337891 0.998047 1 0 1.000000
driver
0  8.686583 -20.879263 39.892319  -0.969686 -0.158428 -0.186036  0.337891 0.998047 1 0 1.000000
0  10.675234 -18.138260 37.410751  -0.275106 -0.446710 -0.851332  0.222656 0.998047 1 0 1.000000
0  9.583058 -21.167686 39.103874  -0.703143 -0.260409 -0.661647  0.337891 0.998047 1 0 1.000000
driver
0  10.675234 -18.138260 37.410751  -0.275106 -0.446710 -0.851332  0.222656 0.998047 1 0 1.000000
0  8.686583 -20.879263 39.892319  -0.969686 -0.158428 -0.186036  0.337891 0.998047 1 0 1.000000
0  9.182084 -17.452953 38.593788  -0.962452 -0.026299 0.270174  0.222656 0.992188 1 0 1.000000
driver
0  11.501258 -19.960939 42.120441  -0.041893 0.233689 0.971408  0.333984 0.917969 1 0 1.000000
0  9.182084 -17.452953 38.593788  -0.962452 -0.026299 0.270174  0.222656 0.992188 1 0 1.000000
0  8.686583 -20.879263 39.892319  -0.969686 -0.158428 -0.186036  0.337891 0.998047 1 0 1.000000
driver
0  9.182084 -17.452953 38.593788  -0.962452 -0.026299 0.270174  0.222656 0.992188 1 0 1.000000
0  11.501258 -19.960939 42.120441  -0.041893 0.233689 0.971408  0.333984 0.917969 1 0 1.000000
0  11.374894 -16.458557 40.257019  0.166293 0.412951 0.895443  0.220703 0.927734 1 0 1.000000
driver
0  11.501258 -19.960939 42.120441  -0.041893 0.233689 0.971408  0.333984 0.917969 1 0 1.000000
0  12.682635 -17.120979 38.979939  0.923500 0.238949 0.300084  0.220703 0.917969 1 0 1.000000
0  11.374894 -16.458557 40.257019  0.166293 0.412951 0.895443  0.220703 0.927734 1 0 1.000000
driver
0  12.682635 -17.120979 38.979939  0.923500 0.238949 0.300084  0.220703 0.917969 1 0 1.000000
0  11.501258 -19.960939 42.120441  -0.041893 0.233689 0.971408  0.333984 0.917969 1 0 1.000000
0  12.573095 -20.271467 40.995193  0.647826 0.334636 0.684353  0.335938 0.916016 1 0 1.000000
driver
0  12.186612 -21.808723 41.999676  0.147341 -0.190102 0.970645  0.400391 0.917969 1 0 1.000000
0  12.573095 -20.271467 40.995193  0.647826 0.334636 0.684353  0.335938 0.916016 1 0 1.000000
0  11.501258 -19.960939 42.120441  -0.041893 0.233689 0.971408  0.333984 0.917969 1 0 1.000000
driver
0  12.573095 -20.271467 40.995193  0.647826 0.334636 0.684353  0.335938 0.916016 1 0 1.000000
0  12.186612 -21.808723 41.999676  0.147341 -0.190102 0.970645  0.400391 0.917969 1 0 1.000000
0  12.617662 -21.402374 41.545662  0.634542 0.217267 0.741722  0.382812 0.917969 1 0 1.000000
driver
0  13.141407 -22.959576 41.275745  0.462123 -0.188843 0.866476  0.441406 0.919922 1 0 1.000000
0  12.617662 -21.402374 41.545662  0.634542 0.217267 0.741722  0.382812 0.917969 1 0 1.000000
0  12.186612 -21.808723 41.999676  0.147341 -0.190102 0.970645  0.400391 0.917969 1 0 1.000000
driver
0  12.617662 -21.402374 41.545662  0.634542 0.217267 0.741722  0.382812 0.917969 1 0 1.000000
0  13.141407 -22.959576 41.275745  0.462123 -0.188843 0.866476  0.441406 0.919922 1 0 1.000000
0  13.310164 -22.675877 41.028656  0.739605 0.134440 0.659477  0.445312 0.917969 1 0 1.000000
driver
0  12.186612 -21.808723 41.999676  0.147341 -0.190102 0.970645  0.400391 0.917969 1 0 1.000000
0  10.255184 -23.305969 39.513199  -0.709505 -0.702567 0.054790  0.439453 0.996094 1 0 1.000000
0  13.141407 -22.959576 41.275745  0.462123 -0.188843 0.866476  0.441406 0.919922 1 0 1.000000
driver
0  10.255184 -23.305969 39.513199  -0.709505 -0.702567 0.054790  0.439453 0.996094 1 0 1.000000
0  12.186612 -21.808723 41.999676  0.147341 -0.190102 0.970645  0.400391 0.917969 1 0 1.000000
0  9.321531 -22.316149 39.966293  -0.857157 -0.505523 0.098632  0.392578 0.998047 1 0 1.000000
driver
0  11.501258 -19.960939 42.120441  -0.041893 0.233689 0.971408  0.333984 0.917969 1 0 1.000000
0  9.321531 -22.316149 39.966293  -0.857157 -0.505523 0.098632  0.392578 0.998047 1 0 1.000000
0  12.186612 -21.808723 41.999676  0.147341 -0.190102 0.970645  0.400391 0.917969 1 0 1.000000
driver
0  9.321531 -22.316149 39.966293  -0.857157 -0.505523 0.098632  0.392578 0.998047 1 0 1.000000
0  11.501258 -19.960939 42.120441  -0.041893 0.233689 0.971408  0.333984 0.917969 1 0 1.000000
0  8.686583 -20.879263 39.892319  -0.969686 -0.158428 -0.186036  0.337891 0.998047 1 0 1.000000
driver
0  9.791022 -3.090054 19.739645  -0.997971 -0.063234 0.007403  0.496094 0.984375 1 0 1.000000
0  12.438077 1.003269 13.181007  -0.942918 0.154585 -0.294973  0.484375 0.919922 1 0 1.000000
0  12.037585 -18.099346 16.713636  -0.969310 -0.055384 -0.239520  0.531250 0.921875 1 0 1.000000
driver
0  12.037585 -18.099346 16.713636  -0.969310 -0.055384 -0.239520  0.531250 0.921875 1 0 1.000000
0  11.171631 -17.616465 22.060555  -0.912620 -0.117314 0.391613  0.496094 0.984375 1 0 1.000000
0  9.791022 -3.090054 19.739645  -0.997971 -0.063234 0.007403  0.496094 0.984375 1 0 1.000000
driver
0  12.037585 -18.099346 16.713636  -0.969310 -0.055384 -0.239520  0.531250 0.921875 1 0 1.000000
0  13.181546 -36.070808 8.810747  -0.996002 -0.080129 -0.039495  0.984375 0.921875 1 0 1.000000
0  11.171631 -17.616465 22.060555  -0.912620 -0.117314 0.391613  0.496094 0.984375 1 0 1.000000
driver
0  13.181546 -36.070808 8.810747  -0.996002 -0.080129 -0.039495  0.984375 0.921875 1 0 1.000000
0  14.109721 -38.080517 15.903500  -0.711592 -0.340148 0.614764  0.984375 0.984375 1 0 1.000000
0  11.171631 -17.616465 22.060555  -0.912620 -0.117314 0.391613  0.496094 0.984375 1 0 1.000000
driver
0  24.223083 -22.583910 40.243828  -0.633061 0.134320 0.762359  0.445312 0.917969 1 0 1.000000
0  24.426872 -22.867609 40.463043  -0.328105 -0.188931 0.925555  0.441406 0.919922 1 0 1.000000
0  24.984804 -21.310406 40.651997  -0.516998 0.217272 0.827953  0.382812 0.917969 1 0 1.000000
driver
0  25.478626 -21.716755 41.036812  -0.001284 -0.190100 0.981764  0.400391 0.917969 1 0 1.000000
0  24.984804 -21.310406 40.651997  -0.516998 0.217272 0.827953  0.382812 0.917969 1 0 1.000000
0  24.426872 -22.867609 40.463043  -0.328105 -0.188931 0.925555  0.441406 0.919922 1 0 1.000000
driver
0  24.426872 -22.867609 40.463043  -0.328105 -0.188931 0.925555  0.441406 0.919922 1 0 1.000000
0  27.018681 -23.214001 38.290653  0.709760 -0.702564 -0.051425  0.439453 0.996094 1 0 1.000000
0  25.478626 -21.716755 41.036812  -0.001284 -0.190100 0.981764  0.400391 0.917969 1 0 1.000000
driver
0  28.009226 -22.224445 38.599766  0.862287 -0.505529 -0.030021  0.392578 0.998047 1 0 1.000000
0  25.478626 -21.716755 41.036812  -0.001284 -0.190100 0.981764  0.400391 0.917969 1 0 1.000000
0  27.018681 -23.214001 38.290653  0.709760 -0.702564 -0.051425  0.439453 0.996094 1 0 1.000000
driver
0  28.009226 -22.224445 38.599766  0.862287 -0.505529 -0.030021  0.392578 0.998047 1 0 1.000000
0  27.018681 -23.214001 38.290653  0.709760 -0.702564 -0.051425  0.439453 0.996094 1 0 1.000000
0  27.465281 -22.011436 38.023659  0.628652 -0.351585 -0.693675  0.382812 0.998047 1 0 1.000000
driver
0  27.465281 -22.011436 38.023659  0.628652 -0.351585 -0.693675  0.382812 0.998047 1 0 1.000000
0  27.622286 -21.075718 37.785851  0.596858 -0.260422 -0.758908  0.337891 0.998047 1 0 1.000000
0  28.009226 -22.224445 38.599766  0.862287 -0.505529 -0.030021  0.392578 0.998047 1 0 1.000000
driver
0  28.626118 -20.787556 38.432137  0.931230 -0.158384 -0.328216  0.337891 0.998047 1 0 1.000000
0  28.009226 -22.224445 38.599766  0.862287 -0.505529 -0.030021  0.392578 0.998047 1 0 1.000000
0  27.622286 -21.075718 37.785851  0.596858 -0.260422 -0.758908  0.337891 0.998047 1 0 1.000000
driver
0  27.622286 -21.075718 37.785851  0.596858 -0.260422 -0.758908  0.337891 0.998047 1 0 1.000000
0  26.290325 -18.046289 36.274090  0.108351 -0.432021 -0.895331  0.222656 0.998047 1 0 1.000000
0  28.626118 -20.787556 38.432137  0.931230 -0.158384 -0.328216  0.337891 0.998047 1 0 1.000000
driver
0  27.942898 -17.361248 37.221794  0.981355 -0.124739 0.146227  0.222656 0.992188 1 0 1.000000
0  28.626118 -20.787556 38.432137  0.931230 -0.158384 -0.328216  0.337891 0.998047 1 0 1.000000
0  26.290325 -18.046289 36.274090  0.108351 -0.432021 -0.895331  0.222656 0.998047 1 0 1.000000
driver
0  28.626118 -20.787556 38.432137  0.931230 -0.158384 -0.328216  0.337891 0.998047 1 0 1.000000
0  27.942898 -17.361248 37.221794  0.981355 -0.124739 0.146227  0.222656 0.992188 1 0 1.000000
0  26.174303 -19.868971 41.054260  0.185975 0.233693 0.954359  0.333984 0.917969 1 0 1.000000
driver
0  26.021969 -16.366587 39.192780  -0.083629 0.432854 0.897577  0.220703 0.927734 1 0 1.000000
0  26.174303 -19.868971 41.054260  0.185975 0.233693 0.954359  0.333984 0.917969 1 0 1.000000
0  27.942898 -17.361248 37.221794  0.981355 -0.124739 0.146227  0.222656 0.992188 1 0 1.000000
driver
0  26.021969 -16.366587 39.192780  -0.083629 0.432854 0.897577  0.220703 0.927734 1 0 1.000000
0  24.538778 -17.029011 38.124516  -0.847910 0.334883 0.410977  0.220703 0.917969 1 0 1.000000
0  26.174303 -19.868971 41.054260  0.185975 0.233693 0.954359  0.333984 0.917969 1 0 1.000000
driver
0  24.946966 -20.179499 40.101051  -0.538772 0.334640 0.773137  0.335938 0.916016 1 0 1.000000
0  26.174303 -19.868971 41.054260  0.185975 0.233693 0.954359  0.333984 0.917969 1 0 1.000000
0  24.538778 -17.029011 38.124516  -0.847910 0.334883 0.410977  0.220703 0.917969 1 0 1.000000
driver
0  26.174303 -19.868971 41.054260  0.185975 0.233693 0.954359  0.333984 0.917969 1 0 1.000000
0  24.946966 -20.179499 40.101051  -0.538772 0.334640 0.773137  0.335938 0.916016 1 0 1.000000
0  25.478626 -21.716755 41.036812  -0.001284 -0.190100 0.981764  0.400391 0.917969 1 0 1.000000
driver
0  24.984804 -21.310406 40.651997  -0.516998 0.217272 0.827953  0.382812 0.917969 1 0 1.000000
0  25.478626 -21.716755 41.036812  -0.001284 -0.190100 0.981764  0.400391 0.917969 1 0 1.000000
0  24.946966 -20.179499 40.101051  -0.538772 0.334640 0.773137  0.335938 0.916016 1 0 1.000000
driver
0  25.478626 -21.716755 41.036812  -0.001284 -0.190100 0.981764  0.400391 0.917969 1 0 1.000000
0  28.009226 -22.224445 38.599766  0.862287 -0.505529 -0.030021  0.392578 0.998047 1 0 1.000000
0  26.174303 -19.868971 41.054260  0.185975 0.233693 0.954359  0.333984 0.917969 1 0 1.000000
driver
0  28.626118 -20.787556 38.432137  0.931230 -0.158384 -0.328216  0.337891 0.998047 1 0 1.000000
0  26.174303 -19.868971 41.054260  0.185975 0.233693 0.954359  0.333984 0.917969 1 0 1.000000
0  28.009226 -22.224445 38.599766  0.862287 -0.505529 -0.030021  0.392578 0.998047 1 0 1.000000
driver
0  26.671585 -22.800232 37.711235  0.643597 -0.385778 -0.661029  0.445312 0.998047 1 0 1.000000
0  27.465281 -22.011436 38.023659  0.628652 -0.351585 -0.693675  0.382812 0.998047 1 0 1.000000
0  27.018681 -23.214001 38.290653  0.709760 -0.702564 -0.051425  0.439453 0.996094 1 0 1.000000
driver
0  25.350286 4.516064 18.155952  0.947639 0.301052 -0.106528  0.109375 0.519531 1 0 1.000000
0  27.975328 -0.909887 21.927582  0.999124 0.038958 -0.015274  0.076172 0.683594 1 0 1.000000
0  25.264410 1.003273 13.181005  0.942919 0.154581 -0.294972  0.000000 0.521484 1 0 1.000000
driver
0  27.911467 -3.090052 19.739643  0.997972 -0.063217 0.007406  0.000000 0.683594 1 0 1.000000
0  25.264410 1.003273 13.181005  0.942919 0.154581 -0.294972  0.000000 0.521484 1 0 1.000000
0  27.975328 -0.909887 21.927582  0.999124 0.038958 -0.015274  0.076172 0.683594 1 0 1.000000
driver
0  9.791022 -3.090054 19.739645  -0.997971 -0.063234 0.007403  0.521484 0.050781 1 0 1.000000
0  12.396262 -5.990600 24.028677  -0.734425 -0.401305 0.547333  0.580078 0.175781 1 0 1.000000
0  9.727228 -0.909887 21.927584  -0.999124 0.038955 -0.015262  0.585938 0.050781 1 0 1.000000
end
