version 1
nodes
0 "root" -1
1 "steering_wheel" 0
end
skeleton
time 0
0  0.000000 0.000000 0.000000  0.000000 -0.000000 -1.570797
1  19.916300 17.934299 33.308498  0.000000 -0.000000 0.000000
end
triangles
black
0  24.843718 108.280212 5.877194  -0.583008 0.774540 0.245334  0.993194 0.539048 1 0 1.000000
0  23.976595 108.417847 6.441512  0.000395 0.966923 -0.255068  0.992218 0.611316 1 0 1.000000
0  24.995121 108.486664 6.634205  -0.659151 0.698734 -0.278012  0.993194 0.539048 1 0 1.000000
black
0  24.183052 108.170090 5.450514  -0.132429 0.816045 0.562612  0.993194 0.539048 1 0 1.000000
0  23.976595 108.417847 6.441512  0.000395 0.966923 -0.255068  0.992218 0.611316 1 0 1.000000
0  24.843718 108.280212 5.877194  -0.583008 0.774540 0.245334  0.993194 0.539048 1 0 1.000000
black
0  23.398516 108.211380 5.601916  0.409220 0.789111 0.458085  0.993194 0.539048 1 0 1.000000
0  23.976595 108.417847 6.441512  0.000395 0.966923 -0.255068  0.992218 0.611316 1 0 1.000000
0  24.183052 108.170090 5.450514  -0.132429 0.816045 0.562612  0.993194 0.539048 1 0 1.000000
black
0  22.944307 108.376556 6.248817  0.699694 0.714442 0.000418  0.993194 0.539048 1 0 1.000000
0  23.976595 108.417847 6.441512  0.000395 0.966923 -0.255068  0.992218 0.611316 1 0 1.000000
0  23.398516 108.211380 5.601916  0.409220 0.789111 0.458085  0.993194 0.539048 1 0 1.000000
black
0  23.109472 108.583008 7.005829  0.565296 0.647350 -0.511252  0.993194 0.539048 1 0 1.000000
0  23.976595 108.417847 6.441512  0.000395 0.966923 -0.255068  0.992218 0.611316 1 0 1.000000
0  22.944307 108.376556 6.248817  0.699694 0.714442 0.000418  0.993194 0.539048 1 0 1.000000
black
0  23.770138 108.693123 7.432509  0.130715 0.621684 -0.772284  0.992218 0.539048 1 0 1.000000
0  23.976595 108.417847 6.441512  0.000395 0.966923 -0.255068  0.992218 0.611316 1 0 1.000000
0  23.109472 108.583008 7.005829  0.565296 0.647350 -0.511252  0.993194 0.539048 1 0 1.000000
black
0  24.554678 108.651825 7.281106  -0.353946 0.640719 -0.681323  0.992218 0.539048 1 0 1.000000
0  23.976595 108.417847 6.441512  0.000395 0.966923 -0.255068  0.992218 0.611316 1 0 1.000000
0  23.770138 108.693123 7.432509  0.130715 0.621684 -0.772284  0.992218 0.539048 1 0 1.000000
black
0  24.995121 108.486664 6.634205  -0.659151 0.698734 -0.278012  0.992218 0.539048 1 0 1.000000
0  23.976595 108.417847 6.441512  0.000395 0.966923 -0.255068  0.992218 0.611316 1 0 1.000000
0  24.554678 108.651825 7.281106  -0.353946 0.640719 -0.681323  0.992218 0.539048 1 0 1.000000
exhaust
0  23.770138 108.693123 7.432509  0.130715 0.621684 -0.772284  0.177740 0.211890 1 0 1.000000
0  23.315931 112.244194 8.038119  0.399005 0.199777 -0.894921  0.027345 0.211890 1 0 1.000000
0  23.976595 112.147842 8.175757  0.067063 0.205545 -0.976347  0.027345 0.211890 1 0 1.000000
exhaust
0  23.315931 112.244194 8.038119  0.399005 0.199777 -0.894921  0.027345 0.211890 1 0 1.000000
0  23.770138 108.693123 7.432509  0.130715 0.621684 -0.772284  0.177740 0.211890 1 0 1.000000
0  23.109472 108.583008 7.005829  0.565296 0.647350 -0.511252  0.177740 0.211890 1 0 1.000000
exhaust
0  23.109472 108.583008 7.005829  0.565296 0.647350 -0.511252  0.177740 0.211890 1 0 1.000000
0  22.751612 112.244194 7.666496  0.665088 0.194801 -0.720909  0.027345 0.211890 1 0 1.000000
0  23.315931 112.244194 8.038119  0.399005 0.199777 -0.894921  0.027345 0.211890 1 0 1.000000
exhaust
0  23.109472 108.583008 7.005829  0.565296 0.647350 -0.511252  0.177740 0.211890 1 0 1.000000
0  22.379990 112.106552 7.102177  0.874513 0.193453 -0.444750  0.027345 0.211890 1 0 1.000000
0  22.751612 112.244194 7.666496  0.665088 0.194801 -0.720909  0.027345 0.211890 1 0 1.000000
exhaust
0  22.379990 112.106552 7.102177  0.874513 0.193453 -0.444750  0.027345 0.211890 1 0 1.000000
0  23.109472 108.583008 7.005829  0.565296 0.647350 -0.511252  0.177740 0.211890 1 0 1.000000
0  22.944307 108.376556 6.248817  0.699694 0.714442 0.000418  0.177740 0.211890 1 0 1.000000
exhaust
0  22.944307 108.376556 6.248817  0.699694 0.714442 0.000418  0.177740 0.211890 1 0 1.000000
0  22.242350 111.886337 6.441513  0.970919 0.202259 -0.128093  0.027345 0.211890 1 0 1.000000
0  22.379990 112.106552 7.102177  0.874513 0.193453 -0.444750  0.027345 0.211890 1 0 1.000000
exhaust
0  22.944307 108.376556 6.248817  0.699694 0.714442 0.000418  0.177740 0.211890 1 0 1.000000
0  22.379990 111.569771 5.780848  0.946360 0.210174 0.245418  0.027345 0.211890 1 0 1.000000
0  22.242350 111.886337 6.441513  0.970919 0.202259 -0.128093  0.027345 0.211890 1 0 1.000000
exhaust
0  22.379990 111.569771 5.780848  0.946360 0.210174 0.245418  0.027345 0.211890 1 0 1.000000
0  22.944307 108.376556 6.248817  0.699694 0.714442 0.000418  0.177740 0.211890 1 0 1.000000
0  23.398516 108.211380 5.601916  0.409220 0.789111 0.458085  0.177740 0.211890 1 0 1.000000
exhaust
0  23.398516 108.211380 5.601916  0.409220 0.789111 0.458085  0.177740 0.211890 1 0 1.000000
0  22.751612 111.266960 5.230293  0.791361 0.236125 0.563909  0.027345 0.211890 1 0 1.000000
0  22.379990 111.569771 5.780848  0.946360 0.210174 0.245418  0.027345 0.211890 1 0 1.000000
exhaust
0  23.398516 108.211380 5.601916  0.409220 0.789111 0.458085  0.177740 0.211890 1 0 1.000000
0  23.315931 110.977921 4.844906  0.475940 0.250138 0.843156  0.027345 0.211890 1 0 1.000000
0  22.751612 111.266960 5.230293  0.791361 0.236125 0.563909  0.027345 0.211890 1 0 1.000000
exhaust
0  23.315931 110.977921 4.844906  0.475940 0.250138 0.843156  0.027345 0.211890 1 0 1.000000
0  23.398516 108.211380 5.601916  0.409220 0.789111 0.458085  0.177740 0.211890 1 0 1.000000
0  24.183052 108.170090 5.450514  -0.132429 0.816045 0.562612  0.177740 0.211890 1 0 1.000000
exhaust
0  24.183052 108.170090 5.450514  -0.132429 0.816045 0.562612  0.177740 0.211890 1 0 1.000000
0  23.976595 110.771454 4.721031  0.103209 0.276624 0.955420  0.027345 0.211890 1 0 1.000000
0  23.315931 110.977921 4.844906  0.475940 0.250138 0.843156  0.027345 0.211890 1 0 1.000000
exhaust
0  24.183052 108.170090 5.450514  -0.132429 0.816045 0.562612  0.177740 0.211890 1 0 1.000000
0  24.637260 110.661346 4.844906  -0.354714 0.281675 0.891536  0.027345 0.211890 1 0 1.000000
0  23.976595 110.771454 4.721031  0.103209 0.276624 0.955420  0.027345 0.211890 1 0 1.000000
exhaust
0  24.637260 110.661346 4.844906  -0.354714 0.281675 0.891536  0.027345 0.211890 1 0 1.000000
0  24.183052 108.170090 5.450514  -0.132429 0.816045 0.562612  0.177740 0.211890 1 0 1.000000
0  24.843718 108.280212 5.877194  -0.583008 0.774540 0.245334  0.177740 0.211890 1 0 1.000000
exhaust
0  24.843718 108.280212 5.877194  -0.583008 0.774540 0.245334  0.177740 0.211890 1 0 1.000000
0  25.201578 110.688873 5.230293  -0.705050 0.280266 0.651426  0.027345 0.211890 1 0 1.000000
0  24.637260 110.661346 4.844906  -0.354714 0.281675 0.891536  0.027345 0.211890 1 0 1.000000
exhaust
0  24.843718 108.280212 5.877194  -0.583008 0.774540 0.245334  0.177740 0.211890 1 0 1.000000
0  25.573204 110.826508 5.780848  -0.928129 0.268468 0.257879  0.027345 0.211890 1 0 1.000000
0  25.201578 110.688873 5.230293  -0.705050 0.280266 0.651426  0.027345 0.211890 1 0 1.000000
exhaust
0  25.573204 110.826508 5.780848  -0.928129 0.268468 0.257879  0.027345 0.211890 1 0 1.000000
0  24.843718 108.280212 5.877194  -0.583008 0.774540 0.245334  0.177740 0.211890 1 0 1.000000
0  24.995121 108.486664 6.634205  -0.659151 0.698734 -0.278012  0.177740 0.211890 1 0 1.000000
exhaust
0  24.995121 108.486664 6.634205  -0.659151 0.698734 -0.278012  0.177740 0.211890 1 0 1.000000
0  25.697077 111.074265 6.441513  -0.959337 0.249359 -0.132260  0.027345 0.211890 1 0 1.000000
0  25.573204 110.826508 5.780848  -0.928129 0.268468 0.257879  0.027345 0.211890 1 0 1.000000
exhaust
0  24.995121 108.486664 6.634205  -0.659151 0.698734 -0.278012  0.177740 0.211890 1 0 1.000000
0  25.573204 111.349541 7.102177  -0.823828 0.240204 -0.513430  0.027345 0.211890 1 0 1.000000
0  25.697077 111.074265 6.441513  -0.959337 0.249359 -0.132260  0.027345 0.211890 1 0 1.000000
exhaust
0  25.573204 111.349541 7.102177  -0.823828 0.240204 -0.513430  0.027345 0.211890 1 0 1.000000
0  24.995121 108.486664 6.634205  -0.659151 0.698734 -0.278012  0.177740 0.211890 1 0 1.000000
0  24.554678 108.651825 7.281106  -0.353946 0.640719 -0.681323  0.177740 0.211890 1 0 1.000000
exhaust
0  24.554678 108.651825 7.281106  -0.353946 0.640719 -0.681323  0.177740 0.211890 1 0 1.000000
0  25.201578 111.666115 7.666495  -0.583926 0.223485 -0.780439  0.027345 0.211890 1 0 1.000000
0  25.573204 111.349541 7.102177  -0.823828 0.240204 -0.513430  0.027345 0.211890 1 0 1.000000
exhaust
0  24.554678 108.651825 7.281106  -0.353946 0.640719 -0.681323  0.177740 0.211890 1 0 1.000000
0  24.637260 111.941391 8.038119  -0.260274 0.216962 -0.940843  0.027345 0.211890 1 0 1.000000
0  25.201578 111.666115 7.666495  -0.583926 0.223485 -0.780439  0.027345 0.211890 1 0 1.000000
exhaust
0  24.637260 111.941391 8.038119  -0.260274 0.216962 -0.940843  0.027345 0.211890 1 0 1.000000
0  24.554678 108.651825 7.281106  -0.353946 0.640719 -0.681323  0.177740 0.211890 1 0 1.000000
0  23.770138 108.693123 7.432509  0.130715 0.621684 -0.772284  0.177740 0.211890 1 0 1.000000
exhaust
0  23.770138 108.693123 7.432509  0.130715 0.621684 -0.772284  0.177740 0.211890 1 0 1.000000
0  23.976595 112.147842 8.175757  0.067063 0.205545 -0.976347  0.027345 0.211890 1 0 1.000000
0  24.637260 111.941391 8.038119  -0.260274 0.216962 -0.940843  0.027345 0.211890 1 0 1.000000
exhaustchrome
0  23.260876 112.134079 8.189522  -0.319017 0.430815 0.844172  0.005860 0.160131 1 0 1.000000
0  23.976595 112.010208 8.327161  0.085664 0.409722 0.908179  0.005860 0.160131 1 0 1.000000
0  23.976595 112.147842 8.175757  0.152343 0.750932 0.642567  0.005860 0.160131 1 0 1.000000
exhaustchrome
0  24.637260 111.941391 8.038119  0.465147 0.698676 0.543591  0.005860 0.160131 1 0 1.000000
0  23.976595 112.147842 8.175757  0.152343 0.750932 0.642567  0.005860 0.160131 1 0 1.000000
0  23.976595 112.010208 8.327161  0.085664 0.409722 0.908179  0.005860 0.160131 1 0 1.000000
exhaustchrome
0  23.976595 112.010208 8.327161  0.085664 0.409722 0.908179  0.005860 0.160131 1 0 1.000000
0  24.692318 111.789993 8.189522  0.464218 0.372326 0.803663  0.005860 0.160131 1 0 1.000000
0  24.637260 111.941391 8.038119  0.465147 0.698676 0.543591  0.005860 0.160131 1 0 1.000000
exhaustchrome
0  25.201578 111.666115 7.666495  0.689003 0.640956 0.338304  0.005860 0.160131 1 0 1.000000
0  24.637260 111.941391 8.038119  0.465147 0.698676 0.543591  0.005860 0.160131 1 0 1.000000
0  24.692318 111.789993 8.189522  0.464218 0.372326 0.803663  0.005860 0.160131 1 0 1.000000
exhaustchrome
0  24.692318 111.789993 8.189522  0.464218 0.372326 0.803663  0.005860 0.160131 1 0 1.000000
0  25.311691 111.487175 7.776607  0.753915 0.333380 0.566100  0.005860 0.160131 1 0 1.000000
0  25.201578 111.666115 7.666495  0.689003 0.640956 0.338304  0.005860 0.160131 1 0 1.000000
exhaustchrome
0  25.573204 111.349541 7.102177  0.803745 0.589254 0.082301  0.005860 0.160131 1 0 1.000000
0  25.201578 111.666115 7.666495  0.689003 0.640956 0.338304  0.005860 0.160131 1 0 1.000000
0  25.311691 111.487175 7.776607  0.753915 0.333380 0.566100  0.005860 0.160131 1 0 1.000000
exhaustchrome
0  25.311691 111.487175 7.776607  0.753915 0.333380 0.566100  0.005860 0.160131 1 0 1.000000
0  25.710840 111.156853 7.170996  0.920449 0.296529 0.254645  0.005860 0.160131 1 0 1.000000
0  25.573204 111.349541 7.102177  0.803745 0.589254 0.082301  0.005860 0.160131 1 0 1.000000
exhaustchrome
0  25.697077 111.074265 6.441513  0.812980 0.551370 -0.187231  0.005860 0.160131 1 0 1.000000
0  25.573204 111.349541 7.102177  0.803745 0.589254 0.082301  0.005860 0.160131 1 0 1.000000
0  25.710840 111.156853 7.170996  0.920449 0.296529 0.254645  0.005860 0.160131 1 0 1.000000
exhaustchrome
0  25.710840 111.156853 7.170996  0.920449 0.296529 0.254645  0.005860 0.160131 1 0 1.000000
0  25.862244 110.854034 6.441513  0.956490 0.275194 -0.096923  0.005860 0.160131 1 0 1.000000
0  25.697077 111.074265 6.441513  0.812980 0.551370 -0.187231  0.005860 0.160131 1 0 1.000000
exhaustchrome
0  25.573204 110.826508 5.780848  0.727948 0.521366 -0.445274  0.005860 0.160131 1 0 1.000000
0  25.697077 111.074265 6.441513  0.812980 0.551370 -0.187231  0.005860 0.160131 1 0 1.000000
0  25.862244 110.854034 6.441513  0.956490 0.275194 -0.096923  0.005860 0.160131 1 0 1.000000
exhaustchrome
0  25.862244 110.854034 6.441513  0.956490 0.275194 -0.096923  0.005860 0.160131 1 0 1.000000
0  25.710840 110.578766 5.725792  0.867867 0.251471 -0.428449  0.005860 0.160131 1 0 1.000000
0  25.573204 110.826508 5.780848  0.727948 0.521366 -0.445274  0.005860 0.160131 1 0 1.000000
exhaustchrome
0  25.201578 110.688873 5.230293  0.569468 0.506739 -0.647242  0.005860 0.160131 1 0 1.000000
0  25.573204 110.826508 5.780848  0.727948 0.521366 -0.445274  0.005860 0.160131 1 0 1.000000
0  25.710840 110.578766 5.725792  0.867867 0.251471 -0.428449  0.005860 0.160131 1 0 1.000000
exhaustchrome
0  25.710840 110.578766 5.725792  0.867867 0.251471 -0.428449  0.005860 0.160131 1 0 1.000000
0  25.311691 110.427361 5.120183  0.667170 0.242080 -0.704473  0.005860 0.160131 1 0 1.000000
0  25.201578 110.688873 5.230293  0.569468 0.506739 -0.647242  0.005860 0.160131 1 0 1.000000
exhaustchrome
0  24.637260 110.661346 4.844906  0.356098 0.503961 -0.786904  0.005860 0.160131 1 0 1.000000
0  25.201578 110.688873 5.230293  0.569468 0.506739 -0.647242  0.005860 0.160131 1 0 1.000000
0  25.311691 110.427361 5.120183  0.667170 0.242080 -0.704473  0.005860 0.160131 1 0 1.000000
exhaustchrome
0  25.311691 110.427361 5.120183  0.667170 0.242080 -0.704473  0.005860 0.160131 1 0 1.000000
0  24.692318 110.399834 4.707267  0.383553 0.238198 -0.892272  0.005860 0.160131 1 0 1.000000
0  24.637260 110.661346 4.844906  0.356098 0.503961 -0.786904  0.005860 0.160131 1 0 1.000000
exhaustchrome
0  23.976595 110.771454 4.721031  0.106883 0.515504 -0.850195  0.005860 0.160131 1 0 1.000000
0  24.637260 110.661346 4.844906  0.356098 0.503961 -0.786904  0.005860 0.160131 1 0 1.000000
0  24.692318 110.399834 4.707267  0.383553 0.238198 -0.892272  0.005860 0.160131 1 0 1.000000
exhaustchrome
0  24.692318 110.399834 4.707267  0.383553 0.238198 -0.892272  0.005860 0.160131 1 0 1.000000
0  23.976595 110.523712 4.569629  0.052208 0.249056 -0.967081  0.005860 0.160131 1 0 1.000000
0  23.976595 110.771454 4.721031  0.106883 0.515504 -0.850195  0.005860 0.160131 1 0 1.000000
exhaustchrome
0  23.315931 110.977921 4.844906  -0.155234 0.539022 -0.827863  0.005860 0.160131 1 0 1.000000
0  23.976595 110.771454 4.721031  0.106883 0.515504 -0.850195  0.005860 0.160131 1 0 1.000000
0  23.976595 110.523712 4.569629  0.052208 0.249056 -0.967081  0.005860 0.160131 1 0 1.000000
exhaustchrome
0  23.976595 110.523712 4.569629  0.052208 0.249056 -0.967081  0.005860 0.160131 1 0 1.000000
0  23.260876 110.743927 4.707267  -0.288353 0.264399 -0.920297  0.005860 0.160131 1 0 1.000000
0  23.315931 110.977921 4.844906  -0.155234 0.539022 -0.827863  0.005860 0.160131 1 0 1.000000
exhaustchrome
0  22.751612 111.266960 5.230293  -0.396829 0.575483 -0.715085  0.005860 0.160131 1 0 1.000000
0  23.315931 110.977921 4.844906  -0.155234 0.539022 -0.827863  0.005860 0.160131 1 0 1.000000
0  23.260876 110.743927 4.707267  -0.288353 0.264399 -0.920297  0.005860 0.160131 1 0 1.000000
exhaustchrome
0  23.260876 110.743927 4.707267  -0.288353 0.264399 -0.920297  0.005860 0.160131 1 0 1.000000
0  22.641502 111.060501 5.120183  -0.590810 0.289047 -0.753256  0.005860 0.160131 1 0 1.000000
0  22.751612 111.266960 5.230293  -0.396829 0.575483 -0.715085  0.005860 0.160131 1 0 1.000000
exhaustchrome
0  22.379990 111.569771 5.780848  -0.584492 0.623032 -0.519807  0.005860 0.160131 1 0 1.000000
0  22.751612 111.266960 5.230293  -0.396829 0.575483 -0.715085  0.005860 0.160131 1 0 1.000000
0  22.641502 111.060501 5.120183  -0.590810 0.289047 -0.753256  0.005860 0.160131 1 0 1.000000
exhaustchrome
0  22.641502 111.060501 5.120183  -0.590810 0.289047 -0.753256  0.005860 0.160131 1 0 1.000000
0  22.228586 111.390831 5.725792  -0.815663 0.319840 -0.482074  0.005860 0.160131 1 0 1.000000
0  22.379990 111.569771 5.780848  -0.584492 0.623032 -0.519807  0.005860 0.160131 1 0 1.000000
exhaustchrome
0  22.242350 111.886337 6.441513  -0.690191 0.684410 -0.234988  0.005860 0.160131 1 0 1.000000
0  22.379990 111.569771 5.780848  -0.584492 0.623032 -0.519807  0.005860 0.160131 1 0 1.000000
0  22.228586 111.390831 5.725792  -0.815663 0.319840 -0.482074  0.005860 0.160131 1 0 1.000000
exhaustchrome
0  22.228586 111.390831 5.725792  -0.815663 0.319840 -0.482074  0.005860 0.160131 1 0 1.000000
0  22.090948 111.734932 6.441513  -0.921629 0.365191 -0.131284  0.005860 0.160131 1 0 1.000000
0  22.242350 111.886337 6.441513  -0.690191 0.684410 -0.234988  0.005860 0.160131 1 0 1.000000
exhaustchrome
0  22.379990 112.106552 7.102177  -0.669255 0.738196 0.084644  0.005860 0.160131 1 0 1.000000
0  22.242350 111.886337 6.441513  -0.690191 0.684410 -0.234988  0.005860 0.160131 1 0 1.000000
0  22.090948 111.734932 6.441513  -0.921629 0.365191 -0.131284  0.005860 0.160131 1 0 1.000000
exhaustchrome
0  22.090948 111.734932 6.441513  -0.921629 0.365191 -0.131284  0.005860 0.160131 1 0 1.000000
0  22.228586 111.968918 7.170996  -0.879980 0.398262 0.258887  0.005860 0.160131 1 0 1.000000
0  22.379990 112.106552 7.102177  -0.669255 0.738196 0.084644  0.005860 0.160131 1 0 1.000000
exhaustchrome
0  22.751612 112.244194 7.666496  -0.493337 0.778907 0.387198  0.005860 0.160131 1 0 1.000000
0  22.379990 112.106552 7.102177  -0.669255 0.738196 0.084644  0.005860 0.160131 1 0 1.000000
0  22.228586 111.968918 7.170996  -0.879980 0.398262 0.258887  0.005860 0.160131 1 0 1.000000
exhaustchrome
0  22.228586 111.968918 7.170996  -0.879980 0.398262 0.258887  0.005860 0.160131 1 0 1.000000
0  22.641502 112.120316 7.776607  -0.667433 0.433247 0.605665  0.005860 0.160131 1 0 1.000000
0  22.751612 112.244194 7.666496  -0.493337 0.778907 0.387198  0.005860 0.160131 1 0 1.000000
exhaustchrome
0  23.315931 112.244194 8.038119  -0.191743 0.781398 0.593844  0.005860 0.160131 1 0 1.000000
0  22.751612 112.244194 7.666496  -0.493337 0.778907 0.387198  0.005860 0.160131 1 0 1.000000
0  22.641502 112.120316 7.776607  -0.667433 0.433247 0.605665  0.005860 0.160131 1 0 1.000000
exhaustchrome
0  22.641502 112.120316 7.776607  -0.667433 0.433247 0.605665  0.005860 0.160131 1 0 1.000000
0  23.260876 112.134079 8.189522  -0.319017 0.430815 0.844172  0.005860 0.160131 1 0 1.000000
0  23.315931 112.244194 8.038119  -0.191743 0.781398 0.593844  0.005860 0.160131 1 0 1.000000
exhaustchrome
0  23.976595 112.147842 8.175757  0.152343 0.750932 0.642567  0.005860 0.160131 1 0 1.000000
0  23.315931 112.244194 8.038119  -0.191743 0.781398 0.593844  0.005860 0.160131 1 0 1.000000
0  23.260876 112.134079 8.189522  -0.319017 0.430815 0.844172  0.005860 0.160131 1 0 1.000000
exhaustchrome
0  23.976597 102.829720 8.327158  -0.000002 -0.000000 1.000000  0.003906 0.008759 1 0 1.000000
0  23.976595 112.010208 8.327161  0.085664 0.409722 0.908179  0.003906 0.015595 1 0 1.000000
0  23.260876 112.134079 8.189522  -0.319017 0.430815 0.844172  0.023438 0.015595 1 0 1.000000
exhaustchrome
0  23.976595 112.010208 8.327161  0.085664 0.409722 0.908179  0.003906 0.015595 1 0 1.000000
0  23.976597 102.829720 8.327158  -0.000002 -0.000000 1.000000  0.003906 0.008759 1 0 1.000000
0  24.692320 102.829720 8.189519  0.382611 -0.000000 0.923909  0.023438 0.008759 1 0 1.000000
exhaustchrome
0  24.692320 102.829720 8.189519  0.382611 -0.000000 0.923909  0.023438 0.008759 1 0 1.000000
0  24.692318 111.789993 8.189522  0.464218 0.372326 0.803663  0.023438 0.015595 1 0 1.000000
0  23.976595 112.010208 8.327161  0.085664 0.409722 0.908179  0.003906 0.015595 1 0 1.000000
exhaustchrome
0  24.692318 111.789993 8.189522  0.464218 0.372326 0.803663  0.023438 0.015595 1 0 1.000000
0  24.692320 102.829720 8.189519  0.382611 -0.000000 0.923909  0.023438 0.008759 1 0 1.000000
0  25.311693 102.829720 7.776604  0.707269 0.000000 0.706945  0.078127 0.008759 1 0 1.000000
exhaustchrome
0  25.311693 102.829720 7.776604  0.707269 0.000000 0.706945  0.078127 0.008759 1 0 1.000000
0  25.311691 111.487175 7.776607  0.753915 0.333380 0.566100  0.077151 0.015595 1 0 1.000000
0  24.692318 111.789993 8.189522  0.464218 0.372326 0.803663  0.023438 0.015595 1 0 1.000000
exhaustchrome
0  25.311691 111.487175 7.776607  0.753915 0.333380 0.566100  0.077151 0.015595 1 0 1.000000
0  25.311693 102.829720 7.776604  0.707269 0.000000 0.706945  0.078127 0.008759 1 0 1.000000
0  25.710842 102.829720 7.170993  0.923500 0.000000 0.383599  0.156255 0.008759 1 0 1.000000
exhaustchrome
0  25.710842 102.829720 7.170993  0.923500 0.000000 0.383599  0.156255 0.008759 1 0 1.000000
0  25.710840 111.156853 7.170996  0.920449 0.296529 0.254645  0.156255 0.015595 1 0 1.000000
0  25.311691 111.487175 7.776607  0.753915 0.333380 0.566100  0.077151 0.015595 1 0 1.000000
exhaustchrome
0  25.710840 111.156853 7.170996  0.920449 0.296529 0.254645  0.156255 0.015595 1 0 1.000000
0  25.710842 102.829720 7.170993  0.923500 0.000000 0.383599  0.156255 0.008759 1 0 1.000000
0  25.862246 102.829720 6.441510  1.000000 0.000001 0.000037  0.249031 0.008759 1 0 1.000000
exhaustchrome
0  25.862246 102.829720 6.441510  1.000000 0.000001 0.000037  0.249031 0.008759 1 0 1.000000
0  25.862244 110.854034 6.441513  0.956490 0.275194 -0.096923  0.249031 0.015595 1 0 1.000000
0  25.710840 111.156853 7.170996  0.920449 0.296529 0.254645  0.156255 0.015595 1 0 1.000000
exhaustchrome
0  25.862244 110.854034 6.441513  0.956490 0.275194 -0.096923  0.249031 0.015595 1 0 1.000000
0  25.862246 102.829720 6.441510  1.000000 0.000001 0.000037  0.249031 0.008759 1 0 1.000000
0  25.710842 102.829720 5.725790  0.923763 0.000000 -0.382964  0.341807 0.008759 1 0 1.000000
exhaustchrome
0  25.710842 102.829720 5.725790  0.923763 0.000000 -0.382964  0.341807 0.008759 1 0 1.000000
0  25.710840 110.578766 5.725792  0.867867 0.251471 -0.428449  0.340831 0.015595 1 0 1.000000
0  25.862244 110.854034 6.441513  0.956490 0.275194 -0.096923  0.249031 0.015595 1 0 1.000000
exhaustchrome
0  25.710840 110.578766 5.725792  0.867867 0.251471 -0.428449  0.340831 0.015595 1 0 1.000000
0  25.710842 102.829720 5.725790  0.923763 0.000000 -0.382964  0.341807 0.008759 1 0 1.000000
0  25.311693 102.829720 5.120181  0.707343 0.000000 -0.706871  0.419935 0.008759 1 0 1.000000
exhaustchrome
0  25.311693 102.829720 5.120181  0.707343 0.000000 -0.706871  0.419935 0.008759 1 0 1.000000
0  25.311691 110.427361 5.120183  0.667170 0.242080 -0.704473  0.419935 0.015595 1 0 1.000000
0  25.710840 110.578766 5.725792  0.867867 0.251471 -0.428449  0.340831 0.015595 1 0 1.000000
exhaustchrome
0  25.311691 110.427361 5.120183  0.667170 0.242080 -0.704473  0.419935 0.015595 1 0 1.000000
0  25.311693 102.829720 5.120181  0.707343 0.000000 -0.706871  0.419935 0.008759 1 0 1.000000
0  24.692320 102.829720 4.707265  0.382569 0.000000 -0.923927  0.470717 0.008759 1 0 1.000000
exhaustchrome
0  24.692320 102.829720 4.707265  0.382569 0.000000 -0.923927  0.470717 0.008759 1 0 1.000000
0  24.692318 110.399834 4.707267  0.383553 0.238198 -0.892272  0.469741 0.015595 1 0 1.000000
0  25.311691 110.427361 5.120183  0.667170 0.242080 -0.704473  0.419935 0.015595 1 0 1.000000
exhaustchrome
0  24.692318 110.399834 4.707267  0.383553 0.238198 -0.892272  0.469741 0.015595 1 0 1.000000
0  24.692320 102.829720 4.707265  0.382569 0.000000 -0.923927  0.470717 0.008759 1 0 1.000000
0  23.976597 102.829720 4.569627  0.000001 0.000000 -1.000000  0.492203 0.008759 1 0 1.000000
exhaustchrome
0  23.976597 102.829720 4.569627  0.000001 0.000000 -1.000000  0.492203 0.008759 1 0 1.000000
0  23.976595 110.523712 4.569629  0.052208 0.249056 -0.967081  0.492203 0.015595 1 0 1.000000
0  24.692318 110.399834 4.707267  0.383553 0.238198 -0.892272  0.469741 0.015595 1 0 1.000000
exhaustchrome
0  23.976595 110.523712 4.569629  0.052208 0.249056 -0.967081  0.492203 0.015595 1 0 1.000000
0  23.976597 102.829720 4.569627  0.000001 0.000000 -1.000000  0.492203 0.008759 1 0 1.000000
0  23.260878 102.829720 4.707265  -0.382566 0.000000 -0.923928  0.470717 0.008759 1 0 1.000000
exhaustchrome
0  23.260878 102.829720 4.707265  -0.382566 0.000000 -0.923928  0.470717 0.008759 1 0 1.000000
0  23.260876 110.743927 4.707267  -0.288353 0.264399 -0.920297  0.469741 0.015595 1 0 1.000000
0  23.976595 110.523712 4.569629  0.052208 0.249056 -0.967081  0.492203 0.015595 1 0 1.000000
exhaustchrome
0  23.260876 110.743927 4.707267  -0.288353 0.264399 -0.920297  0.469741 0.015595 1 0 1.000000
0  23.260878 102.829720 4.707265  -0.382566 0.000000 -0.923928  0.470717 0.008759 1 0 1.000000
0  22.641504 102.829720 5.120181  -0.707102 -0.000000 -0.707112  0.419935 0.008759 1 0 1.000000
exhaustchrome
0  22.641504 102.829720 5.120181  -0.707102 -0.000000 -0.707112  0.419935 0.008759 1 0 1.000000
0  22.641502 111.060501 5.120183  -0.590810 0.289047 -0.753256  0.419935 0.015595 1 0 1.000000
0  23.260876 110.743927 4.707267  -0.288353 0.264399 -0.920297  0.469741 0.015595 1 0 1.000000
exhaustchrome
0  22.641502 111.060501 5.120183  -0.590810 0.289047 -0.753256  0.419935 0.015595 1 0 1.000000
0  22.641504 102.829720 5.120181  -0.707102 -0.000000 -0.707112  0.419935 0.008759 1 0 1.000000
0  22.228588 102.829720 5.725790  -0.923557 -0.000000 -0.383460  0.341807 0.008759 1 0 1.000000
exhaustchrome
0  22.228588 102.829720 5.725790  -0.923557 -0.000000 -0.383460  0.341807 0.008759 1 0 1.000000
0  22.228586 111.390831 5.725792  -0.815663 0.319840 -0.482074  0.340831 0.015595 1 0 1.000000
0  22.641502 111.060501 5.120183  -0.590810 0.289047 -0.753256  0.419935 0.015595 1 0 1.000000
exhaustchrome
0  22.228586 111.390831 5.725792  -0.815663 0.319840 -0.482074  0.340831 0.015595 1 0 1.000000
0  22.228588 102.829720 5.725790  -0.923557 -0.000000 -0.383460  0.341807 0.008759 1 0 1.000000
0  22.090950 102.829720 6.441510  -1.000000 -0.000001 0.000030  0.249031 0.008759 1 0 1.000000
exhaustchrome
0  22.090950 102.829720 6.441510  -1.000000 -0.000001 0.000030  0.249031 0.008759 1 0 1.000000
0  22.090948 111.734932 6.441513  -0.921629 0.365191 -0.131284  0.249031 0.015595 1 0 1.000000
0  22.228586 111.390831 5.725792  -0.815663 0.319840 -0.482074  0.340831 0.015595 1 0 1.000000
exhaustchrome
0  22.090948 111.734932 6.441513  -0.921629 0.365191 -0.131284  0.249031 0.015595 1 0 1.000000
0  22.090950 102.829720 6.441510  -1.000000 -0.000001 0.000030  0.249031 0.008759 1 0 1.000000
0  22.228588 102.829720 7.170994  -0.923975 -0.000000 0.382454  0.156255 0.008759 1 0 1.000000
exhaustchrome
0  22.228588 102.829720 7.170994  -0.923975 -0.000000 0.382454  0.156255 0.008759 1 0 1.000000
0  22.228586 111.968918 7.170996  -0.879980 0.398262 0.258887  0.156255 0.015595 1 0 1.000000
0  22.090948 111.734932 6.441513  -0.921629 0.365191 -0.131284  0.249031 0.015595 1 0 1.000000
exhaustchrome
0  22.228586 111.968918 7.170996  -0.879980 0.398262 0.258887  0.156255 0.015595 1 0 1.000000
0  22.228588 102.829720 7.170994  -0.923975 -0.000000 0.382454  0.156255 0.008759 1 0 1.000000
0  22.641504 102.829720 7.776604  -0.706994 -0.000002 0.707219  0.078127 0.008759 1 0 1.000000
exhaustchrome
0  22.641504 102.829720 7.776604  -0.706994 -0.000002 0.707219  0.078127 0.008759 1 0 1.000000
0  22.641502 112.120316 7.776607  -0.667433 0.433247 0.605665  0.077151 0.015595 1 0 1.000000
0  22.228586 111.968918 7.170996  -0.879980 0.398262 0.258887  0.156255 0.015595 1 0 1.000000
exhaustchrome
0  22.641502 112.120316 7.776607  -0.667433 0.433247 0.605665  0.077151 0.015595 1 0 1.000000
0  22.641504 102.829720 7.776604  -0.706994 -0.000002 0.707219  0.078127 0.008759 1 0 1.000000
0  23.260878 102.829720 8.189519  -0.382474 0.000001 0.923966  0.023438 0.008759 1 0 1.000000
exhaustchrome
0  23.260878 102.829720 8.189519  -0.382474 0.000001 0.923966  0.023438 0.008759 1 0 1.000000
0  23.260876 112.134079 8.189522  -0.319017 0.430815 0.844172  0.023438 0.015595 1 0 1.000000
0  22.641502 112.120316 7.776607  -0.667433 0.433247 0.605665  0.077151 0.015595 1 0 1.000000
exhaustchrome
0  23.260876 112.134079 8.189522  -0.319017 0.430815 0.844172  0.023438 0.015595 1 0 1.000000
0  23.260878 102.829720 8.189519  -0.382474 0.000001 0.923966  0.023438 0.008759 1 0 1.000000
0  23.976597 102.829720 8.327158  -0.000002 -0.000000 1.000000  0.003906 0.008759 1 0 1.000000
end
