version 1
nodes
0 "root" -1
1 "steering_wheel" 0
end
skeleton
time 0
0  0.000000 0.000000 0.000000  0.000000 -0.000000 -1.570797
1  19.916300 17.934299 33.308498  0.000000 -0.000000 0.000000
end
triangles
  phy
0  -25.334795 102.830734 7.775304  0.707158 0.001086 -0.707055  0.000000 0.000000 1 0 1.000000
0  -25.733934 102.830742 7.169671  0.705946 -0.648248 -0.285332  0.000000 0.000000 1 0 1.000000
0  -24.715466 102.830711 8.188242  0.428533 -0.014961 -0.903402  0.000000 0.000000 1 0 1.000000
  phy
0  -25.733934 102.830742 7.169671  0.705946 -0.648248 -0.285332  0.000000 0.000000 1 0 1.000000
0  -23.999743 102.830719 8.325919  -0.000017 -0.124968 -0.992161  0.000000 0.000000 1 0 1.000000
0  -24.715466 102.830711 8.188242  0.428533 -0.014961 -0.903402  0.000000 0.000000 1 0 1.000000
  phy
0  -25.733934 102.830742 7.169671  0.705946 -0.648248 -0.285332  0.000000 0.000000 1 0 1.000000
0  -23.284010 102.830734 8.188314  -0.425522 -0.086668 -0.900788  0.000000 0.000000 1 0 1.000000
0  -23.999743 102.830719 8.325919  -0.000017 -0.124968 -0.992161  0.000000 0.000000 1 0 1.000000
  phy
0  -25.733934 102.830742 7.169671  0.705946 -0.648248 -0.285332  0.000000 0.000000 1 0 1.000000
0  -22.664621 102.830719 7.775432  -0.680056 -0.250022 -0.689212  0.000000 0.000000 1 0 1.000000
0  -23.284010 102.830734 8.188314  -0.425522 -0.086668 -0.900788  0.000000 0.000000 1 0 1.000000
  phy
0  -25.733934 102.830742 7.169671  0.705946 -0.648248 -0.285332  0.000000 0.000000 1 0 1.000000
0  -22.251677 102.830711 7.169835  -0.913388 -0.155976 -0.376025  0.000000 0.000000 1 0 1.000000
0  -22.664621 102.830719 7.775432  -0.680056 -0.250022 -0.689212  0.000000 0.000000 1 0 1.000000
  phy
0  -25.733934 102.830742 7.169671  0.705946 -0.648248 -0.285332  0.000000 0.000000 1 0 1.000000
0  -22.114002 102.830734 6.440370  -0.933859 -0.357642 -0.000055  0.000000 0.000000 1 0 1.000000
0  -22.251677 102.830711 7.169835  -0.913388 -0.155976 -0.376025  0.000000 0.000000 1 0 1.000000
  phy
0  -25.733934 102.830742 7.169671  0.705946 -0.648248 -0.285332  0.000000 0.000000 1 0 1.000000
0  -22.251606 102.830750 5.724643  -0.921087 -0.201004 0.333461  0.000000 0.000000 1 0 1.000000
0  -22.114002 102.830734 6.440370  -0.933859 -0.357642 -0.000055  0.000000 0.000000 1 0 1.000000
  phy
0  -25.733934 102.830742 7.169671  0.705946 -0.648248 -0.285332  0.000000 0.000000 1 0 1.000000
0  -22.664494 102.830742 5.119009  -0.566072 -0.592092 0.573577  0.000000 0.000000 1 0 1.000000
0  -22.251606 102.830750 5.724643  -0.921087 -0.201004 0.333461  0.000000 0.000000 1 0 1.000000
  phy
0  -25.733934 102.830742 7.169671  0.705946 -0.648248 -0.285332  0.000000 0.000000 1 0 1.000000
0  -24.715273 102.830757 4.705985  0.311613 -0.576069 0.755673  0.000000 0.000000 1 0 1.000000
0  -22.664494 102.830742 5.119009  -0.566072 -0.592092 0.573577  0.000000 0.000000 1 0 1.000000
  phy
0  -25.733934 102.830742 7.169671  0.705946 -0.648248 -0.285332  0.000000 0.000000 1 0 1.000000
0  -25.733864 102.830772 5.724446  0.939759 -0.066811 0.335245  0.000000 0.000000 1 0 1.000000
0  -24.715273 102.830757 4.705985  0.311613 -0.576069 0.755673  0.000000 0.000000 1 0 1.000000
  phy
0  -25.733934 102.830742 7.169671  0.705946 -0.648248 -0.285332  0.000000 0.000000 1 0 1.000000
0  -25.885298 102.830750 6.440178  0.999999 0.001619 0.000059  0.000000 0.000000 1 0 1.000000
0  -25.733864 102.830772 5.724446  0.939759 -0.066811 0.335245  0.000000 0.000000 1 0 1.000000
  phy
0  -25.733864 102.830772 5.724446  0.939759 -0.066811 0.335245  0.000000 0.000000 1 0 1.000000
0  -25.334679 102.830757 5.118876  0.706945 -0.019186 0.707008  0.000000 0.000000 1 0 1.000000
0  -24.715273 102.830757 4.705985  0.311613 -0.576069 0.755673  0.000000 0.000000 1 0 1.000000
  phy
0  -24.715273 102.830757 4.705985  0.311613 -0.576069 0.755673  0.000000 0.000000 1 0 1.000000
0  -23.283846 102.830772 4.706062  -0.379967 -0.032298 0.924436  0.000000 0.000000 1 0 1.000000
0  -22.664494 102.830742 5.119009  -0.566072 -0.592092 0.573577  0.000000 0.000000 1 0 1.000000
  phy
0  -24.715273 102.830757 4.705985  0.311613 -0.576069 0.755673  0.000000 0.000000 1 0 1.000000
0  -23.999531 102.830757 4.568378  0.085000 0.031139 0.995894  0.000000 0.000000 1 0 1.000000
0  -23.283846 102.830772 4.706062  -0.379967 -0.032298 0.924436  0.000000 0.000000 1 0 1.000000
  phy
0  -22.664112 111.061531 5.119003  -0.772280 0.041669 0.633914  0.000000 0.000000 1 0 1.000000
0  -22.251606 102.830750 5.724643  -0.921087 -0.201004 0.333461  0.000000 0.000000 1 0 1.000000
0  -22.664494 102.830742 5.119009  -0.566072 -0.592092 0.573577  0.000000 0.000000 1 0 1.000000
  phy
0  -22.664112 111.061531 5.119003  -0.772280 0.041669 0.633914  0.000000 0.000000 1 0 1.000000
0  -22.664494 102.830742 5.119009  -0.566072 -0.592092 0.573577  0.000000 0.000000 1 0 1.000000
0  -23.283846 102.830772 4.706062  -0.379967 -0.032298 0.924436  0.000000 0.000000 1 0 1.000000
  phy
0  -25.334328 110.428406 5.118876  0.552420 0.092471 0.828421  0.000000 0.000000 1 0 1.000000
0  -25.733864 102.830772 5.724446  0.939759 -0.066811 0.335245  0.000000 0.000000 1 0 1.000000
0  -25.719746 111.075432 6.440191  0.906176 0.398956 0.140284  0.000000 0.000000 1 0 1.000000
  phy
0  -25.733864 102.830772 5.724446  0.939759 -0.066811 0.335245  0.000000 0.000000 1 0 1.000000
0  -25.885298 102.830750 6.440178  0.999999 0.001619 0.000059  0.000000 0.000000 1 0 1.000000
0  -25.719746 111.075432 6.440191  0.906176 0.398956 0.140284  0.000000 0.000000 1 0 1.000000
  phy
0  -25.733864 102.830772 5.724446  0.939759 -0.066811 0.335245  0.000000 0.000000 1 0 1.000000
0  -25.334328 110.428406 5.118876  0.552420 0.092471 0.828421  0.000000 0.000000 1 0 1.000000
0  -25.334679 102.830757 5.118876  0.706945 -0.019186 0.707008  0.000000 0.000000 1 0 1.000000
  phy
0  -25.334328 110.428406 5.118876  0.552420 0.092471 0.828421  0.000000 0.000000 1 0 1.000000
0  -24.715273 102.830757 4.705985  0.311613 -0.576069 0.755673  0.000000 0.000000 1 0 1.000000
0  -25.334679 102.830757 5.118876  0.706945 -0.019186 0.707008  0.000000 0.000000 1 0 1.000000
  phy
0  -24.715273 102.830757 4.705985  0.311613 -0.576069 0.755673  0.000000 0.000000 1 0 1.000000
0  -25.334328 110.428406 5.118876  0.552420 0.092471 0.828421  0.000000 0.000000 1 0 1.000000
0  -23.999531 102.830757 4.568378  0.085000 0.031139 0.995894  0.000000 0.000000 1 0 1.000000
  phy
0  -24.715466 102.830711 8.188242  0.428533 -0.014961 -0.903402  0.000000 0.000000 1 0 1.000000
0  -25.224257 111.667244 7.665188  0.750761 0.155831 -0.641930  0.000000 0.000000 1 0 1.000000
0  -25.334795 102.830734 7.775304  0.707158 0.001086 -0.707055  0.000000 0.000000 1 0 1.000000
  phy
0  -25.334795 102.830734 7.775304  0.707158 0.001086 -0.707055  0.000000 0.000000 1 0 1.000000
0  -25.224257 111.667244 7.665188  0.750761 0.155831 -0.641930  0.000000 0.000000 1 0 1.000000
0  -25.733934 102.830742 7.169671  0.705946 -0.648248 -0.285332  0.000000 0.000000 1 0 1.000000
  phy
0  -22.664112 111.061531 5.119003  -0.772280 0.041669 0.633914  0.000000 0.000000 1 0 1.000000
0  -23.283846 102.830772 4.706062  -0.379967 -0.032298 0.924436  0.000000 0.000000 1 0 1.000000
0  -23.338524 110.978989 4.843696  0.034115 0.295941 0.954597  0.000000 0.000000 1 0 1.000000
  phy
0  -22.664112 111.061531 5.119003  -0.772280 0.041669 0.633914  0.000000 0.000000 1 0 1.000000
0  -22.264973 111.887474 6.440361  -0.942370 0.320244 0.096862  0.000000 0.000000 1 0 1.000000
0  -22.251606 102.830750 5.724643  -0.921087 -0.201004 0.333461  0.000000 0.000000 1 0 1.000000
  phy
0  -22.264973 111.887474 6.440361  -0.942370 0.320244 0.096862  0.000000 0.000000 1 0 1.000000
0  -22.664112 111.061531 5.119003  -0.772280 0.041669 0.633914  0.000000 0.000000 1 0 1.000000
0  -23.338524 110.978989 4.843696  0.034115 0.295941 0.954597  0.000000 0.000000 1 0 1.000000
  phy
0  -22.251606 102.830750 5.724643  -0.921087 -0.201004 0.333461  0.000000 0.000000 1 0 1.000000
0  -22.264973 111.887474 6.440361  -0.942370 0.320244 0.096862  0.000000 0.000000 1 0 1.000000
0  -22.114002 102.830734 6.440370  -0.933859 -0.357642 -0.000055  0.000000 0.000000 1 0 1.000000
  phy
0  -22.264973 111.887474 6.440361  -0.942370 0.320244 0.096862  0.000000 0.000000 1 0 1.000000
0  -22.251677 102.830711 7.169835  -0.913388 -0.155976 -0.376025  0.000000 0.000000 1 0 1.000000
0  -22.114002 102.830734 6.440370  -0.933859 -0.357642 -0.000055  0.000000 0.000000 1 0 1.000000
  phy
0  -25.334328 110.428406 5.118876  0.552420 0.092471 0.828421  0.000000 0.000000 1 0 1.000000
0  -25.719746 111.075432 6.440191  0.906176 0.398956 0.140284  0.000000 0.000000 1 0 1.000000
0  -23.338524 110.978989 4.843696  0.034115 0.295941 0.954597  0.000000 0.000000 1 0 1.000000
  phy
0  -23.999531 102.830757 4.568378  0.085000 0.031139 0.995894  0.000000 0.000000 1 0 1.000000
0  -25.334328 110.428406 5.118876  0.552420 0.092471 0.828421  0.000000 0.000000 1 0 1.000000
0  -23.338524 110.978989 4.843696  0.034115 0.295941 0.954597  0.000000 0.000000 1 0 1.000000
  phy
0  -25.719746 111.075432 6.440191  0.906176 0.398956 0.140284  0.000000 0.000000 1 0 1.000000
0  -25.885298 102.830750 6.440178  0.999999 0.001619 0.000059  0.000000 0.000000 1 0 1.000000
0  -25.733934 102.830742 7.169671  0.705946 -0.648248 -0.285332  0.000000 0.000000 1 0 1.000000
  phy
0  -23.999306 112.011299 8.325917  0.008508 0.062736 -0.997994  0.000000 0.000000 1 0 1.000000
0  -25.224257 111.667244 7.665188  0.750761 0.155831 -0.641930  0.000000 0.000000 1 0 1.000000
0  -24.715466 102.830711 8.188242  0.428533 -0.014961 -0.903402  0.000000 0.000000 1 0 1.000000
  phy
0  -24.715466 102.830711 8.188242  0.428533 -0.014961 -0.903402  0.000000 0.000000 1 0 1.000000
0  -23.999743 102.830719 8.325919  -0.000017 -0.124968 -0.992161  0.000000 0.000000 1 0 1.000000
0  -23.999306 112.011299 8.325917  0.008508 0.062736 -0.997994  0.000000 0.000000 1 0 1.000000
  phy
0  -23.284010 102.830734 8.188314  -0.425522 -0.086668 -0.900788  0.000000 0.000000 1 0 1.000000
0  -22.774290 112.245224 7.665313  -0.709343 0.277557 -0.647916  0.000000 0.000000 1 0 1.000000
0  -23.999306 112.011299 8.325917  0.008508 0.062736 -0.997994  0.000000 0.000000 1 0 1.000000
  phy
0  -23.999306 112.011299 8.325917  0.008508 0.062736 -0.997994  0.000000 0.000000 1 0 1.000000
0  -23.999743 102.830719 8.325919  -0.000017 -0.124968 -0.992161  0.000000 0.000000 1 0 1.000000
0  -23.284010 102.830734 8.188314  -0.425522 -0.086668 -0.900788  0.000000 0.000000 1 0 1.000000
  phy
0  -25.224257 111.667244 7.665188  0.750761 0.155831 -0.641930  0.000000 0.000000 1 0 1.000000
0  -23.999306 112.011299 8.325917  0.008508 0.062736 -0.997994  0.000000 0.000000 1 0 1.000000
0  -22.774290 112.245224 7.665313  -0.709343 0.277557 -0.647916  0.000000 0.000000 1 0 1.000000
  phy
0  -22.664621 102.830719 7.775432  -0.680056 -0.250022 -0.689212  0.000000 0.000000 1 0 1.000000
0  -22.774290 112.245224 7.665313  -0.709343 0.277557 -0.647916  0.000000 0.000000 1 0 1.000000
0  -23.284010 102.830734 8.188314  -0.425522 -0.086668 -0.900788  0.000000 0.000000 1 0 1.000000
  phy
0  -22.251677 102.830711 7.169835  -0.913388 -0.155976 -0.376025  0.000000 0.000000 1 0 1.000000
0  -22.774290 112.245224 7.665313  -0.709343 0.277557 -0.647916  0.000000 0.000000 1 0 1.000000
0  -22.664621 102.830719 7.775432  -0.680056 -0.250022 -0.689212  0.000000 0.000000 1 0 1.000000
  phy
0  -25.719746 111.075432 6.440191  0.906176 0.398956 0.140284  0.000000 0.000000 1 0 1.000000
0  -25.224257 111.667244 7.665188  0.750761 0.155831 -0.641930  0.000000 0.000000 1 0 1.000000
0  -22.774290 112.245224 7.665313  -0.709343 0.277557 -0.647916  0.000000 0.000000 1 0 1.000000
  phy
0  -25.224257 111.667244 7.665188  0.750761 0.155831 -0.641930  0.000000 0.000000 1 0 1.000000
0  -25.719746 111.075432 6.440191  0.906176 0.398956 0.140284  0.000000 0.000000 1 0 1.000000
0  -25.733934 102.830742 7.169671  0.705946 -0.648248 -0.285332  0.000000 0.000000 1 0 1.000000
  phy
0  -23.283846 102.830772 4.706062  -0.379967 -0.032298 0.924436  0.000000 0.000000 1 0 1.000000
0  -23.999531 102.830757 4.568378  0.085000 0.031139 0.995894  0.000000 0.000000 1 0 1.000000
0  -23.338524 110.978989 4.843696  0.034115 0.295941 0.954597  0.000000 0.000000 1 0 1.000000
  phy
0  -25.719746 111.075432 6.440191  0.906176 0.398956 0.140284  0.000000 0.000000 1 0 1.000000
0  -22.264973 111.887474 6.440361  -0.942370 0.320244 0.096862  0.000000 0.000000 1 0 1.000000
0  -23.338524 110.978989 4.843696  0.034115 0.295941 0.954597  0.000000 0.000000 1 0 1.000000
  phy
0  -22.264973 111.887474 6.440361  -0.942370 0.320244 0.096862  0.000000 0.000000 1 0 1.000000
0  -25.719746 111.075432 6.440191  0.906176 0.398956 0.140284  0.000000 0.000000 1 0 1.000000
0  -22.774290 112.245224 7.665313  -0.709343 0.277557 -0.647916  0.000000 0.000000 1 0 1.000000
  phy
0  -22.264973 111.887474 6.440361  -0.942370 0.320244 0.096862  0.000000 0.000000 1 0 1.000000
0  -22.774290 112.245224 7.665313  -0.709343 0.277557 -0.647916  0.000000 0.000000 1 0 1.000000
0  -22.251677 102.830711 7.169835  -0.913388 -0.155976 -0.376025  0.000000 0.000000 1 0 1.000000
end
