version 1
nodes
0 "root" -1
1 "steering_wheel" 0
end
skeleton
time 0
0  0.000000 0.000000 0.000000  0.000000 -0.000000 -1.570797
1  19.916300 17.934299 33.308498  0.000000 -0.000000 0.000000
end
triangles
  phy
0  24.696920 102.828560 4.708468  -0.380320 -0.071944 0.922052  0.000000 0.000000 1 0 1.000000
0  23.265480 102.828697 4.708397  0.372750 -0.548329 0.748594  0.000000 0.000000 1 0 1.000000
0  23.981207 102.828621 4.570794  0.006160 0.001086 0.999980  0.000000 0.000000 1 0 1.000000
  phy
0  24.696920 102.828560 4.708468  -0.380320 -0.071944 0.922052  0.000000 0.000000 1 0 1.000000
0  25.316278 102.828545 5.121421  -0.705567 -0.066026 0.705560  0.000000 0.000000 1 0 1.000000
0  23.265480 102.828697 4.708397  0.372750 -0.548329 0.748594  0.000000 0.000000 1 0 1.000000
  phy
0  25.316278 102.828545 5.121421  -0.705567 -0.066026 0.705560  0.000000 0.000000 1 0 1.000000
0  25.715385 102.828514 5.727039  -0.897308 -0.234563 0.373923  0.000000 0.000000 1 0 1.000000
0  23.265480 102.828697 4.708397  0.372750 -0.548329 0.748594  0.000000 0.000000 1 0 1.000000
  phy
0  25.715385 102.828514 5.727039  -0.897308 -0.234563 0.373923  0.000000 0.000000 1 0 1.000000
0  25.866760 102.828522 6.442785  -0.988573 -0.150743 0.000073  0.000000 0.000000 1 0 1.000000
0  23.265480 102.828697 4.708397  0.372750 -0.548329 0.748594  0.000000 0.000000 1 0 1.000000
  phy
0  25.866760 102.828522 6.442785  -0.988573 -0.150743 0.000073  0.000000 0.000000 1 0 1.000000
0  25.715317 102.828575 7.172249  -0.862813 -0.359160 -0.355749  0.000000 0.000000 1 0 1.000000
0  23.265480 102.828697 4.708397  0.372750 -0.548329 0.748594  0.000000 0.000000 1 0 1.000000
  phy
0  25.715317 102.828575 7.172249  -0.862813 -0.359160 -0.355749  0.000000 0.000000 1 0 1.000000
0  25.316149 102.828636 7.777841  -0.693155 -0.197128 -0.693309  0.000000 0.000000 1 0 1.000000
0  23.265480 102.828697 4.708397  0.372750 -0.548329 0.748594  0.000000 0.000000 1 0 1.000000
  phy
0  25.316149 102.828636 7.777841  -0.693155 -0.197128 -0.693309  0.000000 0.000000 1 0 1.000000
0  24.696749 102.828712 8.190722  -0.350921 -0.387340 -0.852538  0.000000 0.000000 1 0 1.000000
0  23.265480 102.828697 4.708397  0.372750 -0.548329 0.748594  0.000000 0.000000 1 0 1.000000
  phy
0  24.696749 102.828712 8.190722  -0.350921 -0.387340 -0.852538  0.000000 0.000000 1 0 1.000000
0  23.981016 102.828789 8.328325  -0.000082 -0.346502 -0.938049  0.000000 0.000000 1 0 1.000000
0  23.265480 102.828697 4.708397  0.372750 -0.548329 0.748594  0.000000 0.000000 1 0 1.000000
  phy
0  23.981016 102.828789 8.328325  -0.000082 -0.346502 -0.938049  0.000000 0.000000 1 0 1.000000
0  22.095463 102.828873 6.442583  0.956784 -0.290799 -0.000098  0.000000 0.000000 1 0 1.000000
0  23.265480 102.828697 4.708397  0.372750 -0.548329 0.748594  0.000000 0.000000 1 0 1.000000
  phy
0  23.981016 102.828789 8.328325  -0.000082 -0.346502 -0.938049  0.000000 0.000000 1 0 1.000000
0  22.645939 102.828880 7.777681  0.700870 -0.063584 -0.710450  0.000000 0.000000 1 0 1.000000
0  22.095463 102.828873 6.442583  0.956784 -0.290799 -0.000098  0.000000 0.000000 1 0 1.000000
  phy
0  23.981016 102.828789 8.328325  -0.000082 -0.346502 -0.938049  0.000000 0.000000 1 0 1.000000
0  23.265305 102.828835 8.190650  0.381269 -0.015616 -0.924332  0.000000 0.000000 1 0 1.000000
0  22.645939 102.828880 7.777681  0.700870 -0.063584 -0.710450  0.000000 0.000000 1 0 1.000000
  phy
0  22.645939 102.828880 7.777681  0.700870 -0.063584 -0.710450  0.000000 0.000000 1 0 1.000000
0  22.233068 102.828888 7.172077  0.924355 -0.016559 -0.381175  0.000000 0.000000 1 0 1.000000
0  22.095463 102.828873 6.442583  0.956784 -0.290799 -0.000098  0.000000 0.000000 1 0 1.000000
  phy
0  22.095463 102.828873 6.442583  0.956784 -0.290799 -0.000098  0.000000 0.000000 1 0 1.000000
0  22.646078 102.828758 5.121290  0.701522 -0.048179 0.711018  0.000000 0.000000 1 0 1.000000
0  23.265480 102.828697 4.708397  0.372750 -0.548329 0.748594  0.000000 0.000000 1 0 1.000000
  phy
0  22.095463 102.828873 6.442583  0.956784 -0.290799 -0.000098  0.000000 0.000000 1 0 1.000000
0  22.233139 102.828819 5.726864  0.922932 -0.017272 0.384575  0.000000 0.000000 1 0 1.000000
0  22.646078 102.828758 5.121290  0.701522 -0.048179 0.711018  0.000000 0.000000 1 0 1.000000
  phy
0  24.697277 110.398682 4.708460  -0.453243 0.039114 0.890528  0.000000 0.000000 1 0 1.000000
0  23.981207 102.828621 4.570794  0.006160 0.001086 0.999980  0.000000 0.000000 1 0 1.000000
0  23.981567 110.770340 4.722196  0.112993 0.520747 0.846200  0.000000 0.000000 1 0 1.000000
  phy
0  23.981207 102.828621 4.570794  0.006160 0.001086 0.999980  0.000000 0.000000 1 0 1.000000
0  23.265480 102.828697 4.708397  0.372750 -0.548329 0.748594  0.000000 0.000000 1 0 1.000000
0  23.981567 110.770340 4.722196  0.112993 0.520747 0.846200  0.000000 0.000000 1 0 1.000000
  phy
0  24.696920 102.828560 4.708468  -0.380320 -0.071944 0.922052  0.000000 0.000000 1 0 1.000000
0  23.981207 102.828621 4.570794  0.006160 0.001086 0.999980  0.000000 0.000000 1 0 1.000000
0  24.697277 110.398682 4.708460  -0.453243 0.039114 0.890528  0.000000 0.000000 1 0 1.000000
  phy
0  24.696920 102.828560 4.708468  -0.380320 -0.071944 0.922052  0.000000 0.000000 1 0 1.000000
0  24.697277 110.398682 4.708460  -0.453243 0.039114 0.890528  0.000000 0.000000 1 0 1.000000
0  25.316278 102.828545 5.121421  -0.705567 -0.066026 0.705560  0.000000 0.000000 1 0 1.000000
  phy
0  24.697168 111.788353 8.190722  -0.451064 0.268185 -0.851245  0.000000 0.000000 1 0 1.000000
0  23.265739 112.132820 8.190650  0.351549 0.272685 -0.895576  0.000000 0.000000 1 0 1.000000
0  23.981016 102.828789 8.328325  -0.000082 -0.346502 -0.938049  0.000000 0.000000 1 0 1.000000
  phy
0  23.981016 102.828789 8.328325  -0.000082 -0.346502 -0.938049  0.000000 0.000000 1 0 1.000000
0  23.265739 112.132820 8.190650  0.351549 0.272685 -0.895576  0.000000 0.000000 1 0 1.000000
0  23.265305 102.828835 8.190650  0.381269 -0.015616 -0.924332  0.000000 0.000000 1 0 1.000000
  phy
0  23.981016 102.828789 8.328325  -0.000082 -0.346502 -0.938049  0.000000 0.000000 1 0 1.000000
0  24.696749 102.828712 8.190722  -0.350921 -0.387340 -0.852538  0.000000 0.000000 1 0 1.000000
0  24.697168 111.788353 8.190722  -0.451064 0.268185 -0.851245  0.000000 0.000000 1 0 1.000000
  phy
0  22.646078 102.828758 5.121290  0.701522 -0.048179 0.711018  0.000000 0.000000 1 0 1.000000
0  22.233139 102.828819 5.726864  0.922932 -0.017272 0.384575  0.000000 0.000000 1 0 1.000000
0  22.233540 111.389763 5.726865  0.808391 0.084163 0.582598  0.000000 0.000000 1 0 1.000000
  phy
0  23.265480 102.828697 4.708397  0.372750 -0.548329 0.748594  0.000000 0.000000 1 0 1.000000
0  22.646078 102.828758 5.121290  0.701522 -0.048179 0.711018  0.000000 0.000000 1 0 1.000000
0  22.233540 111.389763 5.726865  0.808391 0.084163 0.582598  0.000000 0.000000 1 0 1.000000
  phy
0  25.316278 102.828545 5.121421  -0.705567 -0.066026 0.705560  0.000000 0.000000 1 0 1.000000
0  24.697277 110.398682 4.708460  -0.453243 0.039114 0.890528  0.000000 0.000000 1 0 1.000000
0  25.715763 110.577560 5.727053  -0.908824 0.108246 0.402892  0.000000 0.000000 1 0 1.000000
  phy
0  25.715763 110.577560 5.727053  -0.908824 0.108246 0.402892  0.000000 0.000000 1 0 1.000000
0  24.697277 110.398682 4.708460  -0.453243 0.039114 0.890528  0.000000 0.000000 1 0 1.000000
0  23.981567 110.770340 4.722196  0.112993 0.520747 0.846200  0.000000 0.000000 1 0 1.000000
  phy
0  22.233494 111.967819 7.172075  0.922219 0.200744 -0.330474  0.000000 0.000000 1 0 1.000000
0  22.233068 102.828888 7.172077  0.924355 -0.016559 -0.381175  0.000000 0.000000 1 0 1.000000
0  22.645939 102.828880 7.777681  0.700870 -0.063584 -0.710450  0.000000 0.000000 1 0 1.000000
  phy
0  22.233068 102.828888 7.172077  0.924355 -0.016559 -0.381175  0.000000 0.000000 1 0 1.000000
0  22.233494 111.967819 7.172075  0.922219 0.200744 -0.330474  0.000000 0.000000 1 0 1.000000
0  22.095463 102.828873 6.442583  0.956784 -0.290799 -0.000098  0.000000 0.000000 1 0 1.000000
  phy
0  25.715763 110.577560 5.727053  -0.908824 0.108246 0.402892  0.000000 0.000000 1 0 1.000000
0  25.715714 111.155846 7.172245  -0.933337 0.199891 -0.298203  0.000000 0.000000 1 0 1.000000
0  25.866760 102.828522 6.442785  -0.988573 -0.150743 0.000073  0.000000 0.000000 1 0 1.000000
  phy
0  25.866760 102.828522 6.442785  -0.988573 -0.150743 0.000073  0.000000 0.000000 1 0 1.000000
0  25.715385 102.828514 5.727039  -0.897308 -0.234563 0.373923  0.000000 0.000000 1 0 1.000000
0  25.715763 110.577560 5.727053  -0.908824 0.108246 0.402892  0.000000 0.000000 1 0 1.000000
  phy
0  25.866760 102.828522 6.442785  -0.988573 -0.150743 0.000073  0.000000 0.000000 1 0 1.000000
0  25.715714 111.155846 7.172245  -0.933337 0.199891 -0.298203  0.000000 0.000000 1 0 1.000000
0  25.715317 102.828575 7.172249  -0.862813 -0.359160 -0.355749  0.000000 0.000000 1 0 1.000000
  phy
0  25.715317 102.828575 7.172249  -0.862813 -0.359160 -0.355749  0.000000 0.000000 1 0 1.000000
0  25.715714 111.155846 7.172245  -0.933337 0.199891 -0.298203  0.000000 0.000000 1 0 1.000000
0  25.316149 102.828636 7.777841  -0.693155 -0.197128 -0.693309  0.000000 0.000000 1 0 1.000000
  phy
0  25.316149 102.828636 7.777841  -0.693155 -0.197128 -0.693309  0.000000 0.000000 1 0 1.000000
0  25.715714 111.155846 7.172245  -0.933337 0.199891 -0.298203  0.000000 0.000000 1 0 1.000000
0  24.697168 111.788353 8.190722  -0.451064 0.268185 -0.851245  0.000000 0.000000 1 0 1.000000
  phy
0  24.697168 111.788353 8.190722  -0.451064 0.268185 -0.851245  0.000000 0.000000 1 0 1.000000
0  24.696749 102.828712 8.190722  -0.350921 -0.387340 -0.852538  0.000000 0.000000 1 0 1.000000
0  25.316149 102.828636 7.777841  -0.693155 -0.197128 -0.693309  0.000000 0.000000 1 0 1.000000
  phy
0  23.265305 102.828835 8.190650  0.381269 -0.015616 -0.924332  0.000000 0.000000 1 0 1.000000
0  23.265739 112.132820 8.190650  0.351549 0.272685 -0.895576  0.000000 0.000000 1 0 1.000000
0  22.645939 102.828880 7.777681  0.700870 -0.063584 -0.710450  0.000000 0.000000 1 0 1.000000
  phy
0  22.233540 111.389763 5.726865  0.808391 0.084163 0.582598  0.000000 0.000000 1 0 1.000000
0  22.233139 102.828819 5.726864  0.922932 -0.017272 0.384575  0.000000 0.000000 1 0 1.000000
0  22.095463 102.828873 6.442583  0.956784 -0.290799 -0.000098  0.000000 0.000000 1 0 1.000000
  phy
0  25.715763 110.577560 5.727053  -0.908824 0.108246 0.402892  0.000000 0.000000 1 0 1.000000
0  25.715385 102.828514 5.727039  -0.897308 -0.234563 0.373923  0.000000 0.000000 1 0 1.000000
0  25.316278 102.828545 5.121421  -0.705567 -0.066026 0.705560  0.000000 0.000000 1 0 1.000000
  phy
0  22.645939 102.828880 7.777681  0.700870 -0.063584 -0.710450  0.000000 0.000000 1 0 1.000000
0  23.265739 112.132820 8.190650  0.351549 0.272685 -0.895576  0.000000 0.000000 1 0 1.000000
0  22.233494 111.967819 7.172075  0.922219 0.200744 -0.330474  0.000000 0.000000 1 0 1.000000
  phy
0  22.233494 111.967819 7.172075  0.922219 0.200744 -0.330474  0.000000 0.000000 1 0 1.000000
0  22.233540 111.389763 5.726865  0.808391 0.084163 0.582598  0.000000 0.000000 1 0 1.000000
0  22.095463 102.828873 6.442583  0.956784 -0.290799 -0.000098  0.000000 0.000000 1 0 1.000000
  phy
0  22.233540 111.389763 5.726865  0.808391 0.084163 0.582598  0.000000 0.000000 1 0 1.000000
0  22.233494 111.967819 7.172075  0.922219 0.200744 -0.330474  0.000000 0.000000 1 0 1.000000
0  23.981567 110.770340 4.722196  0.112993 0.520747 0.846200  0.000000 0.000000 1 0 1.000000
  phy
0  23.981567 110.770340 4.722196  0.112993 0.520747 0.846200  0.000000 0.000000 1 0 1.000000
0  22.233494 111.967819 7.172075  0.922219 0.200744 -0.330474  0.000000 0.000000 1 0 1.000000
0  23.265739 112.132820 8.190650  0.351549 0.272685 -0.895576  0.000000 0.000000 1 0 1.000000
  phy
0  24.697168 111.788353 8.190722  -0.451064 0.268185 -0.851245  0.000000 0.000000 1 0 1.000000
0  25.715714 111.155846 7.172245  -0.933337 0.199891 -0.298203  0.000000 0.000000 1 0 1.000000
0  23.981567 110.770340 4.722196  0.112993 0.520747 0.846200  0.000000 0.000000 1 0 1.000000
  phy
0  24.697168 111.788353 8.190722  -0.451064 0.268185 -0.851245  0.000000 0.000000 1 0 1.000000
0  23.981567 110.770340 4.722196  0.112993 0.520747 0.846200  0.000000 0.000000 1 0 1.000000
0  23.265739 112.132820 8.190650  0.351549 0.272685 -0.895576  0.000000 0.000000 1 0 1.000000
  phy
0  25.715714 111.155846 7.172245  -0.933337 0.199891 -0.298203  0.000000 0.000000 1 0 1.000000
0  25.715763 110.577560 5.727053  -0.908824 0.108246 0.402892  0.000000 0.000000 1 0 1.000000
0  23.981567 110.770340 4.722196  0.112993 0.520747 0.846200  0.000000 0.000000 1 0 1.000000
  phy
0  23.265480 102.828697 4.708397  0.372750 -0.548329 0.748594  0.000000 0.000000 1 0 1.000000
0  22.233540 111.389763 5.726865  0.808391 0.084163 0.582598  0.000000 0.000000 1 0 1.000000
0  23.981567 110.770340 4.722196  0.112993 0.520747 0.846200  0.000000 0.000000 1 0 1.000000
end
