version 1
nodes
0 "root" -1
1 "steering_wheel" 0
end
skeleton
time 0
0  0.000000 0.000000 0.000000  0.000000 -0.000000 -1.570797
1  19.916300 17.934299 33.308498  0.000000 -0.000000 0.000000
end
triangles
black
0  -25.022682 108.486641 6.634176  0.658943 0.698947 -0.277969  0.992218 0.539048 1 0 1.000000
0  -24.582237 108.651802 7.281077  0.353908 0.640738 -0.681325  0.992218 0.539048 1 0 1.000000
0  -24.004156 108.417824 6.441482  0.000659 0.966784 -0.255594  0.992218 0.611316 1 0 1.000000
black
0  -24.582237 108.651802 7.281077  0.353908 0.640738 -0.681325  0.992218 0.539048 1 0 1.000000
0  -23.797699 108.693108 7.432480  -0.130675 0.621789 -0.772206  0.992218 0.539048 1 0 1.000000
0  -24.004156 108.417824 6.441482  0.000659 0.966784 -0.255594  0.992218 0.611316 1 0 1.000000
black
0  -23.797699 108.693108 7.432480  -0.130675 0.621789 -0.772206  0.992218 0.539048 1 0 1.000000
0  -23.137032 108.582985 7.005800  -0.565333 0.647321 -0.511248  0.993194 0.539048 1 0 1.000000
0  -24.004156 108.417824 6.441482  0.000659 0.966784 -0.255594  0.992218 0.611316 1 0 1.000000
black
0  -23.137032 108.582985 7.005800  -0.565333 0.647321 -0.511248  0.993194 0.539048 1 0 1.000000
0  -22.971869 108.376534 6.248789  -0.699695 0.714442 0.000409  0.993194 0.539048 1 0 1.000000
0  -24.004156 108.417824 6.441482  0.000659 0.966784 -0.255594  0.992218 0.611316 1 0 1.000000
black
0  -22.971869 108.376534 6.248789  -0.699695 0.714442 0.000409  0.993194 0.539048 1 0 1.000000
0  -23.426075 108.211365 5.601888  -0.409323 0.789075 0.458056  0.993194 0.539048 1 0 1.000000
0  -24.004156 108.417824 6.441482  0.000659 0.966784 -0.255594  0.992218 0.611316 1 0 1.000000
black
0  -23.426075 108.211365 5.601888  -0.409323 0.789075 0.458056  0.993194 0.539048 1 0 1.000000
0  -24.210615 108.170074 5.450486  0.132407 0.816145 0.562473  0.993194 0.539048 1 0 1.000000
0  -24.004156 108.417824 6.441482  0.000659 0.966784 -0.255594  0.992218 0.611316 1 0 1.000000
black
0  -24.210615 108.170074 5.450486  0.132407 0.816145 0.562473  0.993194 0.539048 1 0 1.000000
0  -24.871279 108.280190 5.877165  0.582961 0.774574 0.245339  0.993194 0.539048 1 0 1.000000
0  -24.004156 108.417824 6.441482  0.000659 0.966784 -0.255594  0.992218 0.611316 1 0 1.000000
black
0  -24.871279 108.280190 5.877165  0.582961 0.774574 0.245339  0.993194 0.539048 1 0 1.000000
0  -25.022682 108.486641 6.634176  0.658943 0.698947 -0.277969  0.993194 0.539048 1 0 1.000000
0  -24.004156 108.417824 6.441482  0.000659 0.966784 -0.255594  0.992218 0.611316 1 0 1.000000
exhaustchrome
0  -23.288435 112.134064 8.189491  0.318993 0.430830 0.844174  0.005860 0.160131 1 0 1.000000
0  -23.343493 112.244179 8.038089  0.191722 0.781389 0.593864  0.005860 0.160131 1 0 1.000000
0  -24.004156 112.147827 8.175727  -0.152400 0.750961 0.642520  0.005860 0.160131 1 0 1.000000
exhaustchrome
0  -23.343493 112.244179 8.038089  0.191722 0.781389 0.593864  0.005860 0.160131 1 0 1.000000
0  -23.288435 112.134064 8.189491  0.318993 0.430830 0.844174  0.005860 0.160131 1 0 1.000000
0  -22.669065 112.120300 7.776576  0.667391 0.433265 0.605698  0.005860 0.160131 1 0 1.000000
exhaustchrome
0  -22.669065 112.120300 7.776576  0.667391 0.433265 0.605698  0.005860 0.160131 1 0 1.000000
0  -22.779175 112.244179 7.666465  0.493338 0.778886 0.387240  0.005860 0.160131 1 0 1.000000
0  -23.343493 112.244179 8.038089  0.191722 0.781389 0.593864  0.005860 0.160131 1 0 1.000000
exhaustchrome
0  -22.779175 112.244179 7.666465  0.493338 0.778886 0.387240  0.005860 0.160131 1 0 1.000000
0  -22.669065 112.120300 7.776576  0.667391 0.433265 0.605698  0.005860 0.160131 1 0 1.000000
0  -22.256149 111.968903 7.170967  0.879954 0.398317 0.258890  0.005860 0.160131 1 0 1.000000
exhaustchrome
0  -22.256149 111.968903 7.170967  0.879954 0.398317 0.258890  0.005860 0.160131 1 0 1.000000
0  -22.407553 112.106537 7.102147  0.669247 0.738202 0.084654  0.005860 0.160131 1 0 1.000000
0  -22.779175 112.244179 7.666465  0.493338 0.778886 0.387240  0.005860 0.160131 1 0 1.000000
exhaustchrome
0  -22.407553 112.106537 7.102147  0.669247 0.738202 0.084654  0.005860 0.160131 1 0 1.000000
0  -22.256149 111.968903 7.170967  0.879954 0.398317 0.258890  0.005860 0.160131 1 0 1.000000
0  -22.118511 111.734909 6.441482  0.921634 0.365183 -0.131271  0.005860 0.160131 1 0 1.000000
exhaustchrome
0  -22.118511 111.734909 6.441482  0.921634 0.365183 -0.131271  0.005860 0.160131 1 0 1.000000
0  -22.269913 111.886322 6.441482  0.690164 0.684432 -0.235003  0.005860 0.160131 1 0 1.000000
0  -22.407553 112.106537 7.102147  0.669247 0.738202 0.084654  0.005860 0.160131 1 0 1.000000
exhaustchrome
0  -22.269913 111.886322 6.441482  0.690164 0.684432 -0.235003  0.005860 0.160131 1 0 1.000000
0  -22.118511 111.734909 6.441482  0.921634 0.365183 -0.131271  0.005860 0.160131 1 0 1.000000
0  -22.256149 111.390816 5.725762  0.815653 0.319837 -0.482094  0.005860 0.160131 1 0 1.000000
exhaustchrome
0  -22.256149 111.390816 5.725762  0.815653 0.319837 -0.482094  0.005860 0.160131 1 0 1.000000
0  -22.407553 111.569748 5.780817  0.584393 0.623089 -0.519851  0.005860 0.160131 1 0 1.000000
0  -22.269913 111.886322 6.441482  0.690164 0.684432 -0.235003  0.005860 0.160131 1 0 1.000000
exhaustchrome
0  -22.407553 111.569748 5.780817  0.584393 0.623089 -0.519851  0.005860 0.160131 1 0 1.000000
0  -22.256149 111.390816 5.725762  0.815653 0.319837 -0.482094  0.005860 0.160131 1 0 1.000000
0  -22.669065 111.060478 5.120153  0.590752 0.289038 -0.753306  0.005860 0.160131 1 0 1.000000
exhaustchrome
0  -22.669065 111.060478 5.120153  0.590752 0.289038 -0.753306  0.005860 0.160131 1 0 1.000000
0  -22.779175 111.266945 5.230264  0.396808 0.575439 -0.715132  0.005860 0.160131 1 0 1.000000
0  -22.407553 111.569748 5.780817  0.584393 0.623089 -0.519851  0.005860 0.160131 1 0 1.000000
exhaustchrome
0  -22.779175 111.266945 5.230264  0.396808 0.575439 -0.715132  0.005860 0.160131 1 0 1.000000
0  -22.669065 111.060478 5.120153  0.590752 0.289038 -0.753306  0.005860 0.160131 1 0 1.000000
0  -23.288435 110.743912 4.707238  0.288294 0.264398 -0.920315  0.005860 0.160131 1 0 1.000000
exhaustchrome
0  -23.288435 110.743912 4.707238  0.288294 0.264398 -0.920315  0.005860 0.160131 1 0 1.000000
0  -23.343493 110.977898 4.844876  0.155212 0.539004 -0.827879  0.005860 0.160131 1 0 1.000000
0  -22.779175 111.266945 5.230264  0.396808 0.575439 -0.715132  0.005860 0.160131 1 0 1.000000
exhaustchrome
0  -23.343493 110.977898 4.844876  0.155212 0.539004 -0.827879  0.005860 0.160131 1 0 1.000000
0  -23.288435 110.743912 4.707238  0.288294 0.264398 -0.920315  0.005860 0.160131 1 0 1.000000
0  -24.004156 110.523697 4.569599  -0.052286 0.249076 -0.967072  0.005860 0.160131 1 0 1.000000
exhaustchrome
0  -24.004156 110.523697 4.569599  -0.052286 0.249076 -0.967072  0.005860 0.160131 1 0 1.000000
0  -24.004156 110.771439 4.721002  -0.106993 0.515511 -0.850177  0.005860 0.160131 1 0 1.000000
0  -23.343493 110.977898 4.844876  0.155212 0.539004 -0.827879  0.005860 0.160131 1 0 1.000000
exhaustchrome
0  -24.004156 110.771439 4.721002  -0.106993 0.515511 -0.850177  0.005860 0.160131 1 0 1.000000
0  -24.004156 110.523697 4.569599  -0.052286 0.249076 -0.967072  0.005860 0.160131 1 0 1.000000
0  -24.719877 110.399811 4.707238  -0.383598 0.238157 -0.892263  0.005860 0.160131 1 0 1.000000
exhaustchrome
0  -24.719877 110.399811 4.707238  -0.383598 0.238157 -0.892263  0.005860 0.160131 1 0 1.000000
0  -24.664822 110.661331 4.844876  -0.356150 0.503917 -0.786908  0.005860 0.160131 1 0 1.000000
0  -24.004156 110.771439 4.721002  -0.106993 0.515511 -0.850177  0.005860 0.160131 1 0 1.000000
exhaustchrome
0  -24.664822 110.661331 4.844876  -0.356150 0.503917 -0.786908  0.005860 0.160131 1 0 1.000000
0  -24.719877 110.399811 4.707238  -0.383598 0.238157 -0.892263  0.005860 0.160131 1 0 1.000000
0  -25.339251 110.427338 5.120153  -0.667316 0.242120 -0.704320  0.005860 0.160131 1 0 1.000000
exhaustchrome
0  -25.339251 110.427338 5.120153  -0.667316 0.242120 -0.704320  0.005860 0.160131 1 0 1.000000
0  -25.229137 110.688858 5.230264  -0.569462 0.506680 -0.647293  0.005860 0.160131 1 0 1.000000
0  -24.664822 110.661331 4.844876  -0.356150 0.503917 -0.786908  0.005860 0.160131 1 0 1.000000
exhaustchrome
0  -25.229137 110.688858 5.230264  -0.569462 0.506680 -0.647293  0.005860 0.160131 1 0 1.000000
0  -25.339251 110.427338 5.120153  -0.667316 0.242120 -0.704320  0.005860 0.160131 1 0 1.000000
0  -25.738401 110.578751 5.725762  -0.867889 0.251445 -0.428420  0.005860 0.160131 1 0 1.000000
exhaustchrome
0  -25.738401 110.578751 5.725762  -0.867889 0.251445 -0.428420  0.005860 0.160131 1 0 1.000000
0  -25.600763 110.826492 5.780817  -0.727977 0.521342 -0.445256  0.005860 0.160131 1 0 1.000000
0  -25.229137 110.688858 5.230264  -0.569462 0.506680 -0.647293  0.005860 0.160131 1 0 1.000000
exhaustchrome
0  -25.600763 110.826492 5.780817  -0.727977 0.521342 -0.445256  0.005860 0.160131 1 0 1.000000
0  -25.738401 110.578751 5.725762  -0.867889 0.251445 -0.428420  0.005860 0.160131 1 0 1.000000
0  -25.889805 110.854019 6.441482  -0.956487 0.275206 -0.096921  0.005860 0.160131 1 0 1.000000
exhaustchrome
0  -25.889805 110.854019 6.441482  -0.956487 0.275206 -0.096921  0.005860 0.160131 1 0 1.000000
0  -25.724638 111.074242 6.441482  -0.812994 0.551349 -0.187229  0.005860 0.160131 1 0 1.000000
0  -25.600763 110.826492 5.780817  -0.727977 0.521342 -0.445256  0.005860 0.160131 1 0 1.000000
exhaustchrome
0  -25.724638 111.074242 6.441482  -0.812994 0.551349 -0.187229  0.005860 0.160131 1 0 1.000000
0  -25.889805 110.854019 6.441482  -0.956487 0.275206 -0.096921  0.005860 0.160131 1 0 1.000000
0  -25.738401 111.156837 7.170967  -0.920468 0.296471 0.254642  0.005860 0.160131 1 0 1.000000
exhaustchrome
0  -25.738401 111.156837 7.170967  -0.920468 0.296471 0.254642  0.005860 0.160131 1 0 1.000000
0  -25.600763 111.349525 7.102147  -0.803775 0.589216 0.082278  0.005860 0.160131 1 0 1.000000
0  -25.724638 111.074242 6.441482  -0.812994 0.551349 -0.187229  0.005860 0.160131 1 0 1.000000
exhaustchrome
0  -25.600763 111.349525 7.102147  -0.803775 0.589216 0.082278  0.005860 0.160131 1 0 1.000000
0  -25.738401 111.156837 7.170967  -0.920468 0.296471 0.254642  0.005860 0.160131 1 0 1.000000
0  -25.339251 111.487160 7.776576  -0.753982 0.333304 0.566055  0.005860 0.160131 1 0 1.000000
exhaustchrome
0  -25.339251 111.487160 7.776576  -0.753982 0.333304 0.566055  0.005860 0.160131 1 0 1.000000
0  -25.229137 111.666092 7.666465  -0.689032 0.640934 0.338287  0.005860 0.160131 1 0 1.000000
0  -25.600763 111.349525 7.102147  -0.803775 0.589216 0.082278  0.005860 0.160131 1 0 1.000000
exhaustchrome
0  -25.229137 111.666092 7.666465  -0.689032 0.640934 0.338287  0.005860 0.160131 1 0 1.000000
0  -25.339251 111.487160 7.776576  -0.753982 0.333304 0.566055  0.005860 0.160131 1 0 1.000000
0  -24.719877 111.789978 8.189491  -0.464310 0.372254 0.803643  0.005860 0.160131 1 0 1.000000
exhaustchrome
0  -24.719877 111.789978 8.189491  -0.464310 0.372254 0.803643  0.005860 0.160131 1 0 1.000000
0  -24.664822 111.941376 8.038089  -0.465212 0.698609 0.543621  0.005860 0.160131 1 0 1.000000
0  -25.229137 111.666092 7.666465  -0.689032 0.640934 0.338287  0.005860 0.160131 1 0 1.000000
exhaustchrome
0  -24.664822 111.941376 8.038089  -0.465212 0.698609 0.543621  0.005860 0.160131 1 0 1.000000
0  -24.719877 111.789978 8.189491  -0.464310 0.372254 0.803643  0.005860 0.160131 1 0 1.000000
0  -24.004156 112.010193 8.327130  -0.085719 0.409748 0.908162  0.005860 0.160131 1 0 1.000000
exhaustchrome
0  -24.004156 112.010193 8.327130  -0.085719 0.409748 0.908162  0.005860 0.160131 1 0 1.000000
0  -24.004156 112.147827 8.175727  -0.152400 0.750961 0.642520  0.005860 0.160131 1 0 1.000000
0  -24.664822 111.941376 8.038089  -0.465212 0.698609 0.543621  0.005860 0.160131 1 0 1.000000
exhaustchrome
0  -24.004156 112.147827 8.175727  -0.152400 0.750961 0.642520  0.005860 0.160131 1 0 1.000000
0  -24.004156 112.010193 8.327130  -0.085719 0.409748 0.908162  0.005860 0.160131 1 0 1.000000
0  -23.288435 112.134064 8.189491  0.318993 0.430830 0.844174  0.005860 0.160131 1 0 1.000000
exhaustchrome
0  -24.719877 102.829704 4.707238  -0.382569 0.000000 -0.923927  0.470717 0.008759 1 0 1.000000
0  -25.339251 102.829704 5.120153  -0.707234 0.000002 -0.706980  0.419935 0.008759 1 0 1.000000
0  -25.339251 110.427338 5.120153  -0.667316 0.242120 -0.704320  0.419935 0.015595 1 0 1.000000
exhaustchrome
0  -25.738401 110.578751 5.725762  -0.867889 0.251445 -0.428420  0.340831 0.015595 1 0 1.000000
0  -25.339251 110.427338 5.120153  -0.667316 0.242120 -0.704320  0.419935 0.015595 1 0 1.000000
0  -25.339251 102.829704 5.120153  -0.707234 0.000002 -0.706980  0.419935 0.008759 1 0 1.000000
exhaustchrome
0  -25.339251 102.829704 5.120153  -0.707234 0.000002 -0.706980  0.419935 0.008759 1 0 1.000000
0  -25.738401 102.829704 5.725762  -0.923802 0.000000 -0.382871  0.341807 0.008759 1 0 1.000000
0  -25.738401 110.578751 5.725762  -0.867889 0.251445 -0.428420  0.340831 0.015595 1 0 1.000000
exhaustchrome
0  -25.889805 110.854019 6.441482  -0.956487 0.275206 -0.096921  0.249031 0.015595 1 0 1.000000
0  -25.738401 110.578751 5.725762  -0.867889 0.251445 -0.428420  0.340831 0.015595 1 0 1.000000
0  -25.738401 102.829704 5.725762  -0.923802 0.000000 -0.382871  0.341807 0.008759 1 0 1.000000
exhaustchrome
0  -25.738401 102.829704 5.725762  -0.923802 0.000000 -0.382871  0.341807 0.008759 1 0 1.000000
0  -25.889805 102.829704 6.441482  -1.000000 0.000000 -0.000220  0.249031 0.008759 1 0 1.000000
0  -25.889805 110.854019 6.441482  -0.956487 0.275206 -0.096921  0.249031 0.015595 1 0 1.000000
exhaustchrome
0  -25.738401 111.156837 7.170967  -0.920468 0.296471 0.254642  0.156255 0.015595 1 0 1.000000
0  -25.889805 110.854019 6.441482  -0.956487 0.275206 -0.096921  0.249031 0.015595 1 0 1.000000
0  -25.889805 102.829704 6.441482  -1.000000 0.000000 -0.000220  0.249031 0.008759 1 0 1.000000
exhaustchrome
0  -25.889805 102.829704 6.441482  -1.000000 0.000000 -0.000220  0.249031 0.008759 1 0 1.000000
0  -25.738401 102.829704 7.170967  -0.923831 -0.000000 0.382801  0.156255 0.008759 1 0 1.000000
0  -25.738401 111.156837 7.170967  -0.920468 0.296471 0.254642  0.156255 0.015595 1 0 1.000000
exhaustchrome
0  -25.339251 111.487160 7.776576  -0.753982 0.333304 0.566055  0.077151 0.015595 1 0 1.000000
0  -25.738401 111.156837 7.170967  -0.920468 0.296471 0.254642  0.156255 0.015595 1 0 1.000000
0  -25.738401 102.829704 7.170967  -0.923831 -0.000000 0.382801  0.156255 0.008759 1 0 1.000000
exhaustchrome
0  -25.738401 102.829704 7.170967  -0.923831 -0.000000 0.382801  0.156255 0.008759 1 0 1.000000
0  -25.339251 102.829704 7.776576  -0.707123 0.000000 0.707090  0.078127 0.008759 1 0 1.000000
0  -25.339251 111.487160 7.776576  -0.753982 0.333304 0.566055  0.077151 0.015595 1 0 1.000000
exhaustchrome
0  -24.719877 111.789978 8.189491  -0.464310 0.372254 0.803643  0.023438 0.015595 1 0 1.000000
0  -25.339251 111.487160 7.776576  -0.753982 0.333304 0.566055  0.077151 0.015595 1 0 1.000000
0  -25.339251 102.829704 7.776576  -0.707123 0.000000 0.707090  0.078127 0.008759 1 0 1.000000
exhaustchrome
0  -25.339251 102.829704 7.776576  -0.707123 0.000000 0.707090  0.078127 0.008759 1 0 1.000000
0  -24.719877 102.829704 8.189491  -0.382377 -0.000000 0.924007  0.023438 0.008759 1 0 1.000000
0  -24.719877 111.789978 8.189491  -0.464310 0.372254 0.803643  0.023438 0.015595 1 0 1.000000
exhaustchrome
0  -24.004156 112.010193 8.327130  -0.085719 0.409748 0.908162  0.003906 0.015595 1 0 1.000000
0  -24.719877 111.789978 8.189491  -0.464310 0.372254 0.803643  0.023438 0.015595 1 0 1.000000
0  -24.719877 102.829704 8.189491  -0.382377 -0.000000 0.924007  0.023438 0.008759 1 0 1.000000
exhaustchrome
0  -24.719877 102.829704 8.189491  -0.382377 -0.000000 0.924007  0.023438 0.008759 1 0 1.000000
0  -24.004156 102.829704 8.327130  0.000000 0.000000 1.000000  0.003906 0.008759 1 0 1.000000
0  -24.004156 112.010193 8.327130  -0.085719 0.409748 0.908162  0.003906 0.015595 1 0 1.000000
exhaustchrome
0  -23.288435 112.134064 8.189491  0.318993 0.430830 0.844174  0.023438 0.015595 1 0 1.000000
0  -24.004156 112.010193 8.327130  -0.085719 0.409748 0.908162  0.003906 0.015595 1 0 1.000000
0  -24.004156 102.829704 8.327130  0.000000 0.000000 1.000000  0.003906 0.008759 1 0 1.000000
exhaustchrome
0  -24.004156 102.829704 8.327130  0.000000 0.000000 1.000000  0.003906 0.008759 1 0 1.000000
0  -23.288435 102.829704 8.189491  0.382521 0.000000 0.923947  0.023438 0.008759 1 0 1.000000
0  -23.288435 112.134064 8.189491  0.318993 0.430830 0.844174  0.023438 0.015595 1 0 1.000000
exhaustchrome
0  -22.669065 112.120300 7.776576  0.667391 0.433265 0.605698  0.077151 0.015595 1 0 1.000000
0  -23.288435 112.134064 8.189491  0.318993 0.430830 0.844174  0.023438 0.015595 1 0 1.000000
0  -23.288435 102.829704 8.189491  0.382521 0.000000 0.923947  0.023438 0.008759 1 0 1.000000
exhaustchrome
0  -23.288435 102.829704 8.189491  0.382521 0.000000 0.923947  0.023438 0.008759 1 0 1.000000
0  -22.669065 102.829704 7.776576  0.707067 0.000000 0.707147  0.078127 0.008759 1 0 1.000000
0  -22.669065 112.120300 7.776576  0.667391 0.433265 0.605698  0.077151 0.015595 1 0 1.000000
exhaustchrome
0  -22.256149 111.968903 7.170967  0.879954 0.398317 0.258890  0.156255 0.015595 1 0 1.000000
0  -22.669065 112.120300 7.776576  0.667391 0.433265 0.605698  0.077151 0.015595 1 0 1.000000
0  -22.669065 102.829704 7.776576  0.707067 0.000000 0.707147  0.078127 0.008759 1 0 1.000000
exhaustchrome
0  -22.669065 102.829704 7.776576  0.707067 0.000000 0.707147  0.078127 0.008759 1 0 1.000000
0  -22.256149 102.829704 7.170967  0.923974 0.000000 0.382454  0.156255 0.008759 1 0 1.000000
0  -22.256149 111.968903 7.170967  0.879954 0.398317 0.258890  0.156255 0.015595 1 0 1.000000
exhaustchrome
0  -22.118511 111.734909 6.441482  0.921634 0.365183 -0.131271  0.249031 0.015595 1 0 1.000000
0  -22.256149 111.968903 7.170967  0.879954 0.398317 0.258890  0.156255 0.015595 1 0 1.000000
0  -22.256149 102.829704 7.170967  0.923974 0.000000 0.382454  0.156255 0.008759 1 0 1.000000
exhaustchrome
0  -22.256149 102.829704 7.170967  0.923974 0.000000 0.382454  0.156255 0.008759 1 0 1.000000
0  -22.118511 102.829704 6.441482  1.000000 -0.000001 0.000030  0.249031 0.008759 1 0 1.000000
0  -22.118511 111.734909 6.441482  0.921634 0.365183 -0.131271  0.249031 0.015595 1 0 1.000000
exhaustchrome
0  -22.256149 111.390816 5.725762  0.815653 0.319837 -0.482094  0.340831 0.015595 1 0 1.000000
0  -22.118511 111.734909 6.441482  0.921634 0.365183 -0.131271  0.249031 0.015595 1 0 1.000000
0  -22.118511 102.829704 6.441482  1.000000 -0.000001 0.000030  0.249031 0.008759 1 0 1.000000
exhaustchrome
0  -22.118511 102.829704 6.441482  1.000000 -0.000001 0.000030  0.249031 0.008759 1 0 1.000000
0  -22.256149 102.829704 5.725762  0.923636 0.000001 -0.383271  0.341807 0.008759 1 0 1.000000
0  -22.256149 111.390816 5.725762  0.815653 0.319837 -0.482094  0.340831 0.015595 1 0 1.000000
exhaustchrome
0  -22.669065 111.060478 5.120153  0.590752 0.289038 -0.753306  0.419935 0.015595 1 0 1.000000
0  -22.256149 111.390816 5.725762  0.815653 0.319837 -0.482094  0.340831 0.015595 1 0 1.000000
0  -22.256149 102.829704 5.725762  0.923636 0.000001 -0.383271  0.341807 0.008759 1 0 1.000000
exhaustchrome
0  -22.256149 102.829704 5.725762  0.923636 0.000001 -0.383271  0.341807 0.008759 1 0 1.000000
0  -22.669065 102.829704 5.120153  0.707102 0.000002 -0.707111  0.419935 0.008759 1 0 1.000000
0  -22.669065 111.060478 5.120153  0.590752 0.289038 -0.753306  0.419935 0.015595 1 0 1.000000
exhaustchrome
0  -23.288435 110.743912 4.707238  0.288294 0.264398 -0.920315  0.469741 0.015595 1 0 1.000000
0  -22.669065 111.060478 5.120153  0.590752 0.289038 -0.753306  0.419935 0.015595 1 0 1.000000
0  -22.669065 102.829704 5.120153  0.707102 0.000002 -0.707111  0.419935 0.008759 1 0 1.000000
exhaustchrome
0  -22.669065 102.829704 5.120153  0.707102 0.000002 -0.707111  0.419935 0.008759 1 0 1.000000
0  -23.288435 102.829704 4.707238  0.382520 0.000001 -0.923947  0.470717 0.008759 1 0 1.000000
0  -23.288435 110.743912 4.707238  0.288294 0.264398 -0.920315  0.469741 0.015595 1 0 1.000000
exhaustchrome
0  -24.004156 110.523697 4.569599  -0.052286 0.249076 -0.967072  0.492203 0.015595 1 0 1.000000
0  -23.288435 110.743912 4.707238  0.288294 0.264398 -0.920315  0.469741 0.015595 1 0 1.000000
0  -23.288435 102.829704 4.707238  0.382520 0.000001 -0.923947  0.470717 0.008759 1 0 1.000000
exhaustchrome
0  -23.288435 102.829704 4.707238  0.382520 0.000001 -0.923947  0.470717 0.008759 1 0 1.000000
0  -24.004156 102.829704 4.569599  -0.000001 0.000000 -1.000000  0.492203 0.008759 1 0 1.000000
0  -24.004156 110.523697 4.569599  -0.052286 0.249076 -0.967072  0.492203 0.015595 1 0 1.000000
exhaustchrome
0  -24.719877 110.399811 4.707238  -0.383598 0.238157 -0.892263  0.469741 0.015595 1 0 1.000000
0  -24.004156 110.523697 4.569599  -0.052286 0.249076 -0.967072  0.492203 0.015595 1 0 1.000000
0  -24.004156 102.829704 4.569599  -0.000001 0.000000 -1.000000  0.492203 0.008759 1 0 1.000000
exhaustchrome
0  -24.004156 102.829704 4.569599  -0.000001 0.000000 -1.000000  0.492203 0.008759 1 0 1.000000
0  -24.719877 102.829704 4.707238  -0.382569 0.000000 -0.923927  0.470717 0.008759 1 0 1.000000
0  -24.719877 110.399811 4.707238  -0.383598 0.238157 -0.892263  0.469741 0.015595 1 0 1.000000
exhaustchrome
0  -25.339251 110.427338 5.120153  -0.667316 0.242120 -0.704320  0.419935 0.015595 1 0 1.000000
0  -24.719877 110.399811 4.707238  -0.383598 0.238157 -0.892263  0.469741 0.015595 1 0 1.000000
0  -24.719877 102.829704 4.707238  -0.382569 0.000000 -0.923927  0.470717 0.008759 1 0 1.000000
exhaust
0  -23.797699 108.693108 7.432480  -0.130675 0.621789 -0.772206  0.177740 0.211890 1 0 1.000000
0  -24.004156 112.147827 8.175727  -0.067103 0.205458 -0.976363  0.027345 0.211890 1 0 1.000000
0  -23.343493 112.244179 8.038089  -0.399005 0.199776 -0.894921  0.027345 0.211890 1 0 1.000000
exhaust
0  -24.664822 111.941376 8.038089  0.260021 0.216907 -0.940925  0.027345 0.211890 1 0 1.000000
0  -24.004156 112.147827 8.175727  -0.067103 0.205458 -0.976363  0.027345 0.211890 1 0 1.000000
0  -23.797699 108.693108 7.432480  -0.130675 0.621789 -0.772206  0.177740 0.211890 1 0 1.000000
exhaust
0  -23.797699 108.693108 7.432480  -0.130675 0.621789 -0.772206  0.177740 0.211890 1 0 1.000000
0  -24.582237 108.651802 7.281077  0.353908 0.640738 -0.681325  0.177740 0.211890 1 0 1.000000
0  -24.664822 111.941376 8.038089  0.260021 0.216907 -0.940925  0.027345 0.211890 1 0 1.000000
exhaust
0  -24.582237 108.651802 7.281077  0.353908 0.640738 -0.681325  0.177740 0.211890 1 0 1.000000
0  -25.229137 111.666092 7.666465  0.583921 0.223474 -0.780446  0.027345 0.211890 1 0 1.000000
0  -24.664822 111.941376 8.038089  0.260021 0.216907 -0.940925  0.027345 0.211890 1 0 1.000000
exhaust
0  -25.600763 111.349525 7.102147  0.823799 0.240206 -0.513475  0.027345 0.211890 1 0 1.000000
0  -25.229137 111.666092 7.666465  0.583921 0.223474 -0.780446  0.027345 0.211890 1 0 1.000000
0  -24.582237 108.651802 7.281077  0.353908 0.640738 -0.681325  0.177740 0.211890 1 0 1.000000
exhaust
0  -24.582237 108.651802 7.281077  0.353908 0.640738 -0.681325  0.177740 0.211890 1 0 1.000000
0  -25.022682 108.486641 6.634176  0.658943 0.698947 -0.277969  0.177740 0.211890 1 0 1.000000
0  -25.600763 111.349525 7.102147  0.823799 0.240206 -0.513475  0.027345 0.211890 1 0 1.000000
exhaust
0  -25.022682 108.486641 6.634176  0.658943 0.698947 -0.277969  0.177740 0.211890 1 0 1.000000
0  -25.724638 111.074242 6.441482  0.959300 0.249755 -0.131777  0.027345 0.211890 1 0 1.000000
0  -25.600763 111.349525 7.102147  0.823799 0.240206 -0.513475  0.027345 0.211890 1 0 1.000000
exhaust
0  -25.600763 110.826492 5.780817  0.928122 0.268484 0.257887  0.027345 0.211890 1 0 1.000000
0  -25.724638 111.074242 6.441482  0.959300 0.249755 -0.131777  0.027345 0.211890 1 0 1.000000
0  -25.022682 108.486641 6.634176  0.658943 0.698947 -0.277969  0.177740 0.211890 1 0 1.000000
exhaust
0  -25.022682 108.486641 6.634176  0.658943 0.698947 -0.277969  0.177740 0.211890 1 0 1.000000
0  -24.871279 108.280190 5.877165  0.582961 0.774574 0.245339  0.177740 0.211890 1 0 1.000000
0  -25.600763 110.826492 5.780817  0.928122 0.268484 0.257887  0.027345 0.211890 1 0 1.000000
exhaust
0  -24.871279 108.280190 5.877165  0.582961 0.774574 0.245339  0.177740 0.211890 1 0 1.000000
0  -25.229137 110.688858 5.230264  0.704958 0.280303 0.651509  0.027345 0.211890 1 0 1.000000
0  -25.600763 110.826492 5.780817  0.928122 0.268484 0.257887  0.027345 0.211890 1 0 1.000000
exhaust
0  -24.664822 110.661331 4.844876  0.354347 0.281751 0.891658  0.027345 0.211890 1 0 1.000000
0  -25.229137 110.688858 5.230264  0.704958 0.280303 0.651509  0.027345 0.211890 1 0 1.000000
0  -24.871279 108.280190 5.877165  0.582961 0.774574 0.245339  0.177740 0.211890 1 0 1.000000
exhaust
0  -24.871279 108.280190 5.877165  0.582961 0.774574 0.245339  0.177740 0.211890 1 0 1.000000
0  -24.210615 108.170074 5.450486  0.132407 0.816145 0.562473  0.177740 0.211890 1 0 1.000000
0  -24.664822 110.661331 4.844876  0.354347 0.281751 0.891658  0.027345 0.211890 1 0 1.000000
exhaust
0  -24.210615 108.170074 5.450486  0.132407 0.816145 0.562473  0.177740 0.211890 1 0 1.000000
0  -24.004156 110.771439 4.721002  -0.103298 0.276627 0.955409  0.027345 0.211890 1 0 1.000000
0  -24.664822 110.661331 4.844876  0.354347 0.281751 0.891658  0.027345 0.211890 1 0 1.000000
exhaust
0  -23.343493 110.977898 4.844876  -0.475981 0.250129 0.843136  0.027345 0.211890 1 0 1.000000
0  -24.004156 110.771439 4.721002  -0.103298 0.276627 0.955409  0.027345 0.211890 1 0 1.000000
0  -24.210615 108.170074 5.450486  0.132407 0.816145 0.562473  0.177740 0.211890 1 0 1.000000
exhaust
0  -24.210615 108.170074 5.450486  0.132407 0.816145 0.562473  0.177740 0.211890 1 0 1.000000
0  -23.426075 108.211365 5.601888  -0.409323 0.789075 0.458056  0.177740 0.211890 1 0 1.000000
0  -23.343493 110.977898 4.844876  -0.475981 0.250129 0.843136  0.027345 0.211890 1 0 1.000000
exhaust
0  -23.426075 108.211365 5.601888  -0.409323 0.789075 0.458056  0.177740 0.211890 1 0 1.000000
0  -22.779175 111.266945 5.230264  -0.791359 0.236124 0.563911  0.027345 0.211890 1 0 1.000000
0  -23.343493 110.977898 4.844876  -0.475981 0.250129 0.843136  0.027345 0.211890 1 0 1.000000
exhaust
0  -22.407553 111.569748 5.780817  -0.946372 0.210165 0.245379  0.027345 0.211890 1 0 1.000000
0  -22.779175 111.266945 5.230264  -0.791359 0.236124 0.563911  0.027345 0.211890 1 0 1.000000
0  -23.426075 108.211365 5.601888  -0.409323 0.789075 0.458056  0.177740 0.211890 1 0 1.000000
exhaust
0  -23.426075 108.211365 5.601888  -0.409323 0.789075 0.458056  0.177740 0.211890 1 0 1.000000
0  -22.971869 108.376534 6.248789  -0.699695 0.714442 0.000409  0.177740 0.211890 1 0 1.000000
0  -22.407553 111.569748 5.780817  -0.946372 0.210165 0.245379  0.027345 0.211890 1 0 1.000000
exhaust
0  -22.971869 108.376534 6.248789  -0.699695 0.714442 0.000409  0.177740 0.211890 1 0 1.000000
0  -22.269913 111.886322 6.441482  -0.970918 0.202238 -0.128135  0.027345 0.211890 1 0 1.000000
0  -22.407553 111.569748 5.780817  -0.946372 0.210165 0.245379  0.027345 0.211890 1 0 1.000000
exhaust
0  -22.407553 112.106537 7.102147  -0.874346 0.193675 -0.444982  0.027345 0.211890 1 0 1.000000
0  -22.269913 111.886322 6.441482  -0.970918 0.202238 -0.128135  0.027345 0.211890 1 0 1.000000
0  -22.971869 108.376534 6.248789  -0.699695 0.714442 0.000409  0.177740 0.211890 1 0 1.000000
exhaust
0  -22.971869 108.376534 6.248789  -0.699695 0.714442 0.000409  0.177740 0.211890 1 0 1.000000
0  -23.137032 108.582985 7.005800  -0.565333 0.647321 -0.511248  0.177740 0.211890 1 0 1.000000
0  -22.407553 112.106537 7.102147  -0.874346 0.193675 -0.444982  0.027345 0.211890 1 0 1.000000
exhaust
0  -23.137032 108.582985 7.005800  -0.565333 0.647321 -0.511248  0.177740 0.211890 1 0 1.000000
0  -22.779175 112.244179 7.666465  -0.664995 0.194771 -0.721004  0.027345 0.211890 1 0 1.000000
0  -22.407553 112.106537 7.102147  -0.874346 0.193675 -0.444982  0.027345 0.211890 1 0 1.000000
exhaust
0  -23.343493 112.244179 8.038089  -0.399005 0.199776 -0.894921  0.027345 0.211890 1 0 1.000000
0  -22.779175 112.244179 7.666465  -0.664995 0.194771 -0.721004  0.027345 0.211890 1 0 1.000000
0  -23.137032 108.582985 7.005800  -0.565333 0.647321 -0.511248  0.177740 0.211890 1 0 1.000000
exhaust
0  -23.137032 108.582985 7.005800  -0.565333 0.647321 -0.511248  0.177740 0.211890 1 0 1.000000
0  -23.797699 108.693108 7.432480  -0.130675 0.621789 -0.772206  0.177740 0.211890 1 0 1.000000
0  -23.343493 112.244179 8.038089  -0.399005 0.199776 -0.894921  0.027345 0.211890 1 0 1.000000
end
