version 1
nodes
0 "root" -1
1 "steering_wheel" 0
end
skeleton
time 0
0  0.000000 0.000000 0.000000  0.000000 -0.000000 -1.570797
1  19.916300 17.934299 33.308498  0.000000 -0.000000 0.000000
end
triangles
  phy
0  10.109714 -90.254539 53.933380  -0.144617 0.034160 -0.988898  0.000000 0.000000 1 0 1.000000
0  9.787453 -89.948006 53.957890  -0.050278 0.055559 -0.997189  0.000000 0.000000 1 0 1.000000
0  8.677920 -93.202293 54.043037  -0.080217 -0.034356 -0.996185  0.000000 0.000000 1 0 1.000000
  phy
0  9.787453 -89.948006 53.957890  -0.050278 0.055559 -0.997189  0.000000 0.000000 1 0 1.000000
0  5.873506 -92.112999 54.256626  -0.036319 0.060090 -0.997532  0.000000 0.000000 1 0 1.000000
0  8.677920 -93.202293 54.043037  -0.080217 -0.034356 -0.996185  0.000000 0.000000 1 0 1.000000
  phy
0  5.873506 -92.112999 54.256626  -0.036319 0.060090 -0.997532  0.000000 0.000000 1 0 1.000000
0  5.636739 -92.587883 54.274769  -0.029986 -0.131030 -0.990925  0.000000 0.000000 1 0 1.000000
0  8.677920 -93.202293 54.043037  -0.080217 -0.034356 -0.996185  0.000000 0.000000 1 0 1.000000
  phy
0  10.109714 -90.254539 53.933380  -0.144617 0.034160 -0.988898  0.000000 0.000000 1 0 1.000000
0  10.412609 -83.372566 53.442501  -0.122856 0.197103 -0.972655  0.000000 0.000000 1 0 1.000000
0  9.787453 -89.948006 53.957890  -0.050278 0.055559 -0.997189  0.000000 0.000000 1 0 1.000000
  phy
0  10.109714 -90.254539 53.933380  -0.144617 0.034160 -0.988898  0.000000 0.000000 1 0 1.000000
0  33.949100 -81.574089 50.077129  -0.266131 0.192483 -0.944524  0.000000 0.000000 1 0 1.000000
0  10.412609 -83.372566 53.442501  -0.122856 0.197103 -0.972655  0.000000 0.000000 1 0 1.000000
  phy
0  33.480923 -89.135658 50.350643  -0.171355 -0.031621 -0.984702  0.000000 0.000000 1 0 1.000000
0  33.949100 -81.574089 50.077129  -0.266131 0.192483 -0.944524  0.000000 0.000000 1 0 1.000000
0  10.109714 -90.254539 53.933380  -0.144617 0.034160 -0.988898  0.000000 0.000000 1 0 1.000000
  phy
0  9.710073 -92.831482 53.933846  -0.160561 -0.083619 -0.983478  0.000000 0.000000 1 0 1.000000
0  33.480923 -89.135658 50.350643  -0.171355 -0.031621 -0.984702  0.000000 0.000000 1 0 1.000000
0  10.109714 -90.254539 53.933380  -0.144617 0.034160 -0.988898  0.000000 0.000000 1 0 1.000000
  phy
0  10.109714 -90.254539 53.933380  -0.144617 0.034160 -0.988898  0.000000 0.000000 1 0 1.000000
0  8.677920 -93.202293 54.043037  -0.080217 -0.034356 -0.996185  0.000000 0.000000 1 0 1.000000
0  9.710073 -92.831482 53.933846  -0.160561 -0.083619 -0.983478  0.000000 0.000000 1 0 1.000000
  phy
0  9.021817 -94.825562 53.834747  -0.149157 -0.130913 -0.980109  0.000000 0.000000 1 0 1.000000
0  33.121109 -95.355942 49.765583  -0.793899 -0.594757 0.126448  0.000000 0.000000 1 0 1.000000
0  9.710073 -92.831482 53.933846  -0.160561 -0.083619 -0.983478  0.000000 0.000000 1 0 1.000000
  phy
0  9.710073 -92.831482 53.933846  -0.160561 -0.083619 -0.983478  0.000000 0.000000 1 0 1.000000
0  33.121109 -95.355942 49.765583  -0.793899 -0.594757 0.126448  0.000000 0.000000 1 0 1.000000
0  33.480923 -89.135658 50.350643  -0.171355 -0.031621 -0.984702  0.000000 0.000000 1 0 1.000000
  phy
0  8.677920 -93.202293 54.043037  -0.080217 -0.034356 -0.996185  0.000000 0.000000 1 0 1.000000
0  9.021817 -94.825562 53.834747  -0.149157 -0.130913 -0.980109  0.000000 0.000000 1 0 1.000000
0  9.710073 -92.831482 53.933846  -0.160561 -0.083619 -0.983478  0.000000 0.000000 1 0 1.000000
  phy
0  8.677920 -93.202293 54.043037  -0.080217 -0.034356 -0.996185  0.000000 0.000000 1 0 1.000000
0  5.636739 -92.587883 54.274769  -0.029986 -0.131030 -0.990925  0.000000 0.000000 1 0 1.000000
0  9.021817 -94.825562 53.834747  -0.149157 -0.130913 -0.980109  0.000000 0.000000 1 0 1.000000
  phy
0  8.635917 -98.567871 53.089077  -0.141212 -0.243615 -0.959537  0.000000 0.000000 1 0 1.000000
0  -0.007584 -103.042480 52.745850  0.000061 -0.174092 -0.984729  0.000000 0.000000 1 0 1.000000
0  -0.007506 -104.076958 52.504803  0.029523 -0.772511 -0.634314  0.000000 0.000000 1 0 1.000000
  phy
0  8.635917 -98.567871 53.089077  -0.141212 -0.243615 -0.959537  0.000000 0.000000 1 0 1.000000
0  8.898039 -96.211769 53.616577  -0.084117 -0.184361 -0.979252  0.000000 0.000000 1 0 1.000000
0  -0.007584 -103.042480 52.745850  0.000061 -0.174092 -0.984729  0.000000 0.000000 1 0 1.000000
  phy
0  5.636739 -92.587883 54.274769  -0.029986 -0.131030 -0.990925  0.000000 0.000000 1 0 1.000000
0  8.898039 -96.211769 53.616577  -0.084117 -0.184361 -0.979252  0.000000 0.000000 1 0 1.000000
0  9.021817 -94.825562 53.834747  -0.149157 -0.130913 -0.980109  0.000000 0.000000 1 0 1.000000
  phy
0  5.636739 -92.587883 54.274769  -0.029986 -0.131030 -0.990925  0.000000 0.000000 1 0 1.000000
0  -0.007216 -92.771858 54.384037  0.000024 -0.131270 -0.991347  0.000000 0.000000 1 0 1.000000
0  8.898039 -96.211769 53.616577  -0.084117 -0.184361 -0.979252  0.000000 0.000000 1 0 1.000000
  phy
0  -0.007216 -92.771858 54.384037  0.000024 -0.131270 -0.991347  0.000000 0.000000 1 0 1.000000
0  -0.007584 -103.042480 52.745850  0.000061 -0.174092 -0.984729  0.000000 0.000000 1 0 1.000000
0  8.898039 -96.211769 53.616577  -0.084117 -0.184361 -0.979252  0.000000 0.000000 1 0 1.000000
  phy
0  8.898039 -96.211769 53.616577  -0.084117 -0.184361 -0.979252  0.000000 0.000000 1 0 1.000000
0  33.121109 -95.355942 49.765583  -0.793899 -0.594757 0.126448  0.000000 0.000000 1 0 1.000000
0  9.021817 -94.825562 53.834747  -0.149157 -0.130913 -0.980109  0.000000 0.000000 1 0 1.000000
  phy
0  8.898039 -96.211769 53.616577  -0.084117 -0.184361 -0.979252  0.000000 0.000000 1 0 1.000000
0  8.635917 -98.567871 53.089077  -0.141212 -0.243615 -0.959537  0.000000 0.000000 1 0 1.000000
0  33.121109 -95.355942 49.765583  -0.793899 -0.594757 0.126448  0.000000 0.000000 1 0 1.000000
  phy
0  9.639359 -83.064857 53.446316  -0.032223 0.205631 -0.978099  0.000000 0.000000 1 0 1.000000
0  9.787453 -89.948006 53.957890  -0.050278 0.055559 -0.997189  0.000000 0.000000 1 0 1.000000
0  10.412609 -83.372566 53.442501  -0.122856 0.197103 -0.972655  0.000000 0.000000 1 0 1.000000
  phy
0  9.639359 -83.064857 53.446316  -0.032223 0.205631 -0.978099  0.000000 0.000000 1 0 1.000000
0  5.873506 -92.112999 54.256626  -0.036319 0.060090 -0.997532  0.000000 0.000000 1 0 1.000000
0  9.787453 -89.948006 53.957890  -0.050278 0.055559 -0.997189  0.000000 0.000000 1 0 1.000000
  phy
0  9.639359 -83.064857 53.446316  -0.032223 0.205631 -0.978099  0.000000 0.000000 1 0 1.000000
0  -0.007198 -90.016945 54.303894  -0.000011 0.069603 -0.997575  0.000000 0.000000 1 0 1.000000
0  5.873506 -92.112999 54.256626  -0.036319 0.060090 -0.997532  0.000000 0.000000 1 0 1.000000
  phy
0  9.639359 -83.064857 53.446316  -0.032223 0.205631 -0.978099  0.000000 0.000000 1 0 1.000000
0  -0.006540 -83.349335 53.803349  -0.000034 0.211538 -0.977370  0.000000 0.000000 1 0 1.000000
0  -0.007198 -90.016945 54.303894  -0.000011 0.069603 -0.997575  0.000000 0.000000 1 0 1.000000
  phy
0  10.412609 -83.372566 53.442501  -0.122856 0.197103 -0.972655  0.000000 0.000000 1 0 1.000000
0  11.087790 -72.543861 50.209141  -0.089014 0.333362 -0.938587  0.000000 0.000000 1 0 1.000000
0  9.639359 -83.064857 53.446316  -0.032223 0.205631 -0.978099  0.000000 0.000000 1 0 1.000000
  phy
0  10.412609 -83.372566 53.442501  -0.122856 0.197103 -0.972655  0.000000 0.000000 1 0 1.000000
0  33.949100 -81.574089 50.077129  -0.266131 0.192483 -0.944524  0.000000 0.000000 1 0 1.000000
0  11.087790 -72.543861 50.209141  -0.089014 0.333362 -0.938587  0.000000 0.000000 1 0 1.000000
  phy
0  11.087790 -72.543861 50.209141  -0.089014 0.333362 -0.938587  0.000000 0.000000 1 0 1.000000
0  -0.006068 -72.551476 50.522655  -0.000515 0.355264 -0.934766  0.000000 0.000000 1 0 1.000000
0  9.639359 -83.064857 53.446316  -0.032223 0.205631 -0.978099  0.000000 0.000000 1 0 1.000000
  phy
0  -0.006068 -72.551476 50.522655  -0.000515 0.355264 -0.934766  0.000000 0.000000 1 0 1.000000
0  -0.006540 -83.349335 53.803349  -0.000034 0.211538 -0.977370  0.000000 0.000000 1 0 1.000000
0  9.639359 -83.064857 53.446316  -0.032223 0.205631 -0.978099  0.000000 0.000000 1 0 1.000000
  phy
0  5.873506 -92.112999 54.256626  -0.036319 0.060090 -0.997532  0.000000 0.000000 1 0 1.000000
0  -0.007216 -92.771858 54.384037  0.000024 -0.131270 -0.991347  0.000000 0.000000 1 0 1.000000
0  5.636739 -92.587883 54.274769  -0.029986 -0.131030 -0.990925  0.000000 0.000000 1 0 1.000000
  phy
0  5.873506 -92.112999 54.256626  -0.036319 0.060090 -0.997532  0.000000 0.000000 1 0 1.000000
0  -0.007198 -90.016945 54.303894  -0.000011 0.069603 -0.997575  0.000000 0.000000 1 0 1.000000
0  -0.007216 -92.771858 54.384037  0.000024 -0.131270 -0.991347  0.000000 0.000000 1 0 1.000000
  phy
0  17.240639 -54.877331 41.973946  -0.031559 0.468277 -0.883018  0.000000 0.000000 1 0 1.000000
0  6.632977 -55.981743 42.843761  -0.000984 0.568842 -0.822446  0.000000 0.000000 1 0 1.000000
0  8.074510 -55.997841 42.831924  -0.022262 0.433460 -0.900898  0.000000 0.000000 1 0 1.000000
  phy
0  17.240639 -54.877331 41.973946  -0.031559 0.468277 -0.883018  0.000000 0.000000 1 0 1.000000
0  34.185062 -48.436478 37.590649  -0.053017 0.687329 -0.724408  0.000000 0.000000 1 0 1.000000
0  6.632977 -55.981743 42.843761  -0.000984 0.568842 -0.822446  0.000000 0.000000 1 0 1.000000
  phy
0  6.632977 -55.981743 42.843761  -0.000984 0.568842 -0.822446  0.000000 0.000000 1 0 1.000000
0  -6.642282 -55.981106 42.843075  0.006500 0.524440 -0.851422  0.000000 0.000000 1 0 1.000000
0  -0.005041 -56.387421 43.126148  -0.001210 0.421784 -0.906696  0.000000 0.000000 1 0 1.000000
  phy
0  6.632977 -55.981743 42.843761  -0.000984 0.568842 -0.822446  0.000000 0.000000 1 0 1.000000
0  -34.192749 -48.433029 37.587082  0.051300 0.878894 -0.474250  0.000000 0.000000 1 0 1.000000
0  -6.642282 -55.981106 42.843075  0.006500 0.524440 -0.851422  0.000000 0.000000 1 0 1.000000
  phy
0  6.632977 -55.981743 42.843761  -0.000984 0.568842 -0.822446  0.000000 0.000000 1 0 1.000000
0  34.185062 -48.436478 37.590649  -0.053017 0.687329 -0.724408  0.000000 0.000000 1 0 1.000000
0  -34.192749 -48.433029 37.587082  0.051300 0.878894 -0.474250  0.000000 0.000000 1 0 1.000000
  phy
0  6.632977 -55.981743 42.843761  -0.000984 0.568842 -0.822446  0.000000 0.000000 1 0 1.000000
0  -0.005041 -56.387421 43.126148  -0.001210 0.421784 -0.906696  0.000000 0.000000 1 0 1.000000
0  8.074510 -55.997841 42.831924  -0.022262 0.433460 -0.900898  0.000000 0.000000 1 0 1.000000
  phy
0  -0.005041 -56.387421 43.126148  -0.001210 0.421784 -0.906696  0.000000 0.000000 1 0 1.000000
0  10.909261 -63.974613 46.584335  -0.039447 0.408323 -0.911985  0.000000 0.000000 1 0 1.000000
0  8.074510 -55.997841 42.831924  -0.022262 0.433460 -0.900898  0.000000 0.000000 1 0 1.000000
  phy
0  33.121109 -95.355942 49.765583  -0.793899 -0.594757 0.126448  0.000000 0.000000 1 0 1.000000
0  33.949100 -81.574089 50.077129  -0.266131 0.192483 -0.944524  0.000000 0.000000 1 0 1.000000
0  33.480923 -89.135658 50.350643  -0.171355 -0.031621 -0.984702  0.000000 0.000000 1 0 1.000000
  phy
0  33.340500 -68.430489 45.923008  -0.144421 0.365469 -0.919552  0.000000 0.000000 1 0 1.000000
0  22.466980 -68.140236 47.276188  -0.116313 0.342707 -0.932214  0.000000 0.000000 1 0 1.000000
0  34.459000 -71.133705 46.645123  -0.225802 0.311061 -0.923176  0.000000 0.000000 1 0 1.000000
  phy
0  22.466980 -68.140236 47.276188  -0.116313 0.342707 -0.932214  0.000000 0.000000 1 0 1.000000
0  33.949100 -81.574089 50.077129  -0.266131 0.192483 -0.944524  0.000000 0.000000 1 0 1.000000
0  34.459000 -71.133705 46.645123  -0.225802 0.311061 -0.923176  0.000000 0.000000 1 0 1.000000
  phy
0  22.466980 -68.140236 47.276188  -0.116313 0.342707 -0.932214  0.000000 0.000000 1 0 1.000000
0  11.087790 -72.543861 50.209141  -0.089014 0.333362 -0.938587  0.000000 0.000000 1 0 1.000000
0  33.949100 -81.574089 50.077129  -0.266131 0.192483 -0.944524  0.000000 0.000000 1 0 1.000000
  phy
0  34.185062 -48.436478 37.590649  -0.053017 0.687329 -0.724408  0.000000 0.000000 1 0 1.000000
0  33.340500 -68.430489 45.923008  -0.144421 0.365469 -0.919552  0.000000 0.000000 1 0 1.000000
0  34.459000 -71.133705 46.645123  -0.225802 0.311061 -0.923176  0.000000 0.000000 1 0 1.000000
  phy
0  34.185062 -48.436478 37.590649  -0.053017 0.687329 -0.724408  0.000000 0.000000 1 0 1.000000
0  33.579456 -50.313591 38.545654  -0.148171 0.375157 -0.915042  0.000000 0.000000 1 0 1.000000
0  33.340500 -68.430489 45.923008  -0.144421 0.365469 -0.919552  0.000000 0.000000 1 0 1.000000
  phy
0  22.466980 -68.140236 47.276188  -0.116313 0.342707 -0.932214  0.000000 0.000000 1 0 1.000000
0  33.340500 -68.430489 45.923008  -0.144421 0.365469 -0.919552  0.000000 0.000000 1 0 1.000000
0  30.407974 -51.062778 39.278408  -0.100126 0.385280 -0.917352  0.000000 0.000000 1 0 1.000000
  phy
0  33.340500 -68.430489 45.923008  -0.144421 0.365469 -0.919552  0.000000 0.000000 1 0 1.000000
0  33.579456 -50.313591 38.545654  -0.148171 0.375157 -0.915042  0.000000 0.000000 1 0 1.000000
0  30.407974 -51.062778 39.278408  -0.100126 0.385280 -0.917352  0.000000 0.000000 1 0 1.000000
  phy
0  35.148129 -60.363243 41.975094  -0.990491 0.006320 -0.137435  0.000000 0.000000 1 0 1.000000
0  33.949100 -81.574089 50.077129  -0.266131 0.192483 -0.944524  0.000000 0.000000 1 0 1.000000
0  33.121109 -95.355942 49.765583  -0.793899 -0.594757 0.126448  0.000000 0.000000 1 0 1.000000
  phy
0  33.121109 -95.355942 49.765583  -0.793899 -0.594757 0.126448  0.000000 0.000000 1 0 1.000000
0  35.533890 -52.273064 38.412182  -0.025142 -0.234699 0.971743  0.000000 0.000000 1 0 1.000000
0  35.148129 -60.363243 41.975094  -0.990491 0.006320 -0.137435  0.000000 0.000000 1 0 1.000000
  phy
0  34.459000 -71.133705 46.645123  -0.225802 0.311061 -0.923176  0.000000 0.000000 1 0 1.000000
0  33.949100 -81.574089 50.077129  -0.266131 0.192483 -0.944524  0.000000 0.000000 1 0 1.000000
0  35.148129 -60.363243 41.975094  -0.990491 0.006320 -0.137435  0.000000 0.000000 1 0 1.000000
  phy
0  35.148129 -60.363243 41.975094  -0.990491 0.006320 -0.137435  0.000000 0.000000 1 0 1.000000
0  34.185062 -48.436478 37.590649  -0.053017 0.687329 -0.724408  0.000000 0.000000 1 0 1.000000
0  34.459000 -71.133705 46.645123  -0.225802 0.311061 -0.923176  0.000000 0.000000 1 0 1.000000
  phy
0  35.533890 -52.273064 38.412182  -0.025142 -0.234699 0.971743  0.000000 0.000000 1 0 1.000000
0  34.185062 -48.436478 37.590649  -0.053017 0.687329 -0.724408  0.000000 0.000000 1 0 1.000000
0  35.148129 -60.363243 41.975094  -0.990491 0.006320 -0.137435  0.000000 0.000000 1 0 1.000000
  phy
0  23.957567 -53.274052 40.819698  -0.058943 0.432638 -0.899639  0.000000 0.000000 1 0 1.000000
0  10.909261 -63.974613 46.584335  -0.039447 0.408323 -0.911985  0.000000 0.000000 1 0 1.000000
0  30.407974 -51.062778 39.278408  -0.100126 0.385280 -0.917352  0.000000 0.000000 1 0 1.000000
  phy
0  23.957567 -53.274052 40.819698  -0.058943 0.432638 -0.899639  0.000000 0.000000 1 0 1.000000
0  17.240639 -54.877331 41.973946  -0.031559 0.468277 -0.883018  0.000000 0.000000 1 0 1.000000
0  10.909261 -63.974613 46.584335  -0.039447 0.408323 -0.911985  0.000000 0.000000 1 0 1.000000
  phy
0  30.407974 -51.062778 39.278408  -0.100126 0.385280 -0.917352  0.000000 0.000000 1 0 1.000000
0  34.185062 -48.436478 37.590649  -0.053017 0.687329 -0.724408  0.000000 0.000000 1 0 1.000000
0  23.957567 -53.274052 40.819698  -0.058943 0.432638 -0.899639  0.000000 0.000000 1 0 1.000000
  phy
0  23.957567 -53.274052 40.819698  -0.058943 0.432638 -0.899639  0.000000 0.000000 1 0 1.000000
0  34.185062 -48.436478 37.590649  -0.053017 0.687329 -0.724408  0.000000 0.000000 1 0 1.000000
0  17.240639 -54.877331 41.973946  -0.031559 0.468277 -0.883018  0.000000 0.000000 1 0 1.000000
  phy
0  -9.801394 -89.946976 53.956898  0.050254 0.055514 -0.997193  0.000000 0.000000 1 0 1.000000
0  -9.652385 -83.063942 53.445347  0.032175 0.205621 -0.978103  0.000000 0.000000 1 0 1.000000
0  -10.425837 -83.371590 53.441452  0.122771 0.197097 -0.972667  0.000000 0.000000 1 0 1.000000
  phy
0  -9.801394 -89.946976 53.956898  0.050254 0.055514 -0.997193  0.000000 0.000000 1 0 1.000000
0  -5.887325 -92.112778 54.256058  0.036320 0.060069 -0.997533  0.000000 0.000000 1 0 1.000000
0  -9.652385 -83.063942 53.445347  0.032175 0.205621 -0.978103  0.000000 0.000000 1 0 1.000000
  phy
0  -5.887325 -92.112778 54.256058  0.036320 0.060069 -0.997533  0.000000 0.000000 1 0 1.000000
0  -0.007198 -90.016945 54.303894  -0.000011 0.069603 -0.997575  0.000000 0.000000 1 0 1.000000
0  -9.652385 -83.063942 53.445347  0.032175 0.205621 -0.978103  0.000000 0.000000 1 0 1.000000
  phy
0  -0.007198 -90.016945 54.303894  -0.000011 0.069603 -0.997575  0.000000 0.000000 1 0 1.000000
0  -0.006540 -83.349335 53.803349  -0.000034 0.211538 -0.977370  0.000000 0.000000 1 0 1.000000
0  -9.652385 -83.063942 53.445347  0.032175 0.205621 -0.978103  0.000000 0.000000 1 0 1.000000
  phy
0  -9.652385 -83.063942 53.445347  0.032175 0.205621 -0.978103  0.000000 0.000000 1 0 1.000000
0  -11.099555 -72.542862 50.208042  0.095273 0.314629 -0.944421  0.000000 0.000000 1 0 1.000000
0  -10.425837 -83.371590 53.441452  0.122771 0.197097 -0.972667  0.000000 0.000000 1 0 1.000000
  phy
0  -11.099555 -72.542862 50.208042  0.095273 0.314629 -0.944421  0.000000 0.000000 1 0 1.000000
0  -33.961716 -81.571213 50.073795  0.280147 0.180635 -0.942809  0.000000 0.000000 1 0 1.000000
0  -10.425837 -83.371590 53.441452  0.122771 0.197097 -0.972667  0.000000 0.000000 1 0 1.000000
  phy
0  -0.006540 -83.349335 53.803349  -0.000034 0.211538 -0.977370  0.000000 0.000000 1 0 1.000000
0  -0.006068 -72.551476 50.522655  -0.000515 0.355264 -0.934766  0.000000 0.000000 1 0 1.000000
0  -9.652385 -83.063942 53.445347  0.032175 0.205621 -0.978103  0.000000 0.000000 1 0 1.000000
  phy
0  -0.006068 -72.551476 50.522655  -0.000515 0.355264 -0.934766  0.000000 0.000000 1 0 1.000000
0  -11.099555 -72.542862 50.208042  0.095273 0.314629 -0.944421  0.000000 0.000000 1 0 1.000000
0  -9.652385 -83.063942 53.445347  0.032175 0.205621 -0.978103  0.000000 0.000000 1 0 1.000000
  phy
0  -22.472725 -68.140068 47.275291  0.100948 0.377731 -0.920396  0.000000 0.000000 1 0 1.000000
0  -23.968697 -53.272099 40.817375  0.076481 0.404358 -0.911397  0.000000 0.000000 1 0 1.000000
0  -30.416809 -51.059765 39.275276  0.111593 0.381798 -0.917484  0.000000 0.000000 1 0 1.000000
  phy
0  -22.472725 -68.140068 47.275291  0.100948 0.377731 -0.920396  0.000000 0.000000 1 0 1.000000
0  -10.920280 -63.973560 46.583206  0.068258 0.402886 -0.912701  0.000000 0.000000 1 0 1.000000
0  -23.968697 -53.272099 40.817375  0.076481 0.404358 -0.911397  0.000000 0.000000 1 0 1.000000
  phy
0  -22.472725 -68.140068 47.275291  0.100948 0.377731 -0.920396  0.000000 0.000000 1 0 1.000000
0  -11.099555 -72.542862 50.208042  0.095273 0.314629 -0.944421  0.000000 0.000000 1 0 1.000000
0  -10.920280 -63.973560 46.583206  0.068258 0.402886 -0.912701  0.000000 0.000000 1 0 1.000000
  phy
0  -33.587986 -50.310558 38.542370  0.185324 0.371424 -0.909780  0.000000 0.000000 1 0 1.000000
0  -33.352581 -68.429474 45.920231  0.134419 0.352019 -0.926291  0.000000 0.000000 1 0 1.000000
0  -30.416809 -51.059765 39.275276  0.111593 0.381798 -0.917484  0.000000 0.000000 1 0 1.000000
  phy
0  -33.352581 -68.429474 45.920231  0.134419 0.352019 -0.926291  0.000000 0.000000 1 0 1.000000
0  -22.472725 -68.140068 47.275291  0.100948 0.377731 -0.920396  0.000000 0.000000 1 0 1.000000
0  -30.416809 -51.059765 39.275276  0.111593 0.381798 -0.917484  0.000000 0.000000 1 0 1.000000
  phy
0  -30.416809 -51.059765 39.275276  0.111593 0.381798 -0.917484  0.000000 0.000000 1 0 1.000000
0  -34.192749 -48.433029 37.587082  0.051300 0.878894 -0.474250  0.000000 0.000000 1 0 1.000000
0  -33.587986 -50.310558 38.542370  0.185324 0.371424 -0.909780  0.000000 0.000000 1 0 1.000000
  phy
0  -23.968697 -53.272099 40.817375  0.076481 0.404358 -0.911397  0.000000 0.000000 1 0 1.000000
0  -34.192749 -48.433029 37.587082  0.051300 0.878894 -0.474250  0.000000 0.000000 1 0 1.000000
0  -30.416809 -51.059765 39.275276  0.111593 0.381798 -0.917484  0.000000 0.000000 1 0 1.000000
  phy
0  -33.961716 -81.571213 50.073795  0.280147 0.180635 -0.942809  0.000000 0.000000 1 0 1.000000
0  -10.123801 -90.250633 53.932358  0.144562 0.034090 -0.988908  0.000000 0.000000 1 0 1.000000
0  -10.425837 -83.371590 53.441452  0.122771 0.197097 -0.972667  0.000000 0.000000 1 0 1.000000
  phy
0  -10.123801 -90.250633 53.932358  0.144562 0.034090 -0.988908  0.000000 0.000000 1 0 1.000000
0  -9.801394 -89.946976 53.956898  0.050254 0.055514 -0.997193  0.000000 0.000000 1 0 1.000000
0  -10.425837 -83.371590 53.441452  0.122771 0.197097 -0.972667  0.000000 0.000000 1 0 1.000000
  phy
0  -8.691942 -93.201538 54.042168  0.080228 -0.034363 -0.996184  0.000000 0.000000 1 0 1.000000
0  -9.801394 -89.946976 53.956898  0.050254 0.055514 -0.997193  0.000000 0.000000 1 0 1.000000
0  -10.123801 -90.250633 53.932358  0.144562 0.034090 -0.988908  0.000000 0.000000 1 0 1.000000
  phy
0  -8.691942 -93.201538 54.042168  0.080228 -0.034363 -0.996184  0.000000 0.000000 1 0 1.000000
0  -5.887325 -92.112778 54.256058  0.036320 0.060069 -0.997533  0.000000 0.000000 1 0 1.000000
0  -9.801394 -89.946976 53.956898  0.050254 0.055514 -0.997193  0.000000 0.000000 1 0 1.000000
  phy
0  -8.691942 -93.201538 54.042168  0.080228 -0.034363 -0.996184  0.000000 0.000000 1 0 1.000000
0  -5.650334 -92.587280 54.274254  0.029995 -0.131060 -0.990921  0.000000 0.000000 1 0 1.000000
0  -5.887325 -92.112778 54.256058  0.036320 0.060069 -0.997533  0.000000 0.000000 1 0 1.000000
  phy
0  -8.912298 -96.211472 53.615669  0.108845 -0.191304 -0.975477  0.000000 0.000000 1 0 1.000000
0  -5.650334 -92.587280 54.274254  0.029995 -0.131060 -0.990921  0.000000 0.000000 1 0 1.000000
0  -9.036456 -94.825043 53.833778  0.149184 -0.130822 -0.980117  0.000000 0.000000 1 0 1.000000
  phy
0  -8.912298 -96.211472 53.615669  0.108845 -0.191304 -0.975477  0.000000 0.000000 1 0 1.000000
0  -0.007216 -92.771858 54.384037  0.000024 -0.131270 -0.991347  0.000000 0.000000 1 0 1.000000
0  -5.650334 -92.587280 54.274254  0.029995 -0.131060 -0.990921  0.000000 0.000000 1 0 1.000000
  phy
0  -8.912298 -96.211472 53.615669  0.108845 -0.191304 -0.975477  0.000000 0.000000 1 0 1.000000
0  -0.007584 -103.042480 52.745850  0.000061 -0.174092 -0.984729  0.000000 0.000000 1 0 1.000000
0  -0.007216 -92.771858 54.384037  0.000024 -0.131270 -0.991347  0.000000 0.000000 1 0 1.000000
  phy
0  -0.007216 -92.771858 54.384037  0.000024 -0.131270 -0.991347  0.000000 0.000000 1 0 1.000000
0  -5.887325 -92.112778 54.256058  0.036320 0.060069 -0.997533  0.000000 0.000000 1 0 1.000000
0  -5.650334 -92.587280 54.274254  0.029995 -0.131060 -0.990921  0.000000 0.000000 1 0 1.000000
  phy
0  -0.007216 -92.771858 54.384037  0.000024 -0.131270 -0.991347  0.000000 0.000000 1 0 1.000000
0  -0.007198 -90.016945 54.303894  -0.000011 0.069603 -0.997575  0.000000 0.000000 1 0 1.000000
0  -5.887325 -92.112778 54.256058  0.036320 0.060069 -0.997533  0.000000 0.000000 1 0 1.000000
  phy
0  -5.650334 -92.587280 54.274254  0.029995 -0.131060 -0.990921  0.000000 0.000000 1 0 1.000000
0  -8.691942 -93.201538 54.042168  0.080228 -0.034363 -0.996184  0.000000 0.000000 1 0 1.000000
0  -9.036456 -94.825043 53.833778  0.149184 -0.130822 -0.980117  0.000000 0.000000 1 0 1.000000
  phy
0  -9.036456 -94.825043 53.833778  0.149184 -0.130822 -0.980117  0.000000 0.000000 1 0 1.000000
0  -8.691942 -93.201538 54.042168  0.080228 -0.034363 -0.996184  0.000000 0.000000 1 0 1.000000
0  -9.724608 -92.830582 53.932819  0.160559 -0.083511 -0.983487  0.000000 0.000000 1 0 1.000000
  phy
0  -9.724608 -92.830582 53.932819  0.160559 -0.083511 -0.983487  0.000000 0.000000 1 0 1.000000
0  -33.136578 -95.347008 49.762722  0.795240 -0.574940 0.192450  0.000000 0.000000 1 0 1.000000
0  -9.036456 -94.825043 53.833778  0.149184 -0.130822 -0.980117  0.000000 0.000000 1 0 1.000000
  phy
0  -9.036456 -94.825043 53.833778  0.149184 -0.130822 -0.980117  0.000000 0.000000 1 0 1.000000
0  -33.136578 -95.347008 49.762722  0.795240 -0.574940 0.192450  0.000000 0.000000 1 0 1.000000
0  -8.912298 -96.211472 53.615669  0.108845 -0.191304 -0.975477  0.000000 0.000000 1 0 1.000000
  phy
0  10.909261 -63.974613 46.584335  -0.039447 0.408323 -0.911985  0.000000 0.000000 1 0 1.000000
0  17.240639 -54.877331 41.973946  -0.031559 0.468277 -0.883018  0.000000 0.000000 1 0 1.000000
0  8.074510 -55.997841 42.831924  -0.022262 0.433460 -0.900898  0.000000 0.000000 1 0 1.000000
  phy
0  -10.920280 -63.973560 46.583206  0.068258 0.402886 -0.912701  0.000000 0.000000 1 0 1.000000
0  -9.507349 -64.369827 46.790672  0.010226 0.411473 -0.911365  0.000000 0.000000 1 0 1.000000
0  -8.084264 -55.997089 42.831112  0.026327 0.435276 -0.899912  0.000000 0.000000 1 0 1.000000
  phy
0  -9.507349 -64.369827 46.790672  0.010226 0.411473 -0.911365  0.000000 0.000000 1 0 1.000000
0  -6.642282 -55.981106 42.843075  0.006500 0.524440 -0.851422  0.000000 0.000000 1 0 1.000000
0  -8.084264 -55.997089 42.831112  0.026327 0.435276 -0.899912  0.000000 0.000000 1 0 1.000000
  phy
0  -9.507349 -64.369827 46.790672  0.010226 0.411473 -0.911365  0.000000 0.000000 1 0 1.000000
0  -0.005041 -56.387421 43.126148  -0.001210 0.421784 -0.906696  0.000000 0.000000 1 0 1.000000
0  -6.642282 -55.981106 42.843075  0.006500 0.524440 -0.851422  0.000000 0.000000 1 0 1.000000
  phy
0  -8.084264 -55.997089 42.831112  0.026327 0.435276 -0.899912  0.000000 0.000000 1 0 1.000000
0  -6.642282 -55.981106 42.843075  0.006500 0.524440 -0.851422  0.000000 0.000000 1 0 1.000000
0  -17.249481 -54.876221 41.972595  0.031444 0.468266 -0.883028  0.000000 0.000000 1 0 1.000000
  phy
0  -6.642282 -55.981106 42.843075  0.006500 0.524440 -0.851422  0.000000 0.000000 1 0 1.000000
0  -34.192749 -48.433029 37.587082  0.051300 0.878894 -0.474250  0.000000 0.000000 1 0 1.000000
0  -17.249481 -54.876221 41.972595  0.031444 0.468266 -0.883028  0.000000 0.000000 1 0 1.000000
  phy
0  33.121109 -95.355942 49.765583  -0.793899 -0.594757 0.126448  0.000000 0.000000 1 0 1.000000
0  8.635917 -98.567871 53.089077  -0.141212 -0.243615 -0.959537  0.000000 0.000000 1 0 1.000000
0  7.467759 -103.444397 51.988117  -0.182726 -0.965307 -0.186529  0.000000 0.000000 1 0 1.000000
  phy
0  7.467759 -103.444397 51.988117  -0.182726 -0.965307 -0.186529  0.000000 0.000000 1 0 1.000000
0  21.505606 -100.633499 50.089870  -0.008779 -0.248615 0.968563  0.000000 0.000000 1 0 1.000000
0  33.121109 -95.355942 49.765583  -0.793899 -0.594757 0.126448  0.000000 0.000000 1 0 1.000000
  phy
0  35.533890 -52.273064 38.412182  -0.025142 -0.234699 0.971743  0.000000 0.000000 1 0 1.000000
0  33.121109 -95.355942 49.765583  -0.793899 -0.594757 0.126448  0.000000 0.000000 1 0 1.000000
0  21.505606 -100.633499 50.089870  -0.008779 -0.248615 0.968563  0.000000 0.000000 1 0 1.000000
  phy
0  10.909261 -63.974613 46.584335  -0.039447 0.408323 -0.911985  0.000000 0.000000 1 0 1.000000
0  11.087790 -72.543861 50.209141  -0.089014 0.333362 -0.938587  0.000000 0.000000 1 0 1.000000
0  30.407974 -51.062778 39.278408  -0.100126 0.385280 -0.917352  0.000000 0.000000 1 0 1.000000
  phy
0  30.407974 -51.062778 39.278408  -0.100126 0.385280 -0.917352  0.000000 0.000000 1 0 1.000000
0  11.087790 -72.543861 50.209141  -0.089014 0.333362 -0.938587  0.000000 0.000000 1 0 1.000000
0  22.466980 -68.140236 47.276188  -0.116313 0.342707 -0.932214  0.000000 0.000000 1 0 1.000000
  phy
0  33.579456 -50.313591 38.545654  -0.148171 0.375157 -0.915042  0.000000 0.000000 1 0 1.000000
0  34.185062 -48.436478 37.590649  -0.053017 0.687329 -0.724408  0.000000 0.000000 1 0 1.000000
0  30.407974 -51.062778 39.278408  -0.100126 0.385280 -0.917352  0.000000 0.000000 1 0 1.000000
  phy
0  -22.472725 -68.140068 47.275291  0.100948 0.377731 -0.920396  0.000000 0.000000 1 0 1.000000
0  -33.352581 -68.429474 45.920231  0.134419 0.352019 -0.926291  0.000000 0.000000 1 0 1.000000
0  -11.099555 -72.542862 50.208042  0.095273 0.314629 -0.944421  0.000000 0.000000 1 0 1.000000
  phy
0  -33.352581 -68.429474 45.920231  0.134419 0.352019 -0.926291  0.000000 0.000000 1 0 1.000000
0  -34.470352 -71.130997 46.641945  0.186714 0.310137 -0.932176  0.000000 0.000000 1 0 1.000000
0  -11.099555 -72.542862 50.208042  0.095273 0.314629 -0.944421  0.000000 0.000000 1 0 1.000000
  phy
0  -34.470352 -71.130997 46.641945  0.186714 0.310137 -0.932176  0.000000 0.000000 1 0 1.000000
0  -33.961716 -81.571213 50.073795  0.280147 0.180635 -0.942809  0.000000 0.000000 1 0 1.000000
0  -11.099555 -72.542862 50.208042  0.095273 0.314629 -0.944421  0.000000 0.000000 1 0 1.000000
  phy
0  -11.099555 -72.542862 50.208042  0.095273 0.314629 -0.944421  0.000000 0.000000 1 0 1.000000
0  -9.507349 -64.369827 46.790672  0.010226 0.411473 -0.911365  0.000000 0.000000 1 0 1.000000
0  -10.920280 -63.973560 46.583206  0.068258 0.402886 -0.912701  0.000000 0.000000 1 0 1.000000
  phy
0  -11.099555 -72.542862 50.208042  0.095273 0.314629 -0.944421  0.000000 0.000000 1 0 1.000000
0  -0.006068 -72.551476 50.522655  -0.000515 0.355264 -0.934766  0.000000 0.000000 1 0 1.000000
0  -9.507349 -64.369827 46.790672  0.010226 0.411473 -0.911365  0.000000 0.000000 1 0 1.000000
  phy
0  -33.587986 -50.310558 38.542370  0.185324 0.371424 -0.909780  0.000000 0.000000 1 0 1.000000
0  -34.192749 -48.433029 37.587082  0.051300 0.878894 -0.474250  0.000000 0.000000 1 0 1.000000
0  -34.470352 -71.130997 46.641945  0.186714 0.310137 -0.932176  0.000000 0.000000 1 0 1.000000
  phy
0  -34.470352 -71.130997 46.641945  0.186714 0.310137 -0.932176  0.000000 0.000000 1 0 1.000000
0  -33.352581 -68.429474 45.920231  0.134419 0.352019 -0.926291  0.000000 0.000000 1 0 1.000000
0  -33.587986 -50.310558 38.542370  0.185324 0.371424 -0.909780  0.000000 0.000000 1 0 1.000000
  phy
0  -23.968697 -53.272099 40.817375  0.076481 0.404358 -0.911397  0.000000 0.000000 1 0 1.000000
0  -10.920280 -63.973560 46.583206  0.068258 0.402886 -0.912701  0.000000 0.000000 1 0 1.000000
0  -17.249481 -54.876221 41.972595  0.031444 0.468266 -0.883028  0.000000 0.000000 1 0 1.000000
  phy
0  -17.249481 -54.876221 41.972595  0.031444 0.468266 -0.883028  0.000000 0.000000 1 0 1.000000
0  -34.192749 -48.433029 37.587082  0.051300 0.878894 -0.474250  0.000000 0.000000 1 0 1.000000
0  -23.968697 -53.272099 40.817375  0.076481 0.404358 -0.911397  0.000000 0.000000 1 0 1.000000
  phy
0  -8.912298 -96.211472 53.615669  0.108845 -0.191304 -0.975477  0.000000 0.000000 1 0 1.000000
0  -11.459435 -102.764717 51.738335  0.163407 -0.307450 -0.937429  0.000000 0.000000 1 0 1.000000
0  -8.653974 -98.567871 53.088287  0.090812 -0.239324 -0.966684  0.000000 0.000000 1 0 1.000000
  phy
0  -11.459435 -102.764717 51.738335  0.163407 -0.307450 -0.937429  0.000000 0.000000 1 0 1.000000
0  -0.007506 -104.076958 52.504803  0.029523 -0.772511 -0.634314  0.000000 0.000000 1 0 1.000000
0  -8.653974 -98.567871 53.088287  0.090812 -0.239324 -0.966684  0.000000 0.000000 1 0 1.000000
  phy
0  -8.653974 -98.567871 53.088287  0.090812 -0.239324 -0.966684  0.000000 0.000000 1 0 1.000000
0  -0.007584 -103.042480 52.745850  0.000061 -0.174092 -0.984729  0.000000 0.000000 1 0 1.000000
0  -8.912298 -96.211472 53.615669  0.108845 -0.191304 -0.975477  0.000000 0.000000 1 0 1.000000
  phy
0  -8.653974 -98.567871 53.088287  0.090812 -0.239324 -0.966684  0.000000 0.000000 1 0 1.000000
0  -0.007506 -104.076958 52.504803  0.029523 -0.772511 -0.634314  0.000000 0.000000 1 0 1.000000
0  -0.007584 -103.042480 52.745850  0.000061 -0.174092 -0.984729  0.000000 0.000000 1 0 1.000000
  phy
0  -9.724608 -92.830582 53.932819  0.160559 -0.083511 -0.983487  0.000000 0.000000 1 0 1.000000
0  -8.691942 -93.201538 54.042168  0.080228 -0.034363 -0.996184  0.000000 0.000000 1 0 1.000000
0  -10.123801 -90.250633 53.932358  0.144562 0.034090 -0.988908  0.000000 0.000000 1 0 1.000000
  phy
0  -10.123801 -90.250633 53.932358  0.144562 0.034090 -0.988908  0.000000 0.000000 1 0 1.000000
0  -33.494133 -89.133324 50.347466  0.171373 -0.031535 -0.984701  0.000000 0.000000 1 0 1.000000
0  -9.724608 -92.830582 53.932819  0.160559 -0.083511 -0.983487  0.000000 0.000000 1 0 1.000000
  phy
0  -9.724608 -92.830582 53.932819  0.160559 -0.083511 -0.983487  0.000000 0.000000 1 0 1.000000
0  -33.494133 -89.133324 50.347466  0.171373 -0.031535 -0.984701  0.000000 0.000000 1 0 1.000000
0  -33.136578 -95.347008 49.762722  0.795240 -0.574940 0.192450  0.000000 0.000000 1 0 1.000000
  phy
0  -34.470352 -71.130997 46.641945  0.186714 0.310137 -0.932176  0.000000 0.000000 1 0 1.000000
0  -35.157814 -60.359085 41.971478  0.990460 0.006540 -0.137647  0.000000 0.000000 1 0 1.000000
0  -33.961716 -81.571213 50.073795  0.280147 0.180635 -0.942809  0.000000 0.000000 1 0 1.000000
  phy
0  -34.470352 -71.130997 46.641945  0.186714 0.310137 -0.932176  0.000000 0.000000 1 0 1.000000
0  -34.192749 -48.433029 37.587082  0.051300 0.878894 -0.474250  0.000000 0.000000 1 0 1.000000
0  -35.157814 -60.359085 41.971478  0.990460 0.006540 -0.137647  0.000000 0.000000 1 0 1.000000
  phy
0  10.909261 -63.974613 46.584335  -0.039447 0.408323 -0.911985  0.000000 0.000000 1 0 1.000000
0  -0.005041 -56.387421 43.126148  -0.001210 0.421784 -0.906696  0.000000 0.000000 1 0 1.000000
0  -0.006068 -72.551476 50.522655  -0.000515 0.355264 -0.934766  0.000000 0.000000 1 0 1.000000
  phy
0  -0.005041 -56.387421 43.126148  -0.001210 0.421784 -0.906696  0.000000 0.000000 1 0 1.000000
0  -9.507349 -64.369827 46.790672  0.010226 0.411473 -0.911365  0.000000 0.000000 1 0 1.000000
0  -0.006068 -72.551476 50.522655  -0.000515 0.355264 -0.934766  0.000000 0.000000 1 0 1.000000
  phy
0  -0.006068 -72.551476 50.522655  -0.000515 0.355264 -0.934766  0.000000 0.000000 1 0 1.000000
0  11.087790 -72.543861 50.209141  -0.089014 0.333362 -0.938587  0.000000 0.000000 1 0 1.000000
0  10.909261 -63.974613 46.584335  -0.039447 0.408323 -0.911985  0.000000 0.000000 1 0 1.000000
  phy
0  -17.249481 -54.876221 41.972595  0.031444 0.468266 -0.883028  0.000000 0.000000 1 0 1.000000
0  -10.920280 -63.973560 46.583206  0.068258 0.402886 -0.912701  0.000000 0.000000 1 0 1.000000
0  -8.084264 -55.997089 42.831112  0.026327 0.435276 -0.899912  0.000000 0.000000 1 0 1.000000
  phy
0  -33.136578 -95.347008 49.762722  0.795240 -0.574940 0.192450  0.000000 0.000000 1 0 1.000000
0  -11.459435 -102.764717 51.738335  0.163407 -0.307450 -0.937429  0.000000 0.000000 1 0 1.000000
0  -8.912298 -96.211472 53.615669  0.108845 -0.191304 -0.975477  0.000000 0.000000 1 0 1.000000
  phy
0  -33.961716 -81.571213 50.073795  0.280147 0.180635 -0.942809  0.000000 0.000000 1 0 1.000000
0  -33.494133 -89.133324 50.347466  0.171373 -0.031535 -0.984701  0.000000 0.000000 1 0 1.000000
0  -10.123801 -90.250633 53.932358  0.144562 0.034090 -0.988908  0.000000 0.000000 1 0 1.000000
  phy
0  -35.157814 -60.359085 41.971478  0.990460 0.006540 -0.137647  0.000000 0.000000 1 0 1.000000
0  -33.136578 -95.347008 49.762722  0.795240 -0.574940 0.192450  0.000000 0.000000 1 0 1.000000
0  -33.961716 -81.571213 50.073795  0.280147 0.180635 -0.942809  0.000000 0.000000 1 0 1.000000
  phy
0  -33.961716 -81.571213 50.073795  0.280147 0.180635 -0.942809  0.000000 0.000000 1 0 1.000000
0  -33.136578 -95.347008 49.762722  0.795240 -0.574940 0.192450  0.000000 0.000000 1 0 1.000000
0  -33.494133 -89.133324 50.347466  0.171373 -0.031535 -0.984701  0.000000 0.000000 1 0 1.000000
  phy
0  -33.136578 -95.347008 49.762722  0.795240 -0.574940 0.192450  0.000000 0.000000 1 0 1.000000
0  -35.157814 -60.359085 41.971478  0.990460 0.006540 -0.137647  0.000000 0.000000 1 0 1.000000
0  -35.542622 -52.269730 38.408646  0.017924 -0.235748 0.971649  0.000000 0.000000 1 0 1.000000
  phy
0  -33.136578 -95.347008 49.762722  0.795240 -0.574940 0.192450  0.000000 0.000000 1 0 1.000000
0  -35.542622 -52.269730 38.408646  0.017924 -0.235748 0.971649  0.000000 0.000000 1 0 1.000000
0  -21.520073 -100.631462 50.087715  0.019373 -0.273498 0.961677  0.000000 0.000000 1 0 1.000000
  phy
0  -33.136578 -95.347008 49.762722  0.795240 -0.574940 0.192450  0.000000 0.000000 1 0 1.000000
0  -21.520073 -100.631462 50.087715  0.019373 -0.273498 0.961677  0.000000 0.000000 1 0 1.000000
0  -11.459435 -102.764717 51.738335  0.163407 -0.307450 -0.937429  0.000000 0.000000 1 0 1.000000
  phy
0  -35.157814 -60.359085 41.971478  0.990460 0.006540 -0.137647  0.000000 0.000000 1 0 1.000000
0  -34.192749 -48.433029 37.587082  0.051300 0.878894 -0.474250  0.000000 0.000000 1 0 1.000000
0  -35.542622 -52.269730 38.408646  0.017924 -0.235748 0.971649  0.000000 0.000000 1 0 1.000000
  phy
0  -21.520073 -100.631462 50.087715  0.019373 -0.273498 0.961677  0.000000 0.000000 1 0 1.000000
0  7.467759 -103.444397 51.988117  -0.182726 -0.965307 -0.186529  0.000000 0.000000 1 0 1.000000
0  -0.007506 -104.076958 52.504803  0.029523 -0.772511 -0.634314  0.000000 0.000000 1 0 1.000000
  phy
0  7.467759 -103.444397 51.988117  -0.182726 -0.965307 -0.186529  0.000000 0.000000 1 0 1.000000
0  -21.520073 -100.631462 50.087715  0.019373 -0.273498 0.961677  0.000000 0.000000 1 0 1.000000
0  21.505606 -100.633499 50.089870  -0.008779 -0.248615 0.968563  0.000000 0.000000 1 0 1.000000
  phy
0  8.635917 -98.567871 53.089077  -0.141212 -0.243615 -0.959537  0.000000 0.000000 1 0 1.000000
0  -0.007506 -104.076958 52.504803  0.029523 -0.772511 -0.634314  0.000000 0.000000 1 0 1.000000
0  7.467759 -103.444397 51.988117  -0.182726 -0.965307 -0.186529  0.000000 0.000000 1 0 1.000000
  phy
0  -11.459435 -102.764717 51.738335  0.163407 -0.307450 -0.937429  0.000000 0.000000 1 0 1.000000
0  -21.520073 -100.631462 50.087715  0.019373 -0.273498 0.961677  0.000000 0.000000 1 0 1.000000
0  -0.007506 -104.076958 52.504803  0.029523 -0.772511 -0.634314  0.000000 0.000000 1 0 1.000000
  phy
0  -34.192749 -48.433029 37.587082  0.051300 0.878894 -0.474250  0.000000 0.000000 1 0 1.000000
0  34.185062 -48.436478 37.590649  -0.053017 0.687329 -0.724408  0.000000 0.000000 1 0 1.000000
0  35.533890 -52.273064 38.412182  -0.025142 -0.234699 0.971743  0.000000 0.000000 1 0 1.000000
  phy
0  -34.192749 -48.433029 37.587082  0.051300 0.878894 -0.474250  0.000000 0.000000 1 0 1.000000
0  35.533890 -52.273064 38.412182  -0.025142 -0.234699 0.971743  0.000000 0.000000 1 0 1.000000
0  -35.542622 -52.269730 38.408646  0.017924 -0.235748 0.971649  0.000000 0.000000 1 0 1.000000
  phy
0  -21.520073 -100.631462 50.087715  0.019373 -0.273498 0.961677  0.000000 0.000000 1 0 1.000000
0  -35.542622 -52.269730 38.408646  0.017924 -0.235748 0.971649  0.000000 0.000000 1 0 1.000000
0  21.505606 -100.633499 50.089870  -0.008779 -0.248615 0.968563  0.000000 0.000000 1 0 1.000000
  phy
0  21.505606 -100.633499 50.089870  -0.008779 -0.248615 0.968563  0.000000 0.000000 1 0 1.000000
0  -35.542622 -52.269730 38.408646  0.017924 -0.235748 0.971649  0.000000 0.000000 1 0 1.000000
0  35.533890 -52.273064 38.412182  -0.025142 -0.234699 0.971743  0.000000 0.000000 1 0 1.000000
end
