version 1
nodes
0 "root" -1
1 "steering_wheel" 0
end
skeleton
time 0
0  0.000000 0.000000 0.000000  0.000000 -0.000000 -1.570797
1  19.916300 17.934299 33.308498  0.000000 -0.000000 0.000000
end
triangles
litfull
0  34.684921 -95.631203 25.944820  0.999961 -0.007882 -0.004065  0.611347 0.707022 1 0 1.000000
0  34.684921 -94.048370 25.339212  0.999973 -0.007335 -0.000007  0.632832 0.646474 1 0 1.000000
0  34.684921 -96.883720 27.761646  0.999945 -0.008581 -0.005964  0.611347 0.887692 1 0 1.000000
litfull
0  34.684921 -95.631203 24.788656  0.999966 -0.007479 0.003358  0.611347 0.590808 1 0 1.000000
0  34.684921 -94.048370 25.339212  0.999973 -0.007335 -0.000007  0.632832 0.646474 1 0 1.000000
0  34.684921 -95.631203 25.944820  0.999961 -0.007882 -0.004065  0.611347 0.707022 1 0 1.000000
litfull
0  34.684921 -96.883720 22.765371  0.999955 -0.008065 0.005007  0.611347 0.390606 1 0 1.000000
0  34.684921 -94.048370 25.339212  0.999973 -0.007335 -0.000007  0.632832 0.646474 1 0 1.000000
0  34.684921 -95.631203 24.788656  0.999966 -0.007479 0.003358  0.611347 0.590808 1 0 1.000000
litfull
0  -31.629295 -96.993851 23.315933  -0.999980 -0.005735 0.002563  0.421888 0.444319 1 0 1.000000
0  -31.629295 -96.333183 24.774900  -0.999984 -0.005462 0.001648  0.421888 0.590808 1 0 1.000000
0  -31.629295 -94.337433 25.339220  -0.999985 -0.005466 0.000001  0.443373 0.646474 1 0 1.000000
litfull
0  -31.629295 -96.333183 24.774900  -0.999984 -0.005462 0.001648  0.421888 0.590808 1 0 1.000000
0  -31.629295 -96.333183 25.944826  -0.999982 -0.005607 -0.001980  0.421888 0.707022 1 0 1.000000
0  -31.629295 -94.337433 25.339220  -0.999985 -0.005466 0.000001  0.443373 0.646474 1 0 1.000000
litfull
0  -31.629295 -96.333183 25.944826  -0.999982 -0.005607 -0.001980  0.421888 0.707022 1 0 1.000000
0  -31.629295 -96.993851 27.224865  -0.999978 -0.005933 -0.003040  0.421888 0.834956 1 0 1.000000
0  -31.629295 -94.337433 25.339220  -0.999985 -0.005466 0.000001  0.443373 0.646474 1 0 1.000000
litfull
0  34.106842 -95.259590 25.889767  0.999912 -0.011293 -0.007016  0.576189 0.701163 1 0 1.000000
0  34.120605 -94.048370 25.339212  0.999948 -0.010240 0.000000  0.597674 0.646474 1 0 1.000000
0  34.106842 -96.883720 27.913050  0.999869 -0.012666 -0.010067  0.576189 0.903317 1 0 1.000000
litfull
0  34.106842 -95.259590 24.843714  0.999929 -0.010433 0.005675  0.576189 0.597644 1 0 1.000000
0  34.120605 -94.048370 25.339212  0.999948 -0.010240 0.000000  0.597674 0.646474 1 0 1.000000
0  34.106842 -95.259590 25.889767  0.999912 -0.011293 -0.007016  0.576189 0.701163 1 0 1.000000
litfull
0  34.106842 -96.883720 22.613968  0.999900 -0.011458 0.008260  0.576189 0.374981 1 0 1.000000
0  34.120605 -94.048370 25.339212  0.999948 -0.010240 0.000000  0.597674 0.646474 1 0 1.000000
0  34.106842 -95.259590 24.843714  0.999929 -0.010433 0.005675  0.576189 0.597644 1 0 1.000000
litfull
0  33.005733 -94.750320 25.284157  -0.469506 -0.882928 0.001547  0.507828 0.641591 1 0 1.000000
0  33.693924 -94.750320 24.609726  0.001256 -0.881336 -0.472488  0.549821 0.573229 1 0 1.000000
0  33.680161 -95.108185 25.270393  -0.000066 -0.999992 -0.004003  0.548845 0.639637 1 0 1.000000
litfull
0  33.693924 -94.750320 24.609726  0.001256 -0.881336 -0.472488  0.549821 0.573229 1 0 1.000000
0  34.354591 -94.750320 25.270393  0.469775 -0.882786 -0.000642  0.590838 0.639637 1 0 1.000000
0  33.680161 -95.108185 25.270393  -0.000066 -0.999992 -0.004003  0.548845 0.639637 1 0 1.000000
litfull
0  34.354591 -94.750320 25.270393  0.469775 -0.882786 -0.000642  0.590838 0.639637 1 0 1.000000
0  33.680161 -94.750320 25.958586  -0.001206 -0.884005 0.467475  0.548845 0.707999 1 0 1.000000
0  33.680161 -95.108185 25.270393  -0.000066 -0.999992 -0.004003  0.548845 0.639637 1 0 1.000000
litfull
0  33.680161 -94.750320 25.958586  -0.001206 -0.884005 0.467475  0.548845 0.707999 1 0 1.000000
0  33.005733 -94.750320 25.284157  -0.469506 -0.882928 0.001547  0.507828 0.641591 1 0 1.000000
0  33.680161 -95.108185 25.270393  -0.000066 -0.999992 -0.004003  0.548845 0.639637 1 0 1.000000
litfull
0  -33.005684 -94.750351 25.284163  0.469938 -0.882697 0.002047  0.507828 0.641591 1 0 1.000000
0  -33.680111 -95.108208 25.270399  0.000061 -0.999992 -0.004005  0.548845 0.639637 1 0 1.000000
0  -33.693874 -94.750351 24.609734  -0.001358 -0.881285 -0.472582  0.549821 0.573229 1 0 1.000000
litfull
0  -33.693874 -94.750351 24.609734  -0.001358 -0.881285 -0.472582  0.549821 0.573229 1 0 1.000000
0  -33.680111 -95.108208 25.270399  0.000061 -0.999992 -0.004005  0.548845 0.639637 1 0 1.000000
0  -34.354538 -94.750351 25.270399  -0.469940 -0.882698 -0.000450  0.590838 0.639637 1 0 1.000000
litfull
0  -34.354538 -94.750351 25.270399  -0.469940 -0.882698 -0.000450  0.590838 0.639637 1 0 1.000000
0  -33.680111 -95.108208 25.270399  0.000061 -0.999992 -0.004005  0.548845 0.639637 1 0 1.000000
0  -33.680111 -94.750351 25.958591  0.001208 -0.884017 0.467453  0.548845 0.707999 1 0 1.000000
litfull
0  -33.680111 -94.750351 25.958591  0.001208 -0.884017 0.467453  0.548845 0.707999 1 0 1.000000
0  -33.680111 -95.108208 25.270399  0.000061 -0.999992 -0.004005  0.548845 0.639637 1 0 1.000000
0  -33.005684 -94.750351 25.284163  0.469938 -0.882697 0.002047  0.507828 0.641591 1 0 1.000000
litfull
0  33.019497 -95.259590 25.889767  0.999912 -0.011293 -0.007016  0.507828 0.701163 1 0 1.000000
0  33.033260 -94.048370 25.339212  0.999947 -0.010290 0.000001  0.529313 0.646474 1 0 1.000000
0  33.019497 -96.883720 27.913050  0.999869 -0.012666 -0.010067  0.507828 0.903317 1 0 1.000000
litfull
0  33.019497 -95.259590 24.843714  0.999929 -0.010435 0.005678  0.507828 0.597644 1 0 1.000000
0  33.033260 -94.048370 25.339212  0.999947 -0.010290 0.000001  0.529313 0.646474 1 0 1.000000
0  33.019497 -95.259590 25.889767  0.999912 -0.011293 -0.007016  0.507828 0.701163 1 0 1.000000
litfull
0  33.019497 -96.883720 22.613968  0.999900 -0.011460 0.008265  0.507828 0.374981 1 0 1.000000
0  33.033260 -94.048370 25.339212  0.999947 -0.010290 0.000001  0.529313 0.646474 1 0 1.000000
0  33.019497 -95.259590 24.843714  0.999929 -0.010435 0.005678  0.507828 0.597644 1 0 1.000000
litfull
0  -31.739405 -96.883743 27.679071  -0.623116 -0.000002 -0.782130  0.942412 0.712882 1 0 1.000000
0  -31.739405 -98.439056 27.679071  -0.623191 0.000000 -0.782070  0.942412 0.803705 1 0 1.000000
0  -32.936859 -98.439056 28.257154  -0.222995 -0.000001 -0.974820  0.947295 0.803705 1 0 1.000000
litfull
0  -32.936859 -98.439056 28.257154  -0.222995 -0.000001 -0.974820  0.947295 0.803705 1 0 1.000000
0  -32.936863 -96.883743 28.257154  -0.222983 -0.000002 -0.974822  0.947295 0.712882 1 0 1.000000
0  -31.739405 -96.883743 27.679071  -0.623116 -0.000002 -0.782130  0.942412 0.712882 1 0 1.000000
litfull
0  -32.936863 -96.883743 28.257154  -0.222983 -0.000002 -0.974822  0.947295 0.712882 1 0 1.000000
0  -32.936859 -98.439056 28.257154  -0.222995 -0.000001 -0.974820  0.947295 0.803705 1 0 1.000000
0  -34.271954 -98.439056 28.257154  0.221773 0.000000 -0.975098  0.953154 0.803705 1 0 1.000000
litfull
0  -34.271954 -98.439056 28.257154  0.221773 0.000000 -0.975098  0.953154 0.803705 1 0 1.000000
0  -34.271957 -96.883743 28.257154  0.222474 0.000000 -0.974939  0.953154 0.712882 1 0 1.000000
0  -32.936863 -96.883743 28.257154  -0.222983 -0.000002 -0.974822  0.947295 0.712882 1 0 1.000000
litfull
0  34.272007 -96.883720 22.421276  -0.153255 -0.725208 0.671257  0.583026 0.265603 1 0 1.000000
0  35.469460 -96.883720 22.999355  -0.429360 -0.725089 0.538420  0.658223 0.338847 1 0 1.000000
0  33.597576 -94.048370 25.339212  0.000008 -1.000000 0.000002  0.541032 0.632801 1 0 1.000000
litfull
0  35.469460 -96.883720 22.999355  -0.429360 -0.725089 0.538420  0.658223 0.338847 1 0 1.000000
0  36.295292 -96.883720 24.045408  -0.620443 -0.725100 0.298800  0.709983 0.469710 1 0 1.000000
0  33.597576 -94.048370 25.339212  0.000008 -1.000000 0.000002  0.541032 0.632801 1 0 1.000000
litfull
0  36.295292 -96.883720 24.045408  -0.620443 -0.725100 0.298800  0.709983 0.469710 1 0 1.000000
0  36.584332 -96.883720 25.339211  -0.688485 -0.725251 0.000000  0.729514 0.632801 1 0 1.000000
0  33.597576 -94.048370 25.339212  0.000008 -1.000000 0.000002  0.541032 0.632801 1 0 1.000000
litfull
0  36.584332 -96.883720 25.339211  -0.688485 -0.725251 0.000000  0.729514 0.632801 1 0 1.000000
0  36.295292 -96.883720 26.633011  -0.620492 -0.725147 -0.298583  0.709983 0.795892 1 0 1.000000
0  33.597576 -94.048370 25.339212  0.000008 -1.000000 0.000002  0.541032 0.632801 1 0 1.000000
litfull
0  36.295292 -96.883720 26.633011  -0.620492 -0.725147 -0.298583  0.709983 0.795892 1 0 1.000000
0  35.469460 -96.883720 27.679064  -0.429364 -0.725087 -0.538418  0.658223 0.926756 1 0 1.000000
0  33.597576 -94.048370 25.339212  0.000008 -1.000000 0.000002  0.541032 0.632801 1 0 1.000000
litfull
0  35.469460 -96.883720 27.679064  -0.429364 -0.725087 -0.538418  0.658223 0.926756 1 0 1.000000
0  34.272007 -96.883720 28.257147  -0.153597 -0.725187 -0.671201  0.583026 0.998047 1 0 1.000000
0  33.597576 -94.048370 25.339212  0.000008 -1.000000 0.000002  0.541032 0.632801 1 0 1.000000
litfull
0  34.272007 -96.883720 28.257147  -0.153218 -0.725183 -0.671292  0.583026 0.998047 1 0 1.000000
0  32.936913 -96.883720 28.257147  0.153256 -0.725829 -0.670586  0.499039 0.998047 1 0 1.000000
0  33.597576 -94.048370 25.339212  0.000008 -1.000000 0.000002  0.541032 0.632801 1 0 1.000000
litfull
0  32.936913 -96.883720 28.257147  0.153256 -0.725829 -0.670586  0.499039 0.998047 1 0 1.000000
0  31.739460 -96.883720 27.679064  0.430517 -0.725376 -0.537108  0.423841 0.926756 1 0 1.000000
0  33.597576 -94.048370 25.339212  0.000008 -1.000000 0.000002  0.541032 0.632801 1 0 1.000000
litfull
0  31.739460 -96.883720 27.679064  0.430517 -0.725376 -0.537108  0.423841 0.926756 1 0 1.000000
0  30.913630 -96.883720 26.633011  0.620507 -0.725020 -0.298859  0.371105 0.795892 1 0 1.000000
0  33.597576 -94.048370 25.339212  0.000008 -1.000000 0.000002  0.541032 0.632801 1 0 1.000000
litfull
0  30.913630 -96.883720 26.633011  0.620507 -0.725020 -0.298859  0.371105 0.795892 1 0 1.000000
0  30.610826 -96.883720 25.339211  0.688486 -0.725250 0.000003  0.352550 0.632801 1 0 1.000000
0  33.597576 -94.048370 25.339212  0.000008 -1.000000 0.000002  0.541032 0.632801 1 0 1.000000
litfull
0  30.610826 -96.883720 25.339211  0.688486 -0.725250 0.000003  0.352550 0.632801 1 0 1.000000
0  30.913630 -96.883720 24.045408  0.620452 -0.725083 0.298820  0.371105 0.469710 1 0 1.000000
0  33.597576 -94.048370 25.339212  0.000008 -1.000000 0.000002  0.541032 0.632801 1 0 1.000000
litfull
0  30.913630 -96.883720 24.045408  0.620452 -0.725083 0.298820  0.371105 0.469710 1 0 1.000000
0  31.739460 -96.883720 22.999355  0.429523 -0.725131 0.538234  0.423841 0.338847 1 0 1.000000
0  33.597576 -94.048370 25.339212  0.000008 -1.000000 0.000002  0.541032 0.632801 1 0 1.000000
litfull
0  31.739460 -96.883720 22.999355  0.429523 -0.725131 0.538234  0.423841 0.338847 1 0 1.000000
0  32.936913 -96.883720 22.421276  0.153255 -0.725829 0.670586  0.499039 0.265603 1 0 1.000000
0  33.597576 -94.048370 25.339212  0.000008 -1.000000 0.000002  0.541032 0.632801 1 0 1.000000
litfull
0  32.936913 -96.883720 22.421276  0.153255 -0.725829 0.670586  0.499039 0.265603 1 0 1.000000
0  34.272007 -96.883720 22.421276  -0.153255 -0.725208 0.671257  0.583026 0.265603 1 0 1.000000
0  33.597576 -94.048370 25.339212  0.000008 -1.000000 0.000002  0.541032 0.632801 1 0 1.000000
litfull
0  -34.271957 -96.883743 28.257154  0.153224 -0.725027 -0.671460  0.583026 0.998047 1 0 1.000000
0  -33.597527 -94.048393 25.339220  0.000241 -1.000000 -0.000001  0.541032 0.632801 1 0 1.000000
0  -32.936863 -96.883743 28.257154  -0.153256 -0.725827 -0.670587  0.499039 0.998047 1 0 1.000000
litfull
0  -32.936863 -96.883743 28.257154  -0.153256 -0.725827 -0.670587  0.499039 0.998047 1 0 1.000000
0  -33.597527 -94.048393 25.339220  0.000241 -1.000000 -0.000001  0.541032 0.632801 1 0 1.000000
0  -31.739405 -96.883743 27.679071  -0.429368 -0.725100 -0.538398  0.423841 0.926756 1 0 1.000000
litfull
0  -31.739405 -96.883743 27.679071  -0.429663 -0.725104 -0.538157  0.423841 0.926756 1 0 1.000000
0  -33.597527 -94.048393 25.339220  0.000241 -1.000000 -0.000001  0.541032 0.632801 1 0 1.000000
0  -30.913576 -96.883743 26.633018  -0.621004 -0.724415 -0.299294  0.371105 0.795892 1 0 1.000000
litfull
0  -30.913576 -96.883743 26.633018  -0.621004 -0.724415 -0.299294  0.371105 0.795892 1 0 1.000000
0  -33.597527 -94.048393 25.339220  0.000241 -1.000000 -0.000001  0.541032 0.632801 1 0 1.000000
0  -30.610771 -96.883743 25.339220  -0.688485 -0.725250 -0.000000  0.352550 0.632801 1 0 1.000000
litfull
0  -30.610771 -96.883743 25.339220  -0.688485 -0.725250 -0.000000  0.352550 0.632801 1 0 1.000000
0  -33.597527 -94.048393 25.339220  0.000241 -1.000000 -0.000001  0.541032 0.632801 1 0 1.000000
0  -30.913576 -96.883743 24.045416  -0.620455 -0.725082 0.298818  0.371105 0.469710 1 0 1.000000
litfull
0  -30.913576 -96.883743 24.045416  -0.620455 -0.725082 0.298818  0.371105 0.469710 1 0 1.000000
0  -33.597527 -94.048393 25.339220  0.000241 -1.000000 -0.000001  0.541032 0.632801 1 0 1.000000
0  -31.739405 -96.883743 22.999363  -0.429322 -0.725076 0.538467  0.423841 0.338847 1 0 1.000000
litfull
0  -31.739405 -96.883743 22.999363  -0.429322 -0.725076 0.538467  0.423841 0.338847 1 0 1.000000
0  -33.597527 -94.048393 25.339220  0.000241 -1.000000 -0.000001  0.541032 0.632801 1 0 1.000000
0  -32.936863 -96.883743 22.421282  -0.153236 -0.725100 0.671378  0.499039 0.265603 1 0 1.000000
litfull
0  -32.936863 -96.883743 22.421282  -0.153236 -0.725100 0.671378  0.499039 0.265603 1 0 1.000000
0  -33.597527 -94.048393 25.339220  0.000241 -1.000000 -0.000001  0.541032 0.632801 1 0 1.000000
0  -34.271957 -96.883743 22.421282  0.153251 -0.725174 0.671295  0.583026 0.265603 1 0 1.000000
litfull
0  -34.271957 -96.883743 22.421282  0.153251 -0.725174 0.671295  0.583026 0.265603 1 0 1.000000
0  -33.597527 -94.048393 25.339220  0.000241 -1.000000 -0.000001  0.541032 0.632801 1 0 1.000000
0  -35.469410 -96.883743 22.999363  0.429379 -0.725107 0.538381  0.658223 0.338847 1 0 1.000000
litfull
0  -35.469410 -96.883743 22.999363  0.429379 -0.725107 0.538381  0.658223 0.338847 1 0 1.000000
0  -33.597527 -94.048393 25.339220  0.000241 -1.000000 -0.000001  0.541032 0.632801 1 0 1.000000
0  -36.295242 -96.883743 24.045416  0.620569 -0.725240 0.298197  0.709983 0.469710 1 0 1.000000
litfull
0  -36.295242 -96.883743 24.045416  0.620569 -0.725240 0.298197  0.709983 0.469710 1 0 1.000000
0  -33.597527 -94.048393 25.339220  0.000241 -1.000000 -0.000001  0.541032 0.632801 1 0 1.000000
0  -36.584282 -96.883743 25.339220  0.688485 -0.725250 -0.000000  0.729514 0.632801 1 0 1.000000
litfull
0  -36.584282 -96.883743 25.339220  0.688485 -0.725250 -0.000000  0.729514 0.632801 1 0 1.000000
0  -33.597527 -94.048393 25.339220  0.000241 -1.000000 -0.000001  0.541032 0.632801 1 0 1.000000
0  -36.295242 -96.883743 26.633018  0.620575 -0.725251 -0.298157  0.709983 0.795892 1 0 1.000000
litfull
0  -36.295242 -96.883743 26.633018  0.620575 -0.725251 -0.298157  0.709983 0.795892 1 0 1.000000
0  -33.597527 -94.048393 25.339220  0.000241 -1.000000 -0.000001  0.541032 0.632801 1 0 1.000000
0  -35.469410 -96.883743 27.679071  0.429356 -0.725063 -0.538458  0.658223 0.926756 1 0 1.000000
litfull
0  -35.469410 -96.883743 27.679071  0.429356 -0.725063 -0.538458  0.658223 0.926756 1 0 1.000000
0  -33.597527 -94.048393 25.339220  0.000241 -1.000000 -0.000001  0.541032 0.632801 1 0 1.000000
0  -34.271957 -96.883743 28.257154  0.153224 -0.725027 -0.671460  0.583026 0.998047 1 0 1.000000
litfull
0  32.427654 -95.631203 25.944820  0.999961 -0.007897 -0.004068  0.471694 0.707022 1 0 1.000000
0  32.441418 -94.048370 25.339212  0.999970 -0.007704 -0.000001  0.493179 0.646474 1 0 1.000000
0  32.427654 -96.883720 27.761646  0.999945 -0.008632 -0.005997  0.471694 0.887692 1 0 1.000000
litfull
0  32.427654 -95.631203 24.788656  0.999966 -0.007557 0.003390  0.471694 0.590808 1 0 1.000000
0  32.441418 -94.048370 25.339212  0.999970 -0.007704 -0.000001  0.493179 0.646474 1 0 1.000000
0  32.427654 -95.631203 25.944820  0.999961 -0.007897 -0.004068  0.471694 0.707022 1 0 1.000000
litfull
0  32.427654 -96.883720 22.765371  0.999954 -0.008179 0.005079  0.471694 0.390606 1 0 1.000000
0  32.441418 -94.048370 25.339212  0.999970 -0.007704 -0.000001  0.493179 0.646474 1 0 1.000000
0  32.427654 -95.631203 24.788656  0.999966 -0.007557 0.003390  0.471694 0.590808 1 0 1.000000
litfull
0  32.936916 -98.439026 28.257147  0.223366 0.000000 -0.974735  0.947295 0.803705 1 0 1.000000
0  31.739460 -98.439026 27.679064  0.623156 0.000000 -0.782098  0.942412 0.803705 1 0 1.000000
0  31.739460 -96.883720 27.679064  0.623081 -0.000006 -0.782157  0.942412 0.712882 1 0 1.000000
litfull
0  31.739460 -96.883720 27.679064  0.623078 0.000000 -0.782160  0.942412 0.712882 1 0 1.000000
0  32.936913 -96.883720 28.257147  0.222983 0.000000 -0.974822  0.947295 0.712882 1 0 1.000000
0  32.936916 -98.439026 28.257147  0.223048 0.000003 -0.974808  0.947295 0.803705 1 0 1.000000
litfull
0  34.272011 -98.439026 28.257147  -0.222007 0.000000 -0.975045  0.953154 0.803705 1 0 1.000000
0  32.936916 -98.439026 28.257147  0.223048 0.000003 -0.974808  0.947295 0.803705 1 0 1.000000
0  32.936913 -96.883720 28.257147  0.222983 0.000000 -0.974822  0.947295 0.712882 1 0 1.000000
litfull
0  32.936913 -96.883720 28.257147  0.222983 0.000000 -0.974822  0.947295 0.712882 1 0 1.000000
0  34.272007 -96.883720 28.257147  -0.222474 -0.000000 -0.974939  0.953154 0.712882 1 0 1.000000
0  34.272011 -98.439026 28.257147  -0.222007 0.000000 -0.975045  0.953154 0.803705 1 0 1.000000
litfull
0  -35.483173 -96.993851 23.315933  -0.999969 -0.007216 0.003254  0.661153 0.444319 1 0 1.000000
0  -35.483173 -96.333183 24.774900  -0.999983 -0.005572 0.001680  0.661153 0.590808 1 0 1.000000
0  -35.496937 -94.337433 25.339220  -0.999985 -0.005463 -0.000000  0.682638 0.646474 1 0 1.000000
litfull
0  -35.483173 -96.333183 24.774900  -0.999983 -0.005572 0.001680  0.661153 0.590808 1 0 1.000000
0  -35.483173 -96.333183 25.944826  -0.999982 -0.005605 -0.001979  0.661153 0.707022 1 0 1.000000
0  -35.496937 -94.337433 25.339220  -0.999985 -0.005463 -0.000000  0.682638 0.646474 1 0 1.000000
litfull
0  -35.483173 -96.333183 25.944826  -0.999982 -0.005605 -0.001979  0.661153 0.707022 1 0 1.000000
0  -35.483173 -96.993851 27.224865  -0.999976 -0.006185 -0.003173  0.661153 0.834956 1 0 1.000000
0  -35.496937 -94.337433 25.339220  -0.999985 -0.005463 -0.000000  0.682638 0.646474 1 0 1.000000
litfull
0  -32.427601 -96.883743 22.765381  -0.999953 -0.008259 0.005130  0.471694 0.390606 1 0 1.000000
0  -32.427601 -95.631233 24.788664  -0.999966 -0.007511 0.003372  0.471694 0.590808 1 0 1.000000
0  -32.441364 -94.048393 25.339220  -0.999972 -0.007415 0.000001  0.493179 0.646474 1 0 1.000000
litfull
0  -32.427601 -95.631233 24.788664  -0.999966 -0.007511 0.003372  0.471694 0.590808 1 0 1.000000
0  -32.427601 -95.631233 25.944826  -0.999961 -0.007853 -0.004045  0.471694 0.707022 1 0 1.000000
0  -32.441364 -94.048393 25.339220  -0.999972 -0.007415 0.000001  0.493179 0.646474 1 0 1.000000
litfull
0  -32.427601 -95.631233 25.944826  -0.999961 -0.007853 -0.004045  0.471694 0.707022 1 0 1.000000
0  -32.427601 -96.883743 27.761656  -0.999943 -0.008752 -0.006076  0.471694 0.887692 1 0 1.000000
0  -32.441364 -94.048393 25.339220  -0.999972 -0.007415 0.000001  0.493179 0.646474 1 0 1.000000
litfull
0  -33.019447 -96.883743 22.613977  -0.999900 -0.011463 0.008261  0.507828 0.374981 1 0 1.000000
0  -33.019447 -95.259621 24.843719  -0.999929 -0.010438 0.005674  0.507828 0.597644 1 0 1.000000
0  -33.033211 -94.048393 25.339220  -0.999946 -0.010387 -0.000001  0.529313 0.646474 1 0 1.000000
litfull
0  -33.019447 -95.259621 24.843719  -0.999929 -0.010438 0.005674  0.507828 0.597644 1 0 1.000000
0  -33.019447 -95.259621 25.889772  -0.999912 -0.011293 -0.007017  0.507828 0.701163 1 0 1.000000
0  -33.033211 -94.048393 25.339220  -0.999946 -0.010387 -0.000001  0.529313 0.646474 1 0 1.000000
litfull
0  -33.019447 -95.259621 25.889772  -0.999912 -0.011293 -0.007017  0.507828 0.701163 1 0 1.000000
0  -33.019447 -96.883743 27.913059  -0.999869 -0.012665 -0.010067  0.507828 0.903317 1 0 1.000000
0  -33.033211 -94.048393 25.339220  -0.999946 -0.010387 -0.000001  0.529313 0.646474 1 0 1.000000
litfull
0  -34.106792 -96.883743 22.613977  -0.999900 -0.011464 0.008260  0.576189 0.374981 1 0 1.000000
0  -34.106792 -95.259621 24.843719  -0.999929 -0.010438 0.005674  0.576189 0.597644 1 0 1.000000
0  -34.120556 -94.048393 25.339220  -0.999946 -0.010387 -0.000001  0.597674 0.646474 1 0 1.000000
litfull
0  -34.106792 -95.259621 24.843719  -0.999929 -0.010438 0.005674  0.576189 0.597644 1 0 1.000000
0  -34.106792 -95.259621 25.889772  -0.999912 -0.011293 -0.007016  0.576189 0.701163 1 0 1.000000
0  -34.120556 -94.048393 25.339220  -0.999946 -0.010387 -0.000001  0.597674 0.646474 1 0 1.000000
litfull
0  -34.106792 -95.259621 25.889772  -0.999912 -0.011293 -0.007016  0.576189 0.701163 1 0 1.000000
0  -34.106792 -96.883743 27.913059  -0.999869 -0.012665 -0.010067  0.576189 0.903317 1 0 1.000000
0  -34.120556 -94.048393 25.339220  -0.999946 -0.010387 -0.000001  0.597674 0.646474 1 0 1.000000
litfull
0  -34.684872 -96.883743 22.765381  -0.999955 -0.008060 0.005012  0.611347 0.390606 1 0 1.000000
0  -34.684872 -95.631233 24.788664  -0.999966 -0.007472 0.003369  0.611347 0.590808 1 0 1.000000
0  -34.684872 -94.048393 25.339220  -0.999973 -0.007333 0.000008  0.632832 0.646474 1 0 1.000000
litfull
0  -34.684872 -95.631233 24.788664  -0.999966 -0.007472 0.003369  0.611347 0.590808 1 0 1.000000
0  -34.684872 -95.631233 25.944826  -0.999961 -0.007880 -0.004068  0.611347 0.707022 1 0 1.000000
0  -34.684872 -94.048393 25.339220  -0.999973 -0.007333 0.000008  0.632832 0.646474 1 0 1.000000
litfull
0  -34.684872 -95.631233 25.944826  -0.999961 -0.007880 -0.004068  0.611347 0.707022 1 0 1.000000
0  -34.684872 -96.883743 27.761656  -0.999945 -0.008578 -0.005969  0.611347 0.887692 1 0 1.000000
0  -34.684872 -94.048393 25.339220  -0.999973 -0.007333 0.000008  0.632832 0.646474 1 0 1.000000
litfull
0  31.629349 -96.333160 25.944820  0.999982 -0.005604 -0.001989  0.421888 0.707022 1 0 1.000000
0  31.629349 -94.337410 25.339212  0.999985 -0.005465 -0.000000  0.443373 0.646474 1 0 1.000000
0  31.629349 -96.993828 27.224857  0.999978 -0.005933 -0.003040  0.421888 0.834956 1 0 1.000000
litfull
0  31.629349 -96.333160 24.774893  0.999984 -0.005460 0.001650  0.421888 0.590808 1 0 1.000000
0  31.629349 -94.337410 25.339212  0.999985 -0.005465 -0.000000  0.443373 0.646474 1 0 1.000000
0  31.629349 -96.333160 25.944820  0.999982 -0.005604 -0.001989  0.421888 0.707022 1 0 1.000000
litfull
0  31.629349 -96.993828 23.315926  0.999980 -0.005731 0.002565  0.421888 0.444319 1 0 1.000000
0  31.629349 -94.337410 25.339212  0.999985 -0.005465 -0.000000  0.443373 0.646474 1 0 1.000000
0  31.629349 -96.333160 24.774893  0.999984 -0.005460 0.001650  0.421888 0.590808 1 0 1.000000
litfull
0  35.483223 -96.333160 25.944820  0.999982 -0.005696 -0.002010  0.661153 0.707022 1 0 1.000000
0  35.496986 -94.337410 25.339212  0.999985 -0.005463 0.000000  0.682638 0.646474 1 0 1.000000
0  35.483223 -96.993828 27.224857  0.999976 -0.006142 -0.003151  0.661153 0.834956 1 0 1.000000
litfull
0  35.483223 -96.333160 24.774893  0.999983 -0.005572 0.001681  0.661153 0.590808 1 0 1.000000
0  35.496986 -94.337410 25.339212  0.999985 -0.005463 0.000000  0.682638 0.646474 1 0 1.000000
0  35.483223 -96.333160 25.944820  0.999982 -0.005696 -0.002010  0.661153 0.707022 1 0 1.000000
litfull
0  35.483223 -96.993828 23.315926  0.999980 -0.005783 0.002586  0.661153 0.444319 1 0 1.000000
0  35.496986 -94.337410 25.339212  0.999985 -0.005463 0.000000  0.682638 0.646474 1 0 1.000000
0  35.483223 -96.333160 24.774893  0.999983 -0.005572 0.001681  0.661153 0.590808 1 0 1.000000
end
