version 1
nodes
0 "root" -1
1 "steering_wheel" 0
end
skeleton
time 0
0  0.000000 0.000000 0.000000  0.000000 -0.000000 -1.570797
1  19.916300 17.934299 33.308498  0.000000 -0.000000 0.000000
end
triangles
litoff
0  28.615067 -99.416267 24.857475  0.999978 0.005867 0.003020  0.611347 0.707022 1 0 1.000000
0  28.601303 -98.218811 24.389505  0.999985 0.005469 -0.000006  0.632832 0.646474 1 0 1.000000
0  28.615067 -100.379738 26.247623  0.999969 0.006427 0.004458  0.611347 0.887692 1 0 1.000000
litoff
0  28.615067 -99.416267 23.962826  0.999981 0.005559 -0.002500  0.611347 0.590808 1 0 1.000000
0  28.601303 -98.218811 24.389505  0.999985 0.005469 -0.000006  0.632832 0.646474 1 0 1.000000
0  28.615067 -99.416267 24.857475  0.999978 0.005867 0.003020  0.611347 0.707022 1 0 1.000000
litoff
0  28.615067 -100.379738 22.435040  0.999975 0.006019 -0.003722  0.611347 0.390606 1 0 1.000000
0  28.601303 -98.218811 24.389505  0.999985 0.005469 -0.000006  0.632832 0.646474 1 0 1.000000
0  28.615067 -99.416267 23.962826  0.999981 0.005559 -0.002500  0.611347 0.590808 1 0 1.000000
litoff
0  28.188387 -99.374977 24.816185  0.999951 0.008419 0.005236  0.576189 0.701163 1 0 1.000000
0  28.174623 -98.452789 24.389505  0.999972 0.007411 -0.000009  0.597674 0.646474 1 0 1.000000
0  28.188387 -100.613724 26.357735  0.999927 0.009458 0.007495  0.576189 0.903317 1 0 1.000000
litoff
0  28.188387 -99.374977 24.017879  0.999961 0.007774 -0.004223  0.576189 0.597644 1 0 1.000000
0  28.174623 -98.452789 24.389505  0.999972 0.007411 -0.000009  0.597674 0.646474 1 0 1.000000
0  28.188387 -99.374977 24.816185  0.999951 0.008419 0.005236  0.576189 0.701163 1 0 1.000000
litoff
0  28.188387 -100.613724 22.311163  0.999945 0.008533 -0.006159  0.576189 0.374981 1 0 1.000000
0  28.174623 -98.452789 24.389505  0.999972 0.007411 -0.000009  0.597674 0.646474 1 0 1.000000
0  28.188387 -99.374977 24.017879  0.999961 0.007774 -0.004223  0.576189 0.597644 1 0 1.000000
litoff
0  27.252445 -98.989586 24.348211  -0.470050 -0.882638 0.002014  0.507828 0.641591 1 0 1.000000
0  27.775475 -98.989586 23.825188  0.001246 -0.881320 -0.472519  0.549821 0.573229 1 0 1.000000
0  27.761707 -99.264870 24.348211  -0.000076 -0.999992 -0.003991  0.548845 0.639637 1 0 1.000000
litoff
0  27.775475 -98.989586 23.825188  0.001246 -0.881320 -0.472519  0.549821 0.573229 1 0 1.000000
0  28.284735 -98.989586 24.348211  0.470002 -0.882665 -0.000393  0.590838 0.639637 1 0 1.000000
0  27.761707 -99.264870 24.348211  -0.000076 -0.999992 -0.003991  0.548845 0.639637 1 0 1.000000
litoff
0  28.284735 -98.989586 24.348211  0.470002 -0.882665 -0.000393  0.590838 0.639637 1 0 1.000000
0  27.761707 -98.989586 24.857475  -0.001224 -0.883988 0.467508  0.548845 0.707999 1 0 1.000000
0  27.761707 -99.264870 24.348211  -0.000076 -0.999992 -0.003991  0.548845 0.639637 1 0 1.000000
litoff
0  27.761707 -98.989586 24.857475  -0.001224 -0.883988 0.467508  0.548845 0.707999 1 0 1.000000
0  27.252445 -98.989586 24.348211  -0.470050 -0.882638 0.002014  0.507828 0.641591 1 0 1.000000
0  27.761707 -99.264870 24.348211  -0.000076 -0.999992 -0.003991  0.548845 0.639637 1 0 1.000000
litoff
0  -26.192577 -100.696335 22.847960  -0.999989 0.004284 -0.001930  0.421888 0.444319 1 0 1.000000
0  -26.192577 -100.187065 23.962831  -0.999991 0.004040 -0.001216  0.421888 0.590808 1 0 1.000000
0  -26.192577 -98.673042 24.389513  -0.999992 0.004074 -0.000000  0.443373 0.646474 1 0 1.000000
litoff
0  -26.192577 -100.187065 23.962831  -0.999991 0.004040 -0.001216  0.421888 0.590808 1 0 1.000000
0  -26.192577 -100.187065 24.857481  -0.999990 0.004162 0.001458  0.421888 0.707022 1 0 1.000000
0  -26.192577 -98.673042 24.389513  -0.999992 0.004074 -0.000000  0.443373 0.646474 1 0 1.000000
litoff
0  -26.192577 -100.187065 24.857481  -0.999990 0.004162 0.001458  0.421888 0.707022 1 0 1.000000
0  -26.192577 -100.696335 25.834715  -0.999988 0.004428 0.002291  0.421888 0.834956 1 0 1.000000
0  -26.192577 -98.673042 24.389513  -0.999992 0.004074 -0.000000  0.443373 0.646474 1 0 1.000000
litoff
0  -29.151802 -100.462341 22.847960  -0.999989 0.004250 -0.001913  0.661153 0.444319 1 0 1.000000
0  -29.151802 -99.953087 23.962831  -0.999991 0.004075 -0.001225  0.661153 0.590808 1 0 1.000000
0  -29.138039 -98.439056 24.389513  -0.999992 0.004072 0.000003  0.682638 0.646474 1 0 1.000000
litoff
0  -29.151802 -99.953087 23.962831  -0.999991 0.004075 -0.001225  0.661153 0.590808 1 0 1.000000
0  -29.151802 -99.953087 24.857481  -0.999990 0.004182 0.001462  0.661153 0.707022 1 0 1.000000
0  -29.138039 -98.439056 24.389513  -0.999992 0.004072 0.000003  0.682638 0.646474 1 0 1.000000
litoff
0  -29.151802 -99.953087 24.857481  -0.999990 0.004182 0.001462  0.661153 0.707022 1 0 1.000000
0  -29.151802 -100.462341 25.834715  -0.999988 0.004424 0.002287  0.661153 0.834956 1 0 1.000000
0  -29.138039 -98.439056 24.389513  -0.999992 0.004072 0.000003  0.682638 0.646474 1 0 1.000000
litoff
0  -26.811947 -100.613754 22.435045  -0.999975 0.005992 -0.003708  0.471694 0.390606 1 0 1.000000
0  -26.811947 -99.650284 23.962831  -0.999981 0.005552 -0.002499  0.471694 0.590808 1 0 1.000000
0  -26.811947 -98.452820 24.389513  -0.999985 0.005465 -0.000001  0.493179 0.646474 1 0 1.000000
litoff
0  -26.811947 -99.650284 23.962831  -0.999981 0.005552 -0.002499  0.471694 0.590808 1 0 1.000000
0  -26.811947 -99.650284 24.857481  -0.999978 0.005838 0.003008  0.471694 0.707022 1 0 1.000000
0  -26.811947 -98.452820 24.389513  -0.999985 0.005465 -0.000001  0.493179 0.646474 1 0 1.000000
litoff
0  -26.811947 -99.650284 24.857481  -0.999978 0.005838 0.003008  0.471694 0.707022 1 0 1.000000
0  -26.811947 -100.613754 26.247631  -0.999969 0.006417 0.004459  0.471694 0.887692 1 0 1.000000
0  -26.811947 -98.452820 24.389513  -0.999985 0.005465 -0.000001  0.493179 0.646474 1 0 1.000000
litoff
0  -27.266153 -100.613754 22.311169  -0.999945 0.008540 -0.006160  0.507828 0.374981 1 0 1.000000
0  -27.266153 -99.375000 24.017885  -0.999961 0.007778 -0.004225  0.507828 0.597644 1 0 1.000000
0  -27.252390 -98.452820 24.389513  -0.999972 0.007411 0.000009  0.529313 0.646474 1 0 1.000000
litoff
0  -27.266153 -99.375000 24.017885  -0.999961 0.007778 -0.004225  0.507828 0.597644 1 0 1.000000
0  -27.266153 -99.375000 24.816191  -0.999951 0.008425 0.005218  0.507828 0.701163 1 0 1.000000
0  -27.252390 -98.452820 24.389513  -0.999972 0.007411 0.000009  0.529313 0.646474 1 0 1.000000
litoff
0  -27.266153 -99.375000 24.816191  -0.999951 0.008425 0.005218  0.507828 0.701163 1 0 1.000000
0  -27.266153 -100.613754 26.357740  -0.999928 0.009400 0.007481  0.507828 0.903317 1 0 1.000000
0  -27.252390 -98.452820 24.389513  -0.999972 0.007411 0.000009  0.529313 0.646474 1 0 1.000000
litoff
0  -27.775419 -98.989616 23.825197  -0.001259 -0.881318 -0.472523  0.549821 0.573229 1 0 1.000000
0  -27.761654 -99.264893 24.348219  0.000060 -0.999992 -0.003975  0.548845 0.639637 1 0 1.000000
0  -28.284679 -98.989616 24.348221  -0.470001 -0.882666 -0.000377  0.590838 0.639637 1 0 1.000000
litoff
0  -28.284679 -98.989616 24.348221  -0.470001 -0.882666 -0.000377  0.590838 0.639637 1 0 1.000000
0  -27.761654 -99.264893 24.348219  0.000060 -0.999992 -0.003975  0.548845 0.639637 1 0 1.000000
0  -27.761654 -98.989616 24.857483  0.001223 -0.883957 0.467567  0.548845 0.707999 1 0 1.000000
litoff
0  -27.761654 -98.989616 24.857483  0.001223 -0.883957 0.467567  0.548845 0.707999 1 0 1.000000
0  -27.761654 -99.264893 24.348219  0.000060 -0.999992 -0.003975  0.548845 0.639637 1 0 1.000000
0  -27.252390 -98.989616 24.348219  0.469996 -0.882666 0.002039  0.507828 0.641591 1 0 1.000000
litoff
0  -27.252390 -98.989616 24.348219  0.469996 -0.882666 0.002039  0.507828 0.641591 1 0 1.000000
0  -27.761654 -99.264893 24.348219  0.000060 -0.999992 -0.003975  0.548845 0.639637 1 0 1.000000
0  -27.775419 -98.989616 23.825197  -0.001259 -0.881318 -0.472523  0.549821 0.573229 1 0 1.000000
litoff
0  27.266209 -99.374977 24.816185  0.999951 0.008415 0.005235  0.507828 0.701163 1 0 1.000000
0  27.252445 -98.452789 24.389505  0.999972 0.007413 -0.000009  0.529313 0.646474 1 0 1.000000
0  27.266209 -100.613724 26.357735  0.999928 0.009399 0.007481  0.507828 0.903317 1 0 1.000000
litoff
0  27.266209 -99.374977 24.017879  0.999961 0.007779 -0.004223  0.507828 0.597644 1 0 1.000000
0  27.252445 -98.452789 24.389505  0.999972 0.007413 -0.000009  0.529313 0.646474 1 0 1.000000
0  27.266209 -99.374977 24.816185  0.999951 0.008415 0.005235  0.507828 0.701163 1 0 1.000000
litoff
0  27.266209 -100.613724 22.311163  0.999945 0.008538 -0.006159  0.507828 0.374981 1 0 1.000000
0  27.252445 -98.452789 24.389505  0.999972 0.007413 -0.000009  0.529313 0.646474 1 0 1.000000
0  27.266209 -99.374977 24.017879  0.999961 0.007779 -0.004223  0.507828 0.597644 1 0 1.000000
litoff
0  27.293737 -100.517372 21.953306  0.151017 -0.730548 0.665953  0.133793 0.208960 1 0 1.000000
0  28.339788 -100.517372 21.953306  -0.151017 -0.730548 0.665953  0.211921 0.208960 1 0 1.000000
0  27.816765 -98.301392 24.265631  -0.000002 -1.000000 0.000158  0.172857 0.548814 1 0 1.000000
litoff
0  28.339788 -100.517372 21.953306  -0.151017 -0.730548 0.665953  0.211921 0.208960 1 0 1.000000
0  29.289494 -100.517372 22.407513  -0.426100 -0.730005 0.534351  0.281259 0.276345 1 0 1.000000
0  27.816765 -98.301392 24.265631  -0.000002 -1.000000 0.000158  0.172857 0.548814 1 0 1.000000
litoff
0  29.289494 -100.517372 22.407513  -0.426100 -0.730005 0.534351  0.281259 0.276345 1 0 1.000000
0  29.950161 -100.517372 23.233341  -0.615897 -0.729874 0.296572  0.330088 0.397443 1 0 1.000000
0  27.816765 -98.301392 24.265631  -0.000002 -1.000000 0.000158  0.172857 0.548814 1 0 1.000000
litoff
0  29.950161 -100.517372 23.233341  -0.615897 -0.729874 0.296572  0.330088 0.397443 1 0 1.000000
0  30.184143 -100.517372 24.265631  -0.683436 -0.730011 -0.000238  0.346690 0.548814 1 0 1.000000
0  27.816765 -98.301392 24.265631  -0.000002 -1.000000 0.000158  0.172857 0.548814 1 0 1.000000
litoff
0  30.184143 -100.517372 24.265631  -0.683436 -0.730011 -0.000238  0.346690 0.548814 1 0 1.000000
0  29.950161 -100.517372 25.284155  -0.615856 -0.729584 -0.297369  0.330088 0.700186 1 0 1.000000
0  27.816765 -98.301392 24.265631  -0.000002 -1.000000 0.000158  0.172857 0.548814 1 0 1.000000
litoff
0  29.950161 -100.517372 25.284155  -0.615856 -0.729584 -0.297369  0.330088 0.700186 1 0 1.000000
0  29.289494 -100.517372 26.109983  -0.426141 -0.730027 -0.534288  0.281259 0.821284 1 0 1.000000
0  27.816765 -98.301392 24.265631  -0.000002 -1.000000 0.000158  0.172857 0.548814 1 0 1.000000
litoff
0  29.289494 -100.517372 26.109983  -0.426141 -0.730027 -0.534288  0.281259 0.821284 1 0 1.000000
0  28.339788 -100.517372 26.564194  -0.151978 -0.729738 -0.666622  0.211921 0.888668 1 0 1.000000
0  27.816765 -98.301392 24.265631  -0.000002 -1.000000 0.000158  0.172857 0.548814 1 0 1.000000
litoff
0  28.339788 -100.517372 26.564194  -0.151978 -0.729738 -0.666622  0.211921 0.888668 1 0 1.000000
0  27.293737 -100.517372 26.564194  0.152094 -0.730049 -0.666255  0.133793 0.888668 1 0 1.000000
0  27.816765 -98.301392 24.265631  -0.000002 -1.000000 0.000158  0.172857 0.548814 1 0 1.000000
litoff
0  27.293737 -100.517372 26.564194  0.152094 -0.730049 -0.666255  0.133793 0.888668 1 0 1.000000
0  26.344032 -100.517372 26.109983  0.426028 -0.729734 -0.534778  0.063478 0.821284 1 0 1.000000
0  27.816765 -98.301392 24.265631  -0.000002 -1.000000 0.000158  0.172857 0.548814 1 0 1.000000
litoff
0  26.344032 -100.517372 26.109983  0.426028 -0.729734 -0.534778  0.063478 0.821284 1 0 1.000000
0  25.683369 -100.517372 25.284155  0.615855 -0.729583 -0.297373  0.015625 0.700186 1 0 1.000000
0  27.816765 -98.301392 24.265631  -0.000002 -1.000000 0.000158  0.172857 0.548814 1 0 1.000000
litoff
0  25.683369 -100.517372 25.284155  0.615855 -0.729583 -0.297373  0.015625 0.700186 1 0 1.000000
0  25.449383 -100.517372 24.265631  0.683408 -0.730036 -0.000549  0.000000 0.548814 1 0 1.000000
0  27.816765 -98.301392 24.265631  -0.000002 -1.000000 0.000158  0.172857 0.548814 1 0 1.000000
litoff
0  25.449383 -100.517372 24.265631  0.683408 -0.730036 -0.000549  0.000000 0.548814 1 0 1.000000
0  25.683369 -100.517372 23.233341  0.615279 -0.730445 0.296449  0.015625 0.397443 1 0 1.000000
0  27.816765 -98.301392 24.265631  -0.000002 -1.000000 0.000158  0.172857 0.548814 1 0 1.000000
litoff
0  25.683369 -100.517372 23.233341  0.615279 -0.730445 0.296449  0.015625 0.397443 1 0 1.000000
0  26.344032 -100.517372 22.407513  0.426019 -0.730033 0.534378  0.063478 0.276345 1 0 1.000000
0  27.816765 -98.301392 24.265631  -0.000002 -1.000000 0.000158  0.172857 0.548814 1 0 1.000000
litoff
0  26.344032 -100.517372 22.407513  0.426019 -0.730033 0.534378  0.063478 0.276345 1 0 1.000000
0  27.293737 -100.517372 21.953306  0.151017 -0.730548 0.665953  0.133793 0.208960 1 0 1.000000
0  27.816765 -98.301392 24.265631  -0.000002 -1.000000 0.000158  0.172857 0.548814 1 0 1.000000
litoff
0  -25.449327 -100.517395 24.265638  -0.683448 -0.729999 -0.000060  0.000000 0.548814 1 0 1.000000
0  -27.816710 -98.301422 24.265640  0.000000 -1.000000 0.000031  0.172857 0.548814 1 0 1.000000
0  -25.683313 -100.517395 23.233349  -0.615764 -0.729994 0.296552  0.015625 0.397443 1 0 1.000000
litoff
0  -25.683313 -100.517395 23.233349  -0.615764 -0.729994 0.296552  0.015625 0.397443 1 0 1.000000
0  -27.816710 -98.301422 24.265640  0.000000 -1.000000 0.000031  0.172857 0.548814 1 0 1.000000
0  -26.343977 -100.517395 22.407516  -0.426019 -0.730036 0.534374  0.063478 0.276345 1 0 1.000000
litoff
0  -26.343977 -100.517395 22.407516  -0.426019 -0.730036 0.534374  0.063478 0.276345 1 0 1.000000
0  -27.816710 -98.301422 24.265640  0.000000 -1.000000 0.000031  0.172857 0.548814 1 0 1.000000
0  -27.293684 -100.517395 21.953310  -0.151590 -0.730255 0.666144  0.133793 0.208960 1 0 1.000000
litoff
0  -27.293684 -100.517395 21.953310  -0.151590 -0.730255 0.666144  0.133793 0.208960 1 0 1.000000
0  -27.816710 -98.301422 24.265640  0.000000 -1.000000 0.000031  0.172857 0.548814 1 0 1.000000
0  -28.339733 -100.517395 21.953310  0.151514 -0.730294 0.666119  0.211921 0.208960 1 0 1.000000
litoff
0  -28.339733 -100.517395 21.953310  0.151514 -0.730294 0.666119  0.211921 0.208960 1 0 1.000000
0  -27.816710 -98.301422 24.265640  0.000000 -1.000000 0.000031  0.172857 0.548814 1 0 1.000000
0  -29.289440 -100.517395 22.407516  0.426141 -0.729996 0.534331  0.281259 0.276345 1 0 1.000000
litoff
0  -29.289440 -100.517395 22.407516  0.426141 -0.729996 0.534331  0.281259 0.276345 1 0 1.000000
0  -27.816710 -98.301422 24.265640  0.000000 -1.000000 0.000031  0.172857 0.548814 1 0 1.000000
0  -29.950106 -100.517395 23.233349  0.615279 -0.730448 0.296440  0.330088 0.397443 1 0 1.000000
litoff
0  -29.950106 -100.517395 23.233349  0.615279 -0.730448 0.296440  0.330088 0.397443 1 0 1.000000
0  -27.816710 -98.301422 24.265640  0.000000 -1.000000 0.000031  0.172857 0.548814 1 0 1.000000
0  -30.184090 -100.517395 24.265638  0.683423 -0.730022 -0.000326  0.346690 0.548814 1 0 1.000000
litoff
0  -30.184090 -100.517395 24.265638  0.683423 -0.730022 -0.000326  0.346690 0.548814 1 0 1.000000
0  -27.816710 -98.301422 24.265640  0.000000 -1.000000 0.000031  0.172857 0.548814 1 0 1.000000
0  -29.950106 -100.517395 25.284161  0.615742 -0.730153 -0.296205  0.330088 0.700186 1 0 1.000000
litoff
0  -29.950106 -100.517395 25.284161  0.615742 -0.730153 -0.296205  0.330088 0.700186 1 0 1.000000
0  -27.816710 -98.301422 24.265640  0.000000 -1.000000 0.000031  0.172857 0.548814 1 0 1.000000
0  -29.289440 -100.517395 26.109991  0.426058 -0.729800 -0.534665  0.281259 0.821284 1 0 1.000000
litoff
0  -29.289440 -100.517395 26.109991  0.426058 -0.729800 -0.534665  0.281259 0.821284 1 0 1.000000
0  -27.816710 -98.301422 24.265640  0.000000 -1.000000 0.000031  0.172857 0.548814 1 0 1.000000
0  -28.339733 -100.517395 26.564199  0.152030 -0.729879 -0.666455  0.211921 0.888668 1 0 1.000000
litoff
0  -28.339733 -100.517395 26.564199  0.152030 -0.729879 -0.666455  0.211921 0.888668 1 0 1.000000
0  -27.816710 -98.301422 24.265640  0.000000 -1.000000 0.000031  0.172857 0.548814 1 0 1.000000
0  -27.293684 -100.517395 26.564199  -0.152083 -0.730021 -0.666288  0.133793 0.888668 1 0 1.000000
litoff
0  -27.293684 -100.517395 26.564199  -0.152083 -0.730021 -0.666288  0.133793 0.888668 1 0 1.000000
0  -27.816710 -98.301422 24.265640  0.000000 -1.000000 0.000031  0.172857 0.548814 1 0 1.000000
0  -26.343977 -100.517395 26.109991  -0.426141 -0.730028 -0.534287  0.063478 0.821284 1 0 1.000000
litoff
0  -26.343977 -100.517395 26.109991  -0.426141 -0.730028 -0.534287  0.063478 0.821284 1 0 1.000000
0  -27.816710 -98.301422 24.265640  0.000000 -1.000000 0.000031  0.172857 0.548814 1 0 1.000000
0  -25.683313 -100.517395 25.284161  -0.615854 -0.729584 -0.297374  0.015625 0.700186 1 0 1.000000
litoff
0  -25.683313 -100.517395 25.284161  -0.615854 -0.729584 -0.297374  0.015625 0.700186 1 0 1.000000
0  -27.816710 -98.301422 24.265640  0.000000 -1.000000 0.000031  0.172857 0.548814 1 0 1.000000
0  -25.449327 -100.517395 24.265638  -0.683448 -0.729999 -0.000060  0.000000 0.548814 1 0 1.000000
litoff
0  26.812002 -99.650253 24.857475  0.999978 0.005837 0.003010  0.471694 0.707022 1 0 1.000000
0  26.812002 -98.452789 24.389505  0.999985 0.005465 0.000000  0.493179 0.646474 1 0 1.000000
0  26.812002 -100.613724 26.247623  0.999969 0.006416 0.004460  0.471694 0.887692 1 0 1.000000
litoff
0  26.812002 -99.650253 23.962826  0.999981 0.005549 -0.002502  0.471694 0.590808 1 0 1.000000
0  26.812002 -98.452789 24.389505  0.999985 0.005465 0.000000  0.493179 0.646474 1 0 1.000000
0  26.812002 -99.650253 24.857475  0.999978 0.005837 0.003010  0.471694 0.707022 1 0 1.000000
litoff
0  26.812002 -100.613724 22.435040  0.999975 0.006029 -0.003737  0.471694 0.390606 1 0 1.000000
0  26.812002 -98.452789 24.389505  0.999985 0.005465 0.000000  0.493179 0.646474 1 0 1.000000
0  26.812002 -99.650253 23.962826  0.999981 0.005549 -0.002502  0.471694 0.590808 1 0 1.000000
litoff
0  -28.615013 -100.379761 22.435045  -0.999975 0.006020 -0.003723  0.611347 0.390606 1 0 1.000000
0  -28.615013 -99.416290 23.962831  -0.999981 0.005564 -0.002492  0.611347 0.590808 1 0 1.000000
0  -28.601250 -98.218842 24.389513  -0.999985 0.005470 0.000009  0.632832 0.646474 1 0 1.000000
litoff
0  -28.615013 -99.416290 23.962831  -0.999981 0.005564 -0.002492  0.611347 0.590808 1 0 1.000000
0  -28.615013 -99.416290 24.857481  -0.999978 0.005869 0.003016  0.611347 0.707022 1 0 1.000000
0  -28.601250 -98.218842 24.389513  -0.999985 0.005470 0.000009  0.632832 0.646474 1 0 1.000000
litoff
0  -28.615013 -99.416290 24.857481  -0.999978 0.005869 0.003016  0.611347 0.707022 1 0 1.000000
0  -28.615013 -100.379761 26.247631  -0.999969 0.006426 0.004459  0.611347 0.887692 1 0 1.000000
0  -28.601250 -98.218842 24.389513  -0.999985 0.005470 0.000009  0.632832 0.646474 1 0 1.000000
litoff
0  29.151857 -99.953064 24.857475  0.999990 0.004184 0.001455  0.661153 0.707022 1 0 1.000000
0  29.138094 -98.439026 24.389505  0.999992 0.004073 -0.000002  0.682638 0.646474 1 0 1.000000
0  29.151857 -100.462318 25.834707  0.999988 0.004425 0.002285  0.661153 0.834956 1 0 1.000000
litoff
0  29.151857 -99.953064 23.962826  0.999991 0.004076 -0.001225  0.661153 0.590808 1 0 1.000000
0  29.138094 -98.439026 24.389505  0.999992 0.004073 -0.000002  0.682638 0.646474 1 0 1.000000
0  29.151857 -99.953064 24.857475  0.999990 0.004184 0.001455  0.661153 0.707022 1 0 1.000000
litoff
0  29.151857 -100.462318 22.847952  0.999989 0.004252 -0.001915  0.661153 0.444319 1 0 1.000000
0  29.138094 -98.439026 24.389505  0.999992 0.004073 -0.000002  0.682638 0.646474 1 0 1.000000
0  29.151857 -99.953064 23.962826  0.999991 0.004076 -0.001225  0.661153 0.590808 1 0 1.000000
litoff
0  -28.188334 -100.613754 22.311169  -0.999945 0.008530 -0.006162  0.576189 0.374981 1 0 1.000000
0  -28.188334 -99.375000 24.017885  -0.999961 0.007771 -0.004226  0.576189 0.597644 1 0 1.000000
0  -28.174570 -98.452820 24.389513  -0.999973 0.007407 0.000008  0.597674 0.646474 1 0 1.000000
litoff
0  -28.188334 -99.375000 24.017885  -0.999961 0.007771 -0.004226  0.576189 0.597644 1 0 1.000000
0  -28.188334 -99.375000 24.816191  -0.999951 0.008420 0.005216  0.576189 0.701163 1 0 1.000000
0  -28.174570 -98.452820 24.389513  -0.999973 0.007407 0.000008  0.597674 0.646474 1 0 1.000000
litoff
0  -28.188334 -99.375000 24.816191  -0.999951 0.008420 0.005216  0.576189 0.701163 1 0 1.000000
0  -28.188334 -100.613754 26.357740  -0.999927 0.009446 0.007489  0.576189 0.903317 1 0 1.000000
0  -28.174570 -98.452820 24.389513  -0.999973 0.007407 0.000008  0.597674 0.646474 1 0 1.000000
litoff
0  26.192631 -100.187042 24.857475  0.999990 0.004162 0.001460  0.421888 0.707022 1 0 1.000000
0  26.192631 -98.673019 24.389505  0.999992 0.004075 0.000000  0.443373 0.646474 1 0 1.000000
0  26.192631 -100.696304 25.834707  0.999988 0.004428 0.002290  0.421888 0.834956 1 0 1.000000
litoff
0  26.192631 -100.187042 23.962826  0.999991 0.004039 -0.001216  0.421888 0.590808 1 0 1.000000
0  26.192631 -98.673019 24.389505  0.999992 0.004075 0.000000  0.443373 0.646474 1 0 1.000000
0  26.192631 -100.187042 24.857475  0.999990 0.004162 0.001460  0.421888 0.707022 1 0 1.000000
litoff
0  26.192631 -100.696304 22.847952  0.999989 0.004284 -0.001929  0.421888 0.444319 1 0 1.000000
0  26.192631 -98.673019 24.389505  0.999992 0.004075 0.000000  0.443373 0.646474 1 0 1.000000
0  26.192631 -100.187042 23.962826  0.999991 0.004039 -0.001216  0.421888 0.590808 1 0 1.000000
end
