version 1
nodes
0 "root" -1
1 "steering_wheel" 0
end
skeleton
time 0
0  0.000000 0.000000 0.000000  0.000000 -0.000000 -1.570797
1  19.916300 17.934299 33.308498  0.000000 -0.000000 0.000000
end
triangles
misc
0  -36.267731 -29.261963 40.534531  0.049357 0.163357 0.985332  0.171880 0.467757 1 0 1.000000
0  -38.153381 -28.931633 40.534531  0.035116 0.191026 0.980957  0.190435 0.466781 1 0 1.000000
0  -38.469944 -29.633587 40.396893  -0.028969 -0.178082 0.983589  0.183599 0.441389 1 0 1.000000
misc
0  -38.469944 -29.633587 40.396893  -0.028969 -0.178082 0.983589  0.183599 0.441389 1 0 1.000000
0  -36.309021 -30.569530 40.300545  -0.030137 -0.172205 0.984600  0.145512 0.423811 1 0 1.000000
0  -36.267731 -29.261963 40.534531  0.049357 0.163357 0.985332  0.171880 0.467757 1 0 1.000000
misc
0  -42.888145 -25.889822 39.103088  0.359862 0.931377 0.055103  0.270516 0.275369 1 0 1.000000
0  -40.630871 -26.743181 38.924160  0.304238 0.938151 0.165266  0.254891 0.199194 1 0 1.000000
0  -41.222717 -26.509195 38.607594  0.349787 0.934011 0.072615  0.240242 0.259743 1 0 1.000000
misc
0  -41.222717 -26.509195 38.607594  0.349787 0.934011 0.072615  0.240242 0.259743 1 0 1.000000
0  -40.630871 -26.743181 38.924160  0.304238 0.938151 0.165266  0.254891 0.199194 1 0 1.000000
0  -39.626114 -27.087278 39.061798  0.268623 0.953303 0.138043  0.249031 0.150365 1 0 1.000000
misc
0  -39.626114 -27.087278 39.061798  0.268623 0.953303 0.138043  0.249031 0.150365 1 0 1.000000
0  -39.749985 -26.963402 38.456188  0.299530 0.947104 0.115223  0.212897 0.248024 1 0 1.000000
0  -41.222717 -26.509195 38.607594  0.349787 0.934011 0.072615  0.240242 0.259743 1 0 1.000000
misc
0  -39.749985 -26.963402 38.456188  0.299530 0.947104 0.115223  0.212897 0.248024 1 0 1.000000
0  -39.626114 -27.087278 39.061798  0.268623 0.953303 0.138043  0.249031 0.150365 1 0 1.000000
0  -38.855335 -27.335028 39.419659  0.264307 0.963556 0.041244  0.249031 0.135716 1 0 1.000000
misc
0  -37.382607 -27.720413 38.194675  0.195587 0.978487 -0.065644  0.172857 0.228492 1 0 1.000000
0  -39.749985 -26.963402 38.456188  0.299530 0.947104 0.115223  0.212897 0.248024 1 0 1.000000
0  -38.855335 -27.335028 39.419659  0.264307 0.963556 0.041244  0.249031 0.135716 1 0 1.000000
misc
0  -38.855335 -27.335028 39.419659  0.264216 0.963588 0.041078  0.249031 0.135716 1 0 1.000000
0  -36.776997 -27.665356 39.268257  0.146151 0.981197 -0.126064  0.216803 0.117161 1 0 1.000000
0  -37.382607 -27.720413 38.194675  0.195460 0.978502 -0.065799  0.172857 0.228492 1 0 1.000000
misc
0  -38.304783 -28.202148 40.094086  0.147620 0.627513 0.764484  0.257820 0.101535 1 0 1.000000
0  -36.776997 -27.665356 39.268257  0.171701 0.654449 0.736352  0.216803 0.117161 1 0 1.000000
0  -38.855335 -27.335028 39.419659  0.159373 0.671073 0.724058  0.249031 0.135716 1 0 1.000000
misc
0  -38.304783 -28.202148 40.094086  0.147615 0.627527 0.764474  0.257820 0.101535 1 0 1.000000
0  -36.267731 -29.261963 40.534531  0.049357 0.163357 0.985332  0.246101 0.035127 1 0 1.000000
0  -36.776997 -27.665356 39.268257  0.171703 0.654457 0.736345  0.216803 0.117161 1 0 1.000000
misc
0  -38.304783 -28.202148 40.094086  0.147615 0.627527 0.764474  0.257820 0.101535 1 0 1.000000
0  -38.153381 -28.931633 40.534531  0.035116 0.191026 0.980957  0.266610 0.069308 1 0 1.000000
0  -36.267731 -29.261963 40.534531  0.049357 0.163357 0.985332  0.246101 0.035127 1 0 1.000000
misc
0  -36.556770 -32.152374 39.378368  -0.428351 -0.903454 -0.016935  0.125004 0.356426 1 0 1.000000
0  -36.405369 -32.179901 39.571060  -0.406928 -0.884253 0.229144  0.126957 0.374981 1 0 1.000000
0  -41.649391 -29.729937 39.708698  -0.449912 -0.892585 -0.029518  0.217780 0.375957 1 0 1.000000
misc
0  -41.649391 -29.729937 39.708698  -0.449912 -0.892585 -0.029518  0.217780 0.375957 1 0 1.000000
0  -41.718216 -29.688646 39.543533  -0.432942 -0.832312 -0.346147  0.217780 0.361309 1 0 1.000000
0  -36.556770 -32.152374 39.378368  -0.428351 -0.903454 -0.016935  0.125004 0.356426 1 0 1.000000
misc
0  -36.556770 -32.152374 39.378368  -0.428351 -0.903454 -0.016935  0.125004 0.356426 1 0 1.000000
0  -41.718216 -29.688646 39.543533  -0.432942 -0.832312 -0.346147  0.217780 0.361309 1 0 1.000000
0  -42.750504 -28.807760 39.130615  -0.406751 -0.559308 -0.722307  0.238289 0.339824 1 0 1.000000
misc
0  -42.750504 -28.807760 39.130615  -0.406751 -0.559308 -0.722307  0.238289 0.339824 1 0 1.000000
0  -36.928394 -31.409122 38.648884  -0.340798 -0.628588 -0.699095  0.132817 0.329081 1 0 1.000000
0  -36.556770 -32.152374 39.378368  -0.428351 -0.903454 -0.016935  0.125004 0.356426 1 0 1.000000
misc
0  -36.928394 -31.409122 38.648884  -0.340798 -0.628588 -0.699095  0.132817 0.329081 1 0 1.000000
0  -42.750504 -28.807760 39.130615  -0.406751 -0.559308 -0.722307  0.238289 0.339824 1 0 1.000000
0  -42.874378 -27.954401 38.896629  -0.277443 -0.132191 -0.951604  0.245125 0.323222 1 0 1.000000
misc
0  -42.874378 -27.954401 38.896629  -0.277443 -0.132191 -0.951604  0.245125 0.323222 1 0 1.000000
0  -37.313782 -30.005211 38.277260  -0.183332 -0.208654 -0.960652  0.147465 0.290017 1 0 1.000000
0  -36.928394 -31.409122 38.648884  -0.340798 -0.628588 -0.699095  0.132817 0.329081 1 0 1.000000
misc
0  -39.749985 -26.963402 38.456188  -0.124328 -0.045549 -0.991195  0.212897 0.248024 1 0 1.000000
0  -37.313782 -30.005211 38.277260  -0.183332 -0.208654 -0.960652  0.147465 0.290017 1 0 1.000000
0  -42.874378 -27.954401 38.896629  -0.277443 -0.132191 -0.951604  0.245125 0.323222 1 0 1.000000
misc
0  -39.749985 -26.963402 38.456188  -0.124328 -0.045549 -0.991195  0.212897 0.248024 1 0 1.000000
0  -37.382607 -27.720413 38.194675  -0.118429 -0.037282 -0.992262  0.172857 0.228492 1 0 1.000000
0  -37.313782 -30.005211 38.277260  -0.183332 -0.208654 -0.960652  0.147465 0.290017 1 0 1.000000
misc
0  -39.749985 -26.963402 38.456188  -0.124328 -0.045549 -0.991195  0.212897 0.248024 1 0 1.000000
0  -42.874378 -27.954401 38.896629  -0.277443 -0.132191 -0.951604  0.245125 0.323222 1 0 1.000000
0  -41.222717 -26.509195 38.607594  -0.166403 -0.006279 -0.986038  0.240242 0.259743 1 0 1.000000
misc
0  -42.874378 -27.954401 38.896629  -0.277443 -0.132191 -0.951604  0.245125 0.323222 1 0 1.000000
0  -42.888145 -25.889822 39.103088  -0.215144 0.063880 -0.974491  0.270516 0.275369 1 0 1.000000
0  -41.222717 -26.509195 38.607594  -0.166403 -0.006279 -0.986038  0.240242 0.259743 1 0 1.000000
misc
0  -41.787033 -29.633587 39.887627  -0.460925 -0.882631 0.092259  0.220710 0.389630 1 0 1.000000
0  -43.590099 -28.697647 39.791279  -0.414381 -0.575176 -0.705309  0.255867 0.376934 1 0 1.000000
0  -41.649391 -29.729937 39.708698  -0.449912 -0.892585 -0.029518  0.217780 0.375957 1 0 1.000000
misc
0  -41.718216 -29.688646 39.543533  -0.432942 -0.832312 -0.346147  0.217780 0.361309 1 0 1.000000
0  -41.649391 -29.729937 39.708698  -0.449912 -0.892585 -0.029518  0.217780 0.375957 1 0 1.000000
0  -43.590099 -28.697647 39.791279  -0.414381 -0.575176 -0.705309  0.255867 0.376934 1 0 1.000000
misc
0  -43.590099 -28.697647 39.791279  -0.414381 -0.575176 -0.705309  0.255867 0.376934 1 0 1.000000
0  -43.548809 -28.532480 39.626118  -0.477179 -0.647162 -0.594543  0.255867 0.364238 1 0 1.000000
0  -41.718216 -29.688646 39.543533  -0.432942 -0.832312 -0.346147  0.217780 0.361309 1 0 1.000000
misc
0  -43.548809 -28.532480 39.626118  -0.477179 -0.647162 -0.594543  0.255867 0.364238 1 0 1.000000
0  -42.750504 -28.807760 39.130615  -0.406751 -0.559308 -0.722307  0.238289 0.339824 1 0 1.000000
0  -41.718216 -29.688646 39.543533  -0.432942 -0.832312 -0.346147  0.217780 0.361309 1 0 1.000000
misc
0  -42.750504 -28.807760 39.130615  -0.406751 -0.559308 -0.722307  0.238289 0.339824 1 0 1.000000
0  -43.548809 -28.532480 39.626118  -0.477179 -0.647162 -0.594543  0.255867 0.364238 1 0 1.000000
0  -44.154419 -28.105803 39.681171  -0.525625 -0.655026 -0.542826  0.270516 0.366192 1 0 1.000000
misc
0  -44.154419 -28.105803 39.681171  -0.525625 -0.655026 -0.542826  0.270516 0.366192 1 0 1.000000
0  -44.443459 -27.802999 39.584827  -0.442956 -0.343409 -0.828167  0.279305 0.363262 1 0 1.000000
0  -42.750504 -28.807760 39.130615  -0.406751 -0.559308 -0.722307  0.238289 0.339824 1 0 1.000000
misc
0  -42.874378 -27.954401 38.896629  -0.277443 -0.132191 -0.951604  0.245125 0.323222 1 0 1.000000
0  -42.750504 -28.807760 39.130615  -0.406751 -0.559308 -0.722307  0.238289 0.339824 1 0 1.000000
0  -44.443459 -27.802999 39.584827  -0.442956 -0.343409 -0.828167  0.279305 0.363262 1 0 1.000000
misc
0  -44.443459 -27.802999 39.584827  -0.442956 -0.343409 -0.828167  0.279305 0.363262 1 0 1.000000
0  -44.732502 -26.812000 39.433422  -0.261452 -0.055583 -0.963615  0.286142 0.339824 1 0 1.000000
0  -42.874378 -27.954401 38.896629  -0.277443 -0.132191 -0.951604  0.245125 0.323222 1 0 1.000000
misc
0  -42.888145 -25.889822 39.103088  -0.215144 0.063880 -0.974491  0.270516 0.275369 1 0 1.000000
0  -42.874378 -27.954401 38.896629  -0.277443 -0.132191 -0.951604  0.245125 0.323222 1 0 1.000000
0  -44.732502 -26.812000 39.433422  -0.261452 -0.055583 -0.963615  0.286142 0.339824 1 0 1.000000
misc
0  -44.732502 -26.812000 39.433422  -0.261452 -0.055583 -0.963615  0.286142 0.339824 1 0 1.000000
0  -44.498512 -25.655838 39.350838  -0.155116 -0.012679 -0.987815  0.300790 0.291971 1 0 1.000000
0  -42.888145 -25.889822 39.103088  -0.215144 0.063880 -0.974491  0.270516 0.275369 1 0 1.000000
misc
0  -44.498512 -25.655838 39.350838  -0.155116 -0.012679 -0.987815  0.300790 0.291971 1 0 1.000000
0  -44.305817 -25.284214 39.337074  -0.150512 0.020714 -0.988391  0.292978 0.278298 1 0 1.000000
0  -42.888145 -25.889822 39.103088  -0.215144 0.063880 -0.974491  0.270516 0.275369 1 0 1.000000
misc
0  -44.154419 -28.105803 39.681171  -0.525625 -0.655026 -0.542826  0.271493 0.373028 1 0 1.000000
0  -43.548809 -28.532480 39.626118  -0.477179 -0.647162 -0.594543  0.255867 0.364238 1 0 1.000000
0  -43.590099 -28.697647 39.791279  -0.414381 -0.575176 -0.705309  0.255867 0.376934 1 0 1.000000
misc
0  -44.402168 -27.445139 40.617111  0.594850 0.409423 0.691756  0.989288 0.471664 1 0 1.000000
0  -42.667923 -25.284212 39.474716  0.189066 0.265975 0.945257  0.987335 0.443342 1 0 1.000000
0  -43.837852 -24.953880 39.584827  0.265382 0.316379 0.910756  0.988311 0.443342 1 0 1.000000
misc
0  -44.402168 -27.445139 40.617111  0.594850 0.409423 0.691756  0.989288 0.471664 1 0 1.000000
0  -43.837852 -24.953880 39.584827  0.265382 0.316379 0.910756  0.988311 0.443342 1 0 1.000000
0  -45.117886 -24.596022 39.970211  0.559528 0.312373 0.767692  0.988311 0.443342 1 0 1.000000
misc
0  -45.117886 -24.596022 39.970211  0.559528 0.312373 0.767692  0.988311 0.443342 1 0 1.000000
0  -46.012535 -24.348272 40.768513  0.820968 0.407049 0.400404  0.989288 0.443342 1 0 1.000000
0  -44.402168 -27.445139 40.617111  0.594850 0.409423 0.691756  0.989288 0.471664 1 0 1.000000
misc
0  -46.012535 -24.348272 40.768513  0.820968 0.407049 0.400404  0.989288 0.443342 1 0 1.000000
0  -46.315342 -24.279457 41.731987  0.875596 0.465614 0.128586  0.990265 0.443342 1 0 1.000000
0  -44.402168 -27.445139 40.617111  0.594850 0.409423 0.691756  0.989288 0.471664 1 0 1.000000
misc
0  -44.828846 -27.183628 43.149662  0.648149 0.536999 -0.539940  0.991241 0.471664 1 0 1.000000
0  -44.402168 -27.445139 40.617111  0.594850 0.409423 0.691756  0.989288 0.471664 1 0 1.000000
0  -46.315342 -24.279457 41.731987  0.875596 0.465614 0.128586  0.990265 0.443342 1 0 1.000000
misc
0  -46.315342 -24.279457 41.731987  0.875596 0.465614 0.128586  0.990265 0.443342 1 0 1.000000
0  -46.370396 -24.265694 42.874382  0.883534 0.462275 -0.075297  0.990265 0.443342 1 0 1.000000
0  -44.828846 -27.183628 43.149662  0.648149 0.536999 -0.539940  0.991241 0.471664 1 0 1.000000
misc
0  -46.370396 -24.265694 42.874382  0.883534 0.462275 -0.075297  0.990265 0.443342 1 0 1.000000
0  -46.246521 -24.320747 43.287300  0.842885 0.431550 -0.321419  0.991241 0.443342 1 0 1.000000
0  -44.828846 -27.183628 43.149662  0.648149 0.536999 -0.539940  0.991241 0.471664 1 0 1.000000
misc
0  -46.246521 -24.320747 43.287300  0.842885 0.431550 -0.321419  0.991241 0.443342 1 0 1.000000
0  -45.957481 -24.403330 43.713978  0.712093 0.405972 -0.572809  0.991241 0.443342 1 0 1.000000
0  -44.828846 -27.183628 43.149662  0.648149 0.536999 -0.539940  0.991241 0.471664 1 0 1.000000
misc
0  -45.957481 -24.403330 43.713978  0.712093 0.405972 -0.572809  0.991241 0.443342 1 0 1.000000
0  -45.448219 -24.540970 44.016785  0.487646 0.374311 -0.788728  0.991241 0.443342 1 0 1.000000
0  -44.828846 -27.183628 43.149662  0.648149 0.536999 -0.539940  0.991241 0.471664 1 0 1.000000
misc
0  -45.448219 -24.540970 44.016785  0.487646 0.374311 -0.788728  0.991241 0.443342 1 0 1.000000
0  -44.360878 -24.857536 44.374645  0.313041 0.394828 -0.863780  0.991241 0.443342 1 0 1.000000
0  -44.828846 -27.183628 43.149662  0.648149 0.536999 -0.539940  0.991241 0.471664 1 0 1.000000
misc
0  -44.828846 -27.183628 43.149662  0.648149 0.536999 -0.539940  0.991241 0.471664 1 0 1.000000
0  -44.360878 -24.857536 44.374645  0.313041 0.394828 -0.863780  0.991241 0.443342 1 0 1.000000
0  -42.241245 -25.463144 44.663689  0.181912 0.444203 -0.877264  0.992218 0.443342 1 0 1.000000
misc
0  -42.241245 -25.463144 44.663689  0.181912 0.444203 -0.877264  0.992218 0.443342 1 0 1.000000
0  -39.928917 -28.876579 43.314827  -0.467030 0.690714 -0.552085  0.991241 0.471664 1 0 1.000000
0  -44.828846 -27.183628 43.149662  0.648149 0.536999 -0.539940  0.991241 0.471664 1 0 1.000000
misc
0  -42.241245 -25.463144 44.663689  0.181912 0.444203 -0.877264  0.992218 0.443342 1 0 1.000000
0  -40.135376 -26.054991 44.608627  0.021679 0.419341 -0.907570  0.992218 0.443342 1 0 1.000000
0  -39.928917 -28.876579 43.314827  -0.467030 0.690714 -0.552085  0.991241 0.471664 1 0 1.000000
misc
0  -40.135376 -26.054991 44.608627  0.021679 0.419341 -0.907570  0.992218 0.443342 1 0 1.000000
0  -38.745228 -26.454144 44.278294  -0.193298 0.445007 -0.874417  0.992218 0.443342 1 0 1.000000
0  -39.928917 -28.876579 43.314827  -0.467030 0.690714 -0.552085  0.991241 0.471664 1 0 1.000000
misc
0  -38.745228 -26.454144 44.278294  -0.193298 0.445007 -0.874417  0.992218 0.443342 1 0 1.000000
0  -38.414894 -26.536724 44.126896  -0.514232 0.559399 -0.650107  0.991241 0.443342 1 0 1.000000
0  -39.928917 -28.876579 43.314827  -0.467030 0.690714 -0.552085  0.991241 0.471664 1 0 1.000000
misc
0  -38.414894 -26.536724 44.126896  -0.514232 0.559399 -0.650107  0.991241 0.443342 1 0 1.000000
0  -38.180908 -26.591780 43.645157  -0.747563 0.611350 -0.259617  0.991241 0.443342 1 0 1.000000
0  -39.928917 -28.876579 43.314827  -0.467030 0.690714 -0.552085  0.991241 0.471664 1 0 1.000000
misc
0  -38.180908 -26.591780 43.645157  -0.747563 0.611350 -0.259617  0.991241 0.443342 1 0 1.000000
0  -38.098324 -26.619307 42.956966  -0.794631 0.606852 0.017080  0.991241 0.443342 1 0 1.000000
0  -39.928917 -28.876579 43.314827  -0.467030 0.690714 -0.552085  0.991241 0.471664 1 0 1.000000
misc
0  -40.259251 -28.849051 39.818810  -0.448425 0.446118 0.774529  0.988311 0.471664 1 0 1.000000
0  -39.928917 -28.876579 43.314827  -0.467030 0.690714 -0.552085  0.991241 0.471664 1 0 1.000000
0  -38.098324 -26.619307 42.956966  -0.794631 0.606852 0.017080  0.991241 0.443342 1 0 1.000000
misc
0  -38.098324 -26.619307 42.956966  -0.794631 0.606852 0.017080  0.991241 0.443342 1 0 1.000000
0  -38.442421 -26.495434 41.098846  -0.828541 0.500707 0.250623  0.989288 0.443342 1 0 1.000000
0  -40.259251 -28.849051 39.818810  -0.448425 0.446118 0.774529  0.988311 0.471664 1 0 1.000000
misc
0  -38.442421 -26.495434 41.098846  -0.828541 0.500707 0.250623  0.989288 0.443342 1 0 1.000000
0  -38.717701 -26.412849 40.396893  -0.785151 0.377392 0.491033  0.988311 0.443342 1 0 1.000000
0  -40.259251 -28.849051 39.818810  -0.448425 0.446118 0.774529  0.988311 0.471664 1 0 1.000000
misc
0  -38.717701 -26.412849 40.396893  -0.785151 0.377392 0.491033  0.988311 0.443342 1 0 1.000000
0  -39.075558 -26.302738 39.970211  -0.619161 0.243439 0.746577  0.988311 0.443342 1 0 1.000000
0  -40.259251 -28.849051 39.818810  -0.448425 0.446118 0.774529  0.988311 0.471664 1 0 1.000000
misc
0  -39.075558 -26.302738 39.970211  -0.619161 0.243439 0.746577  0.988311 0.443342 1 0 1.000000
0  -39.502239 -26.178865 39.681171  -0.370676 0.149269 0.916689  0.988311 0.443342 1 0 1.000000
0  -40.259251 -28.849051 39.818810  -0.448425 0.446118 0.774529  0.988311 0.471664 1 0 1.000000
misc
0  -39.502239 -26.178865 39.681171  -0.370676 0.149269 0.916689  0.988311 0.443342 1 0 1.000000
0  -40.383125 -25.931112 39.433422  -0.060873 0.124670 0.990329  0.987335 0.443342 1 0 1.000000
0  -40.259251 -28.849051 39.818810  -0.448425 0.446118 0.774529  0.988311 0.471664 1 0 1.000000
misc
0  -40.383125 -25.931112 39.433422  -0.060873 0.124670 0.990329  0.987335 0.443342 1 0 1.000000
0  -42.667923 -25.284212 39.474716  0.189066 0.265975 0.945257  0.987335 0.443342 1 0 1.000000
0  -40.259251 -28.849051 39.818810  -0.448425 0.446118 0.774529  0.988311 0.471664 1 0 1.000000
misc
0  -44.402168 -27.445139 40.617111  0.594850 0.409423 0.691756  0.989288 0.471664 1 0 1.000000
0  -40.259251 -28.849051 39.818810  -0.448425 0.446118 0.774529  0.988311 0.471664 1 0 1.000000
0  -42.667923 -25.284212 39.474716  0.189066 0.265975 0.945257  0.987335 0.443342 1 0 1.000000
misc
0  -38.745228 -26.715654 44.539810  0.308153 -0.203645 0.929285  0.992218 0.349590 1 0 1.000000
0  -38.277256 -26.949640 44.333355  0.762627 -0.034506 0.645918  0.992218 0.349590 1 0 1.000000
0  -38.277256 -26.578016 44.360882  0.644825 0.519926 0.560247  0.992218 0.402326 1 0 1.000000
misc
0  -38.001976 -26.646833 43.769039  0.791727 0.576069 0.203254  0.991241 0.402326 1 0 1.000000
0  -38.277256 -26.578016 44.360882  0.644825 0.519926 0.560247  0.992218 0.402326 1 0 1.000000
0  -38.277256 -26.949640 44.333355  0.762627 -0.034506 0.645918  0.992218 0.349590 1 0 1.000000
misc
0  -38.277256 -26.949640 44.333355  0.762627 -0.034506 0.645918  0.992218 0.349590 1 0 1.000000
0  -37.946922 -27.307501 43.713978  0.972983 0.060068 0.222927  0.991241 0.349590 1 0 1.000000
0  -38.001976 -26.646833 43.769039  0.791727 0.576069 0.203254  0.991241 0.402326 1 0 1.000000
misc
0  -37.905632 -26.660597 42.901913  0.787560 0.616235 0.001654  0.990265 0.402326 1 0 1.000000
0  -38.001976 -26.646833 43.769039  0.791727 0.576069 0.203254  0.991241 0.402326 1 0 1.000000
0  -37.946922 -27.307501 43.713978  0.972983 0.060068 0.222927  0.991241 0.349590 1 0 1.000000
misc
0  -37.946922 -27.307501 43.713978  0.972983 0.060068 0.222927  0.991241 0.349590 1 0 1.000000
0  -37.767994 -27.885582 42.654163  0.989247 0.104781 -0.102034  0.990265 0.349590 1 0 1.000000
0  -37.905632 -26.660597 42.901913  0.787560 0.616235 0.001654  0.990265 0.402326 1 0 1.000000
misc
0  -38.222198 -26.564253 41.098846  0.765262 0.623732 -0.159162  0.989288 0.402326 1 0 1.000000
0  -37.905632 -26.660597 42.901913  0.787560 0.616235 0.001654  0.990265 0.402326 1 0 1.000000
0  -37.767994 -27.885582 42.654163  0.989247 0.104781 -0.102034  0.990265 0.349590 1 0 1.000000
misc
0  -37.767994 -27.885582 42.654163  0.989247 0.104781 -0.102034  0.990265 0.349590 1 0 1.000000
0  -38.153381 -28.931633 40.534531  0.972956 0.096088 -0.210055  0.989288 0.349590 1 0 1.000000
0  -38.222198 -26.564253 41.098846  0.765262 0.623732 -0.159162  0.989288 0.402326 1 0 1.000000
misc
0  -38.511242 -26.467905 40.314308  0.719471 0.638563 -0.273127  0.988311 0.402326 1 0 1.000000
0  -38.222198 -26.564253 41.098846  0.765262 0.623732 -0.159162  0.989288 0.402326 1 0 1.000000
0  -38.153381 -28.931633 40.534531  0.972956 0.096088 -0.210055  0.989288 0.349590 1 0 1.000000
misc
0  -38.153381 -28.931633 40.534531  0.972956 0.096088 -0.210055  0.989288 0.349590 1 0 1.000000
0  -38.304783 -28.202148 40.094086  0.968229 0.148539 -0.201168  0.988311 0.349590 1 0 1.000000
0  -38.511242 -26.467905 40.314308  0.719471 0.638563 -0.273127  0.988311 0.402326 1 0 1.000000
misc
0  -38.869099 -26.357792 39.818810  0.611139 0.680974 -0.403464  0.988311 0.402326 1 0 1.000000
0  -38.511242 -26.467905 40.314308  0.719471 0.638563 -0.273127  0.988311 0.402326 1 0 1.000000
0  -38.304783 -28.202148 40.094086  0.968229 0.148539 -0.201168  0.988311 0.349590 1 0 1.000000
misc
0  -38.304783 -28.202148 40.094086  0.968229 0.148539 -0.201168  0.988311 0.349590 1 0 1.000000
0  -38.855335 -27.335028 39.419659  0.744428 0.235341 -0.624853  0.988311 0.349590 1 0 1.000000
0  -38.869099 -26.357792 39.818810  0.611139 0.680974 -0.403464  0.988311 0.402326 1 0 1.000000
misc
0  -39.488476 -26.178865 39.405895  0.430735 0.724460 -0.538169  0.987335 0.402326 1 0 1.000000
0  -38.869099 -26.357792 39.818810  0.611139 0.680974 -0.403464  0.988311 0.402326 1 0 1.000000
0  -38.855335 -27.335028 39.419659  0.744428 0.235341 -0.624853  0.988311 0.349590 1 0 1.000000
misc
0  -38.855335 -27.335028 39.419659  0.744428 0.235341 -0.624853  0.988311 0.349590 1 0 1.000000
0  -39.626114 -27.087278 39.061798  0.380371 0.259719 -0.887617  0.987335 0.349590 1 0 1.000000
0  -39.488476 -26.178865 39.405895  0.430735 0.724460 -0.538169  0.987335 0.402326 1 0 1.000000
misc
0  -40.479473 -25.889822 39.158146  0.261126 0.739680 -0.620232  0.987335 0.402326 1 0 1.000000
0  -39.488476 -26.178865 39.405895  0.430735 0.724460 -0.538169  0.987335 0.402326 1 0 1.000000
0  -39.626114 -27.087278 39.061798  0.380371 0.259719 -0.887617  0.987335 0.349590 1 0 1.000000
misc
0  -39.626114 -27.087278 39.061798  0.380371 0.259719 -0.887617  0.987335 0.349590 1 0 1.000000
0  -40.630871 -26.743181 38.924160  0.126655 0.226550 -0.965729  0.987335 0.349590 1 0 1.000000
0  -40.479473 -25.889822 39.158146  0.261126 0.739680 -0.620232  0.987335 0.402326 1 0 1.000000
misc
0  -42.695450 -25.270449 39.199436  0.148827 0.739626 -0.656356  0.987335 0.402326 1 0 1.000000
0  -40.479473 -25.889822 39.158146  0.261126 0.739680 -0.620232  0.987335 0.402326 1 0 1.000000
0  -40.630871 -26.743181 38.924160  0.126655 0.226550 -0.965729  0.987335 0.349590 1 0 1.000000
misc
0  -40.630871 -26.743181 38.924160  0.126655 0.226550 -0.965729  0.987335 0.349590 1 0 1.000000
0  -42.888145 -25.889822 39.103088  -0.049964 0.155487 -0.986574  0.987335 0.349590 1 0 1.000000
0  -42.695450 -25.270449 39.199436  0.148827 0.739626 -0.656356  0.987335 0.402326 1 0 1.000000
misc
0  -43.879143 -24.940117 39.350838  0.083187 0.751292 -0.654706  0.987335 0.402326 1 0 1.000000
0  -42.695450 -25.270449 39.199436  0.148827 0.739626 -0.656356  0.987335 0.402326 1 0 1.000000
0  -42.888145 -25.889822 39.103088  -0.049964 0.155487 -0.986574  0.987335 0.349590 1 0 1.000000
misc
0  -44.470985 -25.119049 44.636154  -0.265764 -0.139009 0.953963  0.992218 0.349590 1 0 1.000000
0  -42.323826 -25.724657 44.925198  -0.112746 -0.183906 0.976456  0.992218 0.349590 1 0 1.000000
0  -42.241245 -25.463144 44.980255  0.126015 0.592511 0.795645  0.992218 0.402326 1 0 1.000000
misc
0  -40.121609 -26.068754 44.925198  0.259383 0.559704 0.787053  0.992218 0.402326 1 0 1.000000
0  -42.241245 -25.463144 44.980255  0.126015 0.592511 0.795645  0.992218 0.402326 1 0 1.000000
0  -42.323826 -25.724657 44.925198  -0.112746 -0.183906 0.976456  0.992218 0.349590 1 0 1.000000
misc
0  -42.323826 -25.724657 44.925198  -0.112746 -0.183906 0.976456  0.992218 0.349590 1 0 1.000000
0  -40.217957 -26.330267 44.883907  0.061960 -0.210429 0.975644  0.992218 0.349590 1 0 1.000000
0  -40.121609 -26.068754 44.925198  0.259383 0.559704 0.787053  0.992218 0.402326 1 0 1.000000
misc
0  -38.717701 -26.454144 44.594864  0.415444 0.522524 0.744564  0.992218 0.402326 1 0 1.000000
0  -40.121609 -26.068754 44.925198  0.259383 0.559704 0.787053  0.992218 0.402326 1 0 1.000000
0  -40.217957 -26.330267 44.883907  0.061960 -0.210429 0.975644  0.992218 0.349590 1 0 1.000000
misc
0  -40.217957 -26.330267 44.883907  0.061960 -0.210429 0.975644  0.992218 0.349590 1 0 1.000000
0  -38.745228 -26.715654 44.539810  0.308153 -0.203645 0.929285  0.992218 0.349590 1 0 1.000000
0  -38.717701 -26.454144 44.594864  0.415444 0.522524 0.744564  0.992218 0.402326 1 0 1.000000
misc
0  -38.277256 -26.578016 44.360882  0.644825 0.519926 0.560247  0.992218 0.402326 1 0 1.000000
0  -38.717701 -26.454144 44.594864  0.415444 0.522524 0.744564  0.992218 0.402326 1 0 1.000000
0  -38.745228 -26.715654 44.539810  0.308153 -0.203645 0.929285  0.992218 0.349590 1 0 1.000000
misc
0  -38.717701 -26.454144 44.594864  0.415444 0.522524 0.744564  0.992218 0.402326 1 0 1.000000
0  -38.277256 -26.578016 44.360882  0.644825 0.519926 0.560247  0.992218 0.402326 1 0 1.000000
0  -38.414894 -26.536724 44.126896  0.272069 0.962204 0.011896  0.991241 0.443342 1 0 1.000000
misc
0  -38.180908 -26.591780 43.645157  0.272113 0.962192 0.011886  0.991241 0.443342 1 0 1.000000
0  -38.414894 -26.536724 44.126896  0.272069 0.962204 0.011896  0.991241 0.443342 1 0 1.000000
0  -38.277256 -26.578016 44.360882  0.644825 0.519926 0.560247  0.992218 0.402326 1 0 1.000000
misc
0  -38.277256 -26.578016 44.360882  0.644825 0.519926 0.560247  0.992218 0.402326 1 0 1.000000
0  -38.001976 -26.646833 43.769039  0.791727 0.576069 0.203254  0.991241 0.402326 1 0 1.000000
0  -38.180908 -26.591780 43.645157  0.272113 0.962192 0.011886  0.991241 0.443342 1 0 1.000000
misc
0  -38.098324 -26.619307 42.956966  0.272084 0.962200 0.011908  0.991241 0.443342 1 0 1.000000
0  -38.180908 -26.591780 43.645157  0.272113 0.962192 0.011886  0.991241 0.443342 1 0 1.000000
0  -38.001976 -26.646833 43.769039  0.791727 0.576069 0.203254  0.991241 0.402326 1 0 1.000000
misc
0  -38.001976 -26.646833 43.769039  0.791727 0.576069 0.203254  0.991241 0.402326 1 0 1.000000
0  -37.905632 -26.660597 42.901913  0.787560 0.616235 0.001654  0.990265 0.402326 1 0 1.000000
0  -38.098324 -26.619307 42.956966  0.272084 0.962200 0.011908  0.991241 0.443342 1 0 1.000000
misc
0  -38.442421 -26.495434 41.098846  0.272119 0.962190 0.011886  0.989288 0.443342 1 0 1.000000
0  -38.098324 -26.619307 42.956966  0.272084 0.962200 0.011908  0.991241 0.443342 1 0 1.000000
0  -37.905632 -26.660597 42.901913  0.787560 0.616235 0.001654  0.990265 0.402326 1 0 1.000000
misc
0  -37.905632 -26.660597 42.901913  0.787560 0.616235 0.001654  0.990265 0.402326 1 0 1.000000
0  -38.222198 -26.564253 41.098846  0.765262 0.623732 -0.159162  0.989288 0.402326 1 0 1.000000
0  -38.442421 -26.495434 41.098846  0.272119 0.962190 0.011886  0.989288 0.443342 1 0 1.000000
misc
0  -38.717701 -26.412849 40.396893  0.272105 0.962194 0.011917  0.988311 0.443342 1 0 1.000000
0  -38.442421 -26.495434 41.098846  0.272119 0.962190 0.011886  0.989288 0.443342 1 0 1.000000
0  -38.222198 -26.564253 41.098846  0.765262 0.623732 -0.159162  0.989288 0.402326 1 0 1.000000
misc
0  -38.222198 -26.564253 41.098846  0.765262 0.623732 -0.159162  0.989288 0.402326 1 0 1.000000
0  -38.511242 -26.467905 40.314308  0.719471 0.638563 -0.273127  0.988311 0.402326 1 0 1.000000
0  -38.717701 -26.412849 40.396893  0.272105 0.962194 0.011917  0.988311 0.443342 1 0 1.000000
misc
0  -39.075558 -26.302738 39.970211  0.272086 0.962199 0.011917  0.988311 0.443342 1 0 1.000000
0  -38.717701 -26.412849 40.396893  0.272105 0.962194 0.011917  0.988311 0.443342 1 0 1.000000
0  -38.511242 -26.467905 40.314308  0.719471 0.638563 -0.273127  0.988311 0.402326 1 0 1.000000
misc
0  -38.511242 -26.467905 40.314308  0.719471 0.638563 -0.273127  0.988311 0.402326 1 0 1.000000
0  -38.869099 -26.357792 39.818810  0.611139 0.680974 -0.403464  0.988311 0.402326 1 0 1.000000
0  -39.075558 -26.302738 39.970211  0.272086 0.962199 0.011917  0.988311 0.443342 1 0 1.000000
misc
0  -39.502239 -26.178865 39.681171  0.272072 0.962203 0.011914  0.988311 0.443342 1 0 1.000000
0  -39.075558 -26.302738 39.970211  0.272086 0.962199 0.011917  0.988311 0.443342 1 0 1.000000
0  -38.869099 -26.357792 39.818810  0.611139 0.680974 -0.403464  0.988311 0.402326 1 0 1.000000
misc
0  -46.452984 -24.251930 43.328590  -0.539002 0.780148 0.317562  0.990265 0.402326 1 0 1.000000
0  -46.150177 -24.348274 43.865383  -0.398806 0.733292 0.550669  0.991241 0.402326 1 0 1.000000
0  -45.957481 -24.403330 43.713978  0.272112 0.962192 0.011904  0.991241 0.443342 1 0 1.000000
misc
0  -45.448219 -24.540970 44.016785  0.272094 0.962197 0.011906  0.991241 0.443342 1 0 1.000000
0  -45.957481 -24.403330 43.713978  0.272112 0.962192 0.011904  0.991241 0.443342 1 0 1.000000
0  -46.150177 -24.348274 43.865383  -0.398806 0.733292 0.550669  0.991241 0.402326 1 0 1.000000
misc
0  -46.150177 -24.348274 43.865383  -0.398806 0.733292 0.550669  0.991241 0.402326 1 0 1.000000
0  -45.489510 -24.540970 44.305820  -0.148475 0.695834 0.702688  0.991241 0.402326 1 0 1.000000
0  -45.448219 -24.540970 44.016785  0.272094 0.962197 0.011906  0.991241 0.443342 1 0 1.000000
misc
0  -44.360878 -24.857536 44.374645  0.272108 0.962193 0.011926  0.991241 0.443342 1 0 1.000000
0  -45.448219 -24.540970 44.016785  0.272094 0.962197 0.011906  0.991241 0.443342 1 0 1.000000
0  -45.489510 -24.540970 44.305820  -0.148475 0.695834 0.702688  0.991241 0.402326 1 0 1.000000
misc
0  -45.489510 -24.540970 44.305820  -0.148475 0.695834 0.702688  0.991241 0.402326 1 0 1.000000
0  -44.388405 -24.857536 44.691216  -0.001341 0.627898 0.778295  0.992218 0.402326 1 0 1.000000
0  -44.360878 -24.857536 44.374645  0.272108 0.962193 0.011926  0.991241 0.443342 1 0 1.000000
misc
0  -42.241245 -25.463144 44.663689  0.272099 0.962196 0.011885  0.992218 0.443342 1 0 1.000000
0  -44.360878 -24.857536 44.374645  0.272108 0.962193 0.011926  0.991241 0.443342 1 0 1.000000
0  -44.388405 -24.857536 44.691216  -0.001341 0.627898 0.778295  0.992218 0.402326 1 0 1.000000
misc
0  -44.388405 -24.857536 44.691216  -0.001341 0.627898 0.778295  0.992218 0.402326 1 0 1.000000
0  -42.241245 -25.463144 44.980255  0.126015 0.592511 0.795645  0.992218 0.402326 1 0 1.000000
0  -42.241245 -25.463144 44.663689  0.272099 0.962196 0.011885  0.992218 0.443342 1 0 1.000000
misc
0  -40.135376 -26.054991 44.608627  0.272114 0.962191 0.011936  0.992218 0.443342 1 0 1.000000
0  -42.241245 -25.463144 44.663689  0.272099 0.962196 0.011885  0.992218 0.443342 1 0 1.000000
0  -42.241245 -25.463144 44.980255  0.126015 0.592511 0.795645  0.992218 0.402326 1 0 1.000000
misc
0  -42.241245 -25.463144 44.980255  0.126015 0.592511 0.795645  0.992218 0.402326 1 0 1.000000
0  -40.121609 -26.068754 44.925198  0.259383 0.559704 0.787053  0.992218 0.402326 1 0 1.000000
0  -40.135376 -26.054991 44.608627  0.272114 0.962191 0.011936  0.992218 0.443342 1 0 1.000000
misc
0  -38.745228 -26.454144 44.278294  0.272116 0.962191 0.011915  0.992218 0.443342 1 0 1.000000
0  -40.135376 -26.054991 44.608627  0.272114 0.962191 0.011936  0.992218 0.443342 1 0 1.000000
0  -40.121609 -26.068754 44.925198  0.259383 0.559704 0.787053  0.992218 0.402326 1 0 1.000000
misc
0  -40.121609 -26.068754 44.925198  0.259383 0.559704 0.787053  0.992218 0.402326 1 0 1.000000
0  -38.717701 -26.454144 44.594864  0.415444 0.522524 0.744564  0.992218 0.402326 1 0 1.000000
0  -38.745228 -26.454144 44.278294  0.272116 0.962191 0.011915  0.992218 0.443342 1 0 1.000000
misc
0  -38.414894 -26.536724 44.126896  0.272069 0.962204 0.011896  0.991241 0.443342 1 0 1.000000
0  -38.745228 -26.454144 44.278294  0.272116 0.962191 0.011915  0.992218 0.443342 1 0 1.000000
0  -38.717701 -26.454144 44.594864  0.415444 0.522524 0.744564  0.992218 0.402326 1 0 1.000000
misc
0  -42.888145 -25.889822 39.103088  -0.049964 0.155487 -0.986574  0.987335 0.349590 1 0 1.000000
0  -44.305817 -25.284214 39.337074  -0.190989 0.231481 -0.953908  0.987335 0.349590 1 0 1.000000
0  -43.879143 -24.940117 39.350838  0.083187 0.751292 -0.654706  0.987335 0.402326 1 0 1.000000
misc
0  -45.283054 -24.540968 39.805046  -0.221732 0.746833 -0.626958  0.988311 0.402326 1 0 1.000000
0  -43.879143 -24.940117 39.350838  0.083187 0.751292 -0.654706  0.987335 0.402326 1 0 1.000000
0  -44.305817 -25.284214 39.337074  -0.190989 0.231481 -0.953908  0.987335 0.349590 1 0 1.000000
misc
0  -44.305817 -25.284214 39.337074  -0.190989 0.231481 -0.953908  0.987335 0.349590 1 0 1.000000
0  -45.338112 -24.885061 39.791279  -0.518168 0.107276 -0.848525  0.988311 0.349590 1 0 1.000000
0  -45.283054 -24.540968 39.805046  -0.221732 0.746833 -0.626958  0.988311 0.402326 1 0 1.000000
misc
0  -46.232758 -24.293219 40.727222  -0.510704 0.766844 -0.388756  0.989288 0.402326 1 0 1.000000
0  -45.283054 -24.540968 39.805046  -0.221732 0.746833 -0.626958  0.988311 0.402326 1 0 1.000000
0  -45.338112 -24.885061 39.791279  -0.518168 0.107276 -0.848525  0.988311 0.349590 1 0 1.000000
misc
0  -45.338112 -24.885061 39.791279  -0.518168 0.107276 -0.848525  0.988311 0.349590 1 0 1.000000
0  -46.246521 -24.540968 40.713459  -0.841039 0.091004 -0.533265  0.989288 0.349590 1 0 1.000000
0  -46.232758 -24.293219 40.727222  -0.510704 0.766844 -0.388756  0.989288 0.402326 1 0 1.000000
misc
0  -46.508038 -24.224400 41.745750  -0.597854 0.792863 -0.118063  0.990265 0.402326 1 0 1.000000
0  -46.232758 -24.293219 40.727222  -0.510704 0.766844 -0.388756  0.989288 0.402326 1 0 1.000000
0  -46.246521 -24.540968 40.713459  -0.841039 0.091004 -0.533265  0.989288 0.349590 1 0 1.000000
misc
0  -46.246521 -24.540968 40.713459  -0.841039 0.091004 -0.533265  0.989288 0.349590 1 0 1.000000
0  -46.521801 -24.485912 41.745750  -0.985718 0.049926 -0.160836  0.990265 0.349590 1 0 1.000000
0  -46.508038 -24.224400 41.745750  -0.597854 0.792863 -0.118063  0.990265 0.402326 1 0 1.000000
misc
0  -46.563091 -24.224400 42.874382  -0.611118 0.786031 0.093218  0.990265 0.402326 1 0 1.000000
0  -46.508038 -24.224400 41.745750  -0.597854 0.792863 -0.118063  0.990265 0.402326 1 0 1.000000
0  -46.521801 -24.485912 41.745750  -0.985718 0.049926 -0.160836  0.990265 0.349590 1 0 1.000000
misc
0  -46.521801 -24.485912 41.745750  -0.985718 0.049926 -0.160836  0.990265 0.349590 1 0 1.000000
0  -46.576855 -24.472149 42.874382  -0.992361 0.067780 0.103078  0.990265 0.349590 1 0 1.000000
0  -46.563091 -24.224400 42.874382  -0.611118 0.786031 0.093218  0.990265 0.402326 1 0 1.000000
misc
0  -46.452984 -24.251930 43.328590  -0.539002 0.780148 0.317562  0.990265 0.402326 1 0 1.000000
0  -46.563091 -24.224400 42.874382  -0.611118 0.786031 0.093218  0.990265 0.402326 1 0 1.000000
0  -46.576855 -24.472149 42.874382  -0.992361 0.067780 0.103078  0.990265 0.349590 1 0 1.000000
misc
0  -46.576855 -24.472149 42.874382  -0.992361 0.067780 0.103078  0.990265 0.349590 1 0 1.000000
0  -46.480511 -24.513439 43.287300  -0.928921 0.073794 0.362850  0.990265 0.349590 1 0 1.000000
0  -46.452984 -24.251930 43.328590  -0.539002 0.780148 0.317562  0.990265 0.402326 1 0 1.000000
misc
0  -46.150177 -24.348274 43.865383  -0.398806 0.733292 0.550669  0.991241 0.402326 1 0 1.000000
0  -46.452984 -24.251930 43.328590  -0.539002 0.780148 0.317562  0.990265 0.402326 1 0 1.000000
0  -46.480511 -24.513439 43.287300  -0.928921 0.073794 0.362850  0.990265 0.349590 1 0 1.000000
misc
0  -46.480511 -24.513439 43.287300  -0.928921 0.073794 0.362850  0.990265 0.349590 1 0 1.000000
0  -46.177704 -24.609787 43.851620  -0.725837 0.057978 0.685419  0.991241 0.349590 1 0 1.000000
0  -46.150177 -24.348274 43.865383  -0.398806 0.733292 0.550669  0.991241 0.402326 1 0 1.000000
misc
0  -45.489510 -24.540970 44.305820  -0.148475 0.695834 0.702688  0.991241 0.402326 1 0 1.000000
0  -46.150177 -24.348274 43.865383  -0.398806 0.733292 0.550669  0.991241 0.402326 1 0 1.000000
0  -46.177704 -24.609787 43.851620  -0.725837 0.057978 0.685419  0.991241 0.349590 1 0 1.000000
misc
0  -46.177704 -24.609787 43.851620  -0.725837 0.057978 0.685419  0.991241 0.349590 1 0 1.000000
0  -45.530807 -24.788717 44.278294  -0.442971 -0.016558 0.896383  0.991241 0.349590 1 0 1.000000
0  -45.489510 -24.540970 44.305820  -0.148475 0.695834 0.702688  0.991241 0.402326 1 0 1.000000
misc
0  -44.388405 -24.857536 44.691216  -0.001341 0.627898 0.778295  0.992218 0.402326 1 0 1.000000
0  -45.489510 -24.540970 44.305820  -0.148475 0.695834 0.702688  0.991241 0.402326 1 0 1.000000
0  -45.530807 -24.788717 44.278294  -0.442971 -0.016558 0.896383  0.991241 0.349590 1 0 1.000000
misc
0  -45.530807 -24.788717 44.278294  -0.442971 -0.016558 0.896383  0.991241 0.349590 1 0 1.000000
0  -44.470985 -25.119049 44.636154  -0.265764 -0.139009 0.953963  0.992218 0.349590 1 0 1.000000
0  -44.388405 -24.857536 44.691216  -0.001341 0.627898 0.778295  0.992218 0.402326 1 0 1.000000
misc
0  -42.241245 -25.463144 44.980255  0.126015 0.592511 0.795645  0.992218 0.402326 1 0 1.000000
0  -44.388405 -24.857536 44.691216  -0.001341 0.627898 0.778295  0.992218 0.402326 1 0 1.000000
0  -44.470985 -25.119049 44.636154  -0.265764 -0.139009 0.953963  0.992218 0.349590 1 0 1.000000
misc
0  -38.869099 -26.357792 39.818810  0.611139 0.680974 -0.403464  0.988311 0.402326 1 0 1.000000
0  -39.488476 -26.178865 39.405895  0.430735 0.724460 -0.538169  0.987335 0.402326 1 0 1.000000
0  -39.502239 -26.178865 39.681171  0.272072 0.962203 0.011914  0.988311 0.443342 1 0 1.000000
misc
0  -40.383125 -25.931112 39.433422  0.272114 0.962192 0.011890  0.987335 0.443342 1 0 1.000000
0  -39.502239 -26.178865 39.681171  0.272072 0.962203 0.011914  0.988311 0.443342 1 0 1.000000
0  -39.488476 -26.178865 39.405895  0.430735 0.724460 -0.538169  0.987335 0.402326 1 0 1.000000
misc
0  -39.488476 -26.178865 39.405895  0.430735 0.724460 -0.538169  0.987335 0.402326 1 0 1.000000
0  -40.479473 -25.889822 39.158146  0.261126 0.739680 -0.620232  0.987335 0.402326 1 0 1.000000
0  -40.383125 -25.931112 39.433422  0.272114 0.962192 0.011890  0.987335 0.443342 1 0 1.000000
misc
0  -42.667923 -25.284212 39.474716  0.271512 0.962361 0.011959  0.987335 0.443342 1 0 1.000000
0  -40.383125 -25.931112 39.433422  0.272114 0.962192 0.011890  0.987335 0.443342 1 0 1.000000
0  -40.479473 -25.889822 39.158146  0.261126 0.739680 -0.620232  0.987335 0.402326 1 0 1.000000
misc
0  -40.479473 -25.889822 39.158146  0.261126 0.739680 -0.620232  0.987335 0.402326 1 0 1.000000
0  -42.695450 -25.270449 39.199436  0.148827 0.739626 -0.656356  0.987335 0.402326 1 0 1.000000
0  -42.667923 -25.284212 39.474716  0.271512 0.962361 0.011959  0.987335 0.443342 1 0 1.000000
misc
0  -42.667923 -25.284212 39.474716  0.271512 0.962361 0.011959  0.987335 0.443342 1 0 1.000000
0  -42.695450 -25.270449 39.199436  0.148827 0.739626 -0.656356  0.987335 0.402326 1 0 1.000000
0  -43.879143 -24.940117 39.350838  0.083187 0.751292 -0.654706  0.987335 0.402326 1 0 1.000000
misc
0  -43.879143 -24.940117 39.350838  0.083187 0.751292 -0.654706  0.987335 0.402326 1 0 1.000000
0  -43.837852 -24.953880 39.584827  0.272020 0.962218 0.011857  0.988311 0.443342 1 0 1.000000
0  -42.667923 -25.284212 39.474716  0.271512 0.962361 0.011959  0.987335 0.443342 1 0 1.000000
misc
0  -45.117886 -24.596022 39.970211  0.272592 0.962061 0.011462  0.988311 0.443342 1 0 1.000000
0  -43.837852 -24.953880 39.584827  0.272020 0.962218 0.011857  0.988311 0.443342 1 0 1.000000
0  -43.879143 -24.940117 39.350838  0.083187 0.751292 -0.654706  0.987335 0.402326 1 0 1.000000
misc
0  -43.879143 -24.940117 39.350838  0.083187 0.751292 -0.654706  0.987335 0.402326 1 0 1.000000
0  -45.283054 -24.540968 39.805046  -0.221732 0.746833 -0.626958  0.988311 0.402326 1 0 1.000000
0  -45.117886 -24.596022 39.970211  0.272592 0.962061 0.011462  0.988311 0.443342 1 0 1.000000
misc
0  -45.117886 -24.596022 39.970211  0.272592 0.962061 0.011462  0.988311 0.443342 1 0 1.000000
0  -45.283054 -24.540968 39.805046  -0.221732 0.746833 -0.626958  0.988311 0.402326 1 0 1.000000
0  -46.232758 -24.293219 40.727222  -0.510704 0.766844 -0.388756  0.989288 0.402326 1 0 1.000000
misc
0  -46.232758 -24.293219 40.727222  -0.510704 0.766844 -0.388756  0.989288 0.402326 1 0 1.000000
0  -46.012535 -24.348272 40.768513  0.272087 0.962199 0.011889  0.989288 0.443342 1 0 1.000000
0  -45.117886 -24.596022 39.970211  0.272592 0.962061 0.011462  0.988311 0.443342 1 0 1.000000
misc
0  -46.012535 -24.348272 40.768513  0.272087 0.962199 0.011889  0.989288 0.443342 1 0 1.000000
0  -46.232758 -24.293219 40.727222  -0.510704 0.766844 -0.388756  0.989288 0.402326 1 0 1.000000
0  -46.508038 -24.224400 41.745750  -0.597854 0.792863 -0.118063  0.990265 0.402326 1 0 1.000000
misc
0  -46.508038 -24.224400 41.745750  -0.597854 0.792863 -0.118063  0.990265 0.402326 1 0 1.000000
0  -46.315342 -24.279457 41.731987  0.272274 0.962146 0.011868  0.990265 0.443342 1 0 1.000000
0  -46.012535 -24.348272 40.768513  0.272087 0.962199 0.011889  0.989288 0.443342 1 0 1.000000
misc
0  -46.370396 -24.265694 42.874382  0.272084 0.962200 0.011912  0.990265 0.443342 1 0 1.000000
0  -46.315342 -24.279457 41.731987  0.272274 0.962146 0.011868  0.990265 0.443342 1 0 1.000000
0  -46.508038 -24.224400 41.745750  -0.597854 0.792863 -0.118063  0.990265 0.402326 1 0 1.000000
misc
0  -46.508038 -24.224400 41.745750  -0.597854 0.792863 -0.118063  0.990265 0.402326 1 0 1.000000
0  -46.563091 -24.224400 42.874382  -0.611118 0.786031 0.093218  0.990265 0.402326 1 0 1.000000
0  -46.370396 -24.265694 42.874382  0.272084 0.962200 0.011912  0.990265 0.443342 1 0 1.000000
misc
0  -46.370396 -24.265694 42.874382  0.272084 0.962200 0.011912  0.990265 0.443342 1 0 1.000000
0  -46.563091 -24.224400 42.874382  -0.611118 0.786031 0.093218  0.990265 0.402326 1 0 1.000000
0  -46.452984 -24.251930 43.328590  -0.539002 0.780148 0.317562  0.990265 0.402326 1 0 1.000000
misc
0  -46.452984 -24.251930 43.328590  -0.539002 0.780148 0.317562  0.990265 0.402326 1 0 1.000000
0  -46.246521 -24.320747 43.287300  0.272120 0.962190 0.011890  0.991241 0.443342 1 0 1.000000
0  -46.370396 -24.265694 42.874382  0.272084 0.962200 0.011912  0.990265 0.443342 1 0 1.000000
misc
0  -45.957481 -24.403330 43.713978  0.272112 0.962192 0.011904  0.991241 0.443342 1 0 1.000000
0  -46.246521 -24.320747 43.287300  0.272120 0.962190 0.011890  0.991241 0.443342 1 0 1.000000
0  -46.452984 -24.251930 43.328590  -0.539002 0.780148 0.317562  0.990265 0.402326 1 0 1.000000
misc
0  -41.787033 -29.633587 39.887627  -0.398751 -0.878044 0.264642  0.220710 0.389630 1 0 1.000000
0  -41.649391 -29.729937 39.708698  -0.416581 -0.899421 0.132295  0.217780 0.375957 1 0 1.000000
0  -36.405369 -32.179901 39.571060  -0.126439 -0.442630 0.887745  0.126957 0.374981 1 0 1.000000
misc
0  -41.787033 -29.633587 39.887627  -0.398751 -0.878044 0.264642  0.220710 0.389630 1 0 1.000000
0  -36.405369 -32.179901 39.571060  -0.126439 -0.442630 0.887745  0.126957 0.374981 1 0 1.000000
0  -39.708691 -30.266727 40.039032  -0.212350 -0.572336 0.792047  0.196295 0.400372 1 0 1.000000
misc
0  -36.405369 -32.179901 39.571060  -0.126439 -0.442630 0.887745  0.126957 0.374981 1 0 1.000000
0  -36.309021 -30.569530 40.300545  -0.101370 -0.394623 0.913234  0.145512 0.423811 1 0 1.000000
0  -39.708691 -30.266727 40.039032  -0.212350 -0.572336 0.792047  0.196295 0.400372 1 0 1.000000
misc
0  -36.309021 -30.569530 40.300545  -0.101371 -0.394617 0.913237  0.145512 0.423811 1 0 1.000000
0  -38.924152 -30.115324 40.231724  -0.100342 -0.440633 0.892062  0.188482 0.404279 1 0 1.000000
0  -39.708691 -30.266727 40.039032  -0.212187 -0.572255 0.792149  0.196295 0.400372 1 0 1.000000
misc
0  -36.309021 -30.569530 40.300545  -0.101371 -0.394617 0.913237  0.145512 0.423811 1 0 1.000000
0  -38.469944 -29.633587 40.396893  -0.071961 -0.266899 0.961034  0.183599 0.441389 1 0 1.000000
0  -38.924152 -30.115324 40.231724  -0.100342 -0.440633 0.892062  0.188482 0.404279 1 0 1.000000
skin_0
0  -44.732502 -26.812000 39.433422  -0.471983 -0.173434 -0.864380  0.030903 0.173325 1 0 1.000000
0  -44.443459 -27.802999 39.584827  -0.615841 -0.538263 -0.575337  0.027327 0.172778 1 0 1.000000
0  -45.489510 -26.330267 39.763752  -0.632097 -0.195240 -0.749890  0.032641 0.172133 1 0 1.000000
skin_0
0  -44.498512 -25.655838 39.350838  -0.364299 0.072898 -0.928425  0.035075 0.173623 1 0 1.000000
0  -44.732502 -26.812000 39.433422  -0.471983 -0.173434 -0.864380  0.030903 0.173325 1 0 1.000000
0  -45.489510 -26.330267 39.763752  -0.632097 -0.195240 -0.749890  0.032641 0.172133 1 0 1.000000
skin_0
0  -45.489510 -26.330267 39.763752  -0.632097 -0.195240 -0.749890  0.032641 0.172133 1 0 1.000000
0  -45.530807 -25.518200 39.763752  -0.574489 0.076223 -0.814955  0.035571 0.172133 1 0 1.000000
0  -44.498512 -25.655838 39.350838  -0.364299 0.072898 -0.928425  0.035075 0.173623 1 0 1.000000
skin_0
0  -44.305817 -25.284214 39.337074  -0.353644 0.134259 -0.925695  0.036416 0.173672 1 0 1.000000
0  -44.498512 -25.655838 39.350838  -0.364299 0.072898 -0.928425  0.035075 0.173623 1 0 1.000000
0  -45.530807 -25.518200 39.763752  -0.574489 0.076223 -0.814955  0.035571 0.172133 1 0 1.000000
skin_0
0  -45.530807 -25.518200 39.763752  -0.574489 0.076223 -0.814955  0.035571 0.172133 1 0 1.000000
0  -45.338112 -24.885061 39.791279  -0.517137 0.194780 -0.833445  0.037856 0.172033 1 0 1.000000
0  -44.305817 -25.284214 39.337074  -0.353644 0.134259 -0.925695  0.036416 0.173672 1 0 1.000000
skin_0
0  -37.767994 -27.885582 42.654163  0.988000 -0.098991 0.118559  0.027029 0.161702 1 0 1.000000
0  -37.946922 -27.307501 43.713978  0.861079 -0.181036 0.475151  0.029115 0.157878 1 0 1.000000
0  -38.098324 -28.986689 43.424934  0.846225 -0.258993 0.465645  0.023055 0.158921 1 0 1.000000
skin_0
0  -38.098324 -28.986689 43.424934  0.846225 -0.258993 0.465645  0.023055 0.158921 1 0 1.000000
0  -37.864342 -29.055508 42.599110  0.978702 -0.185961 0.086955  0.022807 0.161901 1 0 1.000000
0  -37.767994 -27.885582 42.654163  0.988000 -0.098991 0.118559  0.027029 0.161702 1 0 1.000000
skin_0
0  -38.153381 -28.931633 40.534531  0.948165 -0.243312 -0.204406  0.023254 0.169351 1 0 1.000000
0  -37.767994 -27.885582 42.654163  0.988000 -0.098991 0.118559  0.027029 0.161702 1 0 1.000000
0  -37.864342 -29.055508 42.599110  0.978702 -0.185961 0.086955  0.022807 0.161901 1 0 1.000000
skin_0
0  -38.249722 -29.895105 41.456707  0.890944 -0.405644 -0.204138  0.019777 0.166023 1 0 1.000000
0  -38.153381 -28.931633 40.534531  0.948165 -0.243312 -0.204406  0.023254 0.169351 1 0 1.000000
0  -37.864342 -29.055508 42.599110  0.978702 -0.185961 0.086955  0.022807 0.161901 1 0 1.000000
skin_0
0  -38.249722 -29.895105 41.456707  0.890944 -0.405644 -0.204138  0.019777 0.166023 1 0 1.000000
0  -38.469944 -29.633587 40.396893  0.831755 -0.456690 -0.315622  0.020721 0.169848 1 0 1.000000
0  -38.153381 -28.931633 40.534531  0.948165 -0.243312 -0.204406  0.023254 0.169351 1 0 1.000000
skin_0
0  -38.469944 -29.633587 40.396893  0.831755 -0.456690 -0.315622  0.020721 0.169848 1 0 1.000000
0  -38.249722 -29.895105 41.456707  0.890944 -0.405644 -0.204138  0.019777 0.166023 1 0 1.000000
0  -38.745224 -30.638351 41.374126  0.569286 -0.775051 -0.274245  0.017095 0.166321 1 0 1.000000
skin_0
0  -38.745224 -30.638351 41.374126  0.569286 -0.775051 -0.274245  0.017095 0.166321 1 0 1.000000
0  -38.924152 -30.115324 40.231724  0.495427 -0.759197 -0.422105  0.018982 0.170444 1 0 1.000000
0  -38.469944 -29.633587 40.396893  0.831755 -0.456690 -0.315622  0.020721 0.169848 1 0 1.000000
skin_0
0  -38.924152 -30.115324 40.231724  0.495427 -0.759197 -0.422105  0.018982 0.170444 1 0 1.000000
0  -38.745224 -30.638351 41.374126  0.569286 -0.775051 -0.274245  0.017095 0.166321 1 0 1.000000
0  -39.502235 -30.844809 41.360363  0.037576 -0.953243 -0.299861  0.016350 0.166371 1 0 1.000000
skin_0
0  -39.502235 -30.844809 41.360363  0.037576 -0.953243 -0.299861  0.016350 0.166371 1 0 1.000000
0  -39.708691 -30.266727 40.039032  -0.012445 -0.907651 -0.419542  0.018436 0.171139 1 0 1.000000
0  -38.924152 -30.115324 40.231724  0.495427 -0.759197 -0.422105  0.018982 0.170444 1 0 1.000000
skin_0
0  -39.708691 -30.266727 40.039032  -0.012445 -0.907651 -0.419542  0.018436 0.171139 1 0 1.000000
0  -39.502235 -30.844809 41.360363  0.037576 -0.953243 -0.299861  0.016350 0.166371 1 0 1.000000
0  -41.690689 -30.404366 41.429180  -0.308863 -0.906496 -0.287870  0.017939 0.166123 1 0 1.000000
skin_0
0  -41.690689 -30.404366 41.429180  -0.308863 -0.906496 -0.287870  0.017939 0.166123 1 0 1.000000
0  -41.787033 -29.633587 39.887627  -0.320505 -0.852484 -0.412974  0.020721 0.171686 1 0 1.000000
0  -39.708691 -30.266727 40.039032  -0.012445 -0.907651 -0.419542  0.018436 0.171139 1 0 1.000000
skin_0
0  -39.350830 -31.037502 42.406414  0.111763 -0.993475 0.022705  0.015655 0.162596 1 0 1.000000
0  -39.502235 -30.844809 41.360363  0.037576 -0.953243 -0.299861  0.016350 0.166371 1 0 1.000000
0  -38.745224 -30.638351 41.374126  0.569286 -0.775051 -0.274245  0.017095 0.166321 1 0 1.000000
skin_0
0  -38.745224 -30.638351 41.374126  0.569286 -0.775051 -0.274245  0.017095 0.166321 1 0 1.000000
0  -38.607586 -30.693409 42.530285  0.605523 -0.772634 0.190733  0.016896 0.162149 1 0 1.000000
0  -39.350830 -31.037502 42.406414  0.111763 -0.993475 0.022705  0.015655 0.162596 1 0 1.000000
skin_0
0  -38.607586 -30.693409 42.530285  0.605523 -0.772634 0.190733  0.016896 0.162149 1 0 1.000000
0  -38.745224 -30.638351 41.374126  0.569286 -0.775051 -0.274245  0.017095 0.166321 1 0 1.000000
0  -38.249722 -29.895105 41.456707  0.890944 -0.405644 -0.204138  0.019777 0.166023 1 0 1.000000
skin_0
0  -38.249722 -29.895105 41.456707  0.890944 -0.405644 -0.204138  0.019777 0.166023 1 0 1.000000
0  -38.098320 -30.060268 42.544048  0.887917 -0.440873 0.131283  0.019181 0.162100 1 0 1.000000
0  -38.607586 -30.693409 42.530285  0.605523 -0.772634 0.190733  0.016896 0.162149 1 0 1.000000
skin_0
0  -38.249722 -29.895105 41.456707  0.890944 -0.405644 -0.204138  0.019777 0.166023 1 0 1.000000
0  -37.864342 -29.055508 42.599110  0.978702 -0.185961 0.086955  0.022807 0.161901 1 0 1.000000
0  -38.098320 -30.060268 42.544048  0.887917 -0.440873 0.131283  0.019181 0.162100 1 0 1.000000
skin_0
0  -38.497475 -29.963923 43.328590  0.595914 -0.486473 0.638929  0.019529 0.159269 1 0 1.000000
0  -38.098320 -30.060268 42.544048  0.887917 -0.440873 0.131283  0.019181 0.162100 1 0 1.000000
0  -37.864342 -29.055508 42.599110  0.978702 -0.185961 0.086955  0.022807 0.161901 1 0 1.000000
skin_0
0  -37.864342 -29.055508 42.599110  0.978702 -0.185961 0.086955  0.022807 0.161901 1 0 1.000000
0  -38.098324 -28.986689 43.424934  0.846225 -0.258993 0.465645  0.023055 0.158921 1 0 1.000000
0  -38.497475 -29.963923 43.328590  0.595914 -0.486473 0.638929  0.019529 0.159269 1 0 1.000000
skin_0
0  -38.497475 -29.963923 43.328590  0.595914 -0.486473 0.638929  0.019529 0.159269 1 0 1.000000
0  -38.098324 -28.986689 43.424934  0.846225 -0.258993 0.465645  0.023055 0.158921 1 0 1.000000
0  -38.456184 -28.793999 43.892910  0.538276 -0.289204 0.791594  0.023751 0.157232 1 0 1.000000
skin_0
0  -38.497475 -29.963923 43.328590  0.595914 -0.486473 0.638929  0.019529 0.159269 1 0 1.000000
0  -38.456184 -28.793999 43.892910  0.538276 -0.289204 0.791594  0.023751 0.157232 1 0 1.000000
0  -38.979210 -28.862816 44.071838  0.226782 -0.343523 0.911352  0.023502 0.156587 1 0 1.000000
skin_0
0  -38.979210 -28.862816 44.071838  0.226782 -0.343523 0.911352  0.023502 0.156587 1 0 1.000000
0  -39.185665 -30.418129 43.342354  0.187435 -0.662397 0.725326  0.017890 0.159219 1 0 1.000000
0  -38.497475 -29.963923 43.328590  0.595914 -0.486473 0.638929  0.019529 0.159269 1 0 1.000000
skin_0
0  -39.185665 -30.418129 43.342354  0.187435 -0.662397 0.725326  0.017890 0.159219 1 0 1.000000
0  -38.979210 -28.862816 44.071838  0.226782 -0.343523 0.911352  0.023502 0.156587 1 0 1.000000
0  -40.988731 -28.518719 44.457226  -0.022019 -0.356543 0.934019  0.024744 0.155196 1 0 1.000000
skin_0
0  -40.988731 -28.518719 44.457226  -0.022019 -0.356543 0.934019  0.024744 0.155196 1 0 1.000000
0  -41.539280 -30.101559 43.493759  -0.183819 -0.688259 0.701791  0.019032 0.158673 1 0 1.000000
0  -39.185665 -30.418129 43.342354  0.187435 -0.662397 0.725326  0.017890 0.159219 1 0 1.000000
skin_0
0  -39.337067 -30.996212 42.571583  0.119333 -0.914904 0.385629  0.015804 0.162000 1 0 1.000000
0  -39.185665 -30.418129 43.342354  0.187435 -0.662397 0.725326  0.017890 0.159219 1 0 1.000000
0  -41.539280 -30.101559 43.493759  -0.183819 -0.688259 0.701791  0.019032 0.158673 1 0 1.000000
skin_0
0  -41.539280 -30.101559 43.493759  -0.183819 -0.688259 0.701791  0.019032 0.158673 1 0 1.000000
0  -41.663155 -30.569534 42.640400  -0.260974 -0.874666 0.408476  0.017343 0.161752 1 0 1.000000
0  -39.337067 -30.996212 42.571583  0.119333 -0.914904 0.385629  0.015804 0.162000 1 0 1.000000
skin_0
0  -39.350830 -31.037502 42.406414  0.111763 -0.993475 0.022705  0.015655 0.162596 1 0 1.000000
0  -39.337067 -30.996212 42.571583  0.119333 -0.914904 0.385629  0.015804 0.162000 1 0 1.000000
0  -41.663155 -30.569534 42.640400  -0.260974 -0.874666 0.408476  0.017343 0.161752 1 0 1.000000
skin_0
0  -41.663155 -30.569534 42.640400  -0.260974 -0.874666 0.408476  0.017343 0.161752 1 0 1.000000
0  -41.690689 -30.610825 42.488995  -0.303948 -0.950352 0.066685  0.017194 0.162298 1 0 1.000000
0  -39.350830 -31.037502 42.406414  0.111763 -0.993475 0.022705  0.015655 0.162596 1 0 1.000000
skin_0
0  -39.502235 -30.844809 41.360363  0.037576 -0.953243 -0.299861  0.016350 0.166371 1 0 1.000000
0  -39.350830 -31.037502 42.406414  0.111763 -0.993475 0.022705  0.015655 0.162596 1 0 1.000000
0  -41.690689 -30.610825 42.488995  -0.303948 -0.950352 0.066685  0.017194 0.162298 1 0 1.000000
skin_0
0  -41.690689 -30.610825 42.488995  -0.303948 -0.950352 0.066685  0.017194 0.162298 1 0 1.000000
0  -41.690689 -30.404366 41.429180  -0.308863 -0.906496 -0.287870  0.017939 0.166123 1 0 1.000000
0  -39.502235 -30.844809 41.360363  0.037576 -0.953243 -0.299861  0.016350 0.166371 1 0 1.000000
skin_0
0  -38.607586 -30.693409 42.530285  0.605523 -0.772634 0.190733  0.016896 0.162149 1 0 1.000000
0  -39.337067 -30.996212 42.571583  0.119333 -0.914904 0.385629  0.015804 0.162000 1 0 1.000000
0  -39.350830 -31.037502 42.406414  0.111763 -0.993475 0.022705  0.015655 0.162596 1 0 1.000000
skin_0
0  -39.185665 -30.418129 43.342354  0.187435 -0.662397 0.725326  0.017890 0.159219 1 0 1.000000
0  -39.337067 -30.996212 42.571583  0.119333 -0.914904 0.385629  0.015804 0.162000 1 0 1.000000
0  -38.607586 -30.693409 42.530285  0.605523 -0.772634 0.190733  0.016896 0.162149 1 0 1.000000
skin_0
0  -38.607586 -30.693409 42.530285  0.605523 -0.772634 0.190733  0.016896 0.162149 1 0 1.000000
0  -38.497475 -29.963923 43.328590  0.595914 -0.486473 0.638929  0.019529 0.159269 1 0 1.000000
0  -39.185665 -30.418129 43.342354  0.187435 -0.662397 0.725326  0.017890 0.159219 1 0 1.000000
skin_0
0  -38.607586 -30.693409 42.530285  0.605523 -0.772634 0.190733  0.016896 0.162149 1 0 1.000000
0  -38.098320 -30.060268 42.544048  0.887917 -0.440873 0.131283  0.019181 0.162100 1 0 1.000000
0  -38.497475 -29.963923 43.328590  0.595914 -0.486473 0.638929  0.019529 0.159269 1 0 1.000000
skin_0
0  -43.672680 -29.523479 41.525524  -0.513066 -0.826438 -0.231867  0.021118 0.165775 1 0 1.000000
0  -43.631390 -28.945396 40.162907  -0.483840 -0.758556 -0.436453  0.023204 0.170692 1 0 1.000000
0  -41.787033 -29.633587 39.887627  -0.320505 -0.852484 -0.412974  0.020721 0.171686 1 0 1.000000
skin_0
0  -41.787033 -29.633587 39.887627  -0.320505 -0.852484 -0.412974  0.020721 0.171686 1 0 1.000000
0  -41.690689 -30.404366 41.429180  -0.308863 -0.906496 -0.287870  0.017939 0.166123 1 0 1.000000
0  -43.672680 -29.523479 41.525524  -0.513066 -0.826438 -0.231867  0.021118 0.165775 1 0 1.000000
skin_0
0  -43.658916 -29.674885 42.571583  -0.528427 -0.848973 0.003084  0.020572 0.162000 1 0 1.000000
0  -43.672680 -29.523479 41.525524  -0.513066 -0.826438 -0.231867  0.021118 0.165775 1 0 1.000000
0  -41.690689 -30.404366 41.429180  -0.308863 -0.906496 -0.287870  0.017939 0.166123 1 0 1.000000
skin_0
0  -41.690689 -30.404366 41.429180  -0.308863 -0.906496 -0.287870  0.017939 0.166123 1 0 1.000000
0  -41.690689 -30.610825 42.488995  -0.303948 -0.950352 0.066685  0.017194 0.162298 1 0 1.000000
0  -43.658916 -29.674885 42.571583  -0.528427 -0.848973 0.003084  0.020572 0.162000 1 0 1.000000
skin_0
0  -43.645149 -29.661116 42.736744  -0.490314 -0.804812 0.334470  0.020621 0.161404 1 0 1.000000
0  -43.658916 -29.674885 42.571583  -0.528427 -0.848973 0.003084  0.020572 0.162000 1 0 1.000000
0  -41.690689 -30.610825 42.488995  -0.303948 -0.950352 0.066685  0.017194 0.162298 1 0 1.000000
skin_0
0  -41.690689 -30.610825 42.488995  -0.303948 -0.950352 0.066685  0.017194 0.162298 1 0 1.000000
0  -41.663155 -30.569534 42.640400  -0.260974 -0.874666 0.408476  0.017343 0.161752 1 0 1.000000
0  -43.645149 -29.661116 42.736744  -0.490314 -0.804812 0.334470  0.020621 0.161404 1 0 1.000000
skin_0
0  -43.479992 -29.124329 43.617630  -0.367283 -0.600782 0.710045  0.022558 0.158226 1 0 1.000000
0  -43.645149 -29.661116 42.736744  -0.490314 -0.804812 0.334470  0.020621 0.161404 1 0 1.000000
0  -41.663155 -30.569534 42.640400  -0.260974 -0.874666 0.408476  0.017343 0.161752 1 0 1.000000
skin_0
0  -41.663155 -30.569534 42.640400  -0.260974 -0.874666 0.408476  0.017343 0.161752 1 0 1.000000
0  -41.539280 -30.101559 43.493759  -0.183819 -0.688259 0.701791  0.019032 0.158673 1 0 1.000000
0  -43.479992 -29.124329 43.617630  -0.367283 -0.600782 0.710045  0.022558 0.158226 1 0 1.000000
skin_0
0  -42.984489 -27.651596 44.484753  -0.198928 -0.312856 0.928735  0.027873 0.155097 1 0 1.000000
0  -43.479992 -29.124329 43.617630  -0.367283 -0.600782 0.710045  0.022558 0.158226 1 0 1.000000
0  -41.539280 -30.101559 43.493759  -0.183819 -0.688259 0.701791  0.019032 0.158673 1 0 1.000000
skin_0
0  -41.539280 -30.101559 43.493759  -0.183819 -0.688259 0.701791  0.019032 0.158673 1 0 1.000000
0  -40.988731 -28.518719 44.457226  -0.022019 -0.356543 0.934019  0.024744 0.155196 1 0 1.000000
0  -42.984489 -27.651596 44.484753  -0.198928 -0.312856 0.928735  0.027873 0.155097 1 0 1.000000
skin_0
0  -42.323826 -25.724657 44.925198  -0.112746 -0.183906 0.976456  0.034826 0.153507 1 0 1.000000
0  -42.984489 -27.651596 44.484753  -0.198928 -0.312856 0.928735  0.027873 0.155097 1 0 1.000000
0  -40.988731 -28.518719 44.457226  -0.022019 -0.356543 0.934019  0.024744 0.155196 1 0 1.000000
skin_0
0  -40.988731 -28.518719 44.457226  -0.022019 -0.356543 0.934019  0.024744 0.155196 1 0 1.000000
0  -40.217957 -26.330267 44.883907  0.061960 -0.210429 0.975644  0.032641 0.153656 1 0 1.000000
0  -42.323826 -25.724657 44.925198  -0.112746 -0.183906 0.976456  0.034826 0.153507 1 0 1.000000
skin_0
0  -40.217957 -26.330267 44.883907  0.061960 -0.210429 0.975644  0.032641 0.153656 1 0 1.000000
0  -40.988731 -28.518719 44.457226  -0.022019 -0.356543 0.934019  0.024744 0.155196 1 0 1.000000
0  -38.979210 -28.862816 44.071838  0.226782 -0.343523 0.911352  0.023502 0.156587 1 0 1.000000
skin_0
0  -38.979210 -28.862816 44.071838  0.226782 -0.343523 0.911352  0.023502 0.156587 1 0 1.000000
0  -38.745228 -26.715654 44.539810  0.219887 -0.236143 0.946513  0.031250 0.154898 1 0 1.000000
0  -40.217957 -26.330267 44.883907  0.061960 -0.210429 0.975644  0.032641 0.153656 1 0 1.000000
skin_0
0  -38.745228 -26.715654 44.539810  0.219887 -0.236143 0.946513  0.031250 0.154898 1 0 1.000000
0  -38.979210 -28.862816 44.071838  0.226782 -0.343523 0.911352  0.023502 0.156587 1 0 1.000000
0  -38.456184 -28.793999 43.892910  0.538276 -0.289204 0.791594  0.023751 0.157232 1 0 1.000000
skin_0
0  -38.456184 -28.793999 43.892910  0.538276 -0.289204 0.791594  0.023751 0.157232 1 0 1.000000
0  -38.277256 -26.949640 44.333355  0.488163 -0.245089 0.837633  0.030406 0.155643 1 0 1.000000
0  -38.745228 -26.715654 44.539810  0.219887 -0.236143 0.946513  0.031250 0.154898 1 0 1.000000
skin_0
0  -37.946922 -27.307501 43.713978  0.861079 -0.181036 0.475151  0.029115 0.157878 1 0 1.000000
0  -38.277256 -26.949640 44.333355  0.488163 -0.245089 0.837633  0.030406 0.155643 1 0 1.000000
0  -38.456184 -28.793999 43.892910  0.538276 -0.289204 0.791594  0.023751 0.157232 1 0 1.000000
skin_0
0  -38.456184 -28.793999 43.892910  0.538276 -0.289204 0.791594  0.023751 0.157232 1 0 1.000000
0  -38.098324 -28.986689 43.424934  0.846225 -0.258993 0.465645  0.023055 0.158921 1 0 1.000000
0  -37.946922 -27.307501 43.713978  0.861079 -0.181036 0.475151  0.029115 0.157878 1 0 1.000000
skin_0
0  -43.645149 -29.661116 42.736744  -0.490314 -0.804812 0.334470  0.020621 0.161404 1 0 1.000000
0  -43.479992 -29.124329 43.617630  -0.367283 -0.600782 0.710045  0.022558 0.158226 1 0 1.000000
0  -45.255527 -27.555252 43.700214  -0.531707 -0.460108 0.711047  0.028221 0.157928 1 0 1.000000
skin_0
0  -44.856373 -26.330269 44.347118  -0.338998 -0.230719 0.912058  0.032641 0.155593 1 0 1.000000
0  -45.255527 -27.555252 43.700214  -0.531707 -0.460108 0.711047  0.028221 0.157928 1 0 1.000000
0  -43.479992 -29.124329 43.617630  -0.367283 -0.600782 0.710045  0.022558 0.158226 1 0 1.000000
skin_0
0  -43.479992 -29.124329 43.617630  -0.367283 -0.600782 0.710045  0.022558 0.158226 1 0 1.000000
0  -42.984489 -27.651596 44.484753  -0.198928 -0.312856 0.928735  0.027873 0.155097 1 0 1.000000
0  -44.856373 -26.330269 44.347118  -0.338998 -0.230719 0.912058  0.032641 0.155593 1 0 1.000000
skin_0
0  -42.984489 -27.651596 44.484753  -0.198928 -0.312856 0.928735  0.027873 0.155097 1 0 1.000000
0  -42.323826 -25.724657 44.925198  -0.112746 -0.183906 0.976456  0.034826 0.153507 1 0 1.000000
0  -44.470985 -25.119049 44.636154  -0.265764 -0.139009 0.953963  0.037012 0.154550 1 0 1.000000
skin_0
0  -44.470985 -25.119049 44.636154  -0.265764 -0.139009 0.953963  0.037012 0.154550 1 0 1.000000
0  -44.856373 -26.330269 44.347118  -0.338998 -0.230719 0.912058  0.032641 0.155593 1 0 1.000000
0  -42.984489 -27.651596 44.484753  -0.198928 -0.312856 0.928735  0.027873 0.155097 1 0 1.000000
skin_0
0  -44.856373 -26.330269 44.347118  -0.338998 -0.230719 0.912058  0.032641 0.155593 1 0 1.000000
0  -44.470985 -25.119049 44.636154  -0.265764 -0.139009 0.953963  0.037012 0.154550 1 0 1.000000
0  -45.530807 -24.788717 44.278294  -0.444799 -0.109285 0.888938  0.038204 0.155842 1 0 1.000000
skin_0
0  -45.929955 -26.357796 43.755268  -0.649716 -0.306471 0.695661  0.032542 0.157729 1 0 1.000000
0  -44.856373 -26.330269 44.347118  -0.338998 -0.230719 0.912058  0.032641 0.155593 1 0 1.000000
0  -45.530807 -24.788717 44.278294  -0.444799 -0.109285 0.888938  0.038204 0.155842 1 0 1.000000
skin_0
0  -45.929955 -26.357796 43.755268  -0.649716 -0.306471 0.695661  0.032542 0.157729 1 0 1.000000
0  -45.255527 -27.555252 43.700214  -0.531707 -0.460108 0.711047  0.028221 0.157928 1 0 1.000000
0  -44.856373 -26.330269 44.347118  -0.338998 -0.230719 0.912058  0.032641 0.155593 1 0 1.000000
skin_0
0  -45.434456 -28.215916 42.846855  -0.718008 -0.636650 0.281319  0.025836 0.161007 1 0 1.000000
0  -45.255527 -27.555252 43.700214  -0.531707 -0.460108 0.711047  0.028221 0.157928 1 0 1.000000
0  -45.929955 -26.357796 43.755268  -0.649716 -0.306471 0.695661  0.032542 0.157729 1 0 1.000000
skin_0
0  -45.255527 -27.555252 43.700214  -0.531707 -0.460108 0.711047  0.028221 0.157928 1 0 1.000000
0  -45.434456 -28.215916 42.846855  -0.718008 -0.636650 0.281319  0.025836 0.161007 1 0 1.000000
0  -43.645149 -29.661116 42.736744  -0.490314 -0.804812 0.334470  0.020621 0.161404 1 0 1.000000
skin_0
0  -43.658916 -29.674885 42.571583  -0.528427 -0.848973 0.003084  0.020572 0.162000 1 0 1.000000
0  -43.645149 -29.661116 42.736744  -0.490314 -0.804812 0.334470  0.020621 0.161404 1 0 1.000000
0  -45.434456 -28.215916 42.846855  -0.718008 -0.636650 0.281319  0.025836 0.161007 1 0 1.000000
skin_0
0  -43.672680 -29.523479 41.525524  -0.513066 -0.826438 -0.231867  0.021118 0.165775 1 0 1.000000
0  -43.658916 -29.674885 42.571583  -0.528427 -0.848973 0.003084  0.020572 0.162000 1 0 1.000000
0  -45.434456 -28.215916 42.654163  -0.766665 -0.640249 -0.048021  0.025836 0.161702 1 0 1.000000
skin_0
0  -45.434456 -28.215916 42.846855  -0.718008 -0.636650 0.281319  0.025836 0.161007 1 0 1.000000
0  -45.434456 -28.215916 42.654163  -0.766665 -0.640249 -0.048021  0.025836 0.161702 1 0 1.000000
0  -43.658916 -29.674885 42.571583  -0.528427 -0.848973 0.003084  0.020572 0.162000 1 0 1.000000
skin_0
0  -45.434456 -28.215916 42.654163  -0.766665 -0.640249 -0.048021  0.025836 0.161702 1 0 1.000000
0  -45.434456 -28.215916 42.846855  -0.718008 -0.636650 0.281319  0.025836 0.161007 1 0 1.000000
0  -46.342869 -26.550489 42.998260  -0.855574 -0.369469 0.362610  0.031846 0.160461 1 0 1.000000
skin_0
0  -45.929955 -26.357796 43.755268  -0.649716 -0.306471 0.695661  0.032542 0.157729 1 0 1.000000
0  -46.342869 -26.550489 42.998260  -0.855574 -0.369469 0.362610  0.031846 0.160461 1 0 1.000000
0  -45.434456 -28.215916 42.846855  -0.718008 -0.636650 0.281319  0.025836 0.161007 1 0 1.000000
skin_0
0  -46.342869 -26.550489 42.998260  -0.855574 -0.369469 0.362610  0.031846 0.160461 1 0 1.000000
0  -45.929955 -26.357796 43.755268  -0.649716 -0.306471 0.695661  0.032542 0.157729 1 0 1.000000
0  -46.274048 -25.270452 43.810329  -0.721966 -0.100268 0.684625  0.036465 0.157530 1 0 1.000000
skin_0
0  -45.530807 -24.788717 44.278294  -0.444799 -0.109285 0.888938  0.038204 0.155842 1 0 1.000000
0  -46.274048 -25.270452 43.810329  -0.721966 -0.100268 0.684625  0.036465 0.157530 1 0 1.000000
0  -45.929955 -26.357796 43.755268  -0.649716 -0.306471 0.695661  0.032542 0.157729 1 0 1.000000
skin_0
0  -46.177704 -24.609787 43.851620  -0.736280 0.061491 0.673877  0.038849 0.157381 1 0 1.000000
0  -46.274048 -25.270452 43.810329  -0.721966 -0.100268 0.684625  0.036465 0.157530 1 0 1.000000
0  -45.530807 -24.788717 44.278294  -0.444799 -0.109285 0.888938  0.038204 0.155842 1 0 1.000000
skin_0
0  -46.274048 -25.270452 43.810329  -0.721966 -0.100268 0.684625  0.036465 0.157530 1 0 1.000000
0  -46.177704 -24.609787 43.851620  -0.736280 0.061491 0.673877  0.038849 0.157381 1 0 1.000000
0  -46.480511 -24.513439 43.287300  -0.936101 0.068916 0.344913  0.039197 0.159418 1 0 1.000000
skin_0
0  -46.480511 -24.513439 43.287300  -0.936101 0.068916 0.344913  0.039197 0.159418 1 0 1.000000
0  -46.618145 -25.463146 43.122135  -0.951834 -0.091362 0.292686  0.035770 0.160014 1 0 1.000000
0  -46.274048 -25.270452 43.810329  -0.721966 -0.100268 0.684625  0.036465 0.157530 1 0 1.000000
skin_0
0  -46.645676 -25.490673 42.846855  -0.995559 -0.087349 0.035100  0.035671 0.161007 1 0 1.000000
0  -46.618145 -25.463146 43.122135  -0.951834 -0.091362 0.292686  0.035770 0.160014 1 0 1.000000
0  -46.480511 -24.513439 43.287300  -0.936101 0.068916 0.344913  0.039197 0.159418 1 0 1.000000
skin_0
0  -46.618145 -25.463146 43.122135  -0.951834 -0.091362 0.292686  0.035770 0.160014 1 0 1.000000
0  -46.645676 -25.490673 42.846855  -0.995559 -0.087349 0.035100  0.035671 0.161007 1 0 1.000000
0  -46.370396 -26.619308 42.778038  -0.915287 -0.394817 0.079806  0.031598 0.161255 1 0 1.000000
skin_0
0  -46.274048 -26.578018 41.649399  -0.909574 -0.379535 -0.169201  0.031747 0.165328 1 0 1.000000
0  -46.370396 -26.619308 42.778038  -0.915287 -0.394817 0.079806  0.031598 0.161255 1 0 1.000000
0  -46.645676 -25.490673 42.846855  -0.995559 -0.087349 0.035100  0.035671 0.161007 1 0 1.000000
skin_0
0  -46.370396 -26.619308 42.778038  -0.915287 -0.394817 0.079806  0.031598 0.161255 1 0 1.000000
0  -46.274048 -26.578018 41.649399  -0.909574 -0.379535 -0.169201  0.031747 0.165328 1 0 1.000000
0  -45.324348 -28.174625 41.594345  -0.743368 -0.639461 -0.196197  0.025986 0.165527 1 0 1.000000
skin_0
0  -45.090359 -27.885584 40.424419  -0.699894 -0.572035 -0.427698  0.027029 0.169748 1 0 1.000000
0  -45.324348 -28.174625 41.594345  -0.743368 -0.639461 -0.196197  0.025986 0.165527 1 0 1.000000
0  -46.274048 -26.578018 41.649399  -0.909574 -0.379535 -0.169201  0.031747 0.165328 1 0 1.000000
skin_0
0  -45.324348 -28.174625 41.594345  -0.743368 -0.639461 -0.196197  0.025986 0.165527 1 0 1.000000
0  -45.090359 -27.885584 40.424419  -0.699894 -0.572035 -0.427698  0.027029 0.169748 1 0 1.000000
0  -43.631390 -28.945396 40.162907  -0.483840 -0.758556 -0.436453  0.023204 0.170692 1 0 1.000000
skin_0
0  -44.154419 -28.105803 39.681171  -0.561897 -0.650757 -0.510673  0.026234 0.172431 1 0 1.000000
0  -43.631390 -28.945396 40.162907  -0.483840 -0.758556 -0.436453  0.023204 0.170692 1 0 1.000000
0  -45.090359 -27.885584 40.424419  -0.699894 -0.572035 -0.427698  0.027029 0.169748 1 0 1.000000
skin_0
0  -43.631390 -28.945396 40.162907  -0.483840 -0.758556 -0.436453  0.023204 0.170692 1 0 1.000000
0  -44.154419 -28.105803 39.681171  -0.561897 -0.650757 -0.510673  0.026234 0.172431 1 0 1.000000
0  -43.590099 -28.697647 39.791279  -0.502681 -0.694359 -0.514954  0.024098 0.172033 1 0 1.000000
skin_0
0  -41.787033 -29.633587 39.887627  -0.320505 -0.852484 -0.412974  0.020721 0.171686 1 0 1.000000
0  -43.631390 -28.945396 40.162907  -0.483840 -0.758556 -0.436453  0.023204 0.170692 1 0 1.000000
0  -43.590099 -28.697647 39.791279  -0.502681 -0.694359 -0.514954  0.024098 0.172033 1 0 1.000000
skin_0
0  -46.274048 -25.270452 43.810329  -0.721966 -0.100268 0.684625  0.036465 0.157530 1 0 1.000000
0  -46.618145 -25.463146 43.122135  -0.951834 -0.091362 0.292686  0.035770 0.160014 1 0 1.000000
0  -46.342869 -26.550489 42.998260  -0.855574 -0.369469 0.362610  0.031846 0.160461 1 0 1.000000
skin_0
0  -46.370396 -26.619308 42.778038  -0.915287 -0.394817 0.079806  0.031598 0.161255 1 0 1.000000
0  -46.342869 -26.550489 42.998260  -0.855574 -0.369469 0.362610  0.031846 0.160461 1 0 1.000000
0  -46.618145 -25.463146 43.122135  -0.951834 -0.091362 0.292686  0.035770 0.160014 1 0 1.000000
skin_0
0  -46.342869 -26.550489 42.998260  -0.855574 -0.369469 0.362610  0.031846 0.160461 1 0 1.000000
0  -46.370396 -26.619308 42.778038  -0.915287 -0.394817 0.079806  0.031598 0.161255 1 0 1.000000
0  -45.434456 -28.215916 42.654163  -0.766665 -0.640249 -0.048021  0.025836 0.161702 1 0 1.000000
skin_0
0  -45.324348 -28.174625 41.594345  -0.743368 -0.639461 -0.196197  0.025986 0.165527 1 0 1.000000
0  -45.434456 -28.215916 42.654163  -0.766665 -0.640249 -0.048021  0.025836 0.161702 1 0 1.000000
0  -46.370396 -26.619308 42.778038  -0.915287 -0.394817 0.079806  0.031598 0.161255 1 0 1.000000
skin_0
0  -45.434456 -28.215916 42.654163  -0.766665 -0.640249 -0.048021  0.025836 0.161702 1 0 1.000000
0  -45.324348 -28.174625 41.594345  -0.743368 -0.639461 -0.196197  0.025986 0.165527 1 0 1.000000
0  -43.672680 -29.523479 41.525524  -0.513066 -0.826438 -0.231867  0.021118 0.165775 1 0 1.000000
skin_0
0  -43.631390 -28.945396 40.162907  -0.483840 -0.758556 -0.436453  0.023204 0.170692 1 0 1.000000
0  -43.672680 -29.523479 41.525524  -0.513066 -0.826438 -0.231867  0.021118 0.165775 1 0 1.000000
0  -45.324348 -28.174625 41.594345  -0.743368 -0.639461 -0.196197  0.025986 0.165527 1 0 1.000000
skin_0
0  -45.090359 -27.885584 40.424419  -0.699894 -0.572035 -0.427698  0.027029 0.169748 1 0 1.000000
0  -44.443459 -27.802999 39.584827  -0.615841 -0.538263 -0.575337  0.027327 0.172778 1 0 1.000000
0  -44.154419 -28.105803 39.681171  -0.561897 -0.650757 -0.510673  0.026234 0.172431 1 0 1.000000
skin_0
0  -44.443459 -27.802999 39.584827  -0.615841 -0.538263 -0.575337  0.027327 0.172778 1 0 1.000000
0  -45.090359 -27.885584 40.424419  -0.699894 -0.572035 -0.427698  0.027029 0.169748 1 0 1.000000
0  -46.026299 -26.440378 40.575821  -0.844383 -0.349829 -0.405754  0.032244 0.169202 1 0 1.000000
skin_0
0  -46.274048 -26.578018 41.649399  -0.909574 -0.379535 -0.169201  0.031747 0.165328 1 0 1.000000
0  -46.026299 -26.440378 40.575821  -0.844383 -0.349829 -0.405754  0.032244 0.169202 1 0 1.000000
0  -45.090359 -27.885584 40.424419  -0.699894 -0.572035 -0.427698  0.027029 0.169748 1 0 1.000000
skin_0
0  -46.026299 -26.440378 40.575821  -0.844383 -0.349829 -0.405754  0.032244 0.169202 1 0 1.000000
0  -46.274048 -26.578018 41.649399  -0.909574 -0.379535 -0.169201  0.031747 0.165328 1 0 1.000000
0  -46.563091 -25.531965 41.718224  -0.983208 -0.105817 -0.148679  0.035522 0.165080 1 0 1.000000
skin_0
0  -46.645676 -25.490673 42.846855  -0.995559 -0.087349 0.035100  0.035671 0.161007 1 0 1.000000
0  -46.563091 -25.531965 41.718224  -0.983208 -0.105817 -0.148679  0.035522 0.165080 1 0 1.000000
0  -46.274048 -26.578018 41.649399  -0.909574 -0.379535 -0.169201  0.031747 0.165328 1 0 1.000000
skin_0
0  -46.026299 -26.440378 40.575821  -0.844383 -0.349829 -0.405754  0.032244 0.169202 1 0 1.000000
0  -45.489510 -26.330267 39.763752  -0.632097 -0.195240 -0.749890  0.032641 0.172133 1 0 1.000000
0  -44.443459 -27.802999 39.584827  -0.615841 -0.538263 -0.575337  0.027327 0.172778 1 0 1.000000
skin_0
0  -45.489510 -26.330267 39.763752  -0.632097 -0.195240 -0.749890  0.032641 0.172133 1 0 1.000000
0  -46.026299 -26.440378 40.575821  -0.844383 -0.349829 -0.405754  0.032244 0.169202 1 0 1.000000
0  -46.315342 -25.504435 40.672165  -0.898097 -0.060800 -0.435575  0.035621 0.168854 1 0 1.000000
skin_0
0  -46.563091 -25.531965 41.718224  -0.983208 -0.105817 -0.148679  0.035522 0.165080 1 0 1.000000
0  -46.315342 -25.504435 40.672165  -0.898097 -0.060800 -0.435575  0.035621 0.168854 1 0 1.000000
0  -46.026299 -26.440378 40.575821  -0.844383 -0.349829 -0.405754  0.032244 0.169202 1 0 1.000000
skin_0
0  -46.315342 -25.504435 40.672165  -0.898097 -0.060800 -0.435575  0.035621 0.168854 1 0 1.000000
0  -45.530807 -25.518200 39.763752  -0.574489 0.076223 -0.814955  0.035571 0.172133 1 0 1.000000
0  -45.489510 -26.330267 39.763752  -0.632097 -0.195240 -0.749890  0.032641 0.172133 1 0 1.000000
skin_0
0  -46.480511 -24.513439 43.287300  -0.936101 0.068916 0.344913  0.039197 0.159418 1 0 1.000000
0  -46.576855 -24.472149 42.874382  -0.994546 0.055262 0.088457  0.039346 0.160908 1 0 1.000000
0  -46.645676 -25.490673 42.846855  -0.995559 -0.087349 0.035100  0.035671 0.161007 1 0 1.000000
skin_0
0  -46.563091 -25.531965 41.718224  -0.983208 -0.105817 -0.148679  0.035522 0.165080 1 0 1.000000
0  -46.645676 -25.490673 42.846855  -0.995559 -0.087349 0.035100  0.035671 0.161007 1 0 1.000000
0  -46.576855 -24.472149 42.874382  -0.994546 0.055262 0.088457  0.039346 0.160908 1 0 1.000000
skin_0
0  -46.576855 -24.472149 42.874382  -0.994546 0.055262 0.088457  0.039346 0.160908 1 0 1.000000
0  -46.521801 -24.485912 41.745750  -0.987346 0.056472 -0.148184  0.039296 0.164980 1 0 1.000000
0  -46.563091 -25.531965 41.718224  -0.983208 -0.105817 -0.148679  0.035522 0.165080 1 0 1.000000
skin_0
0  -46.315342 -25.504435 40.672165  -0.898097 -0.060800 -0.435575  0.035621 0.168854 1 0 1.000000
0  -46.563091 -25.531965 41.718224  -0.983208 -0.105817 -0.148679  0.035522 0.165080 1 0 1.000000
0  -46.521801 -24.485912 41.745750  -0.987346 0.056472 -0.148184  0.039296 0.164980 1 0 1.000000
skin_0
0  -46.521801 -24.485912 41.745750  -0.987346 0.056472 -0.148184  0.039296 0.164980 1 0 1.000000
0  -46.246521 -24.540968 40.713459  -0.880117 0.112684 -0.461190  0.039098 0.168705 1 0 1.000000
0  -46.315342 -25.504435 40.672165  -0.898097 -0.060800 -0.435575  0.035621 0.168854 1 0 1.000000
skin_0
0  -45.530807 -25.518200 39.763752  -0.574489 0.076223 -0.814955  0.035571 0.172133 1 0 1.000000
0  -46.315342 -25.504435 40.672165  -0.898097 -0.060800 -0.435575  0.035621 0.168854 1 0 1.000000
0  -46.246521 -24.540968 40.713459  -0.880117 0.112684 -0.461190  0.039098 0.168705 1 0 1.000000
skin_0
0  -46.246521 -24.540968 40.713459  -0.880117 0.112684 -0.461190  0.039098 0.168705 1 0 1.000000
0  -45.338112 -24.885061 39.791279  -0.517137 0.194780 -0.833445  0.037856 0.172033 1 0 1.000000
0  -45.530807 -25.518200 39.763752  -0.574489 0.076223 -0.814955  0.035571 0.172133 1 0 1.000000
chrome
0  -45.296818 -24.912592 40.121613  0.284126 0.958786 -0.001596  0.005860 0.178686 1 0 1.000000
0  -45.957481 -24.719898 40.933681  0.257217 0.966328 -0.007075  0.005860 0.178686 1 0 1.000000
0  -46.384159 -24.596024 43.053314  0.267983 0.963411 -0.004947  0.005860 0.178686 1 0 1.000000
chrome
0  -38.924156 -27.156097 44.347118  0.345532 0.938051 0.025836  0.005860 0.178686 1 0 1.000000
0  -38.346073 -27.321264 42.750507  0.343276 0.938885 0.025623  0.004883 0.178686 1 0 1.000000
0  -38.965446 -27.018457 39.928921  0.348116 0.937105 0.025505  0.004883 0.178686 1 0 1.000000
chrome
0  -38.924156 -27.156097 44.347118  0.345532 0.938051 0.025836  0.005860 0.178686 1 0 1.000000
0  -38.965446 -27.018457 39.928921  0.348116 0.937105 0.025505  0.004883 0.178686 1 0 1.000000
0  -39.970207 -26.633068 39.392132  0.336170 0.941636 0.017657  0.005860 0.178686 1 0 1.000000
chrome
0  -38.924156 -27.156097 44.347118  0.345532 0.938051 0.025836  0.005860 0.178686 1 0 1.000000
0  -39.970207 -26.633068 39.392132  0.336170 0.941636 0.017657  0.005860 0.178686 1 0 1.000000
0  -43.507519 -25.463144 44.443462  0.316565 0.948524 0.009425  0.005860 0.178686 1 0 1.000000
chrome
0  -39.970207 -26.633068 39.392132  0.336170 0.941636 0.017657  0.005860 0.178686 1 0 1.000000
0  -43.769035 -25.366796 39.529770  0.304937 0.952372 0.000830  0.005860 0.178686 1 0 1.000000
0  -43.507519 -25.463144 44.443462  0.316565 0.948524 0.009425  0.005860 0.178686 1 0 1.000000
chrome
0  -43.769035 -25.366796 39.529770  0.304937 0.952372 0.000830  0.005860 0.178686 1 0 1.000000
0  -45.695969 -24.788717 44.030548  0.286359 0.958120 -0.001981  0.005860 0.178686 1 0 1.000000
0  -43.507519 -25.463144 44.443462  0.316565 0.948524 0.009425  0.005860 0.178686 1 0 1.000000
chrome
0  -43.769035 -25.366796 39.529770  0.304937 0.952372 0.000830  0.005860 0.178686 1 0 1.000000
0  -45.296818 -24.912592 40.121613  0.284126 0.958786 -0.001596  0.005860 0.178686 1 0 1.000000
0  -45.695969 -24.788717 44.030548  0.286359 0.958120 -0.001981  0.005860 0.178686 1 0 1.000000
chrome
0  -45.296818 -24.912592 40.121613  0.284126 0.958786 -0.001596  0.005860 0.178686 1 0 1.000000
0  -46.384159 -24.596024 43.053314  0.267983 0.963411 -0.004947  0.005860 0.178686 1 0 1.000000
0  -45.695969 -24.788717 44.030548  0.286359 0.958120 -0.001981  0.005860 0.178686 1 0 1.000000
chrome
0  -46.384159 -24.596024 43.053314  0.267983 0.963411 -0.004947  0.005860 0.178686 1 0 1.000000
0  -46.163940 -24.651079 43.713978  0.282073 0.959274 -0.015111  0.005860 0.178686 1 0 1.000000
0  -45.695969 -24.788717 44.030548  0.286359 0.958120 -0.001981  0.005860 0.178686 1 0 1.000000
end
