version 1
nodes
0 "root" -1
1 "steering_wheel" 0
end
skeleton
time 0
0  0.000000 0.000000 0.000000  0.000000 -0.000000 -1.570797
1  19.916300 17.934299 33.308498  0.000000 -0.000000 0.000000
end
triangles
  phy
0  -46.346275 -26.548292 42.995960  0.879366 -0.395196 -0.265585  0.000000 0.000000 1 0 1.000000
0  -46.277493 -26.575829 41.646973  0.907434 -0.400210 0.128045  0.000000 0.000000 1 0 1.000000
0  -45.437897 -28.213764 42.844551  0.737598 -0.636442 -0.225590  0.000000 0.000000 1 0 1.000000
  phy
0  -46.277493 -26.575829 41.646973  0.907434 -0.400210 0.128045  0.000000 0.000000 1 0 1.000000
0  -45.327724 -28.172491 41.592106  0.734491 -0.654063 0.180900  0.000000 0.000000 1 0 1.000000
0  -45.437897 -28.213764 42.844551  0.737598 -0.636442 -0.225590  0.000000 0.000000 1 0 1.000000
  phy
0  -45.327724 -28.172491 41.592106  0.734491 -0.654063 0.180900  0.000000 0.000000 1 0 1.000000
0  -46.277493 -26.575829 41.646973  0.907434 -0.400210 0.128045  0.000000 0.000000 1 0 1.000000
0  -46.029568 -26.438211 40.573528  0.788002 -0.367198 0.494185  0.000000 0.000000 1 0 1.000000
  phy
0  -46.318665 -25.502390 40.670055  0.900427 -0.091213 0.425337  0.000000 0.000000 1 0 1.000000
0  -46.277493 -26.575829 41.646973  0.907434 -0.400210 0.128045  0.000000 0.000000 1 0 1.000000
0  -46.566368 -25.529753 41.715893  0.988470 -0.003516 0.151377  0.000000 0.000000 1 0 1.000000
  phy
0  -46.277493 -26.575829 41.646973  0.907434 -0.400210 0.128045  0.000000 0.000000 1 0 1.000000
0  -46.318665 -25.502390 40.670055  0.900427 -0.091213 0.425337  0.000000 0.000000 1 0 1.000000
0  -46.029568 -26.438211 40.573528  0.788002 -0.367198 0.494185  0.000000 0.000000 1 0 1.000000
  phy
0  -46.277493 -26.575829 41.646973  0.907434 -0.400210 0.128045  0.000000 0.000000 1 0 1.000000
0  -46.346275 -26.548292 42.995960  0.879366 -0.395196 -0.265585  0.000000 0.000000 1 0 1.000000
0  -46.648930 -25.488508 42.844528  0.986477 -0.126541 -0.104165  0.000000 0.000000 1 0 1.000000
  phy
0  -46.566368 -25.529753 41.715893  0.988470 -0.003516 0.151377  0.000000 0.000000 1 0 1.000000
0  -46.277493 -26.575829 41.646973  0.907434 -0.400210 0.128045  0.000000 0.000000 1 0 1.000000
0  -46.648930 -25.488508 42.844528  0.986477 -0.126541 -0.104165  0.000000 0.000000 1 0 1.000000
  phy
0  -44.859844 -26.328159 44.344917  0.291244 -0.111992 -0.950071  0.000000 0.000000 1 0 1.000000
0  -46.277424 -25.268206 43.808022  0.683282 0.019826 -0.729885  0.000000 0.000000 1 0 1.000000
0  -45.933403 -26.355684 43.752968  0.613775 -0.308567 -0.726682  0.000000 0.000000 1 0 1.000000
  phy
0  -45.933403 -26.355684 43.752968  0.613775 -0.308567 -0.726682  0.000000 0.000000 1 0 1.000000
0  -45.258911 -27.552933 43.698063  0.471054 -0.441189 -0.763846  0.000000 0.000000 1 0 1.000000
0  -44.859844 -26.328159 44.344917  0.291244 -0.111992 -0.950071  0.000000 0.000000 1 0 1.000000
  phy
0  -46.346275 -26.548292 42.995960  0.879366 -0.395196 -0.265585  0.000000 0.000000 1 0 1.000000
0  -45.933403 -26.355684 43.752968  0.613775 -0.308567 -0.726682  0.000000 0.000000 1 0 1.000000
0  -46.277424 -25.268206 43.808022  0.683282 0.019826 -0.729885  0.000000 0.000000 1 0 1.000000
  phy
0  -45.933403 -26.355684 43.752968  0.613775 -0.308567 -0.726682  0.000000 0.000000 1 0 1.000000
0  -46.346275 -26.548292 42.995960  0.879366 -0.395196 -0.265585  0.000000 0.000000 1 0 1.000000
0  -45.258911 -27.552933 43.698063  0.471054 -0.441189 -0.763846  0.000000 0.000000 1 0 1.000000
  phy
0  -44.446758 -27.800917 39.582596  0.570770 -0.446993 0.688780  0.000000 0.000000 1 0 1.000000
0  -43.634804 -28.943531 40.160873  0.515195 -0.741340 0.430104  0.000000 0.000000 1 0 1.000000
0  -45.093704 -27.883438 40.422218  0.668697 -0.633782 0.388800  0.000000 0.000000 1 0 1.000000
  phy
0  -44.446758 -27.800917 39.582596  0.570770 -0.446993 0.688780  0.000000 0.000000 1 0 1.000000
0  -42.753746 -28.805737 39.128445  0.367465 -0.544890 0.753701  0.000000 0.000000 1 0 1.000000
0  -43.634804 -28.943531 40.160873  0.515195 -0.741340 0.430104  0.000000 0.000000 1 0 1.000000
  phy
0  -44.446758 -27.800917 39.582596  0.570770 -0.446993 0.688780  0.000000 0.000000 1 0 1.000000
0  -44.735733 -26.809855 39.431175  0.493721 -0.162216 0.854357  0.000000 0.000000 1 0 1.000000
0  -42.877827 -27.952394 38.894562  0.173855 -0.117773 0.977704  0.000000 0.000000 1 0 1.000000
  phy
0  -44.446758 -27.800917 39.582596  0.570770 -0.446993 0.688780  0.000000 0.000000 1 0 1.000000
0  -42.877827 -27.952394 38.894562  0.173855 -0.117773 0.977704  0.000000 0.000000 1 0 1.000000
0  -42.753746 -28.805737 39.128445  0.367465 -0.544890 0.753701  0.000000 0.000000 1 0 1.000000
  phy
0  -44.446758 -27.800917 39.582596  0.570770 -0.446993 0.688780  0.000000 0.000000 1 0 1.000000
0  -45.093704 -27.883438 40.422218  0.668697 -0.633782 0.388800  0.000000 0.000000 1 0 1.000000
0  -46.029568 -26.438211 40.573528  0.788002 -0.367198 0.494185  0.000000 0.000000 1 0 1.000000
  phy
0  -44.735733 -26.809855 39.431175  0.493721 -0.162216 0.854357  0.000000 0.000000 1 0 1.000000
0  -44.446758 -27.800917 39.582596  0.570770 -0.446993 0.688780  0.000000 0.000000 1 0 1.000000
0  -46.029568 -26.438211 40.573528  0.788002 -0.367198 0.494185  0.000000 0.000000 1 0 1.000000
  phy
0  -43.676155 -29.521404 41.523064  0.464355 -0.841111 0.277321  0.000000 0.000000 1 0 1.000000
0  -43.686771 -29.638849 42.722839  0.520324 -0.830186 -0.200135  0.000000 0.000000 1 0 1.000000
0  -45.327724 -28.172491 41.592106  0.734491 -0.654063 0.180900  0.000000 0.000000 1 0 1.000000
  phy
0  -43.686771 -29.638849 42.722839  0.520324 -0.830186 -0.200135  0.000000 0.000000 1 0 1.000000
0  -45.437897 -28.213764 42.844551  0.737598 -0.636442 -0.225590  0.000000 0.000000 1 0 1.000000
0  -45.327724 -28.172491 41.592106  0.734491 -0.654063 0.180900  0.000000 0.000000 1 0 1.000000
  phy
0  -45.093704 -27.883438 40.422218  0.668697 -0.633782 0.388800  0.000000 0.000000 1 0 1.000000
0  -43.676155 -29.521404 41.523064  0.464355 -0.841111 0.277321  0.000000 0.000000 1 0 1.000000
0  -45.327724 -28.172491 41.592106  0.734491 -0.654063 0.180900  0.000000 0.000000 1 0 1.000000
  phy
0  -45.093704 -27.883438 40.422218  0.668697 -0.633782 0.388800  0.000000 0.000000 1 0 1.000000
0  -45.327724 -28.172491 41.592106  0.734491 -0.654063 0.180900  0.000000 0.000000 1 0 1.000000
0  -46.029568 -26.438211 40.573528  0.788002 -0.367198 0.494185  0.000000 0.000000 1 0 1.000000
  phy
0  -46.318665 -25.502390 40.670055  0.900427 -0.091213 0.425337  0.000000 0.000000 1 0 1.000000
0  -46.566368 -25.529753 41.715893  0.988470 -0.003516 0.151377  0.000000 0.000000 1 0 1.000000
0  -46.235939 -24.291103 40.724934  0.829449 0.391038 0.398877  0.000000 0.000000 1 0 1.000000
  phy
0  -45.533993 -25.516052 39.761486  0.626682 -0.015909 0.779112  0.000000 0.000000 1 0 1.000000
0  -46.318665 -25.502390 40.670055  0.900427 -0.091213 0.425337  0.000000 0.000000 1 0 1.000000
0  -46.235939 -24.291103 40.724934  0.829449 0.391038 0.398877  0.000000 0.000000 1 0 1.000000
  phy
0  -46.318665 -25.502390 40.670055  0.900427 -0.091213 0.425337  0.000000 0.000000 1 0 1.000000
0  -45.533993 -25.516052 39.761486  0.626682 -0.015909 0.779112  0.000000 0.000000 1 0 1.000000
0  -46.029568 -26.438211 40.573528  0.788002 -0.367198 0.494185  0.000000 0.000000 1 0 1.000000
  phy
0  -46.648930 -25.488508 42.844528  0.986477 -0.126541 -0.104165  0.000000 0.000000 1 0 1.000000
0  -46.346275 -26.548292 42.995960  0.879366 -0.395196 -0.265585  0.000000 0.000000 1 0 1.000000
0  -46.277424 -25.268206 43.808022  0.683282 0.019826 -0.729885  0.000000 0.000000 1 0 1.000000
  phy
0  -46.346275 -26.548292 42.995960  0.879366 -0.395196 -0.265585  0.000000 0.000000 1 0 1.000000
0  -45.437897 -28.213764 42.844551  0.737598 -0.636442 -0.225590  0.000000 0.000000 1 0 1.000000
0  -45.258911 -27.552933 43.698063  0.471054 -0.441189 -0.763846  0.000000 0.000000 1 0 1.000000
  phy
0  -43.634804 -28.943531 40.160873  0.515195 -0.741340 0.430104  0.000000 0.000000 1 0 1.000000
0  -43.676155 -29.521404 41.523064  0.464355 -0.841111 0.277321  0.000000 0.000000 1 0 1.000000
0  -45.093704 -27.883438 40.422218  0.668697 -0.633782 0.388800  0.000000 0.000000 1 0 1.000000
  phy
0  -46.566368 -25.529753 41.715893  0.988470 -0.003516 0.151377  0.000000 0.000000 1 0 1.000000
0  -46.648930 -25.488508 42.844528  0.986477 -0.126541 -0.104165  0.000000 0.000000 1 0 1.000000
0  -46.566372 -24.222094 42.872055  0.489768 0.864129 -0.115793  0.000000 0.000000 1 0 1.000000
  phy
0  -46.235939 -24.291103 40.724934  0.829449 0.391038 0.398877  0.000000 0.000000 1 0 1.000000
0  -46.566368 -25.529753 41.715893  0.988470 -0.003516 0.151377  0.000000 0.000000 1 0 1.000000
0  -46.566372 -24.222094 42.872055  0.489768 0.864129 -0.115793  0.000000 0.000000 1 0 1.000000
  phy
0  -45.533993 -25.516052 39.761486  0.626682 -0.015909 0.779112  0.000000 0.000000 1 0 1.000000
0  -46.235939 -24.291103 40.724934  0.829449 0.391038 0.398877  0.000000 0.000000 1 0 1.000000
0  -45.286198 -24.538818 39.802788  -0.185093 0.946555 0.264149  0.000000 0.000000 1 0 1.000000
  phy
0  -45.533993 -25.516052 39.761486  0.626682 -0.015909 0.779112  0.000000 0.000000 1 0 1.000000
0  -44.735733 -26.809855 39.431175  0.493721 -0.162216 0.854357  0.000000 0.000000 1 0 1.000000
0  -46.029568 -26.438211 40.573528  0.788002 -0.367198 0.494185  0.000000 0.000000 1 0 1.000000
  phy
0  -44.735733 -26.809855 39.431175  0.493721 -0.162216 0.854357  0.000000 0.000000 1 0 1.000000
0  -45.533993 -25.516052 39.761486  0.626682 -0.015909 0.779112  0.000000 0.000000 1 0 1.000000
0  -44.501667 -25.653715 39.348618  0.235647 0.091935 0.967480  0.000000 0.000000 1 0 1.000000
  phy
0  -45.533993 -25.516052 39.761486  0.626682 -0.015909 0.779112  0.000000 0.000000 1 0 1.000000
0  -45.286198 -24.538818 39.802788  -0.185093 0.946555 0.264149  0.000000 0.000000 1 0 1.000000
0  -44.501667 -25.653715 39.348618  0.235647 0.091935 0.967480  0.000000 0.000000 1 0 1.000000
  phy
0  -43.483627 -29.122171 43.615444  0.324821 -0.548941 -0.770166  0.000000 0.000000 1 0 1.000000
0  -45.258911 -27.552933 43.698063  0.471054 -0.441189 -0.763846  0.000000 0.000000 1 0 1.000000
0  -45.437897 -28.213764 42.844551  0.737598 -0.636442 -0.225590  0.000000 0.000000 1 0 1.000000
  phy
0  -45.437897 -28.213764 42.844551  0.737598 -0.636442 -0.225590  0.000000 0.000000 1 0 1.000000
0  -43.686771 -29.638849 42.722839  0.520324 -0.830186 -0.200135  0.000000 0.000000 1 0 1.000000
0  -43.483627 -29.122171 43.615444  0.324821 -0.548941 -0.770166  0.000000 0.000000 1 0 1.000000
  phy
0  -46.648930 -25.488508 42.844528  0.986477 -0.126541 -0.104165  0.000000 0.000000 1 0 1.000000
0  -46.277424 -25.268206 43.808022  0.683282 0.019826 -0.729885  0.000000 0.000000 1 0 1.000000
0  -46.566372 -24.222094 42.872055  0.489768 0.864129 -0.115793  0.000000 0.000000 1 0 1.000000
  phy
0  -45.286198 -24.538818 39.802788  -0.185093 0.946555 0.264149  0.000000 0.000000 1 0 1.000000
0  -46.235939 -24.291103 40.724934  0.829449 0.391038 0.398877  0.000000 0.000000 1 0 1.000000
0  -46.566372 -24.222094 42.872055  0.489768 0.864129 -0.115793  0.000000 0.000000 1 0 1.000000
  phy
0  -42.877827 -27.952394 38.894562  0.173855 -0.117773 0.977704  0.000000 0.000000 1 0 1.000000
0  -44.735733 -26.809855 39.431175  0.493721 -0.162216 0.854357  0.000000 0.000000 1 0 1.000000
0  -44.501667 -25.653715 39.348618  0.235647 0.091935 0.967480  0.000000 0.000000 1 0 1.000000
  phy
0  -41.721546 -29.686703 39.541473  0.400008 -0.818433 0.412505  0.000000 0.000000 1 0 1.000000
0  -43.676155 -29.521404 41.523064  0.464355 -0.841111 0.277321  0.000000 0.000000 1 0 1.000000
0  -43.634804 -28.943531 40.160873  0.515195 -0.741340 0.430104  0.000000 0.000000 1 0 1.000000
  phy
0  -43.634804 -28.943531 40.160873  0.515195 -0.741340 0.430104  0.000000 0.000000 1 0 1.000000
0  -42.753746 -28.805737 39.128445  0.367465 -0.544890 0.753701  0.000000 0.000000 1 0 1.000000
0  -41.721546 -29.686703 39.541473  0.400008 -0.818433 0.412505  0.000000 0.000000 1 0 1.000000
  phy
0  -41.694256 -30.608870 42.486904  0.302416 -0.947769 -0.101388  0.000000 0.000000 1 0 1.000000
0  -36.408852 -32.178162 39.569263  -0.267084 -0.962981 -0.036523  0.000000 0.000000 1 0 1.000000
0  -39.340630 -30.994354 42.569595  0.065498 -0.914640 -0.398928  0.000000 0.000000 1 0 1.000000
  phy
0  -39.340630 -30.994354 42.569595  0.065498 -0.914640 -0.398928  0.000000 0.000000 1 0 1.000000
0  -36.408852 -32.178162 39.569263  -0.267084 -0.962981 -0.036523  0.000000 0.000000 1 0 1.000000
0  -39.189281 -30.416311 43.340370  -0.166567 -0.630765 -0.757886  0.000000 0.000000 1 0 1.000000
  phy
0  -39.340630 -30.994354 42.569595  0.065498 -0.914640 -0.398928  0.000000 0.000000 1 0 1.000000
0  -41.542820 -30.099598 43.491711  0.171696 -0.689177 -0.703957  0.000000 0.000000 1 0 1.000000
0  -41.694256 -30.608870 42.486904  0.302416 -0.947769 -0.101388  0.000000 0.000000 1 0 1.000000
  phy
0  -39.189281 -30.416311 43.340370  -0.166567 -0.630765 -0.757886  0.000000 0.000000 1 0 1.000000
0  -41.542820 -30.099598 43.491711  0.171696 -0.689177 -0.703957  0.000000 0.000000 1 0 1.000000
0  -39.340630 -30.994354 42.569595  0.065498 -0.914640 -0.398928  0.000000 0.000000 1 0 1.000000
  phy
0  -41.694256 -30.608870 42.486904  0.302416 -0.947769 -0.101388  0.000000 0.000000 1 0 1.000000
0  -43.676155 -29.521404 41.523064  0.464355 -0.841111 0.277321  0.000000 0.000000 1 0 1.000000
0  -41.694111 -30.402403 41.427330  0.386203 -0.896448 0.217321  0.000000 0.000000 1 0 1.000000
  phy
0  -41.694111 -30.402403 41.427330  0.386203 -0.896448 0.217321  0.000000 0.000000 1 0 1.000000
0  -36.408852 -32.178162 39.569263  -0.267084 -0.962981 -0.036523  0.000000 0.000000 1 0 1.000000
0  -41.694256 -30.608870 42.486904  0.302416 -0.947769 -0.101388  0.000000 0.000000 1 0 1.000000
  phy
0  -43.676155 -29.521404 41.523064  0.464355 -0.841111 0.277321  0.000000 0.000000 1 0 1.000000
0  -36.408852 -32.178162 39.569263  -0.267084 -0.962981 -0.036523  0.000000 0.000000 1 0 1.000000
0  -41.694111 -30.402403 41.427330  0.386203 -0.896448 0.217321  0.000000 0.000000 1 0 1.000000
  phy
0  -45.451473 -24.538729 44.014549  -0.224275 0.965830 -0.129894  0.000000 0.000000 1 0 1.000000
0  -46.277424 -25.268206 43.808022  0.683282 0.019826 -0.729885  0.000000 0.000000 1 0 1.000000
0  -44.859844 -26.328159 44.344917  0.291244 -0.111992 -0.950071  0.000000 0.000000 1 0 1.000000
  phy
0  -44.859844 -26.328159 44.344917  0.291244 -0.111992 -0.950071  0.000000 0.000000 1 0 1.000000
0  -42.244652 -25.461119 44.978146  0.031294 0.076834 -0.996553  0.000000 0.000000 1 0 1.000000
0  -45.451473 -24.538729 44.014549  -0.224275 0.965830 -0.129894  0.000000 0.000000 1 0 1.000000
  phy
0  -42.987984 -27.649557 44.482605  0.203707 -0.299231 -0.932183  0.000000 0.000000 1 0 1.000000
0  -42.244652 -25.461119 44.978146  0.031294 0.076834 -0.996553  0.000000 0.000000 1 0 1.000000
0  -44.859844 -26.328159 44.344917  0.291244 -0.111992 -0.950071  0.000000 0.000000 1 0 1.000000
  phy
0  -44.859844 -26.328159 44.344917  0.291244 -0.111992 -0.950071  0.000000 0.000000 1 0 1.000000
0  -45.258911 -27.552933 43.698063  0.471054 -0.441189 -0.763846  0.000000 0.000000 1 0 1.000000
0  -42.987984 -27.649557 44.482605  0.203707 -0.299231 -0.932183  0.000000 0.000000 1 0 1.000000
  phy
0  -45.451473 -24.538729 44.014549  -0.224275 0.965830 -0.129894  0.000000 0.000000 1 0 1.000000
0  -40.482700 -25.887869 39.156124  -0.268782 0.957304 0.106419  0.000000 0.000000 1 0 1.000000
0  -45.286198 -24.538818 39.802788  -0.185093 0.946555 0.264149  0.000000 0.000000 1 0 1.000000
  phy
0  -40.482700 -25.887869 39.156124  -0.268782 0.957304 0.106419  0.000000 0.000000 1 0 1.000000
0  -45.451473 -24.538729 44.014549  -0.224275 0.965830 -0.129894  0.000000 0.000000 1 0 1.000000
0  -38.721615 -26.448439 44.594112  -0.333993 0.883369 -0.328797  0.000000 0.000000 1 0 1.000000
  phy
0  -45.451473 -24.538729 44.014549  -0.224275 0.965830 -0.129894  0.000000 0.000000 1 0 1.000000
0  -42.244652 -25.461119 44.978146  0.031294 0.076834 -0.996553  0.000000 0.000000 1 0 1.000000
0  -38.721615 -26.448439 44.594112  -0.333993 0.883369 -0.328797  0.000000 0.000000 1 0 1.000000
  phy
0  -45.451473 -24.538729 44.014549  -0.224275 0.965830 -0.129894  0.000000 0.000000 1 0 1.000000
0  -45.286198 -24.538818 39.802788  -0.185093 0.946555 0.264149  0.000000 0.000000 1 0 1.000000
0  -46.566372 -24.222094 42.872055  0.489768 0.864129 -0.115793  0.000000 0.000000 1 0 1.000000
  phy
0  -45.451473 -24.538729 44.014549  -0.224275 0.965830 -0.129894  0.000000 0.000000 1 0 1.000000
0  -46.566372 -24.222094 42.872055  0.489768 0.864129 -0.115793  0.000000 0.000000 1 0 1.000000
0  -46.277424 -25.268206 43.808022  0.683282 0.019826 -0.729885  0.000000 0.000000 1 0 1.000000
  phy
0  -43.483627 -29.122171 43.615444  0.324821 -0.548941 -0.770166  0.000000 0.000000 1 0 1.000000
0  -40.991631 -28.516592 44.455284  0.003857 -0.314193 -0.949351  0.000000 0.000000 1 0 1.000000
0  -42.987984 -27.649557 44.482605  0.203707 -0.299231 -0.932183  0.000000 0.000000 1 0 1.000000
  phy
0  -41.542820 -30.099598 43.491711  0.171696 -0.689177 -0.703957  0.000000 0.000000 1 0 1.000000
0  -40.991631 -28.516592 44.455284  0.003857 -0.314193 -0.949351  0.000000 0.000000 1 0 1.000000
0  -43.483627 -29.122171 43.615444  0.324821 -0.548941 -0.770166  0.000000 0.000000 1 0 1.000000
  phy
0  -43.483627 -29.122171 43.615444  0.324821 -0.548941 -0.770166  0.000000 0.000000 1 0 1.000000
0  -43.686771 -29.638849 42.722839  0.520324 -0.830186 -0.200135  0.000000 0.000000 1 0 1.000000
0  -41.542820 -30.099598 43.491711  0.171696 -0.689177 -0.703957  0.000000 0.000000 1 0 1.000000
  phy
0  -42.987984 -27.649557 44.482605  0.203707 -0.299231 -0.932183  0.000000 0.000000 1 0 1.000000
0  -45.258911 -27.552933 43.698063  0.471054 -0.441189 -0.763846  0.000000 0.000000 1 0 1.000000
0  -43.483627 -29.122171 43.615444  0.324821 -0.548941 -0.770166  0.000000 0.000000 1 0 1.000000
  phy
0  -41.226181 -26.507153 38.605534  0.078750 0.253950 0.964006  0.000000 0.000000 1 0 1.000000
0  -40.482700 -25.887869 39.156124  -0.268782 0.957304 0.106419  0.000000 0.000000 1 0 1.000000
0  -37.385811 -27.718649 38.192814  -0.109590 0.152576 0.982197  0.000000 0.000000 1 0 1.000000
  phy
0  -40.482700 -25.887869 39.156124  -0.268782 0.957304 0.106419  0.000000 0.000000 1 0 1.000000
0  -41.226181 -26.507153 38.605534  0.078750 0.253950 0.964006  0.000000 0.000000 1 0 1.000000
0  -45.286198 -24.538818 39.802788  -0.185093 0.946555 0.264149  0.000000 0.000000 1 0 1.000000
  phy
0  -45.286198 -24.538818 39.802788  -0.185093 0.946555 0.264149  0.000000 0.000000 1 0 1.000000
0  -41.226181 -26.507153 38.605534  0.078750 0.253950 0.964006  0.000000 0.000000 1 0 1.000000
0  -44.501667 -25.653715 39.348618  0.235647 0.091935 0.967480  0.000000 0.000000 1 0 1.000000
  phy
0  -42.877827 -27.952394 38.894562  0.173855 -0.117773 0.977704  0.000000 0.000000 1 0 1.000000
0  -41.226181 -26.507153 38.605534  0.078750 0.253950 0.964006  0.000000 0.000000 1 0 1.000000
0  -37.385811 -27.718649 38.192814  -0.109590 0.152576 0.982197  0.000000 0.000000 1 0 1.000000
  phy
0  -41.226181 -26.507153 38.605534  0.078750 0.253950 0.964006  0.000000 0.000000 1 0 1.000000
0  -42.877827 -27.952394 38.894562  0.173855 -0.117773 0.977704  0.000000 0.000000 1 0 1.000000
0  -44.501667 -25.653715 39.348618  0.235647 0.091935 0.967480  0.000000 0.000000 1 0 1.000000
  phy
0  -41.721546 -29.686703 39.541473  0.400008 -0.818433 0.412505  0.000000 0.000000 1 0 1.000000
0  -42.753746 -28.805737 39.128445  0.367465 -0.544890 0.753701  0.000000 0.000000 1 0 1.000000
0  -36.931900 -31.407341 38.647038  -0.017517 -0.318623 0.947720  0.000000 0.000000 1 0 1.000000
  phy
0  -36.931900 -31.407341 38.647038  -0.017517 -0.318623 0.947720  0.000000 0.000000 1 0 1.000000
0  -36.408852 -32.178162 39.569263  -0.267084 -0.962981 -0.036523  0.000000 0.000000 1 0 1.000000
0  -41.721546 -29.686703 39.541473  0.400008 -0.818433 0.412505  0.000000 0.000000 1 0 1.000000
  phy
0  -41.721546 -29.686703 39.541473  0.400008 -0.818433 0.412505  0.000000 0.000000 1 0 1.000000
0  -36.408852 -32.178162 39.569263  -0.267084 -0.962981 -0.036523  0.000000 0.000000 1 0 1.000000
0  -43.676155 -29.521404 41.523064  0.464355 -0.841111 0.277321  0.000000 0.000000 1 0 1.000000
  phy
0  -38.005394 -26.645041 43.767109  -0.824754 0.500838 -0.262570  0.000000 0.000000 1 0 1.000000
0  -38.872364 -26.355957 39.816833  -0.403314 0.909750 0.098452  0.000000 0.000000 1 0 1.000000
0  -38.721615 -26.448439 44.594112  -0.333993 0.883369 -0.328797  0.000000 0.000000 1 0 1.000000
  phy
0  -38.721615 -26.448439 44.594112  -0.333993 0.883369 -0.328797  0.000000 0.000000 1 0 1.000000
0  -38.872364 -26.355957 39.816833  -0.403314 0.909750 0.098452  0.000000 0.000000 1 0 1.000000
0  -40.482700 -25.887869 39.156124  -0.268782 0.957304 0.106419  0.000000 0.000000 1 0 1.000000
  phy
0  -40.482700 -25.887869 39.156124  -0.268782 0.957304 0.106419  0.000000 0.000000 1 0 1.000000
0  -38.872364 -26.355957 39.816833  -0.403314 0.909750 0.098452  0.000000 0.000000 1 0 1.000000
0  -37.385811 -27.718649 38.192814  -0.109590 0.152576 0.982197  0.000000 0.000000 1 0 1.000000
  phy
0  -38.101860 -28.984896 43.423038  -0.799890 -0.208906 -0.562613  0.000000 0.000000 1 0 1.000000
0  -38.005394 -26.645041 43.767109  -0.824754 0.500838 -0.262570  0.000000 0.000000 1 0 1.000000
0  -38.459743 -28.792305 43.890976  -0.627942 -0.204886 -0.750806  0.000000 0.000000 1 0 1.000000
  phy
0  -38.005394 -26.645041 43.767109  -0.824754 0.500838 -0.262570  0.000000 0.000000 1 0 1.000000
0  -38.721615 -26.448439 44.594112  -0.333993 0.883369 -0.328797  0.000000 0.000000 1 0 1.000000
0  -38.459743 -28.792305 43.890976  -0.627942 -0.204886 -0.750806  0.000000 0.000000 1 0 1.000000
  phy
0  -38.459743 -28.792305 43.890976  -0.627942 -0.204886 -0.750806  0.000000 0.000000 1 0 1.000000
0  -38.721615 -26.448439 44.594112  -0.333993 0.883369 -0.328797  0.000000 0.000000 1 0 1.000000
0  -38.982777 -28.861032 44.069878  -0.183360 -0.324139 -0.928069  0.000000 0.000000 1 0 1.000000
  phy
0  -38.459743 -28.792305 43.890976  -0.627942 -0.204886 -0.750806  0.000000 0.000000 1 0 1.000000
0  -38.501064 -29.962099 43.326679  -0.564852 -0.479045 -0.671906  0.000000 0.000000 1 0 1.000000
0  -38.101860 -28.984896 43.423038  -0.799890 -0.208906 -0.562613  0.000000 0.000000 1 0 1.000000
  phy
0  -38.982777 -28.861032 44.069878  -0.183360 -0.324139 -0.928069  0.000000 0.000000 1 0 1.000000
0  -38.501064 -29.962099 43.326679  -0.564852 -0.479045 -0.671906  0.000000 0.000000 1 0 1.000000
0  -38.459743 -28.792305 43.890976  -0.627942 -0.204886 -0.750806  0.000000 0.000000 1 0 1.000000
  phy
0  -41.694256 -30.608870 42.486904  0.302416 -0.947769 -0.101388  0.000000 0.000000 1 0 1.000000
0  -43.686771 -29.638849 42.722839  0.520324 -0.830186 -0.200135  0.000000 0.000000 1 0 1.000000
0  -43.676155 -29.521404 41.523064  0.464355 -0.841111 0.277321  0.000000 0.000000 1 0 1.000000
  phy
0  -41.542820 -30.099598 43.491711  0.171696 -0.689177 -0.703957  0.000000 0.000000 1 0 1.000000
0  -43.686771 -29.638849 42.722839  0.520324 -0.830186 -0.200135  0.000000 0.000000 1 0 1.000000
0  -41.694256 -30.608870 42.486904  0.302416 -0.947769 -0.101388  0.000000 0.000000 1 0 1.000000
  phy
0  -39.189281 -30.416311 43.340370  -0.166567 -0.630765 -0.757886  0.000000 0.000000 1 0 1.000000
0  -36.408852 -32.178162 39.569263  -0.267084 -0.962981 -0.036523  0.000000 0.000000 1 0 1.000000
0  -38.501064 -29.962099 43.326679  -0.564852 -0.479045 -0.671906  0.000000 0.000000 1 0 1.000000
  phy
0  -39.189281 -30.416311 43.340370  -0.166567 -0.630765 -0.757886  0.000000 0.000000 1 0 1.000000
0  -38.501064 -29.962099 43.326679  -0.564852 -0.479045 -0.671906  0.000000 0.000000 1 0 1.000000
0  -38.982777 -28.861032 44.069878  -0.183360 -0.324139 -0.928069  0.000000 0.000000 1 0 1.000000
  phy
0  -39.189281 -30.416311 43.340370  -0.166567 -0.630765 -0.757886  0.000000 0.000000 1 0 1.000000
0  -40.991631 -28.516592 44.455284  0.003857 -0.314193 -0.949351  0.000000 0.000000 1 0 1.000000
0  -41.542820 -30.099598 43.491711  0.171696 -0.689177 -0.703957  0.000000 0.000000 1 0 1.000000
  phy
0  -38.982777 -28.861032 44.069878  -0.183360 -0.324139 -0.928069  0.000000 0.000000 1 0 1.000000
0  -40.991631 -28.516592 44.455284  0.003857 -0.314193 -0.949351  0.000000 0.000000 1 0 1.000000
0  -39.189281 -30.416311 43.340370  -0.166567 -0.630765 -0.757886  0.000000 0.000000 1 0 1.000000
  phy
0  -42.987984 -27.649557 44.482605  0.203707 -0.299231 -0.932183  0.000000 0.000000 1 0 1.000000
0  -40.991631 -28.516592 44.455284  0.003857 -0.314193 -0.949351  0.000000 0.000000 1 0 1.000000
0  -42.244652 -25.461119 44.978146  0.031294 0.076834 -0.996553  0.000000 0.000000 1 0 1.000000
  phy
0  -42.877827 -27.952394 38.894562  0.173855 -0.117773 0.977704  0.000000 0.000000 1 0 1.000000
0  -36.931900 -31.407341 38.647038  -0.017517 -0.318623 0.947720  0.000000 0.000000 1 0 1.000000
0  -42.753746 -28.805737 39.128445  0.367465 -0.544890 0.753701  0.000000 0.000000 1 0 1.000000
  phy
0  -36.931900 -31.407341 38.647038  -0.017517 -0.318623 0.947720  0.000000 0.000000 1 0 1.000000
0  -42.877827 -27.952394 38.894562  0.173855 -0.117773 0.977704  0.000000 0.000000 1 0 1.000000
0  -37.385811 -27.718649 38.192814  -0.109590 0.152576 0.982197  0.000000 0.000000 1 0 1.000000
  phy
0  -37.385811 -27.718649 38.192814  -0.109590 0.152576 0.982197  0.000000 0.000000 1 0 1.000000
0  -36.780293 -27.663610 39.266586  -0.857576 0.480749 0.182878  0.000000 0.000000 1 0 1.000000
0  -36.931900 -31.407341 38.647038  -0.017517 -0.318623 0.947720  0.000000 0.000000 1 0 1.000000
  phy
0  -36.780293 -27.663610 39.266586  -0.857576 0.480749 0.182878  0.000000 0.000000 1 0 1.000000
0  -36.408852 -32.178162 39.569263  -0.267084 -0.962981 -0.036523  0.000000 0.000000 1 0 1.000000
0  -36.931900 -31.407341 38.647038  -0.017517 -0.318623 0.947720  0.000000 0.000000 1 0 1.000000
  phy
0  -37.385811 -27.718649 38.192814  -0.109590 0.152576 0.982197  0.000000 0.000000 1 0 1.000000
0  -38.872364 -26.355957 39.816833  -0.403314 0.909750 0.098452  0.000000 0.000000 1 0 1.000000
0  -36.780293 -27.663610 39.266586  -0.857576 0.480749 0.182878  0.000000 0.000000 1 0 1.000000
  phy
0  -38.872364 -26.355957 39.816833  -0.403314 0.909750 0.098452  0.000000 0.000000 1 0 1.000000
0  -38.005394 -26.645041 43.767109  -0.824754 0.500838 -0.262570  0.000000 0.000000 1 0 1.000000
0  -36.780293 -27.663610 39.266586  -0.857576 0.480749 0.182878  0.000000 0.000000 1 0 1.000000
  phy
0  -38.101860 -28.984896 43.423038  -0.799890 -0.208906 -0.562613  0.000000 0.000000 1 0 1.000000
0  -36.408852 -32.178162 39.569263  -0.267084 -0.962981 -0.036523  0.000000 0.000000 1 0 1.000000
0  -36.271084 -29.260271 40.532642  -0.949029 0.036150 -0.313107  0.000000 0.000000 1 0 1.000000
  phy
0  -38.501064 -29.962099 43.326679  -0.564852 -0.479045 -0.671906  0.000000 0.000000 1 0 1.000000
0  -36.408852 -32.178162 39.569263  -0.267084 -0.962981 -0.036523  0.000000 0.000000 1 0 1.000000
0  -38.101860 -28.984896 43.423038  -0.799890 -0.208906 -0.562613  0.000000 0.000000 1 0 1.000000
  phy
0  -36.271084 -29.260271 40.532642  -0.949029 0.036150 -0.313107  0.000000 0.000000 1 0 1.000000
0  -38.005394 -26.645041 43.767109  -0.824754 0.500838 -0.262570  0.000000 0.000000 1 0 1.000000
0  -38.101860 -28.984896 43.423038  -0.799890 -0.208906 -0.562613  0.000000 0.000000 1 0 1.000000
  phy
0  -38.721615 -26.448439 44.594112  -0.333993 0.883369 -0.328797  0.000000 0.000000 1 0 1.000000
0  -40.991631 -28.516592 44.455284  0.003857 -0.314193 -0.949351  0.000000 0.000000 1 0 1.000000
0  -38.982777 -28.861032 44.069878  -0.183360 -0.324139 -0.928069  0.000000 0.000000 1 0 1.000000
  phy
0  -36.271084 -29.260271 40.532642  -0.949029 0.036150 -0.313107  0.000000 0.000000 1 0 1.000000
0  -36.780293 -27.663610 39.266586  -0.857576 0.480749 0.182878  0.000000 0.000000 1 0 1.000000
0  -38.005394 -26.645041 43.767109  -0.824754 0.500838 -0.262570  0.000000 0.000000 1 0 1.000000
  phy
0  -36.271084 -29.260271 40.532642  -0.949029 0.036150 -0.313107  0.000000 0.000000 1 0 1.000000
0  -36.408852 -32.178162 39.569263  -0.267084 -0.962981 -0.036523  0.000000 0.000000 1 0 1.000000
0  -36.780293 -27.663610 39.266586  -0.857576 0.480749 0.182878  0.000000 0.000000 1 0 1.000000
  phy
0  -42.244652 -25.461119 44.978146  0.031294 0.076834 -0.996553  0.000000 0.000000 1 0 1.000000
0  -40.991631 -28.516592 44.455284  0.003857 -0.314193 -0.949351  0.000000 0.000000 1 0 1.000000
0  -38.721615 -26.448439 44.594112  -0.333993 0.883369 -0.328797  0.000000 0.000000 1 0 1.000000
end
