version 1
nodes
0 "root" -1
1 "steering_wheel" 0
end
skeleton
time 0
0  0.000000 0.000000 0.000000  0.000000 -0.000000 -1.570797
1  19.916300 17.934299 33.308498  0.000000 -0.000000 0.000000
end
triangles
  phy
0  45.321060 -28.176622 41.596622  -0.737192 -0.649424 0.186541  0.000000 0.000000 1 0 1.000000
0  43.655441 -29.676981 42.573898  -0.520287 -0.830254 -0.199948  0.000000 0.000000 1 0 1.000000
0  43.669235 -29.525490 41.527714  -0.461110 -0.840239 0.285265  0.000000 0.000000 1 0 1.000000
  phy
0  45.431015 -28.218019 42.849129  -0.732794 -0.643125 -0.222271  0.000000 0.000000 1 0 1.000000
0  43.655441 -29.676981 42.573898  -0.520287 -0.830254 -0.199948  0.000000 0.000000 1 0 1.000000
0  45.321060 -28.176622 41.596622  -0.737192 -0.649424 0.186541  0.000000 0.000000 1 0 1.000000
  phy
0  45.321060 -28.176622 41.596622  -0.737192 -0.649424 0.186541  0.000000 0.000000 1 0 1.000000
0  46.023056 -26.442484 40.578129  -0.787976 -0.367364 0.494103  0.000000 0.000000 1 0 1.000000
0  46.270729 -26.580175 41.651718  -0.907393 -0.400319 0.127993  0.000000 0.000000 1 0 1.000000
  phy
0  45.321060 -28.176622 41.596622  -0.737192 -0.649424 0.186541  0.000000 0.000000 1 0 1.000000
0  45.087009 -27.887629 40.426556  -0.668702 -0.633803 0.388755  0.000000 0.000000 1 0 1.000000
0  46.023056 -26.442484 40.578129  -0.787976 -0.367364 0.494103  0.000000 0.000000 1 0 1.000000
  phy
0  43.669235 -29.525490 41.527714  -0.461110 -0.840239 0.285265  0.000000 0.000000 1 0 1.000000
0  45.087009 -27.887629 40.426556  -0.668702 -0.633803 0.388755  0.000000 0.000000 1 0 1.000000
0  45.321060 -28.176622 41.596622  -0.737192 -0.649424 0.186541  0.000000 0.000000 1 0 1.000000
  phy
0  46.270729 -26.580175 41.651718  -0.907393 -0.400319 0.127993  0.000000 0.000000 1 0 1.000000
0  45.431015 -28.218019 42.849129  -0.732794 -0.643125 -0.222271  0.000000 0.000000 1 0 1.000000
0  45.321060 -28.176622 41.596622  -0.737192 -0.649424 0.186541  0.000000 0.000000 1 0 1.000000
  phy
0  46.559826 -25.534138 41.720604  -0.982812 -0.109528 0.148611  0.000000 0.000000 1 0 1.000000
0  46.518574 -24.488026 41.748074  -0.849540 0.463625 0.251664  0.000000 0.000000 1 0 1.000000
0  46.642334 -25.492819 42.848888  -0.992672 -0.082562 -0.088233  0.000000 0.000000 1 0 1.000000
  phy
0  46.559826 -25.534138 41.720604  -0.982812 -0.109528 0.148611  0.000000 0.000000 1 0 1.000000
0  46.312149 -25.506639 40.674496  -0.883513 0.072945 0.462692  0.000000 0.000000 1 0 1.000000
0  46.518574 -24.488026 41.748074  -0.849540 0.463625 0.251664  0.000000 0.000000 1 0 1.000000
  phy
0  46.559826 -25.534138 41.720604  -0.982812 -0.109528 0.148611  0.000000 0.000000 1 0 1.000000
0  46.642334 -25.492819 42.848888  -0.992672 -0.082562 -0.088233  0.000000 0.000000 1 0 1.000000
0  46.270729 -26.580175 41.651718  -0.907393 -0.400319 0.127993  0.000000 0.000000 1 0 1.000000
  phy
0  46.270729 -26.580175 41.651718  -0.907393 -0.400319 0.127993  0.000000 0.000000 1 0 1.000000
0  46.312149 -25.506639 40.674496  -0.883513 0.072945 0.462692  0.000000 0.000000 1 0 1.000000
0  46.559826 -25.534138 41.720604  -0.982812 -0.109528 0.148611  0.000000 0.000000 1 0 1.000000
  phy
0  45.926544 -26.359934 43.757553  -0.613653 -0.308695 -0.726731  0.000000 0.000000 1 0 1.000000
0  46.339504 -26.552607 43.000561  -0.879316 -0.395251 -0.265668  0.000000 0.000000 1 0 1.000000
0  46.270763 -25.272366 43.812637  -0.703822 -0.100479 -0.703234  0.000000 0.000000 1 0 1.000000
  phy
0  45.926544 -26.359934 43.757553  -0.613653 -0.308695 -0.726731  0.000000 0.000000 1 0 1.000000
0  45.252087 -27.557392 43.702461  -0.471081 -0.441235 -0.763803  0.000000 0.000000 1 0 1.000000
0  46.339504 -26.552607 43.000561  -0.879316 -0.395251 -0.265668  0.000000 0.000000 1 0 1.000000
  phy
0  45.926544 -26.359934 43.757553  -0.613653 -0.308695 -0.726731  0.000000 0.000000 1 0 1.000000
0  46.270763 -25.272366 43.812637  -0.703822 -0.100479 -0.703234  0.000000 0.000000 1 0 1.000000
0  44.852974 -26.332365 44.349327  -0.291330 -0.176212 -0.940253  0.000000 0.000000 1 0 1.000000
  phy
0  44.852974 -26.332365 44.349327  -0.291330 -0.176212 -0.940253  0.000000 0.000000 1 0 1.000000
0  45.252087 -27.557392 43.702461  -0.471081 -0.441235 -0.763803  0.000000 0.000000 1 0 1.000000
0  45.926544 -26.359934 43.757553  -0.613653 -0.308695 -0.726731  0.000000 0.000000 1 0 1.000000
  phy
0  41.686962 -30.612829 42.491390  -0.300887 -0.948339 -0.100598  0.000000 0.000000 1 0 1.000000
0  41.687088 -30.406324 41.431160  -0.386169 -0.896476 0.217264  0.000000 0.000000 1 0 1.000000
0  43.669235 -29.525490 41.527714  -0.461110 -0.840239 0.285265  0.000000 0.000000 1 0 1.000000
  phy
0  43.669235 -29.525490 41.527714  -0.461110 -0.840239 0.285265  0.000000 0.000000 1 0 1.000000
0  43.655441 -29.676981 42.573898  -0.520287 -0.830254 -0.199948  0.000000 0.000000 1 0 1.000000
0  41.686962 -30.612829 42.491390  -0.300887 -0.948339 -0.100598  0.000000 0.000000 1 0 1.000000
  phy
0  43.628033 -28.947432 40.165085  -0.515075 -0.741441 0.430074  0.000000 0.000000 1 0 1.000000
0  45.087009 -27.887629 40.426556  -0.668702 -0.633803 0.388755  0.000000 0.000000 1 0 1.000000
0  43.669235 -29.525490 41.527714  -0.461110 -0.840239 0.285265  0.000000 0.000000 1 0 1.000000
  phy
0  41.714935 -29.690435 39.545567  -0.400044 -0.818358 0.412620  0.000000 0.000000 1 0 1.000000
0  43.628033 -28.947432 40.165085  -0.515075 -0.741441 0.430074  0.000000 0.000000 1 0 1.000000
0  43.669235 -29.525490 41.527714  -0.461110 -0.840239 0.285265  0.000000 0.000000 1 0 1.000000
  phy
0  41.687088 -30.406324 41.431160  -0.386169 -0.896476 0.217264  0.000000 0.000000 1 0 1.000000
0  36.404652 -32.180496 39.571491  0.267157 -0.962966 -0.036396  0.000000 0.000000 1 0 1.000000
0  43.669235 -29.525490 41.527714  -0.461110 -0.840239 0.285265  0.000000 0.000000 1 0 1.000000
  phy
0  43.669235 -29.525490 41.527714  -0.461110 -0.840239 0.285265  0.000000 0.000000 1 0 1.000000
0  36.404652 -32.180496 39.571491  0.267157 -0.962966 -0.036396  0.000000 0.000000 1 0 1.000000
0  41.714935 -29.690435 39.545567  -0.400044 -0.818358 0.412620  0.000000 0.000000 1 0 1.000000
  phy
0  46.023056 -26.442484 40.578129  -0.787976 -0.367364 0.494103  0.000000 0.000000 1 0 1.000000
0  46.312149 -25.506639 40.674496  -0.883513 0.072945 0.462692  0.000000 0.000000 1 0 1.000000
0  46.270729 -26.580175 41.651718  -0.907393 -0.400319 0.127993  0.000000 0.000000 1 0 1.000000
  phy
0  46.270729 -26.580175 41.651718  -0.907393 -0.400319 0.127993  0.000000 0.000000 1 0 1.000000
0  46.339504 -26.552607 43.000561  -0.879316 -0.395251 -0.265668  0.000000 0.000000 1 0 1.000000
0  45.431015 -28.218019 42.849129  -0.732794 -0.643125 -0.222271  0.000000 0.000000 1 0 1.000000
  phy
0  46.642334 -25.492819 42.848888  -0.992672 -0.082562 -0.088233  0.000000 0.000000 1 0 1.000000
0  46.339504 -26.552607 43.000561  -0.879316 -0.395251 -0.265668  0.000000 0.000000 1 0 1.000000
0  46.270729 -26.580175 41.651718  -0.907393 -0.400319 0.127993  0.000000 0.000000 1 0 1.000000
  phy
0  44.852974 -26.332365 44.349327  -0.291330 -0.176212 -0.940253  0.000000 0.000000 1 0 1.000000
0  42.237789 -25.465166 44.982376  0.204255 0.792867 -0.574144  0.000000 0.000000 1 0 1.000000
0  42.980968 -27.653605 44.486900  -0.203639 -0.299230 -0.932198  0.000000 0.000000 1 0 1.000000
  phy
0  45.486179 -24.543049 44.308079  -0.257727 0.258248 -0.931067  0.000000 0.000000 1 0 1.000000
0  42.237789 -25.465166 44.982376  0.204255 0.792867 -0.574144  0.000000 0.000000 1 0 1.000000
0  44.852974 -26.332365 44.349327  -0.291330 -0.176212 -0.940253  0.000000 0.000000 1 0 1.000000
  phy
0  46.270763 -25.272366 43.812637  -0.703822 -0.100479 -0.703234  0.000000 0.000000 1 0 1.000000
0  45.486179 -24.543049 44.308079  -0.257727 0.258248 -0.931067  0.000000 0.000000 1 0 1.000000
0  44.852974 -26.332365 44.349327  -0.291330 -0.176212 -0.940253  0.000000 0.000000 1 0 1.000000
  phy
0  42.980968 -27.653605 44.486900  -0.203639 -0.299230 -0.932198  0.000000 0.000000 1 0 1.000000
0  45.252087 -27.557392 43.702461  -0.471081 -0.441235 -0.763803  0.000000 0.000000 1 0 1.000000
0  44.852974 -26.332365 44.349327  -0.291330 -0.176212 -0.940253  0.000000 0.000000 1 0 1.000000
  phy
0  38.975967 -28.864733 44.073811  0.183332 -0.324028 -0.928114  0.000000 0.000000 1 0 1.000000
0  38.493954 -29.965744 43.330528  0.565159 -0.479149 -0.671573  0.000000 0.000000 1 0 1.000000
0  39.182056 -30.419930 43.344307  0.166647 -0.630816 -0.757826  0.000000 0.000000 1 0 1.000000
  phy
0  38.452652 -28.795767 43.894825  0.627903 -0.204998 -0.750809  0.000000 0.000000 1 0 1.000000
0  38.493954 -29.965744 43.330528  0.565159 -0.479149 -0.671573  0.000000 0.000000 1 0 1.000000
0  38.975967 -28.864733 44.073811  0.183332 -0.324028 -0.928114  0.000000 0.000000 1 0 1.000000
  phy
0  38.975967 -28.864733 44.073811  0.183332 -0.324028 -0.928114  0.000000 0.000000 1 0 1.000000
0  38.714245 -26.455917 44.596790  0.355006 0.762828 -0.540430  0.000000 0.000000 1 0 1.000000
0  38.452652 -28.795767 43.894825  0.627903 -0.204998 -0.750809  0.000000 0.000000 1 0 1.000000
  phy
0  40.985161 -28.520632 44.459248  -0.003893 -0.314178 -0.949356  0.000000 0.000000 1 0 1.000000
0  38.714245 -26.455917 44.596790  0.355006 0.762828 -0.540430  0.000000 0.000000 1 0 1.000000
0  38.975967 -28.864733 44.073811  0.183332 -0.324028 -0.928114  0.000000 0.000000 1 0 1.000000
  phy
0  39.182056 -30.419930 43.344307  0.166647 -0.630816 -0.757826  0.000000 0.000000 1 0 1.000000
0  40.985161 -28.520632 44.459248  -0.003893 -0.314178 -0.949356  0.000000 0.000000 1 0 1.000000
0  38.975967 -28.864733 44.073811  0.183332 -0.324028 -0.928114  0.000000 0.000000 1 0 1.000000
  phy
0  43.476528 -29.126303 43.619801  -0.332490 -0.566566 -0.753959  0.000000 0.000000 1 0 1.000000
0  43.655441 -29.676981 42.573898  -0.520287 -0.830254 -0.199948  0.000000 0.000000 1 0 1.000000
0  45.431015 -28.218019 42.849129  -0.732794 -0.643125 -0.222271  0.000000 0.000000 1 0 1.000000
  phy
0  45.431015 -28.218019 42.849129  -0.732794 -0.643125 -0.222271  0.000000 0.000000 1 0 1.000000
0  45.252087 -27.557392 43.702461  -0.471081 -0.441235 -0.763803  0.000000 0.000000 1 0 1.000000
0  43.476528 -29.126303 43.619801  -0.332490 -0.566566 -0.753959  0.000000 0.000000 1 0 1.000000
  phy
0  46.339504 -26.552607 43.000561  -0.879316 -0.395251 -0.265668  0.000000 0.000000 1 0 1.000000
0  45.252087 -27.557392 43.702461  -0.471081 -0.441235 -0.763803  0.000000 0.000000 1 0 1.000000
0  45.431015 -28.218019 42.849129  -0.732794 -0.643125 -0.222271  0.000000 0.000000 1 0 1.000000
  phy
0  41.686962 -30.612829 42.491390  -0.300887 -0.948339 -0.100598  0.000000 0.000000 1 0 1.000000
0  36.404652 -32.180496 39.571491  0.267157 -0.962966 -0.036396  0.000000 0.000000 1 0 1.000000
0  41.687088 -30.406324 41.431160  -0.386169 -0.896476 0.217264  0.000000 0.000000 1 0 1.000000
  phy
0  39.333523 -30.998020 42.573536  -0.065271 -0.914712 -0.398800  0.000000 0.000000 1 0 1.000000
0  36.404652 -32.180496 39.571491  0.267157 -0.962966 -0.036396  0.000000 0.000000 1 0 1.000000
0  41.686962 -30.612829 42.491390  -0.300887 -0.948339 -0.100598  0.000000 0.000000 1 0 1.000000
  phy
0  43.655441 -29.676981 42.573898  -0.520287 -0.830254 -0.199948  0.000000 0.000000 1 0 1.000000
0  41.536015 -30.103514 43.495632  -0.180098 -0.694409 -0.696679  0.000000 0.000000 1 0 1.000000
0  41.686962 -30.612829 42.491390  -0.300887 -0.948339 -0.100598  0.000000 0.000000 1 0 1.000000
  phy
0  41.686962 -30.612829 42.491390  -0.300887 -0.948339 -0.100598  0.000000 0.000000 1 0 1.000000
0  41.536015 -30.103514 43.495632  -0.180098 -0.694409 -0.696679  0.000000 0.000000 1 0 1.000000
0  39.333523 -30.998020 42.573536  -0.065271 -0.914712 -0.398800  0.000000 0.000000 1 0 1.000000
  phy
0  46.270763 -25.272366 43.812637  -0.703822 -0.100479 -0.703234  0.000000 0.000000 1 0 1.000000
0  46.339504 -26.552607 43.000561  -0.879316 -0.395251 -0.265668  0.000000 0.000000 1 0 1.000000
0  46.642334 -25.492819 42.848888  -0.992672 -0.082562 -0.088233  0.000000 0.000000 1 0 1.000000
  phy
0  46.642334 -25.492819 42.848888  -0.992672 -0.082562 -0.088233  0.000000 0.000000 1 0 1.000000
0  46.449696 -24.254019 43.330910  0.056644 0.996329 -0.064194  0.000000 0.000000 1 0 1.000000
0  46.270763 -25.272366 43.812637  -0.703822 -0.100479 -0.703234  0.000000 0.000000 1 0 1.000000
  phy
0  46.270763 -25.272366 43.812637  -0.703822 -0.100479 -0.703234  0.000000 0.000000 1 0 1.000000
0  46.449696 -24.254019 43.330910  0.056644 0.996329 -0.064194  0.000000 0.000000 1 0 1.000000
0  45.486179 -24.543049 44.308079  -0.257727 0.258248 -0.931067  0.000000 0.000000 1 0 1.000000
  phy
0  45.527607 -25.520340 39.766010  -0.610625 -0.028653 0.791402  0.000000 0.000000 1 0 1.000000
0  46.023056 -26.442484 40.578129  -0.787976 -0.367364 0.494103  0.000000 0.000000 1 0 1.000000
0  44.729263 -26.814116 39.435646  -0.493687 -0.162276 0.854365  0.000000 0.000000 1 0 1.000000
  phy
0  45.527607 -25.520340 39.766010  -0.610625 -0.028653 0.791402  0.000000 0.000000 1 0 1.000000
0  46.312149 -25.506639 40.674496  -0.883513 0.072945 0.462692  0.000000 0.000000 1 0 1.000000
0  46.023056 -26.442484 40.578129  -0.787976 -0.367364 0.494103  0.000000 0.000000 1 0 1.000000
  phy
0  44.440186 -27.805002 39.587036  -0.570791 -0.447088 0.688701  0.000000 0.000000 1 0 1.000000
0  44.729263 -26.814116 39.435646  -0.493687 -0.162276 0.854365  0.000000 0.000000 1 0 1.000000
0  46.023056 -26.442484 40.578129  -0.787976 -0.367364 0.494103  0.000000 0.000000 1 0 1.000000
  phy
0  46.023056 -26.442484 40.578129  -0.787976 -0.367364 0.494103  0.000000 0.000000 1 0 1.000000
0  45.087009 -27.887629 40.426556  -0.668702 -0.633803 0.388755  0.000000 0.000000 1 0 1.000000
0  44.440186 -27.805002 39.587036  -0.570791 -0.447088 0.688701  0.000000 0.000000 1 0 1.000000
  phy
0  46.518574 -24.488026 41.748074  -0.849540 0.463625 0.251664  0.000000 0.000000 1 0 1.000000
0  46.449696 -24.254019 43.330910  0.056644 0.996329 -0.064194  0.000000 0.000000 1 0 1.000000
0  46.642334 -25.492819 42.848888  -0.992672 -0.082562 -0.088233  0.000000 0.000000 1 0 1.000000
  phy
0  42.980968 -27.653605 44.486900  -0.203639 -0.299230 -0.932198  0.000000 0.000000 1 0 1.000000
0  40.985161 -28.520632 44.459248  -0.003893 -0.314178 -0.949356  0.000000 0.000000 1 0 1.000000
0  43.476528 -29.126303 43.619801  -0.332490 -0.566566 -0.753959  0.000000 0.000000 1 0 1.000000
  phy
0  43.476528 -29.126303 43.619801  -0.332490 -0.566566 -0.753959  0.000000 0.000000 1 0 1.000000
0  45.252087 -27.557392 43.702461  -0.471081 -0.441235 -0.763803  0.000000 0.000000 1 0 1.000000
0  42.980968 -27.653605 44.486900  -0.203639 -0.299230 -0.932198  0.000000 0.000000 1 0 1.000000
  phy
0  42.980968 -27.653605 44.486900  -0.203639 -0.299230 -0.932198  0.000000 0.000000 1 0 1.000000
0  42.237789 -25.465166 44.982376  0.204255 0.792867 -0.574144  0.000000 0.000000 1 0 1.000000
0  40.985161 -28.520632 44.459248  -0.003893 -0.314178 -0.949356  0.000000 0.000000 1 0 1.000000
  phy
0  43.476528 -29.126303 43.619801  -0.332490 -0.566566 -0.753959  0.000000 0.000000 1 0 1.000000
0  41.536015 -30.103514 43.495632  -0.180098 -0.694409 -0.696679  0.000000 0.000000 1 0 1.000000
0  43.655441 -29.676981 42.573898  -0.520287 -0.830254 -0.199948  0.000000 0.000000 1 0 1.000000
  phy
0  40.985161 -28.520632 44.459248  -0.003893 -0.314178 -0.949356  0.000000 0.000000 1 0 1.000000
0  41.536015 -30.103514 43.495632  -0.180098 -0.694409 -0.696679  0.000000 0.000000 1 0 1.000000
0  43.476528 -29.126303 43.619801  -0.332490 -0.566566 -0.753959  0.000000 0.000000 1 0 1.000000
  phy
0  39.182056 -30.419930 43.344307  0.166647 -0.630816 -0.757826  0.000000 0.000000 1 0 1.000000
0  36.404652 -32.180496 39.571491  0.267157 -0.962966 -0.036396  0.000000 0.000000 1 0 1.000000
0  39.333523 -30.998020 42.573536  -0.065271 -0.914712 -0.398800  0.000000 0.000000 1 0 1.000000
  phy
0  38.493954 -29.965744 43.330528  0.565159 -0.479149 -0.671573  0.000000 0.000000 1 0 1.000000
0  36.404652 -32.180496 39.571491  0.267157 -0.962966 -0.036396  0.000000 0.000000 1 0 1.000000
0  39.182056 -30.419930 43.344307  0.166647 -0.630816 -0.757826  0.000000 0.000000 1 0 1.000000
  phy
0  39.333523 -30.998020 42.573536  -0.065271 -0.914712 -0.398800  0.000000 0.000000 1 0 1.000000
0  41.536015 -30.103514 43.495632  -0.180098 -0.694409 -0.696679  0.000000 0.000000 1 0 1.000000
0  39.182056 -30.419930 43.344307  0.166647 -0.630816 -0.757826  0.000000 0.000000 1 0 1.000000
  phy
0  39.182056 -30.419930 43.344307  0.166647 -0.630816 -0.757826  0.000000 0.000000 1 0 1.000000
0  41.536015 -30.103514 43.495632  -0.180098 -0.694409 -0.696679  0.000000 0.000000 1 0 1.000000
0  40.985161 -28.520632 44.459248  -0.003893 -0.314178 -0.949356  0.000000 0.000000 1 0 1.000000
  phy
0  38.452652 -28.795767 43.894825  0.627903 -0.204998 -0.750809  0.000000 0.000000 1 0 1.000000
0  37.998608 -26.648623 43.770992  0.564116 0.814777 -0.133834  0.000000 0.000000 1 0 1.000000
0  38.094795 -28.988443 43.426834  0.799893 -0.209208 -0.562497  0.000000 0.000000 1 0 1.000000
  phy
0  37.998608 -26.648623 43.770992  0.564116 0.814777 -0.133834  0.000000 0.000000 1 0 1.000000
0  38.452652 -28.795767 43.894825  0.627903 -0.204998 -0.750809  0.000000 0.000000 1 0 1.000000
0  38.714245 -26.455917 44.596790  0.355006 0.762828 -0.540430  0.000000 0.000000 1 0 1.000000
  phy
0  38.452652 -28.795767 43.894825  0.627903 -0.204998 -0.750809  0.000000 0.000000 1 0 1.000000
0  38.094795 -28.988443 43.426834  0.799893 -0.209208 -0.562497  0.000000 0.000000 1 0 1.000000
0  38.493954 -29.965744 43.330528  0.565159 -0.479149 -0.671573  0.000000 0.000000 1 0 1.000000
  phy
0  44.440186 -27.805002 39.587036  -0.570791 -0.447088 0.688701  0.000000 0.000000 1 0 1.000000
0  42.871445 -27.956310 38.898884  -0.173785 -0.117851 0.977706  0.000000 0.000000 1 0 1.000000
0  44.729263 -26.814116 39.435646  -0.493687 -0.162276 0.854365  0.000000 0.000000 1 0 1.000000
  phy
0  42.871445 -27.956310 38.898884  -0.173785 -0.117851 0.977706  0.000000 0.000000 1 0 1.000000
0  44.440186 -27.805002 39.587036  -0.570791 -0.447088 0.688701  0.000000 0.000000 1 0 1.000000
0  42.747211 -28.809736 39.132748  -0.367478 -0.544933 0.753663  0.000000 0.000000 1 0 1.000000
  phy
0  42.871445 -27.956310 38.898884  -0.173785 -0.117851 0.977706  0.000000 0.000000 1 0 1.000000
0  44.495388 -25.657778 39.353069  -0.234278 0.097749 0.967243  0.000000 0.000000 1 0 1.000000
0  44.729263 -26.814116 39.435646  -0.493687 -0.162276 0.854365  0.000000 0.000000 1 0 1.000000
  phy
0  44.495388 -25.657778 39.353069  -0.234278 0.097749 0.967243  0.000000 0.000000 1 0 1.000000
0  42.871445 -27.956310 38.898884  -0.173785 -0.117851 0.977706  0.000000 0.000000 1 0 1.000000
0  41.219555 -26.511091 38.609646  -0.078629 0.255334 0.963650  0.000000 0.000000 1 0 1.000000
  phy
0  42.871445 -27.956310 38.898884  -0.173785 -0.117851 0.977706  0.000000 0.000000 1 0 1.000000
0  37.379402 -27.722198 38.196541  0.109609 0.152560 0.982197  0.000000 0.000000 1 0 1.000000
0  41.219555 -26.511091 38.609646  -0.078629 0.255334 0.963650  0.000000 0.000000 1 0 1.000000
  phy
0  37.379402 -27.722198 38.196541  0.109609 0.152560 0.982197  0.000000 0.000000 1 0 1.000000
0  42.871445 -27.956310 38.898884  -0.173785 -0.117851 0.977706  0.000000 0.000000 1 0 1.000000
0  36.924957 -31.410830 38.650711  0.017392 -0.318526 0.947755  0.000000 0.000000 1 0 1.000000
  phy
0  36.924957 -31.410830 38.650711  0.017392 -0.318526 0.947755  0.000000 0.000000 1 0 1.000000
0  42.871445 -27.956310 38.898884  -0.173785 -0.117851 0.977706  0.000000 0.000000 1 0 1.000000
0  42.747211 -28.809736 39.132748  -0.367478 -0.544933 0.753663  0.000000 0.000000 1 0 1.000000
  phy
0  37.998608 -26.648623 43.770992  0.564116 0.814777 -0.133834  0.000000 0.000000 1 0 1.000000
0  45.239738 -24.534611 39.817402  0.201069 0.972072 0.121024  0.000000 0.000000 1 0 1.000000
0  40.476318 -25.891680 39.160164  0.264756 0.941975 0.206367  0.000000 0.000000 1 0 1.000000
  phy
0  37.998608 -26.648623 43.770992  0.564116 0.814777 -0.133834  0.000000 0.000000 1 0 1.000000
0  40.476318 -25.891680 39.160164  0.264756 0.941975 0.206367  0.000000 0.000000 1 0 1.000000
0  38.865910 -26.359589 39.820755  0.432083 0.893257 0.124084  0.000000 0.000000 1 0 1.000000
  phy
0  38.094795 -28.988443 43.426834  0.799893 -0.209208 -0.562497  0.000000 0.000000 1 0 1.000000
0  37.998608 -26.648623 43.770992  0.564116 0.814777 -0.133834  0.000000 0.000000 1 0 1.000000
0  36.264347 -29.263617 40.536343  0.949067 0.035825 -0.313032  0.000000 0.000000 1 0 1.000000
  phy
0  36.264347 -29.263617 40.536343  0.949067 0.035825 -0.313032  0.000000 0.000000 1 0 1.000000
0  37.998608 -26.648623 43.770992  0.564116 0.814777 -0.133834  0.000000 0.000000 1 0 1.000000
0  36.773754 -27.667067 39.270092  0.857595 0.480748 0.182792  0.000000 0.000000 1 0 1.000000
  phy
0  37.998608 -26.648623 43.770992  0.564116 0.814777 -0.133834  0.000000 0.000000 1 0 1.000000
0  38.865910 -26.359589 39.820755  0.432083 0.893257 0.124084  0.000000 0.000000 1 0 1.000000
0  36.773754 -27.667067 39.270092  0.857595 0.480748 0.182792  0.000000 0.000000 1 0 1.000000
  phy
0  45.239738 -24.534611 39.817402  0.201069 0.972072 0.121024  0.000000 0.000000 1 0 1.000000
0  37.998608 -26.648623 43.770992  0.564116 0.814777 -0.133834  0.000000 0.000000 1 0 1.000000
0  38.714245 -26.455917 44.596790  0.355006 0.762828 -0.540430  0.000000 0.000000 1 0 1.000000
  phy
0  38.094795 -28.988443 43.426834  0.799893 -0.209208 -0.562497  0.000000 0.000000 1 0 1.000000
0  36.264347 -29.263617 40.536343  0.949067 0.035825 -0.313032  0.000000 0.000000 1 0 1.000000
0  36.404652 -32.180496 39.571491  0.267157 -0.962966 -0.036396  0.000000 0.000000 1 0 1.000000
  phy
0  38.493954 -29.965744 43.330528  0.565159 -0.479149 -0.671573  0.000000 0.000000 1 0 1.000000
0  38.094795 -28.988443 43.426834  0.799893 -0.209208 -0.562497  0.000000 0.000000 1 0 1.000000
0  36.404652 -32.180496 39.571491  0.267157 -0.962966 -0.036396  0.000000 0.000000 1 0 1.000000
  phy
0  42.237789 -25.465166 44.982376  0.204255 0.792867 -0.574144  0.000000 0.000000 1 0 1.000000
0  45.486179 -24.543049 44.308079  -0.257727 0.258248 -0.931067  0.000000 0.000000 1 0 1.000000
0  46.449696 -24.254019 43.330910  0.056644 0.996329 -0.064194  0.000000 0.000000 1 0 1.000000
  phy
0  42.237789 -25.465166 44.982376  0.204255 0.792867 -0.574144  0.000000 0.000000 1 0 1.000000
0  38.714245 -26.455917 44.596790  0.355006 0.762828 -0.540430  0.000000 0.000000 1 0 1.000000
0  40.985161 -28.520632 44.459248  -0.003893 -0.314178 -0.949356  0.000000 0.000000 1 0 1.000000
  phy
0  43.628033 -28.947432 40.165085  -0.515075 -0.741441 0.430074  0.000000 0.000000 1 0 1.000000
0  42.747211 -28.809736 39.132748  -0.367478 -0.544933 0.753663  0.000000 0.000000 1 0 1.000000
0  44.440186 -27.805002 39.587036  -0.570791 -0.447088 0.688701  0.000000 0.000000 1 0 1.000000
  phy
0  44.440186 -27.805002 39.587036  -0.570791 -0.447088 0.688701  0.000000 0.000000 1 0 1.000000
0  45.087009 -27.887629 40.426556  -0.668702 -0.633803 0.388755  0.000000 0.000000 1 0 1.000000
0  43.628033 -28.947432 40.165085  -0.515075 -0.741441 0.430074  0.000000 0.000000 1 0 1.000000
  phy
0  44.495388 -25.657778 39.353069  -0.234278 0.097749 0.967243  0.000000 0.000000 1 0 1.000000
0  45.527607 -25.520340 39.766010  -0.610625 -0.028653 0.791402  0.000000 0.000000 1 0 1.000000
0  44.729263 -26.814116 39.435646  -0.493687 -0.162276 0.854365  0.000000 0.000000 1 0 1.000000
  phy
0  45.527607 -25.520340 39.766010  -0.610625 -0.028653 0.791402  0.000000 0.000000 1 0 1.000000
0  44.495388 -25.657778 39.353069  -0.234278 0.097749 0.967243  0.000000 0.000000 1 0 1.000000
0  45.239738 -24.534611 39.817402  0.201069 0.972072 0.121024  0.000000 0.000000 1 0 1.000000
  phy
0  45.527607 -25.520340 39.766010  -0.610625 -0.028653 0.791402  0.000000 0.000000 1 0 1.000000
0  45.239738 -24.534611 39.817402  0.201069 0.972072 0.121024  0.000000 0.000000 1 0 1.000000
0  46.312149 -25.506639 40.674496  -0.883513 0.072945 0.462692  0.000000 0.000000 1 0 1.000000
  phy
0  45.239738 -24.534611 39.817402  0.201069 0.972072 0.121024  0.000000 0.000000 1 0 1.000000
0  44.495388 -25.657778 39.353069  -0.234278 0.097749 0.967243  0.000000 0.000000 1 0 1.000000
0  41.219555 -26.511091 38.609646  -0.078629 0.255334 0.963650  0.000000 0.000000 1 0 1.000000
  phy
0  36.924957 -31.410830 38.650711  0.017392 -0.318526 0.947755  0.000000 0.000000 1 0 1.000000
0  42.747211 -28.809736 39.132748  -0.367478 -0.544933 0.753663  0.000000 0.000000 1 0 1.000000
0  41.714935 -29.690435 39.545567  -0.400044 -0.818358 0.412620  0.000000 0.000000 1 0 1.000000
  phy
0  41.714935 -29.690435 39.545567  -0.400044 -0.818358 0.412620  0.000000 0.000000 1 0 1.000000
0  36.404652 -32.180496 39.571491  0.267157 -0.962966 -0.036396  0.000000 0.000000 1 0 1.000000
0  36.924957 -31.410830 38.650711  0.017392 -0.318526 0.947755  0.000000 0.000000 1 0 1.000000
  phy
0  41.714935 -29.690435 39.545567  -0.400044 -0.818358 0.412620  0.000000 0.000000 1 0 1.000000
0  42.747211 -28.809736 39.132748  -0.367478 -0.544933 0.753663  0.000000 0.000000 1 0 1.000000
0  43.628033 -28.947432 40.165085  -0.515075 -0.741441 0.430074  0.000000 0.000000 1 0 1.000000
  phy
0  46.312149 -25.506639 40.674496  -0.883513 0.072945 0.462692  0.000000 0.000000 1 0 1.000000
0  45.239738 -24.534611 39.817402  0.201069 0.972072 0.121024  0.000000 0.000000 1 0 1.000000
0  46.518574 -24.488026 41.748074  -0.849540 0.463625 0.251664  0.000000 0.000000 1 0 1.000000
  phy
0  46.518574 -24.488026 41.748074  -0.849540 0.463625 0.251664  0.000000 0.000000 1 0 1.000000
0  45.239738 -24.534611 39.817402  0.201069 0.972072 0.121024  0.000000 0.000000 1 0 1.000000
0  46.449696 -24.254019 43.330910  0.056644 0.996329 -0.064194  0.000000 0.000000 1 0 1.000000
  phy
0  38.865910 -26.359589 39.820755  0.432083 0.893257 0.124084  0.000000 0.000000 1 0 1.000000
0  37.379402 -27.722198 38.196541  0.109609 0.152560 0.982197  0.000000 0.000000 1 0 1.000000
0  36.773754 -27.667067 39.270092  0.857595 0.480748 0.182792  0.000000 0.000000 1 0 1.000000
  phy
0  37.379402 -27.722198 38.196541  0.109609 0.152560 0.982197  0.000000 0.000000 1 0 1.000000
0  38.865910 -26.359589 39.820755  0.432083 0.893257 0.124084  0.000000 0.000000 1 0 1.000000
0  40.476318 -25.891680 39.160164  0.264756 0.941975 0.206367  0.000000 0.000000 1 0 1.000000
  phy
0  37.379402 -27.722198 38.196541  0.109609 0.152560 0.982197  0.000000 0.000000 1 0 1.000000
0  36.924957 -31.410830 38.650711  0.017392 -0.318526 0.947755  0.000000 0.000000 1 0 1.000000
0  36.773754 -27.667067 39.270092  0.857595 0.480748 0.182792  0.000000 0.000000 1 0 1.000000
  phy
0  37.379402 -27.722198 38.196541  0.109609 0.152560 0.982197  0.000000 0.000000 1 0 1.000000
0  40.476318 -25.891680 39.160164  0.264756 0.941975 0.206367  0.000000 0.000000 1 0 1.000000
0  41.219555 -26.511091 38.609646  -0.078629 0.255334 0.963650  0.000000 0.000000 1 0 1.000000
  phy
0  36.264347 -29.263617 40.536343  0.949067 0.035825 -0.313032  0.000000 0.000000 1 0 1.000000
0  36.773754 -27.667067 39.270092  0.857595 0.480748 0.182792  0.000000 0.000000 1 0 1.000000
0  36.404652 -32.180496 39.571491  0.267157 -0.962966 -0.036396  0.000000 0.000000 1 0 1.000000
  phy
0  42.237789 -25.465166 44.982376  0.204255 0.792867 -0.574144  0.000000 0.000000 1 0 1.000000
0  45.239738 -24.534611 39.817402  0.201069 0.972072 0.121024  0.000000 0.000000 1 0 1.000000
0  38.714245 -26.455917 44.596790  0.355006 0.762828 -0.540430  0.000000 0.000000 1 0 1.000000
  phy
0  45.239738 -24.534611 39.817402  0.201069 0.972072 0.121024  0.000000 0.000000 1 0 1.000000
0  42.237789 -25.465166 44.982376  0.204255 0.792867 -0.574144  0.000000 0.000000 1 0 1.000000
0  46.449696 -24.254019 43.330910  0.056644 0.996329 -0.064194  0.000000 0.000000 1 0 1.000000
  phy
0  36.773754 -27.667067 39.270092  0.857595 0.480748 0.182792  0.000000 0.000000 1 0 1.000000
0  36.924957 -31.410830 38.650711  0.017392 -0.318526 0.947755  0.000000 0.000000 1 0 1.000000
0  36.404652 -32.180496 39.571491  0.267157 -0.962966 -0.036396  0.000000 0.000000 1 0 1.000000
  phy
0  40.476318 -25.891680 39.160164  0.264756 0.941975 0.206367  0.000000 0.000000 1 0 1.000000
0  45.239738 -24.534611 39.817402  0.201069 0.972072 0.121024  0.000000 0.000000 1 0 1.000000
0  41.219555 -26.511091 38.609646  -0.078629 0.255334 0.963650  0.000000 0.000000 1 0 1.000000
end
