version 1
nodes
0 "root" -1
1 "steering_wheel" 0
end
skeleton
time 0
0  0.000000 0.000000 0.000000  0.000000 -0.000000 -1.570797
1  19.916300 17.934299 33.308498  0.000000 -0.000000 0.000000
end
triangles
misc
0  38.469967 -29.633564 40.396885  0.029334 -0.177973 0.983598  0.183599 0.441389 1 0 1.000000
0  38.153397 -28.931610 40.534523  -0.035163 0.191033 0.980954  0.190435 0.466781 1 0 1.000000
0  36.267746 -29.261944 40.534523  -0.049468 0.163386 0.985321  0.171880 0.467757 1 0 1.000000
misc
0  36.267746 -29.261944 40.534523  -0.049468 0.163386 0.985321  0.171880 0.467757 1 0 1.000000
0  36.309044 -30.569511 40.300533  0.030158 -0.172247 0.984592  0.145512 0.423811 1 0 1.000000
0  38.469967 -29.633564 40.396885  0.029334 -0.177973 0.983598  0.183599 0.441389 1 0 1.000000
misc
0  44.154434 -28.105776 39.681164  0.525619 -0.655030 -0.542826  0.271493 0.373028 1 0 1.000000
0  43.590115 -28.697624 39.791271  0.414408 -0.575167 -0.705300  0.255867 0.376934 1 0 1.000000
0  43.548824 -28.532457 39.626110  0.477185 -0.647161 -0.594539  0.255867 0.364238 1 0 1.000000
misc
0  44.498528 -25.655811 39.350830  0.155112 -0.012680 -0.987815  0.300790 0.291971 1 0 1.000000
0  42.888161 -25.889799 39.103081  0.215092 0.063649 -0.974518  0.270516 0.275369 1 0 1.000000
0  44.305832 -25.284187 39.337067  0.150452 0.020750 -0.988400  0.292978 0.278298 1 0 1.000000
misc
0  42.888161 -25.889799 39.103081  0.215092 0.063649 -0.974518  0.270516 0.275369 1 0 1.000000
0  44.498528 -25.655811 39.350830  0.155112 -0.012680 -0.987815  0.300790 0.291971 1 0 1.000000
0  44.732517 -26.811974 39.433414  0.261449 -0.055583 -0.963616  0.286142 0.339824 1 0 1.000000
misc
0  44.732517 -26.811974 39.433414  0.261449 -0.055583 -0.963616  0.286142 0.339824 1 0 1.000000
0  42.874393 -27.954378 38.896622  0.277356 -0.132320 -0.951612  0.245125 0.323222 1 0 1.000000
0  42.888161 -25.889799 39.103081  0.215092 0.063649 -0.974518  0.270516 0.275369 1 0 1.000000
misc
0  42.874393 -27.954378 38.896622  0.277356 -0.132320 -0.951612  0.245125 0.323222 1 0 1.000000
0  44.732517 -26.811974 39.433414  0.261449 -0.055583 -0.963616  0.286142 0.339824 1 0 1.000000
0  44.443474 -27.802973 39.584820  0.442971 -0.343595 -0.828082  0.279305 0.363262 1 0 1.000000
misc
0  44.443474 -27.802973 39.584820  0.442971 -0.343595 -0.828082  0.279305 0.363262 1 0 1.000000
0  42.750519 -28.807737 39.130608  0.407085 -0.559166 -0.722229  0.238289 0.339824 1 0 1.000000
0  42.874393 -27.954378 38.896622  0.277356 -0.132320 -0.951612  0.245125 0.323222 1 0 1.000000
misc
0  42.750519 -28.807737 39.130608  0.407085 -0.559166 -0.722229  0.238289 0.339824 1 0 1.000000
0  44.443474 -27.802973 39.584820  0.442971 -0.343595 -0.828082  0.279305 0.363262 1 0 1.000000
0  44.154434 -28.105776 39.681164  0.525619 -0.655030 -0.542826  0.270516 0.366192 1 0 1.000000
misc
0  44.154434 -28.105776 39.681164  0.525619 -0.655030 -0.542826  0.270516 0.366192 1 0 1.000000
0  43.548824 -28.532457 39.626110  0.477185 -0.647161 -0.594539  0.255867 0.364238 1 0 1.000000
0  42.750519 -28.807737 39.130608  0.407085 -0.559166 -0.722229  0.238289 0.339824 1 0 1.000000
misc
0  43.548824 -28.532457 39.626110  0.477185 -0.647161 -0.594539  0.255867 0.364238 1 0 1.000000
0  41.718239 -29.688623 39.543526  0.432948 -0.832309 -0.346147  0.217780 0.361309 1 0 1.000000
0  42.750519 -28.807737 39.130608  0.407085 -0.559166 -0.722229  0.238289 0.339824 1 0 1.000000
misc
0  41.718239 -29.688623 39.543526  0.432948 -0.832309 -0.346147  0.217780 0.361309 1 0 1.000000
0  43.548824 -28.532457 39.626110  0.477185 -0.647161 -0.594539  0.255867 0.364238 1 0 1.000000
0  43.590115 -28.697624 39.791271  0.414408 -0.575167 -0.705300  0.255867 0.376934 1 0 1.000000
misc
0  43.590115 -28.697624 39.791271  0.414408 -0.575167 -0.705300  0.255867 0.376934 1 0 1.000000
0  41.649414 -29.729914 39.708691  0.449923 -0.892579 -0.029528  0.217780 0.375957 1 0 1.000000
0  41.718239 -29.688623 39.543526  0.432948 -0.832309 -0.346147  0.217780 0.361309 1 0 1.000000
misc
0  41.787056 -29.633564 39.887619  0.460910 -0.882645 0.092194  0.220710 0.389630 1 0 1.000000
0  41.649414 -29.729914 39.708691  0.449923 -0.892579 -0.029528  0.217780 0.375957 1 0 1.000000
0  43.590115 -28.697624 39.791271  0.414408 -0.575167 -0.705300  0.255867 0.376934 1 0 1.000000
misc
0  41.649414 -29.729914 39.708691  0.449923 -0.892579 -0.029528  0.217780 0.375957 1 0 1.000000
0  36.405392 -32.179878 39.571049  0.406933 -0.884254 0.229128  0.126957 0.374981 1 0 1.000000
0  36.556793 -32.152351 39.378357  0.428346 -0.903456 -0.016964  0.125004 0.356426 1 0 1.000000
misc
0  36.556793 -32.152351 39.378357  0.428346 -0.903456 -0.016964  0.125004 0.356426 1 0 1.000000
0  41.718239 -29.688623 39.543526  0.432948 -0.832309 -0.346147  0.217780 0.361309 1 0 1.000000
0  41.649414 -29.729914 39.708691  0.449923 -0.892579 -0.029528  0.217780 0.375957 1 0 1.000000
misc
0  42.750519 -28.807737 39.130608  0.407085 -0.559166 -0.722229  0.238289 0.339824 1 0 1.000000
0  41.718239 -29.688623 39.543526  0.432948 -0.832309 -0.346147  0.217780 0.361309 1 0 1.000000
0  36.556793 -32.152351 39.378357  0.428346 -0.903456 -0.016964  0.125004 0.356426 1 0 1.000000
misc
0  36.556793 -32.152351 39.378357  0.428346 -0.903456 -0.016964  0.125004 0.356426 1 0 1.000000
0  36.928417 -31.409103 38.648872  0.340846 -0.628574 -0.699084  0.132817 0.329081 1 0 1.000000
0  42.750519 -28.807737 39.130608  0.407085 -0.559166 -0.722229  0.238289 0.339824 1 0 1.000000
misc
0  42.874393 -27.954378 38.896622  0.277356 -0.132320 -0.951612  0.245125 0.323222 1 0 1.000000
0  42.750519 -28.807737 39.130608  0.407085 -0.559166 -0.722229  0.238289 0.339824 1 0 1.000000
0  36.928417 -31.409103 38.648872  0.340846 -0.628574 -0.699084  0.132817 0.329081 1 0 1.000000
misc
0  36.928417 -31.409103 38.648872  0.340846 -0.628574 -0.699084  0.132817 0.329081 1 0 1.000000
0  37.313805 -30.005192 38.277252  0.183349 -0.208699 -0.960639  0.147465 0.290017 1 0 1.000000
0  42.874393 -27.954378 38.896622  0.277356 -0.132320 -0.951612  0.245125 0.323222 1 0 1.000000
misc
0  42.874393 -27.954378 38.896622  0.277356 -0.132320 -0.951612  0.245125 0.323222 1 0 1.000000
0  41.222733 -26.509172 38.607586  0.166482 -0.006154 -0.986025  0.240242 0.259743 1 0 1.000000
0  42.888161 -25.889799 39.103081  0.215092 0.063649 -0.974518  0.270516 0.275369 1 0 1.000000
misc
0  39.750000 -26.963379 38.456181  0.124330 -0.045549 -0.991195  0.212897 0.248024 1 0 1.000000
0  41.222733 -26.509172 38.607586  0.166482 -0.006154 -0.986025  0.240242 0.259743 1 0 1.000000
0  42.874393 -27.954378 38.896622  0.277356 -0.132320 -0.951612  0.245125 0.323222 1 0 1.000000
misc
0  39.750000 -26.963379 38.456181  0.124330 -0.045549 -0.991195  0.212897 0.248024 1 0 1.000000
0  42.874393 -27.954378 38.896622  0.277356 -0.132320 -0.951612  0.245125 0.323222 1 0 1.000000
0  37.313805 -30.005192 38.277252  0.183349 -0.208699 -0.960639  0.147465 0.290017 1 0 1.000000
misc
0  39.750000 -26.963379 38.456181  0.124330 -0.045549 -0.991195  0.212897 0.248024 1 0 1.000000
0  37.313805 -30.005192 38.277252  0.183349 -0.208699 -0.960639  0.147465 0.290017 1 0 1.000000
0  37.382622 -27.720394 38.194668  0.118428 -0.037283 -0.992262  0.172857 0.228492 1 0 1.000000
misc
0  42.888161 -25.889799 39.103081  -0.359913 0.931358 0.055088  0.270516 0.275369 1 0 1.000000
0  41.222733 -26.509172 38.607586  -0.349829 0.933996 0.072604  0.240242 0.259743 1 0 1.000000
0  40.630886 -26.743158 38.924152  -0.304301 0.938135 0.165236  0.254891 0.199194 1 0 1.000000
misc
0  39.626129 -27.087255 39.061790  -0.268673 0.953290 0.138036  0.249031 0.150365 1 0 1.000000
0  40.630886 -26.743158 38.924152  -0.304301 0.938135 0.165236  0.254891 0.199194 1 0 1.000000
0  41.222733 -26.509172 38.607586  -0.349829 0.933996 0.072604  0.240242 0.259743 1 0 1.000000
misc
0  41.222733 -26.509172 38.607586  -0.349829 0.933996 0.072604  0.240242 0.259743 1 0 1.000000
0  39.750000 -26.963379 38.456181  -0.299738 0.947052 0.115108  0.212897 0.248024 1 0 1.000000
0  39.626129 -27.087255 39.061790  -0.268673 0.953290 0.138036  0.249031 0.150365 1 0 1.000000
misc
0  39.750000 -26.963379 38.456181  -0.299738 0.947052 0.115108  0.212897 0.248024 1 0 1.000000
0  38.855350 -27.335005 39.419651  -0.264382 0.963542 0.041093  0.249031 0.135716 1 0 1.000000
0  39.626129 -27.087255 39.061790  -0.268673 0.953290 0.138036  0.249031 0.150365 1 0 1.000000
misc
0  38.855350 -27.335005 39.419651  -0.264382 0.963542 0.041093  0.249031 0.135716 1 0 1.000000
0  39.750000 -26.963379 38.456181  -0.299738 0.947052 0.115108  0.212897 0.248024 1 0 1.000000
0  37.382622 -27.720394 38.194668  -0.195348 0.978514 -0.065947  0.172857 0.228492 1 0 1.000000
misc
0  37.382622 -27.720394 38.194668  -0.195348 0.978514 -0.065947  0.172857 0.228492 1 0 1.000000
0  36.777012 -27.665337 39.268250  -0.146211 0.981189 -0.126056  0.216803 0.117161 1 0 1.000000
0  38.855350 -27.335005 39.419651  -0.264382 0.963542 0.041093  0.249031 0.135716 1 0 1.000000
misc
0  46.246536 -24.320721 43.287292  -0.842895 0.431530 -0.321418  0.991241 0.443342 1 0 1.000000
0  44.828861 -27.183601 43.149654  -0.648146 0.536916 -0.540026  0.991241 0.471664 1 0 1.000000
0  45.957497 -24.403303 43.713970  -0.712133 0.405947 -0.572777  0.991241 0.443342 1 0 1.000000
misc
0  45.957497 -24.403303 43.713970  -0.712133 0.405947 -0.572777  0.991241 0.443342 1 0 1.000000
0  44.828861 -27.183601 43.149654  -0.648146 0.536916 -0.540026  0.991241 0.471664 1 0 1.000000
0  45.448235 -24.540943 44.016777  -0.487556 0.374246 -0.788815  0.991241 0.443342 1 0 1.000000
misc
0  45.448235 -24.540943 44.016777  -0.487556 0.374246 -0.788815  0.991241 0.443342 1 0 1.000000
0  44.828861 -27.183601 43.149654  -0.648146 0.536916 -0.540026  0.991241 0.471664 1 0 1.000000
0  44.360893 -24.857510 44.374638  -0.313055 0.394767 -0.863803  0.991241 0.443342 1 0 1.000000
misc
0  42.241261 -25.463121 44.663681  -0.181980 0.444313 -0.877194  0.992218 0.443342 1 0 1.000000
0  44.360893 -24.857510 44.374638  -0.313055 0.394767 -0.863803  0.991241 0.443342 1 0 1.000000
0  44.828861 -27.183601 43.149654  -0.648146 0.536916 -0.540026  0.991241 0.471664 1 0 1.000000
misc
0  44.828861 -27.183601 43.149654  -0.648146 0.536916 -0.540026  0.991241 0.471664 1 0 1.000000
0  39.928932 -28.876556 43.314819  0.467030 0.690714 -0.552085  0.991241 0.471664 1 0 1.000000
0  42.241261 -25.463121 44.663681  -0.181980 0.444313 -0.877194  0.992218 0.443342 1 0 1.000000
misc
0  42.241261 -25.463121 44.663681  -0.181980 0.444313 -0.877194  0.992218 0.443342 1 0 1.000000
0  39.928932 -28.876556 43.314819  0.467030 0.690714 -0.552085  0.991241 0.471664 1 0 1.000000
0  40.135391 -26.054968 44.608620  -0.021691 0.419255 -0.907609  0.992218 0.443342 1 0 1.000000
misc
0  40.135391 -26.054968 44.608620  -0.021691 0.419255 -0.907609  0.992218 0.443342 1 0 1.000000
0  39.928932 -28.876556 43.314819  0.467030 0.690714 -0.552085  0.991241 0.471664 1 0 1.000000
0  38.745243 -26.454121 44.278286  0.193236 0.445012 -0.874428  0.992218 0.443342 1 0 1.000000
misc
0  38.745243 -26.454121 44.278286  0.193236 0.445012 -0.874428  0.992218 0.443342 1 0 1.000000
0  39.928932 -28.876556 43.314819  0.467030 0.690714 -0.552085  0.991241 0.471664 1 0 1.000000
0  38.414909 -26.536701 44.126888  0.514281 0.559500 -0.649981  0.991241 0.443342 1 0 1.000000
misc
0  38.414909 -26.536701 44.126888  0.514281 0.559500 -0.649981  0.991241 0.443342 1 0 1.000000
0  39.928932 -28.876556 43.314819  0.467030 0.690714 -0.552085  0.991241 0.471664 1 0 1.000000
0  38.180923 -26.591757 43.645149  0.747546 0.611388 -0.259577  0.991241 0.443342 1 0 1.000000
misc
0  38.180923 -26.591757 43.645149  0.747546 0.611388 -0.259577  0.991241 0.443342 1 0 1.000000
0  39.928932 -28.876556 43.314819  0.467030 0.690714 -0.552085  0.991241 0.471664 1 0 1.000000
0  38.098339 -26.619284 42.956959  0.794608 0.606883 0.017039  0.991241 0.443342 1 0 1.000000
misc
0  38.098339 -26.619284 42.956959  0.794608 0.606883 0.017039  0.991241 0.443342 1 0 1.000000
0  39.928932 -28.876556 43.314819  0.467030 0.690714 -0.552085  0.991241 0.471664 1 0 1.000000
0  40.259266 -28.849028 39.818802  0.448231 0.446301 0.774535  0.988311 0.471664 1 0 1.000000
misc
0  40.259266 -28.849028 39.818802  0.448231 0.446301 0.774535  0.988311 0.471664 1 0 1.000000
0  38.442436 -26.495411 41.098839  0.828533 0.500726 0.250614  0.989288 0.443342 1 0 1.000000
0  38.098339 -26.619284 42.956959  0.794608 0.606883 0.017039  0.991241 0.443342 1 0 1.000000
misc
0  38.442436 -26.495411 41.098839  0.828533 0.500726 0.250614  0.989288 0.443342 1 0 1.000000
0  40.259266 -28.849028 39.818802  0.448231 0.446301 0.774535  0.988311 0.471664 1 0 1.000000
0  38.717716 -26.412827 40.396885  0.785021 0.377432 0.491210  0.988311 0.443342 1 0 1.000000
misc
0  38.717716 -26.412827 40.396885  0.785021 0.377432 0.491210  0.988311 0.443342 1 0 1.000000
0  40.259266 -28.849028 39.818802  0.448231 0.446301 0.774535  0.988311 0.471664 1 0 1.000000
0  39.075573 -26.302715 39.970203  0.619164 0.243439 0.746574  0.988311 0.443342 1 0 1.000000
misc
0  39.075573 -26.302715 39.970203  0.619164 0.243439 0.746574  0.988311 0.443342 1 0 1.000000
0  40.259266 -28.849028 39.818802  0.448231 0.446301 0.774535  0.988311 0.471664 1 0 1.000000
0  39.502254 -26.178843 39.681164  0.370627 0.149279 0.916707  0.988311 0.443342 1 0 1.000000
misc
0  39.502254 -26.178843 39.681164  0.370627 0.149279 0.916707  0.988311 0.443342 1 0 1.000000
0  40.259266 -28.849028 39.818802  0.448231 0.446301 0.774535  0.988311 0.471664 1 0 1.000000
0  40.383141 -25.931089 39.433414  0.060830 0.124766 0.990320  0.987335 0.443342 1 0 1.000000
misc
0  40.383141 -25.931089 39.433414  0.060830 0.124766 0.990320  0.987335 0.443342 1 0 1.000000
0  40.259266 -28.849028 39.818802  0.448231 0.446301 0.774535  0.988311 0.471664 1 0 1.000000
0  42.667938 -25.284189 39.474709  -0.189104 0.265946 0.945258  0.987335 0.443342 1 0 1.000000
misc
0  44.402184 -27.445112 40.617104  -0.594904 0.409309 0.691777  0.989288 0.471664 1 0 1.000000
0  42.667938 -25.284189 39.474709  -0.189104 0.265946 0.945258  0.987335 0.443342 1 0 1.000000
0  40.259266 -28.849028 39.818802  0.448231 0.446301 0.774535  0.988311 0.471664 1 0 1.000000
misc
0  44.402184 -27.445112 40.617104  -0.594904 0.409309 0.691777  0.989288 0.471664 1 0 1.000000
0  43.837868 -24.953857 39.584820  -0.265176 0.316112 0.910909  0.988311 0.443342 1 0 1.000000
0  42.667938 -25.284189 39.474709  -0.189104 0.265946 0.945258  0.987335 0.443342 1 0 1.000000
misc
0  44.402184 -27.445112 40.617104  -0.594904 0.409309 0.691777  0.989288 0.471664 1 0 1.000000
0  45.117901 -24.595995 39.970203  -0.559611 0.312395 0.767622  0.988311 0.443342 1 0 1.000000
0  43.837868 -24.953857 39.584820  -0.265176 0.316112 0.910909  0.988311 0.443342 1 0 1.000000
misc
0  45.117901 -24.595995 39.970203  -0.559611 0.312395 0.767622  0.988311 0.443342 1 0 1.000000
0  44.402184 -27.445112 40.617104  -0.594904 0.409309 0.691777  0.989288 0.471664 1 0 1.000000
0  46.012550 -24.348246 40.768505  -0.821042 0.406461 0.400849  0.989288 0.443342 1 0 1.000000
misc
0  46.012550 -24.348246 40.768505  -0.821042 0.406461 0.400849  0.989288 0.443342 1 0 1.000000
0  44.402184 -27.445112 40.617104  -0.594904 0.409309 0.691777  0.989288 0.471664 1 0 1.000000
0  46.315357 -24.279430 41.731979  -0.875589 0.465602 0.128680  0.990265 0.443342 1 0 1.000000
misc
0  46.315357 -24.279430 41.731979  -0.875589 0.465602 0.128680  0.990265 0.443342 1 0 1.000000
0  44.402184 -27.445112 40.617104  -0.594904 0.409309 0.691777  0.989288 0.471664 1 0 1.000000
0  44.828861 -27.183601 43.149654  -0.648146 0.536916 -0.540026  0.991241 0.471664 1 0 1.000000
misc
0  44.828861 -27.183601 43.149654  -0.648146 0.536916 -0.540026  0.991241 0.471664 1 0 1.000000
0  46.370411 -24.265667 42.874374  -0.883545 0.462253 -0.075302  0.990265 0.443342 1 0 1.000000
0  46.315357 -24.279430 41.731979  -0.875589 0.465602 0.128680  0.990265 0.443342 1 0 1.000000
misc
0  46.370411 -24.265667 42.874374  -0.883545 0.462253 -0.075302  0.990265 0.443342 1 0 1.000000
0  44.828861 -27.183601 43.149654  -0.648146 0.536916 -0.540026  0.991241 0.471664 1 0 1.000000
0  46.246536 -24.320721 43.287292  -0.842895 0.431530 -0.321418  0.991241 0.443342 1 0 1.000000
misc
0  38.304798 -28.202126 40.094078  -0.147370 0.627040 0.764920  0.257820 0.101535 1 0 1.000000
0  36.267746 -29.261944 40.534523  -0.049468 0.163386 0.985321  0.246101 0.035127 1 0 1.000000
0  38.153397 -28.931610 40.534523  -0.035163 0.191033 0.980954  0.266610 0.069308 1 0 1.000000
misc
0  38.304798 -28.202126 40.094078  -0.147370 0.627040 0.764920  0.257820 0.101535 1 0 1.000000
0  36.777012 -27.665337 39.268250  -0.171817 0.654463 0.736313  0.216803 0.117161 1 0 1.000000
0  36.267746 -29.261944 40.534523  -0.049468 0.163386 0.985321  0.246101 0.035127 1 0 1.000000
misc
0  38.304798 -28.202126 40.094078  -0.147370 0.627040 0.764920  0.257820 0.101535 1 0 1.000000
0  38.855350 -27.335005 39.419651  -0.159432 0.671068 0.724051  0.249031 0.135716 1 0 1.000000
0  36.777012 -27.665337 39.268250  -0.171817 0.654463 0.736313  0.216803 0.117161 1 0 1.000000
misc
0  36.309044 -30.569511 40.300533  0.101396 -0.394538 0.913268  0.145512 0.423811 1 0 1.000000
0  38.924175 -30.115301 40.231712  0.100345 -0.440633 0.892061  0.188482 0.404279 1 0 1.000000
0  38.469967 -29.633564 40.396885  0.071987 -0.266947 0.961019  0.183599 0.441389 1 0 1.000000
misc
0  39.708714 -30.266705 40.039021  0.212300 -0.572164 0.792185  0.196295 0.400372 1 0 1.000000
0  38.924175 -30.115301 40.231712  0.100345 -0.440633 0.892061  0.188482 0.404279 1 0 1.000000
0  36.309044 -30.569511 40.300533  0.101396 -0.394538 0.913268  0.145512 0.423811 1 0 1.000000
misc
0  39.708714 -30.266705 40.039021  0.212300 -0.572164 0.792185  0.196295 0.400372 1 0 1.000000
0  36.309044 -30.569511 40.300533  0.101396 -0.394538 0.913268  0.145512 0.423811 1 0 1.000000
0  36.405392 -32.179878 39.571049  0.126432 -0.442663 0.887730  0.126957 0.374981 1 0 1.000000
misc
0  39.708714 -30.266705 40.039021  0.212410 -0.572271 0.792078  0.196295 0.400372 1 0 1.000000
0  36.405392 -32.179878 39.571049  0.126531 -0.442776 0.887659  0.126957 0.374981 1 0 1.000000
0  41.787056 -29.633564 39.887619  0.398713 -0.878054 0.264668  0.220710 0.389630 1 0 1.000000
misc
0  36.405392 -32.179878 39.571049  0.126531 -0.442776 0.887659  0.126957 0.374981 1 0 1.000000
0  41.649414 -29.729914 39.708691  0.416545 -0.899433 0.132328  0.217780 0.375957 1 0 1.000000
0  41.787056 -29.633564 39.887619  0.398713 -0.878054 0.264668  0.220710 0.389630 1 0 1.000000
misc
0  40.383141 -25.931089 39.433414  -0.272149 0.962182 0.011888  0.987335 0.443342 1 0 1.000000
0  40.479488 -25.889799 39.158138  -0.261183 0.739660 -0.620231  0.987335 0.402326 1 0 1.000000
0  39.488491 -26.178843 39.405888  -0.430737 0.724448 -0.538182  0.987335 0.402326 1 0 1.000000
misc
0  40.479488 -25.889799 39.158138  -0.261183 0.739660 -0.620231  0.987335 0.402326 1 0 1.000000
0  40.383141 -25.931089 39.433414  -0.272149 0.962182 0.011888  0.987335 0.443342 1 0 1.000000
0  42.667938 -25.284189 39.474709  -0.271567 0.962345 0.011964  0.987335 0.443342 1 0 1.000000
misc
0  42.667938 -25.284189 39.474709  -0.271567 0.962345 0.011964  0.987335 0.443342 1 0 1.000000
0  42.695465 -25.270426 39.199429  -0.148886 0.739617 -0.656354  0.987335 0.402326 1 0 1.000000
0  40.479488 -25.889799 39.158138  -0.261183 0.739660 -0.620231  0.987335 0.402326 1 0 1.000000
misc
0  43.879158 -24.940094 39.350830  -0.083234 0.751268 -0.654728  0.987335 0.402326 1 0 1.000000
0  42.695465 -25.270426 39.199429  -0.148886 0.739617 -0.656354  0.987335 0.402326 1 0 1.000000
0  42.667938 -25.284189 39.474709  -0.271567 0.962345 0.011964  0.987335 0.443342 1 0 1.000000
misc
0  42.667938 -25.284189 39.474709  -0.271567 0.962345 0.011964  0.987335 0.443342 1 0 1.000000
0  43.837868 -24.953857 39.584820  -0.272072 0.962204 0.011856  0.988311 0.443342 1 0 1.000000
0  43.879158 -24.940094 39.350830  -0.083234 0.751268 -0.654728  0.987335 0.402326 1 0 1.000000
misc
0  43.879158 -24.940094 39.350830  -0.083234 0.751268 -0.654728  0.987335 0.402326 1 0 1.000000
0  43.837868 -24.953857 39.584820  -0.272072 0.962204 0.011856  0.988311 0.443342 1 0 1.000000
0  45.117901 -24.595995 39.970203  -0.272611 0.962056 0.011458  0.988311 0.443342 1 0 1.000000
misc
0  45.117901 -24.595995 39.970203  -0.272611 0.962056 0.011458  0.988311 0.443342 1 0 1.000000
0  45.283070 -24.540941 39.805038  0.221715 0.746823 -0.626975  0.988311 0.402326 1 0 1.000000
0  43.879158 -24.940094 39.350830  -0.083234 0.751268 -0.654728  0.987335 0.402326 1 0 1.000000
misc
0  46.232773 -24.293192 40.727215  0.510653 0.766877 -0.388759  0.989288 0.402326 1 0 1.000000
0  45.283070 -24.540941 39.805038  0.221715 0.746823 -0.626975  0.988311 0.402326 1 0 1.000000
0  45.117901 -24.595995 39.970203  -0.272611 0.962056 0.011458  0.988311 0.443342 1 0 1.000000
misc
0  45.117901 -24.595995 39.970203  -0.272611 0.962056 0.011458  0.988311 0.443342 1 0 1.000000
0  46.012550 -24.348246 40.768505  -0.272155 0.962180 0.011901  0.989288 0.443342 1 0 1.000000
0  46.232773 -24.293192 40.727215  0.510653 0.766877 -0.388759  0.989288 0.402326 1 0 1.000000
misc
0  46.508053 -24.224373 41.745743  0.597926 0.792732 -0.118579  0.990265 0.402326 1 0 1.000000
0  46.232773 -24.293192 40.727215  0.510653 0.766877 -0.388759  0.989288 0.402326 1 0 1.000000
0  46.012550 -24.348246 40.768505  -0.272155 0.962180 0.011901  0.989288 0.443342 1 0 1.000000
misc
0  46.012550 -24.348246 40.768505  -0.272155 0.962180 0.011901  0.989288 0.443342 1 0 1.000000
0  46.315357 -24.279430 41.731979  -0.272232 0.962158 0.011896  0.990265 0.443342 1 0 1.000000
0  46.508053 -24.224373 41.745743  0.597926 0.792732 -0.118579  0.990265 0.402326 1 0 1.000000
misc
0  46.508053 -24.224373 41.745743  0.597926 0.792732 -0.118579  0.990265 0.402326 1 0 1.000000
0  46.315357 -24.279430 41.731979  -0.272232 0.962158 0.011896  0.990265 0.443342 1 0 1.000000
0  46.370411 -24.265667 42.874374  -0.272129 0.962187 0.011906  0.990265 0.443342 1 0 1.000000
misc
0  38.001991 -26.646811 43.769032  -0.791764 0.576022 0.203244  0.991241 0.402326 1 0 1.000000
0  37.946938 -27.307478 43.713970  -0.972991 0.060021 0.222903  0.991241 0.349590 1 0 1.000000
0  38.277271 -26.949617 44.333347  -0.762628 -0.034504 0.645916  0.992218 0.349590 1 0 1.000000
misc
0  37.946938 -27.307478 43.713970  -0.972991 0.060021 0.222903  0.991241 0.349590 1 0 1.000000
0  38.001991 -26.646811 43.769032  -0.791764 0.576022 0.203244  0.991241 0.402326 1 0 1.000000
0  37.905647 -26.660574 42.901905  -0.787595 0.616191 0.001650  0.990265 0.402326 1 0 1.000000
misc
0  37.905647 -26.660574 42.901905  -0.787595 0.616191 0.001650  0.990265 0.402326 1 0 1.000000
0  37.768009 -27.885563 42.654156  -0.989247 0.104779 -0.102035  0.990265 0.349590 1 0 1.000000
0  37.946938 -27.307478 43.713970  -0.972991 0.060021 0.222903  0.991241 0.349590 1 0 1.000000
misc
0  37.768009 -27.885563 42.654156  -0.989247 0.104779 -0.102035  0.990265 0.349590 1 0 1.000000
0  37.905647 -26.660574 42.901905  -0.787595 0.616191 0.001650  0.990265 0.402326 1 0 1.000000
0  38.222214 -26.564230 41.098839  -0.765300 0.623686 -0.159159  0.989288 0.402326 1 0 1.000000
misc
0  38.222214 -26.564230 41.098839  -0.765300 0.623686 -0.159159  0.989288 0.402326 1 0 1.000000
0  38.153397 -28.931610 40.534523  -0.973000 0.095979 -0.209904  0.989288 0.349590 1 0 1.000000
0  37.768009 -27.885563 42.654156  -0.989247 0.104779 -0.102035  0.990265 0.349590 1 0 1.000000
misc
0  38.153397 -28.931610 40.534523  -0.973000 0.095979 -0.209904  0.989288 0.349590 1 0 1.000000
0  38.222214 -26.564230 41.098839  -0.765300 0.623686 -0.159159  0.989288 0.402326 1 0 1.000000
0  38.511257 -26.467882 40.314301  -0.719492 0.638517 -0.273179  0.988311 0.402326 1 0 1.000000
misc
0  38.511257 -26.467882 40.314301  -0.719492 0.638517 -0.273179  0.988311 0.402326 1 0 1.000000
0  38.304798 -28.202126 40.094078  -0.968231 0.148525 -0.201169  0.988311 0.349590 1 0 1.000000
0  38.153397 -28.931610 40.534523  -0.973000 0.095979 -0.209904  0.989288 0.349590 1 0 1.000000
misc
0  38.304798 -28.202126 40.094078  -0.968231 0.148525 -0.201169  0.988311 0.349590 1 0 1.000000
0  38.511257 -26.467882 40.314301  -0.719492 0.638517 -0.273179  0.988311 0.402326 1 0 1.000000
0  38.869114 -26.357769 39.818802  -0.611176 0.680951 -0.403447  0.988311 0.402326 1 0 1.000000
misc
0  38.869114 -26.357769 39.818802  -0.611176 0.680951 -0.403447  0.988311 0.402326 1 0 1.000000
0  38.855350 -27.335005 39.419651  -0.744466 0.235344 -0.624806  0.988311 0.349590 1 0 1.000000
0  38.304798 -28.202126 40.094078  -0.968231 0.148525 -0.201169  0.988311 0.349590 1 0 1.000000
misc
0  38.855350 -27.335005 39.419651  -0.744466 0.235344 -0.624806  0.988311 0.349590 1 0 1.000000
0  38.869114 -26.357769 39.818802  -0.611176 0.680951 -0.403447  0.988311 0.402326 1 0 1.000000
0  39.488491 -26.178843 39.405888  -0.430737 0.724448 -0.538182  0.987335 0.402326 1 0 1.000000
misc
0  39.488491 -26.178843 39.405888  -0.430737 0.724448 -0.538182  0.987335 0.402326 1 0 1.000000
0  39.626129 -27.087255 39.061790  -0.380426 0.259707 -0.887597  0.987335 0.349590 1 0 1.000000
0  38.855350 -27.335005 39.419651  -0.744466 0.235344 -0.624806  0.988311 0.349590 1 0 1.000000
misc
0  39.626129 -27.087255 39.061790  -0.380426 0.259707 -0.887597  0.987335 0.349590 1 0 1.000000
0  39.488491 -26.178843 39.405888  -0.430737 0.724448 -0.538182  0.987335 0.402326 1 0 1.000000
0  40.479488 -25.889799 39.158138  -0.261183 0.739660 -0.620231  0.987335 0.402326 1 0 1.000000
misc
0  40.479488 -25.889799 39.158138  -0.261183 0.739660 -0.620231  0.987335 0.402326 1 0 1.000000
0  40.630886 -26.743158 38.924152  -0.126720 0.226552 -0.965721  0.987335 0.349590 1 0 1.000000
0  39.626129 -27.087255 39.061790  -0.380426 0.259707 -0.887597  0.987335 0.349590 1 0 1.000000
misc
0  40.630886 -26.743158 38.924152  -0.126720 0.226552 -0.965721  0.987335 0.349590 1 0 1.000000
0  40.479488 -25.889799 39.158138  -0.261183 0.739660 -0.620231  0.987335 0.402326 1 0 1.000000
0  42.695465 -25.270426 39.199429  -0.148886 0.739617 -0.656354  0.987335 0.402326 1 0 1.000000
misc
0  42.695465 -25.270426 39.199429  -0.148886 0.739617 -0.656354  0.987335 0.402326 1 0 1.000000
0  42.888161 -25.889799 39.103081  0.049894 0.155520 -0.986572  0.987335 0.349590 1 0 1.000000
0  40.630886 -26.743158 38.924152  -0.126720 0.226552 -0.965721  0.987335 0.349590 1 0 1.000000
misc
0  42.888161 -25.889799 39.103081  0.049894 0.155520 -0.986572  0.987335 0.349590 1 0 1.000000
0  42.695465 -25.270426 39.199429  -0.148886 0.739617 -0.656354  0.987335 0.402326 1 0 1.000000
0  43.879158 -24.940094 39.350830  -0.083234 0.751268 -0.654728  0.987335 0.402326 1 0 1.000000
misc
0  43.879158 -24.940094 39.350830  -0.083234 0.751268 -0.654728  0.987335 0.402326 1 0 1.000000
0  44.305832 -25.284187 39.337067  0.190859 0.231574 -0.953911  0.987335 0.349590 1 0 1.000000
0  42.888161 -25.889799 39.103081  0.049894 0.155520 -0.986572  0.987335 0.349590 1 0 1.000000
misc
0  44.305832 -25.284187 39.337067  0.190859 0.231574 -0.953911  0.987335 0.349590 1 0 1.000000
0  43.879158 -24.940094 39.350830  -0.083234 0.751268 -0.654728  0.987335 0.402326 1 0 1.000000
0  45.283070 -24.540941 39.805038  0.221715 0.746823 -0.626975  0.988311 0.402326 1 0 1.000000
misc
0  40.135391 -26.054968 44.608620  -0.272177 0.962174 0.011911  0.992218 0.443342 1 0 1.000000
0  40.121624 -26.068731 44.925190  -0.259455 0.559711 0.787024  0.992218 0.402326 1 0 1.000000
0  42.241261 -25.463121 44.980247  -0.126073 0.592497 0.795646  0.992218 0.402326 1 0 1.000000
misc
0  40.121624 -26.068731 44.925190  -0.259455 0.559711 0.787024  0.992218 0.402326 1 0 1.000000
0  40.135391 -26.054968 44.608620  -0.272177 0.962174 0.011911  0.992218 0.443342 1 0 1.000000
0  38.745243 -26.454121 44.278286  -0.272163 0.962177 0.011935  0.992218 0.443342 1 0 1.000000
misc
0  38.745243 -26.454121 44.278286  -0.272163 0.962177 0.011935  0.992218 0.443342 1 0 1.000000
0  38.717716 -26.454121 44.594856  -0.415505 0.522474 0.744565  0.992218 0.402326 1 0 1.000000
0  40.121624 -26.068731 44.925190  -0.259455 0.559711 0.787024  0.992218 0.402326 1 0 1.000000
misc
0  38.717716 -26.454121 44.594856  -0.415505 0.522474 0.744565  0.992218 0.402326 1 0 1.000000
0  38.745243 -26.454121 44.278286  -0.272163 0.962177 0.011935  0.992218 0.443342 1 0 1.000000
0  38.414909 -26.536701 44.126888  -0.272163 0.962178 0.011907  0.991241 0.443342 1 0 1.000000
misc
0  38.414909 -26.536701 44.126888  -0.272163 0.962178 0.011907  0.991241 0.443342 1 0 1.000000
0  38.277271 -26.577993 44.360874  -0.644963 0.519987 0.560032  0.992218 0.402326 1 0 1.000000
0  38.717716 -26.454121 44.594856  -0.415505 0.522474 0.744565  0.992218 0.402326 1 0 1.000000
misc
0  38.277271 -26.577993 44.360874  -0.644963 0.519987 0.560032  0.992218 0.402326 1 0 1.000000
0  38.414909 -26.536701 44.126888  -0.272163 0.962178 0.011907  0.991241 0.443342 1 0 1.000000
0  38.180923 -26.591757 43.645149  -0.272218 0.962162 0.011889  0.991241 0.443342 1 0 1.000000
misc
0  38.180923 -26.591757 43.645149  -0.272218 0.962162 0.011889  0.991241 0.443342 1 0 1.000000
0  38.001991 -26.646811 43.769032  -0.791764 0.576022 0.203244  0.991241 0.402326 1 0 1.000000
0  38.277271 -26.577993 44.360874  -0.644963 0.519987 0.560032  0.992218 0.402326 1 0 1.000000
misc
0  38.001991 -26.646811 43.769032  -0.791764 0.576022 0.203244  0.991241 0.402326 1 0 1.000000
0  38.180923 -26.591757 43.645149  -0.272218 0.962162 0.011889  0.991241 0.443342 1 0 1.000000
0  38.098339 -26.619284 42.956959  -0.272130 0.962187 0.011903  0.991241 0.443342 1 0 1.000000
misc
0  38.098339 -26.619284 42.956959  -0.272130 0.962187 0.011903  0.991241 0.443342 1 0 1.000000
0  37.905647 -26.660574 42.901905  -0.787595 0.616191 0.001650  0.990265 0.402326 1 0 1.000000
0  38.001991 -26.646811 43.769032  -0.791764 0.576022 0.203244  0.991241 0.402326 1 0 1.000000
misc
0  37.905647 -26.660574 42.901905  -0.787595 0.616191 0.001650  0.990265 0.402326 1 0 1.000000
0  38.098339 -26.619284 42.956959  -0.272130 0.962187 0.011903  0.991241 0.443342 1 0 1.000000
0  38.442436 -26.495411 41.098839  -0.272168 0.962176 0.011888  0.989288 0.443342 1 0 1.000000
misc
0  38.442436 -26.495411 41.098839  -0.272168 0.962176 0.011888  0.989288 0.443342 1 0 1.000000
0  38.222214 -26.564230 41.098839  -0.765300 0.623686 -0.159159  0.989288 0.402326 1 0 1.000000
0  37.905647 -26.660574 42.901905  -0.787595 0.616191 0.001650  0.990265 0.402326 1 0 1.000000
misc
0  38.222214 -26.564230 41.098839  -0.765300 0.623686 -0.159159  0.989288 0.402326 1 0 1.000000
0  38.442436 -26.495411 41.098839  -0.272168 0.962176 0.011888  0.989288 0.443342 1 0 1.000000
0  38.717716 -26.412827 40.396885  -0.272145 0.962182 0.011926  0.988311 0.443342 1 0 1.000000
misc
0  38.717716 -26.412827 40.396885  -0.272145 0.962182 0.011926  0.988311 0.443342 1 0 1.000000
0  38.511257 -26.467882 40.314301  -0.719492 0.638517 -0.273179  0.988311 0.402326 1 0 1.000000
0  38.222214 -26.564230 41.098839  -0.765300 0.623686 -0.159159  0.989288 0.402326 1 0 1.000000
misc
0  38.511257 -26.467882 40.314301  -0.719492 0.638517 -0.273179  0.988311 0.402326 1 0 1.000000
0  38.717716 -26.412827 40.396885  -0.272145 0.962182 0.011926  0.988311 0.443342 1 0 1.000000
0  39.075573 -26.302715 39.970203  -0.272120 0.962189 0.011936  0.988311 0.443342 1 0 1.000000
misc
0  39.075573 -26.302715 39.970203  -0.272120 0.962189 0.011936  0.988311 0.443342 1 0 1.000000
0  38.869114 -26.357769 39.818802  -0.611176 0.680951 -0.403447  0.988311 0.402326 1 0 1.000000
0  38.511257 -26.467882 40.314301  -0.719492 0.638517 -0.273179  0.988311 0.402326 1 0 1.000000
misc
0  38.869114 -26.357769 39.818802  -0.611176 0.680951 -0.403447  0.988311 0.402326 1 0 1.000000
0  39.075573 -26.302715 39.970203  -0.272120 0.962189 0.011936  0.988311 0.443342 1 0 1.000000
0  39.502254 -26.178843 39.681164  -0.271870 0.962259 0.012033  0.988311 0.443342 1 0 1.000000
misc
0  39.502254 -26.178843 39.681164  -0.271870 0.962259 0.012033  0.988311 0.443342 1 0 1.000000
0  39.488491 -26.178843 39.405888  -0.430737 0.724448 -0.538182  0.987335 0.402326 1 0 1.000000
0  38.869114 -26.357769 39.818802  -0.611176 0.680951 -0.403447  0.988311 0.402326 1 0 1.000000
misc
0  39.488491 -26.178843 39.405888  -0.430737 0.724448 -0.538182  0.987335 0.402326 1 0 1.000000
0  39.502254 -26.178843 39.681164  -0.271870 0.962259 0.012033  0.988311 0.443342 1 0 1.000000
0  40.383141 -25.931089 39.433414  -0.272149 0.962182 0.011888  0.987335 0.443342 1 0 1.000000
misc
0  46.563107 -24.224373 42.874374  0.611075 0.786063 0.093228  0.990265 0.402326 1 0 1.000000
0  46.576870 -24.472122 42.874374  0.992357 0.067823 0.103093  0.990265 0.349590 1 0 1.000000
0  46.521816 -24.485886 41.745743  0.985728 0.049980 -0.160753  0.990265 0.349590 1 0 1.000000
misc
0  46.576870 -24.472122 42.874374  0.992357 0.067823 0.103093  0.990265 0.349590 1 0 1.000000
0  46.563107 -24.224373 42.874374  0.611075 0.786063 0.093228  0.990265 0.402326 1 0 1.000000
0  46.452999 -24.251904 43.328583  0.539002 0.780148 0.317561  0.990265 0.402326 1 0 1.000000
misc
0  46.452999 -24.251904 43.328583  0.539002 0.780148 0.317561  0.990265 0.402326 1 0 1.000000
0  46.480526 -24.513412 43.287292  0.928908 0.073861 0.362871  0.990265 0.349590 1 0 1.000000
0  46.576870 -24.472122 42.874374  0.992357 0.067823 0.103093  0.990265 0.349590 1 0 1.000000
misc
0  46.480526 -24.513412 43.287292  0.928908 0.073861 0.362871  0.990265 0.349590 1 0 1.000000
0  46.452999 -24.251904 43.328583  0.539002 0.780148 0.317561  0.990265 0.402326 1 0 1.000000
0  46.150192 -24.348248 43.865376  0.398744 0.733319 0.550678  0.991241 0.402326 1 0 1.000000
misc
0  46.150192 -24.348248 43.865376  0.398744 0.733319 0.550678  0.991241 0.402326 1 0 1.000000
0  46.177719 -24.609760 43.851612  0.725810 0.058050 0.685442  0.991241 0.349590 1 0 1.000000
0  46.480526 -24.513412 43.287292  0.928908 0.073861 0.362871  0.990265 0.349590 1 0 1.000000
misc
0  46.177719 -24.609760 43.851612  0.725810 0.058050 0.685442  0.991241 0.349590 1 0 1.000000
0  46.150192 -24.348248 43.865376  0.398744 0.733319 0.550678  0.991241 0.402326 1 0 1.000000
0  45.489525 -24.540943 44.305813  0.148436 0.695822 0.702708  0.991241 0.402326 1 0 1.000000
misc
0  45.489525 -24.540943 44.305813  0.148436 0.695822 0.702708  0.991241 0.402326 1 0 1.000000
0  45.530823 -24.788691 44.278286  0.442976 -0.016565 0.896381  0.991241 0.349590 1 0 1.000000
0  46.177719 -24.609760 43.851612  0.725810 0.058050 0.685442  0.991241 0.349590 1 0 1.000000
misc
0  45.530823 -24.788691 44.278286  0.442976 -0.016565 0.896381  0.991241 0.349590 1 0 1.000000
0  45.489525 -24.540943 44.305813  0.148436 0.695822 0.702708  0.991241 0.402326 1 0 1.000000
0  44.388420 -24.857510 44.691208  0.001229 0.627949 0.778254  0.992218 0.402326 1 0 1.000000
misc
0  44.388420 -24.857510 44.691208  0.001229 0.627949 0.778254  0.992218 0.402326 1 0 1.000000
0  44.471001 -25.119022 44.636147  0.265733 -0.138967 0.953978  0.992218 0.349590 1 0 1.000000
0  45.530823 -24.788691 44.278286  0.442976 -0.016565 0.896381  0.991241 0.349590 1 0 1.000000
misc
0  44.471001 -25.119022 44.636147  0.265733 -0.138967 0.953978  0.992218 0.349590 1 0 1.000000
0  44.388420 -24.857510 44.691208  0.001229 0.627949 0.778254  0.992218 0.402326 1 0 1.000000
0  42.241261 -25.463121 44.980247  -0.126073 0.592497 0.795646  0.992218 0.402326 1 0 1.000000
misc
0  42.241261 -25.463121 44.980247  -0.126073 0.592497 0.795646  0.992218 0.402326 1 0 1.000000
0  42.323841 -25.724634 44.925190  0.112748 -0.183905 0.976456  0.992218 0.349590 1 0 1.000000
0  44.471001 -25.119022 44.636147  0.265733 -0.138967 0.953978  0.992218 0.349590 1 0 1.000000
misc
0  42.323841 -25.724634 44.925190  0.112748 -0.183905 0.976456  0.992218 0.349590 1 0 1.000000
0  42.241261 -25.463121 44.980247  -0.126073 0.592497 0.795646  0.992218 0.402326 1 0 1.000000
0  40.121624 -26.068731 44.925190  -0.259455 0.559711 0.787024  0.992218 0.402326 1 0 1.000000
misc
0  40.121624 -26.068731 44.925190  -0.259455 0.559711 0.787024  0.992218 0.402326 1 0 1.000000
0  40.217972 -26.330244 44.883900  -0.061971 -0.210432 0.975642  0.992218 0.349590 1 0 1.000000
0  42.323841 -25.724634 44.925190  0.112748 -0.183905 0.976456  0.992218 0.349590 1 0 1.000000
misc
0  40.217972 -26.330244 44.883900  -0.061971 -0.210432 0.975642  0.992218 0.349590 1 0 1.000000
0  40.121624 -26.068731 44.925190  -0.259455 0.559711 0.787024  0.992218 0.402326 1 0 1.000000
0  38.717716 -26.454121 44.594856  -0.415505 0.522474 0.744565  0.992218 0.402326 1 0 1.000000
misc
0  38.717716 -26.454121 44.594856  -0.415505 0.522474 0.744565  0.992218 0.402326 1 0 1.000000
0  38.745243 -26.715631 44.539803  -0.308174 -0.203692 0.929268  0.992218 0.349590 1 0 1.000000
0  40.217972 -26.330244 44.883900  -0.061971 -0.210432 0.975642  0.992218 0.349590 1 0 1.000000
misc
0  38.745243 -26.715631 44.539803  -0.308174 -0.203692 0.929268  0.992218 0.349590 1 0 1.000000
0  38.717716 -26.454121 44.594856  -0.415505 0.522474 0.744565  0.992218 0.402326 1 0 1.000000
0  38.277271 -26.577993 44.360874  -0.644963 0.519987 0.560032  0.992218 0.402326 1 0 1.000000
misc
0  38.277271 -26.577993 44.360874  -0.644963 0.519987 0.560032  0.992218 0.402326 1 0 1.000000
0  38.277271 -26.949617 44.333347  -0.762628 -0.034504 0.645916  0.992218 0.349590 1 0 1.000000
0  38.745243 -26.715631 44.539803  -0.308174 -0.203692 0.929268  0.992218 0.349590 1 0 1.000000
misc
0  38.277271 -26.949617 44.333347  -0.762628 -0.034504 0.645916  0.992218 0.349590 1 0 1.000000
0  38.277271 -26.577993 44.360874  -0.644963 0.519987 0.560032  0.992218 0.402326 1 0 1.000000
0  38.001991 -26.646811 43.769032  -0.791764 0.576022 0.203244  0.991241 0.402326 1 0 1.000000
misc
0  45.283070 -24.540941 39.805038  0.221715 0.746823 -0.626975  0.988311 0.402326 1 0 1.000000
0  45.338127 -24.885035 39.791271  0.518111 0.107271 -0.848560  0.988311 0.349590 1 0 1.000000
0  44.305832 -25.284187 39.337067  0.190859 0.231574 -0.953911  0.987335 0.349590 1 0 1.000000
misc
0  45.338127 -24.885035 39.791271  0.518111 0.107271 -0.848560  0.988311 0.349590 1 0 1.000000
0  45.283070 -24.540941 39.805038  0.221715 0.746823 -0.626975  0.988311 0.402326 1 0 1.000000
0  46.232773 -24.293192 40.727215  0.510653 0.766877 -0.388759  0.989288 0.402326 1 0 1.000000
misc
0  46.232773 -24.293192 40.727215  0.510653 0.766877 -0.388759  0.989288 0.402326 1 0 1.000000
0  46.246536 -24.540941 40.713451  0.841027 0.090986 -0.533287  0.989288 0.349590 1 0 1.000000
0  45.338127 -24.885035 39.791271  0.518111 0.107271 -0.848560  0.988311 0.349590 1 0 1.000000
misc
0  46.246536 -24.540941 40.713451  0.841027 0.090986 -0.533287  0.989288 0.349590 1 0 1.000000
0  46.232773 -24.293192 40.727215  0.510653 0.766877 -0.388759  0.989288 0.402326 1 0 1.000000
0  46.508053 -24.224373 41.745743  0.597926 0.792732 -0.118579  0.990265 0.402326 1 0 1.000000
misc
0  46.508053 -24.224373 41.745743  0.597926 0.792732 -0.118579  0.990265 0.402326 1 0 1.000000
0  46.521816 -24.485886 41.745743  0.985728 0.049980 -0.160753  0.990265 0.349590 1 0 1.000000
0  46.246536 -24.540941 40.713451  0.841027 0.090986 -0.533287  0.989288 0.349590 1 0 1.000000
misc
0  46.521816 -24.485886 41.745743  0.985728 0.049980 -0.160753  0.990265 0.349590 1 0 1.000000
0  46.508053 -24.224373 41.745743  0.597926 0.792732 -0.118579  0.990265 0.402326 1 0 1.000000
0  46.563107 -24.224373 42.874374  0.611075 0.786063 0.093228  0.990265 0.402326 1 0 1.000000
misc
0  46.370411 -24.265667 42.874374  -0.272129 0.962187 0.011906  0.990265 0.443342 1 0 1.000000
0  46.563107 -24.224373 42.874374  0.611075 0.786063 0.093228  0.990265 0.402326 1 0 1.000000
0  46.508053 -24.224373 41.745743  0.597926 0.792732 -0.118579  0.990265 0.402326 1 0 1.000000
misc
0  46.452999 -24.251904 43.328583  0.539002 0.780148 0.317561  0.990265 0.402326 1 0 1.000000
0  46.563107 -24.224373 42.874374  0.611075 0.786063 0.093228  0.990265 0.402326 1 0 1.000000
0  46.370411 -24.265667 42.874374  -0.272129 0.962187 0.011906  0.990265 0.443342 1 0 1.000000
misc
0  46.370411 -24.265667 42.874374  -0.272129 0.962187 0.011906  0.990265 0.443342 1 0 1.000000
0  46.246536 -24.320721 43.287292  -0.272165 0.962177 0.011894  0.991241 0.443342 1 0 1.000000
0  46.452999 -24.251904 43.328583  0.539002 0.780148 0.317561  0.990265 0.402326 1 0 1.000000
misc
0  46.452999 -24.251904 43.328583  0.539002 0.780148 0.317561  0.990265 0.402326 1 0 1.000000
0  46.246536 -24.320721 43.287292  -0.272165 0.962177 0.011894  0.991241 0.443342 1 0 1.000000
0  45.957497 -24.403303 43.713970  -0.272175 0.962174 0.011890  0.991241 0.443342 1 0 1.000000
misc
0  45.957497 -24.403303 43.713970  -0.272175 0.962174 0.011890  0.991241 0.443342 1 0 1.000000
0  46.150192 -24.348248 43.865376  0.398744 0.733319 0.550678  0.991241 0.402326 1 0 1.000000
0  46.452999 -24.251904 43.328583  0.539002 0.780148 0.317561  0.990265 0.402326 1 0 1.000000
misc
0  46.150192 -24.348248 43.865376  0.398744 0.733319 0.550678  0.991241 0.402326 1 0 1.000000
0  45.957497 -24.403303 43.713970  -0.272175 0.962174 0.011890  0.991241 0.443342 1 0 1.000000
0  45.448235 -24.540943 44.016777  -0.272143 0.962183 0.011922  0.991241 0.443342 1 0 1.000000
misc
0  45.448235 -24.540943 44.016777  -0.272143 0.962183 0.011922  0.991241 0.443342 1 0 1.000000
0  45.489525 -24.540943 44.305813  0.148436 0.695822 0.702708  0.991241 0.402326 1 0 1.000000
0  46.150192 -24.348248 43.865376  0.398744 0.733319 0.550678  0.991241 0.402326 1 0 1.000000
misc
0  45.489525 -24.540943 44.305813  0.148436 0.695822 0.702708  0.991241 0.402326 1 0 1.000000
0  45.448235 -24.540943 44.016777  -0.272143 0.962183 0.011922  0.991241 0.443342 1 0 1.000000
0  44.360893 -24.857510 44.374638  -0.272167 0.962176 0.011941  0.991241 0.443342 1 0 1.000000
misc
0  44.360893 -24.857510 44.374638  -0.272167 0.962176 0.011941  0.991241 0.443342 1 0 1.000000
0  44.388420 -24.857510 44.691208  0.001229 0.627949 0.778254  0.992218 0.402326 1 0 1.000000
0  45.489525 -24.540943 44.305813  0.148436 0.695822 0.702708  0.991241 0.402326 1 0 1.000000
misc
0  44.388420 -24.857510 44.691208  0.001229 0.627949 0.778254  0.992218 0.402326 1 0 1.000000
0  44.360893 -24.857510 44.374638  -0.272167 0.962176 0.011941  0.991241 0.443342 1 0 1.000000
0  42.241261 -25.463121 44.663681  -0.272156 0.962180 0.011878  0.992218 0.443342 1 0 1.000000
misc
0  42.241261 -25.463121 44.663681  -0.272156 0.962180 0.011878  0.992218 0.443342 1 0 1.000000
0  42.241261 -25.463121 44.980247  -0.126073 0.592497 0.795646  0.992218 0.402326 1 0 1.000000
0  44.388420 -24.857510 44.691208  0.001229 0.627949 0.778254  0.992218 0.402326 1 0 1.000000
misc
0  42.241261 -25.463121 44.980247  -0.126073 0.592497 0.795646  0.992218 0.402326 1 0 1.000000
0  42.241261 -25.463121 44.663681  -0.272156 0.962180 0.011878  0.992218 0.443342 1 0 1.000000
0  40.135391 -26.054968 44.608620  -0.272177 0.962174 0.011911  0.992218 0.443342 1 0 1.000000
skin_0
0  44.732517 -26.811974 39.433414  0.471989 -0.173419 -0.864380  0.030887 0.129882 1 0 1.000000
0  45.489525 -26.330240 39.763744  0.632059 -0.195232 -0.749924  0.032625 0.131074 1 0 1.000000
0  44.443474 -27.802973 39.584820  0.615863 -0.538289 -0.575290  0.027311 0.130428 1 0 1.000000
skin_0
0  45.489525 -26.330240 39.763744  0.632059 -0.195232 -0.749924  0.032625 0.131074 1 0 1.000000
0  44.732517 -26.811974 39.433414  0.471989 -0.173419 -0.864380  0.030887 0.129882 1 0 1.000000
0  44.498528 -25.655811 39.350830  0.364222 0.072864 -0.928458  0.035059 0.129583 1 0 1.000000
skin_0
0  44.498528 -25.655811 39.350830  0.364222 0.072864 -0.928458  0.035059 0.129583 1 0 1.000000
0  45.530823 -25.518173 39.763744  0.574451 0.076119 -0.814992  0.035556 0.131074 1 0 1.000000
0  45.489525 -26.330240 39.763744  0.632059 -0.195232 -0.749924  0.032625 0.131074 1 0 1.000000
skin_0
0  45.530823 -25.518173 39.763744  0.574451 0.076119 -0.814992  0.035556 0.131074 1 0 1.000000
0  44.498528 -25.655811 39.350830  0.364222 0.072864 -0.928458  0.035059 0.129583 1 0 1.000000
0  44.305832 -25.284187 39.337067  0.353558 0.134286 -0.925723  0.036400 0.129534 1 0 1.000000
skin_0
0  44.305832 -25.284187 39.337067  0.353558 0.134286 -0.925723  0.036400 0.129534 1 0 1.000000
0  45.338127 -24.885035 39.791271  0.517226 0.195007 -0.833336  0.037841 0.131173 1 0 1.000000
0  45.530823 -25.518173 39.763744  0.574451 0.076119 -0.814992  0.035556 0.131074 1 0 1.000000
skin_0
0  39.502258 -30.844786 41.360352  -0.037469 -0.953250 -0.299851  0.016335 0.136835 1 0 1.000000
0  41.690712 -30.404343 41.429169  0.308724 -0.906639 -0.287567  0.017924 0.137083 1 0 1.000000
0  41.690712 -30.610802 42.488983  0.303937 -0.950352 0.066739  0.017179 0.140908 1 0 1.000000
skin_0
0  41.690712 -30.404343 41.429169  0.308724 -0.906639 -0.287567  0.017924 0.137083 1 0 1.000000
0  39.502258 -30.844786 41.360352  -0.037469 -0.953250 -0.299851  0.016335 0.136835 1 0 1.000000
0  39.708714 -30.266705 40.039021  0.012476 -0.907668 -0.419502  0.018421 0.132067 1 0 1.000000
skin_0
0  39.708714 -30.266705 40.039021  0.012476 -0.907668 -0.419502  0.018421 0.132067 1 0 1.000000
0  41.787056 -29.633564 39.887619  0.320553 -0.852465 -0.412977  0.020705 0.131521 1 0 1.000000
0  41.690712 -30.404343 41.429169  0.308724 -0.906639 -0.287567  0.017924 0.137083 1 0 1.000000
skin_0
0  38.924175 -30.115301 40.231712  -0.495427 -0.759196 -0.422106  0.018967 0.132762 1 0 1.000000
0  39.708714 -30.266705 40.039021  0.012476 -0.907668 -0.419502  0.018421 0.132067 1 0 1.000000
0  39.502258 -30.844786 41.360352  -0.037469 -0.953250 -0.299851  0.016335 0.136835 1 0 1.000000
skin_0
0  45.090374 -27.885557 40.424412  0.699911 -0.572083 -0.427605  0.027013 0.133458 1 0 1.000000
0  43.631405 -28.945374 40.162899  0.483800 -0.758527 -0.436549  0.023189 0.132514 1 0 1.000000
0  44.154434 -28.105776 39.681164  0.561897 -0.650754 -0.510677  0.026218 0.130776 1 0 1.000000
skin_0
0  43.631405 -28.945374 40.162899  0.483800 -0.758527 -0.436549  0.023189 0.132514 1 0 1.000000
0  43.590115 -28.697624 39.791271  0.502714 -0.694346 -0.514939  0.024083 0.131173 1 0 1.000000
0  44.154434 -28.105776 39.681164  0.561897 -0.650754 -0.510677  0.026218 0.130776 1 0 1.000000
skin_0
0  41.787056 -29.633564 39.887619  0.320553 -0.852465 -0.412977  0.020705 0.131521 1 0 1.000000
0  43.590115 -28.697624 39.791271  0.502714 -0.694346 -0.514939  0.024083 0.131173 1 0 1.000000
0  43.631405 -28.945374 40.162899  0.483800 -0.758527 -0.436549  0.023189 0.132514 1 0 1.000000
skin_0
0  41.787056 -29.633564 39.887619  0.320553 -0.852465 -0.412977  0.020705 0.131521 1 0 1.000000
0  43.631405 -28.945374 40.162899  0.483800 -0.758527 -0.436549  0.023189 0.132514 1 0 1.000000
0  43.672703 -29.523457 41.525517  0.513066 -0.826439 -0.231867  0.021103 0.137431 1 0 1.000000
skin_0
0  43.672703 -29.523457 41.525517  0.513066 -0.826439 -0.231867  0.021103 0.137431 1 0 1.000000
0  41.690712 -30.404343 41.429169  0.308724 -0.906639 -0.287567  0.017924 0.137083 1 0 1.000000
0  41.787056 -29.633564 39.887619  0.320553 -0.852465 -0.412977  0.020705 0.131521 1 0 1.000000
skin_0
0  41.690712 -30.404343 41.429169  0.308724 -0.906639 -0.287567  0.017924 0.137083 1 0 1.000000
0  43.672703 -29.523457 41.525517  0.513066 -0.826439 -0.231867  0.021103 0.137431 1 0 1.000000
0  43.658939 -29.674862 42.571575  0.528430 -0.848971 0.003028  0.020556 0.141206 1 0 1.000000
skin_0
0  43.658939 -29.674862 42.571575  0.528430 -0.848971 0.003028  0.020556 0.141206 1 0 1.000000
0  41.690712 -30.610802 42.488983  0.303937 -0.950352 0.066739  0.017179 0.140908 1 0 1.000000
0  41.690712 -30.404343 41.429169  0.308724 -0.906639 -0.287567  0.017924 0.137083 1 0 1.000000
skin_0
0  41.690712 -30.610802 42.488983  0.303937 -0.950352 0.066739  0.017179 0.140908 1 0 1.000000
0  43.658939 -29.674862 42.571575  0.528430 -0.848971 0.003028  0.020556 0.141206 1 0 1.000000
0  43.645172 -29.661093 42.736736  0.490395 -0.804697 0.334628  0.020606 0.141802 1 0 1.000000
skin_0
0  45.434471 -28.215889 42.846848  0.718008 -0.636651 0.281319  0.025821 0.142199 1 0 1.000000
0  43.645172 -29.661093 42.736736  0.490395 -0.804697 0.334628  0.020606 0.141802 1 0 1.000000
0  43.658939 -29.674862 42.571575  0.528430 -0.848971 0.003028  0.020556 0.141206 1 0 1.000000
skin_0
0  43.645172 -29.661093 42.736736  0.490395 -0.804697 0.334628  0.020606 0.141802 1 0 1.000000
0  45.434471 -28.215889 42.846848  0.718008 -0.636651 0.281319  0.025821 0.142199 1 0 1.000000
0  45.255543 -27.555225 43.700207  0.531708 -0.460106 0.711047  0.028205 0.145278 1 0 1.000000
skin_0
0  45.929970 -26.357769 43.755260  0.649714 -0.306468 0.695664  0.032526 0.145477 1 0 1.000000
0  45.255543 -27.555225 43.700207  0.531708 -0.460106 0.711047  0.028205 0.145278 1 0 1.000000
0  45.434471 -28.215889 42.846848  0.718008 -0.636651 0.281319  0.025821 0.142199 1 0 1.000000
skin_0
0  45.434471 -28.215889 42.846848  0.718008 -0.636651 0.281319  0.025821 0.142199 1 0 1.000000
0  46.342884 -26.550463 42.998253  0.855548 -0.369486 0.362655  0.031831 0.142745 1 0 1.000000
0  45.929970 -26.357769 43.755260  0.649714 -0.306468 0.695664  0.032526 0.145477 1 0 1.000000
skin_0
0  46.274063 -25.270426 43.810322  0.721993 -0.100049 0.684629  0.036450 0.145676 1 0 1.000000
0  45.929970 -26.357769 43.755260  0.649714 -0.306468 0.695664  0.032526 0.145477 1 0 1.000000
0  46.342884 -26.550463 42.998253  0.855548 -0.369486 0.362655  0.031831 0.142745 1 0 1.000000
skin_0
0  46.342884 -26.550463 42.998253  0.855548 -0.369486 0.362655  0.031831 0.142745 1 0 1.000000
0  46.618160 -25.463120 43.122128  0.951835 -0.091364 0.292683  0.035755 0.143192 1 0 1.000000
0  46.274063 -25.270426 43.810322  0.721993 -0.100049 0.684629  0.036450 0.145676 1 0 1.000000
skin_0
0  46.618160 -25.463120 43.122128  0.951835 -0.091364 0.292683  0.035755 0.143192 1 0 1.000000
0  46.342884 -26.550463 42.998253  0.855548 -0.369486 0.362655  0.031831 0.142745 1 0 1.000000
0  46.370411 -26.619282 42.778030  0.915283 -0.394826 0.079804  0.031582 0.141951 1 0 1.000000
skin_0
0  45.434471 -28.215889 42.654156  0.766668 -0.640245 -0.048021  0.025821 0.141504 1 0 1.000000
0  46.370411 -26.619282 42.778030  0.915283 -0.394826 0.079804  0.031582 0.141951 1 0 1.000000
0  46.342884 -26.550463 42.998253  0.855548 -0.369486 0.362655  0.031831 0.142745 1 0 1.000000
skin_0
0  46.370411 -26.619282 42.778030  0.915283 -0.394826 0.079804  0.031582 0.141951 1 0 1.000000
0  45.434471 -28.215889 42.654156  0.766668 -0.640245 -0.048021  0.025821 0.141504 1 0 1.000000
0  45.324364 -28.174599 41.594337  0.743370 -0.639458 -0.196197  0.025970 0.137679 1 0 1.000000
skin_0
0  43.672703 -29.523457 41.525517  0.513066 -0.826439 -0.231867  0.021103 0.137431 1 0 1.000000
0  45.324364 -28.174599 41.594337  0.743370 -0.639458 -0.196197  0.025970 0.137679 1 0 1.000000
0  45.434471 -28.215889 42.654156  0.766668 -0.640245 -0.048021  0.025821 0.141504 1 0 1.000000
skin_0
0  45.324364 -28.174599 41.594337  0.743370 -0.639458 -0.196197  0.025970 0.137679 1 0 1.000000
0  43.672703 -29.523457 41.525517  0.513066 -0.826439 -0.231867  0.021103 0.137431 1 0 1.000000
0  43.631405 -28.945374 40.162899  0.483800 -0.758527 -0.436549  0.023189 0.132514 1 0 1.000000
skin_0
0  46.342884 -26.550463 42.998253  0.855548 -0.369486 0.362655  0.031831 0.142745 1 0 1.000000
0  45.434471 -28.215889 42.846848  0.718008 -0.636651 0.281319  0.025821 0.142199 1 0 1.000000
0  45.434471 -28.215889 42.654156  0.766668 -0.640245 -0.048021  0.025821 0.141504 1 0 1.000000
skin_0
0  43.658939 -29.674862 42.571575  0.528430 -0.848971 0.003028  0.020556 0.141206 1 0 1.000000
0  45.434471 -28.215889 42.654156  0.766668 -0.640245 -0.048021  0.025821 0.141504 1 0 1.000000
0  45.434471 -28.215889 42.846848  0.718008 -0.636651 0.281319  0.025821 0.142199 1 0 1.000000
skin_0
0  45.434471 -28.215889 42.654156  0.766668 -0.640245 -0.048021  0.025821 0.141504 1 0 1.000000
0  43.658939 -29.674862 42.571575  0.528430 -0.848971 0.003028  0.020556 0.141206 1 0 1.000000
0  43.672703 -29.523457 41.525517  0.513066 -0.826439 -0.231867  0.021103 0.137431 1 0 1.000000
skin_0
0  41.690712 -30.610802 42.488983  0.303937 -0.950352 0.066739  0.017179 0.140908 1 0 1.000000
0  39.350853 -31.037479 42.406403  -0.111757 -0.993476 0.022708  0.015639 0.140610 1 0 1.000000
0  39.502258 -30.844786 41.360352  -0.037469 -0.953250 -0.299851  0.016335 0.136835 1 0 1.000000
skin_0
0  39.350853 -31.037479 42.406403  -0.111757 -0.993476 0.022708  0.015639 0.140610 1 0 1.000000
0  41.690712 -30.610802 42.488983  0.303937 -0.950352 0.066739  0.017179 0.140908 1 0 1.000000
0  41.663177 -30.569511 42.640388  0.260967 -0.874667 0.408477  0.017328 0.141454 1 0 1.000000
skin_0
0  43.645172 -29.661093 42.736736  0.490395 -0.804697 0.334628  0.020606 0.141802 1 0 1.000000
0  41.663177 -30.569511 42.640388  0.260967 -0.874667 0.408477  0.017328 0.141454 1 0 1.000000
0  41.690712 -30.610802 42.488983  0.303937 -0.950352 0.066739  0.017179 0.140908 1 0 1.000000
skin_0
0  41.663177 -30.569511 42.640388  0.260967 -0.874667 0.408477  0.017328 0.141454 1 0 1.000000
0  43.645172 -29.661093 42.736736  0.490395 -0.804697 0.334628  0.020606 0.141802 1 0 1.000000
0  43.480007 -29.124306 43.617622  0.367529 -0.600684 0.710001  0.022543 0.144980 1 0 1.000000
skin_0
0  45.255543 -27.555225 43.700207  0.531708 -0.460106 0.711047  0.028205 0.145278 1 0 1.000000
0  43.480007 -29.124306 43.617622  0.367529 -0.600684 0.710001  0.022543 0.144980 1 0 1.000000
0  43.645172 -29.661093 42.736736  0.490395 -0.804697 0.334628  0.020606 0.141802 1 0 1.000000
skin_0
0  43.480007 -29.124306 43.617622  0.367529 -0.600684 0.710001  0.022543 0.144980 1 0 1.000000
0  45.255543 -27.555225 43.700207  0.531708 -0.460106 0.711047  0.028205 0.145278 1 0 1.000000
0  44.856388 -26.330242 44.347111  0.339646 -0.231264 0.911678  0.032625 0.147613 1 0 1.000000
skin_0
0  45.929970 -26.357769 43.755260  0.649714 -0.306468 0.695664  0.032526 0.145477 1 0 1.000000
0  44.856388 -26.330242 44.347111  0.339646 -0.231264 0.911678  0.032625 0.147613 1 0 1.000000
0  45.255543 -27.555225 43.700207  0.531708 -0.460106 0.711047  0.028205 0.145278 1 0 1.000000
skin_0
0  45.530823 -24.788691 44.278286  0.444844 -0.109286 0.888915  0.038188 0.147364 1 0 1.000000
0  44.856388 -26.330242 44.347111  0.339646 -0.231264 0.911678  0.032625 0.147613 1 0 1.000000
0  45.929970 -26.357769 43.755260  0.649714 -0.306468 0.695664  0.032526 0.145477 1 0 1.000000
skin_0
0  45.929970 -26.357769 43.755260  0.649714 -0.306468 0.695664  0.032526 0.145477 1 0 1.000000
0  46.274063 -25.270426 43.810322  0.721993 -0.100049 0.684629  0.036450 0.145676 1 0 1.000000
0  45.530823 -24.788691 44.278286  0.444844 -0.109286 0.888915  0.038188 0.147364 1 0 1.000000
skin_0
0  46.177719 -24.609760 43.851612  0.736241 0.061521 0.673917  0.038834 0.145825 1 0 1.000000
0  45.530823 -24.788691 44.278286  0.444844 -0.109286 0.888915  0.038188 0.147364 1 0 1.000000
0  46.274063 -25.270426 43.810322  0.721993 -0.100049 0.684629  0.036450 0.145676 1 0 1.000000
skin_0
0  46.480526 -24.513412 43.287292  0.936098 0.068964 0.344911  0.039182 0.143788 1 0 1.000000
0  46.177719 -24.609760 43.851612  0.736241 0.061521 0.673917  0.038834 0.145825 1 0 1.000000
0  46.274063 -25.270426 43.810322  0.721993 -0.100049 0.684629  0.036450 0.145676 1 0 1.000000
skin_0
0  46.274063 -25.270426 43.810322  0.721993 -0.100049 0.684629  0.036450 0.145676 1 0 1.000000
0  46.618160 -25.463120 43.122128  0.951835 -0.091364 0.292683  0.035755 0.143192 1 0 1.000000
0  46.480526 -24.513412 43.287292  0.936098 0.068964 0.344911  0.039182 0.143788 1 0 1.000000
skin_0
0  46.480526 -24.513412 43.287292  0.936098 0.068964 0.344911  0.039182 0.143788 1 0 1.000000
0  46.618160 -25.463120 43.122128  0.951835 -0.091364 0.292683  0.035755 0.143192 1 0 1.000000
0  46.645691 -25.490646 42.846848  0.995559 -0.087352 0.035099  0.035655 0.142199 1 0 1.000000
skin_0
0  46.370411 -26.619282 42.778030  0.915283 -0.394826 0.079804  0.031582 0.141951 1 0 1.000000
0  46.645691 -25.490646 42.846848  0.995559 -0.087352 0.035099  0.035655 0.142199 1 0 1.000000
0  46.618160 -25.463120 43.122128  0.951835 -0.091364 0.292683  0.035755 0.143192 1 0 1.000000
skin_0
0  46.645691 -25.490646 42.846848  0.995559 -0.087352 0.035099  0.035655 0.142199 1 0 1.000000
0  46.370411 -26.619282 42.778030  0.915283 -0.394826 0.079804  0.031582 0.141951 1 0 1.000000
0  46.274063 -26.577991 41.649391  0.909564 -0.379536 -0.169253  0.031731 0.137878 1 0 1.000000
skin_0
0  45.324364 -28.174599 41.594337  0.743370 -0.639458 -0.196197  0.025970 0.137679 1 0 1.000000
0  46.274063 -26.577991 41.649391  0.909564 -0.379536 -0.169253  0.031731 0.137878 1 0 1.000000
0  46.370411 -26.619282 42.778030  0.915283 -0.394826 0.079804  0.031582 0.141951 1 0 1.000000
skin_0
0  46.274063 -26.577991 41.649391  0.909564 -0.379536 -0.169253  0.031731 0.137878 1 0 1.000000
0  45.324364 -28.174599 41.594337  0.743370 -0.639458 -0.196197  0.025970 0.137679 1 0 1.000000
0  45.090374 -27.885557 40.424412  0.699911 -0.572083 -0.427605  0.027013 0.133458 1 0 1.000000
skin_0
0  43.631405 -28.945374 40.162899  0.483800 -0.758527 -0.436549  0.023189 0.132514 1 0 1.000000
0  45.090374 -27.885557 40.424412  0.699911 -0.572083 -0.427605  0.027013 0.133458 1 0 1.000000
0  45.324364 -28.174599 41.594337  0.743370 -0.639458 -0.196197  0.025970 0.137679 1 0 1.000000
skin_0
0  46.645691 -25.490646 42.846848  0.995559 -0.087352 0.035099  0.035655 0.142199 1 0 1.000000
0  46.576870 -24.472122 42.874374  0.994548 0.055291 0.088421  0.039331 0.142298 1 0 1.000000
0  46.480526 -24.513412 43.287292  0.936098 0.068964 0.344911  0.039182 0.143788 1 0 1.000000
skin_0
0  46.576870 -24.472122 42.874374  0.994548 0.055291 0.088421  0.039331 0.142298 1 0 1.000000
0  46.645691 -25.490646 42.846848  0.995559 -0.087352 0.035099  0.035655 0.142199 1 0 1.000000
0  46.563107 -25.531939 41.718216  0.983201 -0.105962 -0.148617  0.035506 0.138126 1 0 1.000000
skin_0
0  46.274063 -26.577991 41.649391  0.909564 -0.379536 -0.169253  0.031731 0.137878 1 0 1.000000
0  46.563107 -25.531939 41.718216  0.983201 -0.105962 -0.148617  0.035506 0.138126 1 0 1.000000
0  46.645691 -25.490646 42.846848  0.995559 -0.087352 0.035099  0.035655 0.142199 1 0 1.000000
skin_0
0  46.563107 -25.531939 41.718216  0.983201 -0.105962 -0.148617  0.035506 0.138126 1 0 1.000000
0  46.274063 -26.577991 41.649391  0.909564 -0.379536 -0.169253  0.031731 0.137878 1 0 1.000000
0  46.026314 -26.440351 40.575813  0.844601 -0.350073 -0.405089  0.032228 0.134004 1 0 1.000000
skin_0
0  45.090374 -27.885557 40.424412  0.699911 -0.572083 -0.427605  0.027013 0.133458 1 0 1.000000
0  46.026314 -26.440351 40.575813  0.844601 -0.350073 -0.405089  0.032228 0.134004 1 0 1.000000
0  46.274063 -26.577991 41.649391  0.909564 -0.379536 -0.169253  0.031731 0.137878 1 0 1.000000
skin_0
0  46.563107 -25.531939 41.718216  0.983201 -0.105962 -0.148617  0.035506 0.138126 1 0 1.000000
0  46.521816 -24.485886 41.745743  0.987326 0.056590 -0.148276  0.039281 0.138226 1 0 1.000000
0  46.576870 -24.472122 42.874374  0.994548 0.055291 0.088421  0.039331 0.142298 1 0 1.000000
skin_0
0  46.521816 -24.485886 41.745743  0.987326 0.056590 -0.148276  0.039281 0.138226 1 0 1.000000
0  46.563107 -25.531939 41.718216  0.983201 -0.105962 -0.148617  0.035506 0.138126 1 0 1.000000
0  46.315357 -25.504408 40.672157  0.898098 -0.060748 -0.435581  0.035606 0.134352 1 0 1.000000
skin_0
0  46.026314 -26.440351 40.575813  0.844601 -0.350073 -0.405089  0.032228 0.134004 1 0 1.000000
0  46.315357 -25.504408 40.672157  0.898098 -0.060748 -0.435581  0.035606 0.134352 1 0 1.000000
0  46.563107 -25.531939 41.718216  0.983201 -0.105962 -0.148617  0.035506 0.138126 1 0 1.000000
skin_0
0  46.315357 -25.504408 40.672157  0.898098 -0.060748 -0.435581  0.035606 0.134352 1 0 1.000000
0  46.246536 -24.540941 40.713451  0.880097 0.112744 -0.461214  0.039082 0.134501 1 0 1.000000
0  46.521816 -24.485886 41.745743  0.987326 0.056590 -0.148276  0.039281 0.138226 1 0 1.000000
skin_0
0  44.154434 -28.105776 39.681164  0.561897 -0.650754 -0.510677  0.026218 0.130776 1 0 1.000000
0  44.443474 -27.802973 39.584820  0.615863 -0.538289 -0.575290  0.027311 0.130428 1 0 1.000000
0  45.090374 -27.885557 40.424412  0.699911 -0.572083 -0.427605  0.027013 0.133458 1 0 1.000000
skin_0
0  46.026314 -26.440351 40.575813  0.844601 -0.350073 -0.405089  0.032228 0.134004 1 0 1.000000
0  45.090374 -27.885557 40.424412  0.699911 -0.572083 -0.427605  0.027013 0.133458 1 0 1.000000
0  44.443474 -27.802973 39.584820  0.615863 -0.538289 -0.575290  0.027311 0.130428 1 0 1.000000
skin_0
0  44.443474 -27.802973 39.584820  0.615863 -0.538289 -0.575290  0.027311 0.130428 1 0 1.000000
0  45.489525 -26.330240 39.763744  0.632059 -0.195232 -0.749924  0.032625 0.131074 1 0 1.000000
0  46.026314 -26.440351 40.575813  0.844601 -0.350073 -0.405089  0.032228 0.134004 1 0 1.000000
skin_0
0  46.315357 -25.504408 40.672157  0.898098 -0.060748 -0.435581  0.035606 0.134352 1 0 1.000000
0  46.026314 -26.440351 40.575813  0.844601 -0.350073 -0.405089  0.032228 0.134004 1 0 1.000000
0  45.489525 -26.330240 39.763744  0.632059 -0.195232 -0.749924  0.032625 0.131074 1 0 1.000000
skin_0
0  45.489525 -26.330240 39.763744  0.632059 -0.195232 -0.749924  0.032625 0.131074 1 0 1.000000
0  45.530823 -25.518173 39.763744  0.574451 0.076119 -0.814992  0.035556 0.131074 1 0 1.000000
0  46.315357 -25.504408 40.672157  0.898098 -0.060748 -0.435581  0.035606 0.134352 1 0 1.000000
skin_0
0  46.246536 -24.540941 40.713451  0.880097 0.112744 -0.461214  0.039082 0.134501 1 0 1.000000
0  46.315357 -25.504408 40.672157  0.898098 -0.060748 -0.435581  0.035606 0.134352 1 0 1.000000
0  45.530823 -25.518173 39.763744  0.574451 0.076119 -0.814992  0.035556 0.131074 1 0 1.000000
skin_0
0  45.530823 -25.518173 39.763744  0.574451 0.076119 -0.814992  0.035556 0.131074 1 0 1.000000
0  45.338127 -24.885035 39.791271  0.517226 0.195007 -0.833336  0.037841 0.131173 1 0 1.000000
0  46.246536 -24.540941 40.713451  0.880097 0.112744 -0.461214  0.039082 0.134501 1 0 1.000000
skin_0
0  44.856388 -26.330242 44.347111  0.339646 -0.231264 0.911678  0.032625 0.147613 1 0 1.000000
0  45.530823 -24.788691 44.278286  0.444844 -0.109286 0.888915  0.038188 0.147364 1 0 1.000000
0  44.471001 -25.119022 44.636147  0.265733 -0.138967 0.953978  0.036996 0.148656 1 0 1.000000
skin_0
0  42.984505 -27.651573 44.484745  0.199228 -0.312870 0.928666  0.027857 0.148109 1 0 1.000000
0  44.856388 -26.330242 44.347111  0.339646 -0.231264 0.911678  0.032625 0.147613 1 0 1.000000
0  44.471001 -25.119022 44.636147  0.265733 -0.138967 0.953978  0.036996 0.148656 1 0 1.000000
skin_0
0  44.856388 -26.330242 44.347111  0.339646 -0.231264 0.911678  0.032625 0.147613 1 0 1.000000
0  42.984505 -27.651573 44.484745  0.199228 -0.312870 0.928666  0.027857 0.148109 1 0 1.000000
0  43.480007 -29.124306 43.617622  0.367529 -0.600684 0.710001  0.022543 0.144980 1 0 1.000000
skin_0
0  41.539303 -30.101536 43.493748  0.183821 -0.688257 0.701792  0.019017 0.144533 1 0 1.000000
0  43.480007 -29.124306 43.617622  0.367529 -0.600684 0.710001  0.022543 0.144980 1 0 1.000000
0  42.984505 -27.651573 44.484745  0.199228 -0.312870 0.928666  0.027857 0.148109 1 0 1.000000
skin_0
0  43.480007 -29.124306 43.617622  0.367529 -0.600684 0.710001  0.022543 0.144980 1 0 1.000000
0  41.539303 -30.101536 43.493748  0.183821 -0.688257 0.701792  0.019017 0.144533 1 0 1.000000
0  41.663177 -30.569511 42.640388  0.260967 -0.874667 0.408477  0.017328 0.141454 1 0 1.000000
skin_0
0  39.337090 -30.996189 42.571571  -0.119332 -0.914903 0.385634  0.015788 0.141206 1 0 1.000000
0  41.663177 -30.569511 42.640388  0.260967 -0.874667 0.408477  0.017328 0.141454 1 0 1.000000
0  41.539303 -30.101536 43.493748  0.183821 -0.688257 0.701792  0.019017 0.144533 1 0 1.000000
skin_0
0  41.663177 -30.569511 42.640388  0.260967 -0.874667 0.408477  0.017328 0.141454 1 0 1.000000
0  39.337090 -30.996189 42.571571  -0.119332 -0.914903 0.385634  0.015788 0.141206 1 0 1.000000
0  39.350853 -31.037479 42.406403  -0.111757 -0.993476 0.022708  0.015639 0.140610 1 0 1.000000
skin_0
0  38.607609 -30.693386 42.530273  -0.605935 -0.772328 0.190662  0.016881 0.141057 1 0 1.000000
0  39.350853 -31.037479 42.406403  -0.111757 -0.993476 0.022708  0.015639 0.140610 1 0 1.000000
0  39.337090 -30.996189 42.571571  -0.119332 -0.914903 0.385634  0.015788 0.141206 1 0 1.000000
skin_0
0  39.350853 -31.037479 42.406403  -0.111757 -0.993476 0.022708  0.015639 0.140610 1 0 1.000000
0  38.607609 -30.693386 42.530273  -0.605935 -0.772328 0.190662  0.016881 0.141057 1 0 1.000000
0  38.745247 -30.638329 41.374115  -0.569423 -0.775011 -0.274072  0.017080 0.136885 1 0 1.000000
skin_0
0  38.249744 -29.895082 41.456699  -0.890798 -0.406214 -0.203641  0.019762 0.137183 1 0 1.000000
0  38.745247 -30.638329 41.374115  -0.569423 -0.775011 -0.274072  0.017080 0.136885 1 0 1.000000
0  38.607609 -30.693386 42.530273  -0.605935 -0.772328 0.190662  0.016881 0.141057 1 0 1.000000
skin_0
0  38.607609 -30.693386 42.530273  -0.605935 -0.772328 0.190662  0.016881 0.141057 1 0 1.000000
0  38.098343 -30.060246 42.544041  -0.887941 -0.440823 0.131284  0.019166 0.141106 1 0 1.000000
0  38.249744 -29.895082 41.456699  -0.890798 -0.406214 -0.203641  0.019762 0.137183 1 0 1.000000
skin_0
0  38.249744 -29.895082 41.456699  -0.890798 -0.406214 -0.203641  0.019762 0.137183 1 0 1.000000
0  38.098343 -30.060246 42.544041  -0.887941 -0.440823 0.131284  0.019166 0.141106 1 0 1.000000
0  37.864357 -29.055489 42.599102  -0.978665 -0.186038 0.087208  0.022791 0.141305 1 0 1.000000
skin_0
0  37.864357 -29.055489 42.599102  -0.978665 -0.186038 0.087208  0.022791 0.141305 1 0 1.000000
0  38.098343 -30.060246 42.544041  -0.887941 -0.440823 0.131284  0.019166 0.141106 1 0 1.000000
0  38.497498 -29.963900 43.328583  -0.595912 -0.486477 0.638928  0.019513 0.143937 1 0 1.000000
skin_0
0  38.497498 -29.963900 43.328583  -0.595912 -0.486477 0.638928  0.019513 0.143937 1 0 1.000000
0  38.098339 -28.986666 43.424927  -0.846224 -0.258994 0.465646  0.023040 0.144285 1 0 1.000000
0  37.864357 -29.055489 42.599102  -0.978665 -0.186038 0.087208  0.022791 0.141305 1 0 1.000000
skin_0
0  38.497498 -29.963900 43.328583  -0.595912 -0.486477 0.638928  0.019513 0.143937 1 0 1.000000
0  38.456200 -28.793976 43.892902  -0.538277 -0.289202 0.791593  0.023735 0.145974 1 0 1.000000
0  38.098339 -28.986666 43.424927  -0.846224 -0.258994 0.465646  0.023040 0.144285 1 0 1.000000
skin_0
0  38.979225 -28.862793 44.071831  -0.226831 -0.343511 0.911344  0.023487 0.146619 1 0 1.000000
0  38.456200 -28.793976 43.892902  -0.538277 -0.289202 0.791593  0.023735 0.145974 1 0 1.000000
0  38.497498 -29.963900 43.328583  -0.595912 -0.486477 0.638928  0.019513 0.143937 1 0 1.000000
skin_0
0  38.497498 -29.963900 43.328583  -0.595912 -0.486477 0.638928  0.019513 0.143937 1 0 1.000000
0  39.185688 -30.418106 43.342342  -0.187434 -0.662398 0.725326  0.017874 0.143987 1 0 1.000000
0  38.979225 -28.862793 44.071831  -0.226831 -0.343511 0.911344  0.023487 0.146619 1 0 1.000000
skin_0
0  40.988747 -28.518696 44.457218  0.021853 -0.356293 0.934118  0.024728 0.148010 1 0 1.000000
0  38.979225 -28.862793 44.071831  -0.226831 -0.343511 0.911344  0.023487 0.146619 1 0 1.000000
0  39.185688 -30.418106 43.342342  -0.187434 -0.662398 0.725326  0.017874 0.143987 1 0 1.000000
skin_0
0  39.185688 -30.418106 43.342342  -0.187434 -0.662398 0.725326  0.017874 0.143987 1 0 1.000000
0  41.539303 -30.101536 43.493748  0.183821 -0.688257 0.701792  0.019017 0.144533 1 0 1.000000
0  40.988747 -28.518696 44.457218  0.021853 -0.356293 0.934118  0.024728 0.148010 1 0 1.000000
skin_0
0  42.984505 -27.651573 44.484745  0.199228 -0.312870 0.928666  0.027857 0.148109 1 0 1.000000
0  40.988747 -28.518696 44.457218  0.021853 -0.356293 0.934118  0.024728 0.148010 1 0 1.000000
0  41.539303 -30.101536 43.493748  0.183821 -0.688257 0.701792  0.019017 0.144533 1 0 1.000000
skin_0
0  38.607609 -30.693386 42.530273  -0.605935 -0.772328 0.190662  0.016881 0.141057 1 0 1.000000
0  38.497498 -29.963900 43.328583  -0.595912 -0.486477 0.638928  0.019513 0.143937 1 0 1.000000
0  38.098343 -30.060246 42.544041  -0.887941 -0.440823 0.131284  0.019166 0.141106 1 0 1.000000
skin_0
0  39.185688 -30.418106 43.342342  -0.187434 -0.662398 0.725326  0.017874 0.143987 1 0 1.000000
0  38.497498 -29.963900 43.328583  -0.595912 -0.486477 0.638928  0.019513 0.143937 1 0 1.000000
0  38.607609 -30.693386 42.530273  -0.605935 -0.772328 0.190662  0.016881 0.141057 1 0 1.000000
skin_0
0  38.607609 -30.693386 42.530273  -0.605935 -0.772328 0.190662  0.016881 0.141057 1 0 1.000000
0  39.337090 -30.996189 42.571571  -0.119332 -0.914903 0.385634  0.015788 0.141206 1 0 1.000000
0  39.185688 -30.418106 43.342342  -0.187434 -0.662398 0.725326  0.017874 0.143987 1 0 1.000000
skin_0
0  41.539303 -30.101536 43.493748  0.183821 -0.688257 0.701792  0.019017 0.144533 1 0 1.000000
0  39.185688 -30.418106 43.342342  -0.187434 -0.662398 0.725326  0.017874 0.143987 1 0 1.000000
0  39.337090 -30.996189 42.571571  -0.119332 -0.914903 0.385634  0.015788 0.141206 1 0 1.000000
skin_0
0  44.471001 -25.119022 44.636147  0.265733 -0.138967 0.953978  0.036996 0.148656 1 0 1.000000
0  42.323841 -25.724634 44.925190  0.112748 -0.183905 0.976456  0.034811 0.149699 1 0 1.000000
0  42.984505 -27.651573 44.484745  0.199228 -0.312870 0.928666  0.027857 0.148109 1 0 1.000000
skin_0
0  40.988747 -28.518696 44.457218  0.021853 -0.356293 0.934118  0.024728 0.148010 1 0 1.000000
0  42.984505 -27.651573 44.484745  0.199228 -0.312870 0.928666  0.027857 0.148109 1 0 1.000000
0  42.323841 -25.724634 44.925190  0.112748 -0.183905 0.976456  0.034811 0.149699 1 0 1.000000
skin_0
0  42.323841 -25.724634 44.925190  0.112748 -0.183905 0.976456  0.034811 0.149699 1 0 1.000000
0  40.217972 -26.330244 44.883900  -0.061971 -0.210432 0.975642  0.032625 0.149550 1 0 1.000000
0  40.988747 -28.518696 44.457218  0.021853 -0.356293 0.934118  0.024728 0.148010 1 0 1.000000
skin_0
0  38.979225 -28.862793 44.071831  -0.226831 -0.343511 0.911344  0.023487 0.146619 1 0 1.000000
0  40.988747 -28.518696 44.457218  0.021853 -0.356293 0.934118  0.024728 0.148010 1 0 1.000000
0  40.217972 -26.330244 44.883900  -0.061971 -0.210432 0.975642  0.032625 0.149550 1 0 1.000000
skin_0
0  40.217972 -26.330244 44.883900  -0.061971 -0.210432 0.975642  0.032625 0.149550 1 0 1.000000
0  38.745243 -26.715631 44.539803  -0.219926 -0.236172 0.946496  0.031235 0.148308 1 0 1.000000
0  38.979225 -28.862793 44.071831  -0.226831 -0.343511 0.911344  0.023487 0.146619 1 0 1.000000
skin_0
0  38.456200 -28.793976 43.892902  -0.538277 -0.289202 0.791593  0.023735 0.145974 1 0 1.000000
0  38.979225 -28.862793 44.071831  -0.226831 -0.343511 0.911344  0.023487 0.146619 1 0 1.000000
0  38.745243 -26.715631 44.539803  -0.219926 -0.236172 0.946496  0.031235 0.148308 1 0 1.000000
skin_0
0  38.745243 -26.715631 44.539803  -0.219926 -0.236172 0.946496  0.031235 0.148308 1 0 1.000000
0  38.277271 -26.949617 44.333347  -0.488167 -0.245092 0.837629  0.030390 0.147563 1 0 1.000000
0  38.456200 -28.793976 43.892902  -0.538277 -0.289202 0.791593  0.023735 0.145974 1 0 1.000000
skin_0
0  38.456200 -28.793976 43.892902  -0.538277 -0.289202 0.791593  0.023735 0.145974 1 0 1.000000
0  38.277271 -26.949617 44.333347  -0.488167 -0.245092 0.837629  0.030390 0.147563 1 0 1.000000
0  37.946938 -27.307478 43.713970  -0.861075 -0.180945 0.475194  0.029099 0.145328 1 0 1.000000
skin_0
0  37.946938 -27.307478 43.713970  -0.861075 -0.180945 0.475194  0.029099 0.145328 1 0 1.000000
0  38.098339 -28.986666 43.424927  -0.846224 -0.258994 0.465646  0.023040 0.144285 1 0 1.000000
0  38.456200 -28.793976 43.892902  -0.538277 -0.289202 0.791593  0.023735 0.145974 1 0 1.000000
skin_0
0  38.098339 -28.986666 43.424927  -0.846224 -0.258994 0.465646  0.023040 0.144285 1 0 1.000000
0  37.946938 -27.307478 43.713970  -0.861075 -0.180945 0.475194  0.029099 0.145328 1 0 1.000000
0  37.768009 -27.885563 42.654156  -0.988005 -0.098942 0.118564  0.027013 0.141504 1 0 1.000000
skin_0
0  37.768009 -27.885563 42.654156  -0.988005 -0.098942 0.118564  0.027013 0.141504 1 0 1.000000
0  37.864357 -29.055489 42.599102  -0.978665 -0.186038 0.087208  0.022791 0.141305 1 0 1.000000
0  38.098339 -28.986666 43.424927  -0.846224 -0.258994 0.465646  0.023040 0.144285 1 0 1.000000
skin_0
0  38.153397 -28.931610 40.534523  -0.948162 -0.243324 -0.204406  0.023238 0.133855 1 0 1.000000
0  37.864357 -29.055489 42.599102  -0.978665 -0.186038 0.087208  0.022791 0.141305 1 0 1.000000
0  37.768009 -27.885563 42.654156  -0.988005 -0.098942 0.118564  0.027013 0.141504 1 0 1.000000
skin_0
0  38.249744 -29.895082 41.456699  -0.890798 -0.406214 -0.203641  0.019762 0.137183 1 0 1.000000
0  37.864357 -29.055489 42.599102  -0.978665 -0.186038 0.087208  0.022791 0.141305 1 0 1.000000
0  38.153397 -28.931610 40.534523  -0.948162 -0.243324 -0.204406  0.023238 0.133855 1 0 1.000000
skin_0
0  38.249744 -29.895082 41.456699  -0.890798 -0.406214 -0.203641  0.019762 0.137183 1 0 1.000000
0  38.153397 -28.931610 40.534523  -0.948162 -0.243324 -0.204406  0.023238 0.133855 1 0 1.000000
0  38.469967 -29.633564 40.396885  -0.831727 -0.456644 -0.315764  0.020705 0.133358 1 0 1.000000
skin_0
0  38.745247 -30.638329 41.374115  -0.569423 -0.775011 -0.274072  0.017080 0.136885 1 0 1.000000
0  38.249744 -29.895082 41.456699  -0.890798 -0.406214 -0.203641  0.019762 0.137183 1 0 1.000000
0  38.469967 -29.633564 40.396885  -0.831727 -0.456644 -0.315764  0.020705 0.133358 1 0 1.000000
skin_0
0  38.469967 -29.633564 40.396885  -0.831727 -0.456644 -0.315764  0.020705 0.133358 1 0 1.000000
0  38.924175 -30.115301 40.231712  -0.495427 -0.759196 -0.422106  0.018967 0.132762 1 0 1.000000
0  38.745247 -30.638329 41.374115  -0.569423 -0.775011 -0.274072  0.017080 0.136885 1 0 1.000000
skin_0
0  39.502258 -30.844786 41.360352  -0.037469 -0.953250 -0.299851  0.016335 0.136835 1 0 1.000000
0  38.745247 -30.638329 41.374115  -0.569423 -0.775011 -0.274072  0.017080 0.136885 1 0 1.000000
0  38.924175 -30.115301 40.231712  -0.495427 -0.759196 -0.422106  0.018967 0.132762 1 0 1.000000
skin_0
0  38.745247 -30.638329 41.374115  -0.569423 -0.775011 -0.274072  0.017080 0.136885 1 0 1.000000
0  39.502258 -30.844786 41.360352  -0.037469 -0.953250 -0.299851  0.016335 0.136835 1 0 1.000000
0  39.350853 -31.037479 42.406403  -0.111757 -0.993476 0.022708  0.015639 0.140610 1 0 1.000000
chrome
0  46.384174 -24.595997 43.053307  -0.268026 0.963399 -0.004948  0.005860 0.178686 1 0 1.000000
0  45.957497 -24.719872 40.933674  -0.257270 0.966314 -0.007081  0.005860 0.178686 1 0 1.000000
0  45.296833 -24.912565 40.121605  -0.284488 0.958678 -0.001681  0.005860 0.178686 1 0 1.000000
chrome
0  46.384174 -24.595997 43.053307  -0.268026 0.963399 -0.004948  0.005860 0.178686 1 0 1.000000
0  45.695984 -24.788691 44.030540  -0.287207 0.957867 -0.001759  0.005860 0.178686 1 0 1.000000
0  46.163956 -24.651052 43.713970  -0.282110 0.959263 -0.015125  0.005860 0.178686 1 0 1.000000
chrome
0  46.384174 -24.595997 43.053307  -0.268026 0.963399 -0.004948  0.005860 0.178686 1 0 1.000000
0  45.296833 -24.912565 40.121605  -0.284488 0.958678 -0.001681  0.005860 0.178686 1 0 1.000000
0  45.695984 -24.788691 44.030540  -0.287207 0.957867 -0.001759  0.005860 0.178686 1 0 1.000000
chrome
0  45.296833 -24.912565 40.121605  -0.284488 0.958678 -0.001681  0.005860 0.178686 1 0 1.000000
0  43.769051 -25.366774 39.529762  -0.305301 0.952256 0.000770  0.005860 0.178686 1 0 1.000000
0  45.695984 -24.788691 44.030540  -0.287207 0.957867 -0.001759  0.005860 0.178686 1 0 1.000000
chrome
0  43.769051 -25.366774 39.529762  -0.305301 0.952256 0.000770  0.005860 0.178686 1 0 1.000000
0  43.507534 -25.463121 44.443455  -0.316573 0.948521 0.009441  0.005860 0.178686 1 0 1.000000
0  45.695984 -24.788691 44.030540  -0.287207 0.957867 -0.001759  0.005860 0.178686 1 0 1.000000
chrome
0  43.769051 -25.366774 39.529762  -0.305301 0.952256 0.000770  0.005860 0.178686 1 0 1.000000
0  39.970222 -26.633045 39.392124  -0.336170 0.941636 0.017658  0.005860 0.178686 1 0 1.000000
0  43.507534 -25.463121 44.443455  -0.316573 0.948521 0.009441  0.005860 0.178686 1 0 1.000000
chrome
0  39.970222 -26.633045 39.392124  -0.336170 0.941636 0.017658  0.005860 0.178686 1 0 1.000000
0  38.924171 -27.156075 44.347111  -0.345532 0.938051 0.025837  0.005860 0.178686 1 0 1.000000
0  43.507534 -25.463121 44.443455  -0.316573 0.948521 0.009441  0.005860 0.178686 1 0 1.000000
chrome
0  39.970222 -26.633045 39.392124  -0.336170 0.941636 0.017658  0.005860 0.178686 1 0 1.000000
0  38.965462 -27.018435 39.928913  -0.348073 0.937120 0.025522  0.004883 0.178686 1 0 1.000000
0  38.924171 -27.156075 44.347111  -0.345532 0.938051 0.025837  0.005860 0.178686 1 0 1.000000
chrome
0  38.965462 -27.018435 39.928913  -0.348073 0.937120 0.025522  0.004883 0.178686 1 0 1.000000
0  38.346088 -27.321241 42.750500  -0.343586 0.938773 0.025579  0.004883 0.178686 1 0 1.000000
0  38.924171 -27.156075 44.347111  -0.345532 0.938051 0.025837  0.005860 0.178686 1 0 1.000000
end
