version 1
nodes
0 "root" -1
1 "steering_wheel" 0
end
skeleton
time 0
0  0.000000 0.000000 0.000000  0.000000 -0.000000 -1.570797
1  19.916300 17.934299 33.308498  0.000000 -0.000000 0.000000
end
triangles
coplightred3
0  14.741414 8.838100 62.011154  0.001061 -0.999998 -0.001568  0.724854 0.184204 1 0 1.000000
0  19.223583 8.841881 62.633446  0.001045 -0.999998 -0.001451  0.520493 0.215546 1 0 1.000000
0  14.739799 8.837111 62.635506  0.001063 -0.999998 -0.001581  0.724854 0.215546 1 0 1.000000
coplightred3
0  19.225574 8.842777 62.012695  -0.000210 -0.930378 0.366602  0.520493 0.184204 1 0 1.000000
0  19.223583 8.841881 62.633446  0.001045 -0.999998 -0.001451  0.520493 0.215546 1 0 1.000000
0  14.741414 8.838100 62.011154  0.001061 -0.999998 -0.001568  0.724854 0.184204 1 0 1.000000
coplightred3
0  -23.881386 11.282650 62.676376  -0.533959 -0.845430 -0.011700  0.520493 0.215546 1 0 1.000000
0  -23.882465 11.291922 62.055725  -0.515138 -0.819161 0.252205  0.520493 0.184204 1 0 1.000000
0  -20.357773 9.057692 62.639503  -0.533942 -0.845438 -0.011874  0.724854 0.215546 1 0 1.000000
coplightred3
0  -20.358528 9.066950 62.015244  -0.533940 -0.845439 -0.011892  0.724854 0.184204 1 0 1.000000
0  -20.357773 9.057692 62.639503  -0.533942 -0.845438 -0.011874  0.724854 0.215546 1 0 1.000000
0  -23.882465 11.291922 62.055725  -0.515138 -0.819161 0.252205  0.520493 0.184204 1 0 1.000000
coplightred3
0  24.193436 11.282661 62.676376  0.533960 -0.845429 -0.011694  0.520493 0.215546 1 0 1.000000
0  20.669830 9.057703 62.639503  0.533942 -0.845438 -0.011868  0.724854 0.215546 1 0 1.000000
0  24.194523 11.291933 62.055725  0.514624 -0.819485 0.252205  0.520493 0.184204 1 0 1.000000
coplightred3
0  20.670589 9.066961 62.015244  0.533940 -0.845439 -0.011887  0.724854 0.184204 1 0 1.000000
0  24.194523 11.291933 62.055725  0.514624 -0.819485 0.252205  0.520493 0.184204 1 0 1.000000
0  20.669830 9.057703 62.639503  0.533942 -0.845438 -0.011868  0.724854 0.215546 1 0 1.000000
coplightred3
0  20.001118 15.860844 62.767487  0.001064 0.999677 0.025397  0.724854 0.215546 1 0 1.000000
0  24.484913 15.856127 62.765221  0.001057 0.999676 0.025450  0.520493 0.215546 1 0 1.000000
0  20.002739 15.876698 62.143410  0.001064 0.999677 0.025402  0.724854 0.184204 1 0 1.000000
coplightred3
0  24.486908 15.871923 62.144745  0.000596 0.920369 0.391051  0.520493 0.184204 1 0 1.000000
0  20.002739 15.876698 62.143410  0.001064 0.999677 0.025402  0.724854 0.184204 1 0 1.000000
0  24.484913 15.856127 62.765221  0.001057 0.999676 0.025450  0.520493 0.215546 1 0 1.000000
coplightred3
0  13.687488 15.860840 62.767487  0.001064 0.999677 0.025397  0.724854 0.215546 1 0 1.000000
0  18.171280 15.856127 62.765221  0.001057 0.999676 0.025450  0.520493 0.215546 1 0 1.000000
0  13.689159 15.876694 62.143410  0.001063 0.999677 0.025402  0.724854 0.184204 1 0 1.000000
coplightred3
0  18.173328 15.871923 62.144745  0.000617 0.920369 0.391051  0.520493 0.184204 1 0 1.000000
0  13.689159 15.876694 62.143410  0.001063 0.999677 0.025402  0.724854 0.184204 1 0 1.000000
0  18.171280 15.856127 62.765221  0.001057 0.999676 0.025450  0.520493 0.215546 1 0 1.000000
coplightred3
0  -13.375435 15.860836 62.767487  -0.001065 0.999677 0.025397  0.724854 0.215546 1 0 1.000000
0  -13.377051 15.876690 62.143410  -0.001065 0.999677 0.025402  0.724854 0.184204 1 0 1.000000
0  -17.859226 15.856115 62.765221  -0.001058 0.999676 0.025450  0.520493 0.215546 1 0 1.000000
coplightred3
0  -17.859226 15.856115 62.765221  -0.001058 0.999676 0.025450  0.520493 0.215546 1 0 1.000000
0  -13.377051 15.876690 62.143410  -0.001065 0.999677 0.025402  0.724854 0.184204 1 0 1.000000
0  -17.861221 15.871912 62.144737  0.000198 0.920370 0.391049  0.520493 0.184204 1 0 1.000000
coplightred3
0  -19.689075 15.860832 62.767487  -0.001064 0.999677 0.025403  0.724854 0.215546 1 0 1.000000
0  -19.690697 15.876690 62.143410  -0.001064 0.999677 0.025407  0.724854 0.184204 1 0 1.000000
0  -24.172863 15.856115 62.765221  -0.001059 0.999676 0.025450  0.520493 0.215546 1 0 1.000000
coplightred3
0  -24.172863 15.856115 62.765221  -0.001059 0.999676 0.025450  0.520493 0.215546 1 0 1.000000
0  -19.690697 15.876690 62.143410  -0.001064 0.999677 0.025407  0.724854 0.184204 1 0 1.000000
0  -24.174858 15.871908 62.144737  0.000197 0.920370 0.391049  0.520493 0.184204 1 0 1.000000
coplightred3
0  -14.429345 8.838089 62.011154  -0.001061 -0.999998 -0.001564  0.724854 0.184204 1 0 1.000000
0  -14.427673 8.837103 62.635506  -0.001062 -0.999998 -0.001575  0.724854 0.215546 1 0 1.000000
0  -18.911518 8.841869 62.633446  -0.001045 -0.999998 -0.001453  0.520493 0.215546 1 0 1.000000
coplightred3
0  -18.911518 8.841869 62.633446  -0.001045 -0.999998 -0.001453  0.520493 0.215546 1 0 1.000000
0  -18.913513 8.842766 62.012695  -0.000583 -0.930378 0.366602  0.520493 0.184204 1 0 1.000000
0  -14.429345 8.838089 62.011154  -0.001061 -0.999998 -0.001564  0.724854 0.184204 1 0 1.000000
end
