version 1
nodes
0 "root" -1
1 "steering_wheel" 0
end
skeleton
time 0
0  0.000000 0.000000 0.000000  0.000000 -0.000000 -1.570797
1  19.916300 17.934299 33.308498  0.000000 -0.000000 0.000000
end
triangles
skin_0dam
0  25.876011 97.217628 45.467873  -0.056597 -0.699730 0.712162  0.332247 0.596486 1 0 1.000000
0  21.760624 98.407791 46.235188  -0.035122 -0.635831 0.771028  0.310862 0.602995 1 0 1.000000
0  21.746861 97.724266 45.677994  -0.036207 -0.637296 0.769768  0.310790 0.599204 1 0 1.000000
skin_0dam
0  21.746861 97.724266 45.677994  -0.036207 -0.637296 0.769768  0.310790 0.599204 1 0 1.000000
0  25.862247 96.671219 44.922676  -0.062267 -0.706705 0.704763  0.332175 0.593411 1 0 1.000000
0  25.876011 97.217628 45.467873  -0.056597 -0.699730 0.712162  0.332247 0.596486 1 0 1.000000
skin_0dam
0  29.179333 95.997116 44.573555  -0.092440 -0.749430 0.655598  0.349412 0.589763 1 0 1.000000
0  25.876011 97.217628 45.467873  -0.056597 -0.699730 0.712162  0.332247 0.596486 1 0 1.000000
0  25.862247 96.671219 44.922676  -0.062267 -0.706705 0.704763  0.332175 0.593411 1 0 1.000000
skin_0dam
0  25.862247 96.671219 44.922676  -0.062267 -0.706705 0.704763  0.332175 0.593411 1 0 1.000000
0  29.165569 95.532990 44.035549  -0.101534 -0.754396 0.648519  0.349340 0.587117 1 0 1.000000
0  29.179333 95.997116 44.573555  -0.092440 -0.749430 0.655598  0.349412 0.589763 1 0 1.000000
skin_0dam
0  32.289963 94.637802 43.528923  -0.139333 -0.787562 0.600277  0.365576 0.582253 1 0 1.000000
0  29.179333 95.997116 44.573555  -0.092440 -0.749430 0.655598  0.349412 0.589763 1 0 1.000000
0  29.165569 95.532990 44.035549  -0.101534 -0.754396 0.648519  0.349340 0.587117 1 0 1.000000
skin_0dam
0  29.165569 95.532990 44.035549  -0.101534 -0.754396 0.648519  0.349340 0.587117 1 0 1.000000
0  32.234909 94.254730 43.011833  -0.149526 -0.787435 0.597987  0.365290 0.580036 1 0 1.000000
0  32.289963 94.637802 43.528923  -0.139333 -0.787562 0.600277  0.365576 0.582253 1 0 1.000000
skin_0dam
0  35.469418 92.823235 42.002342  -0.118702 -0.742200 0.659583  0.382097 0.572169 1 0 1.000000
0  32.289963 94.637802 43.528923  -0.139333 -0.787562 0.600277  0.365576 0.582253 1 0 1.000000
0  32.234909 94.254730 43.011833  -0.149526 -0.787435 0.597987  0.365290 0.580036 1 0 1.000000
skin_0dam
0  32.234909 94.254730 43.011833  -0.149526 -0.787435 0.597987  0.365290 0.580036 1 0 1.000000
0  35.428123 92.623047 41.763767  -0.117525 -0.740508 0.661692  0.381882 0.571024 1 0 1.000000
0  35.469418 92.823235 42.002342  -0.118702 -0.742200 0.659583  0.382097 0.572169 1 0 1.000000
skin_0dam
0  35.469418 92.823235 42.002342  -0.118702 -0.742200 0.659583  0.382097 0.572169 1 0 1.000000
0  35.428123 92.623047 41.763767  -0.117525 -0.740508 0.661692  0.381882 0.571024 1 0 1.000000
0  35.620815 92.506844 41.670704  -0.108840 -0.740096 0.663635  0.382884 0.570381 1 0 1.000000
skin_0dam
0  35.620815 92.506844 41.670704  -0.108840 -0.740096 0.663635  0.382884 0.570381 1 0 1.000000
0  35.634579 92.720741 41.910477  -0.098301 -0.738635 0.666900  0.382955 0.571597 1 0 1.000000
0  35.469418 92.823235 42.002342  -0.118702 -0.742200 0.659583  0.382097 0.572169 1 0 1.000000
skin_0dam
0  -35.496986 92.823219 42.002350  0.106271 -0.741552 0.662425  0.013334 0.572169 1 0 1.000000
0  -35.662155 92.720726 41.910484  0.098368 -0.738625 0.666901  0.012475 0.571597 1 0 1.000000
0  -35.648392 92.506828 41.670708  0.108799 -0.740095 0.663643  0.012547 0.570381 1 0 1.000000
skin_0dam
0  -35.648392 92.506828 41.670708  0.108799 -0.740095 0.663643  0.012547 0.570381 1 0 1.000000
0  -35.455696 92.623024 41.763775  0.114812 -0.743529 0.658774  0.013548 0.571024 1 0 1.000000
0  -35.496986 92.823219 42.002350  0.106271 -0.741552 0.662425  0.013334 0.572169 1 0 1.000000
skin_0dam
0  -32.317543 94.637787 43.528934  0.151544 -0.787247 0.597726  0.029855 0.582253 1 0 1.000000
0  -35.496986 92.823219 42.002350  0.106271 -0.741552 0.662425  0.013334 0.572169 1 0 1.000000
0  -35.455696 92.623024 41.763775  0.114812 -0.743529 0.658774  0.013548 0.571024 1 0 1.000000
skin_0dam
0  -35.455696 92.623024 41.763775  0.114812 -0.743529 0.658774  0.013548 0.571024 1 0 1.000000
0  -32.262482 94.254715 43.011845  0.158418 -0.785010 0.598885  0.030141 0.580036 1 0 1.000000
0  -32.317543 94.637787 43.528934  0.151544 -0.787247 0.597726  0.029855 0.582253 1 0 1.000000
skin_0dam
0  -29.206907 95.997101 44.573563  0.089951 -0.751757 0.653276  0.046019 0.589763 1 0 1.000000
0  -32.317543 94.637787 43.528934  0.151544 -0.787247 0.597726  0.029855 0.582253 1 0 1.000000
0  -32.262482 94.254715 43.011845  0.158418 -0.785010 0.598885  0.030141 0.580036 1 0 1.000000
skin_0dam
0  -32.262482 94.254715 43.011845  0.158418 -0.785010 0.598885  0.030141 0.580036 1 0 1.000000
0  -29.193144 95.532974 44.035561  0.091097 -0.753305 0.651331  0.046090 0.587117 1 0 1.000000
0  -29.206907 95.997101 44.573563  0.089951 -0.751757 0.653276  0.046019 0.589763 1 0 1.000000
skin_0dam
0  -29.206907 95.997101 44.573563  0.089951 -0.751757 0.653276  0.046019 0.589763 1 0 1.000000
0  -29.193144 95.532974 44.035561  0.091097 -0.753305 0.651331  0.046090 0.587117 1 0 1.000000
0  -25.889822 96.671204 44.922680  0.062384 -0.707305 0.704150  0.063255 0.593411 1 0 1.000000
skin_0dam
0  -25.889822 96.671204 44.922680  0.062384 -0.707305 0.704150  0.063255 0.593411 1 0 1.000000
0  -25.903585 97.217606 45.467880  0.056378 -0.699438 0.712466  0.063184 0.596486 1 0 1.000000
0  -29.206907 95.997101 44.573563  0.089951 -0.751757 0.653276  0.046019 0.589763 1 0 1.000000
skin_0dam
0  -25.903585 97.217606 45.467880  0.056378 -0.699438 0.712466  0.063184 0.596486 1 0 1.000000
0  -25.889822 96.671204 44.922680  0.062384 -0.707305 0.704150  0.063255 0.593411 1 0 1.000000
0  -21.774431 97.724251 45.677994  0.032997 -0.639742 0.767881  0.084640 0.599204 1 0 1.000000
skin_0dam
0  -21.774431 97.724251 45.677994  0.032997 -0.639742 0.767881  0.084640 0.599204 1 0 1.000000
0  -21.788195 98.407776 46.235184  0.029417 -0.633504 0.773180  0.084569 0.602994 1 0 1.000000
0  -25.903585 97.217606 45.467880  0.056378 -0.699438 0.712466  0.063184 0.596486 1 0 1.000000
skin_0dam
0  -11.630474 99.940048 47.198227  0.029297 -0.711849 0.701721  0.137351 0.611362 1 0 1.000000
0  -21.788195 98.407776 46.235184  0.029417 -0.633504 0.773180  0.084569 0.602994 1 0 1.000000
0  -21.774431 97.724251 45.677994  0.032997 -0.639742 0.767881  0.084640 0.599204 1 0 1.000000
skin_0dam
0  -21.774431 97.724251 45.677994  0.032997 -0.639742 0.767881  0.084640 0.599204 1 0 1.000000
0  -11.630474 99.344788 46.579678  0.032967 -0.713851 0.699522  0.137351 0.608001 1 0 1.000000
0  -11.630474 99.940048 47.198227  0.029297 -0.711849 0.701721  0.137351 0.611362 1 0 1.000000
skin_0dam
0  -0.013786 100.525871 47.608711  0.000018 -0.713832 0.700317  0.197715 0.614581 1 0 1.000000
0  -11.630474 99.940048 47.198227  0.029297 -0.711849 0.701721  0.137351 0.611362 1 0 1.000000
0  -11.630474 99.344788 46.579678  0.032967 -0.713851 0.699522  0.137351 0.608001 1 0 1.000000
skin_0dam
0  -11.630474 99.344788 46.579678  0.032967 -0.713851 0.699522  0.137351 0.608001 1 0 1.000000
0  -0.013786 99.930618 46.990158  0.000004 -0.713791 0.700359  0.197715 0.611219 1 0 1.000000
0  -0.013786 100.525871 47.608711  0.000018 -0.713832 0.700317  0.197715 0.614581 1 0 1.000000
skin_0dam
0  -0.013786 100.525871 47.608711  0.000018 -0.713832 0.700317  0.197715 0.614581 1 0 1.000000
0  -0.013786 99.930618 46.990158  0.000004 -0.713791 0.700359  0.197715 0.611219 1 0 1.000000
0  11.602901 99.344788 46.579678  -0.027707 -0.711971 0.701662  0.258079 0.608001 1 0 1.000000
skin_0dam
0  11.602901 99.344788 46.579678  -0.027707 -0.711971 0.701662  0.258079 0.608001 1 0 1.000000
0  11.602901 99.940048 47.198227  -0.025726 -0.714011 0.699662  0.258079 0.611362 1 0 1.000000
0  -0.013786 100.525871 47.608711  0.000018 -0.713832 0.700317  0.197715 0.614581 1 0 1.000000
skin_0dam
0  21.760624 98.407791 46.235188  -0.035122 -0.635831 0.771028  0.310862 0.602995 1 0 1.000000
0  11.602901 99.940048 47.198227  -0.025726 -0.714011 0.699662  0.258079 0.611362 1 0 1.000000
0  11.602901 99.344788 46.579678  -0.027707 -0.711971 0.701662  0.258079 0.608001 1 0 1.000000
skin_0dam
0  11.602901 99.344788 46.579678  -0.027707 -0.711971 0.701662  0.258079 0.608001 1 0 1.000000
0  21.746861 97.724266 45.677994  -0.036207 -0.637296 0.769768  0.310790 0.599204 1 0 1.000000
0  21.760624 98.407791 46.235188  -0.035122 -0.635831 0.771028  0.310862 0.602995 1 0 1.000000
skin_0dam
0  -35.359348 93.092827 41.763428  0.310767 -0.024002 -0.950183  0.014049 0.573456 1 0 1.000000
0  -35.607098 92.822189 41.698299  -0.476392 0.094488 -0.874141  0.012761 0.572026 1 0 1.000000
0  -35.180420 96.222107 41.843777  -0.407472 0.141391 -0.902206  0.014979 0.589691 1 0 1.000000
skin_0dam
0  -33.859093 100.195023 43.020348  -0.395299 0.741991 -0.541468  0.021845 0.610790 1 0 1.000000
0  -34.423409 99.359482 42.463669  -0.393907 0.556634 -0.731434  0.018912 0.606213 1 0 1.000000
0  -34.478462 99.290237 42.623417  -0.895734 0.317179 0.311542  0.018626 0.605927 1 0 1.000000
skin_0dam
0  -34.822559 98.487946 42.318340  -0.940172 0.207433 0.270274  0.016838 0.601636 1 0 1.000000
0  -34.478462 99.290237 42.623417  -0.895734 0.317179 0.311542  0.018626 0.605927 1 0 1.000000
0  -34.423409 99.359482 42.463669  -0.393907 0.556634 -0.731434  0.018912 0.606213 1 0 1.000000
skin_0dam
0  -34.423409 99.359482 42.463669  -0.393907 0.556634 -0.731434  0.018912 0.606213 1 0 1.000000
0  -34.767506 98.529755 42.156204  -0.412879 0.323470 -0.851409  0.017124 0.601779 1 0 1.000000
0  -34.822559 98.487946 42.318340  -0.940172 0.207433 0.270274  0.016838 0.601636 1 0 1.000000
skin_0dam
0  -35.235474 96.206512 42.022030  -0.960905 0.126577 0.246251  0.014693 0.589691 1 0 1.000000
0  -34.822559 98.487946 42.318340  -0.940172 0.207433 0.270274  0.016838 0.601636 1 0 1.000000
0  -34.767506 98.529755 42.156204  -0.412879 0.323470 -0.851409  0.017124 0.601779 1 0 1.000000
skin_0dam
0  -34.767506 98.529755 42.156204  -0.412879 0.323470 -0.851409  0.017124 0.601779 1 0 1.000000
0  -35.180420 96.222107 41.843777  -0.407472 0.141391 -0.902206  0.014979 0.589691 1 0 1.000000
0  -35.235474 96.206512 42.022030  -0.960905 0.126577 0.246251  0.014693 0.589691 1 0 1.000000
skin_0dam
0  -32.358833 96.916618 43.065117  0.353051 0.062767 -0.933496  0.029640 0.593840 1 0 1.000000
0  -35.180420 96.222107 41.843777  -0.407472 0.141391 -0.902206  0.014979 0.589691 1 0 1.000000
0  -34.767506 98.529755 42.156204  -0.412879 0.323470 -0.851409  0.017124 0.601779 1 0 1.000000
skin_0dam
0  -35.180420 96.222107 41.843777  -0.407472 0.141391 -0.902206  0.014979 0.589691 1 0 1.000000
0  -32.358833 96.916618 43.065117  0.353051 0.062767 -0.933496  0.029640 0.593840 1 0 1.000000
0  -35.359348 93.092827 41.763428  0.310767 -0.024002 -0.950183  0.014049 0.573456 1 0 1.000000
skin_0dam
0  -35.359348 93.092827 41.763428  0.310767 -0.024002 -0.950183  0.014049 0.573456 1 0 1.000000
0  -32.358833 96.916618 43.065117  0.353051 0.062767 -0.933496  0.029640 0.593840 1 0 1.000000
0  -32.262482 94.254715 43.011845  0.342088 0.029168 -0.939215  0.030141 0.580036 1 0 1.000000
skin_0dam
0  -32.262482 94.254715 43.011845  0.342088 0.029168 -0.939215  0.030141 0.580036 1 0 1.000000
0  -35.455696 92.623024 41.763775  0.370791 -0.019715 -0.928507  0.013548 0.571024 1 0 1.000000
0  -35.359348 93.092827 41.763428  0.310767 -0.024002 -0.950183  0.014049 0.573456 1 0 1.000000
skin_0dam
0  -35.607098 92.822189 41.698299  -0.476392 0.094488 -0.874141  0.012761 0.572026 1 0 1.000000
0  -35.359348 93.092827 41.763428  0.310767 -0.024002 -0.950183  0.014049 0.573456 1 0 1.000000
0  -35.455696 92.623024 41.763775  0.370791 -0.019715 -0.928507  0.013548 0.571024 1 0 1.000000
skin_0dam
0  -35.455696 92.623024 41.763775  0.370791 -0.019715 -0.928507  0.013548 0.571024 1 0 1.000000
0  -35.648392 92.506828 41.670708  -0.328598 0.127180 -0.935868  0.012547 0.570381 1 0 1.000000
0  -35.607098 92.822189 41.698299  -0.476392 0.094488 -0.874141  0.012761 0.572026 1 0 1.000000
skin_0dam
0  -35.648392 92.955032 41.917164  -0.920595 0.092368 0.379438  0.012547 0.572812 1 0 1.000000
0  -35.607098 92.822189 41.698299  -0.476392 0.094488 -0.874141  0.012761 0.572026 1 0 1.000000
0  -35.648392 92.506828 41.670708  -0.328598 0.127180 -0.935868  0.012547 0.570381 1 0 1.000000
skin_0dam
0  -35.648392 92.506828 41.670708  -0.328598 0.127180 -0.935868  0.012547 0.570381 1 0 1.000000
0  -35.662155 92.720726 41.910484  -0.982196 0.071981 0.173521  0.012475 0.571597 1 0 1.000000
0  -35.648392 92.955032 41.917164  -0.920595 0.092368 0.379438  0.012547 0.572812 1 0 1.000000
skin_0dam
0  -35.469460 93.070030 42.023941  -0.494067 0.004744 0.869411  0.013477 0.573456 1 0 1.000000
0  -35.648392 92.955032 41.917164  -0.920595 0.092368 0.379438  0.012547 0.572812 1 0 1.000000
0  -35.662155 92.720726 41.910484  -0.982196 0.071981 0.173521  0.012475 0.571597 1 0 1.000000
skin_0dam
0  -35.662155 92.720726 41.910484  -0.982196 0.071981 0.173521  0.012475 0.571597 1 0 1.000000
0  -35.496986 92.823219 42.002350  -0.470076 -0.019915 0.882401  0.013334 0.572169 1 0 1.000000
0  -35.469460 93.070030 42.023941  -0.494067 0.004744 0.869411  0.013477 0.573456 1 0 1.000000
skin_0dam
0  -32.331306 94.821342 43.641708  -0.239298 -0.313491 0.918945  0.029784 0.583255 1 0 1.000000
0  -35.469460 93.070030 42.023941  -0.494067 0.004744 0.869411  0.013477 0.573456 1 0 1.000000
0  -35.496986 92.823219 42.002350  -0.470076 -0.019915 0.882401  0.013334 0.572169 1 0 1.000000
skin_0dam
0  -35.496986 92.823219 42.002350  -0.470076 -0.019915 0.882401  0.013334 0.572169 1 0 1.000000
0  -32.317543 94.637787 43.528934  -0.085134 -0.531060 0.843047  0.029855 0.582253 1 0 1.000000
0  -32.331306 94.821342 43.641708  -0.239298 -0.313491 0.918945  0.029784 0.583255 1 0 1.000000
skin_0dam
0  -29.206907 96.166954 44.685135  -0.141046 -0.351839 0.925373  0.046019 0.590693 1 0 1.000000
0  -32.331306 94.821342 43.641708  -0.239298 -0.313491 0.918945  0.029784 0.583255 1 0 1.000000
0  -32.317543 94.637787 43.528934  -0.085134 -0.531060 0.843047  0.029855 0.582253 1 0 1.000000
skin_0dam
0  -33.859093 100.195023 43.020348  -0.395299 0.741991 -0.541468  0.021845 0.610790 1 0 1.000000
0  -32.207428 101.663368 44.240307  -0.421245 0.829503 -0.366712  0.030427 0.618944 1 0 1.000000
0  -32.276245 100.690704 43.671638  0.101866 0.499007 -0.860590  0.030070 0.613651 1 0 1.000000
skin_0dam
0  -32.276245 100.690704 43.671638  0.101866 0.499007 -0.860590  0.030070 0.613651 1 0 1.000000
0  -34.423409 99.359482 42.463669  -0.393907 0.556634 -0.731434  0.018912 0.606213 1 0 1.000000
0  -33.859093 100.195023 43.020348  -0.395299 0.741991 -0.541468  0.021845 0.610790 1 0 1.000000
skin_0dam
0  -32.276245 100.690704 43.671638  0.101866 0.499007 -0.860590  0.030070 0.613651 1 0 1.000000
0  -32.303772 100.362312 43.477104  0.249622 0.305117 -0.919017  0.029927 0.611863 1 0 1.000000
0  -34.423409 99.359482 42.463669  -0.393907 0.556634 -0.731434  0.018912 0.606213 1 0 1.000000
skin_0dam
0  -32.303772 100.362312 43.477104  0.249622 0.305117 -0.919017  0.029927 0.611863 1 0 1.000000
0  -34.767506 98.529755 42.156204  -0.412879 0.323470 -0.851409  0.017124 0.601779 1 0 1.000000
0  -34.423409 99.359482 42.463669  -0.393907 0.556634 -0.731434  0.018912 0.606213 1 0 1.000000
skin_0dam
0  -34.767506 98.529755 42.156204  -0.412879 0.323470 -0.851409  0.017124 0.601779 1 0 1.000000
0  -32.303772 100.362312 43.477104  0.249622 0.305117 -0.919017  0.029927 0.611863 1 0 1.000000
0  -32.358833 96.916618 43.065117  0.353051 0.062767 -0.933496  0.029640 0.593840 1 0 1.000000
skin_0dam
0  -0.013786 99.930618 46.990158  -0.000024 0.119614 -0.992820  0.197715 0.611219 1 0 1.000000
0  -11.630474 99.344788 46.579678  0.050558 0.123962 -0.990998  0.137351 0.608001 1 0 1.000000
0  -11.630476 102.475128 46.964077  0.046803 0.147760 -0.987915  0.137351 0.624379 1 0 1.000000
skin_0dam
0  -21.788195 100.951759 46.057079  0.109945 0.140467 -0.983962  0.084569 0.616083 1 0 1.000000
0  -11.630476 102.475128 46.964077  0.046803 0.147760 -0.987915  0.137351 0.624379 1 0 1.000000
0  -11.630474 99.344788 46.579678  0.050558 0.123962 -0.990998  0.137351 0.608001 1 0 1.000000
skin_0dam
0  -11.630476 102.475128 46.964077  0.046803 0.147760 -0.987915  0.137351 0.624379 1 0 1.000000
0  -21.788195 100.951759 46.057079  0.109945 0.140467 -0.983962  0.084569 0.616083 1 0 1.000000
0  -21.801960 105.703484 46.859661  -0.046663 0.680191 -0.731548  0.084497 0.641044 1 0 1.000000
skin_0dam
0  -25.917351 104.466866 45.991573  -0.071815 0.642932 -0.762549  0.063112 0.634249 1 0 1.000000
0  -21.801960 105.703484 46.859661  -0.046663 0.680191 -0.731548  0.084497 0.641044 1 0 1.000000
0  -21.788195 100.951759 46.057079  0.109945 0.140467 -0.983962  0.084569 0.616083 1 0 1.000000
skin_0dam
0  -21.801960 105.703484 46.859661  -0.046663 0.680191 -0.731548  0.084497 0.641044 1 0 1.000000
0  -25.917351 104.466866 45.991573  -0.071815 0.642932 -0.762549  0.063112 0.634249 1 0 1.000000
0  -25.917351 104.534752 46.163311  -0.243274 0.898979 -0.364217  0.063112 0.634678 1 0 1.000000
skin_0dam
0  -29.220673 102.823708 45.032646  -0.156928 0.736512 -0.657969  0.045947 0.625309 1 0 1.000000
0  -25.917351 104.534752 46.163311  -0.243274 0.898979 -0.364217  0.063112 0.634678 1 0 1.000000
0  -25.917351 104.466866 45.991573  -0.071815 0.642932 -0.762549  0.063112 0.634249 1 0 1.000000
skin_0dam
0  -25.917351 104.534752 46.163311  -0.243274 0.898979 -0.364217  0.063112 0.634678 1 0 1.000000
0  -29.220673 102.823708 45.032646  -0.156928 0.736512 -0.657969  0.045947 0.625309 1 0 1.000000
0  -29.220673 103.360519 45.687534  -0.452695 0.890908 -0.036733  0.045947 0.628384 1 0 1.000000
skin_0dam
0  -32.207428 101.663368 44.240307  -0.421245 0.829503 -0.366712  0.030427 0.618944 1 0 1.000000
0  -29.220673 103.360519 45.687534  -0.452695 0.890908 -0.036733  0.045947 0.628384 1 0 1.000000
0  -29.220673 102.823708 45.032646  -0.156928 0.736512 -0.657969  0.045947 0.625309 1 0 1.000000
skin_0dam
0  -29.220673 102.823708 45.032646  -0.156928 0.736512 -0.657969  0.045947 0.625309 1 0 1.000000
0  -32.276245 100.690704 43.671638  0.101866 0.499007 -0.860590  0.030070 0.613651 1 0 1.000000
0  -32.207428 101.663368 44.240307  -0.421245 0.829503 -0.366712  0.030427 0.618944 1 0 1.000000
skin_0dam
0  -32.276245 100.690704 43.671638  0.101866 0.499007 -0.860590  0.030070 0.613651 1 0 1.000000
0  -29.220673 102.823708 45.032646  -0.156928 0.736512 -0.657969  0.045947 0.625309 1 0 1.000000
0  -29.220671 102.659851 44.852512  0.032175 0.478312 -0.877600  0.045947 0.624379 1 0 1.000000
skin_0dam
0  -29.220671 102.659851 44.852512  0.032175 0.478312 -0.877600  0.045947 0.624379 1 0 1.000000
0  -32.303772 100.362312 43.477104  0.249622 0.305117 -0.919017  0.029927 0.611863 1 0 1.000000
0  -32.276245 100.690704 43.671638  0.101866 0.499007 -0.860590  0.030070 0.613651 1 0 1.000000
skin_0dam
0  -32.303772 100.362312 43.477104  0.249622 0.305117 -0.919017  0.029927 0.611863 1 0 1.000000
0  -29.220671 102.659851 44.852512  0.032175 0.478312 -0.877600  0.045947 0.624379 1 0 1.000000
0  -29.206907 98.495850 44.280960  0.278265 0.106684 -0.954561  0.046019 0.602565 1 0 1.000000
skin_0dam
0  -29.206907 98.495850 44.280960  0.278265 0.106684 -0.954561  0.046019 0.602565 1 0 1.000000
0  -32.358833 96.916618 43.065117  0.353051 0.062767 -0.933496  0.029640 0.593840 1 0 1.000000
0  -32.303772 100.362312 43.477104  0.249622 0.305117 -0.919017  0.029927 0.611863 1 0 1.000000
skin_0dam
0  -32.358833 96.916618 43.065117  0.353051 0.062767 -0.933496  0.029640 0.593840 1 0 1.000000
0  -29.206907 98.495850 44.280960  0.278265 0.106684 -0.954561  0.046019 0.602565 1 0 1.000000
0  -29.193144 95.532974 44.035561  0.284316 0.068408 -0.956287  0.046090 0.587117 1 0 1.000000
skin_0dam
0  -29.193144 95.532974 44.035561  0.284316 0.068408 -0.956287  0.046090 0.587117 1 0 1.000000
0  -32.262482 94.254715 43.011845  0.342088 0.029168 -0.939215  0.030141 0.580036 1 0 1.000000
0  -32.358833 96.916618 43.065117  0.353051 0.062767 -0.933496  0.029640 0.593840 1 0 1.000000
skin_0dam
0  -25.917351 104.466866 45.991573  -0.071815 0.642932 -0.762549  0.063112 0.634249 1 0 1.000000
0  -29.220671 102.659851 44.852512  0.032175 0.478312 -0.877600  0.045947 0.624379 1 0 1.000000
0  -29.220673 102.823708 45.032646  -0.156928 0.736512 -0.657969  0.045947 0.625309 1 0 1.000000
skin_0dam
0  -29.220671 102.659851 44.852512  0.032175 0.478312 -0.877600  0.045947 0.624379 1 0 1.000000
0  -25.917351 104.466866 45.991573  -0.071815 0.642932 -0.762549  0.063112 0.634249 1 0 1.000000
0  -25.903585 99.818848 45.267143  0.196801 0.128230 -0.972022  0.063184 0.609860 1 0 1.000000
skin_0dam
0  -25.903585 99.818848 45.267143  0.196801 0.128230 -0.972022  0.063184 0.609860 1 0 1.000000
0  -29.206907 98.495850 44.280960  0.278265 0.106684 -0.954561  0.046019 0.602565 1 0 1.000000
0  -29.220671 102.659851 44.852512  0.032175 0.478312 -0.877600  0.045947 0.624379 1 0 1.000000
skin_0dam
0  -29.206907 98.495850 44.280960  0.278265 0.106684 -0.954561  0.046019 0.602565 1 0 1.000000
0  -25.903585 99.818848 45.267143  0.196801 0.128230 -0.972022  0.063184 0.609860 1 0 1.000000
0  -25.889822 96.671204 44.922680  0.204441 0.100903 -0.973664  0.063255 0.593411 1 0 1.000000
skin_0dam
0  -25.889822 96.671204 44.922680  0.204441 0.100903 -0.973664  0.063255 0.593411 1 0 1.000000
0  -29.193144 95.532974 44.035561  0.284316 0.068408 -0.956287  0.046090 0.587117 1 0 1.000000
0  -29.206907 98.495850 44.280960  0.278265 0.106684 -0.954561  0.046019 0.602565 1 0 1.000000
skin_0dam
0  -21.788195 100.951759 46.057079  0.109945 0.140467 -0.983962  0.084569 0.616083 1 0 1.000000
0  -25.903585 99.818848 45.267143  0.196801 0.128230 -0.972022  0.063184 0.609860 1 0 1.000000
0  -25.917351 104.466866 45.991573  -0.071815 0.642932 -0.762549  0.063112 0.634249 1 0 1.000000
skin_0dam
0  -25.903585 99.818848 45.267143  0.196801 0.128230 -0.972022  0.063184 0.609860 1 0 1.000000
0  -21.788195 100.951759 46.057079  0.109945 0.140467 -0.983962  0.084569 0.616083 1 0 1.000000
0  -21.774431 97.724251 45.677994  0.117874 0.114614 -0.986392  0.084640 0.599204 1 0 1.000000
skin_0dam
0  -21.774431 97.724251 45.677994  0.117874 0.114614 -0.986392  0.084640 0.599204 1 0 1.000000
0  -25.889822 96.671204 44.922680  0.204441 0.100903 -0.973664  0.063255 0.593411 1 0 1.000000
0  -25.903585 99.818848 45.267143  0.196801 0.128230 -0.972022  0.063184 0.609860 1 0 1.000000
skin_0dam
0  -11.630474 99.344788 46.579678  0.050558 0.123962 -0.990998  0.137351 0.608001 1 0 1.000000
0  -21.774431 97.724251 45.677994  0.117874 0.114614 -0.986392  0.084640 0.599204 1 0 1.000000
0  -21.788195 100.951759 46.057079  0.109945 0.140467 -0.983962  0.084569 0.616083 1 0 1.000000
skin_0dam
0  21.760624 100.951775 46.057083  -0.109946 0.140468 -0.983962  0.310862 0.616083 1 0 1.000000
0  21.746861 97.724266 45.677994  -0.117874 0.114615 -0.986392  0.310790 0.599204 1 0 1.000000
0  11.602901 99.344788 46.579678  -0.050624 0.123874 -0.991006  0.258079 0.608001 1 0 1.000000
skin_0dam
0  11.602901 99.344788 46.579678  -0.050624 0.123874 -0.991006  0.258079 0.608001 1 0 1.000000
0  11.602901 102.475128 46.964077  -0.046840 0.147765 -0.987913  0.258079 0.624379 1 0 1.000000
0  21.760624 100.951775 46.057083  -0.109946 0.140468 -0.983962  0.310862 0.616083 1 0 1.000000
skin_0dam
0  11.602901 102.475128 46.964077  -0.046840 0.147765 -0.987913  0.258079 0.624379 1 0 1.000000
0  11.602901 99.344788 46.579678  -0.050624 0.123874 -0.991006  0.258079 0.608001 1 0 1.000000
0  -0.013786 99.930618 46.990158  -0.000024 0.119614 -0.992820  0.197715 0.611219 1 0 1.000000
skin_0dam
0  -0.013786 99.930618 46.990158  -0.000024 0.119614 -0.992820  0.197715 0.611219 1 0 1.000000
0  -0.013786 103.034729 47.358444  -0.000000 0.146664 -0.989186  0.197715 0.627455 1 0 1.000000
0  11.602901 102.475128 46.964077  -0.046840 0.147765 -0.987913  0.258079 0.624379 1 0 1.000000
skin_0dam
0  -11.630476 102.475128 46.964077  0.046803 0.147760 -0.987915  0.137351 0.624379 1 0 1.000000
0  -0.013786 103.034729 47.358444  -0.000000 0.146664 -0.989186  0.197715 0.627455 1 0 1.000000
0  -0.013786 99.930618 46.990158  -0.000024 0.119614 -0.992820  0.197715 0.611219 1 0 1.000000
skin_0dam
0  -0.013786 103.034729 47.358444  -0.000000 0.146664 -0.989186  0.197715 0.627455 1 0 1.000000
0  -11.630476 102.475128 46.964077  0.046803 0.147760 -0.987915  0.137351 0.624379 1 0 1.000000
0  -11.658005 107.102242 47.769581  -0.017543 0.662873 -0.748526  0.137208 0.648697 1 0 1.000000
skin_0dam
0  -21.801960 105.703484 46.859661  -0.046663 0.680191 -0.731548  0.084497 0.641044 1 0 1.000000
0  -11.658005 107.102242 47.769581  -0.017543 0.662873 -0.748526  0.137208 0.648697 1 0 1.000000
0  -11.630476 102.475128 46.964077  0.046803 0.147760 -0.987915  0.137351 0.624379 1 0 1.000000
skin_0dam
0  -11.658005 107.102242 47.769581  -0.017543 0.662873 -0.748526  0.137208 0.648697 1 0 1.000000
0  -21.801960 105.703484 46.859661  -0.046663 0.680191 -0.731548  0.084497 0.641044 1 0 1.000000
0  -21.801960 105.757645 47.030197  -0.156997 0.943778 -0.290920  0.084497 0.641401 1 0 1.000000
skin_0dam
0  -25.917351 104.534752 46.163311  -0.243274 0.898979 -0.364217  0.063112 0.634678 1 0 1.000000
0  -21.801960 105.757645 47.030197  -0.156997 0.943778 -0.290920  0.084497 0.641401 1 0 1.000000
0  -21.801960 105.703484 46.859661  -0.046663 0.680191 -0.731548  0.084497 0.641044 1 0 1.000000
skin_0dam
0  -21.801960 105.757645 47.030197  -0.156997 0.943778 -0.290920  0.084497 0.641401 1 0 1.000000
0  -25.917351 104.534752 46.163311  -0.243274 0.898979 -0.364217  0.063112 0.634678 1 0 1.000000
0  -25.917351 104.830055 46.893784  -0.382012 0.894982 0.230377  0.063112 0.636538 1 0 1.000000
skin_0dam
0  -29.220673 103.360519 45.687534  -0.452695 0.890908 -0.036733  0.045947 0.628384 1 0 1.000000
0  -25.917351 104.830055 46.893784  -0.382012 0.894982 0.230377  0.063112 0.636538 1 0 1.000000
0  -25.917351 104.534752 46.163311  -0.243274 0.898979 -0.364217  0.063112 0.634678 1 0 1.000000
skin_0dam
0  -25.903587 104.682152 47.005196  -0.322911 0.195268 0.926066  0.063184 0.635823 1 0 1.000000
0  -25.917351 104.830055 46.893784  -0.382012 0.894982 0.230377  0.063112 0.636538 1 0 1.000000
0  -29.220673 103.360519 45.687534  -0.452695 0.890908 -0.036733  0.045947 0.628384 1 0 1.000000
skin_0dam
0  -29.220673 103.360519 45.687534  -0.452695 0.890908 -0.036733  0.045947 0.628384 1 0 1.000000
0  -29.220673 103.251350 45.829960  -0.468161 0.269728 0.841470  0.045947 0.627884 1 0 1.000000
0  -25.903587 104.682152 47.005196  -0.322911 0.195268 0.926066  0.063184 0.635823 1 0 1.000000
skin_0dam
0  -32.234955 101.580421 44.398849  -0.633516 0.359479 0.685151  0.030284 0.618586 1 0 1.000000
0  -29.220673 103.251350 45.829960  -0.468161 0.269728 0.841470  0.045947 0.627884 1 0 1.000000
0  -29.220673 103.360519 45.687534  -0.452695 0.890908 -0.036733  0.045947 0.628384 1 0 1.000000
skin_0dam
0  -29.220673 103.360519 45.687534  -0.452695 0.890908 -0.036733  0.045947 0.628384 1 0 1.000000
0  -32.207428 101.663368 44.240307  -0.421245 0.829503 -0.366712  0.030427 0.618944 1 0 1.000000
0  -32.234955 101.580421 44.398849  -0.633516 0.359479 0.685151  0.030284 0.618586 1 0 1.000000
skin_0dam
0  -33.914146 100.125786 43.180088  -0.803406 0.387864 0.451775  0.021559 0.610504 1 0 1.000000
0  -32.234955 101.580421 44.398849  -0.633516 0.359479 0.685151  0.030284 0.618586 1 0 1.000000
0  -32.207428 101.663368 44.240307  -0.421245 0.829503 -0.366712  0.030427 0.618944 1 0 1.000000
skin_0dam
0  -32.207428 101.663368 44.240307  -0.421245 0.829503 -0.366712  0.030427 0.618944 1 0 1.000000
0  -33.859093 100.195023 43.020348  -0.395299 0.741991 -0.541468  0.021845 0.610790 1 0 1.000000
0  -33.914146 100.125786 43.180088  -0.803406 0.387864 0.451775  0.021559 0.610504 1 0 1.000000
skin_0dam
0  -34.478462 99.290237 42.623417  -0.895734 0.317179 0.311542  0.018626 0.605927 1 0 1.000000
0  -33.914146 100.125786 43.180088  -0.803406 0.387864 0.451775  0.021559 0.610504 1 0 1.000000
0  -33.859093 100.195023 43.020348  -0.395299 0.741991 -0.541468  0.021845 0.610790 1 0 1.000000
skin_0dam
0  -35.180420 96.222107 41.843777  -0.407472 0.141391 -0.902206  0.014979 0.589691 1 0 1.000000
0  -35.607098 92.822189 41.698299  -0.476392 0.094488 -0.874141  0.012761 0.572026 1 0 1.000000
0  -35.648392 92.955032 41.917164  -0.920595 0.092368 0.379438  0.012547 0.572812 1 0 1.000000
skin_0dam
0  -35.648392 92.955032 41.917164  -0.920595 0.092368 0.379438  0.012547 0.572812 1 0 1.000000
0  -35.235474 96.206512 42.022030  -0.960905 0.126577 0.246251  0.014693 0.589691 1 0 1.000000
0  -35.180420 96.222107 41.843777  -0.407472 0.141391 -0.902206  0.014979 0.589691 1 0 1.000000
skin_0dam
0  -35.235474 96.206512 42.022030  -0.960905 0.126577 0.246251  0.014693 0.589691 1 0 1.000000
0  -35.648392 92.955032 41.917164  -0.920595 0.092368 0.379438  0.012547 0.572812 1 0 1.000000
0  -35.469460 93.070030 42.023941  -0.494067 0.004744 0.869411  0.013477 0.573456 1 0 1.000000
skin_0dam
0  -35.469460 93.070030 42.023941  -0.494067 0.004744 0.869411  0.013477 0.573456 1 0 1.000000
0  -35.070312 96.334038 42.143715  -0.617341 0.026032 0.786265  0.015551 0.590407 1 0 1.000000
0  -35.235474 96.206512 42.022030  -0.960905 0.126577 0.246251  0.014693 0.589691 1 0 1.000000
skin_0dam
0  -34.822559 98.487946 42.318340  -0.940172 0.207433 0.270274  0.016838 0.601636 1 0 1.000000
0  -35.235474 96.206512 42.022030  -0.960905 0.126577 0.246251  0.014693 0.589691 1 0 1.000000
0  -35.070312 96.334038 42.143715  -0.617341 0.026032 0.786265  0.015551 0.590407 1 0 1.000000
skin_0dam
0  -35.070312 96.334038 42.143715  -0.617341 0.026032 0.786265  0.015551 0.590407 1 0 1.000000
0  -34.698685 98.422302 42.436943  -0.611284 -0.014801 0.791273  0.017482 0.601349 1 0 1.000000
0  -34.822559 98.487946 42.318340  -0.940172 0.207433 0.270274  0.016838 0.601636 1 0 1.000000
skin_0dam
0  -34.478462 99.290237 42.623417  -0.895734 0.317179 0.311542  0.018626 0.605927 1 0 1.000000
0  -34.822559 98.487946 42.318340  -0.940172 0.207433 0.270274  0.016838 0.601636 1 0 1.000000
0  -34.698685 98.422302 42.436943  -0.611284 -0.014801 0.791273  0.017482 0.601349 1 0 1.000000
skin_0dam
0  -34.698685 98.422302 42.436943  -0.611284 -0.014801 0.791273  0.017482 0.601349 1 0 1.000000
0  -34.368351 99.169754 42.737217  -0.645724 -0.043875 0.762309  0.019198 0.605355 1 0 1.000000
0  -34.478462 99.290237 42.623417  -0.895734 0.317179 0.311542  0.018626 0.605927 1 0 1.000000
skin_0dam
0  -33.914146 100.125786 43.180088  -0.803406 0.387864 0.451775  0.021559 0.610504 1 0 1.000000
0  -34.478462 99.290237 42.623417  -0.895734 0.317179 0.311542  0.018626 0.605927 1 0 1.000000
0  -34.368351 99.169754 42.737217  -0.645724 -0.043875 0.762309  0.019198 0.605355 1 0 1.000000
skin_0dam
0  -34.368351 99.169754 42.737217  -0.645724 -0.043875 0.762309  0.019198 0.605355 1 0 1.000000
0  -33.859093 99.941544 43.233051  -0.602181 -0.057089 0.796316  0.021845 0.609574 1 0 1.000000
0  -33.914146 100.125786 43.180088  -0.803406 0.387864 0.451775  0.021559 0.610504 1 0 1.000000
skin_0dam
0  -32.234955 101.580421 44.398849  -0.633516 0.359479 0.685151  0.030284 0.618586 1 0 1.000000
0  -33.914146 100.125786 43.180088  -0.803406 0.387864 0.451775  0.021559 0.610504 1 0 1.000000
0  -33.859093 99.941544 43.233051  -0.602181 -0.057089 0.796316  0.021845 0.609574 1 0 1.000000
skin_0dam
0  -33.859093 99.941544 43.233051  -0.602181 -0.057089 0.796316  0.021845 0.609574 1 0 1.000000
0  -32.234955 101.348526 44.364746  -0.440878 -0.110556 0.890732  0.030284 0.617370 1 0 1.000000
0  -32.234955 101.580421 44.398849  -0.633516 0.359479 0.685151  0.030284 0.618586 1 0 1.000000
skin_0dam
0  -29.220673 103.251350 45.829960  -0.468161 0.269728 0.841470  0.045947 0.627884 1 0 1.000000
0  -32.234955 101.580421 44.398849  -0.633516 0.359479 0.685151  0.030284 0.618586 1 0 1.000000
0  -32.234955 101.348526 44.364746  -0.440878 -0.110556 0.890732  0.030284 0.617370 1 0 1.000000
skin_0dam
0  -32.234955 101.348526 44.364746  -0.440878 -0.110556 0.890732  0.030284 0.617370 1 0 1.000000
0  -29.220673 103.048073 45.784546  -0.282489 -0.184979 0.941267  0.045947 0.626811 1 0 1.000000
0  -29.220673 103.251350 45.829960  -0.468161 0.269728 0.841470  0.045947 0.627884 1 0 1.000000
skin_0dam
0  -29.220673 103.251350 45.829960  -0.468161 0.269728 0.841470  0.045947 0.627884 1 0 1.000000
0  -29.220673 103.048073 45.784546  -0.282489 -0.184979 0.941267  0.045947 0.626811 1 0 1.000000
0  -25.903587 104.506302 46.962177  -0.181163 -0.234606 0.955060  0.063184 0.634893 1 0 1.000000
skin_0dam
0  -25.903587 104.506302 46.962177  -0.181163 -0.234606 0.955060  0.063184 0.634893 1 0 1.000000
0  -25.903587 104.682152 47.005196  -0.322911 0.195268 0.926066  0.063184 0.635823 1 0 1.000000
0  -29.220673 103.251350 45.829960  -0.468161 0.269728 0.841470  0.045947 0.627884 1 0 1.000000
skin_0dam
0  -25.903587 104.682152 47.005196  -0.322911 0.195268 0.926066  0.063184 0.635823 1 0 1.000000
0  -25.903587 104.506302 46.962177  -0.181163 -0.234606 0.955060  0.063184 0.634893 1 0 1.000000
0  -21.801960 105.649330 47.794441  -0.089786 -0.246811 0.964895  0.084497 0.641187 1 0 1.000000
skin_0dam
0  -21.801960 105.649330 47.794441  -0.089786 -0.246811 0.964895  0.084497 0.641187 1 0 1.000000
0  -21.801960 105.837685 47.852371  -0.179938 0.185434 0.966042  0.084497 0.642188 1 0 1.000000
0  -25.903587 104.682152 47.005196  -0.322911 0.195268 0.926066  0.063184 0.635823 1 0 1.000000
skin_0dam
0  -11.644241 107.251366 48.749771  -0.074281 0.141925 0.987086  0.137280 0.649912 1 0 1.000000
0  -21.801960 105.837685 47.852371  -0.179938 0.185434 0.966042  0.084497 0.642188 1 0 1.000000
0  -21.801960 105.649330 47.794441  -0.089786 -0.246811 0.964895  0.084497 0.641187 1 0 1.000000
skin_0dam
0  -21.801960 105.837685 47.852371  -0.179938 0.185434 0.966042  0.084497 0.642188 1 0 1.000000
0  -11.644241 107.251366 48.749771  -0.074281 0.141925 0.987086  0.137280 0.649912 1 0 1.000000
0  -11.644241 107.411781 48.653282  -0.105897 0.931588 0.347750  0.137280 0.650699 1 0 1.000000
skin_0dam
0  -0.013788 107.971390 49.047653  -0.000076 0.937590 0.347741  0.197715 0.653775 1 0 1.000000
0  -11.644241 107.411781 48.653282  -0.105897 0.931588 0.347750  0.137280 0.650699 1 0 1.000000
0  -11.644241 107.251366 48.749771  -0.074281 0.141925 0.987086  0.137280 0.649912 1 0 1.000000
skin_0dam
0  -11.644241 107.411781 48.653282  -0.105897 0.931588 0.347750  0.137280 0.650699 1 0 1.000000
0  -0.013788 107.971390 49.047653  -0.000076 0.937590 0.347741  0.197715 0.653775 1 0 1.000000
0  -0.013788 107.728516 48.349396  0.000011 0.947879 -0.318631  0.197715 0.652201 1 0 1.000000
skin_0dam
0  -0.013788 107.728516 48.349396  0.000011 0.947879 -0.318631  0.197715 0.652201 1 0 1.000000
0  -0.013788 107.971390 49.047653  -0.000076 0.937590 0.347741  0.197715 0.653775 1 0 1.000000
0  11.616665 107.411781 48.653282  0.106406 0.931508 0.347809  0.258151 0.650699 1 0 1.000000
skin_0dam
0  11.616665 107.411781 48.653282  0.106406 0.931508 0.347809  0.258151 0.650699 1 0 1.000000
0  11.630428 107.170113 47.941311  0.068864 0.945176 -0.319218  0.258222 0.649126 1 0 1.000000
0  -0.013788 107.728516 48.349396  0.000011 0.947879 -0.318631  0.197715 0.652201 1 0 1.000000
skin_0dam
0  11.630428 107.170113 47.941311  0.068864 0.945176 -0.319218  0.258222 0.649126 1 0 1.000000
0  11.616665 107.411781 48.653282  0.106406 0.931508 0.347809  0.258151 0.650699 1 0 1.000000
0  21.774384 105.985619 47.740967  0.231201 0.921331 0.312564  0.310933 0.642903 1 0 1.000000
skin_0dam
0  21.774384 105.985619 47.740967  0.231201 0.921331 0.312564  0.310933 0.642903 1 0 1.000000
0  21.774384 105.757660 47.030197  0.156922 0.943801 -0.290887  0.310933 0.641401 1 0 1.000000
0  11.630428 107.170113 47.941311  0.068864 0.945176 -0.319218  0.258222 0.649126 1 0 1.000000
skin_0dam
0  21.774384 105.757660 47.030197  0.156922 0.943801 -0.290887  0.310933 0.641401 1 0 1.000000
0  21.774384 105.985619 47.740967  0.231201 0.921331 0.312564  0.310933 0.642903 1 0 1.000000
0  25.889774 104.830070 46.893776  0.382009 0.894982 0.230381  0.332318 0.636538 1 0 1.000000
skin_0dam
0  25.889774 104.830070 46.893776  0.382009 0.894982 0.230381  0.332318 0.636538 1 0 1.000000
0  25.889774 104.534767 46.163303  0.245712 0.897247 -0.366841  0.332318 0.634678 1 0 1.000000
0  21.774384 105.757660 47.030197  0.156922 0.943801 -0.290887  0.310933 0.641401 1 0 1.000000
skin_0dam
0  25.889774 104.534767 46.163303  0.245712 0.897247 -0.366841  0.332318 0.634678 1 0 1.000000
0  25.889774 104.830070 46.893776  0.382009 0.894982 0.230381  0.332318 0.636538 1 0 1.000000
0  29.193096 103.360535 45.687531  0.452652 0.890928 -0.036790  0.349483 0.628385 1 0 1.000000
skin_0dam
0  29.193096 103.360535 45.687531  0.452652 0.890928 -0.036790  0.349483 0.628385 1 0 1.000000
0  29.193096 102.823715 45.032642  0.149057 0.735862 -0.660521  0.349483 0.625309 1 0 1.000000
0  25.889774 104.534767 46.163303  0.245712 0.897247 -0.366841  0.332318 0.634678 1 0 1.000000
skin_0dam
0  29.193096 102.823715 45.032642  0.149057 0.735862 -0.660521  0.349483 0.625309 1 0 1.000000
0  29.193096 103.360535 45.687531  0.452652 0.890928 -0.036790  0.349483 0.628385 1 0 1.000000
0  32.179855 101.663383 44.240303  0.421196 0.829528 -0.366711  0.365004 0.618944 1 0 1.000000
skin_0dam
0  32.179855 101.663383 44.240303  0.421196 0.829528 -0.366711  0.365004 0.618944 1 0 1.000000
0  32.248672 100.690720 43.671635  -0.101312 0.499748 -0.860225  0.365361 0.613651 1 0 1.000000
0  29.193096 102.823715 45.032642  0.149057 0.735862 -0.660521  0.349483 0.625309 1 0 1.000000
skin_0dam
0  32.248672 100.690720 43.671635  -0.101312 0.499748 -0.860225  0.365361 0.613651 1 0 1.000000
0  32.179855 101.663383 44.240303  0.421196 0.829528 -0.366711  0.365004 0.618944 1 0 1.000000
0  33.831516 100.195038 43.020340  0.395273 0.742021 -0.541446  0.373586 0.610790 1 0 1.000000
skin_0dam
0  33.831516 100.195038 43.020340  0.395273 0.742021 -0.541446  0.373586 0.610790 1 0 1.000000
0  34.395832 99.359497 42.463665  0.393940 0.556576 -0.731461  0.376518 0.606213 1 0 1.000000
0  32.248672 100.690720 43.671635  -0.101312 0.499748 -0.860225  0.365361 0.613651 1 0 1.000000
skin_0dam
0  34.450890 99.290253 42.623409  0.895690 0.317281 0.311565  0.376804 0.605927 1 0 1.000000
0  34.395832 99.359497 42.463665  0.393940 0.556576 -0.731461  0.376518 0.606213 1 0 1.000000
0  33.831516 100.195038 43.020340  0.395273 0.742021 -0.541446  0.373586 0.610790 1 0 1.000000
skin_0dam
0  34.395832 99.359497 42.463665  0.393940 0.556576 -0.731461  0.376518 0.606213 1 0 1.000000
0  34.450890 99.290253 42.623409  0.895690 0.317281 0.311565  0.376804 0.605927 1 0 1.000000
0  34.794987 98.487961 42.318333  0.940144 0.207479 0.270337  0.378593 0.601636 1 0 1.000000
skin_0dam
0  32.179855 101.663383 44.240303  0.421196 0.829528 -0.366711  0.365004 0.618944 1 0 1.000000
0  32.207382 101.580437 44.398846  0.633442 0.359363 0.685280  0.365147 0.618586 1 0 1.000000
0  33.886574 100.125801 43.180080  0.803379 0.387845 0.451839  0.373872 0.610504 1 0 1.000000
skin_0dam
0  32.207382 101.580437 44.398846  0.633442 0.359363 0.685280  0.365147 0.618586 1 0 1.000000
0  32.179855 101.663383 44.240303  0.421196 0.829528 -0.366711  0.365004 0.618944 1 0 1.000000
0  29.193096 103.360535 45.687531  0.452652 0.890928 -0.036790  0.349483 0.628385 1 0 1.000000
skin_0dam
0  29.193096 103.360535 45.687531  0.452652 0.890928 -0.036790  0.349483 0.628385 1 0 1.000000
0  29.193096 103.251366 45.829956  0.468163 0.269799 0.841446  0.349483 0.627884 1 0 1.000000
0  32.207382 101.580437 44.398846  0.633442 0.359363 0.685280  0.365147 0.618586 1 0 1.000000
skin_0dam
0  25.876011 104.682167 47.005188  0.322936 0.195209 0.926070  0.332247 0.635823 1 0 1.000000
0  29.193096 103.251366 45.829956  0.468163 0.269799 0.841446  0.349483 0.627884 1 0 1.000000
0  29.193096 103.360535 45.687531  0.452652 0.890928 -0.036790  0.349483 0.628385 1 0 1.000000
skin_0dam
0  29.193096 103.360535 45.687531  0.452652 0.890928 -0.036790  0.349483 0.628385 1 0 1.000000
0  25.889774 104.830070 46.893776  0.382009 0.894982 0.230381  0.332318 0.636538 1 0 1.000000
0  25.876011 104.682167 47.005188  0.322936 0.195209 0.926070  0.332247 0.635823 1 0 1.000000
skin_0dam
0  21.774384 105.837700 47.852371  0.179494 0.185729 0.966067  0.310933 0.642188 1 0 1.000000
0  25.876011 104.682167 47.005188  0.322936 0.195209 0.926070  0.332247 0.635823 1 0 1.000000
0  25.889774 104.830070 46.893776  0.382009 0.894982 0.230381  0.332318 0.636538 1 0 1.000000
skin_0dam
0  25.889774 104.830070 46.893776  0.382009 0.894982 0.230381  0.332318 0.636538 1 0 1.000000
0  21.774384 105.985619 47.740967  0.231201 0.921331 0.312564  0.310933 0.642903 1 0 1.000000
0  21.774384 105.837700 47.852371  0.179494 0.185729 0.966067  0.310933 0.642188 1 0 1.000000
skin_0dam
0  11.616665 107.251366 48.749771  0.074764 0.142147 0.987018  0.258151 0.649912 1 0 1.000000
0  21.774384 105.837700 47.852371  0.179494 0.185729 0.966067  0.310933 0.642188 1 0 1.000000
0  21.774384 105.985619 47.740967  0.231201 0.921331 0.312564  0.310933 0.642903 1 0 1.000000
skin_0dam
0  21.774384 105.985619 47.740967  0.231201 0.921331 0.312564  0.310933 0.642903 1 0 1.000000
0  11.616665 107.411781 48.653282  0.106406 0.931508 0.347809  0.258151 0.650699 1 0 1.000000
0  11.616665 107.251366 48.749771  0.074764 0.142147 0.987018  0.258151 0.649912 1 0 1.000000
skin_0dam
0  -0.013788 107.810974 49.144142  -0.000082 0.149427 0.988773  0.197715 0.652988 1 0 1.000000
0  11.616665 107.251366 48.749771  0.074764 0.142147 0.987018  0.258151 0.649912 1 0 1.000000
0  11.616665 107.411781 48.653282  0.106406 0.931508 0.347809  0.258151 0.650699 1 0 1.000000
skin_0dam
0  11.616665 107.411781 48.653282  0.106406 0.931508 0.347809  0.258151 0.650699 1 0 1.000000
0  -0.013788 107.971390 49.047653  -0.000076 0.937590 0.347741  0.197715 0.653775 1 0 1.000000
0  -0.013788 107.810974 49.144142  -0.000082 0.149427 0.988773  0.197715 0.652988 1 0 1.000000
skin_0dam
0  -11.644241 107.251366 48.749771  -0.074281 0.141925 0.987086  0.137280 0.649912 1 0 1.000000
0  -0.013788 107.810974 49.144142  -0.000082 0.149427 0.988773  0.197715 0.652988 1 0 1.000000
0  -0.013788 107.971390 49.047653  -0.000076 0.937590 0.347741  0.197715 0.653775 1 0 1.000000
skin_0dam
0  33.886574 100.125801 43.180080  0.803379 0.387845 0.451839  0.373872 0.610504 1 0 1.000000
0  33.831516 100.195038 43.020340  0.395273 0.742021 -0.541446  0.373586 0.610790 1 0 1.000000
0  32.179855 101.663383 44.240303  0.421196 0.829528 -0.366711  0.365004 0.618944 1 0 1.000000
skin_0dam
0  33.831516 100.195038 43.020340  0.395273 0.742021 -0.541446  0.373586 0.610790 1 0 1.000000
0  33.886574 100.125801 43.180080  0.803379 0.387845 0.451839  0.373872 0.610504 1 0 1.000000
0  34.450890 99.290253 42.623409  0.895690 0.317281 0.311565  0.376804 0.605927 1 0 1.000000
skin_0dam
0  34.340778 99.169769 42.737213  0.645682 -0.043868 0.762345  0.376232 0.605355 1 0 1.000000
0  34.450890 99.290253 42.623409  0.895690 0.317281 0.311565  0.376804 0.605927 1 0 1.000000
0  33.886574 100.125801 43.180080  0.803379 0.387845 0.451839  0.373872 0.610504 1 0 1.000000
skin_0dam
0  33.886574 100.125801 43.180080  0.803379 0.387845 0.451839  0.373872 0.610504 1 0 1.000000
0  33.831516 99.941559 43.233047  0.602137 -0.057089 0.796349  0.373586 0.609574 1 0 1.000000
0  34.340778 99.169769 42.737213  0.645682 -0.043868 0.762345  0.376232 0.605355 1 0 1.000000
skin_0dam
0  33.831516 99.941559 43.233047  0.602137 -0.057089 0.796349  0.373586 0.609574 1 0 1.000000
0  33.886574 100.125801 43.180080  0.803379 0.387845 0.451839  0.373872 0.610504 1 0 1.000000
0  32.207382 101.580437 44.398846  0.633442 0.359363 0.685280  0.365147 0.618586 1 0 1.000000
skin_0dam
0  32.207382 101.580437 44.398846  0.633442 0.359363 0.685280  0.365147 0.618586 1 0 1.000000
0  32.207382 101.348541 44.364738  0.426148 -0.120192 0.896634  0.365147 0.617370 1 0 1.000000
0  33.831516 99.941559 43.233047  0.602137 -0.057089 0.796349  0.373586 0.609574 1 0 1.000000
skin_0dam
0  32.207382 101.348541 44.364738  0.426148 -0.120192 0.896634  0.365147 0.617370 1 0 1.000000
0  32.207382 101.580437 44.398846  0.633442 0.359363 0.685280  0.365147 0.618586 1 0 1.000000
0  29.193096 103.251366 45.829956  0.468163 0.269799 0.841446  0.349483 0.627884 1 0 1.000000
skin_0dam
0  29.193096 103.251366 45.829956  0.468163 0.269799 0.841446  0.349483 0.627884 1 0 1.000000
0  29.193096 103.048088 45.784538  0.284914 -0.189040 0.939728  0.349483 0.626811 1 0 1.000000
0  32.207382 101.348541 44.364738  0.426148 -0.120192 0.896634  0.365147 0.617370 1 0 1.000000
skin_0dam
0  25.876011 104.506325 46.962170  0.181169 -0.234553 0.955072  0.332247 0.634893 1 0 1.000000
0  29.193096 103.048088 45.784538  0.284914 -0.189040 0.939728  0.349483 0.626811 1 0 1.000000
0  29.193096 103.251366 45.829956  0.468163 0.269799 0.841446  0.349483 0.627884 1 0 1.000000
skin_0dam
0  29.193096 103.251366 45.829956  0.468163 0.269799 0.841446  0.349483 0.627884 1 0 1.000000
0  25.876011 104.682167 47.005188  0.322936 0.195209 0.926070  0.332247 0.635823 1 0 1.000000
0  25.876011 104.506325 46.962170  0.181169 -0.234553 0.955072  0.332247 0.634893 1 0 1.000000
skin_0dam
0  21.774384 105.649345 47.794445  0.090099 -0.246611 0.964917  0.310933 0.641187 1 0 1.000000
0  25.876011 104.506325 46.962170  0.181169 -0.234553 0.955072  0.332247 0.634893 1 0 1.000000
0  25.876011 104.682167 47.005188  0.322936 0.195209 0.926070  0.332247 0.635823 1 0 1.000000
skin_0dam
0  25.876011 104.682167 47.005188  0.322936 0.195209 0.926070  0.332247 0.635823 1 0 1.000000
0  21.774384 105.837700 47.852371  0.179494 0.185729 0.966067  0.310933 0.642188 1 0 1.000000
0  21.774384 105.649345 47.794445  0.090099 -0.246611 0.964917  0.310933 0.641187 1 0 1.000000
skin_0dam
0  11.616665 107.076714 48.693043  0.036105 -0.245792 0.968650  0.258151 0.648983 1 0 1.000000
0  21.774384 105.649345 47.794445  0.090099 -0.246611 0.964917  0.310933 0.641187 1 0 1.000000
0  21.774384 105.837700 47.852371  0.179494 0.185729 0.966067  0.310933 0.642188 1 0 1.000000
skin_0dam
0  21.774384 105.837700 47.852371  0.179494 0.185729 0.966067  0.310933 0.642188 1 0 1.000000
0  11.616665 107.251366 48.749771  0.074764 0.142147 0.987018  0.258151 0.649912 1 0 1.000000
0  11.616665 107.076714 48.693043  0.036105 -0.245792 0.968650  0.258151 0.648983 1 0 1.000000
skin_0dam
0  -0.013788 107.635117 49.101128  0.000030 -0.246826 0.969060  0.197715 0.652058 1 0 1.000000
0  11.616665 107.076714 48.693043  0.036105 -0.245792 0.968650  0.258151 0.648983 1 0 1.000000
0  11.616665 107.251366 48.749771  0.074764 0.142147 0.987018  0.258151 0.649912 1 0 1.000000
skin_0dam
0  11.616665 107.251366 48.749771  0.074764 0.142147 0.987018  0.258151 0.649912 1 0 1.000000
0  -0.013788 107.810974 49.144142  -0.000082 0.149427 0.988773  0.197715 0.652988 1 0 1.000000
0  -0.013788 107.635117 49.101128  0.000030 -0.246826 0.969060  0.197715 0.652058 1 0 1.000000
skin_0dam
0  -11.644241 107.076714 48.693047  -0.036348 -0.245960 0.968598  0.137280 0.648983 1 0 1.000000
0  -0.013788 107.635117 49.101128  0.000030 -0.246826 0.969060  0.197715 0.652058 1 0 1.000000
0  -0.013788 107.810974 49.144142  -0.000082 0.149427 0.988773  0.197715 0.652988 1 0 1.000000
skin_0dam
0  -0.013788 107.810974 49.144142  -0.000082 0.149427 0.988773  0.197715 0.652988 1 0 1.000000
0  -11.644241 107.251366 48.749771  -0.074281 0.141925 0.987086  0.137280 0.649912 1 0 1.000000
0  -11.644241 107.076714 48.693047  -0.036348 -0.245960 0.968598  0.137280 0.648983 1 0 1.000000
skin_0dam
0  -21.801960 105.649330 47.794441  -0.089786 -0.246811 0.964895  0.084497 0.641187 1 0 1.000000
0  -11.644241 107.076714 48.693047  -0.036348 -0.245960 0.968598  0.137280 0.648983 1 0 1.000000
0  -11.644241 107.251366 48.749771  -0.074281 0.141925 0.987086  0.137280 0.649912 1 0 1.000000
skin_0dam
0  34.450890 99.290253 42.623409  0.895690 0.317281 0.311565  0.376804 0.605927 1 0 1.000000
0  34.340778 99.169769 42.737213  0.645682 -0.043868 0.762345  0.376232 0.605355 1 0 1.000000
0  34.671112 98.422318 42.436939  0.611205 -0.014816 0.791334  0.377949 0.601350 1 0 1.000000
skin_0dam
0  34.671112 98.422318 42.436939  0.611205 -0.014816 0.791334  0.377949 0.601350 1 0 1.000000
0  34.794987 98.487961 42.318333  0.940144 0.207479 0.270337  0.378593 0.601636 1 0 1.000000
0  34.450890 99.290253 42.623409  0.895690 0.317281 0.311565  0.376804 0.605927 1 0 1.000000
skin_0dam
0  34.794987 98.487961 42.318333  0.940144 0.207479 0.270337  0.378593 0.601636 1 0 1.000000
0  34.671112 98.422318 42.436939  0.611205 -0.014816 0.791334  0.377949 0.601350 1 0 1.000000
0  35.042736 96.334053 42.143707  0.617308 0.026022 0.786291  0.379880 0.590407 1 0 1.000000
skin_0dam
0  35.042736 96.334053 42.143707  0.617308 0.026022 0.786291  0.379880 0.590407 1 0 1.000000
0  35.207901 96.206528 42.022018  0.960899 0.126617 0.246255  0.380738 0.589692 1 0 1.000000
0  34.794987 98.487961 42.318333  0.940144 0.207479 0.270337  0.378593 0.601636 1 0 1.000000
skin_0dam
0  35.207901 96.206528 42.022018  0.960899 0.126617 0.246255  0.380738 0.589692 1 0 1.000000
0  35.042736 96.334053 42.143707  0.617308 0.026022 0.786291  0.379880 0.590407 1 0 1.000000
0  35.441887 93.070045 42.023937  0.494075 0.004592 0.869407  0.381954 0.573456 1 0 1.000000
skin_0dam
0  35.441887 93.070045 42.023937  0.494075 0.004592 0.869407  0.381954 0.573456 1 0 1.000000
0  35.620815 92.955048 41.917160  0.920701 0.092356 0.379183  0.382884 0.572813 1 0 1.000000
0  35.207901 96.206528 42.022018  0.960899 0.126617 0.246255  0.380738 0.589692 1 0 1.000000
skin_0dam
0  35.634579 92.720741 41.910477  0.982181 0.071895 0.173641  0.382955 0.571597 1 0 1.000000
0  35.620815 92.955048 41.917160  0.920701 0.092356 0.379183  0.382884 0.572813 1 0 1.000000
0  35.441887 93.070045 42.023937  0.494075 0.004592 0.869407  0.381954 0.573456 1 0 1.000000
skin_0dam
0  35.620815 92.955048 41.917160  0.920701 0.092356 0.379183  0.382884 0.572813 1 0 1.000000
0  35.634579 92.720741 41.910477  0.982181 0.071895 0.173641  0.382955 0.571597 1 0 1.000000
0  35.620815 92.506844 41.670704  0.328536 0.127136 -0.935896  0.382884 0.570381 1 0 1.000000
skin_0dam
0  35.620815 92.506844 41.670704  0.328536 0.127136 -0.935896  0.382884 0.570381 1 0 1.000000
0  35.579525 92.822205 41.698292  0.476361 0.094459 -0.874161  0.382669 0.572026 1 0 1.000000
0  35.620815 92.955048 41.917160  0.920701 0.092356 0.379183  0.382884 0.572813 1 0 1.000000
skin_0dam
0  35.579525 92.822205 41.698292  0.476361 0.094459 -0.874161  0.382669 0.572026 1 0 1.000000
0  35.620815 92.506844 41.670704  0.328536 0.127136 -0.935896  0.382884 0.570381 1 0 1.000000
0  35.428123 92.623047 41.763767  -0.370784 -0.019784 -0.928508  0.381882 0.571024 1 0 1.000000
skin_0dam
0  35.428123 92.623047 41.763767  -0.370784 -0.019784 -0.928508  0.381882 0.571024 1 0 1.000000
0  35.331776 93.092842 41.763424  -0.310638 -0.024035 -0.950224  0.381382 0.573456 1 0 1.000000
0  35.579525 92.822205 41.698292  0.476361 0.094459 -0.874161  0.382669 0.572026 1 0 1.000000
skin_0dam
0  35.331776 93.092842 41.763424  -0.310638 -0.024035 -0.950224  0.381382 0.573456 1 0 1.000000
0  35.428123 92.623047 41.763767  -0.370784 -0.019784 -0.928508  0.381882 0.571024 1 0 1.000000
0  32.234909 94.254730 43.011833  -0.342019 0.029399 -0.939233  0.365290 0.580036 1 0 1.000000
skin_0dam
0  32.234909 94.254730 43.011833  -0.342019 0.029399 -0.939233  0.365290 0.580036 1 0 1.000000
0  32.331261 96.916634 43.065113  -0.353051 0.062768 -0.933496  0.365790 0.593840 1 0 1.000000
0  35.331776 93.092842 41.763424  -0.310638 -0.024035 -0.950224  0.381382 0.573456 1 0 1.000000
skin_0dam
0  32.331261 96.916634 43.065113  -0.353051 0.062768 -0.933496  0.365790 0.593840 1 0 1.000000
0  32.234909 94.254730 43.011833  -0.342019 0.029399 -0.939233  0.365290 0.580036 1 0 1.000000
0  29.165569 95.532990 44.035549  -0.284102 0.068660 -0.956333  0.349340 0.587117 1 0 1.000000
skin_0dam
0  29.165569 95.532990 44.035549  -0.284102 0.068660 -0.956333  0.349340 0.587117 1 0 1.000000
0  29.179333 98.495865 44.280956  -0.278264 0.106684 -0.954561  0.349412 0.602565 1 0 1.000000
0  32.331261 96.916634 43.065113  -0.353051 0.062768 -0.933496  0.365790 0.593840 1 0 1.000000
skin_0dam
0  29.179333 98.495865 44.280956  -0.278264 0.106684 -0.954561  0.349412 0.602565 1 0 1.000000
0  29.165569 95.532990 44.035549  -0.284102 0.068660 -0.956333  0.349340 0.587117 1 0 1.000000
0  25.862247 96.671219 44.922676  -0.204925 0.101398 -0.973511  0.332175 0.593411 1 0 1.000000
skin_0dam
0  25.862247 96.671219 44.922676  -0.204925 0.101398 -0.973511  0.332175 0.593411 1 0 1.000000
0  25.876011 99.818863 45.267136  -0.196801 0.128229 -0.972022  0.332247 0.609861 1 0 1.000000
0  29.179333 98.495865 44.280956  -0.278264 0.106684 -0.954561  0.349412 0.602565 1 0 1.000000
skin_0dam
0  25.876011 99.818863 45.267136  -0.196801 0.128229 -0.972022  0.332247 0.609861 1 0 1.000000
0  25.862247 96.671219 44.922676  -0.204925 0.101398 -0.973511  0.332175 0.593411 1 0 1.000000
0  21.746861 97.724266 45.677994  -0.117874 0.114615 -0.986392  0.310790 0.599204 1 0 1.000000
skin_0dam
0  21.746861 97.724266 45.677994  -0.117874 0.114615 -0.986392  0.310790 0.599204 1 0 1.000000
0  21.760624 100.951775 46.057083  -0.109946 0.140468 -0.983962  0.310862 0.616083 1 0 1.000000
0  25.876011 99.818863 45.267136  -0.196801 0.128229 -0.972022  0.332247 0.609861 1 0 1.000000
skin_0dam
0  34.739933 98.529778 42.156197  0.413008 0.323650 -0.851278  0.378306 0.601779 1 0 1.000000
0  35.152847 96.222122 41.843769  0.407365 0.141382 -0.902255  0.380452 0.589692 1 0 1.000000
0  32.331261 96.916634 43.065113  -0.353051 0.062768 -0.933496  0.365790 0.593840 1 0 1.000000
skin_0dam
0  35.207901 96.206528 42.022018  0.960899 0.126617 0.246255  0.380738 0.589692 1 0 1.000000
0  35.152847 96.222122 41.843769  0.407365 0.141382 -0.902255  0.380452 0.589692 1 0 1.000000
0  34.739933 98.529778 42.156197  0.413008 0.323650 -0.851278  0.378306 0.601779 1 0 1.000000
skin_0dam
0  35.152847 96.222122 41.843769  0.407365 0.141382 -0.902255  0.380452 0.589692 1 0 1.000000
0  35.207901 96.206528 42.022018  0.960899 0.126617 0.246255  0.380738 0.589692 1 0 1.000000
0  35.620815 92.955048 41.917160  0.920701 0.092356 0.379183  0.382884 0.572813 1 0 1.000000
skin_0dam
0  35.620815 92.955048 41.917160  0.920701 0.092356 0.379183  0.382884 0.572813 1 0 1.000000
0  35.579525 92.822205 41.698292  0.476361 0.094459 -0.874161  0.382669 0.572026 1 0 1.000000
0  35.152847 96.222122 41.843769  0.407365 0.141382 -0.902255  0.380452 0.589692 1 0 1.000000
skin_0dam
0  35.152847 96.222122 41.843769  0.407365 0.141382 -0.902255  0.380452 0.589692 1 0 1.000000
0  35.579525 92.822205 41.698292  0.476361 0.094459 -0.874161  0.382669 0.572026 1 0 1.000000
0  35.331776 93.092842 41.763424  -0.310638 -0.024035 -0.950224  0.381382 0.573456 1 0 1.000000
skin_0dam
0  35.331776 93.092842 41.763424  -0.310638 -0.024035 -0.950224  0.381382 0.573456 1 0 1.000000
0  32.331261 96.916634 43.065113  -0.353051 0.062768 -0.933496  0.365790 0.593840 1 0 1.000000
0  35.152847 96.222122 41.843769  0.407365 0.141382 -0.902255  0.380452 0.589692 1 0 1.000000
skin_0dam
0  -25.917351 104.830055 46.893784  -0.382012 0.894982 0.230377  0.063112 0.636538 1 0 1.000000
0  -25.903587 104.682152 47.005196  -0.322911 0.195268 0.926066  0.063184 0.635823 1 0 1.000000
0  -21.801960 105.837685 47.852371  -0.179938 0.185434 0.966042  0.084497 0.642188 1 0 1.000000
skin_0dam
0  -21.801960 105.837685 47.852371  -0.179938 0.185434 0.966042  0.084497 0.642188 1 0 1.000000
0  -21.801960 105.985603 47.740967  -0.231720 0.921296 0.312280  0.084497 0.642903 1 0 1.000000
0  -25.917351 104.830055 46.893784  -0.382012 0.894982 0.230377  0.063112 0.636538 1 0 1.000000
skin_0dam
0  -25.917351 104.830055 46.893784  -0.382012 0.894982 0.230377  0.063112 0.636538 1 0 1.000000
0  -21.801960 105.985603 47.740967  -0.231720 0.921296 0.312280  0.084497 0.642903 1 0 1.000000
0  -21.801960 105.757645 47.030197  -0.156997 0.943778 -0.290920  0.084497 0.641401 1 0 1.000000
skin_0dam
0  -11.658005 107.170113 47.941315  -0.068935 0.945163 -0.319241  0.137208 0.649126 1 0 1.000000
0  -21.801960 105.757645 47.030197  -0.156997 0.943778 -0.290920  0.084497 0.641401 1 0 1.000000
0  -21.801960 105.985603 47.740967  -0.231720 0.921296 0.312280  0.084497 0.642903 1 0 1.000000
skin_0dam
0  -21.801960 105.757645 47.030197  -0.156997 0.943778 -0.290920  0.084497 0.641401 1 0 1.000000
0  -11.658005 107.170113 47.941315  -0.068935 0.945163 -0.319241  0.137208 0.649126 1 0 1.000000
0  -11.658005 107.102242 47.769581  -0.017543 0.662873 -0.748526  0.137208 0.648697 1 0 1.000000
skin_0dam
0  -0.013788 107.674355 48.178860  0.000006 0.666812 -0.745226  0.197715 0.651843 1 0 1.000000
0  -11.658005 107.102242 47.769581  -0.017543 0.662873 -0.748526  0.137208 0.648697 1 0 1.000000
0  -11.658005 107.170113 47.941315  -0.068935 0.945163 -0.319241  0.137208 0.649126 1 0 1.000000
skin_0dam
0  -11.658005 107.102242 47.769581  -0.017543 0.662873 -0.748526  0.137208 0.648697 1 0 1.000000
0  -0.013788 107.674355 48.178860  0.000006 0.666812 -0.745226  0.197715 0.651843 1 0 1.000000
0  -0.013786 103.034729 47.358444  -0.000000 0.146664 -0.989186  0.197715 0.627455 1 0 1.000000
skin_0dam
0  -0.013786 103.034729 47.358444  -0.000000 0.146664 -0.989186  0.197715 0.627455 1 0 1.000000
0  -0.013788 107.674355 48.178860  0.000006 0.666812 -0.745226  0.197715 0.651843 1 0 1.000000
0  11.630428 107.102242 47.769577  0.017462 0.662873 -0.748528  0.258222 0.648697 1 0 1.000000
skin_0dam
0  11.630428 107.102242 47.769577  0.017462 0.662873 -0.748528  0.258222 0.648697 1 0 1.000000
0  11.602901 102.475128 46.964077  -0.046840 0.147765 -0.987913  0.258079 0.624379 1 0 1.000000
0  -0.013786 103.034729 47.358444  -0.000000 0.146664 -0.989186  0.197715 0.627455 1 0 1.000000
skin_0dam
0  11.602901 102.475128 46.964077  -0.046840 0.147765 -0.987913  0.258079 0.624379 1 0 1.000000
0  11.630428 107.102242 47.769577  0.017462 0.662873 -0.748528  0.258222 0.648697 1 0 1.000000
0  21.774384 105.703499 46.859661  0.046659 0.680255 -0.731489  0.310933 0.641044 1 0 1.000000
skin_0dam
0  21.774384 105.703499 46.859661  0.046659 0.680255 -0.731489  0.310933 0.641044 1 0 1.000000
0  21.760624 100.951775 46.057083  -0.109946 0.140468 -0.983962  0.310862 0.616083 1 0 1.000000
0  11.602901 102.475128 46.964077  -0.046840 0.147765 -0.987913  0.258079 0.624379 1 0 1.000000
skin_0dam
0  21.760624 100.951775 46.057083  -0.109946 0.140468 -0.983962  0.310862 0.616083 1 0 1.000000
0  21.774384 105.703499 46.859661  0.046659 0.680255 -0.731489  0.310933 0.641044 1 0 1.000000
0  25.889774 104.466881 45.991566  0.081856 0.643562 -0.761005  0.332318 0.634249 1 0 1.000000
skin_0dam
0  25.889774 104.466881 45.991566  0.081856 0.643562 -0.761005  0.332318 0.634249 1 0 1.000000
0  25.876011 99.818863 45.267136  -0.196801 0.128229 -0.972022  0.332247 0.609861 1 0 1.000000
0  21.760624 100.951775 46.057083  -0.109946 0.140468 -0.983962  0.310862 0.616083 1 0 1.000000
skin_0dam
0  25.876011 99.818863 45.267136  -0.196801 0.128229 -0.972022  0.332247 0.609861 1 0 1.000000
0  25.889774 104.466881 45.991566  0.081856 0.643562 -0.761005  0.332318 0.634249 1 0 1.000000
0  29.193096 102.659874 44.852505  -0.034064 0.480408 -0.876383  0.349483 0.624379 1 0 1.000000
skin_0dam
0  29.193096 102.659874 44.852505  -0.034064 0.480408 -0.876383  0.349483 0.624379 1 0 1.000000
0  29.179333 98.495865 44.280956  -0.278264 0.106684 -0.954561  0.349412 0.602565 1 0 1.000000
0  25.876011 99.818863 45.267136  -0.196801 0.128229 -0.972022  0.332247 0.609861 1 0 1.000000
skin_0dam
0  29.179333 98.495865 44.280956  -0.278264 0.106684 -0.954561  0.349412 0.602565 1 0 1.000000
0  29.193096 102.659874 44.852505  -0.034064 0.480408 -0.876383  0.349483 0.624379 1 0 1.000000
0  32.276199 100.362328 43.477100  -0.249624 0.305129 -0.919013  0.365504 0.611863 1 0 1.000000
skin_0dam
0  32.276199 100.362328 43.477100  -0.249624 0.305129 -0.919013  0.365504 0.611863 1 0 1.000000
0  32.331261 96.916634 43.065113  -0.353051 0.062768 -0.933496  0.365790 0.593840 1 0 1.000000
0  29.179333 98.495865 44.280956  -0.278264 0.106684 -0.954561  0.349412 0.602565 1 0 1.000000
skin_0dam
0  32.331261 96.916634 43.065113  -0.353051 0.062768 -0.933496  0.365790 0.593840 1 0 1.000000
0  32.276199 100.362328 43.477100  -0.249624 0.305129 -0.919013  0.365504 0.611863 1 0 1.000000
0  34.739933 98.529778 42.156197  0.413008 0.323650 -0.851278  0.378306 0.601779 1 0 1.000000
skin_0dam
0  -11.644241 107.411781 48.653282  -0.105897 0.931588 0.347750  0.137280 0.650699 1 0 1.000000
0  -21.801960 105.985603 47.740967  -0.231720 0.921296 0.312280  0.084497 0.642903 1 0 1.000000
0  -21.801960 105.837685 47.852371  -0.179938 0.185434 0.966042  0.084497 0.642188 1 0 1.000000
skin_0dam
0  -21.801960 105.985603 47.740967  -0.231720 0.921296 0.312280  0.084497 0.642903 1 0 1.000000
0  -11.644241 107.411781 48.653282  -0.105897 0.931588 0.347750  0.137280 0.650699 1 0 1.000000
0  -11.658005 107.170113 47.941315  -0.068935 0.945163 -0.319241  0.137208 0.649126 1 0 1.000000
skin_0dam
0  -0.013788 107.728516 48.349396  0.000011 0.947879 -0.318631  0.197715 0.652201 1 0 1.000000
0  -11.658005 107.170113 47.941315  -0.068935 0.945163 -0.319241  0.137208 0.649126 1 0 1.000000
0  -11.644241 107.411781 48.653282  -0.105897 0.931588 0.347750  0.137280 0.650699 1 0 1.000000
skin_0dam
0  -11.658005 107.170113 47.941315  -0.068935 0.945163 -0.319241  0.137208 0.649126 1 0 1.000000
0  -0.013788 107.728516 48.349396  0.000011 0.947879 -0.318631  0.197715 0.652201 1 0 1.000000
0  -0.013788 107.674355 48.178860  0.000006 0.666812 -0.745226  0.197715 0.651843 1 0 1.000000
skin_0dam
0  11.630428 107.102242 47.769577  0.017462 0.662873 -0.748528  0.258222 0.648697 1 0 1.000000
0  -0.013788 107.674355 48.178860  0.000006 0.666812 -0.745226  0.197715 0.651843 1 0 1.000000
0  -0.013788 107.728516 48.349396  0.000011 0.947879 -0.318631  0.197715 0.652201 1 0 1.000000
skin_0dam
0  -0.013788 107.728516 48.349396  0.000011 0.947879 -0.318631  0.197715 0.652201 1 0 1.000000
0  11.630428 107.170113 47.941311  0.068864 0.945176 -0.319218  0.258222 0.649126 1 0 1.000000
0  11.630428 107.102242 47.769577  0.017462 0.662873 -0.748528  0.258222 0.648697 1 0 1.000000
skin_0dam
0  11.630428 107.102242 47.769577  0.017462 0.662873 -0.748528  0.258222 0.648697 1 0 1.000000
0  11.630428 107.170113 47.941311  0.068864 0.945176 -0.319218  0.258222 0.649126 1 0 1.000000
0  21.774384 105.757660 47.030197  0.156922 0.943801 -0.290887  0.310933 0.641401 1 0 1.000000
skin_0dam
0  21.774384 105.757660 47.030197  0.156922 0.943801 -0.290887  0.310933 0.641401 1 0 1.000000
0  21.774384 105.703499 46.859661  0.046659 0.680255 -0.731489  0.310933 0.641044 1 0 1.000000
0  11.630428 107.102242 47.769577  0.017462 0.662873 -0.748528  0.258222 0.648697 1 0 1.000000
skin_0dam
0  21.774384 105.703499 46.859661  0.046659 0.680255 -0.731489  0.310933 0.641044 1 0 1.000000
0  21.774384 105.757660 47.030197  0.156922 0.943801 -0.290887  0.310933 0.641401 1 0 1.000000
0  25.889774 104.534767 46.163303  0.245712 0.897247 -0.366841  0.332318 0.634678 1 0 1.000000
skin_0dam
0  25.889774 104.534767 46.163303  0.245712 0.897247 -0.366841  0.332318 0.634678 1 0 1.000000
0  25.889774 104.466881 45.991566  0.081856 0.643562 -0.761005  0.332318 0.634249 1 0 1.000000
0  21.774384 105.703499 46.859661  0.046659 0.680255 -0.731489  0.310933 0.641044 1 0 1.000000
skin_0dam
0  29.193096 102.659874 44.852505  -0.034064 0.480408 -0.876383  0.349483 0.624379 1 0 1.000000
0  25.889774 104.466881 45.991566  0.081856 0.643562 -0.761005  0.332318 0.634249 1 0 1.000000
0  25.889774 104.534767 46.163303  0.245712 0.897247 -0.366841  0.332318 0.634678 1 0 1.000000
skin_0dam
0  25.889774 104.534767 46.163303  0.245712 0.897247 -0.366841  0.332318 0.634678 1 0 1.000000
0  29.193096 102.823715 45.032642  0.149057 0.735862 -0.660521  0.349483 0.625309 1 0 1.000000
0  29.193096 102.659874 44.852505  -0.034064 0.480408 -0.876383  0.349483 0.624379 1 0 1.000000
skin_0dam
0  29.193096 102.659874 44.852505  -0.034064 0.480408 -0.876383  0.349483 0.624379 1 0 1.000000
0  29.193096 102.823715 45.032642  0.149057 0.735862 -0.660521  0.349483 0.625309 1 0 1.000000
0  32.248672 100.690720 43.671635  -0.101312 0.499748 -0.860225  0.365361 0.613651 1 0 1.000000
skin_0dam
0  32.248672 100.690720 43.671635  -0.101312 0.499748 -0.860225  0.365361 0.613651 1 0 1.000000
0  32.276199 100.362328 43.477100  -0.249624 0.305129 -0.919013  0.365504 0.611863 1 0 1.000000
0  29.193096 102.659874 44.852505  -0.034064 0.480408 -0.876383  0.349483 0.624379 1 0 1.000000
skin_0dam
0  34.395832 99.359497 42.463665  0.393940 0.556576 -0.731461  0.376518 0.606213 1 0 1.000000
0  32.276199 100.362328 43.477100  -0.249624 0.305129 -0.919013  0.365504 0.611863 1 0 1.000000
0  32.248672 100.690720 43.671635  -0.101312 0.499748 -0.860225  0.365361 0.613651 1 0 1.000000
skin_0dam
0  32.276199 100.362328 43.477100  -0.249624 0.305129 -0.919013  0.365504 0.611863 1 0 1.000000
0  34.395832 99.359497 42.463665  0.393940 0.556576 -0.731461  0.376518 0.606213 1 0 1.000000
0  34.739933 98.529778 42.156197  0.413008 0.323650 -0.851278  0.378306 0.601779 1 0 1.000000
skin_0dam
0  34.794987 98.487961 42.318333  0.940144 0.207479 0.270337  0.378593 0.601636 1 0 1.000000
0  34.739933 98.529778 42.156197  0.413008 0.323650 -0.851278  0.378306 0.601779 1 0 1.000000
0  34.395832 99.359497 42.463665  0.393940 0.556576 -0.731461  0.376518 0.606213 1 0 1.000000
skin_0dam
0  34.739933 98.529778 42.156197  0.413008 0.323650 -0.851278  0.378306 0.601779 1 0 1.000000
0  34.794987 98.487961 42.318333  0.940144 0.207479 0.270337  0.378593 0.601636 1 0 1.000000
0  35.207901 96.206528 42.022018  0.960899 0.126617 0.246255  0.380738 0.589692 1 0 1.000000
skin_0dam
0  -17.645279 105.785934 47.654415  -0.337731 0.931479 -0.135219  0.132464 0.641831 1 0 1.000000
0  -17.590225 105.240860 43.461796  -0.506041 0.854664 -0.116066  0.132750 0.637110 1 0 1.000000
0  -17.865503 104.914185 43.405582  -0.906901 0.414795 -0.074002  0.131320 0.635394 1 0 1.000000
skin_0dam
0  -17.590225 105.240860 43.461796  -0.506041 0.854664 -0.116066  0.132750 0.637110 1 0 1.000000
0  -17.645279 105.785934 47.654415  -0.337731 0.931479 -0.135219  0.132464 0.641831 1 0 1.000000
0  -17.012140 105.864601 47.702744  0.289515 0.950543 -0.112467  0.135754 0.642260 1 0 1.000000
skin_0dam
0  -17.012140 105.864601 47.702744  0.289515 0.950543 -0.112467  0.135754 0.642260 1 0 1.000000
0  -16.902033 105.374374 43.514927  0.311180 0.944471 -0.105552  0.136326 0.637825 1 0 1.000000
0  -17.590225 105.240860 43.461796  -0.506041 0.854664 -0.116066  0.132750 0.637110 1 0 1.000000
skin_0dam
0  -16.902033 105.374374 43.514927  0.311180 0.944471 -0.105552  0.136326 0.637825 1 0 1.000000
0  -17.012140 105.864601 47.702744  0.289515 0.950543 -0.112467  0.135754 0.642260 1 0 1.000000
0  -16.750628 105.595177 47.623909  0.886068 0.462550 -0.030512  0.137113 0.640829 1 0 1.000000
skin_0dam
0  -16.750628 105.595177 47.623909  0.886068 0.462550 -0.030512  0.137113 0.640829 1 0 1.000000
0  -16.626757 105.085236 43.503448  0.942611 0.333648 -0.012773  0.137756 0.636323 1 0 1.000000
0  -16.902033 105.374374 43.514927  0.311180 0.944471 -0.105552  0.136326 0.637825 1 0 1.000000
skin_0dam
0  -16.626757 105.085236 43.503448  0.942611 0.333648 -0.012773  0.137756 0.636323 1 0 1.000000
0  -16.750628 105.595177 47.623909  0.886068 0.462550 -0.030512  0.137113 0.640829 1 0 1.000000
0  -16.736864 103.054604 46.973328  0.997471 -0.056354 0.043303  0.137184 0.627383 1 0 1.000000
skin_0dam
0  -16.736864 103.054604 46.973328  0.997471 -0.056354 0.043303  0.137184 0.627383 1 0 1.000000
0  -16.626753 102.183716 43.346313  0.994690 -0.091156 0.047766  0.137756 0.621232 1 0 1.000000
0  -16.626757 105.085236 43.503448  0.942611 0.333648 -0.012773  0.137756 0.636323 1 0 1.000000
skin_0dam
0  -16.626753 102.183716 43.346313  0.994690 -0.091156 0.047766  0.137756 0.621232 1 0 1.000000
0  -16.736864 103.054604 46.973328  0.997471 -0.056354 0.043303  0.137184 0.627383 1 0 1.000000
0  -17.163542 99.994026 46.581215  0.931635 -0.325200 0.162178  0.134967 0.611362 1 0 1.000000
skin_0dam
0  -17.163542 99.994026 46.581215  0.931635 -0.325200 0.162178  0.134967 0.611362 1 0 1.000000
0  -17.301180 98.017654 43.271969  0.843411 -0.474134 0.252696  0.134252 0.599633 1 0 1.000000
0  -16.626753 102.183716 43.346313  0.994690 -0.091156 0.047766  0.137756 0.621232 1 0 1.000000
skin_0dam
0  -17.301180 98.017654 43.271969  0.843411 -0.474134 0.252696  0.134252 0.599633 1 0 1.000000
0  -17.163542 99.994026 46.581215  0.931635 -0.325200 0.162178  0.134967 0.611362 1 0 1.000000
0  -17.535168 99.566574 46.571449  0.472359 -0.764406 0.438818  0.133036 0.609145 1 0 1.000000
skin_0dam
0  -17.535168 99.566574 46.571449  0.472359 -0.764406 0.438818  0.133036 0.609145 1 0 1.000000
0  -17.645277 97.578888 43.233585  0.282857 -0.833908 0.473909  0.132464 0.597344 1 0 1.000000
0  -17.301180 98.017654 43.271969  0.843411 -0.474134 0.252696  0.134252 0.599633 1 0 1.000000
skin_0dam
0  -17.645277 97.578888 43.233585  0.282857 -0.833908 0.473909  0.132464 0.597344 1 0 1.000000
0  -17.535168 99.566574 46.571449  0.472359 -0.764406 0.438818  0.133036 0.609145 1 0 1.000000
0  -18.250887 99.462891 46.493294  -0.389472 -0.793483 0.467650  0.129317 0.608573 1 0 1.000000
skin_0dam
0  -18.250887 99.462891 46.493294  -0.389472 -0.793483 0.467650  0.129317 0.608573 1 0 1.000000
0  -18.292177 97.583694 43.178738  -0.453747 -0.777874 0.434771  0.129102 0.597344 1 0 1.000000
0  -17.645277 97.578888 43.233585  0.282857 -0.833908 0.473909  0.132464 0.597344 1 0 1.000000
skin_0dam
0  -18.292177 97.583694 43.178738  -0.453747 -0.777874 0.434771  0.129102 0.597344 1 0 1.000000
0  -18.250887 99.462891 46.493294  -0.389472 -0.793483 0.467650  0.129317 0.608573 1 0 1.000000
0  -18.594982 99.868912 46.432102  -0.975854 -0.190577 0.106719  0.127529 0.610647 1 0 1.000000
skin_0dam
0  -18.594982 99.868912 46.432102  -0.975854 -0.190577 0.106719  0.127529 0.610647 1 0 1.000000
0  -18.567453 98.083298 43.153370  -0.944861 -0.288944 0.154109  0.127672 0.599919 1 0 1.000000
0  -18.292177 97.583694 43.178738  -0.453747 -0.777874 0.434771  0.129102 0.597344 1 0 1.000000
skin_0dam
0  -18.567453 98.083298 43.153370  -0.944861 -0.288944 0.154109  0.127672 0.599919 1 0 1.000000
0  -18.594982 99.868912 46.432102  -0.975854 -0.190577 0.106719  0.127529 0.610647 1 0 1.000000
0  -18.429819 102.916977 46.809311  -0.989153 0.140467 -0.042950  0.128387 0.626597 1 0 1.000000
skin_0dam
0  -18.429819 102.916977 46.809311  -0.989153 0.140467 -0.042950  0.128387 0.626597 1 0 1.000000
0  -18.457344 101.729523 43.168415  -0.995594 0.091256 -0.021551  0.128244 0.618801 1 0 1.000000
0  -18.567453 98.083298 43.153370  -0.944861 -0.288944 0.154109  0.127672 0.599919 1 0 1.000000
skin_0dam
0  -18.457344 101.729523 43.168415  -0.995594 0.091256 -0.021551  0.128244 0.618801 1 0 1.000000
0  -18.429819 102.916977 46.809311  -0.989153 0.140467 -0.042950  0.128387 0.626597 1 0 1.000000
0  -17.961847 105.532623 47.549347  -0.795203 0.596885 -0.106680  0.130819 0.640472 1 0 1.000000
skin_0dam
0  -17.961847 105.532623 47.549347  -0.795203 0.596885 -0.106680  0.130819 0.640472 1 0 1.000000
0  -17.865503 104.914185 43.405582  -0.906901 0.414795 -0.074002  0.131320 0.635394 1 0 1.000000
0  -18.457344 101.729523 43.168415  -0.995594 0.091256 -0.021551  0.128244 0.618801 1 0 1.000000
skin_0dam
0  -17.865503 104.914185 43.405582  -0.906901 0.414795 -0.074002  0.131320 0.635394 1 0 1.000000
0  -17.961847 105.532623 47.549347  -0.795203 0.596885 -0.106680  0.130819 0.640472 1 0 1.000000
0  -17.645279 105.785934 47.654415  -0.337731 0.931479 -0.135219  0.132464 0.641831 1 0 1.000000
skin_0dam
0  -32.290009 98.491219 44.018047  -0.427424 -0.090494 0.899511  0.029998 0.602422 1 0 1.000000
0  -29.206907 100.015602 45.229095  -0.255011 -0.156565 0.954179  0.046019 0.610862 1 0 1.000000
0  -29.220673 103.048073 45.784546  -0.282489 -0.184979 0.941267  0.045947 0.626811 1 0 1.000000
skin_0dam
0  -29.220673 103.048073 45.784546  -0.282489 -0.184979 0.941267  0.045947 0.626811 1 0 1.000000
0  -29.206907 100.015602 45.229095  -0.255011 -0.156565 0.954179  0.046019 0.610862 1 0 1.000000
0  -25.903585 101.336197 46.242699  -0.183739 -0.187381 0.964950  0.063184 0.618157 1 0 1.000000
skin_0dam
0  -25.903585 101.336197 46.242699  -0.183739 -0.187381 0.964950  0.063184 0.618157 1 0 1.000000
0  -25.903587 104.506302 46.962177  -0.181163 -0.234606 0.955060  0.063184 0.634893 1 0 1.000000
0  -29.220673 103.048073 45.784546  -0.282489 -0.184979 0.941267  0.045947 0.626811 1 0 1.000000
skin_0dam
0  -25.903587 104.506302 46.962177  -0.181163 -0.234606 0.955060  0.063184 0.634893 1 0 1.000000
0  -25.903585 101.336197 46.242699  -0.183739 -0.187381 0.964950  0.063184 0.618157 1 0 1.000000
0  -21.788195 102.481628 47.047546  -0.097377 -0.202255 0.974480  0.084569 0.624451 1 0 1.000000
skin_0dam
0  -21.788195 102.481628 47.047546  -0.097377 -0.202255 0.974480  0.084569 0.624451 1 0 1.000000
0  -21.801960 105.649330 47.794441  -0.089786 -0.246811 0.964895  0.084497 0.641187 1 0 1.000000
0  -25.903587 104.506302 46.962177  -0.181163 -0.234606 0.955060  0.063184 0.634893 1 0 1.000000
skin_0dam
0  -11.644241 107.076714 48.693047  -0.036348 -0.245960 0.968598  0.137280 0.648983 1 0 1.000000
0  -21.801960 105.649330 47.794441  -0.089786 -0.246811 0.964895  0.084497 0.641187 1 0 1.000000
0  -21.788195 102.481628 47.047546  -0.097377 -0.202255 0.974480  0.084569 0.624451 1 0 1.000000
skin_0dam
0  -29.220673 103.048073 45.784546  -0.282489 -0.184979 0.941267  0.045947 0.626811 1 0 1.000000
0  -32.234955 101.348526 44.364746  -0.440878 -0.110556 0.890732  0.030284 0.617370 1 0 1.000000
0  -32.290009 98.491219 44.018047  -0.427424 -0.090494 0.899511  0.029998 0.602422 1 0 1.000000
skin_0dam
0  -32.290009 98.491219 44.018047  -0.427424 -0.090494 0.899511  0.029998 0.602422 1 0 1.000000
0  -32.234955 101.348526 44.364746  -0.440878 -0.110556 0.890732  0.030284 0.617370 1 0 1.000000
0  -33.859093 99.941544 43.233051  -0.602181 -0.057089 0.796316  0.021845 0.609574 1 0 1.000000
skin_0dam
0  -32.290009 98.491219 44.018047  -0.427424 -0.090494 0.899511  0.029998 0.602422 1 0 1.000000
0  -33.859093 99.941544 43.233051  -0.602181 -0.057089 0.796316  0.021845 0.609574 1 0 1.000000
0  -34.368351 99.169754 42.737217  -0.645724 -0.043875 0.762309  0.019198 0.605355 1 0 1.000000
skin_0dam
0  -32.290009 98.491219 44.018047  -0.427424 -0.090494 0.899511  0.029998 0.602422 1 0 1.000000
0  -34.368351 99.169754 42.737217  -0.645724 -0.043875 0.762309  0.019198 0.605355 1 0 1.000000
0  -34.698685 98.422302 42.436943  -0.611284 -0.014801 0.791273  0.017482 0.601349 1 0 1.000000
skin_0dam
0  -32.290009 98.491219 44.018047  -0.427424 -0.090494 0.899511  0.029998 0.602422 1 0 1.000000
0  -34.698685 98.422302 42.436943  -0.611284 -0.014801 0.791273  0.017482 0.601349 1 0 1.000000
0  -35.070312 96.334038 42.143715  -0.617341 0.026032 0.786265  0.015551 0.590407 1 0 1.000000
skin_0dam
0  -32.290009 98.491219 44.018047  -0.427424 -0.090494 0.899511  0.029998 0.602422 1 0 1.000000
0  -35.070312 96.334038 42.143715  -0.617341 0.026032 0.786265  0.015551 0.590407 1 0 1.000000
0  -35.469460 93.070030 42.023941  -0.494067 0.004744 0.869411  0.013477 0.573456 1 0 1.000000
skin_0dam
0  -35.469460 93.070030 42.023941  -0.494067 0.004744 0.869411  0.013477 0.573456 1 0 1.000000
0  -32.331306 94.821342 43.641708  -0.239298 -0.313491 0.918945  0.029784 0.583255 1 0 1.000000
0  -32.290009 98.491219 44.018047  -0.427424 -0.090494 0.899511  0.029998 0.602422 1 0 1.000000
skin_0dam
0  -29.206907 100.015602 45.229095  -0.255011 -0.156565 0.954179  0.046019 0.610862 1 0 1.000000
0  -32.290009 98.491219 44.018047  -0.427424 -0.090494 0.899511  0.029998 0.602422 1 0 1.000000
0  -32.331306 94.821342 43.641708  -0.239298 -0.313491 0.918945  0.029784 0.583255 1 0 1.000000
skin_0dam
0  -32.331306 94.821342 43.641708  -0.239298 -0.313491 0.918945  0.029784 0.583255 1 0 1.000000
0  -29.206907 96.166954 44.685135  -0.141046 -0.351839 0.925373  0.046019 0.590693 1 0 1.000000
0  -29.206907 100.015602 45.229095  -0.255011 -0.156565 0.954179  0.046019 0.610862 1 0 1.000000
skin_0dam
0  -29.206907 100.015602 45.229095  -0.255011 -0.156565 0.954179  0.046019 0.610862 1 0 1.000000
0  -29.206907 96.166954 44.685135  -0.141046 -0.351839 0.925373  0.046019 0.590693 1 0 1.000000
0  -25.903585 97.387466 45.579453  -0.097798 -0.367888 0.924713  0.063184 0.597416 1 0 1.000000
skin_0dam
0  -25.903585 97.387466 45.579453  -0.097798 -0.367888 0.924713  0.063184 0.597416 1 0 1.000000
0  -25.903585 101.336197 46.242699  -0.183739 -0.187381 0.964950  0.063184 0.618157 1 0 1.000000
0  -29.206907 100.015602 45.229095  -0.255011 -0.156565 0.954179  0.046019 0.610862 1 0 1.000000
skin_0dam
0  -25.903585 101.336197 46.242699  -0.183739 -0.187381 0.964950  0.063184 0.618157 1 0 1.000000
0  -25.903585 97.387466 45.579453  -0.097798 -0.367888 0.924713  0.063184 0.597416 1 0 1.000000
0  -21.788195 98.563919 46.345562  -0.052332 -0.371706 0.926874  0.084569 0.603853 1 0 1.000000
skin_0dam
0  -21.788195 98.563919 46.345562  -0.052332 -0.371706 0.926874  0.084569 0.603853 1 0 1.000000
0  -21.788195 102.481628 47.047546  -0.097377 -0.202255 0.974480  0.084569 0.624451 1 0 1.000000
0  -25.903585 101.336197 46.242699  -0.183739 -0.187381 0.964950  0.063184 0.618157 1 0 1.000000
skin_0dam
0  -11.644239 103.907814 47.959854  -0.042201 -0.199899 0.978907  0.137280 0.632247 1 0 1.000000
0  -21.788195 102.481628 47.047546  -0.097377 -0.202255 0.974480  0.084569 0.624451 1 0 1.000000
0  -21.788195 98.563919 46.345562  -0.052332 -0.371706 0.926874  0.084569 0.603853 1 0 1.000000
skin_0dam
0  -21.788195 102.481628 47.047546  -0.097377 -0.202255 0.974480  0.084569 0.624451 1 0 1.000000
0  -11.644239 103.907814 47.959854  -0.042201 -0.199899 0.978907  0.137280 0.632247 1 0 1.000000
0  -11.644241 107.076714 48.693047  -0.036348 -0.245960 0.968598  0.137280 0.648983 1 0 1.000000
skin_0dam
0  -0.013788 107.635117 49.101128  0.000030 -0.246826 0.969060  0.197715 0.652058 1 0 1.000000
0  -11.644241 107.076714 48.693047  -0.036348 -0.245960 0.968598  0.137280 0.648983 1 0 1.000000
0  -11.644239 103.907814 47.959854  -0.042201 -0.199899 0.978907  0.137280 0.632247 1 0 1.000000
skin_0dam
0  -11.644239 103.907814 47.959854  -0.042201 -0.199899 0.978907  0.137280 0.632247 1 0 1.000000
0  -0.013788 104.467422 48.354221  0.000076 -0.200348 0.979725  0.197715 0.635322 1 0 1.000000
0  -0.013788 107.635117 49.101128  0.000030 -0.246826 0.969060  0.197715 0.652058 1 0 1.000000
skin_0dam
0  11.616665 107.076714 48.693043  0.036105 -0.245792 0.968650  0.258151 0.648983 1 0 1.000000
0  -0.013788 107.635117 49.101128  0.000030 -0.246826 0.969060  0.197715 0.652058 1 0 1.000000
0  -0.013788 104.467422 48.354221  0.000076 -0.200348 0.979725  0.197715 0.635322 1 0 1.000000
skin_0dam
0  29.179333 100.015617 45.229088  0.272267 -0.150715 0.950345  0.349412 0.610862 1 0 1.000000
0  25.876011 101.336212 46.242691  0.183740 -0.187381 0.964950  0.332247 0.618157 1 0 1.000000
0  25.876011 97.387482 45.579445  0.097774 -0.367952 0.924690  0.332247 0.597416 1 0 1.000000
skin_0dam
0  21.760624 98.563934 46.345566  0.052556 -0.372164 0.926678  0.310862 0.603853 1 0 1.000000
0  25.876011 97.387482 45.579445  0.097774 -0.367952 0.924690  0.332247 0.597416 1 0 1.000000
0  25.876011 101.336212 46.242691  0.183740 -0.187381 0.964950  0.332247 0.618157 1 0 1.000000
skin_0dam
0  25.876011 101.336212 46.242691  0.183740 -0.187381 0.964950  0.332247 0.618157 1 0 1.000000
0  21.760624 102.481644 47.047546  0.097986 -0.202192 0.974432  0.310862 0.624451 1 0 1.000000
0  21.760624 98.563934 46.345566  0.052556 -0.372164 0.926678  0.310862 0.603853 1 0 1.000000
skin_0dam
0  11.602901 100.097389 47.294895  0.022429 -0.374353 0.927015  0.258079 0.612221 1 0 1.000000
0  21.760624 98.563934 46.345566  0.052556 -0.372164 0.926678  0.310862 0.603853 1 0 1.000000
0  21.760624 102.481644 47.047546  0.097986 -0.202192 0.974432  0.310862 0.624451 1 0 1.000000
skin_0dam
0  21.760624 102.481644 47.047546  0.097986 -0.202192 0.974432  0.310862 0.624451 1 0 1.000000
0  11.616665 103.907814 47.959854  0.041593 -0.199562 0.979002  0.258151 0.632247 1 0 1.000000
0  11.602901 100.097389 47.294895  0.022429 -0.374353 0.927015  0.258079 0.612221 1 0 1.000000
skin_0dam
0  -0.013786 100.683220 47.705372  -0.000210 -0.370881 0.928680  0.197715 0.615439 1 0 1.000000
0  11.602901 100.097389 47.294895  0.022429 -0.374353 0.927015  0.258079 0.612221 1 0 1.000000
0  11.616665 103.907814 47.959854  0.041593 -0.199562 0.979002  0.258151 0.632247 1 0 1.000000
skin_0dam
0  11.616665 103.907814 47.959854  0.041593 -0.199562 0.979002  0.258151 0.632247 1 0 1.000000
0  -0.013788 104.467422 48.354221  0.000076 -0.200348 0.979725  0.197715 0.635322 1 0 1.000000
0  -0.013786 100.683220 47.705372  -0.000210 -0.370881 0.928680  0.197715 0.615439 1 0 1.000000
skin_0dam
0  -11.630474 100.097389 47.294895  -0.022684 -0.373973 0.927162  0.137351 0.612221 1 0 1.000000
0  -0.013786 100.683220 47.705372  -0.000210 -0.370881 0.928680  0.197715 0.615439 1 0 1.000000
0  -0.013788 104.467422 48.354221  0.000076 -0.200348 0.979725  0.197715 0.635322 1 0 1.000000
skin_0dam
0  -0.013788 104.467422 48.354221  0.000076 -0.200348 0.979725  0.197715 0.635322 1 0 1.000000
0  -11.644239 103.907814 47.959854  -0.042201 -0.199899 0.978907  0.137280 0.632247 1 0 1.000000
0  -11.630474 100.097389 47.294895  -0.022684 -0.373973 0.927162  0.137351 0.612221 1 0 1.000000
skin_0dam
0  -21.788195 98.563919 46.345562  -0.052332 -0.371706 0.926874  0.084569 0.603853 1 0 1.000000
0  -11.630474 100.097389 47.294895  -0.022684 -0.373973 0.927162  0.137351 0.612221 1 0 1.000000
0  -11.644239 103.907814 47.959854  -0.042201 -0.199899 0.978907  0.137280 0.632247 1 0 1.000000
skin_0dam
0  -0.013788 104.467422 48.354221  0.000076 -0.200348 0.979725  0.197715 0.635322 1 0 1.000000
0  11.616665 103.907814 47.959854  0.041593 -0.199562 0.979002  0.258151 0.632247 1 0 1.000000
0  11.616665 107.076714 48.693043  0.036105 -0.245792 0.968650  0.258151 0.648983 1 0 1.000000
skin_0dam
0  21.774384 105.649345 47.794445  0.090099 -0.246611 0.964917  0.310933 0.641187 1 0 1.000000
0  11.616665 107.076714 48.693043  0.036105 -0.245792 0.968650  0.258151 0.648983 1 0 1.000000
0  11.616665 103.907814 47.959854  0.041593 -0.199562 0.979002  0.258151 0.632247 1 0 1.000000
skin_0dam
0  11.616665 103.907814 47.959854  0.041593 -0.199562 0.979002  0.258151 0.632247 1 0 1.000000
0  21.760624 102.481644 47.047546  0.097986 -0.202192 0.974432  0.310862 0.624451 1 0 1.000000
0  21.774384 105.649345 47.794445  0.090099 -0.246611 0.964917  0.310933 0.641187 1 0 1.000000
skin_0dam
0  25.876011 104.506325 46.962170  0.181169 -0.234553 0.955072  0.332247 0.634893 1 0 1.000000
0  21.774384 105.649345 47.794445  0.090099 -0.246611 0.964917  0.310933 0.641187 1 0 1.000000
0  21.760624 102.481644 47.047546  0.097986 -0.202192 0.974432  0.310862 0.624451 1 0 1.000000
skin_0dam
0  21.760624 102.481644 47.047546  0.097986 -0.202192 0.974432  0.310862 0.624451 1 0 1.000000
0  25.876011 101.336212 46.242691  0.183740 -0.187381 0.964950  0.332247 0.618157 1 0 1.000000
0  25.876011 104.506325 46.962170  0.181169 -0.234553 0.955072  0.332247 0.634893 1 0 1.000000
skin_0dam
0  29.193096 103.048088 45.784538  0.284914 -0.189040 0.939728  0.349483 0.626811 1 0 1.000000
0  25.876011 104.506325 46.962170  0.181169 -0.234553 0.955072  0.332247 0.634893 1 0 1.000000
0  25.876011 101.336212 46.242691  0.183740 -0.187381 0.964950  0.332247 0.618157 1 0 1.000000
skin_0dam
0  25.876011 101.336212 46.242691  0.183740 -0.187381 0.964950  0.332247 0.618157 1 0 1.000000
0  29.179333 100.015617 45.229088  0.272267 -0.150715 0.950345  0.349412 0.610862 1 0 1.000000
0  29.193096 103.048088 45.784538  0.284914 -0.189040 0.939728  0.349483 0.626811 1 0 1.000000
skin_0dam
0  32.207382 101.348541 44.364738  0.426148 -0.120192 0.896634  0.365147 0.617370 1 0 1.000000
0  29.193096 103.048088 45.784538  0.284914 -0.189040 0.939728  0.349483 0.626811 1 0 1.000000
0  29.179333 100.015617 45.229088  0.272267 -0.150715 0.950345  0.349412 0.610862 1 0 1.000000
skin_0dam
0  29.179333 100.015617 45.229088  0.272267 -0.150715 0.950345  0.349412 0.610862 1 0 1.000000
0  32.262436 98.491234 44.018044  0.414630 -0.093062 0.905219  0.365433 0.602422 1 0 1.000000
0  32.207382 101.348541 44.364738  0.426148 -0.120192 0.896634  0.365147 0.617370 1 0 1.000000
skin_0dam
0  32.262436 98.491234 44.018044  0.414630 -0.093062 0.905219  0.365433 0.602422 1 0 1.000000
0  33.831516 99.941559 43.233047  0.602137 -0.057089 0.796349  0.373586 0.609574 1 0 1.000000
0  32.207382 101.348541 44.364738  0.426148 -0.120192 0.896634  0.365147 0.617370 1 0 1.000000
skin_0dam
0  32.262436 98.491234 44.018044  0.414630 -0.093062 0.905219  0.365433 0.602422 1 0 1.000000
0  34.340778 99.169769 42.737213  0.645682 -0.043868 0.762345  0.376232 0.605355 1 0 1.000000
0  33.831516 99.941559 43.233047  0.602137 -0.057089 0.796349  0.373586 0.609574 1 0 1.000000
skin_0dam
0  32.262436 98.491234 44.018044  0.414630 -0.093062 0.905219  0.365433 0.602422 1 0 1.000000
0  34.671112 98.422318 42.436939  0.611205 -0.014816 0.791334  0.377949 0.601350 1 0 1.000000
0  34.340778 99.169769 42.737213  0.645682 -0.043868 0.762345  0.376232 0.605355 1 0 1.000000
skin_0dam
0  32.262436 98.491234 44.018044  0.414630 -0.093062 0.905219  0.365433 0.602422 1 0 1.000000
0  35.042736 96.334053 42.143707  0.617308 0.026022 0.786291  0.379880 0.590407 1 0 1.000000
0  34.671112 98.422318 42.436939  0.611205 -0.014816 0.791334  0.377949 0.601350 1 0 1.000000
skin_0dam
0  35.441887 93.070045 42.023937  0.494075 0.004592 0.869407  0.381954 0.573456 1 0 1.000000
0  35.042736 96.334053 42.143707  0.617308 0.026022 0.786291  0.379880 0.590407 1 0 1.000000
0  32.262436 98.491234 44.018044  0.414630 -0.093062 0.905219  0.365433 0.602422 1 0 1.000000
skin_0dam
0  32.262436 98.491234 44.018044  0.414630 -0.093062 0.905219  0.365433 0.602422 1 0 1.000000
0  32.303726 94.821358 43.641697  0.236206 -0.310467 0.920770  0.365647 0.583255 1 0 1.000000
0  35.441887 93.070045 42.023937  0.494075 0.004592 0.869407  0.381954 0.573456 1 0 1.000000
skin_0dam
0  29.179333 96.166977 44.685131  0.151895 -0.345609 0.926004  0.349412 0.590693 1 0 1.000000
0  32.303726 94.821358 43.641697  0.236206 -0.310467 0.920770  0.365647 0.583255 1 0 1.000000
0  32.262436 98.491234 44.018044  0.414630 -0.093062 0.905219  0.365433 0.602422 1 0 1.000000
skin_0dam
0  32.262436 98.491234 44.018044  0.414630 -0.093062 0.905219  0.365433 0.602422 1 0 1.000000
0  29.179333 100.015617 45.229088  0.272267 -0.150715 0.950345  0.349412 0.610862 1 0 1.000000
0  29.179333 96.166977 44.685131  0.151895 -0.345609 0.926004  0.349412 0.590693 1 0 1.000000
skin_0dam
0  25.876011 97.387482 45.579445  0.097774 -0.367952 0.924690  0.332247 0.597416 1 0 1.000000
0  29.179333 96.166977 44.685131  0.151895 -0.345609 0.926004  0.349412 0.590693 1 0 1.000000
0  29.179333 100.015617 45.229088  0.272267 -0.150715 0.950345  0.349412 0.610862 1 0 1.000000
skin_0dam
0  -32.317543 94.637787 43.528934  -0.085134 -0.531060 0.843047  0.029855 0.582253 1 0 1.000000
0  -29.206907 95.997101 44.573563  -0.031286 -0.554929 0.831309  0.046019 0.589763 1 0 1.000000
0  -29.206907 96.166954 44.685135  -0.141046 -0.351839 0.925373  0.046019 0.590693 1 0 1.000000
skin_0dam
0  -29.206907 96.166954 44.685135  -0.141046 -0.351839 0.925373  0.046019 0.590693 1 0 1.000000
0  -29.206907 95.997101 44.573563  -0.031286 -0.554929 0.831309  0.046019 0.589763 1 0 1.000000
0  -25.903585 97.217606 45.467880  -0.003630 -0.570090 0.821574  0.063184 0.596486 1 0 1.000000
skin_0dam
0  -25.903585 97.217606 45.467880  -0.003630 -0.570090 0.821574  0.063184 0.596486 1 0 1.000000
0  -25.903585 97.387466 45.579453  -0.097798 -0.367888 0.924713  0.063184 0.597416 1 0 1.000000
0  -29.206907 96.166954 44.685135  -0.141046 -0.351839 0.925373  0.046019 0.590693 1 0 1.000000
skin_0dam
0  -25.903585 97.387466 45.579453  -0.097798 -0.367888 0.924713  0.063184 0.597416 1 0 1.000000
0  -25.903585 97.217606 45.467880  -0.003630 -0.570090 0.821574  0.063184 0.596486 1 0 1.000000
0  -21.788195 98.407776 46.235184  0.009909 -0.570019 0.821572  0.084569 0.602994 1 0 1.000000
skin_0dam
0  -21.788195 98.407776 46.235184  0.009909 -0.570019 0.821572  0.084569 0.602994 1 0 1.000000
0  -21.788195 98.563919 46.345562  -0.052332 -0.371706 0.926874  0.084569 0.603853 1 0 1.000000
0  -25.903585 97.387466 45.579453  -0.097798 -0.367888 0.924713  0.063184 0.597416 1 0 1.000000
skin_0dam
0  -11.630474 100.097389 47.294895  -0.022684 -0.373973 0.927162  0.137351 0.612221 1 0 1.000000
0  -21.788195 98.563919 46.345562  -0.052332 -0.371706 0.926874  0.084569 0.603853 1 0 1.000000
0  -21.788195 98.407776 46.235184  0.009909 -0.570019 0.821572  0.084569 0.602994 1 0 1.000000
skin_0dam
0  -21.788195 98.407776 46.235184  0.009909 -0.570019 0.821572  0.084569 0.602994 1 0 1.000000
0  -11.630474 99.940048 47.198227  0.005147 -0.571847 0.820344  0.137351 0.611362 1 0 1.000000
0  -11.630474 100.097389 47.294895  -0.022684 -0.373973 0.927162  0.137351 0.612221 1 0 1.000000
skin_0dam
0  -0.013786 100.683220 47.705372  -0.000210 -0.370881 0.928680  0.197715 0.615439 1 0 1.000000
0  -11.630474 100.097389 47.294895  -0.022684 -0.373973 0.927162  0.137351 0.612221 1 0 1.000000
0  -11.630474 99.940048 47.198227  0.005147 -0.571847 0.820344  0.137351 0.611362 1 0 1.000000
skin_0dam
0  -11.630474 99.940048 47.198227  0.005147 -0.571847 0.820344  0.137351 0.611362 1 0 1.000000
0  -0.013786 100.525871 47.608711  -0.000003 -0.568906 0.822403  0.197715 0.614581 1 0 1.000000
0  -0.013786 100.683220 47.705372  -0.000210 -0.370881 0.928680  0.197715 0.615439 1 0 1.000000
skin_0dam
0  -0.013786 100.683220 47.705372  -0.000210 -0.370881 0.928680  0.197715 0.615439 1 0 1.000000
0  -0.013786 100.525871 47.608711  -0.000003 -0.568906 0.822403  0.197715 0.614581 1 0 1.000000
0  11.602901 99.940048 47.198227  -0.005133 -0.571818 0.820364  0.258079 0.611362 1 0 1.000000
skin_0dam
0  11.602901 99.940048 47.198227  -0.005133 -0.571818 0.820364  0.258079 0.611362 1 0 1.000000
0  11.602901 100.097389 47.294895  0.022429 -0.374353 0.927015  0.258079 0.612221 1 0 1.000000
0  -0.013786 100.683220 47.705372  -0.000210 -0.370881 0.928680  0.197715 0.615439 1 0 1.000000
skin_0dam
0  21.760624 98.563934 46.345566  0.052556 -0.372164 0.926678  0.310862 0.603853 1 0 1.000000
0  11.602901 100.097389 47.294895  0.022429 -0.374353 0.927015  0.258079 0.612221 1 0 1.000000
0  11.602901 99.940048 47.198227  -0.005133 -0.571818 0.820364  0.258079 0.611362 1 0 1.000000
skin_0dam
0  11.602901 99.940048 47.198227  -0.005133 -0.571818 0.820364  0.258079 0.611362 1 0 1.000000
0  21.760624 98.407791 46.235188  -0.009896 -0.570050 0.821550  0.310862 0.602995 1 0 1.000000
0  21.760624 98.563934 46.345566  0.052556 -0.372164 0.926678  0.310862 0.603853 1 0 1.000000
skin_0dam
0  25.876011 97.387482 45.579445  0.097774 -0.367952 0.924690  0.332247 0.597416 1 0 1.000000
0  21.760624 98.563934 46.345566  0.052556 -0.372164 0.926678  0.310862 0.603853 1 0 1.000000
0  21.760624 98.407791 46.235188  -0.009896 -0.570050 0.821550  0.310862 0.602995 1 0 1.000000
skin_0dam
0  21.760624 98.407791 46.235188  -0.009896 -0.570050 0.821550  0.310862 0.602995 1 0 1.000000
0  25.876011 97.217628 45.467873  0.003618 -0.570126 0.821549  0.332247 0.596486 1 0 1.000000
0  25.876011 97.387482 45.579445  0.097774 -0.367952 0.924690  0.332247 0.597416 1 0 1.000000
skin_0dam
0  29.179333 96.166977 44.685131  0.151895 -0.345609 0.926004  0.349412 0.590693 1 0 1.000000
0  25.876011 97.387482 45.579445  0.097774 -0.367952 0.924690  0.332247 0.597416 1 0 1.000000
0  25.876011 97.217628 45.467873  0.003618 -0.570126 0.821549  0.332247 0.596486 1 0 1.000000
skin_0dam
0  25.876011 97.217628 45.467873  0.003618 -0.570126 0.821549  0.332247 0.596486 1 0 1.000000
0  29.179333 95.997116 44.573555  0.032795 -0.554496 0.831540  0.349412 0.589763 1 0 1.000000
0  29.179333 96.166977 44.685131  0.151895 -0.345609 0.926004  0.349412 0.590693 1 0 1.000000
skin_0dam
0  32.303726 94.821358 43.641697  0.236206 -0.310467 0.920770  0.365647 0.583255 1 0 1.000000
0  29.179333 96.166977 44.685131  0.151895 -0.345609 0.926004  0.349412 0.590693 1 0 1.000000
0  29.179333 95.997116 44.573555  0.032795 -0.554496 0.831540  0.349412 0.589763 1 0 1.000000
skin_0dam
0  29.179333 95.997116 44.573555  0.032795 -0.554496 0.831540  0.349412 0.589763 1 0 1.000000
0  32.289963 94.637802 43.528923  0.084706 -0.530812 0.843245  0.365576 0.582253 1 0 1.000000
0  32.303726 94.821358 43.641697  0.236206 -0.310467 0.920770  0.365647 0.583255 1 0 1.000000
skin_0dam
0  32.303726 94.821358 43.641697  0.236206 -0.310467 0.920770  0.365647 0.583255 1 0 1.000000
0  32.289963 94.637802 43.528923  0.084706 -0.530812 0.843245  0.365576 0.582253 1 0 1.000000
0  35.469418 92.823235 42.002342  0.470019 -0.019951 0.882431  0.382097 0.572169 1 0 1.000000
skin_0dam
0  35.469418 92.823235 42.002342  0.470019 -0.019951 0.882431  0.382097 0.572169 1 0 1.000000
0  35.441887 93.070045 42.023937  0.494075 0.004592 0.869407  0.381954 0.573456 1 0 1.000000
0  32.303726 94.821358 43.641697  0.236206 -0.310467 0.920770  0.365647 0.583255 1 0 1.000000
skin_0dam
0  35.441887 93.070045 42.023937  0.494075 0.004592 0.869407  0.381954 0.573456 1 0 1.000000
0  35.469418 92.823235 42.002342  0.470019 -0.019951 0.882431  0.382097 0.572169 1 0 1.000000
0  35.634579 92.720741 41.910477  0.982181 0.071895 0.173641  0.382955 0.571597 1 0 1.000000
skin_0dam
0  17.617702 105.785934 47.654415  0.337815 0.931430 -0.135348  0.315701 0.641831 1 0 1.000000
0  17.934269 105.532623 47.549347  0.795202 0.596891 -0.106654  0.317346 0.640472 1 0 1.000000
0  17.837921 104.914185 43.405582  0.906900 0.414794 -0.074018  0.316846 0.635394 1 0 1.000000
skin_0dam
0  18.429771 101.729523 43.168415  0.995655 0.090745 -0.020887  0.319921 0.618801 1 0 1.000000
0  17.837921 104.914185 43.405582  0.906900 0.414794 -0.074018  0.316846 0.635394 1 0 1.000000
0  17.934269 105.532623 47.549347  0.795202 0.596891 -0.106654  0.317346 0.640472 1 0 1.000000
skin_0dam
0  17.934269 105.532623 47.549347  0.795202 0.596891 -0.106654  0.317346 0.640472 1 0 1.000000
0  18.402241 102.916977 46.809311  0.989153 0.140467 -0.042949  0.319778 0.626597 1 0 1.000000
0  18.429771 101.729523 43.168415  0.995655 0.090745 -0.020887  0.319921 0.618801 1 0 1.000000
skin_0dam
0  18.539883 98.083298 43.153370  0.944825 -0.289034 0.154159  0.320493 0.599919 1 0 1.000000
0  18.429771 101.729523 43.168415  0.995655 0.090745 -0.020887  0.319921 0.618801 1 0 1.000000
0  18.402241 102.916977 46.809311  0.989153 0.140467 -0.042949  0.319778 0.626597 1 0 1.000000
skin_0dam
0  18.402241 102.916977 46.809311  0.989153 0.140467 -0.042949  0.319778 0.626597 1 0 1.000000
0  18.567410 99.868912 46.432102  0.975831 -0.190657 0.106787  0.320636 0.610647 1 0 1.000000
0  18.539883 98.083298 43.153370  0.944825 -0.289034 0.154159  0.320493 0.599919 1 0 1.000000
skin_0dam
0  18.264606 97.583694 43.178738  0.453746 -0.777879 0.434763  0.319063 0.597344 1 0 1.000000
0  18.539883 98.083298 43.153370  0.944825 -0.289034 0.154159  0.320493 0.599919 1 0 1.000000
0  18.567410 99.868912 46.432102  0.975831 -0.190657 0.106787  0.320636 0.610647 1 0 1.000000
skin_0dam
0  18.567410 99.868912 46.432102  0.975831 -0.190657 0.106787  0.320636 0.610647 1 0 1.000000
0  18.223312 99.462891 46.493294  0.389473 -0.793479 0.467655  0.318848 0.608573 1 0 1.000000
0  18.264606 97.583694 43.178738  0.453746 -0.777879 0.434763  0.319063 0.597344 1 0 1.000000
skin_0dam
0  17.617702 97.578888 43.233585  -0.282860 -0.833905 0.473912  0.315701 0.597344 1 0 1.000000
0  18.264606 97.583694 43.178738  0.453746 -0.777879 0.434763  0.319063 0.597344 1 0 1.000000
0  18.223312 99.462891 46.493294  0.389473 -0.793479 0.467655  0.318848 0.608573 1 0 1.000000
skin_0dam
0  18.223312 99.462891 46.493294  0.389473 -0.793479 0.467655  0.318848 0.608573 1 0 1.000000
0  17.507595 99.566574 46.571449  -0.472312 -0.764419 0.438845  0.315129 0.609145 1 0 1.000000
0  17.617702 97.578888 43.233585  -0.282860 -0.833905 0.473912  0.315701 0.597344 1 0 1.000000
skin_0dam
0  17.273609 98.017654 43.271969  -0.843368 -0.474054 0.252990  0.313913 0.599633 1 0 1.000000
0  17.617702 97.578888 43.233585  -0.282860 -0.833905 0.473912  0.315701 0.597344 1 0 1.000000
0  17.507595 99.566574 46.571449  -0.472312 -0.764419 0.438845  0.315129 0.609145 1 0 1.000000
skin_0dam
0  17.507595 99.566574 46.571449  -0.472312 -0.764419 0.438845  0.315129 0.609145 1 0 1.000000
0  17.135967 99.994026 46.581215  -0.931798 -0.324903 0.161837  0.313198 0.611362 1 0 1.000000
0  17.273609 98.017654 43.271969  -0.843368 -0.474054 0.252990  0.313913 0.599633 1 0 1.000000
skin_0dam
0  16.599178 102.183716 43.346313  -0.994667 -0.091479 0.047637  0.310409 0.621232 1 0 1.000000
0  17.273609 98.017654 43.271969  -0.843368 -0.474054 0.252990  0.313913 0.599633 1 0 1.000000
0  17.135967 99.994026 46.581215  -0.931798 -0.324903 0.161837  0.313198 0.611362 1 0 1.000000
skin_0dam
0  17.135967 99.994026 46.581215  -0.931798 -0.324903 0.161837  0.313198 0.611362 1 0 1.000000
0  16.709286 103.054604 46.973328  -0.997488 -0.056016 0.043364  0.310981 0.627383 1 0 1.000000
0  16.599178 102.183716 43.346313  -0.994667 -0.091479 0.047637  0.310409 0.621232 1 0 1.000000
skin_0dam
0  16.599178 105.085236 43.503448  -0.942610 0.333650 -0.012773  0.310409 0.636323 1 0 1.000000
0  16.599178 102.183716 43.346313  -0.994667 -0.091479 0.047637  0.310409 0.621232 1 0 1.000000
0  16.709286 103.054604 46.973328  -0.997488 -0.056016 0.043364  0.310981 0.627383 1 0 1.000000
skin_0dam
0  16.709286 103.054604 46.973328  -0.997488 -0.056016 0.043364  0.310981 0.627383 1 0 1.000000
0  16.723049 105.595177 47.623909  -0.886201 0.462281 -0.030739  0.311052 0.640829 1 0 1.000000
0  16.599178 105.085236 43.503448  -0.942610 0.333650 -0.012773  0.310409 0.636323 1 0 1.000000
skin_0dam
0  16.874454 105.374374 43.514927  -0.311263 0.944452 -0.105480  0.311839 0.637825 1 0 1.000000
0  16.599178 105.085236 43.503448  -0.942610 0.333650 -0.012773  0.310409 0.636323 1 0 1.000000
0  16.723049 105.595177 47.623909  -0.886201 0.462281 -0.030739  0.311052 0.640829 1 0 1.000000
skin_0dam
0  16.723049 105.595177 47.623909  -0.886201 0.462281 -0.030739  0.311052 0.640829 1 0 1.000000
0  16.984562 105.864601 47.702744  -0.289751 0.950457 -0.112586  0.312411 0.642260 1 0 1.000000
0  16.874454 105.374374 43.514927  -0.311263 0.944452 -0.105480  0.311839 0.637825 1 0 1.000000
skin_0dam
0  17.562645 105.240860 43.461796  0.505997 0.854688 -0.116085  0.315415 0.637110 1 0 1.000000
0  16.874454 105.374374 43.514927  -0.311263 0.944452 -0.105480  0.311839 0.637825 1 0 1.000000
0  16.984562 105.864601 47.702744  -0.289751 0.950457 -0.112586  0.312411 0.642260 1 0 1.000000
skin_0dam
0  16.984562 105.864601 47.702744  -0.289751 0.950457 -0.112586  0.312411 0.642260 1 0 1.000000
0  17.617702 105.785934 47.654415  0.337815 0.931430 -0.135348  0.315701 0.641831 1 0 1.000000
0  17.562645 105.240860 43.461796  0.505997 0.854688 -0.116085  0.315415 0.637110 1 0 1.000000
skin_0dam
0  17.837921 104.914185 43.405582  0.906900 0.414794 -0.074018  0.316846 0.635394 1 0 1.000000
0  17.562645 105.240860 43.461796  0.505997 0.854688 -0.116085  0.315415 0.637110 1 0 1.000000
0  17.617702 105.785934 47.654415  0.337815 0.931430 -0.135348  0.315701 0.641831 1 0 1.000000
end
