version 1
nodes
0 "root" -1
1 "steering_wheel" 0
end
skeleton
time 0
0  0.000000 0.000000 0.000000  0.000000 -0.000000 -1.570797
1  19.916300 17.934299 33.308498  0.000000 -0.000000 0.000000
end
triangles
  phy
0  -21.798742 105.707550 46.857391  0.150470 0.952174 0.265939  0.000000 0.000000 1 0 1.000000
0  -25.915161 104.470963 45.989265  0.237450 0.866683 0.438724  0.000000 0.000000 1 0 1.000000
0  -25.900602 104.686554 47.003124  0.246736 -0.069538 -0.966585  0.000000 0.000000 1 0 1.000000
  phy
0  -25.915161 104.470963 45.989265  0.237450 0.866683 0.438724  0.000000 0.000000 1 0 1.000000
0  -21.798742 105.707550 46.857391  0.150470 0.952174 0.265939  0.000000 0.000000 1 0 1.000000
0  -17.586769 105.244713 43.460163  0.056795 0.684437 0.726857  0.000000 0.000000 1 0 1.000000
  phy
0  -25.915161 104.470963 45.989265  0.237450 0.866683 0.438724  0.000000 0.000000 1 0 1.000000
0  -29.217682 103.255852 45.827667  0.397370 0.040996 -0.916742  0.000000 0.000000 1 0 1.000000
0  -25.900602 104.686554 47.003124  0.246736 -0.069538 -0.966585  0.000000 0.000000 1 0 1.000000
  phy
0  -29.217682 103.255852 45.827667  0.397370 0.040996 -0.916742  0.000000 0.000000 1 0 1.000000
0  -25.915161 104.470963 45.989265  0.237450 0.866683 0.438724  0.000000 0.000000 1 0 1.000000
0  -32.232162 101.585243 44.396458  0.622445 0.782282 0.024449  0.000000 0.000000 1 0 1.000000
  phy
0  -32.232162 101.585243 44.396458  0.622445 0.782282 0.024449  0.000000 0.000000 1 0 1.000000
0  -25.915161 104.470963 45.989265  0.237450 0.866683 0.438724  0.000000 0.000000 1 0 1.000000
0  -17.586769 105.244713 43.460163  0.056795 0.684437 0.726857  0.000000 0.000000 1 0 1.000000
  phy
0  -21.799294 105.841476 47.850395  0.091273 -0.130027 -0.987300  0.000000 0.000000 1 0 1.000000
0  -11.470447 100.011993 47.284931  0.025572 -0.320306 -0.946969  0.000000 0.000000 1 0 1.000000
0  -11.641231 107.415321 48.651978  0.087474 0.232406 -0.968677  0.000000 0.000000 1 0 1.000000
  phy
0  -21.785545 98.568024 46.343704  0.031202 -0.419568 -0.907188  0.000000 0.000000 1 0 1.000000
0  -11.470447 100.011993 47.284931  0.025572 -0.320306 -0.946969  0.000000 0.000000 1 0 1.000000
0  -21.799294 105.841476 47.850395  0.091273 -0.130027 -0.987300  0.000000 0.000000 1 0 1.000000
  phy
0  -21.798742 105.707550 46.857391  0.150470 0.952174 0.265939  0.000000 0.000000 1 0 1.000000
0  -21.799294 105.841476 47.850395  0.091273 -0.130027 -0.987300  0.000000 0.000000 1 0 1.000000
0  -11.641231 107.415321 48.651978  0.087474 0.232406 -0.968677  0.000000 0.000000 1 0 1.000000
  phy
0  -21.799294 105.841476 47.850395  0.091273 -0.130027 -0.987300  0.000000 0.000000 1 0 1.000000
0  -21.798742 105.707550 46.857391  0.150470 0.952174 0.265939  0.000000 0.000000 1 0 1.000000
0  -25.900602 104.686554 47.003124  0.246736 -0.069538 -0.966585  0.000000 0.000000 1 0 1.000000
  phy
0  -21.799294 105.841476 47.850395  0.091273 -0.130027 -0.987300  0.000000 0.000000 1 0 1.000000
0  -25.900602 104.686554 47.003124  0.246736 -0.069538 -0.966585  0.000000 0.000000 1 0 1.000000
0  -25.900909 97.391785 45.577362  0.056283 -0.446852 -0.892835  0.000000 0.000000 1 0 1.000000
  phy
0  -21.799294 105.841476 47.850395  0.091273 -0.130027 -0.987300  0.000000 0.000000 1 0 1.000000
0  -25.900909 97.391785 45.577362  0.056283 -0.446852 -0.892835  0.000000 0.000000 1 0 1.000000
0  -21.785545 98.568024 46.343704  0.031202 -0.419568 -0.907188  0.000000 0.000000 1 0 1.000000
  phy
0  -21.798742 105.707550 46.857391  0.150470 0.952174 0.265939  0.000000 0.000000 1 0 1.000000
0  -11.641231 107.415321 48.651978  0.087474 0.232406 -0.968677  0.000000 0.000000 1 0 1.000000
0  -17.586769 105.244713 43.460163  0.056795 0.684437 0.726857  0.000000 0.000000 1 0 1.000000
  phy
0  -32.232162 101.585243 44.396458  0.622445 0.782282 0.024449  0.000000 0.000000 1 0 1.000000
0  -32.328831 94.824066 43.639099  0.086056 -0.521080 -0.849158  0.000000 0.000000 1 0 1.000000
0  -29.217682 103.255852 45.827667  0.397370 0.040996 -0.916742  0.000000 0.000000 1 0 1.000000
  phy
0  -29.217682 103.255852 45.827667  0.397370 0.040996 -0.916742  0.000000 0.000000 1 0 1.000000
0  -32.328831 94.824066 43.639099  0.086056 -0.521080 -0.849158  0.000000 0.000000 1 0 1.000000
0  -25.900602 104.686554 47.003124  0.246736 -0.069538 -0.966585  0.000000 0.000000 1 0 1.000000
  phy
0  -11.470447 100.011993 47.284931  0.025572 -0.320306 -0.946969  0.000000 0.000000 1 0 1.000000
0  25.878914 97.389091 45.580231  -0.031378 -0.501974 -0.864313  0.000000 0.000000 1 0 1.000000
0  21.763729 98.565544 46.346024  -0.041942 -0.369237 -0.928388  0.000000 0.000000 1 0 1.000000
  phy
0  -11.470447 100.011993 47.284931  0.025572 -0.320306 -0.946969  0.000000 0.000000 1 0 1.000000
0  -21.785545 98.568024 46.343704  0.031202 -0.419568 -0.907188  0.000000 0.000000 1 0 1.000000
0  25.878914 97.389091 45.580231  -0.031378 -0.501974 -0.864313  0.000000 0.000000 1 0 1.000000
  phy
0  -21.785545 98.568024 46.343704  0.031202 -0.419568 -0.907188  0.000000 0.000000 1 0 1.000000
0  -25.900909 97.391785 45.577362  0.056283 -0.446852 -0.892835  0.000000 0.000000 1 0 1.000000
0  25.878914 97.389091 45.580231  -0.031378 -0.501974 -0.864313  0.000000 0.000000 1 0 1.000000
  phy
0  21.763729 98.565544 46.346024  -0.041942 -0.369237 -0.928388  0.000000 0.000000 1 0 1.000000
0  -0.011097 100.686157 47.704712  -0.007551 -0.250265 -0.968148  0.000000 0.000000 1 0 1.000000
0  -11.470447 100.011993 47.284931  0.025572 -0.320306 -0.946969  0.000000 0.000000 1 0 1.000000
  phy
0  11.605618 100.099686 47.294865  -0.042231 -0.206505 -0.977534  0.000000 0.000000 1 0 1.000000
0  -0.011097 100.686157 47.704712  -0.007551 -0.250265 -0.968148  0.000000 0.000000 1 0 1.000000
0  21.763729 98.565544 46.346024  -0.041942 -0.369237 -0.928388  0.000000 0.000000 1 0 1.000000
  phy
0  21.763729 98.565544 46.346024  -0.041942 -0.369237 -0.928388  0.000000 0.000000 1 0 1.000000
0  21.777163 105.839729 47.852970  -0.096584 -0.126854 -0.987208  0.000000 0.000000 1 0 1.000000
0  11.605618 100.099686 47.294865  -0.042231 -0.206505 -0.977534  0.000000 0.000000 1 0 1.000000
  phy
0  21.763729 98.565544 46.346024  -0.041942 -0.369237 -0.928388  0.000000 0.000000 1 0 1.000000
0  25.878914 97.389091 45.580231  -0.031378 -0.501974 -0.864313  0.000000 0.000000 1 0 1.000000
0  21.777163 105.839729 47.852970  -0.096584 -0.126854 -0.987208  0.000000 0.000000 1 0 1.000000
  phy
0  -11.641231 107.415321 48.651978  0.087474 0.232406 -0.968677  0.000000 0.000000 1 0 1.000000
0  -11.655512 107.173553 47.939754  0.035285 0.937181 0.347055  0.000000 0.000000 1 0 1.000000
0  -17.586769 105.244713 43.460163  0.056795 0.684437 0.726857  0.000000 0.000000 1 0 1.000000
  phy
0  -11.655512 107.173553 47.939754  0.035285 0.937181 0.347055  0.000000 0.000000 1 0 1.000000
0  -11.641231 107.415321 48.651978  0.087474 0.232406 -0.968677  0.000000 0.000000 1 0 1.000000
0  -0.010783 107.978554 49.059372  0.008983 -0.041954 -0.999079  0.000000 0.000000 1 0 1.000000
  phy
0  -11.470447 100.011993 47.284931  0.025572 -0.320306 -0.946969  0.000000 0.000000 1 0 1.000000
0  -0.010783 107.978554 49.059372  0.008983 -0.041954 -0.999079  0.000000 0.000000 1 0 1.000000
0  -11.641231 107.415321 48.651978  0.087474 0.232406 -0.968677  0.000000 0.000000 1 0 1.000000
  phy
0  -34.819798 98.492699 42.315746  0.019359 0.160842 0.986790  0.000000 0.000000 1 0 1.000000
0  -32.232162 101.585243 44.396458  0.622445 0.782282 0.024449  0.000000 0.000000 1 0 1.000000
0  -17.586769 105.244713 43.460163  0.056795 0.684437 0.726857  0.000000 0.000000 1 0 1.000000
  phy
0  -34.819798 98.492699 42.315746  0.019359 0.160842 0.986790  0.000000 0.000000 1 0 1.000000
0  -35.659534 92.725677 41.907883  0.058171 -0.505447 0.860895  0.000000 0.000000 1 0 1.000000
0  -32.232162 101.585243 44.396458  0.622445 0.782282 0.024449  0.000000 0.000000 1 0 1.000000
  phy
0  -32.232162 101.585243 44.396458  0.622445 0.782282 0.024449  0.000000 0.000000 1 0 1.000000
0  -35.659534 92.725677 41.907883  0.058171 -0.505447 0.860895  0.000000 0.000000 1 0 1.000000
0  -32.328831 94.824066 43.639099  0.086056 -0.521080 -0.849158  0.000000 0.000000 1 0 1.000000
  phy
0  -34.819798 98.492699 42.315746  0.019359 0.160842 0.986790  0.000000 0.000000 1 0 1.000000
0  -17.586769 105.244713 43.460163  0.056795 0.684437 0.726857  0.000000 0.000000 1 0 1.000000
0  14.051931 105.221550 43.420246  0.000579 0.322026 0.946731  0.000000 0.000000 1 0 1.000000
  phy
0  -34.819798 98.492699 42.315746  0.019359 0.160842 0.986790  0.000000 0.000000 1 0 1.000000
0  14.051931 105.221550 43.420246  0.000579 0.322026 0.946731  0.000000 0.000000 1 0 1.000000
0  35.155598 96.223122 41.844952  -0.002656 0.118170 0.992990  0.000000 0.000000 1 0 1.000000
  phy
0  -34.819798 98.492699 42.315746  0.019359 0.160842 0.986790  0.000000 0.000000 1 0 1.000000
0  35.155598 96.223122 41.844952  -0.002656 0.118170 0.992990  0.000000 0.000000 1 0 1.000000
0  -35.659534 92.725677 41.907883  0.058171 -0.505447 0.860895  0.000000 0.000000 1 0 1.000000
  phy
0  -11.655512 107.173553 47.939754  0.035285 0.937181 0.347055  0.000000 0.000000 1 0 1.000000
0  -0.010635 107.677284 48.178200  0.000011 0.909418 0.415883  0.000000 0.000000 1 0 1.000000
0  -17.586769 105.244713 43.460163  0.056795 0.684437 0.726857  0.000000 0.000000 1 0 1.000000
  phy
0  -0.010635 107.677284 48.178200  0.000011 0.909418 0.415883  0.000000 0.000000 1 0 1.000000
0  -11.655512 107.173553 47.939754  0.035285 0.937181 0.347055  0.000000 0.000000 1 0 1.000000
0  -0.010783 107.978554 49.059372  0.008983 -0.041954 -0.999079  0.000000 0.000000 1 0 1.000000
  phy
0  25.892784 104.468376 45.992302  -0.232300 0.858379 0.457408  0.000000 0.000000 1 0 1.000000
0  29.195753 103.252686 45.830990  -0.343672 -0.039436 -0.938261  0.000000 0.000000 1 0 1.000000
0  32.210289 101.581680 44.399979  -0.643472 0.716107 -0.270434  0.000000 0.000000 1 0 1.000000
  phy
0  29.195753 103.252686 45.830990  -0.343672 -0.039436 -0.938261  0.000000 0.000000 1 0 1.000000
0  25.892784 104.468376 45.992302  -0.232300 0.858379 0.457408  0.000000 0.000000 1 0 1.000000
0  25.888527 104.833641 46.895908  -0.247815 -0.035792 -0.968146  0.000000 0.000000 1 0 1.000000
  phy
0  29.182045 96.168442 44.686066  -0.064607 -0.494432 -0.866812  0.000000 0.000000 1 0 1.000000
0  32.292595 94.638962 43.530006  -0.040266 -0.590895 -0.805743  0.000000 0.000000 1 0 1.000000
0  29.195753 103.252686 45.830990  -0.343672 -0.039436 -0.938261  0.000000 0.000000 1 0 1.000000
  phy
0  29.195753 103.252686 45.830990  -0.343672 -0.039436 -0.938261  0.000000 0.000000 1 0 1.000000
0  25.888527 104.833641 46.895908  -0.247815 -0.035792 -0.968146  0.000000 0.000000 1 0 1.000000
0  29.182045 96.168442 44.686066  -0.064607 -0.494432 -0.866812  0.000000 0.000000 1 0 1.000000
  phy
0  29.195753 103.252686 45.830990  -0.343672 -0.039436 -0.938261  0.000000 0.000000 1 0 1.000000
0  32.292595 94.638962 43.530006  -0.040266 -0.590895 -0.805743  0.000000 0.000000 1 0 1.000000
0  32.210289 101.581680 44.399979  -0.643472 0.716107 -0.270434  0.000000 0.000000 1 0 1.000000
  phy
0  35.155598 96.223122 41.844952  -0.002656 0.118170 0.992990  0.000000 0.000000 1 0 1.000000
0  34.398754 99.360596 42.464912  -0.093579 0.349465 0.932265  0.000000 0.000000 1 0 1.000000
0  33.889500 100.126038 43.181301  -0.561790 0.781011 0.272788  0.000000 0.000000 1 0 1.000000
  phy
0  33.889500 100.126038 43.181301  -0.561790 0.781011 0.272788  0.000000 0.000000 1 0 1.000000
0  35.623543 92.507607 41.672001  -0.148064 -0.835348 0.529407  0.000000 0.000000 1 0 1.000000
0  35.155598 96.223122 41.844952  -0.002656 0.118170 0.992990  0.000000 0.000000 1 0 1.000000
  phy
0  32.210289 101.581680 44.399979  -0.643472 0.716107 -0.270434  0.000000 0.000000 1 0 1.000000
0  35.623543 92.507607 41.672001  -0.148064 -0.835348 0.529407  0.000000 0.000000 1 0 1.000000
0  33.889500 100.126038 43.181301  -0.561790 0.781011 0.272788  0.000000 0.000000 1 0 1.000000
  phy
0  32.210289 101.581680 44.399979  -0.643472 0.716107 -0.270434  0.000000 0.000000 1 0 1.000000
0  33.889500 100.126038 43.181301  -0.561790 0.781011 0.272788  0.000000 0.000000 1 0 1.000000
0  17.566145 105.242432 43.461842  -0.108390 0.763786 0.636304  0.000000 0.000000 1 0 1.000000
  phy
0  17.566145 105.242432 43.461842  -0.108390 0.763786 0.636304  0.000000 0.000000 1 0 1.000000
0  33.889500 100.126038 43.181301  -0.561790 0.781011 0.272788  0.000000 0.000000 1 0 1.000000
0  34.398754 99.360596 42.464912  -0.093579 0.349465 0.932265  0.000000 0.000000 1 0 1.000000
  phy
0  17.566145 105.242432 43.461842  -0.108390 0.763786 0.636304  0.000000 0.000000 1 0 1.000000
0  21.777668 105.705223 46.860294  -0.145851 0.950374 0.274803  0.000000 0.000000 1 0 1.000000
0  25.892784 104.468376 45.992302  -0.232300 0.858379 0.457408  0.000000 0.000000 1 0 1.000000
  phy
0  25.892784 104.468376 45.992302  -0.232300 0.858379 0.457408  0.000000 0.000000 1 0 1.000000
0  21.777668 105.705223 46.860294  -0.145851 0.950374 0.274803  0.000000 0.000000 1 0 1.000000
0  25.888527 104.833641 46.895908  -0.247815 -0.035792 -0.968146  0.000000 0.000000 1 0 1.000000
  phy
0  25.892784 104.468376 45.992302  -0.232300 0.858379 0.457408  0.000000 0.000000 1 0 1.000000
0  32.210289 101.581680 44.399979  -0.643472 0.716107 -0.270434  0.000000 0.000000 1 0 1.000000
0  17.566145 105.242432 43.461842  -0.108390 0.763786 0.636304  0.000000 0.000000 1 0 1.000000
  phy
0  11.605618 100.099686 47.294865  -0.042231 -0.206505 -0.977534  0.000000 0.000000 1 0 1.000000
0  11.620113 107.414047 48.653240  -0.066522 0.084346 -0.994213  0.000000 0.000000 1 0 1.000000
0  -0.011097 100.686157 47.704712  -0.007551 -0.250265 -0.968148  0.000000 0.000000 1 0 1.000000
  phy
0  11.620113 107.414047 48.653240  -0.066522 0.084346 -0.994213  0.000000 0.000000 1 0 1.000000
0  -0.010783 107.978554 49.059372  0.008983 -0.041954 -0.999079  0.000000 0.000000 1 0 1.000000
0  -0.011097 100.686157 47.704712  -0.007551 -0.250265 -0.968148  0.000000 0.000000 1 0 1.000000
  phy
0  21.777163 105.839729 47.852970  -0.096584 -0.126854 -0.987208  0.000000 0.000000 1 0 1.000000
0  11.620113 107.414047 48.653240  -0.066522 0.084346 -0.994213  0.000000 0.000000 1 0 1.000000
0  11.605618 100.099686 47.294865  -0.042231 -0.206505 -0.977534  0.000000 0.000000 1 0 1.000000
  phy
0  29.182045 96.168442 44.686066  -0.064607 -0.494432 -0.866812  0.000000 0.000000 1 0 1.000000
0  -29.204208 96.001511 44.571281  0.024504 -0.560812 -0.827580  0.000000 0.000000 1 0 1.000000
0  32.292595 94.638962 43.530006  -0.040266 -0.590895 -0.805743  0.000000 0.000000 1 0 1.000000
  phy
0  25.878914 97.389091 45.580231  -0.031378 -0.501974 -0.864313  0.000000 0.000000 1 0 1.000000
0  -29.204208 96.001511 44.571281  0.024504 -0.560812 -0.827580  0.000000 0.000000 1 0 1.000000
0  29.182045 96.168442 44.686066  -0.064607 -0.494432 -0.866812  0.000000 0.000000 1 0 1.000000
  phy
0  29.182045 96.168442 44.686066  -0.064607 -0.494432 -0.866812  0.000000 0.000000 1 0 1.000000
0  25.888527 104.833641 46.895908  -0.247815 -0.035792 -0.968146  0.000000 0.000000 1 0 1.000000
0  25.878914 97.389091 45.580231  -0.031378 -0.501974 -0.864313  0.000000 0.000000 1 0 1.000000
  phy
0  -25.900602 104.686554 47.003124  0.246736 -0.069538 -0.966585  0.000000 0.000000 1 0 1.000000
0  -29.204208 96.001511 44.571281  0.024504 -0.560812 -0.827580  0.000000 0.000000 1 0 1.000000
0  -25.900909 97.391785 45.577362  0.056283 -0.446852 -0.892835  0.000000 0.000000 1 0 1.000000
  phy
0  -25.900909 97.391785 45.577362  0.056283 -0.446852 -0.892835  0.000000 0.000000 1 0 1.000000
0  -29.204208 96.001511 44.571281  0.024504 -0.560812 -0.827580  0.000000 0.000000 1 0 1.000000
0  25.878914 97.389091 45.580231  -0.031378 -0.501974 -0.864313  0.000000 0.000000 1 0 1.000000
  phy
0  -32.328831 94.824066 43.639099  0.086056 -0.521080 -0.849158  0.000000 0.000000 1 0 1.000000
0  -29.204208 96.001511 44.571281  0.024504 -0.560812 -0.827580  0.000000 0.000000 1 0 1.000000
0  -25.900602 104.686554 47.003124  0.246736 -0.069538 -0.966585  0.000000 0.000000 1 0 1.000000
  phy
0  32.292595 94.638962 43.530006  -0.040266 -0.590895 -0.805743  0.000000 0.000000 1 0 1.000000
0  35.623543 92.507607 41.672001  -0.148064 -0.835348 0.529407  0.000000 0.000000 1 0 1.000000
0  32.210289 101.581680 44.399979  -0.643472 0.716107 -0.270434  0.000000 0.000000 1 0 1.000000
  phy
0  21.777163 105.839729 47.852970  -0.096584 -0.126854 -0.987208  0.000000 0.000000 1 0 1.000000
0  21.777668 105.705223 46.860294  -0.145851 0.950374 0.274803  0.000000 0.000000 1 0 1.000000
0  11.620113 107.414047 48.653240  -0.066522 0.084346 -0.994213  0.000000 0.000000 1 0 1.000000
  phy
0  21.777668 105.705223 46.860294  -0.145851 0.950374 0.274803  0.000000 0.000000 1 0 1.000000
0  21.777163 105.839729 47.852970  -0.096584 -0.126854 -0.987208  0.000000 0.000000 1 0 1.000000
0  25.888527 104.833641 46.895908  -0.247815 -0.035792 -0.968146  0.000000 0.000000 1 0 1.000000
  phy
0  25.878914 97.389091 45.580231  -0.031378 -0.501974 -0.864313  0.000000 0.000000 1 0 1.000000
0  25.888527 104.833641 46.895908  -0.247815 -0.035792 -0.968146  0.000000 0.000000 1 0 1.000000
0  21.777163 105.839729 47.852970  -0.096584 -0.126854 -0.987208  0.000000 0.000000 1 0 1.000000
  phy
0  32.292595 94.638962 43.530006  -0.040266 -0.590895 -0.805743  0.000000 0.000000 1 0 1.000000
0  -29.204208 96.001511 44.571281  0.024504 -0.560812 -0.827580  0.000000 0.000000 1 0 1.000000
0  -32.328831 94.824066 43.639099  0.086056 -0.521080 -0.849158  0.000000 0.000000 1 0 1.000000
  phy
0  -32.328831 94.824066 43.639099  0.086056 -0.521080 -0.849158  0.000000 0.000000 1 0 1.000000
0  -35.659534 92.725677 41.907883  0.058171 -0.505447 0.860895  0.000000 0.000000 1 0 1.000000
0  32.292595 94.638962 43.530006  -0.040266 -0.590895 -0.805743  0.000000 0.000000 1 0 1.000000
  phy
0  -35.659534 92.725677 41.907883  0.058171 -0.505447 0.860895  0.000000 0.000000 1 0 1.000000
0  35.623543 92.507607 41.672001  -0.148064 -0.835348 0.529407  0.000000 0.000000 1 0 1.000000
0  32.292595 94.638962 43.530006  -0.040266 -0.590895 -0.805743  0.000000 0.000000 1 0 1.000000
  phy
0  -0.011097 100.686157 47.704712  -0.007551 -0.250265 -0.968148  0.000000 0.000000 1 0 1.000000
0  -0.010783 107.978554 49.059372  0.008983 -0.041954 -0.999079  0.000000 0.000000 1 0 1.000000
0  -11.470447 100.011993 47.284931  0.025572 -0.320306 -0.946969  0.000000 0.000000 1 0 1.000000
  phy
0  -35.659534 92.725677 41.907883  0.058171 -0.505447 0.860895  0.000000 0.000000 1 0 1.000000
0  35.155598 96.223122 41.844952  -0.002656 0.118170 0.992990  0.000000 0.000000 1 0 1.000000
0  35.623543 92.507607 41.672001  -0.148064 -0.835348 0.529407  0.000000 0.000000 1 0 1.000000
  phy
0  35.155598 96.223122 41.844952  -0.002656 0.118170 0.992990  0.000000 0.000000 1 0 1.000000
0  17.566145 105.242432 43.461842  -0.108390 0.763786 0.636304  0.000000 0.000000 1 0 1.000000
0  34.398754 99.360596 42.464912  -0.093579 0.349465 0.932265  0.000000 0.000000 1 0 1.000000
  phy
0  17.566145 105.242432 43.461842  -0.108390 0.763786 0.636304  0.000000 0.000000 1 0 1.000000
0  35.155598 96.223122 41.844952  -0.002656 0.118170 0.992990  0.000000 0.000000 1 0 1.000000
0  14.051931 105.221550 43.420246  0.000579 0.322026 0.946731  0.000000 0.000000 1 0 1.000000
  phy
0  21.777668 105.705223 46.860294  -0.145851 0.950374 0.274803  0.000000 0.000000 1 0 1.000000
0  17.566145 105.242432 43.461842  -0.108390 0.763786 0.636304  0.000000 0.000000 1 0 1.000000
0  11.620113 107.414047 48.653240  -0.066522 0.084346 -0.994213  0.000000 0.000000 1 0 1.000000
  phy
0  11.620113 107.414047 48.653240  -0.066522 0.084346 -0.994213  0.000000 0.000000 1 0 1.000000
0  17.566145 105.242432 43.461842  -0.108390 0.763786 0.636304  0.000000 0.000000 1 0 1.000000
0  11.633966 107.172493 47.941479  -0.035327 0.937167 0.347087  0.000000 0.000000 1 0 1.000000
  phy
0  17.566145 105.242432 43.461842  -0.108390 0.763786 0.636304  0.000000 0.000000 1 0 1.000000
0  -0.010635 107.677284 48.178200  0.000011 0.909418 0.415883  0.000000 0.000000 1 0 1.000000
0  11.633966 107.172493 47.941479  -0.035327 0.937167 0.347087  0.000000 0.000000 1 0 1.000000
  phy
0  -0.010635 107.677284 48.178200  0.000011 0.909418 0.415883  0.000000 0.000000 1 0 1.000000
0  17.566145 105.242432 43.461842  -0.108390 0.763786 0.636304  0.000000 0.000000 1 0 1.000000
0  14.051931 105.221550 43.420246  0.000579 0.322026 0.946731  0.000000 0.000000 1 0 1.000000
  phy
0  11.633966 107.172493 47.941479  -0.035327 0.937167 0.347087  0.000000 0.000000 1 0 1.000000
0  -0.010635 107.677284 48.178200  0.000011 0.909418 0.415883  0.000000 0.000000 1 0 1.000000
0  -0.010783 107.978554 49.059372  0.008983 -0.041954 -0.999079  0.000000 0.000000 1 0 1.000000
  phy
0  -17.586769 105.244713 43.460163  0.056795 0.684437 0.726857  0.000000 0.000000 1 0 1.000000
0  -0.010635 107.677284 48.178200  0.000011 0.909418 0.415883  0.000000 0.000000 1 0 1.000000
0  14.051931 105.221550 43.420246  0.000579 0.322026 0.946731  0.000000 0.000000 1 0 1.000000
  phy
0  11.620113 107.414047 48.653240  -0.066522 0.084346 -0.994213  0.000000 0.000000 1 0 1.000000
0  11.633966 107.172493 47.941479  -0.035327 0.937167 0.347087  0.000000 0.000000 1 0 1.000000
0  -0.010783 107.978554 49.059372  0.008983 -0.041954 -0.999079  0.000000 0.000000 1 0 1.000000
end
