version 1
nodes
0 "root" -1
1 "steering_wheel" 0
end
skeleton
time 0
0  0.000000 0.000000 0.000000  0.000000 -0.000000 -1.570797
1  19.916300 17.934299 33.308498  0.000000 -0.000000 0.000000
end
triangles
  phy
0  -5.448757 -0.033419 -16.369980  -0.989444 -0.000064 0.144919  0.000000 0.000000 1 0 1.000000
0  -5.448952 -5.096430 -15.568287  -0.049107 0.358315 0.932308  0.000000 0.000000 1 0 1.000000
0  -5.449190 -9.663913 -13.241196  -0.188117 0.618356 0.763052  0.000000 0.000000 1 0 1.000000
  phy
0  -5.448757 -0.033419 -16.369980  -0.989444 -0.000064 0.144919  0.000000 0.000000 1 0 1.000000
0  -5.449190 -9.663913 -13.241196  -0.188117 0.618356 0.763052  0.000000 0.000000 1 0 1.000000
0  -5.449447 -13.288694 -9.616651  -0.381997 0.775247 0.503062  0.000000 0.000000 1 0 1.000000
  phy
0  -5.448757 -0.033419 -16.369980  -0.989444 -0.000064 0.144919  0.000000 0.000000 1 0 1.000000
0  -5.449447 -13.288694 -9.616651  -0.381997 0.775247 0.503062  0.000000 0.000000 1 0 1.000000
0  -5.449698 -15.616066 -5.049343  -0.569587 0.793984 0.212510  0.000000 0.000000 1 0 1.000000
  phy
0  -5.448757 -0.033419 -16.369980  -0.989444 -0.000064 0.144919  0.000000 0.000000 1 0 1.000000
0  -5.449698 -15.616066 -5.049343  -0.569587 0.793984 0.212510  0.000000 0.000000 1 0 1.000000
0  -5.449918 -16.418097 0.013627  -0.708183 0.705045 -0.037266  0.000000 0.000000 1 0 1.000000
  phy
0  -5.448757 -0.033419 -16.369980  -0.989444 -0.000064 0.144919  0.000000 0.000000 1 0 1.000000
0  -5.449918 -16.418097 0.013627  -0.708183 0.705045 -0.037266  0.000000 0.000000 1 0 1.000000
0  -5.450087 -15.616397 5.076670  -0.891886 0.430168 -0.139625  0.000000 0.000000 1 0 1.000000
  phy
0  -5.448757 -0.033419 -16.369980  -0.989444 -0.000064 0.144919  0.000000 0.000000 1 0 1.000000
0  -5.450087 -15.616397 5.076670  -0.891886 0.430168 -0.139625  0.000000 0.000000 1 0 1.000000
0  -5.450187 -13.289344 9.644123  -0.846851 0.446141 -0.289484  0.000000 0.000000 1 0 1.000000
  phy
0  -5.448757 -0.033419 -16.369980  -0.989444 -0.000064 0.144919  0.000000 0.000000 1 0 1.000000
0  -5.450187 -13.289344 9.644123  -0.846851 0.446141 -0.289484  0.000000 0.000000 1 0 1.000000
0  -5.450209 -9.664762 13.268937  -0.806148 0.347815 -0.478696  0.000000 0.000000 1 0 1.000000
  phy
0  -5.448757 -0.033419 -16.369980  -0.989444 -0.000064 0.144919  0.000000 0.000000 1 0 1.000000
0  -5.450209 -9.664762 13.268937  -0.806148 0.347815 -0.478696  0.000000 0.000000 1 0 1.000000
0  -5.450150 -5.097458 15.596290  -0.890479 0.117498 -0.439593  0.000000 0.000000 1 0 1.000000
  phy
0  -5.448757 -0.033419 -16.369980  -0.989444 -0.000064 0.144919  0.000000 0.000000 1 0 1.000000
0  -5.450150 -5.097458 15.596290  -0.890479 0.117498 -0.439593  0.000000 0.000000 1 0 1.000000
0  -5.450016 -0.034456 16.398323  -0.991540 0.000034 -0.129800  0.000000 0.000000 1 0 1.000000
  phy
0  -5.448757 -0.033419 -16.369980  -0.989444 -0.000064 0.144919  0.000000 0.000000 1 0 1.000000
0  -5.450016 -0.034456 16.398323  -0.991540 0.000034 -0.129800  0.000000 0.000000 1 0 1.000000
0  -5.448855 16.350201 0.014681  -0.977473 -0.210772 -0.011085  0.000000 0.000000 1 0 1.000000
  phy
0  -5.448757 -0.033419 -16.369980  -0.989444 -0.000064 0.144919  0.000000 0.000000 1 0 1.000000
0  -5.448855 16.350201 0.014681  -0.977473 -0.210772 -0.011085  0.000000 0.000000 1 0 1.000000
0  -5.448586 13.221448 -9.615761  -0.641143 -0.596200 0.483199  0.000000 0.000000 1 0 1.000000
  phy
0  -5.448757 -0.033419 -16.369980  -0.989444 -0.000064 0.144919  0.000000 0.000000 1 0 1.000000
0  -5.448586 13.221448 -9.615761  -0.641143 -0.596200 0.483199  0.000000 0.000000 1 0 1.000000
0  -5.448565 9.596837 -13.240619  -0.276421 -0.564931 0.777461  0.000000 0.000000 1 0 1.000000
  phy
0  -5.448757 -0.033419 -16.369980  -0.989444 -0.000064 0.144919  0.000000 0.000000 1 0 1.000000
0  -5.448565 9.596837 -13.240619  -0.276421 -0.564931 0.777461  0.000000 0.000000 1 0 1.000000
0  -5.448624 5.029606 -15.567940  -0.049007 -0.358238 0.932343  0.000000 0.000000 1 0 1.000000
  phy
0  -5.448586 13.221448 -9.615761  -0.641143 -0.596200 0.483199  0.000000 0.000000 1 0 1.000000
0  -5.448855 16.350201 0.014681  -0.977473 -0.210772 -0.011085  0.000000 0.000000 1 0 1.000000
0  -5.448686 15.548514 -5.048310  -0.036907 -0.950398 0.308838  0.000000 0.000000 1 0 1.000000
  phy
0  -5.448855 16.350201 0.014681  -0.977473 -0.210772 -0.011085  0.000000 0.000000 1 0 1.000000
0  -5.450016 -0.034456 16.398323  -0.991540 0.000034 -0.129800  0.000000 0.000000 1 0 1.000000
0  -5.449327 13.220817 9.644980  -0.641204 -0.596231 -0.483079  0.000000 0.000000 1 0 1.000000
  phy
0  -5.448855 16.350201 0.014681  -0.977473 -0.210772 -0.011085  0.000000 0.000000 1 0 1.000000
0  -5.449327 13.220817 9.644980  -0.641204 -0.596231 -0.483079  0.000000 0.000000 1 0 1.000000
0  -5.449075 15.548185 5.077679  -0.049108 -0.932336 -0.358244  0.000000 0.000000 1 0 1.000000
  phy
0  -5.449327 13.220817 9.644980  -0.641204 -0.596231 -0.483079  0.000000 0.000000 1 0 1.000000
0  -5.450016 -0.034456 16.398323  -0.991540 0.000034 -0.129800  0.000000 0.000000 1 0 1.000000
0  -5.449584 9.595991 13.269569  -0.188098 -0.534658 -0.823869  0.000000 0.000000 1 0 1.000000
  phy
0  -5.449584 9.595991 13.269569  -0.188098 -0.534658 -0.823869  0.000000 0.000000 1 0 1.000000
0  -5.450016 -0.034456 16.398323  -0.991540 0.000034 -0.129800  0.000000 0.000000 1 0 1.000000
0  -5.449822 5.028541 15.596636  -0.049063 -0.258182 -0.964849  0.000000 0.000000 1 0 1.000000
  phy
0  -5.449584 9.595991 13.269569  -0.188098 -0.534658 -0.823869  0.000000 0.000000 1 0 1.000000
0  5.427180 9.595686 13.269926  0.188119 -0.618371 -0.763039  0.000000 0.000000 1 0 1.000000
0  -5.449327 13.220817 9.644980  -0.641204 -0.596231 -0.483079  0.000000 0.000000 1 0 1.000000
  phy
0  -5.449327 13.220817 9.644980  -0.641204 -0.596231 -0.483079  0.000000 0.000000 1 0 1.000000
0  5.427180 9.595686 13.269926  0.188119 -0.618371 -0.763039  0.000000 0.000000 1 0 1.000000
0  5.427411 13.220496 9.645356  0.641200 -0.643685 -0.417770  0.000000 0.000000 1 0 1.000000
  phy
0  -5.449584 9.595991 13.269569  -0.188098 -0.534658 -0.823869  0.000000 0.000000 1 0 1.000000
0  -5.449822 5.028541 15.596636  -0.049063 -0.258182 -0.964849  0.000000 0.000000 1 0 1.000000
0  5.426974 5.028231 15.596994  0.049110 -0.358292 -0.932317  0.000000 0.000000 1 0 1.000000
  phy
0  -5.449584 9.595991 13.269569  -0.188098 -0.534658 -0.823869  0.000000 0.000000 1 0 1.000000
0  5.426974 5.028231 15.596994  0.049110 -0.358292 -0.932317  0.000000 0.000000 1 0 1.000000
0  5.427180 9.595686 13.269926  0.188119 -0.618371 -0.763039  0.000000 0.000000 1 0 1.000000
  phy
0  5.428159 5.029268 -15.567583  0.049172 -0.258107 0.964864  0.000000 0.000000 1 0 1.000000
0  5.428188 9.596528 -13.240249  0.916892 -0.234643 0.322881  0.000000 0.000000 1 0 1.000000
0  5.428059 -0.033739 -16.369619  0.276471 -0.000112 0.961022  0.000000 0.000000 1 0 1.000000
  phy
0  5.428188 9.596528 -13.240249  0.916892 -0.234643 0.322881  0.000000 0.000000 1 0 1.000000
0  5.427899 -5.096749 -15.567926  0.381977 0.238861 0.892770  0.000000 0.000000 1 0 1.000000
0  5.428059 -0.033739 -16.369619  0.276471 -0.000112 0.961022  0.000000 0.000000 1 0 1.000000
  phy
0  5.428188 9.596528 -13.240249  0.916892 -0.234643 0.322881  0.000000 0.000000 1 0 1.000000
0  5.427692 -9.664232 -13.240834  0.569541 0.447436 0.689510  0.000000 0.000000 1 0 1.000000
0  5.427899 -5.096749 -15.567926  0.381977 0.238861 0.892770  0.000000 0.000000 1 0 1.000000
  phy
0  5.428188 9.596528 -13.240249  0.916892 -0.234643 0.322881  0.000000 0.000000 1 0 1.000000
0  5.427461 -13.289007 -9.616295  0.708162 0.548482 0.444605  0.000000 0.000000 1 0 1.000000
0  5.427692 -9.664232 -13.240834  0.569541 0.447436 0.689510  0.000000 0.000000 1 0 1.000000
  phy
0  5.428188 9.596528 -13.240249  0.916892 -0.234643 0.322881  0.000000 0.000000 1 0 1.000000
0  5.427228 -15.616385 -5.048977  0.795419 0.565689 0.217496  0.000000 0.000000 1 0 1.000000
0  5.427461 -13.289007 -9.616295  0.708162 0.548482 0.444605  0.000000 0.000000 1 0 1.000000
  phy
0  5.428188 9.596528 -13.240249  0.916892 -0.234643 0.322881  0.000000 0.000000 1 0 1.000000
0  5.427015 -16.418415 0.013988  0.991407 0.130631 0.006881  0.000000 0.000000 1 0 1.000000
0  5.427228 -15.616385 -5.048977  0.795419 0.565689 0.217496  0.000000 0.000000 1 0 1.000000
  phy
0  5.428188 9.596528 -13.240249  0.916892 -0.234643 0.322881  0.000000 0.000000 1 0 1.000000
0  5.428143 13.221147 -9.615380  0.875802 -0.404962 0.262635  0.000000 0.000000 1 0 1.000000
0  5.427015 -16.418415 0.013988  0.991407 0.130631 0.006881  0.000000 0.000000 1 0 1.000000
  phy
0  5.428143 13.221147 -9.615380  0.875802 -0.404962 0.262635  0.000000 0.000000 1 0 1.000000
0  5.428030 15.548196 -5.047963  0.946737 -0.306266 0.099444  0.000000 0.000000 1 0 1.000000
0  5.427015 -16.418415 0.013988  0.991407 0.130631 0.006881  0.000000 0.000000 1 0 1.000000
  phy
0  5.428030 15.548196 -5.047963  0.946737 -0.306266 0.099444  0.000000 0.000000 1 0 1.000000
0  5.427857 16.349888 0.015047  0.980186 -0.198081 0.000033  0.000000 0.000000 1 0 1.000000
0  5.427015 -16.418415 0.013988  0.991407 0.130631 0.006881  0.000000 0.000000 1 0 1.000000
  phy
0  5.427857 16.349888 0.015047  0.980186 -0.198081 0.000033  0.000000 0.000000 1 0 1.000000
0  5.426813 -0.034784 16.398685  0.963245 0.000052 -0.268625  0.000000 0.000000 1 0 1.000000
0  5.427015 -16.418415 0.013988  0.991407 0.130631 0.006881  0.000000 0.000000 1 0 1.000000
  phy
0  5.427857 16.349888 0.015047  0.980186 -0.198081 0.000033  0.000000 0.000000 1 0 1.000000
0  5.427411 13.220496 9.645356  0.641200 -0.643685 -0.417770  0.000000 0.000000 1 0 1.000000
0  5.426813 -0.034784 16.398685  0.963245 0.000052 -0.268625  0.000000 0.000000 1 0 1.000000
  phy
0  5.427857 16.349888 0.015047  0.980186 -0.198081 0.000033  0.000000 0.000000 1 0 1.000000
0  5.427644 15.547870 5.078036  0.049069 -0.964868 -0.258114  0.000000 0.000000 1 0 1.000000
0  5.427411 13.220496 9.645356  0.641200 -0.643685 -0.417770  0.000000 0.000000 1 0 1.000000
  phy
0  5.427411 13.220496 9.645356  0.641200 -0.643685 -0.417770  0.000000 0.000000 1 0 1.000000
0  5.427180 9.595686 13.269926  0.188119 -0.618371 -0.763039  0.000000 0.000000 1 0 1.000000
0  5.426813 -0.034784 16.398685  0.963245 0.000052 -0.268625  0.000000 0.000000 1 0 1.000000
  phy
0  5.427180 9.595686 13.269926  0.188119 -0.618371 -0.763039  0.000000 0.000000 1 0 1.000000
0  5.426974 5.028231 15.596994  0.049110 -0.358292 -0.932317  0.000000 0.000000 1 0 1.000000
0  5.426813 -0.034784 16.398685  0.963245 0.000052 -0.268625  0.000000 0.000000 1 0 1.000000
  phy
0  5.426813 -0.034784 16.398685  0.963245 0.000052 -0.268625  0.000000 0.000000 1 0 1.000000
0  5.426684 -9.665086 13.269293  0.798868 0.353456 -0.486702  0.000000 0.000000 1 0 1.000000
0  5.427015 -16.418415 0.013988  0.991407 0.130631 0.006881  0.000000 0.000000 1 0 1.000000
  phy
0  5.426813 -0.034784 16.398685  0.963245 0.000052 -0.268625  0.000000 0.000000 1 0 1.000000
0  5.426713 -5.097768 15.596654  0.048998 0.358366 -0.932294  0.000000 0.000000 1 0 1.000000
0  5.426684 -9.665086 13.269293  0.798868 0.353456 -0.486702  0.000000 0.000000 1 0 1.000000
  phy
0  5.426684 -9.665086 13.269293  0.798868 0.353456 -0.486702  0.000000 0.000000 1 0 1.000000
0  5.426843 -15.616716 5.077026  0.142365 0.941359 -0.305902  0.000000 0.000000 1 0 1.000000
0  5.427015 -16.418415 0.013988  0.991407 0.130631 0.006881  0.000000 0.000000 1 0 1.000000
  phy
0  5.426684 -9.665086 13.269293  0.798868 0.353456 -0.486702  0.000000 0.000000 1 0 1.000000
0  5.426729 -13.289657 9.644489  0.048998 0.775962 -0.628874  0.000000 0.000000 1 0 1.000000
0  5.426843 -15.616716 5.077026  0.142365 0.941359 -0.305902  0.000000 0.000000 1 0 1.000000
  phy
0  5.426713 -5.097768 15.596654  0.048998 0.358366 -0.932294  0.000000 0.000000 1 0 1.000000
0  5.426813 -0.034784 16.398685  0.963245 0.000052 -0.268625  0.000000 0.000000 1 0 1.000000
0  -5.450150 -5.097458 15.596290  -0.890479 0.117498 -0.439593  0.000000 0.000000 1 0 1.000000
  phy
0  -5.450150 -5.097458 15.596290  -0.890479 0.117498 -0.439593  0.000000 0.000000 1 0 1.000000
0  5.426813 -0.034784 16.398685  0.963245 0.000052 -0.268625  0.000000 0.000000 1 0 1.000000
0  -5.450016 -0.034456 16.398323  -0.991540 0.000034 -0.129800  0.000000 0.000000 1 0 1.000000
  phy
0  -5.449822 5.028541 15.596636  -0.049063 -0.258182 -0.964849  0.000000 0.000000 1 0 1.000000
0  -5.450016 -0.034456 16.398323  -0.991540 0.000034 -0.129800  0.000000 0.000000 1 0 1.000000
0  5.426813 -0.034784 16.398685  0.963245 0.000052 -0.268625  0.000000 0.000000 1 0 1.000000
  phy
0  -5.449822 5.028541 15.596636  -0.049063 -0.258182 -0.964849  0.000000 0.000000 1 0 1.000000
0  5.426813 -0.034784 16.398685  0.963245 0.000052 -0.268625  0.000000 0.000000 1 0 1.000000
0  5.426974 5.028231 15.596994  0.049110 -0.358292 -0.932317  0.000000 0.000000 1 0 1.000000
  phy
0  -5.450187 -13.289344 9.644123  -0.846851 0.446141 -0.289484  0.000000 0.000000 1 0 1.000000
0  -5.450087 -15.616397 5.076670  -0.891886 0.430168 -0.139625  0.000000 0.000000 1 0 1.000000
0  5.426843 -15.616716 5.077026  0.142365 0.941359 -0.305902  0.000000 0.000000 1 0 1.000000
  phy
0  -5.450187 -13.289344 9.644123  -0.846851 0.446141 -0.289484  0.000000 0.000000 1 0 1.000000
0  5.426843 -15.616716 5.077026  0.142365 0.941359 -0.305902  0.000000 0.000000 1 0 1.000000
0  5.426729 -13.289657 9.644489  0.048998 0.775962 -0.628874  0.000000 0.000000 1 0 1.000000
  phy
0  -5.450187 -13.289344 9.644123  -0.846851 0.446141 -0.289484  0.000000 0.000000 1 0 1.000000
0  5.426729 -13.289657 9.644489  0.048998 0.775962 -0.628874  0.000000 0.000000 1 0 1.000000
0  -5.450209 -9.664762 13.268937  -0.806148 0.347815 -0.478696  0.000000 0.000000 1 0 1.000000
  phy
0  -5.450209 -9.664762 13.268937  -0.806148 0.347815 -0.478696  0.000000 0.000000 1 0 1.000000
0  5.426729 -13.289657 9.644489  0.048998 0.775962 -0.628874  0.000000 0.000000 1 0 1.000000
0  5.426684 -9.665086 13.269293  0.798868 0.353456 -0.486702  0.000000 0.000000 1 0 1.000000
  phy
0  5.427857 16.349888 0.015047  0.980186 -0.198081 0.000033  0.000000 0.000000 1 0 1.000000
0  -5.448855 16.350201 0.014681  -0.977473 -0.210772 -0.011085  0.000000 0.000000 1 0 1.000000
0  5.427644 15.547870 5.078036  0.049069 -0.964868 -0.258114  0.000000 0.000000 1 0 1.000000
  phy
0  -5.448855 16.350201 0.014681  -0.977473 -0.210772 -0.011085  0.000000 0.000000 1 0 1.000000
0  -5.449075 15.548185 5.077679  -0.049108 -0.932336 -0.358244  0.000000 0.000000 1 0 1.000000
0  5.427644 15.547870 5.078036  0.049069 -0.964868 -0.258114  0.000000 0.000000 1 0 1.000000
  phy
0  5.427857 16.349888 0.015047  0.980186 -0.198081 0.000033  0.000000 0.000000 1 0 1.000000
0  -5.448686 15.548514 -5.048310  -0.036907 -0.950398 0.308838  0.000000 0.000000 1 0 1.000000
0  -5.448855 16.350201 0.014681  -0.977473 -0.210772 -0.011085  0.000000 0.000000 1 0 1.000000
  phy
0  5.427857 16.349888 0.015047  0.980186 -0.198081 0.000033  0.000000 0.000000 1 0 1.000000
0  5.428030 15.548196 -5.047963  0.946737 -0.306266 0.099444  0.000000 0.000000 1 0 1.000000
0  -5.448686 15.548514 -5.048310  -0.036907 -0.950398 0.308838  0.000000 0.000000 1 0 1.000000
  phy
0  5.428143 13.221147 -9.615380  0.875802 -0.404962 0.262635  0.000000 0.000000 1 0 1.000000
0  -5.448686 15.548514 -5.048310  -0.036907 -0.950398 0.308838  0.000000 0.000000 1 0 1.000000
0  5.428030 15.548196 -5.047963  0.946737 -0.306266 0.099444  0.000000 0.000000 1 0 1.000000
  phy
0  5.428143 13.221147 -9.615380  0.875802 -0.404962 0.262635  0.000000 0.000000 1 0 1.000000
0  -5.448586 13.221448 -9.615761  -0.641143 -0.596200 0.483199  0.000000 0.000000 1 0 1.000000
0  -5.448686 15.548514 -5.048310  -0.036907 -0.950398 0.308838  0.000000 0.000000 1 0 1.000000
  phy
0  5.428188 9.596528 -13.240249  0.916892 -0.234643 0.322881  0.000000 0.000000 1 0 1.000000
0  -5.448586 13.221448 -9.615761  -0.641143 -0.596200 0.483199  0.000000 0.000000 1 0 1.000000
0  5.428143 13.221147 -9.615380  0.875802 -0.404962 0.262635  0.000000 0.000000 1 0 1.000000
  phy
0  5.428188 9.596528 -13.240249  0.916892 -0.234643 0.322881  0.000000 0.000000 1 0 1.000000
0  -5.448565 9.596837 -13.240619  -0.276421 -0.564931 0.777461  0.000000 0.000000 1 0 1.000000
0  -5.448586 13.221448 -9.615761  -0.641143 -0.596200 0.483199  0.000000 0.000000 1 0 1.000000
  phy
0  -5.448757 -0.033419 -16.369980  -0.989444 -0.000064 0.144919  0.000000 0.000000 1 0 1.000000
0  5.428159 5.029268 -15.567583  0.049172 -0.258107 0.964864  0.000000 0.000000 1 0 1.000000
0  5.428059 -0.033739 -16.369619  0.276471 -0.000112 0.961022  0.000000 0.000000 1 0 1.000000
  phy
0  -5.448757 -0.033419 -16.369980  -0.989444 -0.000064 0.144919  0.000000 0.000000 1 0 1.000000
0  -5.448624 5.029606 -15.567940  -0.049007 -0.358238 0.932343  0.000000 0.000000 1 0 1.000000
0  5.428159 5.029268 -15.567583  0.049172 -0.258107 0.964864  0.000000 0.000000 1 0 1.000000
  phy
0  -5.448565 9.596837 -13.240619  -0.276421 -0.564931 0.777461  0.000000 0.000000 1 0 1.000000
0  5.428188 9.596528 -13.240249  0.916892 -0.234643 0.322881  0.000000 0.000000 1 0 1.000000
0  -5.448624 5.029606 -15.567940  -0.049007 -0.358238 0.932343  0.000000 0.000000 1 0 1.000000
  phy
0  5.428188 9.596528 -13.240249  0.916892 -0.234643 0.322881  0.000000 0.000000 1 0 1.000000
0  5.428159 5.029268 -15.567583  0.049172 -0.258107 0.964864  0.000000 0.000000 1 0 1.000000
0  -5.448624 5.029606 -15.567940  -0.049007 -0.358238 0.932343  0.000000 0.000000 1 0 1.000000
  phy
0  5.427899 -5.096749 -15.567926  0.381977 0.238861 0.892770  0.000000 0.000000 1 0 1.000000
0  -5.448757 -0.033419 -16.369980  -0.989444 -0.000064 0.144919  0.000000 0.000000 1 0 1.000000
0  5.428059 -0.033739 -16.369619  0.276471 -0.000112 0.961022  0.000000 0.000000 1 0 1.000000
  phy
0  5.427899 -5.096749 -15.567926  0.381977 0.238861 0.892770  0.000000 0.000000 1 0 1.000000
0  -5.448952 -5.096430 -15.568287  -0.049107 0.358315 0.932308  0.000000 0.000000 1 0 1.000000
0  -5.448757 -0.033419 -16.369980  -0.989444 -0.000064 0.144919  0.000000 0.000000 1 0 1.000000
  phy
0  -5.448952 -5.096430 -15.568287  -0.049107 0.358315 0.932308  0.000000 0.000000 1 0 1.000000
0  5.427692 -9.664232 -13.240834  0.569541 0.447436 0.689510  0.000000 0.000000 1 0 1.000000
0  -5.449190 -9.663913 -13.241196  -0.188117 0.618356 0.763052  0.000000 0.000000 1 0 1.000000
  phy
0  -5.448952 -5.096430 -15.568287  -0.049107 0.358315 0.932308  0.000000 0.000000 1 0 1.000000
0  5.427899 -5.096749 -15.567926  0.381977 0.238861 0.892770  0.000000 0.000000 1 0 1.000000
0  5.427692 -9.664232 -13.240834  0.569541 0.447436 0.689510  0.000000 0.000000 1 0 1.000000
  phy
0  -5.449327 13.220817 9.644980  -0.641204 -0.596231 -0.483079  0.000000 0.000000 1 0 1.000000
0  5.427411 13.220496 9.645356  0.641200 -0.643685 -0.417770  0.000000 0.000000 1 0 1.000000
0  -5.449075 15.548185 5.077679  -0.049108 -0.932336 -0.358244  0.000000 0.000000 1 0 1.000000
  phy
0  5.427411 13.220496 9.645356  0.641200 -0.643685 -0.417770  0.000000 0.000000 1 0 1.000000
0  5.427644 15.547870 5.078036  0.049069 -0.964868 -0.258114  0.000000 0.000000 1 0 1.000000
0  -5.449075 15.548185 5.077679  -0.049108 -0.932336 -0.358244  0.000000 0.000000 1 0 1.000000
  phy
0  -5.449698 -15.616066 -5.049343  -0.569587 0.793984 0.212510  0.000000 0.000000 1 0 1.000000
0  -5.449447 -13.288694 -9.616651  -0.381997 0.775247 0.503062  0.000000 0.000000 1 0 1.000000
0  5.427228 -15.616385 -5.048977  0.795419 0.565689 0.217496  0.000000 0.000000 1 0 1.000000
  phy
0  5.427228 -15.616385 -5.048977  0.795419 0.565689 0.217496  0.000000 0.000000 1 0 1.000000
0  -5.449447 -13.288694 -9.616651  -0.381997 0.775247 0.503062  0.000000 0.000000 1 0 1.000000
0  5.427461 -13.289007 -9.616295  0.708162 0.548482 0.444605  0.000000 0.000000 1 0 1.000000
  phy
0  -5.449190 -9.663913 -13.241196  -0.188117 0.618356 0.763052  0.000000 0.000000 1 0 1.000000
0  5.427461 -13.289007 -9.616295  0.708162 0.548482 0.444605  0.000000 0.000000 1 0 1.000000
0  -5.449447 -13.288694 -9.616651  -0.381997 0.775247 0.503062  0.000000 0.000000 1 0 1.000000
  phy
0  -5.449190 -9.663913 -13.241196  -0.188117 0.618356 0.763052  0.000000 0.000000 1 0 1.000000
0  5.427692 -9.664232 -13.240834  0.569541 0.447436 0.689510  0.000000 0.000000 1 0 1.000000
0  5.427461 -13.289007 -9.616295  0.708162 0.548482 0.444605  0.000000 0.000000 1 0 1.000000
  phy
0  5.427228 -15.616385 -5.048977  0.795419 0.565689 0.217496  0.000000 0.000000 1 0 1.000000
0  5.427015 -16.418415 0.013988  0.991407 0.130631 0.006881  0.000000 0.000000 1 0 1.000000
0  -5.449698 -15.616066 -5.049343  -0.569587 0.793984 0.212510  0.000000 0.000000 1 0 1.000000
  phy
0  -5.449698 -15.616066 -5.049343  -0.569587 0.793984 0.212510  0.000000 0.000000 1 0 1.000000
0  5.427015 -16.418415 0.013988  0.991407 0.130631 0.006881  0.000000 0.000000 1 0 1.000000
0  -5.449918 -16.418097 0.013627  -0.708183 0.705045 -0.037266  0.000000 0.000000 1 0 1.000000
  phy
0  -5.450150 -5.097458 15.596290  -0.890479 0.117498 -0.439593  0.000000 0.000000 1 0 1.000000
0  -5.450209 -9.664762 13.268937  -0.806148 0.347815 -0.478696  0.000000 0.000000 1 0 1.000000
0  5.426713 -5.097768 15.596654  0.048998 0.358366 -0.932294  0.000000 0.000000 1 0 1.000000
  phy
0  5.426713 -5.097768 15.596654  0.048998 0.358366 -0.932294  0.000000 0.000000 1 0 1.000000
0  -5.450209 -9.664762 13.268937  -0.806148 0.347815 -0.478696  0.000000 0.000000 1 0 1.000000
0  5.426684 -9.665086 13.269293  0.798868 0.353456 -0.486702  0.000000 0.000000 1 0 1.000000
  phy
0  5.427015 -16.418415 0.013988  0.991407 0.130631 0.006881  0.000000 0.000000 1 0 1.000000
0  5.426843 -15.616716 5.077026  0.142365 0.941359 -0.305902  0.000000 0.000000 1 0 1.000000
0  -5.449918 -16.418097 0.013627  -0.708183 0.705045 -0.037266  0.000000 0.000000 1 0 1.000000
  phy
0  -5.449918 -16.418097 0.013627  -0.708183 0.705045 -0.037266  0.000000 0.000000 1 0 1.000000
0  5.426843 -15.616716 5.077026  0.142365 0.941359 -0.305902  0.000000 0.000000 1 0 1.000000
0  -5.450087 -15.616397 5.076670  -0.891886 0.430168 -0.139625  0.000000 0.000000 1 0 1.000000
end
