version 1
nodes
0 "root" -1
1 "steering_wheel" 0
end
skeleton
time 0
0  0.000000 0.000000 0.000000  0.000000 -0.000000 -1.570797
1  19.916300 17.934299 33.308498  0.000000 -0.000000 0.000000
end
triangles
  phy
0  34.461079 -96.057602 30.872032  -0.825418 -0.518574 0.223083  0.000000 0.000000 1 0 1.000000
0  31.904104 -96.405052 31.214449  -0.889242 -0.425952 0.166773  0.000000 0.000000 1 0 1.000000
0  22.266439 -105.004791 28.023083  -0.820314 -0.538865 0.191598  0.000000 0.000000 1 0 1.000000
  phy
0  31.904104 -96.405052 31.214449  -0.889242 -0.425952 0.166773  0.000000 0.000000 1 0 1.000000
0  15.100214 -102.134315 31.346449  -0.863474 -0.475686 0.167737  0.000000 0.000000 1 0 1.000000
0  22.266439 -105.004791 28.023083  -0.820314 -0.538865 0.191598  0.000000 0.000000 1 0 1.000000
  phy
0  15.100214 -102.134315 31.346449  -0.863474 -0.475686 0.167737  0.000000 0.000000 1 0 1.000000
0  8.457684 -103.600868 31.780483  -0.888457 -0.436657 0.141333  0.000000 0.000000 1 0 1.000000
0  1.733118 -107.685898 30.729940  -0.892770 -0.439695 0.098132  0.000000 0.000000 1 0 1.000000
  phy
0  1.733118 -107.685898 30.729940  -0.892770 -0.439695 0.098132  0.000000 0.000000 1 0 1.000000
0  1.459828 -110.482437 29.179356  -0.792408 -0.586211 0.168660  0.000000 0.000000 1 0 1.000000
0  15.100214 -102.134315 31.346449  -0.863474 -0.475686 0.167737  0.000000 0.000000 1 0 1.000000
  phy
0  1.459828 -110.482437 29.179356  -0.792408 -0.586211 0.168660  0.000000 0.000000 1 0 1.000000
0  22.266439 -105.004791 28.023083  -0.820314 -0.538865 0.191598  0.000000 0.000000 1 0 1.000000
0  15.100214 -102.134315 31.346449  -0.863474 -0.475686 0.167737  0.000000 0.000000 1 0 1.000000
  phy
0  15.100214 -102.134315 31.346449  -0.863474 -0.475686 0.167737  0.000000 0.000000 1 0 1.000000
0  10.017805 -95.810181 35.249222  -0.945193 -0.283986 0.161127  0.000000 0.000000 1 0 1.000000
0  8.457684 -103.600868 31.780483  -0.888457 -0.436657 0.141333  0.000000 0.000000 1 0 1.000000
  phy
0  15.100214 -102.134315 31.346449  -0.863474 -0.475686 0.167737  0.000000 0.000000 1 0 1.000000
0  31.904104 -96.405052 31.214449  -0.889242 -0.425952 0.166773  0.000000 0.000000 1 0 1.000000
0  10.017805 -95.810181 35.249222  -0.945193 -0.283986 0.161127  0.000000 0.000000 1 0 1.000000
  phy
0  1.733118 -107.685898 30.729940  -0.892770 -0.439695 0.098132  0.000000 0.000000 1 0 1.000000
0  9.172414 -96.139984 35.235489  -0.918964 -0.390626 0.054001  0.000000 0.000000 1 0 1.000000
0  -1.721812 -107.685860 30.729921  -0.923018 -0.384087 -0.022682  0.000000 0.000000 1 0 1.000000
  phy
0  9.172414 -96.139984 35.235489  -0.918964 -0.390626 0.054001  0.000000 0.000000 1 0 1.000000
0  7.957117 -94.447701 35.896000  -0.962892 -0.264581 0.053248  0.000000 0.000000 1 0 1.000000
0  -1.721812 -107.685860 30.729921  -0.923018 -0.384087 -0.022682  0.000000 0.000000 1 0 1.000000
  phy
0  7.957117 -94.447701 35.896000  -0.962892 -0.264581 0.053248  0.000000 0.000000 1 0 1.000000
0  -7.956779 -94.447548 35.896114  -0.962871 -0.264705 -0.053016  0.000000 0.000000 1 0 1.000000
0  -1.721812 -107.685860 30.729921  -0.923018 -0.384087 -0.022682  0.000000 0.000000 1 0 1.000000
  phy
0  -7.956779 -94.447548 35.896114  -0.962871 -0.264705 -0.053016  0.000000 0.000000 1 0 1.000000
0  -9.173126 -96.140282 35.235489  -0.944121 -0.288594 -0.159215  0.000000 0.000000 1 0 1.000000
0  -1.721812 -107.685860 30.729921  -0.923018 -0.384087 -0.022682  0.000000 0.000000 1 0 1.000000
  phy
0  -1.721812 -107.685860 30.729921  -0.923018 -0.384087 -0.022682  0.000000 0.000000 1 0 1.000000
0  1.459828 -110.482437 29.179356  -0.792408 -0.586211 0.168660  0.000000 0.000000 1 0 1.000000
0  1.733118 -107.685898 30.729940  -0.892770 -0.439695 0.098132  0.000000 0.000000 1 0 1.000000
  phy
0  -1.721812 -107.685860 30.729921  -0.923018 -0.384087 -0.022682  0.000000 0.000000 1 0 1.000000
0  -1.459603 -110.482391 29.179375  -0.790557 -0.587734 -0.172011  0.000000 0.000000 1 0 1.000000
0  1.459828 -110.482437 29.179356  -0.792408 -0.586211 0.168660  0.000000 0.000000 1 0 1.000000
  phy
0  8.457684 -103.600868 31.780483  -0.888457 -0.436657 0.141333  0.000000 0.000000 1 0 1.000000
0  9.172414 -96.139984 35.235489  -0.918964 -0.390626 0.054001  0.000000 0.000000 1 0 1.000000
0  1.733118 -107.685898 30.729940  -0.892770 -0.439695 0.098132  0.000000 0.000000 1 0 1.000000
  phy
0  -0.014272 44.911453 56.803394  -0.979706 0.199716 -0.017007  0.000000 0.000000 1 0 1.000000
0  -25.419928 104.314636 40.563431  -0.907309 0.386132 -0.166410  0.000000 0.000000 1 0 1.000000
0  -28.235125 42.544685 55.261841  -0.957036 0.163813 -0.239265  0.000000 0.000000 1 0 1.000000
  phy
0  -0.014272 44.911453 56.803394  -0.979706 0.199716 -0.017007  0.000000 0.000000 1 0 1.000000
0  -0.014364 107.069092 41.800823  -0.895796 0.443936 0.021704  0.000000 0.000000 1 0 1.000000
0  -25.419928 104.314636 40.563431  -0.907309 0.386132 -0.166410  0.000000 0.000000 1 0 1.000000
  phy
0  -28.235125 42.544685 55.261841  -0.957036 0.163813 -0.239265  0.000000 0.000000 1 0 1.000000
0  -0.014721 15.387948 59.459827  -0.999674 -0.025535 -0.000003  0.000000 0.000000 1 0 1.000000
0  -0.014272 44.911453 56.803394  -0.979706 0.199716 -0.017007  0.000000 0.000000 1 0 1.000000
  phy
0  -27.820261 15.153955 57.340233  -0.978140 -0.018500 -0.207122  0.000000 0.000000 1 0 1.000000
0  -0.014721 15.387948 59.459827  -0.999674 -0.025535 -0.000003  0.000000 0.000000 1 0 1.000000
0  -28.235125 42.544685 55.261841  -0.957036 0.163813 -0.239265  0.000000 0.000000 1 0 1.000000
  phy
0  -34.159832 47.800514 48.297260  -0.652129 0.055154 -0.756099  0.000000 0.000000 1 0 1.000000
0  -28.235125 42.544685 55.261841  -0.957036 0.163813 -0.239265  0.000000 0.000000 1 0 1.000000
0  -39.597889 79.912491 39.061974  -0.359334 0.078189 -0.929928  0.000000 0.000000 1 0 1.000000
  phy
0  -37.351135 97.172760 38.332302  -0.787753 0.263691 -0.556697  0.000000 0.000000 1 0 1.000000
0  -39.597889 79.912491 39.061974  -0.359334 0.078189 -0.929928  0.000000 0.000000 1 0 1.000000
0  -28.235125 42.544685 55.261841  -0.957036 0.163813 -0.239265  0.000000 0.000000 1 0 1.000000
  phy
0  -31.669687 18.209467 53.472595  -0.554933 0.016851 -0.831724  0.000000 0.000000 1 0 1.000000
0  -28.235125 42.544685 55.261841  -0.957036 0.163813 -0.239265  0.000000 0.000000 1 0 1.000000
0  -34.159832 47.800514 48.297260  -0.652129 0.055154 -0.756099  0.000000 0.000000 1 0 1.000000
  phy
0  -31.669687 18.209467 53.472595  -0.554933 0.016851 -0.831724  0.000000 0.000000 1 0 1.000000
0  -27.820261 15.153955 57.340233  -0.978140 -0.018500 -0.207122  0.000000 0.000000 1 0 1.000000
0  -28.235125 42.544685 55.261841  -0.957036 0.163813 -0.239265  0.000000 0.000000 1 0 1.000000
  phy
0  -25.419928 104.314636 40.563431  -0.907309 0.386132 -0.166410  0.000000 0.000000 1 0 1.000000
0  -37.351135 97.172760 38.332302  -0.787753 0.263691 -0.556697  0.000000 0.000000 1 0 1.000000
0  -28.235125 42.544685 55.261841  -0.957036 0.163813 -0.239265  0.000000 0.000000 1 0 1.000000
  phy
0  -34.159832 47.800514 48.297260  -0.652129 0.055154 -0.756099  0.000000 0.000000 1 0 1.000000
0  -39.597889 79.912491 39.061974  -0.359334 0.078189 -0.929928  0.000000 0.000000 1 0 1.000000
0  -39.691059 74.242447 39.298985  -0.522776 0.012594 -0.852377  0.000000 0.000000 1 0 1.000000
  phy
0  -34.159832 47.800514 48.297260  -0.652129 0.055154 -0.756099  0.000000 0.000000 1 0 1.000000
0  -39.691059 74.242447 39.298985  -0.522776 0.012594 -0.852377  0.000000 0.000000 1 0 1.000000
0  -31.669687 18.209467 53.472595  -0.554933 0.016851 -0.831724  0.000000 0.000000 1 0 1.000000
  phy
0  -31.680737 16.387274 53.469845  -0.522185 -0.009352 -0.852781  0.000000 0.000000 1 0 1.000000
0  -31.669687 18.209467 53.472595  -0.554933 0.016851 -0.831724  0.000000 0.000000 1 0 1.000000
0  -41.758797 10.172064 36.336586  -0.464732 -0.005736 -0.885433  0.000000 0.000000 1 0 1.000000
  phy
0  -41.758797 10.172064 36.336586  -0.464732 -0.005736 -0.885433  0.000000 0.000000 1 0 1.000000
0  -31.669687 18.209467 53.472595  -0.554933 0.016851 -0.831724  0.000000 0.000000 1 0 1.000000
0  -41.372425 39.681255 36.735722  -0.453455 0.008020 -0.891243  0.000000 0.000000 1 0 1.000000
  phy
0  -41.372425 39.681255 36.735722  -0.453455 0.008020 -0.891243  0.000000 0.000000 1 0 1.000000
0  -31.669687 18.209467 53.472595  -0.554933 0.016851 -0.831724  0.000000 0.000000 1 0 1.000000
0  -39.691059 74.242447 39.298985  -0.522776 0.012594 -0.852377  0.000000 0.000000 1 0 1.000000
  phy
0  -27.820261 15.153955 57.340233  -0.978140 -0.018500 -0.207122  0.000000 0.000000 1 0 1.000000
0  -31.669687 18.209467 53.472595  -0.554933 0.016851 -0.831724  0.000000 0.000000 1 0 1.000000
0  -31.680737 16.387274 53.469845  -0.522185 -0.009352 -0.852781  0.000000 0.000000 1 0 1.000000
  phy
0  -27.820261 15.153955 57.340233  -0.978140 -0.018500 -0.207122  0.000000 0.000000 1 0 1.000000
0  -31.680737 16.387274 53.469845  -0.522185 -0.009352 -0.852781  0.000000 0.000000 1 0 1.000000
0  -31.469358 10.873270 53.706562  -0.701993 -0.024387 -0.711766  0.000000 0.000000 1 0 1.000000
  phy
0  -31.469358 10.873270 53.706562  -0.701993 -0.024387 -0.711766  0.000000 0.000000 1 0 1.000000
0  -32.263920 -13.399507 51.839031  -0.529520 -0.013800 -0.848185  0.000000 0.000000 1 0 1.000000
0  -27.820261 15.153955 57.340233  -0.978140 -0.018500 -0.207122  0.000000 0.000000 1 0 1.000000
  phy
0  -32.263920 -13.399507 51.839031  -0.529520 -0.013800 -0.848185  0.000000 0.000000 1 0 1.000000
0  -32.099152 -15.071590 51.917213  -0.633962 -0.070865 -0.770111  0.000000 0.000000 1 0 1.000000
0  -27.820261 15.153955 57.340233  -0.978140 -0.018500 -0.207122  0.000000 0.000000 1 0 1.000000
  phy
0  -40.628162 -73.624268 33.762775  -0.479316 -0.084888 -0.873527  0.000000 0.000000 1 0 1.000000
0  -32.099152 -15.071590 51.917213  -0.633962 -0.070865 -0.770111  0.000000 0.000000 1 0 1.000000
0  -41.601383 -41.332928 35.483181  -0.329297 -0.023922 -0.943923  0.000000 0.000000 1 0 1.000000
  phy
0  -41.601383 -41.332928 35.483181  -0.329297 -0.023922 -0.943923  0.000000 0.000000 1 0 1.000000
0  -32.099152 -15.071590 51.917213  -0.633962 -0.070865 -0.770111  0.000000 0.000000 1 0 1.000000
0  -32.263920 -13.399507 51.839031  -0.529520 -0.013800 -0.848185  0.000000 0.000000 1 0 1.000000
  phy
0  -29.379974 -18.856474 53.940529  -0.964056 -0.208848 -0.164253  0.000000 0.000000 1 0 1.000000
0  -27.820261 15.153955 57.340233  -0.978140 -0.018500 -0.207122  0.000000 0.000000 1 0 1.000000
0  -32.099152 -15.071590 51.917213  -0.633962 -0.070865 -0.770111  0.000000 0.000000 1 0 1.000000
  phy
0  -32.099152 -15.071590 51.917213  -0.633962 -0.070865 -0.770111  0.000000 0.000000 1 0 1.000000
0  -40.628162 -73.624268 33.762775  -0.479316 -0.084888 -0.873527  0.000000 0.000000 1 0 1.000000
0  -29.379974 -18.856474 53.940529  -0.964056 -0.208848 -0.164253  0.000000 0.000000 1 0 1.000000
  phy
0  -32.263920 -13.399507 51.839031  -0.529520 -0.013800 -0.848185  0.000000 0.000000 1 0 1.000000
0  -31.469358 10.873270 53.706562  -0.701993 -0.024387 -0.711766  0.000000 0.000000 1 0 1.000000
0  -31.680737 16.387274 53.469845  -0.522185 -0.009352 -0.852781  0.000000 0.000000 1 0 1.000000
  phy
0  -32.263920 -13.399507 51.839031  -0.529520 -0.013800 -0.848185  0.000000 0.000000 1 0 1.000000
0  -31.680737 16.387274 53.469845  -0.522185 -0.009352 -0.852781  0.000000 0.000000 1 0 1.000000
0  -41.758797 10.172064 36.336586  -0.464732 -0.005736 -0.885433  0.000000 0.000000 1 0 1.000000
  phy
0  -32.263920 -13.399507 51.839031  -0.529520 -0.013800 -0.848185  0.000000 0.000000 1 0 1.000000
0  -41.758797 10.172064 36.336586  -0.464732 -0.005736 -0.885433  0.000000 0.000000 1 0 1.000000
0  -41.601383 -41.332928 35.483181  -0.329297 -0.023922 -0.943923  0.000000 0.000000 1 0 1.000000
  phy
0  10.017805 -95.810181 35.249222  -0.945193 -0.283986 0.161127  0.000000 0.000000 1 0 1.000000
0  9.172414 -96.139984 35.235489  -0.918964 -0.390626 0.054001  0.000000 0.000000 1 0 1.000000
0  8.457684 -103.600868 31.780483  -0.888457 -0.436657 0.141333  0.000000 0.000000 1 0 1.000000
  phy
0  0.744202 -112.010201 27.114801  -0.201962 -0.964569 0.169758  0.000000 0.000000 1 0 1.000000
0  -1.459603 -110.482391 29.179375  -0.790557 -0.587734 -0.172011  0.000000 0.000000 1 0 1.000000
0  -0.744069 -112.010201 27.114782  -0.193219 -0.965792 -0.172950  0.000000 0.000000 1 0 1.000000
  phy
0  0.744202 -112.010201 27.114801  -0.201962 -0.964569 0.169758  0.000000 0.000000 1 0 1.000000
0  1.459828 -110.482437 29.179356  -0.792408 -0.586211 0.168660  0.000000 0.000000 1 0 1.000000
0  -1.459603 -110.482391 29.179375  -0.790557 -0.587734 -0.172011  0.000000 0.000000 1 0 1.000000
  phy
0  -0.744069 -112.010201 27.114782  -0.193219 -0.965792 -0.172950  0.000000 0.000000 1 0 1.000000
0  -0.000091 -114.363876 11.080044  -0.133311 -0.991074 0.000159  0.000000 0.000000 1 0 1.000000
0  0.744202 -112.010201 27.114801  -0.201962 -0.964569 0.169758  0.000000 0.000000 1 0 1.000000
  phy
0  -0.000091 -114.363876 11.080044  -0.133311 -0.991074 0.000159  0.000000 0.000000 1 0 1.000000
0  17.902966 -108.844482 26.247559  -0.245342 -0.945713 0.213154  0.000000 0.000000 1 0 1.000000
0  0.744202 -112.010201 27.114801  -0.201962 -0.964569 0.169758  0.000000 0.000000 1 0 1.000000
  phy
0  0.744202 -112.010201 27.114801  -0.201962 -0.964569 0.169758  0.000000 0.000000 1 0 1.000000
0  17.902966 -108.844482 26.247559  -0.245342 -0.945713 0.213154  0.000000 0.000000 1 0 1.000000
0  1.459828 -110.482437 29.179356  -0.792408 -0.586211 0.168660  0.000000 0.000000 1 0 1.000000
  phy
0  -34.460514 -96.058006 30.872353  -0.875477 -0.448323 -0.180406  0.000000 0.000000 1 0 1.000000
0  -14.635201 -102.418015 31.272594  -0.864409 -0.473678 -0.168600  0.000000 0.000000 1 0 1.000000
0  -9.173126 -96.140282 35.235489  -0.944121 -0.288594 -0.159215  0.000000 0.000000 1 0 1.000000
  phy
0  -14.635201 -102.418015 31.272594  -0.864409 -0.473678 -0.168600  0.000000 0.000000 1 0 1.000000
0  -8.456621 -103.600723 31.780895  -0.880404 -0.450887 -0.146938  0.000000 0.000000 1 0 1.000000
0  -9.173126 -96.140282 35.235489  -0.944121 -0.288594 -0.159215  0.000000 0.000000 1 0 1.000000
  phy
0  -8.456621 -103.600723 31.780895  -0.880404 -0.450887 -0.146938  0.000000 0.000000 1 0 1.000000
0  -1.459603 -110.482391 29.179375  -0.790557 -0.587734 -0.172011  0.000000 0.000000 1 0 1.000000
0  -1.721812 -107.685860 30.729921  -0.923018 -0.384087 -0.022682  0.000000 0.000000 1 0 1.000000
  phy
0  -8.456621 -103.600723 31.780895  -0.880404 -0.450887 -0.146938  0.000000 0.000000 1 0 1.000000
0  -14.635201 -102.418015 31.272594  -0.864409 -0.473678 -0.168600  0.000000 0.000000 1 0 1.000000
0  -1.459603 -110.482391 29.179375  -0.790557 -0.587734 -0.172011  0.000000 0.000000 1 0 1.000000
  phy
0  -1.721812 -107.685860 30.729921  -0.923018 -0.384087 -0.022682  0.000000 0.000000 1 0 1.000000
0  -9.173126 -96.140282 35.235489  -0.944121 -0.288594 -0.159215  0.000000 0.000000 1 0 1.000000
0  -8.456621 -103.600723 31.780895  -0.880404 -0.450887 -0.146938  0.000000 0.000000 1 0 1.000000
  phy
0  -25.419928 104.314636 40.563431  -0.907309 0.386132 -0.166410  0.000000 0.000000 1 0 1.000000
0  -0.014364 107.069092 41.800823  -0.895796 0.443936 0.021704  0.000000 0.000000 1 0 1.000000
0  -20.750605 111.514664 24.582363  -0.238538 0.943100 -0.231650  0.000000 0.000000 1 0 1.000000
  phy
0  -25.419928 104.314636 40.563431  -0.907309 0.386132 -0.166410  0.000000 0.000000 1 0 1.000000
0  -37.622925 103.586670 23.811394  -0.193907 0.866298 -0.460357  0.000000 0.000000 1 0 1.000000
0  -39.039764 100.916573 28.518766  -0.022002 0.387892 -0.921442  0.000000 0.000000 1 0 1.000000
  phy
0  -37.622925 103.586670 23.811394  -0.193907 0.866298 -0.460357  0.000000 0.000000 1 0 1.000000
0  -25.419928 104.314636 40.563431  -0.907309 0.386132 -0.166410  0.000000 0.000000 1 0 1.000000
0  -20.750605 111.514664 24.582363  -0.238538 0.943100 -0.231650  0.000000 0.000000 1 0 1.000000
  phy
0  -37.351135 97.172760 38.332302  -0.787753 0.263691 -0.556697  0.000000 0.000000 1 0 1.000000
0  -25.419928 104.314636 40.563431  -0.907309 0.386132 -0.166410  0.000000 0.000000 1 0 1.000000
0  -39.039764 100.916573 28.518766  -0.022002 0.387892 -0.921442  0.000000 0.000000 1 0 1.000000
  phy
0  -41.372425 39.681255 36.735722  -0.453455 0.008020 -0.891243  0.000000 0.000000 1 0 1.000000
0  -39.691059 74.242447 39.298985  -0.522776 0.012594 -0.852377  0.000000 0.000000 1 0 1.000000
0  -39.597889 79.912491 39.061974  -0.359334 0.078189 -0.929928  0.000000 0.000000 1 0 1.000000
  phy
0  -41.372425 39.681255 36.735722  -0.453455 0.008020 -0.891243  0.000000 0.000000 1 0 1.000000
0  -39.597889 79.912491 39.061974  -0.359334 0.078189 -0.929928  0.000000 0.000000 1 0 1.000000
0  -43.089710 33.666046 31.161366  -0.119402 0.015175 -0.992730  0.000000 0.000000 1 0 1.000000
  phy
0  -41.758797 10.172064 36.336586  -0.464732 -0.005736 -0.885433  0.000000 0.000000 1 0 1.000000
0  -41.372425 39.681255 36.735722  -0.453455 0.008020 -0.891243  0.000000 0.000000 1 0 1.000000
0  -43.089710 33.666046 31.161366  -0.119402 0.015175 -0.992730  0.000000 0.000000 1 0 1.000000
  phy
0  -41.758797 10.172064 36.336586  -0.464732 -0.005736 -0.885433  0.000000 0.000000 1 0 1.000000
0  -43.089710 33.666046 31.161366  -0.119402 0.015175 -0.992730  0.000000 0.000000 1 0 1.000000
0  -41.601383 -41.332928 35.483181  -0.329297 -0.023922 -0.943923  0.000000 0.000000 1 0 1.000000
  phy
0  7.957117 -94.447701 35.896000  -0.962892 -0.264581 0.053248  0.000000 0.000000 1 0 1.000000
0  9.172414 -96.139984 35.235489  -0.918964 -0.390626 0.054001  0.000000 0.000000 1 0 1.000000
0  10.017805 -95.810181 35.249222  -0.945193 -0.283986 0.161127  0.000000 0.000000 1 0 1.000000
  phy
0  10.017805 -95.810181 35.249222  -0.945193 -0.283986 0.161127  0.000000 0.000000 1 0 1.000000
0  29.380005 -18.856462 53.940777  -0.964122 -0.208512 0.164292  0.000000 0.000000 1 0 1.000000
0  7.957117 -94.447701 35.896000  -0.962892 -0.264581 0.053248  0.000000 0.000000 1 0 1.000000
  phy
0  10.017805 -95.810181 35.249222  -0.945193 -0.283986 0.161127  0.000000 0.000000 1 0 1.000000
0  39.511871 -92.920609 30.955011  -0.916693 -0.265664 0.298492  0.000000 0.000000 1 0 1.000000
0  29.380005 -18.856462 53.940777  -0.964122 -0.208512 0.164292  0.000000 0.000000 1 0 1.000000
  phy
0  31.904104 -96.405052 31.214449  -0.889242 -0.425952 0.166773  0.000000 0.000000 1 0 1.000000
0  39.511871 -92.920609 30.955011  -0.916693 -0.265664 0.298492  0.000000 0.000000 1 0 1.000000
0  10.017805 -95.810181 35.249222  -0.945193 -0.283986 0.161127  0.000000 0.000000 1 0 1.000000
  phy
0  7.957117 -94.447701 35.896000  -0.962892 -0.264581 0.053248  0.000000 0.000000 1 0 1.000000
0  0.000005 -24.940109 54.821396  -0.976983 -0.213318 -0.000116  0.000000 0.000000 1 0 1.000000
0  -7.956779 -94.447548 35.896114  -0.962871 -0.264705 -0.053016  0.000000 0.000000 1 0 1.000000
  phy
0  29.380005 -18.856462 53.940777  -0.964122 -0.208512 0.164292  0.000000 0.000000 1 0 1.000000
0  0.000005 -24.940109 54.821396  -0.976983 -0.213318 -0.000116  0.000000 0.000000 1 0 1.000000
0  7.957117 -94.447701 35.896000  -0.962892 -0.264581 0.053248  0.000000 0.000000 1 0 1.000000
  phy
0  1.459828 -110.482437 29.179356  -0.792408 -0.586211 0.168660  0.000000 0.000000 1 0 1.000000
0  17.902966 -108.844482 26.247559  -0.245342 -0.945713 0.213154  0.000000 0.000000 1 0 1.000000
0  22.266439 -105.004791 28.023083  -0.820314 -0.538865 0.191598  0.000000 0.000000 1 0 1.000000
  phy
0  37.322449 97.172775 38.332314  -0.786849 0.263166 0.558223  0.000000 0.000000 1 0 1.000000
0  39.522808 96.631058 28.904631  0.012312 0.097530 0.995156  0.000000 0.000000 1 0 1.000000
0  39.011040 100.916512 28.518833  -0.239438 0.623561 0.744206  0.000000 0.000000 1 0 1.000000
  phy
0  37.322449 97.172775 38.332314  -0.786849 0.263166 0.558223  0.000000 0.000000 1 0 1.000000
0  39.569019 79.914909 39.061749  -0.359350 0.077968 0.929940  0.000000 0.000000 1 0 1.000000
0  39.522808 96.631058 28.904631  0.012312 0.097530 0.995156  0.000000 0.000000 1 0 1.000000
  phy
0  25.516399 104.316162 40.520496  -0.855411 0.469292 0.219175  0.000000 0.000000 1 0 1.000000
0  28.206533 42.544167 55.261848  -0.963030 0.181866 0.198739  0.000000 0.000000 1 0 1.000000
0  37.322449 97.172775 38.332314  -0.786849 0.263166 0.558223  0.000000 0.000000 1 0 1.000000
  phy
0  28.206533 42.544167 55.261848  -0.963030 0.181866 0.198739  0.000000 0.000000 1 0 1.000000
0  39.569019 79.914909 39.061749  -0.359350 0.077968 0.929940  0.000000 0.000000 1 0 1.000000
0  37.322449 97.172775 38.332314  -0.786849 0.263166 0.558223  0.000000 0.000000 1 0 1.000000
  phy
0  25.516399 104.316162 40.520496  -0.855411 0.469292 0.219175  0.000000 0.000000 1 0 1.000000
0  37.322449 97.172775 38.332314  -0.786849 0.263166 0.558223  0.000000 0.000000 1 0 1.000000
0  39.011040 100.916512 28.518833  -0.239438 0.623561 0.744206  0.000000 0.000000 1 0 1.000000
  phy
0  31.641108 18.209703 53.472538  -0.576168 0.022446 0.817023  0.000000 0.000000 1 0 1.000000
0  41.343777 39.680893 36.735722  -0.454473 0.007976 0.890725  0.000000 0.000000 1 0 1.000000
0  39.662376 74.242126 39.298988  -0.522869 0.012535 0.852321  0.000000 0.000000 1 0 1.000000
  phy
0  31.641108 18.209703 53.472538  -0.576168 0.022446 0.817023  0.000000 0.000000 1 0 1.000000
0  31.651020 16.562399 53.470135  -0.517667 0.002225 0.855579  0.000000 0.000000 1 0 1.000000
0  41.343777 39.680893 36.735722  -0.454473 0.007976 0.890725  0.000000 0.000000 1 0 1.000000
  phy
0  31.651020 16.562399 53.470135  -0.517667 0.002225 0.855579  0.000000 0.000000 1 0 1.000000
0  41.730190 10.171133 36.336567  -0.464869 -0.005441 0.885363  0.000000 0.000000 1 0 1.000000
0  41.343777 39.680893 36.735722  -0.454473 0.007976 0.890725  0.000000 0.000000 1 0 1.000000
  phy
0  39.569019 79.914909 39.061749  -0.359350 0.077968 0.929940  0.000000 0.000000 1 0 1.000000
0  41.343777 39.680893 36.735722  -0.454473 0.007976 0.890725  0.000000 0.000000 1 0 1.000000
0  43.061081 33.665764 31.161366  -0.119406 0.015367 0.992727  0.000000 0.000000 1 0 1.000000
  phy
0  39.569019 79.914909 39.061749  -0.359350 0.077968 0.929940  0.000000 0.000000 1 0 1.000000
0  39.662376 74.242126 39.298988  -0.522869 0.012535 0.852321  0.000000 0.000000 1 0 1.000000
0  41.343777 39.680893 36.735722  -0.454473 0.007976 0.890725  0.000000 0.000000 1 0 1.000000
  phy
0  39.662376 74.242126 39.298988  -0.522869 0.012535 0.852321  0.000000 0.000000 1 0 1.000000
0  34.131058 47.799591 48.297333  -0.652156 0.055242 0.756069  0.000000 0.000000 1 0 1.000000
0  31.641108 18.209703 53.472538  -0.576168 0.022446 0.817023  0.000000 0.000000 1 0 1.000000
  phy
0  39.662376 74.242126 39.298988  -0.522869 0.012535 0.852321  0.000000 0.000000 1 0 1.000000
0  39.569019 79.914909 39.061749  -0.359350 0.077968 0.929940  0.000000 0.000000 1 0 1.000000
0  34.131058 47.799591 48.297333  -0.652156 0.055242 0.756069  0.000000 0.000000 1 0 1.000000
  phy
0  25.516399 104.316162 40.520496  -0.855411 0.469292 0.219175  0.000000 0.000000 1 0 1.000000
0  -0.014364 107.069092 41.800823  -0.895796 0.443936 0.021704  0.000000 0.000000 1 0 1.000000
0  28.206533 42.544167 55.261848  -0.963030 0.181866 0.198739  0.000000 0.000000 1 0 1.000000
  phy
0  25.516399 104.316162 40.520496  -0.855411 0.469292 0.219175  0.000000 0.000000 1 0 1.000000
0  37.594387 103.586800 23.811445  -0.192111 0.866484 0.460760  0.000000 0.000000 1 0 1.000000
0  20.721933 111.514725 24.582119  -0.238215 0.943223 0.231482  0.000000 0.000000 1 0 1.000000
  phy
0  37.594387 103.586800 23.811445  -0.192111 0.866484 0.460760  0.000000 0.000000 1 0 1.000000
0  25.516399 104.316162 40.520496  -0.855411 0.469292 0.219175  0.000000 0.000000 1 0 1.000000
0  39.011040 100.916512 28.518833  -0.239438 0.623561 0.744206  0.000000 0.000000 1 0 1.000000
  phy
0  -0.014364 107.069092 41.800823  -0.895796 0.443936 0.021704  0.000000 0.000000 1 0 1.000000
0  25.516399 104.316162 40.520496  -0.855411 0.469292 0.219175  0.000000 0.000000 1 0 1.000000
0  20.721933 111.514725 24.582119  -0.238215 0.943223 0.231482  0.000000 0.000000 1 0 1.000000
  phy
0  -38.019821 -100.401566 13.281604  0.064035 -0.412858 -0.908542  0.000000 0.000000 1 0 1.000000
0  -36.950581 -101.996605 9.246586  0.024334 -0.564001 -0.825415  0.000000 0.000000 1 0 1.000000
0  -38.596458 -99.195503 19.675728  -0.085715 -0.619855 -0.780021  0.000000 0.000000 1 0 1.000000
  phy
0  -36.950581 -101.996605 9.246586  0.024334 -0.564001 -0.825415  0.000000 0.000000 1 0 1.000000
0  -34.989597 -103.944817 11.671660  -0.168737 -0.857344 -0.486302  0.000000 0.000000 1 0 1.000000
0  -38.596458 -99.195503 19.675728  -0.085715 -0.619855 -0.780021  0.000000 0.000000 1 0 1.000000
  phy
0  -36.950581 -101.996605 9.246586  0.024334 -0.564001 -0.825415  0.000000 0.000000 1 0 1.000000
0  -38.019821 -100.401566 13.281604  0.064035 -0.412858 -0.908542  0.000000 0.000000 1 0 1.000000
0  -39.039722 -96.718567 9.992808  0.260230 -0.056788 -0.963875  0.000000 0.000000 1 0 1.000000
  phy
0  -36.950581 -101.996605 9.246586  0.024334 -0.564001 -0.825415  0.000000 0.000000 1 0 1.000000
0  -39.039722 -96.718567 9.992808  0.260230 -0.056788 -0.963875  0.000000 0.000000 1 0 1.000000
0  -36.478115 -102.299797 7.979648  0.944920 -0.119354 -0.304764  0.000000 0.000000 1 0 1.000000
  phy
0  -36.950581 -101.996605 9.246586  0.024334 -0.564001 -0.825415  0.000000 0.000000 1 0 1.000000
0  -36.478115 -102.299797 7.979648  0.944920 -0.119354 -0.304764  0.000000 0.000000 1 0 1.000000
0  -34.989597 -103.944817 11.671660  -0.168737 -0.857344 -0.486302  0.000000 0.000000 1 0 1.000000
  phy
0  -37.351135 97.172760 38.332302  -0.787753 0.263691 -0.556697  0.000000 0.000000 1 0 1.000000
0  -39.039764 100.916573 28.518766  -0.022002 0.387892 -0.921442  0.000000 0.000000 1 0 1.000000
0  -39.551460 96.631119 28.904686  -0.135607 0.094270 -0.986268  0.000000 0.000000 1 0 1.000000
  phy
0  -37.351135 97.172760 38.332302  -0.787753 0.263691 -0.556697  0.000000 0.000000 1 0 1.000000
0  -39.551460 96.631119 28.904686  -0.135607 0.094270 -0.986268  0.000000 0.000000 1 0 1.000000
0  -39.597889 79.912491 39.061974  -0.359334 0.078189 -0.929928  0.000000 0.000000 1 0 1.000000
  phy
0  34.989841 -103.944595 11.672110  -0.171024 -0.851106 0.496356  0.000000 0.000000 1 0 1.000000
0  38.596046 -99.195335 19.680233  -0.085500 -0.619980 0.779945  0.000000 0.000000 1 0 1.000000
0  38.596138 -97.544411 28.147173  -0.244473 -0.672424 0.698626  0.000000 0.000000 1 0 1.000000
  phy
0  38.596138 -97.544411 28.147173  -0.244473 -0.672424 0.698626  0.000000 0.000000 1 0 1.000000
0  33.759350 -100.971428 27.844135  -0.384194 -0.821755 0.420849  0.000000 0.000000 1 0 1.000000
0  34.989841 -103.944595 11.672110  -0.171024 -0.851106 0.496356  0.000000 0.000000 1 0 1.000000
  phy
0  38.596046 -99.195335 19.680233  -0.085500 -0.619980 0.779945  0.000000 0.000000 1 0 1.000000
0  41.143482 -94.681511 21.567888  -0.050001 -0.141617 0.988658  0.000000 0.000000 1 0 1.000000
0  38.596138 -97.544411 28.147173  -0.244473 -0.672424 0.698626  0.000000 0.000000 1 0 1.000000
  phy
0  41.143482 -94.681511 21.567888  -0.050001 -0.141617 0.988658  0.000000 0.000000 1 0 1.000000
0  39.511871 -92.920609 30.955011  -0.916693 -0.265664 0.298492  0.000000 0.000000 1 0 1.000000
0  38.596138 -97.544411 28.147173  -0.244473 -0.672424 0.698626  0.000000 0.000000 1 0 1.000000
  phy
0  38.596138 -97.544411 28.147173  -0.244473 -0.672424 0.698626  0.000000 0.000000 1 0 1.000000
0  39.511871 -92.920609 30.955011  -0.916693 -0.265664 0.298492  0.000000 0.000000 1 0 1.000000
0  33.759350 -100.971428 27.844135  -0.384194 -0.821755 0.420849  0.000000 0.000000 1 0 1.000000
  phy
0  28.950682 -107.461197 8.075988  0.820126 -0.539900 0.189475  0.000000 0.000000 1 0 1.000000
0  14.997639 -111.893234 8.089754  -0.084323 -0.975522 0.203094  0.000000 0.000000 1 0 1.000000
0  7.950812 -113.190125 8.059630  0.996767 -0.078674 0.016326  0.000000 0.000000 1 0 1.000000
  phy
0  28.950682 -107.461197 8.075988  0.820126 -0.539900 0.189475  0.000000 0.000000 1 0 1.000000
0  7.950812 -113.190125 8.059630  0.996767 -0.078674 0.016326  0.000000 0.000000 1 0 1.000000
0  36.529037 -101.411461 7.925058  0.995769 -0.044981 0.080127  0.000000 0.000000 1 0 1.000000
  phy
0  36.529037 -101.411461 7.925058  0.995769 -0.044981 0.080127  0.000000 0.000000 1 0 1.000000
0  7.950812 -113.190125 8.059630  0.996767 -0.078674 0.016326  0.000000 0.000000 1 0 1.000000
0  38.624760 -74.923500 6.906085  0.974144 -0.010424 0.225689  0.000000 0.000000 1 0 1.000000
  phy
0  36.478168 -102.299812 7.979643  0.267394 -0.609039 0.746708  0.000000 0.000000 1 0 1.000000
0  36.529037 -101.411461 7.925058  0.995769 -0.044981 0.080127  0.000000 0.000000 1 0 1.000000
0  39.039764 -96.718491 9.992705  0.260555 -0.056739 0.963790  0.000000 0.000000 1 0 1.000000
  phy
0  36.529037 -101.411461 7.925058  0.995769 -0.044981 0.080127  0.000000 0.000000 1 0 1.000000
0  38.624760 -74.923500 6.906085  0.974144 -0.010424 0.225689  0.000000 0.000000 1 0 1.000000
0  39.039764 -96.718491 9.992705  0.260555 -0.056739 0.963790  0.000000 0.000000 1 0 1.000000
  phy
0  28.950682 -107.461197 8.075988  0.820126 -0.539900 0.189475  0.000000 0.000000 1 0 1.000000
0  36.529037 -101.411461 7.925058  0.995769 -0.044981 0.080127  0.000000 0.000000 1 0 1.000000
0  33.242065 -105.161919 8.061709  0.252326 -0.809593 0.529991  0.000000 0.000000 1 0 1.000000
  phy
0  33.242065 -105.161919 8.061709  0.252326 -0.809593 0.529991  0.000000 0.000000 1 0 1.000000
0  36.529037 -101.411461 7.925058  0.995769 -0.044981 0.080127  0.000000 0.000000 1 0 1.000000
0  36.478168 -102.299812 7.979643  0.267394 -0.609039 0.746708  0.000000 0.000000 1 0 1.000000
  phy
0  36.950413 -101.996964 9.245872  0.024423 -0.564037 0.825389  0.000000 0.000000 1 0 1.000000
0  38.596046 -99.195335 19.680233  -0.085500 -0.619980 0.779945  0.000000 0.000000 1 0 1.000000
0  34.989841 -103.944595 11.672110  -0.171024 -0.851106 0.496356  0.000000 0.000000 1 0 1.000000
  phy
0  36.950413 -101.996964 9.245872  0.024423 -0.564037 0.825389  0.000000 0.000000 1 0 1.000000
0  38.019936 -100.401466 13.281379  0.063995 -0.412943 0.908506  0.000000 0.000000 1 0 1.000000
0  38.596046 -99.195335 19.680233  -0.085500 -0.619980 0.779945  0.000000 0.000000 1 0 1.000000
  phy
0  34.989841 -103.944595 11.672110  -0.171024 -0.851106 0.496356  0.000000 0.000000 1 0 1.000000
0  36.478168 -102.299812 7.979643  0.267394 -0.609039 0.746708  0.000000 0.000000 1 0 1.000000
0  36.950413 -101.996964 9.245872  0.024423 -0.564037 0.825389  0.000000 0.000000 1 0 1.000000
  phy
0  36.478168 -102.299812 7.979643  0.267394 -0.609039 0.746708  0.000000 0.000000 1 0 1.000000
0  39.039764 -96.718491 9.992705  0.260555 -0.056739 0.963790  0.000000 0.000000 1 0 1.000000
0  36.950413 -101.996964 9.245872  0.024423 -0.564037 0.825389  0.000000 0.000000 1 0 1.000000
  phy
0  36.950413 -101.996964 9.245872  0.024423 -0.564037 0.825389  0.000000 0.000000 1 0 1.000000
0  39.039764 -96.718491 9.992705  0.260555 -0.056739 0.963790  0.000000 0.000000 1 0 1.000000
0  38.019936 -100.401466 13.281379  0.063995 -0.412943 0.908506  0.000000 0.000000 1 0 1.000000
  phy
0  22.266439 -105.004791 28.023083  -0.820314 -0.538865 0.191598  0.000000 0.000000 1 0 1.000000
0  33.759350 -100.971428 27.844135  -0.384194 -0.821755 0.420849  0.000000 0.000000 1 0 1.000000
0  34.461079 -96.057602 30.872032  -0.825418 -0.518574 0.223083  0.000000 0.000000 1 0 1.000000
  phy
0  22.266439 -105.004791 28.023083  -0.820314 -0.538865 0.191598  0.000000 0.000000 1 0 1.000000
0  17.902966 -108.844482 26.247559  -0.245342 -0.945713 0.213154  0.000000 0.000000 1 0 1.000000
0  33.759350 -100.971428 27.844135  -0.384194 -0.821755 0.420849  0.000000 0.000000 1 0 1.000000
  phy
0  -1.459603 -110.482391 29.179375  -0.790557 -0.587734 -0.172011  0.000000 0.000000 1 0 1.000000
0  -17.902672 -108.844528 26.247669  -0.224322 -0.938025 -0.264174  0.000000 0.000000 1 0 1.000000
0  -0.744069 -112.010201 27.114782  -0.193219 -0.965792 -0.172950  0.000000 0.000000 1 0 1.000000
  phy
0  -0.744069 -112.010201 27.114782  -0.193219 -0.965792 -0.172950  0.000000 0.000000 1 0 1.000000
0  -17.902672 -108.844528 26.247669  -0.224322 -0.938025 -0.264174  0.000000 0.000000 1 0 1.000000
0  -0.000091 -114.363876 11.080044  -0.133311 -0.991074 0.000159  0.000000 0.000000 1 0 1.000000
  phy
0  -1.459603 -110.482391 29.179375  -0.790557 -0.587734 -0.172011  0.000000 0.000000 1 0 1.000000
0  -14.635201 -102.418015 31.272594  -0.864409 -0.473678 -0.168600  0.000000 0.000000 1 0 1.000000
0  -22.268049 -105.004578 28.023232  -0.819742 -0.539664 -0.191797  0.000000 0.000000 1 0 1.000000
  phy
0  -22.268049 -105.004578 28.023232  -0.819742 -0.539664 -0.191797  0.000000 0.000000 1 0 1.000000
0  -14.635201 -102.418015 31.272594  -0.864409 -0.473678 -0.168600  0.000000 0.000000 1 0 1.000000
0  -34.460514 -96.058006 30.872353  -0.875477 -0.448323 -0.180406  0.000000 0.000000 1 0 1.000000
  phy
0  -34.460514 -96.058006 30.872353  -0.875477 -0.448323 -0.180406  0.000000 0.000000 1 0 1.000000
0  -33.759975 -100.969452 27.843029  -0.406806 -0.811468 -0.419557  0.000000 0.000000 1 0 1.000000
0  -22.268049 -105.004578 28.023232  -0.819742 -0.539664 -0.191797  0.000000 0.000000 1 0 1.000000
  phy
0  -22.268049 -105.004578 28.023232  -0.819742 -0.539664 -0.191797  0.000000 0.000000 1 0 1.000000
0  -17.902672 -108.844528 26.247669  -0.224322 -0.938025 -0.264174  0.000000 0.000000 1 0 1.000000
0  -1.459603 -110.482391 29.179375  -0.790557 -0.587734 -0.172011  0.000000 0.000000 1 0 1.000000
  phy
0  -33.759975 -100.969452 27.843029  -0.406806 -0.811468 -0.419557  0.000000 0.000000 1 0 1.000000
0  -17.902672 -108.844528 26.247669  -0.224322 -0.938025 -0.264174  0.000000 0.000000 1 0 1.000000
0  -22.268049 -105.004578 28.023232  -0.819742 -0.539664 -0.191797  0.000000 0.000000 1 0 1.000000
  phy
0  -9.173126 -96.140282 35.235489  -0.944121 -0.288594 -0.159215  0.000000 0.000000 1 0 1.000000
0  -7.956779 -94.447548 35.896114  -0.962871 -0.264705 -0.053016  0.000000 0.000000 1 0 1.000000
0  -29.379974 -18.856474 53.940529  -0.964056 -0.208848 -0.164253  0.000000 0.000000 1 0 1.000000
  phy
0  -29.379974 -18.856474 53.940529  -0.964056 -0.208848 -0.164253  0.000000 0.000000 1 0 1.000000
0  -39.511852 -92.920082 30.954784  -0.917903 -0.266218 -0.294247  0.000000 0.000000 1 0 1.000000
0  -9.173126 -96.140282 35.235489  -0.944121 -0.288594 -0.159215  0.000000 0.000000 1 0 1.000000
  phy
0  -9.173126 -96.140282 35.235489  -0.944121 -0.288594 -0.159215  0.000000 0.000000 1 0 1.000000
0  -39.511852 -92.920082 30.954784  -0.917903 -0.266218 -0.294247  0.000000 0.000000 1 0 1.000000
0  -34.460514 -96.058006 30.872353  -0.875477 -0.448323 -0.180406  0.000000 0.000000 1 0 1.000000
  phy
0  19.777498 -110.468613 11.135312  -0.115103 -0.944502 0.307680  0.000000 0.000000 1 0 1.000000
0  19.804157 -108.420937 24.320328  -0.181545 -0.897361 0.402225  0.000000 0.000000 1 0 1.000000
0  17.902966 -108.844482 26.247559  -0.245342 -0.945713 0.213154  0.000000 0.000000 1 0 1.000000
  phy
0  19.777498 -110.468613 11.135312  -0.115103 -0.944502 0.307680  0.000000 0.000000 1 0 1.000000
0  29.651857 -106.974319 9.505692  -0.157076 -0.907547 0.389468  0.000000 0.000000 1 0 1.000000
0  19.804157 -108.420937 24.320328  -0.181545 -0.897361 0.402225  0.000000 0.000000 1 0 1.000000
  phy
0  19.777498 -110.468613 11.135312  -0.115103 -0.944502 0.307680  0.000000 0.000000 1 0 1.000000
0  28.950682 -107.461197 8.075988  0.820126 -0.539900 0.189475  0.000000 0.000000 1 0 1.000000
0  29.651857 -106.974319 9.505692  -0.157076 -0.907547 0.389468  0.000000 0.000000 1 0 1.000000
  phy
0  33.242065 -105.161919 8.061709  0.252326 -0.809593 0.529991  0.000000 0.000000 1 0 1.000000
0  29.651857 -106.974319 9.505692  -0.157076 -0.907547 0.389468  0.000000 0.000000 1 0 1.000000
0  28.950682 -107.461197 8.075988  0.820126 -0.539900 0.189475  0.000000 0.000000 1 0 1.000000
  phy
0  33.242065 -105.161919 8.061709  0.252326 -0.809593 0.529991  0.000000 0.000000 1 0 1.000000
0  34.989841 -103.944595 11.672110  -0.171024 -0.851106 0.496356  0.000000 0.000000 1 0 1.000000
0  29.651857 -106.974319 9.505692  -0.157076 -0.907547 0.389468  0.000000 0.000000 1 0 1.000000
  phy
0  28.950682 -107.461197 8.075988  0.820126 -0.539900 0.189475  0.000000 0.000000 1 0 1.000000
0  19.777498 -110.468613 11.135312  -0.115103 -0.944502 0.307680  0.000000 0.000000 1 0 1.000000
0  14.997639 -111.893234 8.089754  -0.084323 -0.975522 0.203094  0.000000 0.000000 1 0 1.000000
  phy
0  19.804157 -108.420937 24.320328  -0.181545 -0.897361 0.402225  0.000000 0.000000 1 0 1.000000
0  29.651857 -106.974319 9.505692  -0.157076 -0.907547 0.389468  0.000000 0.000000 1 0 1.000000
0  34.989841 -103.944595 11.672110  -0.171024 -0.851106 0.496356  0.000000 0.000000 1 0 1.000000
  phy
0  34.989841 -103.944595 11.672110  -0.171024 -0.851106 0.496356  0.000000 0.000000 1 0 1.000000
0  33.759350 -100.971428 27.844135  -0.384194 -0.821755 0.420849  0.000000 0.000000 1 0 1.000000
0  19.804157 -108.420937 24.320328  -0.181545 -0.897361 0.402225  0.000000 0.000000 1 0 1.000000
  phy
0  33.759350 -100.971428 27.844135  -0.384194 -0.821755 0.420849  0.000000 0.000000 1 0 1.000000
0  17.902966 -108.844482 26.247559  -0.245342 -0.945713 0.213154  0.000000 0.000000 1 0 1.000000
0  19.804157 -108.420937 24.320328  -0.181545 -0.897361 0.402225  0.000000 0.000000 1 0 1.000000
  phy
0  34.989841 -103.944595 11.672110  -0.171024 -0.851106 0.496356  0.000000 0.000000 1 0 1.000000
0  33.242065 -105.161919 8.061709  0.252326 -0.809593 0.529991  0.000000 0.000000 1 0 1.000000
0  36.478168 -102.299812 7.979643  0.267394 -0.609039 0.746708  0.000000 0.000000 1 0 1.000000
  phy
0  -0.000091 -114.363876 11.080044  -0.133311 -0.991074 0.000159  0.000000 0.000000 1 0 1.000000
0  7.950812 -113.190125 8.059630  0.996767 -0.078674 0.016326  0.000000 0.000000 1 0 1.000000
0  14.997639 -111.893234 8.089754  -0.084323 -0.975522 0.203094  0.000000 0.000000 1 0 1.000000
  phy
0  -0.000091 -114.363876 11.080044  -0.133311 -0.991074 0.000159  0.000000 0.000000 1 0 1.000000
0  0.000024 -114.645966 8.103519  0.998814 -0.048654 -0.001745  0.000000 0.000000 1 0 1.000000
0  7.950812 -113.190125 8.059630  0.996767 -0.078674 0.016326  0.000000 0.000000 1 0 1.000000
  phy
0  7.950812 -113.190125 8.059630  0.996767 -0.078674 0.016326  0.000000 0.000000 1 0 1.000000
0  0.000024 -114.645966 8.103519  0.998814 -0.048654 -0.001745  0.000000 0.000000 1 0 1.000000
0  38.624760 -74.923500 6.906085  0.974144 -0.010424 0.225689  0.000000 0.000000 1 0 1.000000
  phy
0  38.624760 -74.923500 6.906085  0.974144 -0.010424 0.225689  0.000000 0.000000 1 0 1.000000
0  0.000024 -114.645966 8.103519  0.998814 -0.048654 -0.001745  0.000000 0.000000 1 0 1.000000
0  -38.624718 -74.923271 6.905987  0.989166 -0.003917 -0.146752  0.000000 0.000000 1 0 1.000000
  phy
0  32.240932 -13.665320 51.846775  -0.512166 -0.011582 0.858808  0.000000 0.000000 1 0 1.000000
0  31.440754 10.873037 53.706516  -0.558642 -0.013908 0.829292  0.000000 0.000000 1 0 1.000000
0  32.099010 -15.071309 51.917278  -0.644330 -0.066925 0.761814  0.000000 0.000000 1 0 1.000000
  phy
0  31.440754 10.873037 53.706516  -0.558642 -0.013908 0.829292  0.000000 0.000000 1 0 1.000000
0  27.791492 15.153515 57.340080  -0.978529 -0.018199 0.205305  0.000000 0.000000 1 0 1.000000
0  32.099010 -15.071309 51.917278  -0.644330 -0.066925 0.761814  0.000000 0.000000 1 0 1.000000
  phy
0  31.440754 10.873037 53.706516  -0.558642 -0.013908 0.829292  0.000000 0.000000 1 0 1.000000
0  41.730190 10.171133 36.336567  -0.464869 -0.005441 0.885363  0.000000 0.000000 1 0 1.000000
0  31.651020 16.562399 53.470135  -0.517667 0.002225 0.855579  0.000000 0.000000 1 0 1.000000
  phy
0  31.440754 10.873037 53.706516  -0.558642 -0.013908 0.829292  0.000000 0.000000 1 0 1.000000
0  32.240932 -13.665320 51.846775  -0.512166 -0.011582 0.858808  0.000000 0.000000 1 0 1.000000
0  41.730190 10.171133 36.336567  -0.464869 -0.005441 0.885363  0.000000 0.000000 1 0 1.000000
  phy
0  32.240932 -13.665320 51.846775  -0.512166 -0.011582 0.858808  0.000000 0.000000 1 0 1.000000
0  41.601410 -41.333290 35.483200  -0.329091 -0.023514 0.944005  0.000000 0.000000 1 0 1.000000
0  41.730190 10.171133 36.336567  -0.464869 -0.005441 0.885363  0.000000 0.000000 1 0 1.000000
  phy
0  31.440754 10.873037 53.706516  -0.558642 -0.013908 0.829292  0.000000 0.000000 1 0 1.000000
0  31.651020 16.562399 53.470135  -0.517667 0.002225 0.855579  0.000000 0.000000 1 0 1.000000
0  27.791492 15.153515 57.340080  -0.978529 -0.018199 0.205305  0.000000 0.000000 1 0 1.000000
  phy
0  31.651020 16.562399 53.470135  -0.517667 0.002225 0.855579  0.000000 0.000000 1 0 1.000000
0  31.641108 18.209703 53.472538  -0.576168 0.022446 0.817023  0.000000 0.000000 1 0 1.000000
0  27.791492 15.153515 57.340080  -0.978529 -0.018199 0.205305  0.000000 0.000000 1 0 1.000000
  phy
0  28.206533 42.544167 55.261848  -0.963030 0.181866 0.198739  0.000000 0.000000 1 0 1.000000
0  27.791492 15.153515 57.340080  -0.978529 -0.018199 0.205305  0.000000 0.000000 1 0 1.000000
0  31.641108 18.209703 53.472538  -0.576168 0.022446 0.817023  0.000000 0.000000 1 0 1.000000
  phy
0  31.641108 18.209703 53.472538  -0.576168 0.022446 0.817023  0.000000 0.000000 1 0 1.000000
0  34.131058 47.799591 48.297333  -0.652156 0.055242 0.756069  0.000000 0.000000 1 0 1.000000
0  28.206533 42.544167 55.261848  -0.963030 0.181866 0.198739  0.000000 0.000000 1 0 1.000000
  phy
0  28.206533 42.544167 55.261848  -0.963030 0.181866 0.198739  0.000000 0.000000 1 0 1.000000
0  34.131058 47.799591 48.297333  -0.652156 0.055242 0.756069  0.000000 0.000000 1 0 1.000000
0  39.569019 79.914909 39.061749  -0.359350 0.077968 0.929940  0.000000 0.000000 1 0 1.000000
  phy
0  -0.014364 107.069092 41.800823  -0.895796 0.443936 0.021704  0.000000 0.000000 1 0 1.000000
0  -0.014272 44.911453 56.803394  -0.979706 0.199716 -0.017007  0.000000 0.000000 1 0 1.000000
0  28.206533 42.544167 55.261848  -0.963030 0.181866 0.198739  0.000000 0.000000 1 0 1.000000
  phy
0  -0.014272 44.911453 56.803394  -0.979706 0.199716 -0.017007  0.000000 0.000000 1 0 1.000000
0  -0.014721 15.387948 59.459827  -0.999674 -0.025535 -0.000003  0.000000 0.000000 1 0 1.000000
0  28.206533 42.544167 55.261848  -0.963030 0.181866 0.198739  0.000000 0.000000 1 0 1.000000
  phy
0  28.206533 42.544167 55.261848  -0.963030 0.181866 0.198739  0.000000 0.000000 1 0 1.000000
0  -0.014721 15.387948 59.459827  -0.999674 -0.025535 -0.000003  0.000000 0.000000 1 0 1.000000
0  27.791492 15.153515 57.340080  -0.978529 -0.018199 0.205305  0.000000 0.000000 1 0 1.000000
  phy
0  43.490410 -43.590420 22.627783  0.065315 -0.012485 0.997787  0.000000 0.000000 1 0 1.000000
0  39.039764 -96.718491 9.992705  0.260555 -0.056739 0.963790  0.000000 0.000000 1 0 1.000000
0  38.624760 -74.923500 6.906085  0.974144 -0.010424 0.225689  0.000000 0.000000 1 0 1.000000
  phy
0  42.617485 -73.264786 22.022173  -0.022504 -0.043457 0.998802  0.000000 0.000000 1 0 1.000000
0  39.039764 -96.718491 9.992705  0.260555 -0.056739 0.963790  0.000000 0.000000 1 0 1.000000
0  43.490410 -43.590420 22.627783  0.065315 -0.012485 0.997787  0.000000 0.000000 1 0 1.000000
  phy
0  43.061081 33.665764 31.161366  -0.119406 0.015367 0.992727  0.000000 0.000000 1 0 1.000000
0  41.601410 -41.333290 35.483200  -0.329091 -0.023514 0.944005  0.000000 0.000000 1 0 1.000000
0  43.490410 -43.590420 22.627783  0.065315 -0.012485 0.997787  0.000000 0.000000 1 0 1.000000
  phy
0  41.601410 -41.333290 35.483200  -0.329091 -0.023514 0.944005  0.000000 0.000000 1 0 1.000000
0  42.617485 -73.264786 22.022173  -0.022504 -0.043457 0.998802  0.000000 0.000000 1 0 1.000000
0  43.490410 -43.590420 22.627783  0.065315 -0.012485 0.997787  0.000000 0.000000 1 0 1.000000
  phy
0  38.624760 -74.923500 6.906085  0.974144 -0.010424 0.225689  0.000000 0.000000 1 0 1.000000
0  43.619202 9.607264 22.696594  0.246167 0.018506 0.969051  0.000000 0.000000 1 0 1.000000
0  43.490410 -43.590420 22.627783  0.065315 -0.012485 0.997787  0.000000 0.000000 1 0 1.000000
  phy
0  43.490410 -43.590420 22.627783  0.065315 -0.012485 0.997787  0.000000 0.000000 1 0 1.000000
0  43.619202 9.607264 22.696594  0.246167 0.018506 0.969051  0.000000 0.000000 1 0 1.000000
0  43.061081 33.665764 31.161366  -0.119406 0.015367 0.992727  0.000000 0.000000 1 0 1.000000
  phy
0  39.569019 79.914909 39.061749  -0.359350 0.077968 0.929940  0.000000 0.000000 1 0 1.000000
0  40.986015 76.485703 26.082504  0.135041 0.060849 0.988970  0.000000 0.000000 1 0 1.000000
0  39.522808 96.631058 28.904631  0.012312 0.097530 0.995156  0.000000 0.000000 1 0 1.000000
  phy
0  39.569019 79.914909 39.061749  -0.359350 0.077968 0.929940  0.000000 0.000000 1 0 1.000000
0  43.061081 33.665764 31.161366  -0.119406 0.015367 0.992727  0.000000 0.000000 1 0 1.000000
0  40.986015 76.485703 26.082504  0.135041 0.060849 0.988970  0.000000 0.000000 1 0 1.000000
  phy
0  41.601410 -41.333290 35.483200  -0.329091 -0.023514 0.944005  0.000000 0.000000 1 0 1.000000
0  32.099010 -15.071309 51.917278  -0.644330 -0.066925 0.761814  0.000000 0.000000 1 0 1.000000
0  40.627819 -73.621246 33.763073  -0.479313 -0.084808 0.873537  0.000000 0.000000 1 0 1.000000
  phy
0  41.601410 -41.333290 35.483200  -0.329091 -0.023514 0.944005  0.000000 0.000000 1 0 1.000000
0  32.240932 -13.665320 51.846775  -0.512166 -0.011582 0.858808  0.000000 0.000000 1 0 1.000000
0  32.099010 -15.071309 51.917278  -0.644330 -0.066925 0.761814  0.000000 0.000000 1 0 1.000000
  phy
0  32.099010 -15.071309 51.917278  -0.644330 -0.066925 0.761814  0.000000 0.000000 1 0 1.000000
0  29.380005 -18.856462 53.940777  -0.964122 -0.208512 0.164292  0.000000 0.000000 1 0 1.000000
0  40.627819 -73.621246 33.763073  -0.479313 -0.084808 0.873537  0.000000 0.000000 1 0 1.000000
  phy
0  32.099010 -15.071309 51.917278  -0.644330 -0.066925 0.761814  0.000000 0.000000 1 0 1.000000
0  27.791492 15.153515 57.340080  -0.978529 -0.018199 0.205305  0.000000 0.000000 1 0 1.000000
0  29.380005 -18.856462 53.940777  -0.964122 -0.208512 0.164292  0.000000 0.000000 1 0 1.000000
  phy
0  29.380005 -18.856462 53.940777  -0.964122 -0.208512 0.164292  0.000000 0.000000 1 0 1.000000
0  39.511871 -92.920609 30.955011  -0.916693 -0.265664 0.298492  0.000000 0.000000 1 0 1.000000
0  40.627819 -73.621246 33.763073  -0.479313 -0.084808 0.873537  0.000000 0.000000 1 0 1.000000
  phy
0  41.143482 -94.681511 21.567888  -0.050001 -0.141617 0.988658  0.000000 0.000000 1 0 1.000000
0  42.617485 -73.264786 22.022173  -0.022504 -0.043457 0.998802  0.000000 0.000000 1 0 1.000000
0  40.627819 -73.621246 33.763073  -0.479313 -0.084808 0.873537  0.000000 0.000000 1 0 1.000000
  phy
0  40.627819 -73.621246 33.763073  -0.479313 -0.084808 0.873537  0.000000 0.000000 1 0 1.000000
0  39.511871 -92.920609 30.955011  -0.916693 -0.265664 0.298492  0.000000 0.000000 1 0 1.000000
0  41.143482 -94.681511 21.567888  -0.050001 -0.141617 0.988658  0.000000 0.000000 1 0 1.000000
  phy
0  40.627819 -73.621246 33.763073  -0.479313 -0.084808 0.873537  0.000000 0.000000 1 0 1.000000
0  42.617485 -73.264786 22.022173  -0.022504 -0.043457 0.998802  0.000000 0.000000 1 0 1.000000
0  41.601410 -41.333290 35.483200  -0.329091 -0.023514 0.944005  0.000000 0.000000 1 0 1.000000
  phy
0  -0.014364 107.069092 41.800823  -0.895796 0.443936 0.021704  0.000000 0.000000 1 0 1.000000
0  -0.014290 113.235176 24.543747  -0.227310 0.973822 0.000034  0.000000 0.000000 1 0 1.000000
0  -20.750605 111.514664 24.582363  -0.238538 0.943100 -0.231650  0.000000 0.000000 1 0 1.000000
  phy
0  -0.014290 113.235176 24.543747  -0.227310 0.973822 0.000034  0.000000 0.000000 1 0 1.000000
0  -0.014364 107.069092 41.800823  -0.895796 0.443936 0.021704  0.000000 0.000000 1 0 1.000000
0  20.721933 111.514725 24.582119  -0.238215 0.943223 0.231482  0.000000 0.000000 1 0 1.000000
  phy
0  -16.800873 113.125053 14.021491  -0.020018 0.978628 -0.204664  0.000000 0.000000 1 0 1.000000
0  -20.750605 111.514664 24.582363  -0.238538 0.943100 -0.231650  0.000000 0.000000 1 0 1.000000
0  -0.014290 113.235176 24.543747  -0.227310 0.973822 0.000034  0.000000 0.000000 1 0 1.000000
  phy
0  -16.800873 113.125053 14.021491  -0.020018 0.978628 -0.204664  0.000000 0.000000 1 0 1.000000
0  -0.014290 113.235176 24.543747  -0.227310 0.973822 0.000034  0.000000 0.000000 1 0 1.000000
0  -0.014440 114.515259 14.011747  0.013377 0.999910 -0.000078  0.000000 0.000000 1 0 1.000000
  phy
0  -0.014290 113.235176 24.543747  -0.227310 0.973822 0.000034  0.000000 0.000000 1 0 1.000000
0  20.721933 111.514725 24.582119  -0.238215 0.943223 0.231482  0.000000 0.000000 1 0 1.000000
0  16.772226 113.125053 14.021491  -0.019883 0.978630 0.204666  0.000000 0.000000 1 0 1.000000
  phy
0  -0.014290 113.235176 24.543747  -0.227310 0.973822 0.000034  0.000000 0.000000 1 0 1.000000
0  16.772226 113.125053 14.021491  -0.019883 0.978630 0.204666  0.000000 0.000000 1 0 1.000000
0  -0.014440 114.515259 14.011747  0.013377 0.999910 -0.000078  0.000000 0.000000 1 0 1.000000
  phy
0  20.721933 111.514725 24.582119  -0.238215 0.943223 0.231482  0.000000 0.000000 1 0 1.000000
0  37.594387 103.586800 23.811445  -0.192111 0.866484 0.460760  0.000000 0.000000 1 0 1.000000
0  35.576538 104.935593 13.616667  0.241714 0.376309 0.894408  0.000000 0.000000 1 0 1.000000
  phy
0  39.011040 100.916512 28.518833  -0.239438 0.623561 0.744206  0.000000 0.000000 1 0 1.000000
0  35.576538 104.935593 13.616667  0.241714 0.376309 0.894408  0.000000 0.000000 1 0 1.000000
0  37.594387 103.586800 23.811445  -0.192111 0.866484 0.460760  0.000000 0.000000 1 0 1.000000
  phy
0  -33.757114 101.355942 8.716489  0.999151 0.037873 -0.016189  0.000000 0.000000 1 0 1.000000
0  -33.759190 103.077431 9.127039  0.851545 0.496361 -0.168809  0.000000 0.000000 1 0 1.000000
0  -0.014214 113.661850 11.651349  0.953848 0.300290 -0.000037  0.000000 0.000000 1 0 1.000000
  phy
0  -33.757114 101.355942 8.716489  0.999151 0.037873 -0.016189  0.000000 0.000000 1 0 1.000000
0  -0.014214 113.661850 11.651349  0.953848 0.300290 -0.000037  0.000000 0.000000 1 0 1.000000
0  33.730690 103.077446 9.127048  0.952775 0.300722 0.042270  0.000000 0.000000 1 0 1.000000
  phy
0  -33.757114 101.355942 8.716489  0.999151 0.037873 -0.016189  0.000000 0.000000 1 0 1.000000
0  33.730690 103.077446 9.127048  0.952775 0.300722 0.042270  0.000000 0.000000 1 0 1.000000
0  33.728424 101.355934 8.716482  0.997054 0.034290 0.068615  0.000000 0.000000 1 0 1.000000
  phy
0  37.322437 65.199188 8.073346  0.958902 0.037888 0.281196  0.000000 0.000000 1 0 1.000000
0  33.728424 101.355934 8.716482  0.997054 0.034290 0.068615  0.000000 0.000000 1 0 1.000000
0  35.576538 104.935593 13.616667  0.241714 0.376309 0.894408  0.000000 0.000000 1 0 1.000000
  phy
0  33.728424 101.355934 8.716482  0.997054 0.034290 0.068615  0.000000 0.000000 1 0 1.000000
0  33.730690 103.077446 9.127048  0.952775 0.300722 0.042270  0.000000 0.000000 1 0 1.000000
0  35.576538 104.935593 13.616667  0.241714 0.376309 0.894408  0.000000 0.000000 1 0 1.000000
  phy
0  33.730690 103.077446 9.127048  0.952775 0.300722 0.042270  0.000000 0.000000 1 0 1.000000
0  15.611533 112.533241 11.641707  0.658833 0.727011 0.193378  0.000000 0.000000 1 0 1.000000
0  35.576538 104.935593 13.616667  0.241714 0.376309 0.894408  0.000000 0.000000 1 0 1.000000
  phy
0  15.611533 112.533241 11.641707  0.658833 0.727011 0.193378  0.000000 0.000000 1 0 1.000000
0  33.730690 103.077446 9.127048  0.952775 0.300722 0.042270  0.000000 0.000000 1 0 1.000000
0  -0.014214 113.661850 11.651349  0.953848 0.300290 -0.000037  0.000000 0.000000 1 0 1.000000
  phy
0  15.611533 112.533241 11.641707  0.658833 0.727011 0.193378  0.000000 0.000000 1 0 1.000000
0  -0.014214 113.661850 11.651349  0.953848 0.300290 -0.000037  0.000000 0.000000 1 0 1.000000
0  -0.014440 114.515259 14.011747  0.013377 0.999910 -0.000078  0.000000 0.000000 1 0 1.000000
  phy
0  16.772226 113.125053 14.021491  -0.019883 0.978630 0.204666  0.000000 0.000000 1 0 1.000000
0  15.611533 112.533241 11.641707  0.658833 0.727011 0.193378  0.000000 0.000000 1 0 1.000000
0  -0.014440 114.515259 14.011747  0.013377 0.999910 -0.000078  0.000000 0.000000 1 0 1.000000
  phy
0  15.611533 112.533241 11.641707  0.658833 0.727011 0.193378  0.000000 0.000000 1 0 1.000000
0  16.772226 113.125053 14.021491  -0.019883 0.978630 0.204666  0.000000 0.000000 1 0 1.000000
0  35.576538 104.935593 13.616667  0.241714 0.376309 0.894408  0.000000 0.000000 1 0 1.000000
  phy
0  -34.989597 -103.944817 11.671660  -0.168737 -0.857344 -0.486302  0.000000 0.000000 1 0 1.000000
0  -36.478115 -102.299797 7.979648  0.944920 -0.119354 -0.304764  0.000000 0.000000 1 0 1.000000
0  -33.242039 -105.161903 8.061714  0.138988 -0.817565 -0.558811  0.000000 0.000000 1 0 1.000000
  phy
0  -33.242039 -105.161903 8.061714  0.138988 -0.817565 -0.558811  0.000000 0.000000 1 0 1.000000
0  -28.950266 -107.461304 8.075444  0.817829 -0.532771 -0.217511  0.000000 0.000000 1 0 1.000000
0  -34.989597 -103.944817 11.671660  -0.168737 -0.857344 -0.486302  0.000000 0.000000 1 0 1.000000
  phy
0  -33.242039 -105.161903 8.061714  0.138988 -0.817565 -0.558811  0.000000 0.000000 1 0 1.000000
0  -36.478115 -102.299797 7.979648  0.944920 -0.119354 -0.304764  0.000000 0.000000 1 0 1.000000
0  -28.950266 -107.461304 8.075444  0.817829 -0.532771 -0.217511  0.000000 0.000000 1 0 1.000000
  phy
0  -41.143444 -94.681473 21.568058  -0.049853 -0.141522 -0.988679  0.000000 0.000000 1 0 1.000000
0  -38.019821 -100.401566 13.281604  0.064035 -0.412858 -0.908542  0.000000 0.000000 1 0 1.000000
0  -38.596458 -99.195503 19.675728  -0.085715 -0.619855 -0.780021  0.000000 0.000000 1 0 1.000000
  phy
0  -38.019821 -100.401566 13.281604  0.064035 -0.412858 -0.908542  0.000000 0.000000 1 0 1.000000
0  -41.143444 -94.681473 21.568058  -0.049853 -0.141522 -0.988679  0.000000 0.000000 1 0 1.000000
0  -39.039722 -96.718567 9.992808  0.260230 -0.056788 -0.963875  0.000000 0.000000 1 0 1.000000
  phy
0  -43.089710 33.666046 31.161366  -0.119402 0.015175 -0.992730  0.000000 0.000000 1 0 1.000000
0  -39.597889 79.912491 39.061974  -0.359334 0.078189 -0.929928  0.000000 0.000000 1 0 1.000000
0  -41.014668 76.485725 26.082485  0.136252 0.061561 -0.988760  0.000000 0.000000 1 0 1.000000
  phy
0  -41.014668 76.485725 26.082485  0.136252 0.061561 -0.988760  0.000000 0.000000 1 0 1.000000
0  -39.597889 79.912491 39.061974  -0.359334 0.078189 -0.929928  0.000000 0.000000 1 0 1.000000
0  -39.551460 96.631119 28.904686  -0.135607 0.094270 -0.986268  0.000000 0.000000 1 0 1.000000
  phy
0  -29.379974 -18.856474 53.940529  -0.964056 -0.208848 -0.164253  0.000000 0.000000 1 0 1.000000
0  -0.014721 15.387948 59.459827  -0.999674 -0.025535 -0.000003  0.000000 0.000000 1 0 1.000000
0  -27.820261 15.153955 57.340233  -0.978140 -0.018500 -0.207122  0.000000 0.000000 1 0 1.000000
  phy
0  0.000005 -24.940109 54.821396  -0.976983 -0.213318 -0.000116  0.000000 0.000000 1 0 1.000000
0  -0.014721 15.387948 59.459827  -0.999674 -0.025535 -0.000003  0.000000 0.000000 1 0 1.000000
0  -29.379974 -18.856474 53.940529  -0.964056 -0.208848 -0.164253  0.000000 0.000000 1 0 1.000000
  phy
0  -7.956779 -94.447548 35.896114  -0.962871 -0.264705 -0.053016  0.000000 0.000000 1 0 1.000000
0  0.000005 -24.940109 54.821396  -0.976983 -0.213318 -0.000116  0.000000 0.000000 1 0 1.000000
0  -29.379974 -18.856474 53.940529  -0.964056 -0.208848 -0.164253  0.000000 0.000000 1 0 1.000000
  phy
0  -40.628162 -73.624268 33.762775  -0.479316 -0.084888 -0.873527  0.000000 0.000000 1 0 1.000000
0  -39.511852 -92.920082 30.954784  -0.917903 -0.266218 -0.294247  0.000000 0.000000 1 0 1.000000
0  -29.379974 -18.856474 53.940529  -0.964056 -0.208848 -0.164253  0.000000 0.000000 1 0 1.000000
  phy
0  38.596046 -99.195335 19.680233  -0.085500 -0.619980 0.779945  0.000000 0.000000 1 0 1.000000
0  38.019936 -100.401466 13.281379  0.063995 -0.412943 0.908506  0.000000 0.000000 1 0 1.000000
0  41.143482 -94.681511 21.567888  -0.050001 -0.141617 0.988658  0.000000 0.000000 1 0 1.000000
  phy
0  41.143482 -94.681511 21.567888  -0.050001 -0.141617 0.988658  0.000000 0.000000 1 0 1.000000
0  39.039764 -96.718491 9.992705  0.260555 -0.056739 0.963790  0.000000 0.000000 1 0 1.000000
0  42.617485 -73.264786 22.022173  -0.022504 -0.043457 0.998802  0.000000 0.000000 1 0 1.000000
  phy
0  38.019936 -100.401466 13.281379  0.063995 -0.412943 0.908506  0.000000 0.000000 1 0 1.000000
0  39.039764 -96.718491 9.992705  0.260555 -0.056739 0.963790  0.000000 0.000000 1 0 1.000000
0  41.143482 -94.681511 21.567888  -0.050001 -0.141617 0.988658  0.000000 0.000000 1 0 1.000000
  phy
0  34.461079 -96.057602 30.872032  -0.825418 -0.518574 0.223083  0.000000 0.000000 1 0 1.000000
0  39.511871 -92.920609 30.955011  -0.916693 -0.265664 0.298492  0.000000 0.000000 1 0 1.000000
0  31.904104 -96.405052 31.214449  -0.889242 -0.425952 0.166773  0.000000 0.000000 1 0 1.000000
  phy
0  33.759350 -100.971428 27.844135  -0.384194 -0.821755 0.420849  0.000000 0.000000 1 0 1.000000
0  39.511871 -92.920609 30.955011  -0.916693 -0.265664 0.298492  0.000000 0.000000 1 0 1.000000
0  34.461079 -96.057602 30.872032  -0.825418 -0.518574 0.223083  0.000000 0.000000 1 0 1.000000
  phy
0  -34.460514 -96.058006 30.872353  -0.875477 -0.448323 -0.180406  0.000000 0.000000 1 0 1.000000
0  -39.511852 -92.920082 30.954784  -0.917903 -0.266218 -0.294247  0.000000 0.000000 1 0 1.000000
0  -33.759975 -100.969452 27.843029  -0.406806 -0.811468 -0.419557  0.000000 0.000000 1 0 1.000000
  phy
0  19.777498 -110.468613 11.135312  -0.115103 -0.944502 0.307680  0.000000 0.000000 1 0 1.000000
0  17.902966 -108.844482 26.247559  -0.245342 -0.945713 0.213154  0.000000 0.000000 1 0 1.000000
0  14.997639 -111.893234 8.089754  -0.084323 -0.975522 0.203094  0.000000 0.000000 1 0 1.000000
  phy
0  14.997639 -111.893234 8.089754  -0.084323 -0.975522 0.203094  0.000000 0.000000 1 0 1.000000
0  17.902966 -108.844482 26.247559  -0.245342 -0.945713 0.213154  0.000000 0.000000 1 0 1.000000
0  -0.000091 -114.363876 11.080044  -0.133311 -0.991074 0.000159  0.000000 0.000000 1 0 1.000000
  phy
0  43.061081 33.665764 31.161366  -0.119406 0.015367 0.992727  0.000000 0.000000 1 0 1.000000
0  41.730190 10.171133 36.336567  -0.464869 -0.005441 0.885363  0.000000 0.000000 1 0 1.000000
0  41.601410 -41.333290 35.483200  -0.329091 -0.023514 0.944005  0.000000 0.000000 1 0 1.000000
  phy
0  41.343777 39.680893 36.735722  -0.454473 0.007976 0.890725  0.000000 0.000000 1 0 1.000000
0  41.730190 10.171133 36.336567  -0.464869 -0.005441 0.885363  0.000000 0.000000 1 0 1.000000
0  43.061081 33.665764 31.161366  -0.119406 0.015367 0.992727  0.000000 0.000000 1 0 1.000000
  phy
0  43.061081 33.665764 31.161366  -0.119406 0.015367 0.992727  0.000000 0.000000 1 0 1.000000
0  43.619202 9.607264 22.696594  0.246167 0.018506 0.969051  0.000000 0.000000 1 0 1.000000
0  40.986015 76.485703 26.082504  0.135041 0.060849 0.988970  0.000000 0.000000 1 0 1.000000
  phy
0  29.380005 -18.856462 53.940777  -0.964122 -0.208512 0.164292  0.000000 0.000000 1 0 1.000000
0  -0.014721 15.387948 59.459827  -0.999674 -0.025535 -0.000003  0.000000 0.000000 1 0 1.000000
0  0.000005 -24.940109 54.821396  -0.976983 -0.213318 -0.000116  0.000000 0.000000 1 0 1.000000
  phy
0  27.791492 15.153515 57.340080  -0.978529 -0.018199 0.205305  0.000000 0.000000 1 0 1.000000
0  -0.014721 15.387948 59.459827  -0.999674 -0.025535 -0.000003  0.000000 0.000000 1 0 1.000000
0  29.380005 -18.856462 53.940777  -0.964122 -0.208512 0.164292  0.000000 0.000000 1 0 1.000000
  phy
0  16.772226 113.125053 14.021491  -0.019883 0.978630 0.204666  0.000000 0.000000 1 0 1.000000
0  20.721933 111.514725 24.582119  -0.238215 0.943223 0.231482  0.000000 0.000000 1 0 1.000000
0  35.576538 104.935593 13.616667  0.241714 0.376309 0.894408  0.000000 0.000000 1 0 1.000000
  phy
0  39.522808 96.631058 28.904631  0.012312 0.097530 0.995156  0.000000 0.000000 1 0 1.000000
0  35.576538 104.935593 13.616667  0.241714 0.376309 0.894408  0.000000 0.000000 1 0 1.000000
0  39.011040 100.916512 28.518833  -0.239438 0.623561 0.744206  0.000000 0.000000 1 0 1.000000
  phy
0  40.986015 76.485703 26.082504  0.135041 0.060849 0.988970  0.000000 0.000000 1 0 1.000000
0  35.576538 104.935593 13.616667  0.241714 0.376309 0.894408  0.000000 0.000000 1 0 1.000000
0  39.522808 96.631058 28.904631  0.012312 0.097530 0.995156  0.000000 0.000000 1 0 1.000000
  phy
0  -37.870880 54.166065 7.877098  0.354442 0.035682 -0.934397  0.000000 0.000000 1 0 1.000000
0  -37.351101 65.199478 8.073355  0.290627 0.075385 -0.953862  0.000000 0.000000 1 0 1.000000
0  -33.757114 101.355942 8.716489  0.999151 0.037873 -0.016189  0.000000 0.000000 1 0 1.000000
  phy
0  -37.870880 54.166065 7.877098  0.354442 0.035682 -0.934397  0.000000 0.000000 1 0 1.000000
0  -33.757114 101.355942 8.716489  0.999151 0.037873 -0.016189  0.000000 0.000000 1 0 1.000000
0  -37.966457 8.712492 7.068591  0.993410 0.012166 -0.113968  0.000000 0.000000 1 0 1.000000
  phy
0  -37.966457 8.712492 7.068591  0.993410 0.012166 -0.113968  0.000000 0.000000 1 0 1.000000
0  -33.757114 101.355942 8.716489  0.999151 0.037873 -0.016189  0.000000 0.000000 1 0 1.000000
0  37.825829 54.513832 7.883276  0.984573 0.022898 0.173466  0.000000 0.000000 1 0 1.000000
  phy
0  -37.966457 8.712492 7.068591  0.993410 0.012166 -0.113968  0.000000 0.000000 1 0 1.000000
0  37.825829 54.513832 7.883276  0.984573 0.022898 0.173466  0.000000 0.000000 1 0 1.000000
0  37.937843 8.712499 7.068584  0.993002 0.006099 0.117937  0.000000 0.000000 1 0 1.000000
  phy
0  37.825829 54.513832 7.883276  0.984573 0.022898 0.173466  0.000000 0.000000 1 0 1.000000
0  -33.757114 101.355942 8.716489  0.999151 0.037873 -0.016189  0.000000 0.000000 1 0 1.000000
0  37.322437 65.199188 8.073346  0.958902 0.037888 0.281196  0.000000 0.000000 1 0 1.000000
  phy
0  37.322437 65.199188 8.073346  0.958902 0.037888 0.281196  0.000000 0.000000 1 0 1.000000
0  -33.757114 101.355942 8.716489  0.999151 0.037873 -0.016189  0.000000 0.000000 1 0 1.000000
0  33.728424 101.355934 8.716482  0.997054 0.034290 0.068615  0.000000 0.000000 1 0 1.000000
  phy
0  -37.966457 8.712492 7.068591  0.993410 0.012166 -0.113968  0.000000 0.000000 1 0 1.000000
0  -38.624718 -74.923271 6.905987  0.989166 -0.003917 -0.146752  0.000000 0.000000 1 0 1.000000
0  -43.647816 9.606720 22.696562  0.245745 0.018144 -0.969165  0.000000 0.000000 1 0 1.000000
  phy
0  -37.966457 8.712492 7.068591  0.993410 0.012166 -0.113968  0.000000 0.000000 1 0 1.000000
0  -43.647816 9.606720 22.696562  0.245745 0.018144 -0.969165  0.000000 0.000000 1 0 1.000000
0  -37.870880 54.166065 7.877098  0.354442 0.035682 -0.934397  0.000000 0.000000 1 0 1.000000
  phy
0  -38.624718 -74.923271 6.905987  0.989166 -0.003917 -0.146752  0.000000 0.000000 1 0 1.000000
0  -37.966457 8.712492 7.068591  0.993410 0.012166 -0.113968  0.000000 0.000000 1 0 1.000000
0  37.937843 8.712499 7.068584  0.993002 0.006099 0.117937  0.000000 0.000000 1 0 1.000000
  phy
0  -38.624718 -74.923271 6.905987  0.989166 -0.003917 -0.146752  0.000000 0.000000 1 0 1.000000
0  37.937843 8.712499 7.068584  0.993002 0.006099 0.117937  0.000000 0.000000 1 0 1.000000
0  38.624760 -74.923500 6.906085  0.974144 -0.010424 0.225689  0.000000 0.000000 1 0 1.000000
  phy
0  -0.014214 113.661850 11.651349  0.953848 0.300290 -0.000037  0.000000 0.000000 1 0 1.000000
0  -15.641726 112.533203 11.641705  0.658775 0.727050 -0.193429  0.000000 0.000000 1 0 1.000000
0  -0.014440 114.515259 14.011747  0.013377 0.999910 -0.000078  0.000000 0.000000 1 0 1.000000
  phy
0  -0.014214 113.661850 11.651349  0.953848 0.300290 -0.000037  0.000000 0.000000 1 0 1.000000
0  -33.759190 103.077431 9.127039  0.851545 0.496361 -0.168809  0.000000 0.000000 1 0 1.000000
0  -15.641726 112.533203 11.641705  0.658775 0.727050 -0.193429  0.000000 0.000000 1 0 1.000000
  phy
0  -34.989597 -103.944817 11.671660  -0.168737 -0.857344 -0.486302  0.000000 0.000000 1 0 1.000000
0  -17.902672 -108.844528 26.247669  -0.224322 -0.938025 -0.264174  0.000000 0.000000 1 0 1.000000
0  -22.572172 -106.943695 25.016005  -0.194980 -0.886088 -0.420514  0.000000 0.000000 1 0 1.000000
  phy
0  -28.950266 -107.461304 8.075444  0.817829 -0.532771 -0.217511  0.000000 0.000000 1 0 1.000000
0  -17.902672 -108.844528 26.247669  -0.224322 -0.938025 -0.264174  0.000000 0.000000 1 0 1.000000
0  -34.989597 -103.944817 11.671660  -0.168737 -0.857344 -0.486302  0.000000 0.000000 1 0 1.000000
  phy
0  -22.572172 -106.943695 25.016005  -0.194980 -0.886088 -0.420514  0.000000 0.000000 1 0 1.000000
0  -33.759975 -100.969452 27.843029  -0.406806 -0.811468 -0.419557  0.000000 0.000000 1 0 1.000000
0  -34.989597 -103.944817 11.671660  -0.168737 -0.857344 -0.486302  0.000000 0.000000 1 0 1.000000
  phy
0  -34.989597 -103.944817 11.671660  -0.168737 -0.857344 -0.486302  0.000000 0.000000 1 0 1.000000
0  -33.759975 -100.969452 27.843029  -0.406806 -0.811468 -0.419557  0.000000 0.000000 1 0 1.000000
0  -38.596008 -97.544373 28.147120  -0.244427 -0.672557 -0.698515  0.000000 0.000000 1 0 1.000000
  phy
0  -38.596008 -97.544373 28.147120  -0.244427 -0.672557 -0.698515  0.000000 0.000000 1 0 1.000000
0  -38.596458 -99.195503 19.675728  -0.085715 -0.619855 -0.780021  0.000000 0.000000 1 0 1.000000
0  -34.989597 -103.944817 11.671660  -0.168737 -0.857344 -0.486302  0.000000 0.000000 1 0 1.000000
  phy
0  -19.777494 -110.468620 11.135387  -0.110928 -0.947165 -0.300955  0.000000 0.000000 1 0 1.000000
0  -28.950266 -107.461304 8.075444  0.817829 -0.532771 -0.217511  0.000000 0.000000 1 0 1.000000
0  -14.997972 -111.893478 8.089937  0.865956 -0.489636 -0.101866  0.000000 0.000000 1 0 1.000000
  phy
0  -14.997972 -111.893478 8.089937  0.865956 -0.489636 -0.101866  0.000000 0.000000 1 0 1.000000
0  -17.902672 -108.844528 26.247669  -0.224322 -0.938025 -0.264174  0.000000 0.000000 1 0 1.000000
0  -19.777494 -110.468620 11.135387  -0.110928 -0.947165 -0.300955  0.000000 0.000000 1 0 1.000000
  phy
0  -19.777494 -110.468620 11.135387  -0.110928 -0.947165 -0.300955  0.000000 0.000000 1 0 1.000000
0  -17.902672 -108.844528 26.247669  -0.224322 -0.938025 -0.264174  0.000000 0.000000 1 0 1.000000
0  -28.950266 -107.461304 8.075444  0.817829 -0.532771 -0.217511  0.000000 0.000000 1 0 1.000000
  phy
0  -43.490582 -43.589981 22.628664  0.064820 -0.012757 -0.997815  0.000000 0.000000 1 0 1.000000
0  -39.039722 -96.718567 9.992808  0.260230 -0.056788 -0.963875  0.000000 0.000000 1 0 1.000000
0  -42.617420 -73.265022 22.022154  -0.022503 -0.043511 -0.998800  0.000000 0.000000 1 0 1.000000
  phy
0  -39.039722 -96.718567 9.992808  0.260230 -0.056788 -0.963875  0.000000 0.000000 1 0 1.000000
0  -43.490582 -43.589981 22.628664  0.064820 -0.012757 -0.997815  0.000000 0.000000 1 0 1.000000
0  -38.624718 -74.923271 6.905987  0.989166 -0.003917 -0.146752  0.000000 0.000000 1 0 1.000000
  phy
0  -38.624718 -74.923271 6.905987  0.989166 -0.003917 -0.146752  0.000000 0.000000 1 0 1.000000
0  -43.490582 -43.589981 22.628664  0.064820 -0.012757 -0.997815  0.000000 0.000000 1 0 1.000000
0  -43.647816 9.606720 22.696562  0.245745 0.018144 -0.969165  0.000000 0.000000 1 0 1.000000
  phy
0  -43.490582 -43.589981 22.628664  0.064820 -0.012757 -0.997815  0.000000 0.000000 1 0 1.000000
0  -43.089710 33.666046 31.161366  -0.119402 0.015175 -0.992730  0.000000 0.000000 1 0 1.000000
0  -43.647816 9.606720 22.696562  0.245745 0.018144 -0.969165  0.000000 0.000000 1 0 1.000000
  phy
0  -43.490582 -43.589981 22.628664  0.064820 -0.012757 -0.997815  0.000000 0.000000 1 0 1.000000
0  -42.617420 -73.265022 22.022154  -0.022503 -0.043511 -0.998800  0.000000 0.000000 1 0 1.000000
0  -41.601383 -41.332928 35.483181  -0.329297 -0.023922 -0.943923  0.000000 0.000000 1 0 1.000000
  phy
0  -43.089710 33.666046 31.161366  -0.119402 0.015175 -0.992730  0.000000 0.000000 1 0 1.000000
0  -43.490582 -43.589981 22.628664  0.064820 -0.012757 -0.997815  0.000000 0.000000 1 0 1.000000
0  -41.601383 -41.332928 35.483181  -0.329297 -0.023922 -0.943923  0.000000 0.000000 1 0 1.000000
  phy
0  -38.596008 -97.544373 28.147120  -0.244427 -0.672557 -0.698515  0.000000 0.000000 1 0 1.000000
0  -41.143444 -94.681473 21.568058  -0.049853 -0.141522 -0.988679  0.000000 0.000000 1 0 1.000000
0  -38.596458 -99.195503 19.675728  -0.085715 -0.619855 -0.780021  0.000000 0.000000 1 0 1.000000
  phy
0  -41.143444 -94.681473 21.568058  -0.049853 -0.141522 -0.988679  0.000000 0.000000 1 0 1.000000
0  -38.596008 -97.544373 28.147120  -0.244427 -0.672557 -0.698515  0.000000 0.000000 1 0 1.000000
0  -39.511852 -92.920082 30.954784  -0.917903 -0.266218 -0.294247  0.000000 0.000000 1 0 1.000000
  phy
0  -39.039722 -96.718567 9.992808  0.260230 -0.056788 -0.963875  0.000000 0.000000 1 0 1.000000
0  -41.143444 -94.681473 21.568058  -0.049853 -0.141522 -0.988679  0.000000 0.000000 1 0 1.000000
0  -42.617420 -73.265022 22.022154  -0.022503 -0.043511 -0.998800  0.000000 0.000000 1 0 1.000000
  phy
0  -42.617420 -73.265022 22.022154  -0.022503 -0.043511 -0.998800  0.000000 0.000000 1 0 1.000000
0  -41.143444 -94.681473 21.568058  -0.049853 -0.141522 -0.988679  0.000000 0.000000 1 0 1.000000
0  -40.628162 -73.624268 33.762775  -0.479316 -0.084888 -0.873527  0.000000 0.000000 1 0 1.000000
  phy
0  -40.628162 -73.624268 33.762775  -0.479316 -0.084888 -0.873527  0.000000 0.000000 1 0 1.000000
0  -41.143444 -94.681473 21.568058  -0.049853 -0.141522 -0.988679  0.000000 0.000000 1 0 1.000000
0  -39.511852 -92.920082 30.954784  -0.917903 -0.266218 -0.294247  0.000000 0.000000 1 0 1.000000
  phy
0  -36.478115 -102.299797 7.979648  0.944920 -0.119354 -0.304764  0.000000 0.000000 1 0 1.000000
0  -39.039722 -96.718567 9.992808  0.260230 -0.056788 -0.963875  0.000000 0.000000 1 0 1.000000
0  -38.624718 -74.923271 6.905987  0.989166 -0.003917 -0.146752  0.000000 0.000000 1 0 1.000000
  phy
0  -41.014668 76.485725 26.082485  0.136252 0.061561 -0.988760  0.000000 0.000000 1 0 1.000000
0  -39.551460 96.631119 28.904686  -0.135607 0.094270 -0.986268  0.000000 0.000000 1 0 1.000000
0  -39.039764 100.916573 28.518766  -0.022002 0.387892 -0.921442  0.000000 0.000000 1 0 1.000000
  phy
0  -41.014668 76.485725 26.082485  0.136252 0.061561 -0.988760  0.000000 0.000000 1 0 1.000000
0  -39.039764 100.916573 28.518766  -0.022002 0.387892 -0.921442  0.000000 0.000000 1 0 1.000000
0  -35.605301 104.935593 13.617268  0.241968 0.379682 -0.892913  0.000000 0.000000 1 0 1.000000
  phy
0  -39.039764 100.916573 28.518766  -0.022002 0.387892 -0.921442  0.000000 0.000000 1 0 1.000000
0  -37.622925 103.586670 23.811394  -0.193907 0.866298 -0.460357  0.000000 0.000000 1 0 1.000000
0  -35.605301 104.935593 13.617268  0.241968 0.379682 -0.892913  0.000000 0.000000 1 0 1.000000
  phy
0  -37.622925 103.586670 23.811394  -0.193907 0.866298 -0.460357  0.000000 0.000000 1 0 1.000000
0  -20.750605 111.514664 24.582363  -0.238538 0.943100 -0.231650  0.000000 0.000000 1 0 1.000000
0  -35.605301 104.935593 13.617268  0.241968 0.379682 -0.892913  0.000000 0.000000 1 0 1.000000
  phy
0  37.937843 8.712499 7.068584  0.993002 0.006099 0.117937  0.000000 0.000000 1 0 1.000000
0  43.619202 9.607264 22.696594  0.246167 0.018506 0.969051  0.000000 0.000000 1 0 1.000000
0  38.624760 -74.923500 6.906085  0.974144 -0.010424 0.225689  0.000000 0.000000 1 0 1.000000
  phy
0  37.937843 8.712499 7.068584  0.993002 0.006099 0.117937  0.000000 0.000000 1 0 1.000000
0  37.825829 54.513832 7.883276  0.984573 0.022898 0.173466  0.000000 0.000000 1 0 1.000000
0  43.619202 9.607264 22.696594  0.246167 0.018506 0.969051  0.000000 0.000000 1 0 1.000000
  phy
0  -22.572172 -106.943695 25.016005  -0.194980 -0.886088 -0.420514  0.000000 0.000000 1 0 1.000000
0  -17.902672 -108.844528 26.247669  -0.224322 -0.938025 -0.264174  0.000000 0.000000 1 0 1.000000
0  -33.759975 -100.969452 27.843029  -0.406806 -0.811468 -0.419557  0.000000 0.000000 1 0 1.000000
  phy
0  -33.759975 -100.969452 27.843029  -0.406806 -0.811468 -0.419557  0.000000 0.000000 1 0 1.000000
0  -39.511852 -92.920082 30.954784  -0.917903 -0.266218 -0.294247  0.000000 0.000000 1 0 1.000000
0  -38.596008 -97.544373 28.147120  -0.244427 -0.672557 -0.698515  0.000000 0.000000 1 0 1.000000
  phy
0  -0.000091 -114.363876 11.080044  -0.133311 -0.991074 0.000159  0.000000 0.000000 1 0 1.000000
0  -17.902672 -108.844528 26.247669  -0.224322 -0.938025 -0.264174  0.000000 0.000000 1 0 1.000000
0  -14.997972 -111.893478 8.089937  0.865956 -0.489636 -0.101866  0.000000 0.000000 1 0 1.000000
  phy
0  -14.997972 -111.893478 8.089937  0.865956 -0.489636 -0.101866  0.000000 0.000000 1 0 1.000000
0  0.000024 -114.645966 8.103519  0.998814 -0.048654 -0.001745  0.000000 0.000000 1 0 1.000000
0  -0.000091 -114.363876 11.080044  -0.133311 -0.991074 0.000159  0.000000 0.000000 1 0 1.000000
  phy
0  37.322437 65.199188 8.073346  0.958902 0.037888 0.281196  0.000000 0.000000 1 0 1.000000
0  40.986015 76.485703 26.082504  0.135041 0.060849 0.988970  0.000000 0.000000 1 0 1.000000
0  37.825829 54.513832 7.883276  0.984573 0.022898 0.173466  0.000000 0.000000 1 0 1.000000
  phy
0  40.986015 76.485703 26.082504  0.135041 0.060849 0.988970  0.000000 0.000000 1 0 1.000000
0  43.619202 9.607264 22.696594  0.246167 0.018506 0.969051  0.000000 0.000000 1 0 1.000000
0  37.825829 54.513832 7.883276  0.984573 0.022898 0.173466  0.000000 0.000000 1 0 1.000000
  phy
0  37.322437 65.199188 8.073346  0.958902 0.037888 0.281196  0.000000 0.000000 1 0 1.000000
0  35.576538 104.935593 13.616667  0.241714 0.376309 0.894408  0.000000 0.000000 1 0 1.000000
0  40.986015 76.485703 26.082504  0.135041 0.060849 0.988970  0.000000 0.000000 1 0 1.000000
  phy
0  -37.351101 65.199478 8.073355  0.290627 0.075385 -0.953862  0.000000 0.000000 1 0 1.000000
0  -35.605301 104.935593 13.617268  0.241968 0.379682 -0.892913  0.000000 0.000000 1 0 1.000000
0  -33.757114 101.355942 8.716489  0.999151 0.037873 -0.016189  0.000000 0.000000 1 0 1.000000
  phy
0  -33.757114 101.355942 8.716489  0.999151 0.037873 -0.016189  0.000000 0.000000 1 0 1.000000
0  -35.605301 104.935593 13.617268  0.241968 0.379682 -0.892913  0.000000 0.000000 1 0 1.000000
0  -33.759190 103.077431 9.127039  0.851545 0.496361 -0.168809  0.000000 0.000000 1 0 1.000000
  phy
0  -15.641726 112.533203 11.641705  0.658775 0.727050 -0.193429  0.000000 0.000000 1 0 1.000000
0  -33.759190 103.077431 9.127039  0.851545 0.496361 -0.168809  0.000000 0.000000 1 0 1.000000
0  -35.605301 104.935593 13.617268  0.241968 0.379682 -0.892913  0.000000 0.000000 1 0 1.000000
  phy
0  -36.478115 -102.299797 7.979648  0.944920 -0.119354 -0.304764  0.000000 0.000000 1 0 1.000000
0  -38.624718 -74.923271 6.905987  0.989166 -0.003917 -0.146752  0.000000 0.000000 1 0 1.000000
0  -28.950266 -107.461304 8.075444  0.817829 -0.532771 -0.217511  0.000000 0.000000 1 0 1.000000
  phy
0  -38.624718 -74.923271 6.905987  0.989166 -0.003917 -0.146752  0.000000 0.000000 1 0 1.000000
0  -14.997972 -111.893478 8.089937  0.865956 -0.489636 -0.101866  0.000000 0.000000 1 0 1.000000
0  -28.950266 -107.461304 8.075444  0.817829 -0.532771 -0.217511  0.000000 0.000000 1 0 1.000000
  phy
0  -14.997972 -111.893478 8.089937  0.865956 -0.489636 -0.101866  0.000000 0.000000 1 0 1.000000
0  -38.624718 -74.923271 6.905987  0.989166 -0.003917 -0.146752  0.000000 0.000000 1 0 1.000000
0  0.000024 -114.645966 8.103519  0.998814 -0.048654 -0.001745  0.000000 0.000000 1 0 1.000000
  phy
0  -42.617420 -73.265022 22.022154  -0.022503 -0.043511 -0.998800  0.000000 0.000000 1 0 1.000000
0  -40.628162 -73.624268 33.762775  -0.479316 -0.084888 -0.873527  0.000000 0.000000 1 0 1.000000
0  -41.601383 -41.332928 35.483181  -0.329297 -0.023922 -0.943923  0.000000 0.000000 1 0 1.000000
  phy
0  -43.089710 33.666046 31.161366  -0.119402 0.015175 -0.992730  0.000000 0.000000 1 0 1.000000
0  -41.014668 76.485725 26.082485  0.136252 0.061561 -0.988760  0.000000 0.000000 1 0 1.000000
0  -43.647816 9.606720 22.696562  0.245745 0.018144 -0.969165  0.000000 0.000000 1 0 1.000000
  phy
0  -16.800873 113.125053 14.021491  -0.020018 0.978628 -0.204664  0.000000 0.000000 1 0 1.000000
0  -15.641726 112.533203 11.641705  0.658775 0.727050 -0.193429  0.000000 0.000000 1 0 1.000000
0  -35.605301 104.935593 13.617268  0.241968 0.379682 -0.892913  0.000000 0.000000 1 0 1.000000
  phy
0  -15.641726 112.533203 11.641705  0.658775 0.727050 -0.193429  0.000000 0.000000 1 0 1.000000
0  -16.800873 113.125053 14.021491  -0.020018 0.978628 -0.204664  0.000000 0.000000 1 0 1.000000
0  -0.014440 114.515259 14.011747  0.013377 0.999910 -0.000078  0.000000 0.000000 1 0 1.000000
  phy
0  -43.647816 9.606720 22.696562  0.245745 0.018144 -0.969165  0.000000 0.000000 1 0 1.000000
0  -41.014668 76.485725 26.082485  0.136252 0.061561 -0.988760  0.000000 0.000000 1 0 1.000000
0  -37.870880 54.166065 7.877098  0.354442 0.035682 -0.934397  0.000000 0.000000 1 0 1.000000
  phy
0  -37.870880 54.166065 7.877098  0.354442 0.035682 -0.934397  0.000000 0.000000 1 0 1.000000
0  -41.014668 76.485725 26.082485  0.136252 0.061561 -0.988760  0.000000 0.000000 1 0 1.000000
0  -37.351101 65.199478 8.073355  0.290627 0.075385 -0.953862  0.000000 0.000000 1 0 1.000000
  phy
0  -37.351101 65.199478 8.073355  0.290627 0.075385 -0.953862  0.000000 0.000000 1 0 1.000000
0  -41.014668 76.485725 26.082485  0.136252 0.061561 -0.988760  0.000000 0.000000 1 0 1.000000
0  -35.605301 104.935593 13.617268  0.241968 0.379682 -0.892913  0.000000 0.000000 1 0 1.000000
  phy
0  -20.750605 111.514664 24.582363  -0.238538 0.943100 -0.231650  0.000000 0.000000 1 0 1.000000
0  -16.800873 113.125053 14.021491  -0.020018 0.978628 -0.204664  0.000000 0.000000 1 0 1.000000
0  -35.605301 104.935593 13.617268  0.241968 0.379682 -0.892913  0.000000 0.000000 1 0 1.000000
end
