version 1
nodes
0 "root" -1
end
skeleton
time 0
0  0.000000 0.000000 0.000000  0.000000 -0.000000 0.000000
end
triangles
coplightblue3
0  7.572783 8.838089 63.784149  0.001118 -0.999998 -0.001565  0.724854 0.184204 1 0 1.000000
0  11.830322 8.841873 64.406425  0.001109 -0.999998 -0.001504  0.520493 0.215546 1 0 1.000000
0  7.571192 8.837105 64.408501  0.001119 -0.999998 -0.001572  0.724854 0.215546 1 0 1.000000
coplightblue3
0  11.832214 8.842804 63.785645  -0.000092 -0.930346 0.366682  0.520493 0.184204 1 0 1.000000
0  11.830322 8.841873 64.406425  0.001109 -0.999998 -0.001504  0.520493 0.215546 1 0 1.000000
0  7.572783 8.838089 63.784149  0.001118 -0.999998 -0.001565  0.724854 0.184204 1 0 1.000000
coplightblue3
0  6.971500 15.860840 64.541351  0.001120 0.999677 0.025406  0.724854 0.215546 1 0 1.000000
0  11.230576 15.856125 64.539085  0.001114 0.999676 0.025443  0.520493 0.215546 1 0 1.000000
0  6.973038 15.876694 63.917274  0.001119 0.999676 0.025410  0.724854 0.184204 1 0 1.000000
coplightblue3
0  11.232471 15.871918 63.918602  0.000707 0.920334 0.391132  0.520493 0.184204 1 0 1.000000
0  6.973038 15.876694 63.917274  0.001119 0.999676 0.025410  0.724854 0.184204 1 0 1.000000
0  11.230576 15.856125 64.539085  0.001114 0.999676 0.025443  0.520493 0.215546 1 0 1.000000
coplightblue3
0  0.974285 15.860840 64.541351  0.001120 0.999677 0.025406  0.724854 0.215546 1 0 1.000000
0  5.233360 15.856125 64.539085  0.001114 0.999676 0.025443  0.520493 0.215546 1 0 1.000000
0  0.975822 15.876694 63.917274  0.001119 0.999676 0.025410  0.724854 0.184204 1 0 1.000000
coplightblue3
0  5.235256 15.871918 63.918602  0.000707 0.920334 0.391132  0.520493 0.184204 1 0 1.000000
0  0.975822 15.876694 63.917274  0.001119 0.999676 0.025410  0.724854 0.184204 1 0 1.000000
0  5.233360 15.856125 64.539085  0.001114 0.999676 0.025443  0.520493 0.215546 1 0 1.000000
coplightblue3
0  -0.743568 15.860840 64.541351  -0.001120 0.999677 0.025406  0.724854 0.215546 1 0 1.000000
0  -0.745106 15.876694 63.917274  -0.001119 0.999676 0.025410  0.724854 0.184204 1 0 1.000000
0  -5.002642 15.856125 64.539085  -0.001114 0.999676 0.025443  0.520493 0.215546 1 0 1.000000
coplightblue3
0  -5.002642 15.856125 64.539085  -0.001114 0.999676 0.025443  0.520493 0.215546 1 0 1.000000
0  -0.745106 15.876694 63.917274  -0.001119 0.999676 0.025410  0.724854 0.184204 1 0 1.000000
0  -5.004536 15.871918 63.918602  0.000087 0.920335 0.391131  0.520493 0.184204 1 0 1.000000
coplightblue3
0  -6.740734 15.860840 64.541351  -0.001122 0.999677 0.025400  0.724854 0.215546 1 0 1.000000
0  -6.742321 15.876694 63.917274  -0.001121 0.999677 0.025406  0.724854 0.184204 1 0 1.000000
0  -10.999859 15.856117 64.539085  -0.001114 0.999675 0.025458  0.520493 0.215546 1 0 1.000000
coplightblue3
0  -10.999859 15.856117 64.539085  -0.001114 0.999675 0.025458  0.520493 0.215546 1 0 1.000000
0  -6.742321 15.876694 63.917274  -0.001121 0.999677 0.025406  0.724854 0.184204 1 0 1.000000
0  -11.001754 15.871918 63.918602  0.000087 0.920329 0.391146  0.520493 0.184204 1 0 1.000000
coplightblue3
0  1.175739 8.838089 63.783279  0.001119 -0.999998 -0.001578  0.724854 0.184204 1 0 1.000000
0  5.433277 8.841873 64.405556  0.001109 -0.999998 -0.001503  0.520493 0.215546 1 0 1.000000
0  1.174202 8.837097 64.407631  0.001121 -0.999998 -0.001587  0.724854 0.215546 1 0 1.000000
coplightblue3
0  5.435173 8.842804 63.784775  -0.000094 -0.930345 0.366684  0.520493 0.184204 1 0 1.000000
0  5.433277 8.841873 64.405556  0.001109 -0.999998 -0.001503  0.520493 0.215546 1 0 1.000000
0  1.175739 8.838089 63.783279  0.001119 -0.999998 -0.001578  0.724854 0.184204 1 0 1.000000
coplightblue3
0  -0.945011 8.838089 63.783279  -0.001118 -0.999998 -0.001576  0.724854 0.184204 1 0 1.000000
0  -0.943476 8.837097 64.407631  -0.001119 -0.999998 -0.001584  0.724854 0.215546 1 0 1.000000
0  -5.202553 8.841866 64.405556  -0.001107 -0.999998 -0.001505  0.520493 0.215546 1 0 1.000000
coplightblue3
0  -5.202553 8.841866 64.405556  -0.001107 -0.999998 -0.001505  0.520493 0.215546 1 0 1.000000
0  -5.204447 8.842796 63.784775  -0.000701 -0.930345 0.366684  0.520493 0.184204 1 0 1.000000
0  -0.945011 8.838089 63.783279  -0.001118 -0.999998 -0.001576  0.724854 0.184204 1 0 1.000000
coplightblue3
0  -7.342052 8.838089 63.784149  -0.001119 -0.999998 -0.001574  0.724854 0.184204 1 0 1.000000
0  -7.340466 8.837097 64.408501  -0.001121 -0.999998 -0.001584  0.724854 0.215546 1 0 1.000000
0  -11.599541 8.841873 64.406425  -0.001107 -0.999998 -0.001492  0.520493 0.215546 1 0 1.000000
coplightblue3
0  -11.599541 8.841873 64.406425  -0.001107 -0.999998 -0.001492  0.520493 0.215546 1 0 1.000000
0  -11.601492 8.842796 63.785645  -0.000720 -0.930340 0.366697  0.520493 0.184204 1 0 1.000000
0  -7.342052 8.838089 63.784149  -0.001119 -0.999998 -0.001574  0.724854 0.184204 1 0 1.000000
end
