version 1
nodes
0 "root" -1
end
skeleton
time 0
0  0.000000 0.000000 0.000000  0.000000 -0.000000 0.000000
end
triangles
brakelight
0  32.118340 108.521881 36.842072  0.426992 0.450914 0.783808  0.362851 0.702704 1 0 1.000000
0  30.169436 109.644974 37.051277  0.298899 0.561918 0.771302  0.510242 0.711193 1 0 1.000000
0  30.345606 109.138481 37.238461  0.340216 0.441297 0.830367  0.469861 0.732414 1 0 1.000000
brakelight
0  33.483665 112.507767 27.229563  0.483131 0.869411 0.103484  0.449670 0.193382 1 0 1.000000
0  33.604786 112.816071 24.135544  0.521325 0.845395 0.116305  0.453709 0.037756 1 0 1.000000
0  30.984230 113.399643 27.229563  0.290227 0.950612 0.110024  0.576871 0.189138 1 0 1.000000
brakelight
0  33.483665 112.507767 27.229563  0.483131 0.869411 0.103484  0.449670 0.193382 1 0 1.000000
0  35.498631 110.668976 27.251583  0.783961 0.609979 0.115460  0.322470 0.197627 1 0 1.000000
0  33.604786 112.816071 24.135544  0.521325 0.845395 0.116305  0.453709 0.037756 1 0 1.000000
brakelight
0  35.839966 110.790092 24.124533  0.799970 0.589786 0.110451  0.298241 0.044830 1 0 1.000000
0  33.604786 112.816071 24.135544  0.521325 0.845395 0.116305  0.453709 0.037756 1 0 1.000000
0  35.498631 110.668976 27.251583  0.783961 0.609979 0.115460  0.322470 0.197627 1 0 1.000000
brakelight
0  35.839966 110.790092 24.124533  0.799970 0.589786 0.110451  0.298241 0.044830 1 0 1.000000
0  35.498631 110.668976 27.251583  0.783961 0.609979 0.115460  0.322470 0.197627 1 0 1.000000
0  37.425514 107.387772 24.168575  0.926550 0.355059 0.124247  0.132678 0.060393 1 0 1.000000
brakelight
0  36.863964 107.729111 27.339670  0.924980 0.348611 0.151269  0.173060 0.204701 1 0 1.000000
0  37.425514 107.387772 24.168575  0.926550 0.355059 0.124247  0.132678 0.060393 1 0 1.000000
0  35.498631 110.668976 27.251583  0.783961 0.609979 0.115460  0.322470 0.197627 1 0 1.000000
brakelight
0  36.863964 107.729111 27.339670  0.924980 0.348611 0.151269  0.173060 0.204701 1 0 1.000000
0  37.744823 105.350784 26.260616  0.947751 0.288358 0.136444  0.029707 0.170746 1 0 1.000000
0  37.425514 107.387772 24.168575  0.926550 0.355059 0.124247  0.132678 0.060393 1 0 1.000000
brakelight
0  37.238331 105.747177 28.826120  0.941212 0.270566 0.202272  0.051916 0.281099 1 0 1.000000
0  37.744823 105.350784 26.260616  0.947751 0.288358 0.136444  0.029707 0.170746 1 0 1.000000
0  36.863964 107.729111 27.339670  0.924980 0.348611 0.151269  0.173060 0.204701 1 0 1.000000
brakelight
0  36.863964 107.729111 27.339670  0.924980 0.348611 0.151269  0.173060 0.204701 1 0 1.000000
0  35.531670 108.323685 32.834030  0.914700 0.298934 0.271961  0.219498 0.486242 1 0 1.000000
0  37.238331 105.747177 28.826120  0.941212 0.270566 0.202272  0.051916 0.281099 1 0 1.000000
brakelight
0  35.806938 106.727127 33.065254  0.926352 0.209726 0.312869  0.110469 0.489072 1 0 1.000000
0  37.238331 105.747177 28.826120  0.941212 0.270566 0.202272  0.051916 0.281099 1 0 1.000000
0  35.531670 108.323685 32.834030  0.914700 0.298934 0.271961  0.219498 0.486242 1 0 1.000000
brakelight
0  35.531670 108.323685 32.834030  0.914700 0.298934 0.271961  0.219498 0.486242 1 0 1.000000
0  34.992142 108.587944 34.100399  0.825626 0.283614 0.487754  0.282089 0.555567 1 0 1.000000
0  35.806938 106.727127 33.065254  0.926352 0.209726 0.312869  0.110469 0.489072 1 0 1.000000
brakelight
0  35.322464 107.013412 34.265560  0.846128 0.224992 0.483161  0.158926 0.566885 1 0 1.000000
0  35.806938 106.727127 33.065254  0.926352 0.209726 0.312869  0.110469 0.489072 1 0 1.000000
0  34.992142 108.587944 34.100399  0.825626 0.283614 0.487754  0.282089 0.555567 1 0 1.000000
brakelight
0  35.322464 107.013412 34.265560  0.846128 0.224992 0.483161  0.158926 0.566885 1 0 1.000000
0  34.992142 108.587944 34.100399  0.825626 0.283614 0.487754  0.282089 0.555567 1 0 1.000000
0  33.836014 107.751129 35.752010  0.683403 0.273187 0.677000  0.245746 0.639039 1 0 1.000000
brakelight
0  33.131325 109.567902 35.641903  0.576461 0.430622 0.694447  0.381022 0.630550 1 0 1.000000
0  33.836014 107.751129 35.752010  0.683403 0.273187 0.677000  0.245746 0.639039 1 0 1.000000
0  34.992142 108.587944 34.100399  0.825626 0.283614 0.487754  0.282089 0.555567 1 0 1.000000
brakelight
0  33.836014 107.751129 35.752010  0.683403 0.273187 0.677000  0.245746 0.639039 1 0 1.000000
0  33.131325 109.567902 35.641903  0.576461 0.430622 0.694447  0.381022 0.630550 1 0 1.000000
0  32.118340 108.521881 36.842072  0.426992 0.450914 0.783808  0.362851 0.702704 1 0 1.000000
brakelight
0  33.131325 109.567902 35.641903  0.576461 0.430622 0.694447  0.381022 0.630550 1 0 1.000000
0  31.457691 110.856155 35.542805  0.342598 0.648504 0.679757  0.479956 0.627720 1 0 1.000000
0  32.118340 108.521881 36.842072  0.426992 0.450914 0.783808  0.362851 0.702704 1 0 1.000000
brakelight
0  30.169436 109.644974 37.051277  0.298899 0.561918 0.771302  0.510242 0.711193 1 0 1.000000
0  32.118340 108.521881 36.842072  0.426992 0.450914 0.783808  0.362851 0.702704 1 0 1.000000
0  31.457691 110.856155 35.542805  0.342598 0.648504 0.679757  0.479956 0.627720 1 0 1.000000
brakelight
0  31.457691 110.856155 35.542805  0.342598 0.648504 0.679757  0.479956 0.627720 1 0 1.000000
0  28.815113 112.210480 34.816097  0.163845 0.826294 0.538882  0.649557 0.586692 1 0 1.000000
0  30.169436 109.644974 37.051277  0.298899 0.561918 0.771302  0.510242 0.711193 1 0 1.000000
brakelight
0  28.815113 112.210480 34.816097  0.163845 0.826294 0.538882  0.649557 0.586692 1 0 1.000000
0  31.457691 110.856155 35.542805  0.342598 0.648504 0.679757  0.479956 0.627720 1 0 1.000000
0  30.918165 112.430695 33.858162  0.260724 0.855670 0.447048  0.548604 0.538589 1 0 1.000000
brakelight
0  38.020092 105.383820 24.157562  0.949969 0.284449 0.129027  0.011535 0.078785 1 0 1.000000
0  37.425514 107.387772 24.168575  0.926550 0.355059 0.124247  0.132678 0.060393 1 0 1.000000
0  37.744823 105.350784 26.260616  0.947751 0.288358 0.136444  0.029707 0.170746 1 0 1.000000
brakelight
0  30.918165 112.430695 33.858162  0.260724 0.855670 0.447048  0.548604 0.538589 1 0 1.000000
0  30.951197 112.915169 32.437641  0.265783 0.935267 0.233741  0.562738 0.457947 1 0 1.000000
0  28.815113 112.210480 34.816097  0.163845 0.826294 0.538882  0.649557 0.586692 1 0 1.000000
brakelight
0  30.951197 112.915169 32.437641  0.265783 0.935267 0.233741  0.562738 0.457947 1 0 1.000000
0  30.918165 112.430695 33.858162  0.260724 0.855670 0.447048  0.548604 0.538589 1 0 1.000000
0  33.142334 112.045319 32.459663  0.519975 0.823921 0.225345  0.451690 0.466435 1 0 1.000000
brakelight
0  33.142334 112.045319 32.459663  0.519975 0.823921 0.225345  0.451690 0.466435 1 0 1.000000
0  33.483665 112.507767 27.229563  0.483131 0.869411 0.103484  0.449670 0.193382 1 0 1.000000
0  30.951197 112.915169 32.437641  0.265783 0.935267 0.233741  0.562738 0.457947 1 0 1.000000
brakelight
0  33.483665 112.507767 27.229563  0.483131 0.869411 0.103484  0.449670 0.193382 1 0 1.000000
0  33.142334 112.045319 32.459663  0.519975 0.823921 0.225345  0.451690 0.466435 1 0 1.000000
0  35.498631 110.668976 27.251583  0.783961 0.609979 0.115460  0.322470 0.197627 1 0 1.000000
brakelight
0  34.749901 110.503815 32.613815  0.792611 0.559821 0.241596  0.350737 0.473509 1 0 1.000000
0  35.498631 110.668976 27.251583  0.783961 0.609979 0.115460  0.322470 0.197627 1 0 1.000000
0  33.142334 112.045319 32.459663  0.519975 0.823921 0.225345  0.451690 0.466435 1 0 1.000000
brakelight
0  35.498631 110.668976 27.251583  0.783961 0.609979 0.115460  0.322470 0.197627 1 0 1.000000
0  34.749901 110.503815 32.613815  0.792611 0.559821 0.241596  0.350737 0.473509 1 0 1.000000
0  36.863964 107.729111 27.339670  0.924980 0.348611 0.151269  0.173060 0.204701 1 0 1.000000
brakelight
0  35.531670 108.323685 32.834030  0.914700 0.298934 0.271961  0.219498 0.486242 1 0 1.000000
0  36.863964 107.729111 27.339670  0.924980 0.348611 0.151269  0.173060 0.204701 1 0 1.000000
0  34.749901 110.503815 32.613815  0.792611 0.559821 0.241596  0.350737 0.473509 1 0 1.000000
brakelight
0  34.749901 110.503815 32.613815  0.792611 0.559821 0.241596  0.350737 0.473509 1 0 1.000000
0  34.320484 110.382698 33.880184  0.696480 0.527136 0.486871  0.368908 0.548493 1 0 1.000000
0  35.531670 108.323685 32.834030  0.914700 0.298934 0.271961  0.219498 0.486242 1 0 1.000000
brakelight
0  34.992142 108.587944 34.100399  0.825626 0.283614 0.487754  0.282089 0.555567 1 0 1.000000
0  35.531670 108.323685 32.834030  0.914700 0.298934 0.271961  0.219498 0.486242 1 0 1.000000
0  34.320484 110.382698 33.880184  0.696480 0.527136 0.486871  0.368908 0.548493 1 0 1.000000
brakelight
0  34.320484 110.382698 33.880184  0.696480 0.527136 0.486871  0.368908 0.548493 1 0 1.000000
0  33.131325 109.567902 35.641903  0.576461 0.430622 0.694447  0.381022 0.630550 1 0 1.000000
0  34.992142 108.587944 34.100399  0.825626 0.283614 0.487754  0.282089 0.555567 1 0 1.000000
brakelight
0  33.131325 109.567902 35.641903  0.576461 0.430622 0.694447  0.381022 0.630550 1 0 1.000000
0  34.320484 110.382698 33.880184  0.696480 0.527136 0.486871  0.368908 0.548493 1 0 1.000000
0  31.457691 110.856155 35.542805  0.342598 0.648504 0.679757  0.479956 0.627720 1 0 1.000000
brakelight
0  32.789989 111.692978 33.780952  0.489697 0.746261 0.450877  0.457747 0.544248 1 0 1.000000
0  31.457691 110.856155 35.542805  0.342598 0.648504 0.679757  0.479956 0.627720 1 0 1.000000
0  34.320484 110.382698 33.880184  0.696480 0.527136 0.486871  0.368908 0.548493 1 0 1.000000
brakelight
0  30.918165 112.430695 33.858162  0.260724 0.855670 0.447048  0.548604 0.538589 1 0 1.000000
0  31.457691 110.856155 35.542805  0.342598 0.648504 0.679757  0.479956 0.627720 1 0 1.000000
0  32.789989 111.692978 33.780952  0.489697 0.746261 0.450877  0.457747 0.544248 1 0 1.000000
brakelight
0  32.789989 111.692978 33.780952  0.489697 0.746261 0.450877  0.457747 0.544248 1 0 1.000000
0  33.142334 112.045319 32.459663  0.519975 0.823921 0.225345  0.451690 0.466435 1 0 1.000000
0  30.918165 112.430695 33.858162  0.260724 0.855670 0.447048  0.548604 0.538589 1 0 1.000000
brakelight
0  33.142334 112.045319 32.459663  0.519975 0.823921 0.225345  0.451690 0.466435 1 0 1.000000
0  32.789989 111.692978 33.780952  0.489697 0.746261 0.450877  0.457747 0.544248 1 0 1.000000
0  34.749901 110.503815 32.613815  0.792611 0.559821 0.241596  0.350737 0.473509 1 0 1.000000
brakelight
0  34.320484 110.382698 33.880184  0.696480 0.527136 0.486871  0.368908 0.548493 1 0 1.000000
0  34.749901 110.503815 32.613815  0.792611 0.559821 0.241596  0.350737 0.473509 1 0 1.000000
0  32.789989 111.692978 33.780952  0.489697 0.746261 0.450877  0.457747 0.544248 1 0 1.000000
brakelight
0  30.984230 113.399643 27.229563  0.290227 0.950612 0.110024  0.576871 0.189138 1 0 1.000000
0  30.951197 112.915169 32.437641  0.265783 0.935267 0.233741  0.562738 0.457947 1 0 1.000000
0  33.483665 112.507767 27.229563  0.483131 0.869411 0.103484  0.449670 0.193382 1 0 1.000000
brakelight
0  31.072313 113.862091 24.113522  0.268240 0.952779 0.142336  0.584947 0.039171 1 0 1.000000
0  30.984230 113.399643 27.229563  0.290227 0.950612 0.110024  0.576871 0.189138 1 0 1.000000
0  33.604786 112.816071 24.135544  0.521325 0.845395 0.116305  0.453709 0.037756 1 0 1.000000
brakelight
0  27.405739 113.818047 32.492695  0.218169 0.959466 0.178403  0.748491 0.462191 1 0 1.000000
0  28.815113 112.210480 34.816097  0.163845 0.826294 0.538882  0.649557 0.586692 1 0 1.000000
0  30.951197 112.915169 32.437641  0.265783 0.935267 0.233741  0.562738 0.457947 1 0 1.000000
brakelight
0  30.951197 112.915169 32.437641  0.265783 0.935267 0.233741  0.562738 0.457947 1 0 1.000000
0  30.984230 113.399643 27.229563  0.290227 0.950612 0.110024  0.576871 0.189138 1 0 1.000000
0  27.405739 113.818047 32.492695  0.218169 0.959466 0.178403  0.748491 0.462191 1 0 1.000000
brakelight
0  27.053394 114.302521 27.229563  0.195544 0.974224 0.112477  0.746472 0.193382 1 0 1.000000
0  27.405739 113.818047 32.492695  0.218169 0.959466 0.178403  0.748491 0.462191 1 0 1.000000
0  30.984230 113.399643 27.229563  0.290227 0.950612 0.110024  0.576871 0.189138 1 0 1.000000
brakelight
0  30.984230 113.399643 27.229563  0.290227 0.950612 0.110024  0.576871 0.189138 1 0 1.000000
0  31.072313 113.862091 24.113522  0.268240 0.952779 0.142336  0.584947 0.039171 1 0 1.000000
0  27.053394 114.302521 27.229563  0.195544 0.974224 0.112477  0.746472 0.193382 1 0 1.000000
brakelight
0  26.899242 114.742950 24.091501  0.170420 0.977371 0.125309  0.792910 0.047660 1 0 1.000000
0  27.053394 114.302521 27.229563  0.195544 0.974224 0.112477  0.746472 0.193382 1 0 1.000000
0  31.072313 113.862091 24.113522  0.268240 0.952779 0.142336  0.584947 0.039171 1 0 1.000000
brakelight
0  27.053394 114.302521 27.229563  0.195544 0.974224 0.112477  0.746472 0.193382 1 0 1.000000
0  26.899242 114.742950 24.091501  0.170420 0.977371 0.125309  0.792910 0.047660 1 0 1.000000
0  24.840235 114.676888 27.218552  0.157610 0.981520 0.108522  0.905977 0.207530 1 0 1.000000
brakelight
0  23.386816 115.260452 24.036448  0.142829 0.982815 0.116936  0.986740 0.064637 1 0 1.000000
0  24.840235 114.676888 27.218552  0.157610 0.981520 0.108522  0.905977 0.207530 1 0 1.000000
0  26.899242 114.742950 24.091501  0.170420 0.977371 0.125309  0.792910 0.047660 1 0 1.000000
brakelight
0  27.053394 114.302521 27.229563  0.195544 0.974224 0.112477  0.746472 0.193382 1 0 1.000000
0  24.840235 114.676888 27.218552  0.157610 0.981520 0.108522  0.905977 0.207530 1 0 1.000000
0  27.405739 113.818047 32.492695  0.218169 0.959466 0.178403  0.748491 0.462191 1 0 1.000000
brakelight
0  -35.861992 110.790092 24.124537  -0.837525 0.534785 0.112059  0.298241 0.044830 1 0 1.000000
0  -35.520657 110.668976 27.251587  -0.805969 0.578293 0.126457  0.322470 0.197627 1 0 1.000000
0  -33.626812 112.816071 24.135548  -0.579961 0.807895 0.104648  0.453709 0.037756 1 0 1.000000
brakelight
0  -35.520657 110.668976 27.251587  -0.805969 0.578293 0.126457  0.322470 0.197627 1 0 1.000000
0  -35.861992 110.790092 24.124537  -0.837525 0.534785 0.112059  0.298241 0.044830 1 0 1.000000
0  -36.885990 107.729111 27.339674  -0.926137 0.341343 0.160487  0.173060 0.204701 1 0 1.000000
brakelight
0  -36.885990 107.729111 27.339674  -0.926137 0.341343 0.160487  0.173060 0.204701 1 0 1.000000
0  -35.553688 108.323685 32.834038  -0.923597 0.290480 0.250181  0.219498 0.486242 1 0 1.000000
0  -35.520657 110.668976 27.251587  -0.805969 0.578293 0.126457  0.322470 0.197627 1 0 1.000000
brakelight
0  -37.447536 107.387772 24.168579  -0.934336 0.332936 0.127164  0.132678 0.060393 1 0 1.000000
0  -36.885990 107.729111 27.339674  -0.926137 0.341343 0.160487  0.173060 0.204701 1 0 1.000000
0  -35.861992 110.790092 24.124537  -0.837525 0.534785 0.112059  0.298241 0.044830 1 0 1.000000
brakelight
0  -38.042118 105.383820 24.157570  -0.949914 0.284633 0.129027  0.011535 0.078785 1 0 1.000000
0  -37.766850 105.350784 26.260620  -0.947699 0.288542 0.136421  0.029707 0.170746 1 0 1.000000
0  -37.447536 107.387772 24.168579  -0.934336 0.332936 0.127164  0.132678 0.060393 1 0 1.000000
brakelight
0  -36.885990 107.729111 27.339674  -0.926137 0.341343 0.160487  0.173060 0.204701 1 0 1.000000
0  -37.447536 107.387772 24.168579  -0.934336 0.332936 0.127164  0.132678 0.060393 1 0 1.000000
0  -37.766850 105.350784 26.260620  -0.947699 0.288542 0.136421  0.029707 0.170746 1 0 1.000000
brakelight
0  -37.766850 105.350784 26.260620  -0.947699 0.288542 0.136421  0.029707 0.170746 1 0 1.000000
0  -37.260357 105.747177 28.826124  -0.929674 0.318019 0.185932  0.051916 0.281099 1 0 1.000000
0  -36.885990 107.729111 27.339674  -0.926137 0.341343 0.160487  0.173060 0.204701 1 0 1.000000
brakelight
0  -37.260357 105.747177 28.826124  -0.929674 0.318019 0.185932  0.051916 0.281099 1 0 1.000000
0  -35.828957 106.727127 33.065262  -0.934141 0.249111 0.255586  0.110469 0.489072 1 0 1.000000
0  -36.885990 107.729111 27.339674  -0.926137 0.341343 0.160487  0.173060 0.204701 1 0 1.000000
brakelight
0  -35.553688 108.323685 32.834038  -0.923597 0.290480 0.250181  0.219498 0.486242 1 0 1.000000
0  -36.885990 107.729111 27.339674  -0.926137 0.341343 0.160487  0.173060 0.204701 1 0 1.000000
0  -35.828957 106.727127 33.065262  -0.934141 0.249111 0.255586  0.110469 0.489072 1 0 1.000000
brakelight
0  -35.828957 106.727127 33.065262  -0.934141 0.249111 0.255586  0.110469 0.489072 1 0 1.000000
0  -35.344482 107.013412 34.265568  -0.871826 0.218936 0.438163  0.158926 0.566885 1 0 1.000000
0  -35.553688 108.323685 32.834038  -0.923597 0.290480 0.250181  0.219498 0.486242 1 0 1.000000
brakelight
0  -33.626812 112.816071 24.135548  -0.579961 0.807895 0.104648  0.453709 0.037756 1 0 1.000000
0  -33.505692 112.507767 27.229567  -0.520794 0.845784 0.115855  0.449670 0.193382 1 0 1.000000
0  -31.094339 113.862091 24.113525  -0.306267 0.942195 0.135899  0.584947 0.039171 1 0 1.000000
brakelight
0  -33.505692 112.507767 27.229567  -0.520794 0.845784 0.115855  0.449670 0.193382 1 0 1.000000
0  -33.626812 112.816071 24.135548  -0.579961 0.807895 0.104648  0.453709 0.037756 1 0 1.000000
0  -35.520657 110.668976 27.251587  -0.805969 0.578293 0.126457  0.322470 0.197627 1 0 1.000000
brakelight
0  -35.520657 110.668976 27.251587  -0.805969 0.578293 0.126457  0.322470 0.197627 1 0 1.000000
0  -34.771927 110.503815 32.613823  -0.803558 0.552562 0.221293  0.350737 0.473509 1 0 1.000000
0  -33.505692 112.507767 27.229567  -0.520794 0.845784 0.115855  0.449670 0.193382 1 0 1.000000
brakelight
0  -34.771927 110.503815 32.613823  -0.803558 0.552562 0.221293  0.350737 0.473509 1 0 1.000000
0  -35.520657 110.668976 27.251587  -0.805969 0.578293 0.126457  0.322470 0.197627 1 0 1.000000
0  -35.553688 108.323685 32.834038  -0.923597 0.290480 0.250181  0.219498 0.486242 1 0 1.000000
brakelight
0  -35.553688 108.323685 32.834038  -0.923597 0.290480 0.250181  0.219498 0.486242 1 0 1.000000
0  -35.014160 108.587944 34.100407  -0.816104 0.307021 0.489604  0.282089 0.555567 1 0 1.000000
0  -34.771927 110.503815 32.613823  -0.803558 0.552562 0.221293  0.350737 0.473509 1 0 1.000000
brakelight
0  -35.014160 108.587944 34.100407  -0.816104 0.307021 0.489604  0.282089 0.555567 1 0 1.000000
0  -35.553688 108.323685 32.834038  -0.923597 0.290480 0.250181  0.219498 0.486242 1 0 1.000000
0  -35.344482 107.013412 34.265568  -0.871826 0.218936 0.438163  0.158926 0.566885 1 0 1.000000
brakelight
0  -35.344482 107.013412 34.265568  -0.871826 0.218936 0.438163  0.158926 0.566885 1 0 1.000000
0  -33.858032 107.751129 35.752018  -0.683445 0.273147 0.676974  0.245746 0.639039 1 0 1.000000
0  -35.014160 108.587944 34.100407  -0.816104 0.307021 0.489604  0.282089 0.555567 1 0 1.000000
brakelight
0  -33.153343 109.567902 35.641911  -0.560986 0.460692 0.687792  0.381022 0.630550 1 0 1.000000
0  -35.014160 108.587944 34.100407  -0.816104 0.307021 0.489604  0.282089 0.555567 1 0 1.000000
0  -33.858032 107.751129 35.752018  -0.683445 0.273147 0.676974  0.245746 0.639039 1 0 1.000000
brakelight
0  -33.153343 109.567902 35.641911  -0.560986 0.460692 0.687792  0.381022 0.630550 1 0 1.000000
0  -33.858032 107.751129 35.752018  -0.683445 0.273147 0.676974  0.245746 0.639039 1 0 1.000000
0  -32.140358 108.521881 36.842079  -0.427038 0.450901 0.783790  0.362851 0.702704 1 0 1.000000
brakelight
0  -33.153343 109.567902 35.641911  -0.560986 0.460692 0.687792  0.381022 0.630550 1 0 1.000000
0  -32.140358 108.521881 36.842079  -0.427038 0.450901 0.783790  0.362851 0.702704 1 0 1.000000
0  -31.479713 110.856155 35.542812  -0.317324 0.652238 0.688398  0.479956 0.627720 1 0 1.000000
brakelight
0  -30.191458 109.644974 37.051285  -0.298946 0.561907 0.771292  0.510242 0.711193 1 0 1.000000
0  -31.479713 110.856155 35.542812  -0.317324 0.652238 0.688398  0.479956 0.627720 1 0 1.000000
0  -32.140358 108.521881 36.842079  -0.427038 0.450901 0.783790  0.362851 0.702704 1 0 1.000000
brakelight
0  -28.837135 112.210480 34.816105  -0.171158 0.768672 0.616319  0.649557 0.586692 1 0 1.000000
0  -31.479713 110.856155 35.542812  -0.317324 0.652238 0.688398  0.479956 0.627720 1 0 1.000000
0  -30.191458 109.644974 37.051285  -0.298946 0.561907 0.771292  0.510242 0.711193 1 0 1.000000
brakelight
0  -31.479713 110.856155 35.542812  -0.317324 0.652238 0.688398  0.479956 0.627720 1 0 1.000000
0  -28.837135 112.210480 34.816105  -0.171158 0.768672 0.616319  0.649557 0.586692 1 0 1.000000
0  -30.940187 112.430695 33.858170  -0.255990 0.839671 0.478980  0.548604 0.538589 1 0 1.000000
brakelight
0  -28.837135 112.210480 34.816105  -0.171158 0.768672 0.616319  0.649557 0.586692 1 0 1.000000
0  -27.427761 113.818047 32.492702  -0.201143 0.947449 0.248760  0.748491 0.462191 1 0 1.000000
0  -30.940187 112.430695 33.858170  -0.255990 0.839671 0.478980  0.548604 0.538589 1 0 1.000000
brakelight
0  -30.973219 112.915169 32.437649  -0.299153 0.932320 0.203192  0.562738 0.457947 1 0 1.000000
0  -30.940187 112.430695 33.858170  -0.255990 0.839671 0.478980  0.548604 0.538589 1 0 1.000000
0  -27.427761 113.818047 32.492702  -0.201143 0.947449 0.248760  0.748491 0.462191 1 0 1.000000
brakelight
0  -27.427761 113.818047 32.492702  -0.201143 0.947449 0.248760  0.748491 0.462191 1 0 1.000000
0  -27.075417 114.302521 27.229567  -0.193508 0.975805 0.101781  0.746472 0.193382 1 0 1.000000
0  -30.973219 112.915169 32.437649  -0.299153 0.932320 0.203192  0.562738 0.457947 1 0 1.000000
brakelight
0  -31.006252 113.399643 27.229567  -0.280961 0.952407 0.118245  0.576871 0.189138 1 0 1.000000
0  -30.973219 112.915169 32.437649  -0.299153 0.932320 0.203192  0.562738 0.457947 1 0 1.000000
0  -27.075417 114.302521 27.229567  -0.193508 0.975805 0.101781  0.746472 0.193382 1 0 1.000000
brakelight
0  -27.075417 114.302521 27.229567  -0.193508 0.975805 0.101781  0.746472 0.193382 1 0 1.000000
0  -26.921268 114.742950 24.091505  -0.189220 0.972404 0.136480  0.792910 0.047660 1 0 1.000000
0  -31.006252 113.399643 27.229567  -0.280961 0.952407 0.118245  0.576871 0.189138 1 0 1.000000
brakelight
0  -30.191458 109.644974 37.051285  -0.298946 0.561907 0.771292  0.510242 0.711193 1 0 1.000000
0  -32.140358 108.521881 36.842079  -0.427038 0.450901 0.783790  0.362851 0.702704 1 0 1.000000
0  -30.367628 109.138481 37.238468  -0.340281 0.441311 0.830333  0.469861 0.732414 1 0 1.000000
brakelight
0  -31.094339 113.862091 24.113525  -0.306267 0.942195 0.135899  0.584947 0.039171 1 0 1.000000
0  -31.006252 113.399643 27.229567  -0.280961 0.952407 0.118245  0.576871 0.189138 1 0 1.000000
0  -26.921268 114.742950 24.091505  -0.189220 0.972404 0.136480  0.792910 0.047660 1 0 1.000000
brakelight
0  -31.006252 113.399643 27.229567  -0.280961 0.952407 0.118245  0.576871 0.189138 1 0 1.000000
0  -31.094339 113.862091 24.113525  -0.306267 0.942195 0.135899  0.584947 0.039171 1 0 1.000000
0  -33.505692 112.507767 27.229567  -0.520794 0.845784 0.115855  0.449670 0.193382 1 0 1.000000
brakelight
0  -33.505692 112.507767 27.229567  -0.520794 0.845784 0.115855  0.449670 0.193382 1 0 1.000000
0  -33.164360 112.045319 32.459671  -0.507238 0.834203 0.216369  0.451690 0.466435 1 0 1.000000
0  -31.006252 113.399643 27.229567  -0.280961 0.952407 0.118245  0.576871 0.189138 1 0 1.000000
brakelight
0  -33.164360 112.045319 32.459671  -0.507238 0.834203 0.216369  0.451690 0.466435 1 0 1.000000
0  -33.505692 112.507767 27.229567  -0.520794 0.845784 0.115855  0.449670 0.193382 1 0 1.000000
0  -34.771927 110.503815 32.613823  -0.803558 0.552562 0.221293  0.350737 0.473509 1 0 1.000000
brakelight
0  -34.771927 110.503815 32.613823  -0.803558 0.552562 0.221293  0.350737 0.473509 1 0 1.000000
0  -34.342510 110.382698 33.880192  -0.682516 0.568030 0.459906  0.368908 0.548493 1 0 1.000000
0  -33.164360 112.045319 32.459671  -0.507238 0.834203 0.216369  0.451690 0.466435 1 0 1.000000
brakelight
0  -34.342510 110.382698 33.880192  -0.682516 0.568030 0.459906  0.368908 0.548493 1 0 1.000000
0  -34.771927 110.503815 32.613823  -0.803558 0.552562 0.221293  0.350737 0.473509 1 0 1.000000
0  -35.014160 108.587944 34.100407  -0.816104 0.307021 0.489604  0.282089 0.555567 1 0 1.000000
brakelight
0  -33.153343 109.567902 35.641911  -0.560986 0.460692 0.687792  0.381022 0.630550 1 0 1.000000
0  -34.342510 110.382698 33.880192  -0.682516 0.568030 0.459906  0.368908 0.548493 1 0 1.000000
0  -35.014160 108.587944 34.100407  -0.816104 0.307021 0.489604  0.282089 0.555567 1 0 1.000000
brakelight
0  -34.342510 110.382698 33.880192  -0.682516 0.568030 0.459906  0.368908 0.548493 1 0 1.000000
0  -33.153343 109.567902 35.641911  -0.560986 0.460692 0.687792  0.381022 0.630550 1 0 1.000000
0  -32.812016 111.692978 33.780960  -0.434754 0.760114 0.482923  0.457747 0.544248 1 0 1.000000
brakelight
0  -31.479713 110.856155 35.542812  -0.317324 0.652238 0.688398  0.479956 0.627720 1 0 1.000000
0  -32.812016 111.692978 33.780960  -0.434754 0.760114 0.482923  0.457747 0.544248 1 0 1.000000
0  -33.153343 109.567902 35.641911  -0.560986 0.460692 0.687792  0.381022 0.630550 1 0 1.000000
brakelight
0  -31.479713 110.856155 35.542812  -0.317324 0.652238 0.688398  0.479956 0.627720 1 0 1.000000
0  -30.940187 112.430695 33.858170  -0.255990 0.839671 0.478980  0.548604 0.538589 1 0 1.000000
0  -32.812016 111.692978 33.780960  -0.434754 0.760114 0.482923  0.457747 0.544248 1 0 1.000000
brakelight
0  -30.940187 112.430695 33.858170  -0.255990 0.839671 0.478980  0.548604 0.538589 1 0 1.000000
0  -30.973219 112.915169 32.437649  -0.299153 0.932320 0.203192  0.562738 0.457947 1 0 1.000000
0  -32.812016 111.692978 33.780960  -0.434754 0.760114 0.482923  0.457747 0.544248 1 0 1.000000
brakelight
0  -33.164360 112.045319 32.459671  -0.507238 0.834203 0.216369  0.451690 0.466435 1 0 1.000000
0  -32.812016 111.692978 33.780960  -0.434754 0.760114 0.482923  0.457747 0.544248 1 0 1.000000
0  -30.973219 112.915169 32.437649  -0.299153 0.932320 0.203192  0.562738 0.457947 1 0 1.000000
brakelight
0  -30.973219 112.915169 32.437649  -0.299153 0.932320 0.203192  0.562738 0.457947 1 0 1.000000
0  -31.006252 113.399643 27.229567  -0.280961 0.952407 0.118245  0.576871 0.189138 1 0 1.000000
0  -33.164360 112.045319 32.459671  -0.507238 0.834203 0.216369  0.451690 0.466435 1 0 1.000000
brakelight
0  -32.812016 111.692978 33.780960  -0.434754 0.760114 0.482923  0.457747 0.544248 1 0 1.000000
0  -33.164360 112.045319 32.459671  -0.507238 0.834203 0.216369  0.451690 0.466435 1 0 1.000000
0  -34.342510 110.382698 33.880192  -0.682516 0.568030 0.459906  0.368908 0.548493 1 0 1.000000
brakelight
0  -26.921268 114.742950 24.091505  -0.189220 0.972404 0.136480  0.792910 0.047660 1 0 1.000000
0  -27.075417 114.302521 27.229567  -0.193508 0.975805 0.101781  0.746472 0.193382 1 0 1.000000
0  -23.408842 115.260452 24.036451  -0.153524 0.980890 0.119519  0.986740 0.064637 1 0 1.000000
brakelight
0  -24.862257 114.676888 27.218555  -0.165109 0.981910 0.092693  0.905977 0.207530 1 0 1.000000
0  -23.408842 115.260452 24.036451  -0.153524 0.980890 0.119519  0.986740 0.064637 1 0 1.000000
0  -27.075417 114.302521 27.229567  -0.193508 0.975805 0.101781  0.746472 0.193382 1 0 1.000000
brakelight
0  -24.862257 114.676888 27.218555  -0.165109 0.981910 0.092693  0.905977 0.207530 1 0 1.000000
0  -27.075417 114.302521 27.229567  -0.193508 0.975805 0.101781  0.746472 0.193382 1 0 1.000000
0  -27.427761 113.818047 32.492702  -0.201143 0.947449 0.248760  0.748491 0.462191 1 0 1.000000
end
