version 1
nodes
0 "root" -1
end
skeleton
time 0
0  0.000000 0.000000 0.000000  0.000000 -0.000000 0.000000
end
triangles
driver
0  27.618011 -9.023169 22.927582  0.999124 0.038958 -0.015274  0.585938 0.050781 1 0 1.000000
0  24.948914 -14.103882 25.028675  0.734426 -0.401307 0.547331  0.580078 0.175781 1 0 1.000000
0  27.554150 -11.203334 20.739643  0.997972 -0.063217 0.007406  0.521484 0.050781 1 0 1.000000
driver
0  6.504124 -13.154456 32.620682  -0.621131 0.295168 -0.725997  0.744141 0.738281 1 0 1.000000
0  9.844882 -8.294444 32.549442  -0.826589 -0.010384 -0.562710  0.984375 0.691406 1 0 1.000000
0  10.297417 -14.090906 32.308937  0.583184 -0.225147 -0.780516  0.744141 0.687500 1 0 1.000000
driver
0  9.844882 -8.294444 32.549442  -0.826589 -0.010384 -0.562710  0.984375 0.691406 1 0 1.000000
0  6.504124 -13.154456 32.620682  -0.621131 0.295168 -0.725997  0.744141 0.738281 1 0 1.000000
0  10.772740 -1.036675 34.734940  -0.649941 0.659904 -0.376965  0.960938 0.738281 1 0 1.000000
driver
0  13.499965 -11.082436 35.793064  0.232382 -0.956612 0.175763  0.990234 0.671875 1 0 1.000000
0  10.279684 -15.003358 36.843201  0.942282 -0.136566 0.305702  0.742188 0.632812 1 0 1.000000
0  10.297417 -14.090906 32.308937  0.583184 -0.225147 -0.780516  0.744141 0.687500 1 0 1.000000
driver
0  8.450644 -1.120671 39.400238  -0.862995 0.446067 0.237200  0.988281 0.501953 1 0 1.000000
0  10.772740 -1.036675 34.734940  -0.649941 0.659904 -0.376965  0.960938 0.414062 1 0 1.000000
0  6.504124 -13.154456 32.620682  -0.621131 0.295168 -0.725997  0.744141 0.414062 1 0 1.000000
driver
0  6.504124 -13.154456 32.620682  -0.621131 0.295168 -0.725997  0.744141 0.414062 1 0 1.000000
0  4.846483 -13.371539 36.192486  -0.992968 0.070636 0.095002  0.744141 0.501953 1 0 1.000000
0  8.450644 -1.120671 39.400238  -0.862995 0.446067 0.237200  0.988281 0.501953 1 0 1.000000
driver
0  7.799623 -14.896022 39.598633  -0.426032 -0.063295 0.902491  0.744141 0.576172 1 0 1.000000
0  8.450644 -1.120671 39.400238  -0.862995 0.446067 0.237200  0.988281 0.501953 1 0 1.000000
0  4.846483 -13.371539 36.192486  -0.992968 0.070636 0.095002  0.744141 0.501953 1 0 1.000000
driver
0  8.450644 -1.120671 39.400238  -0.862995 0.446067 0.237200  0.988281 0.501953 1 0 1.000000
0  7.799623 -14.896022 39.598633  -0.426032 -0.063295 0.902491  0.744141 0.576172 1 0 1.000000
0  10.570436 -3.532952 42.245468  -0.417708 0.077150 0.905300  0.982422 0.576172 1 0 1.000000
driver
0  7.799623 -14.896022 39.598633  -0.426032 -0.063295 0.902491  0.744141 0.576172 1 0 1.000000
0  11.975223 -8.413027 42.320358  0.149598 -0.535846 0.830957  0.958984 0.628906 1 0 1.000000
0  10.570436 -3.532952 42.245468  -0.417708 0.077150 0.905300  0.982422 0.576172 1 0 1.000000
driver
0  11.975223 -8.413027 42.320358  0.149598 -0.535846 0.830957  0.958984 0.628906 1 0 1.000000
0  7.799623 -14.896022 39.598633  -0.426032 -0.063295 0.902491  0.744141 0.576172 1 0 1.000000
0  10.279684 -15.003358 36.843201  0.942282 -0.136566 0.305702  0.742188 0.632812 1 0 1.000000
driver
0  10.279684 -15.003358 36.843201  0.942282 -0.136566 0.305702  0.742188 0.632812 1 0 1.000000
0  13.499965 -11.082436 35.793064  0.232382 -0.956612 0.175763  0.876953 0.748047 1 0 1.000000
0  11.975223 -8.413027 42.320358  0.149598 -0.535846 0.830957  0.958984 0.628906 1 0 1.000000
driver
0  9.204154 -13.255725 33.461258  0.450327 -0.082898 -0.889007  0.738281 0.687500 1 0 1.000000
0  6.266887 -14.759291 33.457100  -0.468779 -0.150798 -0.870348  0.708984 0.738281 1 0 1.000000
0  6.619553 -13.248281 33.711407  -0.666571 0.174139 -0.724816  0.738281 0.738281 1 0 1.000000
driver
0  9.204154 -13.255725 33.461258  0.450327 -0.082898 -0.889007  0.738281 0.687500 1 0 1.000000
0  10.317918 -26.251541 38.410751  -0.275132 -0.446749 -0.851304  0.490234 0.738281 1 0 1.000000
0  6.266887 -14.759291 33.457100  -0.468779 -0.150798 -0.870348  0.708984 0.738281 1 0 1.000000
driver
0  9.204154 -13.255725 33.461258  0.450327 -0.082898 -0.889007  0.738281 0.687500 1 0 1.000000
0  12.325319 -25.234262 39.979939  0.923458 0.238982 0.300188  0.492188 0.628906 1 0 1.000000
0  10.317918 -26.251541 38.410751  -0.275132 -0.446749 -0.851304  0.490234 0.738281 1 0 1.000000
driver
0  9.204154 -13.255725 33.461258  0.450327 -0.082898 -0.889007  0.738281 0.687500 1 0 1.000000
0  10.279684 -15.003358 36.843201  0.942282 -0.136566 0.305702  0.742188 0.632812 1 0 1.000000
0  12.325319 -25.234262 39.979939  0.923458 0.238982 0.300188  0.492188 0.628906 1 0 1.000000
driver
0  10.279684 -15.003358 36.843201  0.942282 -0.136566 0.305702  0.742188 0.632812 1 0 1.000000
0  11.017578 -24.571838 41.257019  0.166294 0.412950 0.895443  0.492188 0.576172 1 0 1.000000
0  12.325319 -25.234262 39.979939  0.923458 0.238982 0.300188  0.492188 0.628906 1 0 1.000000
driver
0  11.017578 -24.571838 41.257019  0.166294 0.412950 0.895443  0.492188 0.576172 1 0 1.000000
0  10.279684 -15.003358 36.843201  0.942282 -0.136566 0.305702  0.742188 0.632812 1 0 1.000000
0  7.799623 -14.896022 39.598633  -0.426032 -0.063295 0.902491  0.744141 0.576172 1 0 1.000000
driver
0  8.824768 -25.566235 39.593788  -0.962427 -0.026246 0.270270  0.492188 0.501953 1 0 1.000000
0  11.017578 -24.571838 41.257019  0.166294 0.412950 0.895443  0.492188 0.576172 1 0 1.000000
0  7.799623 -14.896022 39.598633  -0.426032 -0.063295 0.902491  0.744141 0.576172 1 0 1.000000
driver
0  7.799623 -14.896022 39.598633  -0.426032 -0.063295 0.902491  0.744141 0.576172 1 0 1.000000
0  5.044584 -15.282148 35.882557  -0.969533 -0.222975 -0.101431  0.712891 0.501953 1 0 1.000000
0  8.824768 -25.566235 39.593788  -0.962427 -0.026246 0.270270  0.492188 0.501953 1 0 1.000000
driver
0  5.044584 -15.282148 35.882557  -0.969533 -0.222975 -0.101431  0.712891 0.501953 1 0 1.000000
0  10.317918 -26.251541 38.410751  -0.275132 -0.446749 -0.851304  0.492188 0.406250 1 0 1.000000
0  8.824768 -25.566235 39.593788  -0.962427 -0.026246 0.270270  0.492188 0.501953 1 0 1.000000
driver
0  10.317918 -26.251541 38.410751  -0.275132 -0.446749 -0.851304  0.492188 0.406250 1 0 1.000000
0  5.044584 -15.282148 35.882557  -0.969533 -0.222975 -0.101431  0.712891 0.501953 1 0 1.000000
0  6.266887 -14.759291 33.457100  -0.468779 -0.150798 -0.870348  0.703125 0.406250 1 0 1.000000
driver
0  5.044584 -15.282148 35.882557  -0.969533 -0.222975 -0.101431  0.712891 0.501953 1 0 1.000000
0  6.619553 -13.248281 33.711407  -0.666571 0.174139 -0.724816  0.738281 0.406250 1 0 1.000000
0  6.266887 -14.759291 33.457100  -0.468779 -0.150798 -0.870348  0.703125 0.406250 1 0 1.000000
driver
0  6.619553 -13.248281 33.711407  -0.666571 0.174139 -0.724816  0.738281 0.406250 1 0 1.000000
0  5.044584 -15.282148 35.882557  -0.969533 -0.222975 -0.101431  0.712891 0.501953 1 0 1.000000
0  4.846483 -13.371539 36.192486  -0.992968 0.070636 0.095002  0.738281 0.501953 1 0 1.000000
driver
0  5.044584 -15.282148 35.882557  -0.969533 -0.222975 -0.101431  0.712891 0.501953 1 0 1.000000
0  7.799623 -14.896022 39.598633  -0.426032 -0.063295 0.902491  0.744141 0.576172 1 0 1.000000
0  4.846483 -13.371539 36.192486  -0.992968 0.070636 0.095002  0.738281 0.501953 1 0 1.000000
driver
0  18.493931 -0.173364 42.795849  0.000011 0.890444 0.455094  0.441406 0.378906 1 0 1.000000
0  12.348673 0.217850 41.969017  -0.277883 0.799290 0.532838  0.431641 0.515625 1 0 1.000000
0  15.950505 -2.377075 43.181309  -0.739388 0.406705 0.536559  0.441406 0.425781 1 0 1.000000
driver
0  21.037354 -2.377083 43.181316  0.739408 0.406659 0.536566  0.441406 0.425781 1 0 1.000000
0  24.639183 0.217850 41.969028  0.277864 0.799292 0.532845  0.431641 0.515625 1 0 1.000000
0  18.493931 -0.173364 42.795849  0.000011 0.890444 0.455094  0.441406 0.378906 1 0 1.000000
driver
0  8.450644 -1.120671 39.400238  -0.862995 0.446067 0.237200  0.410156 0.611328 1 0 1.000000
0  10.570436 -3.532952 42.245468  -0.417708 0.077150 0.905300  0.468750 0.527344 1 0 1.000000
0  12.348673 0.217850 41.969017  -0.277883 0.799290 0.532838  0.431641 0.515625 1 0 1.000000
driver
0  15.950505 -2.377075 43.181309  -0.739388 0.406705 0.536559  0.468750 0.458984 1 0 1.000000
0  12.348673 0.217850 41.969017  -0.277883 0.799290 0.532838  0.431641 0.515625 1 0 1.000000
0  10.570436 -3.532952 42.245468  -0.417708 0.077150 0.905300  0.468750 0.527344 1 0 1.000000
driver
0  24.639183 0.217850 41.969028  0.277864 0.799292 0.532845  0.431641 0.515625 1 0 1.000000
0  26.417423 -3.532949 42.245476  0.417709 0.077150 0.905300  0.468750 0.527344 1 0 1.000000
0  28.537214 -1.120666 39.400242  0.862994 0.446068 0.237201  0.410156 0.611328 1 0 1.000000
driver
0  26.417423 -3.532949 42.245476  0.417709 0.077150 0.905300  0.468750 0.527344 1 0 1.000000
0  24.639183 0.217850 41.969028  0.277864 0.799292 0.532845  0.431641 0.515625 1 0 1.000000
0  21.037354 -2.377083 43.181316  0.739408 0.406659 0.536566  0.468750 0.458984 1 0 1.000000
driver
0  28.537214 -1.120666 39.400242  0.862994 0.446068 0.237201  0.410156 0.611328 1 0 1.000000
0  26.215118 -1.036675 34.734936  0.649933 0.659917 -0.376959  0.316406 0.505859 1 0 1.000000
0  24.639183 0.217850 41.969028  0.277864 0.799292 0.532845  0.425781 0.511719 1 0 1.000000
driver
0  26.215118 -1.036675 34.734936  0.649933 0.659917 -0.376959  0.316406 0.505859 1 0 1.000000
0  18.493929 0.450054 35.067905  -0.000003 0.999690 -0.024914  0.306641 0.378906 1 0 1.000000
0  24.639183 0.217850 41.969028  0.277864 0.799292 0.532845  0.425781 0.511719 1 0 1.000000
driver
0  18.493931 -0.173364 42.795849  0.000011 0.890444 0.455094  0.380859 0.378906 1 0 1.000000
0  24.639183 0.217850 41.969028  0.277864 0.799292 0.532845  0.425781 0.511719 1 0 1.000000
0  18.493929 0.450054 35.067905  -0.000003 0.999690 -0.024914  0.306641 0.378906 1 0 1.000000
driver
0  18.493929 0.450054 35.067905  -0.000003 0.999690 -0.024914  0.306641 0.378906 1 0 1.000000
0  12.348673 0.217850 41.969017  -0.277883 0.799290 0.532838  0.425781 0.511719 1 0 1.000000
0  18.493931 -0.173364 42.795849  0.000011 0.890444 0.455094  0.380859 0.378906 1 0 1.000000
driver
0  12.348673 0.217850 41.969017  -0.277883 0.799290 0.532838  0.425781 0.511719 1 0 1.000000
0  18.493929 0.450054 35.067905  -0.000003 0.999690 -0.024914  0.306641 0.378906 1 0 1.000000
0  10.772740 -1.036675 34.734940  -0.649941 0.659904 -0.376965  0.316406 0.505859 1 0 1.000000
driver
0  12.348673 0.217850 41.969017  -0.277883 0.799290 0.532838  0.425781 0.511719 1 0 1.000000
0  10.772740 -1.036675 34.734940  -0.649941 0.659904 -0.376965  0.316406 0.505859 1 0 1.000000
0  8.450644 -1.120671 39.400238  -0.862995 0.446067 0.237200  0.410156 0.611328 1 0 1.000000
driver
0  11.994887 -3.597220 19.155954  -0.947649 0.301019 -0.106529  0.107422 0.521484 1 0 1.000000
0  9.844882 -8.294444 32.549442  -0.826589 -0.010384 -0.562710  0.404297 0.683594 1 0 1.000000
0  10.772740 -1.036675 34.734940  -0.649941 0.659904 -0.376965  0.316406 0.505859 1 0 1.000000
driver
0  9.844882 -8.294444 32.549442  -0.826589 -0.010384 -0.562710  0.404297 0.683594 1 0 1.000000
0  11.994887 -3.597220 19.155954  -0.947649 0.301019 -0.106529  0.107422 0.521484 1 0 1.000000
0  9.369912 -9.023169 22.927584  -0.999124 0.038955 -0.015262  0.103516 0.683594 1 0 1.000000
driver
0  26.215118 -1.036675 34.734936  0.649933 0.659917 -0.376959  0.316406 0.505859 1 0 1.000000
0  27.143042 -8.294443 32.549446  0.826584 -0.010415 -0.562717  0.404297 0.683594 1 0 1.000000
0  24.992970 -3.597218 19.155952  0.947640 0.301049 -0.106529  0.107422 0.521484 1 0 1.000000
driver
0  27.618011 -9.023169 22.927582  0.999124 0.038958 -0.015274  0.103516 0.683594 1 0 1.000000
0  24.992970 -3.597218 19.155952  0.947640 0.301049 -0.106529  0.107422 0.521484 1 0 1.000000
0  27.143042 -8.294443 32.549446  0.826584 -0.010415 -0.562717  0.404297 0.683594 1 0 1.000000
driver
0  12.080761 -7.110012 14.181007  -0.942918 0.154585 -0.294973  0.000000 0.521484 1 0 1.000000
0  9.369912 -9.023169 22.927584  -0.999124 0.038955 -0.015262  0.076172 0.683594 1 0 1.000000
0  11.994887 -3.597220 19.155954  -0.947649 0.301019 -0.106529  0.109375 0.519531 1 0 1.000000
driver
0  9.369912 -9.023169 22.927584  -0.999124 0.038955 -0.015262  0.076172 0.683594 1 0 1.000000
0  12.080761 -7.110012 14.181007  -0.942918 0.154585 -0.294973  0.000000 0.521484 1 0 1.000000
0  9.433706 -11.203336 20.739645  -0.997971 -0.063234 0.007403  0.000000 0.683594 1 0 1.000000
driver
0  15.804701 -4.613776 44.883923  -0.941501 -0.235973 -0.240610  0.376953 0.191406 1 0 1.000000
0  17.234795 -8.275203 44.501835  -0.516896 -0.601069 -0.609537  0.400391 0.052734 1 0 1.000000
0  15.441031 -6.992365 48.357391  -0.846712 -0.510232 -0.150805  0.259766 0.126953 1 0 1.000000
driver
0  15.804701 -4.613776 44.883923  -0.941501 -0.235973 -0.240610  0.376953 0.191406 1 0 1.000000
0  18.493931 -5.979602 43.974606  -0.000030 -0.802432 -0.596744  0.435547 0.009766 1 0 1.000000
0  17.234795 -8.275203 44.501835  -0.516896 -0.601069 -0.609537  0.400391 0.052734 1 0 1.000000
driver
0  18.493931 -8.442677 44.401741  0.000003 -0.705759 -0.708452  0.410156 0.009766 1 0 1.000000
0  17.234795 -8.275203 44.501835  -0.516896 -0.601069 -0.609537  0.400391 0.052734 1 0 1.000000
0  18.493931 -5.979602 43.974606  -0.000030 -0.802432 -0.596744  0.435547 0.009766 1 0 1.000000
driver
0  18.493931 -8.442677 44.401741  0.000003 -0.705759 -0.708452  0.410156 0.009766 1 0 1.000000
0  18.493931 -8.968416 47.431015  0.000000 -0.955437 -0.295196  0.269531 0.009766 1 0 1.000000
0  17.234795 -8.275203 44.501835  -0.516896 -0.601069 -0.609537  0.400391 0.052734 1 0 1.000000
driver
0  18.493931 -8.968416 47.431015  0.000000 -0.955437 -0.295196  0.269531 0.009766 1 0 1.000000
0  15.441031 -6.992365 48.357391  -0.846712 -0.510232 -0.150805  0.259766 0.126953 1 0 1.000000
0  17.234795 -8.275203 44.501835  -0.516896 -0.601069 -0.609537  0.400391 0.052734 1 0 1.000000
driver
0  18.493931 -9.695518 48.128075  -0.000000 -0.991104 -0.133091  0.244141 0.009766 1 0 1.000000
0  15.441031 -6.992365 48.357391  -0.846712 -0.510232 -0.150805  0.259766 0.126953 1 0 1.000000
0  18.493931 -8.968416 47.431015  0.000000 -0.955437 -0.295196  0.269531 0.009766 1 0 1.000000
driver
0  18.493931 -9.695518 48.128075  -0.000000 -0.991104 -0.133091  0.244141 0.009766 1 0 1.000000
0  18.493931 -8.532127 49.997562  -0.000006 -0.985903 0.167318  0.187500 0.009766 1 0 1.000000
0  15.441031 -6.992365 48.357391  -0.846712 -0.510232 -0.150805  0.259766 0.126953 1 0 1.000000
driver
0  21.546829 -6.992363 48.357399  0.846712 -0.510233 -0.150804  0.259766 0.126953 1 0 1.000000
0  18.493931 -8.532127 49.997562  -0.000006 -0.985903 0.167318  0.187500 0.009766 1 0 1.000000
0  18.493931 -9.695518 48.128075  -0.000000 -0.991104 -0.133091  0.244141 0.009766 1 0 1.000000
driver
0  21.546829 -6.992363 48.357399  0.846712 -0.510233 -0.150804  0.259766 0.126953 1 0 1.000000
0  21.509609 -7.432339 50.372498  0.686341 -0.721145 0.094264  0.169922 0.121094 1 0 1.000000
0  18.493931 -8.532127 49.997562  -0.000006 -0.985903 0.167318  0.187500 0.009766 1 0 1.000000
driver
0  18.493931 -7.626369 54.367172  -0.000001 -0.833588 0.552386  0.019531 0.009766 1 0 1.000000
0  18.493931 -8.532127 49.997562  -0.000006 -0.985903 0.167318  0.187500 0.009766 1 0 1.000000
0  21.509609 -7.432339 50.372498  0.686341 -0.721145 0.094264  0.169922 0.121094 1 0 1.000000
driver
0  15.478251 -7.432339 50.372486  -0.686342 -0.721144 0.094264  0.169922 0.121094 1 0 1.000000
0  18.493931 -8.532127 49.997562  -0.000006 -0.985903 0.167318  0.187500 0.009766 1 0 1.000000
0  18.493931 -7.626369 54.367172  -0.000001 -0.833588 0.552386  0.019531 0.009766 1 0 1.000000
driver
0  18.493931 -8.532127 49.997562  -0.000006 -0.985903 0.167318  0.187500 0.009766 1 0 1.000000
0  15.478251 -7.432339 50.372486  -0.686342 -0.721144 0.094264  0.169922 0.121094 1 0 1.000000
0  15.441031 -6.992365 48.357391  -0.846712 -0.510232 -0.150805  0.259766 0.126953 1 0 1.000000
driver
0  18.493931 -8.968416 47.431015  0.000000 -0.955437 -0.295196  0.269531 0.009766 1 0 1.000000
0  21.546829 -6.992363 48.357399  0.846712 -0.510233 -0.150804  0.259766 0.126953 1 0 1.000000
0  18.493931 -9.695518 48.128075  -0.000000 -0.991104 -0.133091  0.244141 0.009766 1 0 1.000000
driver
0  19.753065 -8.275200 44.501842  0.516898 -0.601068 -0.609536  0.400391 0.052734 1 0 1.000000
0  21.546829 -6.992363 48.357399  0.846712 -0.510233 -0.150804  0.259766 0.126953 1 0 1.000000
0  18.493931 -8.968416 47.431015  0.000000 -0.955437 -0.295196  0.269531 0.009766 1 0 1.000000
driver
0  19.753065 -8.275200 44.501842  0.516898 -0.601068 -0.609536  0.400391 0.052734 1 0 1.000000
0  18.493931 -8.968416 47.431015  0.000000 -0.955437 -0.295196  0.269531 0.009766 1 0 1.000000
0  18.493931 -8.442677 44.401741  0.000003 -0.705759 -0.708452  0.410156 0.009766 1 0 1.000000
driver
0  15.804701 -4.613776 44.883923  -0.941501 -0.235973 -0.240610  0.376953 0.191406 1 0 1.000000
0  16.061674 -5.216893 43.324322  -0.361426 -0.525970 0.769888  0.453125 0.177734 1 0 1.000000
0  18.493931 -5.979602 43.974606  -0.000030 -0.802432 -0.596744  0.435547 0.009766 1 0 1.000000
driver
0  15.804701 -4.613776 44.883923  -0.941501 -0.235973 -0.240610  0.376953 0.191406 1 0 1.000000
0  15.950505 -2.377075 43.181309  -0.739388 0.406705 0.536559  0.453125 0.285156 1 0 1.000000
0  16.061674 -5.216893 43.324322  -0.361426 -0.525970 0.769888  0.453125 0.177734 1 0 1.000000
driver
0  15.950505 -2.377075 43.181309  -0.739388 0.406705 0.536559  0.453125 0.285156 1 0 1.000000
0  15.804701 -4.613776 44.883923  -0.941501 -0.235973 -0.240610  0.376953 0.191406 1 0 1.000000
0  15.942117 -2.226238 46.019722  -0.918151 0.345099 -0.194692  0.343750 0.294922 1 0 1.000000
driver
0  15.441031 -6.992365 48.357391  -0.846712 -0.510232 -0.150805  0.259766 0.126953 1 0 1.000000
0  15.942117 -2.226238 46.019722  -0.918151 0.345099 -0.194692  0.343750 0.294922 1 0 1.000000
0  15.804701 -4.613776 44.883923  -0.941501 -0.235973 -0.240610  0.376953 0.191406 1 0 1.000000
driver
0  15.942117 -2.226238 46.019722  -0.918151 0.345099 -0.194692  0.343750 0.294922 1 0 1.000000
0  15.441031 -6.992365 48.357391  -0.846712 -0.510232 -0.150805  0.259766 0.126953 1 0 1.000000
0  14.681476 -3.501137 49.941315  -0.998964 -0.003046 -0.045410  0.179688 0.246094 1 0 1.000000
driver
0  15.478251 -7.432339 50.372486  -0.686342 -0.721144 0.094264  0.169922 0.121094 1 0 1.000000
0  14.681476 -3.501137 49.941315  -0.998964 -0.003046 -0.045410  0.179688 0.246094 1 0 1.000000
0  15.441031 -6.992365 48.357391  -0.846712 -0.510232 -0.150805  0.259766 0.126953 1 0 1.000000
driver
0  16.158186 -6.782510 54.052437  -0.717539 -0.359249 0.596723  0.031250 0.125000 1 0 1.000000
0  14.681476 -3.501137 49.941315  -0.998964 -0.003046 -0.045410  0.179688 0.246094 1 0 1.000000
0  15.478251 -7.432339 50.372486  -0.686342 -0.721144 0.094264  0.169922 0.121094 1 0 1.000000
driver
0  16.158186 -6.782510 54.052437  -0.717539 -0.359249 0.596723  0.031250 0.125000 1 0 1.000000
0  15.478251 -7.432339 50.372486  -0.686342 -0.721144 0.094264  0.169922 0.121094 1 0 1.000000
0  18.493931 -7.626369 54.367172  -0.000001 -0.833588 0.552386  0.019531 0.009766 1 0 1.000000
driver
0  18.493931 -4.624633 55.099209  -0.000001 -0.040685 0.999172  0.007812 0.009766 1 0 1.000000
0  16.158186 -6.782510 54.052437  -0.717539 -0.359249 0.596723  0.031250 0.125000 1 0 1.000000
0  18.493931 -7.626369 54.367172  -0.000001 -0.833588 0.552386  0.019531 0.009766 1 0 1.000000
driver
0  18.493931 -7.626369 54.367172  -0.000001 -0.833588 0.552386  0.019531 0.009766 1 0 1.000000
0  20.829674 -6.782508 54.052444  0.717540 -0.359250 0.596721  0.031250 0.125000 1 0 1.000000
0  18.493931 -4.624633 55.099209  -0.000001 -0.040685 0.999172  0.007812 0.009766 1 0 1.000000
driver
0  18.493931 -7.626369 54.367172  -0.000001 -0.833588 0.552386  0.019531 0.009766 1 0 1.000000
0  21.509609 -7.432339 50.372498  0.686341 -0.721145 0.094264  0.169922 0.121094 1 0 1.000000
0  20.829674 -6.782508 54.052444  0.717540 -0.359250 0.596721  0.031250 0.125000 1 0 1.000000
driver
0  21.509609 -7.432339 50.372498  0.686341 -0.721145 0.094264  0.169922 0.121094 1 0 1.000000
0  22.306385 -3.501135 49.941322  0.998964 -0.003049 -0.045412  0.179688 0.246094 1 0 1.000000
0  20.829674 -6.782508 54.052444  0.717540 -0.359250 0.596721  0.031250 0.125000 1 0 1.000000
driver
0  21.546829 -6.992363 48.357399  0.846712 -0.510233 -0.150804  0.259766 0.126953 1 0 1.000000
0  22.306385 -3.501135 49.941322  0.998964 -0.003049 -0.045412  0.179688 0.246094 1 0 1.000000
0  21.509609 -7.432339 50.372498  0.686341 -0.721145 0.094264  0.169922 0.121094 1 0 1.000000
driver
0  22.306385 -3.501135 49.941322  0.998964 -0.003049 -0.045412  0.179688 0.246094 1 0 1.000000
0  21.546829 -6.992363 48.357399  0.846712 -0.510233 -0.150804  0.259766 0.126953 1 0 1.000000
0  21.045744 -2.226246 46.019726  0.918151 0.345097 -0.194698  0.343750 0.294922 1 0 1.000000
driver
0  21.183161 -4.613775 44.883934  0.941501 -0.235973 -0.240610  0.376953 0.191406 1 0 1.000000
0  21.045744 -2.226246 46.019726  0.918151 0.345097 -0.194698  0.343750 0.294922 1 0 1.000000
0  21.546829 -6.992363 48.357399  0.846712 -0.510233 -0.150804  0.259766 0.126953 1 0 1.000000
driver
0  21.546829 -6.992363 48.357399  0.846712 -0.510233 -0.150804  0.259766 0.126953 1 0 1.000000
0  19.753065 -8.275200 44.501842  0.516898 -0.601068 -0.609536  0.400391 0.052734 1 0 1.000000
0  21.183161 -4.613775 44.883934  0.941501 -0.235973 -0.240610  0.376953 0.191406 1 0 1.000000
driver
0  19.753065 -8.275200 44.501842  0.516898 -0.601068 -0.609536  0.400391 0.052734 1 0 1.000000
0  18.493931 -5.979602 43.974606  -0.000030 -0.802432 -0.596744  0.435547 0.009766 1 0 1.000000
0  21.183161 -4.613775 44.883934  0.941501 -0.235973 -0.240610  0.376953 0.191406 1 0 1.000000
driver
0  18.493931 -5.979602 43.974606  -0.000030 -0.802432 -0.596744  0.435547 0.009766 1 0 1.000000
0  19.753065 -8.275200 44.501842  0.516898 -0.601068 -0.609536  0.400391 0.052734 1 0 1.000000
0  18.493931 -8.442677 44.401741  0.000003 -0.705759 -0.708452  0.410156 0.009766 1 0 1.000000
driver
0  15.158749 -2.945287 53.310108  -0.779794 0.113136 0.615728  0.066406 0.263672 1 0 1.000000
0  14.681476 -3.501137 49.941315  -0.998964 -0.003046 -0.045410  0.179688 0.246094 1 0 1.000000
0  16.158186 -6.782510 54.052437  -0.717539 -0.359249 0.596723  0.031250 0.125000 1 0 1.000000
driver
0  20.915701 0.450852 49.960709  0.653553 0.742600 -0.146336  0.193359 0.328125 1 0 1.000000
0  22.306385 -3.501135 49.941322  0.998964 -0.003049 -0.045412  0.179688 0.246094 1 0 1.000000
0  21.045744 -2.226246 46.019726  0.918151 0.345097 -0.194698  0.343750 0.294922 1 0 1.000000
driver
0  20.915701 0.450852 49.960709  0.653553 0.742600 -0.146336  0.193359 0.328125 1 0 1.000000
0  22.111641 -1.536635 51.519093  0.932393 0.342115 0.116618  0.144531 0.287109 1 0 1.000000
0  22.306385 -3.501135 49.941322  0.998964 -0.003049 -0.045412  0.179688 0.246094 1 0 1.000000
driver
0  18.493931 -0.238069 45.944492  0.000072 0.967153 -0.254194  0.359375 0.359375 1 0 1.000000
0  15.950505 -2.377075 43.181309  -0.739388 0.406705 0.536559  0.453125 0.285156 1 0 1.000000
0  15.942117 -2.226238 46.019722  -0.918151 0.345099 -0.194692  0.343750 0.294922 1 0 1.000000
driver
0  15.942117 -2.226238 46.019722  -0.918151 0.345099 -0.194692  0.343750 0.294922 1 0 1.000000
0  16.072161 0.450844 49.960701  -0.653345 0.742786 -0.146320  0.193359 0.328125 1 0 1.000000
0  18.493931 -0.238069 45.944492  0.000072 0.967153 -0.254194  0.359375 0.359375 1 0 1.000000
driver
0  15.942117 -2.226238 46.019722  -0.918151 0.345099 -0.194692  0.343750 0.294922 1 0 1.000000
0  14.681476 -3.501137 49.941315  -0.998964 -0.003046 -0.045410  0.179688 0.246094 1 0 1.000000
0  16.072161 0.450844 49.960701  -0.653345 0.742786 -0.146320  0.193359 0.328125 1 0 1.000000
driver
0  14.681476 -3.501137 49.941315  -0.998964 -0.003046 -0.045410  0.179688 0.246094 1 0 1.000000
0  14.876220 -1.536635 51.519089  -0.932393 0.342116 0.116617  0.144531 0.287109 1 0 1.000000
0  16.072161 0.450844 49.960701  -0.653345 0.742786 -0.146320  0.193359 0.328125 1 0 1.000000
driver
0  15.158749 -2.945287 53.310108  -0.779794 0.113136 0.615728  0.066406 0.263672 1 0 1.000000
0  14.876220 -1.536635 51.519089  -0.932393 0.342116 0.116617  0.144531 0.287109 1 0 1.000000
0  14.681476 -3.501137 49.941315  -0.998964 -0.003046 -0.045410  0.179688 0.246094 1 0 1.000000
driver
0  16.390095 0.168253 52.823441  -0.596560 0.643745 0.479280  0.097656 0.332031 1 0 1.000000
0  14.876220 -1.536635 51.519089  -0.932393 0.342116 0.116617  0.144531 0.287109 1 0 1.000000
0  15.158749 -2.945287 53.310108  -0.779794 0.113136 0.615728  0.066406 0.263672 1 0 1.000000
driver
0  16.390095 0.168253 52.823441  -0.596560 0.643745 0.479280  0.097656 0.332031 1 0 1.000000
0  16.072161 0.450844 49.960701  -0.653345 0.742786 -0.146320  0.193359 0.328125 1 0 1.000000
0  14.876220 -1.536635 51.519089  -0.932393 0.342116 0.116617  0.144531 0.287109 1 0 1.000000
driver
0  18.496290 1.000873 52.660774  0.000282 0.944923 0.327292  0.111328 0.357422 1 0 1.000000
0  16.072161 0.450844 49.960701  -0.653345 0.742786 -0.146320  0.193359 0.328125 1 0 1.000000
0  16.390095 0.168253 52.823441  -0.596560 0.643745 0.479280  0.097656 0.332031 1 0 1.000000
driver
0  18.496290 1.000873 52.660774  0.000282 0.944923 0.327292  0.111328 0.357422 1 0 1.000000
0  18.496290 1.209276 49.730392  0.000332 0.989302 -0.145881  0.210938 0.357422 1 0 1.000000
0  16.072161 0.450844 49.960701  -0.653345 0.742786 -0.146320  0.193359 0.328125 1 0 1.000000
driver
0  20.915701 0.450852 49.960709  0.653553 0.742600 -0.146336  0.193359 0.328125 1 0 1.000000
0  18.496290 1.209276 49.730392  0.000332 0.989302 -0.145881  0.210938 0.357422 1 0 1.000000
0  18.496290 1.000873 52.660774  0.000282 0.944923 0.327292  0.111328 0.357422 1 0 1.000000
driver
0  18.493931 -0.238069 45.944492  0.000072 0.967153 -0.254194  0.359375 0.359375 1 0 1.000000
0  18.496290 1.209276 49.730392  0.000332 0.989302 -0.145881  0.210938 0.357422 1 0 1.000000
0  20.915701 0.450852 49.960709  0.653553 0.742600 -0.146336  0.193359 0.328125 1 0 1.000000
driver
0  18.493931 -0.238069 45.944492  0.000072 0.967153 -0.254194  0.359375 0.359375 1 0 1.000000
0  20.915701 0.450852 49.960709  0.653553 0.742600 -0.146336  0.193359 0.328125 1 0 1.000000
0  21.045744 -2.226246 46.019726  0.918151 0.345097 -0.194698  0.343750 0.294922 1 0 1.000000
driver
0  21.045744 -2.226246 46.019726  0.918151 0.345097 -0.194698  0.343750 0.294922 1 0 1.000000
0  21.037354 -2.377083 43.181316  0.739408 0.406659 0.536566  0.453125 0.285156 1 0 1.000000
0  18.493931 -0.238069 45.944492  0.000072 0.967153 -0.254194  0.359375 0.359375 1 0 1.000000
driver
0  21.045744 -2.226246 46.019726  0.918151 0.345097 -0.194698  0.343750 0.294922 1 0 1.000000
0  21.183161 -4.613775 44.883934  0.941501 -0.235973 -0.240610  0.376953 0.191406 1 0 1.000000
0  21.037354 -2.377083 43.181316  0.739408 0.406659 0.536566  0.453125 0.285156 1 0 1.000000
driver
0  20.926186 -5.216891 43.324326  0.361425 -0.525970 0.769888  0.453125 0.177734 1 0 1.000000
0  21.037354 -2.377083 43.181316  0.739408 0.406659 0.536566  0.453125 0.285156 1 0 1.000000
0  21.183161 -4.613775 44.883934  0.941501 -0.235973 -0.240610  0.376953 0.191406 1 0 1.000000
driver
0  18.493931 -5.979602 43.974606  -0.000030 -0.802432 -0.596744  0.435547 0.009766 1 0 1.000000
0  20.926186 -5.216891 43.324326  0.361425 -0.525970 0.769888  0.453125 0.177734 1 0 1.000000
0  21.183161 -4.613775 44.883934  0.941501 -0.235973 -0.240610  0.376953 0.191406 1 0 1.000000
driver
0  18.493931 -5.979602 43.974606  -0.000030 -0.802432 -0.596744  0.435547 0.009766 1 0 1.000000
0  18.493931 -6.154865 42.690208  0.000036 -0.805157 0.593061  0.453125 0.009766 1 0 1.000000
0  20.926186 -5.216891 43.324326  0.361425 -0.525970 0.769888  0.453125 0.177734 1 0 1.000000
driver
0  16.061674 -5.216893 43.324322  -0.361426 -0.525970 0.769888  0.453125 0.177734 1 0 1.000000
0  18.493931 -6.154865 42.690208  0.000036 -0.805157 0.593061  0.453125 0.009766 1 0 1.000000
0  18.493931 -5.979602 43.974606  -0.000030 -0.802432 -0.596744  0.435547 0.009766 1 0 1.000000
driver
0  16.072161 0.450844 49.960701  -0.653345 0.742786 -0.146320  0.193359 0.328125 1 0 1.000000
0  18.496290 1.209276 49.730392  0.000332 0.989302 -0.145881  0.210938 0.357422 1 0 1.000000
0  18.493931 -0.238069 45.944492  0.000072 0.967153 -0.254194  0.359375 0.359375 1 0 1.000000
driver
0  20.829674 -6.782508 54.052444  0.717540 -0.359250 0.596721  0.031250 0.125000 1 0 1.000000
0  22.306385 -3.501135 49.941322  0.998964 -0.003049 -0.045412  0.179688 0.246094 1 0 1.000000
0  21.829111 -2.945285 53.310112  0.779794 0.113135 0.615729  0.066406 0.263672 1 0 1.000000
driver
0  22.306385 -3.501135 49.941322  0.998964 -0.003049 -0.045412  0.179688 0.246094 1 0 1.000000
0  22.111641 -1.536635 51.519093  0.932393 0.342115 0.116618  0.144531 0.287109 1 0 1.000000
0  21.829111 -2.945285 53.310112  0.779794 0.113135 0.615729  0.066406 0.263672 1 0 1.000000
driver
0  21.829111 -2.945285 53.310112  0.779794 0.113135 0.615729  0.066406 0.263672 1 0 1.000000
0  22.111641 -1.536635 51.519093  0.932393 0.342115 0.116618  0.144531 0.287109 1 0 1.000000
0  20.597767 0.168253 52.823448  0.596728 0.643580 0.479292  0.097656 0.332031 1 0 1.000000
driver
0  22.111641 -1.536635 51.519093  0.932393 0.342115 0.116618  0.144531 0.287109 1 0 1.000000
0  20.915701 0.450852 49.960709  0.653553 0.742600 -0.146336  0.193359 0.328125 1 0 1.000000
0  20.597767 0.168253 52.823448  0.596728 0.643580 0.479292  0.097656 0.332031 1 0 1.000000
driver
0  20.597767 0.168253 52.823448  0.596728 0.643580 0.479292  0.097656 0.332031 1 0 1.000000
0  20.915701 0.450852 49.960709  0.653553 0.742600 -0.146336  0.193359 0.328125 1 0 1.000000
0  18.496290 1.000873 52.660774  0.000282 0.944923 0.327292  0.111328 0.357422 1 0 1.000000
driver
0  18.493931 -1.193051 54.848831  0.000064 0.418054 0.908422  0.009766 0.357422 1 0 1.000000
0  20.597767 0.168253 52.823448  0.596728 0.643580 0.479292  0.097656 0.332031 1 0 1.000000
0  18.496290 1.000873 52.660774  0.000282 0.944923 0.327292  0.111328 0.357422 1 0 1.000000
driver
0  18.496290 1.000873 52.660774  0.000282 0.944923 0.327292  0.111328 0.357422 1 0 1.000000
0  16.390095 0.168253 52.823441  -0.596560 0.643745 0.479280  0.097656 0.332031 1 0 1.000000
0  18.493931 -1.193051 54.848831  0.000064 0.418054 0.908422  0.009766 0.357422 1 0 1.000000
driver
0  18.493931 -1.193051 54.848831  0.000064 0.418054 0.908422  0.009766 0.357422 1 0 1.000000
0  16.390095 0.168253 52.823441  -0.596560 0.643745 0.479280  0.097656 0.332031 1 0 1.000000
0  15.158749 -2.945287 53.310108  -0.779794 0.113136 0.615728  0.007812 0.320312 1 0 1.000000
driver
0  21.829111 -2.945285 53.310112  0.779794 0.113135 0.615729  0.007812 0.320312 1 0 1.000000
0  20.597767 0.168253 52.823448  0.596728 0.643580 0.479292  0.097656 0.332031 1 0 1.000000
0  18.493931 -1.193051 54.848831  0.000064 0.418054 0.908422  0.009766 0.357422 1 0 1.000000
driver
0  15.158749 -2.945287 53.310108  -0.779794 0.113136 0.615728  0.007812 0.320312 1 0 1.000000
0  18.493931 -4.624633 55.099209  -0.000001 -0.040685 0.999172  0.066406 0.263672 1 0 1.000000
0  18.493931 -1.193051 54.848831  0.000064 0.418054 0.908422  0.097656 0.332031 1 0 1.000000
driver
0  18.493931 -1.193051 54.848831  0.000064 0.418054 0.908422  0.097656 0.332031 1 0 1.000000
0  18.493931 -4.624633 55.099209  -0.000001 -0.040685 0.999172  0.066406 0.263672 1 0 1.000000
0  21.829111 -2.945285 53.310112  0.779794 0.113135 0.615729  0.007812 0.320312 1 0 1.000000
driver
0  18.493931 -4.624633 55.099209  -0.000001 -0.040685 0.999172  0.031250 0.125000 1 0 1.000000
0  20.829674 -6.782508 54.052444  0.717540 -0.359250 0.596721  0.007812 0.009766 1 0 1.000000
0  21.829111 -2.945285 53.310112  0.779794 0.113135 0.615729  0.007812 0.320312 1 0 1.000000
driver
0  15.158749 -2.945287 53.310108  -0.779794 0.113136 0.615728  0.007812 0.320312 1 0 1.000000
0  16.158186 -6.782510 54.052437  -0.717539 -0.359249 0.596723  0.007812 0.009766 1 0 1.000000
0  18.493931 -4.624633 55.099209  -0.000001 -0.040685 0.999172  0.031250 0.125000 1 0 1.000000
driver
0  18.493931 -0.238069 45.944492  0.000072 0.967153 -0.254194  0.361328 0.359375 1 0 1.000000
0  18.493931 -0.173364 42.795849  0.000011 0.890444 0.455094  0.453125 0.357422 1 0 1.000000
0  15.950505 -2.377075 43.181309  -0.739388 0.406705 0.536559  0.453125 0.285156 1 0 1.000000
driver
0  21.037354 -2.377083 43.181316  0.739408 0.406659 0.536566  0.453125 0.285156 1 0 1.000000
0  18.493931 -0.173364 42.795849  0.000011 0.890444 0.455094  0.453125 0.357422 1 0 1.000000
0  18.493931 -0.238069 45.944492  0.000072 0.967153 -0.254194  0.361328 0.359375 1 0 1.000000
driver
0  12.038946 -14.103882 25.028677  -0.734426 -0.401304 0.547333  0.066406 0.867188 1 0 1.000000
0  9.433706 -11.203336 20.739645  -0.997971 -0.063234 0.007403  0.072266 0.904297 1 0 1.000000
0  10.814315 -25.729746 23.060555  -0.912620 -0.117315 0.391614  0.136719 0.906250 1 0 1.000000
driver
0  10.814315 -25.729746 23.060555  -0.912620 -0.117315 0.391614  0.136719 0.906250 1 0 1.000000
0  14.166495 -25.788363 25.705246  -0.066681 -0.146734 0.986926  0.150391 0.820312 1 0 1.000000
0  12.038946 -14.103882 25.028677  -0.734426 -0.401304 0.547333  0.066406 0.867188 1 0 1.000000
driver
0  14.166495 -25.788363 25.705246  -0.066681 -0.146734 0.986926  0.150391 0.820312 1 0 1.000000
0  18.493931 -15.217456 26.110556  0.000002 -0.653563 0.756872  0.046875 0.820312 1 0 1.000000
0  12.038946 -14.103882 25.028677  -0.734426 -0.401304 0.547333  0.066406 0.867188 1 0 1.000000
driver
0  22.821362 -25.788363 25.705246  0.066677 -0.146731 0.986927  0.150391 0.820312 1 0 1.000000
0  18.493929 -26.320238 22.514986  0.000000 -0.269945 0.962876  0.101562 0.703125 1 0 1.000000
0  23.105783 -29.290676 24.987103  0.087001 -0.302550 0.949154  0.246094 0.822266 1 0 1.000000
driver
0  18.493998 -47.027149 17.233877  -0.000003 -0.348749 0.937216  0.460938 0.822266 1 0 1.000000
0  23.105783 -29.290676 24.987103  0.087001 -0.302550 0.949154  0.246094 0.822266 1 0 1.000000
0  18.493929 -26.320238 22.514986  0.000000 -0.269945 0.962876  0.101562 0.703125 1 0 1.000000
driver
0  23.235518 -46.193798 16.903500  0.711604 -0.340160 0.614744  0.460938 0.904297 1 0 1.000000
0  23.105783 -29.290676 24.987103  0.087001 -0.302550 0.949154  0.246094 0.822266 1 0 1.000000
0  18.493998 -47.027149 17.233877  -0.000003 -0.348749 0.937216  0.460938 0.822266 1 0 1.000000
driver
0  23.105783 -29.290676 24.987103  0.087001 -0.302550 0.949154  0.246094 0.822266 1 0 1.000000
0  23.235518 -46.193798 16.903500  0.711604 -0.340160 0.614744  0.460938 0.904297 1 0 1.000000
0  26.173542 -25.729744 23.060553  0.912618 -0.117319 0.391617  0.136719 0.906250 1 0 1.000000
driver
0  26.173542 -25.729744 23.060553  0.912618 -0.117319 0.391617  0.136719 0.906250 1 0 1.000000
0  22.821362 -25.788363 25.705246  0.066677 -0.146731 0.986927  0.150391 0.820312 1 0 1.000000
0  23.105783 -29.290676 24.987103  0.087001 -0.302550 0.949154  0.246094 0.822266 1 0 1.000000
driver
0  24.948914 -14.103882 25.028675  0.734426 -0.401307 0.547331  0.066406 0.867188 1 0 1.000000
0  22.821362 -25.788363 25.705246  0.066677 -0.146731 0.986927  0.150391 0.820312 1 0 1.000000
0  26.173542 -25.729744 23.060553  0.912618 -0.117319 0.391617  0.136719 0.906250 1 0 1.000000
driver
0  24.948914 -14.103882 25.028675  0.734426 -0.401307 0.547331  0.066406 0.867188 1 0 1.000000
0  18.493931 -15.217456 26.110556  0.000002 -0.653563 0.756872  0.046875 0.820312 1 0 1.000000
0  22.821362 -25.788363 25.705246  0.066677 -0.146731 0.986927  0.150391 0.820312 1 0 1.000000
driver
0  22.821362 -25.788363 25.705246  0.066677 -0.146731 0.986927  0.150391 0.820312 1 0 1.000000
0  18.493931 -15.217456 26.110556  0.000002 -0.653563 0.756872  0.046875 0.820312 1 0 1.000000
0  18.493929 -26.320238 22.514986  0.000000 -0.269945 0.962876  0.101562 0.703125 1 0 1.000000
driver
0  18.493929 -26.320238 22.514986  0.000000 -0.269945 0.962876  0.101562 0.703125 1 0 1.000000
0  18.493931 -15.217456 26.110556  0.000002 -0.653563 0.756872  0.046875 0.820312 1 0 1.000000
0  14.166495 -25.788363 25.705246  -0.066681 -0.146734 0.986926  0.150391 0.820312 1 0 1.000000
driver
0  13.882074 -29.290676 24.987103  -0.087003 -0.302553 0.949153  0.246094 0.822266 1 0 1.000000
0  18.493929 -26.320238 22.514986  0.000000 -0.269945 0.962876  0.101562 0.703125 1 0 1.000000
0  14.166495 -25.788363 25.705246  -0.066681 -0.146734 0.986926  0.150391 0.820312 1 0 1.000000
driver
0  13.882074 -29.290676 24.987103  -0.087003 -0.302553 0.949153  0.246094 0.822266 1 0 1.000000
0  14.166495 -25.788363 25.705246  -0.066681 -0.146734 0.986926  0.150391 0.820312 1 0 1.000000
0  10.814315 -25.729746 23.060555  -0.912620 -0.117315 0.391614  0.136719 0.906250 1 0 1.000000
driver
0  10.814315 -25.729746 23.060555  -0.912620 -0.117315 0.391614  0.136719 0.906250 1 0 1.000000
0  13.752405 -46.193798 16.903500  -0.711593 -0.340148 0.614764  0.460938 0.904297 1 0 1.000000
0  13.882074 -29.290676 24.987103  -0.087003 -0.302553 0.949153  0.246094 0.822266 1 0 1.000000
driver
0  18.493998 -47.027149 17.233877  -0.000003 -0.348749 0.937216  0.460938 0.822266 1 0 1.000000
0  13.882074 -29.290676 24.987103  -0.087003 -0.302553 0.949153  0.246094 0.822266 1 0 1.000000
0  13.752405 -46.193798 16.903500  -0.711593 -0.340148 0.614764  0.460938 0.904297 1 0 1.000000
driver
0  18.493929 -26.320238 22.514986  0.000000 -0.269945 0.962876  0.101562 0.703125 1 0 1.000000
0  13.882074 -29.290676 24.987103  -0.087003 -0.302553 0.949153  0.246094 0.822266 1 0 1.000000
0  18.493998 -47.027149 17.233877  -0.000003 -0.348749 0.937216  0.460938 0.822266 1 0 1.000000
driver
0  26.173542 -25.729744 23.060553  0.912618 -0.117319 0.391617  0.136719 0.906250 1 0 1.000000
0  27.554150 -11.203334 20.739643  0.997972 -0.063217 0.007406  0.072266 0.904297 1 0 1.000000
0  24.948914 -14.103882 25.028675  0.734426 -0.401307 0.547331  0.066406 0.867188 1 0 1.000000
driver
0  10.297417 -14.090906 32.308937  0.583184 -0.225147 -0.780516  0.539062 0.046875 1 0 1.000000
0  9.844882 -8.294444 32.549442  -0.826589 -0.010384 -0.562710  0.761719 0.046875 1 0 1.000000
0  13.499965 -11.082436 35.793064  0.232382 -0.956612 0.175763  0.761719 0.046875 1 0 1.000000
driver
0  9.844882 -8.294444 32.549442  -0.826589 -0.010384 -0.562710  0.761719 0.046875 1 0 1.000000
0  12.038946 -14.103882 25.028677  -0.734426 -0.401304 0.547333  0.589844 0.169922 1 0 1.000000
0  13.499965 -11.082436 35.793064  0.232382 -0.956612 0.175763  0.761719 0.046875 1 0 1.000000
driver
0  13.499965 -11.082436 35.793064  0.232382 -0.956612 0.175763  0.761719 0.046875 1 0 1.000000
0  12.038946 -14.103882 25.028677  -0.734426 -0.401304 0.547333  0.589844 0.169922 1 0 1.000000
0  18.493931 -15.217456 26.110556  0.000002 -0.653563 0.756872  0.589844 0.378906 1 0 1.000000
driver
0  12.038946 -14.103882 25.028677  -0.734426 -0.401304 0.547333  0.589844 0.169922 1 0 1.000000
0  9.844882 -8.294444 32.549442  -0.826589 -0.010384 -0.562710  0.761719 0.046875 1 0 1.000000
0  9.369912 -9.023169 22.927584  -0.999124 0.038955 -0.015262  0.589844 0.048828 1 0 1.000000
driver
0  10.570436 -3.532952 42.245468  -0.417708 0.077150 0.905300  0.996094 0.064453 1 0 1.000000
0  16.061674 -5.216893 43.324322  -0.361426 -0.525970 0.769888  0.919922 0.330078 1 0 1.000000
0  15.950505 -2.377075 43.181309  -0.739388 0.406705 0.536559  0.955078 0.269531 1 0 1.000000
driver
0  16.061674 -5.216893 43.324322  -0.361426 -0.525970 0.769888  0.919922 0.330078 1 0 1.000000
0  10.570436 -3.532952 42.245468  -0.417708 0.077150 0.905300  0.996094 0.064453 1 0 1.000000
0  11.975223 -8.413027 42.320358  0.149598 -0.535846 0.830957  0.943359 0.060547 1 0 1.000000
driver
0  11.975223 -8.413027 42.320358  0.149598 -0.535846 0.830957  0.943359 0.060547 1 0 1.000000
0  18.493931 -9.565407 40.974392  -0.000002 -0.737374 0.675485  0.863281 0.378906 1 0 1.000000
0  16.061674 -5.216893 43.324322  -0.361426 -0.525970 0.769888  0.919922 0.330078 1 0 1.000000
driver
0  13.499965 -11.082436 35.793064  0.232382 -0.956612 0.175763  0.761719 0.046875 1 0 1.000000
0  18.493931 -9.565407 40.974392  -0.000002 -0.737374 0.675485  0.863281 0.378906 1 0 1.000000
0  11.975223 -8.413027 42.320358  0.149598 -0.535846 0.830957  0.943359 0.060547 1 0 1.000000
driver
0  18.493931 -15.217456 26.110556  0.000002 -0.653563 0.756872  0.589844 0.378906 1 0 1.000000
0  18.493931 -9.565407 40.974392  -0.000002 -0.737374 0.675485  0.863281 0.378906 1 0 1.000000
0  13.499965 -11.082436 35.793064  0.232382 -0.956612 0.175763  0.761719 0.046875 1 0 1.000000
driver
0  23.487894 -11.082436 35.793072  -0.232377 -0.956613 0.175762  0.761719 0.046875 1 0 1.000000
0  18.493931 -9.565407 40.974392  -0.000002 -0.737374 0.675485  0.863281 0.378906 1 0 1.000000
0  18.493931 -15.217456 26.110556  0.000002 -0.653563 0.756872  0.589844 0.378906 1 0 1.000000
driver
0  18.493931 -15.217456 26.110556  0.000002 -0.653563 0.756872  0.589844 0.378906 1 0 1.000000
0  24.948914 -14.103882 25.028675  0.734426 -0.401307 0.547331  0.589844 0.169922 1 0 1.000000
0  23.487894 -11.082436 35.793072  -0.232377 -0.956613 0.175762  0.761719 0.046875 1 0 1.000000
driver
0  23.487894 -11.082436 35.793072  -0.232377 -0.956613 0.175762  0.761719 0.046875 1 0 1.000000
0  24.948914 -14.103882 25.028675  0.734426 -0.401307 0.547331  0.589844 0.169922 1 0 1.000000
0  27.143042 -8.294443 32.549446  0.826584 -0.010415 -0.562717  0.761719 0.046875 1 0 1.000000
driver
0  27.618011 -9.023169 22.927582  0.999124 0.038958 -0.015274  0.589844 0.048828 1 0 1.000000
0  27.143042 -8.294443 32.549446  0.826584 -0.010415 -0.562717  0.761719 0.046875 1 0 1.000000
0  24.948914 -14.103882 25.028675  0.734426 -0.401307 0.547331  0.589844 0.169922 1 0 1.000000
driver
0  23.487894 -11.082436 35.793072  -0.232377 -0.956613 0.175762  0.761719 0.046875 1 0 1.000000
0  27.143042 -8.294443 32.549446  0.826584 -0.010415 -0.562717  0.761719 0.046875 1 0 1.000000
0  26.690510 -14.090906 32.308926  -0.583175 -0.225161 -0.780519  0.539062 0.046875 1 0 1.000000
driver
0  25.012638 -8.413026 42.320366  -0.149583 -0.535871 0.830943  0.943359 0.060547 1 0 1.000000
0  18.493931 -9.565407 40.974392  -0.000002 -0.737374 0.675485  0.863281 0.378906 1 0 1.000000
0  23.487894 -11.082436 35.793072  -0.232377 -0.956613 0.175762  0.761719 0.046875 1 0 1.000000
driver
0  20.926186 -5.216891 43.324326  0.361425 -0.525970 0.769888  0.919922 0.330078 1 0 1.000000
0  18.493931 -9.565407 40.974392  -0.000002 -0.737374 0.675485  0.863281 0.378906 1 0 1.000000
0  25.012638 -8.413026 42.320366  -0.149583 -0.535871 0.830943  0.943359 0.060547 1 0 1.000000
driver
0  18.493931 -9.565407 40.974392  -0.000002 -0.737374 0.675485  0.863281 0.378906 1 0 1.000000
0  20.926186 -5.216891 43.324326  0.361425 -0.525970 0.769888  0.919922 0.330078 1 0 1.000000
0  18.493931 -6.154865 42.690208  0.000036 -0.805157 0.593061  0.916016 0.378906 1 0 1.000000
driver
0  18.493931 -6.154865 42.690208  0.000036 -0.805157 0.593061  0.916016 0.378906 1 0 1.000000
0  16.061674 -5.216893 43.324322  -0.361426 -0.525970 0.769888  0.919922 0.330078 1 0 1.000000
0  18.493931 -9.565407 40.974392  -0.000002 -0.737374 0.675485  0.863281 0.378906 1 0 1.000000
driver
0  25.012638 -8.413026 42.320366  -0.149583 -0.535871 0.830943  0.943359 0.060547 1 0 1.000000
0  26.417423 -3.532949 42.245476  0.417709 0.077150 0.905300  0.996094 0.064453 1 0 1.000000
0  20.926186 -5.216891 43.324326  0.361425 -0.525970 0.769888  0.919922 0.330078 1 0 1.000000
driver
0  21.037354 -2.377083 43.181316  0.739408 0.406659 0.536566  0.955078 0.269531 1 0 1.000000
0  20.926186 -5.216891 43.324326  0.361425 -0.525970 0.769888  0.919922 0.330078 1 0 1.000000
0  26.417423 -3.532949 42.245476  0.417709 0.077150 0.905300  0.996094 0.064453 1 0 1.000000
driver
0  25.307587 -26.212626 17.713634  0.969310 -0.055352 -0.239528  0.531250 0.921875 1 0 1.000000
0  24.907093 -7.110009 14.181006  0.942919 0.154581 -0.294972  0.484375 0.919922 1 0 1.000000
0  27.554150 -11.203334 20.739643  0.997972 -0.063217 0.007406  0.496094 0.984375 1 0 1.000000
driver
0  27.554150 -11.203334 20.739643  0.997972 -0.063217 0.007406  0.496094 0.984375 1 0 1.000000
0  26.173542 -25.729744 23.060553  0.912618 -0.117319 0.391617  0.496094 0.984375 1 0 1.000000
0  25.307587 -26.212626 17.713634  0.969310 -0.055352 -0.239528  0.531250 0.921875 1 0 1.000000
driver
0  26.173542 -25.729744 23.060553  0.912618 -0.117319 0.391617  0.496094 0.984375 1 0 1.000000
0  24.163624 -44.184090 9.810746  0.996004 -0.080065 -0.039579  0.984375 0.921875 1 0 1.000000
0  25.307587 -26.212626 17.713634  0.969310 -0.055352 -0.239528  0.531250 0.921875 1 0 1.000000
driver
0  26.173542 -25.729744 23.060553  0.912618 -0.117319 0.391617  0.496094 0.984375 1 0 1.000000
0  23.235518 -46.193798 16.903500  0.711604 -0.340160 0.614744  0.984375 0.984375 1 0 1.000000
0  24.163624 -44.184090 9.810746  0.996004 -0.080065 -0.039579  0.984375 0.921875 1 0 1.000000
driver
0  30.720970 -14.759292 33.457096  0.468768 -0.150773 -0.870359  0.703125 0.406250 1 0 1.000000
0  31.943274 -15.282147 35.882545  0.969539 -0.222953 -0.101418  0.712891 0.501953 1 0 1.000000
0  27.933008 -26.159571 37.274090  0.145432 -0.446492 -0.882890  0.492188 0.406250 1 0 1.000000
driver
0  30.720970 -14.759292 33.457096  0.468768 -0.150773 -0.870359  0.703125 0.406250 1 0 1.000000
0  30.368305 -13.248283 33.711403  0.666571 0.174145 -0.724815  0.738281 0.406250 1 0 1.000000
0  31.943274 -15.282147 35.882545  0.969539 -0.222953 -0.101418  0.712891 0.501953 1 0 1.000000
driver
0  32.141376 -13.371537 36.192478  0.992968 0.070633 0.094999  0.738281 0.501953 1 0 1.000000
0  31.943274 -15.282147 35.882545  0.969539 -0.222953 -0.101418  0.712891 0.501953 1 0 1.000000
0  30.368305 -13.248283 33.711403  0.666571 0.174145 -0.724815  0.738281 0.406250 1 0 1.000000
driver
0  32.141376 -13.371537 36.192478  0.992968 0.070633 0.094999  0.738281 0.501953 1 0 1.000000
0  29.188236 -14.896022 39.598637  0.426573 -0.065380 0.902087  0.744141 0.576172 1 0 1.000000
0  31.943274 -15.282147 35.882545  0.969539 -0.222953 -0.101418  0.712891 0.501953 1 0 1.000000
driver
0  29.585581 -25.474529 38.221794  0.991934 -0.026132 0.124031  0.492188 0.501953 1 0 1.000000
0  31.943274 -15.282147 35.882545  0.969539 -0.222953 -0.101418  0.712891 0.501953 1 0 1.000000
0  29.188236 -14.896022 39.598637  0.426573 -0.065380 0.902087  0.744141 0.576172 1 0 1.000000
driver
0  29.188236 -14.896022 39.598637  0.426573 -0.065380 0.902087  0.744141 0.576172 1 0 1.000000
0  27.664652 -24.479868 40.192780  -0.031122 0.412692 0.910339  0.492188 0.576172 1 0 1.000000
0  29.585581 -25.474529 38.221794  0.991934 -0.026132 0.124031  0.492188 0.501953 1 0 1.000000
driver
0  29.585581 -25.474529 38.221794  0.991934 -0.026132 0.124031  0.492188 0.501953 1 0 1.000000
0  27.933008 -26.159571 37.274090  0.145432 -0.446492 -0.882890  0.492188 0.406250 1 0 1.000000
0  31.943274 -15.282147 35.882545  0.969539 -0.222953 -0.101418  0.712891 0.501953 1 0 1.000000
driver
0  30.368305 -13.248283 33.711403  0.666571 0.174145 -0.724815  0.738281 0.738281 1 0 1.000000
0  30.720970 -14.759292 33.457096  0.468768 -0.150773 -0.870359  0.708984 0.738281 1 0 1.000000
0  27.783705 -13.255724 33.461262  -0.450346 -0.082860 -0.889001  0.738281 0.687500 1 0 1.000000
driver
0  30.720970 -14.759292 33.457096  0.468768 -0.150773 -0.870359  0.708984 0.738281 1 0 1.000000
0  27.933008 -26.159571 37.274090  0.145432 -0.446492 -0.882890  0.490234 0.738281 1 0 1.000000
0  27.783705 -13.255724 33.461262  -0.450346 -0.082860 -0.889001  0.738281 0.687500 1 0 1.000000
driver
0  27.933008 -26.159571 37.274090  0.145432 -0.446492 -0.882890  0.490234 0.738281 1 0 1.000000
0  26.181461 -25.142292 39.124516  -0.868514 0.238888 0.434299  0.492188 0.628906 1 0 1.000000
0  27.783705 -13.255724 33.461262  -0.450346 -0.082860 -0.889001  0.738281 0.687500 1 0 1.000000
driver
0  26.181461 -25.142292 39.124516  -0.868514 0.238888 0.434299  0.492188 0.628906 1 0 1.000000
0  26.708241 -15.003358 36.843193  -0.942237 -0.136682 0.305789  0.742188 0.632812 1 0 1.000000
0  27.783705 -13.255724 33.461262  -0.450346 -0.082860 -0.889001  0.738281 0.687500 1 0 1.000000
driver
0  26.181461 -25.142292 39.124516  -0.868514 0.238888 0.434299  0.492188 0.628906 1 0 1.000000
0  27.664652 -24.479868 40.192780  -0.031122 0.412692 0.910339  0.492188 0.576172 1 0 1.000000
0  26.708241 -15.003358 36.843193  -0.942237 -0.136682 0.305789  0.742188 0.632812 1 0 1.000000
driver
0  29.188236 -14.896022 39.598637  0.426573 -0.065380 0.902087  0.744141 0.576172 1 0 1.000000
0  26.708241 -15.003358 36.843193  -0.942237 -0.136682 0.305789  0.742188 0.632812 1 0 1.000000
0  27.664652 -24.479868 40.192780  -0.031122 0.412692 0.910339  0.492188 0.576172 1 0 1.000000
driver
0  26.708241 -15.003358 36.843193  -0.942237 -0.136682 0.305789  0.742188 0.632812 1 0 1.000000
0  29.188236 -14.896022 39.598637  0.426573 -0.065380 0.902087  0.744141 0.576172 1 0 1.000000
0  25.012638 -8.413026 42.320366  -0.149583 -0.535871 0.830943  0.958984 0.628906 1 0 1.000000
driver
0  26.417423 -3.532949 42.245476  0.417709 0.077150 0.905300  0.982422 0.576172 1 0 1.000000
0  25.012638 -8.413026 42.320366  -0.149583 -0.535871 0.830943  0.958984 0.628906 1 0 1.000000
0  29.188236 -14.896022 39.598637  0.426573 -0.065380 0.902087  0.744141 0.576172 1 0 1.000000
driver
0  25.012638 -8.413026 42.320366  -0.149583 -0.535871 0.830943  0.958984 0.628906 1 0 1.000000
0  23.487894 -11.082436 35.793072  -0.232377 -0.956613 0.175762  0.876953 0.748047 1 0 1.000000
0  26.708241 -15.003358 36.843193  -0.942237 -0.136682 0.305789  0.742188 0.632812 1 0 1.000000
driver
0  26.690510 -14.090906 32.308926  -0.583175 -0.225161 -0.780519  0.744141 0.687500 1 0 1.000000
0  26.708241 -15.003358 36.843193  -0.942237 -0.136682 0.305789  0.742188 0.632812 1 0 1.000000
0  23.487894 -11.082436 35.793072  -0.232377 -0.956613 0.175762  0.990234 0.671875 1 0 1.000000
driver
0  26.417423 -3.532949 42.245476  0.417709 0.077150 0.905300  0.982422 0.576172 1 0 1.000000
0  29.188236 -14.896022 39.598637  0.426573 -0.065380 0.902087  0.744141 0.576172 1 0 1.000000
0  28.537214 -1.120666 39.400242  0.862994 0.446068 0.237201  0.988281 0.501953 1 0 1.000000
driver
0  32.141376 -13.371537 36.192478  0.992968 0.070633 0.094999  0.744141 0.501953 1 0 1.000000
0  28.537214 -1.120666 39.400242  0.862994 0.446068 0.237201  0.988281 0.501953 1 0 1.000000
0  29.188236 -14.896022 39.598637  0.426573 -0.065380 0.902087  0.744141 0.576172 1 0 1.000000
driver
0  28.537214 -1.120666 39.400242  0.862994 0.446068 0.237201  0.988281 0.501953 1 0 1.000000
0  32.141376 -13.371537 36.192478  0.992968 0.070633 0.094999  0.744141 0.501953 1 0 1.000000
0  30.483734 -13.154457 32.620678  0.621142 0.295156 -0.725993  0.744141 0.414062 1 0 1.000000
driver
0  30.483734 -13.154457 32.620678  0.621142 0.295156 -0.725993  0.744141 0.414062 1 0 1.000000
0  26.215118 -1.036675 34.734936  0.649933 0.659917 -0.376959  0.960938 0.414062 1 0 1.000000
0  28.537214 -1.120666 39.400242  0.862994 0.446068 0.237201  0.988281 0.501953 1 0 1.000000
driver
0  26.690510 -14.090906 32.308926  -0.583175 -0.225161 -0.780519  0.744141 0.687500 1 0 1.000000
0  27.143042 -8.294443 32.549446  0.826584 -0.010415 -0.562717  0.984375 0.691406 1 0 1.000000
0  30.483734 -13.154457 32.620678  0.621142 0.295156 -0.725993  0.744141 0.738281 1 0 1.000000
driver
0  26.215118 -1.036675 34.734936  0.649933 0.659917 -0.376959  0.960938 0.738281 1 0 1.000000
0  30.483734 -13.154457 32.620678  0.621142 0.295156 -0.725993  0.744141 0.738281 1 0 1.000000
0  27.143042 -8.294443 32.549446  0.826584 -0.010415 -0.562717  0.984375 0.691406 1 0 1.000000
driver
0  9.897868 -31.419250 40.513199  -0.709505 -0.702567 0.054791  0.439453 0.996094 1 0 1.000000
0  9.416362 -30.216688 40.315678  -0.724875 -0.351600 -0.592396  0.382812 0.998047 1 0 1.000000
0  10.154876 -31.005484 39.888580  -0.734756 -0.385834 -0.557912  0.445312 0.998047 1 0 1.000000
driver
0  9.416362 -30.216688 40.315678  -0.724875 -0.351600 -0.592396  0.382812 0.998047 1 0 1.000000
0  9.897868 -31.419250 40.513199  -0.709505 -0.702567 0.054791  0.439453 0.996094 1 0 1.000000
0  8.964215 -30.429430 40.966293  -0.857157 -0.505523 0.098632  0.392578 0.998047 1 0 1.000000
driver
0  8.964215 -30.429430 40.966293  -0.857157 -0.505523 0.098632  0.392578 0.998047 1 0 1.000000
0  9.225742 -29.280968 40.103874  -0.703140 -0.260411 -0.661650  0.337891 0.998047 1 0 1.000000
0  9.416362 -30.216688 40.315678  -0.724875 -0.351600 -0.592396  0.382812 0.998047 1 0 1.000000
driver
0  9.225742 -29.280968 40.103874  -0.703140 -0.260411 -0.661650  0.337891 0.998047 1 0 1.000000
0  8.964215 -30.429430 40.966293  -0.857157 -0.505523 0.098632  0.392578 0.998047 1 0 1.000000
0  8.329267 -28.992544 40.892319  -0.969659 -0.158446 -0.186163  0.337891 0.998047 1 0 1.000000
driver
0  8.329267 -28.992544 40.892319  -0.969659 -0.158446 -0.186163  0.337891 0.998047 1 0 1.000000
0  10.317918 -26.251541 38.410751  -0.275132 -0.446749 -0.851304  0.222656 0.998047 1 0 1.000000
0  9.225742 -29.280968 40.103874  -0.703140 -0.260411 -0.661650  0.337891 0.998047 1 0 1.000000
driver
0  10.317918 -26.251541 38.410751  -0.275132 -0.446749 -0.851304  0.222656 0.998047 1 0 1.000000
0  8.329267 -28.992544 40.892319  -0.969659 -0.158446 -0.186163  0.337891 0.998047 1 0 1.000000
0  8.824768 -25.566235 39.593788  -0.962427 -0.026246 0.270270  0.222656 0.992188 1 0 1.000000
driver
0  11.143942 -28.074223 43.120441  -0.041894 0.233689 0.971408  0.333984 0.917969 1 0 1.000000
0  8.824768 -25.566235 39.593788  -0.962427 -0.026246 0.270270  0.222656 0.992188 1 0 1.000000
0  8.329267 -28.992544 40.892319  -0.969659 -0.158446 -0.186163  0.337891 0.998047 1 0 1.000000
driver
0  8.824768 -25.566235 39.593788  -0.962427 -0.026246 0.270270  0.222656 0.992188 1 0 1.000000
0  11.143942 -28.074223 43.120441  -0.041894 0.233689 0.971408  0.333984 0.917969 1 0 1.000000
0  11.017578 -24.571838 41.257019  0.166294 0.412950 0.895443  0.220703 0.927734 1 0 1.000000
driver
0  11.143942 -28.074223 43.120441  -0.041894 0.233689 0.971408  0.333984 0.917969 1 0 1.000000
0  12.325319 -25.234262 39.979939  0.923458 0.238982 0.300188  0.220703 0.917969 1 0 1.000000
0  11.017578 -24.571838 41.257019  0.166294 0.412950 0.895443  0.220703 0.927734 1 0 1.000000
driver
0  12.325319 -25.234262 39.979939  0.923458 0.238982 0.300188  0.220703 0.917969 1 0 1.000000
0  11.143942 -28.074223 43.120441  -0.041894 0.233689 0.971408  0.333984 0.917969 1 0 1.000000
0  12.215779 -28.384748 41.995193  0.647827 0.334637 0.684352  0.335938 0.916016 1 0 1.000000
driver
0  11.829296 -29.922005 42.999676  0.147342 -0.190102 0.970645  0.400391 0.917969 1 0 1.000000
0  12.215779 -28.384748 41.995193  0.647827 0.334637 0.684352  0.335938 0.916016 1 0 1.000000
0  11.143942 -28.074223 43.120441  -0.041894 0.233689 0.971408  0.333984 0.917969 1 0 1.000000
driver
0  12.215779 -28.384748 41.995193  0.647827 0.334637 0.684352  0.335938 0.916016 1 0 1.000000
0  11.829296 -29.922005 42.999676  0.147342 -0.190102 0.970645  0.400391 0.917969 1 0 1.000000
0  12.260346 -29.515656 42.545662  0.634582 0.217231 0.741699  0.382812 0.917969 1 0 1.000000
driver
0  12.784091 -31.072857 42.275745  0.462201 -0.188755 0.866453  0.441406 0.919922 1 0 1.000000
0  12.260346 -29.515656 42.545662  0.634582 0.217231 0.741699  0.382812 0.917969 1 0 1.000000
0  11.829296 -29.922005 42.999676  0.147342 -0.190102 0.970645  0.400391 0.917969 1 0 1.000000
driver
0  12.260346 -29.515656 42.545662  0.634582 0.217231 0.741699  0.382812 0.917969 1 0 1.000000
0  12.784091 -31.072857 42.275745  0.462201 -0.188755 0.866453  0.441406 0.919922 1 0 1.000000
0  12.952848 -30.789158 42.028656  0.739598 0.134438 0.659485  0.445312 0.917969 1 0 1.000000
driver
0  11.829296 -29.922005 42.999676  0.147342 -0.190102 0.970645  0.400391 0.917969 1 0 1.000000
0  9.897868 -31.419250 40.513199  -0.709505 -0.702567 0.054791  0.439453 0.996094 1 0 1.000000
0  12.784091 -31.072857 42.275745  0.462201 -0.188755 0.866453  0.441406 0.919922 1 0 1.000000
driver
0  9.897868 -31.419250 40.513199  -0.709505 -0.702567 0.054791  0.439453 0.996094 1 0 1.000000
0  11.829296 -29.922005 42.999676  0.147342 -0.190102 0.970645  0.400391 0.917969 1 0 1.000000
0  8.964215 -30.429430 40.966293  -0.857157 -0.505523 0.098632  0.392578 0.998047 1 0 1.000000
driver
0  11.143942 -28.074223 43.120441  -0.041894 0.233689 0.971408  0.333984 0.917969 1 0 1.000000
0  8.964215 -30.429430 40.966293  -0.857157 -0.505523 0.098632  0.392578 0.998047 1 0 1.000000
0  11.829296 -29.922005 42.999676  0.147342 -0.190102 0.970645  0.400391 0.917969 1 0 1.000000
driver
0  8.964215 -30.429430 40.966293  -0.857157 -0.505523 0.098632  0.392578 0.998047 1 0 1.000000
0  11.143942 -28.074223 43.120441  -0.041894 0.233689 0.971408  0.333984 0.917969 1 0 1.000000
0  8.329267 -28.992544 40.892319  -0.969659 -0.158446 -0.186163  0.337891 0.998047 1 0 1.000000
driver
0  9.433706 -11.203336 20.739645  -0.997971 -0.063234 0.007403  0.496094 0.984375 1 0 1.000000
0  12.080761 -7.110012 14.181007  -0.942918 0.154585 -0.294973  0.484375 0.919922 1 0 1.000000
0  11.680269 -26.212627 17.713636  -0.969310 -0.055384 -0.239520  0.531250 0.921875 1 0 1.000000
driver
0  11.680269 -26.212627 17.713636  -0.969310 -0.055384 -0.239520  0.531250 0.921875 1 0 1.000000
0  10.814315 -25.729746 23.060555  -0.912620 -0.117315 0.391614  0.496094 0.984375 1 0 1.000000
0  9.433706 -11.203336 20.739645  -0.997971 -0.063234 0.007403  0.496094 0.984375 1 0 1.000000
driver
0  11.680269 -26.212627 17.713636  -0.969310 -0.055384 -0.239520  0.531250 0.921875 1 0 1.000000
0  12.824230 -44.184090 9.810747  -0.996003 -0.080072 -0.039574  0.984375 0.921875 1 0 1.000000
0  10.814315 -25.729746 23.060555  -0.912620 -0.117315 0.391614  0.496094 0.984375 1 0 1.000000
driver
0  12.824230 -44.184090 9.810747  -0.996003 -0.080072 -0.039574  0.984375 0.921875 1 0 1.000000
0  13.752405 -46.193798 16.903500  -0.711593 -0.340148 0.614764  0.984375 0.984375 1 0 1.000000
0  10.814315 -25.729746 23.060555  -0.912620 -0.117315 0.391614  0.496094 0.984375 1 0 1.000000
driver
0  25.865767 -30.697191 41.243828  -0.633060 0.134321 0.762361  0.445312 0.917969 1 0 1.000000
0  26.069555 -30.980890 41.463043  -0.328177 -0.188832 0.925550  0.441406 0.919922 1 0 1.000000
0  26.627487 -29.423687 41.651997  -0.517079 0.217221 0.827916  0.382812 0.917969 1 0 1.000000
driver
0  27.121309 -29.830036 42.036812  -0.001283 -0.190099 0.981764  0.400391 0.917969 1 0 1.000000
0  26.627487 -29.423687 41.651997  -0.517079 0.217221 0.827916  0.382812 0.917969 1 0 1.000000
0  26.069555 -30.980890 41.463043  -0.328177 -0.188832 0.925550  0.441406 0.919922 1 0 1.000000
driver
0  26.069555 -30.980890 41.463043  -0.328177 -0.188832 0.925550  0.441406 0.919922 1 0 1.000000
0  28.661364 -31.327282 39.290653  0.709760 -0.702564 -0.051423  0.439453 0.996094 1 0 1.000000
0  27.121309 -29.830036 42.036812  -0.001283 -0.190099 0.981764  0.400391 0.917969 1 0 1.000000
driver
0  29.651909 -30.337729 39.599766  0.862286 -0.505530 -0.030020  0.392578 0.998047 1 0 1.000000
0  27.121309 -29.830036 42.036812  -0.001283 -0.190099 0.981764  0.400391 0.917969 1 0 1.000000
0  28.661364 -31.327282 39.290653  0.709760 -0.702564 -0.051423  0.439453 0.996094 1 0 1.000000
driver
0  29.651909 -30.337729 39.599766  0.862286 -0.505530 -0.030020  0.392578 0.998047 1 0 1.000000
0  28.661364 -31.327282 39.290653  0.709760 -0.702564 -0.051423  0.439453 0.996094 1 0 1.000000
0  29.107964 -30.124718 39.023659  0.628654 -0.351588 -0.693671  0.382812 0.998047 1 0 1.000000
driver
0  29.107964 -30.124718 39.023659  0.628654 -0.351588 -0.693671  0.382812 0.998047 1 0 1.000000
0  29.264969 -29.188999 38.785851  0.596860 -0.260423 -0.758906  0.337891 0.998047 1 0 1.000000
0  29.651909 -30.337729 39.599766  0.862286 -0.505530 -0.030020  0.392578 0.998047 1 0 1.000000
driver
0  30.268801 -28.900837 39.432137  0.931184 -0.158402 -0.328338  0.337891 0.998047 1 0 1.000000
0  29.651909 -30.337729 39.599766  0.862286 -0.505530 -0.030020  0.392578 0.998047 1 0 1.000000
0  29.264969 -29.188999 38.785851  0.596860 -0.260423 -0.758906  0.337891 0.998047 1 0 1.000000
driver
0  29.264969 -29.188999 38.785851  0.596860 -0.260423 -0.758906  0.337891 0.998047 1 0 1.000000
0  27.933008 -26.159571 37.274090  0.145432 -0.446492 -0.882890  0.222656 0.998047 1 0 1.000000
0  30.268801 -28.900837 39.432137  0.931184 -0.158402 -0.328338  0.337891 0.998047 1 0 1.000000
driver
0  29.585581 -25.474529 38.221794  0.991934 -0.026132 0.124031  0.222656 0.992188 1 0 1.000000
0  30.268801 -28.900837 39.432137  0.931184 -0.158402 -0.328338  0.337891 0.998047 1 0 1.000000
0  27.933008 -26.159571 37.274090  0.145432 -0.446492 -0.882890  0.222656 0.998047 1 0 1.000000
driver
0  30.268801 -28.900837 39.432137  0.931184 -0.158402 -0.328338  0.337891 0.998047 1 0 1.000000
0  29.585581 -25.474529 38.221794  0.991934 -0.026132 0.124031  0.222656 0.992188 1 0 1.000000
0  27.816986 -27.982252 42.054260  0.185976 0.233693 0.954359  0.333984 0.917969 1 0 1.000000
driver
0  27.664652 -24.479868 40.192780  -0.031122 0.412692 0.910339  0.220703 0.927734 1 0 1.000000
0  27.816986 -27.982252 42.054260  0.185976 0.233693 0.954359  0.333984 0.917969 1 0 1.000000
0  29.585581 -25.474529 38.221794  0.991934 -0.026132 0.124031  0.222656 0.992188 1 0 1.000000
driver
0  27.664652 -24.479868 40.192780  -0.031122 0.412692 0.910339  0.220703 0.927734 1 0 1.000000
0  26.181461 -25.142292 39.124516  -0.868514 0.238888 0.434299  0.220703 0.917969 1 0 1.000000
0  27.816986 -27.982252 42.054260  0.185976 0.233693 0.954359  0.333984 0.917969 1 0 1.000000
driver
0  26.589649 -28.292780 41.101051  -0.538773 0.334640 0.773136  0.335938 0.916016 1 0 1.000000
0  27.816986 -27.982252 42.054260  0.185976 0.233693 0.954359  0.333984 0.917969 1 0 1.000000
0  26.181461 -25.142292 39.124516  -0.868514 0.238888 0.434299  0.220703 0.917969 1 0 1.000000
driver
0  27.816986 -27.982252 42.054260  0.185976 0.233693 0.954359  0.333984 0.917969 1 0 1.000000
0  26.589649 -28.292780 41.101051  -0.538773 0.334640 0.773136  0.335938 0.916016 1 0 1.000000
0  27.121309 -29.830036 42.036812  -0.001283 -0.190099 0.981764  0.400391 0.917969 1 0 1.000000
driver
0  26.627487 -29.423687 41.651997  -0.517079 0.217221 0.827916  0.382812 0.917969 1 0 1.000000
0  27.121309 -29.830036 42.036812  -0.001283 -0.190099 0.981764  0.400391 0.917969 1 0 1.000000
0  26.589649 -28.292780 41.101051  -0.538773 0.334640 0.773136  0.335938 0.916016 1 0 1.000000
driver
0  27.121309 -29.830036 42.036812  -0.001283 -0.190099 0.981764  0.400391 0.917969 1 0 1.000000
0  29.651909 -30.337729 39.599766  0.862286 -0.505530 -0.030020  0.392578 0.998047 1 0 1.000000
0  27.816986 -27.982252 42.054260  0.185976 0.233693 0.954359  0.333984 0.917969 1 0 1.000000
driver
0  30.268801 -28.900837 39.432137  0.931184 -0.158402 -0.328338  0.337891 0.998047 1 0 1.000000
0  27.816986 -27.982252 42.054260  0.185976 0.233693 0.954359  0.333984 0.917969 1 0 1.000000
0  29.651909 -30.337729 39.599766  0.862286 -0.505530 -0.030020  0.392578 0.998047 1 0 1.000000
driver
0  28.314268 -30.913513 38.711235  0.643602 -0.385775 -0.661026  0.445312 0.998047 1 0 1.000000
0  29.107964 -30.124718 39.023659  0.628654 -0.351588 -0.693671  0.382812 0.998047 1 0 1.000000
0  28.661364 -31.327282 39.290653  0.709760 -0.702564 -0.051423  0.439453 0.996094 1 0 1.000000
driver
0  24.992970 -3.597218 19.155952  0.947640 0.301049 -0.106529  0.109375 0.519531 1 0 1.000000
0  27.618011 -9.023169 22.927582  0.999124 0.038958 -0.015274  0.076172 0.683594 1 0 1.000000
0  24.907093 -7.110009 14.181006  0.942919 0.154581 -0.294972  0.000000 0.521484 1 0 1.000000
driver
0  27.554150 -11.203334 20.739643  0.997972 -0.063217 0.007406  0.000000 0.683594 1 0 1.000000
0  24.907093 -7.110009 14.181006  0.942919 0.154581 -0.294972  0.000000 0.521484 1 0 1.000000
0  27.618011 -9.023169 22.927582  0.999124 0.038958 -0.015274  0.076172 0.683594 1 0 1.000000
driver
0  9.433706 -11.203336 20.739645  -0.997971 -0.063234 0.007403  0.521484 0.050781 1 0 1.000000
0  12.038946 -14.103882 25.028677  -0.734426 -0.401304 0.547333  0.580078 0.175781 1 0 1.000000
0  9.369912 -9.023169 22.927584  -0.999124 0.038955 -0.015262  0.585938 0.050781 1 0 1.000000
end
