version 1
nodes
0 "root" -1
end
skeleton
time 0
0  0.000000 0.000000 0.000000  0.000000 -0.000000 0.000000
end
triangles
doorline
0  -33.736908 -104.408768 41.528519  -0.118429 -0.253194 0.960139  0.275399 0.794916 1 0 1.000000
0  -34.463619 -97.611435 42.096500  -0.125665 -0.053986 0.990603  0.275399 0.726554 1 0 1.000000
0  -34.298458 -104.213593 41.494102  -0.136192 -0.172573 0.975536  0.476577 0.792962 1 0 1.000000
doorline
0  -34.981125 -97.601227 42.027618  -0.131910 -0.053634 0.989810  0.476577 0.724601 1 0 1.000000
0  -34.298458 -104.213593 41.494102  -0.136192 -0.172573 0.975536  0.476577 0.792962 1 0 1.000000
0  -34.463619 -97.611435 42.096500  -0.125665 -0.053986 0.990603  0.275399 0.726554 1 0 1.000000
doorline
0  -34.981125 -97.601227 42.027618  -0.131910 -0.053634 0.989810  0.476577 0.724601 1 0 1.000000
0  -34.463619 -97.611435 42.096500  -0.125665 -0.053986 0.990603  0.275399 0.726554 1 0 1.000000
0  -35.487617 -90.338196 42.066261  -0.137775 -0.015187 0.990347  0.476577 0.650380 1 0 1.000000
doorline
0  -34.981125 -90.348404 42.135143  -0.145021 -0.015958 0.989300  0.275399 0.652333 1 0 1.000000
0  -35.487617 -90.338196 42.066261  -0.137775 -0.015187 0.990347  0.476577 0.650380 1 0 1.000000
0  -34.463619 -97.611435 42.096500  -0.125665 -0.053986 0.990603  0.275399 0.726554 1 0 1.000000
doorline
0  -35.487617 -90.338196 42.066261  -0.137775 -0.015187 0.990347  0.476577 0.650380 1 0 1.000000
0  -34.981125 -90.348404 42.135143  -0.145021 -0.015958 0.989300  0.275399 0.652333 1 0 1.000000
0  -36.060177 -82.360168 42.101822  -0.155093 0.001544 0.987899  0.476577 0.570299 1 0 1.000000
doorline
0  -35.542671 -82.368454 42.181549  -0.152266 0.000084 0.988339  0.275399 0.570299 1 0 1.000000
0  -36.060177 -82.360168 42.101822  -0.155093 0.001544 0.987899  0.476577 0.570299 1 0 1.000000
0  -34.981125 -90.348404 42.135143  -0.145021 -0.015958 0.989300  0.275399 0.652333 1 0 1.000000
doorline
0  -35.542671 -82.368454 42.181549  -0.152266 0.000084 0.988339  0.275399 0.570299 1 0 1.000000
0  -35.806931 -74.607864 41.998425  -0.376193 0.086035 0.922538  0.275399 0.490219 1 0 1.000000
0  -36.060177 -82.360168 42.101822  -0.155093 0.001544 0.987899  0.476577 0.570299 1 0 1.000000
doorline
0  -36.324436 -74.887115 41.811565  -0.365797 0.065879 0.928360  0.476577 0.490219 1 0 1.000000
0  -36.060177 -82.360168 42.101822  -0.155093 0.001544 0.987899  0.476577 0.570299 1 0 1.000000
0  -35.806931 -74.607864 41.998425  -0.376193 0.086035 0.922538  0.275399 0.490219 1 0 1.000000
doorline
0  -35.806931 -74.607864 41.998425  -0.376193 0.086035 0.922538  0.275399 0.490219 1 0 1.000000
0  -36.071190 -67.464348 40.882767  -0.163734 0.134222 0.977331  0.275399 0.412091 1 0 1.000000
0  -36.324436 -74.887115 41.811565  -0.365797 0.065879 0.928360  0.476577 0.490219 1 0 1.000000
doorline
0  -36.577682 -67.452393 40.799767  -0.164691 0.140744 0.976252  0.476577 0.412091 1 0 1.000000
0  -36.324436 -74.887115 41.811565  -0.365797 0.065879 0.928360  0.476577 0.490219 1 0 1.000000
0  -36.071190 -67.464348 40.882767  -0.163734 0.134222 0.977331  0.275399 0.412091 1 0 1.000000
doorline
0  -36.071190 -67.464348 40.882767  -0.163734 0.134222 0.977331  0.275399 0.412091 1 0 1.000000
0  -36.082199 -60.505589 39.838909  -0.170256 0.147057 0.974365  0.275399 0.339824 1 0 1.000000
0  -36.577682 -67.452393 40.799767  -0.164691 0.140744 0.976252  0.476577 0.412091 1 0 1.000000
doorline
0  -36.588692 -60.496479 39.745277  -0.181867 0.147142 0.972252  0.476577 0.339824 1 0 1.000000
0  -36.577682 -67.452393 40.799767  -0.164691 0.140744 0.976252  0.476577 0.412091 1 0 1.000000
0  -36.082199 -60.505589 39.838909  -0.170256 0.147057 0.974365  0.275399 0.339824 1 0 1.000000
doorline
0  -36.082199 -60.505589 39.838909  -0.170256 0.147057 0.974365  0.275399 0.339824 1 0 1.000000
0  -36.104221 -53.363167 38.757244  -0.193972 0.132156 0.972064  0.275399 0.265603 1 0 1.000000
0  -36.588692 -60.496479 39.745277  -0.181867 0.147142 0.972252  0.476577 0.339824 1 0 1.000000
doorline
0  -36.610714 -53.346275 38.650124  -0.194829 0.132621 0.971830  0.476577 0.265603 1 0 1.000000
0  -36.588692 -60.496479 39.745277  -0.181867 0.147142 0.972252  0.476577 0.339824 1 0 1.000000
0  -36.104221 -53.363167 38.757244  -0.193972 0.132156 0.972064  0.275399 0.265603 1 0 1.000000
doorline
0  -36.610714 -53.346275 38.650124  -0.194829 0.132621 0.971830  0.476577 0.265603 1 0 1.000000
0  -36.104221 -53.363167 38.757244  -0.193972 0.132156 0.972064  0.275399 0.265603 1 0 1.000000
0  -36.621727 -44.534218 37.588448  -0.202949 0.117416 0.972124  0.476577 0.173803 1 0 1.000000
doorline
0  -36.060177 -44.924122 37.749916  -0.210311 0.116798 0.970632  0.275399 0.177709 1 0 1.000000
0  -36.621727 -44.534218 37.588448  -0.202949 0.117416 0.972124  0.476577 0.173803 1 0 1.000000
0  -36.104221 -53.363167 38.757244  -0.193972 0.132156 0.972064  0.275399 0.265603 1 0 1.000000
doorline
0  33.714901 -104.591820 41.504890  0.117005 -0.096992 0.988384  0.476577 0.177709 1 0 1.000000
0  33.758945 -104.126205 41.545776  0.120027 -0.109812 0.986679  0.275399 0.177709 1 0 1.000000
0  27.504841 -105.677505 42.132370  0.111776 -0.112924 0.987296  0.476577 0.298807 1 0 1.000000
doorline
0  27.570904 -105.209976 42.184097  0.106606 -0.128842 0.985918  0.275399 0.296854 1 0 1.000000
0  27.504841 -105.677505 42.132370  0.111776 -0.112924 0.987296  0.476577 0.298807 1 0 1.000000
0  33.758945 -104.126205 41.545776  0.120027 -0.109812 0.986679  0.275399 0.177709 1 0 1.000000
doorline
0  27.504841 -105.677505 42.132370  0.111776 -0.112924 0.987296  0.476577 0.298807 1 0 1.000000
0  27.570904 -105.209976 42.184097  0.106606 -0.128842 0.985918  0.275399 0.296854 1 0 1.000000
0  21.184673 -106.800797 42.609955  0.098696 -0.136087 0.985768  0.476577 0.421857 1 0 1.000000
doorline
0  21.272762 -106.344116 42.663593  0.100840 -0.144929 0.984290  0.275399 0.419904 1 0 1.000000
0  21.184673 -106.800797 42.609955  0.098696 -0.136087 0.985768  0.476577 0.421857 1 0 1.000000
0  27.570904 -105.209976 42.184097  0.106606 -0.128842 0.985918  0.275399 0.296854 1 0 1.000000
doorline
0  21.184673 -106.800797 42.609955  0.098696 -0.136087 0.985768  0.476577 0.421857 1 0 1.000000
0  21.272762 -106.344116 42.663593  0.100840 -0.144929 0.984290  0.275399 0.419904 1 0 1.000000
0  20.942440 -106.855019 42.619507  0.191357 -0.161080 0.968213  0.476577 0.425764 1 0 1.000000
doorline
0  21.030521 -106.385574 42.682087  0.280059 -0.175210 0.943858  0.275399 0.423811 1 0 1.000000
0  20.942440 -106.855019 42.619507  0.191357 -0.161080 0.968213  0.476577 0.425764 1 0 1.000000
0  21.272762 -106.344116 42.663593  0.100840 -0.144929 0.984290  0.275399 0.419904 1 0 1.000000
doorline
0  20.942440 -106.855019 42.619507  0.191357 -0.161080 0.968213  0.476577 0.425764 1 0 1.000000
0  21.030521 -106.385574 42.682087  0.280059 -0.175210 0.943858  0.275399 0.423811 1 0 1.000000
0  20.755253 -106.876068 42.690308  0.366384 -0.187524 0.911371  0.476577 0.429670 1 0 1.000000
doorline
0  20.854351 -106.417480 42.754795  0.364793 -0.183042 0.912920  0.275399 0.427717 1 0 1.000000
0  20.755253 -106.876068 42.690308  0.366384 -0.187524 0.911371  0.476577 0.429670 1 0 1.000000
0  21.030521 -106.385574 42.682087  0.280059 -0.175210 0.943858  0.275399 0.423811 1 0 1.000000
doorline
0  20.755253 -106.876068 42.690308  0.366384 -0.187524 0.911371  0.476577 0.429670 1 0 1.000000
0  20.854351 -106.417480 42.754795  0.364793 -0.183042 0.912920  0.275399 0.427717 1 0 1.000000
0  19.687214 -107.017090 43.095314  0.366104 -0.179899 0.913019  0.476577 0.451155 1 0 1.000000
doorline
0  19.775299 -106.560410 43.148956  0.364285 -0.174877 0.914721  0.275399 0.449202 1 0 1.000000
0  19.687214 -107.017090 43.095314  0.366104 -0.179899 0.913019  0.476577 0.451155 1 0 1.000000
0  20.854351 -106.417480 42.754795  0.364793 -0.183042 0.912920  0.275399 0.427717 1 0 1.000000
doorline
0  19.687214 -107.017090 43.095314  0.366104 -0.179899 0.913019  0.476577 0.451155 1 0 1.000000
0  19.775299 -106.560410 43.148956  0.364285 -0.174877 0.914721  0.275399 0.449202 1 0 1.000000
0  19.466999 -107.047089 43.178867  0.289735 -0.163962 0.942958  0.476577 0.455061 1 0 1.000000
doorline
0  19.544071 -106.590408 43.232510  0.211224 -0.151629 0.965605  0.275399 0.453108 1 0 1.000000
0  19.466999 -107.047089 43.178867  0.289735 -0.163962 0.942958  0.476577 0.455061 1 0 1.000000
0  19.775299 -106.560410 43.148956  0.364285 -0.174877 0.914721  0.275399 0.449202 1 0 1.000000
doorline
0  19.466999 -107.047089 43.178867  0.289735 -0.163962 0.942958  0.476577 0.455061 1 0 1.000000
0  19.544071 -106.590408 43.232510  0.211224 -0.151629 0.965605  0.275399 0.453108 1 0 1.000000
0  19.191730 -107.063034 43.215218  0.122803 -0.135645 0.983117  0.476577 0.460921 1 0 1.000000
doorline
0  19.268803 -106.617188 43.270775  0.122705 -0.137558 0.982864  0.275399 0.458968 1 0 1.000000
0  19.191730 -107.063034 43.215218  0.122803 -0.135645 0.983117  0.476577 0.460921 1 0 1.000000
0  19.544071 -106.590408 43.232510  0.211224 -0.151629 0.965605  0.275399 0.453108 1 0 1.000000
doorline
0  19.268803 -106.617188 43.270775  0.122705 -0.137558 0.982864  0.275399 0.458968 1 0 1.000000
0  9.204987 -107.224556 44.328220  0.077992 -0.127559 0.988760  0.275399 0.654286 1 0 1.000000
0  19.191730 -107.063034 43.215218  0.122803 -0.135645 0.983117  0.476577 0.460921 1 0 1.000000
doorline
0  9.182964 -107.670395 44.272667  0.077987 -0.126867 0.988849  0.476577 0.654286 1 0 1.000000
0  19.191730 -107.063034 43.215218  0.122803 -0.135645 0.983117  0.476577 0.460921 1 0 1.000000
0  9.204987 -107.224556 44.328220  0.077992 -0.127559 0.988760  0.275399 0.654286 1 0 1.000000
doorline
0  9.182964 -107.670395 44.272667  0.077987 -0.126867 0.988849  0.476577 0.654286 1 0 1.000000
0  9.204987 -107.224556 44.328220  0.077992 -0.127559 0.988760  0.275399 0.654286 1 0 1.000000
0  0.000008 -108.009140 44.634274  -0.000000 -0.123717 0.992318  0.476577 0.833979 1 0 1.000000
doorline
0  0.000008 -107.563309 44.689827  0.000000 -0.120742 0.992684  0.275399 0.833979 1 0 1.000000
0  0.000008 -108.009140 44.634274  -0.000000 -0.123717 0.992318  0.476577 0.833979 1 0 1.000000
0  9.204987 -107.224556 44.328220  0.077992 -0.127559 0.988760  0.275399 0.654286 1 0 1.000000
doorline
0  0.000008 -107.563309 44.689827  0.000000 -0.120742 0.992684  0.275399 0.833979 1 0 1.000000
0  -9.204975 -107.224556 44.328220  -0.078137 -0.127543 0.988750  0.275399 0.654286 1 0 1.000000
0  0.000008 -108.009140 44.634274  -0.000000 -0.123717 0.992318  0.476577 0.833979 1 0 1.000000
doorline
0  -9.182953 -107.670395 44.272667  -0.077986 -0.126854 0.988851  0.476577 0.654286 1 0 1.000000
0  0.000008 -108.009140 44.634274  -0.000000 -0.123717 0.992318  0.476577 0.833979 1 0 1.000000
0  -9.204975 -107.224556 44.328220  -0.078137 -0.127543 0.988750  0.275399 0.654286 1 0 1.000000
doorline
0  -9.182953 -107.670395 44.272667  -0.077986 -0.126854 0.988851  0.476577 0.654286 1 0 1.000000
0  -9.204975 -107.224556 44.328220  -0.078137 -0.127543 0.988750  0.275399 0.654286 1 0 1.000000
0  -19.191719 -107.063034 43.215221  -0.122793 -0.135643 0.983119  0.476577 0.460921 1 0 1.000000
doorline
0  -19.268795 -106.617188 43.270779  -0.122680 -0.137549 0.982868  0.275399 0.458968 1 0 1.000000
0  -19.191719 -107.063034 43.215221  -0.122793 -0.135643 0.983119  0.476577 0.460921 1 0 1.000000
0  -9.204975 -107.224556 44.328220  -0.078137 -0.127543 0.988750  0.275399 0.654286 1 0 1.000000
doorline
0  -19.268795 -106.617188 43.270779  -0.122680 -0.137549 0.982868  0.275399 0.458968 1 0 1.000000
0  -19.544064 -106.590408 43.232517  -0.211227 -0.151634 0.965603  0.275399 0.453108 1 0 1.000000
0  -19.191719 -107.063034 43.215221  -0.122793 -0.135643 0.983119  0.476577 0.460921 1 0 1.000000
doorline
0  -19.466988 -107.047089 43.178871  -0.289747 -0.163970 0.942953  0.476577 0.455061 1 0 1.000000
0  -19.191719 -107.063034 43.215221  -0.122793 -0.135643 0.983119  0.476577 0.460921 1 0 1.000000
0  -19.544064 -106.590408 43.232517  -0.211227 -0.151634 0.965603  0.275399 0.453108 1 0 1.000000
doorline
0  -19.544064 -106.590408 43.232517  -0.211227 -0.151634 0.965603  0.275399 0.453108 1 0 1.000000
0  -19.775288 -106.560410 43.148960  -0.364347 -0.174887 0.914694  0.275399 0.449202 1 0 1.000000
0  -19.466988 -107.047089 43.178871  -0.289747 -0.163970 0.942953  0.476577 0.455061 1 0 1.000000
doorline
0  -19.687202 -107.017090 43.095318  -0.365976 -0.179517 0.913146  0.476577 0.451155 1 0 1.000000
0  -19.466988 -107.047089 43.178871  -0.289747 -0.163970 0.942953  0.476577 0.455061 1 0 1.000000
0  -19.775288 -106.560410 43.148960  -0.364347 -0.174887 0.914694  0.275399 0.449202 1 0 1.000000
doorline
0  -19.775288 -106.560410 43.148960  -0.364347 -0.174887 0.914694  0.275399 0.449202 1 0 1.000000
0  -20.854342 -106.417480 42.754799  -0.364782 -0.183044 0.912923  0.275399 0.427717 1 0 1.000000
0  -19.687202 -107.017090 43.095318  -0.365976 -0.179517 0.913146  0.476577 0.451155 1 0 1.000000
doorline
0  -20.755245 -106.876068 42.690308  -0.366357 -0.187487 0.911390  0.476577 0.429670 1 0 1.000000
0  -19.687202 -107.017090 43.095318  -0.365976 -0.179517 0.913146  0.476577 0.451155 1 0 1.000000
0  -20.854342 -106.417480 42.754799  -0.364782 -0.183044 0.912923  0.275399 0.427717 1 0 1.000000
doorline
0  -20.854342 -106.417480 42.754799  -0.364782 -0.183044 0.912923  0.275399 0.427717 1 0 1.000000
0  -21.030514 -106.385574 42.682091  -0.280056 -0.175209 0.943859  0.275399 0.423811 1 0 1.000000
0  -20.755245 -106.876068 42.690308  -0.366357 -0.187487 0.911390  0.476577 0.429670 1 0 1.000000
doorline
0  -20.942427 -106.855019 42.619514  -0.191363 -0.161086 0.968211  0.476577 0.425764 1 0 1.000000
0  -20.755245 -106.876068 42.690308  -0.366357 -0.187487 0.911390  0.476577 0.429670 1 0 1.000000
0  -21.030514 -106.385574 42.682091  -0.280056 -0.175209 0.943859  0.275399 0.423811 1 0 1.000000
doorline
0  -21.030514 -106.385574 42.682091  -0.280056 -0.175209 0.943859  0.275399 0.423811 1 0 1.000000
0  -21.272749 -106.344116 42.663597  -0.100845 -0.144930 0.984289  0.275399 0.419904 1 0 1.000000
0  -20.942427 -106.855019 42.619514  -0.191363 -0.161086 0.968211  0.476577 0.425764 1 0 1.000000
doorline
0  -21.184664 -106.800797 42.609959  -0.098718 -0.136089 0.985766  0.476577 0.421857 1 0 1.000000
0  -20.942427 -106.855019 42.619514  -0.191363 -0.161086 0.968211  0.476577 0.425764 1 0 1.000000
0  -21.272749 -106.344116 42.663597  -0.100845 -0.144930 0.984289  0.275399 0.419904 1 0 1.000000
doorline
0  -21.272749 -106.344116 42.663597  -0.100845 -0.144930 0.984289  0.275399 0.419904 1 0 1.000000
0  -27.570896 -105.209976 42.184105  -0.106608 -0.128850 0.985917  0.275399 0.296854 1 0 1.000000
0  -21.184664 -106.800797 42.609959  -0.098718 -0.136089 0.985766  0.476577 0.421857 1 0 1.000000
doorline
0  -27.504831 -105.677505 42.132374  -0.111779 -0.112933 0.987295  0.476577 0.298807 1 0 1.000000
0  -21.184664 -106.800797 42.609959  -0.098718 -0.136089 0.985766  0.476577 0.421857 1 0 1.000000
0  -27.570896 -105.209976 42.184105  -0.106608 -0.128850 0.985917  0.275399 0.296854 1 0 1.000000
doorline
0  -27.570896 -105.209976 42.184105  -0.106608 -0.128850 0.985917  0.275399 0.296854 1 0 1.000000
0  -33.758930 -104.126205 41.545784  -0.120030 -0.109819 0.986678  0.275399 0.177709 1 0 1.000000
0  -27.504831 -105.677505 42.132374  -0.111779 -0.112933 0.987295  0.476577 0.298807 1 0 1.000000
doorline
0  -33.714890 -104.591820 41.504894  -0.117012 -0.096951 0.988387  0.476577 0.177709 1 0 1.000000
0  -27.504831 -105.677505 42.132374  -0.111779 -0.112933 0.987295  0.476577 0.298807 1 0 1.000000
0  -33.758930 -104.126205 41.545784  -0.120030 -0.109819 0.986678  0.275399 0.177709 1 0 1.000000
doorline
0  33.736927 -104.408760 41.528515  0.118465 -0.253191 0.960136  0.275399 0.794916 1 0 1.000000
0  34.298466 -104.213593 41.494102  0.136212 -0.172572 0.975533  0.476577 0.792962 1 0 1.000000
0  34.463627 -97.611435 42.096497  0.125606 -0.053967 0.990611  0.275399 0.726554 1 0 1.000000
doorline
0  34.981136 -97.601227 42.027615  0.131839 -0.053770 0.989812  0.476577 0.724601 1 0 1.000000
0  34.463627 -97.611435 42.096497  0.125606 -0.053967 0.990611  0.275399 0.726554 1 0 1.000000
0  34.298466 -104.213593 41.494102  0.136212 -0.172572 0.975533  0.476577 0.792962 1 0 1.000000
doorline
0  34.981136 -97.601227 42.027615  0.131839 -0.053770 0.989812  0.476577 0.724601 1 0 1.000000
0  35.487629 -90.338196 42.066257  0.137826 -0.015199 0.990340  0.476577 0.650380 1 0 1.000000
0  34.463627 -97.611435 42.096497  0.125606 -0.053967 0.990611  0.275399 0.726554 1 0 1.000000
doorline
0  34.981136 -90.348404 42.135143  0.145031 -0.015958 0.989299  0.275399 0.652333 1 0 1.000000
0  34.463627 -97.611435 42.096497  0.125606 -0.053967 0.990611  0.275399 0.726554 1 0 1.000000
0  35.487629 -90.338196 42.066257  0.137826 -0.015199 0.990340  0.476577 0.650380 1 0 1.000000
doorline
0  35.487629 -90.338196 42.066257  0.137826 -0.015199 0.990340  0.476577 0.650380 1 0 1.000000
0  36.060184 -82.360161 42.101814  0.150493 0.001390 0.988610  0.476577 0.570299 1 0 1.000000
0  34.981136 -90.348404 42.135143  0.145031 -0.015958 0.989299  0.275399 0.652333 1 0 1.000000
doorline
0  35.542683 -82.368462 42.181541  0.152188 0.000414 0.988351  0.275399 0.570299 1 0 1.000000
0  34.981136 -90.348404 42.135143  0.145031 -0.015958 0.989299  0.275399 0.652333 1 0 1.000000
0  36.060184 -82.360161 42.101814  0.150493 0.001390 0.988610  0.476577 0.570299 1 0 1.000000
doorline
0  35.542683 -82.368462 42.181541  0.152188 0.000414 0.988351  0.275399 0.570299 1 0 1.000000
0  36.060184 -82.360161 42.101814  0.150493 0.001390 0.988610  0.476577 0.570299 1 0 1.000000
0  35.806942 -74.607864 41.998417  0.152161 0.076289 0.985407  0.275399 0.490219 1 0 1.000000
doorline
0  36.324444 -74.588722 41.916775  0.154597 0.089697 0.983898  0.476577 0.490219 1 0 1.000000
0  35.806942 -74.607864 41.998417  0.152161 0.076289 0.985407  0.275399 0.490219 1 0 1.000000
0  36.060184 -82.360161 42.101814  0.150493 0.001390 0.988610  0.476577 0.570299 1 0 1.000000
doorline
0  35.806942 -74.607864 41.998417  0.152161 0.076289 0.985407  0.275399 0.490219 1 0 1.000000
0  36.324444 -74.588722 41.916775  0.154597 0.089697 0.983898  0.476577 0.490219 1 0 1.000000
0  36.071201 -67.464348 40.882759  0.157210 0.144163 0.976986  0.275399 0.412091 1 0 1.000000
doorline
0  36.577694 -67.452393 40.799759  0.164253 0.150039 0.974941  0.476577 0.412091 1 0 1.000000
0  36.071201 -67.464348 40.882759  0.157210 0.144163 0.976986  0.275399 0.412091 1 0 1.000000
0  36.324444 -74.588722 41.916775  0.154597 0.089697 0.983898  0.476577 0.490219 1 0 1.000000
doorline
0  36.071201 -67.464348 40.882759  0.157210 0.144163 0.976986  0.275399 0.412091 1 0 1.000000
0  36.577694 -67.452393 40.799759  0.164253 0.150039 0.974941  0.476577 0.412091 1 0 1.000000
0  36.082211 -60.505585 39.838902  0.170256 0.147054 0.974366  0.275399 0.339824 1 0 1.000000
doorline
0  36.588703 -60.496475 39.745266  0.181961 0.147143 0.972234  0.476577 0.339824 1 0 1.000000
0  36.082211 -60.505585 39.838902  0.170256 0.147054 0.974366  0.275399 0.339824 1 0 1.000000
0  36.577694 -67.452393 40.799759  0.164253 0.150039 0.974941  0.476577 0.412091 1 0 1.000000
doorline
0  36.082211 -60.505585 39.838902  0.170256 0.147054 0.974366  0.275399 0.339824 1 0 1.000000
0  36.588703 -60.496475 39.745266  0.181961 0.147143 0.972234  0.476577 0.339824 1 0 1.000000
0  36.104229 -53.363163 38.757236  0.193986 0.132156 0.972062  0.275399 0.265603 1 0 1.000000
doorline
0  36.610722 -53.346268 38.650112  0.194797 0.132630 0.971835  0.476577 0.265603 1 0 1.000000
0  36.104229 -53.363163 38.757236  0.193986 0.132156 0.972062  0.275399 0.265603 1 0 1.000000
0  36.588703 -60.496475 39.745266  0.181961 0.147143 0.972234  0.476577 0.339824 1 0 1.000000
doorline
0  36.610722 -53.346268 38.650112  0.194797 0.132630 0.971835  0.476577 0.265603 1 0 1.000000
0  36.621738 -44.534218 37.588436  0.202890 0.117416 0.972136  0.476577 0.173803 1 0 1.000000
0  36.104229 -53.363163 38.757236  0.193986 0.132156 0.972062  0.275399 0.265603 1 0 1.000000
doorline
0  36.060184 -44.924122 37.749908  0.210298 0.116800 0.970635  0.275399 0.177709 1 0 1.000000
0  36.104229 -53.363163 38.757236  0.193986 0.132156 0.972062  0.275399 0.265603 1 0 1.000000
0  36.621738 -44.534218 37.588436  0.202890 0.117416 0.972136  0.476577 0.173803 1 0 1.000000
skin_0dam
0  20.986481 -106.681519 42.588917  0.205645 -0.152448 0.966680  0.327698 0.640969 1 0 1.000000
0  22.748199 -98.309425 43.527706  0.255235 -0.108912 0.960726  0.336852 0.682965 1 0 1.000000
0  20.777279 -106.702576 42.659714  0.354155 -0.177218 0.918242  0.326611 0.640797 1 0 1.000000
skin_0dam
0  33.869053 -104.357086 41.441139  0.115909 -0.092820 0.988913  0.394639 0.653899 1 0 1.000000
0  34.584751 -97.617798 41.996994  0.135510 -0.079798 0.987557  0.398358 0.687885 1 0 1.000000
0  27.537872 -105.486145 42.076267  0.119946 -0.109007 0.986778  0.361741 0.647548 1 0 1.000000
skin_0dam
0  28.782085 -97.941299 42.825497  0.132050 -0.078051 0.988165  0.368206 0.685482 1 0 1.000000
0  27.537872 -105.486145 42.076267  0.119946 -0.109007 0.986778  0.361741 0.647548 1 0 1.000000
0  34.584751 -97.617798 41.996994  0.135510 -0.079798 0.987557  0.398358 0.687885 1 0 1.000000
skin_0dam
0  27.537872 -105.486145 42.076267  0.119946 -0.109007 0.986778  0.361741 0.647548 1 0 1.000000
0  28.782085 -97.941299 42.825497  0.132050 -0.078051 0.988165  0.368206 0.685482 1 0 1.000000
0  21.195683 -106.640068 42.570431  0.110583 -0.128124 0.985574  0.328785 0.641197 1 0 1.000000
skin_0dam
0  22.968414 -98.302399 43.504108  0.125648 -0.089664 0.988015  0.337996 0.683022 1 0 1.000000
0  21.195683 -106.640068 42.570431  0.110583 -0.128124 0.985574  0.328785 0.641197 1 0 1.000000
0  28.782085 -97.941299 42.825497  0.132050 -0.078051 0.988165  0.368206 0.685482 1 0 1.000000
skin_0dam
0  21.195683 -106.640068 42.570431  0.110583 -0.128124 0.985574  0.328785 0.641197 1 0 1.000000
0  22.968414 -98.302399 43.504108  0.125648 -0.089664 0.988015  0.337996 0.683022 1 0 1.000000
0  20.986481 -106.681519 42.588917  0.205645 -0.152448 0.966680  0.327698 0.640969 1 0 1.000000
skin_0dam
0  22.748199 -98.309425 43.527706  0.255235 -0.108912 0.960726  0.336852 0.682965 1 0 1.000000
0  20.986481 -106.681519 42.588917  0.205645 -0.152448 0.966680  0.327698 0.640969 1 0 1.000000
0  22.968414 -98.302399 43.504108  0.125648 -0.089664 0.988015  0.337996 0.683022 1 0 1.000000
skin_0dam
0  22.968414 -98.302399 43.504108  0.125648 -0.089664 0.988015  0.337996 0.683022 1 0 1.000000
0  24.366779 -91.029190 43.663944  0.139630 -0.037104 0.989508  0.345263 0.720097 1 0 1.000000
0  22.748199 -98.309425 43.527706  0.255235 -0.108912 0.960726  0.336852 0.682965 1 0 1.000000
skin_0dam
0  24.113533 -91.045151 43.700291  0.236884 -0.052847 0.970100  0.343947 0.719983 1 0 1.000000
0  22.748199 -98.309425 43.527706  0.255235 -0.108912 0.960726  0.336852 0.682965 1 0 1.000000
0  24.366779 -91.029190 43.663944  0.139630 -0.037104 0.989508  0.345263 0.720097 1 0 1.000000
skin_0dam
0  24.366779 -91.029190 43.663944  0.139630 -0.037104 0.989508  0.345263 0.720097 1 0 1.000000
0  25.798176 -83.087494 43.683674  0.152009 -0.010989 0.988318  0.352701 0.760720 1 0 1.000000
0  24.113533 -91.045151 43.700291  0.236884 -0.052847 0.970100  0.343947 0.719983 1 0 1.000000
skin_0dam
0  25.544930 -83.101524 43.730873  0.223229 -0.020019 0.974560  0.351385 0.760606 1 0 1.000000
0  24.113533 -91.045151 43.700291  0.236884 -0.052847 0.970100  0.343947 0.719983 1 0 1.000000
0  25.798176 -83.087494 43.683674  0.152009 -0.010989 0.988318  0.352701 0.760720 1 0 1.000000
skin_0dam
0  25.798176 -83.087494 43.683674  0.152009 -0.010989 0.988318  0.352701 0.760720 1 0 1.000000
0  27.075420 -75.238892 43.428989  0.152239 0.075344 0.985468  0.359338 0.801114 1 0 1.000000
0  25.544930 -83.101524 43.730873  0.223229 -0.020019 0.974560  0.351385 0.760606 1 0 1.000000
skin_0dam
0  27.075420 -75.238892 43.428989  0.152239 0.075344 0.985468  0.359338 0.801114 1 0 1.000000
0  25.798176 -83.087494 43.683674  0.152009 -0.010989 0.988318  0.352701 0.760720 1 0 1.000000
0  31.534771 -74.921150 42.758034  0.160107 0.078787 0.983950  0.382510 0.803345 1 0 1.000000
skin_0dam
0  31.534771 -74.921150 42.758034  0.160107 0.078787 0.983950  0.382510 0.803345 1 0 1.000000
0  32.261478 -67.650810 41.548271  0.165736 0.140964 0.976043  0.386286 0.842480 1 0 1.000000
0  27.075420 -75.238892 43.428989  0.152239 0.075344 0.985468  0.359338 0.801114 1 0 1.000000
skin_0dam
0  32.261478 -67.650810 41.548271  0.165736 0.140964 0.976043  0.386286 0.842480 1 0 1.000000
0  31.534771 -74.921150 42.758034  0.160107 0.078787 0.983950  0.382510 0.803345 1 0 1.000000
0  36.247372 -67.471581 40.770706  0.180335 0.141182 0.973420  0.406998 0.844426 1 0 1.000000
skin_0dam
0  36.247372 -67.471581 40.770706  0.180335 0.141182 0.973420  0.406998 0.844426 1 0 1.000000
0  36.258381 -60.501411 39.769390  0.189359 0.140066 0.971867  0.407055 0.880757 1 0 1.000000
0  32.261478 -67.650810 41.548271  0.165736 0.140964 0.976043  0.386286 0.842480 1 0 1.000000
skin_0dam
0  34.584751 -97.617798 41.996994  0.135510 -0.079798 0.987557  0.398358 0.687885 1 0 1.000000
0  35.157307 -90.332466 42.098789  0.153054 -0.024203 0.987921  0.401334 0.725075 1 0 1.000000
0  28.782085 -97.941299 42.825497  0.132050 -0.078051 0.988165  0.368206 0.685482 1 0 1.000000
skin_0dam
0  29.773060 -90.662979 42.950890  0.145397 -0.027507 0.988991  0.373355 0.722615 1 0 1.000000
0  28.782085 -97.941299 42.825497  0.132050 -0.078051 0.988165  0.368206 0.685482 1 0 1.000000
0  35.157307 -90.332466 42.098789  0.153054 -0.024203 0.987921  0.401334 0.725075 1 0 1.000000
skin_0dam
0  28.782085 -97.941299 42.825497  0.132050 -0.078051 0.988165  0.368206 0.685482 1 0 1.000000
0  29.773060 -90.662979 42.950890  0.145397 -0.027507 0.988991  0.373355 0.722615 1 0 1.000000
0  22.968414 -98.302399 43.504108  0.125648 -0.089664 0.988015  0.337996 0.683022 1 0 1.000000
skin_0dam
0  24.366779 -91.029190 43.663944  0.139630 -0.037104 0.989508  0.345263 0.720097 1 0 1.000000
0  22.968414 -98.302399 43.504108  0.125648 -0.089664 0.988015  0.337996 0.683022 1 0 1.000000
0  29.773060 -90.662979 42.950890  0.145397 -0.027507 0.988991  0.373355 0.722615 1 0 1.000000
skin_0dam
0  29.773060 -90.662979 42.950890  0.145397 -0.027507 0.988991  0.373355 0.722615 1 0 1.000000
0  30.730991 -82.723213 42.959648  0.159987 -0.006440 0.987098  0.378333 0.763237 1 0 1.000000
0  24.366779 -91.029190 43.663944  0.139630 -0.037104 0.989508  0.345263 0.720097 1 0 1.000000
skin_0dam
0  25.798176 -83.087494 43.683674  0.152009 -0.010989 0.988318  0.352701 0.760720 1 0 1.000000
0  24.366779 -91.029190 43.663944  0.139630 -0.037104 0.989508  0.345263 0.720097 1 0 1.000000
0  30.730991 -82.723213 42.959648  0.159987 -0.006440 0.987098  0.378333 0.763237 1 0 1.000000
skin_0dam
0  30.730991 -82.723213 42.959648  0.159987 -0.006440 0.987098  0.378333 0.763237 1 0 1.000000
0  31.534771 -74.921150 42.758034  0.160107 0.078787 0.983950  0.382510 0.803345 1 0 1.000000
0  25.798176 -83.087494 43.683674  0.152009 -0.010989 0.988318  0.352701 0.760720 1 0 1.000000
skin_0dam
0  31.534771 -74.921150 42.758034  0.160107 0.078787 0.983950  0.382510 0.803345 1 0 1.000000
0  30.730991 -82.723213 42.959648  0.159987 -0.006440 0.987098  0.378333 0.763237 1 0 1.000000
0  35.983112 -74.630188 41.935268  0.173564 0.078562 0.981684  0.405625 0.805577 1 0 1.000000
skin_0dam
0  35.983112 -74.630188 41.935268  0.173564 0.078562 0.981684  0.405625 0.805577 1 0 1.000000
0  36.247372 -67.471581 40.770706  0.180335 0.141182 0.973420  0.406998 0.844426 1 0 1.000000
0  31.534771 -74.921150 42.758034  0.160107 0.078787 0.983950  0.382510 0.803345 1 0 1.000000
skin_0dam
0  35.157307 -90.332466 42.098789  0.153054 -0.024203 0.987921  0.401334 0.725075 1 0 1.000000
0  35.652790 -82.385666 42.083946  0.169368 -0.005938 0.985535  0.403908 0.765755 1 0 1.000000
0  29.773060 -90.662979 42.950890  0.145397 -0.027507 0.988991  0.373355 0.722615 1 0 1.000000
skin_0dam
0  30.730991 -82.723213 42.959648  0.159987 -0.006440 0.987098  0.378333 0.763237 1 0 1.000000
0  29.773060 -90.662979 42.950890  0.145397 -0.027507 0.988991  0.373355 0.722615 1 0 1.000000
0  35.652790 -82.385666 42.083946  0.169368 -0.005938 0.985535  0.403908 0.765755 1 0 1.000000
skin_0dam
0  35.652790 -82.385666 42.083946  0.169368 -0.005938 0.985535  0.403908 0.765755 1 0 1.000000
0  35.983112 -74.630188 41.935268  0.173564 0.078562 0.981684  0.405625 0.805577 1 0 1.000000
0  30.730991 -82.723213 42.959648  0.159987 -0.006440 0.987098  0.378333 0.763237 1 0 1.000000
skin_0dam
0  27.075420 -75.238892 43.428989  0.152239 0.075344 0.985468  0.359338 0.801114 1 0 1.000000
0  28.264584 -67.869919 42.176941  0.159658 0.136823 0.977644  0.365517 0.840535 1 0 1.000000
0  26.822174 -75.254845 43.465351  0.219280 0.063168 0.973615  0.358022 0.800999 1 0 1.000000
skin_0dam
0  28.264584 -67.869919 42.176941  0.159658 0.136823 0.977644  0.365517 0.840535 1 0 1.000000
0  27.075420 -75.238892 43.428989  0.152239 0.075344 0.985468  0.359338 0.801114 1 0 1.000000
0  32.261478 -67.650810 41.548271  0.165736 0.140964 0.976043  0.386286 0.842480 1 0 1.000000
skin_0dam
0  32.261478 -67.650810 41.548271  0.165736 0.140964 0.976043  0.386286 0.842480 1 0 1.000000
0  32.900105 -60.802002 40.476887  0.174031 0.140174 0.974713  0.389604 0.878297 1 0 1.000000
0  28.264584 -67.869919 42.176941  0.159658 0.136823 0.977644  0.365517 0.840535 1 0 1.000000
skin_0dam
0  32.900105 -60.802002 40.476887  0.174031 0.140174 0.974713  0.389604 0.878297 1 0 1.000000
0  32.261478 -67.650810 41.548271  0.165736 0.140964 0.976043  0.386286 0.842480 1 0 1.000000
0  36.258381 -60.501411 39.769390  0.189359 0.140066 0.971867  0.407055 0.880757 1 0 1.000000
skin_0dam
0  36.258381 -60.501411 39.769390  0.189359 0.140066 0.971867  0.407055 0.880757 1 0 1.000000
0  36.280399 -53.358994 38.687717  0.198980 0.137669 0.970286  0.407169 0.918062 1 0 1.000000
0  32.900105 -60.802002 40.476887  0.174031 0.140174 0.974713  0.389604 0.878297 1 0 1.000000
skin_0dam
0  33.318516 -53.783035 39.359901  0.192432 0.128423 0.972871  0.391779 0.915029 1 0 1.000000
0  32.900105 -60.802002 40.476887  0.174031 0.140174 0.974713  0.389604 0.878297 1 0 1.000000
0  36.280399 -53.358994 38.687717  0.198980 0.137669 0.970286  0.407169 0.918062 1 0 1.000000
skin_0dam
0  36.280399 -53.358994 38.687717  0.198980 0.137669 0.970286  0.407169 0.918062 1 0 1.000000
0  36.258381 -44.747696 37.600040  0.231805 0.113372 0.966133  0.407055 0.962747 1 0 1.000000
0  33.318516 -53.783035 39.359901  0.192432 0.128423 0.972871  0.391779 0.915029 1 0 1.000000
skin_0dam
0  33.990170 -46.494362 38.398636  0.190846 0.115970 0.974745  0.395269 0.952906 1 0 1.000000
0  33.318516 -53.783035 39.359901  0.192432 0.128423 0.972871  0.391779 0.915029 1 0 1.000000
0  36.258381 -44.747696 37.600040  0.231805 0.113372 0.966133  0.407055 0.962747 1 0 1.000000
skin_0dam
0  33.318516 -53.783035 39.359901  0.192432 0.128423 0.972871  0.391779 0.915029 1 0 1.000000
0  33.990170 -46.494362 38.398636  0.190846 0.115970 0.974745  0.395269 0.952906 1 0 1.000000
0  29.420712 -54.392818 40.104649  0.133623 0.142107 0.980791  0.371524 0.910967 1 0 1.000000
skin_0dam
0  29.993267 -48.083588 39.189240  0.085100 0.163537 0.982860  0.374500 0.943866 1 0 1.000000
0  29.420712 -54.392818 40.104649  0.133623 0.142107 0.980791  0.371524 0.910967 1 0 1.000000
0  33.990170 -46.494362 38.398636  0.190846 0.115970 0.974745  0.395269 0.952906 1 0 1.000000
skin_0dam
0  29.420712 -54.392818 40.104649  0.133623 0.142107 0.980791  0.371524 0.910967 1 0 1.000000
0  29.993267 -48.083588 39.189240  0.085100 0.163537 0.982860  0.374500 0.943866 1 0 1.000000
0  13.906574 -55.619617 41.482098  0.038240 0.185179 0.981961  0.290908 0.902957 1 0 1.000000
skin_0dam
0  14.060722 -50.444832 40.289303  0.017561 0.230093 0.973010  0.291709 0.930535 1 0 1.000000
0  13.906574 -55.619617 41.482098  0.038240 0.185179 0.981961  0.290908 0.902957 1 0 1.000000
0  29.993267 -48.083588 39.189240  0.085100 0.163537 0.982860  0.374500 0.943866 1 0 1.000000
skin_0dam
0  13.906574 -55.619617 41.482098  0.038240 0.185179 0.981961  0.290908 0.902957 1 0 1.000000
0  14.060722 -50.444832 40.289303  0.017561 0.230093 0.973010  0.291709 0.930535 1 0 1.000000
0  0.000004 -55.765469 41.703564  -0.002075 0.207938 0.978140  0.218645 0.901927 1 0 1.000000
skin_0dam
0  0.000004 -51.012691 40.509857  -0.004510 0.236926 0.971517  0.218645 0.927388 1 0 1.000000
0  0.000004 -55.765469 41.703564  -0.002075 0.207938 0.978140  0.218645 0.901927 1 0 1.000000
0  14.060722 -50.444832 40.289303  0.017561 0.230093 0.973010  0.291709 0.930535 1 0 1.000000
skin_0dam
0  0.000004 -55.765469 41.703564  -0.002075 0.207938 0.978140  0.218645 0.901927 1 0 1.000000
0  0.000004 -51.012691 40.509857  -0.004510 0.236926 0.971517  0.218645 0.927388 1 0 1.000000
0  -13.906563 -55.619617 41.482098  -0.042733 0.198326 0.979204  0.146383 0.902957 1 0 1.000000
skin_0dam
0  -14.060715 -50.444832 40.289303  -0.040924 0.195368 0.979876  0.145582 0.930535 1 0 1.000000
0  -13.906563 -55.619617 41.482098  -0.042733 0.198326 0.979204  0.146383 0.902957 1 0 1.000000
0  0.000004 -51.012691 40.509857  -0.004510 0.236926 0.971517  0.218645 0.927388 1 0 1.000000
skin_0dam
0  -13.906563 -55.619617 41.482098  -0.042733 0.198326 0.979204  0.146383 0.902957 1 0 1.000000
0  -14.060715 -50.444832 40.289303  -0.040924 0.195368 0.979876  0.145582 0.930535 1 0 1.000000
0  -29.420700 -54.392826 40.104656  -0.130504 0.150565 0.979948  0.065766 0.910967 1 0 1.000000
skin_0dam
0  -29.993259 -48.083591 39.189247  -0.121440 0.127980 0.984314  0.062791 0.943866 1 0 1.000000
0  -29.420700 -54.392826 40.104656  -0.130504 0.150565 0.979948  0.065766 0.910967 1 0 1.000000
0  -14.060715 -50.444832 40.289303  -0.040924 0.195368 0.979876  0.145582 0.930535 1 0 1.000000
skin_0dam
0  26.822174 -75.254845 43.465351  0.219280 0.063168 0.973615  0.358022 0.800999 1 0 1.000000
0  28.011333 -67.879791 42.225185  0.193260 0.129863 0.972515  0.364201 0.840421 1 0 1.000000
0  26.568928 -75.275902 43.536144  0.252882 0.060930 0.965577  0.356706 0.800828 1 0 1.000000
skin_0dam
0  28.011333 -67.879791 42.225185  0.193260 0.129863 0.972515  0.364201 0.840421 1 0 1.000000
0  26.822174 -75.254845 43.465351  0.219280 0.063168 0.973615  0.358022 0.800999 1 0 1.000000
0  28.264584 -67.869919 42.176941  0.159658 0.136823 0.977644  0.365517 0.840535 1 0 1.000000
skin_0dam
0  28.011333 -67.879791 42.225185  0.193260 0.129863 0.972515  0.364201 0.840421 1 0 1.000000
0  28.264584 -67.869919 42.176941  0.159658 0.136823 0.977644  0.365517 0.840535 1 0 1.000000
0  28.705013 -61.208946 41.212879  0.178624 0.132848 0.974908  0.367806 0.875265 1 0 1.000000
skin_0dam
0  28.958256 -61.188446 41.161789  0.164471 0.137988 0.976682  0.369121 0.875436 1 0 1.000000
0  28.705013 -61.208946 41.212879  0.178624 0.132848 0.974908  0.367806 0.875265 1 0 1.000000
0  28.264584 -67.869919 42.176941  0.159658 0.136823 0.977644  0.365517 0.840535 1 0 1.000000
skin_0dam
0  28.958256 -61.188446 41.161789  0.164471 0.137988 0.976682  0.369121 0.875436 1 0 1.000000
0  29.420712 -54.392818 40.104649  0.133623 0.142107 0.980791  0.371524 0.910967 1 0 1.000000
0  28.705013 -61.208946 41.212879  0.178624 0.132848 0.974908  0.367806 0.875265 1 0 1.000000
skin_0dam
0  29.420712 -54.392818 40.104649  0.133623 0.142107 0.980791  0.371524 0.910967 1 0 1.000000
0  28.958256 -61.188446 41.161789  0.164471 0.137988 0.976682  0.369121 0.875436 1 0 1.000000
0  33.318516 -53.783035 39.359901  0.192432 0.128423 0.972871  0.391779 0.915029 1 0 1.000000
skin_0dam
0  32.900105 -60.802002 40.476887  0.174031 0.140174 0.974713  0.389604 0.878297 1 0 1.000000
0  33.318516 -53.783035 39.359901  0.192432 0.128423 0.972871  0.391779 0.915029 1 0 1.000000
0  28.958256 -61.188446 41.161789  0.164471 0.137988 0.976682  0.369121 0.875436 1 0 1.000000
skin_0dam
0  28.958256 -61.188446 41.161789  0.164471 0.137988 0.976682  0.369121 0.875436 1 0 1.000000
0  28.264584 -67.869919 42.176941  0.159658 0.136823 0.977644  0.365517 0.840535 1 0 1.000000
0  32.900105 -60.802002 40.476887  0.174031 0.140174 0.974713  0.389604 0.878297 1 0 1.000000
skin_0dam
0  28.528843 -61.256424 41.248402  0.193071 0.131597 0.972320  0.366890 0.874979 1 0 1.000000
0  28.705013 -61.208946 41.212879  0.178624 0.132848 0.974908  0.367806 0.875265 1 0 1.000000
0  29.420712 -54.392818 40.104649  0.133623 0.142107 0.980791  0.371524 0.910967 1 0 1.000000
skin_0dam
0  28.528843 -61.256424 41.248402  0.193071 0.131597 0.972320  0.366890 0.874979 1 0 1.000000
0  27.758091 -67.889664 42.273426  0.213163 0.128226 0.968566  0.362885 0.840306 1 0 1.000000
0  28.705013 -61.208946 41.212879  0.178624 0.132848 0.974908  0.367806 0.875265 1 0 1.000000
skin_0dam
0  28.011333 -67.879791 42.225185  0.193260 0.129863 0.972515  0.364201 0.840421 1 0 1.000000
0  28.705013 -61.208946 41.212879  0.178624 0.132848 0.974908  0.367806 0.875265 1 0 1.000000
0  27.758091 -67.889664 42.273426  0.213163 0.128226 0.968566  0.362885 0.840306 1 0 1.000000
skin_0dam
0  27.758091 -67.889664 42.273426  0.213163 0.128226 0.968566  0.362885 0.840306 1 0 1.000000
0  26.568928 -75.275902 43.536144  0.252882 0.060930 0.965577  0.356706 0.800828 1 0 1.000000
0  28.011333 -67.879791 42.225185  0.193260 0.129863 0.972515  0.364201 0.840421 1 0 1.000000
skin_0dam
0  -28.253561 -61.311695 41.297413  -0.080445 0.155812 0.984506  0.071831 0.874635 1 0 1.000000
0  -28.363668 -61.303909 41.283932  -0.135682 0.141282 0.980627  0.071259 0.874693 1 0 1.000000
0  -27.119455 -67.917191 42.383404  -0.086298 0.155884 0.983998  0.077724 0.840020 1 0 1.000000
skin_0dam
0  -29.420700 -54.392826 40.104656  -0.130504 0.150565 0.979948  0.065766 0.910967 1 0 1.000000
0  -28.363668 -61.303909 41.283932  -0.135682 0.141282 0.980627  0.071259 0.874693 1 0 1.000000
0  -28.253561 -61.311695 41.297413  -0.080445 0.155812 0.984506  0.071831 0.874635 1 0 1.000000
skin_0dam
0  -29.420700 -54.392826 40.104656  -0.130504 0.150565 0.979948  0.065766 0.910967 1 0 1.000000
0  -28.253561 -61.311695 41.297413  -0.080445 0.155812 0.984506  0.071831 0.874635 1 0 1.000000
0  -13.906563 -55.619617 41.482098  -0.042733 0.198326 0.979204  0.146383 0.902957 1 0 1.000000
skin_0dam
0  -13.741402 -62.226448 42.648235  -0.050273 0.166517 0.984756  0.147241 0.868227 1 0 1.000000
0  -13.906563 -55.619617 41.482098  -0.042733 0.198326 0.979204  0.146383 0.902957 1 0 1.000000
0  -28.253561 -61.311695 41.297413  -0.080445 0.155812 0.984506  0.071831 0.874635 1 0 1.000000
skin_0dam
0  -13.906563 -55.619617 41.482098  -0.042733 0.198326 0.979204  0.146383 0.902957 1 0 1.000000
0  -13.741402 -62.226448 42.648235  -0.050273 0.166517 0.984756  0.147241 0.868227 1 0 1.000000
0  0.000004 -55.765469 41.703564  -0.002075 0.207938 0.978140  0.218645 0.901927 1 0 1.000000
skin_0dam
0  0.000004 -62.336769 42.917179  -0.001379 0.174171 0.984714  0.218645 0.867312 1 0 1.000000
0  0.000004 -55.765469 41.703564  -0.002075 0.207938 0.978140  0.218645 0.901927 1 0 1.000000
0  -13.741402 -62.226448 42.648235  -0.050273 0.166517 0.984756  0.147241 0.868227 1 0 1.000000
skin_0dam
0  0.000004 -55.765469 41.703564  -0.002075 0.207938 0.978140  0.218645 0.901927 1 0 1.000000
0  0.000004 -62.336769 42.917179  -0.001379 0.174171 0.984714  0.218645 0.867312 1 0 1.000000
0  13.906574 -55.619617 41.482098  0.038240 0.185179 0.981961  0.290908 0.902957 1 0 1.000000
skin_0dam
0  13.741413 -62.226448 42.648235  0.049469 0.166459 0.984807  0.290050 0.868227 1 0 1.000000
0  13.906574 -55.619617 41.482098  0.038240 0.185179 0.981961  0.290908 0.902957 1 0 1.000000
0  0.000004 -62.336769 42.917179  -0.001379 0.174171 0.984714  0.218645 0.867312 1 0 1.000000
skin_0dam
0  13.906574 -55.619617 41.482098  0.038240 0.185179 0.981961  0.290908 0.902957 1 0 1.000000
0  13.741413 -62.226448 42.648235  0.049469 0.166459 0.984807  0.290050 0.868227 1 0 1.000000
0  29.420712 -54.392818 40.104649  0.133623 0.142107 0.980791  0.371524 0.910967 1 0 1.000000
skin_0dam
0  28.253574 -61.311691 41.297405  0.083134 0.153084 0.984710  0.365460 0.874635 1 0 1.000000
0  29.420712 -54.392818 40.104649  0.133623 0.142107 0.980791  0.371524 0.910967 1 0 1.000000
0  13.741413 -62.226448 42.648235  0.049469 0.166459 0.984807  0.290050 0.868227 1 0 1.000000
skin_0dam
0  28.363682 -61.303902 41.283920  0.135715 0.141280 0.980623  0.366032 0.874693 1 0 1.000000
0  29.420712 -54.392818 40.104649  0.133623 0.142107 0.980791  0.371524 0.910967 1 0 1.000000
0  28.253574 -61.311691 41.297405  0.083134 0.153084 0.984710  0.365460 0.874635 1 0 1.000000
skin_0dam
0  28.363682 -61.303902 41.283920  0.135715 0.141280 0.980623  0.366032 0.874693 1 0 1.000000
0  28.528843 -61.256424 41.248402  0.193071 0.131597 0.972320  0.366890 0.874979 1 0 1.000000
0  29.420712 -54.392818 40.104649  0.133623 0.142107 0.980791  0.371524 0.910967 1 0 1.000000
skin_0dam
0  28.528843 -61.256424 41.248402  0.193071 0.131597 0.972320  0.366890 0.874979 1 0 1.000000
0  28.363682 -61.303902 41.283920  0.135715 0.141280 0.980623  0.366032 0.874693 1 0 1.000000
0  27.581913 -67.902390 42.311035  0.209533 0.130609 0.969039  0.361970 0.840192 1 0 1.000000
skin_0dam
0  27.758091 -67.889664 42.273426  0.213163 0.128226 0.968566  0.362885 0.840306 1 0 1.000000
0  28.528843 -61.256424 41.248402  0.193071 0.131597 0.972320  0.366890 0.874979 1 0 1.000000
0  27.581913 -67.902390 42.311035  0.209533 0.130609 0.969039  0.361970 0.840192 1 0 1.000000
skin_0dam
0  27.581913 -67.902390 42.311035  0.209533 0.130609 0.969039  0.361970 0.840192 1 0 1.000000
0  26.172543 -75.300156 43.652229  0.271231 0.056612 0.960848  0.354646 0.800599 1 0 1.000000
0  27.758091 -67.889664 42.273426  0.213163 0.128226 0.968566  0.362885 0.840306 1 0 1.000000
skin_0dam
0  26.568928 -75.275902 43.536144  0.252882 0.060930 0.965577  0.356706 0.800828 1 0 1.000000
0  27.758091 -67.889664 42.273426  0.213163 0.128226 0.968566  0.362885 0.840306 1 0 1.000000
0  26.172543 -75.300156 43.652229  0.271231 0.056612 0.960848  0.354646 0.800599 1 0 1.000000
skin_0dam
0  26.568928 -75.275902 43.536144  0.252882 0.060930 0.965577  0.356706 0.800828 1 0 1.000000
0  26.172543 -75.300156 43.652229  0.271231 0.056612 0.960848  0.354646 0.800599 1 0 1.000000
0  25.291683 -83.120674 43.812508  0.313179 -0.038604 0.948909  0.350069 0.760434 1 0 1.000000
skin_0dam
0  26.568928 -75.275902 43.536144  0.252882 0.060930 0.965577  0.356706 0.800828 1 0 1.000000
0  25.291683 -83.120674 43.812508  0.313179 -0.038604 0.948909  0.350069 0.760434 1 0 1.000000
0  26.822174 -75.254845 43.465351  0.219280 0.063168 0.973615  0.358022 0.800999 1 0 1.000000
skin_0dam
0  23.871296 -91.064301 43.781937  0.333056 -0.075285 0.939897  0.342688 0.719811 1 0 1.000000
0  23.144588 -91.130669 44.039616  0.335081 -0.073218 0.939340  0.338912 0.719239 1 0 1.000000
0  22.527985 -98.339424 43.611256  0.341265 -0.121307 0.932106  0.335708 0.682736 1 0 1.000000
skin_0dam
0  23.871296 -91.064301 43.781937  0.333056 -0.075285 0.939897  0.342688 0.719811 1 0 1.000000
0  25.291683 -83.120674 43.812508  0.313179 -0.038604 0.948909  0.350069 0.760434 1 0 1.000000
0  23.144588 -91.130669 44.039616  0.335081 -0.073218 0.939340  0.338912 0.719239 1 0 1.000000
skin_0dam
0  24.730137 -83.153229 44.008324  0.313247 -0.035797 0.948997  0.347151 0.760091 1 0 1.000000
0  23.144588 -91.130669 44.039616  0.335081 -0.073218 0.939340  0.338912 0.719239 1 0 1.000000
0  25.291683 -83.120674 43.812508  0.313179 -0.038604 0.948909  0.350069 0.760434 1 0 1.000000
skin_0dam
0  24.730137 -83.153229 44.008324  0.313247 -0.035797 0.948997  0.347151 0.760091 1 0 1.000000
0  25.291683 -83.120674 43.812508  0.313179 -0.038604 0.948909  0.350069 0.760434 1 0 1.000000
0  26.172543 -75.300156 43.652229  0.271231 0.056612 0.960848  0.354646 0.800599 1 0 1.000000
skin_0dam
0  26.172543 -75.300156 43.652229  0.271231 0.056612 0.960848  0.354646 0.800599 1 0 1.000000
0  25.963337 -75.312286 43.710270  0.186356 0.074028 0.979689  0.353559 0.800484 1 0 1.000000
0  24.730137 -83.153229 44.008324  0.313247 -0.035797 0.948997  0.347151 0.760091 1 0 1.000000
skin_0dam
0  26.172543 -75.300156 43.652229  0.271231 0.056612 0.960848  0.354646 0.800599 1 0 1.000000
0  27.581913 -67.902390 42.311035  0.209533 0.130609 0.969039  0.361970 0.840192 1 0 1.000000
0  25.963337 -75.312286 43.710270  0.186356 0.074028 0.979689  0.353559 0.800484 1 0 1.000000
skin_0dam
0  27.350689 -67.912262 42.359272  0.129178 0.147840 0.980539  0.360768 0.840077 1 0 1.000000
0  25.963337 -75.312286 43.710270  0.186356 0.074028 0.979689  0.353559 0.800484 1 0 1.000000
0  27.581913 -67.902390 42.311035  0.209533 0.130609 0.969039  0.361970 0.840192 1 0 1.000000
skin_0dam
0  27.350689 -67.912262 42.359272  0.129178 0.147840 0.980539  0.360768 0.840077 1 0 1.000000
0  27.581913 -67.902390 42.311035  0.209533 0.130609 0.969039  0.361970 0.840192 1 0 1.000000
0  28.363682 -61.303902 41.283920  0.135715 0.141280 0.980623  0.366032 0.874693 1 0 1.000000
skin_0dam
0  27.350689 -67.912262 42.359272  0.129178 0.147840 0.980539  0.360768 0.840077 1 0 1.000000
0  28.363682 -61.303902 41.283920  0.135715 0.141280 0.980623  0.366032 0.874693 1 0 1.000000
0  27.119465 -67.917198 42.383396  0.087387 0.155437 0.983973  0.359566 0.840020 1 0 1.000000
skin_0dam
0  28.253574 -61.311691 41.297405  0.083134 0.153084 0.984710  0.365460 0.874635 1 0 1.000000
0  27.119465 -67.917198 42.383396  0.087387 0.155437 0.983973  0.359566 0.840020 1 0 1.000000
0  28.363682 -61.303902 41.283920  0.135715 0.141280 0.980623  0.366032 0.874693 1 0 1.000000
skin_0dam
0  27.119465 -67.917198 42.383396  0.087387 0.155437 0.983973  0.359566 0.840020 1 0 1.000000
0  28.253574 -61.311691 41.297405  0.083134 0.153084 0.984710  0.365460 0.874635 1 0 1.000000
0  13.389069 -68.533386 43.699818  0.054099 0.162828 0.985170  0.288219 0.835157 1 0 1.000000
skin_0dam
0  13.741413 -62.226448 42.648235  0.049469 0.166459 0.984807  0.290050 0.868227 1 0 1.000000
0  13.389069 -68.533386 43.699818  0.054099 0.162828 0.985170  0.288219 0.835157 1 0 1.000000
0  28.253574 -61.311691 41.297405  0.083134 0.153084 0.984710  0.365460 0.874635 1 0 1.000000
skin_0dam
0  13.389069 -68.533386 43.699818  0.054099 0.162828 0.985170  0.288219 0.835157 1 0 1.000000
0  13.741413 -62.226448 42.648235  0.049469 0.166459 0.984807  0.290050 0.868227 1 0 1.000000
0  0.000004 -68.597557 44.013393  -0.000955 0.170247 0.985401  0.218645 0.834413 1 0 1.000000
skin_0dam
0  0.000004 -62.336769 42.917179  -0.001379 0.174171 0.984714  0.218645 0.867312 1 0 1.000000
0  0.000004 -68.597557 44.013393  -0.000955 0.170247 0.985401  0.218645 0.834413 1 0 1.000000
0  13.741413 -62.226448 42.648235  0.049469 0.166459 0.984807  0.290050 0.868227 1 0 1.000000
skin_0dam
0  0.000004 -68.597557 44.013393  -0.000955 0.170247 0.985401  0.218645 0.834413 1 0 1.000000
0  0.000004 -62.336769 42.917179  -0.001379 0.174171 0.984714  0.218645 0.867312 1 0 1.000000
0  -13.389057 -68.533386 43.699818  -0.054101 0.164570 0.984881  0.149072 0.835157 1 0 1.000000
skin_0dam
0  -13.741402 -62.226448 42.648235  -0.050273 0.166517 0.984756  0.147241 0.868227 1 0 1.000000
0  -13.389057 -68.533386 43.699818  -0.054101 0.164570 0.984881  0.149072 0.835157 1 0 1.000000
0  0.000004 -62.336769 42.917179  -0.001379 0.174171 0.984714  0.218645 0.867312 1 0 1.000000
skin_0dam
0  -13.389057 -68.533386 43.699818  -0.054101 0.164570 0.984881  0.149072 0.835157 1 0 1.000000
0  -13.741402 -62.226448 42.648235  -0.050273 0.166517 0.984756  0.147241 0.868227 1 0 1.000000
0  -27.119455 -67.917191 42.383404  -0.086298 0.155884 0.983998  0.077724 0.840020 1 0 1.000000
skin_0dam
0  -28.253561 -61.311695 41.297413  -0.080445 0.155812 0.984506  0.071831 0.874635 1 0 1.000000
0  -27.119455 -67.917191 42.383404  -0.086298 0.155884 0.983998  0.077724 0.840020 1 0 1.000000
0  -13.741402 -62.226448 42.648235  -0.050273 0.166517 0.984756  0.147241 0.868227 1 0 1.000000
skin_0dam
0  -27.350679 -67.912262 42.359280  -0.129179 0.147761 0.980550  0.076523 0.840077 1 0 1.000000
0  -27.119455 -67.917191 42.383404  -0.086298 0.155884 0.983998  0.077724 0.840020 1 0 1.000000
0  -28.363668 -61.303909 41.283932  -0.135682 0.141282 0.980627  0.071259 0.874693 1 0 1.000000
skin_0dam
0  -27.119455 -67.917191 42.383404  -0.086298 0.155884 0.983998  0.077724 0.840020 1 0 1.000000
0  -27.350679 -67.912262 42.359280  -0.129179 0.147761 0.980550  0.076523 0.840077 1 0 1.000000
0  -25.754122 -75.319305 43.733879  -0.091103 0.103385 0.990460  0.084819 0.800427 1 0 1.000000
skin_0dam
0  -27.119455 -67.917191 42.383404  -0.086298 0.155884 0.983998  0.077724 0.840020 1 0 1.000000
0  -25.754122 -75.319305 43.733879  -0.091103 0.103385 0.990460  0.084819 0.800427 1 0 1.000000
0  -13.389057 -68.533386 43.699818  -0.054101 0.164570 0.984881  0.149072 0.835157 1 0 1.000000
skin_0dam
0  -12.849531 -75.829109 44.964184  -0.058042 0.101644 0.993126  0.151875 0.796708 1 0 1.000000
0  -13.389057 -68.533386 43.699818  -0.054101 0.164570 0.984881  0.149072 0.835157 1 0 1.000000
0  -25.754122 -75.319305 43.733879  -0.091103 0.103385 0.990460  0.084819 0.800427 1 0 1.000000
skin_0dam
0  -13.389057 -68.533386 43.699818  -0.054101 0.164570 0.984881  0.149072 0.835157 1 0 1.000000
0  -12.849531 -75.829109 44.964184  -0.058042 0.101644 0.993126  0.151875 0.796708 1 0 1.000000
0  0.000004 -68.597557 44.013393  -0.000955 0.170247 0.985401  0.218645 0.834413 1 0 1.000000
skin_0dam
0  0.000004 -75.896759 45.277992  -0.000608 0.108194 0.994130  0.218645 0.796079 1 0 1.000000
0  0.000004 -68.597557 44.013393  -0.000955 0.170247 0.985401  0.218645 0.834413 1 0 1.000000
0  -12.849531 -75.829109 44.964184  -0.058042 0.101644 0.993126  0.151875 0.796708 1 0 1.000000
skin_0dam
0  0.000004 -68.597557 44.013393  -0.000955 0.170247 0.985401  0.218645 0.834413 1 0 1.000000
0  0.000004 -75.896759 45.277992  -0.000608 0.108194 0.994130  0.218645 0.796079 1 0 1.000000
0  13.389069 -68.533386 43.699818  0.054099 0.162828 0.985170  0.288219 0.835157 1 0 1.000000
skin_0dam
0  12.849545 -75.829109 44.964184  0.057721 0.102566 0.993050  0.285416 0.796708 1 0 1.000000
0  13.389069 -68.533386 43.699818  0.054099 0.162828 0.985170  0.288219 0.835157 1 0 1.000000
0  0.000004 -75.896759 45.277992  -0.000608 0.108194 0.994130  0.218645 0.796079 1 0 1.000000
skin_0dam
0  13.389069 -68.533386 43.699818  0.054099 0.162828 0.985170  0.288219 0.835157 1 0 1.000000
0  12.849545 -75.829109 44.964184  0.057721 0.102566 0.993050  0.285416 0.796708 1 0 1.000000
0  27.119465 -67.917198 42.383396  0.087387 0.155437 0.983973  0.359566 0.840020 1 0 1.000000
skin_0dam
0  25.754131 -75.319305 43.733871  0.091866 0.097487 0.990988  0.352472 0.800427 1 0 1.000000
0  27.119465 -67.917198 42.383396  0.087387 0.155437 0.983973  0.359566 0.840020 1 0 1.000000
0  12.849545 -75.829109 44.964184  0.057721 0.102566 0.993050  0.285416 0.796708 1 0 1.000000
skin_0dam
0  27.119465 -67.917198 42.383396  0.087387 0.155437 0.983973  0.359566 0.840020 1 0 1.000000
0  25.754131 -75.319305 43.733871  0.091866 0.097487 0.990988  0.352472 0.800427 1 0 1.000000
0  27.350689 -67.912262 42.359272  0.129178 0.147840 0.980539  0.360768 0.840077 1 0 1.000000
skin_0dam
0  25.963337 -75.312286 43.710270  0.186356 0.074028 0.979689  0.353559 0.800484 1 0 1.000000
0  27.350689 -67.912262 42.359272  0.129178 0.147840 0.980539  0.360768 0.840077 1 0 1.000000
0  25.754131 -75.319305 43.733871  0.091866 0.097487 0.990988  0.352472 0.800427 1 0 1.000000
skin_0dam
0  21.603085 -98.437698 43.941639  0.345774 -0.136244 0.928374  0.330902 0.681935 1 0 1.000000
0  22.527985 -98.339424 43.611256  0.341265 -0.121307 0.932106  0.335708 0.682736 1 0 1.000000
0  23.144588 -91.130669 44.039616  0.335081 -0.073218 0.939340  0.338912 0.719239 1 0 1.000000
skin_0dam
0  23.144588 -91.130669 44.039616  0.335081 -0.073218 0.939340  0.338912 0.719239 1 0 1.000000
0  22.913364 -91.149811 44.121254  0.236106 -0.054215 0.970214  0.337710 0.719067 1 0 1.000000
0  21.603085 -98.437698 43.941639  0.345774 -0.136244 0.928374  0.330902 0.681935 1 0 1.000000
skin_0dam
0  23.144588 -91.130669 44.039616  0.335081 -0.073218 0.939340  0.338912 0.719239 1 0 1.000000
0  24.730137 -83.153229 44.008324  0.313247 -0.035797 0.948997  0.347151 0.760091 1 0 1.000000
0  22.913364 -91.149811 44.121254  0.236106 -0.054215 0.970214  0.337710 0.719067 1 0 1.000000
skin_0dam
0  24.498909 -83.174286 44.079124  0.189844 -0.015437 0.981693  0.345949 0.759919 1 0 1.000000
0  22.913364 -91.149811 44.121254  0.236106 -0.054215 0.970214  0.337710 0.719067 1 0 1.000000
0  24.730137 -83.153229 44.008324  0.313247 -0.035797 0.948997  0.347151 0.760091 1 0 1.000000
skin_0dam
0  24.498909 -83.174286 44.079124  0.189844 -0.015437 0.981693  0.345949 0.759919 1 0 1.000000
0  24.730137 -83.153229 44.008324  0.313247 -0.035797 0.948997  0.347151 0.760091 1 0 1.000000
0  25.963337 -75.312286 43.710270  0.186356 0.074028 0.979689  0.353559 0.800484 1 0 1.000000
skin_0dam
0  24.498909 -83.174286 44.079124  0.189844 -0.015437 0.981693  0.345949 0.759919 1 0 1.000000
0  25.963337 -75.312286 43.710270  0.186356 0.074028 0.979689  0.353559 0.800484 1 0 1.000000
0  24.256672 -83.181320 44.102718  0.099351 0.005875 0.995035  0.344691 0.759862 1 0 1.000000
skin_0dam
0  25.754131 -75.319305 43.733871  0.091866 0.097487 0.990988  0.352472 0.800427 1 0 1.000000
0  24.256672 -83.181320 44.102718  0.099351 0.005875 0.995035  0.344691 0.759862 1 0 1.000000
0  25.963337 -75.312286 43.710270  0.186356 0.074028 0.979689  0.353559 0.800484 1 0 1.000000
skin_0dam
0  24.256672 -83.181320 44.102718  0.099351 0.005875 0.995035  0.344691 0.759862 1 0 1.000000
0  25.754131 -75.319305 43.733871  0.091866 0.097487 0.990988  0.352472 0.800427 1 0 1.000000
0  12.166874 -83.472336 45.305641  0.064300 0.012530 0.997852  0.281868 0.757287 1 0 1.000000
skin_0dam
0  12.849545 -75.829109 44.964184  0.057721 0.102566 0.993050  0.285416 0.796708 1 0 1.000000
0  12.166874 -83.472336 45.305641  0.064300 0.012530 0.997852  0.281868 0.757287 1 0 1.000000
0  25.754131 -75.319305 43.733871  0.091866 0.097487 0.990988  0.352472 0.800427 1 0 1.000000
skin_0dam
0  12.166874 -83.472336 45.305641  0.064300 0.012530 0.997852  0.281868 0.757287 1 0 1.000000
0  12.849545 -75.829109 44.964184  0.057721 0.102566 0.993050  0.285416 0.796708 1 0 1.000000
0  0.000004 -83.503624 45.635391  -0.002528 0.022353 0.999747  0.218645 0.756829 1 0 1.000000
skin_0dam
0  0.000004 -75.896759 45.277992  -0.000608 0.108194 0.994130  0.218645 0.796079 1 0 1.000000
0  0.000004 -83.503624 45.635391  -0.002528 0.022353 0.999747  0.218645 0.756829 1 0 1.000000
0  12.849545 -75.829109 44.964184  0.057721 0.102566 0.993050  0.285416 0.796708 1 0 1.000000
skin_0dam
0  0.000004 -83.503624 45.635391  -0.002528 0.022353 0.999747  0.218645 0.756829 1 0 1.000000
0  0.000004 -75.896759 45.277992  -0.000608 0.108194 0.994130  0.218645 0.796079 1 0 1.000000
0  -12.166866 -83.472336 45.305641  -0.061831 0.012831 0.998004  0.155423 0.757287 1 0 1.000000
skin_0dam
0  -12.849531 -75.829109 44.964184  -0.058042 0.101644 0.993126  0.151875 0.796708 1 0 1.000000
0  -12.166866 -83.472336 45.305641  -0.061831 0.012831 0.998004  0.155423 0.757287 1 0 1.000000
0  0.000004 -75.896759 45.277992  -0.000608 0.108194 0.994130  0.218645 0.796079 1 0 1.000000
skin_0dam
0  -12.166866 -83.472336 45.305641  -0.061831 0.012831 0.998004  0.155423 0.757287 1 0 1.000000
0  -12.849531 -75.829109 44.964184  -0.058042 0.101644 0.993126  0.151875 0.796708 1 0 1.000000
0  -24.256659 -83.181320 44.102718  -0.099286 0.015146 0.994944  0.092600 0.759862 1 0 1.000000
skin_0dam
0  -25.754122 -75.319305 43.733879  -0.091103 0.103385 0.990460  0.084819 0.800427 1 0 1.000000
0  -24.256659 -83.181320 44.102718  -0.099286 0.015146 0.994944  0.092600 0.759862 1 0 1.000000
0  -12.849531 -75.829109 44.964184  -0.058042 0.101644 0.993126  0.151875 0.796708 1 0 1.000000
skin_0dam
0  -25.754122 -75.319305 43.733879  -0.091103 0.103385 0.990460  0.084819 0.800427 1 0 1.000000
0  -25.963327 -75.312286 43.710278  -0.186326 0.074077 0.979691  0.083732 0.800484 1 0 1.000000
0  -24.256659 -83.181320 44.102718  -0.099286 0.015146 0.994944  0.092600 0.759862 1 0 1.000000
skin_0dam
0  -25.963327 -75.312286 43.710278  -0.186326 0.074077 0.979691  0.083732 0.800484 1 0 1.000000
0  -25.754122 -75.319305 43.733879  -0.091103 0.103385 0.990460  0.084819 0.800427 1 0 1.000000
0  -27.350679 -67.912262 42.359280  -0.129179 0.147761 0.980550  0.076523 0.840077 1 0 1.000000
skin_0dam
0  -27.350679 -67.912262 42.359280  -0.129179 0.147761 0.980550  0.076523 0.840077 1 0 1.000000
0  -27.581905 -67.902390 42.311043  -0.209542 0.130546 0.969046  0.075321 0.840192 1 0 1.000000
0  -25.963327 -75.312286 43.710278  -0.186326 0.074077 0.979691  0.083732 0.800484 1 0 1.000000
skin_0dam
0  21.382870 -98.458740 44.012440  0.211888 -0.112015 0.970853  0.329757 0.681763 1 0 1.000000
0  21.603085 -98.437698 43.941639  0.345774 -0.136244 0.928374  0.330902 0.681935 1 0 1.000000
0  22.913364 -91.149811 44.121254  0.236106 -0.054215 0.970214  0.337710 0.719067 1 0 1.000000
skin_0dam
0  -24.498896 -83.174286 44.079124  -0.189854 -0.015438 0.981691  0.091342 0.759919 1 0 1.000000
0  -25.963327 -75.312286 43.710278  -0.186326 0.074077 0.979691  0.083732 0.800484 1 0 1.000000
0  -24.730122 -83.153229 44.008324  -0.316980 -0.040231 0.947579  0.090140 0.760091 1 0 1.000000
skin_0dam
0  -24.498896 -83.174286 44.079124  -0.189854 -0.015438 0.981691  0.091342 0.759919 1 0 1.000000
0  -24.256659 -83.181320 44.102718  -0.099286 0.015146 0.994944  0.092600 0.759862 1 0 1.000000
0  -25.963327 -75.312286 43.710278  -0.186326 0.074077 0.979691  0.083732 0.800484 1 0 1.000000
skin_0dam
0  -22.527975 -98.339424 43.611259  -0.341294 -0.121303 0.932097  0.101583 0.682736 1 0 1.000000
0  -23.871283 -91.064301 43.781937  -0.333160 -0.073256 0.940020  0.094603 0.719811 1 0 1.000000
0  -22.748190 -98.309425 43.527706  -0.255250 -0.108913 0.960721  0.100439 0.682965 1 0 1.000000
skin_0dam
0  -23.871283 -91.064301 43.781937  -0.333160 -0.073256 0.940020  0.094603 0.719811 1 0 1.000000
0  -22.527975 -98.339424 43.611259  -0.341294 -0.121303 0.932097  0.101583 0.682736 1 0 1.000000
0  -23.144575 -91.130669 44.039616  -0.334905 -0.076450 0.939145  0.098379 0.719239 1 0 1.000000
skin_0dam
0  -23.144575 -91.130669 44.039616  -0.334905 -0.076450 0.939145  0.098379 0.719239 1 0 1.000000
0  -24.730122 -83.153229 44.008324  -0.316980 -0.040231 0.947579  0.090140 0.760091 1 0 1.000000
0  -23.871283 -91.064301 43.781937  -0.333160 -0.073256 0.940020  0.094603 0.719811 1 0 1.000000
skin_0dam
0  -23.144575 -91.130669 44.039616  -0.334905 -0.076450 0.939145  0.098379 0.719239 1 0 1.000000
0  -22.913349 -91.149811 44.121254  -0.219545 -0.049595 0.974341  0.099581 0.719067 1 0 1.000000
0  -24.730122 -83.153229 44.008324  -0.316980 -0.040231 0.947579  0.090140 0.760091 1 0 1.000000
skin_0dam
0  -24.498896 -83.174286 44.079124  -0.189854 -0.015438 0.981691  0.091342 0.759919 1 0 1.000000
0  -24.730122 -83.153229 44.008324  -0.316980 -0.040231 0.947579  0.090140 0.760091 1 0 1.000000
0  -22.913349 -91.149811 44.121254  -0.219545 -0.049595 0.974341  0.099581 0.719067 1 0 1.000000
skin_0dam
0  -22.913349 -91.149811 44.121254  -0.219545 -0.049595 0.974341  0.099581 0.719067 1 0 1.000000
0  -22.671112 -91.156830 44.144848  -0.103283 -0.023281 0.994380  0.100839 0.719010 1 0 1.000000
0  -24.498896 -83.174286 44.079124  -0.189854 -0.015438 0.981691  0.091342 0.759919 1 0 1.000000
skin_0dam
0  -24.256659 -83.181320 44.102718  -0.099286 0.015146 0.994944  0.092600 0.759862 1 0 1.000000
0  -24.498896 -83.174286 44.079124  -0.189854 -0.015438 0.981691  0.091342 0.759919 1 0 1.000000
0  -22.671112 -91.156830 44.144848  -0.103283 -0.023281 0.994380  0.100839 0.719010 1 0 1.000000
skin_0dam
0  -24.256659 -83.181320 44.102718  -0.099286 0.015146 0.994944  0.092600 0.759862 1 0 1.000000
0  -22.671112 -91.156830 44.144848  -0.103283 -0.023281 0.994380  0.100839 0.719010 1 0 1.000000
0  -12.166866 -83.472336 45.305641  -0.061831 0.012831 0.998004  0.155423 0.757287 1 0 1.000000
skin_0dam
0  -21.195675 -106.640068 42.570435  -0.105681 -0.133057 0.985458  0.108506 0.641197 1 0 1.000000
0  -22.968405 -98.302399 43.504108  -0.120069 -0.102311 0.987480  0.099295 0.683022 1 0 1.000000
0  -27.537863 -105.486145 42.076271  -0.113969 -0.122222 0.985938  0.075550 0.647548 1 0 1.000000
skin_0dam
0  -21.195675 -106.640068 42.570435  -0.105681 -0.133057 0.985458  0.108506 0.641197 1 0 1.000000
0  -20.986469 -106.681519 42.588921  -0.205656 -0.152451 0.966677  0.109593 0.640969 1 0 1.000000
0  -22.968405 -98.302399 43.504108  -0.120069 -0.102311 0.987480  0.099295 0.683022 1 0 1.000000
skin_0dam
0  -22.748190 -98.309425 43.527706  -0.255250 -0.108913 0.960721  0.100439 0.682965 1 0 1.000000
0  -22.968405 -98.302399 43.504108  -0.120069 -0.102311 0.987480  0.099295 0.683022 1 0 1.000000
0  -20.986469 -106.681519 42.588921  -0.205656 -0.152451 0.966677  0.109593 0.640969 1 0 1.000000
skin_0dam
0  -20.986469 -106.681519 42.588921  -0.205656 -0.152451 0.966677  0.109593 0.640969 1 0 1.000000
0  -20.777266 -106.702576 42.659721  -0.354056 -0.177319 0.918261  0.110680 0.640797 1 0 1.000000
0  -22.748190 -98.309425 43.527706  -0.255250 -0.108913 0.960721  0.100439 0.682965 1 0 1.000000
skin_0dam
0  -22.527975 -98.339424 43.611259  -0.341294 -0.121303 0.932097  0.101583 0.682736 1 0 1.000000
0  -22.748190 -98.309425 43.527706  -0.255250 -0.108913 0.960721  0.100439 0.682965 1 0 1.000000
0  -20.777266 -106.702576 42.659721  -0.354056 -0.177319 0.918261  0.110680 0.640797 1 0 1.000000
skin_0dam
0  -22.527975 -98.339424 43.611259  -0.341294 -0.121303 0.932097  0.101583 0.682736 1 0 1.000000
0  -20.777266 -106.702576 42.659721  -0.354056 -0.177319 0.918261  0.110680 0.640797 1 0 1.000000
0  -21.603071 -98.437691 43.941643  -0.345865 -0.139120 0.927913  0.106389 0.681935 1 0 1.000000
skin_0dam
0  -21.603071 -98.437691 43.941643  -0.345865 -0.139120 0.927913  0.106389 0.681935 1 0 1.000000
0  -23.144575 -91.130669 44.039616  -0.334905 -0.076450 0.939145  0.098379 0.719239 1 0 1.000000
0  -22.527975 -98.339424 43.611259  -0.341294 -0.121303 0.932097  0.101583 0.682736 1 0 1.000000
skin_0dam
0  -21.603071 -98.437691 43.941643  -0.345865 -0.139120 0.927913  0.106389 0.681935 1 0 1.000000
0  -21.382856 -98.458740 44.012444  -0.250694 -0.117300 0.960933  0.107534 0.681763 1 0 1.000000
0  -23.144575 -91.130669 44.039616  -0.334905 -0.076450 0.939145  0.098379 0.719239 1 0 1.000000
skin_0dam
0  -22.913349 -91.149811 44.121254  -0.219545 -0.049595 0.974341  0.099581 0.719067 1 0 1.000000
0  -23.144575 -91.130669 44.039616  -0.334905 -0.076450 0.939145  0.098379 0.719239 1 0 1.000000
0  -21.382856 -98.458740 44.012444  -0.250694 -0.117300 0.960933  0.107534 0.681763 1 0 1.000000
skin_0dam
0  -21.382856 -98.458740 44.012444  -0.250694 -0.117300 0.960933  0.107534 0.681763 1 0 1.000000
0  -21.151630 -98.463852 44.046879  -0.112661 -0.064218 0.991556  0.108735 0.681706 1 0 1.000000
0  -22.913349 -91.149811 44.121254  -0.219545 -0.049595 0.974341  0.099581 0.719067 1 0 1.000000
skin_0dam
0  -22.671112 -91.156830 44.144848  -0.103283 -0.023281 0.994380  0.100839 0.719010 1 0 1.000000
0  -22.913349 -91.149811 44.121254  -0.219545 -0.049595 0.974341  0.099581 0.719067 1 0 1.000000
0  -21.151630 -98.463852 44.046879  -0.112661 -0.064218 0.991556  0.108735 0.681706 1 0 1.000000
skin_0dam
0  -22.671112 -91.156830 44.144848  -0.103283 -0.023281 0.994380  0.100839 0.719010 1 0 1.000000
0  -21.151630 -98.463852 44.046879  -0.112661 -0.064218 0.991556  0.108735 0.681706 1 0 1.000000
0  -11.219940 -91.367439 45.233101  -0.067325 -0.014298 0.997629  0.160343 0.716950 1 0 1.000000
skin_0dam
0  -11.219940 -91.367439 45.233101  -0.067325 -0.014298 0.997629  0.160343 0.716950 1 0 1.000000
0  -12.166866 -83.472336 45.305641  -0.061831 0.012831 0.998004  0.155423 0.757287 1 0 1.000000
0  -22.671112 -91.156830 44.144848  -0.103283 -0.023281 0.994380  0.100839 0.719010 1 0 1.000000
skin_0dam
0  -12.166866 -83.472336 45.305641  -0.061831 0.012831 0.998004  0.155423 0.757287 1 0 1.000000
0  -11.219940 -91.367439 45.233101  -0.067325 -0.014298 0.997629  0.160343 0.716950 1 0 1.000000
0  0.000004 -83.503624 45.635391  -0.002528 0.022353 0.999747  0.218645 0.756829 1 0 1.000000
skin_0dam
0  0.000008 -91.634758 45.682739  -0.001338 -0.005711 0.999983  0.218645 0.715177 1 0 1.000000
0  0.000004 -83.503624 45.635391  -0.002528 0.022353 0.999747  0.218645 0.756829 1 0 1.000000
0  -11.219940 -91.367439 45.233101  -0.067325 -0.014298 0.997629  0.160343 0.716950 1 0 1.000000
skin_0dam
0  0.000004 -83.503624 45.635391  -0.002528 0.022353 0.999747  0.218645 0.756829 1 0 1.000000
0  0.000008 -91.634758 45.682739  -0.001338 -0.005711 0.999983  0.218645 0.715177 1 0 1.000000
0  12.166874 -83.472336 45.305641  0.064300 0.012530 0.997852  0.281868 0.757287 1 0 1.000000
skin_0dam
0  11.219952 -91.367439 45.233101  0.067595 -0.014405 0.997609  0.276948 0.716950 1 0 1.000000
0  12.166874 -83.472336 45.305641  0.064300 0.012530 0.997852  0.281868 0.757287 1 0 1.000000
0  0.000008 -91.634758 45.682739  -0.001338 -0.005711 0.999983  0.218645 0.715177 1 0 1.000000
skin_0dam
0  12.166874 -83.472336 45.305641  0.064300 0.012530 0.997852  0.281868 0.757287 1 0 1.000000
0  11.219952 -91.367439 45.233101  0.067595 -0.014405 0.997609  0.276948 0.716950 1 0 1.000000
0  24.256672 -83.181320 44.102718  0.099351 0.005875 0.995035  0.344691 0.759862 1 0 1.000000
skin_0dam
0  19.290829 -106.893372 43.162937  0.123724 -0.129884 0.983780  0.318886 0.639367 1 0 1.000000
0  21.151642 -98.463844 44.046875  0.115648 -0.082923 0.989823  0.328556 0.681706 1 0 1.000000
0  9.216000 -107.509659 44.233143  0.088817 -0.123184 0.988401  0.266535 0.635247 1 0 1.000000
skin_0dam
0  10.449200 -98.898376 45.196838  0.072593 -0.068275 0.995022  0.272943 0.678445 1 0 1.000000
0  9.216000 -107.509659 44.233143  0.088817 -0.123184 0.988401  0.266535 0.635247 1 0 1.000000
0  21.151642 -98.463844 44.046875  0.115648 -0.082923 0.989823  0.328556 0.681706 1 0 1.000000
skin_0dam
0  21.151642 -98.463844 44.046875  0.115648 -0.082923 0.989823  0.328556 0.681706 1 0 1.000000
0  22.671124 -91.156830 44.144848  0.104747 -0.022737 0.994239  0.336452 0.719010 1 0 1.000000
0  10.449200 -98.898376 45.196838  0.072593 -0.068275 0.995022  0.272943 0.678445 1 0 1.000000
skin_0dam
0  11.219952 -91.367439 45.233101  0.067595 -0.014405 0.997609  0.276948 0.716950 1 0 1.000000
0  10.449200 -98.898376 45.196838  0.072593 -0.068275 0.995022  0.272943 0.678445 1 0 1.000000
0  22.671124 -91.156830 44.144848  0.104747 -0.022737 0.994239  0.336452 0.719010 1 0 1.000000
skin_0dam
0  10.449200 -98.898376 45.196838  0.072593 -0.068275 0.995022  0.272943 0.678445 1 0 1.000000
0  11.219952 -91.367439 45.233101  0.067595 -0.014405 0.997609  0.276948 0.716950 1 0 1.000000
0  0.000008 -99.077675 45.575054  -0.000293 -0.062970 0.998015  0.218645 0.677186 1 0 1.000000
skin_0dam
0  0.000008 -91.634758 45.682739  -0.001338 -0.005711 0.999983  0.218645 0.715177 1 0 1.000000
0  0.000008 -99.077675 45.575054  -0.000293 -0.062970 0.998015  0.218645 0.677186 1 0 1.000000
0  11.219952 -91.367439 45.233101  0.067595 -0.014405 0.997609  0.276948 0.716950 1 0 1.000000
skin_0dam
0  0.000008 -99.077675 45.575054  -0.000293 -0.062970 0.998015  0.218645 0.677186 1 0 1.000000
0  0.000008 -91.634758 45.682739  -0.001338 -0.005711 0.999983  0.218645 0.715177 1 0 1.000000
0  -10.449188 -98.898376 45.196838  -0.074657 -0.068212 0.994873  0.164348 0.678445 1 0 1.000000
skin_0dam
0  -11.219940 -91.367439 45.233101  -0.067325 -0.014298 0.997629  0.160343 0.716950 1 0 1.000000
0  -10.449188 -98.898376 45.196838  -0.074657 -0.068212 0.994873  0.164348 0.678445 1 0 1.000000
0  0.000008 -91.634758 45.682739  -0.001338 -0.005711 0.999983  0.218645 0.715177 1 0 1.000000
skin_0dam
0  -10.449188 -98.898376 45.196838  -0.074657 -0.068212 0.994873  0.164348 0.678445 1 0 1.000000
0  -11.219940 -91.367439 45.233101  -0.067325 -0.014298 0.997629  0.160343 0.716950 1 0 1.000000
0  -21.151630 -98.463852 44.046879  -0.112661 -0.064218 0.991556  0.108735 0.681706 1 0 1.000000
skin_0dam
0  -21.151630 -98.463852 44.046879  -0.112661 -0.064218 0.991556  0.108735 0.681706 1 0 1.000000
0  -19.290815 -106.893372 43.162945  -0.120339 -0.128720 0.984352  0.118404 0.639367 1 0 1.000000
0  -10.449188 -98.898376 45.196838  -0.074657 -0.068212 0.994873  0.164348 0.678445 1 0 1.000000
skin_0dam
0  -21.151630 -98.463852 44.046879  -0.112661 -0.064218 0.991556  0.108735 0.681706 1 0 1.000000
0  -21.382856 -98.458740 44.012444  -0.250694 -0.117300 0.960933  0.107534 0.681763 1 0 1.000000
0  -19.290815 -106.893372 43.162945  -0.120339 -0.128720 0.984352  0.118404 0.639367 1 0 1.000000
skin_0dam
0  -19.511030 -106.875504 43.137436  -0.250930 -0.155391 0.955452  0.117260 0.639481 1 0 1.000000
0  -19.290815 -106.893372 43.162945  -0.120339 -0.128720 0.984352  0.118404 0.639367 1 0 1.000000
0  -21.382856 -98.458740 44.012444  -0.250694 -0.117300 0.960933  0.107534 0.681763 1 0 1.000000
skin_0dam
0  -19.511030 -106.875504 43.137436  -0.250930 -0.155391 0.955452  0.117260 0.639481 1 0 1.000000
0  -21.382856 -98.458740 44.012444  -0.250694 -0.117300 0.960933  0.107534 0.681763 1 0 1.000000
0  -19.709225 -106.854446 43.066639  -0.356175 -0.175389 0.917811  0.116230 0.639653 1 0 1.000000
skin_0dam
0  -21.603071 -98.437691 43.941643  -0.345865 -0.139120 0.927913  0.106389 0.681935 1 0 1.000000
0  -19.709225 -106.854446 43.066639  -0.356175 -0.175389 0.917811  0.116230 0.639653 1 0 1.000000
0  -21.382856 -98.458740 44.012444  -0.250694 -0.117300 0.960933  0.107534 0.681763 1 0 1.000000
skin_0dam
0  -19.709225 -106.854446 43.066639  -0.356175 -0.175389 0.917811  0.116230 0.639653 1 0 1.000000
0  -21.603071 -98.437691 43.941643  -0.345865 -0.139120 0.927913  0.106389 0.681935 1 0 1.000000
0  -20.777266 -106.702576 42.659721  -0.354056 -0.177319 0.918261  0.110680 0.640797 1 0 1.000000
skin_0dam
0  9.216000 -107.509659 44.233143  0.088817 -0.123184 0.988401  0.266535 0.635247 1 0 1.000000
0  10.449200 -98.898376 45.196838  0.072593 -0.068275 0.995022  0.272943 0.678445 1 0 1.000000
0  0.000008 -107.848404 44.594749  0.012980 -0.113175 0.993490  0.218645 0.633187 1 0 1.000000
skin_0dam
0  0.000008 -99.077675 45.575054  -0.000293 -0.062970 0.998015  0.218645 0.677186 1 0 1.000000
0  0.000008 -107.848404 44.594749  0.012980 -0.113175 0.993490  0.218645 0.633187 1 0 1.000000
0  10.449200 -98.898376 45.196838  0.072593 -0.068275 0.995022  0.272943 0.678445 1 0 1.000000
skin_0dam
0  0.000008 -107.848404 44.594749  0.012980 -0.113175 0.993490  0.218645 0.633187 1 0 1.000000
0  0.000008 -99.077675 45.575054  -0.000293 -0.062970 0.998015  0.218645 0.677186 1 0 1.000000
0  -9.215986 -107.509659 44.233143  -0.064760 -0.117688 0.990937  0.170756 0.635247 1 0 1.000000
skin_0dam
0  -10.449188 -98.898376 45.196838  -0.074657 -0.068212 0.994873  0.164348 0.678445 1 0 1.000000
0  -9.215986 -107.509659 44.233143  -0.064760 -0.117688 0.990937  0.170756 0.635247 1 0 1.000000
0  0.000008 -99.077675 45.575054  -0.000293 -0.062970 0.998015  0.218645 0.677186 1 0 1.000000
skin_0dam
0  -9.215986 -107.509659 44.233143  -0.064760 -0.117688 0.990937  0.170756 0.635247 1 0 1.000000
0  -10.449188 -98.898376 45.196838  -0.074657 -0.068212 0.994873  0.164348 0.678445 1 0 1.000000
0  -19.290815 -106.893372 43.162945  -0.120339 -0.128720 0.984352  0.118404 0.639367 1 0 1.000000
skin_0dam
0  22.671124 -91.156830 44.144848  0.104747 -0.022737 0.994239  0.336452 0.719010 1 0 1.000000
0  24.256672 -83.181320 44.102718  0.099351 0.005875 0.995035  0.344691 0.759862 1 0 1.000000
0  11.219952 -91.367439 45.233101  0.067595 -0.014405 0.997609  0.276948 0.716950 1 0 1.000000
skin_0dam
0  24.256672 -83.181320 44.102718  0.099351 0.005875 0.995035  0.344691 0.759862 1 0 1.000000
0  22.671124 -91.156830 44.144848  0.104747 -0.022737 0.994239  0.336452 0.719010 1 0 1.000000
0  24.498909 -83.174286 44.079124  0.189844 -0.015437 0.981693  0.345949 0.759919 1 0 1.000000
skin_0dam
0  22.913364 -91.149811 44.121254  0.236106 -0.054215 0.970214  0.337710 0.719067 1 0 1.000000
0  24.498909 -83.174286 44.079124  0.189844 -0.015437 0.981693  0.345949 0.759919 1 0 1.000000
0  22.671124 -91.156830 44.144848  0.104747 -0.022737 0.994239  0.336452 0.719010 1 0 1.000000
skin_0dam
0  22.671124 -91.156830 44.144848  0.104747 -0.022737 0.994239  0.336452 0.719010 1 0 1.000000
0  21.151642 -98.463844 44.046875  0.115648 -0.082923 0.989823  0.328556 0.681706 1 0 1.000000
0  22.913364 -91.149811 44.121254  0.236106 -0.054215 0.970214  0.337710 0.719067 1 0 1.000000
skin_0dam
0  21.382870 -98.458740 44.012440  0.211888 -0.112015 0.970853  0.329757 0.681763 1 0 1.000000
0  22.913364 -91.149811 44.121254  0.236106 -0.054215 0.970214  0.337710 0.719067 1 0 1.000000
0  21.151642 -98.463844 44.046875  0.115648 -0.082923 0.989823  0.328556 0.681706 1 0 1.000000
skin_0dam
0  21.151642 -98.463844 44.046875  0.115648 -0.082923 0.989823  0.328556 0.681706 1 0 1.000000
0  19.290829 -106.893372 43.162937  0.123724 -0.129884 0.983780  0.318886 0.639367 1 0 1.000000
0  21.382870 -98.458740 44.012440  0.211888 -0.112015 0.970853  0.329757 0.681763 1 0 1.000000
skin_0dam
0  19.511044 -106.875504 43.137428  0.280247 -0.161216 0.946293  0.320031 0.639481 1 0 1.000000
0  21.382870 -98.458740 44.012440  0.211888 -0.112015 0.970853  0.329757 0.681763 1 0 1.000000
0  19.290829 -106.893372 43.162937  0.123724 -0.129884 0.983780  0.318886 0.639367 1 0 1.000000
skin_0dam
0  21.382870 -98.458740 44.012440  0.211888 -0.112015 0.970853  0.329757 0.681763 1 0 1.000000
0  19.511044 -106.875504 43.137428  0.280247 -0.161216 0.946293  0.320031 0.639481 1 0 1.000000
0  21.603085 -98.437698 43.941639  0.345774 -0.136244 0.928374  0.330902 0.681935 1 0 1.000000
skin_0dam
0  19.709232 -106.854446 43.066635  0.365175 -0.177315 0.913897  0.321061 0.639653 1 0 1.000000
0  21.603085 -98.437698 43.941639  0.345774 -0.136244 0.928374  0.330902 0.681935 1 0 1.000000
0  19.511044 -106.875504 43.137428  0.280247 -0.161216 0.946293  0.320031 0.639481 1 0 1.000000
skin_0dam
0  19.709232 -106.854446 43.066635  0.365175 -0.177315 0.913897  0.321061 0.639653 1 0 1.000000
0  20.777279 -106.702576 42.659714  0.354155 -0.177218 0.918242  0.326611 0.640797 1 0 1.000000
0  21.603085 -98.437698 43.941639  0.345774 -0.136244 0.928374  0.330902 0.681935 1 0 1.000000
skin_0dam
0  22.527985 -98.339424 43.611256  0.341265 -0.121307 0.932106  0.335708 0.682736 1 0 1.000000
0  21.603085 -98.437698 43.941639  0.345774 -0.136244 0.928374  0.330902 0.681935 1 0 1.000000
0  20.777279 -106.702576 42.659714  0.354155 -0.177218 0.918242  0.326611 0.640797 1 0 1.000000
skin_0dam
0  22.527985 -98.339424 43.611256  0.341265 -0.121307 0.932106  0.335708 0.682736 1 0 1.000000
0  20.777279 -106.702576 42.659714  0.354155 -0.177218 0.918242  0.326611 0.640797 1 0 1.000000
0  22.748199 -98.309425 43.527706  0.255235 -0.108912 0.960726  0.336852 0.682965 1 0 1.000000
skin_0dam
0  22.527985 -98.339424 43.611256  0.341265 -0.121307 0.932106  0.335708 0.682736 1 0 1.000000
0  22.748199 -98.309425 43.527706  0.255235 -0.108912 0.960726  0.336852 0.682965 1 0 1.000000
0  23.871296 -91.064301 43.781937  0.333056 -0.075285 0.939897  0.342688 0.719811 1 0 1.000000
skin_0dam
0  24.113533 -91.045151 43.700291  0.236884 -0.052847 0.970100  0.343947 0.719983 1 0 1.000000
0  23.871296 -91.064301 43.781937  0.333056 -0.075285 0.939897  0.342688 0.719811 1 0 1.000000
0  22.748199 -98.309425 43.527706  0.255235 -0.108912 0.960726  0.336852 0.682965 1 0 1.000000
skin_0dam
0  23.871296 -91.064301 43.781937  0.333056 -0.075285 0.939897  0.342688 0.719811 1 0 1.000000
0  24.113533 -91.045151 43.700291  0.236884 -0.052847 0.970100  0.343947 0.719983 1 0 1.000000
0  25.291683 -83.120674 43.812508  0.313179 -0.038604 0.948909  0.350069 0.760434 1 0 1.000000
skin_0dam
0  25.544930 -83.101524 43.730873  0.223229 -0.020019 0.974560  0.351385 0.760606 1 0 1.000000
0  25.291683 -83.120674 43.812508  0.313179 -0.038604 0.948909  0.350069 0.760434 1 0 1.000000
0  24.113533 -91.045151 43.700291  0.236884 -0.052847 0.970100  0.343947 0.719983 1 0 1.000000
skin_0dam
0  25.544930 -83.101524 43.730873  0.223229 -0.020019 0.974560  0.351385 0.760606 1 0 1.000000
0  26.822174 -75.254845 43.465351  0.219280 0.063168 0.973615  0.358022 0.800999 1 0 1.000000
0  25.291683 -83.120674 43.812508  0.313179 -0.038604 0.948909  0.350069 0.760434 1 0 1.000000
skin_0dam
0  26.822174 -75.254845 43.465351  0.219280 0.063168 0.973615  0.358022 0.800999 1 0 1.000000
0  25.544930 -83.101524 43.730873  0.223229 -0.020019 0.974560  0.351385 0.760606 1 0 1.000000
0  27.075420 -75.238892 43.428989  0.152239 0.075344 0.985468  0.359338 0.801114 1 0 1.000000
skin_0dam
0  -28.528830 -61.256432 41.248413  -0.193043 0.131598 0.972325  0.070401 0.874979 1 0 1.000000
0  -27.758078 -67.889664 42.273434  -0.213175 0.128228 0.968563  0.074406 0.840306 1 0 1.000000
0  -27.581905 -67.902390 42.311043  -0.209542 0.130546 0.969046  0.075321 0.840192 1 0 1.000000
skin_0dam
0  -28.528830 -61.256432 41.248413  -0.193043 0.131598 0.972325  0.070401 0.874979 1 0 1.000000
0  -28.705002 -61.208954 41.212891  -0.178544 0.132889 0.974917  0.069485 0.875265 1 0 1.000000
0  -27.758078 -67.889664 42.273434  -0.213175 0.128228 0.968563  0.074406 0.840306 1 0 1.000000
skin_0dam
0  -28.011324 -67.879791 42.225193  -0.193282 0.129930 0.972502  0.073090 0.840421 1 0 1.000000
0  -27.758078 -67.889664 42.273434  -0.213175 0.128228 0.968563  0.074406 0.840306 1 0 1.000000
0  -28.705002 -61.208954 41.212891  -0.178544 0.132889 0.974917  0.069485 0.875265 1 0 1.000000
skin_0dam
0  -28.011324 -67.879791 42.225193  -0.193282 0.129930 0.972502  0.073090 0.840421 1 0 1.000000
0  -28.705002 -61.208954 41.212891  -0.178544 0.132889 0.974917  0.069485 0.875265 1 0 1.000000
0  -28.264572 -67.869919 42.176949  -0.157395 0.137169 0.977963  0.071774 0.840535 1 0 1.000000
skin_0dam
0  -28.011324 -67.879791 42.225193  -0.193282 0.129930 0.972502  0.073090 0.840421 1 0 1.000000
0  -28.264572 -67.869919 42.176949  -0.157395 0.137169 0.977963  0.071774 0.840535 1 0 1.000000
0  -26.822165 -75.254845 43.465359  -0.219205 0.062815 0.973655  0.079269 0.800999 1 0 1.000000
skin_0dam
0  -26.822165 -75.254845 43.465359  -0.219205 0.062815 0.973655  0.079269 0.800999 1 0 1.000000
0  -26.568918 -75.275902 43.536152  -0.253079 0.061481 0.965490  0.080585 0.800828 1 0 1.000000
0  -28.011324 -67.879791 42.225193  -0.193282 0.129930 0.972502  0.073090 0.840421 1 0 1.000000
skin_0dam
0  -26.568918 -75.275902 43.536152  -0.253079 0.061481 0.965490  0.080585 0.800828 1 0 1.000000
0  -26.822165 -75.254845 43.465359  -0.219205 0.062815 0.973655  0.079269 0.800999 1 0 1.000000
0  -25.291670 -83.120674 43.812515  -0.309148 -0.034998 0.950370  0.087222 0.760434 1 0 1.000000
skin_0dam
0  -26.568918 -75.275902 43.536152  -0.253079 0.061481 0.965490  0.080585 0.800828 1 0 1.000000
0  -25.291670 -83.120674 43.812515  -0.309148 -0.034998 0.950370  0.087222 0.760434 1 0 1.000000
0  -26.172531 -75.300156 43.652237  -0.271213 0.056621 0.960853  0.082645 0.800599 1 0 1.000000
skin_0dam
0  -26.568918 -75.275902 43.536152  -0.253079 0.061481 0.965490  0.080585 0.800828 1 0 1.000000
0  -26.172531 -75.300156 43.652237  -0.271213 0.056621 0.960853  0.082645 0.800599 1 0 1.000000
0  -27.758078 -67.889664 42.273434  -0.213175 0.128228 0.968563  0.074406 0.840306 1 0 1.000000
skin_0dam
0  -27.758078 -67.889664 42.273434  -0.213175 0.128228 0.968563  0.074406 0.840306 1 0 1.000000
0  -28.011324 -67.879791 42.225193  -0.193282 0.129930 0.972502  0.073090 0.840421 1 0 1.000000
0  -26.568918 -75.275902 43.536152  -0.253079 0.061481 0.965490  0.080585 0.800828 1 0 1.000000
skin_0dam
0  -25.544916 -83.101524 43.730881  -0.223220 -0.020016 0.974563  0.085906 0.760606 1 0 1.000000
0  -25.291670 -83.120674 43.812515  -0.309148 -0.034998 0.950370  0.087222 0.760434 1 0 1.000000
0  -26.822165 -75.254845 43.465359  -0.219205 0.062815 0.973655  0.079269 0.800999 1 0 1.000000
skin_0dam
0  -25.544916 -83.101524 43.730881  -0.223220 -0.020016 0.974563  0.085906 0.760606 1 0 1.000000
0  -24.113520 -91.045151 43.700291  -0.236892 -0.052847 0.970098  0.093344 0.719983 1 0 1.000000
0  -25.291670 -83.120674 43.812515  -0.309148 -0.034998 0.950370  0.087222 0.760434 1 0 1.000000
skin_0dam
0  -25.544916 -83.101524 43.730881  -0.223220 -0.020016 0.974563  0.085906 0.760606 1 0 1.000000
0  -25.798162 -83.087494 43.683681  -0.149058 -0.015286 0.988710  0.084590 0.760720 1 0 1.000000
0  -24.113520 -91.045151 43.700291  -0.236892 -0.052847 0.970098  0.093344 0.719983 1 0 1.000000
skin_0dam
0  -24.366766 -91.029190 43.663944  -0.134204 -0.038598 0.990202  0.092028 0.720097 1 0 1.000000
0  -24.113520 -91.045151 43.700291  -0.236892 -0.052847 0.970098  0.093344 0.719983 1 0 1.000000
0  -25.798162 -83.087494 43.683681  -0.149058 -0.015286 0.988710  0.084590 0.760720 1 0 1.000000
skin_0dam
0  -25.798162 -83.087494 43.683681  -0.149058 -0.015286 0.988710  0.084590 0.760720 1 0 1.000000
0  -25.544916 -83.101524 43.730881  -0.223220 -0.020016 0.974563  0.085906 0.760606 1 0 1.000000
0  -27.075411 -75.238884 43.428997  -0.151283 0.068822 0.986092  0.077953 0.801114 1 0 1.000000
skin_0dam
0  -26.822165 -75.254845 43.465359  -0.219205 0.062815 0.973655  0.079269 0.800999 1 0 1.000000
0  -27.075411 -75.238884 43.428997  -0.151283 0.068822 0.986092  0.077953 0.801114 1 0 1.000000
0  -25.544916 -83.101524 43.730881  -0.223220 -0.020016 0.974563  0.085906 0.760606 1 0 1.000000
skin_0dam
0  -27.075411 -75.238884 43.428997  -0.151283 0.068822 0.986092  0.077953 0.801114 1 0 1.000000
0  -26.822165 -75.254845 43.465359  -0.219205 0.062815 0.973655  0.079269 0.800999 1 0 1.000000
0  -28.264572 -67.869919 42.176949  -0.157395 0.137169 0.977963  0.071774 0.840535 1 0 1.000000
skin_0dam
0  -27.075411 -75.238884 43.428997  -0.151283 0.068822 0.986092  0.077953 0.801114 1 0 1.000000
0  -28.264572 -67.869919 42.176949  -0.157395 0.137169 0.977963  0.071774 0.840535 1 0 1.000000
0  -31.534761 -74.921158 42.758041  -0.159660 0.077957 0.984089  0.054781 0.803345 1 0 1.000000
skin_0dam
0  -31.534761 -74.921158 42.758041  -0.159660 0.077957 0.984089  0.054781 0.803345 1 0 1.000000
0  -30.730976 -82.723206 42.959656  -0.158870 -0.003613 0.987293  0.058958 0.763237 1 0 1.000000
0  -27.075411 -75.238884 43.428997  -0.151283 0.068822 0.986092  0.077953 0.801114 1 0 1.000000
skin_0dam
0  -25.798162 -83.087494 43.683681  -0.149058 -0.015286 0.988710  0.084590 0.760720 1 0 1.000000
0  -27.075411 -75.238884 43.428997  -0.151283 0.068822 0.986092  0.077953 0.801114 1 0 1.000000
0  -30.730976 -82.723206 42.959656  -0.158870 -0.003613 0.987293  0.058958 0.763237 1 0 1.000000
skin_0dam
0  -30.730976 -82.723206 42.959656  -0.158870 -0.003613 0.987293  0.058958 0.763237 1 0 1.000000
0  -29.773041 -90.662979 42.950897  -0.144892 -0.027340 0.989070  0.063936 0.722615 1 0 1.000000
0  -25.798162 -83.087494 43.683681  -0.149058 -0.015286 0.988710  0.084590 0.760720 1 0 1.000000
skin_0dam
0  -24.366766 -91.029190 43.663944  -0.134204 -0.038598 0.990202  0.092028 0.720097 1 0 1.000000
0  -25.798162 -83.087494 43.683681  -0.149058 -0.015286 0.988710  0.084590 0.760720 1 0 1.000000
0  -29.773041 -90.662979 42.950897  -0.144892 -0.027340 0.989070  0.063936 0.722615 1 0 1.000000
skin_0dam
0  -29.773041 -90.662979 42.950897  -0.144892 -0.027340 0.989070  0.063936 0.722615 1 0 1.000000
0  -28.782078 -97.941299 42.825500  -0.130842 -0.075184 0.988548  0.069085 0.685482 1 0 1.000000
0  -24.366766 -91.029190 43.663944  -0.134204 -0.038598 0.990202  0.092028 0.720097 1 0 1.000000
skin_0dam
0  -22.968405 -98.302399 43.504108  -0.120069 -0.102311 0.987480  0.099295 0.683022 1 0 1.000000
0  -24.366766 -91.029190 43.663944  -0.134204 -0.038598 0.990202  0.092028 0.720097 1 0 1.000000
0  -28.782078 -97.941299 42.825500  -0.130842 -0.075184 0.988548  0.069085 0.685482 1 0 1.000000
skin_0dam
0  -22.968405 -98.302399 43.504108  -0.120069 -0.102311 0.987480  0.099295 0.683022 1 0 1.000000
0  -22.748190 -98.309425 43.527706  -0.255250 -0.108913 0.960721  0.100439 0.682965 1 0 1.000000
0  -24.366766 -91.029190 43.663944  -0.134204 -0.038598 0.990202  0.092028 0.720097 1 0 1.000000
skin_0dam
0  -24.113520 -91.045151 43.700291  -0.236892 -0.052847 0.970098  0.093344 0.719983 1 0 1.000000
0  -24.366766 -91.029190 43.663944  -0.134204 -0.038598 0.990202  0.092028 0.720097 1 0 1.000000
0  -22.748190 -98.309425 43.527706  -0.255250 -0.108913 0.960721  0.100439 0.682965 1 0 1.000000
skin_0dam
0  -24.113520 -91.045151 43.700291  -0.236892 -0.052847 0.970098  0.093344 0.719983 1 0 1.000000
0  -22.748190 -98.309425 43.527706  -0.255250 -0.108913 0.960721  0.100439 0.682965 1 0 1.000000
0  -23.871283 -91.064301 43.781937  -0.333160 -0.073256 0.940020  0.094603 0.719811 1 0 1.000000
skin_0dam
0  -23.871283 -91.064301 43.781937  -0.333160 -0.073256 0.940020  0.094603 0.719811 1 0 1.000000
0  -25.291670 -83.120674 43.812515  -0.309148 -0.034998 0.950370  0.087222 0.760434 1 0 1.000000
0  -24.113520 -91.045151 43.700291  -0.236892 -0.052847 0.970098  0.093344 0.719983 1 0 1.000000
skin_0dam
0  -25.291670 -83.120674 43.812515  -0.309148 -0.034998 0.950370  0.087222 0.760434 1 0 1.000000
0  -23.871283 -91.064301 43.781937  -0.333160 -0.073256 0.940020  0.094603 0.719811 1 0 1.000000
0  -24.730122 -83.153229 44.008324  -0.316980 -0.040231 0.947579  0.090140 0.760091 1 0 1.000000
skin_0dam
0  -24.730122 -83.153229 44.008324  -0.316980 -0.040231 0.947579  0.090140 0.760091 1 0 1.000000
0  -26.172531 -75.300156 43.652237  -0.271213 0.056621 0.960853  0.082645 0.800599 1 0 1.000000
0  -25.291670 -83.120674 43.812515  -0.309148 -0.034998 0.950370  0.087222 0.760434 1 0 1.000000
skin_0dam
0  -26.172531 -75.300156 43.652237  -0.271213 0.056621 0.960853  0.082645 0.800599 1 0 1.000000
0  -24.730122 -83.153229 44.008324  -0.316980 -0.040231 0.947579  0.090140 0.760091 1 0 1.000000
0  -25.963327 -75.312286 43.710278  -0.186326 0.074077 0.979691  0.083732 0.800484 1 0 1.000000
skin_0dam
0  -26.172531 -75.300156 43.652237  -0.271213 0.056621 0.960853  0.082645 0.800599 1 0 1.000000
0  -25.963327 -75.312286 43.710278  -0.186326 0.074077 0.979691  0.083732 0.800484 1 0 1.000000
0  -27.581905 -67.902390 42.311043  -0.209542 0.130546 0.969046  0.075321 0.840192 1 0 1.000000
skin_0dam
0  -27.581905 -67.902390 42.311043  -0.209542 0.130546 0.969046  0.075321 0.840192 1 0 1.000000
0  -27.758078 -67.889664 42.273434  -0.213175 0.128228 0.968563  0.074406 0.840306 1 0 1.000000
0  -26.172531 -75.300156 43.652237  -0.271213 0.056621 0.960853  0.082645 0.800599 1 0 1.000000
skin_0dam
0  -27.350679 -67.912262 42.359280  -0.129179 0.147761 0.980550  0.076523 0.840077 1 0 1.000000
0  -28.363668 -61.303909 41.283932  -0.135682 0.141282 0.980627  0.071259 0.874693 1 0 1.000000
0  -27.581905 -67.902390 42.311043  -0.209542 0.130546 0.969046  0.075321 0.840192 1 0 1.000000
skin_0dam
0  -28.528830 -61.256432 41.248413  -0.193043 0.131598 0.972325  0.070401 0.874979 1 0 1.000000
0  -27.581905 -67.902390 42.311043  -0.209542 0.130546 0.969046  0.075321 0.840192 1 0 1.000000
0  -28.363668 -61.303909 41.283932  -0.135682 0.141282 0.980627  0.071259 0.874693 1 0 1.000000
skin_0dam
0  -28.528830 -61.256432 41.248413  -0.193043 0.131598 0.972325  0.070401 0.874979 1 0 1.000000
0  -28.363668 -61.303909 41.283932  -0.135682 0.141282 0.980627  0.071259 0.874693 1 0 1.000000
0  -29.420700 -54.392826 40.104656  -0.130504 0.150565 0.979948  0.065766 0.910967 1 0 1.000000
skin_0dam
0  -28.705002 -61.208954 41.212891  -0.178544 0.132889 0.974917  0.069485 0.875265 1 0 1.000000
0  -28.528830 -61.256432 41.248413  -0.193043 0.131598 0.972325  0.070401 0.874979 1 0 1.000000
0  -29.420700 -54.392826 40.104656  -0.130504 0.150565 0.979948  0.065766 0.910967 1 0 1.000000
skin_0dam
0  -29.420700 -54.392826 40.104656  -0.130504 0.150565 0.979948  0.065766 0.910967 1 0 1.000000
0  -28.958248 -61.188446 41.161797  -0.160984 0.136723 0.977441  0.068170 0.875436 1 0 1.000000
0  -28.705002 -61.208954 41.212891  -0.178544 0.132889 0.974917  0.069485 0.875265 1 0 1.000000
skin_0dam
0  -28.958248 -61.188446 41.161797  -0.160984 0.136723 0.977441  0.068170 0.875436 1 0 1.000000
0  -28.264572 -67.869919 42.176949  -0.157395 0.137169 0.977963  0.071774 0.840535 1 0 1.000000
0  -28.705002 -61.208954 41.212891  -0.178544 0.132889 0.974917  0.069485 0.875265 1 0 1.000000
skin_0dam
0  -28.264572 -67.869919 42.176949  -0.157395 0.137169 0.977963  0.071774 0.840535 1 0 1.000000
0  -28.958248 -61.188446 41.161797  -0.160984 0.136723 0.977441  0.068170 0.875436 1 0 1.000000
0  -32.261471 -67.650810 41.548279  -0.164587 0.141981 0.976090  0.051005 0.842480 1 0 1.000000
skin_0dam
0  -32.261471 -67.650810 41.548279  -0.164587 0.141981 0.976090  0.051005 0.842480 1 0 1.000000
0  -31.534761 -74.921158 42.758041  -0.159660 0.077957 0.984089  0.054781 0.803345 1 0 1.000000
0  -28.264572 -67.869919 42.176949  -0.157395 0.137169 0.977963  0.071774 0.840535 1 0 1.000000
skin_0dam
0  -31.534761 -74.921158 42.758041  -0.159660 0.077957 0.984089  0.054781 0.803345 1 0 1.000000
0  -32.261471 -67.650810 41.548279  -0.164587 0.141981 0.976090  0.051005 0.842480 1 0 1.000000
0  -35.983101 -74.630188 41.935276  -0.178242 0.089226 0.979933  0.031666 0.805577 1 0 1.000000
skin_0dam
0  -35.983101 -74.630188 41.935276  -0.178242 0.089226 0.979933  0.031666 0.805577 1 0 1.000000
0  -35.652779 -82.385666 42.083954  -0.176880 0.003344 0.984227  0.033383 0.765755 1 0 1.000000
0  -31.534761 -74.921158 42.758041  -0.159660 0.077957 0.984089  0.054781 0.803345 1 0 1.000000
skin_0dam
0  -30.730976 -82.723206 42.959656  -0.158870 -0.003613 0.987293  0.058958 0.763237 1 0 1.000000
0  -31.534761 -74.921158 42.758041  -0.159660 0.077957 0.984089  0.054781 0.803345 1 0 1.000000
0  -35.652779 -82.385666 42.083954  -0.176880 0.003344 0.984227  0.033383 0.765755 1 0 1.000000
skin_0dam
0  -35.652779 -82.385666 42.083954  -0.176880 0.003344 0.984227  0.033383 0.765755 1 0 1.000000
0  -35.157295 -90.332466 42.098793  -0.163798 -0.018541 0.986320  0.035957 0.725075 1 0 1.000000
0  -30.730976 -82.723206 42.959656  -0.158870 -0.003613 0.987293  0.058958 0.763237 1 0 1.000000
skin_0dam
0  -29.773041 -90.662979 42.950897  -0.144892 -0.027340 0.989070  0.063936 0.722615 1 0 1.000000
0  -30.730976 -82.723206 42.959656  -0.158870 -0.003613 0.987293  0.058958 0.763237 1 0 1.000000
0  -35.157295 -90.332466 42.098793  -0.163798 -0.018541 0.986320  0.035957 0.725075 1 0 1.000000
skin_0dam
0  -35.157295 -90.332466 42.098793  -0.163798 -0.018541 0.986320  0.035957 0.725075 1 0 1.000000
0  -34.584736 -97.617798 41.996994  -0.149413 -0.053238 0.987341  0.038933 0.687885 1 0 1.000000
0  -29.773041 -90.662979 42.950897  -0.144892 -0.027340 0.989070  0.063936 0.722615 1 0 1.000000
skin_0dam
0  -28.782078 -97.941299 42.825500  -0.130842 -0.075184 0.988548  0.069085 0.685482 1 0 1.000000
0  -29.773041 -90.662979 42.950897  -0.144892 -0.027340 0.989070  0.063936 0.722615 1 0 1.000000
0  -34.584736 -97.617798 41.996994  -0.149413 -0.053238 0.987341  0.038933 0.687885 1 0 1.000000
skin_0dam
0  -34.584736 -97.617798 41.996994  -0.149413 -0.053238 0.987341  0.038933 0.687885 1 0 1.000000
0  -33.869038 -104.357086 41.441143  -0.133041 -0.106298 0.985394  0.042652 0.653899 1 0 1.000000
0  -28.782078 -97.941299 42.825500  -0.130842 -0.075184 0.988548  0.069085 0.685482 1 0 1.000000
skin_0dam
0  -27.537863 -105.486145 42.076271  -0.113969 -0.122222 0.985938  0.075550 0.647548 1 0 1.000000
0  -28.782078 -97.941299 42.825500  -0.130842 -0.075184 0.988548  0.069085 0.685482 1 0 1.000000
0  -33.869038 -104.357086 41.441143  -0.133041 -0.106298 0.985394  0.042652 0.653899 1 0 1.000000
skin_0dam
0  -28.782078 -97.941299 42.825500  -0.130842 -0.075184 0.988548  0.069085 0.685482 1 0 1.000000
0  -27.537863 -105.486145 42.076271  -0.113969 -0.122222 0.985938  0.075550 0.647548 1 0 1.000000
0  -22.968405 -98.302399 43.504108  -0.120069 -0.102311 0.987480  0.099295 0.683022 1 0 1.000000
skin_0dam
0  -36.247360 -67.471581 40.770714  -0.185895 0.144017 0.971958  0.030293 0.844426 1 0 1.000000
0  -35.983101 -74.630188 41.935276  -0.178242 0.089226 0.979933  0.031666 0.805577 1 0 1.000000
0  -32.261471 -67.650810 41.548279  -0.164587 0.141981 0.976090  0.051005 0.842480 1 0 1.000000
skin_0dam
0  -32.261471 -67.650810 41.548279  -0.164587 0.141981 0.976090  0.051005 0.842480 1 0 1.000000
0  -32.900093 -60.802010 40.476894  -0.174216 0.140550 0.974625  0.047686 0.878297 1 0 1.000000
0  -36.247360 -67.471581 40.770714  -0.185895 0.144017 0.971958  0.030293 0.844426 1 0 1.000000
skin_0dam
0  -32.900093 -60.802010 40.476894  -0.174216 0.140550 0.974625  0.047686 0.878297 1 0 1.000000
0  -32.261471 -67.650810 41.548279  -0.164587 0.141981 0.976090  0.051005 0.842480 1 0 1.000000
0  -28.958248 -61.188446 41.161797  -0.160984 0.136723 0.977441  0.068170 0.875436 1 0 1.000000
skin_0dam
0  -28.958248 -61.188446 41.161797  -0.160984 0.136723 0.977441  0.068170 0.875436 1 0 1.000000
0  -29.420700 -54.392826 40.104656  -0.130504 0.150565 0.979948  0.065766 0.910967 1 0 1.000000
0  -32.900093 -60.802010 40.476894  -0.174216 0.140550 0.974625  0.047686 0.878297 1 0 1.000000
skin_0dam
0  -33.318504 -53.783043 39.359913  -0.180498 0.131479 0.974748  0.045512 0.915029 1 0 1.000000
0  -32.900093 -60.802010 40.476894  -0.174216 0.140550 0.974625  0.047686 0.878297 1 0 1.000000
0  -29.420700 -54.392826 40.104656  -0.130504 0.150565 0.979948  0.065766 0.910967 1 0 1.000000
skin_0dam
0  -32.900093 -60.802010 40.476894  -0.174216 0.140550 0.974625  0.047686 0.878297 1 0 1.000000
0  -33.318504 -53.783043 39.359913  -0.180498 0.131479 0.974748  0.045512 0.915029 1 0 1.000000
0  -36.258369 -60.501419 39.769398  -0.194708 0.142920 0.970393  0.030236 0.880757 1 0 1.000000
skin_0dam
0  -36.280392 -53.358997 38.687733  -0.217419 0.126385 0.967861  0.030121 0.918062 1 0 1.000000
0  -36.258369 -60.501419 39.769398  -0.194708 0.142920 0.970393  0.030236 0.880757 1 0 1.000000
0  -33.318504 -53.783043 39.359913  -0.180498 0.131479 0.974748  0.045512 0.915029 1 0 1.000000
skin_0dam
0  -36.258369 -60.501419 39.769398  -0.194708 0.142920 0.970393  0.030236 0.880757 1 0 1.000000
0  -36.247360 -67.471581 40.770714  -0.185895 0.144017 0.971958  0.030293 0.844426 1 0 1.000000
0  -32.900093 -60.802010 40.476894  -0.174216 0.140550 0.974625  0.047686 0.878297 1 0 1.000000
skin_0dam
0  -29.420700 -54.392826 40.104656  -0.130504 0.150565 0.979948  0.065766 0.910967 1 0 1.000000
0  -29.993259 -48.083591 39.189247  -0.121440 0.127980 0.984314  0.062791 0.943866 1 0 1.000000
0  -33.318504 -53.783043 39.359913  -0.180498 0.131479 0.974748  0.045512 0.915029 1 0 1.000000
skin_0dam
0  -33.990158 -46.494370 38.398647  -0.200330 0.116314 0.972800  0.042022 0.952906 1 0 1.000000
0  -33.318504 -53.783043 39.359913  -0.180498 0.131479 0.974748  0.045512 0.915029 1 0 1.000000
0  -29.993259 -48.083591 39.189247  -0.121440 0.127980 0.984314  0.062791 0.943866 1 0 1.000000
skin_0dam
0  -33.318504 -53.783043 39.359913  -0.180498 0.131479 0.974748  0.045512 0.915029 1 0 1.000000
0  -33.990158 -46.494370 38.398647  -0.200330 0.116314 0.972800  0.042022 0.952906 1 0 1.000000
0  -36.280392 -53.358997 38.687733  -0.217419 0.126385 0.967861  0.030121 0.918062 1 0 1.000000
skin_0dam
0  -36.258369 -44.747688 37.600048  -0.244624 0.122121 0.961897  0.030236 0.962747 1 0 1.000000
0  -36.280392 -53.358997 38.687733  -0.217419 0.126385 0.967861  0.030121 0.918062 1 0 1.000000
0  -33.990158 -46.494370 38.398647  -0.200330 0.116314 0.972800  0.042022 0.952906 1 0 1.000000
end
