version 1
nodes
0 "root" -1
end
skeleton
time 0
0  0.000000 0.000000 0.000000  0.000000 -0.000000 0.000000
end
triangles
  phy
0  -36.144169 -77.435051 41.931995  0.988178 -0.048311 0.145498  0.000000 0.000000 1 0 1.000000
0  -36.091747 -82.957893 43.538288  0.619143 0.043681 -0.784063  0.000000 0.000000 1 0 1.000000
0  -36.583015 -68.530434 42.342026  0.869557 0.011723 -0.493694  0.000000 0.000000 1 0 1.000000
  phy
0  -36.144169 -77.435051 41.931995  0.988178 -0.048311 0.145498  0.000000 0.000000 1 0 1.000000
0  -36.583015 -68.530434 42.342026  0.869557 0.011723 -0.493694  0.000000 0.000000 1 0 1.000000
0  -36.593590 -61.905781 39.973759  0.977962 -0.045400 0.203787  0.000000 0.000000 1 0 1.000000
  phy
0  -36.091747 -82.957893 43.538288  0.619143 0.043681 -0.784063  0.000000 0.000000 1 0 1.000000
0  -36.144169 -77.435051 41.931995  0.988178 -0.048311 0.145498  0.000000 0.000000 1 0 1.000000
0  -36.039429 -84.260353 43.648048  0.333281 -0.017638 -0.942663  0.000000 0.000000 1 0 1.000000
  phy
0  -36.039429 -84.260353 43.648048  0.333281 -0.017638 -0.942663  0.000000 0.000000 1 0 1.000000
0  -36.144169 -77.435051 41.931995  0.988178 -0.048311 0.145498  0.000000 0.000000 1 0 1.000000
0  -35.356899 -91.621147 41.662636  0.911656 -0.071135 0.404750  0.000000 0.000000 1 0 1.000000
  phy
0  -36.144169 -77.435051 41.931995  0.988178 -0.048311 0.145498  0.000000 0.000000 1 0 1.000000
0  -36.593590 -61.905781 39.973759  0.977962 -0.045400 0.203787  0.000000 0.000000 1 0 1.000000
0  -35.356899 -91.621147 41.662636  0.911656 -0.071135 0.404750  0.000000 0.000000 1 0 1.000000
  phy
0  -34.425049 -68.847984 42.810768  0.176418 0.126165 -0.976196  0.000000 0.000000 1 0 1.000000
0  -24.584791 -85.300537 46.087257  0.185160 -0.013632 -0.982614  0.000000 0.000000 1 0 1.000000
0  -27.124672 -68.683739 43.985878  0.127350 0.163437 -0.978300  0.000000 0.000000 1 0 1.000000
  phy
0  -24.584791 -85.300537 46.087257  0.185160 -0.013632 -0.982614  0.000000 0.000000 1 0 1.000000
0  -12.186599 -84.917297 48.072403  0.157264 0.017404 -0.987403  0.000000 0.000000 1 0 1.000000
0  -27.124672 -68.683739 43.985878  0.127350 0.163437 -0.978300  0.000000 0.000000 1 0 1.000000
  phy
0  -12.186599 -84.917297 48.072403  0.157264 0.017404 -0.987403  0.000000 0.000000 1 0 1.000000
0  -11.303667 -84.648300 48.189236  0.103496 0.096729 -0.989915  0.000000 0.000000 1 0 1.000000
0  -27.124672 -68.683739 43.985878  0.127350 0.163437 -0.978300  0.000000 0.000000 1 0 1.000000
  phy
0  -33.994324 -46.479275 38.428970  0.149508 0.197892 -0.968755  0.000000 0.000000 1 0 1.000000
0  -34.425049 -68.847984 42.810768  0.176418 0.126165 -0.976196  0.000000 0.000000 1 0 1.000000
0  -27.124672 -68.683739 43.985878  0.127350 0.163437 -0.978300  0.000000 0.000000 1 0 1.000000
  phy
0  -33.994324 -46.479275 38.428970  0.149508 0.197892 -0.968755  0.000000 0.000000 1 0 1.000000
0  -36.584110 -68.136169 42.311863  0.370265 0.180503 -0.911220  0.000000 0.000000 1 0 1.000000
0  -34.425049 -68.847984 42.810768  0.176418 0.126165 -0.976196  0.000000 0.000000 1 0 1.000000
  phy
0  -36.584110 -68.136169 42.311863  0.370265 0.180503 -0.911220  0.000000 0.000000 1 0 1.000000
0  -36.583015 -68.530434 42.342026  0.869557 0.011723 -0.493694  0.000000 0.000000 1 0 1.000000
0  -34.425049 -68.847984 42.810768  0.176418 0.126165 -0.976196  0.000000 0.000000 1 0 1.000000
  phy
0  -36.583015 -68.530434 42.342026  0.869557 0.011723 -0.493694  0.000000 0.000000 1 0 1.000000
0  -36.091747 -82.957893 43.538288  0.619143 0.043681 -0.784063  0.000000 0.000000 1 0 1.000000
0  -34.425049 -68.847984 42.810768  0.176418 0.126165 -0.976196  0.000000 0.000000 1 0 1.000000
  phy
0  -36.091747 -82.957893 43.538288  0.619143 0.043681 -0.784063  0.000000 0.000000 1 0 1.000000
0  -36.039429 -84.260353 43.648048  0.333281 -0.017638 -0.942663  0.000000 0.000000 1 0 1.000000
0  -34.425049 -68.847984 42.810768  0.176418 0.126165 -0.976196  0.000000 0.000000 1 0 1.000000
  phy
0  -36.039429 -84.260353 43.648048  0.333281 -0.017638 -0.942663  0.000000 0.000000 1 0 1.000000
0  -24.584791 -85.300537 46.087257  0.185160 -0.013632 -0.982614  0.000000 0.000000 1 0 1.000000
0  -34.425049 -68.847984 42.810768  0.176418 0.126165 -0.976196  0.000000 0.000000 1 0 1.000000
  phy
0  -10.782704 -98.250458 47.279045  0.176744 -0.191146 -0.965518  0.000000 0.000000 1 0 1.000000
0  -25.550777 -96.933388 44.534828  0.202065 -0.162406 -0.965813  0.000000 0.000000 1 0 1.000000
0  -13.199984 -98.197327 46.810818  0.200138 -0.304894 -0.931120  0.000000 0.000000 1 0 1.000000
  phy
0  -10.782704 -98.250458 47.279045  0.176744 -0.191146 -0.965518  0.000000 0.000000 1 0 1.000000
0  -24.584791 -85.300537 46.087257  0.185160 -0.013632 -0.982614  0.000000 0.000000 1 0 1.000000
0  -25.550777 -96.933388 44.534828  0.202065 -0.162406 -0.965813  0.000000 0.000000 1 0 1.000000
  phy
0  -34.139919 -100.944893 41.374149  0.005517 -0.112926 0.993588  0.000000 0.000000 1 0 1.000000
0  -10.782704 -98.250458 47.279045  0.176744 -0.191146 -0.965518  0.000000 0.000000 1 0 1.000000
0  -13.199984 -98.197327 46.810818  0.200138 -0.304894 -0.931120  0.000000 0.000000 1 0 1.000000
  phy
0  -34.139919 -100.944893 41.374149  0.005517 -0.112926 0.993588  0.000000 0.000000 1 0 1.000000
0  -9.515102 -104.209908 44.971256  0.158729 -0.390979 -0.906609  0.000000 0.000000 1 0 1.000000
0  -10.782704 -98.250458 47.279045  0.176744 -0.191146 -0.965518  0.000000 0.000000 1 0 1.000000
  phy
0  -8.941526 -98.146576 47.577480  0.118217 -0.124755 -0.985120  0.000000 0.000000 1 0 1.000000
0  -12.186599 -84.917297 48.072403  0.157264 0.017404 -0.987403  0.000000 0.000000 1 0 1.000000
0  -10.782704 -98.250458 47.279045  0.176744 -0.191146 -0.965518  0.000000 0.000000 1 0 1.000000
  phy
0  -12.186599 -84.917297 48.072403  0.157264 0.017404 -0.987403  0.000000 0.000000 1 0 1.000000
0  -24.584791 -85.300537 46.087257  0.185160 -0.013632 -0.982614  0.000000 0.000000 1 0 1.000000
0  -10.782704 -98.250458 47.279045  0.176744 -0.191146 -0.965518  0.000000 0.000000 1 0 1.000000
  phy
0  -10.782704 -98.250458 47.279045  0.176744 -0.191146 -0.965518  0.000000 0.000000 1 0 1.000000
0  -9.515102 -104.209908 44.971256  0.158729 -0.390979 -0.906609  0.000000 0.000000 1 0 1.000000
0  -8.941526 -98.146576 47.577480  0.118217 -0.124755 -0.985120  0.000000 0.000000 1 0 1.000000
  phy
0  -9.515102 -104.209908 44.971256  0.158729 -0.390979 -0.906609  0.000000 0.000000 1 0 1.000000
0  -0.409763 -98.777985 48.496181  0.081230 -0.198131 -0.976804  0.000000 0.000000 1 0 1.000000
0  -8.941526 -98.146576 47.577480  0.118217 -0.124755 -0.985120  0.000000 0.000000 1 0 1.000000
  phy
0  -9.515102 -104.209908 44.971256  0.158729 -0.390979 -0.906609  0.000000 0.000000 1 0 1.000000
0  -0.375197 -104.940453 45.933029  0.087563 -0.395641 -0.914221  0.000000 0.000000 1 0 1.000000
0  -0.409763 -98.777985 48.496181  0.081230 -0.198131 -0.976804  0.000000 0.000000 1 0 1.000000
  phy
0  -25.550777 -96.933388 44.534828  0.202065 -0.162406 -0.965813  0.000000 0.000000 1 0 1.000000
0  -24.584791 -85.300537 46.087257  0.185160 -0.013632 -0.982614  0.000000 0.000000 1 0 1.000000
0  -34.880859 -97.206055 42.419147  0.295446 -0.141814 -0.944775  0.000000 0.000000 1 0 1.000000
  phy
0  -24.584791 -85.300537 46.087257  0.185160 -0.013632 -0.982614  0.000000 0.000000 1 0 1.000000
0  -36.039429 -84.260353 43.648048  0.333281 -0.017638 -0.942663  0.000000 0.000000 1 0 1.000000
0  -34.880859 -97.206055 42.419147  0.295446 -0.141814 -0.944775  0.000000 0.000000 1 0 1.000000
  phy
0  -25.550777 -96.933388 44.534828  0.202065 -0.162406 -0.965813  0.000000 0.000000 1 0 1.000000
0  -34.139919 -100.944893 41.374149  0.005517 -0.112926 0.993588  0.000000 0.000000 1 0 1.000000
0  -13.199984 -98.197327 46.810818  0.200138 -0.304894 -0.931120  0.000000 0.000000 1 0 1.000000
  phy
0  -34.880859 -97.206055 42.419147  0.295446 -0.141814 -0.944775  0.000000 0.000000 1 0 1.000000
0  -34.139919 -100.944893 41.374149  0.005517 -0.112926 0.993588  0.000000 0.000000 1 0 1.000000
0  -25.550777 -96.933388 44.534828  0.202065 -0.162406 -0.965813  0.000000 0.000000 1 0 1.000000
  phy
0  -8.941526 -98.146576 47.577480  0.118217 -0.124755 -0.985120  0.000000 0.000000 1 0 1.000000
0  -11.303667 -84.648300 48.189236  0.103496 0.096729 -0.989915  0.000000 0.000000 1 0 1.000000
0  -12.186599 -84.917297 48.072403  0.157264 0.017404 -0.987403  0.000000 0.000000 1 0 1.000000
  phy
0  -8.941526 -98.146576 47.577480  0.118217 -0.124755 -0.985120  0.000000 0.000000 1 0 1.000000
0  -0.095465 -85.328697 49.405888  0.083983 0.079727 -0.993273  0.000000 0.000000 1 0 1.000000
0  -11.303667 -84.648300 48.189236  0.103496 0.096729 -0.989915  0.000000 0.000000 1 0 1.000000
  phy
0  -8.941526 -98.146576 47.577480  0.118217 -0.124755 -0.985120  0.000000 0.000000 1 0 1.000000
0  -0.409763 -98.777985 48.496181  0.081230 -0.198131 -0.976804  0.000000 0.000000 1 0 1.000000
0  -0.095465 -85.328697 49.405888  0.083983 0.079727 -0.993273  0.000000 0.000000 1 0 1.000000
  phy
0  -13.394516 -69.036713 45.396648  0.081559 0.197144 -0.976976  0.000000 0.000000 1 0 1.000000
0  -29.085424 -48.213665 39.344471  0.041979 0.270428 -0.961825  0.000000 0.000000 1 0 1.000000
0  -29.743607 -48.033894 39.258499  0.097224 0.212733 -0.972261  0.000000 0.000000 1 0 1.000000
  phy
0  -13.394516 -69.036713 45.396648  0.081559 0.197144 -0.976976  0.000000 0.000000 1 0 1.000000
0  -0.083856 -69.009415 46.248432  0.042265 0.238838 -0.970139  0.000000 0.000000 1 0 1.000000
0  -29.085424 -48.213665 39.344471  0.041979 0.270428 -0.961825  0.000000 0.000000 1 0 1.000000
  phy
0  -11.303667 -84.648300 48.189236  0.103496 0.096729 -0.989915  0.000000 0.000000 1 0 1.000000
0  -13.394516 -69.036713 45.396648  0.081559 0.197144 -0.976976  0.000000 0.000000 1 0 1.000000
0  -27.124672 -68.683739 43.985878  0.127350 0.163437 -0.978300  0.000000 0.000000 1 0 1.000000
  phy
0  -11.303667 -84.648300 48.189236  0.103496 0.096729 -0.989915  0.000000 0.000000 1 0 1.000000
0  -0.095465 -85.328697 49.405888  0.083983 0.079727 -0.993273  0.000000 0.000000 1 0 1.000000
0  -13.394516 -69.036713 45.396648  0.081559 0.197144 -0.976976  0.000000 0.000000 1 0 1.000000
  phy
0  -13.394516 -69.036713 45.396648  0.081559 0.197144 -0.976976  0.000000 0.000000 1 0 1.000000
0  -0.095465 -85.328697 49.405888  0.083983 0.079727 -0.993273  0.000000 0.000000 1 0 1.000000
0  -0.083856 -69.009415 46.248432  0.042265 0.238838 -0.970139  0.000000 0.000000 1 0 1.000000
  phy
0  -0.095465 -85.328697 49.405888  0.083983 0.079727 -0.993273  0.000000 0.000000 1 0 1.000000
0  7.736243 -85.133904 49.872467  0.045986 0.094041 -0.994506  0.000000 0.000000 1 0 1.000000
0  -0.083856 -69.009415 46.248432  0.042265 0.238838 -0.970139  0.000000 0.000000 1 0 1.000000
  phy
0  -29.743607 -48.033894 39.258499  0.097224 0.212733 -0.972261  0.000000 0.000000 1 0 1.000000
0  -27.124672 -68.683739 43.985878  0.127350 0.163437 -0.978300  0.000000 0.000000 1 0 1.000000
0  -13.394516 -69.036713 45.396648  0.081559 0.197144 -0.976976  0.000000 0.000000 1 0 1.000000
  phy
0  -0.409763 -98.777985 48.496181  0.081230 -0.198131 -0.976804  0.000000 0.000000 1 0 1.000000
0  7.736243 -85.133904 49.872467  0.045986 0.094041 -0.994506  0.000000 0.000000 1 0 1.000000
0  -0.095465 -85.328697 49.405888  0.083983 0.079727 -0.993273  0.000000 0.000000 1 0 1.000000
  phy
0  -0.409763 -98.777985 48.496181  0.081230 -0.198131 -0.976804  0.000000 0.000000 1 0 1.000000
0  8.917266 -98.631264 49.046227  0.051730 -0.150296 -0.987287  0.000000 0.000000 1 0 1.000000
0  7.736243 -85.133904 49.872467  0.045986 0.094041 -0.994506  0.000000 0.000000 1 0 1.000000
  phy
0  8.917266 -98.631264 49.046227  0.051730 -0.150296 -0.987287  0.000000 0.000000 1 0 1.000000
0  12.053000 -85.620216 50.090317  -0.002409 0.046800 -0.998901  0.000000 0.000000 1 0 1.000000
0  7.736243 -85.133904 49.872467  0.045986 0.094041 -0.994506  0.000000 0.000000 1 0 1.000000
  phy
0  12.053000 -85.620216 50.090317  -0.002409 0.046800 -0.998901  0.000000 0.000000 1 0 1.000000
0  13.304437 -68.997963 46.602150  -0.009901 0.273130 -0.961926  0.000000 0.000000 1 0 1.000000
0  7.736243 -85.133904 49.872467  0.045986 0.094041 -0.994506  0.000000 0.000000 1 0 1.000000
  phy
0  13.304437 -68.997963 46.602150  -0.009901 0.273130 -0.961926  0.000000 0.000000 1 0 1.000000
0  -0.083856 -69.009415 46.248432  0.042265 0.238838 -0.970139  0.000000 0.000000 1 0 1.000000
0  7.736243 -85.133904 49.872467  0.045986 0.094041 -0.994506  0.000000 0.000000 1 0 1.000000
  phy
0  10.033591 -98.853523 49.012154  -0.016143 -0.233927 -0.972120  0.000000 0.000000 1 0 1.000000
0  8.917266 -98.631264 49.046227  0.051730 -0.150296 -0.987287  0.000000 0.000000 1 0 1.000000
0  8.826156 -104.741508 46.498287  0.025439 -0.392600 -0.919357  0.000000 0.000000 1 0 1.000000
  phy
0  8.917266 -98.631264 49.046227  0.051730 -0.150296 -0.987287  0.000000 0.000000 1 0 1.000000
0  -0.409763 -98.777985 48.496181  0.081230 -0.198131 -0.976804  0.000000 0.000000 1 0 1.000000
0  8.826156 -104.741508 46.498287  0.025439 -0.392600 -0.919357  0.000000 0.000000 1 0 1.000000
  phy
0  -0.409763 -98.777985 48.496181  0.081230 -0.198131 -0.976804  0.000000 0.000000 1 0 1.000000
0  -0.375197 -104.940453 45.933029  0.087563 -0.395641 -0.914221  0.000000 0.000000 1 0 1.000000
0  8.826156 -104.741508 46.498287  0.025439 -0.392600 -0.919357  0.000000 0.000000 1 0 1.000000
  phy
0  -29.743607 -48.033894 39.258499  0.097224 0.212733 -0.972261  0.000000 0.000000 1 0 1.000000
0  -29.085424 -48.213665 39.344471  0.041979 0.270428 -0.961825  0.000000 0.000000 1 0 1.000000
0  -36.625683 -44.533272 37.584793  0.028025 0.014583 0.999501  0.000000 0.000000 1 0 1.000000
  phy
0  -29.085424 -48.213665 39.344471  0.041979 0.270428 -0.961825  0.000000 0.000000 1 0 1.000000
0  -14.065482 -50.397221 40.388756  0.014367 0.346393 -0.937980  0.000000 0.000000 1 0 1.000000
0  -36.625683 -44.533272 37.584793  0.028025 0.014583 0.999501  0.000000 0.000000 1 0 1.000000
  phy
0  -14.065482 -50.397221 40.388756  0.014367 0.346393 -0.937980  0.000000 0.000000 1 0 1.000000
0  14.056722 -50.398598 40.390202  -0.006473 0.358168 -0.933635  0.000000 0.000000 1 0 1.000000
0  -36.625683 -44.533272 37.584793  0.028025 0.014583 0.999501  0.000000 0.000000 1 0 1.000000
  phy
0  14.056722 -50.398598 40.390202  -0.006473 0.358168 -0.933635  0.000000 0.000000 1 0 1.000000
0  30.049410 -47.901386 39.196815  -0.023003 0.359378 -0.932909  0.000000 0.000000 1 0 1.000000
0  -36.625683 -44.533272 37.584793  0.028025 0.014583 0.999501  0.000000 0.000000 1 0 1.000000
  phy
0  30.049410 -47.901386 39.196815  -0.023003 0.359378 -0.932909  0.000000 0.000000 1 0 1.000000
0  36.617767 -44.536697 37.588428  -0.012756 -0.024109 0.999628  0.000000 0.000000 1 0 1.000000
0  -36.625683 -44.533272 37.584793  0.028025 0.014583 0.999501  0.000000 0.000000 1 0 1.000000
  phy
0  -33.994324 -46.479275 38.428970  0.149508 0.197892 -0.968755  0.000000 0.000000 1 0 1.000000
0  -27.124672 -68.683739 43.985878  0.127350 0.163437 -0.978300  0.000000 0.000000 1 0 1.000000
0  -29.743607 -48.033894 39.258499  0.097224 0.212733 -0.972261  0.000000 0.000000 1 0 1.000000
  phy
0  -29.743607 -48.033894 39.258499  0.097224 0.212733 -0.972261  0.000000 0.000000 1 0 1.000000
0  -36.625683 -44.533272 37.584793  0.028025 0.014583 0.999501  0.000000 0.000000 1 0 1.000000
0  -33.994324 -46.479275 38.428970  0.149508 0.197892 -0.968755  0.000000 0.000000 1 0 1.000000
  phy
0  -36.583015 -68.530434 42.342026  0.869557 0.011723 -0.493694  0.000000 0.000000 1 0 1.000000
0  -36.584110 -68.136169 42.311863  0.370265 0.180503 -0.911220  0.000000 0.000000 1 0 1.000000
0  -36.593590 -61.905781 39.973759  0.977962 -0.045400 0.203787  0.000000 0.000000 1 0 1.000000
  phy
0  -36.593590 -61.905781 39.973759  0.977962 -0.045400 0.203787  0.000000 0.000000 1 0 1.000000
0  -36.584110 -68.136169 42.311863  0.370265 0.180503 -0.911220  0.000000 0.000000 1 0 1.000000
0  -36.615139 -53.328083 38.799057  0.955618 -0.041868 0.291619  0.000000 0.000000 1 0 1.000000
  phy
0  30.049410 -47.901386 39.196815  -0.023003 0.359378 -0.932909  0.000000 0.000000 1 0 1.000000
0  27.088673 -68.664993 45.875687  -0.073577 0.263505 -0.961848  0.000000 0.000000 1 0 1.000000
0  35.333908 -45.950802 38.156395  -0.082346 0.294582 -0.952072  0.000000 0.000000 1 0 1.000000
  phy
0  30.049410 -47.901386 39.196815  -0.023003 0.359378 -0.932909  0.000000 0.000000 1 0 1.000000
0  13.304437 -68.997963 46.602150  -0.009901 0.273130 -0.961926  0.000000 0.000000 1 0 1.000000
0  27.088673 -68.664993 45.875687  -0.073577 0.263505 -0.961848  0.000000 0.000000 1 0 1.000000
  phy
0  14.056722 -50.398598 40.390202  -0.006473 0.358168 -0.933635  0.000000 0.000000 1 0 1.000000
0  13.304437 -68.997963 46.602150  -0.009901 0.273130 -0.961926  0.000000 0.000000 1 0 1.000000
0  30.049410 -47.901386 39.196815  -0.023003 0.359378 -0.932909  0.000000 0.000000 1 0 1.000000
  phy
0  35.333908 -45.950802 38.156395  -0.082346 0.294582 -0.952072  0.000000 0.000000 1 0 1.000000
0  36.617767 -44.536697 37.588428  -0.012756 -0.024109 0.999628  0.000000 0.000000 1 0 1.000000
0  30.049410 -47.901386 39.196815  -0.023003 0.359378 -0.932909  0.000000 0.000000 1 0 1.000000
  phy
0  8.917266 -98.631264 49.046227  0.051730 -0.150296 -0.987287  0.000000 0.000000 1 0 1.000000
0  10.033591 -98.853523 49.012154  -0.016143 -0.233927 -0.972120  0.000000 0.000000 1 0 1.000000
0  12.053000 -85.620216 50.090317  -0.002409 0.046800 -0.998901  0.000000 0.000000 1 0 1.000000
  phy
0  10.033591 -98.853523 49.012154  -0.016143 -0.233927 -0.972120  0.000000 0.000000 1 0 1.000000
0  19.365187 -98.451561 48.916149  -0.031411 -0.126264 -0.991499  0.000000 0.000000 1 0 1.000000
0  12.053000 -85.620216 50.090317  -0.002409 0.046800 -0.998901  0.000000 0.000000 1 0 1.000000
  phy
0  19.365187 -98.451561 48.916149  -0.031411 -0.126264 -0.991499  0.000000 0.000000 1 0 1.000000
0  24.448519 -85.573349 49.922104  -0.046218 0.084537 -0.995348  0.000000 0.000000 1 0 1.000000
0  12.053000 -85.620216 50.090317  -0.002409 0.046800 -0.998901  0.000000 0.000000 1 0 1.000000
  phy
0  32.441990 -101.841660 47.131416  -0.051473 -0.386096 -0.921021  0.000000 0.000000 1 0 1.000000
0  20.802237 -98.586372 48.819244  -0.041815 -0.334584 -0.941438  0.000000 0.000000 1 0 1.000000
0  18.935400 -104.089722 46.575249  -0.030640 -0.435304 -0.899762  0.000000 0.000000 1 0 1.000000
  phy
0  20.802237 -98.586372 48.819244  -0.041815 -0.334584 -0.941438  0.000000 0.000000 1 0 1.000000
0  19.365187 -98.451561 48.916149  -0.031411 -0.126264 -0.991499  0.000000 0.000000 1 0 1.000000
0  18.935400 -104.089722 46.575249  -0.030640 -0.435304 -0.899762  0.000000 0.000000 1 0 1.000000
  phy
0  19.365187 -98.451561 48.916149  -0.031411 -0.126264 -0.991499  0.000000 0.000000 1 0 1.000000
0  10.033591 -98.853523 49.012154  -0.016143 -0.233927 -0.972120  0.000000 0.000000 1 0 1.000000
0  18.935400 -104.089722 46.575249  -0.030640 -0.435304 -0.899762  0.000000 0.000000 1 0 1.000000
  phy
0  10.033591 -98.853523 49.012154  -0.016143 -0.233927 -0.972120  0.000000 0.000000 1 0 1.000000
0  8.826156 -104.741508 46.498287  0.025439 -0.392600 -0.919357  0.000000 0.000000 1 0 1.000000
0  18.935400 -104.089722 46.575249  -0.030640 -0.435304 -0.899762  0.000000 0.000000 1 0 1.000000
  phy
0  8.826156 -104.741508 46.498287  0.025439 -0.392600 -0.919357  0.000000 0.000000 1 0 1.000000
0  -0.375197 -104.940453 45.933029  0.087563 -0.395641 -0.914221  0.000000 0.000000 1 0 1.000000
0  8.795529 -105.149811 46.269169  -0.042713 -0.959095 -0.279845  0.000000 0.000000 1 0 1.000000
  phy
0  -0.375197 -104.940453 45.933029  0.087563 -0.395641 -0.914221  0.000000 0.000000 1 0 1.000000
0  -0.368220 -105.332893 45.714691  -0.039250 -0.698111 0.714912  0.000000 0.000000 1 0 1.000000
0  8.795529 -105.149811 46.269169  -0.042713 -0.959095 -0.279845  0.000000 0.000000 1 0 1.000000
  phy
0  8.795529 -105.149811 46.269169  -0.042713 -0.959095 -0.279845  0.000000 0.000000 1 0 1.000000
0  -0.368220 -105.332893 45.714691  -0.039250 -0.698111 0.714912  0.000000 0.000000 1 0 1.000000
0  20.664957 -104.114861 46.023556  -0.084525 -0.190436 0.978054  0.000000 0.000000 1 0 1.000000
  phy
0  18.935400 -104.089722 46.575249  -0.030640 -0.435304 -0.899762  0.000000 0.000000 1 0 1.000000
0  8.826156 -104.741508 46.498287  0.025439 -0.392600 -0.919357  0.000000 0.000000 1 0 1.000000
0  8.795529 -105.149811 46.269169  -0.042713 -0.959095 -0.279845  0.000000 0.000000 1 0 1.000000
  phy
0  8.795529 -105.149811 46.269169  -0.042713 -0.959095 -0.279845  0.000000 0.000000 1 0 1.000000
0  20.664957 -104.114861 46.023556  -0.084525 -0.190436 0.978054  0.000000 0.000000 1 0 1.000000
0  18.935400 -104.089722 46.575249  -0.030640 -0.435304 -0.899762  0.000000 0.000000 1 0 1.000000
  phy
0  34.056793 -101.631104 47.081921  -0.229671 -0.184237 0.955672  0.000000 0.000000 1 0 1.000000
0  32.441990 -101.841660 47.131416  -0.051473 -0.386096 -0.921021  0.000000 0.000000 1 0 1.000000
0  20.664957 -104.114861 46.023556  -0.084525 -0.190436 0.978054  0.000000 0.000000 1 0 1.000000
  phy
0  32.441990 -101.841660 47.131416  -0.051473 -0.386096 -0.921021  0.000000 0.000000 1 0 1.000000
0  18.935400 -104.089722 46.575249  -0.030640 -0.435304 -0.899762  0.000000 0.000000 1 0 1.000000
0  20.664957 -104.114861 46.023556  -0.084525 -0.190436 0.978054  0.000000 0.000000 1 0 1.000000
  phy
0  34.056793 -101.631104 47.081921  -0.229671 -0.184237 0.955672  0.000000 0.000000 1 0 1.000000
0  34.767757 -97.874222 48.081886  -0.128577 -0.124635 -0.983836  0.000000 0.000000 1 0 1.000000
0  32.441990 -101.841660 47.131416  -0.051473 -0.386096 -0.921021  0.000000 0.000000 1 0 1.000000
  phy
0  34.767757 -97.874222 48.081886  -0.128577 -0.124635 -0.983836  0.000000 0.000000 1 0 1.000000
0  20.802237 -98.586372 48.819244  -0.041815 -0.334584 -0.941438  0.000000 0.000000 1 0 1.000000
0  32.441990 -101.841660 47.131416  -0.051473 -0.386096 -0.921021  0.000000 0.000000 1 0 1.000000
  phy
0  36.617466 -68.543053 44.706551  -0.232243 0.261406 -0.936872  0.000000 0.000000 1 0 1.000000
0  36.747913 -61.981770 42.170723  -0.999248 0.014255 -0.036051  0.000000 0.000000 1 0 1.000000
0  36.617767 -44.536697 37.588428  -0.012756 -0.024109 0.999628  0.000000 0.000000 1 0 1.000000
  phy
0  36.747913 -61.981770 42.170723  -0.999248 0.014255 -0.036051  0.000000 0.000000 1 0 1.000000
0  36.633354 -44.988026 37.651699  -0.086055 -0.136552 0.986888  0.000000 0.000000 1 0 1.000000
0  36.617767 -44.536697 37.588428  -0.012756 -0.024109 0.999628  0.000000 0.000000 1 0 1.000000
  phy
0  36.799095 -76.806114 45.488544  -0.985324 -0.065746 0.157522  0.000000 0.000000 1 0 1.000000
0  36.606289 -53.327663 38.803005  -0.118433 -0.160588 0.979890  0.000000 0.000000 1 0 1.000000
0  36.747913 -61.981770 42.170723  -0.999248 0.014255 -0.036051  0.000000 0.000000 1 0 1.000000
  phy
0  36.606289 -53.327663 38.803005  -0.118433 -0.160588 0.979890  0.000000 0.000000 1 0 1.000000
0  36.633354 -44.988026 37.651699  -0.086055 -0.136552 0.986888  0.000000 0.000000 1 0 1.000000
0  36.747913 -61.981770 42.170723  -0.999248 0.014255 -0.036051  0.000000 0.000000 1 0 1.000000
  phy
0  36.747913 -61.981770 42.170723  -0.999248 0.014255 -0.036051  0.000000 0.000000 1 0 1.000000
0  36.617466 -68.543053 44.706551  -0.232243 0.261406 -0.936872  0.000000 0.000000 1 0 1.000000
0  36.799095 -76.806114 45.488544  -0.985324 -0.065746 0.157522  0.000000 0.000000 1 0 1.000000
  phy
0  35.510456 -92.337410 47.196262  -0.929540 -0.122416 0.347808  0.000000 0.000000 1 0 1.000000
0  36.150810 -84.924095 48.990826  -0.233779 0.130247 -0.963526  0.000000 0.000000 1 0 1.000000
0  34.767757 -97.874222 48.081886  -0.128577 -0.124635 -0.983836  0.000000 0.000000 1 0 1.000000
  phy
0  36.799095 -76.806114 45.488544  -0.985324 -0.065746 0.157522  0.000000 0.000000 1 0 1.000000
0  36.150810 -84.924095 48.990826  -0.233779 0.130247 -0.963526  0.000000 0.000000 1 0 1.000000
0  35.510456 -92.337410 47.196262  -0.929540 -0.122416 0.347808  0.000000 0.000000 1 0 1.000000
  phy
0  34.767757 -97.874222 48.081886  -0.128577 -0.124635 -0.983836  0.000000 0.000000 1 0 1.000000
0  34.056793 -101.631104 47.081921  -0.229671 -0.184237 0.955672  0.000000 0.000000 1 0 1.000000
0  35.510456 -92.337410 47.196262  -0.929540 -0.122416 0.347808  0.000000 0.000000 1 0 1.000000
  phy
0  35.510456 -92.337410 47.196262  -0.929540 -0.122416 0.347808  0.000000 0.000000 1 0 1.000000
0  36.606289 -53.327663 38.803005  -0.118433 -0.160588 0.979890  0.000000 0.000000 1 0 1.000000
0  36.799095 -76.806114 45.488544  -0.985324 -0.065746 0.157522  0.000000 0.000000 1 0 1.000000
  phy
0  35.510456 -92.337410 47.196262  -0.929540 -0.122416 0.347808  0.000000 0.000000 1 0 1.000000
0  34.056793 -101.631104 47.081921  -0.229671 -0.184237 0.955672  0.000000 0.000000 1 0 1.000000
0  36.606289 -53.327663 38.803005  -0.118433 -0.160588 0.979890  0.000000 0.000000 1 0 1.000000
  phy
0  34.767757 -97.874222 48.081886  -0.128577 -0.124635 -0.983836  0.000000 0.000000 1 0 1.000000
0  19.365187 -98.451561 48.916149  -0.031411 -0.126264 -0.991499  0.000000 0.000000 1 0 1.000000
0  20.802237 -98.586372 48.819244  -0.041815 -0.334584 -0.941438  0.000000 0.000000 1 0 1.000000
  phy
0  34.767757 -97.874222 48.081886  -0.128577 -0.124635 -0.983836  0.000000 0.000000 1 0 1.000000
0  24.448519 -85.573349 49.922104  -0.046218 0.084537 -0.995348  0.000000 0.000000 1 0 1.000000
0  19.365187 -98.451561 48.916149  -0.031411 -0.126264 -0.991499  0.000000 0.000000 1 0 1.000000
  phy
0  34.767757 -97.874222 48.081886  -0.128577 -0.124635 -0.983836  0.000000 0.000000 1 0 1.000000
0  36.150810 -84.924095 48.990826  -0.233779 0.130247 -0.963526  0.000000 0.000000 1 0 1.000000
0  24.448519 -85.573349 49.922104  -0.046218 0.084537 -0.995348  0.000000 0.000000 1 0 1.000000
  phy
0  -0.083856 -69.009415 46.248432  0.042265 0.238838 -0.970139  0.000000 0.000000 1 0 1.000000
0  -14.065482 -50.397221 40.388756  0.014367 0.346393 -0.937980  0.000000 0.000000 1 0 1.000000
0  -29.085424 -48.213665 39.344471  0.041979 0.270428 -0.961825  0.000000 0.000000 1 0 1.000000
  phy
0  -0.083856 -69.009415 46.248432  0.042265 0.238838 -0.970139  0.000000 0.000000 1 0 1.000000
0  -9.955316 -51.360523 40.782337  0.008194 0.305995 -0.951998  0.000000 0.000000 1 0 1.000000
0  -14.065482 -50.397221 40.388756  0.014367 0.346393 -0.937980  0.000000 0.000000 1 0 1.000000
  phy
0  -0.083856 -69.009415 46.248432  0.042265 0.238838 -0.970139  0.000000 0.000000 1 0 1.000000
0  13.304437 -68.997963 46.602150  -0.009901 0.273130 -0.961926  0.000000 0.000000 1 0 1.000000
0  -9.955316 -51.360523 40.782337  0.008194 0.305995 -0.951998  0.000000 0.000000 1 0 1.000000
  phy
0  -14.065482 -50.397221 40.388756  0.014367 0.346393 -0.937980  0.000000 0.000000 1 0 1.000000
0  -9.955316 -51.360523 40.782337  0.008194 0.305995 -0.951998  0.000000 0.000000 1 0 1.000000
0  14.056722 -50.398598 40.390202  -0.006473 0.358168 -0.933635  0.000000 0.000000 1 0 1.000000
  phy
0  -9.515102 -104.209908 44.971256  0.158729 -0.390979 -0.906609  0.000000 0.000000 1 0 1.000000
0  -9.469286 -104.620354 44.748703  0.154474 -0.945783 -0.285715  0.000000 0.000000 1 0 1.000000
0  -0.375197 -104.940453 45.933029  0.087563 -0.395641 -0.914221  0.000000 0.000000 1 0 1.000000
  phy
0  -9.469286 -104.620354 44.748703  0.154474 -0.945783 -0.285715  0.000000 0.000000 1 0 1.000000
0  -0.368220 -105.332893 45.714691  -0.039250 -0.698111 0.714912  0.000000 0.000000 1 0 1.000000
0  -0.375197 -104.940453 45.933029  0.087563 -0.395641 -0.914221  0.000000 0.000000 1 0 1.000000
  phy
0  -21.057989 -102.905197 42.550190  -0.072613 -0.183174 0.980395  0.000000 0.000000 1 0 1.000000
0  -0.368220 -105.332893 45.714691  -0.039250 -0.698111 0.714912  0.000000 0.000000 1 0 1.000000
0  -9.469286 -104.620354 44.748703  0.154474 -0.945783 -0.285715  0.000000 0.000000 1 0 1.000000
  phy
0  -9.515102 -104.209908 44.971256  0.158729 -0.390979 -0.906609  0.000000 0.000000 1 0 1.000000
0  -34.139919 -100.944893 41.374149  0.005517 -0.112926 0.993588  0.000000 0.000000 1 0 1.000000
0  -9.469286 -104.620354 44.748703  0.154474 -0.945783 -0.285715  0.000000 0.000000 1 0 1.000000
  phy
0  -9.469286 -104.620354 44.748703  0.154474 -0.945783 -0.285715  0.000000 0.000000 1 0 1.000000
0  -34.139919 -100.944893 41.374149  0.005517 -0.112926 0.993588  0.000000 0.000000 1 0 1.000000
0  -21.057989 -102.905197 42.550190  -0.072613 -0.183174 0.980395  0.000000 0.000000 1 0 1.000000
  phy
0  -33.994324 -46.479275 38.428970  0.149508 0.197892 -0.968755  0.000000 0.000000 1 0 1.000000
0  -36.625683 -44.533272 37.584793  0.028025 0.014583 0.999501  0.000000 0.000000 1 0 1.000000
0  -36.584110 -68.136169 42.311863  0.370265 0.180503 -0.911220  0.000000 0.000000 1 0 1.000000
  phy
0  -36.593590 -61.905781 39.973759  0.977962 -0.045400 0.203787  0.000000 0.000000 1 0 1.000000
0  -36.615139 -53.328083 38.799057  0.955618 -0.041868 0.291619  0.000000 0.000000 1 0 1.000000
0  -35.356899 -91.621147 41.662636  0.911656 -0.071135 0.404750  0.000000 0.000000 1 0 1.000000
  phy
0  -36.615139 -53.328083 38.799057  0.955618 -0.041868 0.291619  0.000000 0.000000 1 0 1.000000
0  -36.584110 -68.136169 42.311863  0.370265 0.180503 -0.911220  0.000000 0.000000 1 0 1.000000
0  -36.625683 -44.533272 37.584793  0.028025 0.014583 0.999501  0.000000 0.000000 1 0 1.000000
  phy
0  -35.356899 -91.621147 41.662636  0.911656 -0.071135 0.404750  0.000000 0.000000 1 0 1.000000
0  -36.615139 -53.328083 38.799057  0.955618 -0.041868 0.291619  0.000000 0.000000 1 0 1.000000
0  -36.625683 -44.533272 37.584793  0.028025 0.014583 0.999501  0.000000 0.000000 1 0 1.000000
  phy
0  27.088673 -68.664993 45.875687  -0.073577 0.263505 -0.961848  0.000000 0.000000 1 0 1.000000
0  36.617767 -44.536697 37.588428  -0.012756 -0.024109 0.999628  0.000000 0.000000 1 0 1.000000
0  35.333908 -45.950802 38.156395  -0.082346 0.294582 -0.952072  0.000000 0.000000 1 0 1.000000
  phy
0  36.606289 -53.327663 38.803005  -0.118433 -0.160588 0.979890  0.000000 0.000000 1 0 1.000000
0  -34.139919 -100.944893 41.374149  0.005517 -0.112926 0.993588  0.000000 0.000000 1 0 1.000000
0  36.633354 -44.988026 37.651699  -0.086055 -0.136552 0.986888  0.000000 0.000000 1 0 1.000000
  phy
0  36.633354 -44.988026 37.651699  -0.086055 -0.136552 0.986888  0.000000 0.000000 1 0 1.000000
0  -34.139919 -100.944893 41.374149  0.005517 -0.112926 0.993588  0.000000 0.000000 1 0 1.000000
0  36.617767 -44.536697 37.588428  -0.012756 -0.024109 0.999628  0.000000 0.000000 1 0 1.000000
  phy
0  36.617466 -68.543053 44.706551  -0.232243 0.261406 -0.936872  0.000000 0.000000 1 0 1.000000
0  36.150810 -84.924095 48.990826  -0.233779 0.130247 -0.963526  0.000000 0.000000 1 0 1.000000
0  36.799095 -76.806114 45.488544  -0.985324 -0.065746 0.157522  0.000000 0.000000 1 0 1.000000
  phy
0  27.088673 -68.664993 45.875687  -0.073577 0.263505 -0.961848  0.000000 0.000000 1 0 1.000000
0  36.150810 -84.924095 48.990826  -0.233779 0.130247 -0.963526  0.000000 0.000000 1 0 1.000000
0  36.617466 -68.543053 44.706551  -0.232243 0.261406 -0.936872  0.000000 0.000000 1 0 1.000000
  phy
0  36.617466 -68.543053 44.706551  -0.232243 0.261406 -0.936872  0.000000 0.000000 1 0 1.000000
0  36.617767 -44.536697 37.588428  -0.012756 -0.024109 0.999628  0.000000 0.000000 1 0 1.000000
0  27.088673 -68.664993 45.875687  -0.073577 0.263505 -0.961848  0.000000 0.000000 1 0 1.000000
  phy
0  -9.955316 -51.360523 40.782337  0.008194 0.305995 -0.951998  0.000000 0.000000 1 0 1.000000
0  13.304437 -68.997963 46.602150  -0.009901 0.273130 -0.961926  0.000000 0.000000 1 0 1.000000
0  14.056722 -50.398598 40.390202  -0.006473 0.358168 -0.933635  0.000000 0.000000 1 0 1.000000
  phy
0  -34.880859 -97.206055 42.419147  0.295446 -0.141814 -0.944775  0.000000 0.000000 1 0 1.000000
0  -35.356899 -91.621147 41.662636  0.911656 -0.071135 0.404750  0.000000 0.000000 1 0 1.000000
0  -34.139919 -100.944893 41.374149  0.005517 -0.112926 0.993588  0.000000 0.000000 1 0 1.000000
  phy
0  -35.356899 -91.621147 41.662636  0.911656 -0.071135 0.404750  0.000000 0.000000 1 0 1.000000
0  -34.880859 -97.206055 42.419147  0.295446 -0.141814 -0.944775  0.000000 0.000000 1 0 1.000000
0  -36.039429 -84.260353 43.648048  0.333281 -0.017638 -0.942663  0.000000 0.000000 1 0 1.000000
  phy
0  36.606289 -53.327663 38.803005  -0.118433 -0.160588 0.979890  0.000000 0.000000 1 0 1.000000
0  -21.057989 -102.905197 42.550190  -0.072613 -0.183174 0.980395  0.000000 0.000000 1 0 1.000000
0  -34.139919 -100.944893 41.374149  0.005517 -0.112926 0.993588  0.000000 0.000000 1 0 1.000000
  phy
0  -21.057989 -102.905197 42.550190  -0.072613 -0.183174 0.980395  0.000000 0.000000 1 0 1.000000
0  36.606289 -53.327663 38.803005  -0.118433 -0.160588 0.979890  0.000000 0.000000 1 0 1.000000
0  20.664957 -104.114861 46.023556  -0.084525 -0.190436 0.978054  0.000000 0.000000 1 0 1.000000
  phy
0  -21.057989 -102.905197 42.550190  -0.072613 -0.183174 0.980395  0.000000 0.000000 1 0 1.000000
0  20.664957 -104.114861 46.023556  -0.084525 -0.190436 0.978054  0.000000 0.000000 1 0 1.000000
0  -0.368220 -105.332893 45.714691  -0.039250 -0.698111 0.714912  0.000000 0.000000 1 0 1.000000
  phy
0  -34.139919 -100.944893 41.374149  0.005517 -0.112926 0.993588  0.000000 0.000000 1 0 1.000000
0  -35.356899 -91.621147 41.662636  0.911656 -0.071135 0.404750  0.000000 0.000000 1 0 1.000000
0  -36.625683 -44.533272 37.584793  0.028025 0.014583 0.999501  0.000000 0.000000 1 0 1.000000
  phy
0  24.448519 -85.573349 49.922104  -0.046218 0.084537 -0.995348  0.000000 0.000000 1 0 1.000000
0  36.150810 -84.924095 48.990826  -0.233779 0.130247 -0.963526  0.000000 0.000000 1 0 1.000000
0  27.088673 -68.664993 45.875687  -0.073577 0.263505 -0.961848  0.000000 0.000000 1 0 1.000000
  phy
0  27.088673 -68.664993 45.875687  -0.073577 0.263505 -0.961848  0.000000 0.000000 1 0 1.000000
0  13.304437 -68.997963 46.602150  -0.009901 0.273130 -0.961926  0.000000 0.000000 1 0 1.000000
0  24.448519 -85.573349 49.922104  -0.046218 0.084537 -0.995348  0.000000 0.000000 1 0 1.000000
  phy
0  13.304437 -68.997963 46.602150  -0.009901 0.273130 -0.961926  0.000000 0.000000 1 0 1.000000
0  12.053000 -85.620216 50.090317  -0.002409 0.046800 -0.998901  0.000000 0.000000 1 0 1.000000
0  24.448519 -85.573349 49.922104  -0.046218 0.084537 -0.995348  0.000000 0.000000 1 0 1.000000
  phy
0  20.664957 -104.114861 46.023556  -0.084525 -0.190436 0.978054  0.000000 0.000000 1 0 1.000000
0  36.606289 -53.327663 38.803005  -0.118433 -0.160588 0.979890  0.000000 0.000000 1 0 1.000000
0  34.056793 -101.631104 47.081921  -0.229671 -0.184237 0.955672  0.000000 0.000000 1 0 1.000000
  phy
0  36.617767 -44.536697 37.588428  -0.012756 -0.024109 0.999628  0.000000 0.000000 1 0 1.000000
0  -34.139919 -100.944893 41.374149  0.005517 -0.112926 0.993588  0.000000 0.000000 1 0 1.000000
0  -36.625683 -44.533272 37.584793  0.028025 0.014583 0.999501  0.000000 0.000000 1 0 1.000000
end
