version 1
nodes
0 "root" -1
end
skeleton
time 0
0  0.000000 0.000000 0.000000  0.000000 -0.000000 0.000000
end
triangles
doorline
0  -33.736908 -104.249710 28.308619  -0.118445 -0.416072 0.901584  0.275399 0.794916 1 0 1.000000
0  -34.463619 -97.654274 30.048317  -0.125654 -0.225184 0.966180  0.275399 0.726554 1 0 1.000000
0  -34.298458 -104.051521 28.308619  -0.136229 -0.339390 0.930729  0.476577 0.792962 1 0 1.000000
doorline
0  -34.981125 -97.632256 29.982252  -0.131880 -0.224745 0.965452  0.476577 0.724601 1 0 1.000000
0  -34.298458 -104.051521 28.308619  -0.136229 -0.339390 0.930729  0.476577 0.792962 1 0 1.000000
0  -34.463619 -97.654274 30.048317  -0.125654 -0.225184 0.966180  0.275399 0.726554 1 0 1.000000
doorline
0  -34.981125 -97.632256 29.982252  -0.131880 -0.224745 0.965452  0.476577 0.724601 1 0 1.000000
0  -34.463619 -97.654274 30.048317  -0.125654 -0.225184 0.966180  0.275399 0.726554 1 0 1.000000
0  -35.487617 -90.486282 31.281519  -0.137739 -0.186916 0.972672  0.476577 0.650380 1 0 1.000000
doorline
0  -34.981125 -90.508308 31.347584  -0.145034 -0.187504 0.971498  0.275399 0.652333 1 0 1.000000
0  -35.487617 -90.486282 31.281519  -0.137739 -0.186916 0.972672  0.476577 0.650380 1 0 1.000000
0  -34.463619 -97.654274 30.048317  -0.125654 -0.225184 0.966180  0.275399 0.726554 1 0 1.000000
doorline
0  -35.487617 -90.486282 31.281519  -0.137739 -0.186916 0.972672  0.476577 0.650380 1 0 1.000000
0  -34.981125 -90.508308 31.347584  -0.145034 -0.187504 0.971498  0.275399 0.652333 1 0 1.000000
0  -36.060177 -82.635628 32.701908  -0.150452 -0.170312 0.973837  0.476577 0.570299 1 0 1.000000
doorline
0  -35.542671 -82.657646 32.778984  -0.152163 -0.171081 0.973436  0.275399 0.570299 1 0 1.000000
0  -36.060177 -82.635628 32.701908  -0.150452 -0.170312 0.973837  0.476577 0.570299 1 0 1.000000
0  -34.981125 -90.508308 31.347584  -0.145034 -0.187504 0.971498  0.275399 0.652333 1 0 1.000000
doorline
0  -35.542671 -82.657646 32.778984  -0.152163 -0.171081 0.973436  0.275399 0.570299 1 0 1.000000
0  -35.806931 -74.983154 33.946255  -0.154332 -0.145492 0.977248  0.275399 0.490219 1 0 1.000000
0  -36.060177 -82.635628 32.701908  -0.150452 -0.170312 0.973837  0.476577 0.570299 1 0 1.000000
doorline
0  -36.324436 -74.950127 33.869179  -0.156937 -0.137874 0.977937  0.476577 0.490219 1 0 1.000000
0  -36.060177 -82.635628 32.701908  -0.150452 -0.170312 0.973837  0.476577 0.570299 1 0 1.000000
0  -35.806931 -74.983154 33.946255  -0.154332 -0.145492 0.977248  0.275399 0.490219 1 0 1.000000
doorline
0  -35.806931 -74.983154 33.946255  -0.154332 -0.145492 0.977248  0.275399 0.490219 1 0 1.000000
0  -36.071190 -67.539894 34.893181  -0.157769 -0.123673 0.979701  0.275399 0.412091 1 0 1.000000
0  -36.324436 -74.950127 33.869179  -0.156937 -0.137874 0.977937  0.476577 0.490219 1 0 1.000000
doorline
0  -36.577682 -67.506866 34.816105  -0.164708 -0.116699 0.979414  0.476577 0.412091 1 0 1.000000
0  -36.324436 -74.950127 33.869179  -0.156937 -0.137874 0.977937  0.476577 0.490219 1 0 1.000000
0  -36.071190 -67.539894 34.893181  -0.157769 -0.123673 0.979701  0.275399 0.412091 1 0 1.000000
doorline
0  -36.071190 -67.539894 34.893181  -0.157769 -0.123673 0.979701  0.275399 0.412091 1 0 1.000000
0  -36.082199 -60.548077 35.685951  -0.170264 -0.110142 0.979224  0.275399 0.339824 1 0 1.000000
0  -36.577682 -67.506866 34.816105  -0.164708 -0.116699 0.979414  0.476577 0.412091 1 0 1.000000
doorline
0  -36.588692 -60.515045 35.597866  -0.181827 -0.109516 0.977213  0.476577 0.339824 1 0 1.000000
0  -36.577682 -67.506866 34.816105  -0.164708 -0.116699 0.979414  0.476577 0.412091 1 0 1.000000
0  -36.082199 -60.548077 35.685951  -0.170264 -0.110142 0.979224  0.275399 0.339824 1 0 1.000000
doorline
0  -36.082199 -60.548077 35.685951  -0.170264 -0.110142 0.979224  0.275399 0.339824 1 0 1.000000
0  -36.104221 -53.369076 36.489738  -0.193972 -0.123933 0.973147  0.275399 0.265603 1 0 1.000000
0  -36.588692 -60.515045 35.597866  -0.181827 -0.109516 0.977213  0.476577 0.339824 1 0 1.000000
doorline
0  -36.610714 -53.325031 36.390640  -0.194829 -0.123423 0.973041  0.476577 0.265603 1 0 1.000000
0  -36.588692 -60.515045 35.597866  -0.181827 -0.109516 0.977213  0.476577 0.339824 1 0 1.000000
0  -36.104221 -53.369076 36.489738  -0.193972 -0.123933 0.973147  0.275399 0.265603 1 0 1.000000
doorline
0  -36.610714 -53.325031 36.390640  -0.194829 -0.123423 0.973041  0.476577 0.265603 1 0 1.000000
0  -36.104221 -53.369076 36.489738  -0.193972 -0.123933 0.973147  0.275399 0.265603 1 0 1.000000
0  -36.621727 -44.538456 37.645866  -0.202949 -0.138189 0.969389  0.476577 0.173803 1 0 1.000000
doorline
0  -36.060177 -44.956863 37.700920  -0.210311 -0.138400 0.967788  0.275399 0.177709 1 0 1.000000
0  -36.621727 -44.538456 37.645866  -0.202949 -0.138189 0.969389  0.476577 0.173803 1 0 1.000000
0  -36.104221 -53.369076 36.489738  -0.193972 -0.123933 0.973147  0.275399 0.265603 1 0 1.000000
doorline
0  33.714901 -104.425880 28.253561  0.117012 -0.267113 0.956535  0.476577 0.177709 1 0 1.000000
0  33.758942 -103.974442 28.374680  0.120032 -0.279488 0.952617  0.275399 0.177709 1 0 1.000000
0  27.504839 -105.604034 28.682980  0.111777 -0.282663 0.952684  0.476577 0.298807 1 0 1.000000
doorline
0  27.570904 -105.152596 28.815109  0.106608 -0.298099 0.948563  0.275399 0.296854 1 0 1.000000
0  27.504839 -105.604034 28.682980  0.111777 -0.282663 0.952684  0.476577 0.298807 1 0 1.000000
0  33.758942 -103.974442 28.374680  0.120032 -0.279488 0.952617  0.275399 0.177709 1 0 1.000000
doorline
0  27.504839 -105.604034 28.682980  0.111777 -0.282663 0.952684  0.476577 0.298807 1 0 1.000000
0  27.570904 -105.152596 28.815109  0.106608 -0.298099 0.948563  0.275399 0.296854 1 0 1.000000
0  21.184675 -106.793198 28.958248  0.098743 -0.305208 0.947153  0.476577 0.421857 1 0 1.000000
doorline
0  21.272760 -106.352768 29.090378  0.100853 -0.313655 0.944166  0.275399 0.419904 1 0 1.000000
0  21.184675 -106.793198 28.958248  0.098743 -0.305208 0.947153  0.476577 0.421857 1 0 1.000000
0  27.570904 -105.152596 28.815109  0.106608 -0.298099 0.948563  0.275399 0.296854 1 0 1.000000
doorline
0  21.184675 -106.793198 28.958248  0.098743 -0.305208 0.947153  0.476577 0.421857 1 0 1.000000
0  21.272760 -106.352768 29.090378  0.100853 -0.313655 0.944166  0.275399 0.419904 1 0 1.000000
0  20.942438 -106.848251 28.958248  0.191369 -0.326752 0.925533  0.476577 0.425764 1 0 1.000000
doorline
0  21.030523 -106.396805 29.101389  0.280051 -0.336433 0.899102  0.275399 0.423811 1 0 1.000000
0  20.942438 -106.848251 28.958248  0.191369 -0.326752 0.925533  0.476577 0.425764 1 0 1.000000
0  21.272760 -106.352768 29.090378  0.100853 -0.313655 0.944166  0.275399 0.419904 1 0 1.000000
doorline
0  20.942438 -106.848251 28.958248  0.191369 -0.326752 0.925533  0.476577 0.425764 1 0 1.000000
0  21.030523 -106.396805 29.101389  0.280051 -0.336433 0.899102  0.275399 0.423811 1 0 1.000000
0  20.755255 -106.881279 29.024313  0.366372 -0.342920 0.864973  0.476577 0.429670 1 0 1.000000
doorline
0  20.854353 -106.440849 29.167454  0.364777 -0.338777 0.867276  0.275399 0.427717 1 0 1.000000
0  20.755255 -106.881279 29.024313  0.366372 -0.342920 0.864973  0.476577 0.429670 1 0 1.000000
0  21.030523 -106.396805 29.101389  0.280051 -0.336433 0.899102  0.275399 0.423811 1 0 1.000000
doorline
0  20.755255 -106.881279 29.024313  0.366372 -0.342920 0.864973  0.476577 0.429670 1 0 1.000000
0  20.854353 -106.440849 29.167454  0.364777 -0.338777 0.867276  0.275399 0.427717 1 0 1.000000
0  19.687214 -107.090485 29.398678  0.366148 -0.335748 0.867876  0.476577 0.451155 1 0 1.000000
doorline
0  19.775299 -106.650055 29.530807  0.364337 -0.331065 0.870433  0.275399 0.449202 1 0 1.000000
0  19.687214 -107.090485 29.398678  0.366148 -0.335748 0.867876  0.476577 0.451155 1 0 1.000000
0  20.854353 -106.440849 29.167454  0.364777 -0.338777 0.867276  0.275399 0.427717 1 0 1.000000
doorline
0  19.687214 -107.090485 29.398678  0.366148 -0.335748 0.867876  0.476577 0.451155 1 0 1.000000
0  19.775299 -106.650055 29.530807  0.364337 -0.331065 0.870433  0.275399 0.449202 1 0 1.000000
0  19.466999 -107.134529 29.475754  0.289758 -0.325220 0.900151  0.476577 0.455061 1 0 1.000000
doorline
0  19.544073 -106.694099 29.607883  0.211215 -0.317008 0.924605  0.275399 0.453108 1 0 1.000000
0  19.466999 -107.134529 29.475754  0.289758 -0.325220 0.900151  0.476577 0.455061 1 0 1.000000
0  19.775299 -106.650055 29.530807  0.364337 -0.331065 0.870433  0.275399 0.449202 1 0 1.000000
doorline
0  19.466999 -107.134529 29.475754  0.289758 -0.325220 0.900151  0.476577 0.455061 1 0 1.000000
0  19.544073 -106.694099 29.607883  0.211215 -0.317008 0.924605  0.275399 0.453108 1 0 1.000000
0  19.191730 -107.156548 29.508785  0.122802 -0.304297 0.944629  0.476577 0.460921 1 0 1.000000
doorline
0  19.268805 -106.727127 29.640915  0.122685 -0.306132 0.944051  0.275399 0.458968 1 0 1.000000
0  19.191730 -107.156548 29.508785  0.122802 -0.304297 0.944629  0.476577 0.460921 1 0 1.000000
0  19.544073 -106.694099 29.607883  0.211215 -0.317008 0.924605  0.275399 0.453108 1 0 1.000000
doorline
0  19.268805 -106.727127 29.640915  0.122685 -0.306132 0.944051  0.275399 0.458968 1 0 1.000000
0  9.204987 -107.508896 30.576830  0.077946 -0.297334 0.951586  0.275399 0.654286 1 0 1.000000
0  19.191730 -107.156548 29.508785  0.122802 -0.304297 0.944629  0.476577 0.460921 1 0 1.000000
doorline
0  9.182965 -107.938309 30.444700  0.077988 -0.296660 0.951793  0.476577 0.654286 1 0 1.000000
0  19.191730 -107.156548 29.508785  0.122802 -0.304297 0.944629  0.476577 0.460921 1 0 1.000000
0  9.204987 -107.508896 30.576830  0.077946 -0.297334 0.951586  0.275399 0.654286 1 0 1.000000
doorline
0  9.182965 -107.938309 30.444700  0.077988 -0.296660 0.951793  0.476577 0.654286 1 0 1.000000
0  9.204987 -107.508896 30.576830  0.077946 -0.297334 0.951586  0.275399 0.654286 1 0 1.000000
0  0.000006 -108.334702 30.741991  -0.000000 -0.294154 0.955758  0.476577 0.833979 1 0 1.000000
doorline
0  0.000006 -107.905281 30.874121  0.000000 -0.291289 0.956635  0.275399 0.833979 1 0 1.000000
0  0.000006 -108.334702 30.741991  -0.000000 -0.294154 0.955758  0.476577 0.833979 1 0 1.000000
0  9.204987 -107.508896 30.576830  0.077946 -0.297334 0.951586  0.275399 0.654286 1 0 1.000000
doorline
0  0.000006 -107.905281 30.874121  0.000000 -0.291289 0.956635  0.275399 0.833979 1 0 1.000000
0  -9.204975 -107.508896 30.576830  -0.078283 -0.297286 0.951574  0.275399 0.654286 1 0 1.000000
0  0.000006 -108.334702 30.741991  -0.000000 -0.294154 0.955758  0.476577 0.833979 1 0 1.000000
doorline
0  -9.182954 -107.938309 30.444700  -0.077987 -0.296648 0.951797  0.476577 0.654286 1 0 1.000000
0  0.000006 -108.334702 30.741991  -0.000000 -0.294154 0.955758  0.476577 0.833979 1 0 1.000000
0  -9.204975 -107.508896 30.576830  -0.078283 -0.297286 0.951574  0.275399 0.654286 1 0 1.000000
doorline
0  -9.182954 -107.938309 30.444700  -0.077987 -0.296648 0.951797  0.476577 0.654286 1 0 1.000000
0  -9.204975 -107.508896 30.576830  -0.078283 -0.297286 0.951574  0.275399 0.654286 1 0 1.000000
0  -19.191719 -107.156548 29.508789  -0.122798 -0.304296 0.944629  0.476577 0.460921 1 0 1.000000
doorline
0  -19.268795 -106.727127 29.640919  -0.122686 -0.306130 0.944051  0.275399 0.458968 1 0 1.000000
0  -19.191719 -107.156548 29.508789  -0.122798 -0.304296 0.944629  0.476577 0.460921 1 0 1.000000
0  -9.204975 -107.508896 30.576830  -0.078283 -0.297286 0.951574  0.275399 0.654286 1 0 1.000000
doorline
0  -19.268795 -106.727127 29.640919  -0.122686 -0.306130 0.944051  0.275399 0.458968 1 0 1.000000
0  -19.544064 -106.694099 29.607887  -0.211214 -0.317000 0.924608  0.275399 0.453108 1 0 1.000000
0  -19.191719 -107.156548 29.508789  -0.122798 -0.304296 0.944629  0.476577 0.460921 1 0 1.000000
doorline
0  -19.466988 -107.134529 29.475758  -0.289745 -0.325221 0.900155  0.476577 0.455061 1 0 1.000000
0  -19.191719 -107.156548 29.508789  -0.122798 -0.304296 0.944629  0.476577 0.460921 1 0 1.000000
0  -19.544064 -106.694099 29.607887  -0.211214 -0.317000 0.924608  0.275399 0.453108 1 0 1.000000
doorline
0  -19.544064 -106.694099 29.607887  -0.211214 -0.317000 0.924608  0.275399 0.453108 1 0 1.000000
0  -19.775288 -106.650055 29.530811  -0.364339 -0.331064 0.870433  0.275399 0.449202 1 0 1.000000
0  -19.466988 -107.134529 29.475758  -0.289745 -0.325221 0.900155  0.476577 0.455061 1 0 1.000000
doorline
0  -19.687202 -107.090485 29.398682  -0.365958 -0.335319 0.868122  0.476577 0.451155 1 0 1.000000
0  -19.466988 -107.134529 29.475758  -0.289745 -0.325221 0.900155  0.476577 0.455061 1 0 1.000000
0  -19.775288 -106.650055 29.530811  -0.364339 -0.331064 0.870433  0.275399 0.449202 1 0 1.000000
doorline
0  -19.775288 -106.650055 29.530811  -0.364339 -0.331064 0.870433  0.275399 0.449202 1 0 1.000000
0  -20.854342 -106.440849 29.167458  -0.364776 -0.338776 0.867277  0.275399 0.427717 1 0 1.000000
0  -19.687202 -107.090485 29.398682  -0.365958 -0.335319 0.868122  0.476577 0.451155 1 0 1.000000
doorline
0  -20.755245 -106.881279 29.024317  -0.366353 -0.342884 0.864995  0.476577 0.429670 1 0 1.000000
0  -19.687202 -107.090485 29.398682  -0.365958 -0.335319 0.868122  0.476577 0.451155 1 0 1.000000
0  -20.854342 -106.440849 29.167458  -0.364776 -0.338776 0.867277  0.275399 0.427717 1 0 1.000000
doorline
0  -20.854342 -106.440849 29.167458  -0.364776 -0.338776 0.867277  0.275399 0.427717 1 0 1.000000
0  -21.030514 -106.396805 29.101393  -0.280052 -0.336433 0.899101  0.275399 0.423811 1 0 1.000000
0  -20.755245 -106.881279 29.024317  -0.366353 -0.342884 0.864995  0.476577 0.429670 1 0 1.000000
doorline
0  -20.942427 -106.848251 28.958252  -0.191377 -0.326760 0.925528  0.476577 0.425764 1 0 1.000000
0  -20.755245 -106.881279 29.024317  -0.366353 -0.342884 0.864995  0.476577 0.429670 1 0 1.000000
0  -21.030514 -106.396805 29.101393  -0.280052 -0.336433 0.899101  0.275399 0.423811 1 0 1.000000
doorline
0  -21.030514 -106.396805 29.101393  -0.280052 -0.336433 0.899101  0.275399 0.423811 1 0 1.000000
0  -21.272749 -106.352768 29.090382  -0.100848 -0.313647 0.944169  0.275399 0.419904 1 0 1.000000
0  -20.942427 -106.848251 28.958252  -0.191377 -0.326760 0.925528  0.476577 0.425764 1 0 1.000000
doorline
0  -21.184664 -106.793198 28.958252  -0.098741 -0.305203 0.947154  0.476577 0.421857 1 0 1.000000
0  -20.942427 -106.848251 28.958252  -0.191377 -0.326760 0.925528  0.476577 0.425764 1 0 1.000000
0  -21.272749 -106.352768 29.090382  -0.100848 -0.313647 0.944169  0.275399 0.419904 1 0 1.000000
doorline
0  -21.272749 -106.352768 29.090382  -0.100848 -0.313647 0.944169  0.275399 0.419904 1 0 1.000000
0  -27.570896 -105.152596 28.815113  -0.106613 -0.298105 0.948561  0.275399 0.296854 1 0 1.000000
0  -21.184664 -106.793198 28.958252  -0.098741 -0.305203 0.947154  0.476577 0.421857 1 0 1.000000
doorline
0  -27.504831 -105.604034 28.682983  -0.111781 -0.282667 0.952683  0.476577 0.298807 1 0 1.000000
0  -21.184664 -106.793198 28.958252  -0.098741 -0.305203 0.947154  0.476577 0.421857 1 0 1.000000
0  -27.570896 -105.152596 28.815113  -0.106613 -0.298105 0.948561  0.275399 0.296854 1 0 1.000000
doorline
0  -27.570896 -105.152596 28.815113  -0.106613 -0.298105 0.948561  0.275399 0.296854 1 0 1.000000
0  -33.758930 -103.974442 28.374683  -0.120027 -0.279478 0.952620  0.275399 0.177709 1 0 1.000000
0  -27.504831 -105.604034 28.682983  -0.111781 -0.282667 0.952683  0.476577 0.298807 1 0 1.000000
doorline
0  -33.714890 -104.425880 28.253565  -0.117010 -0.267056 0.956551  0.476577 0.177709 1 0 1.000000
0  -27.504831 -105.604034 28.682983  -0.111781 -0.282667 0.952683  0.476577 0.298807 1 0 1.000000
0  -33.758930 -103.974442 28.374683  -0.120027 -0.279478 0.952620  0.275399 0.177709 1 0 1.000000
doorline
0  33.736923 -104.249710 28.308615  0.118465 -0.416071 0.901583  0.275399 0.794916 1 0 1.000000
0  34.298470 -104.051521 28.308615  0.136234 -0.339390 0.930728  0.476577 0.792962 1 0 1.000000
0  34.463631 -97.654274 30.048313  0.125617 -0.225166 0.966189  0.275399 0.726554 1 0 1.000000
doorline
0  34.981136 -97.632256 29.982248  0.131853 -0.224832 0.965435  0.476577 0.724601 1 0 1.000000
0  34.463631 -97.654274 30.048313  0.125617 -0.225166 0.966189  0.275399 0.726554 1 0 1.000000
0  34.298470 -104.051521 28.308615  0.136234 -0.339390 0.930728  0.476577 0.792962 1 0 1.000000
doorline
0  34.981136 -97.632256 29.982248  0.131853 -0.224832 0.965435  0.476577 0.724601 1 0 1.000000
0  35.487629 -90.486282 31.281515  0.137835 -0.186941 0.972653  0.476577 0.650380 1 0 1.000000
0  34.463631 -97.654274 30.048313  0.125617 -0.225166 0.966189  0.275399 0.726554 1 0 1.000000
doorline
0  34.981136 -90.508308 31.347580  0.145036 -0.187508 0.971497  0.275399 0.652333 1 0 1.000000
0  34.463631 -97.654274 30.048313  0.125617 -0.225166 0.966189  0.275399 0.726554 1 0 1.000000
0  35.487629 -90.486282 31.281515  0.137835 -0.186941 0.972653  0.476577 0.650380 1 0 1.000000
doorline
0  35.487629 -90.486282 31.281515  0.137835 -0.186941 0.972653  0.476577 0.650380 1 0 1.000000
0  36.060188 -82.635628 32.701900  0.150489 -0.170300 0.973833  0.476577 0.570299 1 0 1.000000
0  34.981136 -90.508308 31.347580  0.145036 -0.187508 0.971497  0.275399 0.652333 1 0 1.000000
doorline
0  35.542683 -82.657646 32.778976  0.152256 -0.171539 0.973341  0.275399 0.570299 1 0 1.000000
0  34.981136 -90.508308 31.347580  0.145036 -0.187508 0.971497  0.275399 0.652333 1 0 1.000000
0  36.060188 -82.635628 32.701900  0.150489 -0.170300 0.973833  0.476577 0.570299 1 0 1.000000
doorline
0  35.542683 -82.657646 32.778976  0.152256 -0.171539 0.973341  0.275399 0.570299 1 0 1.000000
0  36.060188 -82.635628 32.701900  0.150489 -0.170300 0.973833  0.476577 0.570299 1 0 1.000000
0  35.806942 -74.983154 33.946247  0.154347 -0.145398 0.977260  0.275399 0.490219 1 0 1.000000
doorline
0  36.324444 -74.950127 33.869171  0.156888 -0.137955 0.977934  0.476577 0.490219 1 0 1.000000
0  35.806942 -74.983154 33.946247  0.154347 -0.145398 0.977260  0.275399 0.490219 1 0 1.000000
0  36.060188 -82.635628 32.701900  0.150489 -0.170300 0.973833  0.476577 0.570299 1 0 1.000000
doorline
0  35.806942 -74.983154 33.946247  0.154347 -0.145398 0.977260  0.275399 0.490219 1 0 1.000000
0  36.324444 -74.950127 33.869171  0.156888 -0.137955 0.977934  0.476577 0.490219 1 0 1.000000
0  36.071198 -67.539894 34.893173  0.157796 -0.123764 0.979685  0.275399 0.412091 1 0 1.000000
doorline
0  36.577694 -67.506866 34.816097  0.164706 -0.116699 0.979415  0.476577 0.412091 1 0 1.000000
0  36.071198 -67.539894 34.893173  0.157796 -0.123764 0.979685  0.275399 0.412091 1 0 1.000000
0  36.324444 -74.950127 33.869171  0.156888 -0.137955 0.977934  0.476577 0.490219 1 0 1.000000
doorline
0  36.071198 -67.539894 34.893173  0.157796 -0.123764 0.979685  0.275399 0.412091 1 0 1.000000
0  36.577694 -67.506866 34.816097  0.164706 -0.116699 0.979415  0.476577 0.412091 1 0 1.000000
0  36.082211 -60.548069 35.685944  0.170264 -0.110141 0.979224  0.275399 0.339824 1 0 1.000000
doorline
0  36.588703 -60.515038 35.597858  0.181969 -0.109503 0.977188  0.476577 0.339824 1 0 1.000000
0  36.082211 -60.548069 35.685944  0.170264 -0.110141 0.979224  0.275399 0.339824 1 0 1.000000
0  36.577694 -67.506866 34.816097  0.164706 -0.116699 0.979415  0.476577 0.412091 1 0 1.000000
doorline
0  36.082211 -60.548069 35.685944  0.170264 -0.110141 0.979224  0.275399 0.339824 1 0 1.000000
0  36.588703 -60.515038 35.597858  0.181969 -0.109503 0.977188  0.476577 0.339824 1 0 1.000000
0  36.104229 -53.369068 36.489731  0.193971 -0.123936 0.973147  0.275399 0.265603 1 0 1.000000
doorline
0  36.610725 -53.325024 36.390633  0.194781 -0.123419 0.973051  0.476577 0.265603 1 0 1.000000
0  36.104229 -53.369068 36.489731  0.193971 -0.123936 0.973147  0.275399 0.265603 1 0 1.000000
0  36.588703 -60.515038 35.597858  0.181969 -0.109503 0.977188  0.476577 0.339824 1 0 1.000000
doorline
0  36.610725 -53.325024 36.390633  0.194781 -0.123419 0.973051  0.476577 0.265603 1 0 1.000000
0  36.621735 -44.538452 37.645859  0.202903 -0.138194 0.969398  0.476577 0.173803 1 0 1.000000
0  36.104229 -53.369068 36.489731  0.193971 -0.123936 0.973147  0.275399 0.265603 1 0 1.000000
doorline
0  36.060188 -44.956863 37.700912  0.210313 -0.138401 0.967788  0.275399 0.177709 1 0 1.000000
0  36.104229 -53.369068 36.489731  0.193971 -0.123936 0.973147  0.275399 0.265603 1 0 1.000000
0  36.621735 -44.538452 37.645859  0.202903 -0.138194 0.969398  0.476577 0.173803 1 0 1.000000
skin_0
0  20.986481 -106.672073 28.958248  0.205642 -0.317997 0.925521  0.327698 0.640969 1 0 1.000000
0  22.748199 -98.590187 31.336569  0.255258 -0.274085 0.927212  0.336852 0.682965 1 0 1.000000
0  20.777277 -106.705109 29.024313  0.354149 -0.333977 0.873520  0.326611 0.640797 1 0 1.000000
skin_0
0  33.869049 -104.183647 28.231541  0.115909 -0.263041 0.957797  0.394639 0.653899 1 0 1.000000
0  34.584747 -97.643265 29.949215  0.135510 -0.250074 0.958697  0.398358 0.687885 1 0 1.000000
0  27.537872 -105.405838 28.660959  0.119946 -0.278704 0.952857  0.361741 0.647548 1 0 1.000000
skin_0
0  28.782085 -98.105721 30.708958  0.132050 -0.248458 0.959600  0.368206 0.685482 1 0 1.000000
0  27.537872 -105.405838 28.660959  0.119946 -0.278704 0.952857  0.361741 0.647548 1 0 1.000000
0  34.584747 -97.643265 29.949215  0.135510 -0.250074 0.958697  0.398358 0.687885 1 0 1.000000
skin_0
0  27.537872 -105.405838 28.660959  0.119946 -0.278704 0.952857  0.361741 0.647548 1 0 1.000000
0  28.782085 -98.105721 30.708958  0.132050 -0.248458 0.959600  0.368206 0.685482 1 0 1.000000
0  21.195684 -106.628036 28.947239  0.110594 -0.297323 0.948350  0.328785 0.641197 1 0 1.000000
skin_0
0  22.968414 -98.579178 31.314548  0.125649 -0.259869 0.957434  0.337996 0.683022 1 0 1.000000
0  21.195684 -106.628036 28.947239  0.110594 -0.297323 0.948350  0.328785 0.641197 1 0 1.000000
0  28.782085 -98.105721 30.708958  0.132050 -0.248458 0.959600  0.368206 0.685482 1 0 1.000000
skin_0
0  21.195684 -106.628036 28.947239  0.110594 -0.297323 0.948350  0.328785 0.641197 1 0 1.000000
0  22.968414 -98.579178 31.314548  0.125649 -0.259869 0.957434  0.337996 0.683022 1 0 1.000000
0  20.986481 -106.672073 28.958248  0.205642 -0.317997 0.925521  0.327698 0.640969 1 0 1.000000
skin_0
0  22.748199 -98.590187 31.336569  0.255258 -0.274085 0.927212  0.336852 0.682965 1 0 1.000000
0  20.986481 -106.672073 28.958248  0.205642 -0.317997 0.925521  0.327698 0.640969 1 0 1.000000
0  22.968414 -98.579178 31.314548  0.125649 -0.259869 0.957434  0.337996 0.683022 1 0 1.000000
skin_0
0  22.968414 -98.579178 31.314548  0.125649 -0.259869 0.957434  0.337996 0.683022 1 0 1.000000
0  24.366781 -91.444221 32.734936  0.139652 -0.208369 0.968029  0.345263 0.720097 1 0 1.000000
0  22.748199 -98.590187 31.336569  0.255258 -0.274085 0.927212  0.336852 0.682965 1 0 1.000000
skin_0
0  24.113533 -91.466240 32.767967  0.236875 -0.220543 0.946177  0.343947 0.719983 1 0 1.000000
0  22.748199 -98.590187 31.336569  0.255258 -0.274085 0.927212  0.336852 0.682965 1 0 1.000000
0  24.366781 -91.444221 32.734936  0.139652 -0.208369 0.968029  0.345263 0.720097 1 0 1.000000
skin_0
0  24.366781 -91.444221 32.734936  0.139652 -0.208369 0.968029  0.345263 0.720097 1 0 1.000000
0  25.798178 -83.626595 34.133430  0.152001 -0.182441 0.971396  0.352701 0.760720 1 0 1.000000
0  24.113533 -91.466240 32.767967  0.236875 -0.220543 0.946177  0.343947 0.719983 1 0 1.000000
skin_0
0  25.544930 -83.648613 34.177475  0.223228 -0.188945 0.956279  0.351385 0.760606 1 0 1.000000
0  24.113533 -91.466240 32.767967  0.236875 -0.220543 0.946177  0.343947 0.719983 1 0 1.000000
0  25.798178 -83.626595 34.133430  0.152001 -0.182441 0.971396  0.352701 0.760720 1 0 1.000000
skin_0
0  25.798178 -83.626595 34.133430  0.152001 -0.182441 0.971396  0.352701 0.760720 1 0 1.000000
0  27.075422 -75.853004 35.245514  0.155045 -0.145692 0.977105  0.359338 0.801114 1 0 1.000000
0  25.544930 -83.648613 34.177475  0.223228 -0.188945 0.956279  0.351385 0.760606 1 0 1.000000
skin_0
0  27.075422 -75.853004 35.245514  0.155045 -0.145692 0.977105  0.359338 0.801114 1 0 1.000000
0  25.798178 -83.626595 34.133430  0.152001 -0.182441 0.971396  0.352701 0.760720 1 0 1.000000
0  31.534773 -75.423592 34.639923  0.163557 -0.144241 0.975932  0.382510 0.803345 1 0 1.000000
skin_0
0  31.534773 -75.423592 34.639923  0.163557 -0.144241 0.975932  0.382510 0.803345 1 0 1.000000
0  32.261482 -67.892242 35.487751  0.166773 -0.123082 0.978283  0.386286 0.842480 1 0 1.000000
0  27.075422 -75.853004 35.245514  0.155045 -0.145692 0.977105  0.359338 0.801114 1 0 1.000000
skin_0
0  32.261482 -67.892242 35.487751  0.166773 -0.123082 0.978283  0.386286 0.842480 1 0 1.000000
0  31.534773 -75.423592 34.639923  0.163557 -0.144241 0.975932  0.382510 0.803345 1 0 1.000000
0  36.247372 -67.517876 34.783066  0.182073 -0.123207 0.975535  0.406998 0.844426 1 0 1.000000
skin_0
0  36.247372 -67.517876 34.783066  0.182073 -0.123207 0.975535  0.406998 0.844426 1 0 1.000000
0  36.258381 -60.526051 35.619881  0.189301 -0.116322 0.975005  0.407055 0.880757 1 0 1.000000
0  32.261482 -67.892242 35.487751  0.166773 -0.123082 0.978283  0.386286 0.842480 1 0 1.000000
skin_0
0  34.584747 -97.643265 29.949215  0.135510 -0.250074 0.958697  0.398358 0.687885 1 0 1.000000
0  35.157307 -90.486282 31.314548  0.153041 -0.195432 0.968702  0.401334 0.725075 1 0 1.000000
0  28.782085 -98.105721 30.708958  0.132050 -0.248458 0.959600  0.368206 0.685482 1 0 1.000000
skin_0
0  29.773056 -90.959747 32.096310  0.145397 -0.198825 0.969190  0.373355 0.722615 1 0 1.000000
0  28.782085 -98.105721 30.708958  0.132050 -0.248458 0.959600  0.368206 0.685482 1 0 1.000000
0  35.157307 -90.486282 31.314548  0.153041 -0.195432 0.968702  0.401334 0.725075 1 0 1.000000
skin_0
0  28.782085 -98.105721 30.708958  0.132050 -0.248458 0.959600  0.368206 0.685482 1 0 1.000000
0  29.773056 -90.959747 32.096310  0.145397 -0.198825 0.969190  0.373355 0.722615 1 0 1.000000
0  22.968414 -98.579178 31.314548  0.125649 -0.259869 0.957434  0.337996 0.683022 1 0 1.000000
skin_0
0  24.366781 -91.444221 32.734936  0.139652 -0.208369 0.968029  0.345263 0.720097 1 0 1.000000
0  22.968414 -98.579178 31.314548  0.125649 -0.259869 0.957434  0.337996 0.683022 1 0 1.000000
0  29.773056 -90.959747 32.096310  0.145397 -0.198825 0.969190  0.373355 0.722615 1 0 1.000000
skin_0
0  29.773056 -90.959747 32.096310  0.145397 -0.198825 0.969190  0.373355 0.722615 1 0 1.000000
0  30.730989 -83.142120 33.483662  0.159987 -0.177750 0.970984  0.378333 0.763237 1 0 1.000000
0  24.366781 -91.444221 32.734936  0.139652 -0.208369 0.968029  0.345263 0.720097 1 0 1.000000
skin_0
0  25.798178 -83.626595 34.133430  0.152001 -0.182441 0.971396  0.352701 0.760720 1 0 1.000000
0  24.366781 -91.444221 32.734936  0.139652 -0.208369 0.968029  0.345263 0.720097 1 0 1.000000
0  30.730989 -83.142120 33.483662  0.159987 -0.177750 0.970984  0.378333 0.763237 1 0 1.000000
skin_0
0  30.730989 -83.142120 33.483662  0.159987 -0.177750 0.970984  0.378333 0.763237 1 0 1.000000
0  31.534773 -75.423592 34.639923  0.163557 -0.144241 0.975932  0.382510 0.803345 1 0 1.000000
0  25.798178 -83.626595 34.133430  0.152001 -0.182441 0.971396  0.352701 0.760720 1 0 1.000000
skin_0
0  31.534773 -75.423592 34.639923  0.163557 -0.144241 0.975932  0.382510 0.803345 1 0 1.000000
0  30.730989 -83.142120 33.483662  0.159987 -0.177750 0.970984  0.378333 0.763237 1 0 1.000000
0  35.983112 -74.994171 33.880184  0.177705 -0.149208 0.972706  0.405625 0.805577 1 0 1.000000
skin_0
0  35.983112 -74.994171 33.880184  0.177705 -0.149208 0.972706  0.405625 0.805577 1 0 1.000000
0  36.247372 -67.517876 34.783066  0.182073 -0.123207 0.975535  0.406998 0.844426 1 0 1.000000
0  31.534773 -75.423592 34.639923  0.163557 -0.144241 0.975932  0.382510 0.803345 1 0 1.000000
skin_0
0  35.157307 -90.486282 31.314548  0.153041 -0.195432 0.968702  0.401334 0.725075 1 0 1.000000
0  35.652790 -82.657646 32.679878  0.169369 -0.176984 0.969531  0.403908 0.765755 1 0 1.000000
0  29.773056 -90.959747 32.096310  0.145397 -0.198825 0.969190  0.373355 0.722615 1 0 1.000000
skin_0
0  30.730989 -83.142120 33.483662  0.159987 -0.177750 0.970984  0.378333 0.763237 1 0 1.000000
0  29.773056 -90.959747 32.096310  0.145397 -0.198825 0.969190  0.373355 0.722615 1 0 1.000000
0  35.652790 -82.657646 32.679878  0.169369 -0.176984 0.969531  0.403908 0.765755 1 0 1.000000
skin_0
0  35.652790 -82.657646 32.679878  0.169369 -0.176984 0.969531  0.403908 0.765755 1 0 1.000000
0  35.983112 -74.994171 33.880184  0.177705 -0.149208 0.972706  0.405625 0.805577 1 0 1.000000
0  30.730989 -83.142120 33.483662  0.159987 -0.177750 0.970984  0.378333 0.763237 1 0 1.000000
skin_0
0  27.075422 -75.853004 35.245514  0.155045 -0.145692 0.977105  0.359338 0.801114 1 0 1.000000
0  28.264582 -68.266602 36.038288  0.160052 -0.125863 0.979051  0.365517 0.840535 1 0 1.000000
0  26.822174 -75.875031 35.278549  0.222265 -0.154725 0.962631  0.358022 0.800999 1 0 1.000000
skin_0
0  28.264582 -68.266602 36.038288  0.160052 -0.125863 0.979051  0.365517 0.840535 1 0 1.000000
0  27.075422 -75.853004 35.245514  0.155045 -0.145692 0.977105  0.359338 0.801114 1 0 1.000000
0  32.261482 -67.892242 35.487751  0.166773 -0.123082 0.978283  0.386286 0.842480 1 0 1.000000
skin_0
0  32.261482 -67.892242 35.487751  0.166773 -0.123082 0.978283  0.386286 0.842480 1 0 1.000000
0  32.900105 -60.999512 36.225471  0.174030 -0.116877 0.977780  0.389604 0.878297 1 0 1.000000
0  28.264582 -68.266602 36.038288  0.160052 -0.125863 0.979051  0.365517 0.840535 1 0 1.000000
skin_0
0  32.900105 -60.999512 36.225471  0.174030 -0.116877 0.977780  0.389604 0.878297 1 0 1.000000
0  32.261482 -67.892242 35.487751  0.166773 -0.123082 0.978283  0.386286 0.842480 1 0 1.000000
0  36.258381 -60.526051 35.619881  0.189301 -0.116322 0.975005  0.407055 0.880757 1 0 1.000000
skin_0
0  36.258381 -60.526051 35.619881  0.189301 -0.116322 0.975005  0.407055 0.880757 1 0 1.000000
0  36.280403 -53.347046 36.423664  0.198974 -0.118151 0.972856  0.407169 0.918062 1 0 1.000000
0  32.900105 -60.999512 36.225471  0.174030 -0.116877 0.977780  0.389604 0.878297 1 0 1.000000
skin_0
0  33.318512 -53.930614 36.963192  0.192430 -0.127751 0.972960  0.391779 0.915029 1 0 1.000000
0  32.900105 -60.999512 36.225471  0.174030 -0.116877 0.977780  0.389604 0.878297 1 0 1.000000
0  36.280403 -53.347046 36.423664  0.198974 -0.118151 0.972856  0.407169 0.918062 1 0 1.000000
skin_0
0  36.280403 -53.347046 36.423664  0.198974 -0.118151 0.972856  0.407169 0.918062 1 0 1.000000
0  36.258381 -44.747658 37.601814  0.231807 -0.140545 0.962555  0.407055 0.962747 1 0 1.000000
0  33.318512 -53.930614 36.963192  0.192430 -0.127751 0.972960  0.391779 0.915029 1 0 1.000000
skin_0
0  33.990170 -46.641502 37.921127  0.190852 -0.140263 0.971546  0.395269 0.952906 1 0 1.000000
0  33.318512 -53.930614 36.963192  0.192430 -0.127751 0.972960  0.391779 0.915029 1 0 1.000000
0  36.258381 -44.747658 37.601814  0.231807 -0.140545 0.962555  0.407055 0.962747 1 0 1.000000
skin_0
0  33.318512 -53.930614 36.963192  0.192430 -0.127751 0.972960  0.391779 0.915029 1 0 1.000000
0  33.990170 -46.641502 37.921127  0.190852 -0.140263 0.971546  0.395269 0.952906 1 0 1.000000
0  29.420710 -54.712376 37.524738  0.133623 -0.116582 0.984151  0.371524 0.910967 1 0 1.000000
skin_0
0  29.993267 -48.381199 38.273468  0.085098 -0.096418 0.991696  0.374500 0.943866 1 0 1.000000
0  29.420710 -54.712376 37.524738  0.133623 -0.116582 0.984151  0.371524 0.910967 1 0 1.000000
0  33.990170 -46.641502 37.921127  0.190852 -0.140263 0.971546  0.395269 0.952906 1 0 1.000000
skin_0
0  29.420710 -54.712376 37.524738  0.133623 -0.116582 0.984151  0.371524 0.910967 1 0 1.000000
0  29.993267 -48.381199 38.273468  0.085098 -0.096418 0.991696  0.374500 0.943866 1 0 1.000000
0  13.906573 -56.253883 38.537731  0.038240 -0.075281 0.996429  0.290908 0.902957 1 0 1.000000
skin_0
0  14.060722 -50.946705 38.724915  0.017561 -0.029581 0.999408  0.291709 0.930535 1 0 1.000000
0  13.906573 -56.253883 38.537731  0.038240 -0.075281 0.996429  0.290908 0.902957 1 0 1.000000
0  29.993267 -48.381199 38.273468  0.085098 -0.096418 0.991696  0.374500 0.943866 1 0 1.000000
skin_0
0  13.906573 -56.253883 38.537731  0.038240 -0.075281 0.996429  0.290908 0.902957 1 0 1.000000
0  14.060722 -50.946705 38.724915  0.017561 -0.029581 0.999408  0.291709 0.930535 1 0 1.000000
0  0.000005 -56.452080 38.713902  -0.002075 -0.052308 0.998629  0.218645 0.901927 1 0 1.000000
skin_0
0  0.000005 -51.552296 38.790977  -0.004510 -0.022594 0.999734  0.218645 0.927388 1 0 1.000000
0  0.000005 -56.452080 38.713902  -0.002075 -0.052308 0.998629  0.218645 0.901927 1 0 1.000000
0  14.060722 -50.946705 38.724915  0.017561 -0.029581 0.999408  0.291709 0.930535 1 0 1.000000
skin_0
0  0.000005 -56.452080 38.713902  -0.002075 -0.052308 0.998629  0.218645 0.901927 1 0 1.000000
0  0.000005 -51.552296 38.790977  -0.004510 -0.022594 0.999734  0.218645 0.927388 1 0 1.000000
0  -13.906563 -56.253883 38.537731  -0.042746 -0.061821 0.997171  0.146383 0.902957 1 0 1.000000
skin_0
0  -14.060715 -50.946705 38.724915  -0.040923 -0.064900 0.997052  0.145582 0.930535 1 0 1.000000
0  -13.906563 -56.253883 38.537731  -0.042746 -0.061821 0.997171  0.146383 0.902957 1 0 1.000000
0  0.000005 -51.552296 38.790977  -0.004510 -0.022594 0.999734  0.218645 0.927388 1 0 1.000000
skin_0
0  -13.906563 -56.253883 38.537731  -0.042746 -0.061821 0.997171  0.146383 0.902957 1 0 1.000000
0  -14.060715 -50.946705 38.724915  -0.040923 -0.064900 0.997052  0.145582 0.930535 1 0 1.000000
0  -29.420700 -54.712383 37.524746  -0.130504 -0.108194 0.985527  0.065766 0.910967 1 0 1.000000
skin_0
0  -29.993259 -48.381207 38.273476  -0.121392 -0.131145 0.983903  0.062791 0.943866 1 0 1.000000
0  -29.420700 -54.712383 37.524746  -0.130504 -0.108194 0.985527  0.065766 0.910967 1 0 1.000000
0  -14.060715 -50.946705 38.724915  -0.040923 -0.064900 0.997052  0.145582 0.930535 1 0 1.000000
skin_0
0  26.822174 -75.875031 35.278549  0.222265 -0.154725 0.962631  0.358022 0.800999 1 0 1.000000
0  28.011335 -68.288628 36.082333  0.193633 -0.130957 0.972294  0.364201 0.840421 1 0 1.000000
0  26.568928 -75.908058 35.344612  0.256638 -0.154124 0.954140  0.356706 0.800828 1 0 1.000000
skin_0
0  28.011335 -68.288628 36.082333  0.193633 -0.130957 0.972294  0.364201 0.840421 1 0 1.000000
0  26.822174 -75.875031 35.278549  0.222265 -0.154725 0.962631  0.358022 0.800999 1 0 1.000000
0  28.264582 -68.266602 36.038288  0.160052 -0.125863 0.979051  0.365517 0.840535 1 0 1.000000
skin_0
0  28.011335 -68.288628 36.082333  0.193633 -0.130957 0.972294  0.364201 0.840421 1 0 1.000000
0  28.264582 -68.266602 36.038288  0.160052 -0.125863 0.979051  0.365517 0.840535 1 0 1.000000
0  28.705011 -61.583080 36.831062  0.178613 -0.124004 0.976074  0.367806 0.875265 1 0 1.000000
skin_0
0  28.958258 -61.550049 36.787018  0.164488 -0.119498 0.979114  0.369121 0.875436 1 0 1.000000
0  28.705011 -61.583080 36.831062  0.178613 -0.124004 0.976074  0.367806 0.875265 1 0 1.000000
0  28.264582 -68.266602 36.038288  0.160052 -0.125863 0.979051  0.365517 0.840535 1 0 1.000000
skin_0
0  28.958258 -61.550049 36.787018  0.164488 -0.119498 0.979114  0.369121 0.875436 1 0 1.000000
0  29.420710 -54.712376 37.524738  0.133623 -0.116582 0.984151  0.371524 0.910967 1 0 1.000000
0  28.705011 -61.583080 36.831062  0.178613 -0.124004 0.976074  0.367806 0.875265 1 0 1.000000
skin_0
0  29.420710 -54.712376 37.524738  0.133623 -0.116582 0.984151  0.371524 0.910967 1 0 1.000000
0  28.958258 -61.550049 36.787018  0.164488 -0.119498 0.979114  0.369121 0.875436 1 0 1.000000
0  33.318512 -53.930614 36.963192  0.192430 -0.127751 0.972960  0.391779 0.915029 1 0 1.000000
skin_0
0  32.900105 -60.999512 36.225471  0.174030 -0.116877 0.977780  0.389604 0.878297 1 0 1.000000
0  33.318512 -53.930614 36.963192  0.192430 -0.127751 0.972960  0.391779 0.915029 1 0 1.000000
0  28.958258 -61.550049 36.787018  0.164488 -0.119498 0.979114  0.369121 0.875436 1 0 1.000000
skin_0
0  28.958258 -61.550049 36.787018  0.164488 -0.119498 0.979114  0.369121 0.875436 1 0 1.000000
0  28.264582 -68.266602 36.038288  0.160052 -0.125863 0.979051  0.365517 0.840535 1 0 1.000000
0  32.900105 -60.999512 36.225471  0.174030 -0.116877 0.977780  0.389604 0.878297 1 0 1.000000
skin_0
0  28.528839 -61.638134 36.853085  0.193061 -0.124543 0.973250  0.366890 0.874979 1 0 1.000000
0  28.705011 -61.583080 36.831062  0.178613 -0.124004 0.976074  0.367806 0.875265 1 0 1.000000
0  29.420710 -54.712376 37.524738  0.133623 -0.116582 0.984151  0.371524 0.910967 1 0 1.000000
skin_0
0  28.528839 -61.638134 36.853085  0.193061 -0.124543 0.973250  0.366890 0.874979 1 0 1.000000
0  27.758087 -68.310646 36.126373  0.213636 -0.131381 0.968039  0.362885 0.840306 1 0 1.000000
0  28.705011 -61.583080 36.831062  0.178613 -0.124004 0.976074  0.367806 0.875265 1 0 1.000000
skin_0
0  28.011335 -68.288628 36.082333  0.193633 -0.130957 0.972294  0.364201 0.840421 1 0 1.000000
0  28.705011 -61.583080 36.831062  0.178613 -0.124004 0.976074  0.367806 0.875265 1 0 1.000000
0  27.758087 -68.310646 36.126373  0.213636 -0.131381 0.968039  0.362885 0.840306 1 0 1.000000
skin_0
0  27.758087 -68.310646 36.126373  0.213636 -0.131381 0.968039  0.362885 0.840306 1 0 1.000000
0  26.568928 -75.908058 35.344612  0.256638 -0.154124 0.954140  0.356706 0.800828 1 0 1.000000
0  28.011335 -68.288628 36.082333  0.193633 -0.130957 0.972294  0.364201 0.840421 1 0 1.000000
skin_0
0  -28.253561 -61.704205 36.886124  -0.080467 -0.104308 0.991285  0.071831 0.874635 1 0 1.000000
0  -28.363668 -61.693195 36.875114  -0.135683 -0.117341 0.983779  0.071259 0.874693 1 0 1.000000
0  -27.119455 -68.365700 36.225479  -0.086471 -0.108643 0.990313  0.077724 0.840020 1 0 1.000000
skin_0
0  -29.420700 -54.712383 37.524746  -0.130504 -0.108194 0.985527  0.065766 0.910967 1 0 1.000000
0  -28.363668 -61.693195 36.875114  -0.135683 -0.117341 0.983779  0.071259 0.874693 1 0 1.000000
0  -28.253561 -61.704205 36.886124  -0.080467 -0.104308 0.991285  0.071831 0.874635 1 0 1.000000
skin_0
0  -29.420700 -54.712383 37.524746  -0.130504 -0.108194 0.985527  0.065766 0.910967 1 0 1.000000
0  -28.253561 -61.704205 36.886124  -0.080467 -0.104308 0.991285  0.071831 0.874635 1 0 1.000000
0  -13.906563 -56.253883 38.537731  -0.042746 -0.061821 0.997171  0.146383 0.902957 1 0 1.000000
skin_0
0  -13.741402 -62.937405 37.954163  -0.050273 -0.094030 0.994299  0.147241 0.868227 1 0 1.000000
0  -13.906563 -56.253883 38.537731  -0.042746 -0.061821 0.997171  0.146383 0.902957 1 0 1.000000
0  -28.253561 -61.704205 36.886124  -0.080467 -0.104308 0.991285  0.071831 0.874635 1 0 1.000000
skin_0
0  -13.906563 -56.253883 38.537731  -0.042746 -0.061821 0.997171  0.146383 0.902957 1 0 1.000000
0  -13.741402 -62.937405 37.954163  -0.050273 -0.094030 0.994299  0.147241 0.868227 1 0 1.000000
0  0.000005 -56.452080 38.713902  -0.002075 -0.052308 0.998629  0.218645 0.901927 1 0 1.000000
skin_0
0  0.000005 -63.113579 38.185387  -0.001376 -0.086674 0.996236  0.218645 0.867312 1 0 1.000000
0  0.000005 -56.452080 38.713902  -0.002075 -0.052308 0.998629  0.218645 0.901927 1 0 1.000000
0  -13.741402 -62.937405 37.954163  -0.050273 -0.094030 0.994299  0.147241 0.868227 1 0 1.000000
skin_0
0  0.000005 -56.452080 38.713902  -0.002075 -0.052308 0.998629  0.218645 0.901927 1 0 1.000000
0  0.000005 -63.113579 38.185387  -0.001376 -0.086674 0.996236  0.218645 0.867312 1 0 1.000000
0  13.906573 -56.253883 38.537731  0.038240 -0.075281 0.996429  0.290908 0.902957 1 0 1.000000
skin_0
0  13.741412 -62.937405 37.954163  0.049469 -0.094099 0.994333  0.290050 0.868227 1 0 1.000000
0  13.906573 -56.253883 38.537731  0.038240 -0.075281 0.996429  0.290908 0.902957 1 0 1.000000
0  0.000005 -63.113579 38.185387  -0.001376 -0.086674 0.996236  0.218645 0.867312 1 0 1.000000
skin_0
0  13.906573 -56.253883 38.537731  0.038240 -0.075281 0.996429  0.290908 0.902957 1 0 1.000000
0  13.741412 -62.937405 37.954163  0.049469 -0.094099 0.994333  0.290050 0.868227 1 0 1.000000
0  29.420710 -54.712376 37.524738  0.133623 -0.116582 0.984151  0.371524 0.910967 1 0 1.000000
skin_0
0  28.253571 -61.704197 36.886116  0.083129 -0.106992 0.990779  0.365460 0.874635 1 0 1.000000
0  29.420710 -54.712376 37.524738  0.133623 -0.116582 0.984151  0.371524 0.910967 1 0 1.000000
0  13.741412 -62.937405 37.954163  0.049469 -0.094099 0.994333  0.290050 0.868227 1 0 1.000000
skin_0
0  28.363678 -61.693188 36.875107  0.135710 -0.117338 0.983776  0.366032 0.874693 1 0 1.000000
0  29.420710 -54.712376 37.524738  0.133623 -0.116582 0.984151  0.371524 0.910967 1 0 1.000000
0  28.253571 -61.704197 36.886116  0.083129 -0.106992 0.990779  0.365460 0.874635 1 0 1.000000
skin_0
0  28.363678 -61.693188 36.875107  0.135710 -0.117338 0.983776  0.366032 0.874693 1 0 1.000000
0  28.528839 -61.638134 36.853085  0.193061 -0.124543 0.973250  0.366890 0.874979 1 0 1.000000
0  29.420710 -54.712376 37.524738  0.133623 -0.116582 0.984151  0.371524 0.910967 1 0 1.000000
skin_0
0  28.528839 -61.638134 36.853085  0.193061 -0.124543 0.973250  0.366890 0.874979 1 0 1.000000
0  28.363678 -61.693188 36.875107  0.135710 -0.117338 0.983776  0.366032 0.874693 1 0 1.000000
0  27.581915 -68.332672 36.159409  0.209992 -0.129151 0.969135  0.361970 0.840192 1 0 1.000000
skin_0
0  27.758087 -68.310646 36.126373  0.213636 -0.131381 0.968039  0.362885 0.840306 1 0 1.000000
0  28.528839 -61.638134 36.853085  0.193061 -0.124543 0.973250  0.366890 0.874979 1 0 1.000000
0  27.581915 -68.332672 36.159409  0.209992 -0.129151 0.969135  0.361970 0.840192 1 0 1.000000
skin_0
0  27.581915 -68.332672 36.159409  0.209992 -0.129151 0.969135  0.361970 0.840192 1 0 1.000000
0  26.172541 -75.952103 35.454720  0.273941 -0.157604 0.948745  0.354646 0.800599 1 0 1.000000
0  27.758087 -68.310646 36.126373  0.213636 -0.131381 0.968039  0.362885 0.840306 1 0 1.000000
skin_0
0  26.568928 -75.908058 35.344612  0.256638 -0.154124 0.954140  0.356706 0.800828 1 0 1.000000
0  27.758087 -68.310646 36.126373  0.213636 -0.131381 0.968039  0.362885 0.840306 1 0 1.000000
0  26.172541 -75.952103 35.454720  0.273941 -0.157604 0.948745  0.354646 0.800599 1 0 1.000000
skin_0
0  26.568928 -75.908058 35.344612  0.256638 -0.154124 0.954140  0.356706 0.800828 1 0 1.000000
0  26.172541 -75.952103 35.454720  0.273941 -0.157604 0.948745  0.354646 0.800599 1 0 1.000000
0  25.291683 -83.681648 34.254547  0.313180 -0.202793 0.927789  0.350069 0.760434 1 0 1.000000
skin_0
0  26.568928 -75.908058 35.344612  0.256638 -0.154124 0.954140  0.356706 0.800828 1 0 1.000000
0  25.291683 -83.681648 34.254547  0.313180 -0.202793 0.927789  0.350069 0.760434 1 0 1.000000
0  26.822174 -75.875031 35.278549  0.222265 -0.154725 0.962631  0.358022 0.800999 1 0 1.000000
skin_0
0  23.871298 -91.499275 32.845043  0.333042 -0.237354 0.912549  0.342688 0.719811 1 0 1.000000
0  23.144588 -91.609383 33.087280  0.335043 -0.235214 0.912371  0.338912 0.719239 1 0 1.000000
0  22.527985 -98.634232 31.413645  0.341290 -0.281321 0.896872  0.335708 0.682736 1 0 1.000000
skin_0
0  23.871298 -91.499275 32.845043  0.333042 -0.237354 0.912549  0.342688 0.719811 1 0 1.000000
0  25.291683 -83.681648 34.254547  0.313180 -0.202793 0.927789  0.350069 0.760434 1 0 1.000000
0  23.144588 -91.609383 33.087280  0.335043 -0.235214 0.912371  0.338912 0.719239 1 0 1.000000
skin_0
0  24.730135 -83.747711 34.441734  0.313243 -0.200045 0.928365  0.347151 0.760091 1 0 1.000000
0  23.144588 -91.609383 33.087280  0.335043 -0.235214 0.912371  0.338912 0.719239 1 0 1.000000
0  25.291683 -83.681648 34.254547  0.313180 -0.202793 0.927789  0.350069 0.760434 1 0 1.000000
skin_0
0  24.730135 -83.747711 34.441734  0.313243 -0.200045 0.928365  0.347151 0.760091 1 0 1.000000
0  25.291683 -83.681648 34.254547  0.313180 -0.202793 0.927789  0.350069 0.760434 1 0 1.000000
0  26.172541 -75.952103 35.454720  0.273941 -0.157604 0.948745  0.354646 0.800599 1 0 1.000000
skin_0
0  26.172541 -75.952103 35.454720  0.273941 -0.157604 0.948745  0.354646 0.800599 1 0 1.000000
0  25.963337 -75.974129 35.509773  0.189132 -0.144243 0.971300  0.353559 0.800484 1 0 1.000000
0  24.730135 -83.747711 34.441734  0.313243 -0.200045 0.928365  0.347151 0.760091 1 0 1.000000
skin_0
0  26.172541 -75.952103 35.454720  0.273941 -0.157604 0.948745  0.354646 0.800599 1 0 1.000000
0  27.581915 -68.332672 36.159409  0.209992 -0.129151 0.969135  0.361970 0.840192 1 0 1.000000
0  25.963337 -75.974129 35.509773  0.189132 -0.144243 0.971300  0.353559 0.800484 1 0 1.000000
skin_0
0  27.350691 -68.354691 36.203449  0.129327 -0.115577 0.984843  0.360768 0.840077 1 0 1.000000
0  25.963337 -75.974129 35.509773  0.189132 -0.144243 0.971300  0.353559 0.800484 1 0 1.000000
0  27.581915 -68.332672 36.159409  0.209992 -0.129151 0.969135  0.361970 0.840192 1 0 1.000000
skin_0
0  27.350691 -68.354691 36.203449  0.129327 -0.115577 0.984843  0.360768 0.840077 1 0 1.000000
0  27.581915 -68.332672 36.159409  0.209992 -0.129151 0.969135  0.361970 0.840192 1 0 1.000000
0  28.363678 -61.693188 36.875107  0.135710 -0.117338 0.983776  0.366032 0.874693 1 0 1.000000
skin_0
0  27.350691 -68.354691 36.203449  0.129327 -0.115577 0.984843  0.360768 0.840077 1 0 1.000000
0  28.363678 -61.693188 36.875107  0.135710 -0.117338 0.983776  0.366032 0.874693 1 0 1.000000
0  27.119465 -68.365700 36.225471  0.088123 -0.108621 0.990169  0.359566 0.840020 1 0 1.000000
skin_0
0  28.253571 -61.704197 36.886116  0.083129 -0.106992 0.990779  0.365460 0.874635 1 0 1.000000
0  27.119465 -68.365700 36.225471  0.088123 -0.108621 0.990169  0.359566 0.840020 1 0 1.000000
0  28.363678 -61.693188 36.875107  0.135710 -0.117338 0.983776  0.366032 0.874693 1 0 1.000000
skin_0
0  27.119465 -68.365700 36.225471  0.088123 -0.108621 0.990169  0.359566 0.840020 1 0 1.000000
0  28.253571 -61.704197 36.886116  0.083129 -0.106992 0.990779  0.365460 0.874635 1 0 1.000000
0  13.389068 -69.301613 37.337559  0.054237 -0.098705 0.993638  0.288219 0.835157 1 0 1.000000
skin_0
0  13.741412 -62.937405 37.954163  0.049469 -0.094099 0.994333  0.290050 0.868227 1 0 1.000000
0  13.389068 -69.301613 37.337559  0.054237 -0.098705 0.993638  0.288219 0.835157 1 0 1.000000
0  28.253571 -61.704197 36.886116  0.083129 -0.106992 0.990779  0.365460 0.874635 1 0 1.000000
skin_0
0  13.389068 -69.301613 37.337559  0.054237 -0.098705 0.993638  0.288219 0.835157 1 0 1.000000
0  13.741412 -62.937405 37.954163  0.049469 -0.094099 0.994333  0.290050 0.868227 1 0 1.000000
0  0.000005 -69.444756 37.623840  -0.001066 -0.090731 0.995875  0.218645 0.834413 1 0 1.000000
skin_0
0  0.000005 -63.113579 38.185387  -0.001376 -0.086674 0.996236  0.218645 0.867312 1 0 1.000000
0  0.000005 -69.444756 37.623840  -0.001066 -0.090731 0.995875  0.218645 0.834413 1 0 1.000000
0  13.741412 -62.937405 37.954163  0.049469 -0.094099 0.994333  0.290050 0.868227 1 0 1.000000
skin_0
0  0.000005 -69.444756 37.623840  -0.001066 -0.090731 0.995875  0.218645 0.834413 1 0 1.000000
0  0.000005 -63.113579 38.185387  -0.001376 -0.086674 0.996236  0.218645 0.867312 1 0 1.000000
0  -13.389058 -69.301613 37.337559  -0.054964 -0.097567 0.993710  0.149072 0.835157 1 0 1.000000
skin_0
0  -13.741402 -62.937405 37.954163  -0.050273 -0.094030 0.994299  0.147241 0.868227 1 0 1.000000
0  -13.389058 -69.301613 37.337559  -0.054964 -0.097567 0.993710  0.149072 0.835157 1 0 1.000000
0  0.000005 -63.113579 38.185387  -0.001376 -0.086674 0.996236  0.218645 0.867312 1 0 1.000000
skin_0
0  -13.389058 -69.301613 37.337559  -0.054964 -0.097567 0.993710  0.149072 0.835157 1 0 1.000000
0  -13.741402 -62.937405 37.954163  -0.050273 -0.094030 0.994299  0.147241 0.868227 1 0 1.000000
0  -27.119455 -68.365700 36.225479  -0.086471 -0.108643 0.990313  0.077724 0.840020 1 0 1.000000
skin_0
0  -28.253561 -61.704205 36.886124  -0.080467 -0.104308 0.991285  0.071831 0.874635 1 0 1.000000
0  -27.119455 -68.365700 36.225479  -0.086471 -0.108643 0.990313  0.077724 0.840020 1 0 1.000000
0  -13.741402 -62.937405 37.954163  -0.050273 -0.094030 0.994299  0.147241 0.868227 1 0 1.000000
skin_0
0  -27.350679 -68.354691 36.203457  -0.129327 -0.115573 0.984844  0.076523 0.840077 1 0 1.000000
0  -27.119455 -68.365700 36.225479  -0.086471 -0.108643 0.990313  0.077724 0.840020 1 0 1.000000
0  -28.363668 -61.693195 36.875114  -0.135683 -0.117341 0.983779  0.071259 0.874693 1 0 1.000000
skin_0
0  -27.119455 -68.365700 36.225479  -0.086471 -0.108643 0.990313  0.077724 0.840020 1 0 1.000000
0  -27.350679 -68.354691 36.203457  -0.129327 -0.115573 0.984844  0.076523 0.840077 1 0 1.000000
0  -25.754122 -75.985138 35.531803  -0.092440 -0.117859 0.988718  0.084819 0.800427 1 0 1.000000
skin_0
0  -27.119455 -68.365700 36.225479  -0.086471 -0.108643 0.990313  0.077724 0.840020 1 0 1.000000
0  -25.754122 -75.985138 35.531803  -0.092440 -0.117859 0.988718  0.084819 0.800427 1 0 1.000000
0  -13.389058 -69.301613 37.337559  -0.054964 -0.097567 0.993710  0.149072 0.835157 1 0 1.000000
skin_0
0  -12.849531 -76.700836 36.654896  -0.059083 -0.115991 0.991491  0.151875 0.796708 1 0 1.000000
0  -13.389058 -69.301613 37.337559  -0.054964 -0.097567 0.993710  0.149072 0.835157 1 0 1.000000
0  -25.754122 -75.985138 35.531803  -0.092440 -0.117859 0.988718  0.084819 0.800427 1 0 1.000000
skin_0
0  -13.389058 -69.301613 37.337559  -0.054964 -0.097567 0.993710  0.149072 0.835157 1 0 1.000000
0  -12.849531 -76.700836 36.654896  -0.059083 -0.115991 0.991491  0.151875 0.796708 1 0 1.000000
0  0.000005 -69.444756 37.623840  -0.001066 -0.090731 0.995875  0.218645 0.834413 1 0 1.000000
skin_0
0  0.000005 -76.821953 36.952183  -0.000729 -0.109684 0.993966  0.218645 0.796079 1 0 1.000000
0  0.000005 -69.444756 37.623840  -0.001066 -0.090731 0.995875  0.218645 0.834413 1 0 1.000000
0  -12.849531 -76.700836 36.654896  -0.059083 -0.115991 0.991491  0.151875 0.796708 1 0 1.000000
skin_0
0  0.000005 -69.444756 37.623840  -0.001066 -0.090731 0.995875  0.218645 0.834413 1 0 1.000000
0  0.000005 -76.821953 36.952183  -0.000729 -0.109684 0.993966  0.218645 0.796079 1 0 1.000000
0  13.389068 -69.301613 37.337559  0.054237 -0.098705 0.993638  0.288219 0.835157 1 0 1.000000
skin_0
0  12.849543 -76.700836 36.654896  0.058242 -0.115741 0.991570  0.285416 0.796708 1 0 1.000000
0  13.389068 -69.301613 37.337559  0.054237 -0.098705 0.993638  0.288219 0.835157 1 0 1.000000
0  0.000005 -76.821953 36.952183  -0.000729 -0.109684 0.993966  0.218645 0.796079 1 0 1.000000
skin_0
0  13.389068 -69.301613 37.337559  0.054237 -0.098705 0.993638  0.288219 0.835157 1 0 1.000000
0  12.849543 -76.700836 36.654896  0.058242 -0.115741 0.991570  0.285416 0.796708 1 0 1.000000
0  27.119465 -68.365700 36.225471  0.088123 -0.108621 0.990169  0.359566 0.840020 1 0 1.000000
skin_0
0  25.754131 -75.985138 35.531796  0.094109 -0.124452 0.987753  0.352472 0.800427 1 0 1.000000
0  27.119465 -68.365700 36.225471  0.088123 -0.108621 0.990169  0.359566 0.840020 1 0 1.000000
0  12.849543 -76.700836 36.654896  0.058242 -0.115741 0.991570  0.285416 0.796708 1 0 1.000000
skin_0
0  27.119465 -68.365700 36.225471  0.088123 -0.108621 0.990169  0.359566 0.840020 1 0 1.000000
0  25.754131 -75.985138 35.531796  0.094109 -0.124452 0.987753  0.352472 0.800427 1 0 1.000000
0  27.350691 -68.354691 36.203449  0.129327 -0.115577 0.984843  0.360768 0.840077 1 0 1.000000
skin_0
0  25.963337 -75.974129 35.509773  0.189132 -0.144243 0.971300  0.353559 0.800484 1 0 1.000000
0  27.350691 -68.354691 36.203449  0.129327 -0.115577 0.984843  0.360768 0.840077 1 0 1.000000
0  25.754131 -75.985138 35.531796  0.094109 -0.124452 0.987753  0.352472 0.800427 1 0 1.000000
skin_0
0  21.603083 -98.788383 31.721945  0.345768 -0.295384 0.890614  0.330902 0.681935 1 0 1.000000
0  22.527985 -98.634232 31.413645  0.341290 -0.281321 0.896872  0.335708 0.682736 1 0 1.000000
0  23.144588 -91.609383 33.087280  0.335043 -0.235214 0.912371  0.338912 0.719239 1 0 1.000000
skin_0
0  23.144588 -91.609383 33.087280  0.335043 -0.235214 0.912371  0.338912 0.719239 1 0 1.000000
0  22.913363 -91.642410 33.164356  0.236114 -0.221867 0.946057  0.337710 0.719067 1 0 1.000000
0  21.603083 -98.788383 31.721945  0.345768 -0.295384 0.890614  0.330902 0.681935 1 0 1.000000
skin_0
0  23.144588 -91.609383 33.087280  0.335043 -0.235214 0.912371  0.338912 0.719239 1 0 1.000000
0  24.730135 -83.747711 34.441734  0.313243 -0.200045 0.928365  0.347151 0.760091 1 0 1.000000
0  22.913363 -91.642410 33.164356  0.236114 -0.221867 0.946057  0.337710 0.719067 1 0 1.000000
skin_0
0  24.498909 -83.780739 34.507801  0.189850 -0.185674 0.964097  0.345949 0.759919 1 0 1.000000
0  22.913363 -91.642410 33.164356  0.236114 -0.221867 0.946057  0.337710 0.719067 1 0 1.000000
0  24.730135 -83.747711 34.441734  0.313243 -0.200045 0.928365  0.347151 0.760091 1 0 1.000000
skin_0
0  24.498909 -83.780739 34.507801  0.189850 -0.185674 0.964097  0.345949 0.759919 1 0 1.000000
0  24.730135 -83.747711 34.441734  0.313243 -0.200045 0.928365  0.347151 0.760091 1 0 1.000000
0  25.963337 -75.974129 35.509773  0.189132 -0.144243 0.971300  0.353559 0.800484 1 0 1.000000
skin_0
0  24.498909 -83.780739 34.507801  0.189850 -0.185674 0.964097  0.345949 0.759919 1 0 1.000000
0  25.963337 -75.974129 35.509773  0.189132 -0.144243 0.971300  0.353559 0.800484 1 0 1.000000
0  24.256674 -83.791756 34.529819  0.099356 -0.167001 0.980938  0.344691 0.759862 1 0 1.000000
skin_0
0  25.754131 -75.985138 35.531796  0.094109 -0.124452 0.987753  0.352472 0.800427 1 0 1.000000
0  24.256674 -83.791756 34.529819  0.099356 -0.167001 0.980938  0.344691 0.759862 1 0 1.000000
0  25.963337 -75.974129 35.509773  0.189132 -0.144243 0.971300  0.353559 0.800484 1 0 1.000000
skin_0
0  24.256674 -83.791756 34.529819  0.099356 -0.167001 0.980938  0.344691 0.759862 1 0 1.000000
0  25.754131 -75.985138 35.531796  0.094109 -0.124452 0.987753  0.352472 0.800427 1 0 1.000000
0  12.166875 -84.287239 35.663929  0.064300 -0.160935 0.984868  0.281868 0.757287 1 0 1.000000
skin_0
0  12.849543 -76.700836 36.654896  0.058242 -0.115741 0.991570  0.285416 0.796708 1 0 1.000000
0  12.166875 -84.287239 35.663929  0.064300 -0.160935 0.984868  0.281868 0.757287 1 0 1.000000
0  25.754131 -75.985138 35.531796  0.094109 -0.124452 0.987753  0.352472 0.800427 1 0 1.000000
skin_0
0  12.166875 -84.287239 35.663929  0.064300 -0.160935 0.984868  0.281868 0.757287 1 0 1.000000
0  12.849543 -76.700836 36.654896  0.058242 -0.115741 0.991570  0.285416 0.796708 1 0 1.000000
0  0.000005 -84.375320 35.983238  -0.002526 -0.151542 0.988447  0.218645 0.756829 1 0 1.000000
skin_0
0  0.000005 -76.821953 36.952183  -0.000729 -0.109684 0.993966  0.218645 0.796079 1 0 1.000000
0  0.000005 -84.375320 35.983238  -0.002526 -0.151542 0.988447  0.218645 0.756829 1 0 1.000000
0  12.849543 -76.700836 36.654896  0.058242 -0.115741 0.991570  0.285416 0.796708 1 0 1.000000
skin_0
0  0.000005 -84.375320 35.983238  -0.002526 -0.151542 0.988447  0.218645 0.756829 1 0 1.000000
0  0.000005 -76.821953 36.952183  -0.000729 -0.109684 0.993966  0.218645 0.796079 1 0 1.000000
0  -12.166866 -84.287239 35.663929  -0.062044 -0.161410 0.984935  0.155423 0.757287 1 0 1.000000
skin_0
0  -12.849531 -76.700836 36.654896  -0.059083 -0.115991 0.991491  0.151875 0.796708 1 0 1.000000
0  -12.166866 -84.287239 35.663929  -0.062044 -0.161410 0.984935  0.155423 0.757287 1 0 1.000000
0  0.000005 -76.821953 36.952183  -0.000729 -0.109684 0.993966  0.218645 0.796079 1 0 1.000000
skin_0
0  -12.166866 -84.287239 35.663929  -0.062044 -0.161410 0.984935  0.155423 0.757287 1 0 1.000000
0  -12.849531 -76.700836 36.654896  -0.059083 -0.115991 0.991491  0.151875 0.796708 1 0 1.000000
0  -24.256659 -83.791756 34.529819  -0.099284 -0.157855 0.982458  0.092600 0.759862 1 0 1.000000
skin_0
0  -25.754122 -75.985138 35.531803  -0.092440 -0.117859 0.988718  0.084819 0.800427 1 0 1.000000
0  -24.256659 -83.791756 34.529819  -0.099284 -0.157855 0.982458  0.092600 0.759862 1 0 1.000000
0  -12.849531 -76.700836 36.654896  -0.059083 -0.115991 0.991491  0.151875 0.796708 1 0 1.000000
skin_0
0  -25.754122 -75.985138 35.531803  -0.092440 -0.117859 0.988718  0.084819 0.800427 1 0 1.000000
0  -25.963327 -75.974129 35.509781  -0.189152 -0.144339 0.971281  0.083732 0.800484 1 0 1.000000
0  -24.256659 -83.791756 34.529819  -0.099284 -0.157855 0.982458  0.092600 0.759862 1 0 1.000000
skin_0
0  -25.963327 -75.974129 35.509781  -0.189152 -0.144339 0.971281  0.083732 0.800484 1 0 1.000000
0  -25.754122 -75.985138 35.531803  -0.092440 -0.117859 0.988718  0.084819 0.800427 1 0 1.000000
0  -27.350679 -68.354691 36.203457  -0.129327 -0.115573 0.984844  0.076523 0.840077 1 0 1.000000
skin_0
0  -27.350679 -68.354691 36.203457  -0.129327 -0.115573 0.984844  0.076523 0.840077 1 0 1.000000
0  -27.581905 -68.332672 36.159416  -0.209990 -0.129152 0.969136  0.075321 0.840192 1 0 1.000000
0  -25.963327 -75.974129 35.509781  -0.189152 -0.144339 0.971281  0.083732 0.800484 1 0 1.000000
skin_0
0  21.382868 -98.821419 31.788010  0.211920 -0.278907 0.936643  0.329757 0.681763 1 0 1.000000
0  21.603083 -98.788383 31.721945  0.345768 -0.295384 0.890614  0.330902 0.681935 1 0 1.000000
0  22.913363 -91.642410 33.164356  0.236114 -0.221867 0.946057  0.337710 0.719067 1 0 1.000000
skin_0
0  -24.498896 -83.780739 34.507801  -0.189843 -0.185674 0.964098  0.091342 0.759919 1 0 1.000000
0  -25.963327 -75.974129 35.509781  -0.189152 -0.144339 0.971281  0.083732 0.800484 1 0 1.000000
0  -24.730122 -83.747711 34.441734  -0.316939 -0.204134 0.926218  0.090140 0.760091 1 0 1.000000
skin_0
0  -24.498896 -83.780739 34.507801  -0.189843 -0.185674 0.964098  0.091342 0.759919 1 0 1.000000
0  -24.256659 -83.791756 34.529819  -0.099284 -0.157855 0.982458  0.092600 0.759862 1 0 1.000000
0  -25.963327 -75.974129 35.509781  -0.189152 -0.144339 0.971281  0.083732 0.800484 1 0 1.000000
skin_0
0  -22.527975 -98.634232 31.413649  -0.341283 -0.281317 0.896876  0.101583 0.682736 1 0 1.000000
0  -23.871283 -91.499275 32.845043  -0.333146 -0.235375 0.913024  0.094603 0.719811 1 0 1.000000
0  -22.748190 -98.590187 31.336573  -0.255255 -0.274084 0.927212  0.100439 0.682965 1 0 1.000000
skin_0
0  -23.871283 -91.499275 32.845043  -0.333146 -0.235375 0.913024  0.094603 0.719811 1 0 1.000000
0  -22.527975 -98.634232 31.413649  -0.341283 -0.281317 0.896876  0.101583 0.682736 1 0 1.000000
0  -23.144575 -91.609383 33.087280  -0.334967 -0.238342 0.911587  0.098379 0.719239 1 0 1.000000
skin_0
0  -23.144575 -91.609383 33.087280  -0.334967 -0.238342 0.911587  0.098379 0.719239 1 0 1.000000
0  -24.730122 -83.747711 34.441734  -0.316939 -0.204134 0.926218  0.090140 0.760091 1 0 1.000000
0  -23.871283 -91.499275 32.845043  -0.333146 -0.235375 0.913024  0.094603 0.719811 1 0 1.000000
skin_0
0  -23.144575 -91.609383 33.087280  -0.334967 -0.238342 0.911587  0.098379 0.719239 1 0 1.000000
0  -22.913349 -91.642410 33.164356  -0.219581 -0.218035 0.950918  0.099581 0.719067 1 0 1.000000
0  -24.730122 -83.747711 34.441734  -0.316939 -0.204134 0.926218  0.090140 0.760091 1 0 1.000000
skin_0
0  -24.498896 -83.780739 34.507801  -0.189843 -0.185674 0.964098  0.091342 0.759919 1 0 1.000000
0  -24.730122 -83.747711 34.441734  -0.316939 -0.204134 0.926218  0.090140 0.760091 1 0 1.000000
0  -22.913349 -91.642410 33.164356  -0.219581 -0.218035 0.950918  0.099581 0.719067 1 0 1.000000
skin_0
0  -22.913349 -91.642410 33.164356  -0.219581 -0.218035 0.950918  0.099581 0.719067 1 0 1.000000
0  -22.671112 -91.653419 33.186375  -0.103242 -0.195610 0.975232  0.100839 0.719010 1 0 1.000000
0  -24.498896 -83.780739 34.507801  -0.189843 -0.185674 0.964098  0.091342 0.759919 1 0 1.000000
skin_0
0  -24.256659 -83.791756 34.529819  -0.099284 -0.157855 0.982458  0.092600 0.759862 1 0 1.000000
0  -24.498896 -83.780739 34.507801  -0.189843 -0.185674 0.964098  0.091342 0.759919 1 0 1.000000
0  -22.671112 -91.653419 33.186375  -0.103242 -0.195610 0.975232  0.100839 0.719010 1 0 1.000000
skin_0
0  -24.256659 -83.791756 34.529819  -0.099284 -0.157855 0.982458  0.092600 0.759862 1 0 1.000000
0  -22.671112 -91.653419 33.186375  -0.103242 -0.195610 0.975232  0.100839 0.719010 1 0 1.000000
0  -12.166866 -84.287239 35.663929  -0.062044 -0.161410 0.984935  0.155423 0.757287 1 0 1.000000
skin_0
0  -21.195675 -106.628036 28.947243  -0.105672 -0.302163 0.947381  0.108506 0.641197 1 0 1.000000
0  -22.968405 -98.579178 31.314552  -0.120087 -0.272229 0.954710  0.099295 0.683022 1 0 1.000000
0  -27.537863 -105.405838 28.660963  -0.113998 -0.291535 0.949743  0.075550 0.647548 1 0 1.000000
skin_0
0  -21.195675 -106.628036 28.947243  -0.105672 -0.302163 0.947381  0.108506 0.641197 1 0 1.000000
0  -20.986469 -106.672073 28.958252  -0.205641 -0.317994 0.925522  0.109593 0.640969 1 0 1.000000
0  -22.968405 -98.579178 31.314552  -0.120087 -0.272229 0.954710  0.099295 0.683022 1 0 1.000000
skin_0
0  -22.748190 -98.590187 31.336573  -0.255255 -0.274084 0.927212  0.100439 0.682965 1 0 1.000000
0  -22.968405 -98.579178 31.314552  -0.120087 -0.272229 0.954710  0.099295 0.683022 1 0 1.000000
0  -20.986469 -106.672073 28.958252  -0.205641 -0.317994 0.925522  0.109593 0.640969 1 0 1.000000
skin_0
0  -20.986469 -106.672073 28.958252  -0.205641 -0.317994 0.925522  0.109593 0.640969 1 0 1.000000
0  -20.777266 -106.705109 29.024317  -0.354049 -0.334076 0.873523  0.110680 0.640797 1 0 1.000000
0  -22.748190 -98.590187 31.336573  -0.255255 -0.274084 0.927212  0.100439 0.682965 1 0 1.000000
skin_0
0  -22.527975 -98.634232 31.413649  -0.341283 -0.281317 0.896876  0.101583 0.682736 1 0 1.000000
0  -22.748190 -98.590187 31.336573  -0.255255 -0.274084 0.927212  0.100439 0.682965 1 0 1.000000
0  -20.777266 -106.705109 29.024317  -0.354049 -0.334076 0.873523  0.110680 0.640797 1 0 1.000000
skin_0
0  -22.527975 -98.634232 31.413649  -0.341283 -0.281317 0.896876  0.101583 0.682736 1 0 1.000000
0  -20.777266 -106.705109 29.024317  -0.354049 -0.334076 0.873523  0.110680 0.640797 1 0 1.000000
0  -21.603071 -98.788383 31.721949  -0.345857 -0.298134 0.889663  0.106389 0.681935 1 0 1.000000
skin_0
0  -21.603071 -98.788383 31.721949  -0.345857 -0.298134 0.889663  0.106389 0.681935 1 0 1.000000
0  -23.144575 -91.609383 33.087280  -0.334967 -0.238342 0.911587  0.098379 0.719239 1 0 1.000000
0  -22.527975 -98.634232 31.413649  -0.341283 -0.281317 0.896876  0.101583 0.682736 1 0 1.000000
skin_0
0  -21.603071 -98.788383 31.721949  -0.345857 -0.298134 0.889663  0.106389 0.681935 1 0 1.000000
0  -21.382856 -98.821419 31.788013  -0.250692 -0.282382 0.925967  0.107534 0.681763 1 0 1.000000
0  -23.144575 -91.609383 33.087280  -0.334967 -0.238342 0.911587  0.098379 0.719239 1 0 1.000000
skin_0
0  -22.913349 -91.642410 33.164356  -0.219581 -0.218035 0.950918  0.099581 0.719067 1 0 1.000000
0  -23.144575 -91.609383 33.087280  -0.334967 -0.238342 0.911587  0.098379 0.719239 1 0 1.000000
0  -21.382856 -98.821419 31.788013  -0.250692 -0.282382 0.925967  0.107534 0.681763 1 0 1.000000
skin_0
0  -21.382856 -98.821419 31.788013  -0.250692 -0.282382 0.925967  0.107534 0.681763 1 0 1.000000
0  -21.151630 -98.832428 31.821045  -0.112669 -0.235426 0.965340  0.108735 0.681706 1 0 1.000000
0  -22.913349 -91.642410 33.164356  -0.219581 -0.218035 0.950918  0.099581 0.719067 1 0 1.000000
skin_0
0  -22.671112 -91.653419 33.186375  -0.103242 -0.195610 0.975232  0.100839 0.719010 1 0 1.000000
0  -22.913349 -91.642410 33.164356  -0.219581 -0.218035 0.950918  0.099581 0.719067 1 0 1.000000
0  -21.151630 -98.832428 31.821045  -0.112669 -0.235426 0.965340  0.108735 0.681706 1 0 1.000000
skin_0
0  -22.671112 -91.653419 33.186375  -0.103242 -0.195610 0.975232  0.100839 0.719010 1 0 1.000000
0  -21.151630 -98.832428 31.821045  -0.112669 -0.235426 0.965340  0.108735 0.681706 1 0 1.000000
0  -11.219941 -92.049812 34.221519  -0.067325 -0.187317 0.979990  0.160343 0.716950 1 0 1.000000
skin_0
0  -11.219941 -92.049812 34.221519  -0.067325 -0.187317 0.979990  0.160343 0.716950 1 0 1.000000
0  -12.166866 -84.287239 35.663929  -0.062044 -0.161410 0.984935  0.155423 0.757287 1 0 1.000000
0  -22.671112 -91.653419 33.186375  -0.103242 -0.195610 0.975232  0.100839 0.719010 1 0 1.000000
skin_0
0  -12.166866 -84.287239 35.663929  -0.062044 -0.161410 0.984935  0.155423 0.757287 1 0 1.000000
0  -11.219941 -92.049812 34.221519  -0.067325 -0.187317 0.979990  0.160343 0.716950 1 0 1.000000
0  0.000005 -84.375320 35.983238  -0.002526 -0.151542 0.988447  0.218645 0.756829 1 0 1.000000
skin_0
0  0.000006 -92.391144 34.617908  -0.001338 -0.179269 0.983799  0.218645 0.715177 1 0 1.000000
0  0.000005 -84.375320 35.983238  -0.002526 -0.151542 0.988447  0.218645 0.756829 1 0 1.000000
0  -11.219941 -92.049812 34.221519  -0.067325 -0.187317 0.979990  0.160343 0.716950 1 0 1.000000
skin_0
0  0.000005 -84.375320 35.983238  -0.002526 -0.151542 0.988447  0.218645 0.756829 1 0 1.000000
0  0.000006 -92.391144 34.617908  -0.001338 -0.179269 0.983799  0.218645 0.715177 1 0 1.000000
0  12.166875 -84.287239 35.663929  0.064300 -0.160935 0.984868  0.281868 0.757287 1 0 1.000000
skin_0
0  11.219953 -92.049812 34.221519  0.067595 -0.187419 0.979952  0.276948 0.716950 1 0 1.000000
0  12.166875 -84.287239 35.663929  0.064300 -0.160935 0.984868  0.281868 0.757287 1 0 1.000000
0  0.000006 -92.391144 34.617908  -0.001338 -0.179269 0.983799  0.218645 0.715177 1 0 1.000000
skin_0
0  12.166875 -84.287239 35.663929  0.064300 -0.160935 0.984868  0.281868 0.757287 1 0 1.000000
0  11.219953 -92.049812 34.221519  0.067595 -0.187419 0.979952  0.276948 0.716950 1 0 1.000000
0  24.256674 -83.791756 34.529819  0.099356 -0.167001 0.980938  0.344691 0.759862 1 0 1.000000
skin_0
0  19.290827 -106.980377 29.486765  0.123716 -0.298739 0.946282  0.318886 0.639367 1 0 1.000000
0  21.151642 -98.832428 31.821041  0.115682 -0.253549 0.960381  0.328556 0.681706 1 0 1.000000
0  9.215998 -107.773148 30.433691  0.088816 -0.292946 0.951995  0.266535 0.635247 1 0 1.000000
skin_0
0  10.449201 -99.460037 32.878075  0.072593 -0.240021 0.968050  0.272943 0.678445 1 0 1.000000
0  9.215998 -107.773148 30.433691  0.088816 -0.292946 0.951995  0.266535 0.635247 1 0 1.000000
0  21.151642 -98.832428 31.821041  0.115682 -0.253549 0.960381  0.328556 0.681706 1 0 1.000000
skin_0
0  21.151642 -98.832428 31.821041  0.115682 -0.253549 0.960381  0.328556 0.681706 1 0 1.000000
0  22.671125 -91.653419 33.186375  0.104744 -0.195038 0.975187  0.336452 0.719010 1 0 1.000000
0  10.449201 -99.460037 32.878075  0.072593 -0.240021 0.968050  0.272943 0.678445 1 0 1.000000
skin_0
0  11.219953 -92.049812 34.221519  0.067595 -0.187419 0.979952  0.276948 0.716950 1 0 1.000000
0  10.449201 -99.460037 32.878075  0.072593 -0.240021 0.968050  0.272943 0.678445 1 0 1.000000
0  22.671125 -91.653419 33.186375  0.104744 -0.195038 0.975187  0.336452 0.719010 1 0 1.000000
skin_0
0  10.449201 -99.460037 32.878075  0.072593 -0.240021 0.968050  0.272943 0.678445 1 0 1.000000
0  11.219953 -92.049812 34.221519  0.067595 -0.187419 0.979952  0.276948 0.716950 1 0 1.000000
0  0.000006 -99.702278 33.219410  -0.000231 -0.235448 0.971887  0.218645 0.677186 1 0 1.000000
skin_0
0  0.000006 -92.391144 34.617908  -0.001338 -0.179269 0.983799  0.218645 0.715177 1 0 1.000000
0  0.000006 -99.702278 33.219410  -0.000231 -0.235448 0.971887  0.218645 0.677186 1 0 1.000000
0  11.219953 -92.049812 34.221519  0.067595 -0.187419 0.979952  0.276948 0.716950 1 0 1.000000
skin_0
0  0.000006 -99.702278 33.219410  -0.000231 -0.235448 0.971887  0.218645 0.677186 1 0 1.000000
0  0.000006 -92.391144 34.617908  -0.001338 -0.179269 0.983799  0.218645 0.715177 1 0 1.000000
0  -10.449189 -99.460037 32.878075  -0.074657 -0.239934 0.967914  0.164348 0.678445 1 0 1.000000
skin_0
0  -11.219941 -92.049812 34.221519  -0.067325 -0.187317 0.979990  0.160343 0.716950 1 0 1.000000
0  -10.449189 -99.460037 32.878075  -0.074657 -0.239934 0.967914  0.164348 0.678445 1 0 1.000000
0  0.000006 -92.391144 34.617908  -0.001338 -0.179269 0.983799  0.218645 0.715177 1 0 1.000000
skin_0
0  -10.449189 -99.460037 32.878075  -0.074657 -0.239934 0.967914  0.164348 0.678445 1 0 1.000000
0  -11.219941 -92.049812 34.221519  -0.067325 -0.187317 0.979990  0.160343 0.716950 1 0 1.000000
0  -21.151630 -98.832428 31.821045  -0.112669 -0.235426 0.965340  0.108735 0.681706 1 0 1.000000
skin_0
0  -21.151630 -98.832428 31.821045  -0.112669 -0.235426 0.965340  0.108735 0.681706 1 0 1.000000
0  -19.290815 -106.980377 29.486769  -0.120331 -0.297692 0.947048  0.118404 0.639367 1 0 1.000000
0  -10.449189 -99.460037 32.878075  -0.074657 -0.239934 0.967914  0.164348 0.678445 1 0 1.000000
skin_0
0  -21.151630 -98.832428 31.821045  -0.112669 -0.235426 0.965340  0.108735 0.681706 1 0 1.000000
0  -21.382856 -98.821419 31.788013  -0.250692 -0.282382 0.925967  0.107534 0.681763 1 0 1.000000
0  -19.290815 -106.980377 29.486769  -0.120331 -0.297692 0.947048  0.118404 0.639367 1 0 1.000000
skin_0
0  -19.511030 -106.958359 29.464746  -0.250925 -0.318942 0.913955  0.117260 0.639481 1 0 1.000000
0  -19.290815 -106.980377 29.486769  -0.120331 -0.297692 0.947048  0.118404 0.639367 1 0 1.000000
0  -21.382856 -98.821419 31.788013  -0.250692 -0.282382 0.925967  0.107534 0.681763 1 0 1.000000
skin_0
0  -19.511030 -106.958359 29.464746  -0.250925 -0.318942 0.913955  0.117260 0.639481 1 0 1.000000
0  -21.382856 -98.821419 31.788013  -0.250692 -0.282382 0.925967  0.107534 0.681763 1 0 1.000000
0  -19.709225 -106.925323 29.398682  -0.356137 -0.332113 0.873423  0.116230 0.639653 1 0 1.000000
skin_0
0  -21.603071 -98.788383 31.721949  -0.345857 -0.298134 0.889663  0.106389 0.681935 1 0 1.000000
0  -19.709225 -106.925323 29.398682  -0.356137 -0.332113 0.873423  0.116230 0.639653 1 0 1.000000
0  -21.382856 -98.821419 31.788013  -0.250692 -0.282382 0.925967  0.107534 0.681763 1 0 1.000000
skin_0
0  -19.709225 -106.925323 29.398682  -0.356137 -0.332113 0.873423  0.116230 0.639653 1 0 1.000000
0  -21.603071 -98.788383 31.721949  -0.345857 -0.298134 0.889663  0.106389 0.681935 1 0 1.000000
0  -20.777266 -106.705109 29.024317  -0.354049 -0.334076 0.873523  0.110680 0.640797 1 0 1.000000
skin_0
0  9.215998 -107.773148 30.433691  0.088816 -0.292946 0.951995  0.266535 0.635247 1 0 1.000000
0  10.449201 -99.460037 32.878075  0.072593 -0.240021 0.968050  0.272943 0.678445 1 0 1.000000
0  0.000006 -108.169540 30.730980  0.012979 -0.283973 0.958744  0.218645 0.633187 1 0 1.000000
skin_0
0  0.000006 -99.702278 33.219410  -0.000231 -0.235448 0.971887  0.218645 0.677186 1 0 1.000000
0  0.000006 -108.169540 30.730980  0.012979 -0.283973 0.958744  0.218645 0.633187 1 0 1.000000
0  10.449201 -99.460037 32.878075  0.072593 -0.240021 0.968050  0.272943 0.678445 1 0 1.000000
skin_0
0  0.000006 -108.169540 30.730980  0.012979 -0.283973 0.958744  0.218645 0.633187 1 0 1.000000
0  0.000006 -99.702278 33.219410  -0.000231 -0.235448 0.971887  0.218645 0.677186 1 0 1.000000
0  -9.215986 -107.773148 30.433691  -0.064760 -0.287974 0.955446  0.170756 0.635247 1 0 1.000000
skin_0
0  -10.449189 -99.460037 32.878075  -0.074657 -0.239934 0.967914  0.164348 0.678445 1 0 1.000000
0  -9.215986 -107.773148 30.433691  -0.064760 -0.287974 0.955446  0.170756 0.635247 1 0 1.000000
0  0.000006 -99.702278 33.219410  -0.000231 -0.235448 0.971887  0.218645 0.677186 1 0 1.000000
skin_0
0  -9.215986 -107.773148 30.433691  -0.064760 -0.287974 0.955446  0.170756 0.635247 1 0 1.000000
0  -10.449189 -99.460037 32.878075  -0.074657 -0.239934 0.967914  0.164348 0.678445 1 0 1.000000
0  -19.290815 -106.980377 29.486769  -0.120331 -0.297692 0.947048  0.118404 0.639367 1 0 1.000000
skin_0
0  22.671125 -91.653419 33.186375  0.104744 -0.195038 0.975187  0.336452 0.719010 1 0 1.000000
0  24.256674 -83.791756 34.529819  0.099356 -0.167001 0.980938  0.344691 0.759862 1 0 1.000000
0  11.219953 -92.049812 34.221519  0.067595 -0.187419 0.979952  0.276948 0.716950 1 0 1.000000
skin_0
0  24.256674 -83.791756 34.529819  0.099356 -0.167001 0.980938  0.344691 0.759862 1 0 1.000000
0  22.671125 -91.653419 33.186375  0.104744 -0.195038 0.975187  0.336452 0.719010 1 0 1.000000
0  24.498909 -83.780739 34.507801  0.189850 -0.185674 0.964097  0.345949 0.759919 1 0 1.000000
skin_0
0  22.913363 -91.642410 33.164356  0.236114 -0.221867 0.946057  0.337710 0.719067 1 0 1.000000
0  24.498909 -83.780739 34.507801  0.189850 -0.185674 0.964097  0.345949 0.759919 1 0 1.000000
0  22.671125 -91.653419 33.186375  0.104744 -0.195038 0.975187  0.336452 0.719010 1 0 1.000000
skin_0
0  22.671125 -91.653419 33.186375  0.104744 -0.195038 0.975187  0.336452 0.719010 1 0 1.000000
0  21.151642 -98.832428 31.821041  0.115682 -0.253549 0.960381  0.328556 0.681706 1 0 1.000000
0  22.913363 -91.642410 33.164356  0.236114 -0.221867 0.946057  0.337710 0.719067 1 0 1.000000
skin_0
0  21.382868 -98.821419 31.788010  0.211920 -0.278907 0.936643  0.329757 0.681763 1 0 1.000000
0  22.913363 -91.642410 33.164356  0.236114 -0.221867 0.946057  0.337710 0.719067 1 0 1.000000
0  21.151642 -98.832428 31.821041  0.115682 -0.253549 0.960381  0.328556 0.681706 1 0 1.000000
skin_0
0  21.151642 -98.832428 31.821041  0.115682 -0.253549 0.960381  0.328556 0.681706 1 0 1.000000
0  19.290827 -106.980377 29.486765  0.123716 -0.298739 0.946282  0.318886 0.639367 1 0 1.000000
0  21.382868 -98.821419 31.788010  0.211920 -0.278907 0.936643  0.329757 0.681763 1 0 1.000000
skin_0
0  19.511042 -106.958359 29.464743  0.280219 -0.323085 0.903933  0.320031 0.639481 1 0 1.000000
0  21.382868 -98.821419 31.788010  0.211920 -0.278907 0.936643  0.329757 0.681763 1 0 1.000000
0  19.290827 -106.980377 29.486765  0.123716 -0.298739 0.946282  0.318886 0.639367 1 0 1.000000
skin_0
0  21.382868 -98.821419 31.788010  0.211920 -0.278907 0.936643  0.329757 0.681763 1 0 1.000000
0  19.511042 -106.958359 29.464743  0.280219 -0.323085 0.903933  0.320031 0.639481 1 0 1.000000
0  21.603083 -98.788383 31.721945  0.345768 -0.295384 0.890614  0.330902 0.681935 1 0 1.000000
skin_0
0  19.709234 -106.925323 29.398678  0.365150 -0.333320 0.869232  0.321061 0.639653 1 0 1.000000
0  21.603083 -98.788383 31.721945  0.345768 -0.295384 0.890614  0.330902 0.681935 1 0 1.000000
0  19.511042 -106.958359 29.464743  0.280219 -0.323085 0.903933  0.320031 0.639481 1 0 1.000000
skin_0
0  19.709234 -106.925323 29.398678  0.365150 -0.333320 0.869232  0.321061 0.639653 1 0 1.000000
0  20.777277 -106.705109 29.024313  0.354149 -0.333977 0.873520  0.326611 0.640797 1 0 1.000000
0  21.603083 -98.788383 31.721945  0.345768 -0.295384 0.890614  0.330902 0.681935 1 0 1.000000
skin_0
0  22.527985 -98.634232 31.413645  0.341290 -0.281321 0.896872  0.335708 0.682736 1 0 1.000000
0  21.603083 -98.788383 31.721945  0.345768 -0.295384 0.890614  0.330902 0.681935 1 0 1.000000
0  20.777277 -106.705109 29.024313  0.354149 -0.333977 0.873520  0.326611 0.640797 1 0 1.000000
skin_0
0  22.527985 -98.634232 31.413645  0.341290 -0.281321 0.896872  0.335708 0.682736 1 0 1.000000
0  20.777277 -106.705109 29.024313  0.354149 -0.333977 0.873520  0.326611 0.640797 1 0 1.000000
0  22.748199 -98.590187 31.336569  0.255258 -0.274085 0.927212  0.336852 0.682965 1 0 1.000000
skin_0
0  22.527985 -98.634232 31.413645  0.341290 -0.281321 0.896872  0.335708 0.682736 1 0 1.000000
0  22.748199 -98.590187 31.336569  0.255258 -0.274085 0.927212  0.336852 0.682965 1 0 1.000000
0  23.871298 -91.499275 32.845043  0.333042 -0.237354 0.912549  0.342688 0.719811 1 0 1.000000
skin_0
0  24.113533 -91.466240 32.767967  0.236875 -0.220543 0.946177  0.343947 0.719983 1 0 1.000000
0  23.871298 -91.499275 32.845043  0.333042 -0.237354 0.912549  0.342688 0.719811 1 0 1.000000
0  22.748199 -98.590187 31.336569  0.255258 -0.274085 0.927212  0.336852 0.682965 1 0 1.000000
skin_0
0  23.871298 -91.499275 32.845043  0.333042 -0.237354 0.912549  0.342688 0.719811 1 0 1.000000
0  24.113533 -91.466240 32.767967  0.236875 -0.220543 0.946177  0.343947 0.719983 1 0 1.000000
0  25.291683 -83.681648 34.254547  0.313180 -0.202793 0.927789  0.350069 0.760434 1 0 1.000000
skin_0
0  25.544930 -83.648613 34.177475  0.223228 -0.188945 0.956279  0.351385 0.760606 1 0 1.000000
0  25.291683 -83.681648 34.254547  0.313180 -0.202793 0.927789  0.350069 0.760434 1 0 1.000000
0  24.113533 -91.466240 32.767967  0.236875 -0.220543 0.946177  0.343947 0.719983 1 0 1.000000
skin_0
0  25.544930 -83.648613 34.177475  0.223228 -0.188945 0.956279  0.351385 0.760606 1 0 1.000000
0  26.822174 -75.875031 35.278549  0.222265 -0.154725 0.962631  0.358022 0.800999 1 0 1.000000
0  25.291683 -83.681648 34.254547  0.313180 -0.202793 0.927789  0.350069 0.760434 1 0 1.000000
skin_0
0  26.822174 -75.875031 35.278549  0.222265 -0.154725 0.962631  0.358022 0.800999 1 0 1.000000
0  25.544930 -83.648613 34.177475  0.223228 -0.188945 0.956279  0.351385 0.760606 1 0 1.000000
0  27.075422 -75.853004 35.245514  0.155045 -0.145692 0.977105  0.359338 0.801114 1 0 1.000000
skin_0
0  -28.528830 -61.638142 36.853092  -0.193045 -0.124544 0.973254  0.070401 0.874979 1 0 1.000000
0  -27.758078 -68.310646 36.126381  -0.213634 -0.131382 0.968039  0.074406 0.840306 1 0 1.000000
0  -27.581905 -68.332672 36.159416  -0.209990 -0.129152 0.969136  0.075321 0.840192 1 0 1.000000
skin_0
0  -28.528830 -61.638142 36.853092  -0.193045 -0.124544 0.973254  0.070401 0.874979 1 0 1.000000
0  -28.705002 -61.583088 36.831070  -0.178487 -0.123946 0.976104  0.069485 0.875265 1 0 1.000000
0  -27.758078 -68.310646 36.126381  -0.213634 -0.131382 0.968039  0.074406 0.840306 1 0 1.000000
skin_0
0  -28.011324 -68.288628 36.082340  -0.193630 -0.130955 0.972295  0.073090 0.840421 1 0 1.000000
0  -27.758078 -68.310646 36.126381  -0.213634 -0.131382 0.968039  0.074406 0.840306 1 0 1.000000
0  -28.705002 -61.583088 36.831070  -0.178487 -0.123946 0.976104  0.069485 0.875265 1 0 1.000000
skin_0
0  -28.011324 -68.288628 36.082340  -0.193630 -0.130955 0.972295  0.073090 0.840421 1 0 1.000000
0  -28.705002 -61.583088 36.831070  -0.178487 -0.123946 0.976104  0.069485 0.875265 1 0 1.000000
0  -28.264572 -68.266602 36.038296  -0.158511 -0.126560 0.979212  0.071774 0.840535 1 0 1.000000
skin_0
0  -28.011324 -68.288628 36.082340  -0.193630 -0.130955 0.972295  0.073090 0.840421 1 0 1.000000
0  -28.264572 -68.266602 36.038296  -0.158511 -0.126560 0.979212  0.071774 0.840535 1 0 1.000000
0  -26.822165 -75.875031 35.278557  -0.222265 -0.154726 0.962631  0.079269 0.800999 1 0 1.000000
skin_0
0  -26.822165 -75.875031 35.278557  -0.222265 -0.154726 0.962631  0.079269 0.800999 1 0 1.000000
0  -26.568918 -75.908058 35.344620  -0.256634 -0.154124 0.954141  0.080585 0.800828 1 0 1.000000
0  -28.011324 -68.288628 36.082340  -0.193630 -0.130955 0.972295  0.073090 0.840421 1 0 1.000000
skin_0
0  -26.568918 -75.908058 35.344620  -0.256634 -0.154124 0.954141  0.080585 0.800828 1 0 1.000000
0  -26.822165 -75.875031 35.278557  -0.222265 -0.154726 0.962631  0.079269 0.800999 1 0 1.000000
0  -25.291670 -83.681648 34.254555  -0.309154 -0.199496 0.929852  0.087222 0.760434 1 0 1.000000
skin_0
0  -26.568918 -75.908058 35.344620  -0.256634 -0.154124 0.954141  0.080585 0.800828 1 0 1.000000
0  -25.291670 -83.681648 34.254555  -0.309154 -0.199496 0.929852  0.087222 0.760434 1 0 1.000000
0  -26.172531 -75.952103 35.454727  -0.273937 -0.157603 0.948746  0.082645 0.800599 1 0 1.000000
skin_0
0  -26.568918 -75.908058 35.344620  -0.256634 -0.154124 0.954141  0.080585 0.800828 1 0 1.000000
0  -26.172531 -75.952103 35.454727  -0.273937 -0.157603 0.948746  0.082645 0.800599 1 0 1.000000
0  -27.758078 -68.310646 36.126381  -0.213634 -0.131382 0.968039  0.074406 0.840306 1 0 1.000000
skin_0
0  -27.758078 -68.310646 36.126381  -0.213634 -0.131382 0.968039  0.074406 0.840306 1 0 1.000000
0  -28.011324 -68.288628 36.082340  -0.193630 -0.130955 0.972295  0.073090 0.840421 1 0 1.000000
0  -26.568918 -75.908058 35.344620  -0.256634 -0.154124 0.954141  0.080585 0.800828 1 0 1.000000
skin_0
0  -25.544916 -83.648613 34.177483  -0.223230 -0.188943 0.956279  0.085906 0.760606 1 0 1.000000
0  -25.291670 -83.681648 34.254555  -0.309154 -0.199496 0.929852  0.087222 0.760434 1 0 1.000000
0  -26.822165 -75.875031 35.278557  -0.222265 -0.154726 0.962631  0.079269 0.800999 1 0 1.000000
skin_0
0  -25.544916 -83.648613 34.177483  -0.223230 -0.188943 0.956279  0.085906 0.760606 1 0 1.000000
0  -24.113520 -91.466240 32.767967  -0.236880 -0.220502 0.946185  0.093344 0.719983 1 0 1.000000
0  -25.291670 -83.681648 34.254555  -0.309154 -0.199496 0.929852  0.087222 0.760434 1 0 1.000000
skin_0
0  -25.544916 -83.648613 34.177483  -0.223230 -0.188943 0.956279  0.085906 0.760606 1 0 1.000000
0  -25.798162 -83.626595 34.133438  -0.149057 -0.186742 0.971035  0.084590 0.760720 1 0 1.000000
0  -24.113520 -91.466240 32.767967  -0.236880 -0.220502 0.946185  0.093344 0.719983 1 0 1.000000
skin_0
0  -24.366766 -91.444221 32.734936  -0.134181 -0.209997 0.968451  0.092028 0.720097 1 0 1.000000
0  -24.113520 -91.466240 32.767967  -0.236880 -0.220502 0.946185  0.093344 0.719983 1 0 1.000000
0  -25.798162 -83.626595 34.133438  -0.149057 -0.186742 0.971035  0.084590 0.760720 1 0 1.000000
skin_0
0  -25.798162 -83.626595 34.133438  -0.149057 -0.186742 0.971035  0.084590 0.760720 1 0 1.000000
0  -25.544916 -83.648613 34.177483  -0.223230 -0.188943 0.956279  0.085906 0.760606 1 0 1.000000
0  -27.075411 -75.853004 35.245522  -0.154568 -0.151576 0.976286  0.077953 0.801114 1 0 1.000000
skin_0
0  -26.822165 -75.875031 35.278557  -0.222265 -0.154726 0.962631  0.079269 0.800999 1 0 1.000000
0  -27.075411 -75.853004 35.245522  -0.154568 -0.151576 0.976286  0.077953 0.801114 1 0 1.000000
0  -25.544916 -83.648613 34.177483  -0.223230 -0.188943 0.956279  0.085906 0.760606 1 0 1.000000
skin_0
0  -27.075411 -75.853004 35.245522  -0.154568 -0.151576 0.976286  0.077953 0.801114 1 0 1.000000
0  -26.822165 -75.875031 35.278557  -0.222265 -0.154726 0.962631  0.079269 0.800999 1 0 1.000000
0  -28.264572 -68.266602 36.038296  -0.158511 -0.126560 0.979212  0.071774 0.840535 1 0 1.000000
skin_0
0  -27.075411 -75.853004 35.245522  -0.154568 -0.151576 0.976286  0.077953 0.801114 1 0 1.000000
0  -28.264572 -68.266602 36.038296  -0.158511 -0.126560 0.979212  0.071774 0.840535 1 0 1.000000
0  -31.534761 -75.423592 34.639931  -0.162893 -0.143687 0.976125  0.054781 0.803345 1 0 1.000000
skin_0
0  -31.534761 -75.423592 34.639931  -0.162893 -0.143687 0.976125  0.054781 0.803345 1 0 1.000000
0  -30.730976 -83.142120 33.483669  -0.158579 -0.174844 0.971742  0.058958 0.763237 1 0 1.000000
0  -27.075411 -75.853004 35.245522  -0.154568 -0.151576 0.976286  0.077953 0.801114 1 0 1.000000
skin_0
0  -25.798162 -83.626595 34.133438  -0.149057 -0.186742 0.971035  0.084590 0.760720 1 0 1.000000
0  -27.075411 -75.853004 35.245522  -0.154568 -0.151576 0.976286  0.077953 0.801114 1 0 1.000000
0  -30.730976 -83.142120 33.483669  -0.158579 -0.174844 0.971742  0.058958 0.763237 1 0 1.000000
skin_0
0  -30.730976 -83.142120 33.483669  -0.158579 -0.174844 0.971742  0.058958 0.763237 1 0 1.000000
0  -29.773041 -90.959747 32.096317  -0.144892 -0.198675 0.969296  0.063936 0.722615 1 0 1.000000
0  -25.798162 -83.626595 34.133438  -0.149057 -0.186742 0.971035  0.084590 0.760720 1 0 1.000000
skin_0
0  -24.366766 -91.444221 32.734936  -0.134181 -0.209997 0.968451  0.092028 0.720097 1 0 1.000000
0  -25.798162 -83.626595 34.133438  -0.149057 -0.186742 0.971035  0.084590 0.760720 1 0 1.000000
0  -29.773041 -90.959747 32.096317  -0.144892 -0.198675 0.969296  0.063936 0.722615 1 0 1.000000
skin_0
0  -29.773041 -90.959747 32.096317  -0.144892 -0.198675 0.969296  0.063936 0.722615 1 0 1.000000
0  -28.782078 -98.105721 30.708961  -0.130841 -0.245702 0.960474  0.069085 0.685482 1 0 1.000000
0  -24.366766 -91.444221 32.734936  -0.134181 -0.209997 0.968451  0.092028 0.720097 1 0 1.000000
skin_0
0  -22.968405 -98.579178 31.314552  -0.120087 -0.272229 0.954710  0.099295 0.683022 1 0 1.000000
0  -24.366766 -91.444221 32.734936  -0.134181 -0.209997 0.968451  0.092028 0.720097 1 0 1.000000
0  -28.782078 -98.105721 30.708961  -0.130841 -0.245702 0.960474  0.069085 0.685482 1 0 1.000000
skin_0
0  -22.968405 -98.579178 31.314552  -0.120087 -0.272229 0.954710  0.099295 0.683022 1 0 1.000000
0  -22.748190 -98.590187 31.336573  -0.255255 -0.274084 0.927212  0.100439 0.682965 1 0 1.000000
0  -24.366766 -91.444221 32.734936  -0.134181 -0.209997 0.968451  0.092028 0.720097 1 0 1.000000
skin_0
0  -24.113520 -91.466240 32.767967  -0.236880 -0.220502 0.946185  0.093344 0.719983 1 0 1.000000
0  -24.366766 -91.444221 32.734936  -0.134181 -0.209997 0.968451  0.092028 0.720097 1 0 1.000000
0  -22.748190 -98.590187 31.336573  -0.255255 -0.274084 0.927212  0.100439 0.682965 1 0 1.000000
skin_0
0  -24.113520 -91.466240 32.767967  -0.236880 -0.220502 0.946185  0.093344 0.719983 1 0 1.000000
0  -22.748190 -98.590187 31.336573  -0.255255 -0.274084 0.927212  0.100439 0.682965 1 0 1.000000
0  -23.871283 -91.499275 32.845043  -0.333146 -0.235375 0.913024  0.094603 0.719811 1 0 1.000000
skin_0
0  -23.871283 -91.499275 32.845043  -0.333146 -0.235375 0.913024  0.094603 0.719811 1 0 1.000000
0  -25.291670 -83.681648 34.254555  -0.309154 -0.199496 0.929852  0.087222 0.760434 1 0 1.000000
0  -24.113520 -91.466240 32.767967  -0.236880 -0.220502 0.946185  0.093344 0.719983 1 0 1.000000
skin_0
0  -25.291670 -83.681648 34.254555  -0.309154 -0.199496 0.929852  0.087222 0.760434 1 0 1.000000
0  -23.871283 -91.499275 32.845043  -0.333146 -0.235375 0.913024  0.094603 0.719811 1 0 1.000000
0  -24.730122 -83.747711 34.441734  -0.316939 -0.204134 0.926218  0.090140 0.760091 1 0 1.000000
skin_0
0  -24.730122 -83.747711 34.441734  -0.316939 -0.204134 0.926218  0.090140 0.760091 1 0 1.000000
0  -26.172531 -75.952103 35.454727  -0.273937 -0.157603 0.948746  0.082645 0.800599 1 0 1.000000
0  -25.291670 -83.681648 34.254555  -0.309154 -0.199496 0.929852  0.087222 0.760434 1 0 1.000000
skin_0
0  -26.172531 -75.952103 35.454727  -0.273937 -0.157603 0.948746  0.082645 0.800599 1 0 1.000000
0  -24.730122 -83.747711 34.441734  -0.316939 -0.204134 0.926218  0.090140 0.760091 1 0 1.000000
0  -25.963327 -75.974129 35.509781  -0.189152 -0.144339 0.971281  0.083732 0.800484 1 0 1.000000
skin_0
0  -26.172531 -75.952103 35.454727  -0.273937 -0.157603 0.948746  0.082645 0.800599 1 0 1.000000
0  -25.963327 -75.974129 35.509781  -0.189152 -0.144339 0.971281  0.083732 0.800484 1 0 1.000000
0  -27.581905 -68.332672 36.159416  -0.209990 -0.129152 0.969136  0.075321 0.840192 1 0 1.000000
skin_0
0  -27.581905 -68.332672 36.159416  -0.209990 -0.129152 0.969136  0.075321 0.840192 1 0 1.000000
0  -27.758078 -68.310646 36.126381  -0.213634 -0.131382 0.968039  0.074406 0.840306 1 0 1.000000
0  -26.172531 -75.952103 35.454727  -0.273937 -0.157603 0.948746  0.082645 0.800599 1 0 1.000000
skin_0
0  -27.350679 -68.354691 36.203457  -0.129327 -0.115573 0.984844  0.076523 0.840077 1 0 1.000000
0  -28.363668 -61.693195 36.875114  -0.135683 -0.117341 0.983779  0.071259 0.874693 1 0 1.000000
0  -27.581905 -68.332672 36.159416  -0.209990 -0.129152 0.969136  0.075321 0.840192 1 0 1.000000
skin_0
0  -28.528830 -61.638142 36.853092  -0.193045 -0.124544 0.973254  0.070401 0.874979 1 0 1.000000
0  -27.581905 -68.332672 36.159416  -0.209990 -0.129152 0.969136  0.075321 0.840192 1 0 1.000000
0  -28.363668 -61.693195 36.875114  -0.135683 -0.117341 0.983779  0.071259 0.874693 1 0 1.000000
skin_0
0  -28.528830 -61.638142 36.853092  -0.193045 -0.124544 0.973254  0.070401 0.874979 1 0 1.000000
0  -28.363668 -61.693195 36.875114  -0.135683 -0.117341 0.983779  0.071259 0.874693 1 0 1.000000
0  -29.420700 -54.712383 37.524746  -0.130504 -0.108194 0.985527  0.065766 0.910967 1 0 1.000000
skin_0
0  -28.705002 -61.583088 36.831070  -0.178487 -0.123946 0.976104  0.069485 0.875265 1 0 1.000000
0  -28.528830 -61.638142 36.853092  -0.193045 -0.124544 0.973254  0.070401 0.874979 1 0 1.000000
0  -29.420700 -54.712383 37.524746  -0.130504 -0.108194 0.985527  0.065766 0.910967 1 0 1.000000
skin_0
0  -29.420700 -54.712383 37.524746  -0.130504 -0.108194 0.985527  0.065766 0.910967 1 0 1.000000
0  -28.958248 -61.550056 36.787025  -0.160993 -0.120915 0.979521  0.068170 0.875436 1 0 1.000000
0  -28.705002 -61.583088 36.831070  -0.178487 -0.123946 0.976104  0.069485 0.875265 1 0 1.000000
skin_0
0  -28.958248 -61.550056 36.787025  -0.160993 -0.120915 0.979521  0.068170 0.875436 1 0 1.000000
0  -28.264572 -68.266602 36.038296  -0.158511 -0.126560 0.979212  0.071774 0.840535 1 0 1.000000
0  -28.705002 -61.583088 36.831070  -0.178487 -0.123946 0.976104  0.069485 0.875265 1 0 1.000000
skin_0
0  -28.264572 -68.266602 36.038296  -0.158511 -0.126560 0.979212  0.071774 0.840535 1 0 1.000000
0  -28.958248 -61.550056 36.787025  -0.160993 -0.120915 0.979521  0.068170 0.875436 1 0 1.000000
0  -32.261471 -67.892242 35.487759  -0.165832 -0.123604 0.978377  0.051005 0.842480 1 0 1.000000
skin_0
0  -32.261471 -67.892242 35.487759  -0.165832 -0.123604 0.978377  0.051005 0.842480 1 0 1.000000
0  -31.534761 -75.423592 34.639931  -0.162893 -0.143687 0.976125  0.054781 0.803345 1 0 1.000000
0  -28.264572 -68.266602 36.038296  -0.158511 -0.126560 0.979212  0.071774 0.840535 1 0 1.000000
skin_0
0  -31.534761 -75.423592 34.639931  -0.162893 -0.143687 0.976125  0.054781 0.803345 1 0 1.000000
0  -32.261471 -67.892242 35.487759  -0.165832 -0.123604 0.978377  0.051005 0.842480 1 0 1.000000
0  -35.983101 -74.994171 33.880192  -0.181003 -0.137173 0.973869  0.031666 0.805577 1 0 1.000000
skin_0
0  -35.983101 -74.994171 33.880192  -0.181003 -0.137173 0.973869  0.031666 0.805577 1 0 1.000000
0  -35.652779 -82.657646 32.679886  -0.176889 -0.167569 0.969861  0.033383 0.765755 1 0 1.000000
0  -31.534761 -75.423592 34.639931  -0.162893 -0.143687 0.976125  0.054781 0.803345 1 0 1.000000
skin_0
0  -30.730976 -83.142120 33.483669  -0.158579 -0.174844 0.971742  0.058958 0.763237 1 0 1.000000
0  -31.534761 -75.423592 34.639931  -0.162893 -0.143687 0.976125  0.054781 0.803345 1 0 1.000000
0  -35.652779 -82.657646 32.679886  -0.176889 -0.167569 0.969861  0.033383 0.765755 1 0 1.000000
skin_0
0  -35.652779 -82.657646 32.679886  -0.176889 -0.167569 0.969861  0.033383 0.765755 1 0 1.000000
0  -35.157295 -90.486282 31.314552  -0.163762 -0.189564 0.968116  0.035957 0.725075 1 0 1.000000
0  -30.730976 -83.142120 33.483669  -0.158579 -0.174844 0.971742  0.058958 0.763237 1 0 1.000000
skin_0
0  -29.773041 -90.959747 32.096317  -0.144892 -0.198675 0.969296  0.063936 0.722615 1 0 1.000000
0  -30.730976 -83.142120 33.483669  -0.158579 -0.174844 0.971742  0.058958 0.763237 1 0 1.000000
0  -35.157295 -90.486282 31.314552  -0.163762 -0.189564 0.968116  0.035957 0.725075 1 0 1.000000
skin_0
0  -35.157295 -90.486282 31.314552  -0.163762 -0.189564 0.968116  0.035957 0.725075 1 0 1.000000
0  -34.584736 -97.643265 29.949219  -0.149413 -0.223879 0.963096  0.038933 0.687885 1 0 1.000000
0  -29.773041 -90.959747 32.096317  -0.144892 -0.198675 0.969296  0.063936 0.722615 1 0 1.000000
skin_0
0  -28.782078 -98.105721 30.708961  -0.130841 -0.245702 0.960474  0.069085 0.685482 1 0 1.000000
0  -29.773041 -90.959747 32.096317  -0.144892 -0.198675 0.969296  0.063936 0.722615 1 0 1.000000
0  -34.584736 -97.643265 29.949219  -0.149413 -0.223879 0.963096  0.038933 0.687885 1 0 1.000000
skin_0
0  -34.584736 -97.643265 29.949219  -0.149413 -0.223879 0.963096  0.038933 0.687885 1 0 1.000000
0  -33.869038 -104.183647 28.231544  -0.133073 -0.275760 0.951971  0.042652 0.653899 1 0 1.000000
0  -28.782078 -98.105721 30.708961  -0.130841 -0.245702 0.960474  0.069085 0.685482 1 0 1.000000
skin_0
0  -27.537863 -105.405838 28.660963  -0.113998 -0.291535 0.949743  0.075550 0.647548 1 0 1.000000
0  -28.782078 -98.105721 30.708961  -0.130841 -0.245702 0.960474  0.069085 0.685482 1 0 1.000000
0  -33.869038 -104.183647 28.231544  -0.133073 -0.275760 0.951971  0.042652 0.653899 1 0 1.000000
skin_0
0  -28.782078 -98.105721 30.708961  -0.130841 -0.245702 0.960474  0.069085 0.685482 1 0 1.000000
0  -27.537863 -105.405838 28.660963  -0.113998 -0.291535 0.949743  0.075550 0.647548 1 0 1.000000
0  -22.968405 -98.579178 31.314552  -0.120087 -0.272229 0.954710  0.099295 0.683022 1 0 1.000000
skin_0
0  -36.247360 -67.517876 34.783073  -0.186527 -0.121370 0.974924  0.030293 0.844426 1 0 1.000000
0  -35.983101 -74.994171 33.880192  -0.181003 -0.137173 0.973869  0.031666 0.805577 1 0 1.000000
0  -32.261471 -67.892242 35.487759  -0.165832 -0.123604 0.978377  0.051005 0.842480 1 0 1.000000
skin_0
0  -32.261471 -67.892242 35.487759  -0.165832 -0.123604 0.978377  0.051005 0.842480 1 0 1.000000
0  -32.900093 -60.999519 36.225479  -0.174216 -0.116490 0.977793  0.047686 0.878297 1 0 1.000000
0  -36.247360 -67.517876 34.783073  -0.186527 -0.121370 0.974924  0.030293 0.844426 1 0 1.000000
skin_0
0  -32.900093 -60.999519 36.225479  -0.174216 -0.116490 0.977793  0.047686 0.878297 1 0 1.000000
0  -32.261471 -67.892242 35.487759  -0.165832 -0.123604 0.978377  0.051005 0.842480 1 0 1.000000
0  -28.958248 -61.550056 36.787025  -0.160993 -0.120915 0.979521  0.068170 0.875436 1 0 1.000000
skin_0
0  -28.958248 -61.550056 36.787025  -0.160993 -0.120915 0.979521  0.068170 0.875436 1 0 1.000000
0  -29.420700 -54.712383 37.524746  -0.130504 -0.108194 0.985527  0.065766 0.910967 1 0 1.000000
0  -32.900093 -60.999519 36.225479  -0.174216 -0.116490 0.977793  0.047686 0.878297 1 0 1.000000
skin_0
0  -33.318504 -53.930622 36.963200  -0.180498 -0.125285 0.975564  0.045512 0.915029 1 0 1.000000
0  -32.900093 -60.999519 36.225479  -0.174216 -0.116490 0.977793  0.047686 0.878297 1 0 1.000000
0  -29.420700 -54.712383 37.524746  -0.130504 -0.108194 0.985527  0.065766 0.910967 1 0 1.000000
skin_0
0  -32.900093 -60.999519 36.225479  -0.174216 -0.116490 0.977793  0.047686 0.878297 1 0 1.000000
0  -33.318504 -53.930622 36.963200  -0.180498 -0.125285 0.975564  0.045512 0.915029 1 0 1.000000
0  -36.258369 -60.526058 35.619888  -0.194709 -0.113106 0.974318  0.030236 0.880757 1 0 1.000000
skin_0
0  -36.280392 -53.347054 36.423672  -0.217418 -0.128422 0.967593  0.030121 0.918062 1 0 1.000000
0  -36.258369 -60.526058 35.619888  -0.194709 -0.113106 0.974318  0.030236 0.880757 1 0 1.000000
0  -33.318504 -53.930622 36.963200  -0.180498 -0.125285 0.975564  0.045512 0.915029 1 0 1.000000
skin_0
0  -36.258369 -60.526058 35.619888  -0.194709 -0.113106 0.974318  0.030236 0.880757 1 0 1.000000
0  -36.247360 -67.517876 34.783073  -0.186527 -0.121370 0.974924  0.030293 0.844426 1 0 1.000000
0  -32.900093 -60.999519 36.225479  -0.174216 -0.116490 0.977793  0.047686 0.878297 1 0 1.000000
skin_0
0  -29.420700 -54.712383 37.524746  -0.130504 -0.108194 0.985527  0.065766 0.910967 1 0 1.000000
0  -29.993259 -48.381207 38.273476  -0.121392 -0.131145 0.983903  0.062791 0.943866 1 0 1.000000
0  -33.318504 -53.930622 36.963200  -0.180498 -0.125285 0.975564  0.045512 0.915029 1 0 1.000000
skin_0
0  -33.990158 -46.641510 37.921135  -0.200330 -0.139428 0.969756  0.042022 0.952906 1 0 1.000000
0  -33.318504 -53.930622 36.963200  -0.180498 -0.125285 0.975564  0.045512 0.915029 1 0 1.000000
0  -29.993259 -48.381207 38.273476  -0.121392 -0.131145 0.983903  0.062791 0.943866 1 0 1.000000
skin_0
0  -33.318504 -53.930622 36.963200  -0.180498 -0.125285 0.975564  0.045512 0.915029 1 0 1.000000
0  -33.990158 -46.641510 37.921135  -0.200330 -0.139428 0.969756  0.042022 0.952906 1 0 1.000000
0  -36.280392 -53.347054 36.423672  -0.217418 -0.128422 0.967593  0.030121 0.918062 1 0 1.000000
skin_0
0  -36.258369 -44.747658 37.601822  -0.244624 -0.130997 0.960728  0.030236 0.962747 1 0 1.000000
0  -36.280392 -53.347054 36.423672  -0.217418 -0.128422 0.967593  0.030121 0.918062 1 0 1.000000
0  -33.990158 -46.641510 37.921135  -0.200330 -0.139428 0.969756  0.042022 0.952906 1 0 1.000000
end
