version 1
nodes
0 "root" -1
end
skeleton
time 0
0  0.000000 0.000000 0.000000  0.000000 -0.000000 0.000000
end
triangles
  phy
0  22.694448 125.799332 5.752090  0.099237 0.716657 0.690330  0.000000 0.000000 1 0 1.000000
0  26.882832 125.539284 5.226127  -0.006524 0.672915 0.739691  0.000000 0.000000 1 0 1.000000
0  22.275959 124.109711 4.209858  0.072794 0.458749 0.885579  0.000000 0.000000 1 0 1.000000
  phy
0  26.882832 125.539284 5.226127  -0.006524 0.672915 0.739691  0.000000 0.000000 1 0 1.000000
0  22.694448 125.799332 5.752090  0.099237 0.716657 0.690330  0.000000 0.000000 1 0 1.000000
0  25.945404 126.446663 6.200930  0.010634 0.882240 0.470680  0.000000 0.000000 1 0 1.000000
  phy
0  28.186916 123.877754 3.900622  -0.088653 0.588273 0.803789  0.000000 0.000000 1 0 1.000000
0  26.882832 125.539284 5.226127  -0.006524 0.672915 0.739691  0.000000 0.000000 1 0 1.000000
0  28.889172 125.867104 5.971989  -0.297482 0.741543 0.601347  0.000000 0.000000 1 0 1.000000
  phy
0  26.882832 125.539284 5.226127  -0.006524 0.672915 0.739691  0.000000 0.000000 1 0 1.000000
0  27.403778 126.262962 6.112699  -0.155103 0.885673 0.437637  0.000000 0.000000 1 0 1.000000
0  28.889172 125.867104 5.971989  -0.297482 0.741543 0.601347  0.000000 0.000000 1 0 1.000000
  phy
0  26.882832 125.539284 5.226127  -0.006524 0.672915 0.739691  0.000000 0.000000 1 0 1.000000
0  28.186916 123.877754 3.900622  -0.088653 0.588273 0.803789  0.000000 0.000000 1 0 1.000000
0  22.275959 124.109711 4.209858  0.072794 0.458749 0.885579  0.000000 0.000000 1 0 1.000000
  phy
0  27.403778 126.262962 6.112699  -0.155103 0.885673 0.437637  0.000000 0.000000 1 0 1.000000
0  26.882832 125.539284 5.226127  -0.006524 0.672915 0.739691  0.000000 0.000000 1 0 1.000000
0  25.945404 126.446663 6.200930  0.010634 0.882240 0.470680  0.000000 0.000000 1 0 1.000000
  phy
0  30.805561 124.813576 6.109889  -0.601648 0.593750 0.534304  0.000000 0.000000 1 0 1.000000
0  33.939892 121.934242 7.112084  -0.817801 0.454925 0.352483  0.000000 0.000000 1 0 1.000000
0  33.206558 121.448029 5.608702  -0.641019 0.427107 0.637710  0.000000 0.000000 1 0 1.000000
  phy
0  30.805561 124.813576 6.109889  -0.601648 0.593750 0.534304  0.000000 0.000000 1 0 1.000000
0  31.269032 125.204674 7.239058  -0.654953 0.693685 0.299731  0.000000 0.000000 1 0 1.000000
0  33.939892 121.934242 7.112084  -0.817801 0.454925 0.352483  0.000000 0.000000 1 0 1.000000
  phy
0  30.805561 124.813576 6.109889  -0.601648 0.593750 0.534304  0.000000 0.000000 1 0 1.000000
0  30.186167 124.114258 4.887136  -0.489614 0.526069 0.695362  0.000000 0.000000 1 0 1.000000
0  28.889172 125.867104 5.971989  -0.297482 0.741543 0.601347  0.000000 0.000000 1 0 1.000000
  phy
0  30.805561 124.813576 6.109889  -0.601648 0.593750 0.534304  0.000000 0.000000 1 0 1.000000
0  28.889172 125.867104 5.971989  -0.297482 0.741543 0.601347  0.000000 0.000000 1 0 1.000000
0  31.269032 125.204674 7.239058  -0.654953 0.693685 0.299731  0.000000 0.000000 1 0 1.000000
  phy
0  33.206558 121.448029 5.608702  -0.641019 0.427107 0.637710  0.000000 0.000000 1 0 1.000000
0  30.186167 124.114258 4.887136  -0.489614 0.526069 0.695362  0.000000 0.000000 1 0 1.000000
0  30.805561 124.813576 6.109889  -0.601648 0.593750 0.534304  0.000000 0.000000 1 0 1.000000
  phy
0  -33.429920 120.551315 16.724123  0.339281 0.919237 -0.199730  0.000000 0.000000 1 0 1.000000
0  -34.980270 119.774063 16.782993  0.552834 0.820727 -0.144157  0.000000 0.000000 1 0 1.000000
0  -34.772041 119.240227 19.121084  0.455975 0.794505 -0.401059  0.000000 0.000000 1 0 1.000000
  phy
0  -33.429920 120.551315 16.724123  0.339281 0.919237 -0.199730  0.000000 0.000000 1 0 1.000000
0  -34.772041 119.240227 19.121084  0.455975 0.794505 -0.401059  0.000000 0.000000 1 0 1.000000
0  -33.220634 120.040375 18.742245  0.216006 0.859456 -0.463332  0.000000 0.000000 1 0 1.000000
  phy
0  -33.446079 120.547440 15.787421  0.329371 0.937191 0.114839  0.000000 0.000000 1 0 1.000000
0  -33.429920 120.551315 16.724123  0.339281 0.919237 -0.199730  0.000000 0.000000 1 0 1.000000
0  -31.768700 120.884018 16.648064  0.129495 0.974360 -0.183993  0.000000 0.000000 1 0 1.000000
  phy
0  -33.429920 120.551315 16.724123  0.339281 0.919237 -0.199730  0.000000 0.000000 1 0 1.000000
0  -33.220634 120.040375 18.742245  0.216006 0.859456 -0.463332  0.000000 0.000000 1 0 1.000000
0  -31.768700 120.884018 16.648064  0.129495 0.974360 -0.183993  0.000000 0.000000 1 0 1.000000
  phy
0  -34.980270 119.774063 16.782993  0.552834 0.820727 -0.144157  0.000000 0.000000 1 0 1.000000
0  -33.429920 120.551315 16.724123  0.339281 0.919237 -0.199730  0.000000 0.000000 1 0 1.000000
0  -33.446079 120.547440 15.787421  0.329371 0.937191 0.114839  0.000000 0.000000 1 0 1.000000
  phy
0  -27.137743 120.200508 7.371682  0.108963 0.756592 0.644744  0.000000 0.000000 1 0 1.000000
0  22.694448 125.799332 5.752090  0.099237 0.716657 0.690330  0.000000 0.000000 1 0 1.000000
0  -26.614641 118.654480 5.716416  0.100223 0.633169 0.767497  0.000000 0.000000 1 0 1.000000
  phy
0  22.694448 125.799332 5.752090  0.099237 0.716657 0.690330  0.000000 0.000000 1 0 1.000000
0  22.275959 124.109711 4.209858  0.072794 0.458749 0.885579  0.000000 0.000000 1 0 1.000000
0  -26.614641 118.654480 5.716416  0.100223 0.633169 0.767497  0.000000 0.000000 1 0 1.000000
  phy
0  22.694448 125.799332 5.752090  0.099237 0.716657 0.690330  0.000000 0.000000 1 0 1.000000
0  -27.137743 120.200508 7.371682  0.108963 0.756592 0.644744  0.000000 0.000000 1 0 1.000000
0  22.687799 126.400925 6.559785  0.110957 0.950879 0.288996  0.000000 0.000000 1 0 1.000000
  phy
0  25.945404 126.446663 6.200930  0.010634 0.882240 0.470680  0.000000 0.000000 1 0 1.000000
0  22.694448 125.799332 5.752090  0.099237 0.716657 0.690330  0.000000 0.000000 1 0 1.000000
0  22.687799 126.400925 6.559785  0.110957 0.950879 0.288996  0.000000 0.000000 1 0 1.000000
  phy
0  30.186167 124.114258 4.887136  -0.489614 0.526069 0.695362  0.000000 0.000000 1 0 1.000000
0  28.186916 123.877754 3.900622  -0.088653 0.588273 0.803789  0.000000 0.000000 1 0 1.000000
0  28.889172 125.867104 5.971989  -0.297482 0.741543 0.601347  0.000000 0.000000 1 0 1.000000
  phy
0  28.186916 123.877754 3.900622  -0.088653 0.588273 0.803789  0.000000 0.000000 1 0 1.000000
0  30.186167 124.114258 4.887136  -0.489614 0.526069 0.695362  0.000000 0.000000 1 0 1.000000
0  29.219494 122.949760 3.562162  0.036683 0.206657 0.977726  0.000000 0.000000 1 0 1.000000
  phy
0  22.275959 124.109711 4.209858  0.072794 0.458749 0.885579  0.000000 0.000000 1 0 1.000000
0  28.186916 123.877754 3.900622  -0.088653 0.588273 0.803789  0.000000 0.000000 1 0 1.000000
0  29.219494 122.949760 3.562162  0.036683 0.206657 0.977726  0.000000 0.000000 1 0 1.000000
  phy
0  34.573219 117.631744 4.932187  -0.731833 0.353246 0.582785  0.000000 0.000000 1 0 1.000000
0  32.752045 116.430527 2.451345  0.008681 0.110066 0.993886  0.000000 0.000000 1 0 1.000000
0  33.206558 121.448029 5.608702  -0.641019 0.427107 0.637710  0.000000 0.000000 1 0 1.000000
  phy
0  33.206558 121.448029 5.608702  -0.641019 0.427107 0.637710  0.000000 0.000000 1 0 1.000000
0  32.752045 116.430527 2.451345  0.008681 0.110066 0.993886  0.000000 0.000000 1 0 1.000000
0  31.115685 119.919525 2.911589  0.030074 0.152671 0.987819  0.000000 0.000000 1 0 1.000000
  phy
0  33.939892 121.934242 7.112084  -0.817801 0.454925 0.352483  0.000000 0.000000 1 0 1.000000
0  34.573219 117.631744 4.932187  -0.731833 0.353246 0.582785  0.000000 0.000000 1 0 1.000000
0  33.206558 121.448029 5.608702  -0.641019 0.427107 0.637710  0.000000 0.000000 1 0 1.000000
  phy
0  30.186167 124.114258 4.887136  -0.489614 0.526069 0.695362  0.000000 0.000000 1 0 1.000000
0  33.206558 121.448029 5.608702  -0.641019 0.427107 0.637710  0.000000 0.000000 1 0 1.000000
0  31.115685 119.919525 2.911589  0.030074 0.152671 0.987819  0.000000 0.000000 1 0 1.000000
  phy
0  -34.299713 117.299385 7.166087  0.547124 0.556789 0.625013  0.000000 0.000000 1 0 1.000000
0  -33.203491 119.211845 8.201442  0.482494 0.698908 0.527947  0.000000 0.000000 1 0 1.000000
0  -32.403759 117.435982 5.978594  0.287133 0.557165 0.779180  0.000000 0.000000 1 0 1.000000
  phy
0  -32.403759 117.435982 5.978594  0.287133 0.557165 0.779180  0.000000 0.000000 1 0 1.000000
0  -33.203491 119.211845 8.201442  0.482494 0.698908 0.527947  0.000000 0.000000 1 0 1.000000
0  -31.768192 118.550774 6.700097  0.220098 0.648320 0.728861  0.000000 0.000000 1 0 1.000000
  phy
0  -33.203491 119.211845 8.201442  0.482494 0.698908 0.527947  0.000000 0.000000 1 0 1.000000
0  -31.259487 119.251793 7.248014  0.180283 0.709892 0.680846  0.000000 0.000000 1 0 1.000000
0  -31.768192 118.550774 6.700097  0.220098 0.648320 0.728861  0.000000 0.000000 1 0 1.000000
  phy
0  -31.259487 119.251793 7.248014  0.180283 0.709892 0.680846  0.000000 0.000000 1 0 1.000000
0  -33.203491 119.211845 8.201442  0.482494 0.698908 0.527947  0.000000 0.000000 1 0 1.000000
0  -31.796597 119.848740 8.214222  0.344196 0.859922 0.376912  0.000000 0.000000 1 0 1.000000
  phy
0  -34.894726 117.846199 8.477163  0.828127 0.340636 0.445166  0.000000 0.000000 1 0 1.000000
0  -33.203491 119.211845 8.201442  0.482494 0.698908 0.527947  0.000000 0.000000 1 0 1.000000
0  -34.299713 117.299385 7.166087  0.547124 0.556789 0.625013  0.000000 0.000000 1 0 1.000000
  phy
0  -33.203491 119.211845 8.201442  0.482494 0.698908 0.527947  0.000000 0.000000 1 0 1.000000
0  -33.812469 119.342957 9.634777  0.499610 0.847414 0.179665  0.000000 0.000000 1 0 1.000000
0  -31.796597 119.848740 8.214222  0.344196 0.859922 0.376912  0.000000 0.000000 1 0 1.000000
  phy
0  -33.203491 119.211845 8.201442  0.482494 0.698908 0.527947  0.000000 0.000000 1 0 1.000000
0  -34.894726 117.846199 8.477163  0.828127 0.340636 0.445166  0.000000 0.000000 1 0 1.000000
0  -35.294277 118.116859 9.662712  0.893629 0.378397 0.241335  0.000000 0.000000 1 0 1.000000
  phy
0  -33.812469 119.342957 9.634777  0.499610 0.847414 0.179665  0.000000 0.000000 1 0 1.000000
0  -33.203491 119.211845 8.201442  0.482494 0.698908 0.527947  0.000000 0.000000 1 0 1.000000
0  -35.294277 118.116859 9.662712  0.893629 0.378397 0.241335  0.000000 0.000000 1 0 1.000000
  phy
0  -32.120052 120.097519 9.620893  0.327211 0.931440 0.159227  0.000000 0.000000 1 0 1.000000
0  -30.570480 120.488419 9.607004  0.139463 0.985126 0.100384  0.000000 0.000000 1 0 1.000000
0  -30.387785 120.273666 8.168241  0.184565 0.885606 0.426190  0.000000 0.000000 1 0 1.000000
  phy
0  -31.796597 119.848740 8.214222  0.344196 0.859922 0.376912  0.000000 0.000000 1 0 1.000000
0  -32.120052 120.097519 9.620893  0.327211 0.931440 0.159227  0.000000 0.000000 1 0 1.000000
0  -30.387785 120.273666 8.168241  0.184565 0.885606 0.426190  0.000000 0.000000 1 0 1.000000
  phy
0  -32.120052 120.097519 9.620893  0.327211 0.931440 0.159227  0.000000 0.000000 1 0 1.000000
0  -33.446079 120.547440 15.787421  0.329371 0.937191 0.114839  0.000000 0.000000 1 0 1.000000
0  -30.570480 120.488419 9.607004  0.139463 0.985126 0.100384  0.000000 0.000000 1 0 1.000000
  phy
0  -33.446079 120.547440 15.787421  0.329371 0.937191 0.114839  0.000000 0.000000 1 0 1.000000
0  -32.120052 120.097519 9.620893  0.327211 0.931440 0.159227  0.000000 0.000000 1 0 1.000000
0  -33.812469 119.342957 9.634777  0.499610 0.847414 0.179665  0.000000 0.000000 1 0 1.000000
  phy
0  -33.812469 119.342957 9.634777  0.499610 0.847414 0.179665  0.000000 0.000000 1 0 1.000000
0  -32.120052 120.097519 9.620893  0.327211 0.931440 0.159227  0.000000 0.000000 1 0 1.000000
0  -31.796597 119.848740 8.214222  0.344196 0.859922 0.376912  0.000000 0.000000 1 0 1.000000
  phy
0  -34.980270 119.774063 16.782993  0.552834 0.820727 -0.144157  0.000000 0.000000 1 0 1.000000
0  -33.446079 120.547440 15.787421  0.329371 0.937191 0.114839  0.000000 0.000000 1 0 1.000000
0  -34.977070 119.757072 15.846311  0.597865 0.789191 0.140484  0.000000 0.000000 1 0 1.000000
  phy
0  -34.772041 119.240227 19.121084  0.455975 0.794505 -0.401059  0.000000 0.000000 1 0 1.000000
0  -34.980270 119.774063 16.782993  0.552834 0.820727 -0.144157  0.000000 0.000000 1 0 1.000000
0  -36.245888 118.237312 18.876339  0.868560 0.427955 -0.249914  0.000000 0.000000 1 0 1.000000
  phy
0  -36.245888 118.237312 18.876339  0.868560 0.427955 -0.249914  0.000000 0.000000 1 0 1.000000
0  -34.980270 119.774063 16.782993  0.552834 0.820727 -0.144157  0.000000 0.000000 1 0 1.000000
0  -36.330437 118.537453 16.841356  0.916974 0.397215 -0.037126  0.000000 0.000000 1 0 1.000000
  phy
0  -34.980270 119.774063 16.782993  0.552834 0.820727 -0.144157  0.000000 0.000000 1 0 1.000000
0  -34.977070 119.757072 15.846311  0.597865 0.789191 0.140484  0.000000 0.000000 1 0 1.000000
0  -36.330437 118.537453 16.841356  0.916974 0.397215 -0.037126  0.000000 0.000000 1 0 1.000000
  phy
0  -34.772041 119.240227 19.121084  0.455975 0.794505 -0.401059  0.000000 0.000000 1 0 1.000000
0  -36.245888 118.237312 18.876339  0.868560 0.427955 -0.249914  0.000000 0.000000 1 0 1.000000
0  -35.715069 117.267815 20.585640  0.646183 0.444485 -0.620388  0.000000 0.000000 1 0 1.000000
  phy
0  -34.318882 118.289894 20.499674  0.259547 0.630367 -0.731623  0.000000 0.000000 1 0 1.000000
0  -34.772041 119.240227 19.121084  0.455975 0.794505 -0.401059  0.000000 0.000000 1 0 1.000000
0  -35.715069 117.267815 20.585640  0.646183 0.444485 -0.620388  0.000000 0.000000 1 0 1.000000
  phy
0  -34.772041 119.240227 19.121084  0.455975 0.794505 -0.401059  0.000000 0.000000 1 0 1.000000
0  -34.318882 118.289894 20.499674  0.259547 0.630367 -0.731623  0.000000 0.000000 1 0 1.000000
0  -33.220634 120.040375 18.742245  0.216006 0.859456 -0.463332  0.000000 0.000000 1 0 1.000000
  phy
0  51.576031 86.284256 21.525017  -0.066728 0.054893 -0.996260  0.000000 0.000000 1 0 1.000000
0  29.128897 123.105690 20.780968  -0.088543 0.133580 -0.987075  0.000000 0.000000 1 0 1.000000
0  24.677912 122.911652 21.175507  -0.069755 0.199863 -0.977338  0.000000 0.000000 1 0 1.000000
  phy
0  24.677912 122.911652 21.175507  -0.069755 0.199863 -0.977338  0.000000 0.000000 1 0 1.000000
0  23.842813 122.771004 21.256704  -0.042479 0.098533 -0.994227  0.000000 0.000000 1 0 1.000000
0  51.576031 86.284256 21.525017  -0.066728 0.054893 -0.996260  0.000000 0.000000 1 0 1.000000
  phy
0  24.474173 125.676849 18.631739  0.035905 0.754495 -0.655323  0.000000 0.000000 1 0 1.000000
0  19.721626 125.015739 19.043495  0.054986 0.667158 -0.742884  0.000000 0.000000 1 0 1.000000
0  24.677912 122.911652 21.175507  -0.069755 0.199863 -0.977338  0.000000 0.000000 1 0 1.000000
  phy
0  19.721626 125.015739 19.043495  0.054986 0.667158 -0.742884  0.000000 0.000000 1 0 1.000000
0  23.842813 122.771004 21.256704  -0.042479 0.098533 -0.994227  0.000000 0.000000 1 0 1.000000
0  24.677912 122.911652 21.175507  -0.069755 0.199863 -0.977338  0.000000 0.000000 1 0 1.000000
  phy
0  24.677912 122.911652 21.175507  -0.069755 0.199863 -0.977338  0.000000 0.000000 1 0 1.000000
0  29.128897 123.105690 20.780968  -0.088543 0.133580 -0.987075  0.000000 0.000000 1 0 1.000000
0  27.981737 126.044411 18.326475  -0.022899 0.693770 -0.719832  0.000000 0.000000 1 0 1.000000
  phy
0  24.677912 122.911652 21.175507  -0.069755 0.199863 -0.977338  0.000000 0.000000 1 0 1.000000
0  27.981737 126.044411 18.326475  -0.022899 0.693770 -0.719832  0.000000 0.000000 1 0 1.000000
0  24.474173 125.676849 18.631739  0.035905 0.754495 -0.655323  0.000000 0.000000 1 0 1.000000
  phy
0  29.801207 127.196266 16.420851  -0.064635 0.947461 -0.313274  0.000000 0.000000 1 0 1.000000
0  29.721773 127.636391 14.377187  -0.208243 0.969012 -0.132855  0.000000 0.000000 1 0 1.000000
0  28.286901 127.678497 14.448660  -0.032339 0.995528 -0.088759  0.000000 0.000000 1 0 1.000000
  phy
0  29.801207 127.196266 16.420851  -0.064635 0.947461 -0.313274  0.000000 0.000000 1 0 1.000000
0  28.286901 127.678497 14.448660  -0.032339 0.995528 -0.088759  0.000000 0.000000 1 0 1.000000
0  27.869196 127.682320 14.509295  -0.011218 0.988881 -0.148283  0.000000 0.000000 1 0 1.000000
  phy
0  18.624697 127.727066 14.856962  0.107904 0.990413 -0.086251  0.000000 0.000000 1 0 1.000000
0  27.869196 127.682320 14.509295  -0.011218 0.988881 -0.148283  0.000000 0.000000 1 0 1.000000
0  27.792234 127.645874 13.576455  0.004495 0.991317 0.131415  0.000000 0.000000 1 0 1.000000
  phy
0  27.792234 127.645874 13.576455  0.004495 0.991317 0.131415  0.000000 0.000000 1 0 1.000000
0  27.869196 127.682320 14.509295  -0.011218 0.988881 -0.148283  0.000000 0.000000 1 0 1.000000
0  28.286901 127.678497 14.448660  -0.032339 0.995528 -0.088759  0.000000 0.000000 1 0 1.000000
  phy
0  27.792234 127.645874 13.576455  0.004495 0.991317 0.131415  0.000000 0.000000 1 0 1.000000
0  28.286901 127.678497 14.448660  -0.032339 0.995528 -0.088759  0.000000 0.000000 1 0 1.000000
0  29.647081 127.589348 13.444910  -0.153390 0.971855 0.178801  0.000000 0.000000 1 0 1.000000
  phy
0  29.647081 127.589348 13.444910  -0.153390 0.971855 0.178801  0.000000 0.000000 1 0 1.000000
0  28.286901 127.678497 14.448660  -0.032339 0.995528 -0.088759  0.000000 0.000000 1 0 1.000000
0  29.721773 127.636391 14.377187  -0.208243 0.969012 -0.132855  0.000000 0.000000 1 0 1.000000
  phy
0  31.396679 127.121735 14.250367  -0.417588 0.906686 -0.059510  0.000000 0.000000 1 0 1.000000
0  32.919064 126.137169 14.251492  -0.711863 0.701360 0.036687  0.000000 0.000000 1 0 1.000000
0  31.287161 127.066963 13.367047  -0.439067 0.868991 0.228199  0.000000 0.000000 1 0 1.000000
  phy
0  32.919064 126.137169 14.251492  -0.711863 0.701360 0.036687  0.000000 0.000000 1 0 1.000000
0  31.396679 127.121735 14.250367  -0.417588 0.906686 -0.059510  0.000000 0.000000 1 0 1.000000
0  33.086090 125.926010 16.293097  -0.630961 0.740764 -0.230556  0.000000 0.000000 1 0 1.000000
  phy
0  31.396679 127.121735 14.250367  -0.417588 0.906686 -0.059510  0.000000 0.000000 1 0 1.000000
0  31.495249 126.682526 16.659185  -0.353471 0.877972 -0.322837  0.000000 0.000000 1 0 1.000000
0  33.086090 125.926010 16.293097  -0.630961 0.740764 -0.230556  0.000000 0.000000 1 0 1.000000
  phy
0  31.396679 127.121735 14.250367  -0.417588 0.906686 -0.059510  0.000000 0.000000 1 0 1.000000
0  31.287161 127.066963 13.367047  -0.439067 0.868991 0.228199  0.000000 0.000000 1 0 1.000000
0  29.647081 127.589348 13.444910  -0.153390 0.971855 0.178801  0.000000 0.000000 1 0 1.000000
  phy
0  29.721773 127.636391 14.377187  -0.208243 0.969012 -0.132855  0.000000 0.000000 1 0 1.000000
0  31.396679 127.121735 14.250367  -0.417588 0.906686 -0.059510  0.000000 0.000000 1 0 1.000000
0  29.647081 127.589348 13.444910  -0.153390 0.971855 0.178801  0.000000 0.000000 1 0 1.000000
  phy
0  31.495249 126.682526 16.659185  -0.353471 0.877972 -0.322837  0.000000 0.000000 1 0 1.000000
0  31.396679 127.121735 14.250367  -0.417588 0.906686 -0.059510  0.000000 0.000000 1 0 1.000000
0  29.721773 127.636391 14.377187  -0.208243 0.969012 -0.132855  0.000000 0.000000 1 0 1.000000
  phy
0  35.584866 123.065475 14.292937  -0.823931 0.564501 0.049755  0.000000 0.000000 1 0 1.000000
0  35.515957 122.997292 13.360438  -0.800296 0.544032 0.252102  0.000000 0.000000 1 0 1.000000
0  32.919064 126.137169 14.251492  -0.711863 0.701360 0.036687  0.000000 0.000000 1 0 1.000000
  phy
0  32.919064 126.137169 14.251492  -0.711863 0.701360 0.036687  0.000000 0.000000 1 0 1.000000
0  35.515957 122.997292 13.360438  -0.800296 0.544032 0.252102  0.000000 0.000000 1 0 1.000000
0  32.828377 126.063164 13.323195  -0.671114 0.697678 0.250701  0.000000 0.000000 1 0 1.000000
  phy
0  31.287161 127.066963 13.367047  -0.439067 0.868991 0.228199  0.000000 0.000000 1 0 1.000000
0  32.919064 126.137169 14.251492  -0.711863 0.701360 0.036687  0.000000 0.000000 1 0 1.000000
0  32.828377 126.063164 13.323195  -0.671114 0.697678 0.250701  0.000000 0.000000 1 0 1.000000
  phy
0  32.919064 126.137169 14.251492  -0.711863 0.701360 0.036687  0.000000 0.000000 1 0 1.000000
0  35.822014 122.849770 16.760101  -0.809165 0.581920 -0.081374  0.000000 0.000000 1 0 1.000000
0  35.584866 123.065475 14.292937  -0.823931 0.564501 0.049755  0.000000 0.000000 1 0 1.000000
  phy
0  32.919064 126.137169 14.251492  -0.711863 0.701360 0.036687  0.000000 0.000000 1 0 1.000000
0  33.086090 125.926010 16.293097  -0.630961 0.740764 -0.230556  0.000000 0.000000 1 0 1.000000
0  35.822014 122.849770 16.760101  -0.809165 0.581920 -0.081374  0.000000 0.000000 1 0 1.000000
  phy
0  -26.614641 118.654480 5.716416  0.100223 0.633169 0.767497  0.000000 0.000000 1 0 1.000000
0  22.275959 124.109711 4.209858  0.072794 0.458749 0.885579  0.000000 0.000000 1 0 1.000000
0  -25.821280 118.040138 5.534278  0.052742 0.188597 0.980637  0.000000 0.000000 1 0 1.000000
  phy
0  -25.821280 118.040138 5.534278  0.052742 0.188597 0.980637  0.000000 0.000000 1 0 1.000000
0  22.275959 124.109711 4.209858  0.072794 0.458749 0.885579  0.000000 0.000000 1 0 1.000000
0  29.219494 122.949760 3.562162  0.036683 0.206657 0.977726  0.000000 0.000000 1 0 1.000000
  phy
0  27.403778 126.262962 6.112699  -0.155103 0.885673 0.437637  0.000000 0.000000 1 0 1.000000
0  27.815668 126.628914 7.467684  -0.147448 0.963909 0.221670  0.000000 0.000000 1 0 1.000000
0  29.605730 126.166359 7.328552  -0.328852 0.908587 0.257541  0.000000 0.000000 1 0 1.000000
  phy
0  28.889172 125.867104 5.971989  -0.297482 0.741543 0.601347  0.000000 0.000000 1 0 1.000000
0  27.403778 126.262962 6.112699  -0.155103 0.885673 0.437637  0.000000 0.000000 1 0 1.000000
0  29.605730 126.166359 7.328552  -0.328852 0.908587 0.257541  0.000000 0.000000 1 0 1.000000
  phy
0  27.403778 126.262962 6.112699  -0.155103 0.885673 0.437637  0.000000 0.000000 1 0 1.000000
0  25.945404 126.446663 6.200930  0.010634 0.882240 0.470680  0.000000 0.000000 1 0 1.000000
0  27.815668 126.628914 7.467684  -0.147448 0.963909 0.221670  0.000000 0.000000 1 0 1.000000
  phy
0  -31.259487 119.251793 7.248014  0.180283 0.709892 0.680846  0.000000 0.000000 1 0 1.000000
0  -27.137743 120.200508 7.371682  0.108963 0.756592 0.644744  0.000000 0.000000 1 0 1.000000
0  -26.614641 118.654480 5.716416  0.100223 0.633169 0.767497  0.000000 0.000000 1 0 1.000000
  phy
0  -27.137743 120.200508 7.371682  0.108963 0.756592 0.644744  0.000000 0.000000 1 0 1.000000
0  -31.259487 119.251793 7.248014  0.180283 0.709892 0.680846  0.000000 0.000000 1 0 1.000000
0  -30.387785 120.273666 8.168241  0.184565 0.885606 0.426190  0.000000 0.000000 1 0 1.000000
  phy
0  -27.148222 120.768547 8.203396  0.119958 0.964980 0.233290  0.000000 0.000000 1 0 1.000000
0  -27.137743 120.200508 7.371682  0.108963 0.756592 0.644744  0.000000 0.000000 1 0 1.000000
0  -30.387785 120.273666 8.168241  0.184565 0.885606 0.426190  0.000000 0.000000 1 0 1.000000
  phy
0  -27.137743 120.200508 7.371682  0.108963 0.756592 0.644744  0.000000 0.000000 1 0 1.000000
0  -27.148222 120.768547 8.203396  0.119958 0.964980 0.233290  0.000000 0.000000 1 0 1.000000
0  22.687799 126.400925 6.559785  0.110957 0.950879 0.288996  0.000000 0.000000 1 0 1.000000
  phy
0  30.186167 124.114258 4.887136  -0.489614 0.526069 0.695362  0.000000 0.000000 1 0 1.000000
0  31.115685 119.919525 2.911589  0.030074 0.152671 0.987819  0.000000 0.000000 1 0 1.000000
0  29.219494 122.949760 3.562162  0.036683 0.206657 0.977726  0.000000 0.000000 1 0 1.000000
  phy
0  40.509487 113.054413 18.792149  -0.882374 0.408126 -0.234198  0.000000 0.000000 1 0 1.000000
0  40.512852 113.415154 17.498493  -0.918249 0.395012 0.027999  0.000000 0.000000 1 0 1.000000
0  38.051418 118.514015 18.187042  -0.842174 0.449196 -0.298271  0.000000 0.000000 1 0 1.000000
  phy
0  40.509487 113.054413 18.792149  -0.882374 0.408126 -0.234198  0.000000 0.000000 1 0 1.000000
0  42.171143 109.557503 18.519974  -0.909034 0.400780 -0.114163  0.000000 0.000000 1 0 1.000000
0  40.512852 113.415154 17.498493  -0.918249 0.395012 0.027999  0.000000 0.000000 1 0 1.000000
  phy
0  40.509487 113.054413 18.792149  -0.882374 0.408126 -0.234198  0.000000 0.000000 1 0 1.000000
0  52.772709 84.502464 21.379810  -0.853008 -0.480830 0.202930  0.000000 0.000000 1 0 1.000000
0  42.171143 109.557503 18.519974  -0.909034 0.400780 -0.114163  0.000000 0.000000 1 0 1.000000
  phy
0  41.827374 109.471298 19.930279  -0.871459 0.400090 -0.283703  0.000000 0.000000 1 0 1.000000
0  52.772709 84.502464 21.379810  -0.853008 -0.480830 0.202930  0.000000 0.000000 1 0 1.000000
0  40.509487 113.054413 18.792149  -0.882374 0.408126 -0.234198  0.000000 0.000000 1 0 1.000000
  phy
0  40.509487 113.054413 18.792149  -0.882374 0.408126 -0.234198  0.000000 0.000000 1 0 1.000000
0  41.595531 109.432251 20.562620  -0.713919 0.359035 -0.601176  0.000000 0.000000 1 0 1.000000
0  41.827374 109.471298 19.930279  -0.871459 0.400090 -0.283703  0.000000 0.000000 1 0 1.000000
  phy
0  40.509487 113.054413 18.792149  -0.882374 0.408126 -0.234198  0.000000 0.000000 1 0 1.000000
0  38.051418 118.514015 18.187042  -0.842174 0.449196 -0.298271  0.000000 0.000000 1 0 1.000000
0  41.595531 109.432251 20.562620  -0.713919 0.359035 -0.601176  0.000000 0.000000 1 0 1.000000
  phy
0  -34.511879 116.545082 7.036014  0.776776 0.302327 0.552465  0.000000 0.000000 1 0 1.000000
0  -34.894726 117.846199 8.477163  0.828127 0.340636 0.445166  0.000000 0.000000 1 0 1.000000
0  -34.299713 117.299385 7.166087  0.547124 0.556789 0.625013  0.000000 0.000000 1 0 1.000000
  phy
0  -34.894726 117.846199 8.477163  0.828127 0.340636 0.445166  0.000000 0.000000 1 0 1.000000
0  -34.511879 116.545082 7.036014  0.776776 0.302327 0.552465  0.000000 0.000000 1 0 1.000000
0  -48.393028 81.890305 7.807931  0.847938 0.228574 0.478283  0.000000 0.000000 1 0 1.000000
  phy
0  -34.894726 117.846199 8.477163  0.828127 0.340636 0.445166  0.000000 0.000000 1 0 1.000000
0  -48.393028 81.890305 7.807931  0.847938 0.228574 0.478283  0.000000 0.000000 1 0 1.000000
0  -35.294277 118.116859 9.662712  0.893629 0.378397 0.241335  0.000000 0.000000 1 0 1.000000
  phy
0  -34.511879 116.545082 7.036014  0.776776 0.302327 0.552465  0.000000 0.000000 1 0 1.000000
0  -34.299713 117.299385 7.166087  0.547124 0.556789 0.625013  0.000000 0.000000 1 0 1.000000
0  -33.298698 116.357803 5.698154  0.337906 0.280511 0.898406  0.000000 0.000000 1 0 1.000000
  phy
0  -34.511879 116.545082 7.036014  0.776776 0.302327 0.552465  0.000000 0.000000 1 0 1.000000
0  -33.298698 116.357803 5.698154  0.337906 0.280511 0.898406  0.000000 0.000000 1 0 1.000000
0  -36.926971 104.822250 4.112936  0.131978 0.145195 0.980561  0.000000 0.000000 1 0 1.000000
  phy
0  -34.511879 116.545082 7.036014  0.776776 0.302327 0.552465  0.000000 0.000000 1 0 1.000000
0  -46.425022 81.555374 4.879447  0.794008 0.141979 0.591095  0.000000 0.000000 1 0 1.000000
0  -48.393028 81.890305 7.807931  0.847938 0.228574 0.478283  0.000000 0.000000 1 0 1.000000
  phy
0  -46.425022 81.555374 4.879447  0.794008 0.141979 0.591095  0.000000 0.000000 1 0 1.000000
0  -34.511879 116.545082 7.036014  0.776776 0.302327 0.552465  0.000000 0.000000 1 0 1.000000
0  -36.926971 104.822250 4.112936  0.131978 0.145195 0.980561  0.000000 0.000000 1 0 1.000000
  phy
0  -33.446079 120.547440 15.787421  0.329371 0.937191 0.114839  0.000000 0.000000 1 0 1.000000
0  -33.812469 119.342957 9.634777  0.499610 0.847414 0.179665  0.000000 0.000000 1 0 1.000000
0  -34.977070 119.757072 15.846311  0.597865 0.789191 0.140484  0.000000 0.000000 1 0 1.000000
  phy
0  -33.446079 120.547440 15.787421  0.329371 0.937191 0.114839  0.000000 0.000000 1 0 1.000000
0  -31.623283 120.912033 15.738978  0.137462 0.987366 0.078822  0.000000 0.000000 1 0 1.000000
0  -30.570480 120.488419 9.607004  0.139463 0.985126 0.100384  0.000000 0.000000 1 0 1.000000
  phy
0  -31.623283 120.912033 15.738978  0.137462 0.987366 0.078822  0.000000 0.000000 1 0 1.000000
0  -33.446079 120.547440 15.787421  0.329371 0.937191 0.114839  0.000000 0.000000 1 0 1.000000
0  -31.768700 120.884018 16.648064  0.129495 0.974360 -0.183993  0.000000 0.000000 1 0 1.000000
  phy
0  -34.977070 119.757072 15.846311  0.597865 0.789191 0.140484  0.000000 0.000000 1 0 1.000000
0  -33.812469 119.342957 9.634777  0.499610 0.847414 0.179665  0.000000 0.000000 1 0 1.000000
0  -35.294277 118.116859 9.662712  0.893629 0.378397 0.241335  0.000000 0.000000 1 0 1.000000
  phy
0  -39.117992 110.321648 20.803371  0.819511 0.378647 -0.430149  0.000000 0.000000 1 0 1.000000
0  -36.245888 118.237312 18.876339  0.868560 0.427955 -0.249914  0.000000 0.000000 1 0 1.000000
0  -53.121277 76.015602 23.776932  0.993711 0.093925 0.060968  0.000000 0.000000 1 0 1.000000
  phy
0  -53.121277 76.015602 23.776932  0.993711 0.093925 0.060968  0.000000 0.000000 1 0 1.000000
0  -36.245888 118.237312 18.876339  0.868560 0.427955 -0.249914  0.000000 0.000000 1 0 1.000000
0  -39.442989 110.483246 19.249035  0.920615 0.378945 -0.094170  0.000000 0.000000 1 0 1.000000
  phy
0  -36.245888 118.237312 18.876339  0.868560 0.427955 -0.249914  0.000000 0.000000 1 0 1.000000
0  -36.330437 118.537453 16.841356  0.916974 0.397215 -0.037126  0.000000 0.000000 1 0 1.000000
0  -39.442989 110.483246 19.249035  0.920615 0.378945 -0.094170  0.000000 0.000000 1 0 1.000000
  phy
0  -36.245888 118.237312 18.876339  0.868560 0.427955 -0.249914  0.000000 0.000000 1 0 1.000000
0  -39.117992 110.321648 20.803371  0.819511 0.378647 -0.430149  0.000000 0.000000 1 0 1.000000
0  -35.715069 117.267815 20.585640  0.646183 0.444485 -0.620388  0.000000 0.000000 1 0 1.000000
  phy
0  -34.318882 118.289894 20.499674  0.259547 0.630367 -0.731623  0.000000 0.000000 1 0 1.000000
0  -32.722862 118.830093 20.436937  0.150677 0.654821 -0.740612  0.000000 0.000000 1 0 1.000000
0  -33.220634 120.040375 18.742245  0.216006 0.859456 -0.463332  0.000000 0.000000 1 0 1.000000
  phy
0  -33.220634 120.040375 18.742245  0.216006 0.859456 -0.463332  0.000000 0.000000 1 0 1.000000
0  -32.722862 118.830093 20.436937  0.150677 0.654821 -0.740612  0.000000 0.000000 1 0 1.000000
0  -31.046356 119.153793 20.401928  0.063721 0.676921 -0.733292  0.000000 0.000000 1 0 1.000000
  phy
0  -34.318882 118.289894 20.499674  0.259547 0.630367 -0.731623  0.000000 0.000000 1 0 1.000000
0  -32.871490 115.434418 22.885900  0.010383 0.110336 -0.993840  0.000000 0.000000 1 0 1.000000
0  -32.722862 118.830093 20.436937  0.150677 0.654821 -0.740612  0.000000 0.000000 1 0 1.000000
  phy
0  -32.722862 118.830093 20.436937  0.150677 0.654821 -0.740612  0.000000 0.000000 1 0 1.000000
0  -32.871490 115.434418 22.885900  0.010383 0.110336 -0.993840  0.000000 0.000000 1 0 1.000000
0  -31.046356 119.153793 20.401928  0.063721 0.676921 -0.733292  0.000000 0.000000 1 0 1.000000
  phy
0  27.999626 127.090172 16.870810  0.011690 0.868149 -0.496166  0.000000 0.000000 1 0 1.000000
0  24.474173 125.676849 18.631739  0.035905 0.754495 -0.655323  0.000000 0.000000 1 0 1.000000
0  27.981737 126.044411 18.326475  -0.022899 0.693770 -0.719832  0.000000 0.000000 1 0 1.000000
  phy
0  24.474173 125.676849 18.631739  0.035905 0.754495 -0.655323  0.000000 0.000000 1 0 1.000000
0  27.999626 127.090172 16.870810  0.011690 0.868149 -0.496166  0.000000 0.000000 1 0 1.000000
0  24.295452 126.703964 17.161119  0.054442 0.839663 -0.540372  0.000000 0.000000 1 0 1.000000
  phy
0  29.684261 126.003899 18.195427  -0.108373 0.729717 -0.675106  0.000000 0.000000 1 0 1.000000
0  27.999626 127.090172 16.870810  0.011690 0.868149 -0.496166  0.000000 0.000000 1 0 1.000000
0  27.981737 126.044411 18.326475  -0.022899 0.693770 -0.719832  0.000000 0.000000 1 0 1.000000
  phy
0  27.999626 127.090172 16.870810  0.011690 0.868149 -0.496166  0.000000 0.000000 1 0 1.000000
0  29.684261 126.003899 18.195427  -0.108373 0.729717 -0.675106  0.000000 0.000000 1 0 1.000000
0  29.801207 127.196266 16.420851  -0.064635 0.947461 -0.313274  0.000000 0.000000 1 0 1.000000
  phy
0  24.295452 126.703964 17.161119  0.054442 0.839663 -0.540372  0.000000 0.000000 1 0 1.000000
0  27.999626 127.090172 16.870810  0.011690 0.868149 -0.496166  0.000000 0.000000 1 0 1.000000
0  18.624697 127.727066 14.856962  0.107904 0.990413 -0.086251  0.000000 0.000000 1 0 1.000000
  phy
0  27.999626 127.090172 16.870810  0.011690 0.868149 -0.496166  0.000000 0.000000 1 0 1.000000
0  29.801207 127.196266 16.420851  -0.064635 0.947461 -0.313274  0.000000 0.000000 1 0 1.000000
0  18.624697 127.727066 14.856962  0.107904 0.990413 -0.086251  0.000000 0.000000 1 0 1.000000
  phy
0  29.684261 126.003899 18.195427  -0.108373 0.729717 -0.675106  0.000000 0.000000 1 0 1.000000
0  31.347675 125.738876 18.106924  -0.209258 0.689543 -0.693355  0.000000 0.000000 1 0 1.000000
0  29.801207 127.196266 16.420851  -0.064635 0.947461 -0.313274  0.000000 0.000000 1 0 1.000000
  phy
0  27.981737 126.044411 18.326475  -0.022899 0.693770 -0.719832  0.000000 0.000000 1 0 1.000000
0  29.128897 123.105690 20.780968  -0.088543 0.133580 -0.987075  0.000000 0.000000 1 0 1.000000
0  29.684261 126.003899 18.195427  -0.108373 0.729717 -0.675106  0.000000 0.000000 1 0 1.000000
  phy
0  29.684261 126.003899 18.195427  -0.108373 0.729717 -0.675106  0.000000 0.000000 1 0 1.000000
0  29.128897 123.105690 20.780968  -0.088543 0.133580 -0.987075  0.000000 0.000000 1 0 1.000000
0  31.347675 125.738876 18.106924  -0.209258 0.689543 -0.693355  0.000000 0.000000 1 0 1.000000
  phy
0  24.474173 125.676849 18.631739  0.035905 0.754495 -0.655323  0.000000 0.000000 1 0 1.000000
0  24.295452 126.703964 17.161119  0.054442 0.839663 -0.540372  0.000000 0.000000 1 0 1.000000
0  13.133957 125.294464 18.161627  0.077634 0.820317 -0.566616  0.000000 0.000000 1 0 1.000000
  phy
0  19.721626 125.015739 19.043495  0.054986 0.667158 -0.742884  0.000000 0.000000 1 0 1.000000
0  24.474173 125.676849 18.631739  0.035905 0.754495 -0.655323  0.000000 0.000000 1 0 1.000000
0  13.133957 125.294464 18.161627  0.077634 0.820317 -0.566616  0.000000 0.000000 1 0 1.000000
  phy
0  29.801207 127.196266 16.420851  -0.064635 0.947461 -0.313274  0.000000 0.000000 1 0 1.000000
0  27.869196 127.682320 14.509295  -0.011218 0.988881 -0.148283  0.000000 0.000000 1 0 1.000000
0  18.624697 127.727066 14.856962  0.107904 0.990413 -0.086251  0.000000 0.000000 1 0 1.000000
  phy
0  32.897396 124.966103 18.078249  -0.471631 0.649858 -0.596028  0.000000 0.000000 1 0 1.000000
0  31.495249 126.682526 16.659185  -0.353471 0.877972 -0.322837  0.000000 0.000000 1 0 1.000000
0  31.347675 125.738876 18.106924  -0.209258 0.689543 -0.693355  0.000000 0.000000 1 0 1.000000
  phy
0  31.495249 126.682526 16.659185  -0.353471 0.877972 -0.322837  0.000000 0.000000 1 0 1.000000
0  32.897396 124.966103 18.078249  -0.471631 0.649858 -0.596028  0.000000 0.000000 1 0 1.000000
0  33.086090 125.926010 16.293097  -0.630961 0.740764 -0.230556  0.000000 0.000000 1 0 1.000000
  phy
0  31.347675 125.738876 18.106924  -0.209258 0.689543 -0.693355  0.000000 0.000000 1 0 1.000000
0  31.495249 126.682526 16.659185  -0.353471 0.877972 -0.322837  0.000000 0.000000 1 0 1.000000
0  29.801207 127.196266 16.420851  -0.064635 0.947461 -0.313274  0.000000 0.000000 1 0 1.000000
  phy
0  31.495249 126.682526 16.659185  -0.353471 0.877972 -0.322837  0.000000 0.000000 1 0 1.000000
0  29.721773 127.636391 14.377187  -0.208243 0.969012 -0.132855  0.000000 0.000000 1 0 1.000000
0  29.801207 127.196266 16.420851  -0.064635 0.947461 -0.313274  0.000000 0.000000 1 0 1.000000
  phy
0  35.822014 122.849770 16.760101  -0.809165 0.581920 -0.081374  0.000000 0.000000 1 0 1.000000
0  38.211098 118.620529 16.602375  -0.893704 0.447429 0.033164  0.000000 0.000000 1 0 1.000000
0  35.584866 123.065475 14.292937  -0.823931 0.564501 0.049755  0.000000 0.000000 1 0 1.000000
  phy
0  38.211098 118.620529 16.602375  -0.893704 0.447429 0.033164  0.000000 0.000000 1 0 1.000000
0  35.515957 122.997292 13.360438  -0.800296 0.544032 0.252102  0.000000 0.000000 1 0 1.000000
0  35.584866 123.065475 14.292937  -0.823931 0.564501 0.049755  0.000000 0.000000 1 0 1.000000
  phy
0  25.945404 126.446663 6.200930  0.010634 0.882240 0.470680  0.000000 0.000000 1 0 1.000000
0  22.687799 126.400925 6.559785  0.110957 0.950879 0.288996  0.000000 0.000000 1 0 1.000000
0  26.229033 126.757660 7.604273  0.011734 0.986718 0.162020  0.000000 0.000000 1 0 1.000000
  phy
0  27.815668 126.628914 7.467684  -0.147448 0.963909 0.221670  0.000000 0.000000 1 0 1.000000
0  25.945404 126.446663 6.200930  0.010634 0.882240 0.470680  0.000000 0.000000 1 0 1.000000
0  26.229033 126.757660 7.604273  0.011734 0.986718 0.162020  0.000000 0.000000 1 0 1.000000
  phy
0  -30.570480 120.488419 9.607004  0.139463 0.985126 0.100384  0.000000 0.000000 1 0 1.000000
0  -27.148222 120.768547 8.203396  0.119958 0.964980 0.233290  0.000000 0.000000 1 0 1.000000
0  -30.387785 120.273666 8.168241  0.184565 0.885606 0.426190  0.000000 0.000000 1 0 1.000000
  phy
0  -27.148222 120.768547 8.203396  0.119958 0.964980 0.233290  0.000000 0.000000 1 0 1.000000
0  -30.570480 120.488419 9.607004  0.139463 0.985126 0.100384  0.000000 0.000000 1 0 1.000000
0  18.624697 127.727066 14.856962  0.107904 0.990413 -0.086251  0.000000 0.000000 1 0 1.000000
  phy
0  18.507484 127.534378 13.947999  0.116625 0.970239 0.212214  0.000000 0.000000 1 0 1.000000
0  -27.148222 120.768547 8.203396  0.119958 0.964980 0.233290  0.000000 0.000000 1 0 1.000000
0  18.624697 127.727066 14.856962  0.107904 0.990413 -0.086251  0.000000 0.000000 1 0 1.000000
  phy
0  22.687799 126.400925 6.559785  0.110957 0.950879 0.288996  0.000000 0.000000 1 0 1.000000
0  -27.148222 120.768547 8.203396  0.119958 0.964980 0.233290  0.000000 0.000000 1 0 1.000000
0  18.507484 127.534378 13.947999  0.116625 0.970239 0.212214  0.000000 0.000000 1 0 1.000000
  phy
0  31.287161 127.066963 13.367047  -0.439067 0.868991 0.228199  0.000000 0.000000 1 0 1.000000
0  29.605730 126.166359 7.328552  -0.328852 0.908587 0.257541  0.000000 0.000000 1 0 1.000000
0  29.647081 127.589348 13.444910  -0.153390 0.971855 0.178801  0.000000 0.000000 1 0 1.000000
  phy
0  31.287161 127.066963 13.367047  -0.439067 0.868991 0.228199  0.000000 0.000000 1 0 1.000000
0  32.828377 126.063164 13.323195  -0.671114 0.697678 0.250701  0.000000 0.000000 1 0 1.000000
0  31.269032 125.204674 7.239058  -0.654953 0.693685 0.299731  0.000000 0.000000 1 0 1.000000
  phy
0  31.287161 127.066963 13.367047  -0.439067 0.868991 0.228199  0.000000 0.000000 1 0 1.000000
0  31.269032 125.204674 7.239058  -0.654953 0.693685 0.299731  0.000000 0.000000 1 0 1.000000
0  29.605730 126.166359 7.328552  -0.328852 0.908587 0.257541  0.000000 0.000000 1 0 1.000000
  phy
0  37.799664 118.548737 13.505091  -0.870952 0.406106 0.276623  0.000000 0.000000 1 0 1.000000
0  38.498142 113.266769 8.141459  -0.868946 0.398872 0.292975  0.000000 0.000000 1 0 1.000000
0  33.939892 121.934242 7.112084  -0.817801 0.454925 0.352483  0.000000 0.000000 1 0 1.000000
  phy
0  33.939892 121.934242 7.112084  -0.817801 0.454925 0.352483  0.000000 0.000000 1 0 1.000000
0  35.515957 122.997292 13.360438  -0.800296 0.544032 0.252102  0.000000 0.000000 1 0 1.000000
0  37.799664 118.548737 13.505091  -0.870952 0.406106 0.276623  0.000000 0.000000 1 0 1.000000
  phy
0  33.939892 121.934242 7.112084  -0.817801 0.454925 0.352483  0.000000 0.000000 1 0 1.000000
0  38.498142 113.266769 8.141459  -0.868946 0.398872 0.292975  0.000000 0.000000 1 0 1.000000
0  38.134888 113.259560 7.276629  -0.796804 0.363720 0.482506  0.000000 0.000000 1 0 1.000000
  phy
0  38.134888 113.259560 7.276629  -0.796804 0.363720 0.482506  0.000000 0.000000 1 0 1.000000
0  34.573219 117.631744 4.932187  -0.731833 0.353246 0.582785  0.000000 0.000000 1 0 1.000000
0  33.939892 121.934242 7.112084  -0.817801 0.454925 0.352483  0.000000 0.000000 1 0 1.000000
  phy
0  31.269032 125.204674 7.239058  -0.654953 0.693685 0.299731  0.000000 0.000000 1 0 1.000000
0  35.515957 122.997292 13.360438  -0.800296 0.544032 0.252102  0.000000 0.000000 1 0 1.000000
0  33.939892 121.934242 7.112084  -0.817801 0.454925 0.352483  0.000000 0.000000 1 0 1.000000
  phy
0  36.485474 112.688110 4.425520  -0.745483 0.334571 0.576470  0.000000 0.000000 1 0 1.000000
0  34.573219 117.631744 4.932187  -0.731833 0.353246 0.582785  0.000000 0.000000 1 0 1.000000
0  38.134888 113.259560 7.276629  -0.796804 0.363720 0.482506  0.000000 0.000000 1 0 1.000000
  phy
0  38.134888 113.259560 7.276629  -0.796804 0.363720 0.482506  0.000000 0.000000 1 0 1.000000
0  41.910683 103.802109 6.569494  -0.788630 0.327139 0.520618  0.000000 0.000000 1 0 1.000000
0  36.485474 112.688110 4.425520  -0.745483 0.334571 0.576470  0.000000 0.000000 1 0 1.000000
  phy
0  42.289597 103.944794 7.370712  -0.853226 0.354557 0.382486  0.000000 0.000000 1 0 1.000000
0  41.910683 103.802109 6.569494  -0.788630 0.327139 0.520618  0.000000 0.000000 1 0 1.000000
0  38.134888 113.259560 7.276629  -0.796804 0.363720 0.482506  0.000000 0.000000 1 0 1.000000
  phy
0  38.134888 113.259560 7.276629  -0.796804 0.363720 0.482506  0.000000 0.000000 1 0 1.000000
0  38.498142 113.266769 8.141459  -0.868946 0.398872 0.292975  0.000000 0.000000 1 0 1.000000
0  42.289597 103.944794 7.370712  -0.853226 0.354557 0.382486  0.000000 0.000000 1 0 1.000000
  phy
0  36.485474 112.688110 4.425520  -0.745483 0.334571 0.576470  0.000000 0.000000 1 0 1.000000
0  34.940742 111.070076 1.958104  0.003094 0.072313 0.997377  0.000000 0.000000 1 0 1.000000
0  34.573219 117.631744 4.932187  -0.731833 0.353246 0.582785  0.000000 0.000000 1 0 1.000000
  phy
0  40.099594 103.211075 3.765450  -0.699173 0.281527 0.657191  0.000000 0.000000 1 0 1.000000
0  34.940742 111.070076 1.958104  0.003094 0.072313 0.997377  0.000000 0.000000 1 0 1.000000
0  36.485474 112.688110 4.425520  -0.745483 0.334571 0.576470  0.000000 0.000000 1 0 1.000000
  phy
0  41.910683 103.802109 6.569494  -0.788630 0.327139 0.520618  0.000000 0.000000 1 0 1.000000
0  40.099594 103.211075 3.765450  -0.699173 0.281527 0.657191  0.000000 0.000000 1 0 1.000000
0  36.485474 112.688110 4.425520  -0.745483 0.334571 0.576470  0.000000 0.000000 1 0 1.000000
  phy
0  42.171143 109.557503 18.519974  -0.909034 0.400780 -0.114163  0.000000 0.000000 1 0 1.000000
0  52.772709 84.502464 21.379810  -0.853008 -0.480830 0.202930  0.000000 0.000000 1 0 1.000000
0  40.512852 113.415154 17.498493  -0.918249 0.395012 0.027999  0.000000 0.000000 1 0 1.000000
  phy
0  42.289597 103.944794 7.370712  -0.853226 0.354557 0.382486  0.000000 0.000000 1 0 1.000000
0  38.498142 113.266769 8.141459  -0.868946 0.398872 0.292975  0.000000 0.000000 1 0 1.000000
0  42.487770 104.025650 8.042874  -0.903442 0.366810 0.221907  0.000000 0.000000 1 0 1.000000
  phy
0  42.487770 104.025650 8.042874  -0.903442 0.366810 0.221907  0.000000 0.000000 1 0 1.000000
0  47.832031 89.948082 7.552149  -0.913454 0.323974 0.246258  0.000000 0.000000 1 0 1.000000
0  42.289597 103.944794 7.370712  -0.853226 0.354557 0.382486  0.000000 0.000000 1 0 1.000000
  phy
0  42.289597 103.944794 7.370712  -0.853226 0.354557 0.382486  0.000000 0.000000 1 0 1.000000
0  47.832031 89.948082 7.552149  -0.913454 0.323974 0.246258  0.000000 0.000000 1 0 1.000000
0  41.910683 103.802109 6.569494  -0.788630 0.327139 0.520618  0.000000 0.000000 1 0 1.000000
  phy
0  -33.220634 120.040375 18.742245  0.216006 0.859456 -0.463332  0.000000 0.000000 1 0 1.000000
0  -31.443853 120.376801 18.695137  0.098974 0.886303 -0.452406  0.000000 0.000000 1 0 1.000000
0  -31.768700 120.884018 16.648064  0.129495 0.974360 -0.183993  0.000000 0.000000 1 0 1.000000
  phy
0  -31.768700 120.884018 16.648064  0.129495 0.974360 -0.183993  0.000000 0.000000 1 0 1.000000
0  -31.443853 120.376801 18.695137  0.098974 0.886303 -0.452406  0.000000 0.000000 1 0 1.000000
0  18.624697 127.727066 14.856962  0.107904 0.990413 -0.086251  0.000000 0.000000 1 0 1.000000
  phy
0  -31.443853 120.376801 18.695137  0.098974 0.886303 -0.452406  0.000000 0.000000 1 0 1.000000
0  13.133957 125.294464 18.161627  0.077634 0.820317 -0.566616  0.000000 0.000000 1 0 1.000000
0  18.624697 127.727066 14.856962  0.107904 0.990413 -0.086251  0.000000 0.000000 1 0 1.000000
  phy
0  -31.443853 120.376801 18.695137  0.098974 0.886303 -0.452406  0.000000 0.000000 1 0 1.000000
0  -33.220634 120.040375 18.742245  0.216006 0.859456 -0.463332  0.000000 0.000000 1 0 1.000000
0  -31.046356 119.153793 20.401928  0.063721 0.676921 -0.733292  0.000000 0.000000 1 0 1.000000
  phy
0  -31.443853 120.376801 18.695137  0.098974 0.886303 -0.452406  0.000000 0.000000 1 0 1.000000
0  -31.046356 119.153793 20.401928  0.063721 0.676921 -0.733292  0.000000 0.000000 1 0 1.000000
0  13.133957 125.294464 18.161627  0.077634 0.820317 -0.566616  0.000000 0.000000 1 0 1.000000
  phy
0  -34.299713 117.299385 7.166087  0.547124 0.556789 0.625013  0.000000 0.000000 1 0 1.000000
0  -32.403759 117.435982 5.978594  0.287133 0.557165 0.779180  0.000000 0.000000 1 0 1.000000
0  -33.298698 116.357803 5.698154  0.337906 0.280511 0.898406  0.000000 0.000000 1 0 1.000000
  phy
0  -46.425022 81.555374 4.879447  0.794008 0.141979 0.591095  0.000000 0.000000 1 0 1.000000
0  -36.926971 104.822250 4.112936  0.131978 0.145195 0.980561  0.000000 0.000000 1 0 1.000000
0  -38.284374 100.085320 3.640237  0.063821 0.091295 0.993777  0.000000 0.000000 1 0 1.000000
  phy
0  -46.425022 81.555374 4.879447  0.794008 0.141979 0.591095  0.000000 0.000000 1 0 1.000000
0  -38.284374 100.085320 3.640237  0.063821 0.091295 0.993777  0.000000 0.000000 1 0 1.000000
0  -44.296345 81.100693 2.370333  0.069318 -0.026518 0.997242  0.000000 0.000000 1 0 1.000000
  phy
0  -48.393028 81.890305 7.807931  0.847938 0.228574 0.478283  0.000000 0.000000 1 0 1.000000
0  -46.425022 81.555374 4.879447  0.794008 0.141979 0.591095  0.000000 0.000000 1 0 1.000000
0  -53.121277 76.015602 23.776932  0.993711 0.093925 0.060968  0.000000 0.000000 1 0 1.000000
  phy
0  -46.425022 81.555374 4.879447  0.794008 0.141979 0.591095  0.000000 0.000000 1 0 1.000000
0  -44.296345 81.100693 2.370333  0.069318 -0.026518 0.997242  0.000000 0.000000 1 0 1.000000
0  -53.121277 76.015602 23.776932  0.993711 0.093925 0.060968  0.000000 0.000000 1 0 1.000000
  phy
0  -36.330437 118.537453 16.841356  0.916974 0.397215 -0.037126  0.000000 0.000000 1 0 1.000000
0  -34.977070 119.757072 15.846311  0.597865 0.789191 0.140484  0.000000 0.000000 1 0 1.000000
0  -36.327518 118.508957 15.905847  0.919726 0.366883 0.139643  0.000000 0.000000 1 0 1.000000
  phy
0  -36.327518 118.508957 15.905847  0.919726 0.366883 0.139643  0.000000 0.000000 1 0 1.000000
0  -34.977070 119.757072 15.846311  0.597865 0.789191 0.140484  0.000000 0.000000 1 0 1.000000
0  -35.294277 118.116859 9.662712  0.893629 0.378397 0.241335  0.000000 0.000000 1 0 1.000000
  phy
0  -39.343258 110.570351 16.133604  0.930998 0.347119 0.112919  0.000000 0.000000 1 0 1.000000
0  -36.327518 118.508957 15.905847  0.919726 0.366883 0.139643  0.000000 0.000000 1 0 1.000000
0  -49.222984 81.932945 9.824514  0.926833 0.339302 0.160792  0.000000 0.000000 1 0 1.000000
  phy
0  -36.327518 118.508957 15.905847  0.919726 0.366883 0.139643  0.000000 0.000000 1 0 1.000000
0  -39.343258 110.570351 16.133604  0.930998 0.347119 0.112919  0.000000 0.000000 1 0 1.000000
0  -53.121277 76.015602 23.776932  0.993711 0.093925 0.060968  0.000000 0.000000 1 0 1.000000
  phy
0  -39.343258 110.570351 16.133604  0.930998 0.347119 0.112919  0.000000 0.000000 1 0 1.000000
0  -49.222984 81.932945 9.824514  0.926833 0.339302 0.160792  0.000000 0.000000 1 0 1.000000
0  -53.121277 76.015602 23.776932  0.993711 0.093925 0.060968  0.000000 0.000000 1 0 1.000000
  phy
0  -36.330437 118.537453 16.841356  0.916974 0.397215 -0.037126  0.000000 0.000000 1 0 1.000000
0  -36.327518 118.508957 15.905847  0.919726 0.366883 0.139643  0.000000 0.000000 1 0 1.000000
0  -53.121277 76.015602 23.776932  0.993711 0.093925 0.060968  0.000000 0.000000 1 0 1.000000
  phy
0  -36.330437 118.537453 16.841356  0.916974 0.397215 -0.037126  0.000000 0.000000 1 0 1.000000
0  -53.121277 76.015602 23.776932  0.993711 0.093925 0.060968  0.000000 0.000000 1 0 1.000000
0  -39.442989 110.483246 19.249035  0.920615 0.378945 -0.094170  0.000000 0.000000 1 0 1.000000
  phy
0  -34.318882 118.289894 20.499674  0.259547 0.630367 -0.731623  0.000000 0.000000 1 0 1.000000
0  -35.715069 117.267815 20.585640  0.646183 0.444485 -0.620388  0.000000 0.000000 1 0 1.000000
0  -34.128914 115.092018 22.850206  0.154751 0.162058 -0.974571  0.000000 0.000000 1 0 1.000000
  phy
0  -34.128914 115.092018 22.850206  0.154751 0.162058 -0.974571  0.000000 0.000000 1 0 1.000000
0  -32.871490 115.434418 22.885900  0.010383 0.110336 -0.993840  0.000000 0.000000 1 0 1.000000
0  -34.318882 118.289894 20.499674  0.259547 0.630367 -0.731623  0.000000 0.000000 1 0 1.000000
  phy
0  13.133957 125.294464 18.161627  0.077634 0.820317 -0.566616  0.000000 0.000000 1 0 1.000000
0  24.295452 126.703964 17.161119  0.054442 0.839663 -0.540372  0.000000 0.000000 1 0 1.000000
0  18.624697 127.727066 14.856962  0.107904 0.990413 -0.086251  0.000000 0.000000 1 0 1.000000
  phy
0  32.897396 124.966103 18.078249  -0.471631 0.649858 -0.596028  0.000000 0.000000 1 0 1.000000
0  31.347675 125.738876 18.106924  -0.209258 0.689543 -0.693355  0.000000 0.000000 1 0 1.000000
0  31.932522 122.670448 20.563416  -0.269245 0.575975 -0.771855  0.000000 0.000000 1 0 1.000000
  phy
0  31.932522 122.670448 20.563416  -0.269245 0.575975 -0.771855  0.000000 0.000000 1 0 1.000000
0  34.768864 121.017288 20.436687  -0.413923 0.448919 -0.791921  0.000000 0.000000 1 0 1.000000
0  32.897396 124.966103 18.078249  -0.471631 0.649858 -0.596028  0.000000 0.000000 1 0 1.000000
  phy
0  35.633518 122.383224 18.152887  -0.685209 0.571790 -0.451159  0.000000 0.000000 1 0 1.000000
0  32.897396 124.966103 18.078249  -0.471631 0.649858 -0.596028  0.000000 0.000000 1 0 1.000000
0  34.768864 121.017288 20.436687  -0.413923 0.448919 -0.791921  0.000000 0.000000 1 0 1.000000
  phy
0  32.897396 124.966103 18.078249  -0.471631 0.649858 -0.596028  0.000000 0.000000 1 0 1.000000
0  35.633518 122.383224 18.152887  -0.685209 0.571790 -0.451159  0.000000 0.000000 1 0 1.000000
0  33.086090 125.926010 16.293097  -0.630961 0.740764 -0.230556  0.000000 0.000000 1 0 1.000000
  phy
0  31.347675 125.738876 18.106924  -0.209258 0.689543 -0.693355  0.000000 0.000000 1 0 1.000000
0  29.128897 123.105690 20.780968  -0.088543 0.133580 -0.987075  0.000000 0.000000 1 0 1.000000
0  31.932522 122.670448 20.563416  -0.269245 0.575975 -0.771855  0.000000 0.000000 1 0 1.000000
  phy
0  29.128897 123.105690 20.780968  -0.088543 0.133580 -0.987075  0.000000 0.000000 1 0 1.000000
0  34.768864 121.017288 20.436687  -0.413923 0.448919 -0.791921  0.000000 0.000000 1 0 1.000000
0  31.932522 122.670448 20.563416  -0.269245 0.575975 -0.771855  0.000000 0.000000 1 0 1.000000
  phy
0  -30.570480 120.488419 9.607004  0.139463 0.985126 0.100384  0.000000 0.000000 1 0 1.000000
0  -31.623283 120.912033 15.738978  0.137462 0.987366 0.078822  0.000000 0.000000 1 0 1.000000
0  18.624697 127.727066 14.856962  0.107904 0.990413 -0.086251  0.000000 0.000000 1 0 1.000000
  phy
0  -31.623283 120.912033 15.738978  0.137462 0.987366 0.078822  0.000000 0.000000 1 0 1.000000
0  -31.768700 120.884018 16.648064  0.129495 0.974360 -0.183993  0.000000 0.000000 1 0 1.000000
0  18.624697 127.727066 14.856962  0.107904 0.990413 -0.086251  0.000000 0.000000 1 0 1.000000
  phy
0  -32.403759 117.435982 5.978594  0.287133 0.557165 0.779180  0.000000 0.000000 1 0 1.000000
0  -31.768192 118.550774 6.700097  0.220098 0.648320 0.728861  0.000000 0.000000 1 0 1.000000
0  -26.614641 118.654480 5.716416  0.100223 0.633169 0.767497  0.000000 0.000000 1 0 1.000000
  phy
0  -33.298698 116.357803 5.698154  0.337906 0.280511 0.898406  0.000000 0.000000 1 0 1.000000
0  -32.403759 117.435982 5.978594  0.287133 0.557165 0.779180  0.000000 0.000000 1 0 1.000000
0  -26.614641 118.654480 5.716416  0.100223 0.633169 0.767497  0.000000 0.000000 1 0 1.000000
  phy
0  -31.768192 118.550774 6.700097  0.220098 0.648320 0.728861  0.000000 0.000000 1 0 1.000000
0  -31.259487 119.251793 7.248014  0.180283 0.709892 0.680846  0.000000 0.000000 1 0 1.000000
0  -26.614641 118.654480 5.716416  0.100223 0.633169 0.767497  0.000000 0.000000 1 0 1.000000
  phy
0  -31.259487 119.251793 7.248014  0.180283 0.709892 0.680846  0.000000 0.000000 1 0 1.000000
0  -31.796597 119.848740 8.214222  0.344196 0.859922 0.376912  0.000000 0.000000 1 0 1.000000
0  -30.387785 120.273666 8.168241  0.184565 0.885606 0.426190  0.000000 0.000000 1 0 1.000000
  phy
0  29.219494 122.949760 3.562162  0.036683 0.206657 0.977726  0.000000 0.000000 1 0 1.000000
0  31.115685 119.919525 2.911589  0.030074 0.152671 0.987819  0.000000 0.000000 1 0 1.000000
0  -25.821280 118.040138 5.534278  0.052742 0.188597 0.980637  0.000000 0.000000 1 0 1.000000
  phy
0  -25.821280 118.040138 5.534278  0.052742 0.188597 0.980637  0.000000 0.000000 1 0 1.000000
0  31.115685 119.919525 2.911589  0.030074 0.152671 0.987819  0.000000 0.000000 1 0 1.000000
0  -33.869617 112.842461 5.006899  0.051050 0.148941 0.987527  0.000000 0.000000 1 0 1.000000
  phy
0  -25.821280 118.040138 5.534278  0.052742 0.188597 0.980637  0.000000 0.000000 1 0 1.000000
0  -33.869617 112.842461 5.006899  0.051050 0.148941 0.987527  0.000000 0.000000 1 0 1.000000
0  -33.298698 116.357803 5.698154  0.337906 0.280511 0.898406  0.000000 0.000000 1 0 1.000000
  phy
0  -25.821280 118.040138 5.534278  0.052742 0.188597 0.980637  0.000000 0.000000 1 0 1.000000
0  -33.298698 116.357803 5.698154  0.337906 0.280511 0.898406  0.000000 0.000000 1 0 1.000000
0  -26.614641 118.654480 5.716416  0.100223 0.633169 0.767497  0.000000 0.000000 1 0 1.000000
  phy
0  -33.869617 112.842461 5.006899  0.051050 0.148941 0.987527  0.000000 0.000000 1 0 1.000000
0  31.115685 119.919525 2.911589  0.030074 0.152671 0.987819  0.000000 0.000000 1 0 1.000000
0  -36.926971 104.822250 4.112936  0.131978 0.145195 0.980561  0.000000 0.000000 1 0 1.000000
  phy
0  -33.298698 116.357803 5.698154  0.337906 0.280511 0.898406  0.000000 0.000000 1 0 1.000000
0  -33.869617 112.842461 5.006899  0.051050 0.148941 0.987527  0.000000 0.000000 1 0 1.000000
0  -36.926971 104.822250 4.112936  0.131978 0.145195 0.980561  0.000000 0.000000 1 0 1.000000
  phy
0  35.633518 122.383224 18.152887  -0.685209 0.571790 -0.451159  0.000000 0.000000 1 0 1.000000
0  38.051418 118.514015 18.187042  -0.842174 0.449196 -0.298271  0.000000 0.000000 1 0 1.000000
0  35.822014 122.849770 16.760101  -0.809165 0.581920 -0.081374  0.000000 0.000000 1 0 1.000000
  phy
0  35.822014 122.849770 16.760101  -0.809165 0.581920 -0.081374  0.000000 0.000000 1 0 1.000000
0  38.051418 118.514015 18.187042  -0.842174 0.449196 -0.298271  0.000000 0.000000 1 0 1.000000
0  38.211098 118.620529 16.602375  -0.893704 0.447429 0.033164  0.000000 0.000000 1 0 1.000000
  phy
0  35.822014 122.849770 16.760101  -0.809165 0.581920 -0.081374  0.000000 0.000000 1 0 1.000000
0  33.086090 125.926010 16.293097  -0.630961 0.740764 -0.230556  0.000000 0.000000 1 0 1.000000
0  35.633518 122.383224 18.152887  -0.685209 0.571790 -0.451159  0.000000 0.000000 1 0 1.000000
  phy
0  26.229033 126.757660 7.604273  0.011734 0.986718 0.162020  0.000000 0.000000 1 0 1.000000
0  22.687799 126.400925 6.559785  0.110957 0.950879 0.288996  0.000000 0.000000 1 0 1.000000
0  18.624697 127.727066 14.856962  0.107904 0.990413 -0.086251  0.000000 0.000000 1 0 1.000000
  phy
0  22.687799 126.400925 6.559785  0.110957 0.950879 0.288996  0.000000 0.000000 1 0 1.000000
0  18.507484 127.534378 13.947999  0.116625 0.970239 0.212214  0.000000 0.000000 1 0 1.000000
0  18.624697 127.727066 14.856962  0.107904 0.990413 -0.086251  0.000000 0.000000 1 0 1.000000
  phy
0  26.229033 126.757660 7.604273  0.011734 0.986718 0.162020  0.000000 0.000000 1 0 1.000000
0  27.792234 127.645874 13.576455  0.004495 0.991317 0.131415  0.000000 0.000000 1 0 1.000000
0  29.647081 127.589348 13.444910  -0.153390 0.971855 0.178801  0.000000 0.000000 1 0 1.000000
  phy
0  27.792234 127.645874 13.576455  0.004495 0.991317 0.131415  0.000000 0.000000 1 0 1.000000
0  26.229033 126.757660 7.604273  0.011734 0.986718 0.162020  0.000000 0.000000 1 0 1.000000
0  18.624697 127.727066 14.856962  0.107904 0.990413 -0.086251  0.000000 0.000000 1 0 1.000000
  phy
0  27.815668 126.628914 7.467684  -0.147448 0.963909 0.221670  0.000000 0.000000 1 0 1.000000
0  26.229033 126.757660 7.604273  0.011734 0.986718 0.162020  0.000000 0.000000 1 0 1.000000
0  29.647081 127.589348 13.444910  -0.153390 0.971855 0.178801  0.000000 0.000000 1 0 1.000000
  phy
0  29.605730 126.166359 7.328552  -0.328852 0.908587 0.257541  0.000000 0.000000 1 0 1.000000
0  27.815668 126.628914 7.467684  -0.147448 0.963909 0.221670  0.000000 0.000000 1 0 1.000000
0  29.647081 127.589348 13.444910  -0.153390 0.971855 0.178801  0.000000 0.000000 1 0 1.000000
  phy
0  31.269032 125.204674 7.239058  -0.654953 0.693685 0.299731  0.000000 0.000000 1 0 1.000000
0  28.889172 125.867104 5.971989  -0.297482 0.741543 0.601347  0.000000 0.000000 1 0 1.000000
0  29.605730 126.166359 7.328552  -0.328852 0.908587 0.257541  0.000000 0.000000 1 0 1.000000
  phy
0  32.828377 126.063164 13.323195  -0.671114 0.697678 0.250701  0.000000 0.000000 1 0 1.000000
0  35.515957 122.997292 13.360438  -0.800296 0.544032 0.252102  0.000000 0.000000 1 0 1.000000
0  31.269032 125.204674 7.239058  -0.654953 0.693685 0.299731  0.000000 0.000000 1 0 1.000000
  phy
0  34.573219 117.631744 4.932187  -0.731833 0.353246 0.582785  0.000000 0.000000 1 0 1.000000
0  34.940742 111.070076 1.958104  0.003094 0.072313 0.997377  0.000000 0.000000 1 0 1.000000
0  32.752045 116.430527 2.451345  0.008681 0.110066 0.993886  0.000000 0.000000 1 0 1.000000
  phy
0  37.136513 118.069313 20.449059  -0.239161 0.160011 -0.957705  0.000000 0.000000 1 0 1.000000
0  29.128897 123.105690 20.780968  -0.088543 0.133580 -0.987075  0.000000 0.000000 1 0 1.000000
0  51.576031 86.284256 21.525017  -0.066728 0.054893 -0.996260  0.000000 0.000000 1 0 1.000000
  phy
0  37.136513 118.069313 20.449059  -0.239161 0.160011 -0.957705  0.000000 0.000000 1 0 1.000000
0  34.768864 121.017288 20.436687  -0.413923 0.448919 -0.791921  0.000000 0.000000 1 0 1.000000
0  29.128897 123.105690 20.780968  -0.088543 0.133580 -0.987075  0.000000 0.000000 1 0 1.000000
  phy
0  37.136513 118.069313 20.449059  -0.239161 0.160011 -0.957705  0.000000 0.000000 1 0 1.000000
0  51.576031 86.284256 21.525017  -0.066728 0.054893 -0.996260  0.000000 0.000000 1 0 1.000000
0  41.595531 109.432251 20.562620  -0.713919 0.359035 -0.601176  0.000000 0.000000 1 0 1.000000
  phy
0  37.136513 118.069313 20.449059  -0.239161 0.160011 -0.957705  0.000000 0.000000 1 0 1.000000
0  38.051418 118.514015 18.187042  -0.842174 0.449196 -0.298271  0.000000 0.000000 1 0 1.000000
0  35.633518 122.383224 18.152887  -0.685209 0.571790 -0.451159  0.000000 0.000000 1 0 1.000000
  phy
0  35.633518 122.383224 18.152887  -0.685209 0.571790 -0.451159  0.000000 0.000000 1 0 1.000000
0  34.768864 121.017288 20.436687  -0.413923 0.448919 -0.791921  0.000000 0.000000 1 0 1.000000
0  37.136513 118.069313 20.449059  -0.239161 0.160011 -0.957705  0.000000 0.000000 1 0 1.000000
  phy
0  41.595531 109.432251 20.562620  -0.713919 0.359035 -0.601176  0.000000 0.000000 1 0 1.000000
0  38.051418 118.514015 18.187042  -0.842174 0.449196 -0.298271  0.000000 0.000000 1 0 1.000000
0  37.136513 118.069313 20.449059  -0.239161 0.160011 -0.957705  0.000000 0.000000 1 0 1.000000
  phy
0  41.595531 109.432251 20.562620  -0.713919 0.359035 -0.601176  0.000000 0.000000 1 0 1.000000
0  52.772709 84.502464 21.379810  -0.853008 -0.480830 0.202930  0.000000 0.000000 1 0 1.000000
0  41.827374 109.471298 19.930279  -0.871459 0.400090 -0.283703  0.000000 0.000000 1 0 1.000000
  phy
0  37.938351 118.613762 14.432415  -0.882680 0.454208 0.120710  0.000000 0.000000 1 0 1.000000
0  38.211098 118.620529 16.602375  -0.893704 0.447429 0.033164  0.000000 0.000000 1 0 1.000000
0  37.996639 118.355865 14.037713  -0.911203 0.374272 0.172134  0.000000 0.000000 1 0 1.000000
  phy
0  38.211098 118.620529 16.602375  -0.893704 0.447429 0.033164  0.000000 0.000000 1 0 1.000000
0  40.512852 113.415154 17.498493  -0.918249 0.395012 0.027999  0.000000 0.000000 1 0 1.000000
0  37.996639 118.355865 14.037713  -0.911203 0.374272 0.172134  0.000000 0.000000 1 0 1.000000
  phy
0  38.211098 118.620529 16.602375  -0.893704 0.447429 0.033164  0.000000 0.000000 1 0 1.000000
0  38.051418 118.514015 18.187042  -0.842174 0.449196 -0.298271  0.000000 0.000000 1 0 1.000000
0  40.512852 113.415154 17.498493  -0.918249 0.395012 0.027999  0.000000 0.000000 1 0 1.000000
  phy
0  40.512852 113.415154 17.498493  -0.918249 0.395012 0.027999  0.000000 0.000000 1 0 1.000000
0  52.772709 84.502464 21.379810  -0.853008 -0.480830 0.202930  0.000000 0.000000 1 0 1.000000
0  42.151978 109.479706 17.386988  -0.918279 0.373210 0.132205  0.000000 0.000000 1 0 1.000000
  phy
0  42.151978 109.479706 17.386988  -0.918279 0.373210 0.132205  0.000000 0.000000 1 0 1.000000
0  37.996639 118.355865 14.037713  -0.911203 0.374272 0.172134  0.000000 0.000000 1 0 1.000000
0  40.512852 113.415154 17.498493  -0.918249 0.395012 0.027999  0.000000 0.000000 1 0 1.000000
  phy
0  37.938351 118.613762 14.432415  -0.882680 0.454208 0.120710  0.000000 0.000000 1 0 1.000000
0  35.515957 122.997292 13.360438  -0.800296 0.544032 0.252102  0.000000 0.000000 1 0 1.000000
0  38.211098 118.620529 16.602375  -0.893704 0.447429 0.033164  0.000000 0.000000 1 0 1.000000
  phy
0  37.996639 118.355865 14.037713  -0.911203 0.374272 0.172134  0.000000 0.000000 1 0 1.000000
0  35.515957 122.997292 13.360438  -0.800296 0.544032 0.252102  0.000000 0.000000 1 0 1.000000
0  37.938351 118.613762 14.432415  -0.882680 0.454208 0.120710  0.000000 0.000000 1 0 1.000000
  phy
0  42.487770 104.025650 8.042874  -0.903442 0.366810 0.221907  0.000000 0.000000 1 0 1.000000
0  38.498142 113.266769 8.141459  -0.868946 0.398872 0.292975  0.000000 0.000000 1 0 1.000000
0  37.799664 118.548737 13.505091  -0.870952 0.406106 0.276623  0.000000 0.000000 1 0 1.000000
  phy
0  43.395699 104.820068 13.603498  -0.913745 0.360867 0.186668  0.000000 0.000000 1 0 1.000000
0  47.832031 89.948082 7.552149  -0.913454 0.323974 0.246258  0.000000 0.000000 1 0 1.000000
0  42.487770 104.025650 8.042874  -0.903442 0.366810 0.221907  0.000000 0.000000 1 0 1.000000
  phy
0  37.799664 118.548737 13.505091  -0.870952 0.406106 0.276623  0.000000 0.000000 1 0 1.000000
0  37.996639 118.355865 14.037713  -0.911203 0.374272 0.172134  0.000000 0.000000 1 0 1.000000
0  42.487770 104.025650 8.042874  -0.903442 0.366810 0.221907  0.000000 0.000000 1 0 1.000000
  phy
0  42.487770 104.025650 8.042874  -0.903442 0.366810 0.221907  0.000000 0.000000 1 0 1.000000
0  37.996639 118.355865 14.037713  -0.911203 0.374272 0.172134  0.000000 0.000000 1 0 1.000000
0  43.395699 104.820068 13.603498  -0.913745 0.360867 0.186668  0.000000 0.000000 1 0 1.000000
  phy
0  -49.222984 81.932945 9.824514  0.926833 0.339302 0.160792  0.000000 0.000000 1 0 1.000000
0  -48.393028 81.890305 7.807931  0.847938 0.228574 0.478283  0.000000 0.000000 1 0 1.000000
0  -53.121277 76.015602 23.776932  0.993711 0.093925 0.060968  0.000000 0.000000 1 0 1.000000
  phy
0  -35.294277 118.116859 9.662712  0.893629 0.378397 0.241335  0.000000 0.000000 1 0 1.000000
0  -48.393028 81.890305 7.807931  0.847938 0.228574 0.478283  0.000000 0.000000 1 0 1.000000
0  -49.222984 81.932945 9.824514  0.926833 0.339302 0.160792  0.000000 0.000000 1 0 1.000000
  phy
0  -36.327518 118.508957 15.905847  0.919726 0.366883 0.139643  0.000000 0.000000 1 0 1.000000
0  -35.294277 118.116859 9.662712  0.893629 0.378397 0.241335  0.000000 0.000000 1 0 1.000000
0  -49.222984 81.932945 9.824514  0.926833 0.339302 0.160792  0.000000 0.000000 1 0 1.000000
  phy
0  -51.814880 77.727264 23.888309  -0.017002 0.013144 -0.999769  0.000000 0.000000 1 0 1.000000
0  -34.128914 115.092018 22.850206  0.154751 0.162058 -0.974571  0.000000 0.000000 1 0 1.000000
0  -37.950821 109.848701 22.940536  0.571577 0.297001 -0.764912  0.000000 0.000000 1 0 1.000000
  phy
0  -51.814880 77.727264 23.888309  -0.017002 0.013144 -0.999769  0.000000 0.000000 1 0 1.000000
0  -32.871490 115.434418 22.885900  0.010383 0.110336 -0.993840  0.000000 0.000000 1 0 1.000000
0  -34.128914 115.092018 22.850206  0.154751 0.162058 -0.974571  0.000000 0.000000 1 0 1.000000
  phy
0  -34.128914 115.092018 22.850206  0.154751 0.162058 -0.974571  0.000000 0.000000 1 0 1.000000
0  -35.715069 117.267815 20.585640  0.646183 0.444485 -0.620388  0.000000 0.000000 1 0 1.000000
0  -37.950821 109.848701 22.940536  0.571577 0.297001 -0.764912  0.000000 0.000000 1 0 1.000000
  phy
0  -36.926971 104.822250 4.112936  0.131978 0.145195 0.980561  0.000000 0.000000 1 0 1.000000
0  31.115685 119.919525 2.911589  0.030074 0.152671 0.987819  0.000000 0.000000 1 0 1.000000
0  32.752045 116.430527 2.451345  0.008681 0.110066 0.993886  0.000000 0.000000 1 0 1.000000
  phy
0  -36.926971 104.822250 4.112936  0.131978 0.145195 0.980561  0.000000 0.000000 1 0 1.000000
0  32.752045 116.430527 2.451345  0.008681 0.110066 0.993886  0.000000 0.000000 1 0 1.000000
0  -38.284374 100.085320 3.640237  0.063821 0.091295 0.993777  0.000000 0.000000 1 0 1.000000
  phy
0  32.752045 116.430527 2.451345  0.008681 0.110066 0.993886  0.000000 0.000000 1 0 1.000000
0  34.940742 111.070076 1.958104  0.003094 0.072313 0.997377  0.000000 0.000000 1 0 1.000000
0  -38.284374 100.085320 3.640237  0.063821 0.091295 0.993777  0.000000 0.000000 1 0 1.000000
  phy
0  -38.284374 100.085320 3.640237  0.063821 0.091295 0.993777  0.000000 0.000000 1 0 1.000000
0  34.940742 111.070076 1.958104  0.003094 0.072313 0.997377  0.000000 0.000000 1 0 1.000000
0  -44.296345 81.100693 2.370333  0.069318 -0.026518 0.997242  0.000000 0.000000 1 0 1.000000
  phy
0  51.576031 86.284256 21.525017  -0.066728 0.054893 -0.996260  0.000000 0.000000 1 0 1.000000
0  52.772709 84.502464 21.379810  -0.853008 -0.480830 0.202930  0.000000 0.000000 1 0 1.000000
0  41.595531 109.432251 20.562620  -0.713919 0.359035 -0.601176  0.000000 0.000000 1 0 1.000000
  phy
0  41.910683 103.802109 6.569494  -0.788630 0.327139 0.520618  0.000000 0.000000 1 0 1.000000
0  46.811077 89.852043 5.643689  -0.809449 0.093526 0.579695  0.000000 0.000000 1 0 1.000000
0  40.099594 103.211075 3.765450  -0.699173 0.281527 0.657191  0.000000 0.000000 1 0 1.000000
  phy
0  41.910683 103.802109 6.569494  -0.788630 0.327139 0.520618  0.000000 0.000000 1 0 1.000000
0  47.832031 89.948082 7.552149  -0.913454 0.323974 0.246258  0.000000 0.000000 1 0 1.000000
0  46.811077 89.852043 5.643689  -0.809449 0.093526 0.579695  0.000000 0.000000 1 0 1.000000
  phy
0  37.799664 118.548737 13.505091  -0.870952 0.406106 0.276623  0.000000 0.000000 1 0 1.000000
0  35.515957 122.997292 13.360438  -0.800296 0.544032 0.252102  0.000000 0.000000 1 0 1.000000
0  37.996639 118.355865 14.037713  -0.911203 0.374272 0.172134  0.000000 0.000000 1 0 1.000000
  phy
0  51.470119 87.050797 19.065771  -0.917628 0.355935 0.176830  0.000000 0.000000 1 0 1.000000
0  43.395699 104.820068 13.603498  -0.913745 0.360867 0.186668  0.000000 0.000000 1 0 1.000000
0  42.151978 109.479706 17.386988  -0.918279 0.373210 0.132205  0.000000 0.000000 1 0 1.000000
  phy
0  42.151978 109.479706 17.386988  -0.918279 0.373210 0.132205  0.000000 0.000000 1 0 1.000000
0  52.772709 84.502464 21.379810  -0.853008 -0.480830 0.202930  0.000000 0.000000 1 0 1.000000
0  51.470119 87.050797 19.065771  -0.917628 0.355935 0.176830  0.000000 0.000000 1 0 1.000000
  phy
0  51.470119 87.050797 19.065771  -0.917628 0.355935 0.176830  0.000000 0.000000 1 0 1.000000
0  47.832031 89.948082 7.552149  -0.913454 0.323974 0.246258  0.000000 0.000000 1 0 1.000000
0  43.395699 104.820068 13.603498  -0.913745 0.360867 0.186668  0.000000 0.000000 1 0 1.000000
  phy
0  51.470119 87.050797 19.065771  -0.917628 0.355935 0.176830  0.000000 0.000000 1 0 1.000000
0  52.772709 84.502464 21.379810  -0.853008 -0.480830 0.202930  0.000000 0.000000 1 0 1.000000
0  47.832031 89.948082 7.552149  -0.913454 0.323974 0.246258  0.000000 0.000000 1 0 1.000000
  phy
0  40.099594 103.211075 3.765450  -0.699173 0.281527 0.657191  0.000000 0.000000 1 0 1.000000
0  44.548603 89.489792 2.938154  -0.735000 -0.128772 0.665727  0.000000 0.000000 1 0 1.000000
0  42.165119 89.033287 0.672298  -0.048931 -0.101840 0.993597  0.000000 0.000000 1 0 1.000000
  phy
0  34.940742 111.070076 1.958104  0.003094 0.072313 0.997377  0.000000 0.000000 1 0 1.000000
0  40.099594 103.211075 3.765450  -0.699173 0.281527 0.657191  0.000000 0.000000 1 0 1.000000
0  42.165119 89.033287 0.672298  -0.048931 -0.101840 0.993597  0.000000 0.000000 1 0 1.000000
  phy
0  40.099594 103.211075 3.765450  -0.699173 0.281527 0.657191  0.000000 0.000000 1 0 1.000000
0  46.811077 89.852043 5.643689  -0.809449 0.093526 0.579695  0.000000 0.000000 1 0 1.000000
0  44.548603 89.489792 2.938154  -0.735000 -0.128772 0.665727  0.000000 0.000000 1 0 1.000000
  phy
0  -31.046356 119.153793 20.401928  0.063721 0.676921 -0.733292  0.000000 0.000000 1 0 1.000000
0  10.643399 120.817032 21.982416  -0.018470 0.060375 -0.998005  0.000000 0.000000 1 0 1.000000
0  19.721626 125.015739 19.043495  0.054986 0.667158 -0.742884  0.000000 0.000000 1 0 1.000000
  phy
0  -26.989979 116.537125 22.757309  -0.011041 0.078303 -0.996868  0.000000 0.000000 1 0 1.000000
0  10.643399 120.817032 21.982416  -0.018470 0.060375 -0.998005  0.000000 0.000000 1 0 1.000000
0  -31.046356 119.153793 20.401928  0.063721 0.676921 -0.733292  0.000000 0.000000 1 0 1.000000
  phy
0  -31.046356 119.153793 20.401928  0.063721 0.676921 -0.733292  0.000000 0.000000 1 0 1.000000
0  19.721626 125.015739 19.043495  0.054986 0.667158 -0.742884  0.000000 0.000000 1 0 1.000000
0  13.133957 125.294464 18.161627  0.077634 0.820317 -0.566616  0.000000 0.000000 1 0 1.000000
  phy
0  -31.046356 119.153793 20.401928  0.063721 0.676921 -0.733292  0.000000 0.000000 1 0 1.000000
0  -32.871490 115.434418 22.885900  0.010383 0.110336 -0.993840  0.000000 0.000000 1 0 1.000000
0  -26.989979 116.537125 22.757309  -0.011041 0.078303 -0.996868  0.000000 0.000000 1 0 1.000000
  phy
0  -51.814880 77.727264 23.888309  -0.017002 0.013144 -0.999769  0.000000 0.000000 1 0 1.000000
0  -26.989979 116.537125 22.757309  -0.011041 0.078303 -0.996868  0.000000 0.000000 1 0 1.000000
0  -32.871490 115.434418 22.885900  0.010383 0.110336 -0.993840  0.000000 0.000000 1 0 1.000000
  phy
0  -51.814880 77.727264 23.888309  -0.017002 0.013144 -0.999769  0.000000 0.000000 1 0 1.000000
0  10.643399 120.817032 21.982416  -0.018470 0.060375 -0.998005  0.000000 0.000000 1 0 1.000000
0  -26.989979 116.537125 22.757309  -0.011041 0.078303 -0.996868  0.000000 0.000000 1 0 1.000000
  phy
0  -51.814880 77.727264 23.888309  -0.017002 0.013144 -0.999769  0.000000 0.000000 1 0 1.000000
0  45.260128 82.511848 21.997202  -0.096804 -0.703823 -0.703748  0.000000 0.000000 1 0 1.000000
0  10.643399 120.817032 21.982416  -0.018470 0.060375 -0.998005  0.000000 0.000000 1 0 1.000000
  phy
0  -37.950821 109.848701 22.940536  0.571577 0.297001 -0.764912  0.000000 0.000000 1 0 1.000000
0  -53.121277 76.015602 23.776932  0.993711 0.093925 0.060968  0.000000 0.000000 1 0 1.000000
0  -51.814880 77.727264 23.888309  -0.017002 0.013144 -0.999769  0.000000 0.000000 1 0 1.000000
  phy
0  -53.121277 76.015602 23.776932  0.993711 0.093925 0.060968  0.000000 0.000000 1 0 1.000000
0  -45.706661 73.612396 23.555012  -0.045317 -0.997462 0.054924  0.000000 0.000000 1 0 1.000000
0  -51.814880 77.727264 23.888309  -0.017002 0.013144 -0.999769  0.000000 0.000000 1 0 1.000000
  phy
0  -51.814880 77.727264 23.888309  -0.017002 0.013144 -0.999769  0.000000 0.000000 1 0 1.000000
0  -45.706661 73.612396 23.555012  -0.045317 -0.997462 0.054924  0.000000 0.000000 1 0 1.000000
0  45.260128 82.511848 21.997202  -0.096804 -0.703823 -0.703748  0.000000 0.000000 1 0 1.000000
  phy
0  -37.950821 109.848701 22.940536  0.571577 0.297001 -0.764912  0.000000 0.000000 1 0 1.000000
0  -39.117992 110.321648 20.803371  0.819511 0.378647 -0.430149  0.000000 0.000000 1 0 1.000000
0  -53.121277 76.015602 23.776932  0.993711 0.093925 0.060968  0.000000 0.000000 1 0 1.000000
  phy
0  -39.117992 110.321648 20.803371  0.819511 0.378647 -0.430149  0.000000 0.000000 1 0 1.000000
0  -37.950821 109.848701 22.940536  0.571577 0.297001 -0.764912  0.000000 0.000000 1 0 1.000000
0  -35.715069 117.267815 20.585640  0.646183 0.444485 -0.620388  0.000000 0.000000 1 0 1.000000
  phy
0  19.721626 125.015739 19.043495  0.054986 0.667158 -0.742884  0.000000 0.000000 1 0 1.000000
0  10.643399 120.817032 21.982416  -0.018470 0.060375 -0.998005  0.000000 0.000000 1 0 1.000000
0  23.842813 122.771004 21.256704  -0.042479 0.098533 -0.994227  0.000000 0.000000 1 0 1.000000
  phy
0  45.260128 82.511848 21.997202  -0.096804 -0.703823 -0.703748  0.000000 0.000000 1 0 1.000000
0  52.772709 84.502464 21.379810  -0.853008 -0.480830 0.202930  0.000000 0.000000 1 0 1.000000
0  51.576031 86.284256 21.525017  -0.066728 0.054893 -0.996260  0.000000 0.000000 1 0 1.000000
  phy
0  23.842813 122.771004 21.256704  -0.042479 0.098533 -0.994227  0.000000 0.000000 1 0 1.000000
0  10.643399 120.817032 21.982416  -0.018470 0.060375 -0.998005  0.000000 0.000000 1 0 1.000000
0  51.576031 86.284256 21.525017  -0.066728 0.054893 -0.996260  0.000000 0.000000 1 0 1.000000
  phy
0  51.576031 86.284256 21.525017  -0.066728 0.054893 -0.996260  0.000000 0.000000 1 0 1.000000
0  10.643399 120.817032 21.982416  -0.018470 0.060375 -0.998005  0.000000 0.000000 1 0 1.000000
0  45.260128 82.511848 21.997202  -0.096804 -0.703823 -0.703748  0.000000 0.000000 1 0 1.000000
  phy
0  43.395699 104.820068 13.603498  -0.913745 0.360867 0.186668  0.000000 0.000000 1 0 1.000000
0  37.996639 118.355865 14.037713  -0.911203 0.374272 0.172134  0.000000 0.000000 1 0 1.000000
0  42.151978 109.479706 17.386988  -0.918279 0.373210 0.132205  0.000000 0.000000 1 0 1.000000
  phy
0  46.811077 89.852043 5.643689  -0.809449 0.093526 0.579695  0.000000 0.000000 1 0 1.000000
0  52.772709 84.502464 21.379810  -0.853008 -0.480830 0.202930  0.000000 0.000000 1 0 1.000000
0  44.548603 89.489792 2.938154  -0.735000 -0.128772 0.665727  0.000000 0.000000 1 0 1.000000
  phy
0  52.772709 84.502464 21.379810  -0.853008 -0.480830 0.202930  0.000000 0.000000 1 0 1.000000
0  42.165119 89.033287 0.672298  -0.048931 -0.101840 0.993597  0.000000 0.000000 1 0 1.000000
0  44.548603 89.489792 2.938154  -0.735000 -0.128772 0.665727  0.000000 0.000000 1 0 1.000000
  phy
0  -44.296345 81.100693 2.370333  0.069318 -0.026518 0.997242  0.000000 0.000000 1 0 1.000000
0  -45.706661 73.612396 23.555012  -0.045317 -0.997462 0.054924  0.000000 0.000000 1 0 1.000000
0  -53.121277 76.015602 23.776932  0.993711 0.093925 0.060968  0.000000 0.000000 1 0 1.000000
  phy
0  36.767746 87.623138 1.428966  -0.105777 -0.946517 0.304821  0.000000 0.000000 1 0 1.000000
0  45.260128 82.511848 21.997202  -0.096804 -0.703823 -0.703748  0.000000 0.000000 1 0 1.000000
0  -38.938881 79.374542 2.524080  -0.080116 -0.945766 0.314813  0.000000 0.000000 1 0 1.000000
  phy
0  36.767746 87.623138 1.428966  -0.105777 -0.946517 0.304821  0.000000 0.000000 1 0 1.000000
0  -38.938881 79.374542 2.524080  -0.080116 -0.945766 0.314813  0.000000 0.000000 1 0 1.000000
0  42.165119 89.033287 0.672298  -0.048931 -0.101840 0.993597  0.000000 0.000000 1 0 1.000000
  phy
0  36.767746 87.623138 1.428966  -0.105777 -0.946517 0.304821  0.000000 0.000000 1 0 1.000000
0  42.165119 89.033287 0.672298  -0.048931 -0.101840 0.993597  0.000000 0.000000 1 0 1.000000
0  45.260128 82.511848 21.997202  -0.096804 -0.703823 -0.703748  0.000000 0.000000 1 0 1.000000
  phy
0  -44.296345 81.100693 2.370333  0.069318 -0.026518 0.997242  0.000000 0.000000 1 0 1.000000
0  34.940742 111.070076 1.958104  0.003094 0.072313 0.997377  0.000000 0.000000 1 0 1.000000
0  42.165119 89.033287 0.672298  -0.048931 -0.101840 0.993597  0.000000 0.000000 1 0 1.000000
  phy
0  47.832031 89.948082 7.552149  -0.913454 0.323974 0.246258  0.000000 0.000000 1 0 1.000000
0  52.772709 84.502464 21.379810  -0.853008 -0.480830 0.202930  0.000000 0.000000 1 0 1.000000
0  46.811077 89.852043 5.643689  -0.809449 0.093526 0.579695  0.000000 0.000000 1 0 1.000000
  phy
0  45.260128 82.511848 21.997202  -0.096804 -0.703823 -0.703748  0.000000 0.000000 1 0 1.000000
0  -45.706661 73.612396 23.555012  -0.045317 -0.997462 0.054924  0.000000 0.000000 1 0 1.000000
0  -38.938881 79.374542 2.524080  -0.080116 -0.945766 0.314813  0.000000 0.000000 1 0 1.000000
  phy
0  -38.938881 79.374542 2.524080  -0.080116 -0.945766 0.314813  0.000000 0.000000 1 0 1.000000
0  -44.296345 81.100693 2.370333  0.069318 -0.026518 0.997242  0.000000 0.000000 1 0 1.000000
0  42.165119 89.033287 0.672298  -0.048931 -0.101840 0.993597  0.000000 0.000000 1 0 1.000000
  phy
0  -38.938881 79.374542 2.524080  -0.080116 -0.945766 0.314813  0.000000 0.000000 1 0 1.000000
0  -45.706661 73.612396 23.555012  -0.045317 -0.997462 0.054924  0.000000 0.000000 1 0 1.000000
0  -44.296345 81.100693 2.370333  0.069318 -0.026518 0.997242  0.000000 0.000000 1 0 1.000000
  phy
0  45.260128 82.511848 21.997202  -0.096804 -0.703823 -0.703748  0.000000 0.000000 1 0 1.000000
0  42.165119 89.033287 0.672298  -0.048931 -0.101840 0.993597  0.000000 0.000000 1 0 1.000000
0  52.772709 84.502464 21.379810  -0.853008 -0.480830 0.202930  0.000000 0.000000 1 0 1.000000
end
