version 1
nodes
0 "root" -1
end
skeleton
time 0
0  0.000000 0.000000 0.000000  0.000000 -0.000000 0.000000
end
triangles
lightred
0  13.969772 8.838104 63.785019  0.001117 -0.999998 -0.001573  0.724854 0.184204 1 0 1.000000
0  18.227310 8.841881 64.407310  0.001099 -0.999998 -0.001448  0.520493 0.215546 1 0 1.000000
0  13.968239 8.837112 64.409370  0.001119 -0.999998 -0.001587  0.724854 0.215546 1 0 1.000000
lightred
0  18.229202 8.842773 63.786560  -0.000102 -0.930306 0.366785  0.520493 0.184204 1 0 1.000000
0  18.227310 8.841881 64.407310  0.001099 -0.999998 -0.001448  0.520493 0.215546 1 0 1.000000
0  13.969772 8.838104 63.785019  0.001117 -0.999998 -0.001573  0.724854 0.184204 1 0 1.000000
lightred
0  -22.717377 11.282654 64.450241  -0.553657 -0.832665 -0.011520  0.520493 0.215546 1 0 1.000000
0  -22.718401 11.291924 63.829590  -0.534127 -0.806796 0.252565  0.520493 0.184204 1 0 1.000000
0  -19.370358 9.057693 64.413368  -0.553631 -0.832680 -0.011692  0.724854 0.215546 1 0 1.000000
lightred
0  -19.371075 9.066948 63.789108  -0.553629 -0.832681 -0.011711  0.724854 0.184204 1 0 1.000000
0  -19.370358 9.057693 64.413368  -0.553631 -0.832680 -0.011692  0.724854 0.215546 1 0 1.000000
0  -22.718401 11.291924 63.829590  -0.534127 -0.806796 0.252565  0.520493 0.184204 1 0 1.000000
lightred
0  22.948090 11.282661 64.450241  0.553657 -0.832665 -0.011514  0.520493 0.215546 1 0 1.000000
0  19.601074 9.057701 64.413368  0.553632 -0.832679 -0.011692  0.724854 0.215546 1 0 1.000000
0  22.949123 11.291931 63.829590  0.533618 -0.807132 0.252565  0.520493 0.184204 1 0 1.000000
lightred
0  19.601799 9.066963 63.789108  0.553629 -0.832681 -0.011711  0.724854 0.184204 1 0 1.000000
0  22.949123 11.291931 63.829590  0.533618 -0.807132 0.252565  0.520493 0.184204 1 0 1.000000
0  19.601074 9.057701 64.413368  0.553632 -0.832679 -0.011692  0.724854 0.215546 1 0 1.000000
lightred
0  18.965878 15.860840 64.541351  0.001120 0.999677 0.025400  0.724854 0.215546 1 0 1.000000
0  23.224960 15.856125 64.539085  0.001112 0.999675 0.025459  0.520493 0.215546 1 0 1.000000
0  18.967415 15.876694 63.917274  0.001119 0.999677 0.025406  0.724854 0.184204 1 0 1.000000
lightred
0  23.226852 15.871925 63.918610  0.000707 0.920290 0.391236  0.520493 0.184204 1 0 1.000000
0  18.967415 15.876694 63.917274  0.001119 0.999677 0.025406  0.724854 0.184204 1 0 1.000000
0  23.224960 15.856125 64.539085  0.001112 0.999675 0.025459  0.520493 0.215546 1 0 1.000000
lightred
0  12.968666 15.860840 64.541351  0.001120 0.999677 0.025400  0.724854 0.215546 1 0 1.000000
0  17.227745 15.856125 64.539085  0.001112 0.999675 0.025459  0.520493 0.215546 1 0 1.000000
0  12.970253 15.876694 63.917274  0.001119 0.999677 0.025406  0.724854 0.184204 1 0 1.000000
lightred
0  17.229691 15.871925 63.918610  0.000729 0.920290 0.391236  0.520493 0.184204 1 0 1.000000
0  12.970253 15.876694 63.917274  0.001119 0.999677 0.025406  0.724854 0.184204 1 0 1.000000
0  17.227745 15.856125 64.539085  0.001112 0.999675 0.025459  0.520493 0.215546 1 0 1.000000
lightred
0  -12.737950 15.860840 64.541351  -0.001122 0.999677 0.025400  0.724854 0.215546 1 0 1.000000
0  -12.739486 15.876694 63.917274  -0.001121 0.999677 0.025405  0.724854 0.184204 1 0 1.000000
0  -16.997026 15.856117 64.539085  -0.001115 0.999676 0.025448  0.520493 0.215546 1 0 1.000000
lightred
0  -16.997026 15.856117 64.539085  -0.001115 0.999676 0.025448  0.520493 0.215546 1 0 1.000000
0  -12.739486 15.876694 63.917274  -0.001121 0.999677 0.025405  0.724854 0.184204 1 0 1.000000
0  -16.998922 15.871910 63.918602  0.000086 0.920296 0.391224  0.520493 0.184204 1 0 1.000000
lightred
0  -18.735170 15.860832 64.541351  -0.001120 0.999676 0.025412  0.724854 0.215546 1 0 1.000000
0  -18.736710 15.876694 63.917274  -0.001120 0.999676 0.025415  0.724854 0.184204 1 0 1.000000
0  -22.994246 15.856117 64.539085  -0.001115 0.999675 0.025449  0.520493 0.215546 1 0 1.000000
lightred
0  -22.994246 15.856117 64.539085  -0.001115 0.999675 0.025449  0.520493 0.215546 1 0 1.000000
0  -18.736710 15.876694 63.917274  -0.001120 0.999676 0.025415  0.724854 0.184204 1 0 1.000000
0  -22.996140 15.871910 63.918602  0.000085 0.920296 0.391224  0.520493 0.184204 1 0 1.000000
lightred
0  -13.739042 8.838089 63.785019  -0.001117 -0.999998 -0.001562  0.724854 0.184204 1 0 1.000000
0  -13.737454 8.837105 64.409370  -0.001119 -0.999998 -0.001575  0.724854 0.215546 1 0 1.000000
0  -17.996582 8.841873 64.407310  -0.001100 -0.999998 -0.001447  0.520493 0.215546 1 0 1.000000
lightred
0  -17.996582 8.841873 64.407310  -0.001100 -0.999998 -0.001447  0.520493 0.215546 1 0 1.000000
0  -17.998478 8.842766 63.786560  -0.000693 -0.930305 0.366787  0.520493 0.184204 1 0 1.000000
0  -13.739042 8.838089 63.785019  -0.001117 -0.999998 -0.001562  0.724854 0.184204 1 0 1.000000
end
