version 1
nodes
0 "root" -1
end
skeleton
time 0
0  0.000000 0.000000 0.000000  0.000000 -0.000000 0.000000
end
triangles
  phy
0  -21.381739 95.018082 52.130672  0.019722 -0.384282 -0.923005  0.000000 0.000000 1 0 1.000000
0  -9.705456 96.395950 52.809170  -0.004745 -0.366300 -0.930485  0.000000 0.000000 1 0 1.000000
0  -9.329783 104.892113 55.721931  0.027451 -0.284977 -0.958141  0.000000 0.000000 1 0 1.000000
  phy
0  -9.705456 96.395950 52.809170  -0.004745 -0.366300 -0.930485  0.000000 0.000000 1 0 1.000000
0  -8.008700 104.842827 55.728519  -0.019433 -0.317328 -0.948117  0.000000 0.000000 1 0 1.000000
0  -9.329783 104.892113 55.721931  0.027451 -0.284977 -0.958141  0.000000 0.000000 1 0 1.000000
  phy
0  -20.043278 104.567627 55.008221  0.134008 0.273068 -0.952615  0.000000 0.000000 1 0 1.000000
0  -18.951292 104.065788 55.080608  0.039394 -0.290711 -0.956000  0.000000 0.000000 1 0 1.000000
0  -9.329783 104.892113 55.721931  0.027451 -0.284977 -0.958141  0.000000 0.000000 1 0 1.000000
  phy
0  -20.043278 104.567627 55.008221  0.134008 0.273068 -0.952615  0.000000 0.000000 1 0 1.000000
0  -20.074146 104.014771 55.005795  0.105761 -0.209283 -0.972119  0.000000 0.000000 1 0 1.000000
0  -18.951292 104.065788 55.080608  0.039394 -0.290711 -0.956000  0.000000 0.000000 1 0 1.000000
  phy
0  -9.329783 104.892113 55.721931  0.027451 -0.284977 -0.958141  0.000000 0.000000 1 0 1.000000
0  -8.008700 104.842827 55.728519  -0.019433 -0.317328 -0.948117  0.000000 0.000000 1 0 1.000000
0  0.377027 105.931686 55.688835  -0.030589 0.263818 -0.964087  0.000000 0.000000 1 0 1.000000
  phy
0  -8.008700 104.842827 55.728519  -0.019433 -0.317328 -0.948117  0.000000 0.000000 1 0 1.000000
0  0.390992 105.398201 55.719894  -0.051216 -0.302473 -0.951781  0.000000 0.000000 1 0 1.000000
0  0.377027 105.931686 55.688835  -0.030589 0.263818 -0.964087  0.000000 0.000000 1 0 1.000000
  phy
0  -9.323250 105.440933 55.685818  0.056650 0.350882 -0.934705  0.000000 0.000000 1 0 1.000000
0  -20.043278 104.567627 55.008221  0.134008 0.273068 -0.952615  0.000000 0.000000 1 0 1.000000
0  -9.329783 104.892113 55.721931  0.027451 -0.284977 -0.958141  0.000000 0.000000 1 0 1.000000
  phy
0  -18.951292 104.065788 55.080608  0.039394 -0.290711 -0.956000  0.000000 0.000000 1 0 1.000000
0  -21.381739 95.018082 52.130672  0.019722 -0.384282 -0.923005  0.000000 0.000000 1 0 1.000000
0  -9.329783 104.892113 55.721931  0.027451 -0.284977 -0.958141  0.000000 0.000000 1 0 1.000000
  phy
0  -9.329783 104.892113 55.721931  0.027451 -0.284977 -0.958141  0.000000 0.000000 1 0 1.000000
0  0.377027 105.931686 55.688835  -0.030589 0.263818 -0.964087  0.000000 0.000000 1 0 1.000000
0  -9.323250 105.440933 55.685818  0.056650 0.350882 -0.934705  0.000000 0.000000 1 0 1.000000
  phy
0  10.093879 105.356026 54.935715  -0.105792 -0.271215 -0.956687  0.000000 0.000000 1 0 1.000000
0  9.991817 105.902191 54.911034  -0.115504 0.348558 -0.930143  0.000000 0.000000 1 0 1.000000
0  0.390992 105.398201 55.719894  -0.051216 -0.302473 -0.951781  0.000000 0.000000 1 0 1.000000
  phy
0  9.991817 105.902191 54.911034  -0.115504 0.348558 -0.930143  0.000000 0.000000 1 0 1.000000
0  0.377027 105.931686 55.688835  -0.030589 0.263818 -0.964087  0.000000 0.000000 1 0 1.000000
0  0.390992 105.398201 55.719894  -0.051216 -0.302473 -0.951781  0.000000 0.000000 1 0 1.000000
  phy
0  20.718040 105.540276 53.358063  -0.197439 0.282115 -0.938844  0.000000 0.000000 1 0 1.000000
0  20.317406 108.787804 52.180744  -0.161798 0.462615 -0.871670  0.000000 0.000000 1 0 1.000000
0  9.991817 105.902191 54.911034  -0.115504 0.348558 -0.930143  0.000000 0.000000 1 0 1.000000
  phy
0  9.991817 105.902191 54.911034  -0.115504 0.348558 -0.930143  0.000000 0.000000 1 0 1.000000
0  10.093879 105.356026 54.935715  -0.105792 -0.271215 -0.956687  0.000000 0.000000 1 0 1.000000
0  20.718040 105.540276 53.358063  -0.197439 0.282115 -0.938844  0.000000 0.000000 1 0 1.000000
  phy
0  9.991817 105.902191 54.911034  -0.115504 0.348558 -0.930143  0.000000 0.000000 1 0 1.000000
0  20.317406 108.787804 52.180744  -0.161798 0.462615 -0.871670  0.000000 0.000000 1 0 1.000000
0  9.808935 109.151176 53.451027  -0.113451 0.494081 -0.861982  0.000000 0.000000 1 0 1.000000
  phy
0  9.991817 105.902191 54.911034  -0.115504 0.348558 -0.930143  0.000000 0.000000 1 0 1.000000
0  1.625711 108.339294 54.763309  -0.070351 0.381039 -0.921879  0.000000 0.000000 1 0 1.000000
0  0.377027 105.931686 55.688835  -0.030589 0.263818 -0.964087  0.000000 0.000000 1 0 1.000000
  phy
0  9.808935 109.151176 53.451027  -0.113451 0.494081 -0.861982  0.000000 0.000000 1 0 1.000000
0  2.727946 109.318787 54.190334  -0.092425 0.545611 -0.832927  0.000000 0.000000 1 0 1.000000
0  9.991817 105.902191 54.911034  -0.115504 0.348558 -0.930143  0.000000 0.000000 1 0 1.000000
  phy
0  2.727946 109.318787 54.190334  -0.092425 0.545611 -0.832927  0.000000 0.000000 1 0 1.000000
0  1.625711 108.339294 54.763309  -0.070351 0.381039 -0.921879  0.000000 0.000000 1 0 1.000000
0  9.991817 105.902191 54.911034  -0.115504 0.348558 -0.930143  0.000000 0.000000 1 0 1.000000
  phy
0  -9.351129 108.693527 54.226467  0.067881 0.495155 -0.866149  0.000000 0.000000 1 0 1.000000
0  -19.893866 107.827347 53.808414  0.115008 0.448676 -0.886263  0.000000 0.000000 1 0 1.000000
0  -9.323250 105.440933 55.685818  0.056650 0.350882 -0.934705  0.000000 0.000000 1 0 1.000000
  phy
0  -19.893866 107.827347 53.808414  0.115008 0.448676 -0.886263  0.000000 0.000000 1 0 1.000000
0  -20.043278 104.567627 55.008221  0.134008 0.273068 -0.952615  0.000000 0.000000 1 0 1.000000
0  -9.323250 105.440933 55.685818  0.056650 0.350882 -0.934705  0.000000 0.000000 1 0 1.000000
  phy
0  -9.323250 105.440933 55.685818  0.056650 0.350882 -0.934705  0.000000 0.000000 1 0 1.000000
0  0.292212 108.142891 54.903175  0.009299 0.347985 -0.937454  0.000000 0.000000 1 0 1.000000
0  -2.144376 108.706154 54.653156  0.041661 0.396423 -0.917122  0.000000 0.000000 1 0 1.000000
  phy
0  0.377027 105.931686 55.688835  -0.030589 0.263818 -0.964087  0.000000 0.000000 1 0 1.000000
0  0.292212 108.142891 54.903175  0.009299 0.347985 -0.937454  0.000000 0.000000 1 0 1.000000
0  -9.323250 105.440933 55.685818  0.056650 0.350882 -0.934705  0.000000 0.000000 1 0 1.000000
  phy
0  -9.323250 105.440933 55.685818  0.056650 0.350882 -0.934705  0.000000 0.000000 1 0 1.000000
0  -2.144376 108.706154 54.653156  0.041661 0.396423 -0.917122  0.000000 0.000000 1 0 1.000000
0  -9.351129 108.693527 54.226467  0.067881 0.495155 -0.866149  0.000000 0.000000 1 0 1.000000
  phy
0  20.569689 76.554588 43.763466  -0.061559 -0.391249 -0.918224  0.000000 0.000000 1 0 1.000000
0  17.718813 87.209007 48.068420  -0.065914 -0.351485 -0.933870  0.000000 0.000000 1 0 1.000000
0  20.161644 76.892639 43.924274  -0.043560 -0.372952 -0.926828  0.000000 0.000000 1 0 1.000000
  phy
0  20.569689 76.554588 43.763466  -0.061559 -0.391249 -0.918224  0.000000 0.000000 1 0 1.000000
0  33.534878 76.869171 42.893875  -0.071928 -0.367186 -0.927362  0.000000 0.000000 1 0 1.000000
0  17.718813 87.209007 48.068420  -0.065914 -0.351485 -0.933870  0.000000 0.000000 1 0 1.000000
  phy
0  33.534878 76.869171 42.893875  -0.071928 -0.367186 -0.927362  0.000000 0.000000 1 0 1.000000
0  33.880322 77.787056 43.219559  -0.121933 -0.324175 -0.938106  0.000000 0.000000 1 0 1.000000
0  17.718813 87.209007 48.068420  -0.065914 -0.351485 -0.933870  0.000000 0.000000 1 0 1.000000
  phy
0  9.525779 81.066895 46.097656  -0.041586 -0.368945 -0.928521  0.000000 0.000000 1 0 1.000000
0  9.492683 77.572411 44.577442  -0.002912 -0.519380 -0.854538  0.000000 0.000000 1 0 1.000000
0  20.161644 76.892639 43.924274  -0.043560 -0.372952 -0.926828  0.000000 0.000000 1 0 1.000000
  phy
0  9.525779 81.066895 46.097656  -0.041586 -0.368945 -0.928521  0.000000 0.000000 1 0 1.000000
0  7.796199 80.680565 45.987350  -0.015567 -0.399098 -0.916776  0.000000 0.000000 1 0 1.000000
0  9.492683 77.572411 44.577442  -0.002912 -0.519380 -0.854538  0.000000 0.000000 1 0 1.000000
  phy
0  9.492683 77.572411 44.577442  -0.002912 -0.519380 -0.854538  0.000000 0.000000 1 0 1.000000
0  20.569689 76.554588 43.763466  -0.061559 -0.391249 -0.918224  0.000000 0.000000 1 0 1.000000
0  20.161644 76.892639 43.924274  -0.043560 -0.372952 -0.926828  0.000000 0.000000 1 0 1.000000
  phy
0  20.569689 76.554588 43.763466  -0.061559 -0.391249 -0.918224  0.000000 0.000000 1 0 1.000000
0  9.492683 77.572411 44.577442  -0.002912 -0.519380 -0.854538  0.000000 0.000000 1 0 1.000000
0  33.837341 71.576759 40.629211  -0.011013 -0.536987 -0.843519  0.000000 0.000000 1 0 1.000000
  phy
0  20.569689 76.554588 43.763466  -0.061559 -0.391249 -0.918224  0.000000 0.000000 1 0 1.000000
0  33.837341 71.576759 40.629211  -0.011013 -0.536987 -0.843519  0.000000 0.000000 1 0 1.000000
0  33.534878 76.869171 42.893875  -0.071928 -0.367186 -0.927362  0.000000 0.000000 1 0 1.000000
  phy
0  9.525779 81.066895 46.097656  -0.041586 -0.368945 -0.928521  0.000000 0.000000 1 0 1.000000
0  3.687463 82.907639 46.997349  -0.003133 -0.395652 -0.918395  0.000000 0.000000 1 0 1.000000
0  7.796199 80.680565 45.987350  -0.015567 -0.399098 -0.916776  0.000000 0.000000 1 0 1.000000
  phy
0  9.525779 81.066895 46.097656  -0.041586 -0.368945 -0.928521  0.000000 0.000000 1 0 1.000000
0  0.038866 96.826363 52.724205  -0.035975 -0.355986 -0.933798  0.000000 0.000000 1 0 1.000000
0  3.687463 82.907639 46.997349  -0.003133 -0.395652 -0.918395  0.000000 0.000000 1 0 1.000000
  phy
0  0.038866 96.826363 52.724205  -0.035975 -0.355986 -0.933798  0.000000 0.000000 1 0 1.000000
0  -9.705456 96.395950 52.809170  -0.004745 -0.366300 -0.930485  0.000000 0.000000 1 0 1.000000
0  3.687463 82.907639 46.997349  -0.003133 -0.395652 -0.918395  0.000000 0.000000 1 0 1.000000
  phy
0  0.038866 96.826363 52.724205  -0.035975 -0.355986 -0.933798  0.000000 0.000000 1 0 1.000000
0  9.525779 81.066895 46.097656  -0.041586 -0.368945 -0.928521  0.000000 0.000000 1 0 1.000000
0  17.718813 87.209007 48.068420  -0.065914 -0.351485 -0.933870  0.000000 0.000000 1 0 1.000000
  phy
0  9.525779 81.066895 46.097656  -0.041586 -0.368945 -0.928521  0.000000 0.000000 1 0 1.000000
0  20.161644 76.892639 43.924274  -0.043560 -0.372952 -0.926828  0.000000 0.000000 1 0 1.000000
0  17.718813 87.209007 48.068420  -0.065914 -0.351485 -0.933870  0.000000 0.000000 1 0 1.000000
  phy
0  20.317406 108.787804 52.180744  -0.161798 0.462615 -0.871670  0.000000 0.000000 1 0 1.000000
0  27.879969 110.516212 49.153278  -0.264761 0.730398 -0.629620  0.000000 0.000000 1 0 1.000000
0  19.611441 111.291878 50.546791  -0.167123 0.608165 -0.776019  0.000000 0.000000 1 0 1.000000
  phy
0  19.931841 111.668205 50.006573  -0.156680 0.802277 -0.576023  0.000000 0.000000 1 0 1.000000
0  19.611441 111.291878 50.546791  -0.167123 0.608165 -0.776019  0.000000 0.000000 1 0 1.000000
0  27.879969 110.516212 49.153278  -0.264761 0.730398 -0.629620  0.000000 0.000000 1 0 1.000000
  phy
0  19.611441 111.291878 50.546791  -0.167123 0.608165 -0.776019  0.000000 0.000000 1 0 1.000000
0  16.083836 111.601768 50.842945  -0.103633 0.610532 -0.785182  0.000000 0.000000 1 0 1.000000
0  20.317406 108.787804 52.180744  -0.161798 0.462615 -0.871670  0.000000 0.000000 1 0 1.000000
  phy
0  19.611441 111.291878 50.546791  -0.167123 0.608165 -0.776019  0.000000 0.000000 1 0 1.000000
0  19.931841 111.668205 50.006573  -0.156680 0.802277 -0.576023  0.000000 0.000000 1 0 1.000000
0  16.083836 111.601768 50.842945  -0.103633 0.610532 -0.785182  0.000000 0.000000 1 0 1.000000
  phy
0  20.718040 105.540276 53.358063  -0.197439 0.282115 -0.938844  0.000000 0.000000 1 0 1.000000
0  30.888382 104.033554 51.017635  -0.744493 0.033316 -0.666798  0.000000 0.000000 1 0 1.000000
0  29.296555 104.777908 51.352207  -0.253047 0.261174 -0.931534  0.000000 0.000000 1 0 1.000000
  phy
0  20.718040 105.540276 53.358063  -0.197439 0.282115 -0.938844  0.000000 0.000000 1 0 1.000000
0  20.774586 104.990585 53.352398  -0.169659 -0.194984 -0.966021  0.000000 0.000000 1 0 1.000000
0  30.888382 104.033554 51.017635  -0.744493 0.033316 -0.666798  0.000000 0.000000 1 0 1.000000
  phy
0  29.296555 104.777908 51.352207  -0.253047 0.261174 -0.931534  0.000000 0.000000 1 0 1.000000
0  29.331223 108.032379 50.319687  -0.913169 0.377794 0.152950  0.000000 0.000000 1 0 1.000000
0  20.718040 105.540276 53.358063  -0.197439 0.282115 -0.938844  0.000000 0.000000 1 0 1.000000
  phy
0  20.718040 105.540276 53.358063  -0.197439 0.282115 -0.938844  0.000000 0.000000 1 0 1.000000
0  29.331223 108.032379 50.319687  -0.913169 0.377794 0.152950  0.000000 0.000000 1 0 1.000000
0  20.317406 108.787804 52.180744  -0.161798 0.462615 -0.871670  0.000000 0.000000 1 0 1.000000
  phy
0  10.093879 105.356026 54.935715  -0.105792 -0.271215 -0.956687  0.000000 0.000000 1 0 1.000000
0  20.774586 104.990585 53.352398  -0.169659 -0.194984 -0.966021  0.000000 0.000000 1 0 1.000000
0  20.718040 105.540276 53.358063  -0.197439 0.282115 -0.938844  0.000000 0.000000 1 0 1.000000
  phy
0  20.317406 108.787804 52.180744  -0.161798 0.462615 -0.871670  0.000000 0.000000 1 0 1.000000
0  16.083836 111.601768 50.842945  -0.103633 0.610532 -0.785182  0.000000 0.000000 1 0 1.000000
0  9.808935 109.151176 53.451027  -0.113451 0.494081 -0.861982  0.000000 0.000000 1 0 1.000000
  phy
0  9.808935 109.151176 53.451027  -0.113451 0.494081 -0.861982  0.000000 0.000000 1 0 1.000000
0  16.083836 111.601768 50.842945  -0.103633 0.610532 -0.785182  0.000000 0.000000 1 0 1.000000
0  2.727946 109.318787 54.190334  -0.092425 0.545611 -0.832927  0.000000 0.000000 1 0 1.000000
  phy
0  -2.168092 109.225517 54.375397  0.045618 0.592742 -0.804100  0.000000 0.000000 1 0 1.000000
0  1.625711 108.339294 54.763309  -0.070351 0.381039 -0.921879  0.000000 0.000000 1 0 1.000000
0  0.210485 109.918678 53.926331  -0.016033 0.640997 -0.767376  0.000000 0.000000 1 0 1.000000
  phy
0  1.625711 108.339294 54.763309  -0.070351 0.381039 -0.921879  0.000000 0.000000 1 0 1.000000
0  2.727946 109.318787 54.190334  -0.092425 0.545611 -0.832927  0.000000 0.000000 1 0 1.000000
0  0.210485 109.918678 53.926331  -0.016033 0.640997 -0.767376  0.000000 0.000000 1 0 1.000000
  phy
0  -7.060105 111.574791 52.172089  0.044190 0.813016 -0.580562  0.000000 0.000000 1 0 1.000000
0  -2.168092 109.225517 54.375397  0.045618 0.592742 -0.804100  0.000000 0.000000 1 0 1.000000
0  0.210485 109.918678 53.926331  -0.016033 0.640997 -0.767376  0.000000 0.000000 1 0 1.000000
  phy
0  0.210485 109.918678 53.926331  -0.016033 0.640997 -0.767376  0.000000 0.000000 1 0 1.000000
0  0.088058 111.933228 52.087856  -0.004145 0.815416 -0.578860  0.000000 0.000000 1 0 1.000000
0  -7.060105 111.574791 52.172089  0.044190 0.813016 -0.580562  0.000000 0.000000 1 0 1.000000
  phy
0  0.210485 109.918678 53.926331  -0.016033 0.640997 -0.767376  0.000000 0.000000 1 0 1.000000
0  2.727946 109.318787 54.190334  -0.092425 0.545611 -0.832927  0.000000 0.000000 1 0 1.000000
0  7.234224 111.915520 51.593430  -0.052128 0.815095 -0.576977  0.000000 0.000000 1 0 1.000000
  phy
0  7.234224 111.915520 51.593430  -0.052128 0.815095 -0.576977  0.000000 0.000000 1 0 1.000000
0  0.088058 111.933228 52.087856  -0.004145 0.815416 -0.578860  0.000000 0.000000 1 0 1.000000
0  0.210485 109.918678 53.926331  -0.016033 0.640997 -0.767376  0.000000 0.000000 1 0 1.000000
  phy
0  -19.443001 110.358986 52.127525  0.108752 0.584023 -0.804419  0.000000 0.000000 1 0 1.000000
0  -27.752996 109.187897 51.405064  0.247316 0.718281 -0.650314  0.000000 0.000000 1 0 1.000000
0  -19.893866 107.827347 53.808414  0.115008 0.448676 -0.886263  0.000000 0.000000 1 0 1.000000
  phy
0  -19.443001 110.358986 52.127525  0.108752 0.584023 -0.804419  0.000000 0.000000 1 0 1.000000
0  -19.819340 110.718658 51.614567  0.147668 0.794975 -0.588395  0.000000 0.000000 1 0 1.000000
0  -27.752996 109.187897 51.405064  0.247316 0.718281 -0.650314  0.000000 0.000000 1 0 1.000000
  phy
0  -19.443001 110.358986 52.127525  0.108752 0.584023 -0.804419  0.000000 0.000000 1 0 1.000000
0  -19.893866 107.827347 53.808414  0.115008 0.448676 -0.886263  0.000000 0.000000 1 0 1.000000
0  -9.351129 108.693527 54.226467  0.067881 0.495155 -0.866149  0.000000 0.000000 1 0 1.000000
  phy
0  -9.351129 108.693527 54.226467  0.067881 0.495155 -0.866149  0.000000 0.000000 1 0 1.000000
0  -15.915008 110.836708 52.138157  0.064593 0.624788 -0.778118  0.000000 0.000000 1 0 1.000000
0  -19.443001 110.358986 52.127525  0.108752 0.584023 -0.804419  0.000000 0.000000 1 0 1.000000
  phy
0  -19.819340 110.718658 51.614567  0.147668 0.794975 -0.588395  0.000000 0.000000 1 0 1.000000
0  -19.443001 110.358986 52.127525  0.108752 0.584023 -0.804419  0.000000 0.000000 1 0 1.000000
0  -15.915008 110.836708 52.138157  0.064593 0.624788 -0.778118  0.000000 0.000000 1 0 1.000000
  phy
0  -2.144376 108.706154 54.653156  0.041661 0.396423 -0.917122  0.000000 0.000000 1 0 1.000000
0  -2.168092 109.225517 54.375397  0.045618 0.592742 -0.804100  0.000000 0.000000 1 0 1.000000
0  -9.351129 108.693527 54.226467  0.067881 0.495155 -0.866149  0.000000 0.000000 1 0 1.000000
  phy
0  -2.168092 109.225517 54.375397  0.045618 0.592742 -0.804100  0.000000 0.000000 1 0 1.000000
0  -15.915008 110.836708 52.138157  0.064593 0.624788 -0.778118  0.000000 0.000000 1 0 1.000000
0  -9.351129 108.693527 54.226467  0.067881 0.495155 -0.866149  0.000000 0.000000 1 0 1.000000
  phy
0  33.534878 76.869171 42.893875  -0.071928 -0.367186 -0.927362  0.000000 0.000000 1 0 1.000000
0  33.837341 71.576759 40.629211  -0.011013 -0.536987 -0.843519  0.000000 0.000000 1 0 1.000000
0  33.880322 77.787056 43.219559  -0.121933 -0.324175 -0.938106  0.000000 0.000000 1 0 1.000000
  phy
0  33.837341 71.576759 40.629211  -0.011013 -0.536987 -0.843519  0.000000 0.000000 1 0 1.000000
0  34.641117 71.283981 40.371258  -0.062905 0.032800 0.997480  0.000000 0.000000 1 0 1.000000
0  33.880322 77.787056 43.219559  -0.121933 -0.324175 -0.938106  0.000000 0.000000 1 0 1.000000
  phy
0  17.718813 87.209007 48.068420  -0.065914 -0.351485 -0.933870  0.000000 0.000000 1 0 1.000000
0  9.769171 96.538292 52.110989  -0.071208 -0.327951 -0.942007  0.000000 0.000000 1 0 1.000000
0  0.038866 96.826363 52.724205  -0.035975 -0.355986 -0.933798  0.000000 0.000000 1 0 1.000000
  phy
0  33.880322 77.787056 43.219559  -0.121933 -0.324175 -0.938106  0.000000 0.000000 1 0 1.000000
0  20.596064 95.975204 50.893429  -0.098560 -0.317000 -0.943291  0.000000 0.000000 1 0 1.000000
0  17.718813 87.209007 48.068420  -0.065914 -0.351485 -0.933870  0.000000 0.000000 1 0 1.000000
  phy
0  20.596064 95.975204 50.893429  -0.098560 -0.317000 -0.943291  0.000000 0.000000 1 0 1.000000
0  9.769171 96.538292 52.110989  -0.071208 -0.327951 -0.942007  0.000000 0.000000 1 0 1.000000
0  17.718813 87.209007 48.068420  -0.065914 -0.351485 -0.933870  0.000000 0.000000 1 0 1.000000
  phy
0  0.038866 96.826363 52.724205  -0.035975 -0.355986 -0.933798  0.000000 0.000000 1 0 1.000000
0  -8.008700 104.842827 55.728519  -0.019433 -0.317328 -0.948117  0.000000 0.000000 1 0 1.000000
0  -9.705456 96.395950 52.809170  -0.004745 -0.366300 -0.930485  0.000000 0.000000 1 0 1.000000
  phy
0  0.038866 96.826363 52.724205  -0.035975 -0.355986 -0.933798  0.000000 0.000000 1 0 1.000000
0  0.390992 105.398201 55.719894  -0.051216 -0.302473 -0.951781  0.000000 0.000000 1 0 1.000000
0  -8.008700 104.842827 55.728519  -0.019433 -0.317328 -0.948117  0.000000 0.000000 1 0 1.000000
  phy
0  0.038866 96.826363 52.724205  -0.035975 -0.355986 -0.933798  0.000000 0.000000 1 0 1.000000
0  9.769171 96.538292 52.110989  -0.071208 -0.327951 -0.942007  0.000000 0.000000 1 0 1.000000
0  0.390992 105.398201 55.719894  -0.051216 -0.302473 -0.951781  0.000000 0.000000 1 0 1.000000
  phy
0  -20.074146 104.014771 55.005795  0.105761 -0.209283 -0.972119  0.000000 0.000000 1 0 1.000000
0  -31.633068 94.435516 51.539295  0.043496 -0.400888 -0.915094  0.000000 0.000000 1 0 1.000000
0  -18.951292 104.065788 55.080608  0.039394 -0.290711 -0.956000  0.000000 0.000000 1 0 1.000000
  phy
0  -20.074146 104.014771 55.005795  0.105761 -0.209283 -0.972119  0.000000 0.000000 1 0 1.000000
0  -32.225693 94.456917 51.514206  0.806650 -0.042368 -0.589509  0.000000 0.000000 1 0 1.000000
0  -31.633068 94.435516 51.539295  0.043496 -0.400888 -0.915094  0.000000 0.000000 1 0 1.000000
  phy
0  -30.285971 102.572533 53.493862  0.277525 -0.114969 -0.953815  0.000000 0.000000 1 0 1.000000
0  -32.225693 94.456917 51.514206  0.806650 -0.042368 -0.589509  0.000000 0.000000 1 0 1.000000
0  -20.074146 104.014771 55.005795  0.105761 -0.209283 -0.972119  0.000000 0.000000 1 0 1.000000
  phy
0  -20.043278 104.567627 55.008221  0.134008 0.273068 -0.952615  0.000000 0.000000 1 0 1.000000
0  -30.285971 102.572533 53.493862  0.277525 -0.114969 -0.953815  0.000000 0.000000 1 0 1.000000
0  -20.074146 104.014771 55.005795  0.105761 -0.209283 -0.972119  0.000000 0.000000 1 0 1.000000
  phy
0  -33.856762 71.579956 40.625839  0.020575 -0.509788 -0.860054  0.000000 0.000000 1 0 1.000000
0  -31.633068 94.435516 51.539295  0.043496 -0.400888 -0.915094  0.000000 0.000000 1 0 1.000000
0  -32.225693 94.456917 51.514206  0.806650 -0.042368 -0.589509  0.000000 0.000000 1 0 1.000000
  phy
0  -33.856762 71.579956 40.625839  0.020575 -0.509788 -0.860054  0.000000 0.000000 1 0 1.000000
0  -20.588688 76.556480 43.761375  0.038135 -0.423879 -0.904916  0.000000 0.000000 1 0 1.000000
0  -31.633068 94.435516 51.539295  0.043496 -0.400888 -0.915094  0.000000 0.000000 1 0 1.000000
  phy
0  -20.588688 76.556480 43.761375  0.038135 -0.423879 -0.904916  0.000000 0.000000 1 0 1.000000
0  -21.381739 95.018082 52.130672  0.019722 -0.384282 -0.923005  0.000000 0.000000 1 0 1.000000
0  -31.633068 94.435516 51.539295  0.043496 -0.400888 -0.915094  0.000000 0.000000 1 0 1.000000
  phy
0  -20.588688 76.556480 43.761375  0.038135 -0.423879 -0.904916  0.000000 0.000000 1 0 1.000000
0  -9.512545 77.573227 44.576431  0.011096 -0.436493 -0.899639  0.000000 0.000000 1 0 1.000000
0  -21.381739 95.018082 52.130672  0.019722 -0.384282 -0.923005  0.000000 0.000000 1 0 1.000000
  phy
0  -31.633068 94.435516 51.539295  0.043496 -0.400888 -0.915094  0.000000 0.000000 1 0 1.000000
0  -21.381739 95.018082 52.130672  0.019722 -0.384282 -0.923005  0.000000 0.000000 1 0 1.000000
0  -18.951292 104.065788 55.080608  0.039394 -0.290711 -0.956000  0.000000 0.000000 1 0 1.000000
  phy
0  20.317406 108.787804 52.180744  -0.161798 0.462615 -0.871670  0.000000 0.000000 1 0 1.000000
0  29.331223 108.032379 50.319687  -0.913169 0.377794 0.152950  0.000000 0.000000 1 0 1.000000
0  27.879969 110.516212 49.153278  -0.264761 0.730398 -0.629620  0.000000 0.000000 1 0 1.000000
  phy
0  0.390992 105.398201 55.719894  -0.051216 -0.302473 -0.951781  0.000000 0.000000 1 0 1.000000
0  9.769171 96.538292 52.110989  -0.071208 -0.327951 -0.942007  0.000000 0.000000 1 0 1.000000
0  10.093879 105.356026 54.935715  -0.105792 -0.271215 -0.956687  0.000000 0.000000 1 0 1.000000
  phy
0  10.093879 105.356026 54.935715  -0.105792 -0.271215 -0.956687  0.000000 0.000000 1 0 1.000000
0  9.769171 96.538292 52.110989  -0.071208 -0.327951 -0.942007  0.000000 0.000000 1 0 1.000000
0  20.596064 95.975204 50.893429  -0.098560 -0.317000 -0.943291  0.000000 0.000000 1 0 1.000000
  phy
0  20.596064 95.975204 50.893429  -0.098560 -0.317000 -0.943291  0.000000 0.000000 1 0 1.000000
0  32.167747 94.925888 49.205532  -0.310149 -0.238171 -0.920371  0.000000 0.000000 1 0 1.000000
0  10.093879 105.356026 54.935715  -0.105792 -0.271215 -0.956687  0.000000 0.000000 1 0 1.000000
  phy
0  10.093879 105.356026 54.935715  -0.105792 -0.271215 -0.956687  0.000000 0.000000 1 0 1.000000
0  32.167747 94.925888 49.205532  -0.310149 -0.238171 -0.920371  0.000000 0.000000 1 0 1.000000
0  20.774586 104.990585 53.352398  -0.169659 -0.194984 -0.966021  0.000000 0.000000 1 0 1.000000
  phy
0  7.234224 111.915520 51.593430  -0.052128 0.815095 -0.576977  0.000000 0.000000 1 0 1.000000
0  16.105347 117.645256 41.878983  -0.051069 0.926865 -0.371905  0.000000 0.000000 1 0 1.000000
0  -0.433131 117.881630 42.714073  0.000300 0.865140 -0.501531  0.000000 0.000000 1 0 1.000000
  phy
0  7.234224 111.915520 51.593430  -0.052128 0.815095 -0.576977  0.000000 0.000000 1 0 1.000000
0  -0.433131 117.881630 42.714073  0.000300 0.865140 -0.501531  0.000000 0.000000 1 0 1.000000
0  0.088058 111.933228 52.087856  -0.004145 0.815416 -0.578860  0.000000 0.000000 1 0 1.000000
  phy
0  7.234224 111.915520 51.593430  -0.052128 0.815095 -0.576977  0.000000 0.000000 1 0 1.000000
0  15.990966 111.938499 50.417583  -0.085667 0.824642 -0.559130  0.000000 0.000000 1 0 1.000000
0  16.105347 117.645256 41.878983  -0.051069 0.926865 -0.371905  0.000000 0.000000 1 0 1.000000
  phy
0  15.990966 111.938499 50.417583  -0.085667 0.824642 -0.559130  0.000000 0.000000 1 0 1.000000
0  7.234224 111.915520 51.593430  -0.052128 0.815095 -0.576977  0.000000 0.000000 1 0 1.000000
0  16.083836 111.601768 50.842945  -0.103633 0.610532 -0.785182  0.000000 0.000000 1 0 1.000000
  phy
0  2.727946 109.318787 54.190334  -0.092425 0.545611 -0.832927  0.000000 0.000000 1 0 1.000000
0  16.083836 111.601768 50.842945  -0.103633 0.610532 -0.785182  0.000000 0.000000 1 0 1.000000
0  7.234224 111.915520 51.593430  -0.052128 0.815095 -0.576977  0.000000 0.000000 1 0 1.000000
  phy
0  -2.144376 108.706154 54.653156  0.041661 0.396423 -0.917122  0.000000 0.000000 1 0 1.000000
0  0.292212 108.142891 54.903175  0.009299 0.347985 -0.937454  0.000000 0.000000 1 0 1.000000
0  -2.168092 109.225517 54.375397  0.045618 0.592742 -0.804100  0.000000 0.000000 1 0 1.000000
  phy
0  -16.956703 116.855469 43.217155  0.060007 0.892532 -0.446974  0.000000 0.000000 1 0 1.000000
0  -7.060105 111.574791 52.172089  0.044190 0.813016 -0.580562  0.000000 0.000000 1 0 1.000000
0  -0.433131 117.881630 42.714073  0.000300 0.865140 -0.501531  0.000000 0.000000 1 0 1.000000
  phy
0  -7.060105 111.574791 52.172089  0.044190 0.813016 -0.580562  0.000000 0.000000 1 0 1.000000
0  0.088058 111.933228 52.087856  -0.004145 0.815416 -0.578860  0.000000 0.000000 1 0 1.000000
0  -0.433131 117.881630 42.714073  0.000300 0.865140 -0.501531  0.000000 0.000000 1 0 1.000000
  phy
0  -15.879110 111.177399 51.707577  0.079408 0.820649 -0.565889  0.000000 0.000000 1 0 1.000000
0  -7.060105 111.574791 52.172089  0.044190 0.813016 -0.580562  0.000000 0.000000 1 0 1.000000
0  -16.956703 116.855469 43.217155  0.060007 0.892532 -0.446974  0.000000 0.000000 1 0 1.000000
  phy
0  -7.060105 111.574791 52.172089  0.044190 0.813016 -0.580562  0.000000 0.000000 1 0 1.000000
0  -15.879110 111.177399 51.707577  0.079408 0.820649 -0.565889  0.000000 0.000000 1 0 1.000000
0  -15.915008 110.836708 52.138157  0.064593 0.624788 -0.778118  0.000000 0.000000 1 0 1.000000
  phy
0  -7.060105 111.574791 52.172089  0.044190 0.813016 -0.580562  0.000000 0.000000 1 0 1.000000
0  -15.915008 110.836708 52.138157  0.064593 0.624788 -0.778118  0.000000 0.000000 1 0 1.000000
0  -2.168092 109.225517 54.375397  0.045618 0.592742 -0.804100  0.000000 0.000000 1 0 1.000000
  phy
0  -19.893866 107.827347 53.808414  0.115008 0.448676 -0.886263  0.000000 0.000000 1 0 1.000000
0  -27.752996 109.187897 51.405064  0.247316 0.718281 -0.650314  0.000000 0.000000 1 0 1.000000
0  -28.984127 106.639526 52.680046  0.930809 0.363026 0.042505  0.000000 0.000000 1 0 1.000000
  phy
0  -28.984127 106.639526 52.680046  0.930809 0.363026 0.042505  0.000000 0.000000 1 0 1.000000
0  -20.043278 104.567627 55.008221  0.134008 0.273068 -0.952615  0.000000 0.000000 1 0 1.000000
0  -19.893866 107.827347 53.808414  0.115008 0.448676 -0.886263  0.000000 0.000000 1 0 1.000000
  phy
0  -15.879110 111.177399 51.707577  0.079408 0.820649 -0.565889  0.000000 0.000000 1 0 1.000000
0  -19.819340 110.718658 51.614567  0.147668 0.794975 -0.588395  0.000000 0.000000 1 0 1.000000
0  -15.915008 110.836708 52.138157  0.064593 0.624788 -0.778118  0.000000 0.000000 1 0 1.000000
  phy
0  -19.819340 110.718658 51.614567  0.147668 0.794975 -0.588395  0.000000 0.000000 1 0 1.000000
0  -15.879110 111.177399 51.707577  0.079408 0.820649 -0.565889  0.000000 0.000000 1 0 1.000000
0  -23.072136 116.150894 43.381668  0.248035 0.199902 0.947902  0.000000 0.000000 1 0 1.000000
  phy
0  -15.879110 111.177399 51.707577  0.079408 0.820649 -0.565889  0.000000 0.000000 1 0 1.000000
0  -16.956703 116.855469 43.217155  0.060007 0.892532 -0.446974  0.000000 0.000000 1 0 1.000000
0  -23.072136 116.150894 43.381668  0.248035 0.199902 0.947902  0.000000 0.000000 1 0 1.000000
  phy
0  -19.819340 110.718658 51.614567  0.147668 0.794975 -0.588395  0.000000 0.000000 1 0 1.000000
0  -23.072136 116.150894 43.381668  0.248035 0.199902 0.947902  0.000000 0.000000 1 0 1.000000
0  -27.752996 109.187897 51.405064  0.247316 0.718281 -0.650314  0.000000 0.000000 1 0 1.000000
  phy
0  33.880322 77.787056 43.219559  -0.121933 -0.324175 -0.938106  0.000000 0.000000 1 0 1.000000
0  34.641117 71.283981 40.371258  -0.062905 0.032800 0.997480  0.000000 0.000000 1 0 1.000000
0  32.167747 94.925888 49.205532  -0.310149 -0.238171 -0.920371  0.000000 0.000000 1 0 1.000000
  phy
0  33.880322 77.787056 43.219559  -0.121933 -0.324175 -0.938106  0.000000 0.000000 1 0 1.000000
0  32.167747 94.925888 49.205532  -0.310149 -0.238171 -0.920371  0.000000 0.000000 1 0 1.000000
0  20.596064 95.975204 50.893429  -0.098560 -0.317000 -0.943291  0.000000 0.000000 1 0 1.000000
  phy
0  30.888382 104.033554 51.017635  -0.744493 0.033316 -0.666798  0.000000 0.000000 1 0 1.000000
0  29.331223 108.032379 50.319687  -0.913169 0.377794 0.152950  0.000000 0.000000 1 0 1.000000
0  29.296555 104.777908 51.352207  -0.253047 0.261174 -0.931534  0.000000 0.000000 1 0 1.000000
  phy
0  -28.709980 103.392319 53.700016  0.189113 0.250538 -0.949456  0.000000 0.000000 1 0 1.000000
0  -20.043278 104.567627 55.008221  0.134008 0.273068 -0.952615  0.000000 0.000000 1 0 1.000000
0  -28.984127 106.639526 52.680046  0.930809 0.363026 0.042505  0.000000 0.000000 1 0 1.000000
  phy
0  -28.984127 106.639526 52.680046  0.930809 0.363026 0.042505  0.000000 0.000000 1 0 1.000000
0  -30.285971 102.572533 53.493862  0.277525 -0.114969 -0.953815  0.000000 0.000000 1 0 1.000000
0  -28.709980 103.392319 53.700016  0.189113 0.250538 -0.949456  0.000000 0.000000 1 0 1.000000
  phy
0  -28.709980 103.392319 53.700016  0.189113 0.250538 -0.949456  0.000000 0.000000 1 0 1.000000
0  -30.285971 102.572533 53.493862  0.277525 -0.114969 -0.953815  0.000000 0.000000 1 0 1.000000
0  -20.043278 104.567627 55.008221  0.134008 0.273068 -0.952615  0.000000 0.000000 1 0 1.000000
  phy
0  3.687463 82.907639 46.997349  -0.003133 -0.395652 -0.918395  0.000000 0.000000 1 0 1.000000
0  9.492683 77.572411 44.577442  -0.002912 -0.519380 -0.854538  0.000000 0.000000 1 0 1.000000
0  7.796199 80.680565 45.987350  -0.015567 -0.399098 -0.916776  0.000000 0.000000 1 0 1.000000
  phy
0  3.687463 82.907639 46.997349  -0.003133 -0.395652 -0.918395  0.000000 0.000000 1 0 1.000000
0  -9.512545 77.573227 44.576431  0.011096 -0.436493 -0.899639  0.000000 0.000000 1 0 1.000000
0  9.492683 77.572411 44.577442  -0.002912 -0.519380 -0.854538  0.000000 0.000000 1 0 1.000000
  phy
0  34.641117 71.283981 40.371258  -0.062905 0.032800 0.997480  0.000000 0.000000 1 0 1.000000
0  33.837341 71.576759 40.629211  -0.011013 -0.536987 -0.843519  0.000000 0.000000 1 0 1.000000
0  -34.660496 71.287209 40.367794  0.060032 0.047975 0.997043  0.000000 0.000000 1 0 1.000000
  phy
0  33.837341 71.576759 40.629211  -0.011013 -0.536987 -0.843519  0.000000 0.000000 1 0 1.000000
0  -33.856762 71.579956 40.625839  0.020575 -0.509788 -0.860054  0.000000 0.000000 1 0 1.000000
0  -34.660496 71.287209 40.367794  0.060032 0.047975 0.997043  0.000000 0.000000 1 0 1.000000
  phy
0  33.837341 71.576759 40.629211  -0.011013 -0.536987 -0.843519  0.000000 0.000000 1 0 1.000000
0  9.492683 77.572411 44.577442  -0.002912 -0.519380 -0.854538  0.000000 0.000000 1 0 1.000000
0  -33.856762 71.579956 40.625839  0.020575 -0.509788 -0.860054  0.000000 0.000000 1 0 1.000000
  phy
0  9.492683 77.572411 44.577442  -0.002912 -0.519380 -0.854538  0.000000 0.000000 1 0 1.000000
0  -9.512545 77.573227 44.576431  0.011096 -0.436493 -0.899639  0.000000 0.000000 1 0 1.000000
0  -33.856762 71.579956 40.625839  0.020575 -0.509788 -0.860054  0.000000 0.000000 1 0 1.000000
  phy
0  -33.856762 71.579956 40.625839  0.020575 -0.509788 -0.860054  0.000000 0.000000 1 0 1.000000
0  -9.512545 77.573227 44.576431  0.011096 -0.436493 -0.899639  0.000000 0.000000 1 0 1.000000
0  -20.588688 76.556480 43.761375  0.038135 -0.423879 -0.904916  0.000000 0.000000 1 0 1.000000
  phy
0  -32.225693 94.456917 51.514206  0.806650 -0.042368 -0.589509  0.000000 0.000000 1 0 1.000000
0  -34.660496 71.287209 40.367794  0.060032 0.047975 0.997043  0.000000 0.000000 1 0 1.000000
0  -33.856762 71.579956 40.625839  0.020575 -0.509788 -0.860054  0.000000 0.000000 1 0 1.000000
  phy
0  19.931841 111.668205 50.006573  -0.156680 0.802277 -0.576023  0.000000 0.000000 1 0 1.000000
0  15.990966 111.938499 50.417583  -0.085667 0.824642 -0.559130  0.000000 0.000000 1 0 1.000000
0  16.083836 111.601768 50.842945  -0.103633 0.610532 -0.785182  0.000000 0.000000 1 0 1.000000
  phy
0  15.990966 111.938499 50.417583  -0.085667 0.824642 -0.559130  0.000000 0.000000 1 0 1.000000
0  19.931841 111.668205 50.006573  -0.156680 0.802277 -0.576023  0.000000 0.000000 1 0 1.000000
0  22.241730 117.233536 41.547810  -0.062327 0.095863 0.993441  0.000000 0.000000 1 0 1.000000
  phy
0  16.105347 117.645256 41.878983  -0.051069 0.926865 -0.371905  0.000000 0.000000 1 0 1.000000
0  15.990966 111.938499 50.417583  -0.085667 0.824642 -0.559130  0.000000 0.000000 1 0 1.000000
0  22.241730 117.233536 41.547810  -0.062327 0.095863 0.993441  0.000000 0.000000 1 0 1.000000
  phy
0  19.931841 111.668205 50.006573  -0.156680 0.802277 -0.576023  0.000000 0.000000 1 0 1.000000
0  27.879969 110.516212 49.153278  -0.264761 0.730398 -0.629620  0.000000 0.000000 1 0 1.000000
0  22.241730 117.233536 41.547810  -0.062327 0.095863 0.993441  0.000000 0.000000 1 0 1.000000
  phy
0  0.292212 108.142891 54.903175  0.009299 0.347985 -0.937454  0.000000 0.000000 1 0 1.000000
0  1.625711 108.339294 54.763309  -0.070351 0.381039 -0.921879  0.000000 0.000000 1 0 1.000000
0  -2.168092 109.225517 54.375397  0.045618 0.592742 -0.804100  0.000000 0.000000 1 0 1.000000
  phy
0  0.377027 105.931686 55.688835  -0.030589 0.263818 -0.964087  0.000000 0.000000 1 0 1.000000
0  1.625711 108.339294 54.763309  -0.070351 0.381039 -0.921879  0.000000 0.000000 1 0 1.000000
0  0.292212 108.142891 54.903175  0.009299 0.347985 -0.937454  0.000000 0.000000 1 0 1.000000
  phy
0  30.888382 104.033554 51.017635  -0.744493 0.033316 -0.666798  0.000000 0.000000 1 0 1.000000
0  32.167747 94.925888 49.205532  -0.310149 -0.238171 -0.920371  0.000000 0.000000 1 0 1.000000
0  33.215855 86.760033 43.853867  -0.870840 0.241547 0.428127  0.000000 0.000000 1 0 1.000000
  phy
0  33.215855 86.760033 43.853867  -0.870840 0.241547 0.428127  0.000000 0.000000 1 0 1.000000
0  29.331223 108.032379 50.319687  -0.913169 0.377794 0.152950  0.000000 0.000000 1 0 1.000000
0  30.888382 104.033554 51.017635  -0.744493 0.033316 -0.666798  0.000000 0.000000 1 0 1.000000
  phy
0  20.774586 104.990585 53.352398  -0.169659 -0.194984 -0.966021  0.000000 0.000000 1 0 1.000000
0  32.167747 94.925888 49.205532  -0.310149 -0.238171 -0.920371  0.000000 0.000000 1 0 1.000000
0  30.888382 104.033554 51.017635  -0.744493 0.033316 -0.666798  0.000000 0.000000 1 0 1.000000
  phy
0  -33.268093 86.016464 45.347130  0.908126 0.260037 0.328159  0.000000 0.000000 1 0 1.000000
0  -28.984127 106.639526 52.680046  0.930809 0.363026 0.042505  0.000000 0.000000 1 0 1.000000
0  -23.072136 116.150894 43.381668  0.248035 0.199902 0.947902  0.000000 0.000000 1 0 1.000000
  phy
0  -23.072136 116.150894 43.381668  0.248035 0.199902 0.947902  0.000000 0.000000 1 0 1.000000
0  -28.984127 106.639526 52.680046  0.930809 0.363026 0.042505  0.000000 0.000000 1 0 1.000000
0  -27.752996 109.187897 51.405064  0.247316 0.718281 -0.650314  0.000000 0.000000 1 0 1.000000
  phy
0  -28.984127 106.639526 52.680046  0.930809 0.363026 0.042505  0.000000 0.000000 1 0 1.000000
0  -33.268093 86.016464 45.347130  0.908126 0.260037 0.328159  0.000000 0.000000 1 0 1.000000
0  -32.225693 94.456917 51.514206  0.806650 -0.042368 -0.589509  0.000000 0.000000 1 0 1.000000
  phy
0  -30.285971 102.572533 53.493862  0.277525 -0.114969 -0.953815  0.000000 0.000000 1 0 1.000000
0  -28.984127 106.639526 52.680046  0.930809 0.363026 0.042505  0.000000 0.000000 1 0 1.000000
0  -32.225693 94.456917 51.514206  0.806650 -0.042368 -0.589509  0.000000 0.000000 1 0 1.000000
  phy
0  -21.381739 95.018082 52.130672  0.019722 -0.384282 -0.923005  0.000000 0.000000 1 0 1.000000
0  -9.512545 77.573227 44.576431  0.011096 -0.436493 -0.899639  0.000000 0.000000 1 0 1.000000
0  3.687463 82.907639 46.997349  -0.003133 -0.395652 -0.918395  0.000000 0.000000 1 0 1.000000
  phy
0  3.687463 82.907639 46.997349  -0.003133 -0.395652 -0.918395  0.000000 0.000000 1 0 1.000000
0  -9.705456 96.395950 52.809170  -0.004745 -0.366300 -0.930485  0.000000 0.000000 1 0 1.000000
0  -21.381739 95.018082 52.130672  0.019722 -0.384282 -0.923005  0.000000 0.000000 1 0 1.000000
  phy
0  -16.956703 116.855469 43.217155  0.060007 0.892532 -0.446974  0.000000 0.000000 1 0 1.000000
0  16.105347 117.645256 41.878983  -0.051069 0.926865 -0.371905  0.000000 0.000000 1 0 1.000000
0  -23.072136 116.150894 43.381668  0.248035 0.199902 0.947902  0.000000 0.000000 1 0 1.000000
  phy
0  16.105347 117.645256 41.878983  -0.051069 0.926865 -0.371905  0.000000 0.000000 1 0 1.000000
0  -16.956703 116.855469 43.217155  0.060007 0.892532 -0.446974  0.000000 0.000000 1 0 1.000000
0  -0.433131 117.881630 42.714073  0.000300 0.865140 -0.501531  0.000000 0.000000 1 0 1.000000
  phy
0  -32.225693 94.456917 51.514206  0.806650 -0.042368 -0.589509  0.000000 0.000000 1 0 1.000000
0  -33.268093 86.016464 45.347130  0.908126 0.260037 0.328159  0.000000 0.000000 1 0 1.000000
0  -34.660496 71.287209 40.367794  0.060032 0.047975 0.997043  0.000000 0.000000 1 0 1.000000
  phy
0  -33.268093 86.016464 45.347130  0.908126 0.260037 0.328159  0.000000 0.000000 1 0 1.000000
0  -23.072136 116.150894 43.381668  0.248035 0.199902 0.947902  0.000000 0.000000 1 0 1.000000
0  -34.660496 71.287209 40.367794  0.060032 0.047975 0.997043  0.000000 0.000000 1 0 1.000000
  phy
0  -23.072136 116.150894 43.381668  0.248035 0.199902 0.947902  0.000000 0.000000 1 0 1.000000
0  16.105347 117.645256 41.878983  -0.051069 0.926865 -0.371905  0.000000 0.000000 1 0 1.000000
0  22.241730 117.233536 41.547810  -0.062327 0.095863 0.993441  0.000000 0.000000 1 0 1.000000
  phy
0  27.879969 110.516212 49.153278  -0.264761 0.730398 -0.629620  0.000000 0.000000 1 0 1.000000
0  29.331223 108.032379 50.319687  -0.913169 0.377794 0.152950  0.000000 0.000000 1 0 1.000000
0  22.241730 117.233536 41.547810  -0.062327 0.095863 0.993441  0.000000 0.000000 1 0 1.000000
  phy
0  32.167747 94.925888 49.205532  -0.310149 -0.238171 -0.920371  0.000000 0.000000 1 0 1.000000
0  34.641117 71.283981 40.371258  -0.062905 0.032800 0.997480  0.000000 0.000000 1 0 1.000000
0  33.215855 86.760033 43.853867  -0.870840 0.241547 0.428127  0.000000 0.000000 1 0 1.000000
  phy
0  22.241730 117.233536 41.547810  -0.062327 0.095863 0.993441  0.000000 0.000000 1 0 1.000000
0  29.331223 108.032379 50.319687  -0.913169 0.377794 0.152950  0.000000 0.000000 1 0 1.000000
0  33.215855 86.760033 43.853867  -0.870840 0.241547 0.428127  0.000000 0.000000 1 0 1.000000
  phy
0  33.215855 86.760033 43.853867  -0.870840 0.241547 0.428127  0.000000 0.000000 1 0 1.000000
0  34.641117 71.283981 40.371258  -0.062905 0.032800 0.997480  0.000000 0.000000 1 0 1.000000
0  22.241730 117.233536 41.547810  -0.062327 0.095863 0.993441  0.000000 0.000000 1 0 1.000000
  phy
0  -23.072136 116.150894 43.381668  0.248035 0.199902 0.947902  0.000000 0.000000 1 0 1.000000
0  22.241730 117.233536 41.547810  -0.062327 0.095863 0.993441  0.000000 0.000000 1 0 1.000000
0  -34.660496 71.287209 40.367794  0.060032 0.047975 0.997043  0.000000 0.000000 1 0 1.000000
  phy
0  -34.660496 71.287209 40.367794  0.060032 0.047975 0.997043  0.000000 0.000000 1 0 1.000000
0  22.241730 117.233536 41.547810  -0.062327 0.095863 0.993441  0.000000 0.000000 1 0 1.000000
0  34.641117 71.283981 40.371258  -0.062905 0.032800 0.997480  0.000000 0.000000 1 0 1.000000
end
