version 1
nodes
0 "root" -1
end
skeleton
time 0
0  0.000000 0.000000 0.000000  0.000000 -0.000000 0.000000
end
triangles
  phy
0  1.515500 -7.271648 8.405372  0.022833 -0.966714 -0.254838  0.000000 0.000000 1 0 1.000000
0  -6.166039 -7.267736 5.926617  0.116937 -0.976442 -0.181347  0.000000 0.000000 1 0 1.000000
0  3.712044 -7.271319 7.689774  -0.028482 -0.999144 -0.030011  0.000000 0.000000 1 0 1.000000
  phy
0  -6.166039 -7.267736 5.926617  0.116937 -0.976442 -0.181347  0.000000 0.000000 1 0 1.000000
0  -7.542379 -7.265560 4.029910  0.109462 -0.993774 -0.020762  0.000000 0.000000 1 0 1.000000
0  3.712044 -7.271319 7.689774  -0.028482 -0.999144 -0.030011  0.000000 0.000000 1 0 1.000000
  phy
0  -7.542379 -7.265560 4.029910  0.109462 -0.993774 -0.020762  0.000000 0.000000 1 0 1.000000
0  -7.532311 -7.257356 -4.044271  0.108009 -0.993960 0.019405  0.000000 0.000000 1 0 1.000000
0  3.712044 -7.271319 7.689774  -0.028482 -0.999144 -0.030011  0.000000 0.000000 1 0 1.000000
  phy
0  -7.532311 -7.257356 -4.044271  0.108009 -0.993960 0.019405  0.000000 0.000000 1 0 1.000000
0  -6.166030 -7.255688 -5.930519  0.050003 -0.995671 0.078356  0.000000 0.000000 1 0 1.000000
0  3.712044 -7.271319 7.689774  -0.028482 -0.999144 -0.030011  0.000000 0.000000 1 0 1.000000
  phy
0  -6.166030 -7.255688 -5.930519  0.050003 -0.995671 0.078356  0.000000 0.000000 1 0 1.000000
0  1.508509 -7.254546 -8.423223  0.010606 -0.997377 0.071602  0.000000 0.000000 1 0 1.000000
0  3.712044 -7.271319 7.689774  -0.028482 -0.999144 -0.030011  0.000000 0.000000 1 0 1.000000
  phy
0  1.508509 -7.254546 -8.423223  0.010606 -0.997377 0.071602  0.000000 0.000000 1 0 1.000000
0  8.453710 -7.263181 -1.166446  -0.102886 -0.993341 0.051849  0.000000 0.000000 1 0 1.000000
0  3.712044 -7.271319 7.689774  -0.028482 -0.999144 -0.030011  0.000000 0.000000 1 0 1.000000
  phy
0  1.508509 -7.254546 -8.423223  0.010606 -0.997377 0.071602  0.000000 0.000000 1 0 1.000000
0  3.731544 -7.255692 -7.693433  -0.160758 -0.967177 0.196789  0.000000 0.000000 1 0 1.000000
0  8.453710 -7.263181 -1.166446  -0.102886 -0.993341 0.051849  0.000000 0.000000 1 0 1.000000
  phy
0  8.453710 -7.263181 -1.166446  -0.102886 -0.993341 0.051849  0.000000 0.000000 1 0 1.000000
0  8.478262 -7.265555 1.167147  -0.233958 -0.967196 -0.098974  0.000000 0.000000 1 0 1.000000
0  3.712044 -7.271319 7.689774  -0.028482 -0.999144 -0.030011  0.000000 0.000000 1 0 1.000000
  phy
0  12.114459 -5.988309 1.264829  -0.538690 -0.841362 -0.043841  0.000000 0.000000 1 0 1.000000
0  8.478262 -7.265555 1.167147  -0.233958 -0.967196 -0.098974  0.000000 0.000000 1 0 1.000000
0  12.111823 -5.977297 -1.266211  -0.442175 -0.896044 0.039827  0.000000 0.000000 1 0 1.000000
  phy
0  8.478262 -7.265555 1.167147  -0.233958 -0.967196 -0.098974  0.000000 0.000000 1 0 1.000000
0  8.453710 -7.263181 -1.166446  -0.102886 -0.993341 0.051849  0.000000 0.000000 1 0 1.000000
0  12.111823 -5.977297 -1.266211  -0.442175 -0.896044 0.039827  0.000000 0.000000 1 0 1.000000
  phy
0  3.731544 -7.255692 -7.693433  -0.160758 -0.967177 0.196789  0.000000 0.000000 1 0 1.000000
0  9.061849 -5.977299 -8.136930  -0.302032 -0.919752 0.250663  0.000000 0.000000 1 0 1.000000
0  8.453710 -7.263181 -1.166446  -0.102886 -0.993341 0.051849  0.000000 0.000000 1 0 1.000000
  phy
0  8.453710 -7.263181 -1.166446  -0.102886 -0.993341 0.051849  0.000000 0.000000 1 0 1.000000
0  9.061849 -5.977299 -8.136930  -0.302032 -0.919752 0.250663  0.000000 0.000000 1 0 1.000000
0  10.548299 -5.977299 -6.077907  -0.429809 -0.871440 0.236341  0.000000 0.000000 1 0 1.000000
  phy
0  11.583396 -5.977298 -3.754216  -0.506134 -0.848666 0.153605  0.000000 0.000000 1 0 1.000000
0  12.111823 -5.977297 -1.266211  -0.442175 -0.896044 0.039827  0.000000 0.000000 1 0 1.000000
0  8.453710 -7.263181 -1.166446  -0.102886 -0.993341 0.051849  0.000000 0.000000 1 0 1.000000
  phy
0  10.548299 -5.977299 -6.077907  -0.429809 -0.871440 0.236341  0.000000 0.000000 1 0 1.000000
0  11.583396 -5.977298 -3.754216  -0.506134 -0.848666 0.153605  0.000000 0.000000 1 0 1.000000
0  8.453710 -7.263181 -1.166446  -0.102886 -0.993341 0.051849  0.000000 0.000000 1 0 1.000000
  phy
0  -7.432230 -4.964310 -10.251013  0.584061 -0.192784 0.788484  0.000000 0.000000 1 0 1.000000
0  -5.159365 -4.990152 -11.554481  0.413490 -0.056893 0.908729  0.000000 0.000000 1 0 1.000000
0  -7.134933 -5.977301 -9.843622  0.302659 -0.848730 0.433653  0.000000 0.000000 1 0 1.000000
  phy
0  -5.159365 -4.990152 -11.554481  0.413490 -0.056893 0.908729  0.000000 0.000000 1 0 1.000000
0  -4.932817 -5.977301 -11.120845  0.121911 -0.941403 0.314479  0.000000 0.000000 1 0 1.000000
0  -7.134933 -5.977301 -9.843622  0.302659 -0.848730 0.433653  0.000000 0.000000 1 0 1.000000
  phy
0  -7.432230 -4.964310 -10.251013  0.584061 -0.192784 0.788484  0.000000 0.000000 1 0 1.000000
0  -7.134933 -5.977301 -9.843622  0.302659 -0.848730 0.433653  0.000000 0.000000 1 0 1.000000
0  -9.028796 -5.977304 -8.147964  0.435249 -0.810226 0.392545  0.000000 0.000000 1 0 1.000000
  phy
0  -9.028796 -5.977304 -8.147964  0.435249 -0.810226 0.392545  0.000000 0.000000 1 0 1.000000
0  -9.392324 -4.968541 -8.477325  0.730830 -0.185190 0.656957  0.000000 0.000000 1 0 1.000000
0  -7.432230 -4.964310 -10.251013  0.584061 -0.192784 0.788484  0.000000 0.000000 1 0 1.000000
  phy
0  -7.432230 -4.964310 -10.251013  0.584061 -0.192784 0.788484  0.000000 0.000000 1 0 1.000000
0  -9.215976 -0.472286 -9.491274  0.669097 -0.000066 0.743175  0.000000 0.000000 1 0 1.000000
0  -5.159365 -4.990152 -11.554481  0.413490 -0.056893 0.908729  0.000000 0.000000 1 0 1.000000
  phy
0  -9.392324 -4.968541 -8.477325  0.730830 -0.185190 0.656957  0.000000 0.000000 1 0 1.000000
0  -9.215976 -0.472286 -9.491274  0.669097 -0.000066 0.743175  0.000000 0.000000 1 0 1.000000
0  -7.432230 -4.964310 -10.251013  0.584061 -0.192784 0.788484  0.000000 0.000000 1 0 1.000000
  phy
0  -7.532311 -7.257356 -4.044271  0.108009 -0.993960 0.019405  0.000000 0.000000 1 0 1.000000
0  -10.526263 -5.977300 -6.088952  0.381448 -0.894969 0.231363  0.000000 0.000000 1 0 1.000000
0  -6.166030 -7.255688 -5.930519  0.050003 -0.995671 0.078356  0.000000 0.000000 1 0 1.000000
  phy
0  -10.526263 -5.977300 -6.088952  0.381448 -0.894969 0.231363  0.000000 0.000000 1 0 1.000000
0  -9.028796 -5.977304 -8.147964  0.435249 -0.810226 0.392545  0.000000 0.000000 1 0 1.000000
0  -6.166030 -7.255688 -5.930519  0.050003 -0.995671 0.078356  0.000000 0.000000 1 0 1.000000
  phy
0  -9.028796 -5.977304 -8.147964  0.435249 -0.810226 0.392545  0.000000 0.000000 1 0 1.000000
0  -10.526263 -5.977300 -6.088952  0.381448 -0.894969 0.231363  0.000000 0.000000 1 0 1.000000
0  -10.955679 -4.964310 -6.331191  0.887527 -0.052959 0.457702  0.000000 0.000000 1 0 1.000000
  phy
0  -9.028796 -5.977304 -8.147964  0.435249 -0.810226 0.392545  0.000000 0.000000 1 0 1.000000
0  -10.955679 -4.964310 -6.331191  0.887527 -0.052959 0.457702  0.000000 0.000000 1 0 1.000000
0  -9.392324 -4.968541 -8.477325  0.730830 -0.185190 0.656957  0.000000 0.000000 1 0 1.000000
  phy
0  -9.028796 -5.977304 -8.147964  0.435249 -0.810226 0.392545  0.000000 0.000000 1 0 1.000000
0  -7.134933 -5.977301 -9.843622  0.302659 -0.848730 0.433653  0.000000 0.000000 1 0 1.000000
0  -6.166030 -7.255688 -5.930519  0.050003 -0.995671 0.078356  0.000000 0.000000 1 0 1.000000
  phy
0  -9.405544 5.870255 -8.466164  0.737025 0.134084 0.662431  0.000000 0.000000 1 0 1.000000
0  -10.955672 5.870250 -6.331189  0.872744 0.067424 0.483499  0.000000 0.000000 1 0 1.000000
0  -8.225011 6.718083 -9.138932  0.095162 0.989854 0.105515  0.000000 0.000000 1 0 1.000000
  phy
0  -8.225011 6.718083 -9.138932  0.095162 0.989854 0.105515  0.000000 0.000000 1 0 1.000000
0  -10.955672 5.870250 -6.331189  0.872744 0.067424 0.483499  0.000000 0.000000 1 0 1.000000
0  -11.230947 6.718083 -4.998894  0.530143 0.820750 0.212879  0.000000 0.000000 1 0 1.000000
  phy
0  -10.955672 5.870250 -6.331189  0.872744 0.067424 0.483499  0.000000 0.000000 1 0 1.000000
0  -10.955679 -4.964310 -6.331191  0.887527 -0.052959 0.457702  0.000000 0.000000 1 0 1.000000
0  -12.023726 5.870252 -3.919847  0.940589 0.024700 0.338648  0.000000 0.000000 1 0 1.000000
  phy
0  -12.023726 5.870252 -3.919847  0.940589 0.024700 0.338648  0.000000 0.000000 1 0 1.000000
0  -10.955679 -4.964310 -6.331191  0.887527 -0.052959 0.457702  0.000000 0.000000 1 0 1.000000
0  -12.023725 -4.964312 -3.919833  0.960737 -0.028154 0.276027  0.000000 0.000000 1 0 1.000000
  phy
0  -10.955672 5.870250 -6.331189  0.872744 0.067424 0.483499  0.000000 0.000000 1 0 1.000000
0  -9.215976 -0.472286 -9.491274  0.669097 -0.000066 0.743175  0.000000 0.000000 1 0 1.000000
0  -10.955679 -4.964310 -6.331191  0.887527 -0.052959 0.457702  0.000000 0.000000 1 0 1.000000
  phy
0  -10.955672 5.870250 -6.331189  0.872744 0.067424 0.483499  0.000000 0.000000 1 0 1.000000
0  -9.405544 5.870255 -8.466164  0.737025 0.134084 0.662431  0.000000 0.000000 1 0 1.000000
0  -9.215976 -0.472286 -9.491274  0.669097 -0.000066 0.743175  0.000000 0.000000 1 0 1.000000
  phy
0  -10.955672 5.870250 -6.331189  0.872744 0.067424 0.483499  0.000000 0.000000 1 0 1.000000
0  -12.023726 5.870252 -3.919847  0.940589 0.024700 0.338648  0.000000 0.000000 1 0 1.000000
0  -11.230947 6.718083 -4.998894  0.530143 0.820750 0.212879  0.000000 0.000000 1 0 1.000000
  phy
0  -9.028815 -5.988311 8.136925  0.361776 -0.873138 -0.326724  0.000000 0.000000 1 0 1.000000
0  -6.166039 -7.267736 5.926617  0.116937 -0.976442 -0.181347  0.000000 0.000000 1 0 1.000000
0  -7.134976 -5.988312 9.843591  0.339168 -0.817542 -0.465393  0.000000 0.000000 1 0 1.000000
  phy
0  -9.028815 -5.988311 8.136925  0.361776 -0.873138 -0.326724  0.000000 0.000000 1 0 1.000000
0  -10.526277 -5.988312 6.088928  0.454398 -0.848293 -0.271885  0.000000 0.000000 1 0 1.000000
0  -6.166039 -7.267736 5.926617  0.116937 -0.976442 -0.181347  0.000000 0.000000 1 0 1.000000
  phy
0  -9.028815 -5.988311 8.136925  0.361776 -0.873138 -0.326724  0.000000 0.000000 1 0 1.000000
0  -7.134976 -5.988312 9.843591  0.339168 -0.817542 -0.465393  0.000000 0.000000 1 0 1.000000
0  -9.403198 -4.975334 8.467241  0.734730 -0.174941 -0.655414  0.000000 0.000000 1 0 1.000000
  phy
0  -9.028815 -5.988311 8.136925  0.361776 -0.873138 -0.326724  0.000000 0.000000 1 0 1.000000
0  -9.403198 -4.975334 8.467241  0.734730 -0.174941 -0.655414  0.000000 0.000000 1 0 1.000000
0  -10.526277 -5.988312 6.088928  0.454398 -0.848293 -0.271885  0.000000 0.000000 1 0 1.000000
  phy
0  5.144575 -4.973210 -11.578608  -0.414156 -0.046757 0.909004  0.000000 0.000000 1 0 1.000000
0  2.653605 -4.964316 -12.387080  -0.208905 -0.031629 0.977424  0.000000 0.000000 1 0 1.000000
0  5.164054 5.870372 -11.572283  -0.393056 0.024019 0.919201  0.000000 0.000000 1 0 1.000000
  phy
0  2.653605 -4.964316 -12.387080  -0.208905 -0.031629 0.977424  0.000000 0.000000 1 0 1.000000
0  2.653615 5.870257 -12.387080  -0.213017 0.080006 0.973767  0.000000 0.000000 1 0 1.000000
0  5.164054 5.870372 -11.572283  -0.393056 0.024019 0.919201  0.000000 0.000000 1 0 1.000000
  phy
0  2.653615 5.870257 -12.387080  -0.213017 0.080006 0.973767  0.000000 0.000000 1 0 1.000000
0  2.653605 -4.964316 -12.387080  -0.208905 -0.031629 0.977424  0.000000 0.000000 1 0 1.000000
0  0.011025 5.870256 -12.662354  0.003657 0.042337 0.999097  0.000000 0.000000 1 0 1.000000
  phy
0  2.653605 -4.964316 -12.387080  -0.208905 -0.031629 0.977424  0.000000 0.000000 1 0 1.000000
0  0.024940 -4.970200 -12.660905  -0.000065 -0.075702 0.997130  0.000000 0.000000 1 0 1.000000
0  0.011025 5.870256 -12.662354  0.003657 0.042337 0.999097  0.000000 0.000000 1 0 1.000000
  phy
0  6.144011 6.718086 -10.647380  -0.297775 0.803808 0.514997  0.000000 0.000000 1 0 1.000000
0  5.164054 5.870372 -11.572283  -0.393056 0.024019 0.919201  0.000000 0.000000 1 0 1.000000
0  2.653615 5.870257 -12.387080  -0.213017 0.080006 0.973767  0.000000 0.000000 1 0 1.000000
  phy
0  2.653615 5.870257 -12.387080  -0.213017 0.080006 0.973767  0.000000 0.000000 1 0 1.000000
0  1.288280 6.718089 -12.221920  -0.002834 0.999629 0.027082  0.000000 0.000000 1 0 1.000000
0  6.144011 6.718086 -10.647380  -0.297775 0.803808 0.514997  0.000000 0.000000 1 0 1.000000
  phy
0  0.011025 5.870256 -12.662354  0.003657 0.042337 0.999097  0.000000 0.000000 1 0 1.000000
0  1.288280 6.718089 -12.221920  -0.002834 0.999629 0.027082  0.000000 0.000000 1 0 1.000000
0  2.653615 5.870257 -12.387080  -0.213017 0.080006 0.973767  0.000000 0.000000 1 0 1.000000
  phy
0  1.508509 -7.254546 -8.423223  0.010606 -0.997377 0.071602  0.000000 0.000000 1 0 1.000000
0  2.543062 -5.981212 -11.900739  -0.102761 -0.871923 0.478739  0.000000 0.000000 1 0 1.000000
0  3.731544 -7.255692 -7.693433  -0.160758 -0.967177 0.196789  0.000000 0.000000 1 0 1.000000
  phy
0  2.543062 -5.981212 -11.900739  -0.102761 -0.871923 0.478739  0.000000 0.000000 1 0 1.000000
0  4.965864 -5.977302 -11.120839  -0.209944 -0.842087 0.496803  0.000000 0.000000 1 0 1.000000
0  3.731544 -7.255692 -7.693433  -0.160758 -0.967177 0.196789  0.000000 0.000000 1 0 1.000000
  phy
0  7.168008 -5.977300 -9.843591  -0.303144 -0.848549 0.433668  0.000000 0.000000 1 0 1.000000
0  9.061849 -5.977299 -8.136930  -0.302032 -0.919752 0.250663  0.000000 0.000000 1 0 1.000000
0  3.731544 -7.255692 -7.693433  -0.160758 -0.967177 0.196789  0.000000 0.000000 1 0 1.000000
  phy
0  4.965864 -5.977302 -11.120839  -0.209944 -0.842087 0.496803  0.000000 0.000000 1 0 1.000000
0  7.168008 -5.977300 -9.843591  -0.303144 -0.848549 0.433668  0.000000 0.000000 1 0 1.000000
0  3.731544 -7.255692 -7.693433  -0.160758 -0.967177 0.196789  0.000000 0.000000 1 0 1.000000
  phy
0  7.167989 -5.988313 9.843610  -0.336892 -0.820039 -0.462644  0.000000 0.000000 1 0 1.000000
0  7.454257 -4.975338 10.251019  -0.559582 -0.048353 -0.827363  0.000000 0.000000 1 0 1.000000
0  5.184626 -4.987659 11.560415  -0.437327 -0.041183 -0.898359  0.000000 0.000000 1 0 1.000000
  phy
0  7.167989 -5.988313 9.843610  -0.336892 -0.820039 -0.462644  0.000000 0.000000 1 0 1.000000
0  5.184626 -4.987659 11.560415  -0.437327 -0.041183 -0.898359  0.000000 0.000000 1 0 1.000000
0  4.965820 -5.988313 11.120859  -0.183446 -0.872059 -0.453720  0.000000 0.000000 1 0 1.000000
  phy
0  7.167989 -5.988313 9.843610  -0.336892 -0.820039 -0.462644  0.000000 0.000000 1 0 1.000000
0  9.050718 -5.988556 8.147889  -0.261719 -0.941309 -0.213166  0.000000 0.000000 1 0 1.000000
0  9.425181 -4.975320 8.478282  -0.730936 -0.184266 -0.657099  0.000000 0.000000 1 0 1.000000
  phy
0  7.454257 -4.975338 10.251019  -0.559582 -0.048353 -0.827363  0.000000 0.000000 1 0 1.000000
0  7.167989 -5.988313 9.843610  -0.336892 -0.820039 -0.462644  0.000000 0.000000 1 0 1.000000
0  9.425181 -4.975320 8.478282  -0.730936 -0.184266 -0.657099  0.000000 0.000000 1 0 1.000000
  phy
0  4.965820 -5.988313 11.120859  -0.183446 -0.872059 -0.453720  0.000000 0.000000 1 0 1.000000
0  3.712044 -7.271319 7.689774  -0.028482 -0.999144 -0.030011  0.000000 0.000000 1 0 1.000000
0  7.167989 -5.988313 9.843610  -0.336892 -0.820039 -0.462644  0.000000 0.000000 1 0 1.000000
  phy
0  7.167989 -5.988313 9.843610  -0.336892 -0.820039 -0.462644  0.000000 0.000000 1 0 1.000000
0  3.712044 -7.271319 7.689774  -0.028482 -0.999144 -0.030011  0.000000 0.000000 1 0 1.000000
0  9.050718 -5.988556 8.147889  -0.261719 -0.941309 -0.213166  0.000000 0.000000 1 0 1.000000
  phy
0  -2.527123 -5.977302 -11.900881  0.110367 -0.844214 0.524520  0.000000 0.000000 1 0 1.000000
0  1.508509 -7.254546 -8.423223  0.010606 -0.997377 0.071602  0.000000 0.000000 1 0 1.000000
0  -4.932817 -5.977301 -11.120845  0.121911 -0.941403 0.314479  0.000000 0.000000 1 0 1.000000
  phy
0  1.508509 -7.254546 -8.423223  0.010606 -0.997377 0.071602  0.000000 0.000000 1 0 1.000000
0  -6.166030 -7.255688 -5.930519  0.050003 -0.995671 0.078356  0.000000 0.000000 1 0 1.000000
0  -4.932817 -5.977301 -11.120845  0.121911 -0.941403 0.314479  0.000000 0.000000 1 0 1.000000
  phy
0  -7.134933 -5.977301 -9.843622  0.302659 -0.848730 0.433653  0.000000 0.000000 1 0 1.000000
0  -4.932817 -5.977301 -11.120845  0.121911 -0.941403 0.314479  0.000000 0.000000 1 0 1.000000
0  -6.166030 -7.255688 -5.930519  0.050003 -0.995671 0.078356  0.000000 0.000000 1 0 1.000000
  phy
0  12.114459 -5.988309 1.264829  -0.538690 -0.841362 -0.043841  0.000000 0.000000 1 0 1.000000
0  12.606184 -4.978045 1.326555  -0.992331 -0.059529 -0.108331  0.000000 0.000000 1 0 1.000000
0  11.583298 -5.988311 3.765679  -0.506649 -0.848365 -0.153567  0.000000 0.000000 1 0 1.000000
  phy
0  12.606184 -4.978045 1.326555  -0.992331 -0.059529 -0.108331  0.000000 0.000000 1 0 1.000000
0  12.056755 -4.975318 3.919840  -0.958845 -0.041267 -0.280916  0.000000 0.000000 1 0 1.000000
0  11.583298 -5.988311 3.765679  -0.506649 -0.848365 -0.153567  0.000000 0.000000 1 0 1.000000
  phy
0  12.056755 -4.975318 3.919840  -0.958845 -0.041267 -0.280916  0.000000 0.000000 1 0 1.000000
0  10.548295 -5.988308 6.088952  -0.464086 -0.844256 -0.268061  0.000000 0.000000 1 0 1.000000
0  11.583298 -5.988311 3.765679  -0.506649 -0.848365 -0.153567  0.000000 0.000000 1 0 1.000000
  phy
0  11.583298 -5.988311 3.765679  -0.506649 -0.848365 -0.153567  0.000000 0.000000 1 0 1.000000
0  8.478262 -7.265555 1.167147  -0.233958 -0.967196 -0.098974  0.000000 0.000000 1 0 1.000000
0  12.114459 -5.988309 1.264829  -0.538690 -0.841362 -0.043841  0.000000 0.000000 1 0 1.000000
  phy
0  11.583298 -5.988311 3.765679  -0.506649 -0.848365 -0.153567  0.000000 0.000000 1 0 1.000000
0  10.548295 -5.988308 6.088952  -0.464086 -0.844256 -0.268061  0.000000 0.000000 1 0 1.000000
0  8.478262 -7.265555 1.167147  -0.233958 -0.967196 -0.098974  0.000000 0.000000 1 0 1.000000
  phy
0  12.056755 -4.975318 3.919840  -0.958845 -0.041267 -0.280916  0.000000 0.000000 1 0 1.000000
0  12.056758 5.859249 3.919837  -0.937340 0.056780 -0.343757  0.000000 0.000000 1 0 1.000000
0  10.977697 -4.975325 6.331180  -0.880186 -0.028627 -0.473766  0.000000 0.000000 1 0 1.000000
  phy
0  12.056758 5.859249 3.919837  -0.937340 0.056780 -0.343757  0.000000 0.000000 1 0 1.000000
0  10.977704 5.859316 6.331193  -0.864264 0.034392 -0.501861  0.000000 0.000000 1 0 1.000000
0  10.977697 -4.975325 6.331180  -0.880186 -0.028627 -0.473766  0.000000 0.000000 1 0 1.000000
  phy
0  12.056755 -4.975318 3.919840  -0.958845 -0.041267 -0.280916  0.000000 0.000000 1 0 1.000000
0  12.607297 5.859250 1.321318  -0.994330 0.019970 -0.104448  0.000000 0.000000 1 0 1.000000
0  12.056758 5.859249 3.919837  -0.937340 0.056780 -0.343757  0.000000 0.000000 1 0 1.000000
  phy
0  12.056755 -4.975318 3.919840  -0.958845 -0.041267 -0.280916  0.000000 0.000000 1 0 1.000000
0  12.606184 -4.978045 1.326555  -0.992331 -0.059529 -0.108331  0.000000 0.000000 1 0 1.000000
0  12.607297 5.859250 1.321318  -0.994330 0.019970 -0.104448  0.000000 0.000000 1 0 1.000000
  phy
0  10.977697 -4.975325 6.331180  -0.880186 -0.028627 -0.473766  0.000000 0.000000 1 0 1.000000
0  10.548295 -5.988308 6.088952  -0.464086 -0.844256 -0.268061  0.000000 0.000000 1 0 1.000000
0  12.056755 -4.975318 3.919840  -0.958845 -0.041267 -0.280916  0.000000 0.000000 1 0 1.000000
  phy
0  10.548299 -5.977299 -6.077907  -0.429809 -0.871440 0.236341  0.000000 0.000000 1 0 1.000000
0  9.061849 -5.977299 -8.136930  -0.302032 -0.919752 0.250663  0.000000 0.000000 1 0 1.000000
0  10.977735 -4.964301 -6.331142  -0.879848 -0.058539 0.471636  0.000000 0.000000 1 0 1.000000
  phy
0  9.061849 -5.977299 -8.136930  -0.302032 -0.919752 0.250663  0.000000 0.000000 1 0 1.000000
0  9.446551 -4.986159 -8.433818  -0.728922 -0.191954 0.657135  0.000000 0.000000 1 0 1.000000
0  10.977735 -4.964301 -6.331142  -0.879848 -0.058539 0.471636  0.000000 0.000000 1 0 1.000000
  phy
0  10.548299 -5.977299 -6.077907  -0.429809 -0.871440 0.236341  0.000000 0.000000 1 0 1.000000
0  12.056768 -4.964311 -3.908803  -0.950468 -0.031726 0.309199  0.000000 0.000000 1 0 1.000000
0  11.583396 -5.977298 -3.754216  -0.506134 -0.848666 0.153605  0.000000 0.000000 1 0 1.000000
  phy
0  10.548299 -5.977299 -6.077907  -0.429809 -0.871440 0.236341  0.000000 0.000000 1 0 1.000000
0  10.977735 -4.964301 -6.331142  -0.879848 -0.058539 0.471636  0.000000 0.000000 1 0 1.000000
0  12.056768 -4.964311 -3.908803  -0.950468 -0.031726 0.309199  0.000000 0.000000 1 0 1.000000
  phy
0  -3.798725 6.707067 11.693400  0.037976 0.990360 -0.133213  0.000000 0.000000 1 0 1.000000
0  -2.620578 5.861998 12.387083  0.206838 0.019295 -0.978185  0.000000 0.000000 1 0 1.000000
0  0.010985 5.859246 12.662354  0.006739 0.079178 -0.996838  0.000000 0.000000 1 0 1.000000
  phy
0  -3.798725 6.707067 11.693400  0.037976 0.990360 -0.133213  0.000000 0.000000 1 0 1.000000
0  0.010985 5.859246 12.662354  0.006739 0.079178 -0.996838  0.000000 0.000000 1 0 1.000000
0  1.288252 6.707073 12.221927  -0.007324 0.998590 -0.052573  0.000000 0.000000 1 0 1.000000
  phy
0  12.023737 6.718085 -2.554468  -0.023296 0.999714 0.005337  0.000000 0.000000 1 0 1.000000
0  -12.287989 6.718083 -0.000023  0.015253 0.999883 -0.001102  0.000000 0.000000 1 0 1.000000
0  9.938624 6.710373 7.226581  -0.024971 0.999536 -0.017473  0.000000 0.000000 1 0 1.000000
  phy
0  9.938624 6.710373 7.226581  -0.024971 0.999536 -0.017473  0.000000 0.000000 1 0 1.000000
0  -12.287989 6.718083 -0.000023  0.015253 0.999883 -0.001102  0.000000 0.000000 1 0 1.000000
0  1.288252 6.707073 12.221927  -0.007324 0.998590 -0.052573  0.000000 0.000000 1 0 1.000000
  phy
0  9.938624 6.710373 7.226581  -0.024971 0.999536 -0.017473  0.000000 0.000000 1 0 1.000000
0  1.288252 6.707073 12.221927  -0.007324 0.998590 -0.052573  0.000000 0.000000 1 0 1.000000
0  6.143660 6.707933 10.646881  -0.299474 0.825622 -0.478188  0.000000 0.000000 1 0 1.000000
  phy
0  6.143660 6.707933 10.646881  -0.299474 0.825622 -0.478188  0.000000 0.000000 1 0 1.000000
0  1.288252 6.707073 12.221927  -0.007324 0.998590 -0.052573  0.000000 0.000000 1 0 1.000000
0  5.164029 5.859249 11.572295  -0.371714 0.055647 -0.926678  0.000000 0.000000 1 0 1.000000
  phy
0  1.288252 6.707073 12.221927  -0.007324 0.998590 -0.052573  0.000000 0.000000 1 0 1.000000
0  2.642560 5.859247 12.387091  -0.174690 0.025890 -0.984283  0.000000 0.000000 1 0 1.000000
0  5.164029 5.859249 11.572295  -0.371714 0.055647 -0.926678  0.000000 0.000000 1 0 1.000000
  phy
0  1.288252 6.707073 12.221927  -0.007324 0.998590 -0.052573  0.000000 0.000000 1 0 1.000000
0  -12.287989 6.718083 -0.000023  0.015253 0.999883 -0.001102  0.000000 0.000000 1 0 1.000000
0  -3.798725 6.707067 11.693400  0.037976 0.990360 -0.133213  0.000000 0.000000 1 0 1.000000
  phy
0  2.642560 5.859247 12.387091  -0.174690 0.025890 -0.984283  0.000000 0.000000 1 0 1.000000
0  1.288252 6.707073 12.221927  -0.007324 0.998590 -0.052573  0.000000 0.000000 1 0 1.000000
0  0.010985 5.859246 12.662354  0.006739 0.079178 -0.996838  0.000000 0.000000 1 0 1.000000
  phy
0  -2.527123 -5.977302 -11.900881  0.110367 -0.844214 0.524520  0.000000 0.000000 1 0 1.000000
0  -4.932817 -5.977301 -11.120845  0.121911 -0.941403 0.314479  0.000000 0.000000 1 0 1.000000
0  -5.159365 -4.990152 -11.554481  0.413490 -0.056893 0.908729  0.000000 0.000000 1 0 1.000000
  phy
0  -5.159365 -4.990152 -11.554481  0.413490 -0.056893 0.908729  0.000000 0.000000 1 0 1.000000
0  -2.620543 -4.968091 -12.387088  0.205235 -0.022113 0.978463  0.000000 0.000000 1 0 1.000000
0  -2.527123 -5.977302 -11.900881  0.110367 -0.844214 0.524520  0.000000 0.000000 1 0 1.000000
  phy
0  -9.215976 -0.472286 -9.491274  0.669097 -0.000066 0.743175  0.000000 0.000000 1 0 1.000000
0  -5.129441 5.879561 -11.572799  0.397980 0.043187 0.916377  0.000000 0.000000 1 0 1.000000
0  -5.159365 -4.990152 -11.554481  0.413490 -0.056893 0.908729  0.000000 0.000000 1 0 1.000000
  phy
0  -5.129441 5.879561 -11.572799  0.397980 0.043187 0.916377  0.000000 0.000000 1 0 1.000000
0  -2.620543 -4.968091 -12.387088  0.205235 -0.022113 0.978463  0.000000 0.000000 1 0 1.000000
0  -5.159365 -4.990152 -11.554481  0.413490 -0.056893 0.908729  0.000000 0.000000 1 0 1.000000
  phy
0  -9.215976 -0.472286 -9.491274  0.669097 -0.000066 0.743175  0.000000 0.000000 1 0 1.000000
0  -9.392324 -4.968541 -8.477325  0.730830 -0.185190 0.656957  0.000000 0.000000 1 0 1.000000
0  -10.955679 -4.964310 -6.331191  0.887527 -0.052959 0.457702  0.000000 0.000000 1 0 1.000000
  phy
0  -9.405544 5.870255 -8.466164  0.737025 0.134084 0.662431  0.000000 0.000000 1 0 1.000000
0  -7.432227 5.870256 -10.251009  0.583696 0.119841 0.803080  0.000000 0.000000 1 0 1.000000
0  -9.215976 -0.472286 -9.491274  0.669097 -0.000066 0.743175  0.000000 0.000000 1 0 1.000000
  phy
0  -8.225011 6.718083 -9.138932  0.095162 0.989854 0.105515  0.000000 0.000000 1 0 1.000000
0  -7.432227 5.870256 -10.251009  0.583696 0.119841 0.803080  0.000000 0.000000 1 0 1.000000
0  -9.405544 5.870255 -8.466164  0.737025 0.134084 0.662431  0.000000 0.000000 1 0 1.000000
  phy
0  -6.166039 -7.267736 5.926617  0.116937 -0.976442 -0.181347  0.000000 0.000000 1 0 1.000000
0  -4.932840 -5.988312 11.120840  0.130821 -0.929948 -0.343633  0.000000 0.000000 1 0 1.000000
0  -7.134976 -5.988312 9.843591  0.339168 -0.817542 -0.465393  0.000000 0.000000 1 0 1.000000
  phy
0  -9.403198 -4.975334 8.467241  0.734730 -0.174941 -0.655414  0.000000 0.000000 1 0 1.000000
0  -7.134976 -5.988312 9.843591  0.339168 -0.817542 -0.465393  0.000000 0.000000 1 0 1.000000
0  -7.432254 -4.975365 10.239978  0.549208 -0.032725 -0.835045  0.000000 0.000000 1 0 1.000000
  phy
0  -7.432254 -4.975365 10.239978  0.549208 -0.032725 -0.835045  0.000000 0.000000 1 0 1.000000
0  -7.134976 -5.988312 9.843591  0.339168 -0.817542 -0.465393  0.000000 0.000000 1 0 1.000000
0  -5.142039 -4.975325 11.572274  0.379630 -0.041305 -0.924216  0.000000 0.000000 1 0 1.000000
  phy
0  -7.134976 -5.988312 9.843591  0.339168 -0.817542 -0.465393  0.000000 0.000000 1 0 1.000000
0  -4.932840 -5.988312 11.120840  0.130821 -0.929948 -0.343633  0.000000 0.000000 1 0 1.000000
0  -5.142039 -4.975325 11.572274  0.379630 -0.041305 -0.924216  0.000000 0.000000 1 0 1.000000
  phy
0  -10.526277 -5.988312 6.088928  0.454398 -0.848293 -0.271885  0.000000 0.000000 1 0 1.000000
0  -9.403198 -4.975334 8.467241  0.734730 -0.174941 -0.655414  0.000000 0.000000 1 0 1.000000
0  -10.955700 -4.975365 6.331163  0.877110 -0.026912 -0.479535  0.000000 0.000000 1 0 1.000000
  phy
0  -9.403198 -4.975334 8.467241  0.734730 -0.174941 -0.655414  0.000000 0.000000 1 0 1.000000
0  -7.432254 -4.975365 10.239978  0.549208 -0.032725 -0.835045  0.000000 0.000000 1 0 1.000000
0  -9.204984 -0.483277 8.951738  0.742783 0.000003 -0.669533  0.000000 0.000000 1 0 1.000000
  phy
0  -9.403198 -4.975334 8.467241  0.734730 -0.174941 -0.655414  0.000000 0.000000 1 0 1.000000
0  -9.204984 -0.483277 8.951738  0.742783 0.000003 -0.669533  0.000000 0.000000 1 0 1.000000
0  -10.955700 -4.975365 6.331163  0.877110 -0.026912 -0.479535  0.000000 0.000000 1 0 1.000000
  phy
0  -12.089793 -5.988313 1.266238  0.338555 -0.940789 -0.017220  0.000000 0.000000 1 0 1.000000
0  -11.561286 -5.988312 3.754632  0.507911 -0.847570 -0.153791  0.000000 0.000000 1 0 1.000000
0  -12.585280 -4.975327 1.321260  0.989548 -0.053126 -0.134058  0.000000 0.000000 1 0 1.000000
  phy
0  -12.585280 -4.975327 1.321260  0.989548 -0.053126 -0.134058  0.000000 0.000000 1 0 1.000000
0  -11.561286 -5.988312 3.754632  0.507911 -0.847570 -0.153791  0.000000 0.000000 1 0 1.000000
0  -12.034746 -4.977275 3.908797  0.947997 -0.059560 -0.312657  0.000000 0.000000 1 0 1.000000
  phy
0  -12.034746 -4.977275 3.908797  0.947997 -0.059560 -0.312657  0.000000 0.000000 1 0 1.000000
0  -11.561286 -5.988312 3.754632  0.507911 -0.847570 -0.153791  0.000000 0.000000 1 0 1.000000
0  -10.526277 -5.988312 6.088928  0.454398 -0.848293 -0.271885  0.000000 0.000000 1 0 1.000000
  phy
0  -11.561286 -5.988312 3.754632  0.507911 -0.847570 -0.153791  0.000000 0.000000 1 0 1.000000
0  -12.089793 -5.988313 1.266238  0.338555 -0.940789 -0.017220  0.000000 0.000000 1 0 1.000000
0  -7.542379 -7.265560 4.029910  0.109462 -0.993774 -0.020762  0.000000 0.000000 1 0 1.000000
  phy
0  -7.542379 -7.265560 4.029910  0.109462 -0.993774 -0.020762  0.000000 0.000000 1 0 1.000000
0  -10.526277 -5.988312 6.088928  0.454398 -0.848293 -0.271885  0.000000 0.000000 1 0 1.000000
0  -11.561286 -5.988312 3.754632  0.507911 -0.847570 -0.153791  0.000000 0.000000 1 0 1.000000
  phy
0  -2.620543 -4.968091 -12.387088  0.205235 -0.022113 0.978463  0.000000 0.000000 1 0 1.000000
0  0.024940 -4.970200 -12.660905  -0.000065 -0.075702 0.997130  0.000000 0.000000 1 0 1.000000
0  -2.527123 -5.977302 -11.900881  0.110367 -0.844214 0.524520  0.000000 0.000000 1 0 1.000000
  phy
0  0.024940 -4.970200 -12.660905  -0.000065 -0.075702 0.997130  0.000000 0.000000 1 0 1.000000
0  0.033049 -5.977301 -12.166871  0.000738 -0.880390 0.474249  0.000000 0.000000 1 0 1.000000
0  -2.527123 -5.977302 -11.900881  0.110367 -0.844214 0.524520  0.000000 0.000000 1 0 1.000000
  phy
0  -2.527123 -5.977302 -11.900881  0.110367 -0.844214 0.524520  0.000000 0.000000 1 0 1.000000
0  0.033049 -5.977301 -12.166871  0.000738 -0.880390 0.474249  0.000000 0.000000 1 0 1.000000
0  1.508509 -7.254546 -8.423223  0.010606 -0.997377 0.071602  0.000000 0.000000 1 0 1.000000
  phy
0  -12.023726 5.870252 -3.919847  0.940589 0.024700 0.338648  0.000000 0.000000 1 0 1.000000
0  -12.023725 -4.964312 -3.919833  0.960737 -0.028154 0.276027  0.000000 0.000000 1 0 1.000000
0  -12.574264 5.870256 -1.321306  0.988478 0.053441 0.141614  0.000000 0.000000 1 0 1.000000
  phy
0  -12.574264 5.870256 -1.321306  0.988478 0.053441 0.141614  0.000000 0.000000 1 0 1.000000
0  -12.023725 -4.964312 -3.919833  0.960737 -0.028154 0.276027  0.000000 0.000000 1 0 1.000000
0  -12.574264 -4.967101 -1.321308  0.996120 -0.040444 0.078167  0.000000 0.000000 1 0 1.000000
  phy
0  -12.023726 5.870252 -3.919847  0.940589 0.024700 0.338648  0.000000 0.000000 1 0 1.000000
0  -12.574264 5.870256 -1.321306  0.988478 0.053441 0.141614  0.000000 0.000000 1 0 1.000000
0  -11.230947 6.718083 -4.998894  0.530143 0.820750 0.212879  0.000000 0.000000 1 0 1.000000
  phy
0  9.446551 -4.986159 -8.433818  -0.728922 -0.191954 0.657135  0.000000 0.000000 1 0 1.000000
0  9.061849 -5.977299 -8.136930  -0.302032 -0.919752 0.250663  0.000000 0.000000 1 0 1.000000
0  7.450225 -4.972457 -10.241740  -0.584622 -0.197146 0.786988  0.000000 0.000000 1 0 1.000000
  phy
0  9.061849 -5.977299 -8.136930  -0.302032 -0.919752 0.250663  0.000000 0.000000 1 0 1.000000
0  7.168008 -5.977300 -9.843591  -0.303144 -0.848549 0.433668  0.000000 0.000000 1 0 1.000000
0  7.450225 -4.972457 -10.241740  -0.584622 -0.197146 0.786988  0.000000 0.000000 1 0 1.000000
  phy
0  7.168008 -5.977300 -9.843591  -0.303144 -0.848549 0.433668  0.000000 0.000000 1 0 1.000000
0  5.144575 -4.973210 -11.578608  -0.414156 -0.046757 0.909004  0.000000 0.000000 1 0 1.000000
0  7.450225 -4.972457 -10.241740  -0.584622 -0.197146 0.786988  0.000000 0.000000 1 0 1.000000
  phy
0  7.168008 -5.977300 -9.843591  -0.303144 -0.848549 0.433668  0.000000 0.000000 1 0 1.000000
0  4.965864 -5.977302 -11.120839  -0.209944 -0.842087 0.496803  0.000000 0.000000 1 0 1.000000
0  5.144575 -4.973210 -11.578608  -0.414156 -0.046757 0.909004  0.000000 0.000000 1 0 1.000000
  phy
0  5.144575 -4.973210 -11.578608  -0.414156 -0.046757 0.909004  0.000000 0.000000 1 0 1.000000
0  9.271059 -0.472305 -9.513266  -0.669248 -0.000277 0.743039  0.000000 0.000000 1 0 1.000000
0  7.450225 -4.972457 -10.241740  -0.584622 -0.197146 0.786988  0.000000 0.000000 1 0 1.000000
  phy
0  9.271059 -0.472305 -9.513266  -0.669248 -0.000277 0.743039  0.000000 0.000000 1 0 1.000000
0  9.446551 -4.986159 -8.433818  -0.728922 -0.191954 0.657135  0.000000 0.000000 1 0 1.000000
0  7.450225 -4.972457 -10.241740  -0.584622 -0.197146 0.786988  0.000000 0.000000 1 0 1.000000
  phy
0  4.965864 -5.977302 -11.120839  -0.209944 -0.842087 0.496803  0.000000 0.000000 1 0 1.000000
0  2.653605 -4.964316 -12.387080  -0.208905 -0.031629 0.977424  0.000000 0.000000 1 0 1.000000
0  5.144575 -4.973210 -11.578608  -0.414156 -0.046757 0.909004  0.000000 0.000000 1 0 1.000000
  phy
0  4.965864 -5.977302 -11.120839  -0.209944 -0.842087 0.496803  0.000000 0.000000 1 0 1.000000
0  2.543062 -5.981212 -11.900739  -0.102761 -0.871923 0.478739  0.000000 0.000000 1 0 1.000000
0  2.653605 -4.964316 -12.387080  -0.208905 -0.031629 0.977424  0.000000 0.000000 1 0 1.000000
  phy
0  0.033049 -5.977301 -12.166871  0.000738 -0.880390 0.474249  0.000000 0.000000 1 0 1.000000
0  0.024940 -4.970200 -12.660905  -0.000065 -0.075702 0.997130  0.000000 0.000000 1 0 1.000000
0  2.543062 -5.981212 -11.900739  -0.102761 -0.871923 0.478739  0.000000 0.000000 1 0 1.000000
  phy
0  0.024940 -4.970200 -12.660905  -0.000065 -0.075702 0.997130  0.000000 0.000000 1 0 1.000000
0  2.653605 -4.964316 -12.387080  -0.208905 -0.031629 0.977424  0.000000 0.000000 1 0 1.000000
0  2.543062 -5.981212 -11.900739  -0.102761 -0.871923 0.478739  0.000000 0.000000 1 0 1.000000
  phy
0  9.050718 -5.988556 8.147889  -0.261719 -0.941309 -0.213166  0.000000 0.000000 1 0 1.000000
0  8.478262 -7.265555 1.167147  -0.233958 -0.967196 -0.098974  0.000000 0.000000 1 0 1.000000
0  10.548295 -5.988308 6.088952  -0.464086 -0.844256 -0.268061  0.000000 0.000000 1 0 1.000000
  phy
0  9.050718 -5.988556 8.147889  -0.261719 -0.941309 -0.213166  0.000000 0.000000 1 0 1.000000
0  3.712044 -7.271319 7.689774  -0.028482 -0.999144 -0.030011  0.000000 0.000000 1 0 1.000000
0  8.478262 -7.265555 1.167147  -0.233958 -0.967196 -0.098974  0.000000 0.000000 1 0 1.000000
  phy
0  9.050718 -5.988556 8.147889  -0.261719 -0.941309 -0.213166  0.000000 0.000000 1 0 1.000000
0  10.548295 -5.988308 6.088952  -0.464086 -0.844256 -0.268061  0.000000 0.000000 1 0 1.000000
0  9.425181 -4.975320 8.478282  -0.730936 -0.184266 -0.657099  0.000000 0.000000 1 0 1.000000
  phy
0  5.184626 -4.987659 11.560415  -0.437327 -0.041183 -0.898359  0.000000 0.000000 1 0 1.000000
0  7.454257 -4.975338 10.251019  -0.559582 -0.048353 -0.827363  0.000000 0.000000 1 0 1.000000
0  7.454257 5.859221 10.251022  -0.548529 0.030579 -0.835572  0.000000 0.000000 1 0 1.000000
  phy
0  5.184626 -4.987659 11.560415  -0.437327 -0.041183 -0.898359  0.000000 0.000000 1 0 1.000000
0  7.454257 5.859221 10.251022  -0.548529 0.030579 -0.835572  0.000000 0.000000 1 0 1.000000
0  5.164029 5.859249 11.572295  -0.371714 0.055647 -0.926678  0.000000 0.000000 1 0 1.000000
  phy
0  7.454257 5.859221 10.251022  -0.548529 0.030579 -0.835572  0.000000 0.000000 1 0 1.000000
0  7.454257 -4.975338 10.251019  -0.559582 -0.048353 -0.827363  0.000000 0.000000 1 0 1.000000
0  9.293045 -0.483144 8.984790  -0.743697 -0.000002 -0.668517  0.000000 0.000000 1 0 1.000000
  phy
0  7.454257 -4.975338 10.251019  -0.559582 -0.048353 -0.827363  0.000000 0.000000 1 0 1.000000
0  9.425181 -4.975320 8.478282  -0.730936 -0.184266 -0.657099  0.000000 0.000000 1 0 1.000000
0  9.293045 -0.483144 8.984790  -0.743697 -0.000002 -0.668517  0.000000 0.000000 1 0 1.000000
  phy
0  0.033049 -5.977301 -12.166871  0.000738 -0.880390 0.474249  0.000000 0.000000 1 0 1.000000
0  2.543062 -5.981212 -11.900739  -0.102761 -0.871923 0.478739  0.000000 0.000000 1 0 1.000000
0  1.508509 -7.254546 -8.423223  0.010606 -0.997377 0.071602  0.000000 0.000000 1 0 1.000000
  phy
0  12.114459 -5.988309 1.264829  -0.538690 -0.841362 -0.043841  0.000000 0.000000 1 0 1.000000
0  12.607303 -4.964314 -1.321271  -0.995871 -0.053356 0.073438  0.000000 0.000000 1 0 1.000000
0  12.606184 -4.978045 1.326555  -0.992331 -0.059529 -0.108331  0.000000 0.000000 1 0 1.000000
  phy
0  12.114459 -5.988309 1.264829  -0.538690 -0.841362 -0.043841  0.000000 0.000000 1 0 1.000000
0  12.111823 -5.977297 -1.266211  -0.442175 -0.896044 0.039827  0.000000 0.000000 1 0 1.000000
0  12.607303 -4.964314 -1.321271  -0.995871 -0.053356 0.073438  0.000000 0.000000 1 0 1.000000
  phy
0  10.977697 -4.975325 6.331180  -0.880186 -0.028627 -0.473766  0.000000 0.000000 1 0 1.000000
0  9.293045 -0.483144 8.984790  -0.743697 -0.000002 -0.668517  0.000000 0.000000 1 0 1.000000
0  9.425181 -4.975320 8.478282  -0.730936 -0.184266 -0.657099  0.000000 0.000000 1 0 1.000000
  phy
0  10.977704 5.859316 6.331193  -0.864264 0.034392 -0.501861  0.000000 0.000000 1 0 1.000000
0  9.293045 -0.483144 8.984790  -0.743697 -0.000002 -0.668517  0.000000 0.000000 1 0 1.000000
0  10.977697 -4.975325 6.331180  -0.880186 -0.028627 -0.473766  0.000000 0.000000 1 0 1.000000
  phy
0  9.425181 -4.975320 8.478282  -0.730936 -0.184266 -0.657099  0.000000 0.000000 1 0 1.000000
0  10.548295 -5.988308 6.088952  -0.464086 -0.844256 -0.268061  0.000000 0.000000 1 0 1.000000
0  10.977697 -4.975325 6.331180  -0.880186 -0.028627 -0.473766  0.000000 0.000000 1 0 1.000000
  phy
0  10.977728 5.870186 -6.331176  -0.887993 0.054382 0.456630  0.000000 0.000000 1 0 1.000000
0  12.056768 -4.964311 -3.908803  -0.950468 -0.031726 0.309199  0.000000 0.000000 1 0 1.000000
0  10.977735 -4.964301 -6.331142  -0.879848 -0.058539 0.471636  0.000000 0.000000 1 0 1.000000
  phy
0  10.977728 5.870186 -6.331176  -0.887993 0.054382 0.456630  0.000000 0.000000 1 0 1.000000
0  12.056768 5.870263 -3.908802  -0.950250 0.038424 0.309110  0.000000 0.000000 1 0 1.000000
0  12.056768 -4.964311 -3.908803  -0.950468 -0.031726 0.309199  0.000000 0.000000 1 0 1.000000
  phy
0  12.056768 -4.964311 -3.908803  -0.950468 -0.031726 0.309199  0.000000 0.000000 1 0 1.000000
0  12.607302 5.870261 -1.321271  -0.989740 0.056715 0.131139  0.000000 0.000000 1 0 1.000000
0  12.607303 -4.964314 -1.321271  -0.995871 -0.053356 0.073438  0.000000 0.000000 1 0 1.000000
  phy
0  12.056768 -4.964311 -3.908803  -0.950468 -0.031726 0.309199  0.000000 0.000000 1 0 1.000000
0  12.056768 5.870263 -3.908802  -0.950250 0.038424 0.309110  0.000000 0.000000 1 0 1.000000
0  12.607302 5.870261 -1.321271  -0.989740 0.056715 0.131139  0.000000 0.000000 1 0 1.000000
  phy
0  12.056768 -4.964311 -3.908803  -0.950468 -0.031726 0.309199  0.000000 0.000000 1 0 1.000000
0  12.607303 -4.964314 -1.321271  -0.995871 -0.053356 0.073438  0.000000 0.000000 1 0 1.000000
0  11.583396 -5.977298 -3.754216  -0.506134 -0.848666 0.153605  0.000000 0.000000 1 0 1.000000
  phy
0  12.607303 -4.964314 -1.321271  -0.995871 -0.053356 0.073438  0.000000 0.000000 1 0 1.000000
0  12.111823 -5.977297 -1.266211  -0.442175 -0.896044 0.039827  0.000000 0.000000 1 0 1.000000
0  11.583396 -5.977298 -3.754216  -0.506134 -0.848666 0.153605  0.000000 0.000000 1 0 1.000000
  phy
0  7.454257 5.859221 10.251022  -0.548529 0.030579 -0.835572  0.000000 0.000000 1 0 1.000000
0  6.143660 6.707933 10.646881  -0.299474 0.825622 -0.478188  0.000000 0.000000 1 0 1.000000
0  5.164029 5.859249 11.572295  -0.371714 0.055647 -0.926678  0.000000 0.000000 1 0 1.000000
  phy
0  9.938624 6.710373 7.226581  -0.024971 0.999536 -0.017473  0.000000 0.000000 1 0 1.000000
0  6.143660 6.707933 10.646881  -0.299474 0.825622 -0.478188  0.000000 0.000000 1 0 1.000000
0  9.425183 5.859235 8.478291  -0.727490 0.155393 -0.668289  0.000000 0.000000 1 0 1.000000
  phy
0  6.143660 6.707933 10.646881  -0.299474 0.825622 -0.478188  0.000000 0.000000 1 0 1.000000
0  7.454257 5.859221 10.251022  -0.548529 0.030579 -0.835572  0.000000 0.000000 1 0 1.000000
0  9.425183 5.859235 8.478291  -0.727490 0.155393 -0.668289  0.000000 0.000000 1 0 1.000000
  phy
0  -9.215976 -0.472286 -9.491274  0.669097 -0.000066 0.743175  0.000000 0.000000 1 0 1.000000
0  -7.432227 5.870256 -10.251009  0.583696 0.119841 0.803080  0.000000 0.000000 1 0 1.000000
0  -5.129441 5.879561 -11.572799  0.397980 0.043187 0.916377  0.000000 0.000000 1 0 1.000000
  phy
0  -7.432254 -4.975365 10.239978  0.549208 -0.032725 -0.835045  0.000000 0.000000 1 0 1.000000
0  -5.142039 -4.975325 11.572274  0.379630 -0.041305 -0.924216  0.000000 0.000000 1 0 1.000000
0  -5.142029 5.859241 11.572288  0.440576 0.054421 -0.896064  0.000000 0.000000 1 0 1.000000
  phy
0  -7.432254 -4.975365 10.239978  0.549208 -0.032725 -0.835045  0.000000 0.000000 1 0 1.000000
0  -5.142029 5.859241 11.572288  0.440576 0.054421 -0.896064  0.000000 0.000000 1 0 1.000000
0  -7.432273 5.859314 10.239978  0.574624 0.038541 -0.817510  0.000000 0.000000 1 0 1.000000
  phy
0  -9.204984 -0.483277 8.951738  0.742783 0.000003 -0.669533  0.000000 0.000000 1 0 1.000000
0  -7.432254 -4.975365 10.239978  0.549208 -0.032725 -0.835045  0.000000 0.000000 1 0 1.000000
0  -7.432273 5.859314 10.239978  0.574624 0.038541 -0.817510  0.000000 0.000000 1 0 1.000000
  phy
0  -6.166039 -7.267736 5.926617  0.116937 -0.976442 -0.181347  0.000000 0.000000 1 0 1.000000
0  -10.526277 -5.988312 6.088928  0.454398 -0.848293 -0.271885  0.000000 0.000000 1 0 1.000000
0  -7.542379 -7.265560 4.029910  0.109462 -0.993774 -0.020762  0.000000 0.000000 1 0 1.000000
  phy
0  -12.089793 -5.988313 1.266238  0.338555 -0.940789 -0.017220  0.000000 0.000000 1 0 1.000000
0  -7.532311 -7.257356 -4.044271  0.108009 -0.993960 0.019405  0.000000 0.000000 1 0 1.000000
0  -7.542379 -7.265560 4.029910  0.109462 -0.993774 -0.020762  0.000000 0.000000 1 0 1.000000
  phy
0  -11.561275 -5.977305 -3.765699  0.548360 -0.817119 0.177813  0.000000 0.000000 1 0 1.000000
0  -12.089790 -5.977302 -1.277260  0.490597 -0.870271 0.044071  0.000000 0.000000 1 0 1.000000
0  -12.574264 -4.967101 -1.321308  0.996120 -0.040444 0.078167  0.000000 0.000000 1 0 1.000000
  phy
0  -11.561275 -5.977305 -3.765699  0.548360 -0.817119 0.177813  0.000000 0.000000 1 0 1.000000
0  -12.574264 -4.967101 -1.321308  0.996120 -0.040444 0.078167  0.000000 0.000000 1 0 1.000000
0  -12.023725 -4.964312 -3.919833  0.960737 -0.028154 0.276027  0.000000 0.000000 1 0 1.000000
  phy
0  -12.089790 -5.977302 -1.277260  0.490597 -0.870271 0.044071  0.000000 0.000000 1 0 1.000000
0  -12.089793 -5.988313 1.266238  0.338555 -0.940789 -0.017220  0.000000 0.000000 1 0 1.000000
0  -12.585280 -4.975327 1.321260  0.989548 -0.053126 -0.134058  0.000000 0.000000 1 0 1.000000
  phy
0  -12.574264 -4.967101 -1.321308  0.996120 -0.040444 0.078167  0.000000 0.000000 1 0 1.000000
0  -12.089790 -5.977302 -1.277260  0.490597 -0.870271 0.044071  0.000000 0.000000 1 0 1.000000
0  -12.585280 -4.975327 1.321260  0.989548 -0.053126 -0.134058  0.000000 0.000000 1 0 1.000000
  phy
0  -12.089790 -5.977302 -1.277260  0.490597 -0.870271 0.044071  0.000000 0.000000 1 0 1.000000
0  -7.532311 -7.257356 -4.044271  0.108009 -0.993960 0.019405  0.000000 0.000000 1 0 1.000000
0  -12.089793 -5.988313 1.266238  0.338555 -0.940789 -0.017220  0.000000 0.000000 1 0 1.000000
  phy
0  -11.561275 -5.977305 -3.765699  0.548360 -0.817119 0.177813  0.000000 0.000000 1 0 1.000000
0  -7.532311 -7.257356 -4.044271  0.108009 -0.993960 0.019405  0.000000 0.000000 1 0 1.000000
0  -12.089790 -5.977302 -1.277260  0.490597 -0.870271 0.044071  0.000000 0.000000 1 0 1.000000
  phy
0  -11.561275 -5.977305 -3.765699  0.548360 -0.817119 0.177813  0.000000 0.000000 1 0 1.000000
0  -12.023725 -4.964312 -3.919833  0.960737 -0.028154 0.276027  0.000000 0.000000 1 0 1.000000
0  -10.955679 -4.964310 -6.331191  0.887527 -0.052959 0.457702  0.000000 0.000000 1 0 1.000000
  phy
0  -12.574264 5.870256 -1.321306  0.988478 0.053441 0.141614  0.000000 0.000000 1 0 1.000000
0  -12.574264 -4.967101 -1.321308  0.996120 -0.040444 0.078167  0.000000 0.000000 1 0 1.000000
0  -12.585279 5.859241 1.321267  0.997311 0.025208 -0.068813  0.000000 0.000000 1 0 1.000000
  phy
0  -12.585279 5.859241 1.321267  0.997311 0.025208 -0.068813  0.000000 0.000000 1 0 1.000000
0  -12.574264 -4.967101 -1.321308  0.996120 -0.040444 0.078167  0.000000 0.000000 1 0 1.000000
0  -12.585280 -4.975327 1.321260  0.989548 -0.053126 -0.134058  0.000000 0.000000 1 0 1.000000
  phy
0  5.144575 -4.973210 -11.578608  -0.414156 -0.046757 0.909004  0.000000 0.000000 1 0 1.000000
0  5.164054 5.870372 -11.572283  -0.393056 0.024019 0.919201  0.000000 0.000000 1 0 1.000000
0  9.271059 -0.472305 -9.513266  -0.669248 -0.000277 0.743039  0.000000 0.000000 1 0 1.000000
  phy
0  9.425206 5.870275 -8.467246  -0.721433 0.195105 0.664431  0.000000 0.000000 1 0 1.000000
0  7.454279 5.870249 -10.239982  -0.584117 0.127505 0.801592  0.000000 0.000000 1 0 1.000000
0  6.144011 6.718086 -10.647380  -0.297775 0.803808 0.514997  0.000000 0.000000 1 0 1.000000
  phy
0  6.144011 6.718086 -10.647380  -0.297775 0.803808 0.514997  0.000000 0.000000 1 0 1.000000
0  9.942712 6.718087 -7.223038  -0.178507 0.975351 0.129713  0.000000 0.000000 1 0 1.000000
0  9.425206 5.870275 -8.467246  -0.721433 0.195105 0.664431  0.000000 0.000000 1 0 1.000000
  phy
0  9.942712 6.718087 -7.223038  -0.178507 0.975351 0.129713  0.000000 0.000000 1 0 1.000000
0  10.977728 5.870186 -6.331176  -0.887993 0.054382 0.456630  0.000000 0.000000 1 0 1.000000
0  9.425206 5.870275 -8.467246  -0.721433 0.195105 0.664431  0.000000 0.000000 1 0 1.000000
  phy
0  9.271059 -0.472305 -9.513266  -0.669248 -0.000277 0.743039  0.000000 0.000000 1 0 1.000000
0  7.454279 5.870249 -10.239982  -0.584117 0.127505 0.801592  0.000000 0.000000 1 0 1.000000
0  9.425206 5.870275 -8.467246  -0.721433 0.195105 0.664431  0.000000 0.000000 1 0 1.000000
  phy
0  9.425206 5.870275 -8.467246  -0.721433 0.195105 0.664431  0.000000 0.000000 1 0 1.000000
0  10.977728 5.870186 -6.331176  -0.887993 0.054382 0.456630  0.000000 0.000000 1 0 1.000000
0  9.271059 -0.472305 -9.513266  -0.669248 -0.000277 0.743039  0.000000 0.000000 1 0 1.000000
  phy
0  4.965820 -5.988313 11.120859  -0.183446 -0.872059 -0.453720  0.000000 0.000000 1 0 1.000000
0  5.184626 -4.987659 11.560415  -0.437327 -0.041183 -0.898359  0.000000 0.000000 1 0 1.000000
0  2.642551 -4.975324 12.387091  -0.237969 -0.052943 -0.969829  0.000000 0.000000 1 0 1.000000
  phy
0  4.965820 -5.988313 11.120859  -0.183446 -0.872059 -0.453720  0.000000 0.000000 1 0 1.000000
0  2.642551 -4.975324 12.387091  -0.237969 -0.052943 -0.969829  0.000000 0.000000 1 0 1.000000
0  2.543458 -5.988312 11.902617  -0.100837 -0.873976 -0.475392  0.000000 0.000000 1 0 1.000000
  phy
0  2.543458 -5.988312 11.902617  -0.100837 -0.873976 -0.475392  0.000000 0.000000 1 0 1.000000
0  1.515500 -7.271648 8.405372  0.022833 -0.966714 -0.254838  0.000000 0.000000 1 0 1.000000
0  4.965820 -5.988313 11.120859  -0.183446 -0.872059 -0.453720  0.000000 0.000000 1 0 1.000000
  phy
0  4.965820 -5.988313 11.120859  -0.183446 -0.872059 -0.453720  0.000000 0.000000 1 0 1.000000
0  1.515500 -7.271648 8.405372  0.022833 -0.966714 -0.254838  0.000000 0.000000 1 0 1.000000
0  3.712044 -7.271319 7.689774  -0.028482 -0.999144 -0.030011  0.000000 0.000000 1 0 1.000000
  phy
0  12.606184 -4.978045 1.326555  -0.992331 -0.059529 -0.108331  0.000000 0.000000 1 0 1.000000
0  12.607303 -4.964314 -1.321271  -0.995871 -0.053356 0.073438  0.000000 0.000000 1 0 1.000000
0  12.607297 5.859250 1.321318  -0.994330 0.019970 -0.104448  0.000000 0.000000 1 0 1.000000
  phy
0  9.271059 -0.472305 -9.513266  -0.669248 -0.000277 0.743039  0.000000 0.000000 1 0 1.000000
0  10.977728 5.870186 -6.331176  -0.887993 0.054382 0.456630  0.000000 0.000000 1 0 1.000000
0  10.977735 -4.964301 -6.331142  -0.879848 -0.058539 0.471636  0.000000 0.000000 1 0 1.000000
  phy
0  10.977735 -4.964301 -6.331142  -0.879848 -0.058539 0.471636  0.000000 0.000000 1 0 1.000000
0  9.446551 -4.986159 -8.433818  -0.728922 -0.191954 0.657135  0.000000 0.000000 1 0 1.000000
0  9.271059 -0.472305 -9.513266  -0.669248 -0.000277 0.743039  0.000000 0.000000 1 0 1.000000
  phy
0  12.023737 6.718085 -2.554468  -0.023296 0.999714 0.005337  0.000000 0.000000 1 0 1.000000
0  12.607302 5.870261 -1.321271  -0.989740 0.056715 0.131139  0.000000 0.000000 1 0 1.000000
0  12.056768 5.870263 -3.908802  -0.950250 0.038424 0.309110  0.000000 0.000000 1 0 1.000000
  phy
0  12.056768 5.870263 -3.908802  -0.950250 0.038424 0.309110  0.000000 0.000000 1 0 1.000000
0  10.977728 5.870186 -6.331176  -0.887993 0.054382 0.456630  0.000000 0.000000 1 0 1.000000
0  12.023737 6.718085 -2.554468  -0.023296 0.999714 0.005337  0.000000 0.000000 1 0 1.000000
  phy
0  12.023737 6.718085 -2.554468  -0.023296 0.999714 0.005337  0.000000 0.000000 1 0 1.000000
0  9.938624 6.710373 7.226581  -0.024971 0.999536 -0.017473  0.000000 0.000000 1 0 1.000000
0  12.023726 6.707075 2.554509  -0.555884 0.825393 -0.098583  0.000000 0.000000 1 0 1.000000
  phy
0  10.977704 5.859316 6.331193  -0.864264 0.034392 -0.501861  0.000000 0.000000 1 0 1.000000
0  12.056758 5.859249 3.919837  -0.937340 0.056780 -0.343757  0.000000 0.000000 1 0 1.000000
0  9.938624 6.710373 7.226581  -0.024971 0.999536 -0.017473  0.000000 0.000000 1 0 1.000000
  phy
0  9.938624 6.710373 7.226581  -0.024971 0.999536 -0.017473  0.000000 0.000000 1 0 1.000000
0  12.056758 5.859249 3.919837  -0.937340 0.056780 -0.343757  0.000000 0.000000 1 0 1.000000
0  12.023726 6.707075 2.554509  -0.555884 0.825393 -0.098583  0.000000 0.000000 1 0 1.000000
  phy
0  9.938624 6.710373 7.226581  -0.024971 0.999536 -0.017473  0.000000 0.000000 1 0 1.000000
0  9.425183 5.859235 8.478291  -0.727490 0.155393 -0.668289  0.000000 0.000000 1 0 1.000000
0  10.977704 5.859316 6.331193  -0.864264 0.034392 -0.501861  0.000000 0.000000 1 0 1.000000
  phy
0  9.425183 5.859235 8.478291  -0.727490 0.155393 -0.668289  0.000000 0.000000 1 0 1.000000
0  9.293045 -0.483144 8.984790  -0.743697 -0.000002 -0.668517  0.000000 0.000000 1 0 1.000000
0  10.977704 5.859316 6.331193  -0.864264 0.034392 -0.501861  0.000000 0.000000 1 0 1.000000
  phy
0  -7.432227 5.870256 -10.251009  0.583696 0.119841 0.803080  0.000000 0.000000 1 0 1.000000
0  -8.225011 6.718083 -9.138932  0.095162 0.989854 0.105515  0.000000 0.000000 1 0 1.000000
0  -5.129441 5.879561 -11.572799  0.397980 0.043187 0.916377  0.000000 0.000000 1 0 1.000000
  phy
0  -8.225011 6.718083 -9.138932  0.095162 0.989854 0.105515  0.000000 0.000000 1 0 1.000000
0  -3.798704 6.718085 -11.693409  0.154479 0.824299 0.544672  0.000000 0.000000 1 0 1.000000
0  -5.129441 5.879561 -11.572799  0.397980 0.043187 0.916377  0.000000 0.000000 1 0 1.000000
  phy
0  -5.129441 5.879561 -11.572799  0.397980 0.043187 0.916377  0.000000 0.000000 1 0 1.000000
0  -2.620538 5.870269 -12.387090  0.207143 0.037128 0.977606  0.000000 0.000000 1 0 1.000000
0  -2.620543 -4.968091 -12.387088  0.205235 -0.022113 0.978463  0.000000 0.000000 1 0 1.000000
  phy
0  -3.798704 6.718085 -11.693409  0.154479 0.824299 0.544672  0.000000 0.000000 1 0 1.000000
0  -2.620538 5.870269 -12.387090  0.207143 0.037128 0.977606  0.000000 0.000000 1 0 1.000000
0  -5.129441 5.879561 -11.572799  0.397980 0.043187 0.916377  0.000000 0.000000 1 0 1.000000
  phy
0  -12.287989 6.718083 -0.000023  0.015253 0.999883 -0.001102  0.000000 0.000000 1 0 1.000000
0  12.023737 6.718085 -2.554468  -0.023296 0.999714 0.005337  0.000000 0.000000 1 0 1.000000
0  1.288280 6.718089 -12.221920  -0.002834 0.999629 0.027082  0.000000 0.000000 1 0 1.000000
  phy
0  -12.287989 6.718083 -0.000023  0.015253 0.999883 -0.001102  0.000000 0.000000 1 0 1.000000
0  1.288280 6.718089 -12.221920  -0.002834 0.999629 0.027082  0.000000 0.000000 1 0 1.000000
0  -8.225011 6.718083 -9.138932  0.095162 0.989854 0.105515  0.000000 0.000000 1 0 1.000000
  phy
0  -12.287989 6.718083 -0.000023  0.015253 0.999883 -0.001102  0.000000 0.000000 1 0 1.000000
0  -8.225011 6.718083 -9.138932  0.095162 0.989854 0.105515  0.000000 0.000000 1 0 1.000000
0  -11.230947 6.718083 -4.998894  0.530143 0.820750 0.212879  0.000000 0.000000 1 0 1.000000
  phy
0  -8.225011 6.718083 -9.138932  0.095162 0.989854 0.105515  0.000000 0.000000 1 0 1.000000
0  1.288280 6.718089 -12.221920  -0.002834 0.999629 0.027082  0.000000 0.000000 1 0 1.000000
0  -3.798704 6.718085 -11.693409  0.154479 0.824299 0.544672  0.000000 0.000000 1 0 1.000000
  phy
0  1.288280 6.718089 -12.221920  -0.002834 0.999629 0.027082  0.000000 0.000000 1 0 1.000000
0  12.023737 6.718085 -2.554468  -0.023296 0.999714 0.005337  0.000000 0.000000 1 0 1.000000
0  9.942712 6.718087 -7.223038  -0.178507 0.975351 0.129713  0.000000 0.000000 1 0 1.000000
  phy
0  1.288280 6.718089 -12.221920  -0.002834 0.999629 0.027082  0.000000 0.000000 1 0 1.000000
0  9.942712 6.718087 -7.223038  -0.178507 0.975351 0.129713  0.000000 0.000000 1 0 1.000000
0  6.144011 6.718086 -10.647380  -0.297775 0.803808 0.514997  0.000000 0.000000 1 0 1.000000
  phy
0  6.144011 6.718086 -10.647380  -0.297775 0.803808 0.514997  0.000000 0.000000 1 0 1.000000
0  7.454279 5.870249 -10.239982  -0.584117 0.127505 0.801592  0.000000 0.000000 1 0 1.000000
0  5.164054 5.870372 -11.572283  -0.393056 0.024019 0.919201  0.000000 0.000000 1 0 1.000000
  phy
0  -10.955700 -4.975365 6.331163  0.877110 -0.026912 -0.479535  0.000000 0.000000 1 0 1.000000
0  -9.204984 -0.483277 8.951738  0.742783 0.000003 -0.669533  0.000000 0.000000 1 0 1.000000
0  -10.955700 5.859314 6.331157  0.856116 0.061573 -0.513102  0.000000 0.000000 1 0 1.000000
  phy
0  -9.204984 -0.483277 8.951738  0.742783 0.000003 -0.669533  0.000000 0.000000 1 0 1.000000
0  -9.403253 5.861240 8.467098  0.740192 0.083479 -0.667194  0.000000 0.000000 1 0 1.000000
0  -10.955700 5.859314 6.331157  0.856116 0.061573 -0.513102  0.000000 0.000000 1 0 1.000000
  phy
0  -9.403253 5.861240 8.467098  0.740192 0.083479 -0.667194  0.000000 0.000000 1 0 1.000000
0  -9.204984 -0.483277 8.951738  0.742783 0.000003 -0.669533  0.000000 0.000000 1 0 1.000000
0  -7.432273 5.859314 10.239978  0.574624 0.038541 -0.817510  0.000000 0.000000 1 0 1.000000
  phy
0  0.010985 5.859246 12.662354  0.006739 0.079178 -0.996838  0.000000 0.000000 1 0 1.000000
0  -2.620578 5.861998 12.387083  0.206838 0.019295 -0.978185  0.000000 0.000000 1 0 1.000000
0  0.019327 -4.975303 12.663229  0.002137 -0.031654 -0.999497  0.000000 0.000000 1 0 1.000000
  phy
0  0.019327 -4.975303 12.663229  0.002137 -0.031654 -0.999497  0.000000 0.000000 1 0 1.000000
0  -2.620578 5.861998 12.387083  0.206838 0.019295 -0.978185  0.000000 0.000000 1 0 1.000000
0  -2.618282 -4.981500 12.387322  0.210499 -0.059233 -0.975798  0.000000 0.000000 1 0 1.000000
  phy
0  -5.142029 5.859241 11.572288  0.440576 0.054421 -0.896064  0.000000 0.000000 1 0 1.000000
0  -2.620578 5.861998 12.387083  0.206838 0.019295 -0.978185  0.000000 0.000000 1 0 1.000000
0  -3.798725 6.707067 11.693400  0.037976 0.990360 -0.133213  0.000000 0.000000 1 0 1.000000
  phy
0  -2.620578 5.861998 12.387083  0.206838 0.019295 -0.978185  0.000000 0.000000 1 0 1.000000
0  -5.142029 5.859241 11.572288  0.440576 0.054421 -0.896064  0.000000 0.000000 1 0 1.000000
0  -5.142039 -4.975325 11.572274  0.379630 -0.041305 -0.924216  0.000000 0.000000 1 0 1.000000
  phy
0  -2.618282 -4.981500 12.387322  0.210499 -0.059233 -0.975798  0.000000 0.000000 1 0 1.000000
0  -2.620578 5.861998 12.387083  0.206838 0.019295 -0.978185  0.000000 0.000000 1 0 1.000000
0  -5.142039 -4.975325 11.572274  0.379630 -0.041305 -0.924216  0.000000 0.000000 1 0 1.000000
  phy
0  -10.955700 -4.975365 6.331163  0.877110 -0.026912 -0.479535  0.000000 0.000000 1 0 1.000000
0  -10.955700 5.859314 6.331157  0.856116 0.061573 -0.513102  0.000000 0.000000 1 0 1.000000
0  -12.034744 5.859241 3.908798  0.951279 0.041630 -0.305509  0.000000 0.000000 1 0 1.000000
  phy
0  -10.955700 -4.975365 6.331163  0.877110 -0.026912 -0.479535  0.000000 0.000000 1 0 1.000000
0  -12.034744 5.859241 3.908798  0.951279 0.041630 -0.305509  0.000000 0.000000 1 0 1.000000
0  -12.034746 -4.977275 3.908797  0.947997 -0.059560 -0.312657  0.000000 0.000000 1 0 1.000000
  phy
0  -12.034744 5.859241 3.908798  0.951279 0.041630 -0.305509  0.000000 0.000000 1 0 1.000000
0  -12.585279 5.859241 1.321267  0.997311 0.025208 -0.068813  0.000000 0.000000 1 0 1.000000
0  -12.585280 -4.975327 1.321260  0.989548 -0.053126 -0.134058  0.000000 0.000000 1 0 1.000000
  phy
0  -12.034744 5.859241 3.908798  0.951279 0.041630 -0.305509  0.000000 0.000000 1 0 1.000000
0  -12.585280 -4.975327 1.321260  0.989548 -0.053126 -0.134058  0.000000 0.000000 1 0 1.000000
0  -12.034746 -4.977275 3.908797  0.947997 -0.059560 -0.312657  0.000000 0.000000 1 0 1.000000
  phy
0  -12.034746 -4.977275 3.908797  0.947997 -0.059560 -0.312657  0.000000 0.000000 1 0 1.000000
0  -10.526277 -5.988312 6.088928  0.454398 -0.848293 -0.271885  0.000000 0.000000 1 0 1.000000
0  -10.955700 -4.975365 6.331163  0.877110 -0.026912 -0.479535  0.000000 0.000000 1 0 1.000000
  phy
0  -4.932840 -5.988312 11.120840  0.130821 -0.929948 -0.343633  0.000000 0.000000 1 0 1.000000
0  1.515500 -7.271648 8.405372  0.022833 -0.966714 -0.254838  0.000000 0.000000 1 0 1.000000
0  -2.521997 -5.988311 11.902553  0.091577 -0.871587 -0.481611  0.000000 0.000000 1 0 1.000000
  phy
0  -4.932840 -5.988312 11.120840  0.130821 -0.929948 -0.343633  0.000000 0.000000 1 0 1.000000
0  -6.166039 -7.267736 5.926617  0.116937 -0.976442 -0.181347  0.000000 0.000000 1 0 1.000000
0  1.515500 -7.271648 8.405372  0.022833 -0.966714 -0.254838  0.000000 0.000000 1 0 1.000000
  phy
0  -8.225038 6.707080 9.138905  0.194190 0.956974 -0.215616  0.000000 0.000000 1 0 1.000000
0  -11.230966 6.707077 4.998865  0.486372 0.846334 -0.217168  0.000000 0.000000 1 0 1.000000
0  -10.955700 5.859314 6.331157  0.856116 0.061573 -0.513102  0.000000 0.000000 1 0 1.000000
  phy
0  -8.225038 6.707080 9.138905  0.194190 0.956974 -0.215616  0.000000 0.000000 1 0 1.000000
0  -10.955700 5.859314 6.331157  0.856116 0.061573 -0.513102  0.000000 0.000000 1 0 1.000000
0  -9.403253 5.861240 8.467098  0.740192 0.083479 -0.667194  0.000000 0.000000 1 0 1.000000
  phy
0  -5.142029 5.859241 11.572288  0.440576 0.054421 -0.896064  0.000000 0.000000 1 0 1.000000
0  -8.225038 6.707080 9.138905  0.194190 0.956974 -0.215616  0.000000 0.000000 1 0 1.000000
0  -7.432273 5.859314 10.239978  0.574624 0.038541 -0.817510  0.000000 0.000000 1 0 1.000000
  phy
0  -8.225038 6.707080 9.138905  0.194190 0.956974 -0.215616  0.000000 0.000000 1 0 1.000000
0  -5.142029 5.859241 11.572288  0.440576 0.054421 -0.896064  0.000000 0.000000 1 0 1.000000
0  -3.798725 6.707067 11.693400  0.037976 0.990360 -0.133213  0.000000 0.000000 1 0 1.000000
  phy
0  -8.225038 6.707080 9.138905  0.194190 0.956974 -0.215616  0.000000 0.000000 1 0 1.000000
0  -9.403253 5.861240 8.467098  0.740192 0.083479 -0.667194  0.000000 0.000000 1 0 1.000000
0  -7.432273 5.859314 10.239978  0.574624 0.038541 -0.817510  0.000000 0.000000 1 0 1.000000
  phy
0  -8.225038 6.707080 9.138905  0.194190 0.956974 -0.215616  0.000000 0.000000 1 0 1.000000
0  -12.287989 6.718083 -0.000023  0.015253 0.999883 -0.001102  0.000000 0.000000 1 0 1.000000
0  -11.230966 6.707077 4.998865  0.486372 0.846334 -0.217168  0.000000 0.000000 1 0 1.000000
  phy
0  -12.287989 6.718083 -0.000023  0.015253 0.999883 -0.001102  0.000000 0.000000 1 0 1.000000
0  -8.225038 6.707080 9.138905  0.194190 0.956974 -0.215616  0.000000 0.000000 1 0 1.000000
0  -3.798725 6.707067 11.693400  0.037976 0.990360 -0.133213  0.000000 0.000000 1 0 1.000000
  phy
0  12.607303 -4.964314 -1.321271  -0.995871 -0.053356 0.073438  0.000000 0.000000 1 0 1.000000
0  12.607302 5.870261 -1.321271  -0.989740 0.056715 0.131139  0.000000 0.000000 1 0 1.000000
0  12.607297 5.859250 1.321318  -0.994330 0.019970 -0.104448  0.000000 0.000000 1 0 1.000000
  phy
0  12.607302 5.870261 -1.321271  -0.989740 0.056715 0.131139  0.000000 0.000000 1 0 1.000000
0  12.023726 6.707075 2.554509  -0.555884 0.825393 -0.098583  0.000000 0.000000 1 0 1.000000
0  12.607297 5.859250 1.321318  -0.994330 0.019970 -0.104448  0.000000 0.000000 1 0 1.000000
  phy
0  12.023726 6.707075 2.554509  -0.555884 0.825393 -0.098583  0.000000 0.000000 1 0 1.000000
0  12.056758 5.859249 3.919837  -0.937340 0.056780 -0.343757  0.000000 0.000000 1 0 1.000000
0  12.607297 5.859250 1.321318  -0.994330 0.019970 -0.104448  0.000000 0.000000 1 0 1.000000
  phy
0  12.023737 6.718085 -2.554468  -0.023296 0.999714 0.005337  0.000000 0.000000 1 0 1.000000
0  12.023726 6.707075 2.554509  -0.555884 0.825393 -0.098583  0.000000 0.000000 1 0 1.000000
0  12.607302 5.870261 -1.321271  -0.989740 0.056715 0.131139  0.000000 0.000000 1 0 1.000000
  phy
0  12.023737 6.718085 -2.554468  -0.023296 0.999714 0.005337  0.000000 0.000000 1 0 1.000000
0  10.977728 5.870186 -6.331176  -0.887993 0.054382 0.456630  0.000000 0.000000 1 0 1.000000
0  9.942712 6.718087 -7.223038  -0.178507 0.975351 0.129713  0.000000 0.000000 1 0 1.000000
  phy
0  -2.620543 -4.968091 -12.387088  0.205235 -0.022113 0.978463  0.000000 0.000000 1 0 1.000000
0  0.011025 5.870256 -12.662354  0.003657 0.042337 0.999097  0.000000 0.000000 1 0 1.000000
0  0.024940 -4.970200 -12.660905  -0.000065 -0.075702 0.997130  0.000000 0.000000 1 0 1.000000
  phy
0  -12.287989 6.718083 -0.000023  0.015253 0.999883 -0.001102  0.000000 0.000000 1 0 1.000000
0  -12.574264 5.870256 -1.321306  0.988478 0.053441 0.141614  0.000000 0.000000 1 0 1.000000
0  -12.585279 5.859241 1.321267  0.997311 0.025208 -0.068813  0.000000 0.000000 1 0 1.000000
  phy
0  -12.574264 5.870256 -1.321306  0.988478 0.053441 0.141614  0.000000 0.000000 1 0 1.000000
0  -12.287989 6.718083 -0.000023  0.015253 0.999883 -0.001102  0.000000 0.000000 1 0 1.000000
0  -11.230947 6.718083 -4.998894  0.530143 0.820750 0.212879  0.000000 0.000000 1 0 1.000000
  phy
0  -10.526263 -5.977300 -6.088952  0.381448 -0.894969 0.231363  0.000000 0.000000 1 0 1.000000
0  -11.561275 -5.977305 -3.765699  0.548360 -0.817119 0.177813  0.000000 0.000000 1 0 1.000000
0  -10.955679 -4.964310 -6.331191  0.887527 -0.052959 0.457702  0.000000 0.000000 1 0 1.000000
  phy
0  -10.526263 -5.977300 -6.088952  0.381448 -0.894969 0.231363  0.000000 0.000000 1 0 1.000000
0  -7.532311 -7.257356 -4.044271  0.108009 -0.993960 0.019405  0.000000 0.000000 1 0 1.000000
0  -11.561275 -5.977305 -3.765699  0.548360 -0.817119 0.177813  0.000000 0.000000 1 0 1.000000
  phy
0  5.164054 5.870372 -11.572283  -0.393056 0.024019 0.919201  0.000000 0.000000 1 0 1.000000
0  7.454279 5.870249 -10.239982  -0.584117 0.127505 0.801592  0.000000 0.000000 1 0 1.000000
0  9.271059 -0.472305 -9.513266  -0.669248 -0.000277 0.743039  0.000000 0.000000 1 0 1.000000
  phy
0  2.543458 -5.988312 11.902617  -0.100837 -0.873976 -0.475392  0.000000 0.000000 1 0 1.000000
0  2.642551 -4.975324 12.387091  -0.237969 -0.052943 -0.969829  0.000000 0.000000 1 0 1.000000
0  0.033041 -5.988311 12.166872  -0.010497 -0.847996 -0.529899  0.000000 0.000000 1 0 1.000000
  phy
0  0.033041 -5.988311 12.166872  -0.010497 -0.847996 -0.529899  0.000000 0.000000 1 0 1.000000
0  2.642551 -4.975324 12.387091  -0.237969 -0.052943 -0.969829  0.000000 0.000000 1 0 1.000000
0  0.019327 -4.975303 12.663229  0.002137 -0.031654 -0.999497  0.000000 0.000000 1 0 1.000000
  phy
0  0.033041 -5.988311 12.166872  -0.010497 -0.847996 -0.529899  0.000000 0.000000 1 0 1.000000
0  1.515500 -7.271648 8.405372  0.022833 -0.966714 -0.254838  0.000000 0.000000 1 0 1.000000
0  2.543458 -5.988312 11.902617  -0.100837 -0.873976 -0.475392  0.000000 0.000000 1 0 1.000000
  phy
0  -5.142039 -4.975325 11.572274  0.379630 -0.041305 -0.924216  0.000000 0.000000 1 0 1.000000
0  -4.932840 -5.988312 11.120840  0.130821 -0.929948 -0.343633  0.000000 0.000000 1 0 1.000000
0  -2.618282 -4.981500 12.387322  0.210499 -0.059233 -0.975798  0.000000 0.000000 1 0 1.000000
  phy
0  -2.618282 -4.981500 12.387322  0.210499 -0.059233 -0.975798  0.000000 0.000000 1 0 1.000000
0  -4.932840 -5.988312 11.120840  0.130821 -0.929948 -0.343633  0.000000 0.000000 1 0 1.000000
0  -2.521997 -5.988311 11.902553  0.091577 -0.871587 -0.481611  0.000000 0.000000 1 0 1.000000
  phy
0  -2.618282 -4.981500 12.387322  0.210499 -0.059233 -0.975798  0.000000 0.000000 1 0 1.000000
0  -2.521997 -5.988311 11.902553  0.091577 -0.871587 -0.481611  0.000000 0.000000 1 0 1.000000
0  0.019327 -4.975303 12.663229  0.002137 -0.031654 -0.999497  0.000000 0.000000 1 0 1.000000
  phy
0  0.019327 -4.975303 12.663229  0.002137 -0.031654 -0.999497  0.000000 0.000000 1 0 1.000000
0  -2.521997 -5.988311 11.902553  0.091577 -0.871587 -0.481611  0.000000 0.000000 1 0 1.000000
0  0.033041 -5.988311 12.166872  -0.010497 -0.847996 -0.529899  0.000000 0.000000 1 0 1.000000
  phy
0  -2.521997 -5.988311 11.902553  0.091577 -0.871587 -0.481611  0.000000 0.000000 1 0 1.000000
0  1.515500 -7.271648 8.405372  0.022833 -0.966714 -0.254838  0.000000 0.000000 1 0 1.000000
0  0.033041 -5.988311 12.166872  -0.010497 -0.847996 -0.529899  0.000000 0.000000 1 0 1.000000
  phy
0  2.642551 -4.975324 12.387091  -0.237969 -0.052943 -0.969829  0.000000 0.000000 1 0 1.000000
0  2.642560 5.859247 12.387091  -0.174690 0.025890 -0.984283  0.000000 0.000000 1 0 1.000000
0  0.019327 -4.975303 12.663229  0.002137 -0.031654 -0.999497  0.000000 0.000000 1 0 1.000000
  phy
0  2.642560 5.859247 12.387091  -0.174690 0.025890 -0.984283  0.000000 0.000000 1 0 1.000000
0  0.010985 5.859246 12.662354  0.006739 0.079178 -0.996838  0.000000 0.000000 1 0 1.000000
0  0.019327 -4.975303 12.663229  0.002137 -0.031654 -0.999497  0.000000 0.000000 1 0 1.000000
  phy
0  2.642560 5.859247 12.387091  -0.174690 0.025890 -0.984283  0.000000 0.000000 1 0 1.000000
0  2.642551 -4.975324 12.387091  -0.237969 -0.052943 -0.969829  0.000000 0.000000 1 0 1.000000
0  5.164029 5.859249 11.572295  -0.371714 0.055647 -0.926678  0.000000 0.000000 1 0 1.000000
  phy
0  9.425183 5.859235 8.478291  -0.727490 0.155393 -0.668289  0.000000 0.000000 1 0 1.000000
0  7.454257 5.859221 10.251022  -0.548529 0.030579 -0.835572  0.000000 0.000000 1 0 1.000000
0  9.293045 -0.483144 8.984790  -0.743697 -0.000002 -0.668517  0.000000 0.000000 1 0 1.000000
  phy
0  -12.287989 6.718083 -0.000023  0.015253 0.999883 -0.001102  0.000000 0.000000 1 0 1.000000
0  -12.034744 5.859241 3.908798  0.951279 0.041630 -0.305509  0.000000 0.000000 1 0 1.000000
0  -11.230966 6.707077 4.998865  0.486372 0.846334 -0.217168  0.000000 0.000000 1 0 1.000000
  phy
0  -12.034744 5.859241 3.908798  0.951279 0.041630 -0.305509  0.000000 0.000000 1 0 1.000000
0  -12.287989 6.718083 -0.000023  0.015253 0.999883 -0.001102  0.000000 0.000000 1 0 1.000000
0  -12.585279 5.859241 1.321267  0.997311 0.025208 -0.068813  0.000000 0.000000 1 0 1.000000
  phy
0  -11.230966 6.707077 4.998865  0.486372 0.846334 -0.217168  0.000000 0.000000 1 0 1.000000
0  -12.034744 5.859241 3.908798  0.951279 0.041630 -0.305509  0.000000 0.000000 1 0 1.000000
0  -10.955700 5.859314 6.331157  0.856116 0.061573 -0.513102  0.000000 0.000000 1 0 1.000000
  phy
0  -2.620543 -4.968091 -12.387088  0.205235 -0.022113 0.978463  0.000000 0.000000 1 0 1.000000
0  -2.620538 5.870269 -12.387090  0.207143 0.037128 0.977606  0.000000 0.000000 1 0 1.000000
0  0.011025 5.870256 -12.662354  0.003657 0.042337 0.999097  0.000000 0.000000 1 0 1.000000
  phy
0  5.164029 5.859249 11.572295  -0.371714 0.055647 -0.926678  0.000000 0.000000 1 0 1.000000
0  2.642551 -4.975324 12.387091  -0.237969 -0.052943 -0.969829  0.000000 0.000000 1 0 1.000000
0  5.184626 -4.987659 11.560415  -0.437327 -0.041183 -0.898359  0.000000 0.000000 1 0 1.000000
  phy
0  0.011025 5.870256 -12.662354  0.003657 0.042337 0.999097  0.000000 0.000000 1 0 1.000000
0  -2.620538 5.870269 -12.387090  0.207143 0.037128 0.977606  0.000000 0.000000 1 0 1.000000
0  -3.798704 6.718085 -11.693409  0.154479 0.824299 0.544672  0.000000 0.000000 1 0 1.000000
  phy
0  -3.798704 6.718085 -11.693409  0.154479 0.824299 0.544672  0.000000 0.000000 1 0 1.000000
0  1.288280 6.718089 -12.221920  -0.002834 0.999629 0.027082  0.000000 0.000000 1 0 1.000000
0  0.011025 5.870256 -12.662354  0.003657 0.042337 0.999097  0.000000 0.000000 1 0 1.000000
end
