version 1
nodes
0 "root" -1
end
skeleton
time 0
0  0.000000 0.000000 0.000000  0.000000 -0.000000 0.000000
end
triangles
  phy
0  -7.533508 -7.257358 -4.041563  0.249591 -0.966599 0.058228  0.000000 0.000000 1 0 1.000000
0  -6.166030 -7.255688 -5.930519  0.026994 -0.998442 0.048825  0.000000 0.000000 1 0 1.000000
0  -7.542379 -7.265560 4.029910  0.201814 -0.978638 -0.039238  0.000000 0.000000 1 0 1.000000
  phy
0  -6.166030 -7.255688 -5.930519  0.026994 -0.998442 0.048825  0.000000 0.000000 1 0 1.000000
0  -6.166039 -7.267736 5.926617  0.066238 -0.992558 -0.102178  0.000000 0.000000 1 0 1.000000
0  -7.542379 -7.265560 4.029910  0.201814 -0.978638 -0.039238  0.000000 0.000000 1 0 1.000000
  phy
0  -6.166030 -7.255688 -5.930519  0.026994 -0.998442 0.048825  0.000000 0.000000 1 0 1.000000
0  1.515500 -7.271648 8.405372  0.010672 -0.993034 -0.117346  0.000000 0.000000 1 0 1.000000
0  -6.166039 -7.267736 5.926617  0.066238 -0.992558 -0.102178  0.000000 0.000000 1 0 1.000000
  phy
0  -6.166030 -7.255688 -5.930519  0.026994 -0.998442 0.048825  0.000000 0.000000 1 0 1.000000
0  3.712044 -7.271319 7.689774  -0.038538 -0.998419 -0.040908  0.000000 0.000000 1 0 1.000000
0  1.515500 -7.271648 8.405372  0.010672 -0.993034 -0.117346  0.000000 0.000000 1 0 1.000000
  phy
0  -6.166030 -7.255688 -5.930519  0.026994 -0.998442 0.048825  0.000000 0.000000 1 0 1.000000
0  1.508509 -7.254546 -8.423223  0.010606 -0.997377 0.071605  0.000000 0.000000 1 0 1.000000
0  3.712044 -7.271319 7.689774  -0.038538 -0.998419 -0.040908  0.000000 0.000000 1 0 1.000000
  phy
0  1.508509 -7.254546 -8.423223  0.010606 -0.997377 0.071605  0.000000 0.000000 1 0 1.000000
0  8.457233 -7.263197 -1.149615  -0.113879 -0.992253 0.049645  0.000000 0.000000 1 0 1.000000
0  3.712044 -7.271319 7.689774  -0.038538 -0.998419 -0.040908  0.000000 0.000000 1 0 1.000000
  phy
0  1.508509 -7.254546 -8.423223  0.010606 -0.997377 0.071605  0.000000 0.000000 1 0 1.000000
0  3.731544 -7.255692 -7.693433  -0.160709 -0.967227 0.196582  0.000000 0.000000 1 0 1.000000
0  8.457233 -7.263197 -1.149615  -0.113879 -0.992253 0.049645  0.000000 0.000000 1 0 1.000000
  phy
0  8.457233 -7.263197 -1.149615  -0.113879 -0.992253 0.049645  0.000000 0.000000 1 0 1.000000
0  8.478262 -7.265555 1.167147  -0.223211 -0.968497 -0.110411  0.000000 0.000000 1 0 1.000000
0  3.712044 -7.271319 7.689774  -0.038538 -0.998419 -0.040908  0.000000 0.000000 1 0 1.000000
  phy
0  8.478262 -7.265555 1.167147  -0.223211 -0.968497 -0.110411  0.000000 0.000000 1 0 1.000000
0  9.050718 -5.988556 8.147889  -0.285189 -0.930565 -0.229599  0.000000 0.000000 1 0 1.000000
0  3.712044 -7.271319 7.689774  -0.038538 -0.998419 -0.040908  0.000000 0.000000 1 0 1.000000
  phy
0  8.478262 -7.265555 1.167147  -0.223211 -0.968497 -0.110411  0.000000 0.000000 1 0 1.000000
0  10.548295 -5.988308 6.088952  -0.374138 -0.901813 -0.216225  0.000000 0.000000 1 0 1.000000
0  9.050718 -5.988556 8.147889  -0.285189 -0.930565 -0.229599  0.000000 0.000000 1 0 1.000000
  phy
0  4.965820 -5.988313 11.120859  -0.183437 -0.872059 -0.453723  0.000000 0.000000 1 0 1.000000
0  1.515500 -7.271648 8.405372  0.010672 -0.993034 -0.117346  0.000000 0.000000 1 0 1.000000
0  3.712044 -7.271319 7.689774  -0.038538 -0.998419 -0.040908  0.000000 0.000000 1 0 1.000000
  phy
0  7.167989 -5.988313 9.843610  -0.336894 -0.820040 -0.462640  0.000000 0.000000 1 0 1.000000
0  4.965820 -5.988313 11.120859  -0.183437 -0.872059 -0.453723  0.000000 0.000000 1 0 1.000000
0  3.712044 -7.271319 7.689774  -0.038538 -0.998419 -0.040908  0.000000 0.000000 1 0 1.000000
  phy
0  9.050718 -5.988556 8.147889  -0.285189 -0.930565 -0.229599  0.000000 0.000000 1 0 1.000000
0  7.167989 -5.988313 9.843610  -0.336894 -0.820040 -0.462640  0.000000 0.000000 1 0 1.000000
0  3.712044 -7.271319 7.689774  -0.038538 -0.998419 -0.040908  0.000000 0.000000 1 0 1.000000
  phy
0  -9.028796 -5.977303 -8.147964  0.398987 -0.848124 0.348561  0.000000 0.000000 1 0 1.000000
0  -10.526265 -5.977303 -6.088949  0.421860 -0.873250 0.243863  0.000000 0.000000 1 0 1.000000
0  -10.955679 -4.964317 -6.331187  0.865338 -0.040603 0.499541  0.000000 0.000000 1 0 1.000000
  phy
0  -9.028796 -5.977303 -8.147964  0.398987 -0.848124 0.348561  0.000000 0.000000 1 0 1.000000
0  -10.955679 -4.964317 -6.331187  0.865338 -0.040603 0.499541  0.000000 0.000000 1 0 1.000000
0  -9.392148 -4.967662 -8.478282  0.742437 -0.041304 0.668641  0.000000 0.000000 1 0 1.000000
  phy
0  -10.955679 -4.964317 -6.331187  0.865338 -0.040603 0.499541  0.000000 0.000000 1 0 1.000000
0  -10.955681 5.870261 -6.331188  0.860024 0.077174 0.504384  0.000000 0.000000 1 0 1.000000
0  -9.392152 5.870256 -8.478283  0.743592 0.018840 0.668369  0.000000 0.000000 1 0 1.000000
  phy
0  -10.955679 -4.964317 -6.331187  0.865338 -0.040603 0.499541  0.000000 0.000000 1 0 1.000000
0  -9.392152 5.870256 -8.478283  0.743592 0.018840 0.668369  0.000000 0.000000 1 0 1.000000
0  -9.392148 -4.967662 -8.478282  0.742437 -0.041304 0.668641  0.000000 0.000000 1 0 1.000000
  phy
0  -9.392148 -4.967662 -8.478282  0.742437 -0.041304 0.668641  0.000000 0.000000 1 0 1.000000
0  -9.392152 5.870256 -8.478283  0.743592 0.018840 0.668369  0.000000 0.000000 1 0 1.000000
0  -7.432231 -4.964312 -10.251010  0.612227 -0.053533 0.788868  0.000000 0.000000 1 0 1.000000
  phy
0  -9.392152 5.870256 -8.478283  0.743592 0.018840 0.668369  0.000000 0.000000 1 0 1.000000
0  -7.432237 5.870262 -10.251010  0.559529 0.025294 0.828425  0.000000 0.000000 1 0 1.000000
0  -7.432231 -4.964312 -10.251010  0.612227 -0.053533 0.788868  0.000000 0.000000 1 0 1.000000
  phy
0  -9.392148 -4.967662 -8.478282  0.742437 -0.041304 0.668641  0.000000 0.000000 1 0 1.000000
0  -7.432231 -4.964312 -10.251010  0.612227 -0.053533 0.788868  0.000000 0.000000 1 0 1.000000
0  -9.028796 -5.977303 -8.147964  0.398987 -0.848124 0.348561  0.000000 0.000000 1 0 1.000000
  phy
0  -7.134943 -5.977296 -9.843614  0.279240 -0.879801 0.384675  0.000000 0.000000 1 0 1.000000
0  -7.432231 -4.964312 -10.251010  0.612227 -0.053533 0.788868  0.000000 0.000000 1 0 1.000000
0  -4.932817 -5.977301 -11.120845  0.138339 -0.930173 0.340060  0.000000 0.000000 1 0 1.000000
  phy
0  -9.028796 -5.977303 -8.147964  0.398987 -0.848124 0.348561  0.000000 0.000000 1 0 1.000000
0  -7.432231 -4.964312 -10.251010  0.612227 -0.053533 0.788868  0.000000 0.000000 1 0 1.000000
0  -7.134943 -5.977296 -9.843614  0.279240 -0.879801 0.384675  0.000000 0.000000 1 0 1.000000
  phy
0  -4.932817 -5.977301 -11.120845  0.138339 -0.930173 0.340060  0.000000 0.000000 1 0 1.000000
0  -6.166030 -7.255688 -5.930519  0.026994 -0.998442 0.048825  0.000000 0.000000 1 0 1.000000
0  -7.134943 -5.977296 -9.843614  0.279240 -0.879801 0.384675  0.000000 0.000000 1 0 1.000000
  phy
0  -7.134943 -5.977296 -9.843614  0.279240 -0.879801 0.384675  0.000000 0.000000 1 0 1.000000
0  -6.166030 -7.255688 -5.930519  0.026994 -0.998442 0.048825  0.000000 0.000000 1 0 1.000000
0  -9.028796 -5.977303 -8.147964  0.398987 -0.848124 0.348561  0.000000 0.000000 1 0 1.000000
  phy
0  -2.620543 -4.968099 -12.387088  0.174437 -0.028739 0.984249  0.000000 0.000000 1 0 1.000000
0  0.024940 -4.970200 -12.660905  -0.000041 -0.075702 0.997131  0.000000 0.000000 1 0 1.000000
0  -2.527123 -5.977302 -11.900881  0.110582 -0.844128 0.524613  0.000000 0.000000 1 0 1.000000
  phy
0  0.024940 -4.970200 -12.660905  -0.000041 -0.075702 0.997131  0.000000 0.000000 1 0 1.000000
0  0.033049 -5.977301 -12.166871  0.000738 -0.880390 0.474249  0.000000 0.000000 1 0 1.000000
0  -2.527123 -5.977302 -11.900881  0.110582 -0.844128 0.524613  0.000000 0.000000 1 0 1.000000
  phy
0  -2.527123 -5.977302 -11.900881  0.110582 -0.844128 0.524613  0.000000 0.000000 1 0 1.000000
0  1.508509 -7.254546 -8.423223  0.010606 -0.997377 0.071605  0.000000 0.000000 1 0 1.000000
0  -4.932817 -5.977301 -11.120845  0.138339 -0.930173 0.340060  0.000000 0.000000 1 0 1.000000
  phy
0  1.508509 -7.254546 -8.423223  0.010606 -0.997377 0.071605  0.000000 0.000000 1 0 1.000000
0  -6.166030 -7.255688 -5.930519  0.026994 -0.998442 0.048825  0.000000 0.000000 1 0 1.000000
0  -4.932817 -5.977301 -11.120845  0.138339 -0.930173 0.340060  0.000000 0.000000 1 0 1.000000
  phy
0  -4.932817 -5.977301 -11.120845  0.138339 -0.930173 0.340060  0.000000 0.000000 1 0 1.000000
0  -5.130998 -4.973282 -11.572295  0.403584 -0.031452 0.914402  0.000000 0.000000 1 0 1.000000
0  -2.527123 -5.977302 -11.900881  0.110582 -0.844128 0.524613  0.000000 0.000000 1 0 1.000000
  phy
0  -5.130998 -4.973282 -11.572295  0.403584 -0.031452 0.914402  0.000000 0.000000 1 0 1.000000
0  -2.620543 -4.968099 -12.387088  0.174437 -0.028739 0.984249  0.000000 0.000000 1 0 1.000000
0  -2.527123 -5.977302 -11.900881  0.110582 -0.844128 0.524613  0.000000 0.000000 1 0 1.000000
  phy
0  0.033049 -5.977301 -12.166871  0.000738 -0.880390 0.474249  0.000000 0.000000 1 0 1.000000
0  1.508509 -7.254546 -8.423223  0.010606 -0.997377 0.071605  0.000000 0.000000 1 0 1.000000
0  -2.527123 -5.977302 -11.900881  0.110582 -0.844128 0.524613  0.000000 0.000000 1 0 1.000000
  phy
0  12.114459 -5.988309 1.264829  -0.488517 -0.871972 -0.031871  0.000000 0.000000 1 0 1.000000
0  12.607298 -4.978051 1.321313  -0.992327 -0.059595 -0.108333  0.000000 0.000000 1 0 1.000000
0  11.583298 -5.988311 3.765679  -0.545047 -0.819559 -0.176765  0.000000 0.000000 1 0 1.000000
  phy
0  12.607298 -4.978051 1.321313  -0.992327 -0.059595 -0.108333  0.000000 0.000000 1 0 1.000000
0  12.056755 -4.975318 3.919840  -0.950778 -0.021893 -0.309099  0.000000 0.000000 1 0 1.000000
0  11.583298 -5.988311 3.765679  -0.545047 -0.819559 -0.176765  0.000000 0.000000 1 0 1.000000
  phy
0  8.457233 -7.263197 -1.149615  -0.113879 -0.992253 0.049645  0.000000 0.000000 1 0 1.000000
0  12.111824 -5.977298 -1.266210  -0.482111 -0.874510 0.052926  0.000000 0.000000 1 0 1.000000
0  12.114459 -5.988309 1.264829  -0.488517 -0.871972 -0.031871  0.000000 0.000000 1 0 1.000000
  phy
0  8.478262 -7.265555 1.167147  -0.223211 -0.968497 -0.110411  0.000000 0.000000 1 0 1.000000
0  8.457233 -7.263197 -1.149615  -0.113879 -0.992253 0.049645  0.000000 0.000000 1 0 1.000000
0  12.114459 -5.988309 1.264829  -0.488517 -0.871972 -0.031871  0.000000 0.000000 1 0 1.000000
  phy
0  11.583298 -5.988311 3.765679  -0.545047 -0.819559 -0.176765  0.000000 0.000000 1 0 1.000000
0  8.478262 -7.265555 1.167147  -0.223211 -0.968497 -0.110411  0.000000 0.000000 1 0 1.000000
0  12.114459 -5.988309 1.264829  -0.488517 -0.871972 -0.031871  0.000000 0.000000 1 0 1.000000
  phy
0  12.114459 -5.988309 1.264829  -0.488517 -0.871972 -0.031871  0.000000 0.000000 1 0 1.000000
0  12.111824 -5.977298 -1.266210  -0.482111 -0.874510 0.052926  0.000000 0.000000 1 0 1.000000
0  12.607302 -4.964313 -1.321266  -0.993655 -0.041093 0.104697  0.000000 0.000000 1 0 1.000000
  phy
0  12.607302 -4.964313 -1.321266  -0.993655 -0.041093 0.104697  0.000000 0.000000 1 0 1.000000
0  12.607298 -4.978051 1.321313  -0.992327 -0.059595 -0.108333  0.000000 0.000000 1 0 1.000000
0  12.114459 -5.988309 1.264829  -0.488517 -0.871972 -0.031871  0.000000 0.000000 1 0 1.000000
  phy
0  10.548295 -5.988308 6.088952  -0.374138 -0.901813 -0.216225  0.000000 0.000000 1 0 1.000000
0  10.977699 -4.990166 6.331192  -0.863548 -0.075591 -0.498568  0.000000 0.000000 1 0 1.000000
0  9.050718 -5.988556 8.147889  -0.285189 -0.930565 -0.229599  0.000000 0.000000 1 0 1.000000
  phy
0  10.977699 -4.990166 6.331192  -0.863548 -0.075591 -0.498568  0.000000 0.000000 1 0 1.000000
0  9.425183 -4.975327 8.478277  -0.762490 -0.041421 -0.645673  0.000000 0.000000 1 0 1.000000
0  9.050718 -5.988556 8.147889  -0.285189 -0.930565 -0.229599  0.000000 0.000000 1 0 1.000000
  phy
0  7.167989 -5.988313 9.843610  -0.336894 -0.820040 -0.462640  0.000000 0.000000 1 0 1.000000
0  9.050718 -5.988556 8.147889  -0.285189 -0.930565 -0.229599  0.000000 0.000000 1 0 1.000000
0  9.425183 -4.975327 8.478277  -0.762490 -0.041421 -0.645673  0.000000 0.000000 1 0 1.000000
  phy
0  12.607302 -4.964313 -1.321266  -0.993655 -0.041093 0.104697  0.000000 0.000000 1 0 1.000000
0  12.056768 5.870263 -3.908802  -0.950770 0.019923 0.309255  0.000000 0.000000 1 0 1.000000
0  12.607302 5.870261 -1.321271  -0.991945 0.081087 0.097313  0.000000 0.000000 1 0 1.000000
  phy
0  12.607302 -4.964313 -1.321266  -0.993655 -0.041093 0.104697  0.000000 0.000000 1 0 1.000000
0  12.056768 -4.966256 -3.908804  -0.947991 -0.059540 0.312680  0.000000 0.000000 1 0 1.000000
0  12.056768 5.870263 -3.908802  -0.950770 0.019923 0.309255  0.000000 0.000000 1 0 1.000000
  phy
0  12.056768 -4.966256 -3.908804  -0.947991 -0.059540 0.312680  0.000000 0.000000 1 0 1.000000
0  10.977724 -4.964301 -6.331155  -0.879538 -0.041186 0.474043  0.000000 0.000000 1 0 1.000000
0  12.056768 5.870263 -3.908802  -0.950770 0.019923 0.309255  0.000000 0.000000 1 0 1.000000
  phy
0  10.977724 -4.964301 -6.331155  -0.879538 -0.041186 0.474043  0.000000 0.000000 1 0 1.000000
0  10.977724 5.870249 -6.331156  -0.850862 0.056572 0.522334  0.000000 0.000000 1 0 1.000000
0  12.056768 5.870263 -3.908802  -0.950770 0.019923 0.309255  0.000000 0.000000 1 0 1.000000
  phy
0  12.023737 6.718085 -2.554468  -0.023292 0.999714 0.005355  0.000000 0.000000 1 0 1.000000
0  12.607302 5.870261 -1.321271  -0.991945 0.081087 0.097313  0.000000 0.000000 1 0 1.000000
0  12.056768 5.870263 -3.908802  -0.950770 0.019923 0.309255  0.000000 0.000000 1 0 1.000000
  phy
0  12.056768 5.870263 -3.908802  -0.950770 0.019923 0.309255  0.000000 0.000000 1 0 1.000000
0  10.977724 5.870249 -6.331156  -0.850862 0.056572 0.522334  0.000000 0.000000 1 0 1.000000
0  12.023737 6.718085 -2.554468  -0.023292 0.999714 0.005355  0.000000 0.000000 1 0 1.000000
  phy
0  -9.392152 5.870256 -8.478283  0.743592 0.018840 0.668369  0.000000 0.000000 1 0 1.000000
0  -10.955681 5.870261 -6.331188  0.860024 0.077174 0.504384  0.000000 0.000000 1 0 1.000000
0  -8.225011 6.718083 -9.138932  0.095156 0.989852 0.105537  0.000000 0.000000 1 0 1.000000
  phy
0  -8.225011 6.718083 -9.138932  0.095156 0.989852 0.105537  0.000000 0.000000 1 0 1.000000
0  -7.432237 5.870262 -10.251010  0.559529 0.025294 0.828425  0.000000 0.000000 1 0 1.000000
0  -9.392152 5.870256 -8.478283  0.743592 0.018840 0.668369  0.000000 0.000000 1 0 1.000000
  phy
0  7.168008 -5.977300 -9.843591  -0.303171 -0.848819 0.433122  0.000000 0.000000 1 0 1.000000
0  9.061852 -5.977297 -8.136931  -0.302729 -0.919379 0.251190  0.000000 0.000000 1 0 1.000000
0  3.731544 -7.255692 -7.693433  -0.160709 -0.967227 0.196582  0.000000 0.000000 1 0 1.000000
  phy
0  7.168008 -5.977300 -9.843591  -0.303171 -0.848819 0.433122  0.000000 0.000000 1 0 1.000000
0  3.731544 -7.255692 -7.693433  -0.160709 -0.967227 0.196582  0.000000 0.000000 1 0 1.000000
0  4.965864 -5.977302 -11.120839  -0.209984 -0.841972 0.496981  0.000000 0.000000 1 0 1.000000
  phy
0  7.454290 -4.971406 -10.239975  -0.565121 -0.040716 0.824003  0.000000 0.000000 1 0 1.000000
0  9.061852 -5.977297 -8.136931  -0.302729 -0.919379 0.251190  0.000000 0.000000 1 0 1.000000
0  7.168008 -5.977300 -9.843591  -0.303171 -0.848819 0.433122  0.000000 0.000000 1 0 1.000000
  phy
0  4.965864 -5.977302 -11.120839  -0.209984 -0.841972 0.496981  0.000000 0.000000 1 0 1.000000
0  5.164061 -4.973281 -11.572283  -0.411257 -0.058993 0.909608  0.000000 0.000000 1 0 1.000000
0  7.168008 -5.977300 -9.843591  -0.303171 -0.848819 0.433122  0.000000 0.000000 1 0 1.000000
  phy
0  7.168008 -5.977300 -9.843591  -0.303171 -0.848819 0.433122  0.000000 0.000000 1 0 1.000000
0  5.164061 -4.973281 -11.572283  -0.411257 -0.058993 0.909608  0.000000 0.000000 1 0 1.000000
0  7.454290 -4.971406 -10.239975  -0.565121 -0.040716 0.824003  0.000000 0.000000 1 0 1.000000
  phy
0  -10.526277 -5.988312 6.088928  0.379700 -0.896042 -0.230081  0.000000 0.000000 1 0 1.000000
0  -9.028815 -5.988311 8.136925  0.434406 -0.810720 -0.392459  0.000000 0.000000 1 0 1.000000
0  -10.955694 -4.990714 6.331153  0.879954 -0.053115 -0.472081  0.000000 0.000000 1 0 1.000000
  phy
0  -10.955694 -4.990714 6.331153  0.879954 -0.053115 -0.472081  0.000000 0.000000 1 0 1.000000
0  -9.028815 -5.988311 8.136925  0.434406 -0.810720 -0.392459  0.000000 0.000000 1 0 1.000000
0  -9.403180 -4.975329 8.467252  0.742593 -0.021967 -0.669383  0.000000 0.000000 1 0 1.000000
  phy
0  -9.028815 -5.988311 8.136925  0.434406 -0.810720 -0.392459  0.000000 0.000000 1 0 1.000000
0  -7.134976 -5.988312 9.843591  0.304181 -0.847365 -0.435254  0.000000 0.000000 1 0 1.000000
0  -7.432267 -4.980475 10.239978  0.591190 -0.059438 -0.804339  0.000000 0.000000 1 0 1.000000
  phy
0  -9.028815 -5.988311 8.136925  0.434406 -0.810720 -0.392459  0.000000 0.000000 1 0 1.000000
0  -7.432267 -4.980475 10.239978  0.591190 -0.059438 -0.804339  0.000000 0.000000 1 0 1.000000
0  -9.403180 -4.975329 8.467252  0.742593 -0.021967 -0.669383  0.000000 0.000000 1 0 1.000000
  phy
0  -9.028815 -5.988311 8.136925  0.434406 -0.810720 -0.392459  0.000000 0.000000 1 0 1.000000
0  -6.166039 -7.267736 5.926617  0.066238 -0.992558 -0.102178  0.000000 0.000000 1 0 1.000000
0  -7.134976 -5.988312 9.843591  0.304181 -0.847365 -0.435254  0.000000 0.000000 1 0 1.000000
  phy
0  -9.028815 -5.988311 8.136925  0.434406 -0.810720 -0.392459  0.000000 0.000000 1 0 1.000000
0  -10.526277 -5.988312 6.088928  0.379700 -0.896042 -0.230081  0.000000 0.000000 1 0 1.000000
0  -6.166039 -7.267736 5.926617  0.066238 -0.992558 -0.102178  0.000000 0.000000 1 0 1.000000
  phy
0  -12.089793 -5.988313 1.266238  0.338648 -0.940756 -0.017223  0.000000 0.000000 1 0 1.000000
0  -11.561286 -5.988312 3.754632  0.546358 -0.818655 -0.176911  0.000000 0.000000 1 0 1.000000
0  -12.585280 -4.975327 1.321260  0.989548 -0.053126 -0.134058  0.000000 0.000000 1 0 1.000000
  phy
0  -12.585280 -4.975327 1.321260  0.989548 -0.053126 -0.134058  0.000000 0.000000 1 0 1.000000
0  -11.561286 -5.988312 3.754632  0.546358 -0.818655 -0.176911  0.000000 0.000000 1 0 1.000000
0  -12.034746 -4.977275 3.908797  0.950154 -0.041939 -0.308946  0.000000 0.000000 1 0 1.000000
  phy
0  -11.561286 -5.988312 3.754632  0.546358 -0.818655 -0.176911  0.000000 0.000000 1 0 1.000000
0  -10.526277 -5.988312 6.088928  0.379700 -0.896042 -0.230081  0.000000 0.000000 1 0 1.000000
0  -10.955694 -4.990714 6.331153  0.879954 -0.053115 -0.472081  0.000000 0.000000 1 0 1.000000
  phy
0  -12.034746 -4.977275 3.908797  0.950154 -0.041939 -0.308946  0.000000 0.000000 1 0 1.000000
0  -11.561286 -5.988312 3.754632  0.546358 -0.818655 -0.176911  0.000000 0.000000 1 0 1.000000
0  -10.955694 -4.990714 6.331153  0.879954 -0.053115 -0.472081  0.000000 0.000000 1 0 1.000000
  phy
0  -11.561286 -5.988312 3.754632  0.546358 -0.818655 -0.176911  0.000000 0.000000 1 0 1.000000
0  -12.089793 -5.988313 1.266238  0.338648 -0.940756 -0.017223  0.000000 0.000000 1 0 1.000000
0  -7.542379 -7.265560 4.029910  0.201814 -0.978638 -0.039238  0.000000 0.000000 1 0 1.000000
  phy
0  -7.542379 -7.265560 4.029910  0.201814 -0.978638 -0.039238  0.000000 0.000000 1 0 1.000000
0  -10.526277 -5.988312 6.088928  0.379700 -0.896042 -0.230081  0.000000 0.000000 1 0 1.000000
0  -11.561286 -5.988312 3.754632  0.546358 -0.818655 -0.176911  0.000000 0.000000 1 0 1.000000
  phy
0  -4.932817 -5.977301 -11.120845  0.138339 -0.930173 0.340060  0.000000 0.000000 1 0 1.000000
0  -7.432231 -4.964312 -10.251010  0.612227 -0.053533 0.788868  0.000000 0.000000 1 0 1.000000
0  -5.130998 -4.973282 -11.572295  0.403584 -0.031452 0.914402  0.000000 0.000000 1 0 1.000000
  phy
0  -12.023725 5.870249 -3.919857  0.940584 0.024699 0.338661  0.000000 0.000000 1 0 1.000000
0  -12.023724 -4.964312 -3.919841  0.960740 -0.028151 0.276019  0.000000 0.000000 1 0 1.000000
0  -12.574264 5.870256 -1.321306  0.988478 0.053441 0.141613  0.000000 0.000000 1 0 1.000000
  phy
0  -12.574264 5.870256 -1.321306  0.988478 0.053441 0.141613  0.000000 0.000000 1 0 1.000000
0  -12.023724 -4.964312 -3.919841  0.960740 -0.028151 0.276019  0.000000 0.000000 1 0 1.000000
0  -12.574264 -4.967101 -1.321308  0.996120 -0.040445 0.078167  0.000000 0.000000 1 0 1.000000
  phy
0  -12.023724 -4.964312 -3.919841  0.960740 -0.028151 0.276019  0.000000 0.000000 1 0 1.000000
0  -12.023725 5.870249 -3.919857  0.940584 0.024699 0.338661  0.000000 0.000000 1 0 1.000000
0  -10.955679 -4.964317 -6.331187  0.865338 -0.040603 0.499541  0.000000 0.000000 1 0 1.000000
  phy
0  -10.955679 -4.964317 -6.331187  0.865338 -0.040603 0.499541  0.000000 0.000000 1 0 1.000000
0  -12.023725 5.870249 -3.919857  0.940584 0.024699 0.338661  0.000000 0.000000 1 0 1.000000
0  -10.955681 5.870261 -6.331188  0.860024 0.077174 0.504384  0.000000 0.000000 1 0 1.000000
  phy
0  -10.955681 5.870261 -6.331188  0.860024 0.077174 0.504384  0.000000 0.000000 1 0 1.000000
0  -12.023725 5.870249 -3.919857  0.940584 0.024699 0.338661  0.000000 0.000000 1 0 1.000000
0  -11.230947 6.718083 -4.998894  0.530126 0.820750 0.212924  0.000000 0.000000 1 0 1.000000
  phy
0  -12.023725 5.870249 -3.919857  0.940584 0.024699 0.338661  0.000000 0.000000 1 0 1.000000
0  -12.574264 5.870256 -1.321306  0.988478 0.053441 0.141613  0.000000 0.000000 1 0 1.000000
0  -11.230947 6.718083 -4.998894  0.530126 0.820750 0.212924  0.000000 0.000000 1 0 1.000000
  phy
0  11.583305 -5.977296 -3.754639  -0.505743 -0.848930 0.153434  0.000000 0.000000 1 0 1.000000
0  8.457233 -7.263197 -1.149615  -0.113879 -0.992253 0.049645  0.000000 0.000000 1 0 1.000000
0  10.548299 -5.977300 -6.077907  -0.429345 -0.871735 0.236095  0.000000 0.000000 1 0 1.000000
  phy
0  10.548299 -5.977300 -6.077907  -0.429345 -0.871735 0.236095  0.000000 0.000000 1 0 1.000000
0  8.457233 -7.263197 -1.149615  -0.113879 -0.992253 0.049645  0.000000 0.000000 1 0 1.000000
0  9.061852 -5.977297 -8.136931  -0.302729 -0.919379 0.251190  0.000000 0.000000 1 0 1.000000
  phy
0  10.548299 -5.977300 -6.077907  -0.429345 -0.871735 0.236095  0.000000 0.000000 1 0 1.000000
0  10.977724 -4.964301 -6.331155  -0.879538 -0.041186 0.474043  0.000000 0.000000 1 0 1.000000
0  12.056768 -4.966256 -3.908804  -0.947991 -0.059540 0.312680  0.000000 0.000000 1 0 1.000000
  phy
0  12.056768 -4.966256 -3.908804  -0.947991 -0.059540 0.312680  0.000000 0.000000 1 0 1.000000
0  11.583305 -5.977296 -3.754639  -0.505743 -0.848930 0.153434  0.000000 0.000000 1 0 1.000000
0  10.548299 -5.977300 -6.077907  -0.429345 -0.871735 0.236095  0.000000 0.000000 1 0 1.000000
  phy
0  9.061852 -5.977297 -8.136931  -0.302729 -0.919379 0.251190  0.000000 0.000000 1 0 1.000000
0  10.977724 -4.964301 -6.331155  -0.879538 -0.041186 0.474043  0.000000 0.000000 1 0 1.000000
0  10.548299 -5.977300 -6.077907  -0.429345 -0.871735 0.236095  0.000000 0.000000 1 0 1.000000
  phy
0  11.583298 -5.988311 3.765679  -0.545047 -0.819559 -0.176765  0.000000 0.000000 1 0 1.000000
0  10.548295 -5.988308 6.088952  -0.374138 -0.901813 -0.216225  0.000000 0.000000 1 0 1.000000
0  8.478262 -7.265555 1.167147  -0.223211 -0.968497 -0.110411  0.000000 0.000000 1 0 1.000000
  phy
0  11.583298 -5.988311 3.765679  -0.545047 -0.819559 -0.176765  0.000000 0.000000 1 0 1.000000
0  10.977699 -4.990166 6.331192  -0.863548 -0.075591 -0.498568  0.000000 0.000000 1 0 1.000000
0  10.548295 -5.988308 6.088952  -0.374138 -0.901813 -0.216225  0.000000 0.000000 1 0 1.000000
  phy
0  12.056755 -4.975318 3.919840  -0.950778 -0.021893 -0.309099  0.000000 0.000000 1 0 1.000000
0  10.977699 -4.990166 6.331192  -0.863548 -0.075591 -0.498568  0.000000 0.000000 1 0 1.000000
0  11.583298 -5.988311 3.765679  -0.545047 -0.819559 -0.176765  0.000000 0.000000 1 0 1.000000
  phy
0  4.965820 -5.988313 11.120859  -0.183437 -0.872059 -0.453723  0.000000 0.000000 1 0 1.000000
0  7.167989 -5.988313 9.843610  -0.336894 -0.820040 -0.462640  0.000000 0.000000 1 0 1.000000
0  5.184626 -4.987659 11.560415  -0.411504 -0.059263 -0.909479  0.000000 0.000000 1 0 1.000000
  phy
0  5.184626 -4.987659 11.560415  -0.411504 -0.059263 -0.909479  0.000000 0.000000 1 0 1.000000
0  7.167989 -5.988313 9.843610  -0.336894 -0.820040 -0.462640  0.000000 0.000000 1 0 1.000000
0  7.454257 -4.975328 10.251017  -0.587610 -0.021797 -0.808850  0.000000 0.000000 1 0 1.000000
  phy
0  7.454257 -4.975328 10.251017  -0.587610 -0.021797 -0.808850  0.000000 0.000000 1 0 1.000000
0  7.167989 -5.988313 9.843610  -0.336894 -0.820040 -0.462640  0.000000 0.000000 1 0 1.000000
0  9.425183 -4.975327 8.478277  -0.762490 -0.041421 -0.645673  0.000000 0.000000 1 0 1.000000
  phy
0  12.607302 -4.964313 -1.321266  -0.993655 -0.041093 0.104697  0.000000 0.000000 1 0 1.000000
0  11.583305 -5.977296 -3.754639  -0.505743 -0.848930 0.153434  0.000000 0.000000 1 0 1.000000
0  12.056768 -4.966256 -3.908804  -0.947991 -0.059540 0.312680  0.000000 0.000000 1 0 1.000000
  phy
0  12.607302 -4.964313 -1.321266  -0.993655 -0.041093 0.104697  0.000000 0.000000 1 0 1.000000
0  12.111824 -5.977298 -1.266210  -0.482111 -0.874510 0.052926  0.000000 0.000000 1 0 1.000000
0  11.583305 -5.977296 -3.754639  -0.505743 -0.848930 0.153434  0.000000 0.000000 1 0 1.000000
  phy
0  -3.798725 6.707067 11.693400  0.037976 0.990360 -0.133213  0.000000 0.000000 1 0 1.000000
0  -2.620578 5.861998 12.387083  0.206838 0.019295 -0.978185  0.000000 0.000000 1 0 1.000000
0  0.010985 5.859246 12.662354  0.006739 0.079178 -0.996838  0.000000 0.000000 1 0 1.000000
  phy
0  -3.798725 6.707067 11.693400  0.037976 0.990360 -0.133213  0.000000 0.000000 1 0 1.000000
0  0.010985 5.859246 12.662354  0.006739 0.079178 -0.996838  0.000000 0.000000 1 0 1.000000
0  1.288252 6.707073 12.221927  -0.007324 0.998590 -0.052573  0.000000 0.000000 1 0 1.000000
  phy
0  12.023737 6.718085 -2.554468  -0.023292 0.999714 0.005355  0.000000 0.000000 1 0 1.000000
0  -12.287989 6.718083 -0.000023  0.015253 0.999883 -0.001102  0.000000 0.000000 1 0 1.000000
0  9.938624 6.710373 7.226581  -0.028283 0.999375 -0.021201  0.000000 0.000000 1 0 1.000000
  phy
0  9.938624 6.710373 7.226581  -0.028283 0.999375 -0.021201  0.000000 0.000000 1 0 1.000000
0  -12.287989 6.718083 -0.000023  0.015253 0.999883 -0.001102  0.000000 0.000000 1 0 1.000000
0  1.288252 6.707073 12.221927  -0.007324 0.998590 -0.052573  0.000000 0.000000 1 0 1.000000
  phy
0  9.938624 6.710373 7.226581  -0.028283 0.999375 -0.021201  0.000000 0.000000 1 0 1.000000
0  1.288252 6.707073 12.221927  -0.007324 0.998590 -0.052573  0.000000 0.000000 1 0 1.000000
0  6.143660 6.707933 10.646881  -0.261631 0.851571 -0.454285  0.000000 0.000000 1 0 1.000000
  phy
0  6.143660 6.707933 10.646881  -0.261631 0.851571 -0.454285  0.000000 0.000000 1 0 1.000000
0  1.288252 6.707073 12.221927  -0.007324 0.998590 -0.052573  0.000000 0.000000 1 0 1.000000
0  5.164029 5.859249 11.572295  -0.402022 0.042917 -0.914624  0.000000 0.000000 1 0 1.000000
  phy
0  1.288252 6.707073 12.221927  -0.007324 0.998590 -0.052573  0.000000 0.000000 1 0 1.000000
0  2.642560 5.859247 12.387091  -0.174690 0.025890 -0.984283  0.000000 0.000000 1 0 1.000000
0  5.164029 5.859249 11.572295  -0.402022 0.042917 -0.914624  0.000000 0.000000 1 0 1.000000
  phy
0  1.288252 6.707073 12.221927  -0.007324 0.998590 -0.052573  0.000000 0.000000 1 0 1.000000
0  -12.287989 6.718083 -0.000023  0.015253 0.999883 -0.001102  0.000000 0.000000 1 0 1.000000
0  -3.798725 6.707067 11.693400  0.037976 0.990360 -0.133213  0.000000 0.000000 1 0 1.000000
  phy
0  2.642560 5.859247 12.387091  -0.174690 0.025890 -0.984283  0.000000 0.000000 1 0 1.000000
0  1.288252 6.707073 12.221927  -0.007324 0.998590 -0.052573  0.000000 0.000000 1 0 1.000000
0  0.010985 5.859246 12.662354  0.006739 0.079178 -0.996838  0.000000 0.000000 1 0 1.000000
  phy
0  -7.432231 -4.964312 -10.251010  0.612227 -0.053533 0.788868  0.000000 0.000000 1 0 1.000000
0  -7.432237 5.870262 -10.251010  0.559529 0.025294 0.828425  0.000000 0.000000 1 0 1.000000
0  -5.130998 -4.973282 -11.572295  0.403584 -0.031452 0.914402  0.000000 0.000000 1 0 1.000000
  phy
0  -7.432237 5.870262 -10.251010  0.559529 0.025294 0.828425  0.000000 0.000000 1 0 1.000000
0  -5.130989 5.879056 -11.572294  0.410826 0.078124 0.908360  0.000000 0.000000 1 0 1.000000
0  -5.130998 -4.973282 -11.572295  0.403584 -0.031452 0.914402  0.000000 0.000000 1 0 1.000000
  phy
0  -5.130989 5.879056 -11.572294  0.410826 0.078124 0.908360  0.000000 0.000000 1 0 1.000000
0  -2.620538 5.870269 -12.387090  0.239757 0.025295 0.970503  0.000000 0.000000 1 0 1.000000
0  -5.130998 -4.973282 -11.572295  0.403584 -0.031452 0.914402  0.000000 0.000000 1 0 1.000000
  phy
0  -2.620538 5.870269 -12.387090  0.239757 0.025295 0.970503  0.000000 0.000000 1 0 1.000000
0  -2.620543 -4.968099 -12.387088  0.174437 -0.028739 0.984249  0.000000 0.000000 1 0 1.000000
0  -5.130998 -4.973282 -11.572295  0.403584 -0.031452 0.914402  0.000000 0.000000 1 0 1.000000
  phy
0  -6.166030 -7.255688 -5.930519  0.026994 -0.998442 0.048825  0.000000 0.000000 1 0 1.000000
0  -7.533508 -7.257358 -4.041563  0.249591 -0.966599 0.058228  0.000000 0.000000 1 0 1.000000
0  -9.028796 -5.977303 -8.147964  0.398987 -0.848124 0.348561  0.000000 0.000000 1 0 1.000000
  phy
0  -7.533508 -7.257358 -4.041563  0.249591 -0.966599 0.058228  0.000000 0.000000 1 0 1.000000
0  -10.526265 -5.977303 -6.088949  0.421860 -0.873250 0.243863  0.000000 0.000000 1 0 1.000000
0  -9.028796 -5.977303 -8.147964  0.398987 -0.848124 0.348561  0.000000 0.000000 1 0 1.000000
  phy
0  -8.225011 6.718083 -9.138932  0.095156 0.989852 0.105537  0.000000 0.000000 1 0 1.000000
0  -10.955681 5.870261 -6.331188  0.860024 0.077174 0.504384  0.000000 0.000000 1 0 1.000000
0  -11.230947 6.718083 -4.998894  0.530126 0.820750 0.212924  0.000000 0.000000 1 0 1.000000
  phy
0  1.508509 -7.254546 -8.423223  0.010606 -0.997377 0.071605  0.000000 0.000000 1 0 1.000000
0  2.543062 -5.981212 -11.900739  -0.102761 -0.871923 0.478739  0.000000 0.000000 1 0 1.000000
0  3.731544 -7.255692 -7.693433  -0.160709 -0.967227 0.196582  0.000000 0.000000 1 0 1.000000
  phy
0  2.543062 -5.981212 -11.900739  -0.102761 -0.871923 0.478739  0.000000 0.000000 1 0 1.000000
0  4.965864 -5.977302 -11.120839  -0.209984 -0.841972 0.496981  0.000000 0.000000 1 0 1.000000
0  3.731544 -7.255692 -7.693433  -0.160709 -0.967227 0.196582  0.000000 0.000000 1 0 1.000000
  phy
0  4.965864 -5.977302 -11.120839  -0.209984 -0.841972 0.496981  0.000000 0.000000 1 0 1.000000
0  2.653605 -4.964316 -12.387080  -0.209094 -0.031627 0.977384  0.000000 0.000000 1 0 1.000000
0  5.164061 -4.973281 -11.572283  -0.411257 -0.058993 0.909608  0.000000 0.000000 1 0 1.000000
  phy
0  4.965864 -5.977302 -11.120839  -0.209984 -0.841972 0.496981  0.000000 0.000000 1 0 1.000000
0  2.543062 -5.981212 -11.900739  -0.102761 -0.871923 0.478739  0.000000 0.000000 1 0 1.000000
0  2.653605 -4.964316 -12.387080  -0.209094 -0.031627 0.977384  0.000000 0.000000 1 0 1.000000
  phy
0  7.454290 -4.971406 -10.239975  -0.565121 -0.040716 0.824003  0.000000 0.000000 1 0 1.000000
0  5.164052 5.870255 -11.572283  -0.408195 0.019700 0.912682  0.000000 0.000000 1 0 1.000000
0  7.454289 5.870256 -10.239982  -0.614771 0.025801 0.788284  0.000000 0.000000 1 0 1.000000
  phy
0  7.454290 -4.971406 -10.239975  -0.565121 -0.040716 0.824003  0.000000 0.000000 1 0 1.000000
0  5.164061 -4.973281 -11.572283  -0.411257 -0.058993 0.909608  0.000000 0.000000 1 0 1.000000
0  5.164052 5.870255 -11.572283  -0.408195 0.019700 0.912682  0.000000 0.000000 1 0 1.000000
  phy
0  9.425211 5.870255 -8.467246  -0.735817 0.080236 0.672410  0.000000 0.000000 1 0 1.000000
0  9.425206 -4.964315 -8.467243  -0.742600 -0.021566 0.669388  0.000000 0.000000 1 0 1.000000
0  7.454289 5.870256 -10.239982  -0.614771 0.025801 0.788284  0.000000 0.000000 1 0 1.000000
  phy
0  9.425206 -4.964315 -8.467243  -0.742600 -0.021566 0.669388  0.000000 0.000000 1 0 1.000000
0  7.454290 -4.971406 -10.239975  -0.565121 -0.040716 0.824003  0.000000 0.000000 1 0 1.000000
0  7.454289 5.870256 -10.239982  -0.614771 0.025801 0.788284  0.000000 0.000000 1 0 1.000000
  phy
0  7.454290 -4.971406 -10.239975  -0.565121 -0.040716 0.824003  0.000000 0.000000 1 0 1.000000
0  9.425206 -4.964315 -8.467243  -0.742600 -0.021566 0.669388  0.000000 0.000000 1 0 1.000000
0  9.061852 -5.977297 -8.136931  -0.302729 -0.919379 0.251190  0.000000 0.000000 1 0 1.000000
  phy
0  5.164052 5.870255 -11.572283  -0.408195 0.019700 0.912682  0.000000 0.000000 1 0 1.000000
0  2.653605 -4.964316 -12.387080  -0.209094 -0.031627 0.977384  0.000000 0.000000 1 0 1.000000
0  2.653615 5.870257 -12.387080  -0.213004 0.080004 0.973770  0.000000 0.000000 1 0 1.000000
  phy
0  5.164052 5.870255 -11.572283  -0.408195 0.019700 0.912682  0.000000 0.000000 1 0 1.000000
0  5.164061 -4.973281 -11.572283  -0.411257 -0.058993 0.909608  0.000000 0.000000 1 0 1.000000
0  2.653605 -4.964316 -12.387080  -0.209094 -0.031627 0.977384  0.000000 0.000000 1 0 1.000000
  phy
0  2.653615 5.870257 -12.387080  -0.213004 0.080004 0.973770  0.000000 0.000000 1 0 1.000000
0  2.653605 -4.964316 -12.387080  -0.209094 -0.031627 0.977384  0.000000 0.000000 1 0 1.000000
0  0.011025 5.870256 -12.662354  0.003657 0.042337 0.999097  0.000000 0.000000 1 0 1.000000
  phy
0  2.653605 -4.964316 -12.387080  -0.209094 -0.031627 0.977384  0.000000 0.000000 1 0 1.000000
0  0.024940 -4.970200 -12.660905  -0.000041 -0.075702 0.997131  0.000000 0.000000 1 0 1.000000
0  0.011025 5.870256 -12.662354  0.003657 0.042337 0.999097  0.000000 0.000000 1 0 1.000000
  phy
0  6.144011 6.718086 -10.647380  -0.297807 0.803812 0.514974  0.000000 0.000000 1 0 1.000000
0  5.164052 5.870255 -11.572283  -0.408195 0.019700 0.912682  0.000000 0.000000 1 0 1.000000
0  2.653615 5.870257 -12.387080  -0.213004 0.080004 0.973770  0.000000 0.000000 1 0 1.000000
  phy
0  2.653615 5.870257 -12.387080  -0.213004 0.080004 0.973770  0.000000 0.000000 1 0 1.000000
0  1.288280 6.718089 -12.221920  -0.002834 0.999629 0.027082  0.000000 0.000000 1 0 1.000000
0  6.144011 6.718086 -10.647380  -0.297807 0.803812 0.514974  0.000000 0.000000 1 0 1.000000
  phy
0  0.011025 5.870256 -12.662354  0.003657 0.042337 0.999097  0.000000 0.000000 1 0 1.000000
0  1.288280 6.718089 -12.221920  -0.002834 0.999629 0.027082  0.000000 0.000000 1 0 1.000000
0  2.653615 5.870257 -12.387080  -0.213004 0.080004 0.973770  0.000000 0.000000 1 0 1.000000
  phy
0  -6.166039 -7.267736 5.926617  0.066238 -0.992558 -0.102178  0.000000 0.000000 1 0 1.000000
0  -4.932840 -5.988312 11.120840  0.130821 -0.929948 -0.343633  0.000000 0.000000 1 0 1.000000
0  -7.134976 -5.988312 9.843591  0.304181 -0.847365 -0.435254  0.000000 0.000000 1 0 1.000000
  phy
0  -7.432267 -4.980475 10.239978  0.591190 -0.059438 -0.804339  0.000000 0.000000 1 0 1.000000
0  -7.134976 -5.988312 9.843591  0.304181 -0.847365 -0.435254  0.000000 0.000000 1 0 1.000000
0  -5.142039 -4.975325 11.572274  0.409243 -0.031633 -0.911877  0.000000 0.000000 1 0 1.000000
  phy
0  -7.134976 -5.988312 9.843591  0.304181 -0.847365 -0.435254  0.000000 0.000000 1 0 1.000000
0  -4.932840 -5.988312 11.120840  0.130821 -0.929948 -0.343633  0.000000 0.000000 1 0 1.000000
0  -5.142039 -4.975325 11.572274  0.409243 -0.031633 -0.911877  0.000000 0.000000 1 0 1.000000
  phy
0  -9.403180 -4.975329 8.467252  0.742593 -0.021967 -0.669383  0.000000 0.000000 1 0 1.000000
0  -9.403180 5.861187 8.467248  0.742307 0.036389 -0.669071  0.000000 0.000000 1 0 1.000000
0  -10.955701 5.859252 6.331158  0.845952 0.054067 -0.530511  0.000000 0.000000 1 0 1.000000
  phy
0  -9.403180 -4.975329 8.467252  0.742593 -0.021967 -0.669383  0.000000 0.000000 1 0 1.000000
0  -10.955701 5.859252 6.331158  0.845952 0.054067 -0.530511  0.000000 0.000000 1 0 1.000000
0  -10.955694 -4.990714 6.331153  0.879954 -0.053115 -0.472081  0.000000 0.000000 1 0 1.000000
  phy
0  -9.403180 5.861187 8.467248  0.742307 0.036389 -0.669071  0.000000 0.000000 1 0 1.000000
0  -9.403180 -4.975329 8.467252  0.742593 -0.021967 -0.669383  0.000000 0.000000 1 0 1.000000
0  -7.432271 5.859241 10.239973  0.588780 0.018676 -0.808077  0.000000 0.000000 1 0 1.000000
  phy
0  -7.432271 5.859241 10.239973  0.588780 0.018676 -0.808077  0.000000 0.000000 1 0 1.000000
0  -9.403180 -4.975329 8.467252  0.742593 -0.021967 -0.669383  0.000000 0.000000 1 0 1.000000
0  -7.432267 -4.980475 10.239978  0.591190 -0.059438 -0.804339  0.000000 0.000000 1 0 1.000000
  phy
0  -12.034746 -4.977275 3.908797  0.950154 -0.041939 -0.308946  0.000000 0.000000 1 0 1.000000
0  -10.955694 -4.990714 6.331153  0.879954 -0.053115 -0.472081  0.000000 0.000000 1 0 1.000000
0  -12.034744 5.859241 3.908798  0.951274 0.041631 -0.305525  0.000000 0.000000 1 0 1.000000
  phy
0  -12.034744 5.859241 3.908798  0.951274 0.041631 -0.305525  0.000000 0.000000 1 0 1.000000
0  -10.955694 -4.990714 6.331153  0.879954 -0.053115 -0.472081  0.000000 0.000000 1 0 1.000000
0  -10.955701 5.859252 6.331158  0.845952 0.054067 -0.530511  0.000000 0.000000 1 0 1.000000
  phy
0  -12.034744 5.859241 3.908798  0.951274 0.041631 -0.305525  0.000000 0.000000 1 0 1.000000
0  -12.585279 5.859241 1.321267  0.997311 0.025208 -0.068816  0.000000 0.000000 1 0 1.000000
0  -12.585280 -4.975327 1.321260  0.989548 -0.053126 -0.134058  0.000000 0.000000 1 0 1.000000
  phy
0  -12.034744 5.859241 3.908798  0.951274 0.041631 -0.305525  0.000000 0.000000 1 0 1.000000
0  -12.585280 -4.975327 1.321260  0.989548 -0.053126 -0.134058  0.000000 0.000000 1 0 1.000000
0  -12.034746 -4.977275 3.908797  0.950154 -0.041939 -0.308946  0.000000 0.000000 1 0 1.000000
  phy
0  -6.166039 -7.267736 5.926617  0.066238 -0.992558 -0.102178  0.000000 0.000000 1 0 1.000000
0  -10.526277 -5.988312 6.088928  0.379700 -0.896042 -0.230081  0.000000 0.000000 1 0 1.000000
0  -7.542379 -7.265560 4.029910  0.201814 -0.978638 -0.039238  0.000000 0.000000 1 0 1.000000
  phy
0  -12.089793 -5.988313 1.266238  0.338648 -0.940756 -0.017223  0.000000 0.000000 1 0 1.000000
0  -7.533508 -7.257358 -4.041563  0.249591 -0.966599 0.058228  0.000000 0.000000 1 0 1.000000
0  -7.542379 -7.265560 4.029910  0.201814 -0.978638 -0.039238  0.000000 0.000000 1 0 1.000000
  phy
0  -11.561271 -5.977303 -3.765707  0.548395 -0.817093 0.177824  0.000000 0.000000 1 0 1.000000
0  -12.089790 -5.977302 -1.277261  0.490651 -0.870231 0.044257  0.000000 0.000000 1 0 1.000000
0  -12.574264 -4.967101 -1.321308  0.996120 -0.040445 0.078167  0.000000 0.000000 1 0 1.000000
  phy
0  -11.561271 -5.977303 -3.765707  0.548395 -0.817093 0.177824  0.000000 0.000000 1 0 1.000000
0  -12.574264 -4.967101 -1.321308  0.996120 -0.040445 0.078167  0.000000 0.000000 1 0 1.000000
0  -12.023724 -4.964312 -3.919841  0.960740 -0.028151 0.276019  0.000000 0.000000 1 0 1.000000
  phy
0  -12.089790 -5.977302 -1.277261  0.490651 -0.870231 0.044257  0.000000 0.000000 1 0 1.000000
0  -12.089793 -5.988313 1.266238  0.338648 -0.940756 -0.017223  0.000000 0.000000 1 0 1.000000
0  -12.585280 -4.975327 1.321260  0.989548 -0.053126 -0.134058  0.000000 0.000000 1 0 1.000000
  phy
0  -12.574264 -4.967101 -1.321308  0.996120 -0.040445 0.078167  0.000000 0.000000 1 0 1.000000
0  -12.089790 -5.977302 -1.277261  0.490651 -0.870231 0.044257  0.000000 0.000000 1 0 1.000000
0  -12.585280 -4.975327 1.321260  0.989548 -0.053126 -0.134058  0.000000 0.000000 1 0 1.000000
  phy
0  -12.089790 -5.977302 -1.277261  0.490651 -0.870231 0.044257  0.000000 0.000000 1 0 1.000000
0  -7.533508 -7.257358 -4.041563  0.249591 -0.966599 0.058228  0.000000 0.000000 1 0 1.000000
0  -12.089793 -5.988313 1.266238  0.338648 -0.940756 -0.017223  0.000000 0.000000 1 0 1.000000
  phy
0  -11.561271 -5.977303 -3.765707  0.548395 -0.817093 0.177824  0.000000 0.000000 1 0 1.000000
0  -7.533508 -7.257358 -4.041563  0.249591 -0.966599 0.058228  0.000000 0.000000 1 0 1.000000
0  -12.089790 -5.977302 -1.277261  0.490651 -0.870231 0.044257  0.000000 0.000000 1 0 1.000000
  phy
0  0.033049 -5.977301 -12.166871  0.000738 -0.880390 0.474249  0.000000 0.000000 1 0 1.000000
0  0.024940 -4.970200 -12.660905  -0.000041 -0.075702 0.997131  0.000000 0.000000 1 0 1.000000
0  2.543062 -5.981212 -11.900739  -0.102761 -0.871923 0.478739  0.000000 0.000000 1 0 1.000000
  phy
0  0.024940 -4.970200 -12.660905  -0.000041 -0.075702 0.997131  0.000000 0.000000 1 0 1.000000
0  2.653605 -4.964316 -12.387080  -0.209094 -0.031627 0.977384  0.000000 0.000000 1 0 1.000000
0  2.543062 -5.981212 -11.900739  -0.102761 -0.871923 0.478739  0.000000 0.000000 1 0 1.000000
  phy
0  0.033049 -5.977301 -12.166871  0.000738 -0.880390 0.474249  0.000000 0.000000 1 0 1.000000
0  2.543062 -5.981212 -11.900739  -0.102761 -0.871923 0.478739  0.000000 0.000000 1 0 1.000000
0  1.508509 -7.254546 -8.423223  0.010606 -0.997377 0.071605  0.000000 0.000000 1 0 1.000000
  phy
0  -11.561271 -5.977303 -3.765707  0.548395 -0.817093 0.177824  0.000000 0.000000 1 0 1.000000
0  -12.023724 -4.964312 -3.919841  0.960740 -0.028151 0.276019  0.000000 0.000000 1 0 1.000000
0  -10.955679 -4.964317 -6.331187  0.865338 -0.040603 0.499541  0.000000 0.000000 1 0 1.000000
  phy
0  -12.574264 5.870256 -1.321306  0.988478 0.053441 0.141613  0.000000 0.000000 1 0 1.000000
0  -12.574264 -4.967101 -1.321308  0.996120 -0.040445 0.078167  0.000000 0.000000 1 0 1.000000
0  -12.585279 5.859241 1.321267  0.997311 0.025208 -0.068816  0.000000 0.000000 1 0 1.000000
  phy
0  -12.585279 5.859241 1.321267  0.997311 0.025208 -0.068816  0.000000 0.000000 1 0 1.000000
0  -12.574264 -4.967101 -1.321308  0.996120 -0.040445 0.078167  0.000000 0.000000 1 0 1.000000
0  -12.585280 -4.975327 1.321260  0.989548 -0.053126 -0.134058  0.000000 0.000000 1 0 1.000000
  phy
0  9.061852 -5.977297 -8.136931  -0.302729 -0.919379 0.251190  0.000000 0.000000 1 0 1.000000
0  8.457233 -7.263197 -1.149615  -0.113879 -0.992253 0.049645  0.000000 0.000000 1 0 1.000000
0  3.731544 -7.255692 -7.693433  -0.160709 -0.967227 0.196582  0.000000 0.000000 1 0 1.000000
  phy
0  11.583305 -5.977296 -3.754639  -0.505743 -0.848930 0.153434  0.000000 0.000000 1 0 1.000000
0  12.111824 -5.977298 -1.266210  -0.482111 -0.874510 0.052926  0.000000 0.000000 1 0 1.000000
0  8.457233 -7.263197 -1.149615  -0.113879 -0.992253 0.049645  0.000000 0.000000 1 0 1.000000
  phy
0  12.056758 5.859249 3.919837  -0.945652 0.081280 -0.314858  0.000000 0.000000 1 0 1.000000
0  10.977695 5.859253 6.331196  -0.865871 0.020051 -0.499866  0.000000 0.000000 1 0 1.000000
0  12.056755 -4.975318 3.919840  -0.950778 -0.021893 -0.309099  0.000000 0.000000 1 0 1.000000
  phy
0  10.977695 5.859253 6.331196  -0.865871 0.020051 -0.499866  0.000000 0.000000 1 0 1.000000
0  10.977699 -4.990166 6.331192  -0.863548 -0.075591 -0.498568  0.000000 0.000000 1 0 1.000000
0  12.056755 -4.975318 3.919840  -0.950778 -0.021893 -0.309099  0.000000 0.000000 1 0 1.000000
  phy
0  12.056755 -4.975318 3.919840  -0.950778 -0.021893 -0.309099  0.000000 0.000000 1 0 1.000000
0  12.607297 5.859250 1.321318  -0.994330 0.019974 -0.104449  0.000000 0.000000 1 0 1.000000
0  12.056758 5.859249 3.919837  -0.945652 0.081280 -0.314858  0.000000 0.000000 1 0 1.000000
  phy
0  12.056755 -4.975318 3.919840  -0.950778 -0.021893 -0.309099  0.000000 0.000000 1 0 1.000000
0  12.607298 -4.978051 1.321313  -0.992327 -0.059595 -0.108333  0.000000 0.000000 1 0 1.000000
0  12.607297 5.859250 1.321318  -0.994330 0.019974 -0.104449  0.000000 0.000000 1 0 1.000000
  phy
0  9.425183 -4.975327 8.478277  -0.762490 -0.041421 -0.645673  0.000000 0.000000 1 0 1.000000
0  9.425190 5.859252 8.478287  -0.720506 0.026589 -0.692938  0.000000 0.000000 1 0 1.000000
0  7.454257 -4.975328 10.251017  -0.587610 -0.021797 -0.808850  0.000000 0.000000 1 0 1.000000
  phy
0  7.454257 -4.975328 10.251017  -0.587610 -0.021797 -0.808850  0.000000 0.000000 1 0 1.000000
0  9.425190 5.859252 8.478287  -0.720506 0.026589 -0.692938  0.000000 0.000000 1 0 1.000000
0  7.454249 5.863512 10.251015  -0.591194 0.081069 -0.802445  0.000000 0.000000 1 0 1.000000
  phy
0  7.454249 5.863512 10.251015  -0.591194 0.081069 -0.802445  0.000000 0.000000 1 0 1.000000
0  5.164029 5.859249 11.572295  -0.402022 0.042917 -0.914624  0.000000 0.000000 1 0 1.000000
0  7.454257 -4.975328 10.251017  -0.587610 -0.021797 -0.808850  0.000000 0.000000 1 0 1.000000
  phy
0  7.454257 -4.975328 10.251017  -0.587610 -0.021797 -0.808850  0.000000 0.000000 1 0 1.000000
0  5.164029 5.859249 11.572295  -0.402022 0.042917 -0.914624  0.000000 0.000000 1 0 1.000000
0  5.184626 -4.987659 11.560415  -0.411504 -0.059263 -0.909479  0.000000 0.000000 1 0 1.000000
  phy
0  12.607298 -4.978051 1.321313  -0.992327 -0.059595 -0.108333  0.000000 0.000000 1 0 1.000000
0  12.607302 -4.964313 -1.321266  -0.993655 -0.041093 0.104697  0.000000 0.000000 1 0 1.000000
0  12.607297 5.859250 1.321318  -0.994330 0.019974 -0.104449  0.000000 0.000000 1 0 1.000000
  phy
0  12.607302 -4.964313 -1.321266  -0.993655 -0.041093 0.104697  0.000000 0.000000 1 0 1.000000
0  12.607302 5.870261 -1.321271  -0.991945 0.081087 0.097313  0.000000 0.000000 1 0 1.000000
0  12.607297 5.859250 1.321318  -0.994330 0.019974 -0.104449  0.000000 0.000000 1 0 1.000000
  phy
0  4.965820 -5.988313 11.120859  -0.183437 -0.872059 -0.453723  0.000000 0.000000 1 0 1.000000
0  5.184626 -4.987659 11.560415  -0.411504 -0.059263 -0.909479  0.000000 0.000000 1 0 1.000000
0  2.642551 -4.975324 12.387091  -0.237969 -0.052943 -0.969829  0.000000 0.000000 1 0 1.000000
  phy
0  4.965820 -5.988313 11.120859  -0.183437 -0.872059 -0.453723  0.000000 0.000000 1 0 1.000000
0  2.642551 -4.975324 12.387091  -0.237969 -0.052943 -0.969829  0.000000 0.000000 1 0 1.000000
0  2.543458 -5.988312 11.902617  -0.100837 -0.873976 -0.475392  0.000000 0.000000 1 0 1.000000
  phy
0  2.543458 -5.988312 11.902617  -0.100837 -0.873976 -0.475392  0.000000 0.000000 1 0 1.000000
0  2.642551 -4.975324 12.387091  -0.237969 -0.052943 -0.969829  0.000000 0.000000 1 0 1.000000
0  0.033041 -5.988311 12.166872  -0.010497 -0.847996 -0.529899  0.000000 0.000000 1 0 1.000000
  phy
0  0.033041 -5.988311 12.166872  -0.010497 -0.847996 -0.529899  0.000000 0.000000 1 0 1.000000
0  2.642551 -4.975324 12.387091  -0.237969 -0.052943 -0.969829  0.000000 0.000000 1 0 1.000000
0  0.019327 -4.975303 12.663229  0.002964 -0.031645 -0.999495  0.000000 0.000000 1 0 1.000000
  phy
0  2.543458 -5.988312 11.902617  -0.100837 -0.873976 -0.475392  0.000000 0.000000 1 0 1.000000
0  1.515500 -7.271648 8.405372  0.010672 -0.993034 -0.117346  0.000000 0.000000 1 0 1.000000
0  4.965820 -5.988313 11.120859  -0.183437 -0.872059 -0.453723  0.000000 0.000000 1 0 1.000000
  phy
0  0.033041 -5.988311 12.166872  -0.010497 -0.847996 -0.529899  0.000000 0.000000 1 0 1.000000
0  1.515500 -7.271648 8.405372  0.010672 -0.993034 -0.117346  0.000000 0.000000 1 0 1.000000
0  2.543458 -5.988312 11.902617  -0.100837 -0.873976 -0.475392  0.000000 0.000000 1 0 1.000000
  phy
0  9.938624 6.710373 7.226581  -0.028283 0.999375 -0.021201  0.000000 0.000000 1 0 1.000000
0  6.143660 6.707933 10.646881  -0.261631 0.851571 -0.454285  0.000000 0.000000 1 0 1.000000
0  7.454249 5.863512 10.251015  -0.591194 0.081069 -0.802445  0.000000 0.000000 1 0 1.000000
  phy
0  7.454249 5.863512 10.251015  -0.591194 0.081069 -0.802445  0.000000 0.000000 1 0 1.000000
0  6.143660 6.707933 10.646881  -0.261631 0.851571 -0.454285  0.000000 0.000000 1 0 1.000000
0  5.164029 5.859249 11.572295  -0.402022 0.042917 -0.914624  0.000000 0.000000 1 0 1.000000
  phy
0  -7.432237 5.870262 -10.251010  0.559529 0.025294 0.828425  0.000000 0.000000 1 0 1.000000
0  -8.225011 6.718083 -9.138932  0.095156 0.989852 0.105537  0.000000 0.000000 1 0 1.000000
0  -5.130989 5.879056 -11.572294  0.410826 0.078124 0.908360  0.000000 0.000000 1 0 1.000000
  phy
0  -8.225011 6.718083 -9.138932  0.095156 0.989852 0.105537  0.000000 0.000000 1 0 1.000000
0  -3.798704 6.718085 -11.693409  0.154470 0.824238 0.544767  0.000000 0.000000 1 0 1.000000
0  -5.130989 5.879056 -11.572294  0.410826 0.078124 0.908360  0.000000 0.000000 1 0 1.000000
  phy
0  -3.798704 6.718085 -11.693409  0.154470 0.824238 0.544767  0.000000 0.000000 1 0 1.000000
0  -2.620538 5.870269 -12.387090  0.239757 0.025295 0.970503  0.000000 0.000000 1 0 1.000000
0  -5.130989 5.879056 -11.572294  0.410826 0.078124 0.908360  0.000000 0.000000 1 0 1.000000
  phy
0  -12.287989 6.718083 -0.000023  0.015253 0.999883 -0.001102  0.000000 0.000000 1 0 1.000000
0  12.023737 6.718085 -2.554468  -0.023292 0.999714 0.005355  0.000000 0.000000 1 0 1.000000
0  1.288280 6.718089 -12.221920  -0.002834 0.999629 0.027082  0.000000 0.000000 1 0 1.000000
  phy
0  -12.287989 6.718083 -0.000023  0.015253 0.999883 -0.001102  0.000000 0.000000 1 0 1.000000
0  1.288280 6.718089 -12.221920  -0.002834 0.999629 0.027082  0.000000 0.000000 1 0 1.000000
0  -8.225011 6.718083 -9.138932  0.095156 0.989852 0.105537  0.000000 0.000000 1 0 1.000000
  phy
0  -12.287989 6.718083 -0.000023  0.015253 0.999883 -0.001102  0.000000 0.000000 1 0 1.000000
0  -8.225011 6.718083 -9.138932  0.095156 0.989852 0.105537  0.000000 0.000000 1 0 1.000000
0  -11.230947 6.718083 -4.998894  0.530126 0.820750 0.212924  0.000000 0.000000 1 0 1.000000
  phy
0  -8.225011 6.718083 -9.138932  0.095156 0.989852 0.105537  0.000000 0.000000 1 0 1.000000
0  1.288280 6.718089 -12.221920  -0.002834 0.999629 0.027082  0.000000 0.000000 1 0 1.000000
0  -3.798704 6.718085 -11.693409  0.154470 0.824238 0.544767  0.000000 0.000000 1 0 1.000000
  phy
0  1.288280 6.718089 -12.221920  -0.002834 0.999629 0.027082  0.000000 0.000000 1 0 1.000000
0  12.023737 6.718085 -2.554468  -0.023292 0.999714 0.005355  0.000000 0.000000 1 0 1.000000
0  9.942712 6.718087 -7.223038  -0.178501 0.975351 0.129719  0.000000 0.000000 1 0 1.000000
  phy
0  1.288280 6.718089 -12.221920  -0.002834 0.999629 0.027082  0.000000 0.000000 1 0 1.000000
0  9.942712 6.718087 -7.223038  -0.178501 0.975351 0.129719  0.000000 0.000000 1 0 1.000000
0  6.144011 6.718086 -10.647380  -0.297807 0.803812 0.514974  0.000000 0.000000 1 0 1.000000
  phy
0  6.144011 6.718086 -10.647380  -0.297807 0.803812 0.514974  0.000000 0.000000 1 0 1.000000
0  9.942712 6.718087 -7.223038  -0.178501 0.975351 0.129719  0.000000 0.000000 1 0 1.000000
0  9.425211 5.870255 -8.467246  -0.735817 0.080236 0.672410  0.000000 0.000000 1 0 1.000000
  phy
0  9.425211 5.870255 -8.467246  -0.735817 0.080236 0.672410  0.000000 0.000000 1 0 1.000000
0  7.454289 5.870256 -10.239982  -0.614771 0.025801 0.788284  0.000000 0.000000 1 0 1.000000
0  6.144011 6.718086 -10.647380  -0.297807 0.803812 0.514974  0.000000 0.000000 1 0 1.000000
  phy
0  6.144011 6.718086 -10.647380  -0.297807 0.803812 0.514974  0.000000 0.000000 1 0 1.000000
0  7.454289 5.870256 -10.239982  -0.614771 0.025801 0.788284  0.000000 0.000000 1 0 1.000000
0  5.164052 5.870255 -11.572283  -0.408195 0.019700 0.912682  0.000000 0.000000 1 0 1.000000
  phy
0  -5.142029 5.859241 11.572288  0.412502 0.077856 -0.907624  0.000000 0.000000 1 0 1.000000
0  -7.432271 5.859241 10.239973  0.588780 0.018676 -0.808077  0.000000 0.000000 1 0 1.000000
0  -5.142039 -4.975325 11.572274  0.409243 -0.031633 -0.911877  0.000000 0.000000 1 0 1.000000
  phy
0  -5.142039 -4.975325 11.572274  0.409243 -0.031633 -0.911877  0.000000 0.000000 1 0 1.000000
0  -7.432271 5.859241 10.239973  0.588780 0.018676 -0.808077  0.000000 0.000000 1 0 1.000000
0  -7.432267 -4.980475 10.239978  0.591190 -0.059438 -0.804339  0.000000 0.000000 1 0 1.000000
  phy
0  0.010985 5.859246 12.662354  0.006739 0.079178 -0.996838  0.000000 0.000000 1 0 1.000000
0  -2.620578 5.861998 12.387083  0.206838 0.019295 -0.978185  0.000000 0.000000 1 0 1.000000
0  0.019327 -4.975303 12.663229  0.002964 -0.031645 -0.999495  0.000000 0.000000 1 0 1.000000
  phy
0  0.019327 -4.975303 12.663229  0.002964 -0.031645 -0.999495  0.000000 0.000000 1 0 1.000000
0  -2.620578 5.861998 12.387083  0.206838 0.019295 -0.978185  0.000000 0.000000 1 0 1.000000
0  -2.618282 -4.981500 12.387322  0.210499 -0.059233 -0.975798  0.000000 0.000000 1 0 1.000000
  phy
0  -5.142029 5.859241 11.572288  0.412502 0.077856 -0.907624  0.000000 0.000000 1 0 1.000000
0  -2.620578 5.861998 12.387083  0.206838 0.019295 -0.978185  0.000000 0.000000 1 0 1.000000
0  -3.798725 6.707067 11.693400  0.037976 0.990360 -0.133213  0.000000 0.000000 1 0 1.000000
  phy
0  -2.620578 5.861998 12.387083  0.206838 0.019295 -0.978185  0.000000 0.000000 1 0 1.000000
0  -5.142029 5.859241 11.572288  0.412502 0.077856 -0.907624  0.000000 0.000000 1 0 1.000000
0  -5.142039 -4.975325 11.572274  0.409243 -0.031633 -0.911877  0.000000 0.000000 1 0 1.000000
  phy
0  -2.618282 -4.981500 12.387322  0.210499 -0.059233 -0.975798  0.000000 0.000000 1 0 1.000000
0  -2.620578 5.861998 12.387083  0.206838 0.019295 -0.978185  0.000000 0.000000 1 0 1.000000
0  -5.142039 -4.975325 11.572274  0.409243 -0.031633 -0.911877  0.000000 0.000000 1 0 1.000000
  phy
0  -4.932840 -5.988312 11.120840  0.130821 -0.929948 -0.343633  0.000000 0.000000 1 0 1.000000
0  1.515500 -7.271648 8.405372  0.010672 -0.993034 -0.117346  0.000000 0.000000 1 0 1.000000
0  -2.521997 -5.988311 11.902553  0.091577 -0.871587 -0.481611  0.000000 0.000000 1 0 1.000000
  phy
0  -4.932840 -5.988312 11.120840  0.130821 -0.929948 -0.343633  0.000000 0.000000 1 0 1.000000
0  -6.166039 -7.267736 5.926617  0.066238 -0.992558 -0.102178  0.000000 0.000000 1 0 1.000000
0  1.515500 -7.271648 8.405372  0.010672 -0.993034 -0.117346  0.000000 0.000000 1 0 1.000000
  phy
0  -8.225038 6.707080 9.138905  0.194198 0.956972 -0.215619  0.000000 0.000000 1 0 1.000000
0  -11.230966 6.707077 4.998865  0.486379 0.846335 -0.217147  0.000000 0.000000 1 0 1.000000
0  -10.955701 5.859252 6.331158  0.845952 0.054067 -0.530511  0.000000 0.000000 1 0 1.000000
  phy
0  -8.225038 6.707080 9.138905  0.194198 0.956972 -0.215619  0.000000 0.000000 1 0 1.000000
0  -10.955701 5.859252 6.331158  0.845952 0.054067 -0.530511  0.000000 0.000000 1 0 1.000000
0  -9.403180 5.861187 8.467248  0.742307 0.036389 -0.669071  0.000000 0.000000 1 0 1.000000
  phy
0  -5.142029 5.859241 11.572288  0.412502 0.077856 -0.907624  0.000000 0.000000 1 0 1.000000
0  -8.225038 6.707080 9.138905  0.194198 0.956972 -0.215619  0.000000 0.000000 1 0 1.000000
0  -7.432271 5.859241 10.239973  0.588780 0.018676 -0.808077  0.000000 0.000000 1 0 1.000000
  phy
0  -8.225038 6.707080 9.138905  0.194198 0.956972 -0.215619  0.000000 0.000000 1 0 1.000000
0  -5.142029 5.859241 11.572288  0.412502 0.077856 -0.907624  0.000000 0.000000 1 0 1.000000
0  -3.798725 6.707067 11.693400  0.037976 0.990360 -0.133213  0.000000 0.000000 1 0 1.000000
  phy
0  -8.225038 6.707080 9.138905  0.194198 0.956972 -0.215619  0.000000 0.000000 1 0 1.000000
0  -9.403180 5.861187 8.467248  0.742307 0.036389 -0.669071  0.000000 0.000000 1 0 1.000000
0  -7.432271 5.859241 10.239973  0.588780 0.018676 -0.808077  0.000000 0.000000 1 0 1.000000
  phy
0  -8.225038 6.707080 9.138905  0.194198 0.956972 -0.215619  0.000000 0.000000 1 0 1.000000
0  -12.287989 6.718083 -0.000023  0.015253 0.999883 -0.001102  0.000000 0.000000 1 0 1.000000
0  -11.230966 6.707077 4.998865  0.486379 0.846335 -0.217147  0.000000 0.000000 1 0 1.000000
  phy
0  -12.287989 6.718083 -0.000023  0.015253 0.999883 -0.001102  0.000000 0.000000 1 0 1.000000
0  -8.225038 6.707080 9.138905  0.194198 0.956972 -0.215619  0.000000 0.000000 1 0 1.000000
0  -3.798725 6.707067 11.693400  0.037976 0.990360 -0.133213  0.000000 0.000000 1 0 1.000000
  phy
0  12.607302 5.870261 -1.321271  -0.991945 0.081087 0.097313  0.000000 0.000000 1 0 1.000000
0  12.023726 6.707075 2.554509  -0.555893 0.825392 -0.098540  0.000000 0.000000 1 0 1.000000
0  12.607297 5.859250 1.321318  -0.994330 0.019974 -0.104449  0.000000 0.000000 1 0 1.000000
  phy
0  12.023726 6.707075 2.554509  -0.555893 0.825392 -0.098540  0.000000 0.000000 1 0 1.000000
0  12.056758 5.859249 3.919837  -0.945652 0.081280 -0.314858  0.000000 0.000000 1 0 1.000000
0  12.607297 5.859250 1.321318  -0.994330 0.019974 -0.104449  0.000000 0.000000 1 0 1.000000
  phy
0  12.023737 6.718085 -2.554468  -0.023292 0.999714 0.005355  0.000000 0.000000 1 0 1.000000
0  9.938624 6.710373 7.226581  -0.028283 0.999375 -0.021201  0.000000 0.000000 1 0 1.000000
0  12.023726 6.707075 2.554509  -0.555893 0.825392 -0.098540  0.000000 0.000000 1 0 1.000000
  phy
0  12.023737 6.718085 -2.554468  -0.023292 0.999714 0.005355  0.000000 0.000000 1 0 1.000000
0  12.023726 6.707075 2.554509  -0.555893 0.825392 -0.098540  0.000000 0.000000 1 0 1.000000
0  12.607302 5.870261 -1.321271  -0.991945 0.081087 0.097313  0.000000 0.000000 1 0 1.000000
  phy
0  12.023737 6.718085 -2.554468  -0.023292 0.999714 0.005355  0.000000 0.000000 1 0 1.000000
0  10.977724 5.870249 -6.331156  -0.850862 0.056572 0.522334  0.000000 0.000000 1 0 1.000000
0  9.942712 6.718087 -7.223038  -0.178501 0.975351 0.129719  0.000000 0.000000 1 0 1.000000
  phy
0  -2.620543 -4.968099 -12.387088  0.174437 -0.028739 0.984249  0.000000 0.000000 1 0 1.000000
0  0.011025 5.870256 -12.662354  0.003657 0.042337 0.999097  0.000000 0.000000 1 0 1.000000
0  0.024940 -4.970200 -12.660905  -0.000041 -0.075702 0.997131  0.000000 0.000000 1 0 1.000000
  phy
0  -12.287989 6.718083 -0.000023  0.015253 0.999883 -0.001102  0.000000 0.000000 1 0 1.000000
0  -12.574264 5.870256 -1.321306  0.988478 0.053441 0.141613  0.000000 0.000000 1 0 1.000000
0  -12.585279 5.859241 1.321267  0.997311 0.025208 -0.068816  0.000000 0.000000 1 0 1.000000
  phy
0  -12.574264 5.870256 -1.321306  0.988478 0.053441 0.141613  0.000000 0.000000 1 0 1.000000
0  -12.287989 6.718083 -0.000023  0.015253 0.999883 -0.001102  0.000000 0.000000 1 0 1.000000
0  -11.230947 6.718083 -4.998894  0.530126 0.820750 0.212924  0.000000 0.000000 1 0 1.000000
  phy
0  -10.526265 -5.977303 -6.088949  0.421860 -0.873250 0.243863  0.000000 0.000000 1 0 1.000000
0  -11.561271 -5.977303 -3.765707  0.548395 -0.817093 0.177824  0.000000 0.000000 1 0 1.000000
0  -10.955679 -4.964317 -6.331187  0.865338 -0.040603 0.499541  0.000000 0.000000 1 0 1.000000
  phy
0  -10.526265 -5.977303 -6.088949  0.421860 -0.873250 0.243863  0.000000 0.000000 1 0 1.000000
0  -7.533508 -7.257358 -4.041563  0.249591 -0.966599 0.058228  0.000000 0.000000 1 0 1.000000
0  -11.561271 -5.977303 -3.765707  0.548395 -0.817093 0.177824  0.000000 0.000000 1 0 1.000000
  phy
0  9.061852 -5.977297 -8.136931  -0.302729 -0.919379 0.251190  0.000000 0.000000 1 0 1.000000
0  9.425206 -4.964315 -8.467243  -0.742600 -0.021566 0.669388  0.000000 0.000000 1 0 1.000000
0  10.977724 -4.964301 -6.331155  -0.879538 -0.041186 0.474043  0.000000 0.000000 1 0 1.000000
  phy
0  9.425206 -4.964315 -8.467243  -0.742600 -0.021566 0.669388  0.000000 0.000000 1 0 1.000000
0  10.977724 5.870249 -6.331156  -0.850862 0.056572 0.522334  0.000000 0.000000 1 0 1.000000
0  10.977724 -4.964301 -6.331155  -0.879538 -0.041186 0.474043  0.000000 0.000000 1 0 1.000000
  phy
0  9.425206 -4.964315 -8.467243  -0.742600 -0.021566 0.669388  0.000000 0.000000 1 0 1.000000
0  9.425211 5.870255 -8.467246  -0.735817 0.080236 0.672410  0.000000 0.000000 1 0 1.000000
0  10.977724 5.870249 -6.331156  -0.850862 0.056572 0.522334  0.000000 0.000000 1 0 1.000000
  phy
0  9.942712 6.718087 -7.223038  -0.178501 0.975351 0.129719  0.000000 0.000000 1 0 1.000000
0  10.977724 5.870249 -6.331156  -0.850862 0.056572 0.522334  0.000000 0.000000 1 0 1.000000
0  9.425211 5.870255 -8.467246  -0.735817 0.080236 0.672410  0.000000 0.000000 1 0 1.000000
  phy
0  9.425183 -4.975327 8.478277  -0.762490 -0.041421 -0.645673  0.000000 0.000000 1 0 1.000000
0  10.977695 5.859253 6.331196  -0.865871 0.020051 -0.499866  0.000000 0.000000 1 0 1.000000
0  9.425190 5.859252 8.478287  -0.720506 0.026589 -0.692938  0.000000 0.000000 1 0 1.000000
  phy
0  9.425183 -4.975327 8.478277  -0.762490 -0.041421 -0.645673  0.000000 0.000000 1 0 1.000000
0  10.977699 -4.990166 6.331192  -0.863548 -0.075591 -0.498568  0.000000 0.000000 1 0 1.000000
0  10.977695 5.859253 6.331196  -0.865871 0.020051 -0.499866  0.000000 0.000000 1 0 1.000000
  phy
0  9.938624 6.710373 7.226581  -0.028283 0.999375 -0.021201  0.000000 0.000000 1 0 1.000000
0  9.425190 5.859252 8.478287  -0.720506 0.026589 -0.692938  0.000000 0.000000 1 0 1.000000
0  10.977695 5.859253 6.331196  -0.865871 0.020051 -0.499866  0.000000 0.000000 1 0 1.000000
  phy
0  10.977695 5.859253 6.331196  -0.865871 0.020051 -0.499866  0.000000 0.000000 1 0 1.000000
0  12.056758 5.859249 3.919837  -0.945652 0.081280 -0.314858  0.000000 0.000000 1 0 1.000000
0  9.938624 6.710373 7.226581  -0.028283 0.999375 -0.021201  0.000000 0.000000 1 0 1.000000
  phy
0  -5.142039 -4.975325 11.572274  0.409243 -0.031633 -0.911877  0.000000 0.000000 1 0 1.000000
0  -4.932840 -5.988312 11.120840  0.130821 -0.929948 -0.343633  0.000000 0.000000 1 0 1.000000
0  -2.618282 -4.981500 12.387322  0.210499 -0.059233 -0.975798  0.000000 0.000000 1 0 1.000000
  phy
0  -2.618282 -4.981500 12.387322  0.210499 -0.059233 -0.975798  0.000000 0.000000 1 0 1.000000
0  -4.932840 -5.988312 11.120840  0.130821 -0.929948 -0.343633  0.000000 0.000000 1 0 1.000000
0  -2.521997 -5.988311 11.902553  0.091577 -0.871587 -0.481611  0.000000 0.000000 1 0 1.000000
  phy
0  -2.618282 -4.981500 12.387322  0.210499 -0.059233 -0.975798  0.000000 0.000000 1 0 1.000000
0  -2.521997 -5.988311 11.902553  0.091577 -0.871587 -0.481611  0.000000 0.000000 1 0 1.000000
0  0.019327 -4.975303 12.663229  0.002964 -0.031645 -0.999495  0.000000 0.000000 1 0 1.000000
  phy
0  0.019327 -4.975303 12.663229  0.002964 -0.031645 -0.999495  0.000000 0.000000 1 0 1.000000
0  -2.521997 -5.988311 11.902553  0.091577 -0.871587 -0.481611  0.000000 0.000000 1 0 1.000000
0  0.033041 -5.988311 12.166872  -0.010497 -0.847996 -0.529899  0.000000 0.000000 1 0 1.000000
  phy
0  -2.521997 -5.988311 11.902553  0.091577 -0.871587 -0.481611  0.000000 0.000000 1 0 1.000000
0  1.515500 -7.271648 8.405372  0.010672 -0.993034 -0.117346  0.000000 0.000000 1 0 1.000000
0  0.033041 -5.988311 12.166872  -0.010497 -0.847996 -0.529899  0.000000 0.000000 1 0 1.000000
  phy
0  2.642551 -4.975324 12.387091  -0.237969 -0.052943 -0.969829  0.000000 0.000000 1 0 1.000000
0  2.642560 5.859247 12.387091  -0.174690 0.025890 -0.984283  0.000000 0.000000 1 0 1.000000
0  0.019327 -4.975303 12.663229  0.002964 -0.031645 -0.999495  0.000000 0.000000 1 0 1.000000
  phy
0  2.642560 5.859247 12.387091  -0.174690 0.025890 -0.984283  0.000000 0.000000 1 0 1.000000
0  0.010985 5.859246 12.662354  0.006739 0.079178 -0.996838  0.000000 0.000000 1 0 1.000000
0  0.019327 -4.975303 12.663229  0.002964 -0.031645 -0.999495  0.000000 0.000000 1 0 1.000000
  phy
0  2.642560 5.859247 12.387091  -0.174690 0.025890 -0.984283  0.000000 0.000000 1 0 1.000000
0  2.642551 -4.975324 12.387091  -0.237969 -0.052943 -0.969829  0.000000 0.000000 1 0 1.000000
0  5.164029 5.859249 11.572295  -0.402022 0.042917 -0.914624  0.000000 0.000000 1 0 1.000000
  phy
0  9.938624 6.710373 7.226581  -0.028283 0.999375 -0.021201  0.000000 0.000000 1 0 1.000000
0  7.454249 5.863512 10.251015  -0.591194 0.081069 -0.802445  0.000000 0.000000 1 0 1.000000
0  9.425190 5.859252 8.478287  -0.720506 0.026589 -0.692938  0.000000 0.000000 1 0 1.000000
  phy
0  9.938624 6.710373 7.226581  -0.028283 0.999375 -0.021201  0.000000 0.000000 1 0 1.000000
0  12.056758 5.859249 3.919837  -0.945652 0.081280 -0.314858  0.000000 0.000000 1 0 1.000000
0  12.023726 6.707075 2.554509  -0.555893 0.825392 -0.098540  0.000000 0.000000 1 0 1.000000
  phy
0  -12.287989 6.718083 -0.000023  0.015253 0.999883 -0.001102  0.000000 0.000000 1 0 1.000000
0  -12.034744 5.859241 3.908798  0.951274 0.041631 -0.305525  0.000000 0.000000 1 0 1.000000
0  -11.230966 6.707077 4.998865  0.486379 0.846335 -0.217147  0.000000 0.000000 1 0 1.000000
  phy
0  -12.034744 5.859241 3.908798  0.951274 0.041631 -0.305525  0.000000 0.000000 1 0 1.000000
0  -12.287989 6.718083 -0.000023  0.015253 0.999883 -0.001102  0.000000 0.000000 1 0 1.000000
0  -12.585279 5.859241 1.321267  0.997311 0.025208 -0.068816  0.000000 0.000000 1 0 1.000000
  phy
0  -11.230966 6.707077 4.998865  0.486379 0.846335 -0.217147  0.000000 0.000000 1 0 1.000000
0  -12.034744 5.859241 3.908798  0.951274 0.041631 -0.305525  0.000000 0.000000 1 0 1.000000
0  -10.955701 5.859252 6.331158  0.845952 0.054067 -0.530511  0.000000 0.000000 1 0 1.000000
  phy
0  -2.620543 -4.968099 -12.387088  0.174437 -0.028739 0.984249  0.000000 0.000000 1 0 1.000000
0  -2.620538 5.870269 -12.387090  0.239757 0.025295 0.970503  0.000000 0.000000 1 0 1.000000
0  0.011025 5.870256 -12.662354  0.003657 0.042337 0.999097  0.000000 0.000000 1 0 1.000000
  phy
0  5.164029 5.859249 11.572295  -0.402022 0.042917 -0.914624  0.000000 0.000000 1 0 1.000000
0  2.642551 -4.975324 12.387091  -0.237969 -0.052943 -0.969829  0.000000 0.000000 1 0 1.000000
0  5.184626 -4.987659 11.560415  -0.411504 -0.059263 -0.909479  0.000000 0.000000 1 0 1.000000
  phy
0  0.011025 5.870256 -12.662354  0.003657 0.042337 0.999097  0.000000 0.000000 1 0 1.000000
0  -2.620538 5.870269 -12.387090  0.239757 0.025295 0.970503  0.000000 0.000000 1 0 1.000000
0  -3.798704 6.718085 -11.693409  0.154470 0.824238 0.544767  0.000000 0.000000 1 0 1.000000
  phy
0  -3.798704 6.718085 -11.693409  0.154470 0.824238 0.544767  0.000000 0.000000 1 0 1.000000
0  1.288280 6.718089 -12.221920  -0.002834 0.999629 0.027082  0.000000 0.000000 1 0 1.000000
0  0.011025 5.870256 -12.662354  0.003657 0.042337 0.999097  0.000000 0.000000 1 0 1.000000
end
