version 1
nodes
0 "root" -1
end
skeleton
time 0
0  0.000000 0.000000 0.000000  0.000000 -0.000000 0.000000
end
triangles
coplightblue3
0  7.572782 8.838093 64.667480  0.001119 -0.999998 -0.001576  0.724854 0.184204 1 0 1.000000
0  11.830322 8.841877 65.289757  0.001109 -0.999998 -0.001503  0.520493 0.215546 1 0 1.000000
0  7.571192 8.837103 65.291832  0.001120 -0.999998 -0.001584  0.724854 0.215546 1 0 1.000000
coplightblue3
0  11.832213 8.842808 64.668976  -0.000092 -0.930345 0.366684  0.520493 0.184204 1 0 1.000000
0  11.830322 8.841877 65.289757  0.001109 -0.999998 -0.001503  0.520493 0.215546 1 0 1.000000
0  7.572782 8.838093 64.667480  0.001119 -0.999998 -0.001576  0.724854 0.184204 1 0 1.000000
coplightblue3
0  6.971500 15.860840 65.424683  0.001120 0.999677 0.025400  0.724854 0.215546 1 0 1.000000
0  11.230577 15.856127 65.422417  0.001113 0.999676 0.025443  0.520493 0.215546 1 0 1.000000
0  6.973038 15.876694 64.800606  0.001119 0.999677 0.025405  0.724854 0.184204 1 0 1.000000
coplightblue3
0  11.232471 15.871920 64.801933  0.000708 0.920334 0.391132  0.520493 0.184204 1 0 1.000000
0  6.973038 15.876694 64.800606  0.001119 0.999677 0.025405  0.724854 0.184204 1 0 1.000000
0  11.230577 15.856127 65.422417  0.001113 0.999676 0.025443  0.520493 0.215546 1 0 1.000000
coplightblue3
0  0.974286 15.860840 65.424683  0.001121 0.999677 0.025400  0.724854 0.215546 1 0 1.000000
0  5.233361 15.856123 65.422417  0.001113 0.999676 0.025448  0.520493 0.215546 1 0 1.000000
0  0.975822 15.876694 64.800606  0.001120 0.999677 0.025405  0.724854 0.184204 1 0 1.000000
coplightblue3
0  5.235256 15.871920 64.801933  0.000707 0.920332 0.391138  0.520493 0.184204 1 0 1.000000
0  0.975822 15.876694 64.800606  0.001120 0.999677 0.025405  0.724854 0.184204 1 0 1.000000
0  5.233361 15.856123 65.422417  0.001113 0.999676 0.025448  0.520493 0.215546 1 0 1.000000
coplightblue3
0  -0.743568 15.860840 65.424683  -0.001121 0.999677 0.025395  0.724854 0.215546 1 0 1.000000
0  -0.745105 15.876694 64.800606  -0.001120 0.999677 0.025399  0.724854 0.184204 1 0 1.000000
0  -5.002642 15.856123 65.422417  -0.001114 0.999676 0.025442  0.520493 0.215546 1 0 1.000000
coplightblue3
0  -5.002642 15.856123 65.422417  -0.001114 0.999676 0.025442  0.520493 0.215546 1 0 1.000000
0  -0.745105 15.876694 64.800606  -0.001120 0.999677 0.025399  0.724854 0.184204 1 0 1.000000
0  -5.004536 15.871916 64.801933  0.000086 0.920335 0.391131  0.520493 0.184204 1 0 1.000000
coplightblue3
0  -6.740735 15.860836 65.424683  -0.001121 0.999677 0.025406  0.724854 0.215546 1 0 1.000000
0  -6.742321 15.876694 64.800606  -0.001120 0.999676 0.025410  0.724854 0.184204 1 0 1.000000
0  -10.999859 15.856119 65.422417  -0.001114 0.999675 0.025448  0.520493 0.215546 1 0 1.000000
coplightblue3
0  -10.999859 15.856119 65.422417  -0.001114 0.999675 0.025448  0.520493 0.215546 1 0 1.000000
0  -6.742321 15.876694 64.800606  -0.001120 0.999676 0.025410  0.724854 0.184204 1 0 1.000000
0  -11.001754 15.871916 64.801933  0.000087 0.920333 0.391136  0.520493 0.184204 1 0 1.000000
coplightblue3
0  1.175740 8.838085 64.666611  0.001119 -0.999998 -0.001568  0.724854 0.184204 1 0 1.000000
0  5.433277 8.841869 65.288887  0.001109 -0.999998 -0.001507  0.520493 0.215546 1 0 1.000000
0  1.174202 8.837097 65.290962  0.001120 -0.999998 -0.001575  0.724854 0.215546 1 0 1.000000
coplightblue3
0  5.435173 8.842802 64.668106  -0.000094 -0.930347 0.366679  0.520493 0.184204 1 0 1.000000
0  5.433277 8.841869 65.288887  0.001109 -0.999998 -0.001507  0.520493 0.215546 1 0 1.000000
0  1.175740 8.838085 64.666611  0.001119 -0.999998 -0.001568  0.724854 0.184204 1 0 1.000000
coplightblue3
0  -0.945012 8.838085 64.666611  -0.001118 -0.999998 -0.001571  0.724854 0.184204 1 0 1.000000
0  -0.943475 8.837097 65.290962  -0.001119 -0.999998 -0.001578  0.724854 0.215546 1 0 1.000000
0  -5.202552 8.841866 65.288887  -0.001108 -0.999998 -0.001508  0.520493 0.215546 1 0 1.000000
coplightblue3
0  -5.202552 8.841866 65.288887  -0.001108 -0.999998 -0.001508  0.520493 0.215546 1 0 1.000000
0  -5.204447 8.842798 64.668106  -0.000701 -0.930347 0.366681  0.520493 0.184204 1 0 1.000000
0  -0.945012 8.838085 64.666611  -0.001118 -0.999998 -0.001571  0.724854 0.184204 1 0 1.000000
coplightblue3
0  -7.342053 8.838089 64.667480  -0.001118 -0.999998 -0.001570  0.724854 0.184204 1 0 1.000000
0  -7.340466 8.837101 65.291832  -0.001119 -0.999998 -0.001578  0.724854 0.215546 1 0 1.000000
0  -11.599541 8.841869 65.289757  -0.001107 -0.999998 -0.001500  0.520493 0.215546 1 0 1.000000
coplightblue3
0  -11.599541 8.841869 65.289757  -0.001107 -0.999998 -0.001500  0.520493 0.215546 1 0 1.000000
0  -11.601492 8.842798 64.668976  -0.000720 -0.930343 0.366689  0.520493 0.184204 1 0 1.000000
0  -7.342053 8.838089 64.667480  -0.001118 -0.999998 -0.001570  0.724854 0.184204 1 0 1.000000
end
