version 1
nodes
0 "root" -1
end
skeleton
time 0
0  0.000000 0.000000 0.000000  0.000000 -0.000000 0.000000
end
triangles
  phy
0  -39.929512 -114.046272 16.582327  0.754823 -0.552275 -0.353885  0.000000 0.000000 1 0 1.000000
0  -40.133095 -114.102776 16.017979  0.807080 -0.546673 -0.223092  0.000000 0.000000 1 0 1.000000
0  -37.237080 -116.927979 16.789715  0.593534 -0.719886 -0.359836  0.000000 0.000000 1 0 1.000000
  phy
0  -37.237080 -116.927979 16.789715  0.593534 -0.719886 -0.359836  0.000000 0.000000 1 0 1.000000
0  -40.133095 -114.102776 16.017979  0.807080 -0.546673 -0.223092  0.000000 0.000000 1 0 1.000000
0  -37.323822 -117.076813 16.264530  0.537840 -0.804537 -0.251889  0.000000 0.000000 1 0 1.000000
  phy
0  -37.323822 -117.076813 16.264530  0.537840 -0.804537 -0.251889  0.000000 0.000000 1 0 1.000000
0  -40.133095 -114.102776 16.017979  0.807080 -0.546673 -0.223092  0.000000 0.000000 1 0 1.000000
0  -37.467251 -117.158798 15.521003  0.566327 -0.814920 -0.123204  0.000000 0.000000 1 0 1.000000
  phy
0  -43.587029 -106.656609 19.277700  0.804751 -0.449859 -0.387303  0.000000 0.000000 1 0 1.000000
0  -40.133095 -114.102776 16.017979  0.807080 -0.546673 -0.223092  0.000000 0.000000 1 0 1.000000
0  -39.929512 -114.046272 16.582327  0.754823 -0.552275 -0.353885  0.000000 0.000000 1 0 1.000000
  phy
0  -40.133095 -114.102776 16.017979  0.807080 -0.546673 -0.223092  0.000000 0.000000 1 0 1.000000
0  -43.587029 -106.656609 19.277700  0.804751 -0.449859 -0.387303  0.000000 0.000000 1 0 1.000000
0  -43.953899 -107.132019 17.205130  0.871231 -0.454645 -0.185077  0.000000 0.000000 1 0 1.000000
  phy
0  -40.133095 -114.102776 16.017979  0.807080 -0.546673 -0.223092  0.000000 0.000000 1 0 1.000000
0  -40.268288 -114.062134 15.017531  0.825371 -0.563314 -0.037948  0.000000 0.000000 1 0 1.000000
0  -37.467251 -117.158798 15.521003  0.566327 -0.814920 -0.123204  0.000000 0.000000 1 0 1.000000
  phy
0  -40.133095 -114.102776 16.017979  0.807080 -0.546673 -0.223092  0.000000 0.000000 1 0 1.000000
0  -43.953899 -107.132019 17.205130  0.871231 -0.454645 -0.185077  0.000000 0.000000 1 0 1.000000
0  -40.268288 -114.062134 15.017531  0.825371 -0.563314 -0.037948  0.000000 0.000000 1 0 1.000000
  phy
0  -43.953899 -107.132019 17.205130  0.871231 -0.454645 -0.185077  0.000000 0.000000 1 0 1.000000
0  -43.587029 -106.656609 19.277700  0.804751 -0.449859 -0.387303  0.000000 0.000000 1 0 1.000000
0  -47.391258 -98.819580 18.722904  0.836924 -0.257677 -0.482867  0.000000 0.000000 1 0 1.000000
  phy
0  -43.587029 -106.656609 19.277700  0.804751 -0.449859 -0.387303  0.000000 0.000000 1 0 1.000000
0  -35.203609 -112.231361 29.451008  0.615766 -0.397581 -0.680266  0.000000 0.000000 1 0 1.000000
0  -47.391258 -98.819580 18.722904  0.836924 -0.257677 -0.482867  0.000000 0.000000 1 0 1.000000
  phy
0  -43.587029 -106.656609 19.277700  0.804751 -0.449859 -0.387303  0.000000 0.000000 1 0 1.000000
0  -39.929512 -114.046272 16.582327  0.754823 -0.552275 -0.353885  0.000000 0.000000 1 0 1.000000
0  -35.203609 -112.231361 29.451008  0.615766 -0.397581 -0.680266  0.000000 0.000000 1 0 1.000000
  phy
0  -43.780651 -107.388489 13.450402  0.892379 -0.413591 0.180561  0.000000 0.000000 1 0 1.000000
0  -43.873024 -107.363228 14.172036  0.897992 -0.438144 0.040489  0.000000 0.000000 1 0 1.000000
0  -45.782143 -102.739555 13.495783  0.922151 -0.375383 0.093412  0.000000 0.000000 1 0 1.000000
  phy
0  -43.873024 -107.363228 14.172036  0.897992 -0.438144 0.040489  0.000000 0.000000 1 0 1.000000
0  -43.960876 -107.229111 16.348175  0.907744 -0.419466 -0.007033  0.000000 0.000000 1 0 1.000000
0  -45.782143 -102.739555 13.495783  0.922151 -0.375383 0.093412  0.000000 0.000000 1 0 1.000000
  phy
0  -43.873024 -107.363228 14.172036  0.897992 -0.438144 0.040489  0.000000 0.000000 1 0 1.000000
0  -40.246494 -114.127670 12.820787  0.849587 -0.527000 0.021734  0.000000 0.000000 1 0 1.000000
0  -43.960876 -107.229111 16.348175  0.907744 -0.419466 -0.007033  0.000000 0.000000 1 0 1.000000
  phy
0  -43.873024 -107.363228 14.172036  0.897992 -0.438144 0.040489  0.000000 0.000000 1 0 1.000000
0  -43.780651 -107.388489 13.450402  0.892379 -0.413591 0.180561  0.000000 0.000000 1 0 1.000000
0  -40.268860 -113.933914 12.118048  0.827344 -0.512322 0.230278  0.000000 0.000000 1 0 1.000000
  phy
0  -40.246494 -114.127670 12.820787  0.849587 -0.527000 0.021734  0.000000 0.000000 1 0 1.000000
0  -43.873024 -107.363228 14.172036  0.897992 -0.438144 0.040489  0.000000 0.000000 1 0 1.000000
0  -40.268860 -113.933914 12.118048  0.827344 -0.512322 0.230278  0.000000 0.000000 1 0 1.000000
  phy
0  45.440212 -102.269630 13.749718  -0.902207 -0.428261 0.051128  0.000000 0.000000 1 0 1.000000
0  46.379375 -98.458679 7.318652  -0.876799 -0.432908 0.209320  0.000000 0.000000 1 0 1.000000
0  47.495071 -97.458908 13.522717  -0.917108 -0.385938 0.099823  0.000000 0.000000 1 0 1.000000
  phy
0  47.495071 -97.458908 13.522717  -0.917108 -0.385938 0.099823  0.000000 0.000000 1 0 1.000000
0  48.223476 -96.242317 16.165630  -0.508337 0.815597 -0.276394  0.000000 0.000000 1 0 1.000000
0  45.440212 -102.269630 13.749718  -0.902207 -0.428261 0.051128  0.000000 0.000000 1 0 1.000000
  phy
0  46.379375 -98.458679 7.318652  -0.876799 -0.432908 0.209320  0.000000 0.000000 1 0 1.000000
0  48.223476 -96.242317 16.165630  -0.508337 0.815597 -0.276394  0.000000 0.000000 1 0 1.000000
0  47.495071 -97.458908 13.522717  -0.917108 -0.385938 0.099823  0.000000 0.000000 1 0 1.000000
  phy
0  -39.929512 -114.046272 16.582327  0.754823 -0.552275 -0.353885  0.000000 0.000000 1 0 1.000000
0  -37.237080 -116.927979 16.789715  0.593534 -0.719886 -0.359836  0.000000 0.000000 1 0 1.000000
0  -35.203609 -112.231361 29.451008  0.615766 -0.397581 -0.680266  0.000000 0.000000 1 0 1.000000
  phy
0  -43.780651 -107.388489 13.450402  0.892379 -0.413591 0.180561  0.000000 0.000000 1 0 1.000000
0  -46.952473 -97.833008 7.911738  0.919475 -0.347832 0.183245  0.000000 0.000000 1 0 1.000000
0  -42.735394 -107.290710 8.568468  0.877048 -0.418802 0.235356  0.000000 0.000000 1 0 1.000000
  phy
0  -46.952473 -97.833008 7.911738  0.919475 -0.347832 0.183245  0.000000 0.000000 1 0 1.000000
0  -43.780651 -107.388489 13.450402  0.892379 -0.413591 0.180561  0.000000 0.000000 1 0 1.000000
0  -45.782143 -102.739555 13.495783  0.922151 -0.375383 0.093412  0.000000 0.000000 1 0 1.000000
  phy
0  -40.268860 -113.933914 12.118048  0.827344 -0.512322 0.230278  0.000000 0.000000 1 0 1.000000
0  -43.780651 -107.388489 13.450402  0.892379 -0.413591 0.180561  0.000000 0.000000 1 0 1.000000
0  -42.735394 -107.290710 8.568468  0.877048 -0.418802 0.235356  0.000000 0.000000 1 0 1.000000
  phy
0  -43.960876 -107.229111 16.348175  0.907744 -0.419466 -0.007033  0.000000 0.000000 1 0 1.000000
0  -40.246494 -114.127670 12.820787  0.849587 -0.527000 0.021734  0.000000 0.000000 1 0 1.000000
0  -40.268288 -114.062134 15.017531  0.825371 -0.563314 -0.037948  0.000000 0.000000 1 0 1.000000
  phy
0  -40.246494 -114.127670 12.820787  0.849587 -0.527000 0.021734  0.000000 0.000000 1 0 1.000000
0  -37.460442 -117.303291 13.033387  0.696547 -0.717441 -0.010033  0.000000 0.000000 1 0 1.000000
0  -40.268288 -114.062134 15.017531  0.825371 -0.563314 -0.037948  0.000000 0.000000 1 0 1.000000
  phy
0  -40.246494 -114.127670 12.820787  0.849587 -0.527000 0.021734  0.000000 0.000000 1 0 1.000000
0  -40.268860 -113.933914 12.118048  0.827344 -0.512322 0.230278  0.000000 0.000000 1 0 1.000000
0  -37.480156 -117.186302 12.305445  0.665623 -0.696488 0.268049  0.000000 0.000000 1 0 1.000000
  phy
0  -37.460442 -117.303291 13.033387  0.696547 -0.717441 -0.010033  0.000000 0.000000 1 0 1.000000
0  -40.246494 -114.127670 12.820787  0.849587 -0.527000 0.021734  0.000000 0.000000 1 0 1.000000
0  -37.480156 -117.186302 12.305445  0.665623 -0.696488 0.268049  0.000000 0.000000 1 0 1.000000
  phy
0  -40.268860 -113.933914 12.118048  0.827344 -0.512322 0.230278  0.000000 0.000000 1 0 1.000000
0  -37.261864 -115.358849 7.808468  0.657080 -0.672779 0.340020  0.000000 0.000000 1 0 1.000000
0  -37.480156 -117.186302 12.305445  0.665623 -0.696488 0.268049  0.000000 0.000000 1 0 1.000000
  phy
0  -37.261864 -115.358849 7.808468  0.657080 -0.672779 0.340020  0.000000 0.000000 1 0 1.000000
0  -40.268860 -113.933914 12.118048  0.827344 -0.512322 0.230278  0.000000 0.000000 1 0 1.000000
0  -40.056190 -111.966431 7.532976  0.769477 -0.539344 0.342071  0.000000 0.000000 1 0 1.000000
  phy
0  -36.708103 -114.017174 4.917924  0.633052 -0.643357 0.430509  0.000000 0.000000 1 0 1.000000
0  -37.261864 -115.358849 7.808468  0.657080 -0.672779 0.340020  0.000000 0.000000 1 0 1.000000
0  -40.056190 -111.966431 7.532976  0.769477 -0.539344 0.342071  0.000000 0.000000 1 0 1.000000
  phy
0  -34.342014 -119.461372 11.738184  0.559157 -0.766484 0.315983  0.000000 0.000000 1 0 1.000000
0  -37.480156 -117.186302 12.305445  0.665623 -0.696488 0.268049  0.000000 0.000000 1 0 1.000000
0  -37.261864 -115.358849 7.808468  0.657080 -0.672779 0.340020  0.000000 0.000000 1 0 1.000000
  phy
0  -37.261864 -115.358849 7.808468  0.657080 -0.672779 0.340020  0.000000 0.000000 1 0 1.000000
0  -34.276165 -117.555450 7.340903  0.552533 -0.737434 0.388456  0.000000 0.000000 1 0 1.000000
0  -34.342014 -119.461372 11.738184  0.559157 -0.766484 0.315983  0.000000 0.000000 1 0 1.000000
  phy
0  -36.708103 -114.017174 4.917924  0.633052 -0.643357 0.430509  0.000000 0.000000 1 0 1.000000
0  -34.276165 -117.555450 7.340903  0.552533 -0.737434 0.388456  0.000000 0.000000 1 0 1.000000
0  -37.261864 -115.358849 7.808468  0.657080 -0.672779 0.340020  0.000000 0.000000 1 0 1.000000
  phy
0  44.675648 -103.703445 12.437544  -0.875262 -0.462554 0.141279  0.000000 0.000000 1 0 1.000000
0  46.379375 -98.458679 7.318652  -0.876799 -0.432908 0.209320  0.000000 0.000000 1 0 1.000000
0  45.440212 -102.269630 13.749718  -0.902207 -0.428261 0.051128  0.000000 0.000000 1 0 1.000000
  phy
0  45.440212 -102.269630 13.749718  -0.902207 -0.428261 0.051128  0.000000 0.000000 1 0 1.000000
0  48.223476 -96.242317 16.165630  -0.508337 0.815597 -0.276394  0.000000 0.000000 1 0 1.000000
0  46.366291 -100.513222 15.943696  -0.887377 -0.461030 -0.003771  0.000000 0.000000 1 0 1.000000
  phy
0  45.440212 -102.269630 13.749718  -0.902207 -0.428261 0.051128  0.000000 0.000000 1 0 1.000000
0  38.885265 -114.246277 12.578260  -0.863166 -0.504638 -0.016874  0.000000 0.000000 1 0 1.000000
0  44.675648 -103.703445 12.437544  -0.875262 -0.462554 0.141279  0.000000 0.000000 1 0 1.000000
  phy
0  46.366291 -100.513222 15.943696  -0.887377 -0.461030 -0.003771  0.000000 0.000000 1 0 1.000000
0  38.885265 -114.246277 12.578260  -0.863166 -0.504638 -0.016874  0.000000 0.000000 1 0 1.000000
0  45.440212 -102.269630 13.749718  -0.902207 -0.428261 0.051128  0.000000 0.000000 1 0 1.000000
  phy
0  -41.232964 -109.677650 7.513193  0.862450 -0.437960 0.253714  0.000000 0.000000 1 0 1.000000
0  -40.268860 -113.933914 12.118048  0.827344 -0.512322 0.230278  0.000000 0.000000 1 0 1.000000
0  -42.735394 -107.290710 8.568468  0.877048 -0.418802 0.235356  0.000000 0.000000 1 0 1.000000
  phy
0  -40.268860 -113.933914 12.118048  0.827344 -0.512322 0.230278  0.000000 0.000000 1 0 1.000000
0  -41.232964 -109.677650 7.513193  0.862450 -0.437960 0.253714  0.000000 0.000000 1 0 1.000000
0  -40.056190 -111.966431 7.532976  0.769477 -0.539344 0.342071  0.000000 0.000000 1 0 1.000000
  phy
0  -41.829857 -107.122108 5.666152  0.854271 -0.416714 0.310758  0.000000 0.000000 1 0 1.000000
0  -41.232964 -109.677650 7.513193  0.862450 -0.437960 0.253714  0.000000 0.000000 1 0 1.000000
0  -42.735394 -107.290710 8.568468  0.877048 -0.418802 0.235356  0.000000 0.000000 1 0 1.000000
  phy
0  -41.232964 -109.677650 7.513193  0.862450 -0.437960 0.253714  0.000000 0.000000 1 0 1.000000
0  -41.829857 -107.122108 5.666152  0.854271 -0.416714 0.310758  0.000000 0.000000 1 0 1.000000
0  -40.056190 -111.966431 7.532976  0.769477 -0.539344 0.342071  0.000000 0.000000 1 0 1.000000
  phy
0  -43.953899 -107.132019 17.205130  0.871231 -0.454645 -0.185077  0.000000 0.000000 1 0 1.000000
0  -43.960876 -107.229111 16.348175  0.907744 -0.419466 -0.007033  0.000000 0.000000 1 0 1.000000
0  -40.268288 -114.062134 15.017531  0.825371 -0.563314 -0.037948  0.000000 0.000000 1 0 1.000000
  phy
0  -43.960876 -107.229111 16.348175  0.907744 -0.419466 -0.007033  0.000000 0.000000 1 0 1.000000
0  -43.953899 -107.132019 17.205130  0.871231 -0.454645 -0.185077  0.000000 0.000000 1 0 1.000000
0  -47.391258 -98.819580 18.722904  0.836924 -0.257677 -0.482867  0.000000 0.000000 1 0 1.000000
  phy
0  -37.480156 -117.186302 12.305445  0.665623 -0.696488 0.268049  0.000000 0.000000 1 0 1.000000
0  -34.341297 -119.598869 12.464535  0.499310 -0.866268 0.016423  0.000000 0.000000 1 0 1.000000
0  -37.460442 -117.303291 13.033387  0.696547 -0.717441 -0.010033  0.000000 0.000000 1 0 1.000000
  phy
0  -34.341297 -119.598869 12.464535  0.499310 -0.866268 0.016423  0.000000 0.000000 1 0 1.000000
0  -37.467251 -117.158798 15.521003  0.566327 -0.814920 -0.123204  0.000000 0.000000 1 0 1.000000
0  -37.460442 -117.303291 13.033387  0.696547 -0.717441 -0.010033  0.000000 0.000000 1 0 1.000000
  phy
0  -40.268288 -114.062134 15.017531  0.825371 -0.563314 -0.037948  0.000000 0.000000 1 0 1.000000
0  -37.460442 -117.303291 13.033387  0.696547 -0.717441 -0.010033  0.000000 0.000000 1 0 1.000000
0  -37.467251 -117.158798 15.521003  0.566327 -0.814920 -0.123204  0.000000 0.000000 1 0 1.000000
  phy
0  -36.708103 -114.017174 4.917924  0.633052 -0.643357 0.430509  0.000000 0.000000 1 0 1.000000
0  -39.473133 -110.768669 4.808081  0.730065 -0.539211 0.419829  0.000000 0.000000 1 0 1.000000
0  -36.402218 -113.315735 3.510256  0.464324 -0.530056 0.709538  0.000000 0.000000 1 0 1.000000
  phy
0  -39.473133 -110.768669 4.808081  0.730065 -0.539211 0.419829  0.000000 0.000000 1 0 1.000000
0  -36.708103 -114.017174 4.917924  0.633052 -0.643357 0.430509  0.000000 0.000000 1 0 1.000000
0  -40.056190 -111.966431 7.532976  0.769477 -0.539344 0.342071  0.000000 0.000000 1 0 1.000000
  phy
0  -36.708103 -114.017174 4.917924  0.633052 -0.643357 0.430509  0.000000 0.000000 1 0 1.000000
0  -33.980007 -115.922340 4.438068  0.522131 -0.688010 0.504006  0.000000 0.000000 1 0 1.000000
0  -34.276165 -117.555450 7.340903  0.552533 -0.737434 0.388456  0.000000 0.000000 1 0 1.000000
  phy
0  -36.402218 -113.315735 3.510256  0.464324 -0.530056 0.709538  0.000000 0.000000 1 0 1.000000
0  -33.980007 -115.922340 4.438068  0.522131 -0.688010 0.504006  0.000000 0.000000 1 0 1.000000
0  -36.708103 -114.017174 4.917924  0.633052 -0.643357 0.430509  0.000000 0.000000 1 0 1.000000
  phy
0  -34.342014 -119.461372 11.738184  0.559157 -0.766484 0.315983  0.000000 0.000000 1 0 1.000000
0  -34.341297 -119.598869 12.464535  0.499310 -0.866268 0.016423  0.000000 0.000000 1 0 1.000000
0  -37.480156 -117.186302 12.305445  0.665623 -0.696488 0.268049  0.000000 0.000000 1 0 1.000000
  phy
0  -34.276165 -117.555450 7.340903  0.552533 -0.737434 0.388456  0.000000 0.000000 1 0 1.000000
0  -17.549927 -128.357208 4.539363  0.187077 -0.968318 0.165419  0.000000 0.000000 1 0 1.000000
0  -34.342014 -119.461372 11.738184  0.559157 -0.766484 0.315983  0.000000 0.000000 1 0 1.000000
  phy
0  -34.342014 -119.461372 11.738184  0.559157 -0.766484 0.315983  0.000000 0.000000 1 0 1.000000
0  -17.549927 -128.357208 4.539363  0.187077 -0.968318 0.165419  0.000000 0.000000 1 0 1.000000
0  -34.341297 -119.598869 12.464535  0.499310 -0.866268 0.016423  0.000000 0.000000 1 0 1.000000
  phy
0  37.106289 -112.684357 4.188409  -0.792187 -0.480408 0.376363  0.000000 0.000000 1 0 1.000000
0  36.552597 -112.255798 2.615117  -0.647855 -0.433640 0.626291  0.000000 0.000000 1 0 1.000000
0  44.521702 -98.267464 2.265642  -0.821727 -0.210812 0.529456  0.000000 0.000000 1 0 1.000000
  phy
0  44.521702 -98.267464 2.265642  -0.821727 -0.210812 0.529456  0.000000 0.000000 1 0 1.000000
0  45.415413 -98.395508 4.336006  -0.856097 -0.385018 0.344760  0.000000 0.000000 1 0 1.000000
0  37.106289 -112.684357 4.188409  -0.792187 -0.480408 0.376363  0.000000 0.000000 1 0 1.000000
  phy
0  44.521702 -98.267464 2.265642  -0.821727 -0.210812 0.529456  0.000000 0.000000 1 0 1.000000
0  43.077396 -97.838158 0.843733  -0.021520 0.018598 0.999595  0.000000 0.000000 1 0 1.000000
0  48.223476 -96.242317 16.165630  -0.508337 0.815597 -0.276394  0.000000 0.000000 1 0 1.000000
  phy
0  44.521702 -98.267464 2.265642  -0.821727 -0.210812 0.529456  0.000000 0.000000 1 0 1.000000
0  48.223476 -96.242317 16.165630  -0.508337 0.815597 -0.276394  0.000000 0.000000 1 0 1.000000
0  45.415413 -98.395508 4.336006  -0.856097 -0.385018 0.344760  0.000000 0.000000 1 0 1.000000
  phy
0  44.521702 -98.267464 2.265642  -0.821727 -0.210812 0.529456  0.000000 0.000000 1 0 1.000000
0  36.552597 -112.255798 2.615117  -0.647855 -0.433640 0.626291  0.000000 0.000000 1 0 1.000000
0  43.077396 -97.838158 0.843733  -0.021520 0.018598 0.999595  0.000000 0.000000 1 0 1.000000
  phy
0  37.106289 -112.684357 4.188409  -0.792187 -0.480408 0.376363  0.000000 0.000000 1 0 1.000000
0  45.415413 -98.395508 4.336006  -0.856097 -0.385018 0.344760  0.000000 0.000000 1 0 1.000000
0  38.066353 -113.254128 7.071144  -0.821991 -0.492441 0.286063  0.000000 0.000000 1 0 1.000000
  phy
0  37.106289 -112.684357 4.188409  -0.792187 -0.480408 0.376363  0.000000 0.000000 1 0 1.000000
0  33.891624 -118.689346 6.321476  -0.609297 -0.676767 0.413211  0.000000 0.000000 1 0 1.000000
0  36.552597 -112.255798 2.615117  -0.647855 -0.433640 0.626291  0.000000 0.000000 1 0 1.000000
  phy
0  38.066353 -113.254128 7.071144  -0.821991 -0.492441 0.286063  0.000000 0.000000 1 0 1.000000
0  33.891624 -118.689346 6.321476  -0.609297 -0.676767 0.413211  0.000000 0.000000 1 0 1.000000
0  37.106289 -112.684357 4.188409  -0.792187 -0.480408 0.376363  0.000000 0.000000 1 0 1.000000
  phy
0  44.675648 -103.703445 12.437544  -0.875262 -0.462554 0.141279  0.000000 0.000000 1 0 1.000000
0  38.823120 -114.208435 11.841845  -0.848632 -0.486297 0.208180  0.000000 0.000000 1 0 1.000000
0  46.379375 -98.458679 7.318652  -0.876799 -0.432908 0.209320  0.000000 0.000000 1 0 1.000000
  phy
0  44.675648 -103.703445 12.437544  -0.875262 -0.462554 0.141279  0.000000 0.000000 1 0 1.000000
0  38.885265 -114.246277 12.578260  -0.863166 -0.504638 -0.016874  0.000000 0.000000 1 0 1.000000
0  38.823120 -114.208435 11.841845  -0.848632 -0.486297 0.208180  0.000000 0.000000 1 0 1.000000
  phy
0  38.823120 -114.208435 11.841845  -0.848632 -0.486297 0.208180  0.000000 0.000000 1 0 1.000000
0  38.066353 -113.254128 7.071144  -0.821991 -0.492441 0.286063  0.000000 0.000000 1 0 1.000000
0  46.379375 -98.458679 7.318652  -0.876799 -0.432908 0.209320  0.000000 0.000000 1 0 1.000000
  phy
0  38.066353 -113.254128 7.071144  -0.821991 -0.492441 0.286063  0.000000 0.000000 1 0 1.000000
0  45.415413 -98.395508 4.336006  -0.856097 -0.385018 0.344760  0.000000 0.000000 1 0 1.000000
0  46.379375 -98.458679 7.318652  -0.876799 -0.432908 0.209320  0.000000 0.000000 1 0 1.000000
  phy
0  45.415413 -98.395508 4.336006  -0.856097 -0.385018 0.344760  0.000000 0.000000 1 0 1.000000
0  48.223476 -96.242317 16.165630  -0.508337 0.815597 -0.276394  0.000000 0.000000 1 0 1.000000
0  46.379375 -98.458679 7.318652  -0.876799 -0.432908 0.209320  0.000000 0.000000 1 0 1.000000
  phy
0  -41.216038 -106.943687 3.873087  0.815828 -0.417710 0.399929  0.000000 0.000000 1 0 1.000000
0  -44.963032 -98.207954 2.919754  0.791382 -0.021426 0.610946  0.000000 0.000000 1 0 1.000000
0  -39.110569 -109.988083 3.332175  0.593512 -0.368328 0.715596  0.000000 0.000000 1 0 1.000000
  phy
0  -39.110569 -109.988083 3.332175  0.593512 -0.368328 0.715596  0.000000 0.000000 1 0 1.000000
0  -44.963032 -98.207954 2.919754  0.791382 -0.021426 0.610946  0.000000 0.000000 1 0 1.000000
0  -43.455711 -98.009071 1.512162  0.029460 0.009168 0.999524  0.000000 0.000000 1 0 1.000000
  phy
0  -44.963032 -98.207954 2.919754  0.791382 -0.021426 0.610946  0.000000 0.000000 1 0 1.000000
0  -45.913952 -98.093719 4.964922  0.894732 -0.298879 0.331853  0.000000 0.000000 1 0 1.000000
0  -48.835766 -94.747017 16.485050  0.396706 0.772987 -0.495092  0.000000 0.000000 1 0 1.000000
  phy
0  -44.963032 -98.207954 2.919754  0.791382 -0.021426 0.610946  0.000000 0.000000 1 0 1.000000
0  -48.835766 -94.747017 16.485050  0.396706 0.772987 -0.495092  0.000000 0.000000 1 0 1.000000
0  -43.455711 -98.009071 1.512162  0.029460 0.009168 0.999524  0.000000 0.000000 1 0 1.000000
  phy
0  -44.963032 -98.207954 2.919754  0.791382 -0.021426 0.610946  0.000000 0.000000 1 0 1.000000
0  -41.216038 -106.943687 3.873087  0.815828 -0.417710 0.399929  0.000000 0.000000 1 0 1.000000
0  -45.913952 -98.093719 4.964922  0.894732 -0.298879 0.331853  0.000000 0.000000 1 0 1.000000
  phy
0  -41.216038 -106.943687 3.873087  0.815828 -0.417710 0.399929  0.000000 0.000000 1 0 1.000000
0  -41.829857 -107.122108 5.666152  0.854271 -0.416714 0.310758  0.000000 0.000000 1 0 1.000000
0  -45.913952 -98.093719 4.964922  0.894732 -0.298879 0.331853  0.000000 0.000000 1 0 1.000000
  phy
0  -41.829857 -107.122108 5.666152  0.854271 -0.416714 0.310758  0.000000 0.000000 1 0 1.000000
0  -42.735394 -107.290710 8.568468  0.877048 -0.418802 0.235356  0.000000 0.000000 1 0 1.000000
0  -45.913952 -98.093719 4.964922  0.894732 -0.298879 0.331853  0.000000 0.000000 1 0 1.000000
  phy
0  -41.829857 -107.122108 5.666152  0.854271 -0.416714 0.310758  0.000000 0.000000 1 0 1.000000
0  -41.216038 -106.943687 3.873087  0.815828 -0.417710 0.399929  0.000000 0.000000 1 0 1.000000
0  -40.056190 -111.966431 7.532976  0.769477 -0.539344 0.342071  0.000000 0.000000 1 0 1.000000
  phy
0  -45.913952 -98.093719 4.964922  0.894732 -0.298879 0.331853  0.000000 0.000000 1 0 1.000000
0  -46.952473 -97.833008 7.911738  0.919475 -0.347832 0.183245  0.000000 0.000000 1 0 1.000000
0  -48.835766 -94.747017 16.485050  0.396706 0.772987 -0.495092  0.000000 0.000000 1 0 1.000000
  phy
0  -46.952473 -97.833008 7.911738  0.919475 -0.347832 0.183245  0.000000 0.000000 1 0 1.000000
0  -48.138828 -96.233101 13.975457  0.942120 -0.322759 0.090754  0.000000 0.000000 1 0 1.000000
0  -48.835766 -94.747017 16.485050  0.396706 0.772987 -0.495092  0.000000 0.000000 1 0 1.000000
  phy
0  -46.952473 -97.833008 7.911738  0.919475 -0.347832 0.183245  0.000000 0.000000 1 0 1.000000
0  -46.516003 -101.000565 14.638905  0.935840 -0.346341 0.065198  0.000000 0.000000 1 0 1.000000
0  -48.138828 -96.233101 13.975457  0.942120 -0.322759 0.090754  0.000000 0.000000 1 0 1.000000
  phy
0  -46.516003 -101.000565 14.638905  0.935840 -0.346341 0.065198  0.000000 0.000000 1 0 1.000000
0  -46.952473 -97.833008 7.911738  0.919475 -0.347832 0.183245  0.000000 0.000000 1 0 1.000000
0  -45.782143 -102.739555 13.495783  0.922151 -0.375383 0.093412  0.000000 0.000000 1 0 1.000000
  phy
0  -42.735394 -107.290710 8.568468  0.877048 -0.418802 0.235356  0.000000 0.000000 1 0 1.000000
0  -46.952473 -97.833008 7.911738  0.919475 -0.347832 0.183245  0.000000 0.000000 1 0 1.000000
0  -45.913952 -98.093719 4.964922  0.894732 -0.298879 0.331853  0.000000 0.000000 1 0 1.000000
  phy
0  -39.473133 -110.768669 4.808081  0.730065 -0.539211 0.419829  0.000000 0.000000 1 0 1.000000
0  -41.216038 -106.943687 3.873087  0.815828 -0.417710 0.399929  0.000000 0.000000 1 0 1.000000
0  -39.110569 -109.988083 3.332175  0.593512 -0.368328 0.715596  0.000000 0.000000 1 0 1.000000
  phy
0  -41.216038 -106.943687 3.873087  0.815828 -0.417710 0.399929  0.000000 0.000000 1 0 1.000000
0  -39.473133 -110.768669 4.808081  0.730065 -0.539211 0.419829  0.000000 0.000000 1 0 1.000000
0  -40.056190 -111.966431 7.532976  0.769477 -0.539344 0.342071  0.000000 0.000000 1 0 1.000000
  phy
0  -36.402218 -113.315735 3.510256  0.464324 -0.530056 0.709538  0.000000 0.000000 1 0 1.000000
0  -39.473133 -110.768669 4.808081  0.730065 -0.539211 0.419829  0.000000 0.000000 1 0 1.000000
0  -39.110569 -109.988083 3.332175  0.593512 -0.368328 0.715596  0.000000 0.000000 1 0 1.000000
  phy
0  -46.516003 -101.000565 14.638905  0.935840 -0.346341 0.065198  0.000000 0.000000 1 0 1.000000
0  -43.960876 -107.229111 16.348175  0.907744 -0.419466 -0.007033  0.000000 0.000000 1 0 1.000000
0  -47.307465 -99.148041 16.671740  0.931496 -0.363710 0.005431  0.000000 0.000000 1 0 1.000000
  phy
0  -43.960876 -107.229111 16.348175  0.907744 -0.419466 -0.007033  0.000000 0.000000 1 0 1.000000
0  -46.516003 -101.000565 14.638905  0.935840 -0.346341 0.065198  0.000000 0.000000 1 0 1.000000
0  -45.782143 -102.739555 13.495783  0.922151 -0.375383 0.093412  0.000000 0.000000 1 0 1.000000
  phy
0  -47.307465 -99.148041 16.671740  0.931496 -0.363710 0.005431  0.000000 0.000000 1 0 1.000000
0  -43.960876 -107.229111 16.348175  0.907744 -0.419466 -0.007033  0.000000 0.000000 1 0 1.000000
0  -47.391258 -98.819580 18.722904  0.836924 -0.257677 -0.482867  0.000000 0.000000 1 0 1.000000
  phy
0  -37.323822 -117.076813 16.264530  0.537840 -0.804537 -0.251889  0.000000 0.000000 1 0 1.000000
0  -17.778549 -125.866989 29.401716  0.187201 -0.532689 -0.825347  0.000000 0.000000 1 0 1.000000
0  -37.237080 -116.927979 16.789715  0.593534 -0.719886 -0.359836  0.000000 0.000000 1 0 1.000000
  phy
0  -37.237080 -116.927979 16.789715  0.593534 -0.719886 -0.359836  0.000000 0.000000 1 0 1.000000
0  -17.778549 -125.866989 29.401716  0.187201 -0.532689 -0.825347  0.000000 0.000000 1 0 1.000000
0  -35.203609 -112.231361 29.451008  0.615766 -0.397581 -0.680266  0.000000 0.000000 1 0 1.000000
  phy
0  -33.980007 -115.922340 4.438068  0.522131 -0.688010 0.504006  0.000000 0.000000 1 0 1.000000
0  -17.549927 -128.357208 4.539363  0.187077 -0.968318 0.165419  0.000000 0.000000 1 0 1.000000
0  -34.276165 -117.555450 7.340903  0.552533 -0.737434 0.388456  0.000000 0.000000 1 0 1.000000
  phy
0  39.131557 -113.650719 15.040142  -0.853494 -0.517824 -0.058367  0.000000 0.000000 1 0 1.000000
0  46.405876 -100.375725 18.001493  -0.852594 -0.426388 -0.302119  0.000000 0.000000 1 0 1.000000
0  39.094193 -113.552505 15.682237  -0.783831 -0.539990 -0.306626  0.000000 0.000000 1 0 1.000000
  phy
0  38.885265 -114.246277 12.578260  -0.863166 -0.504638 -0.016874  0.000000 0.000000 1 0 1.000000
0  46.405876 -100.375725 18.001493  -0.852594 -0.426388 -0.302119  0.000000 0.000000 1 0 1.000000
0  39.131557 -113.650719 15.040142  -0.853494 -0.517824 -0.058367  0.000000 0.000000 1 0 1.000000
  phy
0  39.094193 -113.552505 15.682237  -0.783831 -0.539990 -0.306626  0.000000 0.000000 1 0 1.000000
0  34.663498 -120.221779 13.600461  -0.669894 -0.733194 -0.116915  0.000000 0.000000 1 0 1.000000
0  39.131557 -113.650719 15.040142  -0.853494 -0.517824 -0.058367  0.000000 0.000000 1 0 1.000000
  phy
0  39.131557 -113.650719 15.040142  -0.853494 -0.517824 -0.058367  0.000000 0.000000 1 0 1.000000
0  34.663498 -120.221779 13.600461  -0.669894 -0.733194 -0.116915  0.000000 0.000000 1 0 1.000000
0  38.885265 -114.246277 12.578260  -0.863166 -0.504638 -0.016874  0.000000 0.000000 1 0 1.000000
  phy
0  34.651508 -119.993256 14.646940  -0.625538 -0.720896 -0.298346  0.000000 0.000000 1 0 1.000000
0  17.808399 -130.445526 18.310240  -0.133454 -0.990485 -0.033609  0.000000 0.000000 1 0 1.000000
0  34.663498 -120.221779 13.600461  -0.669894 -0.733194 -0.116915  0.000000 0.000000 1 0 1.000000
  phy
0  18.767851 -127.186783 28.541964  -0.190037 -0.718437 -0.669130  0.000000 0.000000 1 0 1.000000
0  17.808399 -130.445526 18.310240  -0.133454 -0.990485 -0.033609  0.000000 0.000000 1 0 1.000000
0  34.651508 -119.993256 14.646940  -0.625538 -0.720896 -0.298346  0.000000 0.000000 1 0 1.000000
  phy
0  34.651508 -119.993256 14.646940  -0.625538 -0.720896 -0.298346  0.000000 0.000000 1 0 1.000000
0  34.444073 -114.031738 25.700768  -0.669439 -0.635939 -0.383970  0.000000 0.000000 1 0 1.000000
0  18.767851 -127.186783 28.541964  -0.190037 -0.718437 -0.669130  0.000000 0.000000 1 0 1.000000
  phy
0  34.651508 -119.993256 14.646940  -0.625538 -0.720896 -0.298346  0.000000 0.000000 1 0 1.000000
0  34.663498 -120.221779 13.600461  -0.669894 -0.733194 -0.116915  0.000000 0.000000 1 0 1.000000
0  39.094193 -113.552505 15.682237  -0.783831 -0.539990 -0.306626  0.000000 0.000000 1 0 1.000000
  phy
0  39.094193 -113.552505 15.682237  -0.783831 -0.539990 -0.306626  0.000000 0.000000 1 0 1.000000
0  34.444073 -114.031738 25.700768  -0.669439 -0.635939 -0.383970  0.000000 0.000000 1 0 1.000000
0  34.651508 -119.993256 14.646940  -0.625538 -0.720896 -0.298346  0.000000 0.000000 1 0 1.000000
  phy
0  33.198479 -117.174675 3.428156  -0.524355 -0.654592 0.544574  0.000000 0.000000 1 0 1.000000
0  32.828617 -116.270866 2.202486  -0.401864 -0.452592 0.796031  0.000000 0.000000 1 0 1.000000
0  36.552597 -112.255798 2.615117  -0.647855 -0.433640 0.626291  0.000000 0.000000 1 0 1.000000
  phy
0  36.552597 -112.255798 2.615117  -0.647855 -0.433640 0.626291  0.000000 0.000000 1 0 1.000000
0  32.828617 -116.270866 2.202486  -0.401864 -0.452592 0.796031  0.000000 0.000000 1 0 1.000000
0  35.376411 -111.551582 1.689203  -0.361879 -0.267083 0.893146  0.000000 0.000000 1 0 1.000000
  phy
0  43.077396 -97.838158 0.843733  -0.021520 0.018598 0.999595  0.000000 0.000000 1 0 1.000000
0  36.552597 -112.255798 2.615117  -0.647855 -0.433640 0.626291  0.000000 0.000000 1 0 1.000000
0  35.376411 -111.551582 1.689203  -0.361879 -0.267083 0.893146  0.000000 0.000000 1 0 1.000000
  phy
0  36.552597 -112.255798 2.615117  -0.647855 -0.433640 0.626291  0.000000 0.000000 1 0 1.000000
0  33.891624 -118.689346 6.321476  -0.609297 -0.676767 0.413211  0.000000 0.000000 1 0 1.000000
0  33.198479 -117.174675 3.428156  -0.524355 -0.654592 0.544574  0.000000 0.000000 1 0 1.000000
  phy
0  38.885265 -114.246277 12.578260  -0.863166 -0.504638 -0.016874  0.000000 0.000000 1 0 1.000000
0  34.534557 -120.616394 11.457794  -0.514240 -0.854806 0.069749  0.000000 0.000000 1 0 1.000000
0  38.823120 -114.208435 11.841845  -0.848632 -0.486297 0.208180  0.000000 0.000000 1 0 1.000000
  phy
0  38.823120 -114.208435 11.841845  -0.848632 -0.486297 0.208180  0.000000 0.000000 1 0 1.000000
0  34.534557 -120.616394 11.457794  -0.514240 -0.854806 0.069749  0.000000 0.000000 1 0 1.000000
0  34.477428 -120.495171 10.729752  -0.651564 -0.685427 0.325045  0.000000 0.000000 1 0 1.000000
  phy
0  38.823120 -114.208435 11.841845  -0.848632 -0.486297 0.208180  0.000000 0.000000 1 0 1.000000
0  34.477428 -120.495171 10.729752  -0.651564 -0.685427 0.325045  0.000000 0.000000 1 0 1.000000
0  38.066353 -113.254128 7.071144  -0.821991 -0.492441 0.286063  0.000000 0.000000 1 0 1.000000
  phy
0  -48.138828 -96.233101 13.975457  0.942120 -0.322759 0.090754  0.000000 0.000000 1 0 1.000000
0  -46.516003 -101.000565 14.638905  0.935840 -0.346341 0.065198  0.000000 0.000000 1 0 1.000000
0  -48.835766 -94.747017 16.485050  0.396706 0.772987 -0.495092  0.000000 0.000000 1 0 1.000000
  phy
0  -46.516003 -101.000565 14.638905  0.935840 -0.346341 0.065198  0.000000 0.000000 1 0 1.000000
0  -47.307465 -99.148041 16.671740  0.931496 -0.363710 0.005431  0.000000 0.000000 1 0 1.000000
0  -48.835766 -94.747017 16.485050  0.396706 0.772987 -0.495092  0.000000 0.000000 1 0 1.000000
  phy
0  -35.372292 -112.409424 2.696873  0.291289 -0.333795 0.896511  0.000000 0.000000 1 0 1.000000
0  -36.402218 -113.315735 3.510256  0.464324 -0.530056 0.709538  0.000000 0.000000 1 0 1.000000
0  -38.068703 -109.043983 2.461271  0.194567 -0.190865 0.962141  0.000000 0.000000 1 0 1.000000
  phy
0  -38.068703 -109.043983 2.461271  0.194567 -0.190865 0.962141  0.000000 0.000000 1 0 1.000000
0  -36.402218 -113.315735 3.510256  0.464324 -0.530056 0.709538  0.000000 0.000000 1 0 1.000000
0  -39.110569 -109.988083 3.332175  0.593512 -0.368328 0.715596  0.000000 0.000000 1 0 1.000000
  phy
0  -36.402218 -113.315735 3.510256  0.464324 -0.530056 0.709538  0.000000 0.000000 1 0 1.000000
0  -35.372292 -112.409424 2.696873  0.291289 -0.333795 0.896511  0.000000 0.000000 1 0 1.000000
0  -17.839674 -126.321220 2.323051  0.077591 -0.215787 0.973353  0.000000 0.000000 1 0 1.000000
  phy
0  -36.402218 -113.315735 3.510256  0.464324 -0.530056 0.709538  0.000000 0.000000 1 0 1.000000
0  -17.839674 -126.321220 2.323051  0.077591 -0.215787 0.973353  0.000000 0.000000 1 0 1.000000
0  -33.980007 -115.922340 4.438068  0.522131 -0.688010 0.504006  0.000000 0.000000 1 0 1.000000
  phy
0  -35.372292 -112.409424 2.696873  0.291289 -0.333795 0.896511  0.000000 0.000000 1 0 1.000000
0  -38.068703 -109.043983 2.461271  0.194567 -0.190865 0.962141  0.000000 0.000000 1 0 1.000000
0  -17.839674 -126.321220 2.323051  0.077591 -0.215787 0.973353  0.000000 0.000000 1 0 1.000000
  phy
0  -38.068703 -109.043983 2.461271  0.194567 -0.190865 0.962141  0.000000 0.000000 1 0 1.000000
0  -39.110569 -109.988083 3.332175  0.593512 -0.368328 0.715596  0.000000 0.000000 1 0 1.000000
0  -43.455711 -98.009071 1.512162  0.029460 0.009168 0.999524  0.000000 0.000000 1 0 1.000000
  phy
0  -17.839674 -126.321220 2.323051  0.077591 -0.215787 0.973353  0.000000 0.000000 1 0 1.000000
0  -38.068703 -109.043983 2.461271  0.194567 -0.190865 0.962141  0.000000 0.000000 1 0 1.000000
0  -43.455711 -98.009071 1.512162  0.029460 0.009168 0.999524  0.000000 0.000000 1 0 1.000000
  phy
0  -37.467251 -117.158798 15.521003  0.566327 -0.814920 -0.123204  0.000000 0.000000 1 0 1.000000
0  -17.350012 -129.349182 19.193180  0.196730 -0.969355 -0.147131  0.000000 0.000000 1 0 1.000000
0  -37.323822 -117.076813 16.264530  0.537840 -0.804537 -0.251889  0.000000 0.000000 1 0 1.000000
  phy
0  -17.350012 -129.349182 19.193180  0.196730 -0.969355 -0.147131  0.000000 0.000000 1 0 1.000000
0  -17.778549 -125.866989 29.401716  0.187201 -0.532689 -0.825347  0.000000 0.000000 1 0 1.000000
0  -37.323822 -117.076813 16.264530  0.537840 -0.804537 -0.251889  0.000000 0.000000 1 0 1.000000
  phy
0  -34.341297 -119.598869 12.464535  0.499310 -0.866268 0.016423  0.000000 0.000000 1 0 1.000000
0  -17.350012 -129.349182 19.193180  0.196730 -0.969355 -0.147131  0.000000 0.000000 1 0 1.000000
0  -37.467251 -117.158798 15.521003  0.566327 -0.814920 -0.123204  0.000000 0.000000 1 0 1.000000
  phy
0  -34.341297 -119.598869 12.464535  0.499310 -0.866268 0.016423  0.000000 0.000000 1 0 1.000000
0  -17.549927 -128.357208 4.539363  0.187077 -0.968318 0.165419  0.000000 0.000000 1 0 1.000000
0  -17.350012 -129.349182 19.193180  0.196730 -0.969355 -0.147131  0.000000 0.000000 1 0 1.000000
  phy
0  46.366291 -100.513222 15.943696  -0.887377 -0.461030 -0.003771  0.000000 0.000000 1 0 1.000000
0  46.405876 -100.375725 18.001493  -0.852594 -0.426388 -0.302119  0.000000 0.000000 1 0 1.000000
0  38.885265 -114.246277 12.578260  -0.863166 -0.504638 -0.016874  0.000000 0.000000 1 0 1.000000
  phy
0  46.366291 -100.513222 15.943696  -0.887377 -0.461030 -0.003771  0.000000 0.000000 1 0 1.000000
0  48.223476 -96.242317 16.165630  -0.508337 0.815597 -0.276394  0.000000 0.000000 1 0 1.000000
0  46.405876 -100.375725 18.001493  -0.852594 -0.426388 -0.302119  0.000000 0.000000 1 0 1.000000
  phy
0  39.094193 -113.552505 15.682237  -0.783831 -0.539990 -0.306626  0.000000 0.000000 1 0 1.000000
0  46.405876 -100.375725 18.001493  -0.852594 -0.426388 -0.302119  0.000000 0.000000 1 0 1.000000
0  41.503155 -107.803795 19.027124  -0.797152 -0.501474 -0.336264  0.000000 0.000000 1 0 1.000000
  phy
0  41.503155 -107.803795 19.027124  -0.797152 -0.501474 -0.336264  0.000000 0.000000 1 0 1.000000
0  35.421818 -111.002884 28.192251  -0.260270 0.203076 -0.943939  0.000000 0.000000 1 0 1.000000
0  39.094193 -113.552505 15.682237  -0.783831 -0.539990 -0.306626  0.000000 0.000000 1 0 1.000000
  phy
0  39.094193 -113.552505 15.682237  -0.783831 -0.539990 -0.306626  0.000000 0.000000 1 0 1.000000
0  35.421818 -111.002884 28.192251  -0.260270 0.203076 -0.943939  0.000000 0.000000 1 0 1.000000
0  34.444073 -114.031738 25.700768  -0.669439 -0.635939 -0.383970  0.000000 0.000000 1 0 1.000000
  phy
0  33.891624 -118.689346 6.321476  -0.609297 -0.676767 0.413211  0.000000 0.000000 1 0 1.000000
0  17.168365 -129.162338 3.690367  -0.203259 -0.938809 0.278072  0.000000 0.000000 1 0 1.000000
0  33.198479 -117.174675 3.428156  -0.524355 -0.654592 0.544574  0.000000 0.000000 1 0 1.000000
  phy
0  33.198479 -117.174675 3.428156  -0.524355 -0.654592 0.544574  0.000000 0.000000 1 0 1.000000
0  17.309517 -127.078400 1.504337  -0.002663 -0.063679 0.997967  0.000000 0.000000 1 0 1.000000
0  32.828617 -116.270866 2.202486  -0.401864 -0.452592 0.796031  0.000000 0.000000 1 0 1.000000
  phy
0  17.168365 -129.162338 3.690367  -0.203259 -0.938809 0.278072  0.000000 0.000000 1 0 1.000000
0  17.309517 -127.078400 1.504337  -0.002663 -0.063679 0.997967  0.000000 0.000000 1 0 1.000000
0  33.198479 -117.174675 3.428156  -0.524355 -0.654592 0.544574  0.000000 0.000000 1 0 1.000000
  phy
0  31.841990 -115.159401 1.574352  -0.137953 -0.148810 0.979196  0.000000 0.000000 1 0 1.000000
0  43.077396 -97.838158 0.843733  -0.021520 0.018598 0.999595  0.000000 0.000000 1 0 1.000000
0  35.376411 -111.551582 1.689203  -0.361879 -0.267083 0.893146  0.000000 0.000000 1 0 1.000000
  phy
0  43.077396 -97.838158 0.843733  -0.021520 0.018598 0.999595  0.000000 0.000000 1 0 1.000000
0  31.841990 -115.159401 1.574352  -0.137953 -0.148810 0.979196  0.000000 0.000000 1 0 1.000000
0  17.309517 -127.078400 1.504337  -0.002663 -0.063679 0.997967  0.000000 0.000000 1 0 1.000000
  phy
0  32.828617 -116.270866 2.202486  -0.401864 -0.452592 0.796031  0.000000 0.000000 1 0 1.000000
0  31.841990 -115.159401 1.574352  -0.137953 -0.148810 0.979196  0.000000 0.000000 1 0 1.000000
0  35.376411 -111.551582 1.689203  -0.361879 -0.267083 0.893146  0.000000 0.000000 1 0 1.000000
  phy
0  31.841990 -115.159401 1.574352  -0.137953 -0.148810 0.979196  0.000000 0.000000 1 0 1.000000
0  32.828617 -116.270866 2.202486  -0.401864 -0.452592 0.796031  0.000000 0.000000 1 0 1.000000
0  17.309517 -127.078400 1.504337  -0.002663 -0.063679 0.997967  0.000000 0.000000 1 0 1.000000
  phy
0  43.077396 -97.838158 0.843733  -0.021520 0.018598 0.999595  0.000000 0.000000 1 0 1.000000
0  -43.455711 -98.009071 1.512162  0.029460 0.009168 0.999524  0.000000 0.000000 1 0 1.000000
0  37.397198 -95.970108 1.183174  -0.021103 0.967939 0.250296  0.000000 0.000000 1 0 1.000000
  phy
0  -43.455711 -98.009071 1.512162  0.029460 0.009168 0.999524  0.000000 0.000000 1 0 1.000000
0  43.077396 -97.838158 0.843733  -0.021520 0.018598 0.999595  0.000000 0.000000 1 0 1.000000
0  17.309517 -127.078400 1.504337  -0.002663 -0.063679 0.997967  0.000000 0.000000 1 0 1.000000
  phy
0  43.077396 -97.838158 0.843733  -0.021520 0.018598 0.999595  0.000000 0.000000 1 0 1.000000
0  37.397198 -95.970108 1.183174  -0.021103 0.967939 0.250296  0.000000 0.000000 1 0 1.000000
0  48.223476 -96.242317 16.165630  -0.508337 0.815597 -0.276394  0.000000 0.000000 1 0 1.000000
  phy
0  34.477428 -120.495171 10.729752  -0.651564 -0.685427 0.325045  0.000000 0.000000 1 0 1.000000
0  33.891624 -118.689346 6.321476  -0.609297 -0.676767 0.413211  0.000000 0.000000 1 0 1.000000
0  38.066353 -113.254128 7.071144  -0.821991 -0.492441 0.286063  0.000000 0.000000 1 0 1.000000
  phy
0  -48.835766 -94.747017 16.485050  0.396706 0.772987 -0.495092  0.000000 0.000000 1 0 1.000000
0  -47.307465 -99.148041 16.671740  0.931496 -0.363710 0.005431  0.000000 0.000000 1 0 1.000000
0  -47.391258 -98.819580 18.722904  0.836924 -0.257677 -0.482867  0.000000 0.000000 1 0 1.000000
  phy
0  5.533215 -110.545647 31.011454  -0.088973 -0.070047 -0.993568  0.000000 0.000000 1 0 1.000000
0  18.767851 -127.186783 28.541964  -0.190037 -0.718437 -0.669130  0.000000 0.000000 1 0 1.000000
0  18.957096 -125.706367 28.667046  -0.092585 -0.073691 -0.992974  0.000000 0.000000 1 0 1.000000
  phy
0  5.533215 -110.545647 31.011454  -0.088973 -0.070047 -0.993568  0.000000 0.000000 1 0 1.000000
0  1.021950 -109.815201 31.391964  -0.025351 0.454770 -0.890248  0.000000 0.000000 1 0 1.000000
0  18.767851 -127.186783 28.541964  -0.190037 -0.718437 -0.669130  0.000000 0.000000 1 0 1.000000
  phy
0  18.957096 -125.706367 28.667046  -0.092585 -0.073691 -0.992974  0.000000 0.000000 1 0 1.000000
0  35.421818 -111.002884 28.192251  -0.260270 0.203076 -0.943939  0.000000 0.000000 1 0 1.000000
0  5.533215 -110.545647 31.011454  -0.088973 -0.070047 -0.993568  0.000000 0.000000 1 0 1.000000
  phy
0  18.767851 -127.186783 28.541964  -0.190037 -0.718437 -0.669130  0.000000 0.000000 1 0 1.000000
0  35.421818 -111.002884 28.192251  -0.260270 0.203076 -0.943939  0.000000 0.000000 1 0 1.000000
0  18.957096 -125.706367 28.667046  -0.092585 -0.073691 -0.992974  0.000000 0.000000 1 0 1.000000
  phy
0  34.663498 -120.221779 13.600461  -0.669894 -0.733194 -0.116915  0.000000 0.000000 1 0 1.000000
0  34.534557 -120.616394 11.457794  -0.514240 -0.854806 0.069749  0.000000 0.000000 1 0 1.000000
0  38.885265 -114.246277 12.578260  -0.863166 -0.504638 -0.016874  0.000000 0.000000 1 0 1.000000
  phy
0  46.405876 -100.375725 18.001493  -0.852594 -0.426388 -0.302119  0.000000 0.000000 1 0 1.000000
0  35.421818 -111.002884 28.192251  -0.260270 0.203076 -0.943939  0.000000 0.000000 1 0 1.000000
0  41.503155 -107.803795 19.027124  -0.797152 -0.501474 -0.336264  0.000000 0.000000 1 0 1.000000
  phy
0  -17.839674 -126.321220 2.323051  0.077591 -0.215787 0.973353  0.000000 0.000000 1 0 1.000000
0  -17.549927 -128.357208 4.539363  0.187077 -0.968318 0.165419  0.000000 0.000000 1 0 1.000000
0  -33.980007 -115.922340 4.438068  0.522131 -0.688010 0.504006  0.000000 0.000000 1 0 1.000000
  phy
0  -28.667755 -110.461067 30.798111  0.086379 0.287714 -0.953813  0.000000 0.000000 1 0 1.000000
0  1.021950 -109.815201 31.391964  -0.025351 0.454770 -0.890248  0.000000 0.000000 1 0 1.000000
0  -9.794180 -109.188126 30.597015  0.029137 0.625191 -0.779927  0.000000 0.000000 1 0 1.000000
  phy
0  -9.794180 -109.188126 30.597015  0.029137 0.625191 -0.779927  0.000000 0.000000 1 0 1.000000
0  -43.004887 -93.404869 16.590288  0.007228 0.937815 -0.347061  0.000000 0.000000 1 0 1.000000
0  -28.667755 -110.461067 30.798111  0.086379 0.287714 -0.953813  0.000000 0.000000 1 0 1.000000
  phy
0  1.021950 -109.815201 31.391964  -0.025351 0.454770 -0.890248  0.000000 0.000000 1 0 1.000000
0  -43.004887 -93.404869 16.590288  0.007228 0.937815 -0.347061  0.000000 0.000000 1 0 1.000000
0  -9.794180 -109.188126 30.597015  0.029137 0.625191 -0.779927  0.000000 0.000000 1 0 1.000000
  phy
0  -35.203609 -112.231361 29.451008  0.615766 -0.397581 -0.680266  0.000000 0.000000 1 0 1.000000
0  -28.667755 -110.461067 30.798111  0.086379 0.287714 -0.953813  0.000000 0.000000 1 0 1.000000
0  -48.835766 -94.747017 16.485050  0.396706 0.772987 -0.495092  0.000000 0.000000 1 0 1.000000
  phy
0  -48.835766 -94.747017 16.485050  0.396706 0.772987 -0.495092  0.000000 0.000000 1 0 1.000000
0  -47.391258 -98.819580 18.722904  0.836924 -0.257677 -0.482867  0.000000 0.000000 1 0 1.000000
0  -35.203609 -112.231361 29.451008  0.615766 -0.397581 -0.680266  0.000000 0.000000 1 0 1.000000
  phy
0  -35.203609 -112.231361 29.451008  0.615766 -0.397581 -0.680266  0.000000 0.000000 1 0 1.000000
0  -17.778549 -125.866989 29.401716  0.187201 -0.532689 -0.825347  0.000000 0.000000 1 0 1.000000
0  -28.667755 -110.461067 30.798111  0.086379 0.287714 -0.953813  0.000000 0.000000 1 0 1.000000
  phy
0  35.421818 -111.002884 28.192251  -0.260270 0.203076 -0.943939  0.000000 0.000000 1 0 1.000000
0  1.021950 -109.815201 31.391964  -0.025351 0.454770 -0.890248  0.000000 0.000000 1 0 1.000000
0  5.533215 -110.545647 31.011454  -0.088973 -0.070047 -0.993568  0.000000 0.000000 1 0 1.000000
  phy
0  46.405876 -100.375725 18.001493  -0.852594 -0.426388 -0.302119  0.000000 0.000000 1 0 1.000000
0  48.223476 -96.242317 16.165630  -0.508337 0.815597 -0.276394  0.000000 0.000000 1 0 1.000000
0  35.421818 -111.002884 28.192251  -0.260270 0.203076 -0.943939  0.000000 0.000000 1 0 1.000000
  phy
0  34.663498 -120.221779 13.600461  -0.669894 -0.733194 -0.116915  0.000000 0.000000 1 0 1.000000
0  17.808399 -130.445526 18.310240  -0.133454 -0.990485 -0.033609  0.000000 0.000000 1 0 1.000000
0  34.534557 -120.616394 11.457794  -0.514240 -0.854806 0.069749  0.000000 0.000000 1 0 1.000000
  phy
0  34.477428 -120.495171 10.729752  -0.651564 -0.685427 0.325045  0.000000 0.000000 1 0 1.000000
0  17.168365 -129.162338 3.690367  -0.203259 -0.938809 0.278072  0.000000 0.000000 1 0 1.000000
0  33.891624 -118.689346 6.321476  -0.609297 -0.676767 0.413211  0.000000 0.000000 1 0 1.000000
  phy
0  34.477428 -120.495171 10.729752  -0.651564 -0.685427 0.325045  0.000000 0.000000 1 0 1.000000
0  34.534557 -120.616394 11.457794  -0.514240 -0.854806 0.069749  0.000000 0.000000 1 0 1.000000
0  17.168365 -129.162338 3.690367  -0.203259 -0.938809 0.278072  0.000000 0.000000 1 0 1.000000
  phy
0  -48.835766 -94.747017 16.485050  0.396706 0.772987 -0.495092  0.000000 0.000000 1 0 1.000000
0  -37.657833 -96.547958 1.870955  0.038103 0.956030 0.290785  0.000000 0.000000 1 0 1.000000
0  -43.455711 -98.009071 1.512162  0.029460 0.009168 0.999524  0.000000 0.000000 1 0 1.000000
  phy
0  -37.657833 -96.547958 1.870955  0.038103 0.956030 0.290785  0.000000 0.000000 1 0 1.000000
0  -48.835766 -94.747017 16.485050  0.396706 0.772987 -0.495092  0.000000 0.000000 1 0 1.000000
0  -43.004887 -93.404869 16.590288  0.007228 0.937815 -0.347061  0.000000 0.000000 1 0 1.000000
  phy
0  -28.667755 -110.461067 30.798111  0.086379 0.287714 -0.953813  0.000000 0.000000 1 0 1.000000
0  -43.004887 -93.404869 16.590288  0.007228 0.937815 -0.347061  0.000000 0.000000 1 0 1.000000
0  -48.835766 -94.747017 16.485050  0.396706 0.772987 -0.495092  0.000000 0.000000 1 0 1.000000
  phy
0  -43.455711 -98.009071 1.512162  0.029460 0.009168 0.999524  0.000000 0.000000 1 0 1.000000
0  -37.657833 -96.547958 1.870955  0.038103 0.956030 0.290785  0.000000 0.000000 1 0 1.000000
0  37.397198 -95.970108 1.183174  -0.021103 0.967939 0.250296  0.000000 0.000000 1 0 1.000000
  phy
0  37.397198 -95.970108 1.183174  -0.021103 0.967939 0.250296  0.000000 0.000000 1 0 1.000000
0  -37.657833 -96.547958 1.870955  0.038103 0.956030 0.290785  0.000000 0.000000 1 0 1.000000
0  -43.004887 -93.404869 16.590288  0.007228 0.937815 -0.347061  0.000000 0.000000 1 0 1.000000
  phy
0  17.168365 -129.162338 3.690367  -0.203259 -0.938809 0.278072  0.000000 0.000000 1 0 1.000000
0  -17.549927 -128.357208 4.539363  0.187077 -0.968318 0.165419  0.000000 0.000000 1 0 1.000000
0  -17.839674 -126.321220 2.323051  0.077591 -0.215787 0.973353  0.000000 0.000000 1 0 1.000000
  phy
0  -17.839674 -126.321220 2.323051  0.077591 -0.215787 0.973353  0.000000 0.000000 1 0 1.000000
0  17.309517 -127.078400 1.504337  -0.002663 -0.063679 0.997967  0.000000 0.000000 1 0 1.000000
0  17.168365 -129.162338 3.690367  -0.203259 -0.938809 0.278072  0.000000 0.000000 1 0 1.000000
  phy
0  -17.839674 -126.321220 2.323051  0.077591 -0.215787 0.973353  0.000000 0.000000 1 0 1.000000
0  -43.455711 -98.009071 1.512162  0.029460 0.009168 0.999524  0.000000 0.000000 1 0 1.000000
0  17.309517 -127.078400 1.504337  -0.002663 -0.063679 0.997967  0.000000 0.000000 1 0 1.000000
  phy
0  -17.778549 -125.866989 29.401716  0.187201 -0.532689 -0.825347  0.000000 0.000000 1 0 1.000000
0  1.021950 -109.815201 31.391964  -0.025351 0.454770 -0.890248  0.000000 0.000000 1 0 1.000000
0  -28.667755 -110.461067 30.798111  0.086379 0.287714 -0.953813  0.000000 0.000000 1 0 1.000000
  phy
0  18.767851 -127.186783 28.541964  -0.190037 -0.718437 -0.669130  0.000000 0.000000 1 0 1.000000
0  -17.778549 -125.866989 29.401716  0.187201 -0.532689 -0.825347  0.000000 0.000000 1 0 1.000000
0  -17.350012 -129.349182 19.193180  0.196730 -0.969355 -0.147131  0.000000 0.000000 1 0 1.000000
  phy
0  -17.350012 -129.349182 19.193180  0.196730 -0.969355 -0.147131  0.000000 0.000000 1 0 1.000000
0  17.808399 -130.445526 18.310240  -0.133454 -0.990485 -0.033609  0.000000 0.000000 1 0 1.000000
0  18.767851 -127.186783 28.541964  -0.190037 -0.718437 -0.669130  0.000000 0.000000 1 0 1.000000
  phy
0  34.444073 -114.031738 25.700768  -0.669439 -0.635939 -0.383970  0.000000 0.000000 1 0 1.000000
0  35.421818 -111.002884 28.192251  -0.260270 0.203076 -0.943939  0.000000 0.000000 1 0 1.000000
0  18.767851 -127.186783 28.541964  -0.190037 -0.718437 -0.669130  0.000000 0.000000 1 0 1.000000
  phy
0  18.767851 -127.186783 28.541964  -0.190037 -0.718437 -0.669130  0.000000 0.000000 1 0 1.000000
0  1.021950 -109.815201 31.391964  -0.025351 0.454770 -0.890248  0.000000 0.000000 1 0 1.000000
0  -17.778549 -125.866989 29.401716  0.187201 -0.532689 -0.825347  0.000000 0.000000 1 0 1.000000
  phy
0  -17.549927 -128.357208 4.539363  0.187077 -0.968318 0.165419  0.000000 0.000000 1 0 1.000000
0  17.808399 -130.445526 18.310240  -0.133454 -0.990485 -0.033609  0.000000 0.000000 1 0 1.000000
0  -17.350012 -129.349182 19.193180  0.196730 -0.969355 -0.147131  0.000000 0.000000 1 0 1.000000
  phy
0  42.508492 -94.469269 16.241037  -0.042028 0.854144 -0.518335  0.000000 0.000000 1 0 1.000000
0  1.021950 -109.815201 31.391964  -0.025351 0.454770 -0.890248  0.000000 0.000000 1 0 1.000000
0  35.421818 -111.002884 28.192251  -0.260270 0.203076 -0.943939  0.000000 0.000000 1 0 1.000000
  phy
0  35.421818 -111.002884 28.192251  -0.260270 0.203076 -0.943939  0.000000 0.000000 1 0 1.000000
0  48.223476 -96.242317 16.165630  -0.508337 0.815597 -0.276394  0.000000 0.000000 1 0 1.000000
0  42.508492 -94.469269 16.241037  -0.042028 0.854144 -0.518335  0.000000 0.000000 1 0 1.000000
  phy
0  37.397198 -95.970108 1.183174  -0.021103 0.967939 0.250296  0.000000 0.000000 1 0 1.000000
0  42.508492 -94.469269 16.241037  -0.042028 0.854144 -0.518335  0.000000 0.000000 1 0 1.000000
0  48.223476 -96.242317 16.165630  -0.508337 0.815597 -0.276394  0.000000 0.000000 1 0 1.000000
  phy
0  42.508492 -94.469269 16.241037  -0.042028 0.854144 -0.518335  0.000000 0.000000 1 0 1.000000
0  37.397198 -95.970108 1.183174  -0.021103 0.967939 0.250296  0.000000 0.000000 1 0 1.000000
0  -43.004887 -93.404869 16.590288  0.007228 0.937815 -0.347061  0.000000 0.000000 1 0 1.000000
  phy
0  42.508492 -94.469269 16.241037  -0.042028 0.854144 -0.518335  0.000000 0.000000 1 0 1.000000
0  -43.004887 -93.404869 16.590288  0.007228 0.937815 -0.347061  0.000000 0.000000 1 0 1.000000
0  1.021950 -109.815201 31.391964  -0.025351 0.454770 -0.890248  0.000000 0.000000 1 0 1.000000
  phy
0  34.534557 -120.616394 11.457794  -0.514240 -0.854806 0.069749  0.000000 0.000000 1 0 1.000000
0  17.808399 -130.445526 18.310240  -0.133454 -0.990485 -0.033609  0.000000 0.000000 1 0 1.000000
0  17.168365 -129.162338 3.690367  -0.203259 -0.938809 0.278072  0.000000 0.000000 1 0 1.000000
  phy
0  17.168365 -129.162338 3.690367  -0.203259 -0.938809 0.278072  0.000000 0.000000 1 0 1.000000
0  17.808399 -130.445526 18.310240  -0.133454 -0.990485 -0.033609  0.000000 0.000000 1 0 1.000000
0  -17.549927 -128.357208 4.539363  0.187077 -0.968318 0.165419  0.000000 0.000000 1 0 1.000000
end
