version 1
nodes
0 "root" -1
end
skeleton
time 0
0  0.000000 0.000000 0.000000  0.000000 -0.000000 0.000000
end
triangles
doorline
0  -33.736908 -104.833206 33.529335  -0.118444 -0.335911 0.934417  0.275399 0.794916 1 0 1.000000
0  -34.463619 -98.111237 34.687584  -0.125666 -0.140118 0.982128  0.275399 0.726554 1 0 1.000000
0  -34.298458 -104.635773 33.512062  -0.136229 -0.256980 0.956767  0.476577 0.792962 1 0 1.000000
doorline
0  -34.981125 -98.095062 34.619850  -0.131892 -0.139744 0.981364  0.476577 0.724601 1 0 1.000000
0  -34.298458 -104.635773 33.512062  -0.136229 -0.256980 0.956767  0.476577 0.792962 1 0 1.000000
0  -34.463619 -98.111237 34.687584  -0.125666 -0.140118 0.982128  0.275399 0.726554 1 0 1.000000
doorline
0  -34.981125 -98.095062 34.619850  -0.131892 -0.139744 0.981364  0.476577 0.724601 1 0 1.000000
0  -34.463619 -98.111237 34.687584  -0.125666 -0.140118 0.982128  0.275399 0.726554 1 0 1.000000
0  -35.487617 -90.863045 35.291363  -0.137786 -0.101441 0.985254  0.476577 0.650380 1 0 1.000000
doorline
0  -34.981125 -90.879227 35.359093  -0.145033 -0.102118 0.984143  0.275399 0.652333 1 0 1.000000
0  -35.487617 -90.863045 35.291363  -0.137786 -0.101441 0.985254  0.476577 0.650380 1 0 1.000000
0  -34.463619 -98.111237 34.687584  -0.125666 -0.140118 0.982128  0.275399 0.726554 1 0 1.000000
doorline
0  -35.487617 -90.863045 35.291363  -0.137786 -0.101441 0.985254  0.476577 0.650380 1 0 1.000000
0  -34.981125 -90.879227 35.359093  -0.145033 -0.102118 0.984143  0.275399 0.652333 1 0 1.000000
0  -36.060177 -82.918472 36.022118  -0.150451 -0.084788 0.984975  0.476577 0.570299 1 0 1.000000
doorline
0  -35.542671 -82.933685 36.100819  -0.152143 -0.085495 0.984654  0.275399 0.570299 1 0 1.000000
0  -36.060177 -82.918472 36.022118  -0.150451 -0.084788 0.984975  0.476577 0.570299 1 0 1.000000
0  -34.981125 -90.879227 35.359093  -0.145033 -0.102118 0.984143  0.275399 0.652333 1 0 1.000000
doorline
0  -35.542671 -82.933685 36.100819  -0.152143 -0.085495 0.984654  0.275399 0.570299 1 0 1.000000
0  -35.806931 -75.186661 36.594772  -0.154337 -0.059717 0.986212  0.275399 0.490219 1 0 1.000000
0  -36.060177 -82.918472 36.022118  -0.150451 -0.084788 0.984975  0.476577 0.570299 1 0 1.000000
doorline
0  -36.324436 -75.160477 36.515110  -0.156937 -0.052117 0.986232  0.476577 0.490219 1 0 1.000000
0  -36.060177 -82.918472 36.022118  -0.150451 -0.084788 0.984975  0.476577 0.570299 1 0 1.000000
0  -35.806931 -75.186661 36.594772  -0.154337 -0.059717 0.986212  0.275399 0.490219 1 0 1.000000
doorline
0  -35.806931 -75.186661 36.594772  -0.154337 -0.059717 0.986212  0.275399 0.490219 1 0 1.000000
0  -36.071190 -67.689194 36.889370  -0.157775 -0.037772 0.986753  0.275399 0.412091 1 0 1.000000
0  -36.324436 -75.160477 36.515110  -0.156937 -0.052117 0.986232  0.476577 0.490219 1 0 1.000000
doorline
0  -36.577682 -67.663010 36.809708  -0.164727 -0.030895 0.985855  0.476577 0.412091 1 0 1.000000
0  -36.324436 -75.160477 36.515110  -0.156937 -0.052117 0.986232  0.476577 0.490219 1 0 1.000000
0  -36.071190 -67.689194 36.889370  -0.157775 -0.037772 0.986753  0.275399 0.412091 1 0 1.000000
doorline
0  -36.071190 -67.689194 36.889370  -0.157775 -0.037772 0.986753  0.275399 0.412091 1 0 1.000000
0  -36.082199 -60.654892 37.069748  -0.170249 -0.024376 0.985100  0.275399 0.339824 1 0 1.000000
0  -36.577682 -67.663010 36.809708  -0.164727 -0.030895 0.985855  0.476577 0.412091 1 0 1.000000
doorline
0  -36.588692 -60.629662 36.979118  -0.181859 -0.023925 0.983033  0.476577 0.339824 1 0 1.000000
0  -36.577682 -67.663010 36.809708  -0.164727 -0.030895 0.985855  0.476577 0.412091 1 0 1.000000
0  -36.082199 -60.654892 37.069748  -0.170249 -0.024376 0.985100  0.275399 0.339824 1 0 1.000000
doorline
0  -36.082199 -60.654892 37.069748  -0.170249 -0.024376 0.985100  0.275399 0.339824 1 0 1.000000
0  -36.104221 -53.433151 37.244785  -0.193987 -0.038646 0.980242  0.275399 0.265603 1 0 1.000000
0  -36.588692 -60.629662 36.979118  -0.181859 -0.023925 0.983033  0.476577 0.339824 1 0 1.000000
doorline
0  -36.610714 -53.397911 37.142223  -0.194844 -0.038148 0.980092  0.476577 0.265603 1 0 1.000000
0  -36.588692 -60.629662 36.979118  -0.181859 -0.023925 0.983033  0.476577 0.339824 1 0 1.000000
0  -36.104221 -53.433151 37.244785  -0.193987 -0.038646 0.980242  0.275399 0.265603 1 0 1.000000
doorline
0  -36.610714 -53.397911 37.142223  -0.194844 -0.038148 0.980092  0.476577 0.265603 1 0 1.000000
0  -36.104221 -53.433151 37.244785  -0.193987 -0.038646 0.980242  0.275399 0.265603 1 0 1.000000
0  -36.621727 -44.535374 37.626873  -0.202949 -0.053175 0.977744  0.476577 0.173803 1 0 1.000000
doorline
0  -36.060177 -44.947392 37.718185  -0.210311 -0.053525 0.976168  0.275399 0.177709 1 0 1.000000
0  -36.621727 -44.535374 37.626873  -0.202949 -0.053175 0.977744  0.476577 0.173803 1 0 1.000000
0  -36.104221 -53.433151 37.244785  -0.193987 -0.038646 0.980242  0.275399 0.265603 1 0 1.000000
doorline
0  33.714901 -105.013504 33.489841  0.117006 -0.182713 0.976179  0.476577 0.177709 1 0 1.000000
0  33.758945 -104.553223 33.571152  0.120027 -0.195383 0.973355  0.275399 0.177709 1 0 1.000000
0  27.504841 -106.149750 34.020309  0.111778 -0.198552 0.973695  0.476577 0.298807 1 0 1.000000
doorline
0  27.570904 -105.688507 34.112591  0.106610 -0.214289 0.970935  0.275399 0.296854 1 0 1.000000
0  27.504841 -106.149750 34.020309  0.111778 -0.198552 0.973695  0.476577 0.298807 1 0 1.000000
0  33.758945 -104.553223 33.571152  0.120027 -0.195383 0.973355  0.275399 0.177709 1 0 1.000000
doorline
0  27.504841 -106.149750 34.020309  0.111778 -0.198552 0.973695  0.476577 0.298807 1 0 1.000000
0  27.570904 -105.688507 34.112591  0.106610 -0.214289 0.970935  0.275399 0.296854 1 0 1.000000
0  21.184673 -107.310394 34.398174  0.098701 -0.221498 0.970153  0.476577 0.421857 1 0 1.000000
doorline
0  21.272762 -106.860123 34.491413  0.100852 -0.230165 0.967912  0.275399 0.419904 1 0 1.000000
0  21.184673 -107.310394 34.398174  0.098701 -0.221498 0.970153  0.476577 0.421857 1 0 1.000000
0  27.570904 -105.688507 34.112591  0.106610 -0.214289 0.970935  0.275399 0.296854 1 0 1.000000
doorline
0  21.184673 -107.310394 34.398174  0.098701 -0.221498 0.970153  0.476577 0.421857 1 0 1.000000
0  21.272762 -106.860123 34.491413  0.100852 -0.230165 0.967912  0.275399 0.419904 1 0 1.000000
0  20.942440 -107.365234 34.402969  0.191393 -0.244854 0.950482  0.476577 0.425764 1 0 1.000000
doorline
0  21.030521 -106.903030 34.506222  0.280063 -0.256793 0.924999  0.275399 0.423811 1 0 1.000000
0  20.942440 -107.365234 34.402969  0.191393 -0.244854 0.950482  0.476577 0.425764 1 0 1.000000
0  21.272762 -106.860123 34.491413  0.100852 -0.230165 0.967912  0.275399 0.419904 1 0 1.000000
doorline
0  20.942440 -107.365234 34.402969  0.191393 -0.244854 0.950482  0.476577 0.425764 1 0 1.000000
0  21.030521 -106.903030 34.506222  0.280063 -0.256793 0.924999  0.275399 0.423811 1 0 1.000000
0  20.755253 -107.392380 34.471664  0.366391 -0.266236 0.891558  0.476577 0.429670 1 0 1.000000
doorline
0  20.854351 -106.941154 34.575874  0.364756 -0.261904 0.893510  0.275399 0.427717 1 0 1.000000
0  20.755253 -107.392380 34.471664  0.366391 -0.266236 0.891558  0.476577 0.429670 1 0 1.000000
0  21.030521 -106.903030 34.506222  0.280063 -0.256793 0.924999  0.275399 0.423811 1 0 1.000000
doorline
0  20.755253 -107.392380 34.471664  0.366391 -0.266236 0.891558  0.476577 0.429670 1 0 1.000000
0  20.854351 -106.941154 34.575874  0.364756 -0.261904 0.893510  0.275399 0.427717 1 0 1.000000
0  19.687214 -107.568161 34.862839  0.366127 -0.258782 0.893859  0.476577 0.451155 1 0 1.000000
doorline
0  19.775299 -107.117889 34.956078  0.364339 -0.253939 0.895976  0.275399 0.449202 1 0 1.000000
0  19.687214 -107.568161 34.862839  0.366127 -0.258782 0.893859  0.476577 0.451155 1 0 1.000000
0  20.854351 -106.941154 34.575874  0.364756 -0.261904 0.893510  0.275399 0.427717 1 0 1.000000
doorline
0  19.687214 -107.568161 34.862839  0.366127 -0.258782 0.893859  0.476577 0.451155 1 0 1.000000
0  19.775299 -107.117889 34.956078  0.364339 -0.253939 0.895976  0.275399 0.449202 1 0 1.000000
0  19.466999 -107.605324 34.943459  0.289743 -0.245515 0.925079  0.476577 0.455061 1 0 1.000000
doorline
0  19.544071 -107.155052 35.036697  0.211213 -0.235216 0.948716  0.275399 0.453108 1 0 1.000000
0  19.466999 -107.605324 34.943459  0.289743 -0.245515 0.925079  0.476577 0.455061 1 0 1.000000
0  19.775299 -107.117889 34.956078  0.364339 -0.253939 0.895976  0.275399 0.449202 1 0 1.000000
doorline
0  19.466999 -107.605324 34.943459  0.289743 -0.245515 0.925079  0.476577 0.455061 1 0 1.000000
0  19.544071 -107.155052 35.036697  0.211213 -0.235216 0.948716  0.275399 0.453108 1 0 1.000000
0  19.191730 -107.624374 34.978283  0.122795 -0.220803 0.967557  0.476577 0.460921 1 0 1.000000
doorline
0  19.268803 -107.185074 35.072483  0.122685 -0.222686 0.967140  0.275399 0.458968 1 0 1.000000
0  19.191730 -107.624374 34.978283  0.122795 -0.220803 0.967557  0.476577 0.460921 1 0 1.000000
0  19.544071 -107.155052 35.036697  0.211213 -0.235216 0.948716  0.275399 0.453108 1 0 1.000000
doorline
0  19.268803 -107.185074 35.072483  0.122685 -0.222686 0.967140  0.275399 0.458968 1 0 1.000000
0  9.204987 -107.882294 36.072971  0.077941 -0.213254 0.973883  0.275399 0.654286 1 0 1.000000
0  19.191730 -107.624374 34.978283  0.122795 -0.220803 0.967557  0.476577 0.460921 1 0 1.000000
doorline
0  9.182964 -108.321594 35.978771  0.077984 -0.212565 0.974030  0.476577 0.654286 1 0 1.000000
0  19.191730 -107.624374 34.978283  0.122795 -0.220803 0.967557  0.476577 0.460921 1 0 1.000000
0  9.204987 -107.882294 36.072971  0.077941 -0.213254 0.973883  0.275399 0.654286 1 0 1.000000
doorline
0  9.182964 -108.321594 35.978771  0.077984 -0.212565 0.974030  0.476577 0.654286 1 0 1.000000
0  9.204987 -107.882294 36.072971  0.077941 -0.213254 0.973883  0.275399 0.654286 1 0 1.000000
0  0.000008 -108.690567 36.309479  -0.000000 -0.209734 0.977758  0.476577 0.833979 1 0 1.000000
doorline
0  0.000008 -108.251266 36.403679  0.000000 -0.206851 0.978372  0.275399 0.833979 1 0 1.000000
0  0.000008 -108.690567 36.309479  -0.000000 -0.209734 0.977758  0.476577 0.833979 1 0 1.000000
0  9.204987 -107.882294 36.072971  0.077941 -0.213254 0.973883  0.275399 0.654286 1 0 1.000000
doorline
0  0.000008 -108.251266 36.403679  0.000000 -0.206851 0.978372  0.275399 0.833979 1 0 1.000000
0  -9.204975 -107.882294 36.072971  -0.078182 -0.213223 0.973870  0.275399 0.654286 1 0 1.000000
0  0.000008 -108.690567 36.309479  -0.000000 -0.209734 0.977758  0.476577 0.833979 1 0 1.000000
doorline
0  -9.182953 -108.321594 35.978771  -0.077983 -0.212553 0.974033  0.476577 0.654286 1 0 1.000000
0  0.000008 -108.690567 36.309479  -0.000000 -0.209734 0.977758  0.476577 0.833979 1 0 1.000000
0  -9.204975 -107.882294 36.072971  -0.078182 -0.213223 0.973870  0.275399 0.654286 1 0 1.000000
doorline
0  -9.182953 -108.321594 35.978771  -0.077983 -0.212553 0.974033  0.476577 0.654286 1 0 1.000000
0  -9.204975 -107.882294 36.072971  -0.078182 -0.213223 0.973870  0.275399 0.654286 1 0 1.000000
0  -19.191719 -107.624374 34.978287  -0.122795 -0.220806 0.967557  0.476577 0.460921 1 0 1.000000
doorline
0  -19.268795 -107.185074 35.072487  -0.122685 -0.222686 0.967140  0.275399 0.458968 1 0 1.000000
0  -19.191719 -107.624374 34.978287  -0.122795 -0.220806 0.967557  0.476577 0.460921 1 0 1.000000
0  -9.204975 -107.882294 36.072971  -0.078182 -0.213223 0.973870  0.275399 0.654286 1 0 1.000000
doorline
0  -19.268795 -107.185074 35.072487  -0.122685 -0.222686 0.967140  0.275399 0.458968 1 0 1.000000
0  -19.544064 -107.155052 35.036705  -0.211213 -0.235217 0.948716  0.275399 0.453108 1 0 1.000000
0  -19.191719 -107.624374 34.978287  -0.122795 -0.220806 0.967557  0.476577 0.460921 1 0 1.000000
doorline
0  -19.466988 -107.605324 34.943462  -0.289733 -0.245523 0.925080  0.476577 0.455061 1 0 1.000000
0  -19.191719 -107.624374 34.978287  -0.122795 -0.220806 0.967557  0.476577 0.460921 1 0 1.000000
0  -19.544064 -107.155052 35.036705  -0.211213 -0.235217 0.948716  0.275399 0.453108 1 0 1.000000
doorline
0  -19.544064 -107.155052 35.036705  -0.211213 -0.235217 0.948716  0.275399 0.453108 1 0 1.000000
0  -19.775288 -107.117889 34.956081  -0.364334 -0.253942 0.895976  0.275399 0.449202 1 0 1.000000
0  -19.466988 -107.605324 34.943462  -0.289733 -0.245523 0.925080  0.476577 0.455061 1 0 1.000000
doorline
0  -19.687202 -107.568161 34.862843  -0.365959 -0.258417 0.894032  0.476577 0.451155 1 0 1.000000
0  -19.466988 -107.605324 34.943462  -0.289733 -0.245523 0.925080  0.476577 0.455061 1 0 1.000000
0  -19.775288 -107.117889 34.956081  -0.364334 -0.253942 0.895976  0.275399 0.449202 1 0 1.000000
doorline
0  -19.775288 -107.117889 34.956081  -0.364334 -0.253942 0.895976  0.275399 0.449202 1 0 1.000000
0  -20.854342 -106.941154 34.575878  -0.364799 -0.261903 0.893492  0.275399 0.427717 1 0 1.000000
0  -19.687202 -107.568161 34.862843  -0.365959 -0.258417 0.894032  0.476577 0.451155 1 0 1.000000
doorline
0  -20.755245 -107.392380 34.471664  -0.366369 -0.266196 0.891579  0.476577 0.429670 1 0 1.000000
0  -19.687202 -107.568161 34.862843  -0.365959 -0.258417 0.894032  0.476577 0.451155 1 0 1.000000
0  -20.854342 -106.941154 34.575878  -0.364799 -0.261903 0.893492  0.275399 0.427717 1 0 1.000000
doorline
0  -20.854342 -106.941154 34.575878  -0.364799 -0.261903 0.893492  0.275399 0.427717 1 0 1.000000
0  -21.030514 -106.903030 34.506226  -0.280061 -0.256785 0.925001  0.275399 0.423811 1 0 1.000000
0  -20.755245 -107.392380 34.471664  -0.366369 -0.266196 0.891579  0.476577 0.429670 1 0 1.000000
doorline
0  -20.942427 -107.365234 34.402977  -0.191386 -0.244849 0.950484  0.476577 0.425764 1 0 1.000000
0  -20.755245 -107.392380 34.471664  -0.366369 -0.266196 0.891579  0.476577 0.429670 1 0 1.000000
0  -21.030514 -106.903030 34.506226  -0.280061 -0.256785 0.925001  0.275399 0.423811 1 0 1.000000
doorline
0  -21.030514 -106.903030 34.506226  -0.280061 -0.256785 0.925001  0.275399 0.423811 1 0 1.000000
0  -21.272749 -106.860123 34.491417  -0.100851 -0.230163 0.967912  0.275399 0.419904 1 0 1.000000
0  -20.942427 -107.365234 34.402977  -0.191386 -0.244849 0.950484  0.476577 0.425764 1 0 1.000000
doorline
0  -21.184664 -107.310394 34.398178  -0.098745 -0.221499 0.970148  0.476577 0.421857 1 0 1.000000
0  -20.942427 -107.365234 34.402977  -0.191386 -0.244849 0.950484  0.476577 0.425764 1 0 1.000000
0  -21.272749 -106.860123 34.491417  -0.100851 -0.230163 0.967912  0.275399 0.419904 1 0 1.000000
doorline
0  -21.272749 -106.860123 34.491417  -0.100851 -0.230163 0.967912  0.275399 0.419904 1 0 1.000000
0  -27.570896 -105.688507 34.112595  -0.106610 -0.214291 0.970934  0.275399 0.296854 1 0 1.000000
0  -21.184664 -107.310394 34.398178  -0.098745 -0.221499 0.970148  0.476577 0.421857 1 0 1.000000
doorline
0  -27.504831 -106.149750 34.020313  -0.111779 -0.198551 0.973696  0.476577 0.298807 1 0 1.000000
0  -21.184664 -107.310394 34.398178  -0.098745 -0.221499 0.970148  0.476577 0.421857 1 0 1.000000
0  -27.570896 -105.688507 34.112595  -0.106610 -0.214291 0.970934  0.275399 0.296854 1 0 1.000000
doorline
0  -27.570896 -105.688507 34.112595  -0.106610 -0.214291 0.970934  0.275399 0.296854 1 0 1.000000
0  -33.758930 -104.553223 33.571159  -0.120028 -0.195391 0.973353  0.275399 0.177709 1 0 1.000000
0  -27.504831 -106.149750 34.020313  -0.111779 -0.198551 0.973696  0.476577 0.298807 1 0 1.000000
doorline
0  -33.714890 -105.013504 33.489845  -0.117003 -0.182862 0.976152  0.476577 0.177709 1 0 1.000000
0  -27.504831 -106.149750 34.020313  -0.111779 -0.198551 0.973696  0.476577 0.298807 1 0 1.000000
0  -33.758930 -104.553223 33.571159  -0.120028 -0.195391 0.973353  0.275399 0.177709 1 0 1.000000
doorline
0  33.736927 -104.833206 33.529331  0.118466 -0.335909 0.934415  0.275399 0.794916 1 0 1.000000
0  34.298466 -104.635773 33.512058  0.136234 -0.256980 0.956766  0.476577 0.792962 1 0 1.000000
0  34.463627 -98.111237 34.687580  0.125616 -0.140100 0.982137  0.275399 0.726554 1 0 1.000000
doorline
0  34.981136 -98.095062 34.619846  0.131870 -0.139789 0.981361  0.476577 0.724601 1 0 1.000000
0  34.463627 -98.111237 34.687580  0.125616 -0.140100 0.982137  0.275399 0.726554 1 0 1.000000
0  34.298466 -104.635773 33.512058  0.136234 -0.256980 0.956766  0.476577 0.792962 1 0 1.000000
doorline
0  34.981136 -98.095062 34.619846  0.131870 -0.139789 0.981361  0.476577 0.724601 1 0 1.000000
0  35.487629 -90.863045 35.291359  0.137832 -0.101455 0.985246  0.476577 0.650380 1 0 1.000000
0  34.463627 -98.111237 34.687580  0.125616 -0.140100 0.982137  0.275399 0.726554 1 0 1.000000
doorline
0  34.981136 -90.879227 35.359093  0.145032 -0.102120 0.984143  0.275399 0.652333 1 0 1.000000
0  34.463627 -98.111237 34.687580  0.125616 -0.140100 0.982137  0.275399 0.726554 1 0 1.000000
0  35.487629 -90.863045 35.291359  0.137832 -0.101455 0.985246  0.476577 0.650380 1 0 1.000000
doorline
0  35.487629 -90.863045 35.291359  0.137832 -0.101455 0.985246  0.476577 0.650380 1 0 1.000000
0  36.060184 -82.918472 36.022110  0.150587 -0.084760 0.984957  0.476577 0.570299 1 0 1.000000
0  34.981136 -90.879227 35.359093  0.145032 -0.102120 0.984143  0.275399 0.652333 1 0 1.000000
doorline
0  35.542683 -82.933685 36.100811  0.152157 -0.085587 0.984644  0.275399 0.570299 1 0 1.000000
0  34.981136 -90.879227 35.359093  0.145032 -0.102120 0.984143  0.275399 0.652333 1 0 1.000000
0  36.060184 -82.918472 36.022110  0.150587 -0.084760 0.984957  0.476577 0.570299 1 0 1.000000
doorline
0  35.542683 -82.933685 36.100811  0.152157 -0.085587 0.984644  0.275399 0.570299 1 0 1.000000
0  36.060184 -82.918472 36.022110  0.150587 -0.084760 0.984957  0.476577 0.570299 1 0 1.000000
0  35.806942 -75.186661 36.594765  0.154343 -0.059670 0.986214  0.275399 0.490219 1 0 1.000000
doorline
0  36.324444 -75.160477 36.515102  0.156911 -0.052157 0.986235  0.476577 0.490219 1 0 1.000000
0  35.806942 -75.186661 36.594765  0.154343 -0.059670 0.986214  0.275399 0.490219 1 0 1.000000
0  36.060184 -82.918472 36.022110  0.150587 -0.084760 0.984957  0.476577 0.570299 1 0 1.000000
doorline
0  35.806942 -75.186661 36.594765  0.154343 -0.059670 0.986214  0.275399 0.490219 1 0 1.000000
0  36.324444 -75.160477 36.515102  0.156911 -0.052157 0.986235  0.476577 0.490219 1 0 1.000000
0  36.071201 -67.689194 36.889362  0.157817 -0.037910 0.986740  0.275399 0.412091 1 0 1.000000
doorline
0  36.577694 -67.663010 36.809700  0.164726 -0.030895 0.985855  0.476577 0.412091 1 0 1.000000
0  36.071201 -67.689194 36.889362  0.157817 -0.037910 0.986740  0.275399 0.412091 1 0 1.000000
0  36.324444 -75.160477 36.515102  0.156911 -0.052157 0.986235  0.476577 0.490219 1 0 1.000000
doorline
0  36.071201 -67.689194 36.889362  0.157817 -0.037910 0.986740  0.275399 0.412091 1 0 1.000000
0  36.577694 -67.663010 36.809700  0.164726 -0.030895 0.985855  0.476577 0.412091 1 0 1.000000
0  36.082211 -60.654884 37.069740  0.170248 -0.024377 0.985100  0.275399 0.339824 1 0 1.000000
doorline
0  36.588703 -60.629654 36.979111  0.181953 -0.023920 0.983016  0.476577 0.339824 1 0 1.000000
0  36.082211 -60.654884 37.069740  0.170248 -0.024377 0.985100  0.275399 0.339824 1 0 1.000000
0  36.577694 -67.663010 36.809700  0.164726 -0.030895 0.985855  0.476577 0.412091 1 0 1.000000
doorline
0  36.082211 -60.654884 37.069740  0.170248 -0.024377 0.985100  0.275399 0.339824 1 0 1.000000
0  36.588703 -60.629654 36.979111  0.181953 -0.023920 0.983016  0.476577 0.339824 1 0 1.000000
0  36.104229 -53.433144 37.244778  0.193988 -0.038648 0.980242  0.275399 0.265603 1 0 1.000000
doorline
0  36.610722 -53.397903 37.142216  0.194798 -0.038142 0.980102  0.476577 0.265603 1 0 1.000000
0  36.104229 -53.433144 37.244778  0.193988 -0.038648 0.980242  0.275399 0.265603 1 0 1.000000
0  36.588703 -60.629654 36.979111  0.181953 -0.023920 0.983016  0.476577 0.339824 1 0 1.000000
doorline
0  36.610722 -53.397903 37.142216  0.194798 -0.038142 0.980102  0.476577 0.265603 1 0 1.000000
0  36.621738 -44.535370 37.626865  0.202890 -0.053178 0.977757  0.476577 0.173803 1 0 1.000000
0  36.104229 -53.433144 37.244778  0.193988 -0.038648 0.980242  0.275399 0.265603 1 0 1.000000
doorline
0  36.060184 -44.947392 37.718178  0.210298 -0.053524 0.976171  0.275399 0.177709 1 0 1.000000
0  36.104229 -53.433144 37.244778  0.193988 -0.038648 0.980242  0.275399 0.265603 1 0 1.000000
0  36.621738 -44.535370 37.626865  0.202890 -0.053178 0.977757  0.476577 0.173803 1 0 1.000000
skin_0dam
0  20.986481 -107.189728 34.387615  0.205616 -0.236129 0.949718  0.327698 0.640969 1 0 1.000000
0  22.748199 -98.931313 36.052505  0.255269 -0.192226 0.947569  0.336852 0.682965 1 0 1.000000
0  20.777279 -107.216881 34.456306  0.354140 -0.256579 0.899306  0.326611 0.640797 1 0 1.000000
skin_0dam
0  33.869053 -104.774109 33.446793  0.115909 -0.178608 0.977069  0.394639 0.653899 1 0 1.000000
0  34.584751 -98.108910 34.587898  0.135510 -0.165566 0.976844  0.398358 0.687885 1 0 1.000000
0  27.537872 -105.954224 33.981098  0.119947 -0.194596 0.973522  0.361741 0.647548 1 0 1.000000
skin_0dam
0  28.782085 -98.503387 35.385056  0.132050 -0.163878 0.977603  0.368206 0.685482 1 0 1.000000
0  27.537872 -105.954224 33.981098  0.119947 -0.194596 0.973522  0.361741 0.647548 1 0 1.000000
0  34.584751 -98.108910 34.587898  0.135510 -0.165566 0.976844  0.398358 0.687885 1 0 1.000000
skin_0dam
0  27.537872 -105.954224 33.981098  0.119947 -0.194596 0.973522  0.361741 0.647548 1 0 1.000000
0  28.782085 -98.503387 35.385056  0.132050 -0.163878 0.977603  0.368206 0.685482 1 0 1.000000
0  21.195683 -107.146820 34.372810  0.110583 -0.213536 0.970656  0.328785 0.641197 1 0 1.000000
skin_0dam
0  22.968414 -98.922264 36.029610  0.125664 -0.175432 0.976438  0.337996 0.683022 1 0 1.000000
0  21.195683 -107.146820 34.372810  0.110583 -0.213536 0.970656  0.328785 0.641197 1 0 1.000000
0  28.782085 -98.503387 35.385056  0.132050 -0.163878 0.977603  0.368206 0.685482 1 0 1.000000
skin_0dam
0  21.195683 -107.146820 34.372810  0.110583 -0.213536 0.970656  0.328785 0.641197 1 0 1.000000
0  22.968414 -98.922264 36.029610  0.125664 -0.175432 0.976438  0.337996 0.683022 1 0 1.000000
0  20.986481 -107.189728 34.387615  0.205616 -0.236129 0.949718  0.327698 0.640969 1 0 1.000000
skin_0dam
0  22.748199 -98.931313 36.052505  0.255269 -0.192226 0.947569  0.336852 0.682965 1 0 1.000000
0  20.986481 -107.189728 34.387615  0.205616 -0.236129 0.949718  0.327698 0.640969 1 0 1.000000
0  22.968414 -98.922264 36.029610  0.125664 -0.175432 0.976438  0.337996 0.683022 1 0 1.000000
skin_0dam
0  22.968414 -98.922264 36.029610  0.125664 -0.175432 0.976438  0.337996 0.683022 1 0 1.000000
0  24.366779 -91.690659 36.822739  0.139635 -0.123207 0.982508  0.345263 0.720097 1 0 1.000000
0  22.748199 -98.931313 36.052505  0.255269 -0.192226 0.947569  0.336852 0.682965 1 0 1.000000
skin_0dam
0  24.113533 -91.709717 36.857563  0.236874 -0.137239 0.961798  0.343947 0.719983 1 0 1.000000
0  22.748199 -98.931313 36.052505  0.255269 -0.192226 0.947569  0.336852 0.682965 1 0 1.000000
0  24.366779 -91.690659 36.822739  0.139635 -0.123207 0.982508  0.345263 0.720097 1 0 1.000000
skin_0dam
0  24.366779 -91.690659 36.822739  0.139635 -0.123207 0.982508  0.345263 0.720097 1 0 1.000000
0  25.798176 -83.780899 37.534561  0.152007 -0.097084 0.983600  0.352701 0.760720 1 0 1.000000
0  24.113533 -91.709717 36.857563  0.236874 -0.137239 0.961798  0.343947 0.719983 1 0 1.000000
skin_0dam
0  25.544930 -83.798996 37.580357  0.223238 -0.104882 0.969105  0.351385 0.760606 1 0 1.000000
0  24.113533 -91.709717 36.857563  0.236874 -0.137239 0.961798  0.343947 0.719983 1 0 1.000000
0  25.798176 -83.780899 37.534561  0.152007 -0.097084 0.983600  0.352701 0.760720 1 0 1.000000
skin_0dam
0  25.798176 -83.780899 37.534561  0.152007 -0.097084 0.983600  0.352701 0.760720 1 0 1.000000
0  27.075420 -75.939964 37.964897  0.155092 -0.059986 0.986077  0.359338 0.801114 1 0 1.000000
0  25.544930 -83.798996 37.580357  0.223238 -0.104882 0.969105  0.351385 0.760606 1 0 1.000000
skin_0dam
0  27.075420 -75.939964 37.964897  0.155092 -0.059986 0.986077  0.359338 0.801114 1 0 1.000000
0  25.798176 -83.780899 37.534561  0.152007 -0.097084 0.983600  0.352701 0.760720 1 0 1.000000
0  31.534771 -75.564964 37.324184  0.163557 -0.058634 0.984790  0.382510 0.803345 1 0 1.000000
skin_0dam
0  31.534771 -75.564964 37.324184  0.163557 -0.058634 0.984790  0.382510 0.803345 1 0 1.000000
0  32.261478 -67.988388 37.512386  0.166689 -0.037304 0.985304  0.386286 0.842480 1 0 1.000000
0  27.075420 -75.939964 37.964897  0.155092 -0.059986 0.986077  0.359338 0.801114 1 0 1.000000
skin_0dam
0  32.261478 -67.988388 37.512386  0.166689 -0.037304 0.985304  0.386286 0.842480 1 0 1.000000
0  31.534771 -75.564964 37.324184  0.163557 -0.058634 0.984790  0.382510 0.803345 1 0 1.000000
0  36.247372 -67.676857 36.777756  0.182072 -0.037715 0.982562  0.406998 0.844426 1 0 1.000000
skin_0dam
0  36.247372 -67.676857 36.777756  0.182072 -0.037715 0.982562  0.406998 0.844426 1 0 1.000000
0  36.258381 -60.638706 37.002010  0.189330 -0.030864 0.981428  0.407055 0.880757 1 0 1.000000
0  32.261478 -67.988388 37.512386  0.166689 -0.037304 0.985304  0.386286 0.842480 1 0 1.000000
skin_0dam
0  34.584751 -98.108910 34.587898  0.135510 -0.165566 0.976844  0.398358 0.687885 1 0 1.000000
0  35.157307 -90.860168 35.324265  0.153055 -0.110215 0.982052  0.401334 0.725075 1 0 1.000000
0  28.782085 -98.503387 35.385056  0.132050 -0.163878 0.977603  0.368206 0.685482 1 0 1.000000
skin_0dam
0  29.773060 -91.263695 36.144318  0.145396 -0.113598 0.982830  0.373355 0.722615 1 0 1.000000
0  28.782085 -98.503387 35.385056  0.132050 -0.163878 0.977603  0.368206 0.685482 1 0 1.000000
0  35.157307 -90.860168 35.324265  0.153055 -0.110215 0.982052  0.401334 0.725075 1 0 1.000000
skin_0dam
0  28.782085 -98.503387 35.385056  0.132050 -0.163878 0.977603  0.368206 0.685482 1 0 1.000000
0  29.773060 -91.263695 36.144318  0.145396 -0.113598 0.982830  0.373355 0.722615 1 0 1.000000
0  22.968414 -98.922264 36.029610  0.125664 -0.175432 0.976438  0.337996 0.683022 1 0 1.000000
skin_0dam
0  24.366779 -91.690659 36.822739  0.139635 -0.123207 0.982508  0.345263 0.720097 1 0 1.000000
0  22.968414 -98.922264 36.029610  0.125664 -0.175432 0.976438  0.337996 0.683022 1 0 1.000000
0  29.773060 -91.263695 36.144318  0.145396 -0.113598 0.982830  0.373355 0.722615 1 0 1.000000
skin_0dam
0  29.773060 -91.263695 36.144318  0.145396 -0.113598 0.982830  0.373355 0.722615 1 0 1.000000
0  30.730991 -83.354904 36.845039  0.159988 -0.092446 0.982781  0.378333 0.763237 1 0 1.000000
0  24.366779 -91.690659 36.822739  0.139635 -0.123207 0.982508  0.345263 0.720097 1 0 1.000000
skin_0dam
0  25.798176 -83.780899 37.534561  0.152007 -0.097084 0.983600  0.352701 0.760720 1 0 1.000000
0  24.366779 -91.690659 36.822739  0.139635 -0.123207 0.982508  0.345263 0.720097 1 0 1.000000
0  30.730991 -83.354904 36.845039  0.159988 -0.092446 0.982781  0.378333 0.763237 1 0 1.000000
skin_0dam
0  30.730991 -83.354904 36.845039  0.159988 -0.092446 0.982781  0.378333 0.763237 1 0 1.000000
0  31.534771 -75.564964 37.324184  0.163557 -0.058634 0.984790  0.382510 0.803345 1 0 1.000000
0  25.798176 -83.780899 37.534561  0.152007 -0.097084 0.983600  0.352701 0.760720 1 0 1.000000
skin_0dam
0  31.534771 -75.564964 37.324184  0.163557 -0.058634 0.984790  0.382510 0.803345 1 0 1.000000
0  30.730991 -83.354904 36.845039  0.159988 -0.092446 0.982781  0.378333 0.763237 1 0 1.000000
0  35.983112 -75.203400 36.529911  0.177707 -0.063863 0.982009  0.405625 0.805577 1 0 1.000000
skin_0dam
0  35.983112 -75.203400 36.529911  0.177707 -0.063863 0.982009  0.405625 0.805577 1 0 1.000000
0  36.247372 -67.676857 36.777756  0.182072 -0.037715 0.982562  0.406998 0.844426 1 0 1.000000
0  31.534771 -75.564964 37.324184  0.163557 -0.058634 0.984790  0.382510 0.803345 1 0 1.000000
skin_0dam
0  35.157307 -90.860168 35.324265  0.153055 -0.110215 0.982052  0.401334 0.725075 1 0 1.000000
0  35.652790 -82.942322 36.002090  0.169394 -0.091768 0.981267  0.403908 0.765755 1 0 1.000000
0  29.773060 -91.263695 36.144318  0.145396 -0.113598 0.982830  0.373355 0.722615 1 0 1.000000
skin_0dam
0  30.730991 -83.354904 36.845039  0.159988 -0.092446 0.982781  0.378333 0.763237 1 0 1.000000
0  29.773060 -91.263695 36.144318  0.145396 -0.113598 0.982830  0.373355 0.722615 1 0 1.000000
0  35.652790 -82.942322 36.002090  0.169394 -0.091768 0.981267  0.403908 0.765755 1 0 1.000000
skin_0dam
0  35.652790 -82.942322 36.002090  0.169394 -0.091768 0.981267  0.403908 0.765755 1 0 1.000000
0  35.983112 -75.203400 36.529911  0.177707 -0.063863 0.982009  0.405625 0.805577 1 0 1.000000
0  30.730991 -83.354904 36.845039  0.159988 -0.092446 0.982781  0.378333 0.763237 1 0 1.000000
skin_0dam
0  27.075420 -75.939964 37.964897  0.155092 -0.059986 0.986077  0.359338 0.801114 1 0 1.000000
0  28.264584 -68.313339 38.093456  0.160011 -0.040048 0.986302  0.365517 0.840535 1 0 1.000000
0  26.822174 -75.959030 37.999729  0.222269 -0.070237 0.972452  0.358022 0.800999 1 0 1.000000
skin_0dam
0  28.264584 -68.313339 38.093456  0.160011 -0.040048 0.986302  0.365517 0.840535 1 0 1.000000
0  27.075420 -75.939964 37.964897  0.155092 -0.059986 0.986077  0.359338 0.801114 1 0 1.000000
0  32.261478 -67.988388 37.512386  0.166689 -0.037304 0.985304  0.386286 0.842480 1 0 1.000000
skin_0dam
0  32.261478 -67.988388 37.512386  0.166689 -0.037304 0.985304  0.386286 0.842480 1 0 1.000000
0  32.900105 -61.057587 37.646561  0.174030 -0.031213 0.984246  0.389604 0.878297 1 0 1.000000
0  28.264584 -68.313339 38.093456  0.160011 -0.040048 0.986302  0.365517 0.840535 1 0 1.000000
skin_0dam
0  32.900105 -61.057587 37.646561  0.174030 -0.031213 0.984246  0.389604 0.878297 1 0 1.000000
0  32.261478 -67.988388 37.512386  0.166689 -0.037304 0.985304  0.386286 0.842480 1 0 1.000000
0  36.258381 -60.638706 37.002010  0.189330 -0.030864 0.981428  0.407055 0.880757 1 0 1.000000
skin_0dam
0  36.258381 -60.638706 37.002010  0.189330 -0.030864 0.981428  0.407055 0.880757 1 0 1.000000
0  36.280399 -53.416965 37.177040  0.198980 -0.032911 0.979451  0.407169 0.918062 1 0 1.000000
0  32.900105 -61.057587 37.646561  0.174030 -0.031213 0.984246  0.389604 0.878297 1 0 1.000000
skin_0dam
0  33.318516 -53.951290 37.765377  0.192386 -0.042461 0.980400  0.391779 0.915029 1 0 1.000000
0  32.900105 -61.057587 37.646561  0.174030 -0.031213 0.984246  0.389604 0.878297 1 0 1.000000
0  36.280399 -53.416965 37.177040  0.198980 -0.032911 0.979451  0.407169 0.918062 1 0 1.000000
skin_0dam
0  36.280399 -53.416965 37.177040  0.198980 -0.032911 0.979451  0.407169 0.918062 1 0 1.000000
0  36.258381 -44.747620 37.601223  0.231812 -0.056118 0.971141  0.407055 0.962747 1 0 1.000000
0  33.318516 -53.951290 37.765377  0.192386 -0.042461 0.980400  0.391779 0.915029 1 0 1.000000
skin_0dam
0  33.990170 -46.606426 38.084381  0.190854 -0.055054 0.980073  0.395269 0.952906 1 0 1.000000
0  33.318516 -53.951290 37.765377  0.192386 -0.042461 0.980400  0.391779 0.915029 1 0 1.000000
0  36.258381 -44.747620 37.601223  0.231812 -0.056118 0.971141  0.407055 0.962747 1 0 1.000000
skin_0dam
0  33.318516 -53.951290 37.765377  0.192386 -0.042461 0.980400  0.391779 0.915029 1 0 1.000000
0  33.990170 -46.606426 38.084381  0.190854 -0.055054 0.980073  0.395269 0.952906 1 0 1.000000
0  29.420712 -54.681133 38.392921  0.133623 -0.030364 0.990567  0.371524 0.910967 1 0 1.000000
skin_0dam
0  29.993267 -48.308792 38.587006  0.085099 -0.009620 0.996326  0.374500 0.943866 1 0 1.000000
0  29.420712 -54.681133 38.392921  0.133623 -0.030364 0.990567  0.371524 0.910967 1 0 1.000000
0  33.990170 -46.606426 38.084381  0.190854 -0.055054 0.980073  0.395269 0.952906 1 0 1.000000
skin_0dam
0  29.420712 -54.681133 38.392921  0.133623 -0.030364 0.990567  0.371524 0.910967 1 0 1.000000
0  29.993267 -48.308792 38.587006  0.085099 -0.009620 0.996326  0.374500 0.943866 1 0 1.000000
0  13.906574 -56.128487 39.536411  0.038240 0.011850 0.999198  0.290908 0.902957 1 0 1.000000
skin_0dam
0  14.060722 -50.825191 39.260330  0.017561 0.057636 0.998183  0.291709 0.930535 1 0 1.000000
0  13.906574 -56.128487 39.536411  0.038240 0.011850 0.999198  0.290908 0.902957 1 0 1.000000
0  29.993267 -48.308792 38.587006  0.085099 -0.009620 0.996326  0.374500 0.943866 1 0 1.000000
skin_0dam
0  13.906574 -56.128487 39.536411  0.038240 0.011850 0.999198  0.290908 0.902957 1 0 1.000000
0  14.060722 -50.825191 39.260330  0.017561 0.057636 0.998183  0.291709 0.930535 1 0 1.000000
0  0.000004 -56.310577 39.729187  -0.002076 0.034976 0.999386  0.218645 0.901927 1 0 1.000000
skin_0dam
0  0.000004 -51.422722 39.378925  -0.004510 0.064625 0.997899  0.218645 0.927388 1 0 1.000000
0  0.000004 -56.310577 39.729187  -0.002076 0.034976 0.999386  0.218645 0.901927 1 0 1.000000
0  14.060722 -50.825191 39.260330  0.017561 0.057636 0.998183  0.291709 0.930535 1 0 1.000000
skin_0dam
0  0.000004 -56.310577 39.729187  -0.002076 0.034976 0.999386  0.218645 0.901927 1 0 1.000000
0  0.000004 -51.422722 39.378925  -0.004510 0.064625 0.997899  0.218645 0.927388 1 0 1.000000
0  -13.906563 -56.128487 39.536411  -0.042733 0.025276 0.998767  0.146383 0.902957 1 0 1.000000
skin_0dam
0  -14.060715 -50.825191 39.260330  -0.040924 0.022246 0.998915  0.145582 0.930535 1 0 1.000000
0  -13.906563 -56.128487 39.536411  -0.042733 0.025276 0.998767  0.146383 0.902957 1 0 1.000000
0  0.000004 -51.422722 39.378925  -0.004510 0.064625 0.997899  0.218645 0.927388 1 0 1.000000
skin_0dam
0  -13.906563 -56.128487 39.536411  -0.042733 0.025276 0.998767  0.146383 0.902957 1 0 1.000000
0  -14.060715 -50.825191 39.260330  -0.040924 0.022246 0.998915  0.145582 0.930535 1 0 1.000000
0  -29.420700 -54.681141 38.392929  -0.130504 -0.021888 0.991206  0.065766 0.910967 1 0 1.000000
skin_0dam
0  -29.993259 -48.308800 38.587013  -0.121440 -0.044888 0.991583  0.062791 0.943866 1 0 1.000000
0  -29.420700 -54.681141 38.392929  -0.130504 -0.021888 0.991206  0.065766 0.910967 1 0 1.000000
0  -14.060715 -50.825191 39.260330  -0.040924 0.022246 0.998915  0.145582 0.930535 1 0 1.000000
skin_0dam
0  26.822174 -75.959030 37.999729  0.222269 -0.070237 0.972452  0.358022 0.800999 1 0 1.000000
0  28.011333 -68.331436 38.139256  0.193627 -0.045719 0.980009  0.364201 0.840421 1 0 1.000000
0  26.568928 -75.986176 38.068417  0.256636 -0.070378 0.963942  0.356706 0.800828 1 0 1.000000
skin_0dam
0  28.011333 -68.331436 38.139256  0.193627 -0.045719 0.980009  0.364201 0.840421 1 0 1.000000
0  26.822174 -75.959030 37.999729  0.222269 -0.070237 0.972452  0.358022 0.800999 1 0 1.000000
0  28.264584 -68.313339 38.093456  0.160011 -0.040048 0.986302  0.365517 0.840535 1 0 1.000000
skin_0dam
0  28.011333 -68.331436 38.139256  0.193627 -0.045719 0.980009  0.364201 0.840421 1 0 1.000000
0  28.264584 -68.313339 38.093456  0.160011 -0.040048 0.986302  0.365517 0.840535 1 0 1.000000
0  28.705013 -61.586151 38.300709  0.178571 -0.038442 0.983176  0.367806 0.875265 1 0 1.000000
skin_0dam
0  28.958256 -61.557087 38.253952  0.164529 -0.033720 0.985796  0.369121 0.875436 1 0 1.000000
0  28.705013 -61.586151 38.300709  0.178571 -0.038442 0.983176  0.367806 0.875265 1 0 1.000000
0  28.264584 -68.313339 38.093456  0.160011 -0.040048 0.986302  0.365517 0.840535 1 0 1.000000
skin_0dam
0  28.958256 -61.557087 38.253952  0.164529 -0.033720 0.985796  0.369121 0.875436 1 0 1.000000
0  29.420712 -54.681133 38.392921  0.133623 -0.030364 0.990567  0.371524 0.910967 1 0 1.000000
0  28.705013 -61.586151 38.300709  0.178571 -0.038442 0.983176  0.367806 0.875265 1 0 1.000000
skin_0dam
0  29.420712 -54.681133 38.392921  0.133623 -0.030364 0.990567  0.371524 0.910967 1 0 1.000000
0  28.958256 -61.557087 38.253952  0.164529 -0.033720 0.985796  0.369121 0.875436 1 0 1.000000
0  33.318516 -53.951290 37.765377  0.192386 -0.042461 0.980400  0.391779 0.915029 1 0 1.000000
skin_0dam
0  32.900105 -61.057587 37.646561  0.174030 -0.031213 0.984246  0.389604 0.878297 1 0 1.000000
0  33.318516 -53.951290 37.765377  0.192386 -0.042461 0.980400  0.391779 0.915029 1 0 1.000000
0  28.958256 -61.557087 38.253952  0.164529 -0.033720 0.985796  0.369121 0.875436 1 0 1.000000
skin_0dam
0  28.958256 -61.557087 38.253952  0.164529 -0.033720 0.985796  0.369121 0.875436 1 0 1.000000
0  28.264584 -68.313339 38.093456  0.160011 -0.040048 0.986302  0.365517 0.840535 1 0 1.000000
0  32.900105 -61.057587 37.646561  0.174030 -0.031213 0.984246  0.389604 0.878297 1 0 1.000000
skin_0dam
0  28.528843 -61.639076 38.327446  0.193062 -0.039244 0.980401  0.366890 0.874979 1 0 1.000000
0  28.705013 -61.586151 38.300709  0.178571 -0.038442 0.983176  0.367806 0.875265 1 0 1.000000
0  29.420712 -54.681133 38.392921  0.133623 -0.030364 0.990567  0.371524 0.910967 1 0 1.000000
skin_0dam
0  28.528843 -61.639076 38.327446  0.193062 -0.039244 0.980401  0.366890 0.874979 1 0 1.000000
0  27.758091 -68.349533 38.185047  0.213609 -0.046512 0.975811  0.362885 0.840306 1 0 1.000000
0  28.705013 -61.586151 38.300709  0.178571 -0.038442 0.983176  0.367806 0.875265 1 0 1.000000
skin_0dam
0  28.011333 -68.331436 38.139256  0.193627 -0.045719 0.980009  0.364201 0.840421 1 0 1.000000
0  28.705013 -61.586151 38.300709  0.178571 -0.038442 0.983176  0.367806 0.875265 1 0 1.000000
0  27.758091 -68.349533 38.185047  0.213609 -0.046512 0.975811  0.362885 0.840306 1 0 1.000000
skin_0dam
0  27.758091 -68.349533 38.185047  0.213609 -0.046512 0.975811  0.362885 0.840306 1 0 1.000000
0  26.568928 -75.986176 38.068417  0.256636 -0.070378 0.963942  0.356706 0.800828 1 0 1.000000
0  28.011333 -68.331436 38.139256  0.193627 -0.045719 0.980009  0.364201 0.840421 1 0 1.000000
skin_0dam
0  -28.253561 -61.702019 38.366116  -0.080472 -0.017513 0.996603  0.071831 0.874635 1 0 1.000000
0  -28.363668 -61.692009 38.354191  -0.135747 -0.031150 0.990254  0.071259 0.874693 1 0 1.000000
0  -27.119455 -68.395744 38.288574  -0.086528 -0.021926 0.996008  0.077724 0.840020 1 0 1.000000
skin_0dam
0  -29.420700 -54.681141 38.392929  -0.130504 -0.021888 0.991206  0.065766 0.910967 1 0 1.000000
0  -28.363668 -61.692009 38.354191  -0.135747 -0.031150 0.990254  0.071259 0.874693 1 0 1.000000
0  -28.253561 -61.702019 38.366116  -0.080472 -0.017513 0.996603  0.071831 0.874635 1 0 1.000000
skin_0dam
0  -29.420700 -54.681141 38.392929  -0.130504 -0.021888 0.991206  0.065766 0.910967 1 0 1.000000
0  -28.253561 -61.702019 38.366116  -0.080472 -0.017513 0.996603  0.071831 0.874635 1 0 1.000000
0  -13.906563 -56.128487 39.536411  -0.042733 0.025276 0.998767  0.146383 0.902957 1 0 1.000000
skin_0dam
0  -13.741402 -62.837440 39.537571  -0.050273 -0.007014 0.998711  0.147241 0.868227 1 0 1.000000
0  -13.906563 -56.128487 39.536411  -0.042733 0.025276 0.998767  0.146383 0.902957 1 0 1.000000
0  -28.253561 -61.702019 38.366116  -0.080472 -0.017513 0.996603  0.071831 0.874635 1 0 1.000000
skin_0dam
0  -13.906563 -56.128487 39.536411  -0.042733 0.025276 0.998767  0.146383 0.902957 1 0 1.000000
0  -13.741402 -62.837440 39.537571  -0.050273 -0.007014 0.998711  0.147241 0.868227 1 0 1.000000
0  0.000004 -56.310577 39.729187  -0.002076 0.034976 0.999386  0.218645 0.901927 1 0 1.000000
skin_0dam
0  0.000004 -62.992790 39.783272  -0.001376 0.000483 0.999999  0.218645 0.867312 1 0 1.000000
0  0.000004 -56.310577 39.729187  -0.002076 0.034976 0.999386  0.218645 0.901927 1 0 1.000000
0  -13.741402 -62.837440 39.537571  -0.050273 -0.007014 0.998711  0.147241 0.868227 1 0 1.000000
skin_0dam
0  0.000004 -56.310577 39.729187  -0.002076 0.034976 0.999386  0.218645 0.901927 1 0 1.000000
0  0.000004 -62.992790 39.783272  -0.001376 0.000483 0.999999  0.218645 0.867312 1 0 1.000000
0  13.906574 -56.128487 39.536411  0.038240 0.011850 0.999198  0.290908 0.902957 1 0 1.000000
skin_0dam
0  13.741413 -62.837440 39.537571  0.049469 -0.007080 0.998751  0.290050 0.868227 1 0 1.000000
0  13.906574 -56.128487 39.536411  0.038240 0.011850 0.999198  0.290908 0.902957 1 0 1.000000
0  0.000004 -62.992790 39.783272  -0.001376 0.000483 0.999999  0.218645 0.867312 1 0 1.000000
skin_0dam
0  13.906574 -56.128487 39.536411  0.038240 0.011850 0.999198  0.290908 0.902957 1 0 1.000000
0  13.741413 -62.837440 39.537571  0.049469 -0.007080 0.998751  0.290050 0.868227 1 0 1.000000
0  29.420712 -54.681133 38.392921  0.133623 -0.030364 0.990567  0.371524 0.910967 1 0 1.000000
skin_0dam
0  28.253574 -61.702011 38.366108  0.083158 -0.020234 0.996331  0.365460 0.874635 1 0 1.000000
0  29.420712 -54.681133 38.392921  0.133623 -0.030364 0.990567  0.371524 0.910967 1 0 1.000000
0  13.741413 -62.837440 39.537571  0.049469 -0.007080 0.998751  0.290050 0.868227 1 0 1.000000
skin_0dam
0  28.363682 -61.692001 38.354179  0.135732 -0.031151 0.990256  0.366032 0.874693 1 0 1.000000
0  29.420712 -54.681133 38.392921  0.133623 -0.030364 0.990567  0.371524 0.910967 1 0 1.000000
0  28.253574 -61.702011 38.366108  0.083158 -0.020234 0.996331  0.365460 0.874635 1 0 1.000000
skin_0dam
0  28.363682 -61.692001 38.354179  0.135732 -0.031151 0.990256  0.366032 0.874693 1 0 1.000000
0  28.528843 -61.639076 38.327446  0.193062 -0.039244 0.980401  0.366890 0.874979 1 0 1.000000
0  29.420712 -54.681133 38.392921  0.133623 -0.030364 0.990567  0.371524 0.910967 1 0 1.000000
skin_0dam
0  28.528843 -61.639076 38.327446  0.193062 -0.039244 0.980401  0.366890 0.874979 1 0 1.000000
0  28.363682 -61.692001 38.354179  0.135732 -0.031151 0.990256  0.366032 0.874693 1 0 1.000000
0  27.581913 -68.368599 38.219875  0.209975 -0.044194 0.976707  0.361970 0.840192 1 0 1.000000
skin_0dam
0  27.758091 -68.349533 38.185047  0.213609 -0.046512 0.975811  0.362885 0.840306 1 0 1.000000
0  28.528843 -61.639076 38.327446  0.193062 -0.039244 0.980401  0.366890 0.874979 1 0 1.000000
0  27.581913 -68.368599 38.219875  0.209975 -0.044194 0.976707  0.361970 0.840192 1 0 1.000000
skin_0dam
0  27.581913 -68.368599 38.219875  0.209975 -0.044194 0.976707  0.361970 0.840192 1 0 1.000000
0  26.172543 -76.020454 38.181946  0.273939 -0.074315 0.958871  0.354646 0.800599 1 0 1.000000
0  27.758091 -68.349533 38.185047  0.213609 -0.046512 0.975811  0.362885 0.840306 1 0 1.000000
skin_0dam
0  26.568928 -75.986176 38.068417  0.256636 -0.070378 0.963942  0.356706 0.800828 1 0 1.000000
0  27.758091 -68.349533 38.185047  0.213609 -0.046512 0.975811  0.362885 0.840306 1 0 1.000000
0  26.172543 -76.020454 38.181946  0.273939 -0.074315 0.958871  0.354646 0.800599 1 0 1.000000
skin_0dam
0  26.568928 -75.986176 38.068417  0.256636 -0.070378 0.963942  0.356706 0.800828 1 0 1.000000
0  26.172543 -76.020454 38.181946  0.273939 -0.074315 0.958871  0.354646 0.800599 1 0 1.000000
0  25.291683 -83.825188 37.660015  0.313226 -0.121165 0.941917  0.350069 0.760434 1 0 1.000000
skin_0dam
0  26.568928 -75.986176 38.068417  0.256636 -0.070378 0.963942  0.356706 0.800828 1 0 1.000000
0  25.291683 -83.825188 37.660015  0.313226 -0.121165 0.941917  0.350069 0.760434 1 0 1.000000
0  26.822174 -75.959030 37.999729  0.222269 -0.070237 0.972452  0.358022 0.800999 1 0 1.000000
skin_0dam
0  23.871296 -91.735916 36.937225  0.333053 -0.156916 0.929760  0.342688 0.719811 1 0 1.000000
0  23.144588 -91.824493 37.188137  0.335075 -0.154810 0.929386  0.338912 0.719239 1 0 1.000000
0  22.527985 -98.968475 36.133125  0.341284 -0.202082 0.917980  0.335708 0.682736 1 0 1.000000
skin_0dam
0  23.871296 -91.735916 36.937225  0.333053 -0.156916 0.929760  0.342688 0.719811 1 0 1.000000
0  25.291683 -83.825188 37.660015  0.313226 -0.121165 0.941917  0.350069 0.760434 1 0 1.000000
0  23.144588 -91.824493 37.188137  0.335075 -0.154810 0.929386  0.338912 0.719239 1 0 1.000000
skin_0dam
0  24.730137 -83.874680 37.852245  0.313244 -0.118371 0.942267  0.347151 0.760091 1 0 1.000000
0  23.144588 -91.824493 37.188137  0.335075 -0.154810 0.929386  0.338912 0.719239 1 0 1.000000
0  25.291683 -83.825188 37.660015  0.313226 -0.121165 0.941917  0.350069 0.760434 1 0 1.000000
skin_0dam
0  24.730137 -83.874680 37.852245  0.313244 -0.118371 0.942267  0.347151 0.760091 1 0 1.000000
0  25.291683 -83.825188 37.660015  0.313226 -0.121165 0.941917  0.350069 0.760434 1 0 1.000000
0  26.172543 -76.020454 38.181946  0.273939 -0.074315 0.958871  0.354646 0.800599 1 0 1.000000
skin_0dam
0  26.172543 -76.020454 38.181946  0.273939 -0.074315 0.958871  0.354646 0.800599 1 0 1.000000
0  25.963337 -76.037598 38.238708  0.189138 -0.059040 0.980174  0.353559 0.800484 1 0 1.000000
0  24.730137 -83.874680 37.852245  0.313244 -0.118371 0.942267  0.347151 0.760091 1 0 1.000000
skin_0dam
0  26.172543 -76.020454 38.181946  0.273939 -0.074315 0.958871  0.354646 0.800599 1 0 1.000000
0  27.581913 -68.368599 38.219875  0.209975 -0.044194 0.976707  0.361970 0.840192 1 0 1.000000
0  25.963337 -76.037598 38.238708  0.189138 -0.059040 0.980174  0.353559 0.800484 1 0 1.000000
skin_0dam
0  27.350689 -68.386696 38.265667  0.129336 -0.029302 0.991168  0.360768 0.840077 1 0 1.000000
0  25.963337 -76.037598 38.238708  0.189138 -0.059040 0.980174  0.353559 0.800484 1 0 1.000000
0  27.581913 -68.368599 38.219875  0.209975 -0.044194 0.976707  0.361970 0.840192 1 0 1.000000
skin_0dam
0  27.350689 -68.386696 38.265667  0.129336 -0.029302 0.991168  0.360768 0.840077 1 0 1.000000
0  27.581913 -68.368599 38.219875  0.209975 -0.044194 0.976707  0.361970 0.840192 1 0 1.000000
0  28.363682 -61.692001 38.354179  0.135732 -0.031151 0.990256  0.366032 0.874693 1 0 1.000000
skin_0dam
0  27.350689 -68.386696 38.265667  0.129336 -0.029302 0.991168  0.360768 0.840077 1 0 1.000000
0  28.363682 -61.692001 38.354179  0.135732 -0.031151 0.990256  0.366032 0.874693 1 0 1.000000
0  27.119465 -68.395744 38.288567  0.088141 -0.021909 0.995867  0.359566 0.840020 1 0 1.000000
skin_0dam
0  28.253574 -61.702011 38.366108  0.083158 -0.020234 0.996331  0.365460 0.874635 1 0 1.000000
0  27.119465 -68.395744 38.288567  0.088141 -0.021909 0.995867  0.359566 0.840020 1 0 1.000000
0  28.363682 -61.692001 38.354179  0.135732 -0.031151 0.990256  0.366032 0.874693 1 0 1.000000
skin_0dam
0  27.119465 -68.395744 38.288567  0.088141 -0.021909 0.995867  0.359566 0.840020 1 0 1.000000
0  28.253574 -61.702011 38.366108  0.083158 -0.020234 0.996331  0.365460 0.874635 1 0 1.000000
0  13.389069 -69.231171 39.477989  0.054236 -0.011825 0.998458  0.288219 0.835157 1 0 1.000000
skin_0dam
0  13.741413 -62.837440 39.537571  0.049469 -0.007080 0.998751  0.290050 0.868227 1 0 1.000000
0  13.389069 -69.231171 39.477989  0.054236 -0.011825 0.998458  0.288219 0.835157 1 0 1.000000
0  28.253574 -61.702011 38.366108  0.083158 -0.020234 0.996331  0.365460 0.874635 1 0 1.000000
skin_0dam
0  13.389069 -69.231171 39.477989  0.054236 -0.011825 0.998458  0.288219 0.835157 1 0 1.000000
0  13.741413 -62.837440 39.537571  0.049469 -0.007080 0.998751  0.290050 0.868227 1 0 1.000000
0  0.000004 -69.348816 39.775658  -0.001073 -0.003735 0.999992  0.218645 0.834413 1 0 1.000000
skin_0dam
0  0.000004 -62.992790 39.783272  -0.001376 0.000483 0.999999  0.218645 0.867312 1 0 1.000000
0  0.000004 -69.348816 39.775658  -0.001073 -0.003735 0.999992  0.218645 0.834413 1 0 1.000000
0  13.741413 -62.837440 39.537571  0.049469 -0.007080 0.998751  0.290050 0.868227 1 0 1.000000
skin_0dam
0  0.000004 -69.348816 39.775658  -0.001073 -0.003735 0.999992  0.218645 0.834413 1 0 1.000000
0  0.000004 -62.992790 39.783272  -0.001376 0.000483 0.999999  0.218645 0.867312 1 0 1.000000
0  -13.389057 -69.231171 39.477989  -0.054964 -0.010588 0.998432  0.149072 0.835157 1 0 1.000000
skin_0dam
0  -13.741402 -62.837440 39.537571  -0.050273 -0.007014 0.998711  0.147241 0.868227 1 0 1.000000
0  -13.389057 -69.231171 39.477989  -0.054964 -0.010588 0.998432  0.149072 0.835157 1 0 1.000000
0  0.000004 -62.992790 39.783272  -0.001376 0.000483 0.999999  0.218645 0.867312 1 0 1.000000
skin_0dam
0  -13.389057 -69.231171 39.477989  -0.054964 -0.010588 0.998432  0.149072 0.835157 1 0 1.000000
0  -13.741402 -62.837440 39.537571  -0.050273 -0.007014 0.998711  0.147241 0.868227 1 0 1.000000
0  -27.119455 -68.395744 38.288574  -0.086528 -0.021926 0.996008  0.077724 0.840020 1 0 1.000000
skin_0dam
0  -28.253561 -61.702019 38.366116  -0.080472 -0.017513 0.996603  0.071831 0.874635 1 0 1.000000
0  -27.119455 -68.395744 38.288574  -0.086528 -0.021926 0.996008  0.077724 0.840020 1 0 1.000000
0  -13.741402 -62.837440 39.537571  -0.050273 -0.007014 0.998711  0.147241 0.868227 1 0 1.000000
skin_0dam
0  -27.350679 -68.386696 38.265675  -0.129334 -0.029300 0.991168  0.076523 0.840077 1 0 1.000000
0  -27.119455 -68.395744 38.288574  -0.086528 -0.021926 0.996008  0.077724 0.840020 1 0 1.000000
0  -28.363668 -61.692009 38.354191  -0.135747 -0.031150 0.990254  0.071259 0.874693 1 0 1.000000
skin_0dam
0  -27.119455 -68.395744 38.288574  -0.086528 -0.021926 0.996008  0.077724 0.840020 1 0 1.000000
0  -27.350679 -68.386696 38.265675  -0.129334 -0.029300 0.991168  0.076523 0.840077 1 0 1.000000
0  -25.754122 -76.046646 38.261616  -0.092430 -0.031239 0.995229  0.084819 0.800427 1 0 1.000000
skin_0dam
0  -27.119455 -68.395744 38.288574  -0.086528 -0.021926 0.996008  0.077724 0.840020 1 0 1.000000
0  -25.754122 -76.046646 38.261616  -0.092430 -0.031239 0.995229  0.084819 0.800427 1 0 1.000000
0  -13.389057 -69.231171 39.477989  -0.054964 -0.010588 0.998432  0.149072 0.835157 1 0 1.000000
skin_0dam
0  -12.849531 -76.661736 39.442810  -0.059083 -0.029135 0.997828  0.151875 0.796708 1 0 1.000000
0  -13.389057 -69.231171 39.477989  -0.054964 -0.010588 0.998432  0.149072 0.835157 1 0 1.000000
0  -25.754122 -76.046646 38.261616  -0.092430 -0.031239 0.995229  0.084819 0.800427 1 0 1.000000
skin_0dam
0  -13.389057 -69.231171 39.477989  -0.054964 -0.010588 0.998432  0.149072 0.835157 1 0 1.000000
0  -12.849531 -76.661736 39.442810  -0.059083 -0.029135 0.997828  0.151875 0.796708 1 0 1.000000
0  0.000004 -69.348816 39.775658  -0.001073 -0.003735 0.999992  0.218645 0.834413 1 0 1.000000
skin_0dam
0  0.000004 -76.756485 39.749523  -0.000729 -0.022636 0.999744  0.218645 0.796079 1 0 1.000000
0  0.000004 -69.348816 39.775658  -0.001073 -0.003735 0.999992  0.218645 0.834413 1 0 1.000000
0  -12.849531 -76.661736 39.442810  -0.059083 -0.029135 0.997828  0.151875 0.796708 1 0 1.000000
skin_0dam
0  0.000004 -69.348816 39.775658  -0.001073 -0.003735 0.999992  0.218645 0.834413 1 0 1.000000
0  0.000004 -76.756485 39.749523  -0.000729 -0.022636 0.999744  0.218645 0.796079 1 0 1.000000
0  13.389069 -69.231171 39.477989  0.054236 -0.011825 0.998458  0.288219 0.835157 1 0 1.000000
skin_0dam
0  12.849545 -76.661736 39.442810  0.058242 -0.028879 0.997885  0.285416 0.796708 1 0 1.000000
0  13.389069 -69.231171 39.477989  0.054236 -0.011825 0.998458  0.288219 0.835157 1 0 1.000000
0  0.000004 -76.756485 39.749523  -0.000729 -0.022636 0.999744  0.218645 0.796079 1 0 1.000000
skin_0dam
0  13.389069 -69.231171 39.477989  0.054236 -0.011825 0.998458  0.288219 0.835157 1 0 1.000000
0  12.849545 -76.661736 39.442810  0.058242 -0.028879 0.997885  0.285416 0.796708 1 0 1.000000
0  27.119465 -68.395744 38.288567  0.088141 -0.021909 0.995867  0.359566 0.840020 1 0 1.000000
skin_0dam
0  25.754131 -76.046646 38.261608  0.094120 -0.037891 0.994840  0.352472 0.800427 1 0 1.000000
0  27.119465 -68.395744 38.288567  0.088141 -0.021909 0.995867  0.359566 0.840020 1 0 1.000000
0  12.849545 -76.661736 39.442810  0.058242 -0.028879 0.997885  0.285416 0.796708 1 0 1.000000
skin_0dam
0  27.119465 -68.395744 38.288567  0.088141 -0.021909 0.995867  0.359566 0.840020 1 0 1.000000
0  25.754131 -76.046646 38.261608  0.094120 -0.037891 0.994840  0.352472 0.800427 1 0 1.000000
0  27.350689 -68.386696 38.265667  0.129336 -0.029302 0.991168  0.360768 0.840077 1 0 1.000000
skin_0dam
0  25.963337 -76.037598 38.238708  0.189138 -0.059040 0.980174  0.353559 0.800484 1 0 1.000000
0  27.350689 -68.386696 38.265667  0.129336 -0.029302 0.991168  0.360768 0.840077 1 0 1.000000
0  25.754131 -76.046646 38.261608  0.094120 -0.037891 0.994840  0.352472 0.800427 1 0 1.000000
skin_0dam
0  21.603085 -99.095169 36.453686  0.345773 -0.216638 0.912967  0.330902 0.681935 1 0 1.000000
0  22.527985 -98.968475 36.133125  0.341284 -0.202082 0.917980  0.335708 0.682736 1 0 1.000000
0  23.144588 -91.824493 37.188137  0.335075 -0.154810 0.929386  0.338912 0.719239 1 0 1.000000
skin_0dam
0  23.144588 -91.824493 37.188137  0.335075 -0.154810 0.929386  0.338912 0.719239 1 0 1.000000
0  22.913364 -91.850677 37.267799  0.236121 -0.138569 0.961793  0.337710 0.719067 1 0 1.000000
0  21.603085 -99.095169 36.453686  0.345773 -0.216638 0.912967  0.330902 0.681935 1 0 1.000000
skin_0dam
0  23.144588 -91.824493 37.188137  0.335075 -0.154810 0.929386  0.338912 0.719239 1 0 1.000000
0  24.730137 -83.874680 37.852245  0.313244 -0.118371 0.942267  0.347151 0.760091 1 0 1.000000
0  22.913364 -91.850677 37.267799  0.236121 -0.138569 0.961793  0.337710 0.719067 1 0 1.000000
skin_0dam
0  24.498909 -83.901825 37.920940  0.189845 -0.100939 0.976611  0.345949 0.759919 1 0 1.000000
0  22.913364 -91.850677 37.267799  0.236121 -0.138569 0.961793  0.337710 0.719067 1 0 1.000000
0  24.730137 -83.874680 37.852245  0.313244 -0.118371 0.942267  0.347151 0.760091 1 0 1.000000
skin_0dam
0  24.498909 -83.901825 37.920940  0.189845 -0.100939 0.976611  0.345949 0.759919 1 0 1.000000
0  24.730137 -83.874680 37.852245  0.313244 -0.118371 0.942267  0.347151 0.760091 1 0 1.000000
0  25.963337 -76.037598 38.238708  0.189138 -0.059040 0.980174  0.353559 0.800484 1 0 1.000000
skin_0dam
0  24.498909 -83.901825 37.920940  0.189845 -0.100939 0.976611  0.345949 0.759919 1 0 1.000000
0  25.963337 -76.037598 38.238708  0.189138 -0.059040 0.980174  0.353559 0.800484 1 0 1.000000
0  24.256672 -83.910889 37.943836  0.099305 -0.080857 0.991766  0.344691 0.759862 1 0 1.000000
skin_0dam
0  25.754131 -76.046646 38.261608  0.094120 -0.037891 0.994840  0.352472 0.800427 1 0 1.000000
0  24.256672 -83.910889 37.943836  0.099305 -0.080857 0.991766  0.344691 0.759862 1 0 1.000000
0  25.963337 -76.037598 38.238708  0.189138 -0.059040 0.980174  0.353559 0.800484 1 0 1.000000
skin_0dam
0  24.256672 -83.910889 37.943836  0.099305 -0.080857 0.991766  0.344691 0.759862 1 0 1.000000
0  25.754131 -76.046646 38.261608  0.094120 -0.037891 0.994840  0.352472 0.800427 1 0 1.000000
0  12.166874 -84.305634 39.116814  0.064318 -0.074582 0.995139  0.281868 0.757287 1 0 1.000000
skin_0dam
0  12.849545 -76.661736 39.442810  0.058242 -0.028879 0.997885  0.285416 0.796708 1 0 1.000000
0  12.166874 -84.305634 39.116814  0.064318 -0.074582 0.995139  0.281868 0.757287 1 0 1.000000
0  25.754131 -76.046646 38.261608  0.094120 -0.037891 0.994840  0.352472 0.800427 1 0 1.000000
skin_0dam
0  12.166874 -84.305634 39.116814  0.064318 -0.074582 0.995139  0.281868 0.757287 1 0 1.000000
0  12.849545 -76.661736 39.442810  0.058242 -0.028879 0.997885  0.285416 0.796708 1 0 1.000000
0  0.000004 -84.365555 39.442585  -0.002525 -0.064817 0.997894  0.218645 0.756829 1 0 1.000000
skin_0dam
0  0.000004 -76.756485 39.749523  -0.000729 -0.022636 0.999744  0.218645 0.796079 1 0 1.000000
0  0.000004 -84.365555 39.442585  -0.002525 -0.064817 0.997894  0.218645 0.756829 1 0 1.000000
0  12.849545 -76.661736 39.442810  0.058242 -0.028879 0.997885  0.285416 0.796708 1 0 1.000000
skin_0dam
0  0.000004 -84.365555 39.442585  -0.002525 -0.064817 0.997894  0.218645 0.756829 1 0 1.000000
0  0.000004 -76.756485 39.749523  -0.000729 -0.022636 0.999744  0.218645 0.796079 1 0 1.000000
0  -12.166866 -84.305634 39.116814  -0.061911 -0.074482 0.995299  0.155423 0.757287 1 0 1.000000
skin_0dam
0  -12.849531 -76.661736 39.442810  -0.059083 -0.029135 0.997828  0.151875 0.796708 1 0 1.000000
0  -12.166866 -84.305634 39.116814  -0.061911 -0.074482 0.995299  0.155423 0.757287 1 0 1.000000
0  0.000004 -76.756485 39.749523  -0.000729 -0.022636 0.999744  0.218645 0.796079 1 0 1.000000
skin_0dam
0  -12.166866 -84.305634 39.116814  -0.061911 -0.074482 0.995299  0.155423 0.757287 1 0 1.000000
0  -12.849531 -76.661736 39.442810  -0.059083 -0.029135 0.997828  0.151875 0.796708 1 0 1.000000
0  -24.256659 -83.910889 37.943836  -0.099292 -0.071627 0.992477  0.092600 0.759862 1 0 1.000000
skin_0dam
0  -25.754122 -76.046646 38.261616  -0.092430 -0.031239 0.995229  0.084819 0.800427 1 0 1.000000
0  -24.256659 -83.910889 37.943836  -0.099292 -0.071627 0.992477  0.092600 0.759862 1 0 1.000000
0  -12.849531 -76.661736 39.442810  -0.059083 -0.029135 0.997828  0.151875 0.796708 1 0 1.000000
skin_0dam
0  -25.754122 -76.046646 38.261616  -0.092430 -0.031239 0.995229  0.084819 0.800427 1 0 1.000000
0  -25.963327 -76.037598 38.238716  -0.189131 -0.059090 0.980172  0.083732 0.800484 1 0 1.000000
0  -24.256659 -83.910889 37.943836  -0.099292 -0.071627 0.992477  0.092600 0.759862 1 0 1.000000
skin_0dam
0  -25.963327 -76.037598 38.238716  -0.189131 -0.059090 0.980172  0.083732 0.800484 1 0 1.000000
0  -25.754122 -76.046646 38.261616  -0.092430 -0.031239 0.995229  0.084819 0.800427 1 0 1.000000
0  -27.350679 -68.386696 38.265675  -0.129334 -0.029300 0.991168  0.076523 0.840077 1 0 1.000000
skin_0dam
0  -27.350679 -68.386696 38.265675  -0.129334 -0.029300 0.991168  0.076523 0.840077 1 0 1.000000
0  -27.581905 -68.368599 38.219883  -0.209984 -0.044195 0.976706  0.075321 0.840192 1 0 1.000000
0  -25.963327 -76.037598 38.238716  -0.189131 -0.059090 0.980172  0.083732 0.800484 1 0 1.000000
skin_0dam
0  21.382870 -99.122314 36.522381  0.211914 -0.196209 0.957389  0.329757 0.681763 1 0 1.000000
0  21.603085 -99.095169 36.453686  0.345773 -0.216638 0.912967  0.330902 0.681935 1 0 1.000000
0  22.913364 -91.850677 37.267799  0.236121 -0.138569 0.961793  0.337710 0.719067 1 0 1.000000
skin_0dam
0  -24.498896 -83.901825 37.920940  -0.189864 -0.100940 0.976608  0.091342 0.759919 1 0 1.000000
0  -25.963327 -76.037598 38.238716  -0.189131 -0.059090 0.980172  0.083732 0.800484 1 0 1.000000
0  -24.730122 -83.874680 37.852245  -0.316948 -0.122630 0.940482  0.090140 0.760091 1 0 1.000000
skin_0dam
0  -24.498896 -83.901825 37.920940  -0.189864 -0.100940 0.976608  0.091342 0.759919 1 0 1.000000
0  -24.256659 -83.910889 37.943836  -0.099292 -0.071627 0.992477  0.092600 0.759862 1 0 1.000000
0  -25.963327 -76.037598 38.238716  -0.189131 -0.059090 0.980172  0.083732 0.800484 1 0 1.000000
skin_0dam
0  -22.527975 -98.968475 36.133129  -0.341301 -0.202080 0.917975  0.101583 0.682736 1 0 1.000000
0  -23.871283 -91.735916 36.937225  -0.333143 -0.154905 0.930065  0.094603 0.719811 1 0 1.000000
0  -22.748190 -98.931313 36.052505  -0.255276 -0.192229 0.947566  0.100439 0.682965 1 0 1.000000
skin_0dam
0  -23.871283 -91.735916 36.937225  -0.333143 -0.154905 0.930065  0.094603 0.719811 1 0 1.000000
0  -22.527975 -98.968475 36.133129  -0.341301 -0.202080 0.917975  0.101583 0.682736 1 0 1.000000
0  -23.144575 -91.824493 37.188137  -0.334905 -0.158013 0.928908  0.098379 0.719239 1 0 1.000000
skin_0dam
0  -23.144575 -91.824493 37.188137  -0.334905 -0.158013 0.928908  0.098379 0.719239 1 0 1.000000
0  -24.730122 -83.874680 37.852245  -0.316948 -0.122630 0.940482  0.090140 0.760091 1 0 1.000000
0  -23.871283 -91.735916 36.937225  -0.333143 -0.154905 0.930065  0.094603 0.719811 1 0 1.000000
skin_0dam
0  -23.144575 -91.824493 37.188137  -0.334905 -0.158013 0.928908  0.098379 0.719239 1 0 1.000000
0  -22.913349 -91.850677 37.267799  -0.219569 -0.134326 0.966305  0.099581 0.719067 1 0 1.000000
0  -24.730122 -83.874680 37.852245  -0.316948 -0.122630 0.940482  0.090140 0.760091 1 0 1.000000
skin_0dam
0  -24.498896 -83.901825 37.920940  -0.189864 -0.100940 0.976608  0.091342 0.759919 1 0 1.000000
0  -24.730122 -83.874680 37.852245  -0.316948 -0.122630 0.940482  0.090140 0.760091 1 0 1.000000
0  -22.913349 -91.850677 37.267799  -0.219569 -0.134326 0.966305  0.099581 0.719067 1 0 1.000000
skin_0dam
0  -22.913349 -91.850677 37.267799  -0.219569 -0.134326 0.966305  0.099581 0.719067 1 0 1.000000
0  -22.671112 -91.859726 37.290691  -0.103286 -0.109858 0.988566  0.100839 0.719010 1 0 1.000000
0  -24.498896 -83.901825 37.920940  -0.189864 -0.100940 0.976608  0.091342 0.759919 1 0 1.000000
skin_0dam
0  -24.256659 -83.910889 37.943836  -0.099292 -0.071627 0.992477  0.092600 0.759862 1 0 1.000000
0  -24.498896 -83.901825 37.920940  -0.189864 -0.100940 0.976608  0.091342 0.759919 1 0 1.000000
0  -22.671112 -91.859726 37.290691  -0.103286 -0.109858 0.988566  0.100839 0.719010 1 0 1.000000
skin_0dam
0  -24.256659 -83.910889 37.943836  -0.099292 -0.071627 0.992477  0.092600 0.759862 1 0 1.000000
0  -22.671112 -91.859726 37.290691  -0.103286 -0.109858 0.988566  0.100839 0.719010 1 0 1.000000
0  -12.166866 -84.305634 39.116814  -0.061911 -0.074482 0.995299  0.155423 0.757287 1 0 1.000000
skin_0dam
0  -21.195675 -107.146820 34.372814  -0.105683 -0.218443 0.970110  0.108506 0.641197 1 0 1.000000
0  -22.968405 -98.922264 36.029610  -0.120085 -0.187985 0.974803  0.099295 0.683022 1 0 1.000000
0  -27.537863 -105.954224 33.981102  -0.113998 -0.207650 0.971538  0.075550 0.647548 1 0 1.000000
skin_0dam
0  -21.195675 -107.146820 34.372814  -0.105683 -0.218443 0.970110  0.108506 0.641197 1 0 1.000000
0  -20.986469 -107.189728 34.387619  -0.205640 -0.236125 0.949714  0.109593 0.640969 1 0 1.000000
0  -22.968405 -98.922264 36.029610  -0.120085 -0.187985 0.974803  0.099295 0.683022 1 0 1.000000
skin_0dam
0  -22.748190 -98.931313 36.052505  -0.255276 -0.192229 0.947566  0.100439 0.682965 1 0 1.000000
0  -22.968405 -98.922264 36.029610  -0.120085 -0.187985 0.974803  0.099295 0.683022 1 0 1.000000
0  -20.986469 -107.189728 34.387619  -0.205640 -0.236125 0.949714  0.109593 0.640969 1 0 1.000000
skin_0dam
0  -20.986469 -107.189728 34.387619  -0.205640 -0.236125 0.949714  0.109593 0.640969 1 0 1.000000
0  -20.777266 -107.216881 34.456314  -0.354047 -0.256675 0.899315  0.110680 0.640797 1 0 1.000000
0  -22.748190 -98.931313 36.052505  -0.255276 -0.192229 0.947566  0.100439 0.682965 1 0 1.000000
skin_0dam
0  -22.527975 -98.968475 36.133129  -0.341301 -0.202080 0.917975  0.101583 0.682736 1 0 1.000000
0  -22.748190 -98.931313 36.052505  -0.255276 -0.192229 0.947566  0.100439 0.682965 1 0 1.000000
0  -20.777266 -107.216881 34.456314  -0.354047 -0.256675 0.899315  0.110680 0.640797 1 0 1.000000
skin_0dam
0  -22.527975 -98.968475 36.133129  -0.341301 -0.202080 0.917975  0.101583 0.682736 1 0 1.000000
0  -20.777266 -107.216881 34.456314  -0.354047 -0.256675 0.899315  0.110680 0.640797 1 0 1.000000
0  -21.603071 -99.095169 36.453690  -0.345864 -0.219461 0.912258  0.106389 0.681935 1 0 1.000000
skin_0dam
0  -21.603071 -99.095169 36.453690  -0.345864 -0.219461 0.912258  0.106389 0.681935 1 0 1.000000
0  -23.144575 -91.824493 37.188137  -0.334905 -0.158013 0.928908  0.098379 0.719239 1 0 1.000000
0  -22.527975 -98.968475 36.133129  -0.341301 -0.202080 0.917975  0.101583 0.682736 1 0 1.000000
skin_0dam
0  -21.603071 -99.095169 36.453690  -0.345864 -0.219461 0.912258  0.106389 0.681935 1 0 1.000000
0  -21.382856 -99.122314 36.522385  -0.250692 -0.200605 0.947054  0.107534 0.681763 1 0 1.000000
0  -23.144575 -91.824493 37.188137  -0.334905 -0.158013 0.928908  0.098379 0.719239 1 0 1.000000
skin_0dam
0  -22.913349 -91.850677 37.267799  -0.219569 -0.134326 0.966305  0.099581 0.719067 1 0 1.000000
0  -23.144575 -91.824493 37.188137  -0.334905 -0.158013 0.928908  0.098379 0.719239 1 0 1.000000
0  -21.382856 -99.122314 36.522385  -0.250692 -0.200605 0.947054  0.107534 0.681763 1 0 1.000000
skin_0dam
0  -21.382856 -99.122314 36.522385  -0.250692 -0.200605 0.947054  0.107534 0.681763 1 0 1.000000
0  -21.151630 -99.130402 36.556248  -0.112661 -0.150395 0.982186  0.108735 0.681706 1 0 1.000000
0  -22.913349 -91.850677 37.267799  -0.219569 -0.134326 0.966305  0.099581 0.719067 1 0 1.000000
skin_0dam
0  -22.671112 -91.859726 37.290691  -0.103286 -0.109858 0.988566  0.100839 0.719010 1 0 1.000000
0  -22.913349 -91.850677 37.267799  -0.219569 -0.134326 0.966305  0.099581 0.719067 1 0 1.000000
0  -21.151630 -99.130402 36.556248  -0.112661 -0.150395 0.982186  0.108735 0.681706 1 0 1.000000
skin_0dam
0  -22.671112 -91.859726 37.290691  -0.103286 -0.109858 0.988566  0.100839 0.719010 1 0 1.000000
0  -21.151630 -99.130402 36.556248  -0.112661 -0.150395 0.982186  0.108735 0.681706 1 0 1.000000
0  -11.219940 -92.164383 38.356445  -0.067325 -0.101193 0.992586  0.160343 0.716950 1 0 1.000000
skin_0dam
0  -11.219940 -92.164383 38.356445  -0.067325 -0.101193 0.992586  0.160343 0.716950 1 0 1.000000
0  -12.166866 -84.305634 39.116814  -0.061911 -0.074482 0.995299  0.155423 0.757287 1 0 1.000000
0  -22.671112 -91.859726 37.290691  -0.103286 -0.109858 0.988566  0.100839 0.719010 1 0 1.000000
skin_0dam
0  -12.166866 -84.305634 39.116814  -0.061911 -0.074482 0.995299  0.155423 0.757287 1 0 1.000000
0  -11.219940 -92.164383 38.356445  -0.067325 -0.101193 0.992586  0.160343 0.716950 1 0 1.000000
0  0.000004 -84.365555 39.442585  -0.002525 -0.064817 0.997894  0.218645 0.756829 1 0 1.000000
skin_0dam
0  0.000008 -92.469872 38.781075  -0.001338 -0.092844 0.995680  0.218645 0.715177 1 0 1.000000
0  0.000004 -84.365555 39.442585  -0.002525 -0.064817 0.997894  0.218645 0.756829 1 0 1.000000
0  -11.219940 -92.164383 38.356445  -0.067325 -0.101193 0.992586  0.160343 0.716950 1 0 1.000000
skin_0dam
0  0.000004 -84.365555 39.442585  -0.002525 -0.064817 0.997894  0.218645 0.756829 1 0 1.000000
0  0.000008 -92.469872 38.781075  -0.001338 -0.092844 0.995680  0.218645 0.715177 1 0 1.000000
0  12.166874 -84.305634 39.116814  0.064318 -0.074582 0.995139  0.281868 0.757287 1 0 1.000000
skin_0dam
0  11.219952 -92.164383 38.356445  0.067596 -0.101298 0.992557  0.276948 0.716950 1 0 1.000000
0  12.166874 -84.305634 39.116814  0.064318 -0.074582 0.995139  0.281868 0.757287 1 0 1.000000
0  0.000008 -92.469872 38.781075  -0.001338 -0.092844 0.995680  0.218645 0.715177 1 0 1.000000
skin_0dam
0  12.166874 -84.305634 39.116814  0.064318 -0.074582 0.995139  0.281868 0.757287 1 0 1.000000
0  11.219952 -92.164383 38.356445  0.067596 -0.101298 0.992557  0.276948 0.716950 1 0 1.000000
0  24.256672 -83.910889 37.943836  0.099305 -0.080857 0.991766  0.344691 0.759862 1 0 1.000000
skin_0dam
0  19.290829 -107.450798 34.940990  0.123723 -0.215131 0.968716  0.318886 0.639367 1 0 1.000000
0  21.151642 -99.130402 36.556244  0.115674 -0.168879 0.978826  0.328556 0.681706 1 0 1.000000
0  9.216000 -108.158020 35.953407  0.088817 -0.208859 0.973904  0.266535 0.635247 1 0 1.000000
skin_0dam
0  10.449200 -99.663498 37.663956  0.072593 -0.154737 0.985285  0.272943 0.678445 1 0 1.000000
0  9.216000 -108.158020 35.953407  0.088817 -0.208859 0.973904  0.266535 0.635247 1 0 1.000000
0  21.151642 -99.130402 36.556244  0.115674 -0.168879 0.978826  0.328556 0.681706 1 0 1.000000
skin_0dam
0  21.151642 -99.130402 36.556244  0.115674 -0.168879 0.978826  0.328556 0.681706 1 0 1.000000
0  22.671124 -91.859726 37.290691  0.104749 -0.109303 0.988474  0.336452 0.719010 1 0 1.000000
0  10.449200 -99.663498 37.663956  0.072593 -0.154737 0.985285  0.272943 0.678445 1 0 1.000000
skin_0dam
0  11.219952 -92.164383 38.356445  0.067596 -0.101298 0.992557  0.276948 0.716950 1 0 1.000000
0  10.449200 -99.663498 37.663956  0.072593 -0.154737 0.985285  0.272943 0.678445 1 0 1.000000
0  22.671124 -91.859726 37.290691  0.104749 -0.109303 0.988474  0.336452 0.719010 1 0 1.000000
skin_0dam
0  10.449200 -99.663498 37.663956  0.072593 -0.154737 0.985285  0.272943 0.678445 1 0 1.000000
0  11.219952 -92.164383 38.356445  0.067596 -0.101298 0.992557  0.276948 0.716950 1 0 1.000000
0  0.000008 -99.875076 38.025105  -0.000334 -0.149624 0.988743  0.218645 0.677186 1 0 1.000000
skin_0dam
0  0.000008 -92.469872 38.781075  -0.001338 -0.092844 0.995680  0.218645 0.715177 1 0 1.000000
0  0.000008 -99.875076 38.025105  -0.000334 -0.149624 0.988743  0.218645 0.677186 1 0 1.000000
0  11.219952 -92.164383 38.356445  0.067596 -0.101298 0.992557  0.276948 0.716950 1 0 1.000000
skin_0dam
0  0.000008 -99.875076 38.025105  -0.000334 -0.149624 0.988743  0.218645 0.677186 1 0 1.000000
0  0.000008 -92.469872 38.781075  -0.001338 -0.092844 0.995680  0.218645 0.715177 1 0 1.000000
0  -10.449188 -99.663498 37.663956  -0.074657 -0.154662 0.985143  0.164348 0.678445 1 0 1.000000
skin_0dam
0  -11.219940 -92.164383 38.356445  -0.067325 -0.101193 0.992586  0.160343 0.716950 1 0 1.000000
0  -10.449188 -99.663498 37.663956  -0.074657 -0.154662 0.985143  0.164348 0.678445 1 0 1.000000
0  0.000008 -92.469872 38.781075  -0.001338 -0.092844 0.995680  0.218645 0.715177 1 0 1.000000
skin_0dam
0  -10.449188 -99.663498 37.663956  -0.074657 -0.154662 0.985143  0.164348 0.678445 1 0 1.000000
0  -11.219940 -92.164383 38.356445  -0.067325 -0.101193 0.992586  0.160343 0.716950 1 0 1.000000
0  -21.151630 -99.130402 36.556248  -0.112661 -0.150395 0.982186  0.108735 0.681706 1 0 1.000000
skin_0dam
0  -21.151630 -99.130402 36.556248  -0.112661 -0.150395 0.982186  0.108735 0.681706 1 0 1.000000
0  -19.290815 -107.450798 34.940994  -0.120338 -0.214023 0.969388  0.118404 0.639367 1 0 1.000000
0  -10.449188 -99.663498 37.663956  -0.074657 -0.154662 0.985143  0.164348 0.678445 1 0 1.000000
skin_0dam
0  -21.151630 -99.130402 36.556248  -0.112661 -0.150395 0.982186  0.108735 0.681706 1 0 1.000000
0  -21.382856 -99.122314 36.522385  -0.250692 -0.200605 0.947054  0.107534 0.681763 1 0 1.000000
0  -19.290815 -107.450798 34.940994  -0.120338 -0.214023 0.969388  0.118404 0.639367 1 0 1.000000
skin_0dam
0  -19.511030 -107.430786 34.917137  -0.250920 -0.238074 0.938275  0.117260 0.639481 1 0 1.000000
0  -19.290815 -107.450798 34.940994  -0.120338 -0.214023 0.969388  0.118404 0.639367 1 0 1.000000
0  -21.382856 -99.122314 36.522385  -0.250692 -0.200605 0.947054  0.107534 0.681763 1 0 1.000000
skin_0dam
0  -19.511030 -107.430786 34.917137  -0.250920 -0.238074 0.938275  0.117260 0.639481 1 0 1.000000
0  -21.382856 -99.122314 36.522385  -0.250692 -0.200605 0.947054  0.107534 0.681763 1 0 1.000000
0  -19.709225 -107.403633 34.848446  -0.356164 -0.254717 0.899037  0.116230 0.639653 1 0 1.000000
skin_0dam
0  -21.603071 -99.095169 36.453690  -0.345864 -0.219461 0.912258  0.106389 0.681935 1 0 1.000000
0  -19.709225 -107.403633 34.848446  -0.356164 -0.254717 0.899037  0.116230 0.639653 1 0 1.000000
0  -21.382856 -99.122314 36.522385  -0.250692 -0.200605 0.947054  0.107534 0.681763 1 0 1.000000
skin_0dam
0  -19.709225 -107.403633 34.848446  -0.356164 -0.254717 0.899037  0.116230 0.639653 1 0 1.000000
0  -21.603071 -99.095169 36.453690  -0.345864 -0.219461 0.912258  0.106389 0.681935 1 0 1.000000
0  -20.777266 -107.216881 34.456314  -0.354047 -0.256675 0.899315  0.110680 0.640797 1 0 1.000000
skin_0dam
0  9.216000 -108.158020 35.953407  0.088817 -0.208859 0.973904  0.266535 0.635247 1 0 1.000000
0  10.449200 -99.663498 37.663956  0.072593 -0.154737 0.985285  0.272943 0.678445 1 0 1.000000
0  0.000008 -108.526993 36.284115  0.012979 -0.199332 0.979846  0.218645 0.633187 1 0 1.000000
skin_0dam
0  0.000008 -99.875076 38.025105  -0.000334 -0.149624 0.988743  0.218645 0.677186 1 0 1.000000
0  0.000008 -108.526993 36.284115  0.012979 -0.199332 0.979846  0.218645 0.633187 1 0 1.000000
0  10.449200 -99.663498 37.663956  0.072593 -0.154737 0.985285  0.272943 0.678445 1 0 1.000000
skin_0dam
0  0.000008 -108.526993 36.284115  0.012979 -0.199332 0.979846  0.218645 0.633187 1 0 1.000000
0  0.000008 -99.875076 38.025105  -0.000334 -0.149624 0.988743  0.218645 0.677186 1 0 1.000000
0  -9.215986 -108.158020 35.953407  -0.064760 -0.203605 0.976909  0.170756 0.635247 1 0 1.000000
skin_0dam
0  -10.449188 -99.663498 37.663956  -0.074657 -0.154662 0.985143  0.164348 0.678445 1 0 1.000000
0  -9.215986 -108.158020 35.953407  -0.064760 -0.203605 0.976909  0.170756 0.635247 1 0 1.000000
0  0.000008 -99.875076 38.025105  -0.000334 -0.149624 0.988743  0.218645 0.677186 1 0 1.000000
skin_0dam
0  -9.215986 -108.158020 35.953407  -0.064760 -0.203605 0.976909  0.170756 0.635247 1 0 1.000000
0  -10.449188 -99.663498 37.663956  -0.074657 -0.154662 0.985143  0.164348 0.678445 1 0 1.000000
0  -19.290815 -107.450798 34.940994  -0.120338 -0.214023 0.969388  0.118404 0.639367 1 0 1.000000
skin_0dam
0  22.671124 -91.859726 37.290691  0.104749 -0.109303 0.988474  0.336452 0.719010 1 0 1.000000
0  24.256672 -83.910889 37.943836  0.099305 -0.080857 0.991766  0.344691 0.759862 1 0 1.000000
0  11.219952 -92.164383 38.356445  0.067596 -0.101298 0.992557  0.276948 0.716950 1 0 1.000000
skin_0dam
0  24.256672 -83.910889 37.943836  0.099305 -0.080857 0.991766  0.344691 0.759862 1 0 1.000000
0  22.671124 -91.859726 37.290691  0.104749 -0.109303 0.988474  0.336452 0.719010 1 0 1.000000
0  24.498909 -83.901825 37.920940  0.189845 -0.100939 0.976611  0.345949 0.759919 1 0 1.000000
skin_0dam
0  22.913364 -91.850677 37.267799  0.236121 -0.138569 0.961793  0.337710 0.719067 1 0 1.000000
0  24.498909 -83.901825 37.920940  0.189845 -0.100939 0.976611  0.345949 0.759919 1 0 1.000000
0  22.671124 -91.859726 37.290691  0.104749 -0.109303 0.988474  0.336452 0.719010 1 0 1.000000
skin_0dam
0  22.671124 -91.859726 37.290691  0.104749 -0.109303 0.988474  0.336452 0.719010 1 0 1.000000
0  21.151642 -99.130402 36.556244  0.115674 -0.168879 0.978826  0.328556 0.681706 1 0 1.000000
0  22.913364 -91.850677 37.267799  0.236121 -0.138569 0.961793  0.337710 0.719067 1 0 1.000000
skin_0dam
0  21.382870 -99.122314 36.522381  0.211914 -0.196209 0.957389  0.329757 0.681763 1 0 1.000000
0  22.913364 -91.850677 37.267799  0.236121 -0.138569 0.961793  0.337710 0.719067 1 0 1.000000
0  21.151642 -99.130402 36.556244  0.115674 -0.168879 0.978826  0.328556 0.681706 1 0 1.000000
skin_0dam
0  21.151642 -99.130402 36.556244  0.115674 -0.168879 0.978826  0.328556 0.681706 1 0 1.000000
0  19.290829 -107.450798 34.940990  0.123723 -0.215131 0.968716  0.318886 0.639367 1 0 1.000000
0  21.382870 -99.122314 36.522381  0.211914 -0.196209 0.957389  0.329757 0.681763 1 0 1.000000
skin_0dam
0  19.511044 -107.430786 34.917133  0.280235 -0.243078 0.928645  0.320031 0.639481 1 0 1.000000
0  21.382870 -99.122314 36.522381  0.211914 -0.196209 0.957389  0.329757 0.681763 1 0 1.000000
0  19.290829 -107.450798 34.940990  0.123723 -0.215131 0.968716  0.318886 0.639367 1 0 1.000000
skin_0dam
0  21.382870 -99.122314 36.522381  0.211914 -0.196209 0.957389  0.329757 0.681763 1 0 1.000000
0  19.511044 -107.430786 34.917133  0.280235 -0.243078 0.928645  0.320031 0.639481 1 0 1.000000
0  21.603085 -99.095169 36.453686  0.345773 -0.216638 0.912967  0.330902 0.681935 1 0 1.000000
skin_0dam
0  19.709232 -107.403633 34.848442  0.365159 -0.256293 0.894971  0.321061 0.639653 1 0 1.000000
0  21.603085 -99.095169 36.453686  0.345773 -0.216638 0.912967  0.330902 0.681935 1 0 1.000000
0  19.511044 -107.430786 34.917133  0.280235 -0.243078 0.928645  0.320031 0.639481 1 0 1.000000
skin_0dam
0  19.709232 -107.403633 34.848442  0.365159 -0.256293 0.894971  0.321061 0.639653 1 0 1.000000
0  20.777279 -107.216881 34.456306  0.354140 -0.256579 0.899306  0.326611 0.640797 1 0 1.000000
0  21.603085 -99.095169 36.453686  0.345773 -0.216638 0.912967  0.330902 0.681935 1 0 1.000000
skin_0dam
0  22.527985 -98.968475 36.133125  0.341284 -0.202082 0.917980  0.335708 0.682736 1 0 1.000000
0  21.603085 -99.095169 36.453686  0.345773 -0.216638 0.912967  0.330902 0.681935 1 0 1.000000
0  20.777279 -107.216881 34.456306  0.354140 -0.256579 0.899306  0.326611 0.640797 1 0 1.000000
skin_0dam
0  22.527985 -98.968475 36.133125  0.341284 -0.202082 0.917980  0.335708 0.682736 1 0 1.000000
0  20.777279 -107.216881 34.456306  0.354140 -0.256579 0.899306  0.326611 0.640797 1 0 1.000000
0  22.748199 -98.931313 36.052505  0.255269 -0.192226 0.947569  0.336852 0.682965 1 0 1.000000
skin_0dam
0  22.527985 -98.968475 36.133125  0.341284 -0.202082 0.917980  0.335708 0.682736 1 0 1.000000
0  22.748199 -98.931313 36.052505  0.255269 -0.192226 0.947569  0.336852 0.682965 1 0 1.000000
0  23.871296 -91.735916 36.937225  0.333053 -0.156916 0.929760  0.342688 0.719811 1 0 1.000000
skin_0dam
0  24.113533 -91.709717 36.857563  0.236874 -0.137239 0.961798  0.343947 0.719983 1 0 1.000000
0  23.871296 -91.735916 36.937225  0.333053 -0.156916 0.929760  0.342688 0.719811 1 0 1.000000
0  22.748199 -98.931313 36.052505  0.255269 -0.192226 0.947569  0.336852 0.682965 1 0 1.000000
skin_0dam
0  23.871296 -91.735916 36.937225  0.333053 -0.156916 0.929760  0.342688 0.719811 1 0 1.000000
0  24.113533 -91.709717 36.857563  0.236874 -0.137239 0.961798  0.343947 0.719983 1 0 1.000000
0  25.291683 -83.825188 37.660015  0.313226 -0.121165 0.941917  0.350069 0.760434 1 0 1.000000
skin_0dam
0  25.544930 -83.798996 37.580357  0.223238 -0.104882 0.969105  0.351385 0.760606 1 0 1.000000
0  25.291683 -83.825188 37.660015  0.313226 -0.121165 0.941917  0.350069 0.760434 1 0 1.000000
0  24.113533 -91.709717 36.857563  0.236874 -0.137239 0.961798  0.343947 0.719983 1 0 1.000000
skin_0dam
0  25.544930 -83.798996 37.580357  0.223238 -0.104882 0.969105  0.351385 0.760606 1 0 1.000000
0  26.822174 -75.959030 37.999729  0.222269 -0.070237 0.972452  0.358022 0.800999 1 0 1.000000
0  25.291683 -83.825188 37.660015  0.313226 -0.121165 0.941917  0.350069 0.760434 1 0 1.000000
skin_0dam
0  26.822174 -75.959030 37.999729  0.222269 -0.070237 0.972452  0.358022 0.800999 1 0 1.000000
0  25.544930 -83.798996 37.580357  0.223238 -0.104882 0.969105  0.351385 0.760606 1 0 1.000000
0  27.075420 -75.939964 37.964897  0.155092 -0.059986 0.986077  0.359338 0.801114 1 0 1.000000
skin_0dam
0  -28.528830 -61.639084 38.327454  -0.193070 -0.039245 0.980400  0.070401 0.874979 1 0 1.000000
0  -27.758078 -68.349533 38.185055  -0.213611 -0.046512 0.975811  0.074406 0.840306 1 0 1.000000
0  -27.581905 -68.368599 38.219883  -0.209984 -0.044195 0.976706  0.075321 0.840192 1 0 1.000000
skin_0dam
0  -28.528830 -61.639084 38.327454  -0.193070 -0.039245 0.980400  0.070401 0.874979 1 0 1.000000
0  -28.705002 -61.586159 38.300716  -0.178524 -0.038423 0.983185  0.069485 0.875265 1 0 1.000000
0  -27.758078 -68.349533 38.185055  -0.213611 -0.046512 0.975811  0.074406 0.840306 1 0 1.000000
skin_0dam
0  -28.011324 -68.331436 38.139263  -0.193627 -0.045716 0.980009  0.073090 0.840421 1 0 1.000000
0  -27.758078 -68.349533 38.185055  -0.213611 -0.046512 0.975811  0.074406 0.840306 1 0 1.000000
0  -28.705002 -61.586159 38.300716  -0.178524 -0.038423 0.983185  0.069485 0.875265 1 0 1.000000
skin_0dam
0  -28.011324 -68.331436 38.139263  -0.193627 -0.045716 0.980009  0.073090 0.840421 1 0 1.000000
0  -28.705002 -61.586159 38.300716  -0.178524 -0.038423 0.983185  0.069485 0.875265 1 0 1.000000
0  -28.264572 -68.313339 38.093464  -0.158523 -0.040734 0.986515  0.071774 0.840535 1 0 1.000000
skin_0dam
0  -28.011324 -68.331436 38.139263  -0.193627 -0.045716 0.980009  0.073090 0.840421 1 0 1.000000
0  -28.264572 -68.313339 38.093464  -0.158523 -0.040734 0.986515  0.071774 0.840535 1 0 1.000000
0  -26.822165 -75.959030 37.999737  -0.222275 -0.070239 0.972451  0.079269 0.800999 1 0 1.000000
skin_0dam
0  -26.822165 -75.959030 37.999737  -0.222275 -0.070239 0.972451  0.079269 0.800999 1 0 1.000000
0  -26.568918 -75.986176 38.068424  -0.256635 -0.070378 0.963943  0.080585 0.800828 1 0 1.000000
0  -28.011324 -68.331436 38.139263  -0.193627 -0.045716 0.980009  0.073090 0.840421 1 0 1.000000
skin_0dam
0  -26.568918 -75.986176 38.068424  -0.256635 -0.070378 0.963943  0.080585 0.800828 1 0 1.000000
0  -26.822165 -75.959030 37.999737  -0.222275 -0.070239 0.972451  0.079269 0.800999 1 0 1.000000
0  -25.291670 -83.825188 37.660023  -0.309150 -0.117696 0.943702  0.087222 0.760434 1 0 1.000000
skin_0dam
0  -26.568918 -75.986176 38.068424  -0.256635 -0.070378 0.963943  0.080585 0.800828 1 0 1.000000
0  -25.291670 -83.825188 37.660023  -0.309150 -0.117696 0.943702  0.087222 0.760434 1 0 1.000000
0  -26.172531 -76.020454 38.181953  -0.273930 -0.074315 0.958874  0.082645 0.800599 1 0 1.000000
skin_0dam
0  -26.568918 -75.986176 38.068424  -0.256635 -0.070378 0.963943  0.080585 0.800828 1 0 1.000000
0  -26.172531 -76.020454 38.181953  -0.273930 -0.074315 0.958874  0.082645 0.800599 1 0 1.000000
0  -27.758078 -68.349533 38.185055  -0.213611 -0.046512 0.975811  0.074406 0.840306 1 0 1.000000
skin_0dam
0  -27.758078 -68.349533 38.185055  -0.213611 -0.046512 0.975811  0.074406 0.840306 1 0 1.000000
0  -28.011324 -68.331436 38.139263  -0.193627 -0.045716 0.980009  0.073090 0.840421 1 0 1.000000
0  -26.568918 -75.986176 38.068424  -0.256635 -0.070378 0.963943  0.080585 0.800828 1 0 1.000000
skin_0dam
0  -25.544916 -83.798996 37.580364  -0.223231 -0.104880 0.969107  0.085906 0.760606 1 0 1.000000
0  -25.291670 -83.825188 37.660023  -0.309150 -0.117696 0.943702  0.087222 0.760434 1 0 1.000000
0  -26.822165 -75.959030 37.999737  -0.222275 -0.070239 0.972451  0.079269 0.800999 1 0 1.000000
skin_0dam
0  -25.544916 -83.798996 37.580364  -0.223231 -0.104880 0.969107  0.085906 0.760606 1 0 1.000000
0  -24.113520 -91.709717 36.857563  -0.236894 -0.137197 0.961799  0.093344 0.719983 1 0 1.000000
0  -25.291670 -83.825188 37.660023  -0.309150 -0.117696 0.943702  0.087222 0.760434 1 0 1.000000
skin_0dam
0  -25.544916 -83.798996 37.580364  -0.223231 -0.104880 0.969107  0.085906 0.760606 1 0 1.000000
0  -25.798162 -83.780899 37.534569  -0.149056 -0.101400 0.983616  0.084590 0.760720 1 0 1.000000
0  -24.113520 -91.709717 36.857563  -0.236894 -0.137197 0.961799  0.093344 0.719983 1 0 1.000000
skin_0dam
0  -24.366766 -91.690659 36.822739  -0.134188 -0.124792 0.983067  0.092028 0.720097 1 0 1.000000
0  -24.113520 -91.709717 36.857563  -0.236894 -0.137197 0.961799  0.093344 0.719983 1 0 1.000000
0  -25.798162 -83.780899 37.534569  -0.149056 -0.101400 0.983616  0.084590 0.760720 1 0 1.000000
skin_0dam
0  -25.798162 -83.780899 37.534569  -0.149056 -0.101400 0.983616  0.084590 0.760720 1 0 1.000000
0  -25.544916 -83.798996 37.580364  -0.223231 -0.104880 0.969107  0.085906 0.760606 1 0 1.000000
0  -27.075411 -75.939964 37.964905  -0.154577 -0.065911 0.985780  0.077953 0.801114 1 0 1.000000
skin_0dam
0  -26.822165 -75.959030 37.999737  -0.222275 -0.070239 0.972451  0.079269 0.800999 1 0 1.000000
0  -27.075411 -75.939964 37.964905  -0.154577 -0.065911 0.985780  0.077953 0.801114 1 0 1.000000
0  -25.544916 -83.798996 37.580364  -0.223231 -0.104880 0.969107  0.085906 0.760606 1 0 1.000000
skin_0dam
0  -27.075411 -75.939964 37.964905  -0.154577 -0.065911 0.985780  0.077953 0.801114 1 0 1.000000
0  -26.822165 -75.959030 37.999737  -0.222275 -0.070239 0.972451  0.079269 0.800999 1 0 1.000000
0  -28.264572 -68.313339 38.093464  -0.158523 -0.040734 0.986515  0.071774 0.840535 1 0 1.000000
skin_0dam
0  -27.075411 -75.939964 37.964905  -0.154577 -0.065911 0.985780  0.077953 0.801114 1 0 1.000000
0  -28.264572 -68.313339 38.093464  -0.158523 -0.040734 0.986515  0.071774 0.840535 1 0 1.000000
0  -31.534761 -75.564964 37.324192  -0.162894 -0.058065 0.984934  0.054781 0.803345 1 0 1.000000
skin_0dam
0  -31.534761 -75.564964 37.324192  -0.162894 -0.058065 0.984934  0.054781 0.803345 1 0 1.000000
0  -30.730976 -83.354904 36.845047  -0.158453 -0.089416 0.983309  0.058958 0.763237 1 0 1.000000
0  -27.075411 -75.939964 37.964905  -0.154577 -0.065911 0.985780  0.077953 0.801114 1 0 1.000000
skin_0dam
0  -25.798162 -83.780899 37.534569  -0.149056 -0.101400 0.983616  0.084590 0.760720 1 0 1.000000
0  -27.075411 -75.939964 37.964905  -0.154577 -0.065911 0.985780  0.077953 0.801114 1 0 1.000000
0  -30.730976 -83.354904 36.845047  -0.158453 -0.089416 0.983309  0.058958 0.763237 1 0 1.000000
skin_0dam
0  -30.730976 -83.354904 36.845047  -0.158453 -0.089416 0.983309  0.058958 0.763237 1 0 1.000000
0  -29.773041 -91.263695 36.144325  -0.144892 -0.113439 0.982923  0.063936 0.722615 1 0 1.000000
0  -25.798162 -83.780899 37.534569  -0.149056 -0.101400 0.983616  0.084590 0.760720 1 0 1.000000
skin_0dam
0  -24.366766 -91.690659 36.822739  -0.134188 -0.124792 0.983067  0.092028 0.720097 1 0 1.000000
0  -25.798162 -83.780899 37.534569  -0.149056 -0.101400 0.983616  0.084590 0.760720 1 0 1.000000
0  -29.773041 -91.263695 36.144325  -0.144892 -0.113439 0.982923  0.063936 0.722615 1 0 1.000000
skin_0dam
0  -29.773041 -91.263695 36.144325  -0.144892 -0.113439 0.982923  0.063936 0.722615 1 0 1.000000
0  -28.782078 -98.503387 35.385059  -0.130841 -0.161056 0.978234  0.069085 0.685482 1 0 1.000000
0  -24.366766 -91.690659 36.822739  -0.134188 -0.124792 0.983067  0.092028 0.720097 1 0 1.000000
skin_0dam
0  -22.968405 -98.922264 36.029610  -0.120085 -0.187985 0.974803  0.099295 0.683022 1 0 1.000000
0  -24.366766 -91.690659 36.822739  -0.134188 -0.124792 0.983067  0.092028 0.720097 1 0 1.000000
0  -28.782078 -98.503387 35.385059  -0.130841 -0.161056 0.978234  0.069085 0.685482 1 0 1.000000
skin_0dam
0  -22.968405 -98.922264 36.029610  -0.120085 -0.187985 0.974803  0.099295 0.683022 1 0 1.000000
0  -22.748190 -98.931313 36.052505  -0.255276 -0.192229 0.947566  0.100439 0.682965 1 0 1.000000
0  -24.366766 -91.690659 36.822739  -0.134188 -0.124792 0.983067  0.092028 0.720097 1 0 1.000000
skin_0dam
0  -24.113520 -91.709717 36.857563  -0.236894 -0.137197 0.961799  0.093344 0.719983 1 0 1.000000
0  -24.366766 -91.690659 36.822739  -0.134188 -0.124792 0.983067  0.092028 0.720097 1 0 1.000000
0  -22.748190 -98.931313 36.052505  -0.255276 -0.192229 0.947566  0.100439 0.682965 1 0 1.000000
skin_0dam
0  -24.113520 -91.709717 36.857563  -0.236894 -0.137197 0.961799  0.093344 0.719983 1 0 1.000000
0  -22.748190 -98.931313 36.052505  -0.255276 -0.192229 0.947566  0.100439 0.682965 1 0 1.000000
0  -23.871283 -91.735916 36.937225  -0.333143 -0.154905 0.930065  0.094603 0.719811 1 0 1.000000
skin_0dam
0  -23.871283 -91.735916 36.937225  -0.333143 -0.154905 0.930065  0.094603 0.719811 1 0 1.000000
0  -25.291670 -83.825188 37.660023  -0.309150 -0.117696 0.943702  0.087222 0.760434 1 0 1.000000
0  -24.113520 -91.709717 36.857563  -0.236894 -0.137197 0.961799  0.093344 0.719983 1 0 1.000000
skin_0dam
0  -25.291670 -83.825188 37.660023  -0.309150 -0.117696 0.943702  0.087222 0.760434 1 0 1.000000
0  -23.871283 -91.735916 36.937225  -0.333143 -0.154905 0.930065  0.094603 0.719811 1 0 1.000000
0  -24.730122 -83.874680 37.852245  -0.316948 -0.122630 0.940482  0.090140 0.760091 1 0 1.000000
skin_0dam
0  -24.730122 -83.874680 37.852245  -0.316948 -0.122630 0.940482  0.090140 0.760091 1 0 1.000000
0  -26.172531 -76.020454 38.181953  -0.273930 -0.074315 0.958874  0.082645 0.800599 1 0 1.000000
0  -25.291670 -83.825188 37.660023  -0.309150 -0.117696 0.943702  0.087222 0.760434 1 0 1.000000
skin_0dam
0  -26.172531 -76.020454 38.181953  -0.273930 -0.074315 0.958874  0.082645 0.800599 1 0 1.000000
0  -24.730122 -83.874680 37.852245  -0.316948 -0.122630 0.940482  0.090140 0.760091 1 0 1.000000
0  -25.963327 -76.037598 38.238716  -0.189131 -0.059090 0.980172  0.083732 0.800484 1 0 1.000000
skin_0dam
0  -26.172531 -76.020454 38.181953  -0.273930 -0.074315 0.958874  0.082645 0.800599 1 0 1.000000
0  -25.963327 -76.037598 38.238716  -0.189131 -0.059090 0.980172  0.083732 0.800484 1 0 1.000000
0  -27.581905 -68.368599 38.219883  -0.209984 -0.044195 0.976706  0.075321 0.840192 1 0 1.000000
skin_0dam
0  -27.581905 -68.368599 38.219883  -0.209984 -0.044195 0.976706  0.075321 0.840192 1 0 1.000000
0  -27.758078 -68.349533 38.185055  -0.213611 -0.046512 0.975811  0.074406 0.840306 1 0 1.000000
0  -26.172531 -76.020454 38.181953  -0.273930 -0.074315 0.958874  0.082645 0.800599 1 0 1.000000
skin_0dam
0  -27.350679 -68.386696 38.265675  -0.129334 -0.029300 0.991168  0.076523 0.840077 1 0 1.000000
0  -28.363668 -61.692009 38.354191  -0.135747 -0.031150 0.990254  0.071259 0.874693 1 0 1.000000
0  -27.581905 -68.368599 38.219883  -0.209984 -0.044195 0.976706  0.075321 0.840192 1 0 1.000000
skin_0dam
0  -28.528830 -61.639084 38.327454  -0.193070 -0.039245 0.980400  0.070401 0.874979 1 0 1.000000
0  -27.581905 -68.368599 38.219883  -0.209984 -0.044195 0.976706  0.075321 0.840192 1 0 1.000000
0  -28.363668 -61.692009 38.354191  -0.135747 -0.031150 0.990254  0.071259 0.874693 1 0 1.000000
skin_0dam
0  -28.528830 -61.639084 38.327454  -0.193070 -0.039245 0.980400  0.070401 0.874979 1 0 1.000000
0  -28.363668 -61.692009 38.354191  -0.135747 -0.031150 0.990254  0.071259 0.874693 1 0 1.000000
0  -29.420700 -54.681141 38.392929  -0.130504 -0.021888 0.991206  0.065766 0.910967 1 0 1.000000
skin_0dam
0  -28.705002 -61.586159 38.300716  -0.178524 -0.038423 0.983185  0.069485 0.875265 1 0 1.000000
0  -28.528830 -61.639084 38.327454  -0.193070 -0.039245 0.980400  0.070401 0.874979 1 0 1.000000
0  -29.420700 -54.681141 38.392929  -0.130504 -0.021888 0.991206  0.065766 0.910967 1 0 1.000000
skin_0dam
0  -29.420700 -54.681141 38.392929  -0.130504 -0.021888 0.991206  0.065766 0.910967 1 0 1.000000
0  -28.958248 -61.557091 38.253960  -0.160984 -0.035084 0.986333  0.068170 0.875436 1 0 1.000000
0  -28.705002 -61.586159 38.300716  -0.178524 -0.038423 0.983185  0.069485 0.875265 1 0 1.000000
skin_0dam
0  -28.958248 -61.557091 38.253960  -0.160984 -0.035084 0.986333  0.068170 0.875436 1 0 1.000000
0  -28.264572 -68.313339 38.093464  -0.158523 -0.040734 0.986515  0.071774 0.840535 1 0 1.000000
0  -28.705002 -61.586159 38.300716  -0.178524 -0.038423 0.983185  0.069485 0.875265 1 0 1.000000
skin_0dam
0  -28.264572 -68.313339 38.093464  -0.158523 -0.040734 0.986515  0.071774 0.840535 1 0 1.000000
0  -28.958248 -61.557091 38.253960  -0.160984 -0.035084 0.986333  0.068170 0.875436 1 0 1.000000
0  -32.261471 -67.988388 37.512394  -0.165832 -0.037863 0.985427  0.051005 0.842480 1 0 1.000000
skin_0dam
0  -32.261471 -67.988388 37.512394  -0.165832 -0.037863 0.985427  0.051005 0.842480 1 0 1.000000
0  -31.534761 -75.564964 37.324192  -0.162894 -0.058065 0.984934  0.054781 0.803345 1 0 1.000000
0  -28.264572 -68.313339 38.093464  -0.158523 -0.040734 0.986515  0.071774 0.840535 1 0 1.000000
skin_0dam
0  -31.534761 -75.564964 37.324192  -0.162894 -0.058065 0.984934  0.054781 0.803345 1 0 1.000000
0  -32.261471 -67.988388 37.512394  -0.165832 -0.037863 0.985427  0.051005 0.842480 1 0 1.000000
0  -35.983101 -75.203400 36.529919  -0.181003 -0.051821 0.982116  0.031666 0.805577 1 0 1.000000
skin_0dam
0  -35.983101 -75.203400 36.529919  -0.181003 -0.051821 0.982116  0.031666 0.805577 1 0 1.000000
0  -35.652779 -82.942322 36.002098  -0.176888 -0.082402 0.980775  0.033383 0.765755 1 0 1.000000
0  -31.534761 -75.564964 37.324192  -0.162894 -0.058065 0.984934  0.054781 0.803345 1 0 1.000000
skin_0dam
0  -30.730976 -83.354904 36.845047  -0.158453 -0.089416 0.983309  0.058958 0.763237 1 0 1.000000
0  -31.534761 -75.564964 37.324192  -0.162894 -0.058065 0.984934  0.054781 0.803345 1 0 1.000000
0  -35.652779 -82.942322 36.002098  -0.176888 -0.082402 0.980775  0.033383 0.765755 1 0 1.000000
skin_0dam
0  -35.652779 -82.942322 36.002098  -0.176888 -0.082402 0.980775  0.033383 0.765755 1 0 1.000000
0  -35.157295 -90.860168 35.324268  -0.163761 -0.104465 0.980953  0.035957 0.725075 1 0 1.000000
0  -30.730976 -83.354904 36.845047  -0.158453 -0.089416 0.983309  0.058958 0.763237 1 0 1.000000
skin_0dam
0  -29.773041 -91.263695 36.144325  -0.144892 -0.113439 0.982923  0.063936 0.722615 1 0 1.000000
0  -30.730976 -83.354904 36.845047  -0.158453 -0.089416 0.983309  0.058958 0.763237 1 0 1.000000
0  -35.157295 -90.860168 35.324268  -0.163761 -0.104465 0.980953  0.035957 0.725075 1 0 1.000000
skin_0dam
0  -35.157295 -90.860168 35.324268  -0.163761 -0.104465 0.980953  0.035957 0.725075 1 0 1.000000
0  -34.584736 -98.108910 34.587902  -0.149413 -0.139088 0.978944  0.038933 0.687885 1 0 1.000000
0  -29.773041 -91.263695 36.144325  -0.144892 -0.113439 0.982923  0.063936 0.722615 1 0 1.000000
skin_0dam
0  -28.782078 -98.503387 35.385059  -0.130841 -0.161056 0.978234  0.069085 0.685482 1 0 1.000000
0  -29.773041 -91.263695 36.144325  -0.144892 -0.113439 0.982923  0.063936 0.722615 1 0 1.000000
0  -34.584736 -98.108910 34.587902  -0.149413 -0.139088 0.978944  0.038933 0.687885 1 0 1.000000
skin_0dam
0  -34.584736 -98.108910 34.587902  -0.149413 -0.139088 0.978944  0.038933 0.687885 1 0 1.000000
0  -33.869038 -104.774109 33.446796  -0.133073 -0.191740 0.972382  0.042652 0.653899 1 0 1.000000
0  -28.782078 -98.503387 35.385059  -0.130841 -0.161056 0.978234  0.069085 0.685482 1 0 1.000000
skin_0dam
0  -27.537863 -105.954224 33.981102  -0.113998 -0.207650 0.971538  0.075550 0.647548 1 0 1.000000
0  -28.782078 -98.503387 35.385059  -0.130841 -0.161056 0.978234  0.069085 0.685482 1 0 1.000000
0  -33.869038 -104.774109 33.446796  -0.133073 -0.191740 0.972382  0.042652 0.653899 1 0 1.000000
skin_0dam
0  -28.782078 -98.503387 35.385059  -0.130841 -0.161056 0.978234  0.069085 0.685482 1 0 1.000000
0  -27.537863 -105.954224 33.981102  -0.113998 -0.207650 0.971538  0.075550 0.647548 1 0 1.000000
0  -22.968405 -98.922264 36.029610  -0.120085 -0.187985 0.974803  0.099295 0.683022 1 0 1.000000
skin_0dam
0  -36.247360 -67.676857 36.777763  -0.186526 -0.035938 0.981792  0.030293 0.844426 1 0 1.000000
0  -35.983101 -75.203400 36.529919  -0.181003 -0.051821 0.982116  0.031666 0.805577 1 0 1.000000
0  -32.261471 -67.988388 37.512394  -0.165832 -0.037863 0.985427  0.051005 0.842480 1 0 1.000000
skin_0dam
0  -32.261471 -67.988388 37.512394  -0.165832 -0.037863 0.985427  0.051005 0.842480 1 0 1.000000
0  -32.900093 -61.057594 37.646568  -0.174216 -0.030827 0.984225  0.047686 0.878297 1 0 1.000000
0  -36.247360 -67.676857 36.777763  -0.186526 -0.035938 0.981792  0.030293 0.844426 1 0 1.000000
skin_0dam
0  -32.900093 -61.057594 37.646568  -0.174216 -0.030827 0.984225  0.047686 0.878297 1 0 1.000000
0  -32.261471 -67.988388 37.512394  -0.165832 -0.037863 0.985427  0.051005 0.842480 1 0 1.000000
0  -28.958248 -61.557091 38.253960  -0.160984 -0.035084 0.986333  0.068170 0.875436 1 0 1.000000
skin_0dam
0  -28.958248 -61.557091 38.253960  -0.160984 -0.035084 0.986333  0.068170 0.875436 1 0 1.000000
0  -29.420700 -54.681141 38.392929  -0.130504 -0.021888 0.991206  0.065766 0.910967 1 0 1.000000
0  -32.900093 -61.057594 37.646568  -0.174216 -0.030827 0.984225  0.047686 0.878297 1 0 1.000000
skin_0dam
0  -33.318504 -53.951298 37.765385  -0.180311 -0.039750 0.982806  0.045512 0.915029 1 0 1.000000
0  -32.900093 -61.057594 37.646568  -0.174216 -0.030827 0.984225  0.047686 0.878297 1 0 1.000000
0  -29.420700 -54.681141 38.392929  -0.130504 -0.021888 0.991206  0.065766 0.910967 1 0 1.000000
skin_0dam
0  -32.900093 -61.057594 37.646568  -0.174216 -0.030827 0.984225  0.047686 0.878297 1 0 1.000000
0  -33.318504 -53.951298 37.765385  -0.180311 -0.039750 0.982806  0.045512 0.915029 1 0 1.000000
0  -36.258369 -60.638714 37.002018  -0.194670 -0.027786 0.980475  0.030236 0.880757 1 0 1.000000
skin_0dam
0  -36.280392 -53.416973 37.177052  -0.217417 -0.043602 0.975104  0.030121 0.918062 1 0 1.000000
0  -36.258369 -60.638714 37.002018  -0.194670 -0.027786 0.980475  0.030236 0.880757 1 0 1.000000
0  -33.318504 -53.951298 37.765385  -0.180311 -0.039750 0.982806  0.045512 0.915029 1 0 1.000000
skin_0dam
0  -36.258369 -60.638714 37.002018  -0.194670 -0.027786 0.980475  0.030236 0.880757 1 0 1.000000
0  -36.247360 -67.676857 36.777763  -0.186526 -0.035938 0.981792  0.030293 0.844426 1 0 1.000000
0  -32.900093 -61.057594 37.646568  -0.174216 -0.030827 0.984225  0.047686 0.878297 1 0 1.000000
skin_0dam
0  -29.420700 -54.681141 38.392929  -0.130504 -0.021888 0.991206  0.065766 0.910967 1 0 1.000000
0  -29.993259 -48.308800 38.587013  -0.121440 -0.044888 0.991583  0.062791 0.943866 1 0 1.000000
0  -33.318504 -53.951298 37.765385  -0.180311 -0.039750 0.982806  0.045512 0.915029 1 0 1.000000
skin_0dam
0  -33.990158 -46.606434 38.084389  -0.200331 -0.054378 0.978218  0.042022 0.952906 1 0 1.000000
0  -33.318504 -53.951298 37.765385  -0.180311 -0.039750 0.982806  0.045512 0.915029 1 0 1.000000
0  -29.993259 -48.308800 38.587013  -0.121440 -0.044888 0.991583  0.062791 0.943866 1 0 1.000000
skin_0dam
0  -33.318504 -53.951298 37.765385  -0.180311 -0.039750 0.982806  0.045512 0.915029 1 0 1.000000
0  -33.990158 -46.606434 38.084389  -0.200331 -0.054378 0.978218  0.042022 0.952906 1 0 1.000000
0  -36.280392 -53.416973 37.177052  -0.217417 -0.043602 0.975104  0.030121 0.918062 1 0 1.000000
skin_0dam
0  -36.258369 -44.747616 37.601231  -0.244627 -0.046765 0.968489  0.030236 0.962747 1 0 1.000000
0  -36.280392 -53.416973 37.177052  -0.217417 -0.043602 0.975104  0.030121 0.918062 1 0 1.000000
0  -33.990158 -46.606434 38.084389  -0.200331 -0.054378 0.978218  0.042022 0.952906 1 0 1.000000
end
