version 1
nodes
0 "root" -1
1 "steering_wheel" 0
end
skeleton
time 0
0  0.000000 0.000000 0.000000  0.000000 -0.000000 0.000000
1  19.916300 17.934299 33.308498  0.000000 -0.000000 0.000000
end
triangles
plate
0  6.565347 122.952553 12.006356  0.000000 1.000000 -0.000000  0.013672 0.020478 1 0 1.000000
0  -6.592892 122.952553 12.006358  0.000000 1.000000 0.000000  0.982452 0.020478 1 0 1.000000
0  -6.592891 122.952553 17.814701  0.000000 1.000000 0.000000  0.982452 0.981445 1 0 1.000000
plate
0  -6.592891 122.952553 17.814701  0.000000 1.000000 0.000000  0.982452 0.981445 1 0 1.000000
0  6.565348 122.952553 17.814701  0.000000 1.000000 -0.000000  0.013672 0.981445 1 0 1.000000
0  6.565347 122.952553 12.006356  0.000000 1.000000 -0.000000  0.013672 0.020478 1 0 1.000000
plate
0  -6.496545 122.897499 11.676025  -0.212989 0.757920 -0.616597  0.979522 0.001923 1 0 1.000000
0  -6.868169 122.897499 12.006358  -0.582101 0.769109 -0.263875  0.995148 0.020478 1 0 1.000000
0  -6.730531 123.035133 12.061414  -0.187124 0.973888 -0.128554  0.989288 0.023408 1 0 1.000000
plate
0  -6.730530 123.035133 17.773409  -0.186818 0.973996 0.128185  0.989288 0.979492 1 0 1.000000
0  -6.482780 123.035133 17.993631  -0.155055 0.962460 0.222777  0.978545 0.991211 1 0 1.000000
0  -6.592891 122.952553 17.814701  0.407659 0.828921 -0.383020  0.982452 0.981445 1 0 1.000000
plate
0  6.565348 122.952553 17.814701  -0.407828 0.828756 -0.383198  0.013672 0.981445 1 0 1.000000
0  -6.592891 122.952553 17.814701  0.407659 0.828921 -0.383020  0.982452 0.981445 1 0 1.000000
0  -6.482780 123.035133 17.993631  -0.155055 0.962460 0.222777  0.978545 0.991211 1 0 1.000000
plate
0  -6.482780 123.035133 17.993631  -0.155055 0.962460 0.222777  0.978545 0.991211 1 0 1.000000
0  6.455237 123.035133 17.993631  0.162989 0.960195 0.226846  0.018555 0.991211 1 0 1.000000
0  6.565348 122.952553 17.814701  -0.407828 0.828756 -0.383198  0.013672 0.981445 1 0 1.000000
plate
0  6.455237 123.035133 17.993631  0.162989 0.960195 0.226846  0.018555 0.991211 1 0 1.000000
0  6.702986 123.035133 17.773409  0.186787 0.973598 0.131218  0.007813 0.979492 1 0 1.000000
0  6.565348 122.952553 17.814701  -0.407828 0.828756 -0.383198  0.013672 0.981445 1 0 1.000000
plate
0  6.702986 123.035133 17.773409  0.186787 0.973598 0.131218  0.007813 0.979492 1 0 1.000000
0  6.455237 123.035133 17.993631  0.162989 0.960195 0.226846  0.018555 0.991211 1 0 1.000000
0  6.482764 122.897499 18.158798  0.209252 0.754605 0.621920  0.017579 0.999023 1 0 1.000000
plate
0  6.482764 122.897499 18.158798  0.209252 0.754605 0.621920  0.017579 0.999023 1 0 1.000000
0  6.868152 122.897499 17.828465  0.580978 0.769163 0.266182  0.000977 0.982421 1 0 1.000000
0  6.702986 123.035133 17.773409  0.186787 0.973598 0.131218  0.007813 0.979492 1 0 1.000000
plate
0  6.702985 123.035133 12.061412  0.186737 0.973645 -0.130935  0.007813 0.023408 1 0 1.000000
0  6.702986 123.035133 17.773409  0.186787 0.973598 0.131218  0.007813 0.979492 1 0 1.000000
0  6.868152 122.897499 17.828465  0.580978 0.769163 0.266182  0.000977 0.982421 1 0 1.000000
plate
0  6.868152 122.897499 17.828465  0.580978 0.769163 0.266182  0.000977 0.982421 1 0 1.000000
0  6.868152 122.897499 12.006356  0.581084 0.769159 -0.265964  0.000977 0.020478 1 0 1.000000
0  6.702985 123.035133 12.061412  0.186737 0.973645 -0.130935  0.007813 0.023408 1 0 1.000000
plate
0  6.702985 123.035133 12.061412  0.186737 0.973645 -0.130935  0.007813 0.023408 1 0 1.000000
0  6.868152 122.897499 12.006356  0.581084 0.769159 -0.265964  0.000977 0.020478 1 0 1.000000
0  6.482764 122.897499 11.676023  0.209881 0.754519 -0.621812  0.017579 0.001923 1 0 1.000000
plate
0  6.482764 122.897499 11.676023  0.209881 0.754519 -0.621812  0.017579 0.001923 1 0 1.000000
0  6.455236 123.035133 11.827427  0.163343 0.960086 -0.227054  0.018555 0.010712 1 0 1.000000
0  6.702985 123.035133 12.061412  0.186737 0.973645 -0.130935  0.007813 0.023408 1 0 1.000000
plate
0  6.455236 123.035133 11.827427  0.163343 0.960086 -0.227054  0.018555 0.010712 1 0 1.000000
0  6.482764 122.897499 11.676023  0.209881 0.754519 -0.621812  0.017579 0.001923 1 0 1.000000
0  -6.496545 122.897499 11.676025  -0.212989 0.757920 -0.616597  0.979522 0.001923 1 0 1.000000
plate
0  -6.496545 122.897499 11.676025  -0.212989 0.757920 -0.616597  0.979522 0.001923 1 0 1.000000
0  -6.482781 123.035133 11.827429  -0.154639 0.962574 -0.222571  0.978545 0.010712 1 0 1.000000
0  6.455236 123.035133 11.827427  0.163343 0.960086 -0.227054  0.018555 0.010712 1 0 1.000000
plate
0  -6.730531 123.035133 12.061414  -0.187124 0.973888 -0.128554  0.989288 0.023408 1 0 1.000000
0  -6.482781 123.035133 11.827429  -0.154639 0.962574 -0.222571  0.978545 0.010712 1 0 1.000000
0  -6.496545 122.897499 11.676025  -0.212989 0.757920 -0.616597  0.979522 0.001923 1 0 1.000000
plate
0  -6.482781 123.035133 11.827429  -0.154639 0.962574 -0.222571  0.978545 0.010712 1 0 1.000000
0  -6.730531 123.035133 12.061414  -0.187124 0.973888 -0.128554  0.989288 0.023408 1 0 1.000000
0  -6.592892 122.952553 12.006358  0.408055 0.828410 0.383704  0.982452 0.020478 1 0 1.000000
plate
0  -6.592891 122.952553 17.814701  0.407659 0.828921 -0.383020  0.982452 0.981445 1 0 1.000000
0  -6.592892 122.952553 12.006358  0.408055 0.828410 0.383704  0.982452 0.020478 1 0 1.000000
0  -6.730531 123.035133 12.061414  -0.187124 0.973888 -0.128554  0.989288 0.023408 1 0 1.000000
plate
0  -6.730531 123.035133 12.061414  -0.187124 0.973888 -0.128554  0.989288 0.023408 1 0 1.000000
0  -6.730530 123.035133 17.773409  -0.186818 0.973996 0.128185  0.989288 0.979492 1 0 1.000000
0  -6.592891 122.952553 17.814701  0.407659 0.828921 -0.383020  0.982452 0.981445 1 0 1.000000
plate
0  -6.730530 123.035133 17.773409  -0.186818 0.973996 0.128185  0.989288 0.979492 1 0 1.000000
0  -6.730531 123.035133 12.061414  -0.187124 0.973888 -0.128554  0.989288 0.023408 1 0 1.000000
0  -6.868169 122.897499 12.006358  -0.582101 0.769109 -0.263875  0.995148 0.020478 1 0 1.000000
plate
0  -6.868169 122.897499 12.006358  -0.582101 0.769109 -0.263875  0.995148 0.020478 1 0 1.000000
0  -6.868168 122.897499 17.828465  -0.582021 0.769108 0.264055  0.995148 0.982421 1 0 1.000000
0  -6.730530 123.035133 17.773409  -0.186818 0.973996 0.128185  0.989288 0.979492 1 0 1.000000
plate
0  -6.730530 123.035133 17.773409  -0.186818 0.973996 0.128185  0.989288 0.979492 1 0 1.000000
0  -6.868168 122.897499 17.828465  -0.582021 0.769108 0.264055  0.995148 0.982421 1 0 1.000000
0  -6.496544 122.897499 18.158798  -0.213617 0.757976 0.616312  0.979522 0.999023 1 0 1.000000
plate
0  -6.496544 122.897499 18.158798  -0.213617 0.757976 0.616312  0.979522 0.999023 1 0 1.000000
0  -6.482780 123.035133 17.993631  -0.155055 0.962460 0.222777  0.978545 0.991211 1 0 1.000000
0  -6.730530 123.035133 17.773409  -0.186818 0.973996 0.128185  0.989288 0.979492 1 0 1.000000
plate
0  -6.482780 123.035133 17.993631  -0.155055 0.962460 0.222777  0.978545 0.991211 1 0 1.000000
0  -6.496544 122.897499 18.158798  -0.213617 0.757976 0.616312  0.979522 0.999023 1 0 1.000000
0  6.482764 122.897499 18.158798  0.209252 0.754605 0.621920  0.017579 0.999023 1 0 1.000000
plate
0  6.482764 122.897499 18.158798  0.209252 0.754605 0.621920  0.017579 0.999023 1 0 1.000000
0  6.455237 123.035133 17.993631  0.162989 0.960195 0.226846  0.018555 0.991211 1 0 1.000000
0  -6.482780 123.035133 17.993631  -0.155055 0.962460 0.222777  0.978545 0.991211 1 0 1.000000
plate
0  6.565347 122.952553 12.006356  -0.407652 0.829195 0.382434  0.013672 0.020478 1 0 1.000000
0  6.565348 122.952553 17.814701  -0.407828 0.828756 -0.383198  0.013672 0.981445 1 0 1.000000
0  6.702986 123.035133 17.773409  0.186787 0.973598 0.131218  0.007813 0.979492 1 0 1.000000
plate
0  6.702986 123.035133 17.773409  0.186787 0.973598 0.131218  0.007813 0.979492 1 0 1.000000
0  6.702985 123.035133 12.061412  0.186737 0.973645 -0.130935  0.007813 0.023408 1 0 1.000000
0  6.565347 122.952553 12.006356  -0.407652 0.829195 0.382434  0.013672 0.020478 1 0 1.000000
plate
0  6.702985 123.035133 12.061412  0.186737 0.973645 -0.130935  0.007813 0.023408 1 0 1.000000
0  6.455236 123.035133 11.827427  0.163343 0.960086 -0.227054  0.018555 0.010712 1 0 1.000000
0  6.565347 122.952553 12.006356  -0.407652 0.829195 0.382434  0.013672 0.020478 1 0 1.000000
plate
0  -6.592892 122.952553 12.006358  0.408055 0.828410 0.383704  0.982452 0.020478 1 0 1.000000
0  6.565347 122.952553 12.006356  -0.407652 0.829195 0.382434  0.013672 0.020478 1 0 1.000000
0  6.455236 123.035133 11.827427  0.163343 0.960086 -0.227054  0.018555 0.010712 1 0 1.000000
plate
0  6.455236 123.035133 11.827427  0.163343 0.960086 -0.227054  0.018555 0.010712 1 0 1.000000
0  -6.482781 123.035133 11.827429  -0.154639 0.962574 -0.222571  0.978545 0.010712 1 0 1.000000
0  -6.592892 122.952553 12.006358  0.408055 0.828410 0.383704  0.982452 0.020478 1 0 1.000000
end
