version 1
nodes
0 "root" -1
end
skeleton
time 0
0  0.000000 0.000000 0.000000  0.000000 -0.000000 0.000000
end
triangles
coplightred3
0  13.969772 8.838100 64.668350  0.001117 -0.999998 -0.001568  0.724854 0.184204 1 0 1.000000
0  18.227312 8.841881 65.290642  0.001100 -0.999998 -0.001456  0.520493 0.215546 1 0 1.000000
0  13.968240 8.837111 65.292702  0.001119 -0.999998 -0.001581  0.724854 0.215546 1 0 1.000000
coplightred3
0  18.229202 8.842777 64.669891  -0.000099 -0.930344 0.366689  0.520493 0.184204 1 0 1.000000
0  18.227312 8.841881 65.290642  0.001100 -0.999998 -0.001456  0.520493 0.215546 1 0 1.000000
0  13.969772 8.838100 64.668350  0.001117 -0.999998 -0.001568  0.724854 0.184204 1 0 1.000000
coplightred3
0  -22.717377 11.282650 65.333572  -0.553666 -0.832659 -0.011523  0.520493 0.215546 1 0 1.000000
0  -22.718401 11.291922 64.712921  -0.534148 -0.806812 0.252470  0.520493 0.184204 1 0 1.000000
0  -19.370358 9.057692 65.296700  -0.553625 -0.832684 -0.011698  0.724854 0.215546 1 0 1.000000
coplightred3
0  -19.371075 9.066950 64.672440  -0.553620 -0.832687 -0.011717  0.724854 0.184204 1 0 1.000000
0  -19.370358 9.057692 65.296700  -0.553625 -0.832684 -0.011698  0.724854 0.215546 1 0 1.000000
0  -22.718401 11.291922 64.712921  -0.534148 -0.806812 0.252470  0.520493 0.184204 1 0 1.000000
coplightred3
0  22.948092 11.282661 65.333572  0.553665 -0.832659 -0.011520  0.520493 0.215546 1 0 1.000000
0  19.601076 9.057703 65.296700  0.553625 -0.832684 -0.011692  0.724854 0.215546 1 0 1.000000
0  22.949123 11.291933 64.712921  0.533640 -0.807149 0.252468  0.520493 0.184204 1 0 1.000000
coplightred3
0  19.601797 9.066961 64.672440  0.553620 -0.832687 -0.011711  0.724854 0.184204 1 0 1.000000
0  22.949123 11.291933 64.712921  0.533640 -0.807149 0.252468  0.520493 0.184204 1 0 1.000000
0  19.601076 9.057703 65.296700  0.553625 -0.832684 -0.011692  0.724854 0.215546 1 0 1.000000
coplightred3
0  18.965878 15.860844 65.424683  0.001121 0.999677 0.025400  0.724854 0.215546 1 0 1.000000
0  23.224960 15.856127 65.422417  0.001113 0.999676 0.025448  0.520493 0.215546 1 0 1.000000
0  18.967417 15.876698 64.800606  0.001120 0.999677 0.025405  0.724854 0.184204 1 0 1.000000
coplightred3
0  23.226854 15.871923 64.801941  0.000707 0.920332 0.391138  0.520493 0.184204 1 0 1.000000
0  18.967417 15.876698 64.800606  0.001120 0.999677 0.025405  0.724854 0.184204 1 0 1.000000
0  23.224960 15.856127 65.422417  0.001113 0.999676 0.025448  0.520493 0.215546 1 0 1.000000
coplightred3
0  12.968666 15.860840 65.424683  0.001120 0.999677 0.025400  0.724854 0.215546 1 0 1.000000
0  17.227745 15.856127 65.422417  0.001112 0.999675 0.025448  0.520493 0.215546 1 0 1.000000
0  12.970254 15.876694 64.800606  0.001119 0.999677 0.025405  0.724854 0.184204 1 0 1.000000
coplightred3
0  17.229691 15.871923 64.801941  0.000729 0.920332 0.391138  0.520493 0.184204 1 0 1.000000
0  12.970254 15.876694 64.800606  0.001119 0.999677 0.025405  0.724854 0.184204 1 0 1.000000
0  17.227745 15.856127 65.422417  0.001112 0.999675 0.025448  0.520493 0.215546 1 0 1.000000
coplightred3
0  -12.737950 15.860836 65.424683  -0.001122 0.999677 0.025400  0.724854 0.215546 1 0 1.000000
0  -12.739486 15.876690 64.800606  -0.001121 0.999677 0.025405  0.724854 0.184204 1 0 1.000000
0  -16.997026 15.856115 65.422417  -0.001114 0.999676 0.025448  0.520493 0.215546 1 0 1.000000
coplightred3
0  -16.997026 15.856115 65.422417  -0.001114 0.999676 0.025448  0.520493 0.215546 1 0 1.000000
0  -12.739486 15.876690 64.800606  -0.001121 0.999677 0.025405  0.724854 0.184204 1 0 1.000000
0  -16.998922 15.871912 64.801933  0.000087 0.920333 0.391136  0.520493 0.184204 1 0 1.000000
coplightred3
0  -18.735170 15.860832 65.424683  -0.001121 0.999677 0.025406  0.724854 0.215546 1 0 1.000000
0  -18.736710 15.876690 64.800606  -0.001120 0.999676 0.025410  0.724854 0.184204 1 0 1.000000
0  -22.994246 15.856115 65.422417  -0.001115 0.999676 0.025443  0.520493 0.215546 1 0 1.000000
coplightred3
0  -22.994246 15.856115 65.422417  -0.001115 0.999676 0.025443  0.520493 0.215546 1 0 1.000000
0  -18.736710 15.876690 64.800606  -0.001120 0.999676 0.025410  0.724854 0.184204 1 0 1.000000
0  -22.996140 15.871908 64.801933  0.000085 0.920335 0.391131  0.520493 0.184204 1 0 1.000000
coplightred3
0  -13.739042 8.838089 64.668350  -0.001117 -0.999998 -0.001565  0.724854 0.184204 1 0 1.000000
0  -13.737454 8.837103 65.292702  -0.001118 -0.999998 -0.001578  0.724854 0.215546 1 0 1.000000
0  -17.996582 8.841869 65.290642  -0.001100 -0.999998 -0.001453  0.520493 0.215546 1 0 1.000000
coplightred3
0  -17.996582 8.841869 65.290642  -0.001100 -0.999998 -0.001453  0.520493 0.215546 1 0 1.000000
0  -17.998478 8.842766 64.669891  -0.000693 -0.930342 0.366692  0.520493 0.184204 1 0 1.000000
0  -13.739042 8.838089 64.668350  -0.001117 -0.999998 -0.001565  0.724854 0.184204 1 0 1.000000
end
