// Created by Crowbar 0.74
version 1
nodes
  0 "root" -1
end
skeleton
  time 0
    0 0.000000 0.000000 0.000000 0.000000 0.000000 0.000000
end
triangles
  phy
    0 4.795524 13.111760 -9.532208 0.143890 -0.800583 0.581690 0 0
    0 4.795292 5.007929 -15.420127 0.423169 -0.234100 0.875286 0 0
    0 4.795553 9.526128 -13.117954 0.049676 -0.543613 0.837865 0 0
  phy
    0 4.795524 13.111760 -9.532208 0.143890 -0.800583 0.581690 0 0
    0 4.795210 15.413868 -5.013954 0.994676 -0.099573 0.026544 0 0
    0 4.795292 5.007929 -15.420127 0.423169 -0.234100 0.875286 0 0
  phy
    0 4.795210 15.413868 -5.013954 0.994676 -0.099573 0.026544 0 0
    0 4.794769 -0.000585 -16.213472 0.724468 0.000114 0.689308 0 0
    0 4.795292 5.007929 -15.420127 0.423169 -0.234100 0.875286 0 0
  phy
    0 4.795210 15.413868 -5.013954 0.994676 -0.099573 0.026544 0 0
    0 4.794033 -5.009091 -15.420241 0.711495 0.181738 0.678783 0 0
    0 4.794769 -0.000585 -16.213472 0.724468 0.000114 0.689308 0 0
  phy
    0 4.795210 15.413868 -5.013954 0.994676 -0.099573 0.026544 0 0
    0 4.793158 -9.527355 -13.118176 0.798252 0.327989 0.505190 0 0
    0 4.794033 -5.009091 -15.420241 0.711495 0.181738 0.678783 0 0
  phy
    0 4.795210 15.413868 -5.013954 0.994676 -0.099573 0.026544 0 0
    0 4.792228 -13.113108 -9.532485 0.849082 0.410517 0.332469 0 0
    0 4.793158 -9.527355 -13.118176 0.798252 0.327989 0.505190 0 0
  phy
    0 4.795210 15.413868 -5.013954 0.994676 -0.099573 0.026544 0 0
    0 4.791334 -15.415275 -5.014320 0.877642 0.447474 0.171790 0 0
    0 4.792228 -13.113108 -9.532485 0.849082 0.410517 0.332469 0 0
  phy
    0 4.795210 15.413868 -5.013954 0.994676 -0.099573 0.026544 0 0
    0 4.790565 -16.208618 -0.005792 0.829114 0.559080 -0.000129 0 0
    0 4.791334 -15.415275 -5.014320 0.877642 0.447474 0.171790 0 0
  phy
    0 4.795210 15.413868 -5.013954 0.994676 -0.099573 0.026544 0 0
    0 4.789996 -15.415395 5.002723 0.967938 0.234442 -0.090188 0 0
    0 4.790565 -16.208618 -0.005792 0.829114 0.559080 -0.000129 0 0
  phy
    0 4.795210 15.413868 -5.013954 0.994676 -0.099573 0.026544 0 0
    0 4.789913 -5.009412 15.408903 0.976107 0.078005 -0.202808 0 0
    0 4.789996 -15.415395 5.002723 0.967938 0.234442 -0.090188 0 0
  phy
    0 4.795210 15.413868 -5.013954 0.994676 -0.099573 0.026544 0 0
    0 4.792047 9.525809 13.106947 0.908083 -0.263562 -0.325455 0 0
    0 4.789913 -5.009412 15.408903 0.976107 0.078005 -0.202808 0 0
  phy
    0 4.795210 15.413868 -5.013954 0.994676 -0.099573 0.026544 0 0
    0 4.793871 15.413756 5.003095 0.423117 -0.875282 -0.234208 0 0
    0 4.792047 9.525809 13.106947 0.908083 -0.263562 -0.325455 0 0
  phy
    0 4.795210 15.413868 -5.013954 0.994676 -0.099573 0.026544 0 0
    0 4.794640 16.207096 -0.005415 0.074362 -0.997231 0.000023 0 0
    0 4.793871 15.413756 5.003095 0.423117 -0.875282 -0.234208 0 0
  phy
    0 4.793871 15.413756 5.003095 0.423117 -0.875282 -0.234208 0 0
    0 4.792978 13.111597 9.521254 0.049535 -0.837864 -0.543627 0 0
    0 4.792047 9.525809 13.106947 0.908083 -0.263562 -0.325455 0 0
  phy
    0 4.792047 9.525809 13.106947 0.908083 -0.263562 -0.325455 0 0
    0 4.790436 -0.000944 16.202243 0.143569 -0.000014 -0.989640 0 0
    0 4.789913 -5.009412 15.408903 0.976107 0.078005 -0.202808 0 0
  phy
    0 4.792047 9.525809 13.106947 0.908083 -0.263562 -0.325455 0 0
    0 4.791172 5.007581 15.409024 0.049414 -0.358312 -0.932293 0 0
    0 4.790436 -0.000944 16.202243 0.143569 -0.000014 -0.989640 0 0
  phy
    0 4.789913 -5.009412 15.408903 0.976107 0.078005 -0.202808 0 0
    0 4.789653 -9.527679 13.106699 0.189641 0.618168 -0.762827 0 0
    0 4.789996 -15.415395 5.002723 0.967938 0.234442 -0.090188 0 0
  phy
    0 4.789653 -9.527679 13.106699 0.189641 0.618168 -0.762827 0 0
    0 4.789681 -13.113323 9.520991 0.074030 0.806777 -0.586200 0 0
    0 4.789996 -15.415395 5.002723 0.967938 0.234442 -0.090188 0 0
  phy
    0 4.795524 13.111760 -9.532208 0.143890 -0.800583 0.581690 0 0
    0 -5.863413 15.415384 -5.015343 -0.049308 -0.932293 0.358328 0 0
    0 4.795210 15.413868 -5.013954 0.994676 -0.099573 0.026544 0 0
  phy
    0 4.795524 13.111760 -9.532208 0.143890 -0.800583 0.581690 0 0
    0 -5.863101 13.113260 -9.533628 -0.573994 -0.662445 0.481350 0 0
    0 -5.863413 15.415384 -5.015343 -0.049308 -0.932293 0.358328 0 0
  phy
    0 4.795553 9.526128 -13.117954 0.049676 -0.543613 0.837865 0 0
    0 -5.863077 9.527640 -13.119362 -0.049297 -0.628831 0.775978 0 0
    0 4.795524 13.111760 -9.532208 0.143890 -0.800583 0.581690 0 0
  phy
    0 -5.863077 9.527640 -13.119362 -0.049297 -0.628831 0.775978 0 0
    0 -5.863101 13.113260 -9.533628 -0.573994 -0.662445 0.481350 0 0
    0 4.795524 13.111760 -9.532208 0.143890 -0.800583 0.581690 0 0
  phy
    0 -5.865501 -9.525832 -13.119591 -0.049475 0.628869 0.775936 0 0
    0 -5.866438 -13.111585 -9.533900 -0.189873 0.823620 0.534413 0 0
    0 -5.864618 -5.007599 -15.421639 -0.990042 0.050349 0.131462 0 0
  phy
    0 -5.864618 -5.007599 -15.421639 -0.990042 0.050349 0.131462 0 0
    0 -5.866438 -13.111585 -9.533900 -0.189873 0.823620 0.534413 0 0
    0 -5.867336 -15.413770 -5.015701 -0.385206 0.891470 0.238533 0 0
  phy
    0 -5.864618 -5.007599 -15.421639 -0.990042 0.050349 0.131462 0 0
    0 -5.867336 -15.413770 -5.015701 -0.385206 0.891470 0.238533 0 0
    0 -5.868108 -16.207108 -0.007210 -0.724468 0.689308 0.000074 0 0
  phy
    0 -5.864618 -5.007599 -15.421639 -0.990042 0.050349 0.131462 0 0
    0 -5.868108 -16.207108 -0.007210 -0.724468 0.689308 0.000074 0 0
    0 -5.868679 -15.413881 5.001324 -0.711543 0.678782 -0.181551 0 0
  phy
    0 -5.864618 -5.007599 -15.421639 -0.990042 0.050349 0.131462 0 0
    0 -5.868679 -15.413881 5.001324 -0.711543 0.678782 -0.181551 0 0
    0 -5.868991 -13.111814 9.519583 -0.705558 0.573312 -0.416534 0 0
  phy
    0 -5.864618 -5.007599 -15.421639 -0.990042 0.050349 0.131462 0 0
    0 -5.868991 -13.111814 9.519583 -0.705558 0.573312 -0.416534 0 0
    0 -5.869015 -9.526149 13.105313 -0.849188 0.287406 -0.443031 0 0
  phy
    0 -5.864618 -5.007599 -15.421639 -0.990042 0.050349 0.131462 0 0
    0 -5.869015 -9.526149 13.105313 -0.849188 0.287406 -0.443031 0 0
    0 -5.868749 -5.007901 15.407504 -0.877755 0.123735 -0.462857 0 0
  phy
    0 -5.864618 -5.007599 -15.421639 -0.990042 0.050349 0.131462 0 0
    0 -5.868749 -5.007901 15.407504 -0.877755 0.123735 -0.462857 0 0
    0 -5.868218 0.000548 16.200843 -0.947661 -0.000131 -0.319278 0 0
  phy
    0 -5.864618 -5.007599 -15.421639 -0.990042 0.050349 0.131462 0 0
    0 -5.868218 0.000548 16.200843 -0.947661 -0.000131 -0.319278 0 0
    0 -5.867475 5.009087 15.407621 -0.983933 -0.046297 -0.172428 0 0
  phy
    0 -5.864618 -5.007599 -15.421639 -0.990042 0.050349 0.131462 0 0
    0 -5.867475 5.009087 15.407621 -0.983933 -0.046297 -0.172428 0 0
    0 -5.863343 5.009455 -15.421525 -0.976607 -0.077196 0.200700 0 0
  phy
    0 -5.864618 -5.007599 -15.421639 -0.990042 0.050349 0.131462 0 0
    0 -5.863343 5.009455 -15.421525 -0.976607 -0.077196 0.200700 0 0
    0 -5.863874 0.000926 -16.214875 -0.037056 0.000029 0.999313 0 0
  phy
    0 -5.863343 5.009455 -15.421525 -0.976607 -0.077196 0.200700 0 0
    0 -5.867475 5.009087 15.407621 -0.983933 -0.046297 -0.172428 0 0
    0 -5.863984 16.208606 -0.006832 -0.913337 -0.407205 0.000136 0 0
  phy
    0 -5.863343 5.009455 -15.421525 -0.976607 -0.077196 0.200700 0 0
    0 -5.863984 16.208606 -0.006832 -0.913337 -0.407205 0.000136 0 0
    0 -5.863101 13.113260 -9.533628 -0.573994 -0.662445 0.481350 0 0
  phy
    0 -5.863343 5.009455 -15.421525 -0.976607 -0.077196 0.200700 0 0
    0 -5.863101 13.113260 -9.533628 -0.573994 -0.662445 0.481350 0 0
    0 -5.863077 9.527640 -13.119362 -0.049297 -0.628831 0.775978 0 0
  phy
    0 -5.863101 13.113260 -9.533628 -0.573994 -0.662445 0.481350 0 0
    0 -5.863984 16.208606 -0.006832 -0.913337 -0.407205 0.000136 0 0
    0 -5.863413 15.415384 -5.015343 -0.049308 -0.932293 0.358328 0 0
  phy
    0 -5.863984 16.208606 -0.006832 -0.913337 -0.407205 0.000136 0 0
    0 -5.867475 5.009087 15.407621 -0.983933 -0.046297 -0.172428 0 0
    0 -5.865654 13.113104 9.519858 -0.422999 -0.704042 -0.570435 0 0
  phy
    0 -5.863984 16.208606 -0.006832 -0.913337 -0.407205 0.000136 0 0
    0 -5.865654 13.113104 9.519858 -0.422999 -0.704042 -0.570435 0 0
    0 -5.864756 15.415265 5.001696 -0.049401 -0.932318 -0.358248 0 0
  phy
    0 -5.865654 13.113104 9.519858 -0.422999 -0.704042 -0.570435 0 0
    0 -5.867475 5.009087 15.407621 -0.983933 -0.046297 -0.172428 0 0
    0 -5.866591 9.527325 13.105539 -0.049521 -0.543682 -0.837829 0 0
  phy
    0 4.793871 15.413756 5.003095 0.423117 -0.875282 -0.234208 0 0
    0 -5.863984 16.208606 -0.006832 -0.913337 -0.407205 0.000136 0 0
    0 -5.864756 15.415265 5.001696 -0.049401 -0.932318 -0.358248 0 0
  phy
    0 4.793871 15.413756 5.003095 0.423117 -0.875282 -0.234208 0 0
    0 4.794640 16.207096 -0.005415 0.074362 -0.997231 0.000023 0 0
    0 -5.863984 16.208606 -0.006832 -0.913337 -0.407205 0.000136 0 0
  phy
    0 -5.864756 15.415265 5.001696 -0.049401 -0.932318 -0.358248 0 0
    0 4.792978 13.111597 9.521254 0.049535 -0.837864 -0.543627 0 0
    0 4.793871 15.413756 5.003095 0.423117 -0.875282 -0.234208 0 0
  phy
    0 -5.864756 15.415265 5.001696 -0.049401 -0.932318 -0.358248 0 0
    0 -5.865654 13.113104 9.519858 -0.422999 -0.704042 -0.570435 0 0
    0 4.792978 13.111597 9.521254 0.049535 -0.837864 -0.543627 0 0
  phy
    0 -5.866591 9.527325 13.105539 -0.049521 -0.543682 -0.837829 0 0
    0 4.792047 9.525809 13.106947 0.908083 -0.263562 -0.325455 0 0
    0 -5.865654 13.113104 9.519858 -0.422999 -0.704042 -0.570435 0 0
  phy
    0 4.792047 9.525809 13.106947 0.908083 -0.263562 -0.325455 0 0
    0 4.792978 13.111597 9.521254 0.049535 -0.837864 -0.543627 0 0
    0 -5.865654 13.113104 9.519858 -0.422999 -0.704042 -0.570435 0 0
  phy
    0 4.789913 -5.009412 15.408903 0.976107 0.078005 -0.202808 0 0
    0 -5.868749 -5.007901 15.407504 -0.877755 0.123735 -0.462857 0 0
    0 -5.869015 -9.526149 13.105313 -0.849188 0.287406 -0.443031 0 0
  phy
    0 4.789913 -5.009412 15.408903 0.976107 0.078005 -0.202808 0 0
    0 -5.869015 -9.526149 13.105313 -0.849188 0.287406 -0.443031 0 0
    0 4.789653 -9.527679 13.106699 0.189641 0.618168 -0.762827 0 0
  phy
    0 -5.868218 0.000548 16.200843 -0.947661 -0.000131 -0.319278 0 0
    0 -5.868749 -5.007901 15.407504 -0.877755 0.123735 -0.462857 0 0
    0 4.790436 -0.000944 16.202243 0.143569 -0.000014 -0.989640 0 0
  phy
    0 4.790436 -0.000944 16.202243 0.143569 -0.000014 -0.989640 0 0
    0 -5.868749 -5.007901 15.407504 -0.877755 0.123735 -0.462857 0 0
    0 4.789913 -5.009412 15.408903 0.976107 0.078005 -0.202808 0 0
  phy
    0 -5.868108 -16.207108 -0.007210 -0.724468 0.689308 0.000074 0 0
    0 -5.867336 -15.413770 -5.015701 -0.385206 0.891470 0.238533 0 0
    0 4.790565 -16.208618 -0.005792 0.829114 0.559080 -0.000129 0 0
  phy
    0 4.790565 -16.208618 -0.005792 0.829114 0.559080 -0.000129 0 0
    0 -5.867336 -15.413770 -5.015701 -0.385206 0.891470 0.238533 0 0
    0 4.791334 -15.415275 -5.014320 0.877642 0.447474 0.171790 0 0
  phy
    0 4.791334 -15.415275 -5.014320 0.877642 0.447474 0.171790 0 0
    0 -5.867336 -15.413770 -5.015701 -0.385206 0.891470 0.238533 0 0
    0 -5.866438 -13.111585 -9.533900 -0.189873 0.823620 0.534413 0 0
  phy
    0 4.791334 -15.415275 -5.014320 0.877642 0.447474 0.171790 0 0
    0 -5.866438 -13.111585 -9.533900 -0.189873 0.823620 0.534413 0 0
    0 4.792228 -13.113108 -9.532485 0.849082 0.410517 0.332469 0 0
  phy
    0 4.790565 -16.208618 -0.005792 0.829114 0.559080 -0.000129 0 0
    0 4.789996 -15.415395 5.002723 0.967938 0.234442 -0.090188 0 0
    0 -5.868679 -15.413881 5.001324 -0.711543 0.678782 -0.181551 0 0
  phy
    0 4.790565 -16.208618 -0.005792 0.829114 0.559080 -0.000129 0 0
    0 -5.868679 -15.413881 5.001324 -0.711543 0.678782 -0.181551 0 0
    0 -5.868108 -16.207108 -0.007210 -0.724468 0.689308 0.000074 0 0
  phy
    0 -5.868991 -13.111814 9.519583 -0.705558 0.573312 -0.416534 0 0
    0 -5.868679 -15.413881 5.001324 -0.711543 0.678782 -0.181551 0 0
    0 4.789996 -15.415395 5.002723 0.967938 0.234442 -0.090188 0 0
  phy
    0 -5.868991 -13.111814 9.519583 -0.705558 0.573312 -0.416534 0 0
    0 4.789996 -15.415395 5.002723 0.967938 0.234442 -0.090188 0 0
    0 4.789681 -13.113323 9.520991 0.074030 0.806777 -0.586200 0 0
  phy
    0 -5.863984 16.208606 -0.006832 -0.913337 -0.407205 0.000136 0 0
    0 4.795210 15.413868 -5.013954 0.994676 -0.099573 0.026544 0 0
    0 -5.863413 15.415384 -5.015343 -0.049308 -0.932293 0.358328 0 0
  phy
    0 -5.863984 16.208606 -0.006832 -0.913337 -0.407205 0.000136 0 0
    0 4.794640 16.207096 -0.005415 0.074362 -0.997231 0.000023 0 0
    0 4.795210 15.413868 -5.013954 0.994676 -0.099573 0.026544 0 0
  phy
    0 -5.863077 9.527640 -13.119362 -0.049297 -0.628831 0.775978 0 0
    0 4.795553 9.526128 -13.117954 0.049676 -0.543613 0.837865 0 0
    0 -5.863343 5.009455 -15.421525 -0.976607 -0.077196 0.200700 0 0
  phy
    0 4.795553 9.526128 -13.117954 0.049676 -0.543613 0.837865 0 0
    0 4.795292 5.007929 -15.420127 0.423169 -0.234100 0.875286 0 0
    0 -5.863343 5.009455 -15.421525 -0.976607 -0.077196 0.200700 0 0
  phy
    0 4.795292 5.007929 -15.420127 0.423169 -0.234100 0.875286 0 0
    0 -5.863874 0.000926 -16.214875 -0.037056 0.000029 0.999313 0 0
    0 -5.863343 5.009455 -15.421525 -0.976607 -0.077196 0.200700 0 0
  phy
    0 4.795292 5.007929 -15.420127 0.423169 -0.234100 0.875286 0 0
    0 4.794769 -0.000585 -16.213472 0.724468 0.000114 0.689308 0 0
    0 -5.863874 0.000926 -16.214875 -0.037056 0.000029 0.999313 0 0
  phy
    0 -5.864618 -5.007599 -15.421639 -0.990042 0.050349 0.131462 0 0
    0 4.793158 -9.527355 -13.118176 0.798252 0.327989 0.505190 0 0
    0 -5.865501 -9.525832 -13.119591 -0.049475 0.628869 0.775936 0 0
  phy
    0 -5.864618 -5.007599 -15.421639 -0.990042 0.050349 0.131462 0 0
    0 4.794033 -5.009091 -15.420241 0.711495 0.181738 0.678783 0 0
    0 4.793158 -9.527355 -13.118176 0.798252 0.327989 0.505190 0 0
  phy
    0 -5.864618 -5.007599 -15.421639 -0.990042 0.050349 0.131462 0 0
    0 -5.863874 0.000926 -16.214875 -0.037056 0.000029 0.999313 0 0
    0 4.794033 -5.009091 -15.420241 0.711495 0.181738 0.678783 0 0
  phy
    0 -5.863874 0.000926 -16.214875 -0.037056 0.000029 0.999313 0 0
    0 4.794769 -0.000585 -16.213472 0.724468 0.000114 0.689308 0 0
    0 4.794033 -5.009091 -15.420241 0.711495 0.181738 0.678783 0 0
  phy
    0 -5.868218 0.000548 16.200843 -0.947661 -0.000131 -0.319278 0 0
    0 4.790436 -0.000944 16.202243 0.143569 -0.000014 -0.989640 0 0
    0 -5.867475 5.009087 15.407621 -0.983933 -0.046297 -0.172428 0 0
  phy
    0 -5.867475 5.009087 15.407621 -0.983933 -0.046297 -0.172428 0 0
    0 4.790436 -0.000944 16.202243 0.143569 -0.000014 -0.989640 0 0
    0 4.791172 5.007581 15.409024 0.049414 -0.358312 -0.932293 0 0
  phy
    0 4.791172 5.007581 15.409024 0.049414 -0.358312 -0.932293 0 0
    0 4.792047 9.525809 13.106947 0.908083 -0.263562 -0.325455 0 0
    0 -5.866591 9.527325 13.105539 -0.049521 -0.543682 -0.837829 0 0
  phy
    0 4.791172 5.007581 15.409024 0.049414 -0.358312 -0.932293 0 0
    0 -5.866591 9.527325 13.105539 -0.049521 -0.543682 -0.837829 0 0
    0 -5.867475 5.009087 15.407621 -0.983933 -0.046297 -0.172428 0 0
  phy
    0 -5.866438 -13.111585 -9.533900 -0.189873 0.823620 0.534413 0 0
    0 -5.865501 -9.525832 -13.119591 -0.049475 0.628869 0.775936 0 0
    0 4.792228 -13.113108 -9.532485 0.849082 0.410517 0.332469 0 0
  phy
    0 4.792228 -13.113108 -9.532485 0.849082 0.410517 0.332469 0 0
    0 -5.865501 -9.525832 -13.119591 -0.049475 0.628869 0.775936 0 0
    0 4.793158 -9.527355 -13.118176 0.798252 0.327989 0.505190 0 0
  phy
    0 4.789681 -13.113323 9.520991 0.074030 0.806777 -0.586200 0 0
    0 4.789653 -9.527679 13.106699 0.189641 0.618168 -0.762827 0 0
    0 -5.868991 -13.111814 9.519583 -0.705558 0.573312 -0.416534 0 0
  phy
    0 -5.868991 -13.111814 9.519583 -0.705558 0.573312 -0.416534 0 0
    0 4.789653 -9.527679 13.106699 0.189641 0.618168 -0.762827 0 0
    0 -5.869015 -9.526149 13.105313 -0.849188 0.287406 -0.443031 0 0
end
