version 1
nodes
0 "root" -1
1 "steering_wheel" 0
end
skeleton
time 0
0  0.000000 0.000000 0.000000  0.000000 -0.000000 0.000000
1  19.916300 17.934299 33.308498  0.000000 -0.000000 0.000000
end
triangles
coplightblue3
0  8.109808 5.847041 69.861176  0.001119 -0.999998 -0.001577  0.724854 0.184204 1 0 1.000000
0  12.645222 5.851073 70.524055  0.001109 -0.999998 -0.001503  0.520493 0.215546 1 0 1.000000
0  8.108114 5.845986 70.526276  0.001120 -0.999998 -0.001585  0.724854 0.215546 1 0 1.000000
coplightblue3
0  12.647238 5.852064 69.862778  -0.000091 -0.930451 0.366416  0.520493 0.184204 1 0 1.000000
0  12.645222 5.851073 70.524055  0.001109 -0.999998 -0.001503  0.520493 0.215546 1 0 1.000000
0  8.109808 5.847041 69.861176  0.001119 -0.999998 -0.001577  0.724854 0.184204 1 0 1.000000
coplightblue3
0  7.469283 13.328136 70.667793  0.001119 0.999677 0.025400  0.724854 0.215546 1 0 1.000000
0  12.006334 13.323118 70.665382  0.001113 0.999676 0.025444  0.520493 0.215546 1 0 1.000000
0  7.470922 13.345026 70.002983  0.001119 0.999677 0.025404  0.724854 0.184204 1 0 1.000000
coplightblue3
0  12.008352 13.339942 70.004402  0.000707 0.920446 0.390869  0.520493 0.184204 1 0 1.000000
0  7.470922 13.345026 70.002983  0.001119 0.999677 0.025404  0.724854 0.184204 1 0 1.000000
0  12.006334 13.323118 70.665382  0.001113 0.999676 0.025444  0.520493 0.215546 1 0 1.000000
coplightblue3
0  1.080654 13.328136 70.667793  0.001120 0.999677 0.025400  0.724854 0.215546 1 0 1.000000
0  5.617703 13.323114 70.665382  0.001113 0.999676 0.025446  0.520493 0.215546 1 0 1.000000
0  1.082290 13.345026 70.002983  0.001119 0.999677 0.025404  0.724854 0.184204 1 0 1.000000
coplightblue3
0  5.619722 13.339942 70.004402  0.000707 0.920445 0.390871  0.520493 0.184204 1 0 1.000000
0  1.082290 13.345026 70.002983  0.001119 0.999677 0.025404  0.724854 0.184204 1 0 1.000000
0  5.617703 13.323114 70.665382  0.001113 0.999676 0.025446  0.520493 0.215546 1 0 1.000000
coplightblue3
0  -0.749318 13.328136 70.667793  -0.001120 0.999677 0.025400  0.724854 0.215546 1 0 1.000000
0  -0.750955 13.345026 70.002983  -0.001119 0.999677 0.025404  0.724854 0.184204 1 0 1.000000
0  -5.286366 13.323114 70.665382  -0.001114 0.999676 0.025444  0.520493 0.215546 1 0 1.000000
coplightblue3
0  -5.286366 13.323114 70.665382  -0.001114 0.999676 0.025444  0.520493 0.215546 1 0 1.000000
0  -0.750955 13.345026 70.002983  -0.001119 0.999677 0.025404  0.724854 0.184204 1 0 1.000000
0  -5.288383 13.339937 70.004402  0.000085 0.920447 0.390867  0.520493 0.184204 1 0 1.000000
coplightblue3
0  -7.137898 13.328133 70.667793  -0.001121 0.999677 0.025407  0.724854 0.215546 1 0 1.000000
0  -7.139588 13.345026 70.002983  -0.001120 0.999676 0.025412  0.724854 0.184204 1 0 1.000000
0  -11.675000 13.323107 70.665382  -0.001114 0.999675 0.025453  0.520493 0.215546 1 0 1.000000
coplightblue3
0  -11.675000 13.323107 70.665382  -0.001114 0.999675 0.025453  0.520493 0.215546 1 0 1.000000
0  -7.139588 13.345026 70.002983  -0.001120 0.999676 0.025412  0.724854 0.184204 1 0 1.000000
0  -11.677018 13.339937 70.004402  0.000086 0.920443 0.390876  0.520493 0.184204 1 0 1.000000
coplightblue3
0  1.295255 5.847033 69.860252  0.001118 -0.999998 -0.001569  0.724854 0.184204 1 0 1.000000
0  5.830667 5.851065 70.523140  0.001109 -0.999998 -0.001504  0.520493 0.215546 1 0 1.000000
0  1.293617 5.845982 70.525352  0.001120 -0.999998 -0.001576  0.724854 0.215546 1 0 1.000000
coplightblue3
0  5.832686 5.852057 69.861847  -0.000093 -0.930451 0.366415  0.520493 0.184204 1 0 1.000000
0  5.830667 5.851065 70.523140  0.001109 -0.999998 -0.001504  0.520493 0.215546 1 0 1.000000
0  1.295255 5.847033 69.860252  0.001118 -0.999998 -0.001569  0.724854 0.184204 1 0 1.000000
coplightblue3
0  -0.963909 5.847033 69.860252  -0.001118 -0.999998 -0.001571  0.724854 0.184204 1 0 1.000000
0  -0.962272 5.845982 70.525352  -0.001119 -0.999998 -0.001578  0.724854 0.215546 1 0 1.000000
0  -5.499323 5.851061 70.523140  -0.001108 -0.999998 -0.001507  0.520493 0.215546 1 0 1.000000
coplightblue3
0  -5.499323 5.851061 70.523140  -0.001108 -0.999998 -0.001507  0.520493 0.215546 1 0 1.000000
0  -5.501343 5.852055 69.861847  -0.000701 -0.930452 0.366413  0.520493 0.184204 1 0 1.000000
0  -0.963909 5.847033 69.860252  -0.001118 -0.999998 -0.001571  0.724854 0.184204 1 0 1.000000
coplightblue3
0  -7.778461 5.847038 69.861176  -0.001118 -0.999998 -0.001572  0.724854 0.184204 1 0 1.000000
0  -7.776772 5.845985 70.526276  -0.001119 -0.999998 -0.001580  0.724854 0.215546 1 0 1.000000
0  -12.313820 5.851065 70.524055  -0.001107 -0.999998 -0.001502  0.520493 0.215546 1 0 1.000000
coplightblue3
0  -12.313820 5.851065 70.524055  -0.001107 -0.999998 -0.001502  0.520493 0.215546 1 0 1.000000
0  -12.315897 5.852055 69.862778  -0.000721 -0.930450 0.366419  0.520493 0.184204 1 0 1.000000
0  -7.778461 5.847038 69.861176  -0.001118 -0.999998 -0.001572  0.724854 0.184204 1 0 1.000000
end
