version 1
nodes
0 "root" -1
1 "steering_wheel" 0
end
skeleton
time 0
0  0.000000 0.000000 0.000000  0.000000 -0.000000 0.000000
1  19.916300 17.934299 33.308498  0.000000 -0.000000 0.000000
end
triangles
chassis
0  -20.502010 100.913460 5.681545  -0.637813 0.767604 -0.063083  0.555925 0.737053 1 0 1.000000
0  -19.962484 101.265800 4.558449  -0.637818 0.767603 -0.063042  0.555925 0.736320 1 0 1.000000
0  -20.050570 101.056595 4.536427  -0.894092 -0.323250 -0.310016  0.555925 0.736320 1 0 1.000000
chassis
0  -20.050570 101.056595 4.536427  -0.894092 -0.323250 -0.310016  0.555925 0.736320 1 0 1.000000
0  -20.524033 100.737282 5.538405  -0.796816 -0.288676 -0.530801  0.555925 0.737053 1 0 1.000000
0  -20.502010 100.913460 5.681545  -0.637813 0.767604 -0.063083  0.555925 0.737053 1 0 1.000000
chassis
0  -17.540119 92.060822 5.042922  -0.559109 0.826163 -0.069654  0.580828 0.737053 1 0 1.000000
0  -20.524033 100.737282 5.538405  -0.796816 -0.288676 -0.530801  0.555925 0.737053 1 0 1.000000
0  -20.050570 101.056595 4.536427  -0.894092 -0.323250 -0.310016  0.555925 0.736320 1 0 1.000000
chassis
0  -17.540119 92.060822 5.042922  -0.559086 0.826181 -0.069627  0.580828 0.737053 1 0 1.000000
0  -20.050570 101.056595 4.536427  -0.937587 -0.305915 0.165366  0.555925 0.736320 1 0 1.000000
0  -20.237753 100.803352 3.435353  -0.882346 -0.256063 0.394838  0.555925 0.735588 1 0 1.000000
chassis
0  -20.237753 100.803352 3.435353  -0.882346 -0.256063 0.394838  0.555925 0.735588 1 0 1.000000
0  -20.050570 101.056595 4.536427  -0.937587 -0.305915 0.165366  0.555925 0.736320 1 0 1.000000
0  -20.182699 100.990532 3.303224  -0.637658 0.767731 -0.063097  0.555925 0.735588 1 0 1.000000
chassis
0  -20.050570 101.056595 4.536427  -0.937587 -0.305915 0.165366  0.555925 0.736320 1 0 1.000000
0  -19.962484 101.265800 4.558449  -0.637828 0.767595 -0.063042  0.555925 0.736320 1 0 1.000000
0  -20.182699 100.990532 3.303224  -0.637658 0.767731 -0.063097  0.555925 0.735588 1 0 1.000000
chassis
0  -17.540119 92.060822 5.042922  -0.559018 0.826223 -0.069672  0.580828 0.737053 1 0 1.000000
0  -20.237753 100.803352 3.435353  -0.627199 -0.084480 0.774264  0.555925 0.735588 1 0 1.000000
0  -20.986483 100.142708 2.862795  -0.437934 0.028735 0.898548  0.555925 0.735343 1 0 1.000000
chassis
0  -20.986483 100.142708 2.862795  -0.437934 0.028735 0.898548  0.555925 0.735343 1 0 1.000000
0  -20.237753 100.803352 3.435353  -0.627199 -0.084480 0.774264  0.555925 0.735588 1 0 1.000000
0  -21.019516 100.230789 2.664601  -0.637835 0.767590 -0.063020  0.555925 0.735343 1 0 1.000000
chassis
0  -20.237753 100.803352 3.435353  -0.627199 -0.084480 0.774264  0.555925 0.735588 1 0 1.000000
0  -20.182699 100.990532 3.303224  -0.637667 0.767723 -0.063110  0.555925 0.735588 1 0 1.000000
0  -21.019516 100.230789 2.664601  -0.637835 0.767590 -0.063020  0.555925 0.735343 1 0 1.000000
chassis
0  -20.986483 100.142708 2.862795  0.010860 0.275902 0.961124  0.555925 0.735343 1 0 1.000000
0  -21.019516 100.230789 2.664601  -0.637811 0.767610 -0.063028  0.555925 0.735343 1 0 1.000000
0  -21.999472 99.449028 3.005934  -0.637833 0.767583 -0.063131  0.555925 0.735343 1 0 1.000000
chassis
0  -21.845322 99.449028 3.171096  0.238313 0.391651 0.888716  0.555925 0.735588 1 0 1.000000
0  -20.986483 100.142708 2.862795  0.010860 0.275902 0.961124  0.555925 0.735343 1 0 1.000000
0  -21.999472 99.449028 3.005934  -0.637833 0.767583 -0.063131  0.555925 0.735343 1 0 1.000000
chassis
0  -17.540119 92.060822 5.042922  -0.559070 0.826182 -0.069744  0.580828 0.737053 1 0 1.000000
0  -20.986483 100.142708 2.862795  0.010860 0.275902 0.961124  0.555925 0.735343 1 0 1.000000
0  -21.845322 99.449028 3.171096  0.238313 0.391651 0.888716  0.555925 0.735588 1 0 1.000000
chassis
0  -17.540119 92.060822 5.042922  -0.559049 0.826204 -0.069650  0.580828 0.737053 1 0 1.000000
0  -21.845322 99.449028 3.171096  0.612420 0.562074 0.555890  0.555925 0.735588 1 0 1.000000
0  -22.329794 99.129715 4.173073  0.729755 0.603901 0.320563  0.555925 0.736076 1 0 1.000000
chassis
0  -22.329794 99.129715 4.173073  0.729755 0.603901 0.320563  0.555925 0.736076 1 0 1.000000
0  -21.845322 99.449028 3.171096  0.612420 0.562074 0.555890  0.555925 0.735588 1 0 1.000000
0  -22.538998 99.096687 4.140041  -0.637693 0.767696 -0.063176  0.555925 0.736076 1 0 1.000000
chassis
0  -21.845322 99.449028 3.171096  0.612420 0.562074 0.555890  0.555925 0.735588 1 0 1.000000
0  -21.999472 99.449028 3.005934  -0.637803 0.767609 -0.063114  0.555925 0.735343 1 0 1.000000
0  -22.538998 99.096687 4.140041  -0.637693 0.767696 -0.063176  0.555925 0.736076 1 0 1.000000
chassis
0  -17.540119 92.060822 5.042922  -0.558966 0.826253 -0.069735  0.580828 0.737053 1 0 1.000000
0  -22.329794 99.129715 4.173073  0.783681 0.587216 -0.202537  0.555925 0.736076 1 0 1.000000
0  -22.131601 99.382965 5.274148  0.716585 0.530213 -0.453188  0.555925 0.736808 1 0 1.000000
chassis
0  -22.131601 99.382965 5.274148  0.716585 0.530213 -0.453188  0.555925 0.736808 1 0 1.000000
0  -22.329794 99.129715 4.173073  0.783681 0.587216 -0.202537  0.555925 0.736076 1 0 1.000000
0  -22.538998 99.096687 4.140041  -0.637679 0.767706 -0.063196  0.555925 0.736076 1 0 1.000000
chassis
0  -22.538998 99.096687 4.140041  -0.637679 0.767706 -0.063196  0.555925 0.736076 1 0 1.000000
0  -22.329794 99.382965 5.384255  -0.637781 0.767637 -0.063001  0.555925 0.736808 1 0 1.000000
0  -22.131601 99.382965 5.274148  0.716585 0.530213 -0.453188  0.555925 0.736808 1 0 1.000000
chassis
0  -17.540119 92.060822 5.042922  -0.559102 0.826169 -0.069639  0.580828 0.737053 1 0 1.000000
0  -22.131601 99.382965 5.274148  0.417343 0.337464 -0.843767  0.555925 0.736808 1 0 1.000000
0  -21.393881 100.043610 5.835695  0.207095 0.215808 -0.954222  0.555925 0.737053 1 0 1.000000
chassis
0  -21.393881 100.043610 5.835695  0.207095 0.215808 -0.954222  0.555925 0.737053 1 0 1.000000
0  -22.131601 99.382965 5.274148  0.417343 0.337464 -0.843767  0.555925 0.736808 1 0 1.000000
0  -22.329794 99.382965 5.384255  -0.637792 0.767623 -0.063063  0.555925 0.736808 1 0 1.000000
chassis
0  -22.329794 99.382965 5.384255  -0.637792 0.767623 -0.063063  0.555925 0.736808 1 0 1.000000
0  -21.481966 100.131691 6.022878  -0.637786 0.767628 -0.063055  0.555925 0.737297 1 0 1.000000
0  -21.393881 100.043610 5.835695  0.207095 0.215808 -0.954222  0.555925 0.737053 1 0 1.000000
chassis
0  -17.540119 92.060822 5.042922  -0.559022 0.826218 -0.069696  0.580828 0.737053 1 0 1.000000
0  -21.393881 100.043610 5.835695  -0.253126 -0.032347 -0.966892  0.555925 0.737053 1 0 1.000000
0  -20.524033 100.737282 5.538405  -0.467765 -0.140165 -0.872668  0.555925 0.737053 1 0 1.000000
chassis
0  -20.524033 100.737282 5.538405  -0.467765 -0.140165 -0.872668  0.555925 0.737053 1 0 1.000000
0  -21.393881 100.043610 5.835695  -0.253126 -0.032347 -0.966892  0.555925 0.737053 1 0 1.000000
0  -21.481966 100.131691 6.022878  -0.637810 0.767605 -0.063097  0.555925 0.737297 1 0 1.000000
chassis
0  -21.481966 100.131691 6.022878  -0.637810 0.767605 -0.063097  0.555925 0.737297 1 0 1.000000
0  -20.502010 100.913460 5.681545  -0.637805 0.767607 -0.063122  0.555925 0.737053 1 0 1.000000
0  -20.524033 100.737282 5.538405  -0.467765 -0.140165 -0.872668  0.555925 0.737053 1 0 1.000000
chassis
0  -19.687216 97.478104 2.642580  -0.250124 0.757133 0.603480  0.975372 0.963378 1 0 1.000000
0  -19.577108 97.026665 2.631569  0.151264 -0.808760 0.568354  0.975860 0.963378 1 0 1.000000
0  -18.729280 97.224861 2.928859  -0.141557 -0.863660 0.483790  0.974883 0.963866 1 0 1.000000
chassis
0  -19.577108 97.026665 2.631569  0.151264 -0.808760 0.568354  0.975860 0.963378 1 0 1.000000
0  -19.687216 97.478104 2.642580  -0.250124 0.757133 0.603480  0.975372 0.963378 1 0 1.000000
0  -20.557064 97.235870 2.818752  0.045223 0.842877 0.536202  0.976836 0.963622 1 0 1.000000
chassis
0  -18.839388 97.709328 2.939870  -0.532209 0.677092 0.508233  0.974395 0.963866 1 0 1.000000
0  -18.729280 97.224861 2.928859  -0.141557 -0.863660 0.483790  0.974883 0.963866 1 0 1.000000
0  -18.123690 97.356987 3.633547  -0.358760 -0.897190 0.257566  0.973907 0.964843 1 0 1.000000
chassis
0  -18.729280 97.224861 2.928859  -0.141557 -0.863660 0.483790  0.974883 0.963866 1 0 1.000000
0  -18.839388 97.709328 2.939870  -0.532209 0.677092 0.508233  0.974395 0.963866 1 0 1.000000
0  -19.687216 97.478104 2.642580  -0.250124 0.757133 0.603480  0.975372 0.963378 1 0 1.000000
chassis
0  -19.687216 97.478104 2.642580  -0.250124 0.757133 0.603480  0.975372 0.963378 1 0 1.000000
0  -18.839388 97.709328 2.939870  -0.532209 0.677092 0.508233  0.974395 0.963866 1 0 1.000000
0  -18.575130 97.786407 2.532472  0.289859 0.694907 -0.658093  0.973907 0.963134 1 0 1.000000
chassis
0  -18.575130 97.786407 2.532472  0.289859 0.694907 -0.658093  0.973907 0.963134 1 0 1.000000
0  -19.654184 97.511139 2.147096  -0.101006 0.621117 -0.777182  0.975372 0.962645 1 0 1.000000
0  -19.687216 97.478104 2.642580  -0.250124 0.757133 0.603480  0.975372 0.963378 1 0 1.000000
chassis
0  -20.557064 97.235870 2.818752  0.045223 0.842877 0.536202  0.976836 0.963622 1 0 1.000000
0  -19.687216 97.478104 2.642580  -0.250124 0.757133 0.603480  0.975372 0.963378 1 0 1.000000
0  -19.654184 97.511139 2.147096  -0.101006 0.621117 -0.777182  0.975372 0.962645 1 0 1.000000
chassis
0  -19.654184 97.511139 2.147096  -0.101006 0.621117 -0.777182  0.975372 0.962645 1 0 1.000000
0  -20.777279 97.202835 2.378322  -0.484084 0.542179 -0.686807  0.976836 0.963134 1 0 1.000000
0  -20.557064 97.235870 2.818752  0.045223 0.842877 0.536202  0.976836 0.963622 1 0 1.000000
chassis
0  -20.557064 97.235870 2.818752  0.045223 0.842877 0.536202  0.976836 0.963622 1 0 1.000000
0  -20.777279 97.202835 2.378322  -0.484084 0.542179 -0.686807  0.976836 0.963134 1 0 1.000000
0  -21.636118 96.982620 3.149074  -0.766155 0.483307 -0.423581  0.978301 0.964354 1 0 1.000000
chassis
0  -21.239731 97.070709 3.435354  0.264588 0.906694 0.328481  0.977813 0.964599 1 0 1.000000
0  -20.557064 97.235870 2.818752  0.045223 0.842877 0.536202  0.976836 0.963622 1 0 1.000000
0  -21.636118 96.982620 3.149074  -0.766155 0.483307 -0.423581  0.978301 0.964354 1 0 1.000000
chassis
0  -21.548031 96.993629 4.305202  0.344385 0.938499 0.024884  0.977813 0.966063 1 0 1.000000
0  -21.239731 97.070709 3.435354  0.264588 0.906694 0.328481  0.977813 0.964599 1 0 1.000000
0  -21.636118 96.982620 3.149074  -0.766155 0.483307 -0.423581  0.978301 0.964354 1 0 1.000000
chassis
0  -21.636118 96.982620 3.149074  -0.766155 0.483307 -0.423581  0.978301 0.964354 1 0 1.000000
0  -22.021494 96.883522 4.272170  -0.898274 0.435981 -0.054996  0.978790 0.966063 1 0 1.000000
0  -21.548031 96.993629 4.305202  0.344385 0.938499 0.024884  0.977813 0.966063 1 0 1.000000
chassis
0  -22.021494 96.883522 4.272170  -0.898274 0.435981 -0.054996  0.978790 0.966063 1 0 1.000000
0  -21.636118 96.982620 3.149074  -0.766155 0.483307 -0.423581  0.978301 0.964354 1 0 1.000000
0  -21.922396 96.454109 4.261159  -0.594915 -0.802036 -0.053058  0.978790 0.965819 1 0 1.000000
chassis
0  -21.636118 96.982620 3.149074  -0.766155 0.483307 -0.423581  0.978301 0.964354 1 0 1.000000
0  -21.526011 96.553200 3.138063  -0.472086 -0.764313 -0.439273  0.978301 0.964110 1 0 1.000000
0  -21.922396 96.454109 4.261159  -0.594915 -0.802036 -0.053058  0.978790 0.965819 1 0 1.000000
chassis
0  -21.636118 96.982620 3.149074  -0.766155 0.483307 -0.423581  0.978301 0.964354 1 0 1.000000
0  -20.777279 97.202835 2.378322  -0.484084 0.542179 -0.686807  0.976836 0.963134 1 0 1.000000
0  -21.526011 96.553200 3.138063  -0.472086 -0.764313 -0.439273  0.978301 0.964110 1 0 1.000000
chassis
0  -19.544077 97.037674 2.136086  0.196224 -0.561462 -0.803901  0.975860 0.962645 1 0 1.000000
0  -20.667171 96.762405 2.367311  -0.186719 -0.678115 -0.710842  0.977325 0.963134 1 0 1.000000
0  -20.777279 97.202835 2.378322  -0.484084 0.542179 -0.686807  0.976836 0.963134 1 0 1.000000
chassis
0  -20.777279 97.202835 2.378322  -0.484084 0.542179 -0.686807  0.976836 0.963134 1 0 1.000000
0  -20.667171 96.762405 2.367311  -0.186719 -0.678115 -0.710842  0.977325 0.963134 1 0 1.000000
0  -21.526011 96.553200 3.138063  -0.472086 -0.764313 -0.439273  0.978301 0.964110 1 0 1.000000
chassis
0  -21.526011 96.553200 3.138063  -0.472086 -0.764313 -0.439273  0.978301 0.964110 1 0 1.000000
0  -20.667171 96.762405 2.367311  -0.186719 -0.678115 -0.710842  0.977325 0.963134 1 0 1.000000
0  -20.457968 96.806450 2.807741  0.430000 -0.753705 0.497019  0.976836 0.963622 1 0 1.000000
chassis
0  -20.457968 96.806450 2.807741  0.430000 -0.753705 0.497019  0.976836 0.963622 1 0 1.000000
0  -21.129623 96.652298 3.413332  0.636939 -0.703497 0.315280  0.977813 0.964599 1 0 1.000000
0  -21.526011 96.553200 3.138063  -0.472086 -0.764313 -0.439273  0.978301 0.964110 1 0 1.000000
chassis
0  -21.129623 96.652298 3.413332  0.636939 -0.703497 0.315280  0.977813 0.964599 1 0 1.000000
0  -21.448935 96.586235 4.294191  0.729588 -0.682099 0.049414  0.978301 0.965819 1 0 1.000000
0  -21.526011 96.553200 3.138063  -0.472086 -0.764313 -0.439273  0.978301 0.964110 1 0 1.000000
chassis
0  -21.448935 96.586235 4.294191  0.729588 -0.682099 0.049414  0.978301 0.965819 1 0 1.000000
0  -21.922396 96.454109 4.261159  -0.594915 -0.802036 -0.053058  0.978790 0.965819 1 0 1.000000
0  -21.526011 96.553200 3.138063  -0.472086 -0.764313 -0.439273  0.978301 0.964110 1 0 1.000000
chassis
0  -21.691172 96.531181 5.439308  -0.514787 -0.783113 0.348896  0.978790 0.967528 1 0 1.000000
0  -21.922396 96.454109 4.261159  -0.594915 -0.802036 -0.053058  0.978790 0.965819 1 0 1.000000
0  -21.448935 96.586235 4.294191  0.729588 -0.682099 0.049414  0.978301 0.965819 1 0 1.000000
chassis
0  -22.021494 96.883522 4.272170  -0.898274 0.435981 -0.054996  0.978790 0.966063 1 0 1.000000
0  -21.922396 96.454109 4.261159  -0.594915 -0.802036 -0.053058  0.978790 0.965819 1 0 1.000000
0  -21.691172 96.531181 5.439308  -0.514787 -0.783113 0.348896  0.978790 0.967528 1 0 1.000000
chassis
0  -21.801279 96.971611 5.450319  -0.829690 0.441739 0.341292  0.978301 0.967772 1 0 1.000000
0  -22.021494 96.883522 4.272170  -0.898274 0.435981 -0.054996  0.978790 0.966063 1 0 1.000000
0  -21.691172 96.531181 5.439308  -0.514787 -0.783113 0.348896  0.978790 0.967528 1 0 1.000000
chassis
0  -21.548031 96.993629 4.305202  0.344385 0.938499 0.024884  0.977813 0.966063 1 0 1.000000
0  -22.021494 96.883522 4.272170  -0.898274 0.435981 -0.054996  0.978790 0.966063 1 0 1.000000
0  -21.801279 96.971611 5.450319  -0.829690 0.441739 0.341292  0.978301 0.967772 1 0 1.000000
chassis
0  -21.360849 97.070709 5.230104  0.275391 0.919675 -0.279924  0.977813 0.967284 1 0 1.000000
0  -21.548031 96.993629 4.305202  0.344385 0.938499 0.024884  0.977813 0.966063 1 0 1.000000
0  -21.801279 96.971611 5.450319  -0.829690 0.441739 0.341292  0.978301 0.967772 1 0 1.000000
chassis
0  -21.360849 97.070709 5.230104  0.275391 0.919675 -0.279924  0.977813 0.967284 1 0 1.000000
0  -21.801279 96.971611 5.450319  -0.829690 0.441739 0.341292  0.978301 0.967772 1 0 1.000000
0  -21.030527 97.191826 6.353200  -0.603222 0.500087 0.621318  0.977325 0.968993 1 0 1.000000
chassis
0  -20.766268 97.257889 5.934792  0.088796 0.866187 -0.491767  0.976836 0.968261 1 0 1.000000
0  -21.360849 97.070709 5.230104  0.275391 0.919675 -0.279924  0.977813 0.967284 1 0 1.000000
0  -21.030527 97.191826 6.353200  -0.603222 0.500087 0.621318  0.977325 0.968993 1 0 1.000000
chassis
0  -20.766268 97.257889 5.934792  0.088796 0.866187 -0.491767  0.976836 0.968261 1 0 1.000000
0  -21.030527 97.191826 6.353200  -0.603222 0.500087 0.621318  0.977325 0.968993 1 0 1.000000
0  -20.138657 97.434059 6.727565  -0.349975 0.613997 0.707478  0.975860 0.969481 1 0 1.000000
chassis
0  -19.973495 97.489113 6.221071  -0.074653 0.767998 -0.636087  0.975860 0.968749 1 0 1.000000
0  -20.766268 97.257889 5.934792  0.088796 0.866187 -0.491767  0.976836 0.968261 1 0 1.000000
0  -20.138657 97.434059 6.727565  -0.349975 0.613997 0.707478  0.975860 0.969481 1 0 1.000000
chassis
0  -19.973495 97.489113 6.221071  -0.074653 0.767998 -0.636087  0.975860 0.968749 1 0 1.000000
0  -20.138657 97.434059 6.727565  -0.349975 0.613997 0.707478  0.975860 0.969481 1 0 1.000000
0  -19.037582 97.731354 6.881716  -0.362541 0.767139 0.529209  0.974395 0.969726 1 0 1.000000
chassis
0  -18.762314 97.797417 6.364211  0.075970 0.668237 -0.740059  0.973907 0.968749 1 0 1.000000
0  -19.973495 97.489113 6.221071  -0.074653 0.767998 -0.636087  0.975860 0.968749 1 0 1.000000
0  -19.037582 97.731354 6.881716  -0.362541 0.767139 0.529209  0.974395 0.969726 1 0 1.000000
chassis
0  -18.332893 97.907524 6.760598  0.728657 0.676368 -0.107637  0.973418 0.969481 1 0 1.000000
0  -18.762314 97.797417 6.364211  0.075970 0.668237 -0.740059  0.973907 0.968749 1 0 1.000000
0  -19.037582 97.731354 6.881716  -0.362541 0.767139 0.529209  0.974395 0.969726 1 0 1.000000
chassis
0  -20.457968 96.806450 2.807741  0.430000 -0.753705 0.497019  0.976836 0.963622 1 0 1.000000
0  -20.667171 96.762405 2.367311  -0.186719 -0.678115 -0.710842  0.977325 0.963134 1 0 1.000000
0  -19.544077 97.037674 2.136086  0.196224 -0.561462 -0.803901  0.975860 0.962645 1 0 1.000000
chassis
0  -21.448935 96.586235 4.294191  0.729588 -0.682099 0.049414  0.978301 0.965819 1 0 1.000000
0  -21.261751 96.652298 5.219093  0.698846 -0.671915 -0.245245  0.977813 0.967284 1 0 1.000000
0  -21.691172 96.531181 5.439308  -0.514787 -0.783113 0.348896  0.978790 0.967528 1 0 1.000000
chassis
0  -21.261751 96.652298 5.219093  0.698846 -0.671915 -0.245245  0.977813 0.967284 1 0 1.000000
0  -20.656160 96.817459 5.923781  0.513485 -0.695492 -0.502618  0.977325 0.968261 1 0 1.000000
0  -21.691172 96.531181 5.439308  -0.514787 -0.783113 0.348896  0.978790 0.967528 1 0 1.000000
chassis
0  -18.332893 97.907524 6.760598  0.728657 0.676368 -0.107637  0.973418 0.969481 1 0 1.000000
0  -17.727301 98.744339 19.070608  0.707178 0.702219 -0.082389  0.971954 0.987548 1 0 1.000000
0  -17.606184 98.215828 19.048588  0.967473 -0.251127 -0.030512  0.971954 0.987548 1 0 1.000000
chassis
0  -17.606184 98.215828 19.048588  0.967473 -0.251127 -0.030512  0.971954 0.987548 1 0 1.000000
0  -18.211777 97.390022 6.738576  0.948122 -0.312814 -0.056678  0.973907 0.969481 1 0 1.000000
0  -18.332893 97.907524 6.760598  0.728657 0.676368 -0.107637  0.973418 0.969481 1 0 1.000000
chassis
0  -18.762314 97.797417 6.364211  0.075970 0.668237 -0.740059  0.973907 0.968749 1 0 1.000000
0  -18.332893 97.907524 6.760598  0.728657 0.676368 -0.107637  0.973418 0.969481 1 0 1.000000
0  -18.211777 97.390022 6.738576  0.948122 -0.312814 -0.056678  0.973907 0.969481 1 0 1.000000
chassis
0  -18.211777 97.390022 6.738576  0.948122 -0.312814 -0.056678  0.973907 0.969481 1 0 1.000000
0  -18.663216 97.301933 6.353200  0.380193 -0.518621 -0.765824  0.974395 0.968749 1 0 1.000000
0  -18.762314 97.797417 6.364211  0.075970 0.668237 -0.740059  0.973907 0.968749 1 0 1.000000
chassis
0  -18.762314 97.797417 6.364211  0.075970 0.668237 -0.740059  0.973907 0.968749 1 0 1.000000
0  -18.663216 97.301933 6.353200  0.380193 -0.518621 -0.765824  0.974395 0.968749 1 0 1.000000
0  -19.973495 97.489113 6.221071  -0.074653 0.767998 -0.636087  0.975860 0.968749 1 0 1.000000
chassis
0  -18.663216 97.301933 6.353200  0.380193 -0.518621 -0.765824  0.974395 0.968749 1 0 1.000000
0  -19.852377 96.993629 6.210060  0.308741 -0.685870 -0.658985  0.976348 0.968749 1 0 1.000000
0  -19.973495 97.489113 6.221071  -0.074653 0.767998 -0.636087  0.975860 0.968749 1 0 1.000000
chassis
0  -19.973495 97.489113 6.221071  -0.074653 0.767998 -0.636087  0.975860 0.968749 1 0 1.000000
0  -19.852377 96.993629 6.210060  0.308741 -0.685870 -0.658985  0.976348 0.968749 1 0 1.000000
0  -20.766268 97.257889 5.934792  0.088796 0.866187 -0.491767  0.976836 0.968261 1 0 1.000000
chassis
0  -19.852377 96.993629 6.210060  0.308741 -0.685870 -0.658985  0.976348 0.968749 1 0 1.000000
0  -20.656160 96.817459 5.923781  0.513485 -0.695492 -0.502618  0.977325 0.968261 1 0 1.000000
0  -20.766268 97.257889 5.934792  0.088796 0.866187 -0.491767  0.976836 0.968261 1 0 1.000000
chassis
0  -20.766268 97.257889 5.934792  0.088796 0.866187 -0.491767  0.976836 0.968261 1 0 1.000000
0  -20.656160 96.817459 5.923781  0.513485 -0.695492 -0.502618  0.977325 0.968261 1 0 1.000000
0  -21.360849 97.070709 5.230104  0.275391 0.919675 -0.279924  0.977813 0.967284 1 0 1.000000
chassis
0  -20.656160 96.817459 5.923781  0.513485 -0.695492 -0.502618  0.977325 0.968261 1 0 1.000000
0  -21.261751 96.652298 5.219093  0.698846 -0.671915 -0.245245  0.977813 0.967284 1 0 1.000000
0  -21.360849 97.070709 5.230104  0.275391 0.919675 -0.279924  0.977813 0.967284 1 0 1.000000
chassis
0  -21.360849 97.070709 5.230104  0.275391 0.919675 -0.279924  0.977813 0.967284 1 0 1.000000
0  -21.261751 96.652298 5.219093  0.698846 -0.671915 -0.245245  0.977813 0.967284 1 0 1.000000
0  -21.548031 96.993629 4.305202  0.344385 0.938499 0.024884  0.977813 0.966063 1 0 1.000000
chassis
0  -21.261751 96.652298 5.219093  0.698846 -0.671915 -0.245245  0.977813 0.967284 1 0 1.000000
0  -21.448935 96.586235 4.294191  0.729588 -0.682099 0.049414  0.978301 0.965819 1 0 1.000000
0  -21.548031 96.993629 4.305202  0.344385 0.938499 0.024884  0.977813 0.966063 1 0 1.000000
chassis
0  -21.548031 96.993629 4.305202  0.344385 0.938499 0.024884  0.977813 0.966063 1 0 1.000000
0  -21.448935 96.586235 4.294191  0.729588 -0.682099 0.049414  0.978301 0.965819 1 0 1.000000
0  -21.239731 97.070709 3.435354  0.264588 0.906694 0.328481  0.977813 0.964599 1 0 1.000000
chassis
0  -21.448935 96.586235 4.294191  0.729588 -0.682099 0.049414  0.978301 0.965819 1 0 1.000000
0  -21.129623 96.652298 3.413332  0.636939 -0.703497 0.315280  0.977813 0.964599 1 0 1.000000
0  -21.239731 97.070709 3.435354  0.264588 0.906694 0.328481  0.977813 0.964599 1 0 1.000000
chassis
0  -21.239731 97.070709 3.435354  0.264588 0.906694 0.328481  0.977813 0.964599 1 0 1.000000
0  -21.129623 96.652298 3.413332  0.636939 -0.703497 0.315280  0.977813 0.964599 1 0 1.000000
0  -20.557064 97.235870 2.818752  0.045223 0.842877 0.536202  0.976836 0.963622 1 0 1.000000
chassis
0  -21.129623 96.652298 3.413332  0.636939 -0.703497 0.315280  0.977813 0.964599 1 0 1.000000
0  -20.457968 96.806450 2.807741  0.430000 -0.753705 0.497019  0.976836 0.963622 1 0 1.000000
0  -20.557064 97.235870 2.818752  0.045223 0.842877 0.536202  0.976836 0.963622 1 0 1.000000
chassis
0  -20.557064 97.235870 2.818752  0.045223 0.842877 0.536202  0.976836 0.963622 1 0 1.000000
0  -20.457968 96.806450 2.807741  0.430000 -0.753705 0.497019  0.976836 0.963622 1 0 1.000000
0  -19.577108 97.026665 2.631569  0.151264 -0.808760 0.568354  0.975860 0.963378 1 0 1.000000
chassis
0  -19.577108 97.026665 2.631569  0.151264 -0.808760 0.568354  0.975860 0.963378 1 0 1.000000
0  -20.457968 96.806450 2.807741  0.430000 -0.753705 0.497019  0.976836 0.963622 1 0 1.000000
0  -19.544077 97.037674 2.136086  0.196224 -0.561462 -0.803901  0.975860 0.962645 1 0 1.000000
chassis
0  -18.167730 98.623222 18.839382  -0.775285 0.631611 -0.000670  0.972442 0.987304 1 0 1.000000
0  -17.727301 98.744339 19.070608  0.707178 0.702219 -0.082389  0.971954 0.987548 1 0 1.000000
0  -18.332893 97.907524 6.760598  0.728657 0.676368 -0.107637  0.973418 0.969481 1 0 1.000000
chassis
0  -18.211777 97.390022 6.738576  0.948122 -0.312814 -0.056678  0.973907 0.969481 1 0 1.000000
0  -17.606184 98.215828 19.048588  0.967473 -0.251127 -0.030512  0.971954 0.987548 1 0 1.000000
0  -18.046614 98.116730 18.817362  -0.453998 -0.886764 0.086809  0.972930 0.987304 1 0 1.000000
chassis
0  -19.037582 97.731354 6.881716  -0.362541 0.767139 0.529209  0.974395 0.969726 1 0 1.000000
0  -18.817368 97.808426 7.101931  -0.805847 0.591926 0.015305  0.974395 0.969970 1 0 1.000000
0  -18.332893 97.907524 6.760598  0.728657 0.676368 -0.107637  0.973418 0.969481 1 0 1.000000
chassis
0  -18.332893 97.907524 6.760598  0.728657 0.676368 -0.107637  0.973418 0.969481 1 0 1.000000
0  -18.817368 97.808426 7.101931  -0.805847 0.591926 0.015305  0.974395 0.969970 1 0 1.000000
0  -18.167730 98.623222 18.839382  -0.775285 0.631611 -0.000670  0.972442 0.987304 1 0 1.000000
chassis
0  -18.046614 98.116730 18.817362  -0.453998 -0.886764 0.086809  0.972930 0.987304 1 0 1.000000
0  -18.167730 98.623222 18.839382  -0.775285 0.631611 -0.000670  0.972442 0.987304 1 0 1.000000
0  -18.817368 97.808426 7.101931  -0.805847 0.591926 0.015305  0.974395 0.969970 1 0 1.000000
chassis
0  -18.817368 97.808426 7.101931  -0.805847 0.591926 0.015305  0.974395 0.969970 1 0 1.000000
0  -18.696249 97.290924 7.079909  -0.399619 -0.911634 0.096060  0.974395 0.969970 1 0 1.000000
0  -18.046614 98.116730 18.817362  -0.453998 -0.886764 0.086809  0.972930 0.987304 1 0 1.000000
chassis
0  -18.046614 98.116730 18.817362  -0.453998 -0.886764 0.086809  0.972930 0.987304 1 0 1.000000
0  -18.696249 97.290924 7.079909  -0.399619 -0.911634 0.096060  0.974395 0.969970 1 0 1.000000
0  -18.211777 97.390022 6.738576  0.948122 -0.312814 -0.056678  0.973907 0.969481 1 0 1.000000
chassis
0  -18.211777 97.390022 6.738576  0.948122 -0.312814 -0.056678  0.973907 0.969481 1 0 1.000000
0  -18.696249 97.290924 7.079909  -0.399619 -0.911634 0.096060  0.974395 0.969970 1 0 1.000000
0  -18.663216 97.301933 6.353200  0.380193 -0.518621 -0.765824  0.974395 0.968749 1 0 1.000000
chassis
0  -18.696249 97.290924 7.079909  -0.399619 -0.911634 0.096060  0.974395 0.969970 1 0 1.000000
0  -18.927475 97.224861 6.870705  0.067429 -0.842157 0.534999  0.974883 0.969481 1 0 1.000000
0  -18.663216 97.301933 6.353200  0.380193 -0.518621 -0.765824  0.974395 0.968749 1 0 1.000000
chassis
0  -19.852377 96.993629 6.210060  0.308741 -0.685870 -0.658985  0.976348 0.968749 1 0 1.000000
0  -18.663216 97.301933 6.353200  0.380193 -0.518621 -0.765824  0.974395 0.968749 1 0 1.000000
0  -18.927475 97.224861 6.870705  0.067429 -0.842157 0.534999  0.974883 0.969481 1 0 1.000000
chassis
0  -18.927475 97.224861 6.870705  0.067429 -0.842157 0.534999  0.974883 0.969481 1 0 1.000000
0  -20.017538 96.938576 6.716555  0.000830 -0.730434 0.682983  0.976348 0.969481 1 0 1.000000
0  -19.852377 96.993629 6.210060  0.308741 -0.685870 -0.658985  0.976348 0.968749 1 0 1.000000
chassis
0  -20.656160 96.817459 5.923781  0.513485 -0.695492 -0.502618  0.977325 0.968261 1 0 1.000000
0  -19.852377 96.993629 6.210060  0.308741 -0.685870 -0.658985  0.976348 0.968749 1 0 1.000000
0  -20.017538 96.938576 6.716555  0.000830 -0.730434 0.682983  0.976348 0.969481 1 0 1.000000
chassis
0  -20.017538 96.938576 6.716555  0.000830 -0.730434 0.682983  0.976348 0.969481 1 0 1.000000
0  -20.920420 96.729378 6.342189  -0.283774 -0.737159 0.613244  0.977325 0.968993 1 0 1.000000
0  -20.656160 96.817459 5.923781  0.513485 -0.695492 -0.502618  0.977325 0.968261 1 0 1.000000
chassis
0  -20.656160 96.817459 5.923781  0.513485 -0.695492 -0.502618  0.977325 0.968261 1 0 1.000000
0  -20.920420 96.729378 6.342189  -0.283774 -0.737159 0.613244  0.977325 0.968993 1 0 1.000000
0  -21.691172 96.531181 5.439308  -0.514787 -0.783113 0.348896  0.978790 0.967528 1 0 1.000000
chassis
0  -21.801279 96.971611 5.450319  -0.829690 0.441739 0.341292  0.978301 0.967772 1 0 1.000000
0  -21.691172 96.531181 5.439308  -0.514787 -0.783113 0.348896  0.978790 0.967528 1 0 1.000000
0  -20.920420 96.729378 6.342189  -0.283774 -0.737159 0.613244  0.977325 0.968993 1 0 1.000000
chassis
0  -21.030527 97.191826 6.353200  -0.603222 0.500087 0.621318  0.977325 0.968993 1 0 1.000000
0  -21.801279 96.971611 5.450319  -0.829690 0.441739 0.341292  0.978301 0.967772 1 0 1.000000
0  -20.920420 96.729378 6.342189  -0.283774 -0.737159 0.613244  0.977325 0.968993 1 0 1.000000
chassis
0  -21.030527 97.191826 6.353200  -0.603222 0.500087 0.621318  0.977325 0.968993 1 0 1.000000
0  -20.920420 96.729378 6.342189  -0.283774 -0.737159 0.613244  0.977325 0.968993 1 0 1.000000
0  -20.017538 96.938576 6.716555  0.000830 -0.730434 0.682983  0.976348 0.969481 1 0 1.000000
chassis
0  -20.138657 97.434059 6.727565  -0.349975 0.613997 0.707478  0.975860 0.969481 1 0 1.000000
0  -21.030527 97.191826 6.353200  -0.603222 0.500087 0.621318  0.977325 0.968993 1 0 1.000000
0  -20.017538 96.938576 6.716555  0.000830 -0.730434 0.682983  0.976348 0.969481 1 0 1.000000
chassis
0  -20.138657 97.434059 6.727565  -0.349975 0.613997 0.707478  0.975860 0.969481 1 0 1.000000
0  -20.017538 96.938576 6.716555  0.000830 -0.730434 0.682983  0.976348 0.969481 1 0 1.000000
0  -18.927475 97.224861 6.870705  0.067429 -0.842157 0.534999  0.974883 0.969481 1 0 1.000000
chassis
0  -19.037582 97.731354 6.881716  -0.362541 0.767139 0.529209  0.974395 0.969726 1 0 1.000000
0  -20.138657 97.434059 6.727565  -0.349975 0.613997 0.707478  0.975860 0.969481 1 0 1.000000
0  -18.927475 97.224861 6.870705  0.067429 -0.842157 0.534999  0.974883 0.969481 1 0 1.000000
chassis
0  -19.037582 97.731354 6.881716  -0.362541 0.767139 0.529209  0.974395 0.969726 1 0 1.000000
0  -18.927475 97.224861 6.870705  0.067429 -0.842157 0.534999  0.974883 0.969481 1 0 1.000000
0  -18.696249 97.290924 7.079909  -0.399619 -0.911634 0.096060  0.974395 0.969970 1 0 1.000000
chassis
0  -18.696249 97.290924 7.079909  -0.399619 -0.911634 0.096060  0.974395 0.969970 1 0 1.000000
0  -18.817368 97.808426 7.101931  -0.805847 0.591926 0.015305  0.974395 0.969970 1 0 1.000000
0  -19.037582 97.731354 6.881716  -0.362541 0.767139 0.529209  0.974395 0.969726 1 0 1.000000
chassis
0  -18.729280 97.224861 2.928859  -0.141557 -0.863660 0.483790  0.974883 0.963866 1 0 1.000000
0  -19.577108 97.026665 2.631569  0.151264 -0.808760 0.568354  0.975860 0.963378 1 0 1.000000
0  -19.544077 97.037674 2.136086  0.196224 -0.561462 -0.803901  0.975860 0.962645 1 0 1.000000
chassis
0  -19.544077 97.037674 2.136086  0.196224 -0.561462 -0.803901  0.975860 0.962645 1 0 1.000000
0  -18.454012 97.290924 2.521461  0.576584 -0.453431 -0.679670  0.974395 0.963134 1 0 1.000000
0  -18.729280 97.224861 2.928859  -0.141557 -0.863660 0.483790  0.974883 0.963866 1 0 1.000000
chassis
0  -18.123690 97.356987 3.633547  -0.358760 -0.897190 0.257566  0.973907 0.964843 1 0 1.000000
0  -18.729280 97.224861 2.928859  -0.141557 -0.863660 0.483790  0.974883 0.963866 1 0 1.000000
0  -18.454012 97.290924 2.521461  0.576584 -0.453431 -0.679670  0.974395 0.963134 1 0 1.000000
chassis
0  -18.454012 97.290924 2.521461  0.576584 -0.453431 -0.679670  0.974395 0.963134 1 0 1.000000
0  -17.694271 97.456085 3.413332  0.829428 -0.402850 -0.386989  0.973418 0.964354 1 0 1.000000
0  -18.123690 97.356987 3.633547  -0.358760 -0.897190 0.257566  0.973907 0.964843 1 0 1.000000
chassis
0  -18.123690 97.356987 3.633547  -0.358760 -0.897190 0.257566  0.973907 0.964843 1 0 1.000000
0  -17.694271 97.456085 3.413332  0.829428 -0.402850 -0.386989  0.973418 0.964354 1 0 1.000000
0  -17.452034 97.500130 4.459352  0.872105 -0.474483 -0.119576  0.972930 0.966063 1 0 1.000000
chassis
0  -17.452034 97.500130 4.459352  0.872105 -0.474483 -0.119576  0.972930 0.966063 1 0 1.000000
0  -17.694271 97.456085 3.413332  0.829428 -0.402850 -0.386989  0.973418 0.964354 1 0 1.000000
0  -17.815390 97.973587 3.424342  0.544137 0.755069 -0.365767  0.972930 0.964354 1 0 1.000000
chassis
0  -17.815390 97.973587 3.424342  0.544137 0.755069 -0.365767  0.972930 0.964354 1 0 1.000000
0  -17.573153 98.017632 4.470363  0.559483 0.820780 -0.115324  0.972442 0.966063 1 0 1.000000
0  -17.452034 97.500130 4.459352  0.872105 -0.474483 -0.119576  0.972930 0.966063 1 0 1.000000
chassis
0  -17.573153 98.017632 4.470363  0.559483 0.820780 -0.115324  0.972442 0.966063 1 0 1.000000
0  -17.815390 97.973587 3.424342  0.544137 0.755069 -0.365767  0.972930 0.964354 1 0 1.000000
0  -18.244808 97.852470 3.644557  -0.732754 0.620180 0.280085  0.973418 0.964843 1 0 1.000000
chassis
0  -18.244808 97.852470 3.644557  -0.732754 0.620180 0.280085  0.973418 0.964843 1 0 1.000000
0  -18.068636 97.896515 4.536427  -0.845537 0.524828 0.098090  0.973418 0.966063 1 0 1.000000
0  -17.573153 98.017632 4.470363  0.559483 0.820780 -0.115324  0.972442 0.966063 1 0 1.000000
chassis
0  -17.947517 97.379005 4.525417  -0.497577 -0.862383 0.093344  0.973907 0.966063 1 0 1.000000
0  -18.068636 97.896515 4.536427  -0.845537 0.524828 0.098090  0.973418 0.966063 1 0 1.000000
0  -18.244808 97.852470 3.644557  -0.732754 0.620180 0.280085  0.973418 0.964843 1 0 1.000000
chassis
0  -18.068636 97.896515 4.536427  -0.845537 0.524828 0.098090  0.973418 0.966063 1 0 1.000000
0  -17.947517 97.379005 4.525417  -0.497577 -0.862383 0.093344  0.973907 0.966063 1 0 1.000000
0  -17.793367 97.423050 6.022878  -0.528190 -0.845060 0.082996  0.973418 0.968261 1 0 1.000000
chassis
0  -17.793367 97.423050 6.022878  -0.528190 -0.845060 0.082996  0.973418 0.968261 1 0 1.000000
0  -17.947517 97.379005 4.525417  -0.497577 -0.862383 0.093344  0.973907 0.966063 1 0 1.000000
0  -17.297884 97.544167 5.978835  0.875741 -0.482652 -0.011186  0.972930 0.968261 1 0 1.000000
chassis
0  -17.198786 98.325935 18.817362  -0.462512 -0.882720 0.082995  0.971465 0.987304 1 0 1.000000
0  -17.793367 97.423050 6.022878  -0.528190 -0.845060 0.082996  0.973418 0.968261 1 0 1.000000
0  -17.297884 97.544167 5.978835  0.875741 -0.482652 -0.011186  0.972930 0.968261 1 0 1.000000
chassis
0  -17.297884 97.544167 5.978835  0.875741 -0.482652 -0.011186  0.972930 0.968261 1 0 1.000000
0  -16.758356 98.414017 19.059597  0.965788 -0.258373 -0.022285  0.970977 0.987548 1 0 1.000000
0  -17.198786 98.325935 18.817362  -0.462512 -0.882720 0.082995  0.971465 0.987304 1 0 1.000000
chassis
0  -16.758356 98.414017 19.059597  0.965788 -0.258373 -0.022285  0.970977 0.987548 1 0 1.000000
0  -17.297884 97.544167 5.978835  0.875741 -0.482652 -0.011186  0.972930 0.968261 1 0 1.000000
0  -17.430014 98.061676 5.989845  0.595454 0.799508 -0.078884  0.972442 0.968261 1 0 1.000000
chassis
0  -17.430014 98.061676 5.989845  0.595454 0.799508 -0.078884  0.972442 0.968261 1 0 1.000000
0  -16.879475 98.953545 19.081619  0.701402 0.708580 -0.077131  0.970489 0.987548 1 0 1.000000
0  -16.758356 98.414017 19.059597  0.965788 -0.258373 -0.022285  0.970977 0.987548 1 0 1.000000
chassis
0  -17.319904 98.821419 18.839382  -0.780322 0.625341 -0.006776  0.971465 0.987304 1 0 1.000000
0  -16.879475 98.953545 19.081619  0.701402 0.708580 -0.077131  0.970489 0.987548 1 0 1.000000
0  -17.430014 98.061676 5.989845  0.595454 0.799508 -0.078884  0.972442 0.968261 1 0 1.000000
chassis
0  -17.925497 97.940559 6.044899  -0.882372 0.470295 0.015596  0.972930 0.968261 1 0 1.000000
0  -17.319904 98.821419 18.839382  -0.780322 0.625341 -0.006776  0.971465 0.987304 1 0 1.000000
0  -17.430014 98.061676 5.989845  0.595454 0.799508 -0.078884  0.972442 0.968261 1 0 1.000000
chassis
0  -17.198786 98.325935 18.817362  -0.462512 -0.882720 0.082995  0.971465 0.987304 1 0 1.000000
0  -17.319904 98.821419 18.839382  -0.780322 0.625341 -0.006776  0.971465 0.987304 1 0 1.000000
0  -17.925497 97.940559 6.044899  -0.882372 0.470295 0.015596  0.972930 0.968261 1 0 1.000000
chassis
0  -17.925497 97.940559 6.044899  -0.882372 0.470295 0.015596  0.972930 0.968261 1 0 1.000000
0  -17.793367 97.423050 6.022878  -0.528190 -0.845060 0.082996  0.973418 0.968261 1 0 1.000000
0  -17.198786 98.325935 18.817362  -0.462512 -0.882720 0.082995  0.971465 0.987304 1 0 1.000000
chassis
0  -17.793367 97.423050 6.022878  -0.528190 -0.845060 0.082996  0.973418 0.968261 1 0 1.000000
0  -17.925497 97.940559 6.044899  -0.882372 0.470295 0.015596  0.972930 0.968261 1 0 1.000000
0  -18.068636 97.896515 4.536427  -0.845537 0.524828 0.098090  0.973418 0.966063 1 0 1.000000
chassis
0  -18.068636 97.896515 4.536427  -0.845537 0.524828 0.098090  0.973418 0.966063 1 0 1.000000
0  -17.925497 97.940559 6.044899  -0.882372 0.470295 0.015596  0.972930 0.968261 1 0 1.000000
0  -17.430014 98.061676 5.989845  0.595454 0.799508 -0.078884  0.972442 0.968261 1 0 1.000000
chassis
0  -17.430014 98.061676 5.989845  0.595454 0.799508 -0.078884  0.972442 0.968261 1 0 1.000000
0  -17.573153 98.017632 4.470363  0.559483 0.820780 -0.115324  0.972442 0.966063 1 0 1.000000
0  -18.068636 97.896515 4.536427  -0.845537 0.524828 0.098090  0.973418 0.966063 1 0 1.000000
chassis
0  -17.573153 98.017632 4.470363  0.559483 0.820780 -0.115324  0.972442 0.966063 1 0 1.000000
0  -17.430014 98.061676 5.989845  0.595454 0.799508 -0.078884  0.972442 0.968261 1 0 1.000000
0  -17.297884 97.544167 5.978835  0.875741 -0.482652 -0.011186  0.972930 0.968261 1 0 1.000000
chassis
0  -17.297884 97.544167 5.978835  0.875741 -0.482652 -0.011186  0.972930 0.968261 1 0 1.000000
0  -17.452034 97.500130 4.459352  0.872105 -0.474483 -0.119576  0.972930 0.966063 1 0 1.000000
0  -17.573153 98.017632 4.470363  0.559483 0.820780 -0.115324  0.972442 0.966063 1 0 1.000000
chassis
0  -17.947517 97.379005 4.525417  -0.497577 -0.862383 0.093344  0.973907 0.966063 1 0 1.000000
0  -17.452034 97.500130 4.459352  0.872105 -0.474483 -0.119576  0.972930 0.966063 1 0 1.000000
0  -17.297884 97.544167 5.978835  0.875741 -0.482652 -0.011186  0.972930 0.968261 1 0 1.000000
chassis
0  -17.947517 97.379005 4.525417  -0.497577 -0.862383 0.093344  0.973907 0.966063 1 0 1.000000
0  -18.123690 97.356987 3.633547  -0.358760 -0.897190 0.257566  0.973907 0.964843 1 0 1.000000
0  -17.452034 97.500130 4.459352  0.872105 -0.474483 -0.119576  0.972930 0.966063 1 0 1.000000
chassis
0  -18.244808 97.852470 3.644557  -0.732754 0.620180 0.280085  0.973418 0.964843 1 0 1.000000
0  -18.123690 97.356987 3.633547  -0.358760 -0.897190 0.257566  0.973907 0.964843 1 0 1.000000
0  -17.947517 97.379005 4.525417  -0.497577 -0.862383 0.093344  0.973907 0.966063 1 0 1.000000
chassis
0  -18.123690 97.356987 3.633547  -0.358760 -0.897190 0.257566  0.973907 0.964843 1 0 1.000000
0  -18.244808 97.852470 3.644557  -0.732754 0.620180 0.280085  0.973418 0.964843 1 0 1.000000
0  -18.839388 97.709328 2.939870  -0.532209 0.677092 0.508233  0.974395 0.963866 1 0 1.000000
chassis
0  -18.839388 97.709328 2.939870  -0.532209 0.677092 0.508233  0.974395 0.963866 1 0 1.000000
0  -18.244808 97.852470 3.644557  -0.732754 0.620180 0.280085  0.973418 0.964843 1 0 1.000000
0  -17.815390 97.973587 3.424342  0.544137 0.755069 -0.365767  0.972930 0.964354 1 0 1.000000
chassis
0  -17.815390 97.973587 3.424342  0.544137 0.755069 -0.365767  0.972930 0.964354 1 0 1.000000
0  -18.575130 97.786407 2.532472  0.289859 0.694907 -0.658093  0.973907 0.963134 1 0 1.000000
0  -18.839388 97.709328 2.939870  -0.532209 0.677092 0.508233  0.974395 0.963866 1 0 1.000000
chassis
0  -18.575130 97.786407 2.532472  0.289859 0.694907 -0.658093  0.973907 0.963134 1 0 1.000000
0  -17.815390 97.973587 3.424342  0.544137 0.755069 -0.365767  0.972930 0.964354 1 0 1.000000
0  -17.694271 97.456085 3.413332  0.829428 -0.402850 -0.386989  0.973418 0.964354 1 0 1.000000
chassis
0  -17.694271 97.456085 3.413332  0.829428 -0.402850 -0.386989  0.973418 0.964354 1 0 1.000000
0  -18.454012 97.290924 2.521461  0.576584 -0.453431 -0.679670  0.974395 0.963134 1 0 1.000000
0  -18.575130 97.786407 2.532472  0.289859 0.694907 -0.658093  0.973907 0.963134 1 0 1.000000
chassis
0  -19.654184 97.511139 2.147096  -0.101006 0.621117 -0.777182  0.975372 0.962645 1 0 1.000000
0  -18.575130 97.786407 2.532472  0.289859 0.694907 -0.658093  0.973907 0.963134 1 0 1.000000
0  -18.454012 97.290924 2.521461  0.576584 -0.453431 -0.679670  0.974395 0.963134 1 0 1.000000
chassis
0  -18.454012 97.290924 2.521461  0.576584 -0.453431 -0.679670  0.974395 0.963134 1 0 1.000000
0  -19.544077 97.037674 2.136086  0.196224 -0.561462 -0.803901  0.975860 0.962645 1 0 1.000000
0  -19.654184 97.511139 2.147096  -0.101006 0.621117 -0.777182  0.975372 0.962645 1 0 1.000000
chassis
0  -20.777279 97.202835 2.378322  -0.484084 0.542179 -0.686807  0.976836 0.963134 1 0 1.000000
0  -19.654184 97.511139 2.147096  -0.101006 0.621117 -0.777182  0.975372 0.962645 1 0 1.000000
0  -19.544077 97.037674 2.136086  0.196224 -0.561462 -0.803901  0.975860 0.962645 1 0 1.000000
chassis
0  -21.481966 100.131691 6.022878  -0.272805 -0.161340 0.948444  0.489273 0.736076 1 0 1.000000
0  -22.329794 99.382965 5.384255  -0.717224 -0.528007 0.454750  0.489273 0.736076 1 0 1.000000
0  -21.063559 98.127739 5.879738  -0.465085 -0.272753 0.842201  0.489517 0.736076 1 0 1.000000
chassis
0  -21.481966 100.131691 6.022878  -0.272805 -0.161340 0.948444  0.489273 0.736076 1 0 1.000000
0  -20.314829 98.502106 6.166018  -0.053876 -0.033821 0.997975  0.489273 0.736076 1 0 1.000000
0  -19.533066 98.876472 5.989845  0.437430 0.091007 0.894635  0.489273 0.736076 1 0 1.000000
chassis
0  -21.063559 98.127739 5.879738  -0.465085 -0.272753 0.842201  0.489517 0.736076 1 0 1.000000
0  -20.314829 98.502106 6.166018  -0.053876 -0.033821 0.997975  0.489273 0.736076 1 0 1.000000
0  -21.481966 100.131691 6.022878  -0.272805 -0.161340 0.948444  0.489273 0.736076 1 0 1.000000
chassis
0  -15.954572 84.628571 5.725588  0.429554 0.106106 0.896786  0.490249 0.736076 1 0 1.000000
0  -20.314829 98.502106 6.166018  -0.053876 -0.033821 0.997975  0.489273 0.736076 1 0 1.000000
0  -21.063559 98.127739 5.879738  -0.465085 -0.272753 0.842201  0.489517 0.736076 1 0 1.000000
chassis
0  -17.650227 84.232185 5.615480  -0.545523 -0.127610 0.828324  0.490249 0.736076 1 0 1.000000
0  -15.954572 84.628571 5.725588  0.429554 0.106106 0.896786  0.490249 0.736076 1 0 1.000000
0  -21.063559 98.127739 5.879738  -0.465085 -0.272753 0.842201  0.489517 0.736076 1 0 1.000000
chassis
0  -17.650227 84.232185 5.615480  -0.545523 -0.127610 0.828324  0.490249 0.736076 1 0 1.000000
0  -21.063559 98.127739 5.879738  -0.465085 -0.272753 0.842201  0.489517 0.736076 1 0 1.000000
0  -21.581064 97.863480 5.197072  -0.755818 -0.473219 0.452551  0.489517 0.736076 1 0 1.000000
chassis
0  -21.581064 97.863480 5.197072  -0.755818 -0.473219 0.452551  0.489517 0.736076 1 0 1.000000
0  -21.063559 98.127739 5.879738  -0.465085 -0.272753 0.842201  0.489517 0.736076 1 0 1.000000
0  -22.329794 99.382965 5.384255  -0.717224 -0.528007 0.454750  0.489273 0.736076 1 0 1.000000
chassis
0  -22.329794 99.382965 5.384255  -0.717224 -0.528007 0.454750  0.489273 0.736076 1 0 1.000000
0  -22.538998 99.096687 4.140041  -0.737408 -0.597786 -0.314454  0.489273 0.735832 1 0 1.000000
0  -21.581064 97.863480 5.197072  -0.755818 -0.473219 0.452551  0.489517 0.736076 1 0 1.000000
chassis
0  -21.724203 97.775398 4.316213  -0.969964 -0.233836 -0.067010  0.489517 0.735832 1 0 1.000000
0  -21.581064 97.863480 5.197072  -0.755818 -0.473219 0.452551  0.489517 0.736076 1 0 1.000000
0  -22.538998 99.096687 4.140041  -0.737408 -0.597786 -0.314454  0.489273 0.735832 1 0 1.000000
chassis
0  -19.533066 98.876472 5.989845  0.437430 0.091007 0.894635  0.489273 0.736076 1 0 1.000000
0  -20.314829 98.502106 6.166018  -0.053876 -0.033821 0.997975  0.489273 0.736076 1 0 1.000000
0  -15.954572 84.628571 5.725588  0.429554 0.106106 0.896786  0.490249 0.736076 1 0 1.000000
chassis
0  -15.954572 84.628571 5.725588  0.429554 0.106106 0.896786  0.490249 0.736076 1 0 1.000000
0  -15.018659 84.870804 4.283180  0.970664 0.232394 0.061677  0.490249 0.736076 1 0 1.000000
0  -19.533066 98.876472 5.989845  0.437430 0.091007 0.894635  0.489273 0.736076 1 0 1.000000
chassis
0  -15.018659 84.870804 4.283180  0.970664 0.232394 0.061677  0.490249 0.736076 1 0 1.000000
0  -18.927475 99.162750 5.395266  0.809837 0.192467 0.554185  0.489273 0.736076 1 0 1.000000
0  -19.533066 98.876472 5.989845  0.437430 0.091007 0.894635  0.489273 0.736076 1 0 1.000000
chassis
0  -18.652206 99.272858 4.547438  0.967760 0.242315 0.068731  0.489273 0.736076 1 0 1.000000
0  -18.927475 99.162750 5.395266  0.809837 0.192467 0.554185  0.489273 0.736076 1 0 1.000000
0  -15.018659 84.870804 4.283180  0.970664 0.232394 0.061677  0.490249 0.736076 1 0 1.000000
chassis
0  -21.581064 97.863480 5.197072  -0.755818 -0.473219 0.452551  0.489517 0.736076 1 0 1.000000
0  -18.398956 84.078033 4.051955  -0.969764 -0.232909 -0.072874  0.490249 0.736076 1 0 1.000000
0  -17.650227 84.232185 5.615480  -0.545523 -0.127610 0.828324  0.490249 0.736076 1 0 1.000000
chassis
0  -21.581064 97.863480 5.197072  -0.755818 -0.473219 0.452551  0.489517 0.736076 1 0 1.000000
0  -21.724203 97.775398 4.316213  -0.969964 -0.233836 -0.067010  0.489517 0.735832 1 0 1.000000
0  -18.398956 84.078033 4.051955  -0.969764 -0.232909 -0.072874  0.490249 0.736076 1 0 1.000000
chassis
0  -18.398956 84.078033 4.051955  -0.969764 -0.232909 -0.072874  0.490249 0.736076 1 0 1.000000
0  -21.724203 97.775398 4.316213  -0.969964 -0.233836 -0.067010  0.489517 0.735832 1 0 1.000000
0  -21.448935 97.885506 3.468386  -0.808788 -0.184424 -0.558435  0.489517 0.735832 1 0 1.000000
chassis
0  -22.538998 99.096687 4.140041  -0.737408 -0.597786 -0.314454  0.489273 0.735832 1 0 1.000000
0  -21.448935 97.885506 3.468386  -0.808788 -0.184424 -0.558435  0.489517 0.735832 1 0 1.000000
0  -21.724203 97.775398 4.316213  -0.969964 -0.233836 -0.067010  0.489517 0.735832 1 0 1.000000
chassis
0  -21.999472 99.449028 3.005934  -0.304708 -0.320261 -0.896987  0.489273 0.735832 1 0 1.000000
0  -21.448935 97.885506 3.468386  -0.808788 -0.184424 -0.558435  0.489517 0.735832 1 0 1.000000
0  -22.538998 99.096687 4.140041  -0.737408 -0.597786 -0.314454  0.489273 0.735832 1 0 1.000000
chassis
0  -21.999472 99.449028 3.005934  -0.304708 -0.320261 -0.896987  0.489273 0.735832 1 0 1.000000
0  -20.843344 98.160774 2.873806  -0.428625 -0.085592 -0.899419  0.489517 0.735832 1 0 1.000000
0  -21.448935 97.885506 3.468386  -0.808788 -0.184424 -0.558435  0.489517 0.735832 1 0 1.000000
chassis
0  -20.843344 98.160774 2.873806  -0.428625 -0.085592 -0.899419  0.489517 0.735832 1 0 1.000000
0  -21.999472 99.449028 3.005934  -0.304708 -0.320261 -0.896987  0.489273 0.735832 1 0 1.000000
0  -21.019516 100.230789 2.664601  0.300577 0.127770 -0.945160  0.489273 0.735832 1 0 1.000000
chassis
0  -21.019516 100.230789 2.664601  0.300577 0.127770 -0.945160  0.489273 0.735832 1 0 1.000000
0  -20.061581 98.535133 2.697634  0.102971 -0.006547 -0.994663  0.489273 0.735832 1 0 1.000000
0  -20.843344 98.160774 2.873806  -0.428625 -0.085592 -0.899419  0.489517 0.735832 1 0 1.000000
chassis
0  -20.061581 98.535133 2.697634  0.102971 -0.006547 -0.994663  0.489273 0.735832 1 0 1.000000
0  -21.019516 100.230789 2.664601  0.300577 0.127770 -0.945160  0.489273 0.735832 1 0 1.000000
0  -19.312851 98.909500 2.983913  0.507388 0.259959 -0.821571  0.489273 0.735832 1 0 1.000000
chassis
0  -19.312851 98.909500 2.983913  0.507388 0.259959 -0.821571  0.489273 0.735832 1 0 1.000000
0  -15.767389 84.727669 2.719655  0.540024 0.125286 -0.832272  0.490249 0.735832 1 0 1.000000
0  -20.061581 98.535133 2.697634  0.102971 -0.006547 -0.994663  0.489273 0.735832 1 0 1.000000
chassis
0  -15.018659 84.870804 4.283180  0.970664 0.232394 0.061677  0.490249 0.736076 1 0 1.000000
0  -15.767389 84.727669 2.719655  0.540024 0.125286 -0.832272  0.490249 0.735832 1 0 1.000000
0  -19.312851 98.909500 2.983913  0.507388 0.259959 -0.821571  0.489273 0.735832 1 0 1.000000
chassis
0  -18.795345 99.173759 3.666579  0.871012 0.227647 -0.435333  0.489273 0.735832 1 0 1.000000
0  -15.018659 84.870804 4.283180  0.970664 0.232394 0.061677  0.490249 0.736076 1 0 1.000000
0  -19.312851 98.909500 2.983913  0.507388 0.259959 -0.821571  0.489273 0.735832 1 0 1.000000
chassis
0  -18.652206 99.272858 4.547438  0.967760 0.242315 0.068731  0.489273 0.736076 1 0 1.000000
0  -15.018659 84.870804 4.283180  0.970664 0.232394 0.061677  0.490249 0.736076 1 0 1.000000
0  -18.795345 99.173759 3.666579  0.871012 0.227647 -0.435333  0.489273 0.735832 1 0 1.000000
chassis
0  -19.962484 101.265800 4.558449  0.761775 0.565444 0.316184  0.489273 0.735832 1 0 1.000000
0  -18.652206 99.272858 4.547438  0.967760 0.242315 0.068731  0.489273 0.736076 1 0 1.000000
0  -18.795345 99.173759 3.666579  0.871012 0.227647 -0.435333  0.489273 0.735832 1 0 1.000000
chassis
0  -18.927475 99.162750 5.395266  0.809837 0.192467 0.554185  0.489273 0.736076 1 0 1.000000
0  -18.652206 99.272858 4.547438  0.967760 0.242315 0.068731  0.489273 0.736076 1 0 1.000000
0  -19.962484 101.265800 4.558449  0.761775 0.565444 0.316184  0.489273 0.735832 1 0 1.000000
chassis
0  -19.962484 101.265800 4.558449  0.761775 0.565444 0.316184  0.489273 0.735832 1 0 1.000000
0  -20.502010 100.913460 5.681545  0.665343 0.509180 0.545943  0.489273 0.736076 1 0 1.000000
0  -18.927475 99.162750 5.395266  0.809837 0.192467 0.554185  0.489273 0.736076 1 0 1.000000
chassis
0  -20.502010 100.913460 5.681545  0.665343 0.509180 0.545943  0.489273 0.736076 1 0 1.000000
0  -19.533066 98.876472 5.989845  0.437430 0.091007 0.894635  0.489273 0.736076 1 0 1.000000
0  -18.927475 99.162750 5.395266  0.809837 0.192467 0.554185  0.489273 0.736076 1 0 1.000000
chassis
0  -19.533066 98.876472 5.989845  0.437430 0.091007 0.894635  0.489273 0.736076 1 0 1.000000
0  -20.502010 100.913460 5.681545  0.665343 0.509180 0.545943  0.489273 0.736076 1 0 1.000000
0  -21.481966 100.131691 6.022878  -0.272805 -0.161340 0.948444  0.489273 0.736076 1 0 1.000000
chassis
0  -21.448935 97.885506 3.468386  -0.808788 -0.184424 -0.558435  0.489517 0.735832 1 0 1.000000
0  -17.463043 84.320267 2.609547  -0.425707 -0.106244 -0.898602  0.490249 0.735832 1 0 1.000000
0  -18.398956 84.078033 4.051955  -0.969764 -0.232909 -0.072874  0.490249 0.736076 1 0 1.000000
chassis
0  -20.843344 98.160774 2.873806  -0.428625 -0.085592 -0.899419  0.489517 0.735832 1 0 1.000000
0  -17.463043 84.320267 2.609547  -0.425707 -0.106244 -0.898602  0.490249 0.735832 1 0 1.000000
0  -21.448935 97.885506 3.468386  -0.808788 -0.184424 -0.558435  0.489517 0.735832 1 0 1.000000
chassis
0  -15.767389 84.727669 2.719655  0.540024 0.125286 -0.832272  0.490249 0.735832 1 0 1.000000
0  -17.463043 84.320267 2.609547  -0.425707 -0.106244 -0.898602  0.490249 0.735832 1 0 1.000000
0  -20.843344 98.160774 2.873806  -0.428625 -0.085592 -0.899419  0.489517 0.735832 1 0 1.000000
chassis
0  -20.061581 98.535133 2.697634  0.102971 -0.006547 -0.994663  0.489273 0.735832 1 0 1.000000
0  -15.767389 84.727669 2.719655  0.540024 0.125286 -0.832272  0.490249 0.735832 1 0 1.000000
0  -20.843344 98.160774 2.873806  -0.428625 -0.085592 -0.899419  0.489517 0.735832 1 0 1.000000
chassis
0  -18.795345 99.173759 3.666579  0.871012 0.227647 -0.435333  0.489273 0.735832 1 0 1.000000
0  -20.182699 100.990532 3.303224  0.636383 0.399602 -0.659799  0.489273 0.735832 1 0 1.000000
0  -19.962484 101.265800 4.558449  0.761775 0.565444 0.316184  0.489273 0.735832 1 0 1.000000
chassis
0  -19.312851 98.909500 2.983913  0.507388 0.259959 -0.821571  0.489273 0.735832 1 0 1.000000
0  -20.182699 100.990532 3.303224  0.636383 0.399602 -0.659799  0.489273 0.735832 1 0 1.000000
0  -18.795345 99.173759 3.666579  0.871012 0.227647 -0.435333  0.489273 0.735832 1 0 1.000000
chassis
0  -19.312851 98.909500 2.983913  0.507388 0.259959 -0.821571  0.489273 0.735832 1 0 1.000000
0  -21.019516 100.230789 2.664601  0.300577 0.127770 -0.945160  0.489273 0.735832 1 0 1.000000
0  -20.182699 100.990532 3.303224  0.636383 0.399602 -0.659799  0.489273 0.735832 1 0 1.000000
chrome
0  -34.034214 115.976151 0.946926  -0.637630 0.767708 -0.063656  0.810816 0.904538 1 0 1.000000
0  -32.977180 116.923080 1.750711  -0.637168 0.768123 -0.063272  0.814234 0.904538 1 0 1.000000
0  -34.001183 115.965141 0.847830  -0.116672 -0.178005 -0.977088  0.810816 0.905026 1 0 1.000000
chrome
0  -22.032503 103.842316 2.774709  0.457806 0.308137 -0.833946  0.814234 0.975585 1 0 1.000000
0  -23.122568 102.862358 1.948903  0.279404 0.153634 -0.947803  0.810816 0.975585 1 0 1.000000
0  -34.001183 115.965141 0.847830  -0.116672 -0.178005 -0.977088  0.810816 0.905026 1 0 1.000000
chrome
0  -34.001183 115.965141 0.847830  -0.116672 -0.178005 -0.977088  0.810816 0.905026 1 0 1.000000
0  -32.889095 116.956108 1.695657  0.456039 0.309408 -0.834443  0.814234 0.905026 1 0 1.000000
0  -22.032503 103.842316 2.774709  0.457806 0.308137 -0.833946  0.814234 0.975585 1 0 1.000000
chrome
0  -32.977180 116.923080 1.750711  -0.637168 0.768123 -0.063272  0.814234 0.904538 1 0 1.000000
0  -32.889095 116.956108 1.695657  0.456039 0.309408 -0.834443  0.814234 0.905026 1 0 1.000000
0  -34.001183 115.965141 0.847830  -0.116672 -0.178005 -0.977088  0.810816 0.905026 1 0 1.000000
chrome
0  -32.977180 116.923080 1.750711  -0.637168 0.768123 -0.063272  0.814234 0.904538 1 0 1.000000
0  -32.701912 117.275421 3.314236  -0.637390 0.767976 -0.062826  0.818140 0.904538 1 0 1.000000
0  -32.889095 116.956108 1.695657  0.456039 0.309408 -0.834443  0.814234 0.905026 1 0 1.000000
chrome
0  -21.746225 104.216682 4.404298  0.718195 0.621779 0.312388  0.818140 0.975585 1 0 1.000000
0  -22.032503 103.842316 2.774709  0.457806 0.308137 -0.833946  0.814234 0.975585 1 0 1.000000
0  -32.889095 116.956108 1.695657  0.456039 0.309408 -0.834443  0.814234 0.905026 1 0 1.000000
chrome
0  -32.889095 116.956108 1.695657  0.456039 0.309408 -0.834443  0.814234 0.905026 1 0 1.000000
0  -32.613827 117.319466 3.325247  0.761660 0.615328 -0.203092  0.818140 0.905026 1 0 1.000000
0  -21.746225 104.216682 4.404298  0.718195 0.621779 0.312388  0.818140 0.975585 1 0 1.000000
chrome
0  -32.701912 117.275421 3.314236  -0.637390 0.767976 -0.062826  0.818140 0.904538 1 0 1.000000
0  -32.613827 117.319466 3.325247  0.761660 0.615328 -0.203092  0.818140 0.905026 1 0 1.000000
0  -32.889095 116.956108 1.695657  0.456039 0.309408 -0.834443  0.814234 0.905026 1 0 1.000000
chrome
0  -33.318516 116.857010 4.800686  0.309874 0.330752 0.891393  0.821558 0.905026 1 0 1.000000
0  -32.613827 117.319466 3.325247  0.761660 0.615328 -0.203092  0.818140 0.905026 1 0 1.000000
0  -32.701912 117.275421 3.314236  -0.637390 0.767976 -0.062826  0.818140 0.904538 1 0 1.000000
chrome
0  -32.701912 117.275421 3.314236  -0.637390 0.767976 -0.062826  0.818140 0.904538 1 0 1.000000
0  -33.384579 116.823982 4.723611  -0.637536 0.767872 -0.062619  0.821558 0.904538 1 0 1.000000
0  -33.318516 116.857010 4.800686  0.309874 0.330752 0.891393  0.821558 0.905026 1 0 1.000000
chrome
0  -34.595760 115.833015 5.252127  -0.084159 0.011908 0.996381  0.825465 0.905026 1 0 1.000000
0  -33.318516 116.857010 4.800686  0.309874 0.330752 0.891393  0.821558 0.905026 1 0 1.000000
0  -33.384579 116.823982 4.723611  -0.637536 0.767872 -0.062619  0.821558 0.904538 1 0 1.000000
chrome
0  -33.384579 116.823982 4.723611  -0.637536 0.767872 -0.062619  0.821558 0.904538 1 0 1.000000
0  -34.606773 115.844025 5.164041  -0.638063 0.767439 -0.062560  0.825465 0.904538 1 0 1.000000
0  -34.595760 115.833015 5.252127  -0.084159 0.011908 0.996381  0.825465 0.905026 1 0 1.000000
chrome
0  -35.707848 114.842049 4.415311  -0.455228 -0.310327 0.834545  0.829371 0.905026 1 0 1.000000
0  -34.595760 115.833015 5.252127  -0.084159 0.011908 0.996381  0.825465 0.905026 1 0 1.000000
0  -34.606773 115.844025 5.164041  -0.638063 0.767439 -0.062560  0.825465 0.904538 1 0 1.000000
chrome
0  -34.606773 115.844025 5.164041  -0.638063 0.767439 -0.062560  0.825465 0.904538 1 0 1.000000
0  -35.663803 114.897102 4.360257  -0.638206 0.767293 -0.062881  0.829371 0.904538 1 0 1.000000
0  -35.707848 114.842049 4.415311  -0.455228 -0.310327 0.834545  0.829371 0.905026 1 0 1.000000
chrome
0  -35.983116 114.478691 2.785721  -0.760885 -0.616209 0.203325  0.832789 0.905026 1 0 1.000000
0  -35.707848 114.842049 4.415311  -0.455228 -0.310327 0.834545  0.829371 0.905026 1 0 1.000000
0  -35.663803 114.897102 4.360257  -0.638206 0.767293 -0.062881  0.829371 0.904538 1 0 1.000000
chrome
0  -35.663803 114.897102 4.360257  -0.638206 0.767293 -0.062881  0.829371 0.904538 1 0 1.000000
0  -35.939072 114.544754 2.785721  -0.638292 0.767184 -0.063343  0.832789 0.904538 1 0 1.000000
0  -35.983116 114.478691 2.785721  -0.760885 -0.616209 0.203325  0.832789 0.905026 1 0 1.000000
chrome
0  -35.939072 114.544754 2.785721  -0.638292 0.767184 -0.063343  0.832789 0.904538 1 0 1.000000
0  -35.256405 114.996201 1.376346  -0.637851 0.767524 -0.063656  0.836695 0.904538 1 0 1.000000
0  -35.983116 114.478691 2.785721  -0.760885 -0.616209 0.203325  0.832789 0.905026 1 0 1.000000
chrome
0  -35.256405 114.996201 1.376346  -0.637851 0.767524 -0.063656  0.836695 0.904538 1 0 1.000000
0  -35.278427 114.941147 1.299270  -0.620806 -0.561437 -0.547164  0.836695 0.905026 1 0 1.000000
0  -35.983116 114.478691 2.785721  -0.760885 -0.616209 0.203325  0.832789 0.905026 1 0 1.000000
chrome
0  -35.256405 114.996201 1.376346  -0.637851 0.767524 -0.063656  0.836695 0.904538 1 0 1.000000
0  -34.034214 115.976151 0.946926  -0.637630 0.767708 -0.063656  0.839625 0.904538 1 0 1.000000
0  -35.278427 114.941147 1.299270  -0.620806 -0.561437 -0.547164  0.836695 0.905026 1 0 1.000000
chrome
0  -34.034214 115.976151 0.946926  -0.637630 0.767708 -0.063656  0.839625 0.904538 1 0 1.000000
0  -34.001183 115.965141 0.847830  -0.116672 -0.178005 -0.977088  0.839625 0.905026 1 0 1.000000
0  -35.278427 114.941147 1.299270  -0.620806 -0.561437 -0.547164  0.836695 0.905026 1 0 1.000000
chrome
0  -35.278427 114.941147 1.299270  -0.620806 -0.561437 -0.547164  0.836695 0.905026 1 0 1.000000
0  -34.001183 115.965141 0.847830  -0.116672 -0.178005 -0.977088  0.839625 0.905026 1 0 1.000000
0  -23.122568 102.862358 1.948903  0.279404 0.153634 -0.947803  0.839625 0.975585 1 0 1.000000
chrome
0  -23.122568 102.862358 1.948903  0.279404 0.153634 -0.947803  0.839625 0.975585 1 0 1.000000
0  -24.399813 101.849373 2.389333  -0.309942 -0.331279 -0.891173  0.836695 0.975585 1 0 1.000000
0  -35.278427 114.941147 1.299270  -0.620806 -0.561437 -0.547164  0.836695 0.905026 1 0 1.000000
chrome
0  -35.983116 114.478691 2.785721  -0.760885 -0.616209 0.203325  0.832789 0.905026 1 0 1.000000
0  -35.278427 114.941147 1.299270  -0.620806 -0.561437 -0.547164  0.836695 0.905026 1 0 1.000000
0  -24.399813 101.849373 2.389333  -0.309942 -0.331279 -0.891173  0.836695 0.975585 1 0 1.000000
chrome
0  -24.399813 101.849373 2.389333  -0.309942 -0.331279 -0.891173  0.836695 0.975585 1 0 1.000000
0  -25.104502 101.386917 3.864773  -0.717672 -0.622381 -0.312393  0.832789 0.975585 1 0 1.000000
0  -35.983116 114.478691 2.785721  -0.760885 -0.616209 0.203325  0.832789 0.905026 1 0 1.000000
chrome
0  -25.104502 101.386917 3.864773  -0.717672 -0.622381 -0.312393  0.832789 0.975585 1 0 1.000000
0  -24.818222 101.750275 5.483352  -0.704818 -0.549017 0.449235  0.829371 0.975585 1 0 1.000000
0  -35.983116 114.478691 2.785721  -0.760885 -0.616209 0.203325  0.832789 0.905026 1 0 1.000000
chrome
0  -24.818222 101.750275 5.483352  -0.704818 -0.549017 0.449235  0.829371 0.975585 1 0 1.000000
0  -35.707848 114.842049 4.415311  -0.455228 -0.310327 0.834545  0.829371 0.905026 1 0 1.000000
0  -35.983116 114.478691 2.785721  -0.760885 -0.616209 0.203325  0.832789 0.905026 1 0 1.000000
chrome
0  -24.818222 101.750275 5.483352  -0.704818 -0.549017 0.449235  0.829371 0.975585 1 0 1.000000
0  -23.717148 102.730232 6.320168  -0.278743 -0.154199 0.947905  0.825465 0.975585 1 0 1.000000
0  -35.707848 114.842049 4.415311  -0.455228 -0.310327 0.834545  0.829371 0.905026 1 0 1.000000
chrome
0  -23.717148 102.730232 6.320168  -0.278743 -0.154199 0.947905  0.825465 0.975585 1 0 1.000000
0  -34.595760 115.833015 5.252127  -0.084159 0.011908 0.996381  0.825465 0.905026 1 0 1.000000
0  -35.707848 114.842049 4.415311  -0.455228 -0.310327 0.834545  0.829371 0.905026 1 0 1.000000
chrome
0  -23.717148 102.730232 6.320168  -0.278743 -0.154199 0.947905  0.825465 0.975585 1 0 1.000000
0  -22.450912 103.754227 5.868728  0.310385 0.330828 0.891187  0.821558 0.975585 1 0 1.000000
0  -34.595760 115.833015 5.252127  -0.084159 0.011908 0.996381  0.825465 0.905026 1 0 1.000000
chrome
0  -22.450912 103.754227 5.868728  0.310385 0.330828 0.891187  0.821558 0.975585 1 0 1.000000
0  -33.318516 116.857010 4.800686  0.309874 0.330752 0.891393  0.821558 0.905026 1 0 1.000000
0  -34.595760 115.833015 5.252127  -0.084159 0.011908 0.996381  0.825465 0.905026 1 0 1.000000
chrome
0  -22.450912 103.754227 5.868728  0.310385 0.330828 0.891187  0.821558 0.975585 1 0 1.000000
0  -21.746225 104.216682 4.404298  0.718195 0.621779 0.312388  0.818140 0.975585 1 0 1.000000
0  -33.318516 116.857010 4.800686  0.309874 0.330752 0.891393  0.821558 0.905026 1 0 1.000000
chrome
0  -21.746225 104.216682 4.404298  0.718195 0.621779 0.312388  0.818140 0.975585 1 0 1.000000
0  -32.613827 117.319466 3.325247  0.761660 0.615328 -0.203092  0.818140 0.905026 1 0 1.000000
0  -33.318516 116.857010 4.800686  0.309874 0.330752 0.891393  0.821558 0.905026 1 0 1.000000
chrome
0  -24.553965 101.078621 3.281203  -0.505487 -0.761302 -0.406082  0.967071 0.969481 1 0 1.000000
0  -24.157578 101.012550 2.972903  -0.390296 -0.682645 -0.617790  0.967071 0.968017 1 0 1.000000
0  -23.507944 100.484039 3.149074  -0.390297 -0.682618 -0.617819  0.965117 0.969481 1 0 1.000000
chrome
0  -23.507944 100.484039 3.149074  -0.390297 -0.682618 -0.617819  0.965117 0.969481 1 0 1.000000
0  -23.419857 100.230789 3.468386  -0.510022 -0.763121 -0.396893  0.963652 0.971435 1 0 1.000000
0  -24.553965 101.078621 3.281203  -0.505487 -0.761302 -0.406082  0.967071 0.969481 1 0 1.000000
chrome
0  -24.553965 101.078621 3.281203  -0.505487 -0.761302 -0.406082  0.967071 0.969481 1 0 1.000000
0  -23.419857 100.230789 3.468386  -0.510022 -0.763121 -0.396893  0.963652 0.971435 1 0 1.000000
0  -23.551987 100.175735 4.029934  -0.557742 -0.793988 -0.241883  0.963164 0.974609 1 0 1.000000
chrome
0  -23.551987 100.175735 4.029934  -0.557742 -0.793988 -0.241883  0.963164 0.974609 1 0 1.000000
0  -24.686092 101.023567 3.908816  -0.559849 -0.792642 -0.241430  0.966582 0.973144 1 0 1.000000
0  -24.553965 101.078621 3.281203  -0.505487 -0.761302 -0.406082  0.967071 0.969481 1 0 1.000000
chrome
0  -24.675081 101.100639 4.822707  -0.567995 -0.752424 0.333525  0.967559 0.978271 1 0 1.000000
0  -24.686092 101.023567 3.908816  -0.559849 -0.792642 -0.241430  0.966582 0.973144 1 0 1.000000
0  -23.551987 100.175735 4.029934  -0.557742 -0.793988 -0.241883  0.963164 0.974609 1 0 1.000000
chrome
0  -23.551987 100.175735 4.029934  -0.557742 -0.793988 -0.241883  0.963164 0.974609 1 0 1.000000
0  -23.540976 100.252815 4.844729  -0.570977 -0.754548 0.323486  0.963652 0.979492 1 0 1.000000
0  -24.675081 101.100639 4.822707  -0.567995 -0.752424 0.333525  0.967559 0.978271 1 0 1.000000
chrome
0  -23.540976 100.252815 4.844729  -0.570977 -0.754548 0.323486  0.963652 0.979492 1 0 1.000000
0  -23.673105 100.506058 5.142019  -0.489808 -0.668431 0.559721  0.965117 0.980956 1 0 1.000000
0  -24.675081 101.100639 4.822707  -0.567995 -0.752424 0.333525  0.967559 0.978271 1 0 1.000000
chrome
0  -23.673105 100.506058 5.142019  -0.489808 -0.668431 0.559721  0.965117 0.980956 1 0 1.000000
0  -24.344759 101.034576 5.186062  -0.489715 -0.668416 0.559821  0.967559 0.980712 1 0 1.000000
0  -24.675081 101.100639 4.822707  -0.567995 -0.752424 0.333525  0.967559 0.978271 1 0 1.000000
chrome
0  -22.318783 102.851349 2.213161  0.510511 0.045579 -0.858662  0.979766 0.964110 1 0 1.000000
0  -21.900375 102.851349 2.477419  0.667985 0.188190 -0.719987  0.980255 0.965819 1 0 1.000000
0  -21.459946 102.146660 2.697634  0.667898 0.188182 -0.720069  0.976836 0.967528 1 0 1.000000
chrome
0  -21.459946 102.146660 2.697634  0.667898 0.188182 -0.720069  0.976836 0.967528 1 0 1.000000
0  -21.526011 101.739265 2.620559  0.502999 0.040113 -0.863355  0.974395 0.967284 1 0 1.000000
0  -22.318783 102.851349 2.213161  0.510511 0.045579 -0.858662  0.979766 0.964110 1 0 1.000000
chrome
0  -22.318783 102.851349 2.213161  0.510511 0.045579 -0.858662  0.979766 0.964110 1 0 1.000000
0  -21.526011 101.739265 2.620559  0.502999 0.040113 -0.863355  0.974395 0.967284 1 0 1.000000
0  -21.955429 101.375908 2.477419  0.387937 -0.063951 -0.919465  0.971954 0.966308 1 0 1.000000
chrome
0  -21.955429 101.375908 2.477419  0.387937 -0.063951 -0.919465  0.971954 0.966308 1 0 1.000000
0  -22.792246 102.443947 2.070021  0.387250 -0.064459 -0.919719  0.976836 0.963134 1 0 1.000000
0  -22.318783 102.851349 2.213161  0.510511 0.045579 -0.858662  0.979766 0.964110 1 0 1.000000
chrome
0  -23.496933 101.860382 2.125075  -0.057761 -0.430018 -0.900971  0.972930 0.963134 1 0 1.000000
0  -22.792246 102.443947 2.070021  0.387250 -0.064459 -0.919719  0.976836 0.963134 1 0 1.000000
0  -21.955429 101.375908 2.477419  0.387937 -0.063951 -0.919465  0.971954 0.966308 1 0 1.000000
chrome
0  -21.955429 101.375908 2.477419  0.387937 -0.063951 -0.919465  0.971954 0.966308 1 0 1.000000
0  -22.583040 100.858406 2.543483  -0.050539 -0.423171 -0.904639  0.968047 0.966308 1 0 1.000000
0  -23.496933 101.860382 2.125075  -0.057761 -0.430018 -0.900971  0.972930 0.963134 1 0 1.000000
chrome
0  -22.583040 100.858406 2.543483  -0.050539 -0.423171 -0.904639  0.968047 0.966308 1 0 1.000000
0  -23.001450 100.869415 2.587526  -0.236834 -0.569126 -0.787404  0.967559 0.966308 1 0 1.000000
0  -23.496933 101.860382 2.125075  -0.057761 -0.430018 -0.900971  0.972930 0.963134 1 0 1.000000
chrome
0  -23.001450 100.869415 2.587526  -0.236834 -0.569126 -0.787404  0.967559 0.966308 1 0 1.000000
0  -23.596029 101.430962 2.356301  -0.236724 -0.569147 -0.787422  0.970000 0.964599 1 0 1.000000
0  -23.496933 101.860382 2.125075  -0.057761 -0.430018 -0.900971  0.972930 0.963134 1 0 1.000000
chrome
0  -21.603085 103.677155 5.053932  0.807044 0.398327 0.435907  0.985626 0.980712 1 0 1.000000
0  -21.636118 103.313797 5.395266  0.691432 0.320192 0.647610  0.983673 0.982910 1 0 1.000000
0  -21.228720 102.565071 5.329201  0.691477 0.320199 0.647558  0.979766 0.982910 1 0 1.000000
chrome
0  -21.228720 102.565071 5.329201  0.691477 0.320199 0.647558  0.979766 0.982910 1 0 1.000000
0  -20.964462 102.399910 5.042922  0.810441 0.401590 0.426510  0.979278 0.981445 1 0 1.000000
0  -21.603085 103.677155 5.053932  0.807044 0.398327 0.435907  0.985626 0.980712 1 0 1.000000
chrome
0  -21.603085 103.677155 5.053932  0.807044 0.398327 0.435907  0.985626 0.980712 1 0 1.000000
0  -20.964462 102.399910 5.042922  0.810441 0.401590 0.426510  0.979278 0.981445 1 0 1.000000
0  -20.843344 102.465973 4.470363  0.861941 0.427841 0.272047  0.979766 0.978271 1 0 1.000000
chrome
0  -20.843344 102.465973 4.470363  0.861941 0.427841 0.272047  0.979766 0.978271 1 0 1.000000
0  -21.470957 103.732208 4.426320  0.862124 0.427938 0.271314  0.986114 0.977294 1 0 1.000000
0  -21.603085 103.677155 5.053932  0.807044 0.398327 0.435907  0.985626 0.980712 1 0 1.000000
chrome
0  -21.470957 103.655128 3.512429  0.869550 0.389480 -0.303625  0.985626 0.971923 1 0 1.000000
0  -21.470957 103.732208 4.426320  0.862124 0.427938 0.271314  0.986114 0.977294 1 0 1.000000
0  -20.843344 102.465973 4.470363  0.861941 0.427841 0.272047  0.979766 0.978271 1 0 1.000000
chrome
0  -20.843344 102.465973 4.470363  0.861941 0.427841 0.272047  0.979766 0.978271 1 0 1.000000
0  -20.854355 102.388893 3.655568  0.871328 0.393010 -0.293820  0.979278 0.973388 1 0 1.000000
0  -21.470957 103.655128 3.512429  0.869550 0.389480 -0.303625  0.985626 0.971923 1 0 1.000000
chrome
0  -20.854355 102.388893 3.655568  0.871328 0.393010 -0.293820  0.979278 0.973388 1 0 1.000000
0  -21.052547 102.543045 3.325246  0.790949 0.306026 -0.529856  0.979766 0.971435 1 0 1.000000
0  -21.470957 103.655128 3.512429  0.869550 0.389480 -0.303625  0.985626 0.971923 1 0 1.000000
chrome
0  -21.052547 102.543045 3.325246  0.790949 0.306026 -0.529856  0.979766 0.971435 1 0 1.000000
0  -21.448935 103.280769 3.182106  0.790895 0.306055 -0.529920  0.983673 0.969970 1 0 1.000000
0  -21.470957 103.655128 3.512429  0.869550 0.389480 -0.303625  0.985626 0.971923 1 0 1.000000
chrome
0  -23.838266 101.904427 6.121975  -0.208983 -0.408567 0.888481  0.972930 0.986328 1 0 1.000000
0  -23.893320 101.475006 5.890749  -0.366743 -0.550643 0.749862  0.970489 0.984863 1 0 1.000000
0  -23.265707 100.902443 5.769631  -0.366752 -0.550616 0.749877  0.968047 0.984863 1 0 1.000000
chrome
0  -23.265707 100.902443 5.769631  -0.366752 -0.550616 0.749877  0.968047 0.984863 1 0 1.000000
0  -22.869320 100.891434 5.879738  -0.202873 -0.401895 0.892930  0.968535 0.985595 1 0 1.000000
0  -23.838266 101.904427 6.121975  -0.208983 -0.408567 0.888481  0.972930 0.986328 1 0 1.000000
chrome
0  -23.838266 101.904427 6.121975  -0.208983 -0.408567 0.888481  0.972930 0.986328 1 0 1.000000
0  -22.869320 100.891434 5.879738  -0.202873 -0.401895 0.892930  0.968535 0.985595 1 0 1.000000
0  -22.439901 101.265800 6.022878  -0.083771 -0.302195 0.949558  0.970977 0.986572 1 0 1.000000
chrome
0  -22.439901 101.265800 6.022878  -0.083771 -0.302195 0.949558  0.970977 0.986572 1 0 1.000000
0  -23.364803 102.311821 6.265114  -0.084212 -0.300580 0.950032  0.975860 0.987304 1 0 1.000000
0  -23.838266 101.904427 6.121975  -0.208983 -0.408567 0.888481  0.972930 0.986328 1 0 1.000000
chrome
0  -22.649105 102.895393 6.210061  0.359275 0.067030 0.930822  0.980255 0.987060 1 0 1.000000
0  -23.364803 102.311821 6.265114  -0.084212 -0.300580 0.950032  0.975860 0.987304 1 0 1.000000
0  -22.439901 101.265800 6.022878  -0.083771 -0.302195 0.949558  0.970977 0.986572 1 0 1.000000
chrome
0  -22.439901 101.265800 6.022878  -0.083771 -0.302195 0.949558  0.970977 0.986572 1 0 1.000000
0  -21.801279 101.783302 5.967824  0.350980 0.061638 0.934352  0.974883 0.986572 1 0 1.000000
0  -22.649105 102.895393 6.210061  0.359275 0.067030 0.930822  0.980255 0.987060 1 0 1.000000
chrome
0  -21.801279 101.783302 5.967824  0.350980 0.061638 0.934352  0.974883 0.986572 1 0 1.000000
0  -21.735214 102.190704 5.890749  0.538010 0.206595 0.817229  0.977325 0.986084 1 0 1.000000
0  -22.649105 102.895393 6.210061  0.359275 0.067030 0.930822  0.980255 0.987060 1 0 1.000000
chrome
0  -21.735214 102.190704 5.890749  0.538010 0.206595 0.817229  0.977325 0.986084 1 0 1.000000
0  -22.197664 102.895393 6.011868  0.538022 0.206608 0.817218  0.980743 0.986328 1 0 1.000000
0  -22.649105 102.895393 6.210061  0.359275 0.067030 0.930822  0.980255 0.987060 1 0 1.000000
chrome
0  -21.514999 100.175735 6.022878  -0.290174 -0.141894 0.946396  0.825465 0.992431 1 0 1.000000
0  -20.546053 100.957497 5.681545  0.609605 0.574297 0.546411  0.822047 0.992431 1 0 1.000000
0  -21.217709 101.772293 5.615480  0.610635 0.572709 0.546926  0.822047 0.986572 1 0 1.000000
chrome
0  -22.197664 100.990532 5.956814  -0.288488 -0.142316 0.946848  0.825465 0.986572 1 0 1.000000
0  -21.514999 100.175735 6.022878  -0.290174 -0.141894 0.946396  0.825465 0.992431 1 0 1.000000
0  -21.217709 101.772293 5.615480  0.610635 0.572709 0.546926  0.822047 0.986572 1 0 1.000000
chrome
0  -22.197664 100.990532 5.956814  -0.288488 -0.142316 0.946848  0.825465 0.986572 1 0 1.000000
0  -23.034481 100.230789 5.318191  -0.714931 -0.536732 0.448100  0.829371 0.986572 1 0 1.000000
0  -21.514999 100.175735 6.022878  -0.290174 -0.141894 0.946396  0.825465 0.992431 1 0 1.000000
chrome
0  -23.034481 100.230789 5.318191  -0.714931 -0.536732 0.448100  0.829371 0.986572 1 0 1.000000
0  -22.362825 99.427010 5.384255  -0.715845 -0.535576 0.448022  0.829371 0.992431 1 0 1.000000
0  -21.514999 100.175735 6.022878  -0.290174 -0.141894 0.946396  0.825465 0.992431 1 0 1.000000
chrome
0  -22.362825 99.427010 5.384255  -0.715845 -0.535576 0.448022  0.829371 0.992431 1 0 1.000000
0  -23.034481 100.230789 5.318191  -0.714931 -0.536732 0.448100  0.829371 0.986572 1 0 1.000000
0  -22.572031 99.140724 4.129030  -0.727961 -0.609287 -0.314392  0.832789 0.992431 1 0 1.000000
chrome
0  -23.034481 100.230789 5.318191  -0.714931 -0.536732 0.448100  0.829371 0.986572 1 0 1.000000
0  -23.254696 99.955521 4.062966  -0.727384 -0.610551 -0.313273  0.832789 0.986572 1 0 1.000000
0  -22.572031 99.140724 4.129030  -0.727961 -0.609287 -0.314392  0.832789 0.992431 1 0 1.000000
chrome
0  -22.572031 99.140724 4.129030  -0.727961 -0.609287 -0.314392  0.832789 0.992431 1 0 1.000000
0  -23.254696 99.955521 4.062966  -0.727384 -0.610551 -0.313273  0.832789 0.986572 1 0 1.000000
0  -22.715170 100.307869 2.939870  -0.320114 -0.318953 -0.892074  0.836695 0.986572 1 0 1.000000
chrome
0  -22.715170 100.307869 2.939870  -0.320114 -0.318953 -0.892074  0.836695 0.986572 1 0 1.000000
0  -22.043514 99.493073 3.005934  -0.320994 -0.317748 -0.892188  0.836695 0.992431 1 0 1.000000
0  -22.572031 99.140724 4.129030  -0.727961 -0.609287 -0.314392  0.832789 0.992431 1 0 1.000000
chrome
0  -22.715170 100.307869 2.939870  -0.320114 -0.318953 -0.892074  0.836695 0.986572 1 0 1.000000
0  -21.735214 101.100639 2.598537  0.269476 0.165431 -0.948691  0.839625 0.986572 1 0 1.000000
0  -21.063559 100.285843 2.664601  0.269344 0.167174 -0.948423  0.839625 0.992431 1 0 1.000000
chrome
0  -22.043514 99.493073 3.005934  -0.320994 -0.317748 -0.892188  0.836695 0.992431 1 0 1.000000
0  -22.715170 100.307869 2.939870  -0.320114 -0.318953 -0.892074  0.836695 0.986572 1 0 1.000000
0  -21.063559 100.285843 2.664601  0.269344 0.167174 -0.948423  0.839625 0.992431 1 0 1.000000
chrome
0  -22.043514 99.493073 3.005934  -0.320994 -0.317748 -0.892188  0.836695 0.992431 1 0 1.000000
0  -21.063559 100.285843 2.664601  0.269344 0.167174 -0.948423  0.839625 0.992431 1 0 1.000000
0  -21.041536 100.230789 2.829762  0.637671 -0.767763 0.062565  0.839625 0.993652 1 0 1.000000
chrome
0  -21.041536 100.230789 2.829762  0.637671 -0.767763 0.062565  0.839625 0.993652 1 0 1.000000
0  -21.933407 99.526100 3.138063  0.637327 -0.768031 0.062797  0.836695 0.993652 1 0 1.000000
0  -22.043514 99.493073 3.005934  -0.320994 -0.317748 -0.892188  0.836695 0.992431 1 0 1.000000
chrome
0  -22.572031 99.140724 4.129030  -0.727961 -0.609287 -0.314392  0.832789 0.992431 1 0 1.000000
0  -22.043514 99.493073 3.005934  -0.320994 -0.317748 -0.892188  0.836695 0.992431 1 0 1.000000
0  -21.933407 99.526100 3.138063  0.637327 -0.768031 0.062797  0.836695 0.993652 1 0 1.000000
chrome
0  -21.933407 99.526100 3.138063  0.637327 -0.768031 0.062797  0.836695 0.993652 1 0 1.000000
0  -22.417879 99.206795 4.162063  0.637349 -0.767972 0.063292  0.832789 0.993652 1 0 1.000000
0  -22.572031 99.140724 4.129030  -0.727961 -0.609287 -0.314392  0.832789 0.992431 1 0 1.000000
chrome
0  -22.362825 99.427010 5.384255  -0.715845 -0.535576 0.448022  0.829371 0.992431 1 0 1.000000
0  -22.572031 99.140724 4.129030  -0.727961 -0.609287 -0.314392  0.832789 0.992431 1 0 1.000000
0  -22.417879 99.206795 4.162063  0.637349 -0.767972 0.063292  0.832789 0.993652 1 0 1.000000
chrome
0  -22.417879 99.206795 4.162063  0.637349 -0.767972 0.063292  0.832789 0.993652 1 0 1.000000
0  -22.219687 99.460037 5.285159  0.637535 -0.767787 0.063665  0.829371 0.993652 1 0 1.000000
0  -22.362825 99.427010 5.384255  -0.715845 -0.535576 0.448022  0.829371 0.992431 1 0 1.000000
chrome
0  -21.514999 100.175735 6.022878  -0.290174 -0.141894 0.946396  0.825465 0.992431 1 0 1.000000
0  -22.362825 99.427010 5.384255  -0.715845 -0.535576 0.448022  0.829371 0.992431 1 0 1.000000
0  -22.219687 99.460037 5.285159  0.637535 -0.767787 0.063665  0.829371 0.993652 1 0 1.000000
chrome
0  -22.219687 99.460037 5.285159  0.637535 -0.767787 0.063665  0.829371 0.993652 1 0 1.000000
0  -21.459946 100.131691 5.868727  0.637932 -0.767450 0.063740  0.825465 0.993652 1 0 1.000000
0  -21.514999 100.175735 6.022878  -0.290174 -0.141894 0.946396  0.825465 0.992431 1 0 1.000000
chrome
0  -20.546053 100.957497 5.681545  0.609605 0.574297 0.546411  0.822047 0.992431 1 0 1.000000
0  -21.514999 100.175735 6.022878  -0.290174 -0.141894 0.946396  0.825465 0.992431 1 0 1.000000
0  -21.459946 100.131691 5.868727  0.637932 -0.767450 0.063740  0.825465 0.993652 1 0 1.000000
chrome
0  -21.459946 100.131691 5.868727  0.637932 -0.767450 0.063740  0.825465 0.993652 1 0 1.000000
0  -20.579086 100.847389 5.549416  0.638129 -0.767314 0.063406  0.822047 0.993652 1 0 1.000000
0  -20.546053 100.957497 5.681545  0.609605 0.574297 0.546411  0.822047 0.992431 1 0 1.000000
chrome
0  -20.546053 100.957497 5.681545  0.609605 0.574297 0.546411  0.822047 0.992431 1 0 1.000000
0  -20.579086 100.847389 5.549416  0.638129 -0.767314 0.063406  0.822047 0.993652 1 0 1.000000
0  -20.094614 101.166702 4.536427  0.638304 -0.767211 0.062893  0.818140 0.993652 1 0 1.000000
chrome
0  -20.006527 101.320854 4.547438  0.707073 0.634422 0.312339  0.818140 0.992431 1 0 1.000000
0  -20.546053 100.957497 5.681545  0.609605 0.574297 0.546411  0.822047 0.992431 1 0 1.000000
0  -20.094614 101.166702 4.536427  0.638304 -0.767211 0.062893  0.818140 0.993652 1 0 1.000000
chrome
0  -21.217709 101.772293 5.615480  0.610635 0.572709 0.546926  0.822047 0.986572 1 0 1.000000
0  -20.546053 100.957497 5.681545  0.609605 0.574297 0.546411  0.822047 0.992431 1 0 1.000000
0  -20.006527 101.320854 4.547438  0.707073 0.634422 0.312339  0.818140 0.992431 1 0 1.000000
chrome
0  -20.006527 101.320854 4.547438  0.707073 0.634422 0.312339  0.818140 0.992431 1 0 1.000000
0  -20.678183 102.135651 4.481374  0.708267 0.633552 0.311399  0.818140 0.986572 1 0 1.000000
0  -21.217709 101.772293 5.615480  0.610635 0.572709 0.546926  0.822047 0.986572 1 0 1.000000
chrome
0  -20.898397 101.849373 3.237160  0.445968 0.322218 -0.835038  0.814234 0.986572 1 0 1.000000
0  -20.678183 102.135651 4.481374  0.708267 0.633552 0.311399  0.818140 0.986572 1 0 1.000000
0  -20.006527 101.320854 4.547438  0.707073 0.634422 0.312339  0.818140 0.992431 1 0 1.000000
chrome
0  -20.215731 101.034576 3.303224  0.444584 0.323496 -0.835282  0.814234 0.992431 1 0 1.000000
0  -20.898397 101.849373 3.237160  0.445968 0.322218 -0.835038  0.814234 0.986572 1 0 1.000000
0  -20.006527 101.320854 4.547438  0.707073 0.634422 0.312339  0.818140 0.992431 1 0 1.000000
chrome
0  -20.898397 101.849373 3.237160  0.445968 0.322218 -0.835038  0.814234 0.986572 1 0 1.000000
0  -20.215731 101.034576 3.303224  0.444584 0.323496 -0.835282  0.814234 0.992431 1 0 1.000000
0  -21.063559 100.285843 2.664601  0.269344 0.167174 -0.948423  0.810816 0.992431 1 0 1.000000
chrome
0  -21.063559 100.285843 2.664601  0.269344 0.167174 -0.948423  0.810816 0.992431 1 0 1.000000
0  -20.215731 101.034576 3.303224  0.444584 0.323496 -0.835282  0.814234 0.992431 1 0 1.000000
0  -21.041536 100.230789 2.829762  0.637671 -0.767763 0.062565  0.810816 0.993652 1 0 1.000000
chrome
0  -20.215731 101.034576 3.303224  0.444584 0.323496 -0.835282  0.814234 0.992431 1 0 1.000000
0  -20.281796 100.913460 3.402321  0.638001 -0.767485 0.062621  0.814234 0.993652 1 0 1.000000
0  -21.041536 100.230789 2.829762  0.637671 -0.767763 0.062565  0.810816 0.993652 1 0 1.000000
chrome
0  -20.215731 101.034576 3.303224  0.444584 0.323496 -0.835282  0.814234 0.992431 1 0 1.000000
0  -20.006527 101.320854 4.547438  0.707073 0.634422 0.312339  0.818140 0.992431 1 0 1.000000
0  -20.281796 100.913460 3.402321  0.638001 -0.767485 0.062621  0.814234 0.993652 1 0 1.000000
chrome
0  -20.006527 101.320854 4.547438  0.707073 0.634422 0.312339  0.818140 0.992431 1 0 1.000000
0  -20.094614 101.166702 4.536427  0.638304 -0.767211 0.062893  0.818140 0.993652 1 0 1.000000
0  -20.281796 100.913460 3.402321  0.638001 -0.767485 0.062621  0.814234 0.993652 1 0 1.000000
chrome
0  -21.063559 100.285843 2.664601  0.269344 0.167174 -0.948423  0.810816 0.992431 1 0 1.000000
0  -21.735214 101.100639 2.598537  0.269476 0.165431 -0.948691  0.810816 0.986572 1 0 1.000000
0  -20.898397 101.849373 3.237160  0.445968 0.322218 -0.835038  0.814234 0.986572 1 0 1.000000
chrome
0  -33.384579 116.823982 4.723611  -0.326617 -0.310853 -0.892576  0.982208 0.976074 1 0 1.000000
0  -32.701912 117.275421 3.314236  -0.736539 -0.598994 -0.314192  0.980743 0.973632 1 0 1.000000
0  -20.579086 100.847389 5.549416  -0.328952 -0.307995 -0.892709  0.963164 0.980224 1 0 1.000000
chrome
0  -32.701912 117.275421 3.314236  -0.736539 -0.598994 -0.314192  0.980743 0.973632 1 0 1.000000
0  -20.094614 101.166702 4.536427  -0.736532 -0.598977 -0.314240  0.962188 0.978271 1 0 1.000000
0  -20.579086 100.847389 5.549416  -0.328952 -0.307995 -0.892709  0.963164 0.980224 1 0 1.000000
chrome
0  -20.281796 100.913460 3.402321  -0.722912 -0.526759 0.447127  0.962676 0.976318 1 0 1.000000
0  -20.094614 101.166702 4.536427  -0.736532 -0.598977 -0.314240  0.962188 0.978271 1 0 1.000000
0  -32.701912 117.275421 3.314236  -0.736539 -0.598994 -0.314192  0.980743 0.973632 1 0 1.000000
chrome
0  -32.701912 117.275421 3.314236  -0.736539 -0.598994 -0.314192  0.980743 0.973632 1 0 1.000000
0  -32.977180 116.923080 1.750711  -0.721118 -0.529023 0.447352  0.981231 0.970702 1 0 1.000000
0  -20.281796 100.913460 3.402321  -0.722912 -0.526759 0.447127  0.962676 0.976318 1 0 1.000000
chrome
0  -32.977180 116.923080 1.750711  -0.721118 -0.529023 0.447352  0.981231 0.970702 1 0 1.000000
0  -34.034214 115.976151 0.946926  -0.295769 -0.134040 0.945809  0.983673 0.969481 1 0 1.000000
0  -20.281796 100.913460 3.402321  -0.722912 -0.526759 0.447127  0.962676 0.976318 1 0 1.000000
chrome
0  -34.034214 115.976151 0.946926  -0.295769 -0.134040 0.945809  0.983673 0.969481 1 0 1.000000
0  -21.041536 100.230789 2.829762  -0.298026 -0.131162 0.945504  0.964141 0.975341 1 0 1.000000
0  -20.281796 100.913460 3.402321  -0.722912 -0.526759 0.447127  0.962676 0.976318 1 0 1.000000
chrome
0  -34.034214 115.976151 0.946926  -0.295769 -0.134040 0.945809  0.983673 0.969481 1 0 1.000000
0  -35.256405 114.996201 1.376346  0.293138 0.351141 0.889253  0.986114 0.970458 1 0 1.000000
0  -21.041536 100.230789 2.829762  -0.298026 -0.131162 0.945504  0.964141 0.975341 1 0 1.000000
chrome
0  -35.256405 114.996201 1.376346  0.293138 0.351141 0.889253  0.986114 0.970458 1 0 1.000000
0  -21.933407 99.526100 3.138063  0.291029 0.353584 0.888977  0.966094 0.976074 1 0 1.000000
0  -21.041536 100.230789 2.829762  -0.298026 -0.131162 0.945504  0.964141 0.975341 1 0 1.000000
chrome
0  -22.417879 99.206795 4.162063  0.698582 0.644694 0.310407  0.967071 0.977783 1 0 1.000000
0  -21.933407 99.526100 3.138063  0.291029 0.353584 0.888977  0.966094 0.976074 1 0 1.000000
0  -35.256405 114.996201 1.376346  0.293138 0.351141 0.889253  0.986114 0.970458 1 0 1.000000
chrome
0  -35.256405 114.996201 1.376346  0.293138 0.351141 0.889253  0.986114 0.970458 1 0 1.000000
0  -35.939072 114.544754 2.785721  0.698560 0.644686 0.310473  0.987091 0.972900 1 0 1.000000
0  -22.417879 99.206795 4.162063  0.698582 0.644694 0.310407  0.967071 0.977783 1 0 1.000000
chrome
0  -35.939072 114.544754 2.785721  0.698560 0.644686 0.310473  0.987091 0.972900 1 0 1.000000
0  -35.663803 114.897102 4.360257  0.687880 0.568956 -0.450678  0.986602 0.975829 1 0 1.000000
0  -22.417879 99.206795 4.162063  0.698582 0.644694 0.310407  0.967071 0.977783 1 0 1.000000
chrome
0  -35.663803 114.897102 4.360257  0.687880 0.568956 -0.450678  0.986602 0.975829 1 0 1.000000
0  -22.219687 99.460037 5.285159  0.686606 0.570426 -0.450763  0.966582 0.979736 1 0 1.000000
0  -22.417879 99.206795 4.162063  0.698582 0.644694 0.310407  0.967071 0.977783 1 0 1.000000
chrome
0  -21.459946 100.131691 5.868727  0.260797 0.175950 -0.949224  0.965117 0.980712 1 0 1.000000
0  -22.219687 99.460037 5.285159  0.686606 0.570426 -0.450763  0.966582 0.979736 1 0 1.000000
0  -35.663803 114.897102 4.360257  0.687880 0.568956 -0.450678  0.986602 0.975829 1 0 1.000000
chrome
0  -35.663803 114.897102 4.360257  0.687880 0.568956 -0.450678  0.986602 0.975829 1 0 1.000000
0  -34.606773 115.844025 5.164041  0.262472 0.174050 -0.949113  0.984649 0.977050 1 0 1.000000
0  -21.459946 100.131691 5.868727  0.260797 0.175950 -0.949224  0.965117 0.980712 1 0 1.000000
chrome
0  -34.606773 115.844025 5.164041  0.262472 0.174050 -0.949113  0.984649 0.977050 1 0 1.000000
0  -33.384579 116.823982 4.723611  -0.326617 -0.310853 -0.892576  0.982208 0.976074 1 0 1.000000
0  -21.459946 100.131691 5.868727  0.260797 0.175950 -0.949224  0.965117 0.980712 1 0 1.000000
chrome
0  -33.384579 116.823982 4.723611  -0.326617 -0.310853 -0.892576  0.982208 0.976074 1 0 1.000000
0  -20.579086 100.847389 5.549416  -0.328952 -0.307995 -0.892709  0.963164 0.980224 1 0 1.000000
0  -21.459946 100.131691 5.868727  0.260797 0.175950 -0.949224  0.965117 0.980712 1 0 1.000000
chrome
0  -24.399813 101.849373 2.389333  -0.153747 -0.499779 -0.852398  0.836695 0.975585 1 0 1.000000
0  -23.122568 102.862358 1.948903  0.420418 -0.029852 -0.906839  0.839625 0.975585 1 0 1.000000
0  -21.735214 101.100639 2.598537  0.422599 -0.031939 -0.905754  0.839625 0.986572 1 0 1.000000
chrome
0  -21.735214 101.100639 2.598537  0.422599 -0.031939 -0.905754  0.839625 0.986572 1 0 1.000000
0  -22.715170 100.307869 2.939870  -0.150677 -0.503571 -0.850713  0.836695 0.986572 1 0 1.000000
0  -24.399813 101.849373 2.389333  -0.153747 -0.499779 -0.852398  0.836695 0.975585 1 0 1.000000
chrome
0  -24.399813 101.849373 2.389333  -0.153747 -0.499779 -0.852398  0.836695 0.975585 1 0 1.000000
0  -22.715170 100.307869 2.939870  -0.150677 -0.503571 -0.850713  0.836695 0.986572 1 0 1.000000
0  -23.254696 99.955521 4.062966  -0.546242 -0.786234 -0.288886  0.832789 0.986572 1 0 1.000000
chrome
0  -23.254696 99.955521 4.062966  -0.546242 -0.786234 -0.288886  0.832789 0.986572 1 0 1.000000
0  -25.104502 101.386917 3.864773  -0.548939 -0.784424 -0.288693  0.832789 0.975585 1 0 1.000000
0  -24.399813 101.849373 2.389333  -0.153747 -0.499779 -0.852398  0.836695 0.975585 1 0 1.000000
chrome
0  -24.818222 101.750275 5.483352  -0.536488 -0.713023 0.451420  0.829371 0.975585 1 0 1.000000
0  -25.104502 101.386917 3.864773  -0.548939 -0.784424 -0.288693  0.832789 0.975585 1 0 1.000000
0  -23.254696 99.955521 4.062966  -0.546242 -0.786234 -0.288886  0.832789 0.986572 1 0 1.000000
chrome
0  -23.254696 99.955521 4.062966  -0.546242 -0.786234 -0.288886  0.832789 0.986572 1 0 1.000000
0  -23.034481 100.230789 5.318191  -0.533830 -0.714786 0.451781  0.829371 0.986572 1 0 1.000000
0  -24.818222 101.750275 5.483352  -0.536488 -0.713023 0.451420  0.829371 0.975585 1 0 1.000000
chrome
0  -24.818222 101.750275 5.483352  -0.536488 -0.713023 0.451420  0.829371 0.975585 1 0 1.000000
0  -23.034481 100.230789 5.318191  -0.533830 -0.714786 0.451781  0.829371 0.986572 1 0 1.000000
0  -22.197664 100.990532 5.956814  -0.120285 -0.331621 0.935713  0.825465 0.986572 1 0 1.000000
chrome
0  -23.717148 102.730232 6.320168  -0.123852 -0.327222 0.936796  0.825465 0.975585 1 0 1.000000
0  -24.818222 101.750275 5.483352  -0.536488 -0.713023 0.451420  0.829371 0.975585 1 0 1.000000
0  -22.197664 100.990532 5.956814  -0.120285 -0.331621 0.935713  0.825465 0.986572 1 0 1.000000
chrome
0  -23.717148 102.730232 6.320168  -0.123852 -0.327222 0.936796  0.825465 0.975585 1 0 1.000000
0  -22.197664 100.990532 5.956814  -0.120285 -0.331621 0.935713  0.825465 0.986572 1 0 1.000000
0  -22.450912 103.754227 5.868728  0.752680 0.365866 0.547372  0.821558 0.975585 1 0 1.000000
chrome
0  -22.197664 100.990532 5.956814  -0.120285 -0.331621 0.935713  0.825465 0.986572 1 0 1.000000
0  -21.217709 101.772293 5.615480  0.753887 0.362945 0.547655  0.822047 0.986572 1 0 1.000000
0  -22.450912 103.754227 5.868728  0.752680 0.365866 0.547372  0.821558 0.975585 1 0 1.000000
chrome
0  -22.450912 103.754227 5.868728  0.752680 0.365866 0.547372  0.821558 0.975585 1 0 1.000000
0  -21.217709 101.772293 5.615480  0.753887 0.362945 0.547655  0.822047 0.986572 1 0 1.000000
0  -20.678183 102.135651 4.481374  0.848441 0.422447 0.318883  0.818140 0.986572 1 0 1.000000
chrome
0  -20.678183 102.135651 4.481374  0.848441 0.422447 0.318883  0.818140 0.986572 1 0 1.000000
0  -21.746225 104.216682 4.404298  0.846174 0.427327 0.318403  0.818140 0.975585 1 0 1.000000
0  -22.450912 103.754227 5.868728  0.752680 0.365866 0.547372  0.821558 0.975585 1 0 1.000000
chrome
0  -22.032503 103.842316 2.774709  0.592498 0.122284 -0.796237  0.814234 0.975585 1 0 1.000000
0  -21.746225 104.216682 4.404298  0.846174 0.427327 0.318403  0.818140 0.975585 1 0 1.000000
0  -20.678183 102.135651 4.481374  0.848441 0.422447 0.318883  0.818140 0.986572 1 0 1.000000
chrome
0  -20.678183 102.135651 4.481374  0.848441 0.422447 0.318883  0.818140 0.986572 1 0 1.000000
0  -20.898397 101.849373 3.237160  0.593824 0.121021 -0.795441  0.814234 0.986572 1 0 1.000000
0  -22.032503 103.842316 2.774709  0.592498 0.122284 -0.796237  0.814234 0.975585 1 0 1.000000
chrome
0  -22.032503 103.842316 2.774709  0.592498 0.122284 -0.796237  0.814234 0.975585 1 0 1.000000
0  -20.898397 101.849373 3.237160  0.593824 0.121021 -0.795441  0.814234 0.986572 1 0 1.000000
0  -21.735214 101.100639 2.598537  0.422599 -0.031939 -0.905754  0.810816 0.986572 1 0 1.000000
chrome
0  -21.735214 101.100639 2.598537  0.422599 -0.031939 -0.905754  0.810816 0.986572 1 0 1.000000
0  -23.122568 102.862358 1.948903  0.420418 -0.029852 -0.906839  0.810816 0.975585 1 0 1.000000
0  -22.032503 103.842316 2.774709  0.592498 0.122284 -0.796237  0.814234 0.975585 1 0 1.000000
end
