version 1
nodes
0 "root" -1
1 "steering_wheel" 0
end
skeleton
time 0
0  0.000000 0.000000 0.000000  0.000000 -0.000000 0.000000
1  19.916300 17.934299 33.308498  0.000000 -0.000000 0.000000
end
triangles
  phy
0  -18.559004 97.772224 2.533703  -0.481935 0.274091 0.832234  0.000000 0.000000 1 0 1.000000
0  -17.689600 97.456985 3.412395  -0.873705 0.166764 0.456978  0.000000 0.000000 1 0 1.000000
0  -18.449287 97.291824 2.520489  -0.541795 0.104300 0.834014  0.000000 0.000000 1 0 1.000000
  phy
0  -18.559004 97.772224 2.533703  -0.481935 0.274091 0.832234  0.000000 0.000000 1 0 1.000000
0  -17.810694 97.974480 3.423399  -0.766497 0.460173 0.448021  0.000000 0.000000 1 0 1.000000
0  -17.689600 97.456985 3.412395  -0.873705 0.166764 0.456978  0.000000 0.000000 1 0 1.000000
  phy
0  -17.689600 97.456985 3.412395  -0.873705 0.166764 0.456978  0.000000 0.000000 1 0 1.000000
0  -15.763330 84.728539 2.718824  -0.549622 0.049636 0.833938  0.000000 0.000000 1 0 1.000000
0  -18.449287 97.291824 2.520489  -0.541795 0.104300 0.834014  0.000000 0.000000 1 0 1.000000
  phy
0  -18.559004 97.772224 2.533703  -0.481935 0.274091 0.832234  0.000000 0.000000 1 0 1.000000
0  -18.449287 97.291824 2.520489  -0.541795 0.104300 0.834014  0.000000 0.000000 1 0 1.000000
0  -19.649441 97.512115 2.146060  -0.113199 0.001193 0.993572  0.000000 0.000000 1 0 1.000000
  phy
0  -19.649441 97.512115 2.146060  -0.113199 0.001193 0.993572  0.000000 0.000000 1 0 1.000000
0  -18.449287 97.291824 2.520489  -0.541795 0.104300 0.834014  0.000000 0.000000 1 0 1.000000
0  -15.763330 84.728539 2.718824  -0.549622 0.049636 0.833938  0.000000 0.000000 1 0 1.000000
  phy
0  -18.559004 97.772224 2.533703  -0.481935 0.274091 0.832234  0.000000 0.000000 1 0 1.000000
0  -22.313751 102.852402 2.211964  -0.415527 0.272254 0.867880  0.000000 0.000000 1 0 1.000000
0  -22.027439 103.843231 2.773549  -0.617448 0.427512 0.660297  0.000000 0.000000 1 0 1.000000
  phy
0  -22.027439 103.843231 2.773549  -0.617448 0.427512 0.660297  0.000000 0.000000 1 0 1.000000
0  -17.810694 97.974480 3.423399  -0.766497 0.460173 0.448021  0.000000 0.000000 1 0 1.000000
0  -18.559004 97.772224 2.533703  -0.481935 0.274091 0.832234  0.000000 0.000000 1 0 1.000000
  phy
0  -22.313751 102.852402 2.211964  -0.415527 0.272254 0.867880  0.000000 0.000000 1 0 1.000000
0  -18.559004 97.772224 2.533703  -0.481935 0.274091 0.832234  0.000000 0.000000 1 0 1.000000
0  -23.116312 102.861885 1.947550  -0.275688 0.146739 0.949981  0.000000 0.000000 1 0 1.000000
  phy
0  -23.116312 102.861885 1.947550  -0.275688 0.146739 0.949981  0.000000 0.000000 1 0 1.000000
0  -18.559004 97.772224 2.533703  -0.481935 0.274091 0.832234  0.000000 0.000000 1 0 1.000000
0  -19.649441 97.512115 2.146060  -0.113199 0.001193 0.993572  0.000000 0.000000 1 0 1.000000
  phy
0  -22.313751 102.852402 2.211964  -0.415527 0.272254 0.867880  0.000000 0.000000 1 0 1.000000
0  -33.995461 115.966850 0.846041  -0.212333 0.268132 0.939691  0.000000 0.000000 1 0 1.000000
0  -32.883087 116.956818 1.694007  -0.603478 0.484371 0.633402  0.000000 0.000000 1 0 1.000000
  phy
0  -22.027439 103.843231 2.773549  -0.617448 0.427512 0.660297  0.000000 0.000000 1 0 1.000000
0  -22.313751 102.852402 2.211964  -0.415527 0.272254 0.867880  0.000000 0.000000 1 0 1.000000
0  -32.883087 116.956818 1.694007  -0.603478 0.484371 0.633402  0.000000 0.000000 1 0 1.000000
  phy
0  -22.313751 102.852402 2.211964  -0.415527 0.272254 0.867880  0.000000 0.000000 1 0 1.000000
0  -23.116312 102.861885 1.947550  -0.275688 0.146739 0.949981  0.000000 0.000000 1 0 1.000000
0  -33.995461 115.966850 0.846041  -0.212333 0.268132 0.939691  0.000000 0.000000 1 0 1.000000
  phy
0  -17.447426 97.501060 4.458428  -0.968884 0.190990 0.157439  0.000000 0.000000 1 0 1.000000
0  -17.810694 97.974480 3.423399  -0.766497 0.460173 0.448021  0.000000 0.000000 1 0 1.000000
0  -17.568516 98.018532 4.469412  -0.845332 0.514777 0.142892  0.000000 0.000000 1 0 1.000000
  phy
0  -17.447426 97.501060 4.458428  -0.968884 0.190990 0.157439  0.000000 0.000000 1 0 1.000000
0  -17.689600 97.456985 3.412395  -0.873705 0.166764 0.456978  0.000000 0.000000 1 0 1.000000
0  -17.810694 97.974480 3.423399  -0.766497 0.460173 0.448021  0.000000 0.000000 1 0 1.000000
  phy
0  -17.447426 97.501060 4.458428  -0.968884 0.190990 0.157439  0.000000 0.000000 1 0 1.000000
0  -15.014683 84.871712 4.282389  -0.997348 0.057075 0.045167  0.000000 0.000000 1 0 1.000000
0  -17.689600 97.456985 3.412395  -0.873705 0.166764 0.456978  0.000000 0.000000 1 0 1.000000
  phy
0  -17.447426 97.501060 4.458428  -0.968884 0.190990 0.157439  0.000000 0.000000 1 0 1.000000
0  -17.568516 98.018532 4.469412  -0.845332 0.514777 0.142892  0.000000 0.000000 1 0 1.000000
0  -17.293341 97.545059 5.977980  -0.980420 0.188078 0.058345  0.000000 0.000000 1 0 1.000000
  phy
0  -17.293341 97.545059 5.977980  -0.980420 0.188078 0.058345  0.000000 0.000000 1 0 1.000000
0  -15.014683 84.871712 4.282389  -0.997348 0.057075 0.045167  0.000000 0.000000 1 0 1.000000
0  -17.447426 97.501060 4.458428  -0.968884 0.190990 0.157439  0.000000 0.000000 1 0 1.000000
  phy
0  -33.995461 115.966850 0.846041  -0.212333 0.268132 0.939691  0.000000 0.000000 1 0 1.000000
0  -23.116312 102.861885 1.947550  -0.275688 0.146739 0.949981  0.000000 0.000000 1 0 1.000000
0  -31.445066 111.917473 0.977067  0.002673 -0.053984 0.998538  0.000000 0.000000 1 0 1.000000
  phy
0  -31.445066 111.917473 0.977067  0.002673 -0.053984 0.998538  0.000000 0.000000 1 0 1.000000
0  -23.116312 102.861885 1.947550  -0.275688 0.146739 0.949981  0.000000 0.000000 1 0 1.000000
0  -19.649441 97.512115 2.146060  -0.113199 0.001193 0.993572  0.000000 0.000000 1 0 1.000000
  phy
0  -17.293341 97.545059 5.977980  -0.980420 0.188078 0.058345  0.000000 0.000000 1 0 1.000000
0  -16.875546 98.954376 19.080727  -0.753654 0.654256 -0.062886  0.000000 0.000000 1 0 1.000000
0  -16.754450 98.414886 19.058683  -0.969170 -0.093029 -0.228156  0.000000 0.000000 1 0 1.000000
  phy
0  -17.426157 98.065346 5.988987  -0.837151 0.541737 0.075490  0.000000 0.000000 1 0 1.000000
0  -16.875546 98.954376 19.080727  -0.753654 0.654256 -0.062886  0.000000 0.000000 1 0 1.000000
0  -17.293341 97.545059 5.977980  -0.980420 0.188078 0.058345  0.000000 0.000000 1 0 1.000000
  phy
0  -16.754450 98.414886 19.058683  -0.969170 -0.093029 -0.228156  0.000000 0.000000 1 0 1.000000
0  -15.014683 84.871712 4.282389  -0.997348 0.057075 0.045167  0.000000 0.000000 1 0 1.000000
0  -17.293341 97.545059 5.977980  -0.980420 0.188078 0.058345  0.000000 0.000000 1 0 1.000000
  phy
0  -17.568516 98.018532 4.469412  -0.845332 0.514777 0.142892  0.000000 0.000000 1 0 1.000000
0  -17.426157 98.065346 5.988987  -0.837151 0.541737 0.075490  0.000000 0.000000 1 0 1.000000
0  -17.293341 97.545059 5.977980  -0.980420 0.188078 0.058345  0.000000 0.000000 1 0 1.000000
  phy
0  -17.568516 98.018532 4.469412  -0.845332 0.514777 0.142892  0.000000 0.000000 1 0 1.000000
0  -21.466042 103.656242 3.511226  -0.775420 0.584128 0.239829  0.000000 0.000000 1 0 1.000000
0  -17.426157 98.065346 5.988987  -0.837151 0.541737 0.075490  0.000000 0.000000 1 0 1.000000
  phy
0  -21.466042 103.656242 3.511226  -0.775420 0.584128 0.239829  0.000000 0.000000 1 0 1.000000
0  -21.741386 104.217758 4.402577  -0.787544 0.614497 0.046564  0.000000 0.000000 1 0 1.000000
0  -17.426157 98.065346 5.988987  -0.837151 0.541737 0.075490  0.000000 0.000000 1 0 1.000000
  phy
0  -32.883087 116.956818 1.694007  -0.603478 0.484371 0.633402  0.000000 0.000000 1 0 1.000000
0  -32.609985 117.323341 3.323464  -0.688152 0.725543 -0.005832  0.000000 0.000000 1 0 1.000000
0  -21.466042 103.656242 3.511226  -0.775420 0.584128 0.239829  0.000000 0.000000 1 0 1.000000
  phy
0  -21.466042 103.656242 3.511226  -0.775420 0.584128 0.239829  0.000000 0.000000 1 0 1.000000
0  -32.609985 117.323341 3.323464  -0.688152 0.725543 -0.005832  0.000000 0.000000 1 0 1.000000
0  -21.741386 104.217758 4.402577  -0.787544 0.614497 0.046564  0.000000 0.000000 1 0 1.000000
  phy
0  -22.027439 103.843231 2.773549  -0.617448 0.427512 0.660297  0.000000 0.000000 1 0 1.000000
0  -32.883087 116.956818 1.694007  -0.603478 0.484371 0.633402  0.000000 0.000000 1 0 1.000000
0  -21.466042 103.656242 3.511226  -0.775420 0.584128 0.239829  0.000000 0.000000 1 0 1.000000
  phy
0  -21.466042 103.656242 3.511226  -0.775420 0.584128 0.239829  0.000000 0.000000 1 0 1.000000
0  -17.810694 97.974480 3.423399  -0.766497 0.460173 0.448021  0.000000 0.000000 1 0 1.000000
0  -22.027439 103.843231 2.773549  -0.617448 0.427512 0.660297  0.000000 0.000000 1 0 1.000000
  phy
0  -17.568516 98.018532 4.469412  -0.845332 0.514777 0.142892  0.000000 0.000000 1 0 1.000000
0  -17.810694 97.974480 3.423399  -0.766497 0.460173 0.448021  0.000000 0.000000 1 0 1.000000
0  -21.466042 103.656242 3.511226  -0.775420 0.584128 0.239829  0.000000 0.000000 1 0 1.000000
  phy
0  -19.649441 97.512115 2.146060  -0.113199 0.001193 0.993572  0.000000 0.000000 1 0 1.000000
0  -15.763330 84.728539 2.718824  -0.549622 0.049636 0.833938  0.000000 0.000000 1 0 1.000000
0  -17.458982 84.321144 2.608626  0.179762 -0.192935 0.964604  0.000000 0.000000 1 0 1.000000
  phy
0  -19.649441 97.512115 2.146060  -0.113199 0.001193 0.993572  0.000000 0.000000 1 0 1.000000
0  -17.458982 84.321144 2.608626  0.179762 -0.192935 0.964604  0.000000 0.000000 1 0 1.000000
0  -31.445066 111.917473 0.977067  0.002673 -0.053984 0.998538  0.000000 0.000000 1 0 1.000000
  phy
0  -15.014683 84.871712 4.282389  -0.997348 0.057075 0.045167  0.000000 0.000000 1 0 1.000000
0  -18.394981 84.078949 4.050985  0.833972 -0.542547 0.100667  0.000000 0.000000 1 0 1.000000
0  -17.458982 84.321144 2.608626  0.179762 -0.192935 0.964604  0.000000 0.000000 1 0 1.000000
  phy
0  -15.014683 84.871712 4.282389  -0.997348 0.057075 0.045167  0.000000 0.000000 1 0 1.000000
0  -17.646297 84.231697 5.613243  0.726233 -0.492127 -0.479996  0.000000 0.000000 1 0 1.000000
0  -18.394981 84.078949 4.050985  0.833972 -0.542547 0.100667  0.000000 0.000000 1 0 1.000000
  phy
0  -15.014683 84.871712 4.282389  -0.997348 0.057075 0.045167  0.000000 0.000000 1 0 1.000000
0  -15.950656 84.629349 5.724755  -0.468277 -0.623161 -0.626408  0.000000 0.000000 1 0 1.000000
0  -17.646297 84.231697 5.613243  0.726233 -0.492127 -0.479996  0.000000 0.000000 1 0 1.000000
  phy
0  -17.646297 84.231697 5.613243  0.726233 -0.492127 -0.479996  0.000000 0.000000 1 0 1.000000
0  -15.950656 84.629349 5.724755  -0.468277 -0.623161 -0.626408  0.000000 0.000000 1 0 1.000000
0  -16.754450 98.414886 19.058683  -0.969170 -0.093029 -0.228156  0.000000 0.000000 1 0 1.000000
  phy
0  -16.754450 98.414886 19.058683  -0.969170 -0.093029 -0.228156  0.000000 0.000000 1 0 1.000000
0  -18.042719 98.117638 18.816412  0.756517 -0.446799 -0.477548  0.000000 0.000000 1 0 1.000000
0  -17.646297 84.231697 5.613243  0.726233 -0.492127 -0.479996  0.000000 0.000000 1 0 1.000000
  phy
0  -17.646297 84.231697 5.613243  0.726233 -0.492127 -0.479996  0.000000 0.000000 1 0 1.000000
0  -18.042719 98.117638 18.816412  0.756517 -0.446799 -0.477548  0.000000 0.000000 1 0 1.000000
0  -35.702499 114.844078 4.413426  0.794764 -0.394380 -0.461318  0.000000 0.000000 1 0 1.000000
  phy
0  -17.646297 84.231697 5.613243  0.726233 -0.492127 -0.479996  0.000000 0.000000 1 0 1.000000
0  -35.702499 114.844078 4.413426  0.794764 -0.394380 -0.461318  0.000000 0.000000 1 0 1.000000
0  -18.394981 84.078949 4.050985  0.833972 -0.542547 0.100667  0.000000 0.000000 1 0 1.000000
  phy
0  -15.950656 84.629349 5.724755  -0.468277 -0.623161 -0.626408  0.000000 0.000000 1 0 1.000000
0  -15.014683 84.871712 4.282389  -0.997348 0.057075 0.045167  0.000000 0.000000 1 0 1.000000
0  -16.754450 98.414886 19.058683  -0.969170 -0.093029 -0.228156  0.000000 0.000000 1 0 1.000000
  phy
0  -17.723427 98.745193 19.069674  0.400271 0.296547 -0.867089  0.000000 0.000000 1 0 1.000000
0  -18.042719 98.117638 18.816412  0.756517 -0.446799 -0.477548  0.000000 0.000000 1 0 1.000000
0  -16.754450 98.414886 19.058683  -0.969170 -0.093029 -0.228156  0.000000 0.000000 1 0 1.000000
  phy
0  -16.754450 98.414886 19.058683  -0.969170 -0.093029 -0.228156  0.000000 0.000000 1 0 1.000000
0  -16.875546 98.954376 19.080727  -0.753654 0.654256 -0.062886  0.000000 0.000000 1 0 1.000000
0  -17.723427 98.745193 19.069674  0.400271 0.296547 -0.867089  0.000000 0.000000 1 0 1.000000
  phy
0  -35.702499 114.844078 4.413426  0.794764 -0.394380 -0.461318  0.000000 0.000000 1 0 1.000000
0  -34.591778 115.836258 5.249070  0.411866 0.317442 -0.854164  0.000000 0.000000 1 0 1.000000
0  -33.322178 116.855095 4.814046  -0.052176 0.703223 -0.709053  0.000000 0.000000 1 0 1.000000
  phy
0  -35.702499 114.844078 4.413426  0.794764 -0.394380 -0.461318  0.000000 0.000000 1 0 1.000000
0  -33.322178 116.855095 4.814046  -0.052176 0.703223 -0.709053  0.000000 0.000000 1 0 1.000000
0  -32.609985 117.323341 3.323464  -0.688152 0.725543 -0.005832  0.000000 0.000000 1 0 1.000000
  phy
0  -35.702499 114.844078 4.413426  0.794764 -0.394380 -0.461318  0.000000 0.000000 1 0 1.000000
0  -32.609985 117.323341 3.323464  -0.688152 0.725543 -0.005832  0.000000 0.000000 1 0 1.000000
0  -35.977562 114.480492 2.783827  0.909616 -0.391924 0.137823  0.000000 0.000000 1 0 1.000000
  phy
0  -35.977562 114.480492 2.783827  0.909616 -0.391924 0.137823  0.000000 0.000000 1 0 1.000000
0  -32.609985 117.323341 3.323464  -0.688152 0.725543 -0.005832  0.000000 0.000000 1 0 1.000000
0  -35.272770 114.942917 1.297415  0.607452 -0.309314 0.731661  0.000000 0.000000 1 0 1.000000
  phy
0  -35.272770 114.942917 1.297415  0.607452 -0.309314 0.731661  0.000000 0.000000 1 0 1.000000
0  -32.609985 117.323341 3.323464  -0.688152 0.725543 -0.005832  0.000000 0.000000 1 0 1.000000
0  -33.995461 115.966850 0.846041  -0.212333 0.268132 0.939691  0.000000 0.000000 1 0 1.000000
  phy
0  -35.977562 114.480492 2.783827  0.909616 -0.391924 0.137823  0.000000 0.000000 1 0 1.000000
0  -35.272770 114.942917 1.297415  0.607452 -0.309314 0.731661  0.000000 0.000000 1 0 1.000000
0  -18.394981 84.078949 4.050985  0.833972 -0.542547 0.100667  0.000000 0.000000 1 0 1.000000
  phy
0  -35.702499 114.844078 4.413426  0.794764 -0.394380 -0.461318  0.000000 0.000000 1 0 1.000000
0  -35.977562 114.480492 2.783827  0.909616 -0.391924 0.137823  0.000000 0.000000 1 0 1.000000
0  -18.394981 84.078949 4.050985  0.833972 -0.542547 0.100667  0.000000 0.000000 1 0 1.000000
  phy
0  -16.875546 98.954376 19.080727  -0.753654 0.654256 -0.062886  0.000000 0.000000 1 0 1.000000
0  -33.322178 116.855095 4.814046  -0.052176 0.703223 -0.709053  0.000000 0.000000 1 0 1.000000
0  -17.723427 98.745193 19.069674  0.400271 0.296547 -0.867089  0.000000 0.000000 1 0 1.000000
  phy
0  -33.322178 116.855095 4.814046  -0.052176 0.703223 -0.709053  0.000000 0.000000 1 0 1.000000
0  -34.591778 115.836258 5.249070  0.411866 0.317442 -0.854164  0.000000 0.000000 1 0 1.000000
0  -17.723427 98.745193 19.069674  0.400271 0.296547 -0.867089  0.000000 0.000000 1 0 1.000000
  phy
0  -17.723427 98.745193 19.069674  0.400271 0.296547 -0.867089  0.000000 0.000000 1 0 1.000000
0  -35.702499 114.844078 4.413426  0.794764 -0.394380 -0.461318  0.000000 0.000000 1 0 1.000000
0  -18.042719 98.117638 18.816412  0.756517 -0.446799 -0.477548  0.000000 0.000000 1 0 1.000000
  phy
0  -34.591778 115.836258 5.249070  0.411866 0.317442 -0.854164  0.000000 0.000000 1 0 1.000000
0  -35.702499 114.844078 4.413426  0.794764 -0.394380 -0.461318  0.000000 0.000000 1 0 1.000000
0  -17.723427 98.745193 19.069674  0.400271 0.296547 -0.867089  0.000000 0.000000 1 0 1.000000
  phy
0  -31.445066 111.917473 0.977067  0.002673 -0.053984 0.998538  0.000000 0.000000 1 0 1.000000
0  -17.458982 84.321144 2.608626  0.179762 -0.192935 0.964604  0.000000 0.000000 1 0 1.000000
0  -35.272770 114.942917 1.297415  0.607452 -0.309314 0.731661  0.000000 0.000000 1 0 1.000000
  phy
0  -31.445066 111.917473 0.977067  0.002673 -0.053984 0.998538  0.000000 0.000000 1 0 1.000000
0  -35.272770 114.942917 1.297415  0.607452 -0.309314 0.731661  0.000000 0.000000 1 0 1.000000
0  -33.995461 115.966850 0.846041  -0.212333 0.268132 0.939691  0.000000 0.000000 1 0 1.000000
  phy
0  -15.763330 84.728539 2.718824  -0.549622 0.049636 0.833938  0.000000 0.000000 1 0 1.000000
0  -15.014683 84.871712 4.282389  -0.997348 0.057075 0.045167  0.000000 0.000000 1 0 1.000000
0  -17.458982 84.321144 2.608626  0.179762 -0.192935 0.964604  0.000000 0.000000 1 0 1.000000
  phy
0  -35.272770 114.942917 1.297415  0.607452 -0.309314 0.731661  0.000000 0.000000 1 0 1.000000
0  -17.458982 84.321144 2.608626  0.179762 -0.192935 0.964604  0.000000 0.000000 1 0 1.000000
0  -18.394981 84.078949 4.050985  0.833972 -0.542547 0.100667  0.000000 0.000000 1 0 1.000000
  phy
0  -17.689600 97.456985 3.412395  -0.873705 0.166764 0.456978  0.000000 0.000000 1 0 1.000000
0  -15.014683 84.871712 4.282389  -0.997348 0.057075 0.045167  0.000000 0.000000 1 0 1.000000
0  -15.763330 84.728539 2.718824  -0.549622 0.049636 0.833938  0.000000 0.000000 1 0 1.000000
  phy
0  -32.883087 116.956818 1.694007  -0.603478 0.484371 0.633402  0.000000 0.000000 1 0 1.000000
0  -33.995461 115.966850 0.846041  -0.212333 0.268132 0.939691  0.000000 0.000000 1 0 1.000000
0  -32.609985 117.323341 3.323464  -0.688152 0.725543 -0.005832  0.000000 0.000000 1 0 1.000000
  phy
0  -21.741386 104.217758 4.402577  -0.787544 0.614497 0.046564  0.000000 0.000000 1 0 1.000000
0  -16.875546 98.954376 19.080727  -0.753654 0.654256 -0.062886  0.000000 0.000000 1 0 1.000000
0  -17.426157 98.065346 5.988987  -0.837151 0.541737 0.075490  0.000000 0.000000 1 0 1.000000
  phy
0  -33.322178 116.855095 4.814046  -0.052176 0.703223 -0.709053  0.000000 0.000000 1 0 1.000000
0  -16.875546 98.954376 19.080727  -0.753654 0.654256 -0.062886  0.000000 0.000000 1 0 1.000000
0  -32.609985 117.323341 3.323464  -0.688152 0.725543 -0.005832  0.000000 0.000000 1 0 1.000000
  phy
0  -21.741386 104.217758 4.402577  -0.787544 0.614497 0.046564  0.000000 0.000000 1 0 1.000000
0  -32.609985 117.323341 3.323464  -0.688152 0.725543 -0.005832  0.000000 0.000000 1 0 1.000000
0  -16.875546 98.954376 19.080727  -0.753654 0.654256 -0.062886  0.000000 0.000000 1 0 1.000000
end
