version 1
nodes
0 "root" -1
1 "steering_wheel" 0
end
skeleton
time 0
0  0.000000 0.000000 0.000000  0.000000 -0.000000 0.000000
1  19.916300 17.934299 33.308498  0.000000 -0.000000 0.000000
end
triangles
  phy
0  25.852299 -111.456612 29.388878  -0.600443 -0.378115 -0.704626  0.000000 0.000000 1 0 1.000000
0  25.812986 -110.850899 29.501125  -0.174888 0.121711 -0.977037  0.000000 0.000000 1 0 1.000000
0  24.661165 -112.162949 29.212418  -0.067102 -0.372820 -0.925474  0.000000 0.000000 1 0 1.000000
  phy
0  25.812986 -110.850899 29.501125  -0.174888 0.121711 -0.977037  0.000000 0.000000 1 0 1.000000
0  24.035648 -112.378349 29.149288  0.085992 -0.138501 -0.986622  0.000000 0.000000 1 0 1.000000
0  24.661165 -112.162949 29.212418  -0.067102 -0.372820 -0.925474  0.000000 0.000000 1 0 1.000000
  phy
0  24.661165 -112.162949 29.212418  -0.067102 -0.372820 -0.925474  0.000000 0.000000 1 0 1.000000
0  24.035648 -112.378349 29.149288  0.085992 -0.138501 -0.986622  0.000000 0.000000 1 0 1.000000
0  24.779333 -112.653175 28.850029  -0.261515 -0.777883 -0.571409  0.000000 0.000000 1 0 1.000000
  phy
0  24.035648 -112.378349 29.149288  0.085992 -0.138501 -0.986622  0.000000 0.000000 1 0 1.000000
0  20.298664 -113.928947 28.585585  -0.009009 -0.419432 -0.907742  0.000000 0.000000 1 0 1.000000
0  24.779333 -112.653175 28.850029  -0.261515 -0.777883 -0.571409  0.000000 0.000000 1 0 1.000000
  phy
0  20.298664 -113.928947 28.585585  -0.009009 -0.419432 -0.907742  0.000000 0.000000 1 0 1.000000
0  20.401297 -114.453873 28.200829  -0.204426 -0.795508 -0.570418  0.000000 0.000000 1 0 1.000000
0  24.779333 -112.653175 28.850029  -0.261515 -0.777883 -0.571409  0.000000 0.000000 1 0 1.000000
  phy
0  24.779333 -112.653175 28.850029  -0.261515 -0.777883 -0.571409  0.000000 0.000000 1 0 1.000000
0  25.852299 -111.456612 29.388878  -0.600443 -0.378115 -0.704626  0.000000 0.000000 1 0 1.000000
0  24.661165 -112.162949 29.212418  -0.067102 -0.372820 -0.925474  0.000000 0.000000 1 0 1.000000
  phy
0  21.013979 -124.197044 13.531943  -0.212422 -0.971788 -0.102490  0.000000 0.000000 1 0 1.000000
0  12.737986 -125.794037 13.479168  -0.122720 -0.837926 -0.531808  0.000000 0.000000 1 0 1.000000
0  11.153589 -126.315926 12.430944  -0.179068 -0.981078 -0.073631  0.000000 0.000000 1 0 1.000000
  phy
0  12.737986 -125.794037 13.479168  -0.122720 -0.837926 -0.531808  0.000000 0.000000 1 0 1.000000
0  11.031752 -126.186691 13.163539  -0.085741 -0.847444 -0.523915  0.000000 0.000000 1 0 1.000000
0  11.153589 -126.315926 12.430944  -0.179068 -0.981078 -0.073631  0.000000 0.000000 1 0 1.000000
  phy
0  7.519871 -117.853722 26.562405  -0.101257 -0.818246 -0.565881  0.000000 0.000000 1 0 1.000000
0  11.031752 -126.186691 13.163539  -0.085741 -0.847444 -0.523915  0.000000 0.000000 1 0 1.000000
0  12.737986 -125.794037 13.479168  -0.122720 -0.837926 -0.531808  0.000000 0.000000 1 0 1.000000
  phy
0  7.519871 -117.853722 26.562405  -0.101257 -0.818246 -0.565881  0.000000 0.000000 1 0 1.000000
0  1.611482 -118.941338 25.888166  -0.042252 -0.840313 -0.540453  0.000000 0.000000 1 0 1.000000
0  11.031752 -126.186691 13.163539  -0.085741 -0.847444 -0.523915  0.000000 0.000000 1 0 1.000000
  phy
0  12.737986 -125.794037 13.479168  -0.122720 -0.837926 -0.531808  0.000000 0.000000 1 0 1.000000
0  14.552958 -116.244415 27.426149  -0.129658 -0.805692 -0.577970  0.000000 0.000000 1 0 1.000000
0  7.519871 -117.853722 26.562405  -0.101257 -0.818246 -0.565881  0.000000 0.000000 1 0 1.000000
  phy
0  12.737986 -125.794037 13.479168  -0.122720 -0.837926 -0.531808  0.000000 0.000000 1 0 1.000000
0  20.899443 -124.064171 14.274076  -0.153369 -0.822579 -0.547579  0.000000 0.000000 1 0 1.000000
0  14.552958 -116.244415 27.426149  -0.129658 -0.805692 -0.577970  0.000000 0.000000 1 0 1.000000
  phy
0  21.013979 -124.197044 13.531943  -0.212422 -0.971788 -0.102490  0.000000 0.000000 1 0 1.000000
0  20.899443 -124.064171 14.274076  -0.153369 -0.822579 -0.547579  0.000000 0.000000 1 0 1.000000
0  12.737986 -125.794037 13.479168  -0.122720 -0.837926 -0.531808  0.000000 0.000000 1 0 1.000000
  phy
0  22.093042 -123.640701 14.354638  -0.304546 -0.789732 -0.532519  0.000000 0.000000 1 0 1.000000
0  20.401297 -114.453873 28.200829  -0.204426 -0.795508 -0.570418  0.000000 0.000000 1 0 1.000000
0  20.899443 -124.064171 14.274076  -0.153369 -0.822579 -0.547579  0.000000 0.000000 1 0 1.000000
  phy
0  22.093042 -123.640701 14.354638  -0.304546 -0.789732 -0.532519  0.000000 0.000000 1 0 1.000000
0  24.779333 -112.653175 28.850029  -0.261515 -0.777883 -0.571409  0.000000 0.000000 1 0 1.000000
0  20.401297 -114.453873 28.200829  -0.204426 -0.795508 -0.570418  0.000000 0.000000 1 0 1.000000
  phy
0  24.779333 -112.653175 28.850029  -0.261515 -0.777883 -0.571409  0.000000 0.000000 1 0 1.000000
0  25.829685 -112.047493 28.993473  -0.664156 -0.631561 -0.400034  0.000000 0.000000 1 0 1.000000
0  25.852299 -111.456612 29.388878  -0.600443 -0.378115 -0.704626  0.000000 0.000000 1 0 1.000000
  phy
0  22.093042 -123.640701 14.354638  -0.304546 -0.789732 -0.532519  0.000000 0.000000 1 0 1.000000
0  25.829685 -112.047493 28.993473  -0.664156 -0.631561 -0.400034  0.000000 0.000000 1 0 1.000000
0  24.779333 -112.653175 28.850029  -0.261515 -0.777883 -0.571409  0.000000 0.000000 1 0 1.000000
  phy
0  21.013979 -124.197044 13.531943  -0.212422 -0.971788 -0.102490  0.000000 0.000000 1 0 1.000000
0  22.195461 -123.780113 13.593494  -0.447983 -0.887111 -0.111105  0.000000 0.000000 1 0 1.000000
0  22.093042 -123.640701 14.354638  -0.304546 -0.789732 -0.532519  0.000000 0.000000 1 0 1.000000
  phy
0  22.093042 -123.640701 14.354638  -0.304546 -0.789732 -0.532519  0.000000 0.000000 1 0 1.000000
0  20.899443 -124.064171 14.274076  -0.153369 -0.822579 -0.547579  0.000000 0.000000 1 0 1.000000
0  21.013979 -124.197044 13.531943  -0.212422 -0.971788 -0.102490  0.000000 0.000000 1 0 1.000000
  phy
0  22.195461 -123.780113 13.593494  -0.447983 -0.887111 -0.111105  0.000000 0.000000 1 0 1.000000
0  23.343122 -122.933342 14.231477  -0.664775 -0.665418 -0.339550  0.000000 0.000000 1 0 1.000000
0  22.093042 -123.640701 14.354638  -0.304546 -0.789732 -0.532519  0.000000 0.000000 1 0 1.000000
  phy
0  22.093042 -123.640701 14.354638  -0.304546 -0.789732 -0.532519  0.000000 0.000000 1 0 1.000000
0  23.343122 -122.933342 14.231477  -0.664775 -0.665418 -0.339550  0.000000 0.000000 1 0 1.000000
0  25.829685 -112.047493 28.993473  -0.664156 -0.631561 -0.400034  0.000000 0.000000 1 0 1.000000
  phy
0  25.829685 -112.047493 28.993473  -0.664156 -0.631561 -0.400034  0.000000 0.000000 1 0 1.000000
0  38.126480 -100.270668 24.166162  -0.788928 -0.382879 -0.480621  0.000000 0.000000 1 0 1.000000
0  25.852299 -111.456612 29.388878  -0.600443 -0.378115 -0.704626  0.000000 0.000000 1 0 1.000000
  phy
0  38.126480 -100.270668 24.166162  -0.788928 -0.382879 -0.480621  0.000000 0.000000 1 0 1.000000
0  37.772049 -99.559319 25.020433  -0.269513 0.147785 -0.951589  0.000000 0.000000 1 0 1.000000
0  25.852299 -111.456612 29.388878  -0.600443 -0.378115 -0.704626  0.000000 0.000000 1 0 1.000000
  phy
0  37.772049 -99.559319 25.020433  -0.269513 0.147785 -0.951589  0.000000 0.000000 1 0 1.000000
0  25.812986 -110.850899 29.501125  -0.174888 0.121711 -0.977037  0.000000 0.000000 1 0 1.000000
0  25.852299 -111.456612 29.388878  -0.600443 -0.378115 -0.704626  0.000000 0.000000 1 0 1.000000
  phy
0  -11.632663 -119.344917 24.651117  0.064927 -0.835021 -0.546373  0.000000 0.000000 1 0 1.000000
0  -11.742769 -118.784523 25.061922  0.084861 -0.351888 -0.932187  0.000000 0.000000 1 0 1.000000
0  -17.767042 -118.973480 24.155710  0.124518 -0.826949 -0.548316  0.000000 0.000000 1 0 1.000000
  phy
0  -11.742769 -118.784523 25.061922  0.084861 -0.351888 -0.932187  0.000000 0.000000 1 0 1.000000
0  -17.876596 -118.414429 24.565428  0.090188 -0.154222 -0.983911  0.000000 0.000000 1 0 1.000000
0  -17.767042 -118.973480 24.155710  0.124518 -0.826949 -0.548316  0.000000 0.000000 1 0 1.000000
  phy
0  -17.876596 -118.414429 24.565428  0.090188 -0.154222 -0.983911  0.000000 0.000000 1 0 1.000000
0  -11.742769 -118.784523 25.061922  0.084861 -0.351888 -0.932187  0.000000 0.000000 1 0 1.000000
0  6.527432 -117.331078 26.898766  0.074298 -0.191421 -0.978692  0.000000 0.000000 1 0 1.000000
  phy
0  -11.742769 -118.784523 25.061922  0.084861 -0.351888 -0.932187  0.000000 0.000000 1 0 1.000000
0  1.501675 -118.382240 26.302181  0.052207 -0.426923 -0.902780  0.000000 0.000000 1 0 1.000000
0  6.527432 -117.331078 26.898766  0.074298 -0.191421 -0.978692  0.000000 0.000000 1 0 1.000000
  phy
0  -11.632663 -119.344917 24.651117  0.064927 -0.835021 -0.546373  0.000000 0.000000 1 0 1.000000
0  -4.396335 -119.264420 25.299471  0.029327 -0.835410 -0.548844  0.000000 0.000000 1 0 1.000000
0  -11.742769 -118.784523 25.061922  0.084861 -0.351888 -0.932187  0.000000 0.000000 1 0 1.000000
  phy
0  -4.396335 -119.264420 25.299471  0.029327 -0.835410 -0.548844  0.000000 0.000000 1 0 1.000000
0  1.501675 -118.382240 26.302181  0.052207 -0.426923 -0.902780  0.000000 0.000000 1 0 1.000000
0  -11.742769 -118.784523 25.061922  0.084861 -0.351888 -0.932187  0.000000 0.000000 1 0 1.000000
  phy
0  7.519871 -117.853722 26.562405  -0.101257 -0.818246 -0.565881  0.000000 0.000000 1 0 1.000000
0  14.552958 -116.244415 27.426149  -0.129658 -0.805692 -0.577970  0.000000 0.000000 1 0 1.000000
0  6.527432 -117.331078 26.898766  0.074298 -0.191421 -0.978692  0.000000 0.000000 1 0 1.000000
  phy
0  6.527432 -117.331078 26.898766  0.074298 -0.191421 -0.978692  0.000000 0.000000 1 0 1.000000
0  1.501675 -118.382240 26.302181  0.052207 -0.426923 -0.902780  0.000000 0.000000 1 0 1.000000
0  7.519871 -117.853722 26.562405  -0.101257 -0.818246 -0.565881  0.000000 0.000000 1 0 1.000000
  phy
0  6.527432 -117.331078 26.898766  0.074298 -0.191421 -0.978692  0.000000 0.000000 1 0 1.000000
0  14.552958 -116.244415 27.426149  -0.129658 -0.805692 -0.577970  0.000000 0.000000 1 0 1.000000
0  20.298664 -113.928947 28.585585  -0.009009 -0.419432 -0.907742  0.000000 0.000000 1 0 1.000000
  phy
0  20.298664 -113.928947 28.585585  -0.009009 -0.419432 -0.907742  0.000000 0.000000 1 0 1.000000
0  24.035648 -112.378349 29.149288  0.085992 -0.138501 -0.986622  0.000000 0.000000 1 0 1.000000
0  6.527432 -117.331078 26.898766  0.074298 -0.191421 -0.978692  0.000000 0.000000 1 0 1.000000
  phy
0  6.527432 -117.331078 26.898766  0.074298 -0.191421 -0.978692  0.000000 0.000000 1 0 1.000000
0  24.035648 -112.378349 29.149288  0.085992 -0.138501 -0.986622  0.000000 0.000000 1 0 1.000000
0  -17.876596 -118.414429 24.565428  0.090188 -0.154222 -0.983911  0.000000 0.000000 1 0 1.000000
  phy
0  -13.066086 -128.232376 9.920153  -0.001382 -0.997226 -0.074421  0.000000 0.000000 1 0 1.000000
0  -14.425054 -127.961769 10.463601  0.277537 -0.857442 -0.433321  0.000000 0.000000 1 0 1.000000
0  -14.290636 -128.103806 9.728152  0.243921 -0.969087 -0.037042  0.000000 0.000000 1 0 1.000000
  phy
0  -14.290636 -128.103806 9.728152  0.243921 -0.969087 -0.037042  0.000000 0.000000 1 0 1.000000
0  -12.159190 -128.984879 -1.373781  0.118515 -0.992046 0.042420  0.000000 0.000000 1 0 1.000000
0  -13.066086 -128.232376 9.920153  -0.001382 -0.997226 -0.074421  0.000000 0.000000 1 0 1.000000
  phy
0  -14.425054 -127.961769 10.463601  0.277537 -0.857442 -0.433321  0.000000 0.000000 1 0 1.000000
0  -15.717291 -127.558434 10.091862  0.548894 -0.808951 -0.210507  0.000000 0.000000 1 0 1.000000
0  -14.290636 -128.103806 9.728152  0.243921 -0.969087 -0.037042  0.000000 0.000000 1 0 1.000000
  phy
0  -15.717291 -127.558434 10.091862  0.548894 -0.808951 -0.210507  0.000000 0.000000 1 0 1.000000
0  -12.159190 -128.984879 -1.373781  0.118515 -0.992046 0.042420  0.000000 0.000000 1 0 1.000000
0  -14.290636 -128.103806 9.728152  0.243921 -0.969087 -0.037042  0.000000 0.000000 1 0 1.000000
  phy
0  -13.066086 -128.232376 9.920153  -0.001382 -0.997226 -0.074421  0.000000 0.000000 1 0 1.000000
0  -2.975280 -127.988785 10.933625  -0.040218 -0.997276 -0.061831  0.000000 0.000000 1 0 1.000000
0  -13.137077 -128.095734 10.666043  0.072029 -0.851693 -0.519067  0.000000 0.000000 1 0 1.000000
  phy
0  -13.066086 -128.232376 9.920153  -0.001382 -0.997226 -0.074421  0.000000 0.000000 1 0 1.000000
0  -12.159190 -128.984879 -1.373781  0.118515 -0.992046 0.042420  0.000000 0.000000 1 0 1.000000
0  -2.975280 -127.988785 10.933625  -0.040218 -0.997276 -0.061831  0.000000 0.000000 1 0 1.000000
  phy
0  -13.066086 -128.232376 9.920153  -0.001382 -0.997226 -0.074421  0.000000 0.000000 1 0 1.000000
0  -13.137077 -128.095734 10.666043  0.072029 -0.851693 -0.519067  0.000000 0.000000 1 0 1.000000
0  -14.425054 -127.961769 10.463601  0.277537 -0.857442 -0.433321  0.000000 0.000000 1 0 1.000000
  phy
0  11.031752 -126.186691 13.163539  -0.085741 -0.847444 -0.523915  0.000000 0.000000 1 0 1.000000
0  4.123840 -127.416710 11.654718  -0.118250 -0.992958 0.007238  0.000000 0.000000 1 0 1.000000
0  11.153589 -126.315926 12.430944  -0.179068 -0.981078 -0.073631  0.000000 0.000000 1 0 1.000000
  phy
0  11.031752 -126.186691 13.163539  -0.085741 -0.847444 -0.523915  0.000000 0.000000 1 0 1.000000
0  4.029419 -127.281937 12.396758  -0.046460 -0.854657 -0.517110  0.000000 0.000000 1 0 1.000000
0  4.123840 -127.416710 11.654718  -0.118250 -0.992958 0.007238  0.000000 0.000000 1 0 1.000000
  phy
0  4.029419 -127.281937 12.396758  -0.046460 -0.854657 -0.517110  0.000000 0.000000 1 0 1.000000
0  -3.040349 -127.852875 11.672297  0.009296 -0.856658 -0.515801  0.000000 0.000000 1 0 1.000000
0  4.123840 -127.416710 11.654718  -0.118250 -0.992958 0.007238  0.000000 0.000000 1 0 1.000000
  phy
0  -3.040349 -127.852875 11.672297  0.009296 -0.856658 -0.515801  0.000000 0.000000 1 0 1.000000
0  -2.975280 -127.988785 10.933625  -0.040218 -0.997276 -0.061831  0.000000 0.000000 1 0 1.000000
0  4.123840 -127.416710 11.654718  -0.118250 -0.992958 0.007238  0.000000 0.000000 1 0 1.000000
  phy
0  -2.975280 -127.988785 10.933625  -0.040218 -0.997276 -0.061831  0.000000 0.000000 1 0 1.000000
0  -12.159190 -128.984879 -1.373781  0.118515 -0.992046 0.042420  0.000000 0.000000 1 0 1.000000
0  4.123840 -127.416710 11.654718  -0.118250 -0.992958 0.007238  0.000000 0.000000 1 0 1.000000
  phy
0  4.123840 -127.416710 11.654718  -0.118250 -0.992958 0.007238  0.000000 0.000000 1 0 1.000000
0  -12.159190 -128.984879 -1.373781  0.118515 -0.992046 0.042420  0.000000 0.000000 1 0 1.000000
0  22.660343 -124.862007 2.316294  -0.355084 -0.934738 -0.013430  0.000000 0.000000 1 0 1.000000
  phy
0  4.123840 -127.416710 11.654718  -0.118250 -0.992958 0.007238  0.000000 0.000000 1 0 1.000000
0  22.660343 -124.862007 2.316294  -0.355084 -0.934738 -0.013430  0.000000 0.000000 1 0 1.000000
0  11.153589 -126.315926 12.430944  -0.179068 -0.981078 -0.073631  0.000000 0.000000 1 0 1.000000
  phy
0  14.552958 -116.244415 27.426149  -0.129658 -0.805692 -0.577970  0.000000 0.000000 1 0 1.000000
0  20.401297 -114.453873 28.200829  -0.204426 -0.795508 -0.570418  0.000000 0.000000 1 0 1.000000
0  20.298664 -113.928947 28.585585  -0.009009 -0.419432 -0.907742  0.000000 0.000000 1 0 1.000000
  phy
0  1.501675 -118.382240 26.302181  0.052207 -0.426923 -0.902780  0.000000 0.000000 1 0 1.000000
0  1.611482 -118.941338 25.888166  -0.042252 -0.840313 -0.540453  0.000000 0.000000 1 0 1.000000
0  7.519871 -117.853722 26.562405  -0.101257 -0.818246 -0.565881  0.000000 0.000000 1 0 1.000000
  phy
0  25.829685 -112.047493 28.993473  -0.664156 -0.631561 -0.400034  0.000000 0.000000 1 0 1.000000
0  36.913860 -102.902588 23.280947  -0.703866 -0.551312 -0.447915  0.000000 0.000000 1 0 1.000000
0  38.126480 -100.270668 24.166162  -0.788928 -0.382879 -0.480621  0.000000 0.000000 1 0 1.000000
  phy
0  25.829685 -112.047493 28.993473  -0.664156 -0.631561 -0.400034  0.000000 0.000000 1 0 1.000000
0  41.419193 -103.866547 14.565389  -0.789319 -0.575963 -0.212703  0.000000 0.000000 1 0 1.000000
0  36.913860 -102.902588 23.280947  -0.703866 -0.551312 -0.447915  0.000000 0.000000 1 0 1.000000
  phy
0  23.343122 -122.933342 14.231477  -0.664775 -0.665418 -0.339550  0.000000 0.000000 1 0 1.000000
0  41.419193 -103.866547 14.565389  -0.789319 -0.575963 -0.212703  0.000000 0.000000 1 0 1.000000
0  25.829685 -112.047493 28.993473  -0.664156 -0.631561 -0.400034  0.000000 0.000000 1 0 1.000000
  phy
0  -17.876596 -118.414429 24.565428  0.090188 -0.154222 -0.983911  0.000000 0.000000 1 0 1.000000
0  -21.897631 -117.817207 24.281301  0.092262 -0.141866 -0.985577  0.000000 0.000000 1 0 1.000000
0  -17.767042 -118.973480 24.155710  0.124518 -0.826949 -0.548316  0.000000 0.000000 1 0 1.000000
  phy
0  -21.897631 -117.817207 24.281301  0.092262 -0.141866 -0.985577  0.000000 0.000000 1 0 1.000000
0  -22.516745 -118.243195 23.839094  0.184517 -0.836959 -0.515222  0.000000 0.000000 1 0 1.000000
0  -17.767042 -118.973480 24.155710  0.124518 -0.826949 -0.548316  0.000000 0.000000 1 0 1.000000
  phy
0  -21.897631 -117.817207 24.281301  0.092262 -0.141866 -0.985577  0.000000 0.000000 1 0 1.000000
0  -22.555204 -117.753769 24.208492  0.168984 -0.399793 -0.900894  0.000000 0.000000 1 0 1.000000
0  -22.516745 -118.243195 23.839094  0.184517 -0.836959 -0.515222  0.000000 0.000000 1 0 1.000000
  phy
0  24.035648 -112.378349 29.149288  0.085992 -0.138501 -0.986622  0.000000 0.000000 1 0 1.000000
0  -21.897631 -117.817207 24.281301  0.092262 -0.141866 -0.985577  0.000000 0.000000 1 0 1.000000
0  -17.876596 -118.414429 24.565428  0.090188 -0.154222 -0.983911  0.000000 0.000000 1 0 1.000000
  phy
0  11.153589 -126.315926 12.430944  -0.179068 -0.981078 -0.073631  0.000000 0.000000 1 0 1.000000
0  22.660343 -124.862007 2.316294  -0.355084 -0.934738 -0.013430  0.000000 0.000000 1 0 1.000000
0  21.013979 -124.197044 13.531943  -0.212422 -0.971788 -0.102490  0.000000 0.000000 1 0 1.000000
  phy
0  21.013979 -124.197044 13.531943  -0.212422 -0.971788 -0.102490  0.000000 0.000000 1 0 1.000000
0  22.660343 -124.862007 2.316294  -0.355084 -0.934738 -0.013430  0.000000 0.000000 1 0 1.000000
0  22.195461 -123.780113 13.593494  -0.447983 -0.887111 -0.111105  0.000000 0.000000 1 0 1.000000
  phy
0  13.027138 -93.739128 -7.940150  -0.124661 -0.098621 0.987286  0.000000 0.000000 1 0 1.000000
0  9.318437 -88.472214 -8.903927  -0.114341 -0.089453 0.989406  0.000000 0.000000 1 0 1.000000
0  14.639265 -94.153824 -7.663966  -0.227316 -0.089493 0.969700  0.000000 0.000000 1 0 1.000000
  phy
0  14.639265 -94.153824 -7.663966  -0.227316 -0.089493 0.969700  0.000000 0.000000 1 0 1.000000
0  9.318437 -88.472214 -8.903927  -0.114341 -0.089453 0.989406  0.000000 0.000000 1 0 1.000000
0  10.004950 -82.595383 -9.247301  -0.108494 -0.025624 0.993767  0.000000 0.000000 1 0 1.000000
  phy
0  14.639265 -94.153824 -7.663966  -0.227316 -0.089493 0.969700  0.000000 0.000000 1 0 1.000000
0  10.004950 -82.595383 -9.247301  -0.108494 -0.025624 0.993767  0.000000 0.000000 1 0 1.000000
0  13.114065 -82.111588 -8.812438  -0.275265 -0.054150 0.959842  0.000000 0.000000 1 0 1.000000
  phy
0  13.114065 -82.111588 -8.812438  -0.275265 -0.054150 0.959842  0.000000 0.000000 1 0 1.000000
0  10.004950 -82.595383 -9.247301  -0.108494 -0.025624 0.993767  0.000000 0.000000 1 0 1.000000
0  11.815673 -81.409210 -9.062916  -0.117541 0.028465 0.992660  0.000000 0.000000 1 0 1.000000
  phy
0  13.114065 -82.111588 -8.812438  -0.275265 -0.054150 0.959842  0.000000 0.000000 1 0 1.000000
0  11.815673 -81.409210 -9.062916  -0.117541 0.028465 0.992660  0.000000 0.000000 1 0 1.000000
0  12.541365 -81.228813 -8.966556  -0.285354 0.045640 0.957335  0.000000 0.000000 1 0 1.000000
  phy
0  11.065602 -109.589737 -6.542177  -0.156132 -0.108393 0.981771  0.000000 0.000000 1 0 1.000000
0  9.494269 -109.166420 -6.813344  -0.122196 -0.102035 0.987247  0.000000 0.000000 1 0 1.000000
0  14.639265 -94.153824 -7.663966  -0.227316 -0.089493 0.969700  0.000000 0.000000 1 0 1.000000
  phy
0  14.639265 -94.153824 -7.663966  -0.227316 -0.089493 0.969700  0.000000 0.000000 1 0 1.000000
0  9.494269 -109.166420 -6.813344  -0.122196 -0.102035 0.987247  0.000000 0.000000 1 0 1.000000
0  13.027138 -93.739128 -7.940150  -0.124661 -0.098621 0.987286  0.000000 0.000000 1 0 1.000000
  phy
0  9.318437 -88.472214 -8.903927  -0.114341 -0.089453 0.989406  0.000000 0.000000 1 0 1.000000
0  13.027138 -93.739128 -7.940150  -0.124661 -0.098621 0.987286  0.000000 0.000000 1 0 1.000000
0  9.494269 -109.166420 -6.813344  -0.122196 -0.102035 0.987247  0.000000 0.000000 1 0 1.000000
  phy
0  9.318437 -88.472214 -8.903927  -0.114341 -0.089453 0.989406  0.000000 0.000000 1 0 1.000000
0  9.494269 -109.166420 -6.813344  -0.122196 -0.102035 0.987247  0.000000 0.000000 1 0 1.000000
0  4.133183 -110.385735 -7.323043  -0.118927 -0.137601 0.983322  0.000000 0.000000 1 0 1.000000
  phy
0  9.318437 -88.472214 -8.903927  -0.114341 -0.089453 0.989406  0.000000 0.000000 1 0 1.000000
0  4.133183 -110.385735 -7.323043  -0.118927 -0.137601 0.983322  0.000000 0.000000 1 0 1.000000
0  -1.295144 -110.634087 -7.937802  -0.113803 -0.100598 0.988397  0.000000 0.000000 1 0 1.000000
  phy
0  9.318437 -88.472214 -8.903927  -0.114341 -0.089453 0.989406  0.000000 0.000000 1 0 1.000000
0  -1.295144 -110.634087 -7.937802  -0.113803 -0.100598 0.988397  0.000000 0.000000 1 0 1.000000
0  -8.069287 -96.237267 -10.175886  -0.109985 -0.088584 0.989978  0.000000 0.000000 1 0 1.000000
  phy
0  -2.780807 -111.343056 -7.998208  -0.083943 -0.123154 0.988831  0.000000 0.000000 1 0 1.000000
0  -9.567736 -97.009399 -10.230491  0.005260 -0.121607 0.992564  0.000000 0.000000 1 0 1.000000
0  -1.295144 -110.634087 -7.937802  -0.113803 -0.100598 0.988397  0.000000 0.000000 1 0 1.000000
  phy
0  -1.295144 -110.634087 -7.937802  -0.113803 -0.100598 0.988397  0.000000 0.000000 1 0 1.000000
0  -9.567736 -97.009399 -10.230491  0.005260 -0.121607 0.992564  0.000000 0.000000 1 0 1.000000
0  -8.069287 -96.237267 -10.175886  -0.109985 -0.088584 0.989978  0.000000 0.000000 1 0 1.000000
  phy
0  -1.295144 -110.634087 -7.937802  -0.113803 -0.100598 0.988397  0.000000 0.000000 1 0 1.000000
0  4.133183 -110.385735 -7.323043  -0.118927 -0.137601 0.983322  0.000000 0.000000 1 0 1.000000
0  -2.780807 -111.343056 -7.998208  -0.083943 -0.123154 0.988831  0.000000 0.000000 1 0 1.000000
  phy
0  -2.780807 -111.343056 -7.998208  -0.083943 -0.123154 0.988831  0.000000 0.000000 1 0 1.000000
0  4.133183 -110.385735 -7.323043  -0.118927 -0.137601 0.983322  0.000000 0.000000 1 0 1.000000
0  -3.276383 -112.062592 -7.936996  -0.089409 -0.154036 0.984012  0.000000 0.000000 1 0 1.000000
  phy
0  -3.276383 -112.062592 -7.936996  -0.089409 -0.154036 0.984012  0.000000 0.000000 1 0 1.000000
0  4.133183 -110.385735 -7.323043  -0.118927 -0.137601 0.983322  0.000000 0.000000 1 0 1.000000
0  -6.073494 -121.704315 -6.653642  -0.140904 -0.457883 0.877775  0.000000 0.000000 1 0 1.000000
  phy
0  -6.073494 -121.704315 -6.653642  -0.140904 -0.457883 0.877775  0.000000 0.000000 1 0 1.000000
0  4.133183 -110.385735 -7.323043  -0.118927 -0.137601 0.983322  0.000000 0.000000 1 0 1.000000
0  14.117970 -119.161316 -4.639516  -0.140247 -0.349827 0.926257  0.000000 0.000000 1 0 1.000000
  phy
0  -9.567736 -97.009399 -10.230491  0.005260 -0.121607 0.992564  0.000000 0.000000 1 0 1.000000
0  -2.780807 -111.343056 -7.998208  -0.083943 -0.123154 0.988831  0.000000 0.000000 1 0 1.000000
0  -5.597314 -109.134438 -8.461226  -0.043614 -0.132552 0.990216  0.000000 0.000000 1 0 1.000000
  phy
0  -2.780807 -111.343056 -7.998208  -0.083943 -0.123154 0.988831  0.000000 0.000000 1 0 1.000000
0  -3.276383 -112.062592 -7.936996  -0.089409 -0.154036 0.984012  0.000000 0.000000 1 0 1.000000
0  -5.597314 -109.134438 -8.461226  -0.043614 -0.132552 0.990216  0.000000 0.000000 1 0 1.000000
  phy
0  11.065602 -109.589737 -6.542177  -0.156132 -0.108393 0.981771  0.000000 0.000000 1 0 1.000000
0  11.647559 -110.276443 -6.359005  -0.154637 -0.142039 0.977708  0.000000 0.000000 1 0 1.000000
0  9.494269 -109.166420 -6.813344  -0.122196 -0.102035 0.987247  0.000000 0.000000 1 0 1.000000
  phy
0  9.494269 -109.166420 -6.813344  -0.122196 -0.102035 0.987247  0.000000 0.000000 1 0 1.000000
0  11.647559 -110.276443 -6.359005  -0.154637 -0.142039 0.977708  0.000000 0.000000 1 0 1.000000
0  4.133183 -110.385735 -7.323043  -0.118927 -0.137601 0.983322  0.000000 0.000000 1 0 1.000000
  phy
0  13.301552 -106.897575 -6.458329  -0.193787 -0.114745 0.974310  0.000000 0.000000 1 0 1.000000
0  14.639265 -94.153824 -7.663966  -0.227316 -0.089493 0.969700  0.000000 0.000000 1 0 1.000000
0  19.398399 -118.443649 -3.841084  -0.354558 -0.154012 0.922263  0.000000 0.000000 1 0 1.000000
  phy
0  11.647559 -110.276443 -6.359005  -0.154637 -0.142039 0.977708  0.000000 0.000000 1 0 1.000000
0  13.301552 -106.897575 -6.458329  -0.193787 -0.114745 0.974310  0.000000 0.000000 1 0 1.000000
0  19.398399 -118.443649 -3.841084  -0.354558 -0.154012 0.922263  0.000000 0.000000 1 0 1.000000
  phy
0  14.639265 -94.153824 -7.663966  -0.227316 -0.089493 0.969700  0.000000 0.000000 1 0 1.000000
0  13.301552 -106.897575 -6.458329  -0.193787 -0.114745 0.974310  0.000000 0.000000 1 0 1.000000
0  11.065602 -109.589737 -6.542177  -0.156132 -0.108393 0.981771  0.000000 0.000000 1 0 1.000000
  phy
0  13.301552 -106.897575 -6.458329  -0.193787 -0.114745 0.974310  0.000000 0.000000 1 0 1.000000
0  11.647559 -110.276443 -6.359005  -0.154637 -0.142039 0.977708  0.000000 0.000000 1 0 1.000000
0  11.065602 -109.589737 -6.542177  -0.156132 -0.108393 0.981771  0.000000 0.000000 1 0 1.000000
  phy
0  -11.632663 -119.344917 24.651117  0.064927 -0.835021 -0.546373  0.000000 0.000000 1 0 1.000000
0  -13.137077 -128.095734 10.666043  0.072029 -0.851693 -0.519067  0.000000 0.000000 1 0 1.000000
0  -4.396335 -119.264420 25.299471  0.029327 -0.835410 -0.548844  0.000000 0.000000 1 0 1.000000
  phy
0  -17.767042 -118.973480 24.155710  0.124518 -0.826949 -0.548316  0.000000 0.000000 1 0 1.000000
0  -13.137077 -128.095734 10.666043  0.072029 -0.851693 -0.519067  0.000000 0.000000 1 0 1.000000
0  -11.632663 -119.344917 24.651117  0.064927 -0.835021 -0.546373  0.000000 0.000000 1 0 1.000000
  phy
0  -14.425054 -127.961769 10.463601  0.277537 -0.857442 -0.433321  0.000000 0.000000 1 0 1.000000
0  -13.137077 -128.095734 10.666043  0.072029 -0.851693 -0.519067  0.000000 0.000000 1 0 1.000000
0  -22.516745 -118.243195 23.839094  0.184517 -0.836959 -0.515222  0.000000 0.000000 1 0 1.000000
  phy
0  -22.516745 -118.243195 23.839094  0.184517 -0.836959 -0.515222  0.000000 0.000000 1 0 1.000000
0  -13.137077 -128.095734 10.666043  0.072029 -0.851693 -0.519067  0.000000 0.000000 1 0 1.000000
0  -17.767042 -118.973480 24.155710  0.124518 -0.826949 -0.548316  0.000000 0.000000 1 0 1.000000
  phy
0  -22.516745 -118.243195 23.839094  0.184517 -0.836959 -0.515222  0.000000 0.000000 1 0 1.000000
0  -23.648760 -117.904785 23.749601  0.568766 -0.777325 -0.268833  0.000000 0.000000 1 0 1.000000
0  -14.425054 -127.961769 10.463601  0.277537 -0.857442 -0.433321  0.000000 0.000000 1 0 1.000000
  phy
0  -23.886972 -117.345795 24.117241  0.629854 -0.512698 -0.583460  0.000000 0.000000 1 0 1.000000
0  -23.648760 -117.904785 23.749601  0.568766 -0.777325 -0.268833  0.000000 0.000000 1 0 1.000000
0  -22.516745 -118.243195 23.839094  0.184517 -0.836959 -0.515222  0.000000 0.000000 1 0 1.000000
  phy
0  -22.555204 -117.753769 24.208492  0.168984 -0.399793 -0.900894  0.000000 0.000000 1 0 1.000000
0  -23.886972 -117.345795 24.117241  0.629854 -0.512698 -0.583460  0.000000 0.000000 1 0 1.000000
0  -22.516745 -118.243195 23.839094  0.184517 -0.836959 -0.515222  0.000000 0.000000 1 0 1.000000
  phy
0  -14.425054 -127.961769 10.463601  0.277537 -0.857442 -0.433321  0.000000 0.000000 1 0 1.000000
0  -23.648760 -117.904785 23.749601  0.568766 -0.777325 -0.268833  0.000000 0.000000 1 0 1.000000
0  -15.717291 -127.558434 10.091862  0.548894 -0.808951 -0.210507  0.000000 0.000000 1 0 1.000000
  phy
0  11.031752 -126.186691 13.163539  -0.085741 -0.847444 -0.523915  0.000000 0.000000 1 0 1.000000
0  1.611482 -118.941338 25.888166  -0.042252 -0.840313 -0.540453  0.000000 0.000000 1 0 1.000000
0  4.029419 -127.281937 12.396758  -0.046460 -0.854657 -0.517110  0.000000 0.000000 1 0 1.000000
  phy
0  1.611482 -118.941338 25.888166  -0.042252 -0.840313 -0.540453  0.000000 0.000000 1 0 1.000000
0  -3.040349 -127.852875 11.672297  0.009296 -0.856658 -0.515801  0.000000 0.000000 1 0 1.000000
0  4.029419 -127.281937 12.396758  -0.046460 -0.854657 -0.517110  0.000000 0.000000 1 0 1.000000
  phy
0  14.552958 -116.244415 27.426149  -0.129658 -0.805692 -0.577970  0.000000 0.000000 1 0 1.000000
0  20.899443 -124.064171 14.274076  -0.153369 -0.822579 -0.547579  0.000000 0.000000 1 0 1.000000
0  20.401297 -114.453873 28.200829  -0.204426 -0.795508 -0.570418  0.000000 0.000000 1 0 1.000000
  phy
0  25.812986 -110.850899 29.501125  -0.174888 0.121711 -0.977037  0.000000 0.000000 1 0 1.000000
0  25.127928 -110.834885 29.440596  0.145919 0.453873 -0.879038  0.000000 0.000000 1 0 1.000000
0  24.035648 -112.378349 29.149288  0.085992 -0.138501 -0.986622  0.000000 0.000000 1 0 1.000000
  phy
0  25.127928 -110.834885 29.440596  0.145919 0.453873 -0.879038  0.000000 0.000000 1 0 1.000000
0  -21.897631 -117.817207 24.281301  0.092262 -0.141866 -0.985577  0.000000 0.000000 1 0 1.000000
0  24.035648 -112.378349 29.149288  0.085992 -0.138501 -0.986622  0.000000 0.000000 1 0 1.000000
  phy
0  25.127928 -110.834885 29.440596  0.145919 0.453873 -0.879038  0.000000 0.000000 1 0 1.000000
0  -24.013058 -116.750740 24.220617  0.153255 0.424829 -0.892207  0.000000 0.000000 1 0 1.000000
0  -21.897631 -117.817207 24.281301  0.092262 -0.141866 -0.985577  0.000000 0.000000 1 0 1.000000
  phy
0  22.195461 -123.780113 13.593494  -0.447983 -0.887111 -0.111105  0.000000 0.000000 1 0 1.000000
0  22.660343 -124.862007 2.316294  -0.355084 -0.934738 -0.013430  0.000000 0.000000 1 0 1.000000
0  23.343122 -122.933342 14.231477  -0.664775 -0.665418 -0.339550  0.000000 0.000000 1 0 1.000000
  phy
0  24.401817 -122.112816 13.109501  -0.723306 -0.687006 -0.069653  0.000000 0.000000 1 0 1.000000
0  41.419193 -103.866547 14.565389  -0.789319 -0.575963 -0.212703  0.000000 0.000000 1 0 1.000000
0  23.343122 -122.933342 14.231477  -0.664775 -0.665418 -0.339550  0.000000 0.000000 1 0 1.000000
  phy
0  23.343122 -122.933342 14.231477  -0.664775 -0.665418 -0.339550  0.000000 0.000000 1 0 1.000000
0  22.660343 -124.862007 2.316294  -0.355084 -0.934738 -0.013430  0.000000 0.000000 1 0 1.000000
0  24.401817 -122.112816 13.109501  -0.723306 -0.687006 -0.069653  0.000000 0.000000 1 0 1.000000
  phy
0  24.401817 -122.112816 13.109501  -0.723306 -0.687006 -0.069653  0.000000 0.000000 1 0 1.000000
0  22.660343 -124.862007 2.316294  -0.355084 -0.934738 -0.013430  0.000000 0.000000 1 0 1.000000
0  41.419193 -103.866547 14.565389  -0.789319 -0.575963 -0.212703  0.000000 0.000000 1 0 1.000000
  phy
0  2.824302 -72.922409 -9.850593  -0.113113 0.028665 0.993168  0.000000 0.000000 1 0 1.000000
0  11.815673 -81.409210 -9.062916  -0.117541 0.028465 0.992660  0.000000 0.000000 1 0 1.000000
0  10.004950 -82.595383 -9.247301  -0.108494 -0.025624 0.993767  0.000000 0.000000 1 0 1.000000
  phy
0  2.824302 -72.922409 -9.850593  -0.113113 0.028665 0.993168  0.000000 0.000000 1 0 1.000000
0  10.004950 -82.595383 -9.247301  -0.108494 -0.025624 0.993767  0.000000 0.000000 1 0 1.000000
0  -0.492075 -72.202782 -10.162571  -0.093943 0.010915 0.995518  0.000000 0.000000 1 0 1.000000
  phy
0  -0.492075 -72.202782 -10.162571  -0.093943 0.010915 0.995518  0.000000 0.000000 1 0 1.000000
0  10.004950 -82.595383 -9.247301  -0.108494 -0.025624 0.993767  0.000000 0.000000 1 0 1.000000
0  -4.168779 -84.146873 -10.621799  -0.083914 -0.034067 0.995890  0.000000 0.000000 1 0 1.000000
  phy
0  2.824302 -72.922409 -9.850593  -0.113113 0.028665 0.993168  0.000000 0.000000 1 0 1.000000
0  2.561249 -70.543854 -9.792936  -0.119308 0.263785 0.957174  0.000000 0.000000 1 0 1.000000
0  11.851358 -71.561203 -8.685391  -0.185309 0.100742 0.977503  0.000000 0.000000 1 0 1.000000
  phy
0  2.824302 -72.922409 -9.850593  -0.113113 0.028665 0.993168  0.000000 0.000000 1 0 1.000000
0  11.851358 -71.561203 -8.685391  -0.185309 0.100742 0.977503  0.000000 0.000000 1 0 1.000000
0  11.815673 -81.409210 -9.062916  -0.117541 0.028465 0.992660  0.000000 0.000000 1 0 1.000000
  phy
0  11.815673 -81.409210 -9.062916  -0.117541 0.028465 0.992660  0.000000 0.000000 1 0 1.000000
0  11.851358 -71.561203 -8.685391  -0.185309 0.100742 0.977503  0.000000 0.000000 1 0 1.000000
0  12.541365 -81.228813 -8.966556  -0.285354 0.045640 0.957335  0.000000 0.000000 1 0 1.000000
  phy
0  -9.067316 -95.701218 -10.297354  0.030812 -0.020569 0.999314  0.000000 0.000000 1 0 1.000000
0  -9.567736 -97.009399 -10.230491  0.005260 -0.121607 0.992564  0.000000 0.000000 1 0 1.000000
0  -10.162484 -93.524178 -10.180246  0.165889 0.009532 0.986098  0.000000 0.000000 1 0 1.000000
  phy
0  -10.162484 -93.524178 -10.180246  0.165889 0.009532 0.986098  0.000000 0.000000 1 0 1.000000
0  -9.567736 -97.009399 -10.230491  0.005260 -0.121607 0.992564  0.000000 0.000000 1 0 1.000000
0  -12.959138 -98.421333 -9.669293  0.403361 0.033903 0.914413  0.000000 0.000000 1 0 1.000000
  phy
0  -9.567736 -97.009399 -10.230491  0.005260 -0.121607 0.992564  0.000000 0.000000 1 0 1.000000
0  -9.271146 -121.838127 -6.879147  0.110967 -0.209223 0.971551  0.000000 0.000000 1 0 1.000000
0  -12.959138 -98.421333 -9.669293  0.403361 0.033903 0.914413  0.000000 0.000000 1 0 1.000000
  phy
0  -9.567736 -97.009399 -10.230491  0.005260 -0.121607 0.992564  0.000000 0.000000 1 0 1.000000
0  -5.597314 -109.134438 -8.461226  -0.043614 -0.132552 0.990216  0.000000 0.000000 1 0 1.000000
0  -9.271146 -121.838127 -6.879147  0.110967 -0.209223 0.971551  0.000000 0.000000 1 0 1.000000
  phy
0  -9.567736 -97.009399 -10.230491  0.005260 -0.121607 0.992564  0.000000 0.000000 1 0 1.000000
0  -9.067316 -95.701218 -10.297354  0.030812 -0.020569 0.999314  0.000000 0.000000 1 0 1.000000
0  -8.069287 -96.237267 -10.175886  -0.109985 -0.088584 0.989978  0.000000 0.000000 1 0 1.000000
  phy
0  4.133183 -110.385735 -7.323043  -0.118927 -0.137601 0.983322  0.000000 0.000000 1 0 1.000000
0  11.647559 -110.276443 -6.359005  -0.154637 -0.142039 0.977708  0.000000 0.000000 1 0 1.000000
0  14.117970 -119.161316 -4.639516  -0.140247 -0.349827 0.926257  0.000000 0.000000 1 0 1.000000
  phy
0  14.639265 -94.153824 -7.663966  -0.227316 -0.089493 0.969700  0.000000 0.000000 1 0 1.000000
0  13.114065 -82.111588 -8.812438  -0.275265 -0.054150 0.959842  0.000000 0.000000 1 0 1.000000
0  18.076122 -94.746696 -6.380195  -0.355308 -0.064431 0.932526  0.000000 0.000000 1 0 1.000000
  phy
0  14.639265 -94.153824 -7.663966  -0.227316 -0.089493 0.969700  0.000000 0.000000 1 0 1.000000
0  18.076122 -94.746696 -6.380195  -0.355308 -0.064431 0.932526  0.000000 0.000000 1 0 1.000000
0  19.398399 -118.443649 -3.841084  -0.354558 -0.154012 0.922263  0.000000 0.000000 1 0 1.000000
  phy
0  11.647559 -110.276443 -6.359005  -0.154637 -0.142039 0.977708  0.000000 0.000000 1 0 1.000000
0  19.398399 -118.443649 -3.841084  -0.354558 -0.154012 0.922263  0.000000 0.000000 1 0 1.000000
0  16.284187 -119.056946 -4.284201  -0.186784 -0.356285 0.915518  0.000000 0.000000 1 0 1.000000
  phy
0  11.647559 -110.276443 -6.359005  -0.154637 -0.142039 0.977708  0.000000 0.000000 1 0 1.000000
0  16.284187 -119.056946 -4.284201  -0.186784 -0.356285 0.915518  0.000000 0.000000 1 0 1.000000
0  14.117970 -119.161316 -4.639516  -0.140247 -0.349827 0.926257  0.000000 0.000000 1 0 1.000000
  phy
0  -9.067316 -95.701218 -10.297354  0.030812 -0.020569 0.999314  0.000000 0.000000 1 0 1.000000
0  -10.162484 -93.524178 -10.180246  0.165889 0.009532 0.986098  0.000000 0.000000 1 0 1.000000
0  -7.267190 -84.266663 -10.493803  0.446516 0.148744 0.882326  0.000000 0.000000 1 0 1.000000
  phy
0  -9.067316 -95.701218 -10.297354  0.030812 -0.020569 0.999314  0.000000 0.000000 1 0 1.000000
0  -7.267190 -84.266663 -10.493803  0.446516 0.148744 0.882326  0.000000 0.000000 1 0 1.000000
0  -4.168779 -84.146873 -10.621799  -0.083914 -0.034067 0.995890  0.000000 0.000000 1 0 1.000000
  phy
0  -8.069287 -96.237267 -10.175886  -0.109985 -0.088584 0.989978  0.000000 0.000000 1 0 1.000000
0  -9.067316 -95.701218 -10.297354  0.030812 -0.020569 0.999314  0.000000 0.000000 1 0 1.000000
0  -4.168779 -84.146873 -10.621799  -0.083914 -0.034067 0.995890  0.000000 0.000000 1 0 1.000000
  phy
0  11.851358 -71.561203 -8.685391  -0.185309 0.100742 0.977503  0.000000 0.000000 1 0 1.000000
0  14.947584 -81.627220 -8.139395  -0.602139 0.082452 0.794122  0.000000 0.000000 1 0 1.000000
0  12.541365 -81.228813 -8.966556  -0.285354 0.045640 0.957335  0.000000 0.000000 1 0 1.000000
  phy
0  12.541365 -81.228813 -8.966556  -0.285354 0.045640 0.957335  0.000000 0.000000 1 0 1.000000
0  14.947584 -81.627220 -8.139395  -0.602139 0.082452 0.794122  0.000000 0.000000 1 0 1.000000
0  13.114065 -82.111588 -8.812438  -0.275265 -0.054150 0.959842  0.000000 0.000000 1 0 1.000000
  phy
0  14.947584 -81.627220 -8.139395  -0.602139 0.082452 0.794122  0.000000 0.000000 1 0 1.000000
0  11.851358 -71.561203 -8.685391  -0.185309 0.100742 0.977503  0.000000 0.000000 1 0 1.000000
0  13.563656 -70.281364 -7.862177  -0.663806 0.155119 0.731642  0.000000 0.000000 1 0 1.000000
  phy
0  13.211121 -67.793495 -7.210237  -0.529785 0.362999 0.766524  0.000000 0.000000 1 0 1.000000
0  11.851358 -71.561203 -8.685391  -0.185309 0.100742 0.977503  0.000000 0.000000 1 0 1.000000
0  2.561249 -70.543854 -9.792936  -0.119308 0.263785 0.957174  0.000000 0.000000 1 0 1.000000
  phy
0  11.851358 -71.561203 -8.685391  -0.185309 0.100742 0.977503  0.000000 0.000000 1 0 1.000000
0  13.211121 -67.793495 -7.210237  -0.529785 0.362999 0.766524  0.000000 0.000000 1 0 1.000000
0  13.563656 -70.281364 -7.862177  -0.663806 0.155119 0.731642  0.000000 0.000000 1 0 1.000000
  phy
0  22.700802 -124.703407 1.757502  -0.508552 -0.727545 0.460492  0.000000 0.000000 1 0 1.000000
0  -12.118827 -128.826263 -1.932650  0.349368 -0.774030 0.528035  0.000000 0.000000 1 0 1.000000
0  -12.124100 -128.417435 -2.338868  0.244246 -0.529284 0.812529  0.000000 0.000000 1 0 1.000000
  phy
0  22.700802 -124.703407 1.757502  -0.508552 -0.727545 0.460492  0.000000 0.000000 1 0 1.000000
0  -12.124100 -128.417435 -2.338868  0.244246 -0.529284 0.812529  0.000000 0.000000 1 0 1.000000
0  22.695456 -124.295006 1.351658  -0.469507 -0.472611 0.745790  0.000000 0.000000 1 0 1.000000
  phy
0  22.700802 -124.703407 1.757502  -0.508552 -0.727545 0.460492  0.000000 0.000000 1 0 1.000000
0  -12.159190 -128.984879 -1.373781  0.118515 -0.992046 0.042420  0.000000 0.000000 1 0 1.000000
0  -12.118827 -128.826263 -1.932650  0.349368 -0.774030 0.528035  0.000000 0.000000 1 0 1.000000
  phy
0  22.700802 -124.703407 1.757502  -0.508552 -0.727545 0.460492  0.000000 0.000000 1 0 1.000000
0  22.660343 -124.862007 2.316294  -0.355084 -0.934738 -0.013430  0.000000 0.000000 1 0 1.000000
0  -12.159190 -128.984879 -1.373781  0.118515 -0.992046 0.042420  0.000000 0.000000 1 0 1.000000
  phy
0  41.419193 -103.866547 14.565389  -0.789319 -0.575963 -0.212703  0.000000 0.000000 1 0 1.000000
0  22.660343 -124.862007 2.316294  -0.355084 -0.934738 -0.013430  0.000000 0.000000 1 0 1.000000
0  22.700802 -124.703407 1.757502  -0.508552 -0.727545 0.460492  0.000000 0.000000 1 0 1.000000
  phy
0  22.700802 -124.703407 1.757502  -0.508552 -0.727545 0.460492  0.000000 0.000000 1 0 1.000000
0  22.695456 -124.295006 1.351658  -0.469507 -0.472611 0.745790  0.000000 0.000000 1 0 1.000000
0  38.917259 -105.635124 11.727513  -0.786277 -0.440942 0.432827  0.000000 0.000000 1 0 1.000000
  phy
0  38.917259 -105.635124 11.727513  -0.786277 -0.440942 0.432827  0.000000 0.000000 1 0 1.000000
0  41.419193 -103.866547 14.565389  -0.789319 -0.575963 -0.212703  0.000000 0.000000 1 0 1.000000
0  22.700802 -124.703407 1.757502  -0.508552 -0.727545 0.460492  0.000000 0.000000 1 0 1.000000
  phy
0  -4.396335 -119.264420 25.299471  0.029327 -0.835410 -0.548844  0.000000 0.000000 1 0 1.000000
0  1.611482 -118.941338 25.888166  -0.042252 -0.840313 -0.540453  0.000000 0.000000 1 0 1.000000
0  1.501675 -118.382240 26.302181  0.052207 -0.426923 -0.902780  0.000000 0.000000 1 0 1.000000
  phy
0  -13.137077 -128.095734 10.666043  0.072029 -0.851693 -0.519067  0.000000 0.000000 1 0 1.000000
0  -3.040349 -127.852875 11.672297  0.009296 -0.856658 -0.515801  0.000000 0.000000 1 0 1.000000
0  -4.396335 -119.264420 25.299471  0.029327 -0.835410 -0.548844  0.000000 0.000000 1 0 1.000000
  phy
0  -4.396335 -119.264420 25.299471  0.029327 -0.835410 -0.548844  0.000000 0.000000 1 0 1.000000
0  -3.040349 -127.852875 11.672297  0.009296 -0.856658 -0.515801  0.000000 0.000000 1 0 1.000000
0  1.611482 -118.941338 25.888166  -0.042252 -0.840313 -0.540453  0.000000 0.000000 1 0 1.000000
  phy
0  -16.681492 -126.977303 8.756104  0.543775 -0.836743 0.064574  0.000000 0.000000 1 0 1.000000
0  -12.159190 -128.984879 -1.373781  0.118515 -0.992046 0.042420  0.000000 0.000000 1 0 1.000000
0  -15.717291 -127.558434 10.091862  0.548894 -0.808951 -0.210507  0.000000 0.000000 1 0 1.000000
  phy
0  -37.351917 -113.198586 6.250532  0.658196 -0.750413 -0.060490  0.000000 0.000000 1 0 1.000000
0  -16.681492 -126.977303 8.756104  0.543775 -0.836743 0.064574  0.000000 0.000000 1 0 1.000000
0  -15.717291 -127.558434 10.091862  0.548894 -0.808951 -0.210507  0.000000 0.000000 1 0 1.000000
  phy
0  -15.717291 -127.558434 10.091862  0.548894 -0.808951 -0.210507  0.000000 0.000000 1 0 1.000000
0  -23.648760 -117.904785 23.749601  0.568766 -0.777325 -0.268833  0.000000 0.000000 1 0 1.000000
0  -37.351917 -113.198586 6.250532  0.658196 -0.750413 -0.060490  0.000000 0.000000 1 0 1.000000
  phy
0  -37.057896 -109.186996 16.196655  0.788823 -0.537956 -0.297256  0.000000 0.000000 1 0 1.000000
0  -42.376736 -101.903168 10.064776  0.886457 -0.437073 -0.152188  0.000000 0.000000 1 0 1.000000
0  -37.351917 -113.198586 6.250532  0.658196 -0.750413 -0.060490  0.000000 0.000000 1 0 1.000000
  phy
0  -37.057896 -109.186996 16.196655  0.788823 -0.537956 -0.297256  0.000000 0.000000 1 0 1.000000
0  -37.635719 -107.823624 16.758505  0.864571 -0.443819 -0.235674  0.000000 0.000000 1 0 1.000000
0  -42.376736 -101.903168 10.064776  0.886457 -0.437073 -0.152188  0.000000 0.000000 1 0 1.000000
  phy
0  -35.117279 -111.431587 15.646782  0.633890 -0.710576 -0.305393  0.000000 0.000000 1 0 1.000000
0  -37.057896 -109.186996 16.196655  0.788823 -0.537956 -0.297256  0.000000 0.000000 1 0 1.000000
0  -37.351917 -113.198586 6.250532  0.658196 -0.750413 -0.060490  0.000000 0.000000 1 0 1.000000
  phy
0  -37.635719 -107.823624 16.758505  0.864571 -0.443819 -0.235674  0.000000 0.000000 1 0 1.000000
0  -37.057896 -109.186996 16.196655  0.788823 -0.537956 -0.297256  0.000000 0.000000 1 0 1.000000
0  -37.108189 -108.270409 17.119473  0.159411 0.478561 -0.863462  0.000000 0.000000 1 0 1.000000
  phy
0  -37.057896 -109.186996 16.196655  0.788823 -0.537956 -0.297256  0.000000 0.000000 1 0 1.000000
0  -23.886972 -117.345795 24.117241  0.629854 -0.512698 -0.583460  0.000000 0.000000 1 0 1.000000
0  -37.108189 -108.270409 17.119473  0.159411 0.478561 -0.863462  0.000000 0.000000 1 0 1.000000
  phy
0  -23.886972 -117.345795 24.117241  0.629854 -0.512698 -0.583460  0.000000 0.000000 1 0 1.000000
0  -37.057896 -109.186996 16.196655  0.788823 -0.537956 -0.297256  0.000000 0.000000 1 0 1.000000
0  -23.648760 -117.904785 23.749601  0.568766 -0.777325 -0.268833  0.000000 0.000000 1 0 1.000000
  phy
0  -35.117279 -111.431587 15.646782  0.633890 -0.710576 -0.305393  0.000000 0.000000 1 0 1.000000
0  -23.648760 -117.904785 23.749601  0.568766 -0.777325 -0.268833  0.000000 0.000000 1 0 1.000000
0  -37.057896 -109.186996 16.196655  0.788823 -0.537956 -0.297256  0.000000 0.000000 1 0 1.000000
  phy
0  -37.635719 -107.823624 16.758505  0.864571 -0.443819 -0.235674  0.000000 0.000000 1 0 1.000000
0  -37.108189 -108.270409 17.119473  0.159411 0.478561 -0.863462  0.000000 0.000000 1 0 1.000000
0  -37.899559 -107.440086 16.482904  0.159488 0.552314 -0.818238  0.000000 0.000000 1 0 1.000000
  phy
0  -37.108189 -108.270409 17.119473  0.159411 0.478561 -0.863462  0.000000 0.000000 1 0 1.000000
0  41.691872 -92.756767 22.067741  0.095671 0.494702 -0.863780  0.000000 0.000000 1 0 1.000000
0  -37.899559 -107.440086 16.482904  0.159488 0.552314 -0.818238  0.000000 0.000000 1 0 1.000000
  phy
0  -42.376736 -101.903168 10.064776  0.886457 -0.437073 -0.152188  0.000000 0.000000 1 0 1.000000
0  -37.635719 -107.823624 16.758505  0.864571 -0.443819 -0.235674  0.000000 0.000000 1 0 1.000000
0  -41.111229 -102.966522 12.777713  0.865865 -0.161333 -0.473550  0.000000 0.000000 1 0 1.000000
  phy
0  -41.111229 -102.966522 12.777713  0.865865 -0.161333 -0.473550  0.000000 0.000000 1 0 1.000000
0  -37.635719 -107.823624 16.758505  0.864571 -0.443819 -0.235674  0.000000 0.000000 1 0 1.000000
0  -37.899559 -107.440086 16.482904  0.159488 0.552314 -0.818238  0.000000 0.000000 1 0 1.000000
  phy
0  -41.561901 -101.437119 11.638499  0.169888 0.619454 -0.766430  0.000000 0.000000 1 0 1.000000
0  -37.899559 -107.440086 16.482904  0.159488 0.552314 -0.818238  0.000000 0.000000 1 0 1.000000
0  41.691872 -92.756767 22.067741  0.095671 0.494702 -0.863780  0.000000 0.000000 1 0 1.000000
  phy
0  -41.561901 -101.437119 11.638499  0.169888 0.619454 -0.766430  0.000000 0.000000 1 0 1.000000
0  -41.111229 -102.966522 12.777713  0.865865 -0.161333 -0.473550  0.000000 0.000000 1 0 1.000000
0  -37.899559 -107.440086 16.482904  0.159488 0.552314 -0.818238  0.000000 0.000000 1 0 1.000000
  phy
0  -22.555204 -117.753769 24.208492  0.168984 -0.399793 -0.900894  0.000000 0.000000 1 0 1.000000
0  -24.013058 -116.750740 24.220617  0.153255 0.424829 -0.892207  0.000000 0.000000 1 0 1.000000
0  -23.886972 -117.345795 24.117241  0.629854 -0.512698 -0.583460  0.000000 0.000000 1 0 1.000000
  phy
0  -22.555204 -117.753769 24.208492  0.168984 -0.399793 -0.900894  0.000000 0.000000 1 0 1.000000
0  -21.897631 -117.817207 24.281301  0.092262 -0.141866 -0.985577  0.000000 0.000000 1 0 1.000000
0  -24.013058 -116.750740 24.220617  0.153255 0.424829 -0.892207  0.000000 0.000000 1 0 1.000000
  phy
0  -0.646674 -70.923676 -10.132900  0.024688 0.125182 0.991827  0.000000 0.000000 1 0 1.000000
0  2.561249 -70.543854 -9.792936  -0.119308 0.263785 0.957174  0.000000 0.000000 1 0 1.000000
0  -0.492075 -72.202782 -10.162571  -0.093943 0.010915 0.995518  0.000000 0.000000 1 0 1.000000
  phy
0  -0.492075 -72.202782 -10.162571  -0.093943 0.010915 0.995518  0.000000 0.000000 1 0 1.000000
0  2.561249 -70.543854 -9.792936  -0.119308 0.263785 0.957174  0.000000 0.000000 1 0 1.000000
0  2.824302 -72.922409 -9.850593  -0.113113 0.028665 0.993168  0.000000 0.000000 1 0 1.000000
  phy
0  -9.271146 -121.838127 -6.879147  0.110967 -0.209223 0.971551  0.000000 0.000000 1 0 1.000000
0  -3.276383 -112.062592 -7.936996  -0.089409 -0.154036 0.984012  0.000000 0.000000 1 0 1.000000
0  -6.073494 -121.704315 -6.653642  -0.140904 -0.457883 0.877775  0.000000 0.000000 1 0 1.000000
  phy
0  -5.597314 -109.134438 -8.461226  -0.043614 -0.132552 0.990216  0.000000 0.000000 1 0 1.000000
0  -3.276383 -112.062592 -7.936996  -0.089409 -0.154036 0.984012  0.000000 0.000000 1 0 1.000000
0  -9.271146 -121.838127 -6.879147  0.110967 -0.209223 0.971551  0.000000 0.000000 1 0 1.000000
  phy
0  14.117970 -119.161316 -4.639516  -0.140247 -0.349827 0.926257  0.000000 0.000000 1 0 1.000000
0  16.284187 -119.056946 -4.284201  -0.186784 -0.356285 0.915518  0.000000 0.000000 1 0 1.000000
0  22.695456 -124.295006 1.351658  -0.469507 -0.472611 0.745790  0.000000 0.000000 1 0 1.000000
  phy
0  14.117970 -119.161316 -4.639516  -0.140247 -0.349827 0.926257  0.000000 0.000000 1 0 1.000000
0  22.695456 -124.295006 1.351658  -0.469507 -0.472611 0.745790  0.000000 0.000000 1 0 1.000000
0  -6.073494 -121.704315 -6.653642  -0.140904 -0.457883 0.877775  0.000000 0.000000 1 0 1.000000
  phy
0  -6.073494 -121.704315 -6.653642  -0.140904 -0.457883 0.877775  0.000000 0.000000 1 0 1.000000
0  22.695456 -124.295006 1.351658  -0.469507 -0.472611 0.745790  0.000000 0.000000 1 0 1.000000
0  -12.124100 -128.417435 -2.338868  0.244246 -0.529284 0.812529  0.000000 0.000000 1 0 1.000000
  phy
0  22.695456 -124.295006 1.351658  -0.469507 -0.472611 0.745790  0.000000 0.000000 1 0 1.000000
0  16.284187 -119.056946 -4.284201  -0.186784 -0.356285 0.915518  0.000000 0.000000 1 0 1.000000
0  19.398399 -118.443649 -3.841084  -0.354558 -0.154012 0.922263  0.000000 0.000000 1 0 1.000000
  phy
0  18.076122 -94.746696 -6.380195  -0.355308 -0.064431 0.932526  0.000000 0.000000 1 0 1.000000
0  13.114065 -82.111588 -8.812438  -0.275265 -0.054150 0.959842  0.000000 0.000000 1 0 1.000000
0  14.947584 -81.627220 -8.139395  -0.602139 0.082452 0.794122  0.000000 0.000000 1 0 1.000000
  phy
0  -4.168779 -84.146873 -10.621799  -0.083914 -0.034067 0.995890  0.000000 0.000000 1 0 1.000000
0  10.004950 -82.595383 -9.247301  -0.108494 -0.025624 0.993767  0.000000 0.000000 1 0 1.000000
0  9.318437 -88.472214 -8.903927  -0.114341 -0.089453 0.989406  0.000000 0.000000 1 0 1.000000
  phy
0  -4.168779 -84.146873 -10.621799  -0.083914 -0.034067 0.995890  0.000000 0.000000 1 0 1.000000
0  9.318437 -88.472214 -8.903927  -0.114341 -0.089453 0.989406  0.000000 0.000000 1 0 1.000000
0  -8.069287 -96.237267 -10.175886  -0.109985 -0.088584 0.989978  0.000000 0.000000 1 0 1.000000
  phy
0  13.211121 -67.793495 -7.210237  -0.529785 0.362999 0.766524  0.000000 0.000000 1 0 1.000000
0  2.561249 -70.543854 -9.792936  -0.119308 0.263785 0.957174  0.000000 0.000000 1 0 1.000000
0  3.341167 -66.068047 -8.161149  0.039266 0.814710 -0.578538  0.000000 0.000000 1 0 1.000000
  phy
0  12.736732 -67.083977 -6.998285  -0.309491 0.867918 -0.388501  0.000000 0.000000 1 0 1.000000
0  13.211121 -67.793495 -7.210237  -0.529785 0.362999 0.766524  0.000000 0.000000 1 0 1.000000
0  3.341167 -66.068047 -8.161149  0.039266 0.814710 -0.578538  0.000000 0.000000 1 0 1.000000
  phy
0  43.299839 -91.666557 15.923822  -0.873329 0.422914 0.241746  0.000000 0.000000 1 0 1.000000
0  42.947540 -91.776680 15.351247  -0.694917 0.197101 0.691551  0.000000 0.000000 1 0 1.000000
0  13.211121 -67.793495 -7.210237  -0.529785 0.362999 0.766524  0.000000 0.000000 1 0 1.000000
  phy
0  13.211121 -67.793495 -7.210237  -0.529785 0.362999 0.766524  0.000000 0.000000 1 0 1.000000
0  12.736732 -67.083977 -6.998285  -0.309491 0.867918 -0.388501  0.000000 0.000000 1 0 1.000000
0  43.299839 -91.666557 15.923822  -0.873329 0.422914 0.241746  0.000000 0.000000 1 0 1.000000
  phy
0  42.947540 -91.776680 15.351247  -0.694917 0.197101 0.691551  0.000000 0.000000 1 0 1.000000
0  13.563656 -70.281364 -7.862177  -0.663806 0.155119 0.731642  0.000000 0.000000 1 0 1.000000
0  13.211121 -67.793495 -7.210237  -0.529785 0.362999 0.766524  0.000000 0.000000 1 0 1.000000
  phy
0  43.299839 -91.666557 15.923822  -0.873329 0.422914 0.241746  0.000000 0.000000 1 0 1.000000
0  40.051147 -101.311562 10.206753  -0.686432 0.026941 0.726694  0.000000 0.000000 1 0 1.000000
0  42.947540 -91.776680 15.351247  -0.694917 0.197101 0.691551  0.000000 0.000000 1 0 1.000000
  phy
0  43.299839 -91.666557 15.923822  -0.873329 0.422914 0.241746  0.000000 0.000000 1 0 1.000000
0  41.419193 -103.866547 14.565389  -0.789319 -0.575963 -0.212703  0.000000 0.000000 1 0 1.000000
0  40.051147 -101.311562 10.206753  -0.686432 0.026941 0.726694  0.000000 0.000000 1 0 1.000000
  phy
0  43.101509 -91.545525 19.491224  -0.954294 -0.210227 -0.212430  0.000000 0.000000 1 0 1.000000
0  41.419193 -103.866547 14.565389  -0.789319 -0.575963 -0.212703  0.000000 0.000000 1 0 1.000000
0  43.299839 -91.666557 15.923822  -0.873329 0.422914 0.241746  0.000000 0.000000 1 0 1.000000
  phy
0  43.299839 -91.666557 15.923822  -0.873329 0.422914 0.241746  0.000000 0.000000 1 0 1.000000
0  43.222630 -90.719658 19.480276  -0.596570 0.799260 -0.072716  0.000000 0.000000 1 0 1.000000
0  43.101509 -91.545525 19.491224  -0.954294 -0.210227 -0.212430  0.000000 0.000000 1 0 1.000000
  phy
0  43.299839 -91.666557 15.923822  -0.873329 0.422914 0.241746  0.000000 0.000000 1 0 1.000000
0  12.736732 -67.083977 -6.998285  -0.309491 0.867918 -0.388501  0.000000 0.000000 1 0 1.000000
0  43.222630 -90.719658 19.480276  -0.596570 0.799260 -0.072716  0.000000 0.000000 1 0 1.000000
  phy
0  22.695456 -124.295006 1.351658  -0.469507 -0.472611 0.745790  0.000000 0.000000 1 0 1.000000
0  38.909096 -105.135162 11.276282  -0.780256 -0.391033 0.488154  0.000000 0.000000 1 0 1.000000
0  38.917259 -105.635124 11.727513  -0.786277 -0.440942 0.432827  0.000000 0.000000 1 0 1.000000
  phy
0  38.909096 -105.135162 11.276282  -0.780256 -0.391033 0.488154  0.000000 0.000000 1 0 1.000000
0  41.419193 -103.866547 14.565389  -0.789319 -0.575963 -0.212703  0.000000 0.000000 1 0 1.000000
0  38.917259 -105.635124 11.727513  -0.786277 -0.440942 0.432827  0.000000 0.000000 1 0 1.000000
  phy
0  38.267509 -104.560249 9.843410  -0.764259 -0.375064 0.524629  0.000000 0.000000 1 0 1.000000
0  38.909096 -105.135162 11.276282  -0.780256 -0.391033 0.488154  0.000000 0.000000 1 0 1.000000
0  22.695456 -124.295006 1.351658  -0.469507 -0.472611 0.745790  0.000000 0.000000 1 0 1.000000
  phy
0  22.695456 -124.295006 1.351658  -0.469507 -0.472611 0.745790  0.000000 0.000000 1 0 1.000000
0  40.051147 -101.311562 10.206753  -0.686432 0.026941 0.726694  0.000000 0.000000 1 0 1.000000
0  38.267509 -104.560249 9.843410  -0.764259 -0.375064 0.524629  0.000000 0.000000 1 0 1.000000
  phy
0  38.267509 -104.560249 9.843410  -0.764259 -0.375064 0.524629  0.000000 0.000000 1 0 1.000000
0  40.051147 -101.311562 10.206753  -0.686432 0.026941 0.726694  0.000000 0.000000 1 0 1.000000
0  38.909096 -105.135162 11.276282  -0.780256 -0.391033 0.488154  0.000000 0.000000 1 0 1.000000
  phy
0  41.691872 -92.756767 22.067741  0.095671 0.494702 -0.863780  0.000000 0.000000 1 0 1.000000
0  41.419193 -103.866547 14.565389  -0.789319 -0.575963 -0.212703  0.000000 0.000000 1 0 1.000000
0  43.101509 -91.545525 19.491224  -0.954294 -0.210227 -0.212430  0.000000 0.000000 1 0 1.000000
  phy
0  43.101509 -91.545525 19.491224  -0.954294 -0.210227 -0.212430  0.000000 0.000000 1 0 1.000000
0  43.222630 -90.719658 19.480276  -0.596570 0.799260 -0.072716  0.000000 0.000000 1 0 1.000000
0  41.691872 -92.756767 22.067741  0.095671 0.494702 -0.863780  0.000000 0.000000 1 0 1.000000
  phy
0  38.126480 -100.270668 24.166162  -0.788928 -0.382879 -0.480621  0.000000 0.000000 1 0 1.000000
0  41.419193 -103.866547 14.565389  -0.789319 -0.575963 -0.212703  0.000000 0.000000 1 0 1.000000
0  41.691872 -92.756767 22.067741  0.095671 0.494702 -0.863780  0.000000 0.000000 1 0 1.000000
  phy
0  41.691872 -92.756767 22.067741  0.095671 0.494702 -0.863780  0.000000 0.000000 1 0 1.000000
0  37.772049 -99.559319 25.020433  -0.269513 0.147785 -0.951589  0.000000 0.000000 1 0 1.000000
0  38.126480 -100.270668 24.166162  -0.788928 -0.382879 -0.480621  0.000000 0.000000 1 0 1.000000
  phy
0  36.913860 -102.902588 23.280947  -0.703866 -0.551312 -0.447915  0.000000 0.000000 1 0 1.000000
0  41.419193 -103.866547 14.565389  -0.789319 -0.575963 -0.212703  0.000000 0.000000 1 0 1.000000
0  38.126480 -100.270668 24.166162  -0.788928 -0.382879 -0.480621  0.000000 0.000000 1 0 1.000000
  phy
0  -34.003273 -114.265053 4.000937  0.558430 -0.605577 0.566950  0.000000 0.000000 1 0 1.000000
0  -34.013100 -113.772743 3.550683  0.552176 -0.549266 0.627222  0.000000 0.000000 1 0 1.000000
0  -12.124100 -128.417435 -2.338868  0.244246 -0.529284 0.812529  0.000000 0.000000 1 0 1.000000
  phy
0  -34.003273 -114.265053 4.000937  0.558430 -0.605577 0.566950  0.000000 0.000000 1 0 1.000000
0  -12.124100 -128.417435 -2.338868  0.244246 -0.529284 0.812529  0.000000 0.000000 1 0 1.000000
0  -12.118827 -128.826263 -1.932650  0.349368 -0.774030 0.528035  0.000000 0.000000 1 0 1.000000
  phy
0  -34.013100 -113.772743 3.550683  0.552176 -0.549266 0.627222  0.000000 0.000000 1 0 1.000000
0  -34.003273 -114.265053 4.000937  0.558430 -0.605577 0.566950  0.000000 0.000000 1 0 1.000000
0  -37.351917 -113.198586 6.250532  0.658196 -0.750413 -0.060490  0.000000 0.000000 1 0 1.000000
  phy
0  -12.118827 -128.826263 -1.932650  0.349368 -0.774030 0.528035  0.000000 0.000000 1 0 1.000000
0  -37.351917 -113.198586 6.250532  0.658196 -0.750413 -0.060490  0.000000 0.000000 1 0 1.000000
0  -34.003273 -114.265053 4.000937  0.558430 -0.605577 0.566950  0.000000 0.000000 1 0 1.000000
  phy
0  -34.013100 -113.772743 3.550683  0.552176 -0.549266 0.627222  0.000000 0.000000 1 0 1.000000
0  -33.242271 -113.028954 2.265291  0.531873 -0.529009 0.661257  0.000000 0.000000 1 0 1.000000
0  -12.124100 -128.417435 -2.338868  0.244246 -0.529284 0.812529  0.000000 0.000000 1 0 1.000000
  phy
0  -33.242271 -113.028954 2.265291  0.531873 -0.529009 0.661257  0.000000 0.000000 1 0 1.000000
0  -34.013100 -113.772743 3.550683  0.552176 -0.549266 0.627222  0.000000 0.000000 1 0 1.000000
0  -35.764481 -110.288452 2.172044  0.503305 -0.174910 0.846221  0.000000 0.000000 1 0 1.000000
  phy
0  -12.124100 -128.417435 -2.338868  0.244246 -0.529284 0.812529  0.000000 0.000000 1 0 1.000000
0  -33.242271 -113.028954 2.265291  0.531873 -0.529009 0.661257  0.000000 0.000000 1 0 1.000000
0  -35.764481 -110.288452 2.172044  0.503305 -0.174910 0.846221  0.000000 0.000000 1 0 1.000000
  phy
0  -42.592094 -101.097115 10.039177  0.676386 0.736542 0.002870  0.000000 0.000000 1 0 1.000000
0  -42.376736 -101.903168 10.064776  0.886457 -0.437073 -0.152188  0.000000 0.000000 1 0 1.000000
0  -41.111229 -102.966522 12.777713  0.865865 -0.161333 -0.473550  0.000000 0.000000 1 0 1.000000
  phy
0  -41.561901 -101.437119 11.638499  0.169888 0.619454 -0.766430  0.000000 0.000000 1 0 1.000000
0  -42.592094 -101.097115 10.039177  0.676386 0.736542 0.002870  0.000000 0.000000 1 0 1.000000
0  -41.111229 -102.966522 12.777713  0.865865 -0.161333 -0.473550  0.000000 0.000000 1 0 1.000000
  phy
0  -42.592094 -101.097115 10.039177  0.676386 0.736542 0.002870  0.000000 0.000000 1 0 1.000000
0  -41.561901 -101.437119 11.638499  0.169888 0.619454 -0.766430  0.000000 0.000000 1 0 1.000000
0  -3.163861 -66.550064 -8.836628  0.173710 0.646716 -0.742687  0.000000 0.000000 1 0 1.000000
  phy
0  -42.592094 -101.097115 10.039177  0.676386 0.736542 0.002870  0.000000 0.000000 1 0 1.000000
0  -42.186493 -102.011597 6.496383  0.863154 0.359376 0.354702  0.000000 0.000000 1 0 1.000000
0  -42.376736 -101.903168 10.064776  0.886457 -0.437073 -0.152188  0.000000 0.000000 1 0 1.000000
  phy
0  -42.186493 -102.011597 6.496383  0.863154 0.359376 0.354702  0.000000 0.000000 1 0 1.000000
0  -42.592094 -101.097115 10.039177  0.676386 0.736542 0.002870  0.000000 0.000000 1 0 1.000000
0  -4.012722 -67.371315 -8.955874  0.568826 0.320486 0.757447  0.000000 0.000000 1 0 1.000000
  phy
0  -42.592094 -101.097115 10.039177  0.676386 0.736542 0.002870  0.000000 0.000000 1 0 1.000000
0  -3.163861 -66.550064 -8.836628  0.173710 0.646716 -0.742687  0.000000 0.000000 1 0 1.000000
0  -4.012722 -67.371315 -8.955874  0.568826 0.320486 0.757447  0.000000 0.000000 1 0 1.000000
  phy
0  -2.975280 -127.988785 10.933625  -0.040218 -0.997276 -0.061831  0.000000 0.000000 1 0 1.000000
0  -3.040349 -127.852875 11.672297  0.009296 -0.856658 -0.515801  0.000000 0.000000 1 0 1.000000
0  -13.137077 -128.095734 10.666043  0.072029 -0.851693 -0.519067  0.000000 0.000000 1 0 1.000000
  phy
0  -37.351917 -113.198586 6.250532  0.658196 -0.750413 -0.060490  0.000000 0.000000 1 0 1.000000
0  -23.648760 -117.904785 23.749601  0.568766 -0.777325 -0.268833  0.000000 0.000000 1 0 1.000000
0  -35.117279 -111.431587 15.646782  0.633890 -0.710576 -0.305393  0.000000 0.000000 1 0 1.000000
  phy
0  -23.886972 -117.345795 24.117241  0.629854 -0.512698 -0.583460  0.000000 0.000000 1 0 1.000000
0  -24.013058 -116.750740 24.220617  0.153255 0.424829 -0.892207  0.000000 0.000000 1 0 1.000000
0  -37.108189 -108.270409 17.119473  0.159411 0.478561 -0.863462  0.000000 0.000000 1 0 1.000000
  phy
0  -0.646674 -70.923676 -10.132900  0.024688 0.125182 0.991827  0.000000 0.000000 1 0 1.000000
0  -0.492075 -72.202782 -10.162571  -0.093943 0.010915 0.995518  0.000000 0.000000 1 0 1.000000
0  -4.168779 -84.146873 -10.621799  -0.083914 -0.034067 0.995890  0.000000 0.000000 1 0 1.000000
  phy
0  2.561249 -70.543854 -9.792936  -0.119308 0.263785 0.957174  0.000000 0.000000 1 0 1.000000
0  -0.646674 -70.923676 -10.132900  0.024688 0.125182 0.991827  0.000000 0.000000 1 0 1.000000
0  -3.163861 -66.550064 -8.836628  0.173710 0.646716 -0.742687  0.000000 0.000000 1 0 1.000000
  phy
0  2.561249 -70.543854 -9.792936  -0.119308 0.263785 0.957174  0.000000 0.000000 1 0 1.000000
0  -3.163861 -66.550064 -8.836628  0.173710 0.646716 -0.742687  0.000000 0.000000 1 0 1.000000
0  3.341167 -66.068047 -8.161149  0.039266 0.814710 -0.578538  0.000000 0.000000 1 0 1.000000
  phy
0  -0.646674 -70.923676 -10.132900  0.024688 0.125182 0.991827  0.000000 0.000000 1 0 1.000000
0  -4.674529 -81.767250 -10.507333  0.043141 0.048400 0.997896  0.000000 0.000000 1 0 1.000000
0  -7.267190 -84.266663 -10.493803  0.446516 0.148744 0.882326  0.000000 0.000000 1 0 1.000000
  phy
0  -4.674529 -81.767250 -10.507333  0.043141 0.048400 0.997896  0.000000 0.000000 1 0 1.000000
0  -0.646674 -70.923676 -10.132900  0.024688 0.125182 0.991827  0.000000 0.000000 1 0 1.000000
0  -4.168779 -84.146873 -10.621799  -0.083914 -0.034067 0.995890  0.000000 0.000000 1 0 1.000000
  phy
0  -7.267190 -84.266663 -10.493803  0.446516 0.148744 0.882326  0.000000 0.000000 1 0 1.000000
0  -4.674529 -81.767250 -10.507333  0.043141 0.048400 0.997896  0.000000 0.000000 1 0 1.000000
0  -4.168779 -84.146873 -10.621799  -0.083914 -0.034067 0.995890  0.000000 0.000000 1 0 1.000000
  phy
0  -1.683743 -71.179054 -10.055907  0.204616 0.127712 0.970475  0.000000 0.000000 1 0 1.000000
0  -0.646674 -70.923676 -10.132900  0.024688 0.125182 0.991827  0.000000 0.000000 1 0 1.000000
0  -7.267190 -84.266663 -10.493803  0.446516 0.148744 0.882326  0.000000 0.000000 1 0 1.000000
  phy
0  -0.646674 -70.923676 -10.132900  0.024688 0.125182 0.991827  0.000000 0.000000 1 0 1.000000
0  -1.683743 -71.179054 -10.055907  0.204616 0.127712 0.970475  0.000000 0.000000 1 0 1.000000
0  -4.012722 -67.371315 -8.955874  0.568826 0.320486 0.757447  0.000000 0.000000 1 0 1.000000
  phy
0  -1.683743 -71.179054 -10.055907  0.204616 0.127712 0.970475  0.000000 0.000000 1 0 1.000000
0  -7.267190 -84.266663 -10.493803  0.446516 0.148744 0.882326  0.000000 0.000000 1 0 1.000000
0  -4.012722 -67.371315 -8.955874  0.568826 0.320486 0.757447  0.000000 0.000000 1 0 1.000000
  phy
0  40.051147 -101.311562 10.206753  -0.686432 0.026941 0.726694  0.000000 0.000000 1 0 1.000000
0  24.645655 -103.647293 -2.862338  -0.631768 0.087971 0.770150  0.000000 0.000000 1 0 1.000000
0  14.947584 -81.627220 -8.139395  -0.602139 0.082452 0.794122  0.000000 0.000000 1 0 1.000000
  phy
0  40.051147 -101.311562 10.206753  -0.686432 0.026941 0.726694  0.000000 0.000000 1 0 1.000000
0  14.947584 -81.627220 -8.139395  -0.602139 0.082452 0.794122  0.000000 0.000000 1 0 1.000000
0  13.563656 -70.281364 -7.862177  -0.663806 0.155119 0.731642  0.000000 0.000000 1 0 1.000000
  phy
0  14.947584 -81.627220 -8.139395  -0.602139 0.082452 0.794122  0.000000 0.000000 1 0 1.000000
0  24.645655 -103.647293 -2.862338  -0.631768 0.087971 0.770150  0.000000 0.000000 1 0 1.000000
0  25.028540 -107.154358 -2.785007  -0.597418 -0.167329 0.784278  0.000000 0.000000 1 0 1.000000
  phy
0  24.645655 -103.647293 -2.862338  -0.631768 0.087971 0.770150  0.000000 0.000000 1 0 1.000000
0  40.051147 -101.311562 10.206753  -0.686432 0.026941 0.726694  0.000000 0.000000 1 0 1.000000
0  25.028540 -107.154358 -2.785007  -0.597418 -0.167329 0.784278  0.000000 0.000000 1 0 1.000000
  phy
0  18.076122 -94.746696 -6.380195  -0.355308 -0.064431 0.932526  0.000000 0.000000 1 0 1.000000
0  14.947584 -81.627220 -8.139395  -0.602139 0.082452 0.794122  0.000000 0.000000 1 0 1.000000
0  25.028540 -107.154358 -2.785007  -0.597418 -0.167329 0.784278  0.000000 0.000000 1 0 1.000000
  phy
0  19.398399 -118.443649 -3.841084  -0.354558 -0.154012 0.922263  0.000000 0.000000 1 0 1.000000
0  18.076122 -94.746696 -6.380195  -0.355308 -0.064431 0.932526  0.000000 0.000000 1 0 1.000000
0  25.028540 -107.154358 -2.785007  -0.597418 -0.167329 0.784278  0.000000 0.000000 1 0 1.000000
  phy
0  42.947540 -91.776680 15.351247  -0.694917 0.197101 0.691551  0.000000 0.000000 1 0 1.000000
0  40.051147 -101.311562 10.206753  -0.686432 0.026941 0.726694  0.000000 0.000000 1 0 1.000000
0  13.563656 -70.281364 -7.862177  -0.663806 0.155119 0.731642  0.000000 0.000000 1 0 1.000000
  phy
0  22.695456 -124.295006 1.351658  -0.469507 -0.472611 0.745790  0.000000 0.000000 1 0 1.000000
0  25.028540 -107.154358 -2.785007  -0.597418 -0.167329 0.784278  0.000000 0.000000 1 0 1.000000
0  40.051147 -101.311562 10.206753  -0.686432 0.026941 0.726694  0.000000 0.000000 1 0 1.000000
  phy
0  22.695456 -124.295006 1.351658  -0.469507 -0.472611 0.745790  0.000000 0.000000 1 0 1.000000
0  19.398399 -118.443649 -3.841084  -0.354558 -0.154012 0.922263  0.000000 0.000000 1 0 1.000000
0  25.028540 -107.154358 -2.785007  -0.597418 -0.167329 0.784278  0.000000 0.000000 1 0 1.000000
  phy
0  40.051147 -101.311562 10.206753  -0.686432 0.026941 0.726694  0.000000 0.000000 1 0 1.000000
0  41.419193 -103.866547 14.565389  -0.789319 -0.575963 -0.212703  0.000000 0.000000 1 0 1.000000
0  38.909096 -105.135162 11.276282  -0.780256 -0.391033 0.488154  0.000000 0.000000 1 0 1.000000
  phy
0  37.772049 -99.559319 25.020433  -0.269513 0.147785 -0.951589  0.000000 0.000000 1 0 1.000000
0  25.127928 -110.834885 29.440596  0.145919 0.453873 -0.879038  0.000000 0.000000 1 0 1.000000
0  25.812986 -110.850899 29.501125  -0.174888 0.121711 -0.977037  0.000000 0.000000 1 0 1.000000
  phy
0  37.772049 -99.559319 25.020433  -0.269513 0.147785 -0.951589  0.000000 0.000000 1 0 1.000000
0  41.691872 -92.756767 22.067741  0.095671 0.494702 -0.863780  0.000000 0.000000 1 0 1.000000
0  25.127928 -110.834885 29.440596  0.145919 0.453873 -0.879038  0.000000 0.000000 1 0 1.000000
  phy
0  -37.108189 -108.270409 17.119473  0.159411 0.478561 -0.863462  0.000000 0.000000 1 0 1.000000
0  25.127928 -110.834885 29.440596  0.145919 0.453873 -0.879038  0.000000 0.000000 1 0 1.000000
0  41.691872 -92.756767 22.067741  0.095671 0.494702 -0.863780  0.000000 0.000000 1 0 1.000000
  phy
0  -37.108189 -108.270409 17.119473  0.159411 0.478561 -0.863462  0.000000 0.000000 1 0 1.000000
0  -24.013058 -116.750740 24.220617  0.153255 0.424829 -0.892207  0.000000 0.000000 1 0 1.000000
0  25.127928 -110.834885 29.440596  0.145919 0.453873 -0.879038  0.000000 0.000000 1 0 1.000000
  phy
0  41.691872 -92.756767 22.067741  0.095671 0.494702 -0.863780  0.000000 0.000000 1 0 1.000000
0  42.077435 -91.182068 20.966690  0.138774 0.644612 -0.751809  0.000000 0.000000 1 0 1.000000
0  -41.561901 -101.437119 11.638499  0.169888 0.619454 -0.766430  0.000000 0.000000 1 0 1.000000
  phy
0  41.691872 -92.756767 22.067741  0.095671 0.494702 -0.863780  0.000000 0.000000 1 0 1.000000
0  43.222630 -90.719658 19.480276  -0.596570 0.799260 -0.072716  0.000000 0.000000 1 0 1.000000
0  42.077435 -91.182068 20.966690  0.138774 0.644612 -0.751809  0.000000 0.000000 1 0 1.000000
  phy
0  -34.013100 -113.772743 3.550683  0.552176 -0.549266 0.627222  0.000000 0.000000 1 0 1.000000
0  -37.351917 -113.198586 6.250532  0.658196 -0.750413 -0.060490  0.000000 0.000000 1 0 1.000000
0  -35.764481 -110.288452 2.172044  0.503305 -0.174910 0.846221  0.000000 0.000000 1 0 1.000000
  phy
0  -41.765839 -102.074043 5.964251  0.595826 0.242157 0.765736  0.000000 0.000000 1 0 1.000000
0  -42.186493 -102.011597 6.496383  0.863154 0.359376 0.354702  0.000000 0.000000 1 0 1.000000
0  -4.012722 -67.371315 -8.955874  0.568826 0.320486 0.757447  0.000000 0.000000 1 0 1.000000
  phy
0  -42.376736 -101.903168 10.064776  0.886457 -0.437073 -0.152188  0.000000 0.000000 1 0 1.000000
0  -42.186493 -102.011597 6.496383  0.863154 0.359376 0.354702  0.000000 0.000000 1 0 1.000000
0  -37.351917 -113.198586 6.250532  0.658196 -0.750413 -0.060490  0.000000 0.000000 1 0 1.000000
  phy
0  -37.351917 -113.198586 6.250532  0.658196 -0.750413 -0.060490  0.000000 0.000000 1 0 1.000000
0  -42.186493 -102.011597 6.496383  0.863154 0.359376 0.354702  0.000000 0.000000 1 0 1.000000
0  -35.764481 -110.288452 2.172044  0.503305 -0.174910 0.846221  0.000000 0.000000 1 0 1.000000
  phy
0  -42.186493 -102.011597 6.496383  0.863154 0.359376 0.354702  0.000000 0.000000 1 0 1.000000
0  -41.765839 -102.074043 5.964251  0.595826 0.242157 0.765736  0.000000 0.000000 1 0 1.000000
0  -35.764481 -110.288452 2.172044  0.503305 -0.174910 0.846221  0.000000 0.000000 1 0 1.000000
  phy
0  -9.271146 -121.838127 -6.879147  0.110967 -0.209223 0.971551  0.000000 0.000000 1 0 1.000000
0  -17.446409 -112.183846 -7.286427  0.371956 -0.315643 0.872937  0.000000 0.000000 1 0 1.000000
0  -12.959138 -98.421333 -9.669293  0.403361 0.033903 0.914413  0.000000 0.000000 1 0 1.000000
  phy
0  -17.446409 -112.183846 -7.286427  0.371956 -0.315643 0.872937  0.000000 0.000000 1 0 1.000000
0  -9.271146 -121.838127 -6.879147  0.110967 -0.209223 0.971551  0.000000 0.000000 1 0 1.000000
0  -12.124100 -128.417435 -2.338868  0.244246 -0.529284 0.812529  0.000000 0.000000 1 0 1.000000
  phy
0  -12.124100 -128.417435 -2.338868  0.244246 -0.529284 0.812529  0.000000 0.000000 1 0 1.000000
0  -9.271146 -121.838127 -6.879147  0.110967 -0.209223 0.971551  0.000000 0.000000 1 0 1.000000
0  -6.073494 -121.704315 -6.653642  -0.140904 -0.457883 0.877775  0.000000 0.000000 1 0 1.000000
  phy
0  -17.645033 -110.566444 -7.324457  0.459138 -0.004076 0.888355  0.000000 0.000000 1 0 1.000000
0  -17.446409 -112.183846 -7.286427  0.371956 -0.315643 0.872937  0.000000 0.000000 1 0 1.000000
0  -35.764481 -110.288452 2.172044  0.503305 -0.174910 0.846221  0.000000 0.000000 1 0 1.000000
  phy
0  -17.446409 -112.183846 -7.286427  0.371956 -0.315643 0.872937  0.000000 0.000000 1 0 1.000000
0  -17.645033 -110.566444 -7.324457  0.459138 -0.004076 0.888355  0.000000 0.000000 1 0 1.000000
0  -12.959138 -98.421333 -9.669293  0.403361 0.033903 0.914413  0.000000 0.000000 1 0 1.000000
  phy
0  -17.645033 -110.566444 -7.324457  0.459138 -0.004076 0.888355  0.000000 0.000000 1 0 1.000000
0  -35.764481 -110.288452 2.172044  0.503305 -0.174910 0.846221  0.000000 0.000000 1 0 1.000000
0  -12.959138 -98.421333 -9.669293  0.403361 0.033903 0.914413  0.000000 0.000000 1 0 1.000000
  phy
0  -12.118827 -128.826263 -1.932650  0.349368 -0.774030 0.528035  0.000000 0.000000 1 0 1.000000
0  -12.159190 -128.984879 -1.373781  0.118515 -0.992046 0.042420  0.000000 0.000000 1 0 1.000000
0  -37.351917 -113.198586 6.250532  0.658196 -0.750413 -0.060490  0.000000 0.000000 1 0 1.000000
  phy
0  -3.163861 -66.550064 -8.836628  0.173710 0.646716 -0.742687  0.000000 0.000000 1 0 1.000000
0  -0.646674 -70.923676 -10.132900  0.024688 0.125182 0.991827  0.000000 0.000000 1 0 1.000000
0  -4.012722 -67.371315 -8.955874  0.568826 0.320486 0.757447  0.000000 0.000000 1 0 1.000000
  phy
0  -7.267190 -84.266663 -10.493803  0.446516 0.148744 0.882326  0.000000 0.000000 1 0 1.000000
0  -10.162484 -93.524178 -10.180246  0.165889 0.009532 0.986098  0.000000 0.000000 1 0 1.000000
0  -12.959138 -98.421333 -9.669293  0.403361 0.033903 0.914413  0.000000 0.000000 1 0 1.000000
  phy
0  -7.267190 -84.266663 -10.493803  0.446516 0.148744 0.882326  0.000000 0.000000 1 0 1.000000
0  -40.283592 -102.056763 5.001590  0.489879 0.137733 0.860842  0.000000 0.000000 1 0 1.000000
0  -4.012722 -67.371315 -8.955874  0.568826 0.320486 0.757447  0.000000 0.000000 1 0 1.000000
  phy
0  -40.283592 -102.056763 5.001590  0.489879 0.137733 0.860842  0.000000 0.000000 1 0 1.000000
0  -7.267190 -84.266663 -10.493803  0.446516 0.148744 0.882326  0.000000 0.000000 1 0 1.000000
0  -12.959138 -98.421333 -9.669293  0.403361 0.033903 0.914413  0.000000 0.000000 1 0 1.000000
  phy
0  12.736732 -67.083977 -6.998285  -0.309491 0.867918 -0.388501  0.000000 0.000000 1 0 1.000000
0  42.077435 -91.182068 20.966690  0.138774 0.644612 -0.751809  0.000000 0.000000 1 0 1.000000
0  43.222630 -90.719658 19.480276  -0.596570 0.799260 -0.072716  0.000000 0.000000 1 0 1.000000
  phy
0  42.077435 -91.182068 20.966690  0.138774 0.644612 -0.751809  0.000000 0.000000 1 0 1.000000
0  12.736732 -67.083977 -6.998285  -0.309491 0.867918 -0.388501  0.000000 0.000000 1 0 1.000000
0  3.341167 -66.068047 -8.161149  0.039266 0.814710 -0.578538  0.000000 0.000000 1 0 1.000000
  phy
0  -41.765839 -102.074043 5.964251  0.595826 0.242157 0.765736  0.000000 0.000000 1 0 1.000000
0  -40.283592 -102.056763 5.001590  0.489879 0.137733 0.860842  0.000000 0.000000 1 0 1.000000
0  -35.764481 -110.288452 2.172044  0.503305 -0.174910 0.846221  0.000000 0.000000 1 0 1.000000
  phy
0  -35.764481 -110.288452 2.172044  0.503305 -0.174910 0.846221  0.000000 0.000000 1 0 1.000000
0  -40.283592 -102.056763 5.001590  0.489879 0.137733 0.860842  0.000000 0.000000 1 0 1.000000
0  -12.959138 -98.421333 -9.669293  0.403361 0.033903 0.914413  0.000000 0.000000 1 0 1.000000
  phy
0  -40.283592 -102.056763 5.001590  0.489879 0.137733 0.860842  0.000000 0.000000 1 0 1.000000
0  -41.765839 -102.074043 5.964251  0.595826 0.242157 0.765736  0.000000 0.000000 1 0 1.000000
0  -4.012722 -67.371315 -8.955874  0.568826 0.320486 0.757447  0.000000 0.000000 1 0 1.000000
  phy
0  -41.561901 -101.437119 11.638499  0.169888 0.619454 -0.766430  0.000000 0.000000 1 0 1.000000
0  42.077435 -91.182068 20.966690  0.138774 0.644612 -0.751809  0.000000 0.000000 1 0 1.000000
0  -3.163861 -66.550064 -8.836628  0.173710 0.646716 -0.742687  0.000000 0.000000 1 0 1.000000
  phy
0  -37.351917 -113.198586 6.250532  0.658196 -0.750413 -0.060490  0.000000 0.000000 1 0 1.000000
0  -12.159190 -128.984879 -1.373781  0.118515 -0.992046 0.042420  0.000000 0.000000 1 0 1.000000
0  -16.681492 -126.977303 8.756104  0.543775 -0.836743 0.064574  0.000000 0.000000 1 0 1.000000
  phy
0  -17.446409 -112.183846 -7.286427  0.371956 -0.315643 0.872937  0.000000 0.000000 1 0 1.000000
0  -12.124100 -128.417435 -2.338868  0.244246 -0.529284 0.812529  0.000000 0.000000 1 0 1.000000
0  -35.764481 -110.288452 2.172044  0.503305 -0.174910 0.846221  0.000000 0.000000 1 0 1.000000
  phy
0  42.077435 -91.182068 20.966690  0.138774 0.644612 -0.751809  0.000000 0.000000 1 0 1.000000
0  3.341167 -66.068047 -8.161149  0.039266 0.814710 -0.578538  0.000000 0.000000 1 0 1.000000
0  -3.163861 -66.550064 -8.836628  0.173710 0.646716 -0.742687  0.000000 0.000000 1 0 1.000000
end
