version 1
nodes
0 "root" -1
1 "steering_wheel" 0
end
skeleton
time 0
0  0.000000 0.000000 0.000000  0.000000 -0.000000 0.000000
1  19.916300 17.934299 33.308498  0.000000 -0.000000 0.000000
end
triangles
blackplastic
0  -40.574581 -42.556526 41.081085  0.298100 0.526768 -0.796023  0.601581 0.302713 1 0 1.000000
0  -38.526581 -43.404350 41.070076  0.176648 0.623441 -0.761654  0.601581 0.302713 1 0 1.000000
0  -38.592648 -43.569511 41.290291  -0.349753 -0.898469 -0.265380  0.601581 0.302713 1 0 1.000000
blackplastic
0  -41.015011 -42.303276 40.970978  0.863829 0.445478 -0.235265  0.601581 0.302713 1 0 1.000000
0  -40.574581 -42.556526 41.081085  0.298100 0.526768 -0.796023  0.601581 0.302713 1 0 1.000000
0  -40.739742 -42.864826 41.312309  -0.365630 -0.880501 -0.301716  0.601581 0.302713 1 0 1.000000
blackplastic
0  -38.592648 -43.569511 41.290291  -0.349753 -0.898469 -0.265380  0.601581 0.302713 1 0 1.000000
0  -40.739742 -42.864826 41.312309  -0.365630 -0.880501 -0.301716  0.601581 0.302713 1 0 1.000000
0  -40.574581 -42.556526 41.081085  0.298100 0.526768 -0.796023  0.601581 0.302713 1 0 1.000000
blackplastic
0  -38.592648 -43.569511 41.290291  -0.349753 -0.898469 -0.265380  0.601581 0.302713 1 0 1.000000
0  -38.647701 -43.635578 41.631622  -0.349021 -0.905853 -0.240030  0.601581 0.302713 1 0 1.000000
0  -40.739742 -42.864826 41.312309  -0.365630 -0.880501 -0.301716  0.601581 0.302713 1 0 1.000000
blackplastic
0  -38.647701 -43.635578 41.631622  -0.349021 -0.905853 -0.240030  0.601581 0.302713 1 0 1.000000
0  -44.098019 -41.466461 42.270245  -0.552880 -0.800147 -0.232571  0.601581 0.302713 1 0 1.000000
0  -40.739742 -42.864826 41.312309  -0.365630 -0.880501 -0.301716  0.601581 0.302713 1 0 1.000000
blackplastic
0  -44.031952 -41.609600 42.402374  -0.398744 -0.753806 0.522283  0.601581 0.302713 1 0 1.000000
0  -44.098019 -41.466461 42.270245  -0.552880 -0.800147 -0.232571  0.601581 0.302713 1 0 1.000000
0  -38.647701 -43.635578 41.631622  -0.349021 -0.905853 -0.240030  0.601581 0.302713 1 0 1.000000
blackplastic
0  -44.098019 -41.466461 42.270245  -0.552880 -0.800147 -0.232571  0.601581 0.302713 1 0 1.000000
0  -44.031952 -41.609600 42.402374  -0.398744 -0.753806 0.522283  0.601581 0.302713 1 0 1.000000
0  -48.183002 -38.746807 42.985943  -0.666169 -0.528651 0.526068  0.601581 0.302713 1 0 1.000000
blackplastic
0  -48.183002 -38.746807 42.985943  -0.666169 -0.528651 0.526068  0.601581 0.302713 1 0 1.000000
0  -48.183002 -38.746807 42.842804  -0.834341 -0.490434 -0.251693  0.601581 0.302713 1 0 1.000000
0  -44.098019 -41.466461 42.270245  -0.552880 -0.800147 -0.232571  0.601581 0.302713 1 0 1.000000
blackplastic
0  -44.098019 -41.466461 42.270245  -0.552880 -0.800147 -0.232571  0.601581 0.302713 1 0 1.000000
0  -48.183002 -38.746807 42.842804  -0.834341 -0.490434 -0.251693  0.601581 0.302713 1 0 1.000000
0  -47.103951 -38.933990 41.081085  -0.601328 -0.509762 -0.615262  0.601581 0.302713 1 0 1.000000
blackplastic
0  -41.532513 -41.664654 40.222248  -0.365962 -0.690665 -0.623742  0.601581 0.302713 1 0 1.000000
0  -44.098019 -41.466461 42.270245  -0.552880 -0.800147 -0.232571  0.601581 0.302713 1 0 1.000000
0  -47.103951 -38.933990 41.081085  -0.601328 -0.509762 -0.615262  0.601581 0.302713 1 0 1.000000
blackplastic
0  -41.290279 -42.512482 41.015022  -0.377791 -0.863576 -0.333931  0.601581 0.302713 1 0 1.000000
0  -44.098019 -41.466461 42.270245  -0.552880 -0.800147 -0.232571  0.601581 0.302713 1 0 1.000000
0  -41.532513 -41.664654 40.222248  -0.365962 -0.690665 -0.623742  0.601581 0.302713 1 0 1.000000
blackplastic
0  -41.015011 -42.303276 40.970978  0.863829 0.445478 -0.235265  0.601581 0.302713 1 0 1.000000
0  -41.290279 -42.512482 41.015022  -0.377791 -0.863576 -0.333931  0.601581 0.302713 1 0 1.000000
0  -41.532513 -41.664654 40.222248  -0.365962 -0.690665 -0.623742  0.601581 0.302713 1 0 1.000000
blackplastic
0  -41.290279 -42.512482 41.015022  -0.377791 -0.863576 -0.333931  0.601581 0.302713 1 0 1.000000
0  -41.015011 -42.303276 40.970978  0.863829 0.445478 -0.235265  0.601581 0.302713 1 0 1.000000
0  -40.739742 -42.864826 41.312309  -0.365630 -0.880501 -0.301716  0.601581 0.302713 1 0 1.000000
blackplastic
0  -40.739742 -42.864826 41.312309  -0.365630 -0.880501 -0.301716  0.601581 0.302713 1 0 1.000000
0  -44.098019 -41.466461 42.270245  -0.552880 -0.800147 -0.232571  0.601581 0.302713 1 0 1.000000
0  -41.290279 -42.512482 41.015022  -0.377791 -0.863576 -0.333931  0.601581 0.302713 1 0 1.000000
blackplastic
0  -38.647701 -43.635578 41.631622  -0.349021 -0.905853 -0.240030  0.601581 0.302713 1 0 1.000000
0  -38.636688 -43.646587 41.774761  0.215392 -0.791897 0.571406  0.601581 0.302713 1 0 1.000000
0  -44.031952 -41.609600 42.402374  -0.398744 -0.753806 0.522283  0.601581 0.302713 1 0 1.000000
blackplastic
0  -41.532513 -41.664654 40.222248  -0.365962 -0.690665 -0.623742  0.601581 0.302713 1 0 1.000000
0  -41.213203 -41.532524 40.277302  0.962865 0.251187 0.098972  0.601581 0.302713 1 0 1.000000
0  -41.015011 -42.303276 40.970978  0.863829 0.445478 -0.235265  0.601581 0.302713 1 0 1.000000
blackplastic
0  -38.031097 -40.134163 41.147148  0.001256 0.023423 -0.999725  0.601581 0.302713 1 0 1.000000
0  -37.954021 -42.622589 41.092094  0.000806 0.022811 -0.999739  0.601581 0.302713 1 0 1.000000
0  -39.429462 -39.682720 41.158161  0.004026 0.024157 -0.999700  0.601581 0.302713 1 0 1.000000
blackplastic
0  -40.387398 -39.847881 40.024055  0.745808 -0.653910 -0.127174  0.601581 0.302713 1 0 1.000000
0  -40.046062 -39.770805 41.092094  0.743755 -0.347150 -0.571240  0.601581 0.302713 1 0 1.000000
0  -41.213203 -41.532524 40.277302  0.817532 -0.260104 -0.513797  0.601581 0.302713 1 0 1.000000
blackplastic
0  -40.046062 -39.770805 41.092094  0.743755 -0.347150 -0.571240  0.601581 0.302713 1 0 1.000000
0  -41.015011 -42.303276 40.970978  0.548166 -0.150828 -0.822657  0.601581 0.302713 1 0 1.000000
0  -41.213203 -41.532524 40.277302  0.817532 -0.260104 -0.513797  0.601581 0.302713 1 0 1.000000
blackplastic
0  -40.574581 -42.556526 41.081085  0.035205 0.017886 -0.999220  0.601581 0.302713 1 0 1.000000
0  -41.015011 -42.303276 40.970978  0.548166 -0.150828 -0.822657  0.601581 0.302713 1 0 1.000000
0  -40.046062 -39.770805 41.092094  0.743755 -0.347150 -0.571240  0.601581 0.302713 1 0 1.000000
blackplastic
0  -40.574581 -42.556526 41.081085  0.035205 0.017886 -0.999220  0.601581 0.302713 1 0 1.000000
0  -40.046062 -39.770805 41.092094  0.743755 -0.347150 -0.571240  0.601581 0.302713 1 0 1.000000
0  -39.429462 -39.682720 41.158161  0.004026 0.024157 -0.999700  0.601581 0.302713 1 0 1.000000
blackplastic
0  -39.429462 -39.682720 41.158161  0.004026 0.024157 -0.999700  0.601581 0.302713 1 0 1.000000
0  -38.526581 -43.404350 41.070076  0.004903 0.024034 -0.999699  0.601581 0.302713 1 0 1.000000
0  -40.574581 -42.556526 41.081085  0.035205 0.017886 -0.999220  0.601581 0.302713 1 0 1.000000
blackplastic
0  -39.429462 -39.682720 41.158161  0.004026 0.024157 -0.999700  0.601581 0.302713 1 0 1.000000
0  -37.954021 -42.622589 41.092094  0.000806 0.022811 -0.999739  0.601581 0.302713 1 0 1.000000
0  -38.526581 -43.404350 41.070076  0.004903 0.024034 -0.999699  0.601581 0.302713 1 0 1.000000
blackplastic
0  -37.954021 -42.622589 41.092094  0.000806 0.022811 -0.999739  0.601581 0.302713 1 0 1.000000
0  -38.086151 -43.018974 41.081085  0.000530 0.023293 -0.999729  0.601581 0.302713 1 0 1.000000
0  -38.526581 -43.404350 41.070076  0.004903 0.024034 -0.999699  0.601581 0.302713 1 0 1.000000
blackplastic
0  -47.863689 -36.566681 41.774761  -0.940321 0.022363 -0.339554  0.601581 0.302713 1 0 1.000000
0  -46.806660 -36.852959 40.783794  -0.358060 0.011186 -0.933631  0.601581 0.302713 1 0 1.000000
0  -47.103951 -38.933990 41.081085  -0.583537 -0.234569 -0.777471  0.601581 0.302713 1 0 1.000000
blackplastic
0  -46.806660 -36.852959 40.783794  -0.358060 0.011186 -0.933631  0.601581 0.302713 1 0 1.000000
0  -42.259224 -38.196270 40.101128  -0.091037 0.020181 -0.995643  0.601581 0.302713 1 0 1.000000
0  -47.103951 -38.933990 41.081085  -0.583537 -0.234569 -0.777471  0.601581 0.302713 1 0 1.000000
blackplastic
0  -42.259224 -38.196270 40.101128  -0.091037 0.020181 -0.995643  0.601581 0.302713 1 0 1.000000
0  -41.532513 -41.664654 40.222248  -0.132671 -0.032074 -0.990641  0.601581 0.302713 1 0 1.000000
0  -47.103951 -38.933990 41.081085  -0.583537 -0.234569 -0.777471  0.601581 0.302713 1 0 1.000000
blackplastic
0  -40.629635 -39.550591 39.880913  -0.128150 -0.004514 -0.991745  0.601581 0.302713 1 0 1.000000
0  -41.532513 -41.664654 40.222248  -0.132671 -0.032074 -0.990641  0.601581 0.302713 1 0 1.000000
0  -42.259224 -38.196270 40.101128  -0.091037 0.020181 -0.995643  0.601581 0.302713 1 0 1.000000
blackplastic
0  -41.532513 -41.664654 40.222248  -0.132671 -0.032074 -0.990641  0.601581 0.302713 1 0 1.000000
0  -40.629635 -39.550591 39.880913  -0.128150 -0.004514 -0.991745  0.601581 0.302713 1 0 1.000000
0  -41.213203 -41.532524 40.277302  0.980941 -0.108081 0.161474  0.601581 0.302713 1 0 1.000000
blackplastic
0  -40.629635 -39.550591 39.880913  -0.128150 -0.004514 -0.991745  0.601581 0.302713 1 0 1.000000
0  -40.387398 -39.847881 40.024055  0.890646 -0.407038 -0.202658  0.601581 0.302713 1 0 1.000000
0  -41.213203 -41.532524 40.277302  0.980941 -0.108081 0.161474  0.601581 0.302713 1 0 1.000000
blackplastic
0  -40.387398 -39.847881 40.024055  0.890646 -0.407038 -0.202658  0.601581 0.302713 1 0 1.000000
0  -40.629635 -39.550591 39.880913  -0.128150 -0.004514 -0.991745  0.601581 0.302713 1 0 1.000000
0  -40.145161 -38.823883 40.530548  0.645021 0.179223 -0.742851  0.601581 0.302713 1 0 1.000000
blackplastic
0  -40.387398 -39.847881 40.024055  0.890646 -0.407038 -0.202658  0.601581 0.302713 1 0 1.000000
0  -40.145161 -38.823883 40.530548  0.645021 0.179223 -0.742851  0.601581 0.302713 1 0 1.000000
0  -40.046062 -39.770805 41.092094  0.616366 -0.327701 -0.716034  0.601581 0.302713 1 0 1.000000
blackplastic
0  -40.145161 -38.823883 40.530548  0.645021 0.179223 -0.742851  0.601581 0.302713 1 0 1.000000
0  -39.748775 -39.110161 41.048054  0.616103 -0.327691 -0.716265  0.601581 0.302713 1 0 1.000000
0  -40.046062 -39.770805 41.092094  0.616366 -0.327701 -0.716034  0.601581 0.302713 1 0 1.000000
blackplastic
0  -40.046062 -39.770805 41.092094  0.616366 -0.327701 -0.716034  0.601581 0.302713 1 0 1.000000
0  -39.748775 -39.110161 41.048054  0.616103 -0.327691 -0.716265  0.601581 0.302713 1 0 1.000000
0  -39.429462 -39.682720 41.158161  0.004070 0.024211 -0.999699  0.601581 0.302713 1 0 1.000000
blackplastic
0  -38.978024 -39.506550 41.433430  0.468688 0.883339 -0.006596  0.601581 0.302713 1 0 1.000000
0  -39.429462 -39.682720 41.158161  0.004070 0.024211 -0.999699  0.601581 0.302713 1 0 1.000000
0  -39.748775 -39.110161 41.048054  0.616103 -0.327691 -0.716265  0.601581 0.302713 1 0 1.000000
blackplastic
0  -38.031097 -40.134163 41.147148  0.144003 -0.126171 -0.981501  0.601581 0.302713 1 0 1.000000
0  -39.429462 -39.682720 41.158161  0.004070 0.024211 -0.999699  0.601581 0.302713 1 0 1.000000
0  -38.978024 -39.506550 41.433430  0.468688 0.883339 -0.006596  0.601581 0.302713 1 0 1.000000
blackplastic
0  -38.053120 -40.090118 41.400398  0.471547 0.881817 -0.006491  0.601581 0.302713 1 0 1.000000
0  -38.031097 -40.134163 41.147148  0.144003 -0.126171 -0.981501  0.601581 0.302713 1 0 1.000000
0  -38.978024 -39.506550 41.433430  0.468688 0.883339 -0.006596  0.601581 0.302713 1 0 1.000000
blackplastic
0  -38.053120 -40.090118 41.400398  0.471547 0.881817 -0.006491  0.601581 0.302713 1 0 1.000000
0  -38.978024 -39.506550 41.433430  0.468688 0.883339 -0.006596  0.601581 0.302713 1 0 1.000000
0  -38.163227 -40.057087 45.364265  0.532443 0.846466 0.000286  0.601581 0.302713 1 0 1.000000
blackplastic
0  -38.163227 -40.057087 45.364265  0.532443 0.846466 0.000286  0.601581 0.302713 1 0 1.000000
0  -38.978024 -39.506550 41.433430  0.468688 0.883339 -0.006596  0.601581 0.302713 1 0 1.000000
0  -39.671700 -38.900959 41.092094  0.724213 0.106645 -0.681280  0.601581 0.302713 1 0 1.000000
blackplastic
0  -39.671700 -38.900959 41.092094  0.724213 0.106645 -0.681280  0.601581 0.302713 1 0 1.000000
0  -38.251312 -39.770805 46.333210  0.931339 0.348309 -0.106245  0.601581 0.302713 1 0 1.000000
0  -38.163227 -40.057087 45.364265  0.532443 0.846466 0.000286  0.601581 0.302713 1 0 1.000000
blackplastic
0  -38.383442 -39.132183 46.696564  0.989415 0.080011 0.121060  0.601581 0.302713 1 0 1.000000
0  -38.251312 -39.770805 46.333210  0.931339 0.348309 -0.106245  0.601581 0.302713 1 0 1.000000
0  -39.671700 -38.900959 41.092094  0.724213 0.106645 -0.681280  0.601581 0.302713 1 0 1.000000
blackplastic
0  -39.671700 -38.900959 41.092094  0.724213 0.106645 -0.681280  0.601581 0.302713 1 0 1.000000
0  -39.869892 -38.504570 41.015022  0.668156 0.142800 -0.730189  0.601581 0.302713 1 0 1.000000
0  -38.383442 -39.132183 46.696564  0.989415 0.080011 0.121060  0.601581 0.302713 1 0 1.000000
blackplastic
0  -39.748775 -39.110161 41.048054  0.616103 -0.327691 -0.716265  0.601581 0.302713 1 0 1.000000
0  -39.671700 -38.900959 41.092094  0.724213 0.106645 -0.681280  0.601581 0.302713 1 0 1.000000
0  -38.978024 -39.506550 41.433430  0.468688 0.883339 -0.006596  0.601581 0.302713 1 0 1.000000
blackplastic
0  -42.259224 -38.196270 40.101128  -0.091037 0.020181 -0.995643  0.601581 0.302713 1 0 1.000000
0  -40.959957 -38.603668 40.200226  0.373505 0.178888 -0.910216  0.601581 0.302713 1 0 1.000000
0  -40.629635 -39.550591 39.880913  -0.128150 -0.004514 -0.991745  0.601581 0.302713 1 0 1.000000
blackplastic
0  -40.959957 -38.603668 40.200226  0.373505 0.178888 -0.910216  0.601581 0.302713 1 0 1.000000
0  -40.145161 -38.823883 40.530548  0.645021 0.179223 -0.742851  0.601581 0.302713 1 0 1.000000
0  -40.629635 -39.550591 39.880913  -0.128150 -0.004514 -0.991745  0.601581 0.302713 1 0 1.000000
blackplastic
0  -39.671700 -38.900959 41.092094  0.724213 0.106645 -0.681280  0.601581 0.302713 1 0 1.000000
0  -39.748775 -39.110161 41.048054  0.616103 -0.327691 -0.716265  0.601581 0.302713 1 0 1.000000
0  -40.145161 -38.823883 40.530548  0.645021 0.179223 -0.742851  0.601581 0.302713 1 0 1.000000
blackplastic
0  -40.145161 -38.823883 40.530548  0.645021 0.179223 -0.742851  0.601581 0.302713 1 0 1.000000
0  -40.145161 -38.713776 40.574593  0.551619 0.687053 -0.472943  0.601581 0.302713 1 0 1.000000
0  -39.671700 -38.900959 41.092094  0.724213 0.106645 -0.681280  0.601581 0.302713 1 0 1.000000
blackplastic
0  -40.145161 -38.713776 40.574593  0.551619 0.687053 -0.472943  0.601581 0.302713 1 0 1.000000
0  -40.145161 -38.823883 40.530548  0.645021 0.179223 -0.742851  0.601581 0.302713 1 0 1.000000
0  -40.959957 -38.603668 40.200226  0.373505 0.178888 -0.910216  0.601581 0.302713 1 0 1.000000
blackplastic
0  -40.959957 -38.603668 40.200226  0.373505 0.178888 -0.910216  0.601581 0.302713 1 0 1.000000
0  -40.926922 -38.438507 40.266289  0.291297 0.721545 -0.628107  0.601581 0.302713 1 0 1.000000
0  -40.145161 -38.713776 40.574593  0.551619 0.687053 -0.472943  0.601581 0.302713 1 0 1.000000
blackplastic
0  -40.926922 -38.438507 40.266289  0.291297 0.721545 -0.628107  0.601581 0.302713 1 0 1.000000
0  -40.959957 -38.603668 40.200226  0.373505 0.178888 -0.910216  0.601581 0.302713 1 0 1.000000
0  -42.259224 -38.196270 40.101128  -0.091037 0.020181 -0.995643  0.601581 0.302713 1 0 1.000000
blackplastic
0  -42.259224 -38.196270 40.101128  -0.091037 0.020181 -0.995643  0.601581 0.302713 1 0 1.000000
0  -42.226192 -38.042122 40.156181  0.199368 0.761138 -0.617188  0.601581 0.302713 1 0 1.000000
0  -40.926922 -38.438507 40.266289  0.291297 0.721545 -0.628107  0.601581 0.302713 1 0 1.000000
blackplastic
0  -42.226192 -38.042122 40.156181  0.199368 0.761138 -0.617188  0.601581 0.302713 1 0 1.000000
0  -42.259224 -38.196270 40.101128  -0.091037 0.020181 -0.995643  0.601581 0.302713 1 0 1.000000
0  -46.806660 -36.852959 40.783794  -0.358060 0.011186 -0.933631  0.601581 0.302713 1 0 1.000000
blackplastic
0  -46.806660 -36.852959 40.783794  -0.358060 0.011186 -0.933631  0.601581 0.302713 1 0 1.000000
0  -46.751606 -36.687798 40.816826  0.018619 0.811087 -0.584630  0.601581 0.302713 1 0 1.000000
0  -42.226192 -38.042122 40.156181  0.199368 0.761138 -0.617188  0.601581 0.302713 1 0 1.000000
blackplastic
0  -46.751606 -36.687798 40.816826  0.018619 0.811087 -0.584630  0.601581 0.302713 1 0 1.000000
0  -46.806660 -36.852959 40.783794  -0.358060 0.011186 -0.933631  0.601581 0.302713 1 0 1.000000
0  -47.863689 -36.566681 41.774761  -0.940321 0.022363 -0.339554  0.601581 0.302713 1 0 1.000000
blackplastic
0  -47.863689 -36.566681 41.774761  -0.940321 0.022363 -0.339554  0.601581 0.302713 1 0 1.000000
0  -47.797626 -36.401520 41.796783  -0.472752 0.859486 -0.194394  0.601581 0.302713 1 0 1.000000
0  -46.751606 -36.687798 40.816826  0.018619 0.811087 -0.584630  0.601581 0.302713 1 0 1.000000
blackplastic
0  -47.797626 -36.401520 41.796783  -0.472752 0.859486 -0.194394  0.601581 0.302713 1 0 1.000000
0  -47.863689 -36.566681 41.774761  -0.940321 0.022363 -0.339554  0.601581 0.302713 1 0 1.000000
0  -48.315132 -36.280399 42.996956  -0.464179 0.881483 -0.086748  0.601581 0.302713 1 0 1.000000
blackplastic
0  -47.863689 -36.566681 41.774761  -0.940321 0.022363 -0.339554  0.601581 0.302713 1 0 1.000000
0  -48.392208 -36.445560 43.029987  -0.975212 0.116196 -0.188307  0.601581 0.302713 1 0 1.000000
0  -48.315132 -36.280399 42.996956  -0.464179 0.881483 -0.086748  0.601581 0.302713 1 0 1.000000
blackplastic
0  -48.304119 -36.291412 43.184135  -0.406231 0.913271 0.030206  0.601581 0.302713 1 0 1.000000
0  -48.315132 -36.280399 42.996956  -0.464179 0.881483 -0.086748  0.601581 0.302713 1 0 1.000000
0  -48.392208 -36.445560 43.029987  -0.975212 0.116196 -0.188307  0.601581 0.302713 1 0 1.000000
blackplastic
0  -48.392208 -36.445560 43.029987  -0.975212 0.116196 -0.188307  0.601581 0.302713 1 0 1.000000
0  -48.392208 -36.445560 43.184135  -0.926297 0.107791 0.361048  0.601581 0.302713 1 0 1.000000
0  -48.304119 -36.291412 43.184135  -0.406231 0.913271 0.030206  0.601581 0.302713 1 0 1.000000
blackplastic
0  -48.392208 -36.445560 43.184135  -0.926297 0.107791 0.361048  0.601581 0.302713 1 0 1.000000
0  -48.392208 -36.445560 43.029987  -0.975212 0.116196 -0.188307  0.601581 0.302713 1 0 1.000000
0  -48.183002 -38.746807 42.985943  -0.797153 -0.335205 0.502180  0.601581 0.302713 1 0 1.000000
blackplastic
0  -48.392208 -36.445560 43.029987  -0.975212 0.116196 -0.188307  0.601581 0.302713 1 0 1.000000
0  -48.183002 -38.746807 42.842804  -0.919695 -0.236113 -0.313706  0.601581 0.302713 1 0 1.000000
0  -48.183002 -38.746807 42.985943  -0.797153 -0.335205 0.502180  0.601581 0.302713 1 0 1.000000
blackplastic
0  -48.392208 -36.445560 43.029987  -0.975212 0.116196 -0.188307  0.601581 0.302713 1 0 1.000000
0  -47.863689 -36.566681 41.774761  -0.940321 0.022363 -0.339554  0.601581 0.302713 1 0 1.000000
0  -48.183002 -38.746807 42.842804  -0.919695 -0.236113 -0.313706  0.601581 0.302713 1 0 1.000000
blackplastic
0  -47.103951 -38.933990 41.081085  -0.583537 -0.234569 -0.777471  0.601581 0.302713 1 0 1.000000
0  -48.183002 -38.746807 42.842804  -0.919695 -0.236113 -0.313706  0.601581 0.302713 1 0 1.000000
0  -47.863689 -36.566681 41.774761  -0.940321 0.022363 -0.339554  0.601581 0.302713 1 0 1.000000
blackplastic
0  -39.671700 -38.900959 41.092094  0.724213 0.106645 -0.681280  0.601581 0.302713 1 0 1.000000
0  -40.145161 -38.713776 40.574593  0.569509 0.144244 -0.809230  0.601581 0.302713 1 0 1.000000
0  -39.869892 -38.504570 41.015022  0.668156 0.142800 -0.730189  0.601581 0.302713 1 0 1.000000
blackplastic
0  -40.882881 -38.196270 40.376396  0.158025 0.148735 -0.976169  0.601581 0.302713 1 0 1.000000
0  -39.869892 -38.504570 41.015022  0.668156 0.142800 -0.730189  0.601581 0.302713 1 0 1.000000
0  -40.145161 -38.713776 40.574593  0.569509 0.144244 -0.809230  0.601581 0.302713 1 0 1.000000
blackplastic
0  -40.145161 -38.713776 40.574593  0.569509 0.144244 -0.809230  0.601581 0.302713 1 0 1.000000
0  -40.926922 -38.438507 40.266289  0.165930 0.148445 -0.974901  0.601581 0.302713 1 0 1.000000
0  -40.882881 -38.196270 40.376396  0.158025 0.148735 -0.976169  0.601581 0.302713 1 0 1.000000
blackplastic
0  -40.926922 -38.438507 40.266289  0.165930 0.148445 -0.974901  0.601581 0.302713 1 0 1.000000
0  -42.226192 -38.042122 40.156181  0.003012 0.157691 -0.987484  0.601581 0.302713 1 0 1.000000
0  -40.882881 -38.196270 40.376396  0.158025 0.148735 -0.976169  0.601581 0.302713 1 0 1.000000
blackplastic
0  -42.226192 -38.042122 40.156181  0.003012 0.157691 -0.987484  0.601581 0.302713 1 0 1.000000
0  -42.171139 -37.788872 40.266289  -0.005059 0.158404 -0.987361  0.601581 0.302713 1 0 1.000000
0  -40.882881 -38.196270 40.376396  0.158025 0.148735 -0.976169  0.601581 0.302713 1 0 1.000000
blackplastic
0  -42.226192 -38.042122 40.156181  0.003012 0.157691 -0.987484  0.601581 0.302713 1 0 1.000000
0  -46.751606 -36.687798 40.816826  -0.261702 0.224100 -0.938771  0.601581 0.302713 1 0 1.000000
0  -42.171139 -37.788872 40.266289  -0.005059 0.158404 -0.987361  0.601581 0.302713 1 0 1.000000
blackplastic
0  -46.751606 -36.687798 40.816826  -0.261702 0.224100 -0.938771  0.601581 0.302713 1 0 1.000000
0  -46.641499 -36.445560 40.915924  -0.260714 0.223755 -0.939128  0.601581 0.302713 1 0 1.000000
0  -42.171139 -37.788872 40.266289  -0.005059 0.158404 -0.987361  0.601581 0.302713 1 0 1.000000
blackplastic
0  -46.641499 -36.445560 40.915924  -0.260714 0.223755 -0.939128  0.601581 0.302713 1 0 1.000000
0  -46.751606 -36.687798 40.816826  -0.261702 0.224100 -0.938771  0.601581 0.302713 1 0 1.000000
0  -47.797626 -36.401520 41.796783  -0.883598 0.376101 -0.278933  0.601581 0.302713 1 0 1.000000
blackplastic
0  -47.797626 -36.401520 41.796783  -0.883598 0.376101 -0.278933  0.601581 0.302713 1 0 1.000000
0  -47.654488 -36.170292 41.840828  -0.795578 0.365250 -0.483372  0.601581 0.302713 1 0 1.000000
0  -46.641499 -36.445560 40.915924  -0.260714 0.223755 -0.939128  0.601581 0.302713 1 0 1.000000
blackplastic
0  -47.654488 -36.170292 41.840828  -0.795578 0.365250 -0.483372  0.601581 0.302713 1 0 1.000000
0  -47.797626 -36.401520 41.796783  -0.883598 0.376101 -0.278933  0.601581 0.302713 1 0 1.000000
0  -48.315132 -36.280399 42.996956  -0.906325 0.419437 -0.051460  0.601581 0.302713 1 0 1.000000
blackplastic
0  -48.315132 -36.280399 42.996956  -0.906325 0.419437 -0.051460  0.601581 0.302713 1 0 1.000000
0  -48.127949 -36.060184 43.107063  -0.907049 0.343100 0.244016  0.601581 0.302713 1 0 1.000000
0  -47.654488 -36.170292 41.840828  -0.795578 0.365250 -0.483372  0.601581 0.302713 1 0 1.000000
blackplastic
0  -48.304119 -36.291412 43.184135  -0.907851 0.366608 0.203483  0.601581 0.302713 1 0 1.000000
0  -48.127949 -36.060184 43.107063  -0.907049 0.343100 0.244016  0.601581 0.302713 1 0 1.000000
0  -48.315132 -36.280399 42.996956  -0.906325 0.419437 -0.051460  0.601581 0.302713 1 0 1.000000
blackplastic
0  -47.533367 -36.313435 45.463360  -0.891964 0.343916 0.293467  0.601581 0.302713 1 0 1.000000
0  -48.127949 -36.060184 43.107063  -0.907049 0.343100 0.244016  0.601581 0.302713 1 0 1.000000
0  -48.304119 -36.291412 43.184135  -0.907851 0.366608 0.203483  0.601581 0.302713 1 0 1.000000
blackplastic
0  -47.687519 -36.544659 45.485382  -0.863089 0.355959 0.358289  0.601581 0.302713 1 0 1.000000
0  -47.533367 -36.313435 45.463360  -0.891964 0.343916 0.293467  0.601581 0.302713 1 0 1.000000
0  -48.304119 -36.291412 43.184135  -0.907851 0.366608 0.203483  0.601581 0.302713 1 0 1.000000
blackplastic
0  -47.533367 -36.313435 45.463360  -0.891964 0.343916 0.293467  0.601581 0.302713 1 0 1.000000
0  -47.687519 -36.544659 45.485382  -0.863089 0.355959 0.358289  0.601581 0.302713 1 0 1.000000
0  -47.004852 -36.522636 46.883747  -0.818925 0.345686 0.458107  0.601581 0.302713 1 0 1.000000
blackplastic
0  -47.687519 -36.544659 45.485382  -0.863089 0.355959 0.358289  0.601581 0.302713 1 0 1.000000
0  -47.159004 -36.753864 46.916779  -0.818657 0.345554 0.458687  0.601581 0.302713 1 0 1.000000
0  -47.004852 -36.522636 46.883747  -0.818925 0.345686 0.458107  0.601581 0.302713 1 0 1.000000
blackplastic
0  -46.135006 -36.830936 47.797638  -0.700697 0.302856 0.645990  0.601581 0.302713 1 0 1.000000
0  -47.004852 -36.522636 46.883747  -0.818925 0.345686 0.458107  0.601581 0.302713 1 0 1.000000
0  -47.159004 -36.753864 46.916779  -0.818657 0.345554 0.458687  0.601581 0.302713 1 0 1.000000
blackplastic
0  -46.245113 -37.073174 47.874714  -0.700564 0.302860 0.646131  0.601581 0.302713 1 0 1.000000
0  -46.135006 -36.830936 47.797638  -0.700697 0.302856 0.645990  0.601581 0.302713 1 0 1.000000
0  -47.159004 -36.753864 46.916779  -0.818657 0.345554 0.458687  0.601581 0.302713 1 0 1.000000
blackplastic
0  -46.135006 -36.830936 47.797638  -0.700697 0.302856 0.645990  0.601581 0.302713 1 0 1.000000
0  -46.245113 -37.073174 47.874714  -0.700564 0.302860 0.646131  0.601581 0.302713 1 0 1.000000
0  -44.109028 -37.733818 48.249077  -0.052383 0.095323 0.994067  0.601581 0.302713 1 0 1.000000
blackplastic
0  -44.109028 -37.733818 48.249077  -0.052383 0.095323 0.994067  0.601581 0.302713 1 0 1.000000
0  -44.031952 -37.480572 48.160992  -0.051992 0.095271 0.994093  0.601581 0.302713 1 0 1.000000
0  -46.135006 -36.830936 47.797638  -0.700697 0.302856 0.645990  0.601581 0.302713 1 0 1.000000
blackplastic
0  -39.044086 -39.011066 48.061897  0.172280 0.130493 0.976366  0.601581 0.302713 1 0 1.000000
0  -44.031952 -37.480572 48.160992  -0.051992 0.095271 0.994093  0.601581 0.302713 1 0 1.000000
0  -44.109028 -37.733818 48.249077  -0.052383 0.095323 0.994067  0.601581 0.302713 1 0 1.000000
blackplastic
0  -44.109028 -37.733818 48.249077  -0.052383 0.095323 0.994067  0.601581 0.302713 1 0 1.000000
0  -38.790840 -39.462505 48.094929  0.306983 -0.032685 0.951154  0.601581 0.302713 1 0 1.000000
0  -39.044086 -39.011066 48.061897  0.172280 0.130493 0.976366  0.601581 0.302713 1 0 1.000000
blackplastic
0  -39.044086 -39.011066 48.061897  0.172280 0.130493 0.976366  0.601581 0.302713 1 0 1.000000
0  -38.790840 -39.462505 48.094929  0.306983 -0.032685 0.951154  0.601581 0.302713 1 0 1.000000
0  -38.581635 -39.121174 47.863701  0.604709 0.057400 0.794376  0.601581 0.302713 1 0 1.000000
blackplastic
0  -38.790840 -39.462505 48.094929  0.306983 -0.032685 0.951154  0.601581 0.302713 1 0 1.000000
0  -38.526581 -40.156181 47.896736  0.696406 -0.129430 0.705880  0.601581 0.302713 1 0 1.000000
0  -38.581635 -39.121174 47.863701  0.604709 0.057400 0.794376  0.601581 0.302713 1 0 1.000000
blackplastic
0  -38.240303 -41.554546 47.247101  0.989412 0.047698 0.137070  0.601581 0.302713 1 0 1.000000
0  -38.581635 -39.121174 47.863701  0.604709 0.057400 0.794376  0.601581 0.302713 1 0 1.000000
0  -38.526581 -40.156181 47.896736  0.696406 -0.129430 0.705880  0.601581 0.302713 1 0 1.000000
blackplastic
0  -38.526581 -40.156181 47.896736  0.696406 -0.129430 0.705880  0.601581 0.302713 1 0 1.000000
0  -38.328388 -41.708698 47.390240  0.045929 -0.416809 0.907833  0.601581 0.302713 1 0 1.000000
0  -38.240303 -41.554546 47.247101  0.989412 0.047698 0.137070  0.601581 0.302713 1 0 1.000000
blackplastic
0  -38.240303 -41.554546 47.247101  0.989412 0.047698 0.137070  0.601581 0.302713 1 0 1.000000
0  -38.328388 -41.708698 47.390240  0.045929 -0.416809 0.907833  0.601581 0.302713 1 0 1.000000
0  -38.119183 -42.446419 46.608479  0.954224 -0.210223 0.212748  0.601581 0.302713 1 0 1.000000
blackplastic
0  -38.328388 -41.708698 47.390240  0.045929 -0.416809 0.907833  0.601581 0.302713 1 0 1.000000
0  -38.174236 -42.589558 46.696564  0.101418 -0.662925 0.741785  0.601581 0.302713 1 0 1.000000
0  -38.119183 -42.446419 46.608479  0.954224 -0.210223 0.212748  0.601581 0.302713 1 0 1.000000
blackplastic
0  -38.119183 -42.446419 46.608479  0.954224 -0.210223 0.212748  0.601581 0.302713 1 0 1.000000
0  -38.174236 -42.589558 46.696564  0.101418 -0.662925 0.741785  0.601581 0.302713 1 0 1.000000
0  -38.064129 -42.985943 45.771660  0.342796 -0.912994 0.221207  0.601581 0.302713 1 0 1.000000
blackplastic
0  -38.064129 -42.985943 45.771660  0.342796 -0.912994 0.221207  0.601581 0.302713 1 0 1.000000
0  -38.031097 -42.842804 45.738628  0.968215 -0.222068 0.115086  0.601581 0.302713 1 0 1.000000
0  -38.119183 -42.446419 46.608479  0.954224 -0.210223 0.212748  0.601581 0.302713 1 0 1.000000
blackplastic
0  -38.031097 -42.842804 45.738628  0.968215 -0.222068 0.115086  0.601581 0.302713 1 0 1.000000
0  -38.064129 -42.985943 45.771660  0.342796 -0.912994 0.221207  0.601581 0.302713 1 0 1.000000
0  -37.943012 -43.052010 41.884869  0.386363 -0.922347 0.000779  0.601581 0.302713 1 0 1.000000
blackplastic
0  -37.943012 -43.052010 41.884869  0.386363 -0.922347 0.000779  0.601581 0.302713 1 0 1.000000
0  -37.920990 -42.963921 41.840828  0.966232 -0.257669 0.001347  0.601581 0.302713 1 0 1.000000
0  -38.031097 -42.842804 45.738628  0.968215 -0.222068 0.115086  0.601581 0.302713 1 0 1.000000
blackplastic
0  -37.920990 -42.963921 41.840828  0.966232 -0.257669 0.001347  0.601581 0.302713 1 0 1.000000
0  -37.943012 -43.052010 41.884869  0.386363 -0.922347 0.000779  0.601581 0.302713 1 0 1.000000
0  -38.097164 -43.250202 41.631622  0.746666 -0.664981 -0.017024  0.601581 0.302713 1 0 1.000000
blackplastic
0  -37.898968 -42.842804 41.345345  0.998875 -0.046184 0.010738  0.601581 0.302713 1 0 1.000000
0  -37.920990 -42.963921 41.840828  0.966232 -0.257669 0.001347  0.601581 0.302713 1 0 1.000000
0  -38.097164 -43.250202 41.631622  0.746666 -0.664981 -0.017024  0.601581 0.302713 1 0 1.000000
blackplastic
0  -38.097164 -43.250202 41.631622  0.746666 -0.664981 -0.017024  0.601581 0.302713 1 0 1.000000
0  -38.097164 -43.239189 41.301300  0.744812 -0.666910 -0.022038  0.601581 0.302713 1 0 1.000000
0  -37.898968 -42.842804 41.345345  0.998875 -0.046184 0.010738  0.601581 0.302713 1 0 1.000000
blackplastic
0  -38.097164 -43.239189 41.301300  0.744812 -0.666910 -0.022038  0.601581 0.302713 1 0 1.000000
0  -38.086151 -43.018974 41.081085  -0.302905 0.291441 -0.907365  0.601581 0.302713 1 0 1.000000
0  -37.898968 -42.842804 41.345345  0.998875 -0.046184 0.010738  0.601581 0.302713 1 0 1.000000
blackplastic
0  -37.943012 -43.052010 41.884869  0.386363 -0.922347 0.000779  0.601581 0.302713 1 0 1.000000
0  -38.097164 -43.261211 41.752739  0.544900 -0.546474 0.635964  0.601581 0.302713 1 0 1.000000
0  -38.097164 -43.250202 41.631622  0.746666 -0.664981 -0.017024  0.601581 0.302713 1 0 1.000000
blackplastic
0  -38.086151 -43.018974 41.081085  -0.302905 0.291441 -0.907365  0.601581 0.302713 1 0 1.000000
0  -37.954021 -42.622589 41.092094  0.243048 0.046190 -0.968914  0.601581 0.302713 1 0 1.000000
0  -37.898968 -42.842804 41.345345  0.998875 -0.046184 0.010738  0.601581 0.302713 1 0 1.000000
blackplastic
0  -37.920990 -42.963921 41.840828  0.966232 -0.257669 0.001347  0.601581 0.302713 1 0 1.000000
0  -37.898968 -42.842804 41.345345  0.998875 -0.046184 0.010738  0.601581 0.302713 1 0 1.000000
0  -38.031097 -42.842804 45.738628  0.997370 0.010410 0.071727  0.601581 0.302713 1 0 1.000000
blackplastic
0  -38.526581 -43.404350 41.070076  -0.396969 0.676580 -0.620206  0.601581 0.302713 1 0 1.000000
0  -38.086151 -43.018974 41.081085  -0.302905 0.291441 -0.907365  0.601581 0.302713 1 0 1.000000
0  -38.097164 -43.239189 41.301300  0.744812 -0.666910 -0.022038  0.601581 0.302713 1 0 1.000000
blackplastic
0  -38.592648 -43.569511 41.290291  0.503805 -0.858097 -0.099244  0.601581 0.302713 1 0 1.000000
0  -38.526581 -43.404350 41.070076  -0.396969 0.676580 -0.620206  0.601581 0.302713 1 0 1.000000
0  -38.097164 -43.239189 41.301300  0.744812 -0.666910 -0.022038  0.601581 0.302713 1 0 1.000000
blackplastic
0  -38.592648 -43.569511 41.290291  0.503805 -0.858097 -0.099244  0.601581 0.302713 1 0 1.000000
0  -38.097164 -43.239189 41.301300  0.744812 -0.666910 -0.022038  0.601581 0.302713 1 0 1.000000
0  -38.097164 -43.250202 41.631622  0.746666 -0.664981 -0.017024  0.601581 0.302713 1 0 1.000000
blackplastic
0  -38.647701 -43.635578 41.631622  0.439500 -0.890788 -0.115485  0.601581 0.302713 1 0 1.000000
0  -38.592648 -43.569511 41.290291  0.503805 -0.858097 -0.099244  0.601581 0.302713 1 0 1.000000
0  -38.097164 -43.250202 41.631622  0.746666 -0.664981 -0.017024  0.601581 0.302713 1 0 1.000000
blackplastic
0  -38.097164 -43.250202 41.631622  0.746666 -0.664981 -0.017024  0.601581 0.302713 1 0 1.000000
0  -38.097164 -43.261211 41.752739  0.544900 -0.546474 0.635964  0.601581 0.302713 1 0 1.000000
0  -38.647701 -43.635578 41.631622  0.439500 -0.890788 -0.115485  0.601581 0.302713 1 0 1.000000
blackplastic
0  -38.097164 -43.261211 41.752739  0.544900 -0.546474 0.635964  0.601581 0.302713 1 0 1.000000
0  -38.636688 -43.646587 41.774761  0.396124 -0.686317 0.609963  0.601581 0.302713 1 0 1.000000
0  -38.647701 -43.635578 41.631622  0.439500 -0.890788 -0.115485  0.601581 0.302713 1 0 1.000000
blackplastic
0  -38.383442 -39.132183 46.696564  0.989412 0.079982 0.121109  0.601581 0.302713 1 0 1.000000
0  -38.581635 -39.121174 47.863701  0.604709 0.057400 0.794376  0.601581 0.302713 1 0 1.000000
0  -38.251312 -39.770805 46.333210  0.992559 0.072710 0.097672  0.601581 0.302713 1 0 1.000000
blackplastic
0  -38.581635 -39.121174 47.863701  0.604709 0.057400 0.794376  0.601581 0.302713 1 0 1.000000
0  -38.240303 -41.554546 47.247101  0.989412 0.047698 0.137070  0.601581 0.302713 1 0 1.000000
0  -38.251312 -39.770805 46.333210  0.992559 0.072710 0.097672  0.601581 0.302713 1 0 1.000000
blackplastic
0  -38.119183 -42.446419 46.608479  0.993670 0.032391 0.107570  0.601581 0.302713 1 0 1.000000
0  -38.251312 -39.770805 46.333210  0.992559 0.072710 0.097672  0.601581 0.302713 1 0 1.000000
0  -38.240303 -41.554546 47.247101  0.989412 0.047698 0.137070  0.601581 0.302713 1 0 1.000000
blackplastic
0  -38.163227 -40.057087 45.364265  0.994632 0.073168 0.073167  0.601581 0.302713 1 0 1.000000
0  -38.251312 -39.770805 46.333210  0.992559 0.072710 0.097672  0.601581 0.302713 1 0 1.000000
0  -38.119183 -42.446419 46.608479  0.993670 0.032391 0.107570  0.601581 0.302713 1 0 1.000000
blackplastic
0  -38.031097 -42.842804 45.738628  0.997370 0.010410 0.071727  0.601581 0.302713 1 0 1.000000
0  -38.163227 -40.057087 45.364265  0.994632 0.073168 0.073167  0.601581 0.302713 1 0 1.000000
0  -38.119183 -42.446419 46.608479  0.993670 0.032391 0.107570  0.601581 0.302713 1 0 1.000000
blackplastic
0  -38.163227 -40.057087 45.364265  0.994632 0.073168 0.073167  0.601581 0.302713 1 0 1.000000
0  -38.031097 -42.842804 45.738628  0.997370 0.010410 0.071727  0.601581 0.302713 1 0 1.000000
0  -37.898968 -42.842804 41.345345  0.998875 -0.046184 0.010738  0.601581 0.302713 1 0 1.000000
blackplastic
0  -37.898968 -42.842804 41.345345  0.998875 -0.046184 0.010738  0.601581 0.302713 1 0 1.000000
0  -38.053120 -40.090118 41.400398  0.996074 0.086229 0.020021  0.601581 0.302713 1 0 1.000000
0  -38.163227 -40.057087 45.364265  0.994632 0.073168 0.073167  0.601581 0.302713 1 0 1.000000
blackplastic
0  -37.898968 -42.842804 41.345345  0.998875 -0.046184 0.010738  0.601581 0.302713 1 0 1.000000
0  -37.954021 -42.622589 41.092094  0.243048 0.046190 -0.968914  0.601581 0.302713 1 0 1.000000
0  -38.053120 -40.090118 41.400398  0.996074 0.086229 0.020021  0.601581 0.302713 1 0 1.000000
blackplastic
0  -37.954021 -42.622589 41.092094  0.243048 0.046190 -0.968914  0.601581 0.302713 1 0 1.000000
0  -38.031097 -40.134163 41.147148  0.143927 -0.126175 -0.981512  0.601581 0.302713 1 0 1.000000
0  -38.053120 -40.090118 41.400398  0.996074 0.086229 0.020021  0.601581 0.302713 1 0 1.000000
blackplastic
0  -38.967010 -39.495537 47.269123  -0.478206 0.562591 -0.674396  0.601581 0.302713 1 0 1.000000
0  -39.297333 -39.407452 47.522369  0.045312 0.484638 -0.873540  0.601581 0.302713 1 0 1.000000
0  -38.581635 -39.121174 47.863701  0.674363 0.453585 0.582662  0.601581 0.302713 1 0 1.000000
blackplastic
0  -38.967010 -39.495537 47.269123  -0.478206 0.562591 -0.674396  0.601581 0.302713 1 0 1.000000
0  -38.581635 -39.121174 47.863701  0.674363 0.453585 0.582662  0.601581 0.302713 1 0 1.000000
0  -38.383442 -39.132183 46.696564  0.944406 0.318566 0.081319  0.601581 0.302713 1 0 1.000000
blackplastic
0  -38.856903 -39.506550 46.685555  -0.718528 0.693918 -0.046851  0.601581 0.302713 1 0 1.000000
0  -38.967010 -39.495537 47.269123  -0.478206 0.562591 -0.674396  0.601581 0.302713 1 0 1.000000
0  -38.383442 -39.132183 46.696564  0.944406 0.318566 0.081319  0.601581 0.302713 1 0 1.000000
blackplastic
0  -40.332344 -38.889946 41.312309  -0.612759 0.655506 0.441405  0.601581 0.302713 1 0 1.000000
0  -38.856903 -39.506550 46.685555  -0.718528 0.693918 -0.046851  0.601581 0.302713 1 0 1.000000
0  -38.383442 -39.132183 46.696564  0.944406 0.318566 0.081319  0.601581 0.302713 1 0 1.000000
blackplastic
0  -38.383442 -39.132183 46.696564  0.944406 0.318566 0.081319  0.601581 0.302713 1 0 1.000000
0  -39.869892 -38.504570 41.015022  0.856109 0.355408 -0.375184  0.601581 0.302713 1 0 1.000000
0  -40.332344 -38.889946 41.312309  -0.612759 0.655506 0.441405  0.601581 0.302713 1 0 1.000000
blackplastic
0  -41.114105 -38.625690 40.739754  -0.250422 0.511863 0.821757  0.601581 0.302713 1 0 1.000000
0  -40.332344 -38.889946 41.312309  -0.612759 0.655506 0.441405  0.601581 0.302713 1 0 1.000000
0  -39.869892 -38.504570 41.015022  0.856109 0.355408 -0.375184  0.601581 0.302713 1 0 1.000000
blackplastic
0  -39.869892 -38.504570 41.015022  0.856109 0.355408 -0.375184  0.601581 0.302713 1 0 1.000000
0  -40.882881 -38.196270 40.376396  0.514628 0.486054 -0.706335  0.601581 0.302713 1 0 1.000000
0  -41.114105 -38.625690 40.739754  -0.250422 0.511863 0.821757  0.601581 0.302713 1 0 1.000000
blackplastic
0  -42.270233 -38.273346 40.574593  0.155588 0.425154 0.891648  0.601581 0.302713 1 0 1.000000
0  -41.114105 -38.625690 40.739754  -0.250422 0.511863 0.821757  0.601581 0.302713 1 0 1.000000
0  -40.882881 -38.196270 40.376396  0.514628 0.486054 -0.706335  0.601581 0.302713 1 0 1.000000
blackplastic
0  -40.882881 -38.196270 40.376396  0.514628 0.486054 -0.706335  0.601581 0.302713 1 0 1.000000
0  -42.171139 -37.788872 40.266289  0.150012 0.569407 -0.808252  0.601581 0.302713 1 0 1.000000
0  -42.270233 -38.273346 40.574593  0.155588 0.425154 0.891648  0.601581 0.302713 1 0 1.000000
blackplastic
0  -46.619476 -36.963066 41.224224  0.438586 0.311453 0.842994  0.601581 0.302713 1 0 1.000000
0  -42.270233 -38.273346 40.574593  0.155588 0.425154 0.891648  0.601581 0.302713 1 0 1.000000
0  -42.171139 -37.788872 40.266289  0.150012 0.569407 -0.808252  0.601581 0.302713 1 0 1.000000
blackplastic
0  -42.171139 -37.788872 40.266289  0.150012 0.569407 -0.808252  0.601581 0.302713 1 0 1.000000
0  -46.641499 -36.445560 40.915924  -0.106294 0.671620 -0.733231  0.601581 0.302713 1 0 1.000000
0  -46.619476 -36.963066 41.224224  0.438586 0.311453 0.842994  0.601581 0.302713 1 0 1.000000
blackplastic
0  -46.619476 -36.963066 41.224224  0.438586 0.311453 0.842994  0.601581 0.302713 1 0 1.000000
0  -46.641499 -36.445560 40.915924  -0.106294 0.671620 -0.733231  0.601581 0.302713 1 0 1.000000
0  -47.654488 -36.170292 41.840828  -0.311560 0.733326 -0.604287  0.601581 0.302713 1 0 1.000000
blackplastic
0  -47.423260 -36.742851 42.083061  0.668597 0.238908 0.704202  0.601581 0.302713 1 0 1.000000
0  -46.619476 -36.963066 41.224224  0.438586 0.311453 0.842994  0.601581 0.302713 1 0 1.000000
0  -47.654488 -36.170292 41.840828  -0.311560 0.733326 -0.604287  0.601581 0.302713 1 0 1.000000
blackplastic
0  -47.775604 -36.665775 42.996956  0.983057 0.181474 -0.025813  0.601581 0.302713 1 0 1.000000
0  -47.423260 -36.742851 42.083061  0.668597 0.238908 0.704202  0.601581 0.302713 1 0 1.000000
0  -47.654488 -36.170292 41.840828  -0.311560 0.733326 -0.604287  0.601581 0.302713 1 0 1.000000
blackplastic
0  -47.654488 -36.170292 41.840828  -0.311560 0.733326 -0.604287  0.601581 0.302713 1 0 1.000000
0  -48.127949 -36.060184 43.107063  -0.608586 0.791665 0.053752  0.601581 0.302713 1 0 1.000000
0  -47.775604 -36.665775 42.996956  0.983057 0.181474 -0.025813  0.601581 0.302713 1 0 1.000000
blackplastic
0  -47.203045 -36.919025 45.177082  0.911031 0.285971 -0.297056  0.601581 0.302713 1 0 1.000000
0  -47.775604 -36.665775 42.996956  0.983057 0.181474 -0.025813  0.601581 0.302713 1 0 1.000000
0  -48.127949 -36.060184 43.107063  -0.608586 0.791665 0.053752  0.601581 0.302713 1 0 1.000000
blackplastic
0  -48.127949 -36.060184 43.107063  -0.608586 0.791665 0.053752  0.601581 0.302713 1 0 1.000000
0  -47.533367 -36.313435 45.463360  -0.582319 0.745924 0.323268  0.601581 0.302713 1 0 1.000000
0  -47.203045 -36.919025 45.177082  0.911031 0.285971 -0.297056  0.601581 0.302713 1 0 1.000000
blackplastic
0  -46.531391 -37.161259 46.641510  0.867581 0.259310 -0.424337  0.601581 0.302713 1 0 1.000000
0  -47.203045 -36.919025 45.177082  0.911031 0.285971 -0.297056  0.601581 0.302713 1 0 1.000000
0  -47.533367 -36.313435 45.463360  -0.582319 0.745924 0.323268  0.601581 0.302713 1 0 1.000000
blackplastic
0  -47.533367 -36.313435 45.463360  -0.582319 0.745924 0.323268  0.601581 0.302713 1 0 1.000000
0  -47.004852 -36.522636 46.883747  -0.532558 0.729304 0.429533  0.601581 0.302713 1 0 1.000000
0  -46.531391 -37.161259 46.641510  0.867581 0.259310 -0.424337  0.601581 0.302713 1 0 1.000000
blackplastic
0  -46.531391 -37.161259 46.641510  0.867581 0.259310 -0.424337  0.601581 0.302713 1 0 1.000000
0  -47.004852 -36.522636 46.883747  -0.532558 0.729304 0.429533  0.601581 0.302713 1 0 1.000000
0  -46.135006 -36.830936 47.797638  -0.255273 0.678839 0.688486  0.601581 0.302713 1 0 1.000000
blackplastic
0  -46.013885 -37.348442 47.291145  0.607875 0.298457 -0.735807  0.601581 0.302713 1 0 1.000000
0  -46.531391 -37.161259 46.641510  0.867581 0.259310 -0.424337  0.601581 0.302713 1 0 1.000000
0  -46.135006 -36.830936 47.797638  -0.255273 0.678839 0.688486  0.601581 0.302713 1 0 1.000000
blackplastic
0  -46.013885 -37.348442 47.291145  0.607875 0.298457 -0.735807  0.601581 0.302713 1 0 1.000000
0  -46.135006 -36.830936 47.797638  -0.255273 0.678839 0.688486  0.601581 0.302713 1 0 1.000000
0  -44.031952 -37.480572 48.160992  0.093167 0.521134 0.848374  0.601581 0.302713 1 0 1.000000
blackplastic
0  -44.120037 -37.932014 47.610455  0.215032 0.475968 -0.852769  0.601581 0.302713 1 0 1.000000
0  -46.013885 -37.348442 47.291145  0.607875 0.298457 -0.735807  0.601581 0.302713 1 0 1.000000
0  -44.031952 -37.480572 48.160992  0.093167 0.521134 0.848374  0.601581 0.302713 1 0 1.000000
blackplastic
0  -39.297333 -39.407452 47.522369  0.045312 0.484638 -0.873540  0.601581 0.302713 1 0 1.000000
0  -44.120037 -37.932014 47.610455  0.215032 0.475968 -0.852769  0.601581 0.302713 1 0 1.000000
0  -44.031952 -37.480572 48.160992  0.093167 0.521134 0.848374  0.601581 0.302713 1 0 1.000000
blackplastic
0  -44.031952 -37.480572 48.160992  0.093167 0.521134 0.848374  0.601581 0.302713 1 0 1.000000
0  -39.044086 -39.011066 48.061897  0.251624 0.511036 0.821905  0.601581 0.302713 1 0 1.000000
0  -39.297333 -39.407452 47.522369  0.045312 0.484638 -0.873540  0.601581 0.302713 1 0 1.000000
blackplastic
0  -39.297333 -39.407452 47.522369  0.045312 0.484638 -0.873540  0.601581 0.302713 1 0 1.000000
0  -39.044086 -39.011066 48.061897  0.251624 0.511036 0.821905  0.601581 0.302713 1 0 1.000000
0  -38.581635 -39.121174 47.863701  0.674363 0.453585 0.582662  0.601581 0.302713 1 0 1.000000
skin_0
0  -47.577412 -39.022076 45.111015  -0.678308 -0.714307 0.172234  0.384281 0.339349 1 0 1.000000
0  -48.183002 -38.746807 42.985943  -0.747452 -0.653251 0.120740  0.385274 0.347017 1 0 1.000000
0  -44.031952 -41.609600 42.402374  -0.566333 -0.823283 0.038352  0.374943 0.349123 1 0 1.000000
skin_0
0  -44.031952 -41.609600 42.402374  -0.566333 -0.823283 0.038352  0.374943 0.349123 1 0 1.000000
0  -43.195137 -41.851837 45.276176  -0.505439 -0.840068 0.197022  0.374069 0.338753 1 0 1.000000
0  -47.577412 -39.022076 45.111015  -0.678308 -0.714307 0.172234  0.384281 0.339349 1 0 1.000000
skin_0
0  -43.195137 -41.851837 45.276176  -0.505439 -0.840068 0.197022  0.374069 0.338753 1 0 1.000000
0  -46.949799 -39.242290 46.432304  -0.623249 -0.735131 0.266727  0.383486 0.334581 1 0 1.000000
0  -47.577412 -39.022076 45.111015  -0.678308 -0.714307 0.172234  0.384281 0.339349 1 0 1.000000
skin_0
0  -43.195137 -41.851837 45.276176  -0.505439 -0.840068 0.197022  0.374069 0.338753 1 0 1.000000
0  -46.168037 -39.583626 47.170025  -0.613043 -0.732956 0.294879  0.382254 0.331919 1 0 1.000000
0  -46.949799 -39.242290 46.432304  -0.623249 -0.735131 0.266727  0.383486 0.334581 1 0 1.000000
skin_0
0  -43.195137 -41.851837 45.276176  -0.505439 -0.840068 0.197022  0.374069 0.338753 1 0 1.000000
0  -42.963909 -41.334332 47.236092  -0.369934 -0.897783 0.239027  0.375937 0.331680 1 0 1.000000
0  -46.168037 -39.583626 47.170025  -0.613043 -0.732956 0.294879  0.382254 0.331919 1 0 1.000000
skin_0
0  -39.759785 -42.831795 46.949810  -0.316616 -0.914484 0.251941  0.370533 0.332713 1 0 1.000000
0  -42.963909 -41.334332 47.236092  -0.369934 -0.897783 0.239027  0.375937 0.331680 1 0 1.000000
0  -43.195137 -41.851837 45.276176  -0.505439 -0.840068 0.197022  0.374069 0.338753 1 0 1.000000
skin_0
0  -39.099140 -43.184135 46.597466  -0.303200 -0.918276 0.254637  0.369262 0.333985 1 0 1.000000
0  -39.759785 -42.831795 46.949810  -0.316616 -0.914484 0.251941  0.370533 0.332713 1 0 1.000000
0  -43.195137 -41.851837 45.276176  -0.505439 -0.840068 0.197022  0.374069 0.338753 1 0 1.000000
skin_0
0  -39.099140 -43.184135 46.597466  -0.303200 -0.918276 0.254637  0.369262 0.333985 1 0 1.000000
0  -43.195137 -41.851837 45.276176  -0.505439 -0.840068 0.197022  0.374069 0.338753 1 0 1.000000
0  -38.790840 -43.448395 45.925812  -0.309650 -0.926819 0.212421  0.368308 0.336409 1 0 1.000000
skin_0
0  -38.790840 -43.448395 45.925812  -0.309650 -0.926819 0.212421  0.368308 0.336409 1 0 1.000000
0  -43.195137 -41.851837 45.276176  -0.505439 -0.840068 0.197022  0.374069 0.338753 1 0 1.000000
0  -44.031952 -41.609600 42.402374  -0.566333 -0.823283 0.038352  0.374943 0.349123 1 0 1.000000
skin_0
0  -38.636688 -43.646587 41.774761  -0.346891 -0.936728 -0.046975  0.367593 0.351388 1 0 1.000000
0  -38.790840 -43.448395 45.925812  -0.309650 -0.926819 0.212421  0.368308 0.336409 1 0 1.000000
0  -44.031952 -41.609600 42.402374  -0.566333 -0.823283 0.038352  0.374943 0.349123 1 0 1.000000
skin_0
0  -44.109028 -37.733818 48.249077  0.148585 0.679259 0.718700  0.388929 0.328025 1 0 1.000000
0  -44.153072 -37.898979 48.260090  -0.169585 -0.212057 0.962431  0.388333 0.327985 1 0 1.000000
0  -38.911957 -39.616657 48.116951  0.028233 -0.240364 0.970272  0.382135 0.328502 1 0 1.000000
skin_0
0  -44.153072 -37.898979 48.260090  -0.169585 -0.212057 0.962431  0.388333 0.327985 1 0 1.000000
0  -44.109028 -37.733818 48.249077  0.148585 0.679259 0.718700  0.388929 0.328025 1 0 1.000000
0  -46.300167 -37.238335 47.885723  -0.783597 -0.111232 0.611231  0.390717 0.329336 1 0 1.000000
skin_0
0  -44.153072 -37.898979 48.260090  -0.169585 -0.212057 0.962431  0.388333 0.327985 1 0 1.000000
0  -46.300167 -37.238335 47.885723  -0.783597 -0.111232 0.611231  0.390717 0.329336 1 0 1.000000
0  -46.168037 -39.583626 47.170025  -0.228316 -0.333233 0.914783  0.382254 0.331919 1 0 1.000000
skin_0
0  -46.168037 -39.583626 47.170025  -0.228316 -0.333233 0.914783  0.382254 0.331919 1 0 1.000000
0  -46.300167 -37.238335 47.885723  -0.783597 -0.111232 0.611231  0.390717 0.329336 1 0 1.000000
0  -46.949799 -39.242290 46.432304  -0.873950 -0.294939 0.386294  0.383486 0.334581 1 0 1.000000
skin_0
0  -46.300167 -37.238335 47.885723  -0.783597 -0.111232 0.611231  0.390717 0.329336 1 0 1.000000
0  -47.214058 -36.919025 46.927788  -0.904852 0.000580 0.425727  0.391870 0.332793 1 0 1.000000
0  -46.949799 -39.242290 46.432304  -0.873950 -0.294939 0.386294  0.383486 0.334581 1 0 1.000000
skin_0
0  -47.577412 -39.022076 45.111015  -0.912243 -0.279322 0.299654  0.384281 0.339349 1 0 1.000000
0  -46.949799 -39.242290 46.432304  -0.873950 -0.294939 0.386294  0.383486 0.334581 1 0 1.000000
0  -47.214058 -36.919025 46.927788  -0.904852 0.000580 0.425727  0.391870 0.332793 1 0 1.000000
skin_0
0  -47.753582 -36.698811 45.496391  -0.917447 0.012048 0.397675  0.392664 0.337958 1 0 1.000000
0  -47.577412 -39.022076 45.111015  -0.912243 -0.279322 0.299654  0.384281 0.339349 1 0 1.000000
0  -47.214058 -36.919025 46.927788  -0.904852 0.000580 0.425727  0.391870 0.332793 1 0 1.000000
skin_0
0  -48.183002 -38.746807 42.985943  -0.943694 -0.276960 0.180929  0.385274 0.347017 1 0 1.000000
0  -47.577412 -39.022076 45.111015  -0.912243 -0.279322 0.299654  0.384281 0.339349 1 0 1.000000
0  -47.753582 -36.698811 45.496391  -0.917447 0.012048 0.397675  0.392664 0.337958 1 0 1.000000
skin_0
0  -47.753582 -36.698811 45.496391  -0.917447 0.012048 0.397675  0.392664 0.337958 1 0 1.000000
0  -48.392208 -36.445560 43.184135  -0.973033 0.119349 0.197388  0.393578 0.346302 1 0 1.000000
0  -48.183002 -38.746807 42.985943  -0.943694 -0.276960 0.180929  0.385274 0.347017 1 0 1.000000
skin_0
0  -46.168037 -39.583626 47.170025  -0.228316 -0.333233 0.914783  0.382254 0.331919 1 0 1.000000
0  -42.963909 -41.334332 47.236092  -0.192299 -0.335691 0.922135  0.375937 0.331680 1 0 1.000000
0  -44.153072 -37.898979 48.260090  -0.169585 -0.212057 0.962431  0.388333 0.327985 1 0 1.000000
skin_0
0  -44.153072 -37.898979 48.260090  -0.169585 -0.212057 0.962431  0.388333 0.327985 1 0 1.000000
0  -42.963909 -41.334332 47.236092  -0.192299 -0.335691 0.922135  0.375937 0.331680 1 0 1.000000
0  -38.911957 -39.616657 48.116951  0.028233 -0.240364 0.970272  0.382135 0.328502 1 0 1.000000
skin_0
0  -42.963909 -41.334332 47.236092  -0.192299 -0.335691 0.922135  0.375937 0.331680 1 0 1.000000
0  -38.724773 -40.222248 47.951790  0.023952 -0.265350 0.963854  0.379950 0.329098 1 0 1.000000
0  -38.911957 -39.616657 48.116951  0.028233 -0.240364 0.970272  0.382135 0.328502 1 0 1.000000
skin_0
0  -42.963909 -41.334332 47.236092  -0.192299 -0.335691 0.922135  0.375937 0.331680 1 0 1.000000
0  -39.759785 -42.831795 46.949810  -0.012563 -0.380732 0.924600  0.370533 0.332713 1 0 1.000000
0  -38.724773 -40.222248 47.951790  0.023952 -0.265350 0.963854  0.379950 0.329098 1 0 1.000000
skin_0
0  -44.109028 -37.733818 48.249077  0.148585 0.679259 0.718700  0.388929 0.328025 1 0 1.000000
0  -46.245113 -37.073174 47.874714  -0.329594 0.806057 0.491568  0.391313 0.329376 1 0 1.000000
0  -46.300167 -37.238335 47.885723  -0.783597 -0.111232 0.611231  0.390717 0.329336 1 0 1.000000
skin_0
0  -46.300167 -37.238335 47.885723  -0.783597 -0.111232 0.611231  0.390717 0.329336 1 0 1.000000
0  -46.245113 -37.073174 47.874714  -0.329594 0.806057 0.491568  0.391313 0.329376 1 0 1.000000
0  -47.214058 -36.919025 46.927788  -0.904852 0.000580 0.425727  0.391870 0.332793 1 0 1.000000
skin_0
0  -46.245113 -37.073174 47.874714  -0.329594 0.806057 0.491568  0.391313 0.329376 1 0 1.000000
0  -47.159004 -36.753864 46.916779  -0.409419 0.841557 0.352360  0.392466 0.332833 1 0 1.000000
0  -47.214058 -36.919025 46.927788  -0.904852 0.000580 0.425727  0.391870 0.332793 1 0 1.000000
skin_0
0  -47.753582 -36.698811 45.496391  -0.957188 0.070567 0.280733  0.392664 0.337958 1 0 1.000000
0  -47.214058 -36.919025 46.927788  -0.904852 0.000580 0.425727  0.391870 0.332793 1 0 1.000000
0  -47.159004 -36.753864 46.916779  -0.409419 0.841557 0.352360  0.392466 0.332833 1 0 1.000000
skin_0
0  -47.159004 -36.753864 46.916779  -0.409419 0.841557 0.352360  0.392466 0.332833 1 0 1.000000
0  -47.687519 -36.544659 45.485382  -0.404703 0.888236 0.217378  0.393221 0.337998 1 0 1.000000
0  -47.753582 -36.698811 45.496391  -0.957188 0.070567 0.280733  0.392664 0.337958 1 0 1.000000
skin_0
0  -47.753582 -36.698811 45.496391  -0.957188 0.070567 0.280733  0.392664 0.337958 1 0 1.000000
0  -47.687519 -36.544659 45.485382  -0.404703 0.888236 0.217378  0.393221 0.337998 1 0 1.000000
0  -48.392208 -36.445560 43.184135  -0.973010 0.119537 0.197387  0.393578 0.346302 1 0 1.000000
skin_0
0  -47.687519 -36.544659 45.485382  -0.404703 0.888236 0.217378  0.393221 0.337998 1 0 1.000000
0  -48.304119 -36.291412 43.184135  -0.395602 0.898125 0.192015  0.394134 0.346302 1 0 1.000000
0  -48.392208 -36.445560 43.184135  -0.973010 0.119537 0.197387  0.393578 0.346302 1 0 1.000000
skin_0
0  -39.759785 -42.831795 46.949810  -0.012563 -0.380732 0.924600  0.370533 0.332713 1 0 1.000000
0  -38.614666 -41.840828 47.456306  0.015509 -0.323335 0.946158  0.374109 0.330886 1 0 1.000000
0  -38.724773 -40.222248 47.951790  0.023952 -0.265350 0.963854  0.379950 0.329098 1 0 1.000000
skin_0
0  -38.361420 -42.710674 46.773640  0.478413 -0.697079 0.534043  0.370970 0.333349 1 0 1.000000
0  -38.614666 -41.840828 47.456306  0.015509 -0.323335 0.946158  0.374109 0.330886 1 0 1.000000
0  -39.759785 -42.831795 46.949810  -0.012563 -0.380732 0.924600  0.370533 0.332713 1 0 1.000000
skin_0
0  -39.099140 -43.184135 46.597466  0.215743 -0.533948 0.817529  0.369262 0.333985 1 0 1.000000
0  -38.361420 -42.710674 46.773640  0.478413 -0.697079 0.534043  0.370970 0.333349 1 0 1.000000
0  -39.759785 -42.831795 46.949810  -0.012563 -0.380732 0.924600  0.370533 0.332713 1 0 1.000000
skin_0
0  -38.361420 -42.710674 46.773640  0.478413 -0.697079 0.534043  0.370970 0.333349 1 0 1.000000
0  -39.099140 -43.184135 46.597466  0.215743 -0.533948 0.817529  0.369262 0.333985 1 0 1.000000
0  -38.790840 -43.448395 45.925812  0.598009 -0.747786 0.288445  0.368308 0.336409 1 0 1.000000
skin_0
0  -38.790840 -43.448395 45.925812  0.598009 -0.747786 0.288445  0.368308 0.336409 1 0 1.000000
0  -38.207272 -43.151104 45.804695  0.612175 -0.752371 0.243268  0.369381 0.336846 1 0 1.000000
0  -38.361420 -42.710674 46.773640  0.478413 -0.697079 0.534043  0.370970 0.333349 1 0 1.000000
skin_0
0  -38.207272 -43.151104 45.804695  0.612175 -0.752371 0.243268  0.369381 0.336846 1 0 1.000000
0  -38.790840 -43.448395 45.925812  0.598009 -0.747786 0.288445  0.368308 0.336409 1 0 1.000000
0  -38.636688 -43.646587 41.774761  0.703031 -0.710870 -0.020290  0.367593 0.351388 1 0 1.000000
skin_0
0  -38.636688 -43.646587 41.774761  0.703031 -0.710870 -0.020290  0.367593 0.351388 1 0 1.000000
0  -38.097164 -43.261211 41.752739  0.703408 -0.710491 -0.020486  0.368984 0.351467 1 0 1.000000
0  -38.207272 -43.151104 45.804695  0.612175 -0.752371 0.243268  0.369381 0.336846 1 0 1.000000
skin_0
0  -38.207272 -43.151104 45.804695  0.612175 -0.752371 0.243268  0.369381 0.336846 1 0 1.000000
0  -38.097164 -43.261211 41.752739  0.703408 -0.710491 -0.020486  0.368984 0.351467 1 0 1.000000
0  -37.943012 -43.052010 41.884869  0.926488 -0.376290 -0.004998  0.369739 0.350990 1 0 1.000000
skin_0
0  -38.064129 -42.985943 45.771660  0.877211 -0.451927 0.162057  0.369977 0.336965 1 0 1.000000
0  -38.207272 -43.151104 45.804695  0.612175 -0.752371 0.243268  0.369381 0.336846 1 0 1.000000
0  -37.943012 -43.052010 41.884869  0.926488 -0.376290 -0.004998  0.369739 0.350990 1 0 1.000000
skin_0
0  -38.207272 -43.151104 45.804695  0.612175 -0.752371 0.243268  0.369381 0.336846 1 0 1.000000
0  -38.064129 -42.985943 45.771660  0.877211 -0.451927 0.162057  0.369977 0.336965 1 0 1.000000
0  -38.174236 -42.589558 46.696564  0.711701 -0.389237 0.584787  0.371407 0.333627 1 0 1.000000
skin_0
0  -38.361420 -42.710674 46.773640  0.478413 -0.697079 0.534043  0.370970 0.333349 1 0 1.000000
0  -38.207272 -43.151104 45.804695  0.612175 -0.752371 0.243268  0.369381 0.336846 1 0 1.000000
0  -38.174236 -42.589558 46.696564  0.711701 -0.389237 0.584787  0.371407 0.333627 1 0 1.000000
skin_0
0  -38.614666 -41.840828 47.456306  0.015509 -0.323335 0.946158  0.374109 0.330886 1 0 1.000000
0  -38.361420 -42.710674 46.773640  0.478413 -0.697079 0.534043  0.370970 0.333349 1 0 1.000000
0  -38.174236 -42.589558 46.696564  0.711701 -0.389237 0.584787  0.371407 0.333627 1 0 1.000000
skin_0
0  -38.174236 -42.589558 46.696564  0.711701 -0.389237 0.584787  0.371407 0.333627 1 0 1.000000
0  -38.328388 -41.708698 47.390240  0.600746 -0.191364 0.776198  0.374586 0.331124 1 0 1.000000
0  -38.614666 -41.840828 47.456306  0.015509 -0.323335 0.946158  0.374109 0.330886 1 0 1.000000
skin_0
0  -38.328388 -41.708698 47.390240  0.600746 -0.191364 0.776198  0.374586 0.331124 1 0 1.000000
0  -38.724773 -40.222248 47.951790  0.023952 -0.265350 0.963854  0.379950 0.329098 1 0 1.000000
0  -38.614666 -41.840828 47.456306  0.015509 -0.323335 0.946158  0.374109 0.330886 1 0 1.000000
skin_0
0  -38.328388 -41.708698 47.390240  0.600746 -0.191364 0.776198  0.374586 0.331124 1 0 1.000000
0  -38.526581 -40.156181 47.896736  0.878064 0.100139 0.467948  0.380188 0.329296 1 0 1.000000
0  -38.724773 -40.222248 47.951790  0.023952 -0.265350 0.963854  0.379950 0.329098 1 0 1.000000
skin_0
0  -38.724773 -40.222248 47.951790  0.023952 -0.265350 0.963854  0.379950 0.329098 1 0 1.000000
0  -38.526581 -40.156181 47.896736  0.878064 0.100139 0.467948  0.380188 0.329296 1 0 1.000000
0  -38.911957 -39.616657 48.116951  0.028233 -0.240364 0.970272  0.382135 0.328502 1 0 1.000000
skin_0
0  -38.526581 -40.156181 47.896736  0.878064 0.100139 0.467948  0.380188 0.329296 1 0 1.000000
0  -38.790840 -39.462505 48.094929  0.582578 0.388008 0.714180  0.382691 0.328581 1 0 1.000000
0  -38.911957 -39.616657 48.116951  0.028233 -0.240364 0.970272  0.382135 0.328502 1 0 1.000000
skin_0
0  -38.911957 -39.616657 48.116951  0.028233 -0.240364 0.970272  0.382135 0.328502 1 0 1.000000
0  -38.790840 -39.462505 48.094929  0.582578 0.388008 0.714180  0.382691 0.328581 1 0 1.000000
0  -44.109028 -37.733818 48.249077  0.148585 0.679259 0.718700  0.388929 0.328025 1 0 1.000000
chrome
0  -38.856903 -39.506550 46.685555  0.489494 0.858471 0.153042  0.121586 0.474837 1 0 1.000000
0  -40.332344 -38.889946 41.312309  0.420040 0.900892 -0.109361  0.126713 0.438704 1 0 1.000000
0  -43.360298 -38.053131 44.197124  0.291500 0.955914 0.035448  0.137211 0.457747 1 0 1.000000
chrome
0  -41.114105 -38.625690 40.739754  0.402981 0.907102 -0.121542  0.129398 0.434797 1 0 1.000000
0  -43.360298 -38.053131 44.197124  0.291500 0.955914 0.035448  0.137211 0.457747 1 0 1.000000
0  -40.332344 -38.889946 41.312309  0.420040 0.900892 -0.109361  0.126713 0.438704 1 0 1.000000
chrome
0  -42.270233 -38.273346 40.574593  0.337874 0.931536 -0.134469  0.133305 0.433821 1 0 1.000000
0  -43.360298 -38.053131 44.197124  0.291500 0.955914 0.035448  0.137211 0.457747 1 0 1.000000
0  -41.114105 -38.625690 40.739754  0.402981 0.907102 -0.121542  0.129398 0.434797 1 0 1.000000
chrome
0  -42.270233 -38.273346 40.574593  0.337874 0.931536 -0.134469  0.133305 0.433821 1 0 1.000000
0  -46.619476 -36.963066 41.224224  0.133829 0.985571 -0.103636  0.148442 0.437727 1 0 1.000000
0  -43.360298 -38.053131 44.197124  0.291500 0.955914 0.035448  0.137211 0.457747 1 0 1.000000
chrome
0  -47.423260 -36.742851 42.083061  0.114953 0.989170 -0.091264  0.151128 0.443587 1 0 1.000000
0  -43.360298 -38.053131 44.197124  0.291500 0.955914 0.035448  0.137211 0.457747 1 0 1.000000
0  -46.619476 -36.963066 41.224224  0.133829 0.985571 -0.103636  0.148442 0.437727 1 0 1.000000
chrome
0  -47.775604 -36.665775 42.996956  0.079561 0.996599 -0.021449  0.152348 0.449446 1 0 1.000000
0  -43.360298 -38.053131 44.197124  0.291500 0.955914 0.035448  0.137211 0.457747 1 0 1.000000
0  -47.423260 -36.742851 42.083061  0.114953 0.989170 -0.091264  0.151128 0.443587 1 0 1.000000
chrome
0  -43.360298 -38.053131 44.197124  0.291500 0.955914 0.035448  0.137211 0.457747 1 0 1.000000
0  -47.775604 -36.665775 42.996956  0.079561 0.996599 -0.021449  0.152348 0.449446 1 0 1.000000
0  -47.203045 -36.919025 45.177082  0.106859 0.991049 0.080021  0.150395 0.464095 1 0 1.000000
chrome
0  -47.203045 -36.919025 45.177082  0.106859 0.991049 0.080021  0.150395 0.464095 1 0 1.000000
0  -46.531391 -37.161259 46.641510  0.138066 0.979202 0.148666  0.147954 0.473861 1 0 1.000000
0  -43.360298 -38.053131 44.197124  0.291500 0.955914 0.035448  0.137211 0.457747 1 0 1.000000
chrome
0  -46.531391 -37.161259 46.641510  0.138066 0.979202 0.148666  0.147954 0.473861 1 0 1.000000
0  -46.013885 -37.348442 47.291145  0.162067 0.970468 0.178678  0.146245 0.478256 1 0 1.000000
0  -43.360298 -38.053131 44.197124  0.291500 0.955914 0.035448  0.137211 0.457747 1 0 1.000000
chrome
0  -46.013885 -37.348442 47.291145  0.162067 0.970468 0.178678  0.146245 0.478256 1 0 1.000000
0  -44.120037 -37.932014 47.610455  0.208540 0.959002 0.191904  0.139653 0.480697 1 0 1.000000
0  -43.360298 -38.053131 44.197124  0.291500 0.955914 0.035448  0.137211 0.457747 1 0 1.000000
chrome
0  -44.120037 -37.932014 47.610455  0.208540 0.959002 0.191904  0.139653 0.480697 1 0 1.000000
0  -39.297333 -39.407452 47.522369  0.469014 0.863170 0.186987  0.123051 0.480697 1 0 1.000000
0  -43.360298 -38.053131 44.197124  0.291500 0.955914 0.035448  0.137211 0.457747 1 0 1.000000
chrome
0  -38.967010 -39.495537 47.269123  0.480295 0.858269 0.180804  0.122074 0.478744 1 0 1.000000
0  -43.360298 -38.053131 44.197124  0.291500 0.955914 0.035448  0.137211 0.457747 1 0 1.000000
0  -39.297333 -39.407452 47.522369  0.469014 0.863170 0.186987  0.123051 0.480697 1 0 1.000000
chrome
0  -38.856903 -39.506550 46.685555  0.489494 0.858471 0.153042  0.121586 0.474837 1 0 1.000000
0  -43.360298 -38.053131 44.197124  0.291500 0.955914 0.035448  0.137211 0.457747 1 0 1.000000
0  -38.967010 -39.495537 47.269123  0.480295 0.858269 0.180804  0.122074 0.478744 1 0 1.000000
end
