version 1
nodes
0 "root" -1
1 "steering_wheel" 0
end
skeleton
time 0
0  0.000000 0.000000 0.000000  0.000000 -0.000000 0.000000
1  19.916300 17.934299 33.308498  0.000000 -0.000000 0.000000
end
triangles
  phy
0  38.202717 -43.153004 45.806686  0.919684 -0.372741 -0.123473  0.000000 0.000000 1 0 1.000000
0  38.099182 -43.235210 42.489922  0.996074 -0.083319 -0.029909  0.000000 0.000000 1 0 1.000000
0  38.588314 -43.571423 41.292309  -0.245607 -0.967283 0.063568  0.000000 0.000000 1 0 1.000000
  phy
0  38.099182 -43.235210 42.489922  0.996074 -0.083319 -0.029909  0.000000 0.000000 1 0 1.000000
0  38.092827 -43.263103 41.754730  0.713953 -0.693448 0.096964  0.000000 0.000000 1 0 1.000000
0  38.588314 -43.571423 41.292309  -0.245607 -0.967283 0.063568  0.000000 0.000000 1 0 1.000000
  phy
0  38.081856 -43.020863 41.083084  0.459073 -0.160088 0.873856  0.000000 0.000000 1 0 1.000000
0  38.092827 -43.263103 41.754730  0.713953 -0.693448 0.096964  0.000000 0.000000 1 0 1.000000
0  38.099182 -43.235210 42.489922  0.996074 -0.083319 -0.029909  0.000000 0.000000 1 0 1.000000
  phy
0  38.081856 -43.020863 41.083084  0.459073 -0.160088 0.873856  0.000000 0.000000 1 0 1.000000
0  38.099182 -43.235210 42.489922  0.996074 -0.083319 -0.029909  0.000000 0.000000 1 0 1.000000
0  38.026951 -40.136131 41.149124  0.893708 0.328726 0.305329  0.000000 0.000000 1 0 1.000000
  phy
0  38.081856 -43.020863 41.083084  0.459073 -0.160088 0.873856  0.000000 0.000000 1 0 1.000000
0  38.588314 -43.571423 41.292309  -0.245607 -0.967283 0.063568  0.000000 0.000000 1 0 1.000000
0  38.092827 -43.263103 41.754730  0.713953 -0.693448 0.096964  0.000000 0.000000 1 0 1.000000
  phy
0  42.959419 -41.336464 47.238365  -0.289494 -0.620405 -0.728897  0.000000 0.000000 1 0 1.000000
0  44.148621 -37.901115 48.262451  -0.022373 -0.054195 -0.998280  0.000000 0.000000 1 0 1.000000
0  39.755100 -42.833817 46.951847  -0.156730 -0.536773 -0.829042  0.000000 0.000000 1 0 1.000000
  phy
0  46.163616 -39.585968 47.172451  -0.418525 -0.584495 -0.695128  0.000000 0.000000 1 0 1.000000
0  44.148621 -37.901115 48.262451  -0.022373 -0.054195 -0.998280  0.000000 0.000000 1 0 1.000000
0  42.959419 -41.336464 47.238365  -0.289494 -0.620405 -0.728897  0.000000 0.000000 1 0 1.000000
  phy
0  42.959419 -41.336464 47.238365  -0.289494 -0.620405 -0.728897  0.000000 0.000000 1 0 1.000000
0  39.755100 -42.833817 46.951847  -0.156730 -0.536773 -0.829042  0.000000 0.000000 1 0 1.000000
0  43.190674 -41.853981 45.278431  -0.415125 -0.903765 -0.104308  0.000000 0.000000 1 0 1.000000
  phy
0  43.190674 -41.853981 45.278431  -0.415125 -0.903765 -0.104308  0.000000 0.000000 1 0 1.000000
0  46.163616 -39.585968 47.172451  -0.418525 -0.584495 -0.695128  0.000000 0.000000 1 0 1.000000
0  42.959419 -41.336464 47.238365  -0.289494 -0.620405 -0.728897  0.000000 0.000000 1 0 1.000000
  phy
0  38.099182 -43.235210 42.489922  0.996074 -0.083319 -0.029909  0.000000 0.000000 1 0 1.000000
0  38.202717 -43.153004 45.806686  0.919684 -0.372741 -0.123473  0.000000 0.000000 1 0 1.000000
0  38.158859 -40.059006 45.366268  0.998615 0.019867 -0.048722  0.000000 0.000000 1 0 1.000000
  phy
0  38.099182 -43.235210 42.489922  0.996074 -0.083319 -0.029909  0.000000 0.000000 1 0 1.000000
0  38.158859 -40.059006 45.366268  0.998615 0.019867 -0.048722  0.000000 0.000000 1 0 1.000000
0  38.026951 -40.136131 41.149124  0.893708 0.328726 0.305329  0.000000 0.000000 1 0 1.000000
  phy
0  43.190674 -41.853981 45.278431  -0.415125 -0.903765 -0.104308  0.000000 0.000000 1 0 1.000000
0  38.588314 -43.571423 41.292309  -0.245607 -0.967283 0.063568  0.000000 0.000000 1 0 1.000000
0  44.027676 -41.611782 42.404781  -0.484864 -0.871185 0.077088  0.000000 0.000000 1 0 1.000000
  phy
0  39.094528 -43.186092 46.599533  -0.205090 -0.969286 -0.135732  0.000000 0.000000 1 0 1.000000
0  38.588314 -43.571423 41.292309  -0.245607 -0.967283 0.063568  0.000000 0.000000 1 0 1.000000
0  43.190674 -41.853981 45.278431  -0.415125 -0.903765 -0.104308  0.000000 0.000000 1 0 1.000000
  phy
0  43.190674 -41.853981 45.278431  -0.415125 -0.903765 -0.104308  0.000000 0.000000 1 0 1.000000
0  44.027676 -41.611782 42.404781  -0.484864 -0.871185 0.077088  0.000000 0.000000 1 0 1.000000
0  47.573112 -39.024437 45.113472  -0.768332 -0.608934 -0.197142  0.000000 0.000000 1 0 1.000000
  phy
0  47.573112 -39.024437 45.113472  -0.768332 -0.608934 -0.197142  0.000000 0.000000 1 0 1.000000
0  46.945419 -39.244656 46.434753  -0.755335 -0.550820 -0.355060  0.000000 0.000000 1 0 1.000000
0  43.190674 -41.853981 45.278431  -0.415125 -0.903765 -0.104308  0.000000 0.000000 1 0 1.000000
  phy
0  39.755100 -42.833817 46.951847  -0.156730 -0.536773 -0.829042  0.000000 0.000000 1 0 1.000000
0  39.094528 -43.186092 46.599533  -0.205090 -0.969286 -0.135732  0.000000 0.000000 1 0 1.000000
0  43.190674 -41.853981 45.278431  -0.415125 -0.903765 -0.104308  0.000000 0.000000 1 0 1.000000
  phy
0  43.190674 -41.853981 45.278431  -0.415125 -0.903765 -0.104308  0.000000 0.000000 1 0 1.000000
0  46.945419 -39.244656 46.434753  -0.755335 -0.550820 -0.355060  0.000000 0.000000 1 0 1.000000
0  46.163616 -39.585968 47.172451  -0.418525 -0.584495 -0.695128  0.000000 0.000000 1 0 1.000000
  phy
0  48.388130 -36.447868 43.186676  -0.966113 0.167368 -0.196506  0.000000 0.000000 1 0 1.000000
0  47.000557 -36.525272 46.886230  0.112552 0.984918 -0.131406  0.000000 0.000000 1 0 1.000000
0  47.573112 -39.024437 45.113472  -0.768332 -0.608934 -0.197142  0.000000 0.000000 1 0 1.000000
  phy
0  47.000557 -36.525272 46.886230  0.112552 0.984918 -0.131406  0.000000 0.000000 1 0 1.000000
0  46.945419 -39.244656 46.434753  -0.755335 -0.550820 -0.355060  0.000000 0.000000 1 0 1.000000
0  47.573112 -39.024437 45.113472  -0.768332 -0.608934 -0.197142  0.000000 0.000000 1 0 1.000000
  phy
0  48.178822 -38.749207 42.988464  -0.800762 -0.581633 0.143120  0.000000 0.000000 1 0 1.000000
0  48.388130 -36.447868 43.186676  -0.966113 0.167368 -0.196506  0.000000 0.000000 1 0 1.000000
0  47.573112 -39.024437 45.113472  -0.768332 -0.608934 -0.197142  0.000000 0.000000 1 0 1.000000
  phy
0  47.573112 -39.024437 45.113472  -0.768332 -0.608934 -0.197142  0.000000 0.000000 1 0 1.000000
0  44.027676 -41.611782 42.404781  -0.484864 -0.871185 0.077088  0.000000 0.000000 1 0 1.000000
0  48.178822 -38.749207 42.988464  -0.800762 -0.581633 0.143120  0.000000 0.000000 1 0 1.000000
  phy
0  38.026951 -40.136131 41.149124  0.893708 0.328726 0.305329  0.000000 0.000000 1 0 1.000000
0  40.922901 -38.440552 40.268414  0.439500 0.494140 0.750110  0.000000 0.000000 1 0 1.000000
0  40.625584 -39.552586 39.883041  0.083882 -0.007057 0.996451  0.000000 0.000000 1 0 1.000000
  phy
0  40.922901 -38.440552 40.268414  0.439500 0.494140 0.750110  0.000000 0.000000 1 0 1.000000
0  38.026951 -40.136131 41.149124  0.893708 0.328726 0.305329  0.000000 0.000000 1 0 1.000000
0  39.865822 -38.506538 41.017124  0.476204 0.874938 0.087824  0.000000 0.000000 1 0 1.000000
  phy
0  38.379051 -39.134060 46.698647  0.827565 0.561356 0.004000  0.000000 0.000000 1 0 1.000000
0  38.026951 -40.136131 41.149124  0.893708 0.328726 0.305329  0.000000 0.000000 1 0 1.000000
0  38.158859 -40.059006 45.366268  0.998615 0.019867 -0.048722  0.000000 0.000000 1 0 1.000000
  phy
0  38.026951 -40.136131 41.149124  0.893708 0.328726 0.305329  0.000000 0.000000 1 0 1.000000
0  38.379051 -39.134060 46.698647  0.827565 0.561356 0.004000  0.000000 0.000000 1 0 1.000000
0  39.865822 -38.506538 41.017124  0.476204 0.874938 0.087824  0.000000 0.000000 1 0 1.000000
  phy
0  38.081856 -43.020863 41.083084  0.459073 -0.160088 0.873856  0.000000 0.000000 1 0 1.000000
0  38.026951 -40.136131 41.149124  0.893708 0.328726 0.305329  0.000000 0.000000 1 0 1.000000
0  40.625584 -39.552586 39.883041  0.083882 -0.007057 0.996451  0.000000 0.000000 1 0 1.000000
  phy
0  38.379051 -39.134060 46.698647  0.827565 0.561356 0.004000  0.000000 0.000000 1 0 1.000000
0  38.158859 -40.059006 45.366268  0.998615 0.019867 -0.048722  0.000000 0.000000 1 0 1.000000
0  38.323845 -41.710735 47.392254  0.407410 -0.224590 -0.885198  0.000000 0.000000 1 0 1.000000
  phy
0  38.567986 -39.094116 47.799896  0.318957 0.919067 -0.231477  0.000000 0.000000 1 0 1.000000
0  38.379051 -39.134060 46.698647  0.827565 0.561356 0.004000  0.000000 0.000000 1 0 1.000000
0  38.323845 -41.710735 47.392254  0.407410 -0.224590 -0.885198  0.000000 0.000000 1 0 1.000000
  phy
0  38.379051 -39.134060 46.698647  0.827565 0.561356 0.004000  0.000000 0.000000 1 0 1.000000
0  38.567986 -39.094116 47.799896  0.318957 0.919067 -0.231477  0.000000 0.000000 1 0 1.000000
0  39.865822 -38.506538 41.017124  0.476204 0.874938 0.087824  0.000000 0.000000 1 0 1.000000
  phy
0  39.755100 -42.833817 46.951847  -0.156730 -0.536773 -0.829042  0.000000 0.000000 1 0 1.000000
0  38.323845 -41.710735 47.392254  0.407410 -0.224590 -0.885198  0.000000 0.000000 1 0 1.000000
0  39.094528 -43.186092 46.599533  -0.205090 -0.969286 -0.135732  0.000000 0.000000 1 0 1.000000
  phy
0  39.755100 -42.833817 46.951847  -0.156730 -0.536773 -0.829042  0.000000 0.000000 1 0 1.000000
0  44.148621 -37.901115 48.262451  -0.022373 -0.054195 -0.998280  0.000000 0.000000 1 0 1.000000
0  38.323845 -41.710735 47.392254  0.407410 -0.224590 -0.885198  0.000000 0.000000 1 0 1.000000
  phy
0  41.286030 -42.514534 41.017185  -0.416419 -0.785569 0.457687  0.000000 0.000000 1 0 1.000000
0  38.588314 -43.571423 41.292309  -0.245607 -0.967283 0.063568  0.000000 0.000000 1 0 1.000000
0  41.528343 -41.666702 40.224422  -0.155847 -0.263883 0.951881  0.000000 0.000000 1 0 1.000000
  phy
0  44.027676 -41.611782 42.404781  -0.484864 -0.871185 0.077088  0.000000 0.000000 1 0 1.000000
0  38.588314 -43.571423 41.292309  -0.245607 -0.967283 0.063568  0.000000 0.000000 1 0 1.000000
0  41.286030 -42.514534 41.017185  -0.416419 -0.785569 0.457687  0.000000 0.000000 1 0 1.000000
  phy
0  41.528343 -41.666702 40.224422  -0.155847 -0.263883 0.951881  0.000000 0.000000 1 0 1.000000
0  47.099838 -38.936321 41.083530  -0.537555 -0.515408 0.667374  0.000000 0.000000 1 0 1.000000
0  41.286030 -42.514534 41.017185  -0.416419 -0.785569 0.457687  0.000000 0.000000 1 0 1.000000
  phy
0  41.286030 -42.514534 41.017185  -0.416419 -0.785569 0.457687  0.000000 0.000000 1 0 1.000000
0  47.099838 -38.936321 41.083530  -0.537555 -0.515408 0.667374  0.000000 0.000000 1 0 1.000000
0  44.027676 -41.611782 42.404781  -0.484864 -0.871185 0.077088  0.000000 0.000000 1 0 1.000000
  phy
0  48.178822 -38.749207 42.988464  -0.800762 -0.581633 0.143120  0.000000 0.000000 1 0 1.000000
0  47.793621 -36.403893 41.799305  -0.058370 0.978058 0.199987  0.000000 0.000000 1 0 1.000000
0  48.388130 -36.447868 43.186676  -0.966113 0.167368 -0.196506  0.000000 0.000000 1 0 1.000000
  phy
0  47.099838 -38.936321 41.083530  -0.537555 -0.515408 0.667374  0.000000 0.000000 1 0 1.000000
0  47.793621 -36.403893 41.799305  -0.058370 0.978058 0.199987  0.000000 0.000000 1 0 1.000000
0  48.178822 -38.749207 42.988464  -0.800762 -0.581633 0.143120  0.000000 0.000000 1 0 1.000000
  phy
0  44.027676 -41.611782 42.404781  -0.484864 -0.871185 0.077088  0.000000 0.000000 1 0 1.000000
0  47.099838 -38.936321 41.083530  -0.537555 -0.515408 0.667374  0.000000 0.000000 1 0 1.000000
0  48.178822 -38.749207 42.988464  -0.800762 -0.581633 0.143120  0.000000 0.000000 1 0 1.000000
  phy
0  38.202717 -43.153004 45.806686  0.919684 -0.372741 -0.123473  0.000000 0.000000 1 0 1.000000
0  38.588314 -43.571423 41.292309  -0.245607 -0.967283 0.063568  0.000000 0.000000 1 0 1.000000
0  39.094528 -43.186092 46.599533  -0.205090 -0.969286 -0.135732  0.000000 0.000000 1 0 1.000000
  phy
0  38.158859 -40.059006 45.366268  0.998615 0.019867 -0.048722  0.000000 0.000000 1 0 1.000000
0  38.202717 -43.153004 45.806686  0.919684 -0.372741 -0.123473  0.000000 0.000000 1 0 1.000000
0  38.323845 -41.710735 47.392254  0.407410 -0.224590 -0.885198  0.000000 0.000000 1 0 1.000000
  phy
0  39.094528 -43.186092 46.599533  -0.205090 -0.969286 -0.135732  0.000000 0.000000 1 0 1.000000
0  38.323845 -41.710735 47.392254  0.407410 -0.224590 -0.885198  0.000000 0.000000 1 0 1.000000
0  38.202717 -43.153004 45.806686  0.919684 -0.372741 -0.123473  0.000000 0.000000 1 0 1.000000
  phy
0  46.802689 -36.855282 40.786247  -0.193526 0.064049 0.979002  0.000000 0.000000 1 0 1.000000
0  42.167130 -37.790966 40.268490  0.265387 0.961699 0.068598  0.000000 0.000000 1 0 1.000000
0  47.793621 -36.403893 41.799305  -0.058370 0.978058 0.199987  0.000000 0.000000 1 0 1.000000
  phy
0  46.802689 -36.855282 40.786247  -0.193526 0.064049 0.979002  0.000000 0.000000 1 0 1.000000
0  47.793621 -36.403893 41.799305  -0.058370 0.978058 0.199987  0.000000 0.000000 1 0 1.000000
0  47.099838 -38.936321 41.083530  -0.537555 -0.515408 0.667374  0.000000 0.000000 1 0 1.000000
  phy
0  41.528343 -41.666702 40.224422  -0.155847 -0.263883 0.951881  0.000000 0.000000 1 0 1.000000
0  46.802689 -36.855282 40.786247  -0.193526 0.064049 0.979002  0.000000 0.000000 1 0 1.000000
0  47.099838 -38.936321 41.083530  -0.537555 -0.515408 0.667374  0.000000 0.000000 1 0 1.000000
  phy
0  46.802689 -36.855282 40.786247  -0.193526 0.064049 0.979002  0.000000 0.000000 1 0 1.000000
0  41.528343 -41.666702 40.224422  -0.155847 -0.263883 0.951881  0.000000 0.000000 1 0 1.000000
0  40.625584 -39.552586 39.883041  0.083882 -0.007057 0.996451  0.000000 0.000000 1 0 1.000000
  phy
0  42.167130 -37.790966 40.268490  0.265387 0.961699 0.068598  0.000000 0.000000 1 0 1.000000
0  46.802689 -36.855282 40.786247  -0.193526 0.064049 0.979002  0.000000 0.000000 1 0 1.000000
0  40.625584 -39.552586 39.883041  0.083882 -0.007057 0.996451  0.000000 0.000000 1 0 1.000000
  phy
0  40.922901 -38.440552 40.268414  0.439500 0.494140 0.750110  0.000000 0.000000 1 0 1.000000
0  42.167130 -37.790966 40.268490  0.265387 0.961699 0.068598  0.000000 0.000000 1 0 1.000000
0  40.625584 -39.552586 39.883041  0.083882 -0.007057 0.996451  0.000000 0.000000 1 0 1.000000
  phy
0  42.167130 -37.790966 40.268490  0.265387 0.961699 0.068598  0.000000 0.000000 1 0 1.000000
0  40.922901 -38.440552 40.268414  0.439500 0.494140 0.750110  0.000000 0.000000 1 0 1.000000
0  39.865822 -38.506538 41.017124  0.476204 0.874938 0.087824  0.000000 0.000000 1 0 1.000000
  phy
0  46.163616 -39.585968 47.172451  -0.418525 -0.584495 -0.695128  0.000000 0.000000 1 0 1.000000
0  46.945419 -39.244656 46.434753  -0.755335 -0.550820 -0.355060  0.000000 0.000000 1 0 1.000000
0  46.295795 -37.240528 47.888191  -0.524238 -0.063920 -0.849169  0.000000 0.000000 1 0 1.000000
  phy
0  46.295795 -37.240528 47.888191  -0.524238 -0.063920 -0.849169  0.000000 0.000000 1 0 1.000000
0  44.148621 -37.901115 48.262451  -0.022373 -0.054195 -0.998280  0.000000 0.000000 1 0 1.000000
0  46.163616 -39.585968 47.172451  -0.418525 -0.584495 -0.695128  0.000000 0.000000 1 0 1.000000
  phy
0  46.295795 -37.240528 47.888191  -0.524238 -0.063920 -0.849169  0.000000 0.000000 1 0 1.000000
0  46.945419 -39.244656 46.434753  -0.755335 -0.550820 -0.355060  0.000000 0.000000 1 0 1.000000
0  47.000557 -36.525272 46.886230  0.112552 0.984918 -0.131406  0.000000 0.000000 1 0 1.000000
  phy
0  46.295795 -37.240528 47.888191  -0.524238 -0.063920 -0.849169  0.000000 0.000000 1 0 1.000000
0  47.000557 -36.525272 46.886230  0.112552 0.984918 -0.131406  0.000000 0.000000 1 0 1.000000
0  44.148621 -37.901115 48.262451  -0.022373 -0.054195 -0.998280  0.000000 0.000000 1 0 1.000000
  phy
0  47.000557 -36.525272 46.886230  0.112552 0.984918 -0.131406  0.000000 0.000000 1 0 1.000000
0  48.388130 -36.447868 43.186676  -0.966113 0.167368 -0.196506  0.000000 0.000000 1 0 1.000000
0  47.793621 -36.403893 41.799305  -0.058370 0.978058 0.199987  0.000000 0.000000 1 0 1.000000
  phy
0  41.528343 -41.666702 40.224422  -0.155847 -0.263883 0.951881  0.000000 0.000000 1 0 1.000000
0  38.081856 -43.020863 41.083084  0.459073 -0.160088 0.873856  0.000000 0.000000 1 0 1.000000
0  40.625584 -39.552586 39.883041  0.083882 -0.007057 0.996451  0.000000 0.000000 1 0 1.000000
  phy
0  38.081856 -43.020863 41.083084  0.459073 -0.160088 0.873856  0.000000 0.000000 1 0 1.000000
0  41.528343 -41.666702 40.224422  -0.155847 -0.263883 0.951881  0.000000 0.000000 1 0 1.000000
0  38.588314 -43.571423 41.292309  -0.245607 -0.967283 0.063568  0.000000 0.000000 1 0 1.000000
  phy
0  47.000557 -36.525272 46.886230  0.112552 0.984918 -0.131406  0.000000 0.000000 1 0 1.000000
0  42.167130 -37.790966 40.268490  0.265387 0.961699 0.068598  0.000000 0.000000 1 0 1.000000
0  38.567986 -39.094116 47.799896  0.318957 0.919067 -0.231477  0.000000 0.000000 1 0 1.000000
  phy
0  38.567986 -39.094116 47.799896  0.318957 0.919067 -0.231477  0.000000 0.000000 1 0 1.000000
0  42.167130 -37.790966 40.268490  0.265387 0.961699 0.068598  0.000000 0.000000 1 0 1.000000
0  39.865822 -38.506538 41.017124  0.476204 0.874938 0.087824  0.000000 0.000000 1 0 1.000000
  phy
0  42.167130 -37.790966 40.268490  0.265387 0.961699 0.068598  0.000000 0.000000 1 0 1.000000
0  47.000557 -36.525272 46.886230  0.112552 0.984918 -0.131406  0.000000 0.000000 1 0 1.000000
0  47.793621 -36.403893 41.799305  -0.058370 0.978058 0.199987  0.000000 0.000000 1 0 1.000000
  phy
0  47.000557 -36.525272 46.886230  0.112552 0.984918 -0.131406  0.000000 0.000000 1 0 1.000000
0  38.567986 -39.094116 47.799896  0.318957 0.919067 -0.231477  0.000000 0.000000 1 0 1.000000
0  44.148621 -37.901115 48.262451  -0.022373 -0.054195 -0.998280  0.000000 0.000000 1 0 1.000000
  phy
0  38.323845 -41.710735 47.392254  0.407410 -0.224590 -0.885198  0.000000 0.000000 1 0 1.000000
0  44.148621 -37.901115 48.262451  -0.022373 -0.054195 -0.998280  0.000000 0.000000 1 0 1.000000
0  38.567986 -39.094116 47.799896  0.318957 0.919067 -0.231477  0.000000 0.000000 1 0 1.000000
end
