version 1
nodes
0 "root" -1
1 "steering_wheel" 0
end
skeleton
time 0
0  0.000000 0.000000 0.000000  0.000000 -0.000000 0.000000
1  19.916300 17.934299 33.308498  0.000000 -0.000000 0.000000
end
triangles
  phy
0  -39.764473 -42.829723 46.947735  0.156670 -0.536759 -0.829062  0.000000 0.000000 1 0 1.000000
0  -44.157433 -37.896919 48.257782  0.022364 -0.054160 -0.998282  0.000000 0.000000 1 0 1.000000
0  -42.968441 -41.332211 47.233826  0.289489 -0.620410 -0.728895  0.000000 0.000000 1 0 1.000000
  phy
0  -42.968441 -41.332211 47.233826  0.289489 -0.620410 -0.728895  0.000000 0.000000 1 0 1.000000
0  -44.157433 -37.896919 48.257782  0.022364 -0.054160 -0.998282  0.000000 0.000000 1 0 1.000000
0  -46.172333 -39.581356 47.167606  0.418631 -0.584359 -0.695178  0.000000 0.000000 1 0 1.000000
  phy
0  -43.199715 -41.849705 45.273956  0.415223 -0.903718 -0.104326  0.000000 0.000000 1 0 1.000000
0  -39.764473 -42.829723 46.947735  0.156670 -0.536759 -0.829062  0.000000 0.000000 1 0 1.000000
0  -42.968441 -41.332211 47.233826  0.289489 -0.620410 -0.728895  0.000000 0.000000 1 0 1.000000
  phy
0  -42.968441 -41.332211 47.233826  0.289489 -0.620410 -0.728895  0.000000 0.000000 1 0 1.000000
0  -46.172333 -39.581356 47.167606  0.418631 -0.584359 -0.695178  0.000000 0.000000 1 0 1.000000
0  -43.199715 -41.849705 45.273956  0.415223 -0.903718 -0.104326  0.000000 0.000000 1 0 1.000000
  phy
0  -38.597000 -43.567596 41.288273  0.245687 -0.967263 0.063567  0.000000 0.000000 1 0 1.000000
0  -38.107956 -43.231430 42.485912  -0.996058 -0.083490 -0.029953  0.000000 0.000000 1 0 1.000000
0  -38.211834 -43.149197 45.802814  -0.919637 -0.372871 -0.123431  0.000000 0.000000 1 0 1.000000
  phy
0  -38.597000 -43.567596 41.288273  0.245687 -0.967263 0.063567  0.000000 0.000000 1 0 1.000000
0  -38.101513 -43.259315 41.750729  -0.713832 -0.693585 0.096866  0.000000 0.000000 1 0 1.000000
0  -38.107956 -43.231430 42.485912  -0.996058 -0.083490 -0.029953  0.000000 0.000000 1 0 1.000000
  phy
0  -38.090454 -43.017078 41.079082  -0.459106 -0.160140 0.873829  0.000000 0.000000 1 0 1.000000
0  -38.107956 -43.231430 42.485912  -0.996058 -0.083490 -0.029953  0.000000 0.000000 1 0 1.000000
0  -38.101513 -43.259315 41.750729  -0.713832 -0.693585 0.096866  0.000000 0.000000 1 0 1.000000
  phy
0  -38.090454 -43.017078 41.079082  -0.459106 -0.160140 0.873829  0.000000 0.000000 1 0 1.000000
0  -38.035259 -40.132309 41.145142  -0.893799 0.328548 0.305254  0.000000 0.000000 1 0 1.000000
0  -38.107956 -43.231430 42.485912  -0.996058 -0.083490 -0.029953  0.000000 0.000000 1 0 1.000000
  phy
0  -38.101513 -43.259315 41.750729  -0.713832 -0.693585 0.096866  0.000000 0.000000 1 0 1.000000
0  -38.597000 -43.567596 41.288273  0.245687 -0.967263 0.063567  0.000000 0.000000 1 0 1.000000
0  -38.090454 -43.017078 41.079082  -0.459106 -0.160140 0.873829  0.000000 0.000000 1 0 1.000000
  phy
0  -38.035259 -40.132309 41.145142  -0.893799 0.328548 0.305254  0.000000 0.000000 1 0 1.000000
0  -38.167614 -40.055210 45.362251  -0.998615 0.019814 -0.048735  0.000000 0.000000 1 0 1.000000
0  -38.107956 -43.231430 42.485912  -0.996058 -0.083490 -0.029953  0.000000 0.000000 1 0 1.000000
  phy
0  -38.167614 -40.055210 45.362251  -0.998615 0.019814 -0.048735  0.000000 0.000000 1 0 1.000000
0  -38.211834 -43.149197 45.802814  -0.919637 -0.372871 -0.123431  0.000000 0.000000 1 0 1.000000
0  -38.107956 -43.231430 42.485912  -0.996058 -0.083490 -0.029953  0.000000 0.000000 1 0 1.000000
  phy
0  -38.167614 -40.055210 45.362251  -0.998615 0.019814 -0.048735  0.000000 0.000000 1 0 1.000000
0  -38.332966 -41.706795 47.388218  -0.407435 -0.224648 -0.885173  0.000000 0.000000 1 0 1.000000
0  -38.211834 -43.149197 45.802814  -0.919637 -0.372871 -0.123431  0.000000 0.000000 1 0 1.000000
  phy
0  -38.167614 -40.055210 45.362251  -0.998615 0.019814 -0.048735  0.000000 0.000000 1 0 1.000000
0  -38.035259 -40.132309 41.145142  -0.893799 0.328548 0.305254  0.000000 0.000000 1 0 1.000000
0  -38.387863 -39.130264 46.694492  -0.827572 0.561344 0.004117  0.000000 0.000000 1 0 1.000000
  phy
0  -38.387863 -39.130264 46.694492  -0.827572 0.561344 0.004117  0.000000 0.000000 1 0 1.000000
0  -38.332966 -41.706795 47.388218  -0.407435 -0.224648 -0.885173  0.000000 0.000000 1 0 1.000000
0  -38.167614 -40.055210 45.362251  -0.998615 0.019814 -0.048735  0.000000 0.000000 1 0 1.000000
  phy
0  -44.036190 -41.607426 42.400143  0.484979 -0.871127 0.077031  0.000000 0.000000 1 0 1.000000
0  -38.597000 -43.567596 41.288273  0.245687 -0.967263 0.063567  0.000000 0.000000 1 0 1.000000
0  -43.199715 -41.849705 45.273956  0.415223 -0.903718 -0.104326  0.000000 0.000000 1 0 1.000000
  phy
0  -43.199715 -41.849705 45.273956  0.415223 -0.903718 -0.104326  0.000000 0.000000 1 0 1.000000
0  -38.597000 -43.567596 41.288273  0.245687 -0.967263 0.063567  0.000000 0.000000 1 0 1.000000
0  -39.103687 -43.182217 46.595390  0.205181 -0.969261 -0.135771  0.000000 0.000000 1 0 1.000000
  phy
0  -47.581734 -39.019688 45.108635  0.768379 -0.608901 -0.197062  0.000000 0.000000 1 0 1.000000
0  -44.036190 -41.607426 42.400143  0.484979 -0.871127 0.077031  0.000000 0.000000 1 0 1.000000
0  -43.199715 -41.849705 45.273956  0.415223 -0.903718 -0.104326  0.000000 0.000000 1 0 1.000000
  phy
0  -43.199715 -41.849705 45.273956  0.415223 -0.903718 -0.104326  0.000000 0.000000 1 0 1.000000
0  -46.954281 -39.239918 46.429592  0.755378 -0.550686 -0.355175  0.000000 0.000000 1 0 1.000000
0  -47.581734 -39.019688 45.108635  0.768379 -0.608901 -0.197062  0.000000 0.000000 1 0 1.000000
  phy
0  -43.199715 -41.849705 45.273956  0.415223 -0.903718 -0.104326  0.000000 0.000000 1 0 1.000000
0  -39.103687 -43.182217 46.595390  0.205181 -0.969261 -0.135771  0.000000 0.000000 1 0 1.000000
0  -39.764473 -42.829723 46.947735  0.156670 -0.536759 -0.829062  0.000000 0.000000 1 0 1.000000
  phy
0  -46.172333 -39.581356 47.167606  0.418631 -0.584359 -0.695178  0.000000 0.000000 1 0 1.000000
0  -46.954281 -39.239918 46.429592  0.755378 -0.550686 -0.355175  0.000000 0.000000 1 0 1.000000
0  -43.199715 -41.849705 45.273956  0.415223 -0.903718 -0.104326  0.000000 0.000000 1 0 1.000000
  phy
0  -48.396294 -36.443172 43.181580  0.966097 0.167411 -0.196543  0.000000 0.000000 1 0 1.000000
0  -47.581734 -39.019688 45.108635  0.768379 -0.608901 -0.197062  0.000000 0.000000 1 0 1.000000
0  -47.009148 -36.520397 46.881207  -0.135308 0.983681 -0.118590  0.000000 0.000000 1 0 1.000000
  phy
0  -47.009148 -36.520397 46.881207  -0.135308 0.983681 -0.118590  0.000000 0.000000 1 0 1.000000
0  -47.581734 -39.019688 45.108635  0.768379 -0.608901 -0.197062  0.000000 0.000000 1 0 1.000000
0  -46.954281 -39.239918 46.429592  0.755378 -0.550686 -0.355175  0.000000 0.000000 1 0 1.000000
  phy
0  -48.187195 -38.744408 42.983402  0.800849 -0.581502 0.143165  0.000000 0.000000 1 0 1.000000
0  -47.581734 -39.019688 45.108635  0.768379 -0.608901 -0.197062  0.000000 0.000000 1 0 1.000000
0  -48.396294 -36.443172 43.181580  0.966097 0.167411 -0.196543  0.000000 0.000000 1 0 1.000000
  phy
0  -48.187195 -38.744408 42.983402  0.800849 -0.581502 0.143165  0.000000 0.000000 1 0 1.000000
0  -44.036190 -41.607426 42.400143  0.484979 -0.871127 0.077031  0.000000 0.000000 1 0 1.000000
0  -47.581734 -39.019688 45.108635  0.768379 -0.608901 -0.197062  0.000000 0.000000 1 0 1.000000
  phy
0  -38.576897 -39.090279 47.795834  -0.324932 0.901867 -0.284702  0.000000 0.000000 1 0 1.000000
0  -38.332966 -41.706795 47.388218  -0.407435 -0.224648 -0.885173  0.000000 0.000000 1 0 1.000000
0  -38.387863 -39.130264 46.694492  -0.827572 0.561344 0.004117  0.000000 0.000000 1 0 1.000000
  phy
0  -38.387863 -39.130264 46.694492  -0.827572 0.561344 0.004117  0.000000 0.000000 1 0 1.000000
0  -38.035259 -40.132309 41.145142  -0.893799 0.328548 0.305254  0.000000 0.000000 1 0 1.000000
0  -39.873981 -38.502567 41.012928  -0.356775 0.934099 0.013036  0.000000 0.000000 1 0 1.000000
  phy
0  -38.576897 -39.090279 47.795834  -0.324932 0.901867 -0.284702  0.000000 0.000000 1 0 1.000000
0  -38.387863 -39.130264 46.694492  -0.827572 0.561344 0.004117  0.000000 0.000000 1 0 1.000000
0  -39.873981 -38.502567 41.012928  -0.356775 0.934099 0.013036  0.000000 0.000000 1 0 1.000000
  phy
0  -39.103687 -43.182217 46.595390  0.205181 -0.969261 -0.135771  0.000000 0.000000 1 0 1.000000
0  -38.332966 -41.706795 47.388218  -0.407435 -0.224648 -0.885173  0.000000 0.000000 1 0 1.000000
0  -39.764473 -42.829723 46.947735  0.156670 -0.536759 -0.829062  0.000000 0.000000 1 0 1.000000
  phy
0  -38.332966 -41.706795 47.388218  -0.407435 -0.224648 -0.885173  0.000000 0.000000 1 0 1.000000
0  -44.157433 -37.896919 48.257782  0.022364 -0.054160 -0.998282  0.000000 0.000000 1 0 1.000000
0  -39.764473 -42.829723 46.947735  0.156670 -0.536759 -0.829062  0.000000 0.000000 1 0 1.000000
  phy
0  -41.536690 -41.662582 40.220055  0.155901 -0.263910 0.951865  0.000000 0.000000 1 0 1.000000
0  -38.597000 -43.567596 41.288273  0.245687 -0.967263 0.063567  0.000000 0.000000 1 0 1.000000
0  -41.294556 -42.510422 41.012833  0.416585 -0.785510 0.457637  0.000000 0.000000 1 0 1.000000
  phy
0  -41.294556 -42.510422 41.012833  0.416585 -0.785510 0.457637  0.000000 0.000000 1 0 1.000000
0  -38.597000 -43.567596 41.288273  0.245687 -0.967263 0.063567  0.000000 0.000000 1 0 1.000000
0  -44.036190 -41.607426 42.400143  0.484979 -0.871127 0.077031  0.000000 0.000000 1 0 1.000000
  phy
0  -41.294556 -42.510422 41.012833  0.416585 -0.785510 0.457637  0.000000 0.000000 1 0 1.000000
0  -47.108059 -38.931652 41.078621  0.537724 -0.515351 0.667283  0.000000 0.000000 1 0 1.000000
0  -41.536690 -41.662582 40.220055  0.155901 -0.263910 0.951865  0.000000 0.000000 1 0 1.000000
  phy
0  -44.036190 -41.607426 42.400143  0.484979 -0.871127 0.077031  0.000000 0.000000 1 0 1.000000
0  -47.108059 -38.931652 41.078621  0.537724 -0.515351 0.667283  0.000000 0.000000 1 0 1.000000
0  -41.294556 -42.510422 41.012833  0.416585 -0.785510 0.457637  0.000000 0.000000 1 0 1.000000
  phy
0  -48.187195 -38.744408 42.983402  0.800849 -0.581502 0.143165  0.000000 0.000000 1 0 1.000000
0  -48.396294 -36.443172 43.181580  0.966097 0.167411 -0.196543  0.000000 0.000000 1 0 1.000000
0  -47.801640 -36.399124 41.794270  0.058230 0.978061 0.200015  0.000000 0.000000 1 0 1.000000
  phy
0  -47.108059 -38.931652 41.078621  0.537724 -0.515351 0.667283  0.000000 0.000000 1 0 1.000000
0  -48.187195 -38.744408 42.983402  0.800849 -0.581502 0.143165  0.000000 0.000000 1 0 1.000000
0  -47.801640 -36.399124 41.794270  0.058230 0.978061 0.200015  0.000000 0.000000 1 0 1.000000
  phy
0  -48.187195 -38.744408 42.983402  0.800849 -0.581502 0.143165  0.000000 0.000000 1 0 1.000000
0  -47.108059 -38.931652 41.078621  0.537724 -0.515351 0.667283  0.000000 0.000000 1 0 1.000000
0  -44.036190 -41.607426 42.400143  0.484979 -0.871127 0.077031  0.000000 0.000000 1 0 1.000000
  phy
0  -39.103687 -43.182217 46.595390  0.205181 -0.969261 -0.135771  0.000000 0.000000 1 0 1.000000
0  -38.597000 -43.567596 41.288273  0.245687 -0.967263 0.063567  0.000000 0.000000 1 0 1.000000
0  -38.211834 -43.149197 45.802814  -0.919637 -0.372871 -0.123431  0.000000 0.000000 1 0 1.000000
  phy
0  -38.211834 -43.149197 45.802814  -0.919637 -0.372871 -0.123431  0.000000 0.000000 1 0 1.000000
0  -38.332966 -41.706795 47.388218  -0.407435 -0.224648 -0.885173  0.000000 0.000000 1 0 1.000000
0  -39.103687 -43.182217 46.595390  0.205181 -0.969261 -0.135771  0.000000 0.000000 1 0 1.000000
  phy
0  -40.930908 -38.436512 40.264137  -0.439459 0.494085 0.750170  0.000000 0.000000 1 0 1.000000
0  -38.035259 -40.132309 41.145142  -0.893799 0.328548 0.305254  0.000000 0.000000 1 0 1.000000
0  -40.633724 -39.548557 39.878777  -0.083823 -0.007022 0.996456  0.000000 0.000000 1 0 1.000000
  phy
0  -38.035259 -40.132309 41.145142  -0.893799 0.328548 0.305254  0.000000 0.000000 1 0 1.000000
0  -40.930908 -38.436512 40.264137  -0.439459 0.494085 0.750170  0.000000 0.000000 1 0 1.000000
0  -39.873981 -38.502567 41.012928  -0.356775 0.934099 0.013036  0.000000 0.000000 1 0 1.000000
  phy
0  -38.035259 -40.132309 41.145142  -0.893799 0.328548 0.305254  0.000000 0.000000 1 0 1.000000
0  -38.090454 -43.017078 41.079082  -0.459106 -0.160140 0.873829  0.000000 0.000000 1 0 1.000000
0  -40.633724 -39.548557 39.878777  -0.083823 -0.007022 0.996456  0.000000 0.000000 1 0 1.000000
  phy
0  -42.175133 -37.786762 40.264069  -0.239401 0.956718 0.165461  0.000000 0.000000 1 0 1.000000
0  -46.810642 -36.850628 40.781326  0.193480 0.064056 0.979011  0.000000 0.000000 1 0 1.000000
0  -47.801640 -36.399124 41.794270  0.058230 0.978061 0.200015  0.000000 0.000000 1 0 1.000000
  phy
0  -46.810642 -36.850628 40.781326  0.193480 0.064056 0.979011  0.000000 0.000000 1 0 1.000000
0  -47.108059 -38.931652 41.078621  0.537724 -0.515351 0.667283  0.000000 0.000000 1 0 1.000000
0  -47.801640 -36.399124 41.794270  0.058230 0.978061 0.200015  0.000000 0.000000 1 0 1.000000
  phy
0  -46.810642 -36.850628 40.781326  0.193480 0.064056 0.979011  0.000000 0.000000 1 0 1.000000
0  -41.536690 -41.662582 40.220055  0.155901 -0.263910 0.951865  0.000000 0.000000 1 0 1.000000
0  -47.108059 -38.931652 41.078621  0.537724 -0.515351 0.667283  0.000000 0.000000 1 0 1.000000
  phy
0  -41.536690 -41.662582 40.220055  0.155901 -0.263910 0.951865  0.000000 0.000000 1 0 1.000000
0  -46.810642 -36.850628 40.781326  0.193480 0.064056 0.979011  0.000000 0.000000 1 0 1.000000
0  -40.633724 -39.548557 39.878777  -0.083823 -0.007022 0.996456  0.000000 0.000000 1 0 1.000000
  phy
0  -46.810642 -36.850628 40.781326  0.193480 0.064056 0.979011  0.000000 0.000000 1 0 1.000000
0  -42.175133 -37.786762 40.264069  -0.239401 0.956718 0.165461  0.000000 0.000000 1 0 1.000000
0  -40.633724 -39.548557 39.878777  -0.083823 -0.007022 0.996456  0.000000 0.000000 1 0 1.000000
  phy
0  -42.175133 -37.786762 40.264069  -0.239401 0.956718 0.165461  0.000000 0.000000 1 0 1.000000
0  -40.930908 -38.436512 40.264137  -0.439459 0.494085 0.750170  0.000000 0.000000 1 0 1.000000
0  -40.633724 -39.548557 39.878777  -0.083823 -0.007022 0.996456  0.000000 0.000000 1 0 1.000000
  phy
0  -40.930908 -38.436512 40.264137  -0.439459 0.494085 0.750170  0.000000 0.000000 1 0 1.000000
0  -42.175133 -37.786762 40.264069  -0.239401 0.956718 0.165461  0.000000 0.000000 1 0 1.000000
0  -39.873981 -38.502567 41.012928  -0.356775 0.934099 0.013036  0.000000 0.000000 1 0 1.000000
  phy
0  -46.172333 -39.581356 47.167606  0.418631 -0.584359 -0.695178  0.000000 0.000000 1 0 1.000000
0  -46.304539 -37.236031 47.883259  0.524316 -0.063926 -0.849121  0.000000 0.000000 1 0 1.000000
0  -46.954281 -39.239918 46.429592  0.755378 -0.550686 -0.355175  0.000000 0.000000 1 0 1.000000
  phy
0  -46.172333 -39.581356 47.167606  0.418631 -0.584359 -0.695178  0.000000 0.000000 1 0 1.000000
0  -44.157433 -37.896919 48.257782  0.022364 -0.054160 -0.998282  0.000000 0.000000 1 0 1.000000
0  -46.304539 -37.236031 47.883259  0.524316 -0.063926 -0.849121  0.000000 0.000000 1 0 1.000000
  phy
0  -46.304539 -37.236031 47.883259  0.524316 -0.063926 -0.849121  0.000000 0.000000 1 0 1.000000
0  -47.009148 -36.520397 46.881207  -0.135308 0.983681 -0.118590  0.000000 0.000000 1 0 1.000000
0  -46.954281 -39.239918 46.429592  0.755378 -0.550686 -0.355175  0.000000 0.000000 1 0 1.000000
  phy
0  -47.009148 -36.520397 46.881207  -0.135308 0.983681 -0.118590  0.000000 0.000000 1 0 1.000000
0  -46.304539 -37.236031 47.883259  0.524316 -0.063926 -0.849121  0.000000 0.000000 1 0 1.000000
0  -44.157433 -37.896919 48.257782  0.022364 -0.054160 -0.998282  0.000000 0.000000 1 0 1.000000
  phy
0  -48.396294 -36.443172 43.181580  0.966097 0.167411 -0.196543  0.000000 0.000000 1 0 1.000000
0  -47.009148 -36.520397 46.881207  -0.135308 0.983681 -0.118590  0.000000 0.000000 1 0 1.000000
0  -47.801640 -36.399124 41.794270  0.058230 0.978061 0.200015  0.000000 0.000000 1 0 1.000000
  phy
0  -38.090454 -43.017078 41.079082  -0.459106 -0.160140 0.873829  0.000000 0.000000 1 0 1.000000
0  -41.536690 -41.662582 40.220055  0.155901 -0.263910 0.951865  0.000000 0.000000 1 0 1.000000
0  -40.633724 -39.548557 39.878777  -0.083823 -0.007022 0.996456  0.000000 0.000000 1 0 1.000000
  phy
0  -41.536690 -41.662582 40.220055  0.155901 -0.263910 0.951865  0.000000 0.000000 1 0 1.000000
0  -38.090454 -43.017078 41.079082  -0.459106 -0.160140 0.873829  0.000000 0.000000 1 0 1.000000
0  -38.597000 -43.567596 41.288273  0.245687 -0.967263 0.063567  0.000000 0.000000 1 0 1.000000
  phy
0  -47.009148 -36.520397 46.881207  -0.135308 0.983681 -0.118590  0.000000 0.000000 1 0 1.000000
0  -38.576897 -39.090279 47.795834  -0.324932 0.901867 -0.284702  0.000000 0.000000 1 0 1.000000
0  -39.873981 -38.502567 41.012928  -0.356775 0.934099 0.013036  0.000000 0.000000 1 0 1.000000
  phy
0  -47.009148 -36.520397 46.881207  -0.135308 0.983681 -0.118590  0.000000 0.000000 1 0 1.000000
0  -39.873981 -38.502567 41.012928  -0.356775 0.934099 0.013036  0.000000 0.000000 1 0 1.000000
0  -42.175133 -37.786762 40.264069  -0.239401 0.956718 0.165461  0.000000 0.000000 1 0 1.000000
  phy
0  -47.009148 -36.520397 46.881207  -0.135308 0.983681 -0.118590  0.000000 0.000000 1 0 1.000000
0  -42.175133 -37.786762 40.264069  -0.239401 0.956718 0.165461  0.000000 0.000000 1 0 1.000000
0  -47.801640 -36.399124 41.794270  0.058230 0.978061 0.200015  0.000000 0.000000 1 0 1.000000
  phy
0  -38.576897 -39.090279 47.795834  -0.324932 0.901867 -0.284702  0.000000 0.000000 1 0 1.000000
0  -47.009148 -36.520397 46.881207  -0.135308 0.983681 -0.118590  0.000000 0.000000 1 0 1.000000
0  -44.157433 -37.896919 48.257782  0.022364 -0.054160 -0.998282  0.000000 0.000000 1 0 1.000000
  phy
0  -38.576897 -39.090279 47.795834  -0.324932 0.901867 -0.284702  0.000000 0.000000 1 0 1.000000
0  -44.157433 -37.896919 48.257782  0.022364 -0.054160 -0.998282  0.000000 0.000000 1 0 1.000000
0  -38.332966 -41.706795 47.388218  -0.407435 -0.224648 -0.885173  0.000000 0.000000 1 0 1.000000
end
