version 1
nodes
0 "root" -1
1 "steering_wheel" 0
end
skeleton
time 0
0  0.000000 0.000000 0.000000  0.000000 -0.000000 0.000000
1  19.916300 17.934299 33.308498  0.000000 -0.000000 0.000000
end
triangles
blackplastic
0  44.031967 -41.609592 42.402367  0.398692 -0.753778 0.522364  0.601581 0.302713 1 0 1.000000
0  38.636703 -43.646580 41.774754  -0.215513 -0.791980 0.571245  0.601581 0.302713 1 0 1.000000
0  38.647717 -43.635571 41.631615  0.349021 -0.905853 -0.240031  0.601581 0.302713 1 0 1.000000
blackplastic
0  38.592663 -43.569504 41.290283  0.348921 -0.898812 -0.265313  0.601581 0.302713 1 0 1.000000
0  38.526596 -43.404343 41.070068  -0.176786 0.623387 -0.761666  0.601581 0.302713 1 0 1.000000
0  40.574596 -42.556519 41.081078  -0.298138 0.526748 -0.796022  0.601581 0.302713 1 0 1.000000
blackplastic
0  40.574596 -42.556519 41.081078  -0.298138 0.526748 -0.796022  0.601581 0.302713 1 0 1.000000
0  40.739758 -42.864819 41.312302  0.365624 -0.880506 -0.301710  0.601581 0.302713 1 0 1.000000
0  38.592663 -43.569504 41.290283  0.348921 -0.898812 -0.265313  0.601581 0.302713 1 0 1.000000
blackplastic
0  38.592663 -43.569504 41.290283  0.348921 -0.898812 -0.265313  0.601581 0.302713 1 0 1.000000
0  40.739758 -42.864819 41.312302  0.365624 -0.880506 -0.301710  0.601581 0.302713 1 0 1.000000
0  38.647717 -43.635571 41.631615  0.349021 -0.905853 -0.240031  0.601581 0.302713 1 0 1.000000
blackplastic
0  38.647717 -43.635571 41.631615  0.349021 -0.905853 -0.240031  0.601581 0.302713 1 0 1.000000
0  40.739758 -42.864819 41.312302  0.365624 -0.880506 -0.301710  0.601581 0.302713 1 0 1.000000
0  44.098034 -41.466454 42.270237  0.552905 -0.800143 -0.232523  0.601581 0.302713 1 0 1.000000
blackplastic
0  38.647717 -43.635571 41.631615  0.349021 -0.905853 -0.240031  0.601581 0.302713 1 0 1.000000
0  44.098034 -41.466454 42.270237  0.552905 -0.800143 -0.232523  0.601581 0.302713 1 0 1.000000
0  44.031967 -41.609592 42.402367  0.398692 -0.753778 0.522364  0.601581 0.302713 1 0 1.000000
blackplastic
0  48.183018 -38.746799 42.985935  0.666284 -0.528606 0.525967  0.601581 0.302713 1 0 1.000000
0  44.031967 -41.609592 42.402367  0.398692 -0.753778 0.522364  0.601581 0.302713 1 0 1.000000
0  44.098034 -41.466454 42.270237  0.552905 -0.800143 -0.232523  0.601581 0.302713 1 0 1.000000
blackplastic
0  44.098034 -41.466454 42.270237  0.552905 -0.800143 -0.232523  0.601581 0.302713 1 0 1.000000
0  48.183018 -38.746799 42.842796  0.834360 -0.490426 -0.251646  0.601581 0.302713 1 0 1.000000
0  48.183018 -38.746799 42.985935  0.666284 -0.528606 0.525967  0.601581 0.302713 1 0 1.000000
blackplastic
0  44.098034 -41.466454 42.270237  0.552905 -0.800143 -0.232523  0.601581 0.302713 1 0 1.000000
0  47.103966 -38.933983 41.081078  0.601278 -0.509784 -0.615293  0.601581 0.302713 1 0 1.000000
0  48.183018 -38.746799 42.842796  0.834360 -0.490426 -0.251646  0.601581 0.302713 1 0 1.000000
blackplastic
0  41.532528 -41.664646 40.222240  0.366023 -0.690609 -0.623767  0.601581 0.302713 1 0 1.000000
0  47.103966 -38.933983 41.081078  0.601278 -0.509784 -0.615293  0.601581 0.302713 1 0 1.000000
0  44.098034 -41.466454 42.270237  0.552905 -0.800143 -0.232523  0.601581 0.302713 1 0 1.000000
blackplastic
0  41.290295 -42.512474 41.015015  0.377772 -0.863589 -0.333919  0.601581 0.302713 1 0 1.000000
0  41.532528 -41.664646 40.222240  0.366023 -0.690609 -0.623767  0.601581 0.302713 1 0 1.000000
0  44.098034 -41.466454 42.270237  0.552905 -0.800143 -0.232523  0.601581 0.302713 1 0 1.000000
blackplastic
0  41.532528 -41.664646 40.222240  0.366023 -0.690609 -0.623767  0.601581 0.302713 1 0 1.000000
0  41.290295 -42.512474 41.015015  0.377772 -0.863589 -0.333919  0.601581 0.302713 1 0 1.000000
0  41.015026 -42.303268 40.970970  -0.863383 0.446071 -0.235776  0.601581 0.302713 1 0 1.000000
blackplastic
0  41.290295 -42.512474 41.015015  0.377772 -0.863589 -0.333919  0.601581 0.302713 1 0 1.000000
0  40.739758 -42.864819 41.312302  0.365624 -0.880506 -0.301710  0.601581 0.302713 1 0 1.000000
0  41.015026 -42.303268 40.970970  -0.863383 0.446071 -0.235776  0.601581 0.302713 1 0 1.000000
blackplastic
0  40.739758 -42.864819 41.312302  0.365624 -0.880506 -0.301710  0.601581 0.302713 1 0 1.000000
0  40.574596 -42.556519 41.081078  -0.298138 0.526748 -0.796022  0.601581 0.302713 1 0 1.000000
0  41.015026 -42.303268 40.970970  -0.863383 0.446071 -0.235776  0.601581 0.302713 1 0 1.000000
blackplastic
0  40.739758 -42.864819 41.312302  0.365624 -0.880506 -0.301710  0.601581 0.302713 1 0 1.000000
0  41.290295 -42.512474 41.015015  0.377772 -0.863589 -0.333919  0.601581 0.302713 1 0 1.000000
0  44.098034 -41.466454 42.270237  0.552905 -0.800143 -0.232523  0.601581 0.302713 1 0 1.000000
blackplastic
0  41.015026 -42.303268 40.970970  -0.863383 0.446071 -0.235776  0.601581 0.302713 1 0 1.000000
0  41.213219 -41.532516 40.277294  -0.962861 0.251138 0.099134  0.601581 0.302713 1 0 1.000000
0  41.532528 -41.664646 40.222240  0.366023 -0.690609 -0.623767  0.601581 0.302713 1 0 1.000000
blackplastic
0  38.031113 -40.134155 41.147141  -0.001056 0.023291 -0.999728  0.601581 0.302713 1 0 1.000000
0  39.429478 -39.682713 41.158154  -0.004026 0.024156 -0.999700  0.601581 0.302713 1 0 1.000000
0  37.954037 -42.622581 41.092087  -0.000808 0.022810 -0.999740  0.601581 0.302713 1 0 1.000000
blackplastic
0  40.387413 -39.847874 40.024048  -0.745753 -0.653947 -0.127303  0.601581 0.302713 1 0 1.000000
0  41.213219 -41.532516 40.277294  -0.817530 -0.260103 -0.513800  0.601581 0.302713 1 0 1.000000
0  40.046078 -39.770798 41.092087  -0.743787 -0.347086 -0.571237  0.601581 0.302713 1 0 1.000000
blackplastic
0  40.046078 -39.770798 41.092087  -0.743787 -0.347086 -0.571237  0.601581 0.302713 1 0 1.000000
0  41.213219 -41.532516 40.277294  -0.817530 -0.260103 -0.513800  0.601581 0.302713 1 0 1.000000
0  41.015026 -42.303268 40.970970  -0.548145 -0.150913 -0.822655  0.601581 0.302713 1 0 1.000000
blackplastic
0  40.574596 -42.556519 41.081078  -0.035205 0.017885 -0.999220  0.601581 0.302713 1 0 1.000000
0  40.046078 -39.770798 41.092087  -0.743787 -0.347086 -0.571237  0.601581 0.302713 1 0 1.000000
0  41.015026 -42.303268 40.970970  -0.548145 -0.150913 -0.822655  0.601581 0.302713 1 0 1.000000
blackplastic
0  40.574596 -42.556519 41.081078  -0.035205 0.017885 -0.999220  0.601581 0.302713 1 0 1.000000
0  39.429478 -39.682713 41.158154  -0.004026 0.024156 -0.999700  0.601581 0.302713 1 0 1.000000
0  40.046078 -39.770798 41.092087  -0.743787 -0.347086 -0.571237  0.601581 0.302713 1 0 1.000000
blackplastic
0  39.429478 -39.682713 41.158154  -0.004026 0.024156 -0.999700  0.601581 0.302713 1 0 1.000000
0  40.574596 -42.556519 41.081078  -0.035205 0.017885 -0.999220  0.601581 0.302713 1 0 1.000000
0  38.526596 -43.404343 41.070068  -0.004904 0.024034 -0.999699  0.601581 0.302713 1 0 1.000000
blackplastic
0  39.429478 -39.682713 41.158154  -0.004026 0.024156 -0.999700  0.601581 0.302713 1 0 1.000000
0  38.526596 -43.404343 41.070068  -0.004904 0.024034 -0.999699  0.601581 0.302713 1 0 1.000000
0  37.954037 -42.622581 41.092087  -0.000808 0.022810 -0.999740  0.601581 0.302713 1 0 1.000000
blackplastic
0  38.526596 -43.404343 41.070068  -0.004904 0.024034 -0.999699  0.601581 0.302713 1 0 1.000000
0  38.086166 -43.018967 41.081078  -0.000593 0.023046 -0.999734  0.601581 0.302713 1 0 1.000000
0  37.954037 -42.622581 41.092087  -0.000808 0.022810 -0.999740  0.601581 0.302713 1 0 1.000000
blackplastic
0  39.748791 -39.110153 41.048046  -0.616459 -0.327424 -0.716081  0.601581 0.302713 1 0 1.000000
0  39.429478 -39.682713 41.158154  -0.004104 0.024131 -0.999700  0.601581 0.302713 1 0 1.000000
0  38.978039 -39.506542 41.433422  -0.468646 0.883362 -0.006563  0.601581 0.302713 1 0 1.000000
blackplastic
0  38.978039 -39.506542 41.433422  -0.468646 0.883362 -0.006563  0.601581 0.302713 1 0 1.000000
0  39.429478 -39.682713 41.158154  -0.004104 0.024131 -0.999700  0.601581 0.302713 1 0 1.000000
0  38.031113 -40.134155 41.147141  -0.143863 -0.126219 -0.981515  0.601581 0.302713 1 0 1.000000
blackplastic
0  38.053135 -40.090111 41.400391  -0.471531 0.881826 -0.006517  0.601581 0.302713 1 0 1.000000
0  38.978039 -39.506542 41.433422  -0.468646 0.883362 -0.006563  0.601581 0.302713 1 0 1.000000
0  38.031113 -40.134155 41.147141  -0.143863 -0.126219 -0.981515  0.601581 0.302713 1 0 1.000000
blackplastic
0  38.053135 -40.090111 41.400391  -0.471531 0.881826 -0.006517  0.601581 0.302713 1 0 1.000000
0  38.163242 -40.057079 45.364258  -0.532453 0.846460 0.000325  0.601581 0.302713 1 0 1.000000
0  38.978039 -39.506542 41.433422  -0.468646 0.883362 -0.006563  0.601581 0.302713 1 0 1.000000
blackplastic
0  39.671715 -38.900951 41.092087  -0.724233 0.106612 -0.681264  0.601581 0.302713 1 0 1.000000
0  38.978039 -39.506542 41.433422  -0.468646 0.883362 -0.006563  0.601581 0.302713 1 0 1.000000
0  38.163242 -40.057079 45.364258  -0.532453 0.846460 0.000325  0.601581 0.302713 1 0 1.000000
blackplastic
0  38.163242 -40.057079 45.364258  -0.532453 0.846460 0.000325  0.601581 0.302713 1 0 1.000000
0  38.251328 -39.770798 46.333202  -0.931327 0.348332 -0.106280  0.601581 0.302713 1 0 1.000000
0  39.671715 -38.900951 41.092087  -0.724233 0.106612 -0.681264  0.601581 0.302713 1 0 1.000000
blackplastic
0  39.671715 -38.900951 41.092087  -0.724233 0.106612 -0.681264  0.601581 0.302713 1 0 1.000000
0  38.251328 -39.770798 46.333202  -0.931327 0.348332 -0.106280  0.601581 0.302713 1 0 1.000000
0  38.383457 -39.132175 46.696556  -0.989412 0.080071 0.121050  0.601581 0.302713 1 0 1.000000
blackplastic
0  38.383457 -39.132175 46.696556  -0.989412 0.080071 0.121050  0.601581 0.302713 1 0 1.000000
0  39.869907 -38.504562 41.015015  -0.668150 0.142807 -0.730193  0.601581 0.302713 1 0 1.000000
0  39.671715 -38.900951 41.092087  -0.724233 0.106612 -0.681264  0.601581 0.302713 1 0 1.000000
blackplastic
0  39.671715 -38.900951 41.092087  -0.724233 0.106612 -0.681264  0.601581 0.302713 1 0 1.000000
0  39.869907 -38.504562 41.015015  -0.668150 0.142807 -0.730193  0.601581 0.302713 1 0 1.000000
0  40.145176 -38.713768 40.574585  -0.569522 0.144238 -0.809222  0.601581 0.302713 1 0 1.000000
blackplastic
0  40.145176 -38.713768 40.574585  -0.569522 0.144238 -0.809222  0.601581 0.302713 1 0 1.000000
0  39.869907 -38.504562 41.015015  -0.668150 0.142807 -0.730193  0.601581 0.302713 1 0 1.000000
0  40.882896 -38.196262 40.376389  -0.157986 0.148760 -0.976171  0.601581 0.302713 1 0 1.000000
blackplastic
0  40.882896 -38.196262 40.376389  -0.157986 0.148760 -0.976171  0.601581 0.302713 1 0 1.000000
0  40.926937 -38.438499 40.266281  -0.165949 0.148420 -0.974901  0.601581 0.302713 1 0 1.000000
0  40.145176 -38.713768 40.574585  -0.569522 0.144238 -0.809222  0.601581 0.302713 1 0 1.000000
blackplastic
0  40.926937 -38.438499 40.266281  -0.165949 0.148420 -0.974901  0.601581 0.302713 1 0 1.000000
0  40.882896 -38.196262 40.376389  -0.157986 0.148760 -0.976171  0.601581 0.302713 1 0 1.000000
0  42.226208 -38.042114 40.156174  -0.003003 0.157860 -0.987457  0.601581 0.302713 1 0 1.000000
blackplastic
0  40.882896 -38.196262 40.376389  -0.157986 0.148760 -0.976171  0.601581 0.302713 1 0 1.000000
0  42.171154 -37.788864 40.266281  0.005064 0.158412 -0.987360  0.601581 0.302713 1 0 1.000000
0  42.226208 -38.042114 40.156174  -0.003003 0.157860 -0.987457  0.601581 0.302713 1 0 1.000000
blackplastic
0  42.226208 -38.042114 40.156174  -0.003003 0.157860 -0.987457  0.601581 0.302713 1 0 1.000000
0  42.171154 -37.788864 40.266281  0.005064 0.158412 -0.987360  0.601581 0.302713 1 0 1.000000
0  46.751621 -36.687790 40.816818  0.261689 0.224104 -0.938774  0.601581 0.302713 1 0 1.000000
blackplastic
0  42.171154 -37.788864 40.266281  0.005064 0.158412 -0.987360  0.601581 0.302713 1 0 1.000000
0  46.641514 -36.445553 40.915916  0.260697 0.223761 -0.939132  0.601581 0.302713 1 0 1.000000
0  46.751621 -36.687790 40.816818  0.261689 0.224104 -0.938774  0.601581 0.302713 1 0 1.000000
blackplastic
0  47.797642 -36.401512 41.796776  0.883591 0.376143 -0.278895  0.601581 0.302713 1 0 1.000000
0  46.751621 -36.687790 40.816818  0.261689 0.224104 -0.938774  0.601581 0.302713 1 0 1.000000
0  46.641514 -36.445553 40.915916  0.260697 0.223761 -0.939132  0.601581 0.302713 1 0 1.000000
blackplastic
0  46.641514 -36.445553 40.915916  0.260697 0.223761 -0.939132  0.601581 0.302713 1 0 1.000000
0  47.654503 -36.170284 41.840820  0.795579 0.365235 -0.483382  0.601581 0.302713 1 0 1.000000
0  47.797642 -36.401512 41.796776  0.883591 0.376143 -0.278895  0.601581 0.302713 1 0 1.000000
blackplastic
0  48.315147 -36.280392 42.996948  0.906324 0.419438 -0.051473  0.601581 0.302713 1 0 1.000000
0  47.797642 -36.401512 41.796776  0.883591 0.376143 -0.278895  0.601581 0.302713 1 0 1.000000
0  47.654503 -36.170284 41.840820  0.795579 0.365235 -0.483382  0.601581 0.302713 1 0 1.000000
blackplastic
0  38.978039 -39.506542 41.433422  -0.468646 0.883362 -0.006563  0.601581 0.302713 1 0 1.000000
0  39.671715 -38.900951 41.092087  -0.724233 0.106612 -0.681264  0.601581 0.302713 1 0 1.000000
0  39.748791 -39.110153 41.048046  -0.616459 -0.327424 -0.716081  0.601581 0.302713 1 0 1.000000
blackplastic
0  39.671715 -38.900951 41.092087  -0.724233 0.106612 -0.681264  0.601581 0.302713 1 0 1.000000
0  40.145176 -38.823875 40.530540  -0.645063 0.179164 -0.742829  0.601581 0.302713 1 0 1.000000
0  39.748791 -39.110153 41.048046  -0.616459 -0.327424 -0.716081  0.601581 0.302713 1 0 1.000000
blackplastic
0  40.145176 -38.823875 40.530540  -0.645063 0.179164 -0.742829  0.601581 0.302713 1 0 1.000000
0  39.671715 -38.900951 41.092087  -0.724233 0.106612 -0.681264  0.601581 0.302713 1 0 1.000000
0  40.145176 -38.713768 40.574585  -0.551738 0.686940 -0.472968  0.601581 0.302713 1 0 1.000000
blackplastic
0  40.959972 -38.603661 40.200218  -0.373517 0.178894 -0.910210  0.601581 0.302713 1 0 1.000000
0  40.145176 -38.823875 40.530540  -0.645063 0.179164 -0.742829  0.601581 0.302713 1 0 1.000000
0  40.145176 -38.713768 40.574585  -0.551738 0.686940 -0.472968  0.601581 0.302713 1 0 1.000000
blackplastic
0  40.145176 -38.713768 40.574585  -0.551738 0.686940 -0.472968  0.601581 0.302713 1 0 1.000000
0  40.926937 -38.438499 40.266281  -0.291350 0.721539 -0.628090  0.601581 0.302713 1 0 1.000000
0  40.959972 -38.603661 40.200218  -0.373517 0.178894 -0.910210  0.601581 0.302713 1 0 1.000000
blackplastic
0  42.259239 -38.196262 40.101120  0.090954 0.020144 -0.995651  0.601581 0.302713 1 0 1.000000
0  40.959972 -38.603661 40.200218  -0.373517 0.178894 -0.910210  0.601581 0.302713 1 0 1.000000
0  40.926937 -38.438499 40.266281  -0.291350 0.721539 -0.628090  0.601581 0.302713 1 0 1.000000
blackplastic
0  40.926937 -38.438499 40.266281  -0.291350 0.721539 -0.628090  0.601581 0.302713 1 0 1.000000
0  42.226208 -38.042114 40.156174  -0.199424 0.761119 -0.617194  0.601581 0.302713 1 0 1.000000
0  42.259239 -38.196262 40.101120  0.090954 0.020144 -0.995651  0.601581 0.302713 1 0 1.000000
blackplastic
0  46.806675 -36.852951 40.783787  0.358054 0.011194 -0.933634  0.601581 0.302713 1 0 1.000000
0  42.259239 -38.196262 40.101120  0.090954 0.020144 -0.995651  0.601581 0.302713 1 0 1.000000
0  42.226208 -38.042114 40.156174  -0.199424 0.761119 -0.617194  0.601581 0.302713 1 0 1.000000
blackplastic
0  42.226208 -38.042114 40.156174  -0.199424 0.761119 -0.617194  0.601581 0.302713 1 0 1.000000
0  46.751621 -36.687790 40.816818  -0.018652 0.811091 -0.584623  0.601581 0.302713 1 0 1.000000
0  46.806675 -36.852951 40.783787  0.358054 0.011194 -0.933634  0.601581 0.302713 1 0 1.000000
blackplastic
0  40.959972 -38.603661 40.200218  -0.373517 0.178894 -0.910210  0.601581 0.302713 1 0 1.000000
0  40.629650 -39.550583 39.880905  0.128145 -0.004555 -0.991745  0.601581 0.302713 1 0 1.000000
0  40.145176 -38.823875 40.530540  -0.645063 0.179164 -0.742829  0.601581 0.302713 1 0 1.000000
blackplastic
0  42.259239 -38.196262 40.101120  0.090954 0.020144 -0.995651  0.601581 0.302713 1 0 1.000000
0  40.629650 -39.550583 39.880905  0.128145 -0.004555 -0.991745  0.601581 0.302713 1 0 1.000000
0  40.959972 -38.603661 40.200218  -0.373517 0.178894 -0.910210  0.601581 0.302713 1 0 1.000000
blackplastic
0  48.183018 -38.746799 42.985935  0.797126 -0.335198 0.502227  0.601581 0.302713 1 0 1.000000
0  48.183018 -38.746799 42.842796  0.919699 -0.236122 -0.313688  0.601581 0.302713 1 0 1.000000
0  48.392223 -36.445553 43.029980  0.975214 0.116190 -0.188303  0.601581 0.302713 1 0 1.000000
blackplastic
0  48.392223 -36.445553 43.184128  0.926297 0.107797 0.361046  0.601581 0.302713 1 0 1.000000
0  48.183018 -38.746799 42.985935  0.797126 -0.335198 0.502227  0.601581 0.302713 1 0 1.000000
0  48.392223 -36.445553 43.029980  0.975214 0.116190 -0.188303  0.601581 0.302713 1 0 1.000000
blackplastic
0  48.304134 -36.291405 43.184128  0.406233 0.913268 0.030280  0.601581 0.302713 1 0 1.000000
0  48.392223 -36.445553 43.184128  0.926297 0.107797 0.361046  0.601581 0.302713 1 0 1.000000
0  48.392223 -36.445553 43.029980  0.975214 0.116190 -0.188303  0.601581 0.302713 1 0 1.000000
blackplastic
0  48.392223 -36.445553 43.029980  0.975214 0.116190 -0.188303  0.601581 0.302713 1 0 1.000000
0  48.315147 -36.280392 42.996948  0.464336 0.881396 -0.086791  0.601581 0.302713 1 0 1.000000
0  48.304134 -36.291405 43.184128  0.406233 0.913268 0.030280  0.601581 0.302713 1 0 1.000000
blackplastic
0  48.315147 -36.280392 42.996948  0.464336 0.881396 -0.086791  0.601581 0.302713 1 0 1.000000
0  48.392223 -36.445553 43.029980  0.975214 0.116190 -0.188303  0.601581 0.302713 1 0 1.000000
0  47.863705 -36.566673 41.774754  0.940321 0.022368 -0.339553  0.601581 0.302713 1 0 1.000000
blackplastic
0  47.797642 -36.401512 41.796776  0.472779 0.859481 -0.194350  0.601581 0.302713 1 0 1.000000
0  48.315147 -36.280392 42.996948  0.464336 0.881396 -0.086791  0.601581 0.302713 1 0 1.000000
0  47.863705 -36.566673 41.774754  0.940321 0.022368 -0.339553  0.601581 0.302713 1 0 1.000000
blackplastic
0  46.751621 -36.687790 40.816818  -0.018652 0.811091 -0.584623  0.601581 0.302713 1 0 1.000000
0  47.797642 -36.401512 41.796776  0.472779 0.859481 -0.194350  0.601581 0.302713 1 0 1.000000
0  47.863705 -36.566673 41.774754  0.940321 0.022368 -0.339553  0.601581 0.302713 1 0 1.000000
blackplastic
0  47.863705 -36.566673 41.774754  0.940321 0.022368 -0.339553  0.601581 0.302713 1 0 1.000000
0  46.806675 -36.852951 40.783787  0.358054 0.011194 -0.933634  0.601581 0.302713 1 0 1.000000
0  46.751621 -36.687790 40.816818  -0.018652 0.811091 -0.584623  0.601581 0.302713 1 0 1.000000
blackplastic
0  47.103966 -38.933983 41.081078  0.583530 -0.234577 -0.777475  0.601581 0.302713 1 0 1.000000
0  46.806675 -36.852951 40.783787  0.358054 0.011194 -0.933634  0.601581 0.302713 1 0 1.000000
0  47.863705 -36.566673 41.774754  0.940321 0.022368 -0.339553  0.601581 0.302713 1 0 1.000000
blackplastic
0  46.806675 -36.852951 40.783787  0.358054 0.011194 -0.933634  0.601581 0.302713 1 0 1.000000
0  47.103966 -38.933983 41.081078  0.583530 -0.234577 -0.777475  0.601581 0.302713 1 0 1.000000
0  42.259239 -38.196262 40.101120  0.090954 0.020144 -0.995651  0.601581 0.302713 1 0 1.000000
blackplastic
0  42.259239 -38.196262 40.101120  0.090954 0.020144 -0.995651  0.601581 0.302713 1 0 1.000000
0  47.103966 -38.933983 41.081078  0.583530 -0.234577 -0.777475  0.601581 0.302713 1 0 1.000000
0  41.532528 -41.664646 40.222240  0.132754 -0.032150 -0.990627  0.601581 0.302713 1 0 1.000000
blackplastic
0  40.629650 -39.550583 39.880905  0.128145 -0.004555 -0.991745  0.601581 0.302713 1 0 1.000000
0  42.259239 -38.196262 40.101120  0.090954 0.020144 -0.995651  0.601581 0.302713 1 0 1.000000
0  41.532528 -41.664646 40.222240  0.132754 -0.032150 -0.990627  0.601581 0.302713 1 0 1.000000
blackplastic
0  41.532528 -41.664646 40.222240  0.132754 -0.032150 -0.990627  0.601581 0.302713 1 0 1.000000
0  41.213219 -41.532516 40.277294  -0.980941 -0.108135 0.161439  0.601581 0.302713 1 0 1.000000
0  40.629650 -39.550583 39.880905  0.128145 -0.004555 -0.991745  0.601581 0.302713 1 0 1.000000
blackplastic
0  41.213219 -41.532516 40.277294  -0.980941 -0.108135 0.161439  0.601581 0.302713 1 0 1.000000
0  40.387413 -39.847874 40.024048  -0.890632 -0.407060 -0.202674  0.601581 0.302713 1 0 1.000000
0  40.629650 -39.550583 39.880905  0.128145 -0.004555 -0.991745  0.601581 0.302713 1 0 1.000000
blackplastic
0  40.387413 -39.847874 40.024048  -0.890632 -0.407060 -0.202674  0.601581 0.302713 1 0 1.000000
0  40.145176 -38.823875 40.530540  -0.645063 0.179164 -0.742829  0.601581 0.302713 1 0 1.000000
0  40.629650 -39.550583 39.880905  0.128145 -0.004555 -0.991745  0.601581 0.302713 1 0 1.000000
blackplastic
0  40.387413 -39.847874 40.024048  -0.890632 -0.407060 -0.202674  0.601581 0.302713 1 0 1.000000
0  40.046078 -39.770798 41.092087  -0.616358 -0.327700 -0.716041  0.601581 0.302713 1 0 1.000000
0  40.145176 -38.823875 40.530540  -0.645063 0.179164 -0.742829  0.601581 0.302713 1 0 1.000000
blackplastic
0  40.046078 -39.770798 41.092087  -0.616358 -0.327700 -0.716041  0.601581 0.302713 1 0 1.000000
0  39.748791 -39.110153 41.048046  -0.616459 -0.327424 -0.716081  0.601581 0.302713 1 0 1.000000
0  40.145176 -38.823875 40.530540  -0.645063 0.179164 -0.742829  0.601581 0.302713 1 0 1.000000
blackplastic
0  40.046078 -39.770798 41.092087  -0.616358 -0.327700 -0.716041  0.601581 0.302713 1 0 1.000000
0  39.429478 -39.682713 41.158154  -0.004104 0.024131 -0.999700  0.601581 0.302713 1 0 1.000000
0  39.748791 -39.110153 41.048046  -0.616459 -0.327424 -0.716081  0.601581 0.302713 1 0 1.000000
blackplastic
0  48.392223 -36.445553 43.029980  0.975214 0.116190 -0.188303  0.601581 0.302713 1 0 1.000000
0  48.183018 -38.746799 42.842796  0.919699 -0.236122 -0.313688  0.601581 0.302713 1 0 1.000000
0  47.863705 -36.566673 41.774754  0.940321 0.022368 -0.339553  0.601581 0.302713 1 0 1.000000
blackplastic
0  47.863705 -36.566673 41.774754  0.940321 0.022368 -0.339553  0.601581 0.302713 1 0 1.000000
0  48.183018 -38.746799 42.842796  0.919699 -0.236122 -0.313688  0.601581 0.302713 1 0 1.000000
0  47.103966 -38.933983 41.081078  0.583530 -0.234577 -0.777475  0.601581 0.302713 1 0 1.000000
blackplastic
0  37.921005 -42.963913 41.840820  -0.966235 -0.257661 0.001340  0.601581 0.302713 1 0 1.000000
0  38.031113 -42.842796 45.738621  -0.997368 0.010470 0.071740  0.601581 0.302713 1 0 1.000000
0  37.898983 -42.842796 41.345337  -0.998875 -0.046182 0.010736  0.601581 0.302713 1 0 1.000000
blackplastic
0  37.898983 -42.842796 41.345337  -0.998875 -0.046182 0.010736  0.601581 0.302713 1 0 1.000000
0  37.954037 -42.622581 41.092087  -0.243049 0.046293 -0.968909  0.601581 0.302713 1 0 1.000000
0  38.086166 -43.018967 41.081078  0.302825 0.291546 -0.907357  0.601581 0.302713 1 0 1.000000
blackplastic
0  38.383457 -39.132175 46.696556  -0.989411 0.079997 0.121107  0.601581 0.302713 1 0 1.000000
0  38.251328 -39.770798 46.333202  -0.992560 0.072691 0.097677  0.601581 0.302713 1 0 1.000000
0  38.581650 -39.121166 47.863693  -0.604596 0.057448 0.794458  0.601581 0.302713 1 0 1.000000
blackplastic
0  38.251328 -39.770798 46.333202  -0.992560 0.072691 0.097677  0.601581 0.302713 1 0 1.000000
0  38.240318 -41.554539 47.247093  -0.989413 0.047695 0.137070  0.601581 0.302713 1 0 1.000000
0  38.581650 -39.121166 47.863693  -0.604596 0.057448 0.794458  0.601581 0.302713 1 0 1.000000
blackplastic
0  38.119198 -42.446411 46.608471  -0.993670 0.032389 0.107568  0.601581 0.302713 1 0 1.000000
0  38.240318 -41.554539 47.247093  -0.989413 0.047695 0.137070  0.601581 0.302713 1 0 1.000000
0  38.251328 -39.770798 46.333202  -0.992560 0.072691 0.097677  0.601581 0.302713 1 0 1.000000
blackplastic
0  38.119198 -42.446411 46.608471  -0.993670 0.032389 0.107568  0.601581 0.302713 1 0 1.000000
0  38.251328 -39.770798 46.333202  -0.992560 0.072691 0.097677  0.601581 0.302713 1 0 1.000000
0  38.163242 -40.057079 45.364258  -0.994632 0.073171 0.073165  0.601581 0.302713 1 0 1.000000
blackplastic
0  38.031113 -42.842796 45.738621  -0.997368 0.010470 0.071740  0.601581 0.302713 1 0 1.000000
0  38.119198 -42.446411 46.608471  -0.993670 0.032389 0.107568  0.601581 0.302713 1 0 1.000000
0  38.163242 -40.057079 45.364258  -0.994632 0.073171 0.073165  0.601581 0.302713 1 0 1.000000
blackplastic
0  37.898983 -42.842796 41.345337  -0.998875 -0.046182 0.010736  0.601581 0.302713 1 0 1.000000
0  38.031113 -42.842796 45.738621  -0.997368 0.010470 0.071740  0.601581 0.302713 1 0 1.000000
0  38.163242 -40.057079 45.364258  -0.994632 0.073171 0.073165  0.601581 0.302713 1 0 1.000000
blackplastic
0  38.163242 -40.057079 45.364258  -0.994632 0.073171 0.073165  0.601581 0.302713 1 0 1.000000
0  38.053135 -40.090111 41.400391  -0.996074 0.086227 0.020015  0.601581 0.302713 1 0 1.000000
0  37.898983 -42.842796 41.345337  -0.998875 -0.046182 0.010736  0.601581 0.302713 1 0 1.000000
blackplastic
0  37.898983 -42.842796 41.345337  -0.998875 -0.046182 0.010736  0.601581 0.302713 1 0 1.000000
0  38.053135 -40.090111 41.400391  -0.996074 0.086227 0.020015  0.601581 0.302713 1 0 1.000000
0  37.954037 -42.622581 41.092087  -0.243049 0.046293 -0.968909  0.601581 0.302713 1 0 1.000000
blackplastic
0  38.053135 -40.090111 41.400391  -0.996074 0.086227 0.020015  0.601581 0.302713 1 0 1.000000
0  38.031113 -40.134155 41.147141  -0.143782 -0.126175 -0.981533  0.601581 0.302713 1 0 1.000000
0  37.954037 -42.622581 41.092087  -0.243049 0.046293 -0.968909  0.601581 0.302713 1 0 1.000000
blackplastic
0  38.064144 -42.985935 45.771652  -0.342786 -0.912990 0.221238  0.601581 0.302713 1 0 1.000000
0  38.174252 -42.589550 46.696556  -0.101404 -0.662911 0.741799  0.601581 0.302713 1 0 1.000000
0  38.119198 -42.446411 46.608471  -0.954235 -0.210147 0.212776  0.601581 0.302713 1 0 1.000000
blackplastic
0  38.119198 -42.446411 46.608471  -0.954235 -0.210147 0.212776  0.601581 0.302713 1 0 1.000000
0  38.031113 -42.842796 45.738621  -0.968190 -0.222179 0.115088  0.601581 0.302713 1 0 1.000000
0  38.064144 -42.985935 45.771652  -0.342786 -0.912990 0.221238  0.601581 0.302713 1 0 1.000000
blackplastic
0  37.943027 -43.052002 41.884861  -0.386267 -0.922387 0.000190  0.601581 0.302713 1 0 1.000000
0  38.064144 -42.985935 45.771652  -0.342786 -0.912990 0.221238  0.601581 0.302713 1 0 1.000000
0  38.031113 -42.842796 45.738621  -0.968190 -0.222179 0.115088  0.601581 0.302713 1 0 1.000000
blackplastic
0  38.031113 -42.842796 45.738621  -0.968190 -0.222179 0.115088  0.601581 0.302713 1 0 1.000000
0  37.921005 -42.963913 41.840820  -0.966235 -0.257661 0.001340  0.601581 0.302713 1 0 1.000000
0  37.943027 -43.052002 41.884861  -0.386267 -0.922387 0.000190  0.601581 0.302713 1 0 1.000000
blackplastic
0  37.921005 -42.963913 41.840820  -0.966235 -0.257661 0.001340  0.601581 0.302713 1 0 1.000000
0  38.097179 -43.250195 41.631615  -0.746665 -0.664982 -0.017010  0.601581 0.302713 1 0 1.000000
0  37.943027 -43.052002 41.884861  -0.386267 -0.922387 0.000190  0.601581 0.302713 1 0 1.000000
blackplastic
0  38.097179 -43.250195 41.631615  -0.746665 -0.664982 -0.017010  0.601581 0.302713 1 0 1.000000
0  37.921005 -42.963913 41.840820  -0.966235 -0.257661 0.001340  0.601581 0.302713 1 0 1.000000
0  37.898983 -42.842796 41.345337  -0.998875 -0.046182 0.010736  0.601581 0.302713 1 0 1.000000
blackplastic
0  37.898983 -42.842796 41.345337  -0.998875 -0.046182 0.010736  0.601581 0.302713 1 0 1.000000
0  38.097179 -43.239182 41.301292  -0.744693 -0.667044 -0.022030  0.601581 0.302713 1 0 1.000000
0  38.097179 -43.250195 41.631615  -0.746665 -0.664982 -0.017010  0.601581 0.302713 1 0 1.000000
blackplastic
0  38.097179 -43.239182 41.301292  -0.744693 -0.667044 -0.022030  0.601581 0.302713 1 0 1.000000
0  37.898983 -42.842796 41.345337  -0.998875 -0.046182 0.010736  0.601581 0.302713 1 0 1.000000
0  38.086166 -43.018967 41.081078  0.302825 0.291546 -0.907357  0.601581 0.302713 1 0 1.000000
blackplastic
0  38.097179 -43.239182 41.301292  -0.744693 -0.667044 -0.022030  0.601581 0.302713 1 0 1.000000
0  38.086166 -43.018967 41.081078  0.302825 0.291546 -0.907357  0.601581 0.302713 1 0 1.000000
0  38.526596 -43.404343 41.070068  0.396877 0.676655 -0.620183  0.601581 0.302713 1 0 1.000000
blackplastic
0  38.592663 -43.569504 41.290283  -0.503743 -0.858135 -0.099235  0.601581 0.302713 1 0 1.000000
0  38.097179 -43.239182 41.301292  -0.744693 -0.667044 -0.022030  0.601581 0.302713 1 0 1.000000
0  38.526596 -43.404343 41.070068  0.396877 0.676655 -0.620183  0.601581 0.302713 1 0 1.000000
blackplastic
0  38.097179 -43.250195 41.631615  -0.746665 -0.664982 -0.017010  0.601581 0.302713 1 0 1.000000
0  38.097179 -43.239182 41.301292  -0.744693 -0.667044 -0.022030  0.601581 0.302713 1 0 1.000000
0  38.592663 -43.569504 41.290283  -0.503743 -0.858135 -0.099235  0.601581 0.302713 1 0 1.000000
blackplastic
0  38.647717 -43.635571 41.631615  -0.439482 -0.890795 -0.115502  0.601581 0.302713 1 0 1.000000
0  38.097179 -43.250195 41.631615  -0.746665 -0.664982 -0.017010  0.601581 0.302713 1 0 1.000000
0  38.592663 -43.569504 41.290283  -0.503743 -0.858135 -0.099235  0.601581 0.302713 1 0 1.000000
blackplastic
0  38.097179 -43.250195 41.631615  -0.746665 -0.664982 -0.017010  0.601581 0.302713 1 0 1.000000
0  38.647717 -43.635571 41.631615  -0.439482 -0.890795 -0.115502  0.601581 0.302713 1 0 1.000000
0  38.097179 -43.261204 41.752731  -0.544885 -0.546473 0.635977  0.601581 0.302713 1 0 1.000000
blackplastic
0  38.647717 -43.635571 41.631615  -0.439482 -0.890795 -0.115502  0.601581 0.302713 1 0 1.000000
0  38.636703 -43.646580 41.774754  -0.396183 -0.686395 0.609837  0.601581 0.302713 1 0 1.000000
0  38.097179 -43.261204 41.752731  -0.544885 -0.546473 0.635977  0.601581 0.302713 1 0 1.000000
blackplastic
0  38.097179 -43.250195 41.631615  -0.746665 -0.664982 -0.017010  0.601581 0.302713 1 0 1.000000
0  38.097179 -43.261204 41.752731  -0.544885 -0.546473 0.635977  0.601581 0.302713 1 0 1.000000
0  37.943027 -43.052002 41.884861  -0.386267 -0.922387 0.000190  0.601581 0.302713 1 0 1.000000
blackplastic
0  47.654503 -36.170284 41.840820  0.795579 0.365235 -0.483382  0.601581 0.302713 1 0 1.000000
0  48.127964 -36.060177 43.107056  0.907037 0.343120 0.244034  0.601581 0.302713 1 0 1.000000
0  48.315147 -36.280392 42.996948  0.906324 0.419438 -0.051473  0.601581 0.302713 1 0 1.000000
blackplastic
0  48.304134 -36.291405 43.184128  0.907844 0.366628 0.203477  0.601581 0.302713 1 0 1.000000
0  48.315147 -36.280392 42.996948  0.906324 0.419438 -0.051473  0.601581 0.302713 1 0 1.000000
0  48.127964 -36.060177 43.107056  0.907037 0.343120 0.244034  0.601581 0.302713 1 0 1.000000
blackplastic
0  48.304134 -36.291405 43.184128  0.907844 0.366628 0.203477  0.601581 0.302713 1 0 1.000000
0  48.127964 -36.060177 43.107056  0.907037 0.343120 0.244034  0.601581 0.302713 1 0 1.000000
0  47.533382 -36.313427 45.463352  0.891967 0.343919 0.293453  0.601581 0.302713 1 0 1.000000
blackplastic
0  47.687534 -36.544651 45.485374  0.863041 0.356049 0.358315  0.601581 0.302713 1 0 1.000000
0  48.304134 -36.291405 43.184128  0.907844 0.366628 0.203477  0.601581 0.302713 1 0 1.000000
0  47.533382 -36.313427 45.463352  0.891967 0.343919 0.293453  0.601581 0.302713 1 0 1.000000
blackplastic
0  47.533382 -36.313427 45.463352  0.891967 0.343919 0.293453  0.601581 0.302713 1 0 1.000000
0  47.004868 -36.522629 46.883739  0.818928 0.345682 0.458106  0.601581 0.302713 1 0 1.000000
0  47.687534 -36.544651 45.485374  0.863041 0.356049 0.358315  0.601581 0.302713 1 0 1.000000
blackplastic
0  47.004868 -36.522629 46.883739  0.818928 0.345682 0.458106  0.601581 0.302713 1 0 1.000000
0  47.159019 -36.753857 46.916771  0.818661 0.345560 0.458674  0.601581 0.302713 1 0 1.000000
0  47.687534 -36.544651 45.485374  0.863041 0.356049 0.358315  0.601581 0.302713 1 0 1.000000
blackplastic
0  47.159019 -36.753857 46.916771  0.818661 0.345560 0.458674  0.601581 0.302713 1 0 1.000000
0  47.004868 -36.522629 46.883739  0.818928 0.345682 0.458106  0.601581 0.302713 1 0 1.000000
0  46.135021 -36.830929 47.797630  0.700695 0.302843 0.645997  0.601581 0.302713 1 0 1.000000
blackplastic
0  46.245129 -37.073166 47.874706  0.700599 0.302784 0.646129  0.601581 0.302713 1 0 1.000000
0  47.159019 -36.753857 46.916771  0.818661 0.345560 0.458674  0.601581 0.302713 1 0 1.000000
0  46.135021 -36.830929 47.797630  0.700695 0.302843 0.645997  0.601581 0.302713 1 0 1.000000
blackplastic
0  44.109043 -37.733810 48.249069  0.052384 0.095331 0.994066  0.601581 0.302713 1 0 1.000000
0  46.245129 -37.073166 47.874706  0.700599 0.302784 0.646129  0.601581 0.302713 1 0 1.000000
0  46.135021 -36.830929 47.797630  0.700695 0.302843 0.645997  0.601581 0.302713 1 0 1.000000
blackplastic
0  46.135021 -36.830929 47.797630  0.700695 0.302843 0.645997  0.601581 0.302713 1 0 1.000000
0  44.031967 -37.480564 48.160984  0.051987 0.095277 0.994092  0.601581 0.302713 1 0 1.000000
0  44.109043 -37.733810 48.249069  0.052384 0.095331 0.994066  0.601581 0.302713 1 0 1.000000
blackplastic
0  44.109043 -37.733810 48.249069  0.052384 0.095331 0.994066  0.601581 0.302713 1 0 1.000000
0  44.031967 -37.480564 48.160984  0.051987 0.095277 0.994092  0.601581 0.302713 1 0 1.000000
0  39.044102 -39.011059 48.061890  -0.172287 0.130491 0.976365  0.601581 0.302713 1 0 1.000000
blackplastic
0  39.044102 -39.011059 48.061890  -0.172287 0.130491 0.976365  0.601581 0.302713 1 0 1.000000
0  38.790855 -39.462498 48.094921  -0.306993 -0.032695 0.951150  0.601581 0.302713 1 0 1.000000
0  44.109043 -37.733810 48.249069  0.052384 0.095331 0.994066  0.601581 0.302713 1 0 1.000000
blackplastic
0  39.044102 -39.011059 48.061890  -0.172287 0.130491 0.976365  0.601581 0.302713 1 0 1.000000
0  38.581650 -39.121166 47.863693  -0.604596 0.057448 0.794458  0.601581 0.302713 1 0 1.000000
0  38.790855 -39.462498 48.094921  -0.306993 -0.032695 0.951150  0.601581 0.302713 1 0 1.000000
blackplastic
0  38.790855 -39.462498 48.094921  -0.306993 -0.032695 0.951150  0.601581 0.302713 1 0 1.000000
0  38.581650 -39.121166 47.863693  -0.604596 0.057448 0.794458  0.601581 0.302713 1 0 1.000000
0  38.526596 -40.156174 47.896729  -0.696406 -0.129434 0.705879  0.601581 0.302713 1 0 1.000000
blackplastic
0  38.240318 -41.554539 47.247093  -0.989413 0.047695 0.137070  0.601581 0.302713 1 0 1.000000
0  38.526596 -40.156174 47.896729  -0.696406 -0.129434 0.705879  0.601581 0.302713 1 0 1.000000
0  38.581650 -39.121166 47.863693  -0.604596 0.057448 0.794458  0.601581 0.302713 1 0 1.000000
blackplastic
0  38.526596 -40.156174 47.896729  -0.696406 -0.129434 0.705879  0.601581 0.302713 1 0 1.000000
0  38.240318 -41.554539 47.247093  -0.989413 0.047695 0.137070  0.601581 0.302713 1 0 1.000000
0  38.328403 -41.708691 47.390232  -0.045931 -0.416862 0.907808  0.601581 0.302713 1 0 1.000000
blackplastic
0  38.240318 -41.554539 47.247093  -0.989413 0.047695 0.137070  0.601581 0.302713 1 0 1.000000
0  38.119198 -42.446411 46.608471  -0.954235 -0.210147 0.212776  0.601581 0.302713 1 0 1.000000
0  38.328403 -41.708691 47.390232  -0.045931 -0.416862 0.907808  0.601581 0.302713 1 0 1.000000
blackplastic
0  38.119198 -42.446411 46.608471  -0.954235 -0.210147 0.212776  0.601581 0.302713 1 0 1.000000
0  38.174252 -42.589550 46.696556  -0.101404 -0.662911 0.741799  0.601581 0.302713 1 0 1.000000
0  38.328403 -41.708691 47.390232  -0.045931 -0.416862 0.907808  0.601581 0.302713 1 0 1.000000
blackplastic
0  47.335190 -36.863964 44.780685  -0.928093 0.266240 -0.260309  0.601581 0.302713 1 0 1.000000
0  47.136997 -36.952049 45.386276  -0.849937 0.465350 -0.247097  0.601581 0.302713 1 0 1.000000
0  47.533382 -36.313427 45.463352  0.582392 0.745939 0.323103  0.601581 0.302713 1 0 1.000000
blackplastic
0  47.004868 -36.522629 46.883739  0.532526 0.729286 0.429601  0.601581 0.302713 1 0 1.000000
0  47.533382 -36.313427 45.463352  0.582392 0.745939 0.323103  0.601581 0.302713 1 0 1.000000
0  47.136997 -36.952049 45.386276  -0.849937 0.465350 -0.247097  0.601581 0.302713 1 0 1.000000
blackplastic
0  47.136997 -36.952049 45.386276  -0.849937 0.465350 -0.247097  0.601581 0.302713 1 0 1.000000
0  46.531406 -37.161251 46.641502  -0.867730 0.259321 -0.424026  0.601581 0.302713 1 0 1.000000
0  47.004868 -36.522629 46.883739  0.532526 0.729286 0.429601  0.601581 0.302713 1 0 1.000000
blackplastic
0  46.135021 -36.830929 47.797630  0.428378 0.719832 0.546199  0.601581 0.302713 1 0 1.000000
0  47.004868 -36.522629 46.883739  0.532526 0.729286 0.429601  0.601581 0.302713 1 0 1.000000
0  46.531406 -37.161251 46.641502  -0.867730 0.259321 -0.424026  0.601581 0.302713 1 0 1.000000
blackplastic
0  46.531406 -37.161251 46.641502  -0.867730 0.259321 -0.424026  0.601581 0.302713 1 0 1.000000
0  45.903793 -37.381466 47.324169  -0.785397 0.259053 -0.562178  0.601581 0.302713 1 0 1.000000
0  46.135021 -36.830929 47.797630  0.428378 0.719832 0.546199  0.601581 0.302713 1 0 1.000000
blackplastic
0  44.031967 -37.480564 48.160984  -0.092991 0.521222 0.848340  0.601581 0.302713 1 0 1.000000
0  46.135021 -36.830929 47.797630  0.428378 0.719832 0.546199  0.601581 0.302713 1 0 1.000000
0  45.903793 -37.381466 47.324169  -0.785397 0.259053 -0.562178  0.601581 0.302713 1 0 1.000000
blackplastic
0  45.903793 -37.381466 47.324169  -0.785397 0.259053 -0.562178  0.601581 0.302713 1 0 1.000000
0  44.318249 -37.865940 47.599438  -0.197647 0.486209 -0.851197  0.601581 0.302713 1 0 1.000000
0  44.031967 -37.480564 48.160984  -0.092991 0.521222 0.848340  0.601581 0.302713 1 0 1.000000
blackplastic
0  44.031967 -37.480564 48.160984  -0.092991 0.521222 0.848340  0.601581 0.302713 1 0 1.000000
0  44.318249 -37.865940 47.599438  -0.197647 0.486209 -0.851197  0.601581 0.302713 1 0 1.000000
0  43.624569 -38.086155 47.643478  -0.181046 0.496733 -0.848810  0.601581 0.302713 1 0 1.000000
blackplastic
0  43.910851 -37.998070 47.478317  -0.424695 0.905161 -0.017842  0.601581 0.302713 1 0 1.000000
0  43.624569 -38.086155 47.643478  -0.181046 0.496733 -0.848810  0.601581 0.302713 1 0 1.000000
0  44.318249 -37.865940 47.599438  -0.197647 0.486209 -0.851197  0.601581 0.302713 1 0 1.000000
blackplastic
0  44.318249 -37.865940 47.599438  -0.197647 0.486209 -0.851197  0.601581 0.302713 1 0 1.000000
0  44.142075 -37.920994 47.335178  -0.044080 0.985035 0.166620  0.601581 0.302713 1 0 1.000000
0  43.910851 -37.998070 47.478317  -0.424695 0.905161 -0.017842  0.601581 0.302713 1 0 1.000000
blackplastic
0  45.111019 -37.557640 45.232128  -0.510476 0.851562 -0.119398  0.601581 0.302713 1 0 1.000000
0  43.910851 -37.998070 47.478317  -0.424695 0.905161 -0.017842  0.601581 0.302713 1 0 1.000000
0  44.142075 -37.920994 47.335178  -0.044080 0.985035 0.166620  0.601581 0.302713 1 0 1.000000
blackplastic
0  44.142075 -37.920994 47.335178  -0.044080 0.985035 0.166620  0.601581 0.302713 1 0 1.000000
0  45.199108 -37.535618 45.353245  -0.044974 0.983591 0.174716  0.601581 0.302713 1 0 1.000000
0  45.111019 -37.557640 45.232128  -0.510476 0.851562 -0.119398  0.601581 0.302713 1 0 1.000000
blackplastic
0  45.573471 -37.403488 44.945847  -0.301431 0.910009 -0.284644  0.601581 0.302713 1 0 1.000000
0  45.111019 -37.557640 45.232128  -0.510476 0.851562 -0.119398  0.601581 0.302713 1 0 1.000000
0  45.199108 -37.535618 45.353245  -0.044974 0.983591 0.174716  0.601581 0.302713 1 0 1.000000
blackplastic
0  45.199108 -37.535618 45.353245  -0.044974 0.983591 0.174716  0.601581 0.302713 1 0 1.000000
0  45.650547 -37.381466 45.077976  -0.266984 0.896601 0.353307  0.601581 0.302713 1 0 1.000000
0  45.573471 -37.403488 44.945847  -0.301431 0.910009 -0.284644  0.601581 0.302713 1 0 1.000000
blackplastic
0  47.015881 -36.963058 44.956860  -0.282504 0.916175 -0.284280  0.601581 0.302713 1 0 1.000000
0  45.573471 -37.403488 44.945847  -0.301431 0.910009 -0.284644  0.601581 0.302713 1 0 1.000000
0  45.650547 -37.381466 45.077976  -0.266984 0.896601 0.353307  0.601581 0.302713 1 0 1.000000
blackplastic
0  45.650547 -37.381466 45.077976  -0.266984 0.896601 0.353307  0.601581 0.302713 1 0 1.000000
0  46.982845 -36.974072 45.088989  -0.282405 0.894321 0.347041  0.601581 0.302713 1 0 1.000000
0  47.015881 -36.963058 44.956860  -0.282504 0.916175 -0.284280  0.601581 0.302713 1 0 1.000000
blackplastic
0  47.335190 -36.863964 44.780685  -0.928093 0.266240 -0.260309  0.601581 0.302713 1 0 1.000000
0  47.015881 -36.963058 44.956860  -0.282504 0.916175 -0.284280  0.601581 0.302713 1 0 1.000000
0  46.982845 -36.974072 45.088989  -0.282405 0.894321 0.347041  0.601581 0.302713 1 0 1.000000
blackplastic
0  47.335190 -36.863964 44.780685  -0.928093 0.266240 -0.260309  0.601581 0.302713 1 0 1.000000
0  46.982845 -36.974072 45.088989  -0.282405 0.894321 0.347041  0.601581 0.302713 1 0 1.000000
0  47.136997 -36.952049 45.386276  -0.849937 0.465350 -0.247097  0.601581 0.302713 1 0 1.000000
blackplastic
0  43.624569 -38.086155 47.643478  -0.181046 0.496733 -0.848810  0.601581 0.302713 1 0 1.000000
0  39.297348 -39.407444 47.522362  -0.045263 0.484607 -0.873560  0.601581 0.302713 1 0 1.000000
0  39.044102 -39.011059 48.061890  -0.251664 0.511037 0.821892  0.601581 0.302713 1 0 1.000000
blackplastic
0  39.044102 -39.011059 48.061890  -0.251664 0.511037 0.821892  0.601581 0.302713 1 0 1.000000
0  44.031967 -37.480564 48.160984  -0.092991 0.521222 0.848340  0.601581 0.302713 1 0 1.000000
0  43.624569 -38.086155 47.643478  -0.181046 0.496733 -0.848810  0.601581 0.302713 1 0 1.000000
blackplastic
0  38.581650 -39.121166 47.863693  -0.674515 0.453436 0.582603  0.601581 0.302713 1 0 1.000000
0  39.044102 -39.011059 48.061890  -0.251664 0.511037 0.821892  0.601581 0.302713 1 0 1.000000
0  39.297348 -39.407444 47.522362  -0.045263 0.484607 -0.873560  0.601581 0.302713 1 0 1.000000
blackplastic
0  39.297348 -39.407444 47.522362  -0.045263 0.484607 -0.873560  0.601581 0.302713 1 0 1.000000
0  38.967026 -39.495529 47.269115  0.478238 0.562577 -0.674385  0.601581 0.302713 1 0 1.000000
0  38.581650 -39.121166 47.863693  -0.674515 0.453436 0.582603  0.601581 0.302713 1 0 1.000000
blackplastic
0  38.383457 -39.132175 46.696556  -0.944356 0.318700 0.081375  0.601581 0.302713 1 0 1.000000
0  38.581650 -39.121166 47.863693  -0.674515 0.453436 0.582603  0.601581 0.302713 1 0 1.000000
0  38.967026 -39.495529 47.269115  0.478238 0.562577 -0.674385  0.601581 0.302713 1 0 1.000000
blackplastic
0  38.967026 -39.495529 47.269115  0.478238 0.562577 -0.674385  0.601581 0.302713 1 0 1.000000
0  38.856918 -39.506542 46.685547  0.718595 0.693852 -0.046803  0.601581 0.302713 1 0 1.000000
0  38.383457 -39.132175 46.696556  -0.944356 0.318700 0.081375  0.601581 0.302713 1 0 1.000000
blackplastic
0  38.856918 -39.506542 46.685547  0.718595 0.693852 -0.046803  0.601581 0.302713 1 0 1.000000
0  40.332359 -38.889938 41.312302  0.469571 0.582165 0.663767  0.601581 0.302713 1 0 1.000000
0  38.383457 -39.132175 46.696556  -0.944356 0.318700 0.081375  0.601581 0.302713 1 0 1.000000
blackplastic
0  40.332359 -38.889938 41.312302  0.469571 0.582165 0.663767  0.601581 0.302713 1 0 1.000000
0  39.869907 -38.504562 41.015015  -0.708452 0.426869 -0.562031  0.601581 0.302713 1 0 1.000000
0  38.383457 -39.132175 46.696556  -0.944356 0.318700 0.081375  0.601581 0.302713 1 0 1.000000
blackplastic
0  39.869907 -38.504562 41.015015  -0.708452 0.426869 -0.562031  0.601581 0.302713 1 0 1.000000
0  40.332359 -38.889938 41.312302  0.469571 0.582165 0.663767  0.601581 0.302713 1 0 1.000000
0  41.114120 -38.625683 40.739746  0.250463 0.511944 0.821694  0.601581 0.302713 1 0 1.000000
blackplastic
0  40.882896 -38.196262 40.376389  -0.514666 0.486037 -0.706320  0.601581 0.302713 1 0 1.000000
0  39.869907 -38.504562 41.015015  -0.708452 0.426869 -0.562031  0.601581 0.302713 1 0 1.000000
0  41.114120 -38.625683 40.739746  0.250463 0.511944 0.821694  0.601581 0.302713 1 0 1.000000
blackplastic
0  40.882896 -38.196262 40.376389  -0.514666 0.486037 -0.706320  0.601581 0.302713 1 0 1.000000
0  41.114120 -38.625683 40.739746  0.250463 0.511944 0.821694  0.601581 0.302713 1 0 1.000000
0  42.270248 -38.273338 40.574585  -0.155594 0.425156 0.891646  0.601581 0.302713 1 0 1.000000
blackplastic
0  42.171154 -37.788864 40.266281  -0.150127 0.569366 -0.808260  0.601581 0.302713 1 0 1.000000
0  40.882896 -38.196262 40.376389  -0.514666 0.486037 -0.706320  0.601581 0.302713 1 0 1.000000
0  42.270248 -38.273338 40.574585  -0.155594 0.425156 0.891646  0.601581 0.302713 1 0 1.000000
blackplastic
0  42.270248 -38.273338 40.574585  -0.155594 0.425156 0.891646  0.601581 0.302713 1 0 1.000000
0  46.619492 -36.963058 41.224216  -0.438546 0.311515 0.842992  0.601581 0.302713 1 0 1.000000
0  42.171154 -37.788864 40.266281  -0.150127 0.569366 -0.808260  0.601581 0.302713 1 0 1.000000
blackplastic
0  46.619492 -36.963058 41.224216  -0.438546 0.311515 0.842992  0.601581 0.302713 1 0 1.000000
0  46.641514 -36.445553 40.915916  0.106263 0.671611 -0.733244  0.601581 0.302713 1 0 1.000000
0  42.171154 -37.788864 40.266281  -0.150127 0.569366 -0.808260  0.601581 0.302713 1 0 1.000000
blackplastic
0  47.654503 -36.170284 41.840820  0.311593 0.733263 -0.604347  0.601581 0.302713 1 0 1.000000
0  46.641514 -36.445553 40.915916  0.106263 0.671611 -0.733244  0.601581 0.302713 1 0 1.000000
0  46.619492 -36.963058 41.224216  -0.438546 0.311515 0.842992  0.601581 0.302713 1 0 1.000000
blackplastic
0  46.619492 -36.963058 41.224216  -0.438546 0.311515 0.842992  0.601581 0.302713 1 0 1.000000
0  47.423275 -36.742844 42.083054  -0.668602 0.238945 0.704185  0.601581 0.302713 1 0 1.000000
0  47.654503 -36.170284 41.840820  0.311593 0.733263 -0.604347  0.601581 0.302713 1 0 1.000000
blackplastic
0  48.127964 -36.060177 43.107056  0.608618 0.791634 0.053852  0.601581 0.302713 1 0 1.000000
0  47.654503 -36.170284 41.840820  0.311593 0.733263 -0.604347  0.601581 0.302713 1 0 1.000000
0  47.423275 -36.742844 42.083054  -0.668602 0.238945 0.704185  0.601581 0.302713 1 0 1.000000
blackplastic
0  47.423275 -36.742844 42.083054  -0.668602 0.238945 0.704185  0.601581 0.302713 1 0 1.000000
0  47.753597 -36.676781 43.173119  -0.983047 0.181509 -0.025940  0.601581 0.302713 1 0 1.000000
0  48.127964 -36.060177 43.107056  0.608618 0.791634 0.053852  0.601581 0.302713 1 0 1.000000
blackplastic
0  47.753597 -36.676781 43.173119  -0.983047 0.181509 -0.025940  0.601581 0.302713 1 0 1.000000
0  47.335190 -36.863964 44.780685  -0.928093 0.266240 -0.260309  0.601581 0.302713 1 0 1.000000
0  48.127964 -36.060177 43.107056  0.608618 0.791634 0.053852  0.601581 0.302713 1 0 1.000000
blackplastic
0  47.335190 -36.863964 44.780685  -0.928093 0.266240 -0.260309  0.601581 0.302713 1 0 1.000000
0  47.533382 -36.313427 45.463352  0.582392 0.745939 0.323103  0.601581 0.302713 1 0 1.000000
0  48.127964 -36.060177 43.107056  0.608618 0.791634 0.053852  0.601581 0.302713 1 0 1.000000
skin_0
0  44.031967 -41.609592 42.402367  0.566376 -0.823254 0.038357  0.374959 0.167819 1 0 1.000000
0  48.183018 -38.746799 42.985935  0.747451 -0.653252 0.120745  0.385290 0.169925 1 0 1.000000
0  47.577427 -39.022068 45.111008  0.678337 -0.714254 0.172336  0.384297 0.177593 1 0 1.000000
skin_0
0  47.577427 -39.022068 45.111008  0.678337 -0.714254 0.172336  0.384297 0.177593 1 0 1.000000
0  43.195152 -41.851830 45.276169  0.505440 -0.840067 0.197021  0.374085 0.178189 1 0 1.000000
0  44.031967 -41.609592 42.402367  0.566376 -0.823254 0.038357  0.374959 0.167819 1 0 1.000000
skin_0
0  43.195152 -41.851830 45.276169  0.505440 -0.840067 0.197021  0.374085 0.178189 1 0 1.000000
0  47.577427 -39.022068 45.111008  0.678337 -0.714254 0.172336  0.384297 0.177593 1 0 1.000000
0  46.949814 -39.242283 46.432297  0.623259 -0.735126 0.266719  0.383502 0.182361 1 0 1.000000
skin_0
0  43.195152 -41.851830 45.276169  0.505440 -0.840067 0.197021  0.374085 0.178189 1 0 1.000000
0  46.949814 -39.242283 46.432297  0.623259 -0.735126 0.266719  0.383502 0.182361 1 0 1.000000
0  46.168053 -39.583618 47.170017  0.613010 -0.732990 0.294863  0.382270 0.185024 1 0 1.000000
skin_0
0  43.195152 -41.851830 45.276169  0.505440 -0.840067 0.197021  0.374085 0.178189 1 0 1.000000
0  46.168053 -39.583618 47.170017  0.613010 -0.732990 0.294863  0.382270 0.185024 1 0 1.000000
0  42.963924 -41.334324 47.236084  0.369898 -0.897805 0.239003  0.375953 0.185262 1 0 1.000000
skin_0
0  39.759800 -42.831787 46.949802  0.316601 -0.914499 0.251903  0.370549 0.184229 1 0 1.000000
0  43.195152 -41.851830 45.276169  0.505440 -0.840067 0.197021  0.374085 0.178189 1 0 1.000000
0  42.963924 -41.334324 47.236084  0.369898 -0.897805 0.239003  0.375953 0.185262 1 0 1.000000
skin_0
0  39.099155 -43.184128 46.597458  0.303204 -0.918292 0.254572  0.369278 0.182957 1 0 1.000000
0  43.195152 -41.851830 45.276169  0.505440 -0.840067 0.197021  0.374085 0.178189 1 0 1.000000
0  39.759800 -42.831787 46.949802  0.316601 -0.914499 0.251903  0.370549 0.184229 1 0 1.000000
skin_0
0  39.099155 -43.184128 46.597458  0.303204 -0.918292 0.254572  0.369278 0.182957 1 0 1.000000
0  38.790855 -43.448387 45.925804  0.309701 -0.926810 0.212389  0.368324 0.180534 1 0 1.000000
0  43.195152 -41.851830 45.276169  0.505440 -0.840067 0.197021  0.374085 0.178189 1 0 1.000000
skin_0
0  38.790855 -43.448387 45.925804  0.309701 -0.926810 0.212389  0.368324 0.180534 1 0 1.000000
0  44.031967 -41.609592 42.402367  0.566376 -0.823254 0.038357  0.374959 0.167819 1 0 1.000000
0  43.195152 -41.851830 45.276169  0.505440 -0.840067 0.197021  0.374085 0.178189 1 0 1.000000
skin_0
0  38.636703 -43.646580 41.774754  0.346892 -0.936728 -0.046975  0.367609 0.165554 1 0 1.000000
0  44.031967 -41.609592 42.402367  0.566376 -0.823254 0.038357  0.374959 0.167819 1 0 1.000000
0  38.790855 -43.448387 45.925804  0.309701 -0.926810 0.212389  0.368324 0.180534 1 0 1.000000
skin_0
0  44.153088 -37.898972 48.260082  0.169598 -0.212107 0.962417  0.388349 0.188957 1 0 1.000000
0  42.963924 -41.334324 47.236084  0.192298 -0.335691 0.922135  0.375953 0.185262 1 0 1.000000
0  46.168053 -39.583618 47.170017  0.228317 -0.333251 0.914776  0.382270 0.185024 1 0 1.000000
skin_0
0  44.153088 -37.898972 48.260082  0.169598 -0.212107 0.962417  0.388349 0.188957 1 0 1.000000
0  38.911972 -39.616650 48.116943  -0.028239 -0.240356 0.970274  0.382151 0.188441 1 0 1.000000
0  42.963924 -41.334324 47.236084  0.192298 -0.335691 0.922135  0.375953 0.185262 1 0 1.000000
skin_0
0  42.963924 -41.334324 47.236084  0.192298 -0.335691 0.922135  0.375953 0.185262 1 0 1.000000
0  38.911972 -39.616650 48.116943  -0.028239 -0.240356 0.970274  0.382151 0.188441 1 0 1.000000
0  38.724789 -40.222240 47.951782  -0.023944 -0.265350 0.963855  0.379966 0.187845 1 0 1.000000
skin_0
0  42.963924 -41.334324 47.236084  0.192298 -0.335691 0.922135  0.375953 0.185262 1 0 1.000000
0  38.724789 -40.222240 47.951782  -0.023944 -0.265350 0.963855  0.379966 0.187845 1 0 1.000000
0  39.759800 -42.831787 46.949802  0.012558 -0.380732 0.924600  0.370549 0.184229 1 0 1.000000
skin_0
0  38.911972 -39.616650 48.116943  -0.028239 -0.240356 0.970274  0.382151 0.188441 1 0 1.000000
0  44.153088 -37.898972 48.260082  0.169598 -0.212107 0.962417  0.388349 0.188957 1 0 1.000000
0  44.109043 -37.733810 48.249069  -0.148577 0.679186 0.718771  0.388945 0.188917 1 0 1.000000
skin_0
0  44.153088 -37.898972 48.260082  0.169598 -0.212107 0.962417  0.388349 0.188957 1 0 1.000000
0  46.300182 -37.238327 47.885715  0.783614 -0.111330 0.611191  0.390733 0.187606 1 0 1.000000
0  44.109043 -37.733810 48.249069  -0.148577 0.679186 0.718771  0.388945 0.188917 1 0 1.000000
skin_0
0  46.168053 -39.583618 47.170017  0.228317 -0.333251 0.914776  0.382270 0.185024 1 0 1.000000
0  46.300182 -37.238327 47.885715  0.783614 -0.111330 0.611191  0.390733 0.187606 1 0 1.000000
0  44.153088 -37.898972 48.260082  0.169598 -0.212107 0.962417  0.388349 0.188957 1 0 1.000000
skin_0
0  46.168053 -39.583618 47.170017  0.228317 -0.333251 0.914776  0.382270 0.185024 1 0 1.000000
0  46.949814 -39.242283 46.432297  0.873946 -0.294946 0.386296  0.383502 0.182361 1 0 1.000000
0  46.300182 -37.238327 47.885715  0.783614 -0.111330 0.611191  0.390733 0.187606 1 0 1.000000
skin_0
0  46.949814 -39.242283 46.432297  0.873946 -0.294946 0.386296  0.383502 0.182361 1 0 1.000000
0  47.214073 -36.919018 46.927780  0.904851 0.000579 0.425729  0.391886 0.184149 1 0 1.000000
0  46.300182 -37.238327 47.885715  0.783614 -0.111330 0.611191  0.390733 0.187606 1 0 1.000000
skin_0
0  47.214073 -36.919018 46.927780  0.904851 0.000579 0.425729  0.391886 0.184149 1 0 1.000000
0  46.949814 -39.242283 46.432297  0.873946 -0.294946 0.386296  0.383502 0.182361 1 0 1.000000
0  47.577427 -39.022068 45.111008  0.912242 -0.279323 0.299655  0.384297 0.177593 1 0 1.000000
skin_0
0  47.753597 -36.698803 45.496384  0.917447 0.012048 0.397676  0.392680 0.178984 1 0 1.000000
0  47.214073 -36.919018 46.927780  0.904851 0.000579 0.425729  0.391886 0.184149 1 0 1.000000
0  47.577427 -39.022068 45.111008  0.912242 -0.279323 0.299655  0.384297 0.177593 1 0 1.000000
skin_0
0  47.753597 -36.698803 45.496384  0.917447 0.012048 0.397676  0.392680 0.178984 1 0 1.000000
0  47.577427 -39.022068 45.111008  0.912242 -0.279323 0.299655  0.384297 0.177593 1 0 1.000000
0  48.183018 -38.746799 42.985935  0.943691 -0.276965 0.180935  0.385290 0.169925 1 0 1.000000
skin_0
0  48.183018 -38.746799 42.985935  0.943691 -0.276965 0.180935  0.385290 0.169925 1 0 1.000000
0  48.392223 -36.445553 43.184128  0.973032 0.119349 0.197395  0.393594 0.170640 1 0 1.000000
0  47.753597 -36.698803 45.496384  0.917447 0.012048 0.397676  0.392680 0.178984 1 0 1.000000
skin_0
0  46.300182 -37.238327 47.885715  0.783614 -0.111330 0.611191  0.390733 0.187606 1 0 1.000000
0  46.245129 -37.073166 47.874706  0.329563 0.806034 0.491628  0.391329 0.187566 1 0 1.000000
0  44.109043 -37.733810 48.249069  -0.148577 0.679186 0.718771  0.388945 0.188917 1 0 1.000000
skin_0
0  46.300182 -37.238327 47.885715  0.783614 -0.111330 0.611191  0.390733 0.187606 1 0 1.000000
0  47.214073 -36.919018 46.927780  0.904851 0.000579 0.425729  0.391886 0.184149 1 0 1.000000
0  46.245129 -37.073166 47.874706  0.329563 0.806034 0.491628  0.391329 0.187566 1 0 1.000000
skin_0
0  47.214073 -36.919018 46.927780  0.904851 0.000579 0.425729  0.391886 0.184149 1 0 1.000000
0  47.159019 -36.753857 46.916771  0.409422 0.841556 0.352358  0.392482 0.184110 1 0 1.000000
0  46.245129 -37.073166 47.874706  0.329563 0.806034 0.491628  0.391329 0.187566 1 0 1.000000
skin_0
0  47.159019 -36.753857 46.916771  0.409422 0.841556 0.352358  0.392482 0.184110 1 0 1.000000
0  47.214073 -36.919018 46.927780  0.904851 0.000579 0.425729  0.391886 0.184149 1 0 1.000000
0  47.753597 -36.698803 45.496384  0.957190 0.070577 0.280725  0.392680 0.178984 1 0 1.000000
skin_0
0  47.753597 -36.698803 45.496384  0.957190 0.070577 0.280725  0.392680 0.178984 1 0 1.000000
0  47.687534 -36.544651 45.485374  0.404695 0.888239 0.217379  0.393237 0.178944 1 0 1.000000
0  47.159019 -36.753857 46.916771  0.409422 0.841556 0.352358  0.392482 0.184110 1 0 1.000000
skin_0
0  47.753597 -36.698803 45.496384  0.957190 0.070577 0.280725  0.392680 0.178984 1 0 1.000000
0  48.392223 -36.445553 43.184128  0.973005 0.119527 0.197420  0.393594 0.170640 1 0 1.000000
0  47.687534 -36.544651 45.485374  0.404695 0.888239 0.217379  0.393237 0.178944 1 0 1.000000
skin_0
0  48.392223 -36.445553 43.184128  0.973005 0.119527 0.197420  0.393594 0.170640 1 0 1.000000
0  48.304134 -36.291405 43.184128  0.395606 0.898129 0.191991  0.394150 0.170640 1 0 1.000000
0  47.687534 -36.544651 45.485374  0.404695 0.888239 0.217379  0.393237 0.178944 1 0 1.000000
skin_0
0  38.724789 -40.222240 47.951782  -0.023944 -0.265350 0.963855  0.379966 0.187845 1 0 1.000000
0  38.614681 -41.840820 47.456299  -0.015508 -0.323428 0.946126  0.374125 0.186057 1 0 1.000000
0  39.759800 -42.831787 46.949802  0.012558 -0.380732 0.924600  0.370549 0.184229 1 0 1.000000
skin_0
0  39.759800 -42.831787 46.949802  0.012558 -0.380732 0.924600  0.370549 0.184229 1 0 1.000000
0  38.614681 -41.840820 47.456299  -0.015508 -0.323428 0.946126  0.374125 0.186057 1 0 1.000000
0  38.361435 -42.710667 46.773632  -0.478337 -0.697129 0.534046  0.370986 0.183593 1 0 1.000000
skin_0
0  39.099155 -43.184128 46.597458  -0.215759 -0.533944 0.817528  0.369278 0.182957 1 0 1.000000
0  39.759800 -42.831787 46.949802  0.012558 -0.380732 0.924600  0.370549 0.184229 1 0 1.000000
0  38.361435 -42.710667 46.773632  -0.478337 -0.697129 0.534046  0.370986 0.183593 1 0 1.000000
skin_0
0  38.790855 -43.448387 45.925804  -0.598012 -0.747788 0.288436  0.368324 0.180534 1 0 1.000000
0  39.099155 -43.184128 46.597458  -0.215759 -0.533944 0.817528  0.369278 0.182957 1 0 1.000000
0  38.361435 -42.710667 46.773632  -0.478337 -0.697129 0.534046  0.370986 0.183593 1 0 1.000000
skin_0
0  38.361435 -42.710667 46.773632  -0.478337 -0.697129 0.534046  0.370986 0.183593 1 0 1.000000
0  38.207287 -43.151096 45.804688  -0.612173 -0.752373 0.243269  0.369397 0.180097 1 0 1.000000
0  38.790855 -43.448387 45.925804  -0.598012 -0.747788 0.288436  0.368324 0.180534 1 0 1.000000
skin_0
0  38.636703 -43.646580 41.774754  -0.703026 -0.710874 -0.020310  0.367609 0.165554 1 0 1.000000
0  38.790855 -43.448387 45.925804  -0.598012 -0.747788 0.288436  0.368324 0.180534 1 0 1.000000
0  38.207287 -43.151096 45.804688  -0.612173 -0.752373 0.243269  0.369397 0.180097 1 0 1.000000
skin_0
0  38.207287 -43.151096 45.804688  -0.612173 -0.752373 0.243269  0.369397 0.180097 1 0 1.000000
0  38.097179 -43.261204 41.752731  -0.703417 -0.710482 -0.020482  0.369000 0.165475 1 0 1.000000
0  38.636703 -43.646580 41.774754  -0.703026 -0.710874 -0.020310  0.367609 0.165554 1 0 1.000000
skin_0
0  37.943027 -43.052002 41.884861  -0.926493 -0.376280 -0.005006  0.369754 0.165952 1 0 1.000000
0  38.097179 -43.261204 41.752731  -0.703417 -0.710482 -0.020482  0.369000 0.165475 1 0 1.000000
0  38.207287 -43.151096 45.804688  -0.612173 -0.752373 0.243269  0.369397 0.180097 1 0 1.000000
skin_0
0  38.064144 -42.985935 45.771652  -0.877202 -0.451916 0.162136  0.369993 0.179977 1 0 1.000000
0  37.943027 -43.052002 41.884861  -0.926493 -0.376280 -0.005006  0.369754 0.165952 1 0 1.000000
0  38.207287 -43.151096 45.804688  -0.612173 -0.752373 0.243269  0.369397 0.180097 1 0 1.000000
skin_0
0  38.174252 -42.589550 46.696556  -0.711602 -0.389199 0.584932  0.371423 0.183315 1 0 1.000000
0  38.064144 -42.985935 45.771652  -0.877202 -0.451916 0.162136  0.369993 0.179977 1 0 1.000000
0  38.207287 -43.151096 45.804688  -0.612173 -0.752373 0.243269  0.369397 0.180097 1 0 1.000000
skin_0
0  38.361435 -42.710667 46.773632  -0.478337 -0.697129 0.534046  0.370986 0.183593 1 0 1.000000
0  38.174252 -42.589550 46.696556  -0.711602 -0.389199 0.584932  0.371423 0.183315 1 0 1.000000
0  38.207287 -43.151096 45.804688  -0.612173 -0.752373 0.243269  0.369397 0.180097 1 0 1.000000
skin_0
0  38.174252 -42.589550 46.696556  -0.711602 -0.389199 0.584932  0.371423 0.183315 1 0 1.000000
0  38.361435 -42.710667 46.773632  -0.478337 -0.697129 0.534046  0.370986 0.183593 1 0 1.000000
0  38.614681 -41.840820 47.456299  -0.015508 -0.323428 0.946126  0.374125 0.186057 1 0 1.000000
skin_0
0  38.614681 -41.840820 47.456299  -0.015508 -0.323428 0.946126  0.374125 0.186057 1 0 1.000000
0  38.328403 -41.708691 47.390232  -0.600753 -0.191380 0.776189  0.374602 0.185818 1 0 1.000000
0  38.174252 -42.589550 46.696556  -0.711602 -0.389199 0.584932  0.371423 0.183315 1 0 1.000000
skin_0
0  38.328403 -41.708691 47.390232  -0.600753 -0.191380 0.776189  0.374602 0.185818 1 0 1.000000
0  38.614681 -41.840820 47.456299  -0.015508 -0.323428 0.946126  0.374125 0.186057 1 0 1.000000
0  38.724789 -40.222240 47.951782  -0.023944 -0.265350 0.963855  0.379966 0.187845 1 0 1.000000
skin_0
0  38.328403 -41.708691 47.390232  -0.600753 -0.191380 0.776189  0.374602 0.185818 1 0 1.000000
0  38.724789 -40.222240 47.951782  -0.023944 -0.265350 0.963855  0.379966 0.187845 1 0 1.000000
0  38.526596 -40.156174 47.896729  -0.878103 0.100059 0.467893  0.380204 0.187646 1 0 1.000000
skin_0
0  38.724789 -40.222240 47.951782  -0.023944 -0.265350 0.963855  0.379966 0.187845 1 0 1.000000
0  38.911972 -39.616650 48.116943  -0.028239 -0.240356 0.970274  0.382151 0.188441 1 0 1.000000
0  38.526596 -40.156174 47.896729  -0.878103 0.100059 0.467893  0.380204 0.187646 1 0 1.000000
skin_0
0  38.911972 -39.616650 48.116943  -0.028239 -0.240356 0.970274  0.382151 0.188441 1 0 1.000000
0  38.790855 -39.462498 48.094921  -0.582578 0.388033 0.714166  0.382707 0.188361 1 0 1.000000
0  38.526596 -40.156174 47.896729  -0.878103 0.100059 0.467893  0.380204 0.187646 1 0 1.000000
skin_0
0  44.109043 -37.733810 48.249069  -0.148577 0.679186 0.718771  0.388945 0.188917 1 0 1.000000
0  38.790855 -39.462498 48.094921  -0.582578 0.388033 0.714166  0.382707 0.188361 1 0 1.000000
0  38.911972 -39.616650 48.116943  -0.028239 -0.240356 0.970274  0.382151 0.188441 1 0 1.000000
chrome
0  44.142075 -37.920994 47.335178  -0.508587 0.856532 0.087707  0.055666 0.479232 1 0 1.000000
0  44.318249 -37.865940 47.599438  -0.477491 0.868296 0.134406  0.054933 0.481185 1 0 1.000000
0  45.199108 -37.535618 45.353245  -0.304605 0.911235 -0.277247  0.052248 0.468001 1 0 1.000000
chrome
0  44.318249 -37.865940 47.599438  -0.477491 0.868296 0.134406  0.054933 0.481185 1 0 1.000000
0  45.903793 -37.381466 47.324169  -0.240763 0.963648 0.115825  0.049562 0.479232 1 0 1.000000
0  45.199108 -37.535618 45.353245  -0.304605 0.911235 -0.277247  0.052248 0.468001 1 0 1.000000
chrome
0  45.199108 -37.535618 45.353245  -0.304605 0.911235 -0.277247  0.052248 0.468001 1 0 1.000000
0  45.903793 -37.381466 47.324169  -0.240763 0.963648 0.115825  0.049562 0.479232 1 0 1.000000
0  46.531406 -37.161251 46.641502  -0.078734 0.995985 -0.042594  0.047365 0.474349 1 0 1.000000
chrome
0  46.531406 -37.161251 46.641502  -0.078734 0.995985 -0.042594  0.047365 0.474349 1 0 1.000000
0  45.650547 -37.381466 45.077976  -0.224047 0.920730 -0.319467  0.049806 0.464095 1 0 1.000000
0  45.199108 -37.535618 45.353245  -0.304605 0.911235 -0.277247  0.052248 0.468001 1 0 1.000000
chrome
0  45.650547 -37.381466 45.077976  -0.224047 0.920730 -0.319467  0.049806 0.464095 1 0 1.000000
0  46.531406 -37.161251 46.641502  -0.078734 0.995985 -0.042594  0.047365 0.474349 1 0 1.000000
0  47.136997 -36.952049 45.386276  0.033765 0.963700 -0.264843  0.045167 0.466048 1 0 1.000000
chrome
0  47.136997 -36.952049 45.386276  0.033765 0.963700 -0.264843  0.045167 0.466048 1 0 1.000000
0  46.982845 -36.974072 45.088989  0.007175 0.950905 -0.309401  0.045900 0.464095 1 0 1.000000
0  45.650547 -37.381466 45.077976  -0.224047 0.920730 -0.319467  0.049806 0.464095 1 0 1.000000
chrome
0  47.335190 -36.863964 44.780685  -0.100863 0.992972 0.061911  0.044679 0.461653 1 0 1.000000
0  45.573471 -37.403488 44.945847  -0.185169 0.980193 0.070239  0.050539 0.463118 1 0 1.000000
0  47.015881 -36.963058 44.956860  -0.115849 0.990774 0.070327  0.045656 0.463118 1 0 1.000000
chrome
0  47.753597 -36.676781 43.173119  -0.079524 0.996602 -0.021441  0.043214 0.450911 1 0 1.000000
0  45.573471 -37.403488 44.945847  -0.185169 0.980193 0.070239  0.050539 0.463118 1 0 1.000000
0  47.335190 -36.863964 44.780685  -0.100863 0.992972 0.061911  0.044679 0.461653 1 0 1.000000
chrome
0  43.360313 -38.053123 44.197117  -0.291420 0.955950 0.035128  0.058351 0.458235 1 0 1.000000
0  45.573471 -37.403488 44.945847  -0.185169 0.980193 0.070239  0.050539 0.463118 1 0 1.000000
0  47.753597 -36.676781 43.173119  -0.079524 0.996602 -0.021441  0.043214 0.450911 1 0 1.000000
chrome
0  47.753597 -36.676781 43.173119  -0.079524 0.996602 -0.021441  0.043214 0.450911 1 0 1.000000
0  47.423275 -36.742844 42.083054  -0.114967 0.989168 -0.091263  0.044191 0.443587 1 0 1.000000
0  43.360313 -38.053123 44.197117  -0.291420 0.955950 0.035128  0.058351 0.458235 1 0 1.000000
chrome
0  47.423275 -36.742844 42.083054  -0.114967 0.989168 -0.091263  0.044191 0.443587 1 0 1.000000
0  46.619492 -36.963058 41.224216  -0.133823 0.985572 -0.103633  0.047121 0.437727 1 0 1.000000
0  43.360313 -38.053123 44.197117  -0.291420 0.955950 0.035128  0.058351 0.458235 1 0 1.000000
chrome
0  43.360313 -38.053123 44.197117  -0.291420 0.955950 0.035128  0.058351 0.458235 1 0 1.000000
0  46.619492 -36.963058 41.224216  -0.133823 0.985572 -0.103633  0.047121 0.437727 1 0 1.000000
0  42.270248 -38.273338 40.574585  -0.337866 0.931539 -0.134470  0.062014 0.433332 1 0 1.000000
chrome
0  42.270248 -38.273338 40.574585  -0.337866 0.931539 -0.134470  0.062014 0.433332 1 0 1.000000
0  41.114120 -38.625683 40.739746  -0.403072 0.907064 -0.121524  0.065920 0.434797 1 0 1.000000
0  43.360313 -38.053123 44.197117  -0.291420 0.955950 0.035128  0.058351 0.458235 1 0 1.000000
chrome
0  41.114120 -38.625683 40.739746  -0.403072 0.907064 -0.121524  0.065920 0.434797 1 0 1.000000
0  40.332359 -38.889938 41.312302  -0.420034 0.900894 -0.109366  0.068850 0.438704 1 0 1.000000
0  43.360313 -38.053123 44.197117  -0.291420 0.955950 0.035128  0.058351 0.458235 1 0 1.000000
chrome
0  43.360313 -38.053123 44.197117  -0.291420 0.955950 0.035128  0.058351 0.458235 1 0 1.000000
0  40.332359 -38.889938 41.312302  -0.420034 0.900894 -0.109366  0.068850 0.438704 1 0 1.000000
0  38.856918 -39.506542 46.685547  -0.489477 0.858476 0.153070  0.073733 0.475326 1 0 1.000000
chrome
0  38.856918 -39.506542 46.685547  -0.489477 0.858476 0.153070  0.073733 0.475326 1 0 1.000000
0  38.967026 -39.495529 47.269115  -0.480303 0.858267 0.180794  0.073489 0.479232 1 0 1.000000
0  43.360313 -38.053123 44.197117  -0.291420 0.955950 0.035128  0.058351 0.458235 1 0 1.000000
chrome
0  38.967026 -39.495529 47.269115  -0.480303 0.858267 0.180794  0.073489 0.479232 1 0 1.000000
0  39.297348 -39.407444 47.522362  -0.469015 0.863165 0.187008  0.072268 0.480697 1 0 1.000000
0  43.360313 -38.053123 44.197117  -0.291420 0.955950 0.035128  0.058351 0.458235 1 0 1.000000
chrome
0  43.360313 -38.053123 44.197117  -0.291420 0.955950 0.035128  0.058351 0.458235 1 0 1.000000
0  39.297348 -39.407444 47.522362  -0.469015 0.863165 0.187008  0.072268 0.480697 1 0 1.000000
0  43.624569 -38.086155 47.643478  -0.274924 0.941291 0.195930  0.057375 0.481185 1 0 1.000000
chrome
0  43.624569 -38.086155 47.643478  -0.274924 0.941291 0.195930  0.057375 0.481185 1 0 1.000000
0  43.910851 -37.998070 47.478317  -0.262166 0.946465 0.188341  0.056398 0.480209 1 0 1.000000
0  43.360313 -38.053123 44.197117  -0.291420 0.955950 0.035128  0.058351 0.458235 1 0 1.000000
chrome
0  43.910851 -37.998070 47.478317  -0.262166 0.946465 0.188341  0.056398 0.480209 1 0 1.000000
0  45.111019 -37.557640 45.232128  -0.207448 0.974630 0.084040  0.052248 0.465072 1 0 1.000000
0  43.360313 -38.053123 44.197117  -0.291420 0.955950 0.035128  0.058351 0.458235 1 0 1.000000
chrome
0  43.360313 -38.053123 44.197117  -0.291420 0.955950 0.035128  0.058351 0.458235 1 0 1.000000
0  45.111019 -37.557640 45.232128  -0.207448 0.974630 0.084040  0.052248 0.465072 1 0 1.000000
0  45.573471 -37.403488 44.945847  -0.185169 0.980193 0.070239  0.050539 0.463118 1 0 1.000000
end
