version 1
nodes
0 "root" -1
1 "steering_wheel" 0
end
skeleton
time 0
0  0.000000 0.000000 0.000000  0.000000 -0.000000 0.000000
1  19.916300 17.934299 33.308498  0.000000 -0.000000 0.000000
end
triangles
  phy
0  36.302711 116.711113 7.495652  -0.903687 0.119034 0.411315  0.000000 0.000000 1 0 1.000000
0  35.701405 118.837509 6.827597  -0.896707 0.133553 0.421996  0.000000 0.000000 1 0 1.000000
0  37.046398 116.505188 9.108190  -0.923896 0.106913 0.367403  0.000000 0.000000 1 0 1.000000
  phy
0  37.046398 116.505188 9.108190  -0.923896 0.106913 0.367403  0.000000 0.000000 1 0 1.000000
0  35.660816 115.644348 5.814335  -0.724065 -0.098594 0.682649  0.000000 0.000000 1 0 1.000000
0  36.302711 116.711113 7.495652  -0.903687 0.119034 0.411315  0.000000 0.000000 1 0 1.000000
  phy
0  36.302711 116.711113 7.495652  -0.903687 0.119034 0.411315  0.000000 0.000000 1 0 1.000000
0  35.660816 115.644348 5.814335  -0.724065 -0.098594 0.682649  0.000000 0.000000 1 0 1.000000
0  35.701405 118.837509 6.827597  -0.896707 0.133553 0.421996  0.000000 0.000000 1 0 1.000000
  phy
0  36.836658 121.119339 10.138597  -0.911645 0.134715 0.388273  0.000000 0.000000 1 0 1.000000
0  36.958237 124.080612 11.531382  -0.528375 0.833336 -0.162392  0.000000 0.000000 1 0 1.000000
0  37.046398 116.505188 9.108190  -0.923896 0.106913 0.367403  0.000000 0.000000 1 0 1.000000
  phy
0  37.046398 116.505188 9.108190  -0.923896 0.106913 0.367403  0.000000 0.000000 1 0 1.000000
0  36.958237 124.080612 11.531382  -0.528375 0.833336 -0.162392  0.000000 0.000000 1 0 1.000000
0  37.929668 115.776016 11.376409  -0.073921 -0.846211 -0.527696  0.000000 0.000000 1 0 1.000000
  phy
0  37.046398 116.505188 9.108190  -0.923896 0.106913 0.367403  0.000000 0.000000 1 0 1.000000
0  37.929668 115.776016 11.376409  -0.073921 -0.846211 -0.527696  0.000000 0.000000 1 0 1.000000
0  35.660816 115.644348 5.814335  -0.724065 -0.098594 0.682649  0.000000 0.000000 1 0 1.000000
  phy
0  37.046398 116.505188 9.108190  -0.923896 0.106913 0.367403  0.000000 0.000000 1 0 1.000000
0  35.931744 121.040642 8.065321  -0.903636 0.140396 0.404637  0.000000 0.000000 1 0 1.000000
0  36.836658 121.119339 10.138597  -0.911645 0.134715 0.388273  0.000000 0.000000 1 0 1.000000
  phy
0  37.046398 116.505188 9.108190  -0.923896 0.106913 0.367403  0.000000 0.000000 1 0 1.000000
0  35.701405 118.837509 6.827597  -0.896707 0.133553 0.421996  0.000000 0.000000 1 0 1.000000
0  35.931744 121.040642 8.065321  -0.903636 0.140396 0.404637  0.000000 0.000000 1 0 1.000000
  phy
0  35.931744 121.040642 8.065321  -0.903636 0.140396 0.404637  0.000000 0.000000 1 0 1.000000
0  36.958237 124.080612 11.531382  -0.528375 0.833336 -0.162392  0.000000 0.000000 1 0 1.000000
0  36.836658 121.119339 10.138597  -0.911645 0.134715 0.388273  0.000000 0.000000 1 0 1.000000
  phy
0  -30.027174 124.973671 18.844627  -0.094055 0.092210 -0.991287  0.000000 0.000000 1 0 1.000000
0  24.778465 125.554253 13.071740  -0.105068 0.435085 -0.894238  0.000000 0.000000 1 0 1.000000
0  -24.102947 125.556709 18.220575  -0.090463 0.425640 -0.900359  0.000000 0.000000 1 0 1.000000
  phy
0  -24.102947 125.556709 18.220575  -0.090463 0.425640 -0.900359  0.000000 0.000000 1 0 1.000000
0  -21.649025 126.514511 17.275778  -0.073084 0.645537 -0.760224  0.000000 0.000000 1 0 1.000000
0  -30.027174 124.973671 18.844627  -0.094055 0.092210 -0.991287  0.000000 0.000000 1 0 1.000000
  phy
0  24.778465 125.554253 13.071740  -0.105068 0.435085 -0.894238  0.000000 0.000000 1 0 1.000000
0  -21.649025 126.514511 17.275778  -0.073084 0.645537 -0.760224  0.000000 0.000000 1 0 1.000000
0  -24.102947 125.556709 18.220575  -0.090463 0.425640 -0.900359  0.000000 0.000000 1 0 1.000000
  phy
0  -28.581059 120.161613 9.137265  0.434888 0.383094 0.814930  0.000000 0.000000 1 0 1.000000
0  -31.834404 117.519257 9.889703  0.387352 0.184477 0.903287  0.000000 0.000000 1 0 1.000000
0  -33.719826 118.554482 11.317212  0.623561 0.246328 0.741953  0.000000 0.000000 1 0 1.000000
  phy
0  -33.719826 118.554482 11.317212  0.623561 0.246328 0.741953  0.000000 0.000000 1 0 1.000000
0  -31.834404 117.519257 9.889703  0.387352 0.184477 0.903287  0.000000 0.000000 1 0 1.000000
0  -33.587013 115.757591 10.384308  0.110080 -0.498335 0.859968  0.000000 0.000000 1 0 1.000000
  phy
0  -24.103317 122.616959 8.023613  0.137091 -0.131153 0.981837  0.000000 0.000000 1 0 1.000000
0  -31.834404 117.519257 9.889703  0.387352 0.184477 0.903287  0.000000 0.000000 1 0 1.000000
0  -28.581059 120.161613 9.137265  0.434888 0.383094 0.814930  0.000000 0.000000 1 0 1.000000
  phy
0  -31.834404 117.519257 9.889703  0.387352 0.184477 0.903287  0.000000 0.000000 1 0 1.000000
0  -24.103317 122.616959 8.023613  0.137091 -0.131153 0.981837  0.000000 0.000000 1 0 1.000000
0  -33.587013 115.757591 10.384308  0.110080 -0.498335 0.859968  0.000000 0.000000 1 0 1.000000
  phy
0  33.410587 119.020508 4.894485  -0.583820 0.183241 0.790934  0.000000 0.000000 1 0 1.000000
0  32.894352 115.578148 3.724827  -0.008707 -0.999193 0.039210  0.000000 0.000000 1 0 1.000000
0  32.477146 116.976433 3.757723  -0.383347 0.176670 0.906550  0.000000 0.000000 1 0 1.000000
  phy
0  33.410587 119.020508 4.894485  -0.583820 0.183241 0.790934  0.000000 0.000000 1 0 1.000000
0  32.477146 116.976433 3.757723  -0.383347 0.176670 0.906550  0.000000 0.000000 1 0 1.000000
0  32.627441 118.145096 4.137220  -0.300562 0.300961 0.905033  0.000000 0.000000 1 0 1.000000
  phy
0  33.410587 119.020508 4.894485  -0.583820 0.183241 0.790934  0.000000 0.000000 1 0 1.000000
0  32.627441 118.145096 4.137220  -0.300562 0.300961 0.905033  0.000000 0.000000 1 0 1.000000
0  32.746426 118.550728 4.316163  -0.299935 0.330042 0.895048  0.000000 0.000000 1 0 1.000000
  phy
0  32.627441 118.145096 4.137220  -0.300562 0.300961 0.905033  0.000000 0.000000 1 0 1.000000
0  32.477146 116.976433 3.757723  -0.383347 0.176670 0.906550  0.000000 0.000000 1 0 1.000000
0  30.603487 117.516075 3.312927  -0.160186 0.146337 0.976179  0.000000 0.000000 1 0 1.000000
  phy
0  30.603487 117.516075 3.312927  -0.160186 0.146337 0.976179  0.000000 0.000000 1 0 1.000000
0  32.477146 116.976433 3.757723  -0.383347 0.176670 0.906550  0.000000 0.000000 1 0 1.000000
0  31.539101 115.940727 3.370413  0.100746 -0.210118 0.972472  0.000000 0.000000 1 0 1.000000
  phy
0  31.539101 115.940727 3.370413  0.100746 -0.210118 0.972472  0.000000 0.000000 1 0 1.000000
0  32.477146 116.976433 3.757723  -0.383347 0.176670 0.906550  0.000000 0.000000 1 0 1.000000
0  32.894352 115.578148 3.724827  -0.008707 -0.999193 0.039210  0.000000 0.000000 1 0 1.000000
  phy
0  27.264917 120.158913 3.254944  -0.255374 0.381216 0.888515  0.000000 0.000000 1 0 1.000000
0  32.627441 118.145096 4.137220  -0.300562 0.300961 0.905033  0.000000 0.000000 1 0 1.000000
0  30.603487 117.516075 3.312927  -0.160186 0.146337 0.976179  0.000000 0.000000 1 0 1.000000
  phy
0  32.627441 118.145096 4.137220  -0.300562 0.300961 0.905033  0.000000 0.000000 1 0 1.000000
0  27.264917 120.158913 3.254944  -0.255374 0.381216 0.888515  0.000000 0.000000 1 0 1.000000
0  32.746426 118.550728 4.316163  -0.299935 0.330042 0.895048  0.000000 0.000000 1 0 1.000000
  phy
0  33.270988 120.147560 5.091267  -0.288274 0.418178 0.861409  0.000000 0.000000 1 0 1.000000
0  27.264917 120.158913 3.254944  -0.255374 0.381216 0.888515  0.000000 0.000000 1 0 1.000000
0  17.952608 130.685471 5.342996  0.004624 0.418233 0.908328  0.000000 0.000000 1 0 1.000000
  phy
0  33.270988 120.147560 5.091267  -0.288274 0.418178 0.861409  0.000000 0.000000 1 0 1.000000
0  17.952608 130.685471 5.342996  0.004624 0.418233 0.908328  0.000000 0.000000 1 0 1.000000
0  17.980932 131.203110 5.594745  -0.154672 0.600403 0.784597  0.000000 0.000000 1 0 1.000000
  phy
0  17.952608 130.685471 5.342996  0.004624 0.418233 0.908328  0.000000 0.000000 1 0 1.000000
0  27.264917 120.158913 3.254944  -0.255374 0.381216 0.888515  0.000000 0.000000 1 0 1.000000
0  22.653271 122.614136 3.098475  -0.085413 0.158090 0.983724  0.000000 0.000000 1 0 1.000000
  phy
0  27.264917 120.158913 3.254944  -0.255374 0.381216 0.888515  0.000000 0.000000 1 0 1.000000
0  33.270988 120.147560 5.091267  -0.288274 0.418178 0.861409  0.000000 0.000000 1 0 1.000000
0  32.746426 118.550728 4.316163  -0.299935 0.330042 0.895048  0.000000 0.000000 1 0 1.000000
  phy
0  27.264917 120.158913 3.254944  -0.255374 0.381216 0.888515  0.000000 0.000000 1 0 1.000000
0  30.603487 117.516075 3.312927  -0.160186 0.146337 0.976179  0.000000 0.000000 1 0 1.000000
0  22.653271 122.614136 3.098475  -0.085413 0.158090 0.983724  0.000000 0.000000 1 0 1.000000
  phy
0  -36.088009 118.841339 14.201980  0.925159 0.142109 0.351974  0.000000 0.000000 1 0 1.000000
0  -36.203991 121.003883 15.483249  0.941067 0.138574 0.308528  0.000000 0.000000 1 0 1.000000
0  -35.558075 122.485184 14.478127  0.602278 0.598667 0.528071  0.000000 0.000000 1 0 1.000000
  phy
0  -36.088009 118.841339 14.201980  0.925159 0.142109 0.351974  0.000000 0.000000 1 0 1.000000
0  -35.558075 122.485184 14.478127  0.602278 0.598667 0.528071  0.000000 0.000000 1 0 1.000000
0  -36.154194 115.647728 13.188764  0.031343 -0.999508 0.001493  0.000000 0.000000 1 0 1.000000
  phy
0  -36.203991 121.003883 15.483249  0.941067 0.138574 0.308528  0.000000 0.000000 1 0 1.000000
0  -36.088009 118.841339 14.201980  0.925159 0.142109 0.351974  0.000000 0.000000 1 0 1.000000
0  -36.616650 116.713066 14.928294  0.943381 0.123098 0.308025  0.000000 0.000000 1 0 1.000000
  phy
0  -36.616650 116.713066 14.928294  0.943381 0.123098 0.308025  0.000000 0.000000 1 0 1.000000
0  -36.088009 118.841339 14.201980  0.925159 0.142109 0.351974  0.000000 0.000000 1 0 1.000000
0  -36.154194 115.647728 13.188764  0.031343 -0.999508 0.001493  0.000000 0.000000 1 0 1.000000
  phy
0  -35.558075 122.485184 14.478127  0.602278 0.598667 0.528071  0.000000 0.000000 1 0 1.000000
0  -36.869884 121.174988 17.637239  0.927023 0.306683 0.215811  0.000000 0.000000 1 0 1.000000
0  -36.017464 124.370392 19.465824  0.419431 0.863718 -0.279408  0.000000 0.000000 1 0 1.000000
  phy
0  -36.869884 121.174988 17.637239  0.927023 0.306683 0.215811  0.000000 0.000000 1 0 1.000000
0  -37.332436 119.996941 18.562159  0.977713 0.180715 0.106862  0.000000 0.000000 1 0 1.000000
0  -36.017464 124.370392 19.465824  0.419431 0.863718 -0.279408  0.000000 0.000000 1 0 1.000000
  phy
0  -36.203991 121.003883 15.483249  0.941067 0.138574 0.308528  0.000000 0.000000 1 0 1.000000
0  -36.869884 121.174988 17.637239  0.927023 0.306683 0.215811  0.000000 0.000000 1 0 1.000000
0  -35.558075 122.485184 14.478127  0.602278 0.598667 0.528071  0.000000 0.000000 1 0 1.000000
  phy
0  -36.869884 121.174988 17.637239  0.927023 0.306683 0.215811  0.000000 0.000000 1 0 1.000000
0  -36.203991 121.003883 15.483249  0.941067 0.138574 0.308528  0.000000 0.000000 1 0 1.000000
0  -37.332436 119.996941 18.562159  0.977713 0.180715 0.106862  0.000000 0.000000 1 0 1.000000
  phy
0  35.521534 122.788879 7.802107  -0.487383 0.745526 0.454586  0.000000 0.000000 1 0 1.000000
0  36.958237 124.080612 11.531382  -0.528375 0.833336 -0.162392  0.000000 0.000000 1 0 1.000000
0  35.931744 121.040642 8.065321  -0.903636 0.140396 0.404637  0.000000 0.000000 1 0 1.000000
  phy
0  35.701405 118.837509 6.827597  -0.896707 0.133553 0.421996  0.000000 0.000000 1 0 1.000000
0  35.201946 122.481773 7.024777  -0.438876 0.473247 0.763823  0.000000 0.000000 1 0 1.000000
0  35.931744 121.040642 8.065321  -0.903636 0.140396 0.404637  0.000000 0.000000 1 0 1.000000
  phy
0  35.931744 121.040642 8.065321  -0.903636 0.140396 0.404637  0.000000 0.000000 1 0 1.000000
0  35.201946 122.481773 7.024777  -0.438876 0.473247 0.763823  0.000000 0.000000 1 0 1.000000
0  35.521534 122.788879 7.802107  -0.487383 0.745526 0.454586  0.000000 0.000000 1 0 1.000000
  phy
0  22.181337 126.512367 12.658848  -0.079595 0.664112 -0.743384  0.000000 0.000000 1 0 1.000000
0  -19.935802 129.211853 14.596278  -0.056373 0.771240 -0.634044  0.000000 0.000000 1 0 1.000000
0  -21.649025 126.514511 17.275778  -0.073084 0.645537 -0.760224  0.000000 0.000000 1 0 1.000000
  phy
0  22.181337 126.512367 12.658848  -0.079595 0.664112 -0.743384  0.000000 0.000000 1 0 1.000000
0  20.965658 128.796570 10.670823  -0.105617 0.787214 -0.607569  0.000000 0.000000 1 0 1.000000
0  -19.935802 129.211853 14.596278  -0.056373 0.771240 -0.634044  0.000000 0.000000 1 0 1.000000
  phy
0  -19.935802 129.211853 14.596278  -0.056373 0.771240 -0.634044  0.000000 0.000000 1 0 1.000000
0  -20.856401 128.848572 15.029936  -0.003136 0.704150 -0.710044  0.000000 0.000000 1 0 1.000000
0  -21.649025 126.514511 17.275778  -0.073084 0.645537 -0.760224  0.000000 0.000000 1 0 1.000000
  phy
0  22.181337 126.512367 12.658848  -0.079595 0.664112 -0.743384  0.000000 0.000000 1 0 1.000000
0  24.778465 125.554253 13.071740  -0.105068 0.435085 -0.894238  0.000000 0.000000 1 0 1.000000
0  20.965658 128.796570 10.670823  -0.105617 0.787214 -0.607569  0.000000 0.000000 1 0 1.000000
  phy
0  24.778465 125.554253 13.071740  -0.105068 0.435085 -0.894238  0.000000 0.000000 1 0 1.000000
0  30.701941 124.970383 12.447518  -0.114733 0.046665 -0.992300  0.000000 0.000000 1 0 1.000000
0  20.965658 128.796570 10.670823  -0.105617 0.787214 -0.607569  0.000000 0.000000 1 0 1.000000
  phy
0  22.181337 126.512367 12.658848  -0.079595 0.664112 -0.743384  0.000000 0.000000 1 0 1.000000
0  -21.649025 126.514511 17.275778  -0.073084 0.645537 -0.760224  0.000000 0.000000 1 0 1.000000
0  24.778465 125.554253 13.071740  -0.105068 0.435085 -0.894238  0.000000 0.000000 1 0 1.000000
  phy
0  -33.804119 120.943512 19.177547  -0.103202 -0.026863 -0.994298  0.000000 0.000000 1 0 1.000000
0  -36.017464 124.370392 19.465824  0.419431 0.863718 -0.279408  0.000000 0.000000 1 0 1.000000
0  -34.751068 121.268890 19.282518  -0.005433 -0.080342 -0.996753  0.000000 0.000000 1 0 1.000000
  phy
0  -33.804119 120.943512 19.177547  -0.103202 -0.026863 -0.994298  0.000000 0.000000 1 0 1.000000
0  -30.027174 124.973671 18.844627  -0.094055 0.092210 -0.991287  0.000000 0.000000 1 0 1.000000
0  -36.017464 124.370392 19.465824  0.419431 0.863718 -0.279408  0.000000 0.000000 1 0 1.000000
  phy
0  -33.804119 120.943512 19.177547  -0.103202 -0.026863 -0.994298  0.000000 0.000000 1 0 1.000000
0  30.701941 124.970383 12.447518  -0.114733 0.046665 -0.992300  0.000000 0.000000 1 0 1.000000
0  -30.027174 124.973671 18.844627  -0.094055 0.092210 -0.991287  0.000000 0.000000 1 0 1.000000
  phy
0  -30.027174 124.973671 18.844627  -0.094055 0.092210 -0.991287  0.000000 0.000000 1 0 1.000000
0  30.701941 124.970383 12.447518  -0.114733 0.046665 -0.992300  0.000000 0.000000 1 0 1.000000
0  24.778465 125.554253 13.071740  -0.105068 0.435085 -0.894238  0.000000 0.000000 1 0 1.000000
  phy
0  -21.649025 126.514511 17.275778  -0.073084 0.645537 -0.760224  0.000000 0.000000 1 0 1.000000
0  -20.856401 128.848572 15.029936  -0.003136 0.704150 -0.710044  0.000000 0.000000 1 0 1.000000
0  -30.027174 124.973671 18.844627  -0.094055 0.092210 -0.991287  0.000000 0.000000 1 0 1.000000
  phy
0  -20.856401 128.848572 15.029936  -0.003136 0.704150 -0.710044  0.000000 0.000000 1 0 1.000000
0  -36.017464 124.370392 19.465824  0.419431 0.863718 -0.279408  0.000000 0.000000 1 0 1.000000
0  -30.027174 124.973671 18.844627  -0.094055 0.092210 -0.991287  0.000000 0.000000 1 0 1.000000
  phy
0  -30.380753 119.391029 18.748922  -0.100500 -0.099672 -0.989932  0.000000 0.000000 1 0 1.000000
0  -33.804119 120.943512 19.177547  -0.103202 -0.026863 -0.994298  0.000000 0.000000 1 0 1.000000
0  -37.971272 115.900978 18.793341  0.019698 -0.820965 -0.570639  0.000000 0.000000 1 0 1.000000
  phy
0  -33.804119 120.943512 19.177547  -0.103202 -0.026863 -0.994298  0.000000 0.000000 1 0 1.000000
0  -34.751068 121.268890 19.282518  -0.005433 -0.080342 -0.996753  0.000000 0.000000 1 0 1.000000
0  -37.971272 115.900978 18.793341  0.019698 -0.820965 -0.570639  0.000000 0.000000 1 0 1.000000
  phy
0  -36.017464 124.370392 19.465824  0.419431 0.863718 -0.279408  0.000000 0.000000 1 0 1.000000
0  -37.971272 115.900978 18.793341  0.019698 -0.820965 -0.570639  0.000000 0.000000 1 0 1.000000
0  -34.751068 121.268890 19.282518  -0.005433 -0.080342 -0.996753  0.000000 0.000000 1 0 1.000000
  phy
0  -17.853039 125.512360 7.088444  0.105298 0.050723 0.993146  0.000000 0.000000 1 0 1.000000
0  11.532602 125.510841 3.993162  0.104230 0.032020 0.994038  0.000000 0.000000 1 0 1.000000
0  -17.903788 124.268135 7.071640  0.105402 -0.141739 0.984277  0.000000 0.000000 1 0 1.000000
  phy
0  -17.903788 124.268135 7.071640  0.105402 -0.141739 0.984277  0.000000 0.000000 1 0 1.000000
0  11.532602 125.510841 3.993162  0.104230 0.032020 0.994038  0.000000 0.000000 1 0 1.000000
0  16.392033 124.266479 3.459148  0.101556 -0.141997 0.984644  0.000000 0.000000 1 0 1.000000
  phy
0  17.255571 126.435493 3.456774  0.067012 0.307456 0.949200  0.000000 0.000000 1 0 1.000000
0  11.532602 125.510841 3.993162  0.104230 0.032020 0.994038  0.000000 0.000000 1 0 1.000000
0  -17.853039 125.512360 7.088444  0.105298 0.050723 0.993146  0.000000 0.000000 1 0 1.000000
  phy
0  17.255571 126.435493 3.456774  0.067012 0.307456 0.949200  0.000000 0.000000 1 0 1.000000
0  -17.853039 125.512360 7.088444  0.105298 0.050723 0.993146  0.000000 0.000000 1 0 1.000000
0  -18.748531 126.437325 7.249201  0.120313 0.378114 0.917908  0.000000 0.000000 1 0 1.000000
  phy
0  -18.748531 126.437325 7.249201  0.120313 0.378114 0.917908  0.000000 0.000000 1 0 1.000000
0  -17.853039 125.512360 7.088444  0.105298 0.050723 0.993146  0.000000 0.000000 1 0 1.000000
0  -17.903788 124.268135 7.071640  0.105402 -0.141739 0.984277  0.000000 0.000000 1 0 1.000000
  phy
0  -18.748531 126.437325 7.249201  0.120313 0.378114 0.917908  0.000000 0.000000 1 0 1.000000
0  -17.903788 124.268135 7.071640  0.105402 -0.141739 0.984277  0.000000 0.000000 1 0 1.000000
0  -24.103317 122.616959 8.023613  0.137091 -0.131153 0.981837  0.000000 0.000000 1 0 1.000000
  phy
0  22.653271 122.614136 3.098475  -0.085413 0.158090 0.983724  0.000000 0.000000 1 0 1.000000
0  31.539101 115.940727 3.370413  0.100746 -0.210118 0.972472  0.000000 0.000000 1 0 1.000000
0  16.392033 124.266479 3.459148  0.101556 -0.141997 0.984644  0.000000 0.000000 1 0 1.000000
  phy
0  16.392033 124.266479 3.459148  0.101556 -0.141997 0.984644  0.000000 0.000000 1 0 1.000000
0  31.539101 115.940727 3.370413  0.100746 -0.210118 0.972472  0.000000 0.000000 1 0 1.000000
0  -17.903788 124.268135 7.071640  0.105402 -0.141739 0.984277  0.000000 0.000000 1 0 1.000000
  phy
0  -17.903788 124.268135 7.071640  0.105402 -0.141739 0.984277  0.000000 0.000000 1 0 1.000000
0  31.539101 115.940727 3.370413  0.100746 -0.210118 0.972472  0.000000 0.000000 1 0 1.000000
0  -24.103317 122.616959 8.023613  0.137091 -0.131153 0.981837  0.000000 0.000000 1 0 1.000000
  phy
0  -24.103317 122.616959 8.023613  0.137091 -0.131153 0.981837  0.000000 0.000000 1 0 1.000000
0  -28.581059 120.161613 9.137265  0.434888 0.383094 0.814930  0.000000 0.000000 1 0 1.000000
0  -19.012613 131.193970 9.485881  0.266637 0.457076 0.848520  0.000000 0.000000 1 0 1.000000
  phy
0  -18.748531 126.437325 7.249201  0.120313 0.378114 0.917908  0.000000 0.000000 1 0 1.000000
0  -24.103317 122.616959 8.023613  0.137091 -0.131153 0.981837  0.000000 0.000000 1 0 1.000000
0  -19.012613 131.193970 9.485881  0.266637 0.457076 0.848520  0.000000 0.000000 1 0 1.000000
  phy
0  -24.103317 122.616959 8.023613  0.137091 -0.131153 0.981837  0.000000 0.000000 1 0 1.000000
0  31.539101 115.940727 3.370413  0.100746 -0.210118 0.972472  0.000000 0.000000 1 0 1.000000
0  -33.587013 115.757591 10.384308  0.110080 -0.498335 0.859968  0.000000 0.000000 1 0 1.000000
  phy
0  -28.581059 120.161613 9.137265  0.434888 0.383094 0.814930  0.000000 0.000000 1 0 1.000000
0  -34.072487 120.150887 12.184873  0.458945 0.420674 0.782562  0.000000 0.000000 1 0 1.000000
0  -19.012613 131.193970 9.485881  0.266637 0.457076 0.848520  0.000000 0.000000 1 0 1.000000
  phy
0  -34.072487 120.150887 12.184873  0.458945 0.420674 0.782562  0.000000 0.000000 1 0 1.000000
0  -28.581059 120.161613 9.137265  0.434888 0.383094 0.814930  0.000000 0.000000 1 0 1.000000
0  -33.719826 118.554482 11.317212  0.623561 0.246328 0.741953  0.000000 0.000000 1 0 1.000000
  phy
0  17.952608 130.685471 5.342996  0.004624 0.418233 0.908328  0.000000 0.000000 1 0 1.000000
0  17.255571 126.435493 3.456774  0.067012 0.307456 0.949200  0.000000 0.000000 1 0 1.000000
0  -18.748531 126.437325 7.249201  0.120313 0.378114 0.917908  0.000000 0.000000 1 0 1.000000
  phy
0  17.952608 130.685471 5.342996  0.004624 0.418233 0.908328  0.000000 0.000000 1 0 1.000000
0  -18.748531 126.437325 7.249201  0.120313 0.378114 0.917908  0.000000 0.000000 1 0 1.000000
0  -19.012613 131.193970 9.485881  0.266637 0.457076 0.848520  0.000000 0.000000 1 0 1.000000
  phy
0  17.952608 130.685471 5.342996  0.004624 0.418233 0.908328  0.000000 0.000000 1 0 1.000000
0  -19.012613 131.193970 9.485881  0.266637 0.457076 0.848520  0.000000 0.000000 1 0 1.000000
0  17.980932 131.203110 5.594745  -0.154672 0.600403 0.784597  0.000000 0.000000 1 0 1.000000
  phy
0  17.255571 126.435493 3.456774  0.067012 0.307456 0.949200  0.000000 0.000000 1 0 1.000000
0  17.952608 130.685471 5.342996  0.004624 0.418233 0.908328  0.000000 0.000000 1 0 1.000000
0  22.653271 122.614136 3.098475  -0.085413 0.158090 0.983724  0.000000 0.000000 1 0 1.000000
  phy
0  22.653271 122.614136 3.098475  -0.085413 0.158090 0.983724  0.000000 0.000000 1 0 1.000000
0  30.603487 117.516075 3.312927  -0.160186 0.146337 0.976179  0.000000 0.000000 1 0 1.000000
0  31.539101 115.940727 3.370413  0.100746 -0.210118 0.972472  0.000000 0.000000 1 0 1.000000
  phy
0  11.532602 125.510841 3.993162  0.104230 0.032020 0.994038  0.000000 0.000000 1 0 1.000000
0  17.255571 126.435493 3.456774  0.067012 0.307456 0.949200  0.000000 0.000000 1 0 1.000000
0  16.392033 124.266479 3.459148  0.101556 -0.141997 0.984644  0.000000 0.000000 1 0 1.000000
  phy
0  17.255571 126.435493 3.456774  0.067012 0.307456 0.949200  0.000000 0.000000 1 0 1.000000
0  22.653271 122.614136 3.098475  -0.085413 0.158090 0.983724  0.000000 0.000000 1 0 1.000000
0  16.392033 124.266479 3.459148  0.101556 -0.141997 0.984644  0.000000 0.000000 1 0 1.000000
  phy
0  -34.072487 120.150887 12.184873  0.458945 0.420674 0.782562  0.000000 0.000000 1 0 1.000000
0  -33.719826 118.554482 11.317212  0.623561 0.246328 0.741953  0.000000 0.000000 1 0 1.000000
0  -35.558075 122.485184 14.478127  0.602278 0.598667 0.528071  0.000000 0.000000 1 0 1.000000
  phy
0  -34.072487 120.150887 12.184873  0.458945 0.420674 0.782562  0.000000 0.000000 1 0 1.000000
0  -35.558075 122.485184 14.478127  0.602278 0.598667 0.528071  0.000000 0.000000 1 0 1.000000
0  -19.012613 131.193970 9.485881  0.266637 0.457076 0.848520  0.000000 0.000000 1 0 1.000000
  phy
0  -36.203991 121.003883 15.483249  0.941067 0.138574 0.308528  0.000000 0.000000 1 0 1.000000
0  -36.616650 116.713066 14.928294  0.943381 0.123098 0.308025  0.000000 0.000000 1 0 1.000000
0  -37.971272 115.900978 18.793341  0.019698 -0.820965 -0.570639  0.000000 0.000000 1 0 1.000000
  phy
0  -37.332436 119.996941 18.562159  0.977713 0.180715 0.106862  0.000000 0.000000 1 0 1.000000
0  -36.203991 121.003883 15.483249  0.941067 0.138574 0.308528  0.000000 0.000000 1 0 1.000000
0  -37.971272 115.900978 18.793341  0.019698 -0.820965 -0.570639  0.000000 0.000000 1 0 1.000000
  phy
0  35.660816 115.644348 5.814335  -0.724065 -0.098594 0.682649  0.000000 0.000000 1 0 1.000000
0  35.201946 122.481773 7.024777  -0.438876 0.473247 0.763823  0.000000 0.000000 1 0 1.000000
0  35.701405 118.837509 6.827597  -0.896707 0.133553 0.421996  0.000000 0.000000 1 0 1.000000
  phy
0  -36.017464 124.370392 19.465824  0.419431 0.863718 -0.279408  0.000000 0.000000 1 0 1.000000
0  -20.856401 128.848572 15.029936  -0.003136 0.704150 -0.710044  0.000000 0.000000 1 0 1.000000
0  -19.935802 129.211853 14.596278  -0.056373 0.771240 -0.634044  0.000000 0.000000 1 0 1.000000
  phy
0  -36.017464 124.370392 19.465824  0.419431 0.863718 -0.279408  0.000000 0.000000 1 0 1.000000
0  -19.935802 129.211853 14.596278  -0.056373 0.771240 -0.634044  0.000000 0.000000 1 0 1.000000
0  -18.548775 130.910568 11.867931  -0.010299 0.862118 -0.506603  0.000000 0.000000 1 0 1.000000
  phy
0  -36.017464 124.370392 19.465824  0.419431 0.863718 -0.279408  0.000000 0.000000 1 0 1.000000
0  -18.548775 130.910568 11.867931  -0.010299 0.862118 -0.506603  0.000000 0.000000 1 0 1.000000
0  -18.844147 131.314941 11.068838  0.012233 0.892928 -0.450033  0.000000 0.000000 1 0 1.000000
  phy
0  18.091177 131.566467 6.657093  -0.090143 0.947978 -0.305305  0.000000 0.000000 1 0 1.000000
0  -18.844147 131.314941 11.068838  0.012233 0.892928 -0.450033  0.000000 0.000000 1 0 1.000000
0  -18.548775 130.910568 11.867931  -0.010299 0.862118 -0.506603  0.000000 0.000000 1 0 1.000000
  phy
0  18.091177 131.566467 6.657093  -0.090143 0.947978 -0.305305  0.000000 0.000000 1 0 1.000000
0  -18.548775 130.910568 11.867931  -0.010299 0.862118 -0.506603  0.000000 0.000000 1 0 1.000000
0  18.145332 131.313248 7.171686  -0.092696 0.846679 -0.523967  0.000000 0.000000 1 0 1.000000
  phy
0  -18.548775 130.910568 11.867931  -0.010299 0.862118 -0.506603  0.000000 0.000000 1 0 1.000000
0  -19.935802 129.211853 14.596278  -0.056373 0.771240 -0.634044  0.000000 0.000000 1 0 1.000000
0  18.145332 131.313248 7.171686  -0.092696 0.846679 -0.523967  0.000000 0.000000 1 0 1.000000
  phy
0  18.145332 131.313248 7.171686  -0.092696 0.846679 -0.523967  0.000000 0.000000 1 0 1.000000
0  -19.935802 129.211853 14.596278  -0.056373 0.771240 -0.634044  0.000000 0.000000 1 0 1.000000
0  20.965658 128.796570 10.670823  -0.105617 0.787214 -0.607569  0.000000 0.000000 1 0 1.000000
  phy
0  -33.804119 120.943512 19.177547  -0.103202 -0.026863 -0.994298  0.000000 0.000000 1 0 1.000000
0  -30.380753 119.391029 18.748922  -0.100500 -0.099672 -0.989932  0.000000 0.000000 1 0 1.000000
0  35.479412 121.149445 11.867036  -0.108323 -0.031813 -0.993607  0.000000 0.000000 1 0 1.000000
  phy
0  -30.380753 119.391029 18.748922  -0.100500 -0.099672 -0.989932  0.000000 0.000000 1 0 1.000000
0  37.929668 115.776016 11.376409  -0.073921 -0.846211 -0.527696  0.000000 0.000000 1 0 1.000000
0  35.479412 121.149445 11.867036  -0.108323 -0.031813 -0.993607  0.000000 0.000000 1 0 1.000000
  phy
0  35.479412 121.149445 11.867036  -0.108323 -0.031813 -0.993607  0.000000 0.000000 1 0 1.000000
0  30.701941 124.970383 12.447518  -0.114733 0.046665 -0.992300  0.000000 0.000000 1 0 1.000000
0  -33.804119 120.943512 19.177547  -0.103202 -0.026863 -0.994298  0.000000 0.000000 1 0 1.000000
  phy
0  -35.558075 122.485184 14.478127  0.602278 0.598667 0.528071  0.000000 0.000000 1 0 1.000000
0  -33.719826 118.554482 11.317212  0.623561 0.246328 0.741953  0.000000 0.000000 1 0 1.000000
0  -36.154194 115.647728 13.188764  0.031343 -0.999508 0.001493  0.000000 0.000000 1 0 1.000000
  phy
0  -36.154194 115.647728 13.188764  0.031343 -0.999508 0.001493  0.000000 0.000000 1 0 1.000000
0  -33.719826 118.554482 11.317212  0.623561 0.246328 0.741953  0.000000 0.000000 1 0 1.000000
0  -33.587013 115.757591 10.384308  0.110080 -0.498335 0.859968  0.000000 0.000000 1 0 1.000000
  phy
0  -36.616650 116.713066 14.928294  0.943381 0.123098 0.308025  0.000000 0.000000 1 0 1.000000
0  -36.154194 115.647728 13.188764  0.031343 -0.999508 0.001493  0.000000 0.000000 1 0 1.000000
0  -37.971272 115.900978 18.793341  0.019698 -0.820965 -0.570639  0.000000 0.000000 1 0 1.000000
  phy
0  35.660816 115.644348 5.814335  -0.724065 -0.098594 0.682649  0.000000 0.000000 1 0 1.000000
0  33.410587 119.020508 4.894485  -0.583820 0.183241 0.790934  0.000000 0.000000 1 0 1.000000
0  35.201946 122.481773 7.024777  -0.438876 0.473247 0.763823  0.000000 0.000000 1 0 1.000000
  phy
0  33.410587 119.020508 4.894485  -0.583820 0.183241 0.790934  0.000000 0.000000 1 0 1.000000
0  35.660816 115.644348 5.814335  -0.724065 -0.098594 0.682649  0.000000 0.000000 1 0 1.000000
0  32.894352 115.578148 3.724827  -0.008707 -0.999193 0.039210  0.000000 0.000000 1 0 1.000000
  phy
0  37.929668 115.776016 11.376409  -0.073921 -0.846211 -0.527696  0.000000 0.000000 1 0 1.000000
0  32.894352 115.578148 3.724827  -0.008707 -0.999193 0.039210  0.000000 0.000000 1 0 1.000000
0  35.660816 115.644348 5.814335  -0.724065 -0.098594 0.682649  0.000000 0.000000 1 0 1.000000
  phy
0  33.270988 120.147560 5.091267  -0.288274 0.418178 0.861409  0.000000 0.000000 1 0 1.000000
0  33.410587 119.020508 4.894485  -0.583820 0.183241 0.790934  0.000000 0.000000 1 0 1.000000
0  32.746426 118.550728 4.316163  -0.299935 0.330042 0.895048  0.000000 0.000000 1 0 1.000000
  phy
0  33.410587 119.020508 4.894485  -0.583820 0.183241 0.790934  0.000000 0.000000 1 0 1.000000
0  33.270988 120.147560 5.091267  -0.288274 0.418178 0.861409  0.000000 0.000000 1 0 1.000000
0  35.201946 122.481773 7.024777  -0.438876 0.473247 0.763823  0.000000 0.000000 1 0 1.000000
  phy
0  35.201946 122.481773 7.024777  -0.438876 0.473247 0.763823  0.000000 0.000000 1 0 1.000000
0  33.270988 120.147560 5.091267  -0.288274 0.418178 0.861409  0.000000 0.000000 1 0 1.000000
0  17.980932 131.203110 5.594745  -0.154672 0.600403 0.784597  0.000000 0.000000 1 0 1.000000
  phy
0  -18.844147 131.314941 11.068838  0.012233 0.892928 -0.450033  0.000000 0.000000 1 0 1.000000
0  18.091177 131.566467 6.657093  -0.090143 0.947978 -0.305305  0.000000 0.000000 1 0 1.000000
0  -18.898336 131.568298 10.553302  0.062167 0.988466 -0.138095  0.000000 0.000000 1 0 1.000000
  phy
0  -36.017464 124.370392 19.465824  0.419431 0.863718 -0.279408  0.000000 0.000000 1 0 1.000000
0  -18.844147 131.314941 11.068838  0.012233 0.892928 -0.450033  0.000000 0.000000 1 0 1.000000
0  -18.898336 131.568298 10.553302  0.062167 0.988466 -0.138095  0.000000 0.000000 1 0 1.000000
  phy
0  18.091177 131.566467 6.657093  -0.090143 0.947978 -0.305305  0.000000 0.000000 1 0 1.000000
0  18.145332 131.313248 7.171686  -0.092696 0.846679 -0.523967  0.000000 0.000000 1 0 1.000000
0  36.958237 124.080612 11.531382  -0.528375 0.833336 -0.162392  0.000000 0.000000 1 0 1.000000
  phy
0  18.145332 131.313248 7.171686  -0.092696 0.846679 -0.523967  0.000000 0.000000 1 0 1.000000
0  20.965658 128.796570 10.670823  -0.105617 0.787214 -0.607569  0.000000 0.000000 1 0 1.000000
0  36.958237 124.080612 11.531382  -0.528375 0.833336 -0.162392  0.000000 0.000000 1 0 1.000000
  phy
0  18.091177 131.566467 6.657093  -0.090143 0.947978 -0.305305  0.000000 0.000000 1 0 1.000000
0  18.030010 131.533417 6.076716  -0.282505 0.885166 0.369693  0.000000 0.000000 1 0 1.000000
0  -18.898336 131.568298 10.553302  0.062167 0.988466 -0.138095  0.000000 0.000000 1 0 1.000000
  phy
0  -18.898336 131.568298 10.553302  0.062167 0.988466 -0.138095  0.000000 0.000000 1 0 1.000000
0  18.030010 131.533417 6.076716  -0.282505 0.885166 0.369693  0.000000 0.000000 1 0 1.000000
0  -18.959562 131.535263 9.972924  0.363766 0.857498 0.363830  0.000000 0.000000 1 0 1.000000
  phy
0  18.030010 131.533417 6.076716  -0.282505 0.885166 0.369693  0.000000 0.000000 1 0 1.000000
0  35.521534 122.788879 7.802107  -0.487383 0.745526 0.454586  0.000000 0.000000 1 0 1.000000
0  35.201946 122.481773 7.024777  -0.438876 0.473247 0.763823  0.000000 0.000000 1 0 1.000000
  phy
0  18.030010 131.533417 6.076716  -0.282505 0.885166 0.369693  0.000000 0.000000 1 0 1.000000
0  35.201946 122.481773 7.024777  -0.438876 0.473247 0.763823  0.000000 0.000000 1 0 1.000000
0  17.980932 131.203110 5.594745  -0.154672 0.600403 0.784597  0.000000 0.000000 1 0 1.000000
  phy
0  -18.959562 131.535263 9.972924  0.363766 0.857498 0.363830  0.000000 0.000000 1 0 1.000000
0  18.030010 131.533417 6.076716  -0.282505 0.885166 0.369693  0.000000 0.000000 1 0 1.000000
0  17.980932 131.203110 5.594745  -0.154672 0.600403 0.784597  0.000000 0.000000 1 0 1.000000
  phy
0  35.521534 122.788879 7.802107  -0.487383 0.745526 0.454586  0.000000 0.000000 1 0 1.000000
0  18.030010 131.533417 6.076716  -0.282505 0.885166 0.369693  0.000000 0.000000 1 0 1.000000
0  36.958237 124.080612 11.531382  -0.528375 0.833336 -0.162392  0.000000 0.000000 1 0 1.000000
  phy
0  18.030010 131.533417 6.076716  -0.282505 0.885166 0.369693  0.000000 0.000000 1 0 1.000000
0  18.091177 131.566467 6.657093  -0.090143 0.947978 -0.305305  0.000000 0.000000 1 0 1.000000
0  36.958237 124.080612 11.531382  -0.528375 0.833336 -0.162392  0.000000 0.000000 1 0 1.000000
  phy
0  35.479412 121.149445 11.867036  -0.108323 -0.031813 -0.993607  0.000000 0.000000 1 0 1.000000
0  36.958237 124.080612 11.531382  -0.528375 0.833336 -0.162392  0.000000 0.000000 1 0 1.000000
0  30.701941 124.970383 12.447518  -0.114733 0.046665 -0.992300  0.000000 0.000000 1 0 1.000000
  phy
0  37.929668 115.776016 11.376409  -0.073921 -0.846211 -0.527696  0.000000 0.000000 1 0 1.000000
0  36.958237 124.080612 11.531382  -0.528375 0.833336 -0.162392  0.000000 0.000000 1 0 1.000000
0  35.479412 121.149445 11.867036  -0.108323 -0.031813 -0.993607  0.000000 0.000000 1 0 1.000000
  phy
0  31.539101 115.940727 3.370413  0.100746 -0.210118 0.972472  0.000000 0.000000 1 0 1.000000
0  32.894352 115.578148 3.724827  -0.008707 -0.999193 0.039210  0.000000 0.000000 1 0 1.000000
0  -33.587013 115.757591 10.384308  0.110080 -0.498335 0.859968  0.000000 0.000000 1 0 1.000000
  phy
0  -35.558075 122.485184 14.478127  0.602278 0.598667 0.528071  0.000000 0.000000 1 0 1.000000
0  -18.959562 131.535263 9.972924  0.363766 0.857498 0.363830  0.000000 0.000000 1 0 1.000000
0  -19.012613 131.193970 9.485881  0.266637 0.457076 0.848520  0.000000 0.000000 1 0 1.000000
  phy
0  -18.959562 131.535263 9.972924  0.363766 0.857498 0.363830  0.000000 0.000000 1 0 1.000000
0  -35.558075 122.485184 14.478127  0.602278 0.598667 0.528071  0.000000 0.000000 1 0 1.000000
0  -36.017464 124.370392 19.465824  0.419431 0.863718 -0.279408  0.000000 0.000000 1 0 1.000000
  phy
0  -18.959562 131.535263 9.972924  0.363766 0.857498 0.363830  0.000000 0.000000 1 0 1.000000
0  -36.017464 124.370392 19.465824  0.419431 0.863718 -0.279408  0.000000 0.000000 1 0 1.000000
0  -18.898336 131.568298 10.553302  0.062167 0.988466 -0.138095  0.000000 0.000000 1 0 1.000000
  phy
0  -19.012613 131.193970 9.485881  0.266637 0.457076 0.848520  0.000000 0.000000 1 0 1.000000
0  -18.959562 131.535263 9.972924  0.363766 0.857498 0.363830  0.000000 0.000000 1 0 1.000000
0  17.980932 131.203110 5.594745  -0.154672 0.600403 0.784597  0.000000 0.000000 1 0 1.000000
  phy
0  -36.017464 124.370392 19.465824  0.419431 0.863718 -0.279408  0.000000 0.000000 1 0 1.000000
0  -37.332436 119.996941 18.562159  0.977713 0.180715 0.106862  0.000000 0.000000 1 0 1.000000
0  -37.971272 115.900978 18.793341  0.019698 -0.820965 -0.570639  0.000000 0.000000 1 0 1.000000
  phy
0  20.965658 128.796570 10.670823  -0.105617 0.787214 -0.607569  0.000000 0.000000 1 0 1.000000
0  30.701941 124.970383 12.447518  -0.114733 0.046665 -0.992300  0.000000 0.000000 1 0 1.000000
0  36.958237 124.080612 11.531382  -0.528375 0.833336 -0.162392  0.000000 0.000000 1 0 1.000000
  phy
0  -30.380753 119.391029 18.748922  -0.100500 -0.099672 -0.989932  0.000000 0.000000 1 0 1.000000
0  -37.971272 115.900978 18.793341  0.019698 -0.820965 -0.570639  0.000000 0.000000 1 0 1.000000
0  37.929668 115.776016 11.376409  -0.073921 -0.846211 -0.527696  0.000000 0.000000 1 0 1.000000
  phy
0  37.929668 115.776016 11.376409  -0.073921 -0.846211 -0.527696  0.000000 0.000000 1 0 1.000000
0  -37.971272 115.900978 18.793341  0.019698 -0.820965 -0.570639  0.000000 0.000000 1 0 1.000000
0  -36.154194 115.647728 13.188764  0.031343 -0.999508 0.001493  0.000000 0.000000 1 0 1.000000
  phy
0  -36.154194 115.647728 13.188764  0.031343 -0.999508 0.001493  0.000000 0.000000 1 0 1.000000
0  32.894352 115.578148 3.724827  -0.008707 -0.999193 0.039210  0.000000 0.000000 1 0 1.000000
0  37.929668 115.776016 11.376409  -0.073921 -0.846211 -0.527696  0.000000 0.000000 1 0 1.000000
  phy
0  -33.587013 115.757591 10.384308  0.110080 -0.498335 0.859968  0.000000 0.000000 1 0 1.000000
0  32.894352 115.578148 3.724827  -0.008707 -0.999193 0.039210  0.000000 0.000000 1 0 1.000000
0  -36.154194 115.647728 13.188764  0.031343 -0.999508 0.001493  0.000000 0.000000 1 0 1.000000
end
