version 1
nodes
0 "root" -1
1 "steering_wheel" 0
end
skeleton
time 0
0  0.000000 0.000000 0.000000  0.000000 -0.000000 0.000000
1  19.916300 17.934299 33.308498  0.000000 -0.000000 0.000000
end
triangles
coplightred3
0  14.924306 5.847050 69.862106  0.001117 -0.999998 -0.001568  0.724854 0.184204 1 0 1.000000
0  19.459721 5.851076 70.525002  0.001100 -0.999998 -0.001457  0.520493 0.215546 1 0 1.000000
0  14.922674 5.845997 70.527206  0.001119 -0.999998 -0.001580  0.724854 0.215546 1 0 1.000000
coplightred3
0  19.461735 5.852032 69.863747  -0.000099 -0.930450 0.366419  0.520493 0.184204 1 0 1.000000
0  19.459721 5.851076 70.525002  0.001100 -0.999998 -0.001457  0.520493 0.215546 1 0 1.000000
0  14.924306 5.847050 69.862106  0.001117 -0.999998 -0.001568  0.724854 0.184204 1 0 1.000000
coplightred3
0  -24.157276 8.451145 70.570747  -0.553646 -0.832672 -0.011524  0.520493 0.215546 1 0 1.000000
0  -24.158367 8.461022 69.909584  -0.534174 -0.806883 0.252188  0.520493 0.184204 1 0 1.000000
0  -20.591806 6.080974 70.531464  -0.553628 -0.832682 -0.011693  0.724854 0.215546 1 0 1.000000
coplightred3
0  -20.592571 6.090836 69.866463  -0.553626 -0.832683 -0.011712  0.724854 0.184204 1 0 1.000000
0  -20.591806 6.080974 70.531464  -0.553628 -0.832682 -0.011693  0.724854 0.215546 1 0 1.000000
0  -24.158367 8.461022 69.909584  -0.534174 -0.806883 0.252188  0.520493 0.184204 1 0 1.000000
coplightred3
0  24.488607 8.451158 70.570747  0.553655 -0.832667 -0.011520  0.520493 0.215546 1 0 1.000000
0  20.923145 6.080985 70.531464  0.553622 -0.832686 -0.011693  0.724854 0.215546 1 0 1.000000
0  24.489706 8.461036 69.909584  0.533673 -0.807214 0.252188  0.520493 0.184204 1 0 1.000000
coplightred3
0  20.923912 6.090848 69.866463  0.553619 -0.832688 -0.011712  0.724854 0.184204 1 0 1.000000
0  24.489706 8.461036 69.909584  0.533673 -0.807214 0.252188  0.520493 0.184204 1 0 1.000000
0  20.923145 6.080985 70.531464  0.553622 -0.832686 -0.011693  0.724854 0.215546 1 0 1.000000
coplightred3
0  20.246490 13.328143 70.667793  0.001121 0.999677 0.025397  0.724854 0.215546 1 0 1.000000
0  24.783546 13.323118 70.665382  0.001113 0.999676 0.025446  0.520493 0.215546 1 0 1.000000
0  20.248129 13.345031 70.002983  0.001120 0.999677 0.025402  0.724854 0.184204 1 0 1.000000
coplightred3
0  24.785563 13.339944 70.004410  0.000709 0.920445 0.390871  0.520493 0.184204 1 0 1.000000
0  20.248129 13.345031 70.002983  0.001120 0.999677 0.025402  0.724854 0.184204 1 0 1.000000
0  24.783546 13.323118 70.665382  0.001113 0.999676 0.025446  0.520493 0.215546 1 0 1.000000
coplightred3
0  13.857862 13.328136 70.667793  0.001119 0.999677 0.025400  0.724854 0.215546 1 0 1.000000
0  18.394917 13.323118 70.665382  0.001112 0.999676 0.025446  0.520493 0.215546 1 0 1.000000
0  13.859553 13.345026 70.002983  0.001119 0.999677 0.025404  0.724854 0.184204 1 0 1.000000
coplightred3
0  18.396990 13.339944 70.004410  0.000729 0.920445 0.390871  0.520493 0.184204 1 0 1.000000
0  13.859553 13.345026 70.002983  0.001119 0.999677 0.025404  0.724854 0.184204 1 0 1.000000
0  18.394917 13.323118 70.665382  0.001112 0.999676 0.025446  0.520493 0.215546 1 0 1.000000
coplightred3
0  -13.526529 13.328133 70.667793  -0.001122 0.999677 0.025397  0.724854 0.215546 1 0 1.000000
0  -13.528166 13.345022 70.002983  -0.001121 0.999677 0.025402  0.724854 0.184204 1 0 1.000000
0  -18.063578 13.323103 70.665382  -0.001115 0.999676 0.025448  0.520493 0.215546 1 0 1.000000
coplightred3
0  -18.063578 13.323103 70.665382  -0.001115 0.999676 0.025448  0.520493 0.215546 1 0 1.000000
0  -13.528166 13.345022 70.002983  -0.001121 0.999677 0.025402  0.724854 0.184204 1 0 1.000000
0  -18.065598 13.339931 70.004402  0.000086 0.920445 0.390872  0.520493 0.184204 1 0 1.000000
coplightred3
0  -19.915165 13.328130 70.667793  -0.001121 0.999677 0.025402  0.724854 0.215546 1 0 1.000000
0  -19.916803 13.345022 70.002983  -0.001121 0.999677 0.025406  0.724854 0.184204 1 0 1.000000
0  -24.452215 13.323103 70.665382  -0.001115 0.999676 0.025442  0.520493 0.215546 1 0 1.000000
coplightred3
0  -24.452215 13.323103 70.665382  -0.001115 0.999676 0.025442  0.520493 0.215546 1 0 1.000000
0  -19.916803 13.345022 70.002983  -0.001121 0.999677 0.025406  0.724854 0.184204 1 0 1.000000
0  -24.454231 13.339927 70.004402  0.000083 0.920448 0.390865  0.520493 0.184204 1 0 1.000000
coplightred3
0  -14.592959 5.847038 69.862106  -0.001117 -0.999998 -0.001566  0.724854 0.184204 1 0 1.000000
0  -14.591268 5.845986 70.527206  -0.001119 -0.999998 -0.001579  0.724854 0.215546 1 0 1.000000
0  -19.128372 5.851065 70.525002  -0.001100 -0.999998 -0.001453  0.520493 0.215546 1 0 1.000000
coplightred3
0  -19.128372 5.851065 70.525002  -0.001100 -0.999998 -0.001453  0.520493 0.215546 1 0 1.000000
0  -19.130390 5.852020 69.863747  -0.000694 -0.930448 0.366424  0.520493 0.184204 1 0 1.000000
0  -14.592959 5.847038 69.862106  -0.001117 -0.999998 -0.001566  0.724854 0.184204 1 0 1.000000
end
