// Created by Crowbar 0.74
version 1
nodes
  0 "root" -1
end
skeleton
  time 0
    0 0.000000 0.000000 0.000000 0.000000 0.000000 0.000000
end
triangles
  phy
    0 -5.792693 15.692987 -11.401185 -0.461490 -0.689227 0.558563 0 0
    0 -5.792744 11.401778 -15.692528 -0.082621 -0.585779 0.806248 0 0
    0 -5.792839 5.994542 -18.447794 -0.210593 -0.350688 0.912506 0 0
  phy
    0 -5.792693 15.692987 -11.401185 -0.461490 -0.689227 0.558563 0 0
    0 -5.792839 5.994542 -18.447794 -0.210593 -0.350688 0.912506 0 0
    0 -5.792970 0.000492 -19.397217 -0.995152 -0.005208 0.098207 0 0
  phy
    0 -5.792693 15.692987 -11.401185 -0.461490 -0.689227 0.558563 0 0
    0 -5.792970 0.000492 -19.397217 -0.995152 -0.005208 0.098207 0 0
    0 -5.792693 18.448068 -5.993844 -0.614768 -0.736214 0.282931 0 0
  phy
    0 -5.792693 18.448068 -5.993844 -0.614768 -0.736214 0.282931 0 0
    0 -5.792970 0.000492 -19.397217 -0.995152 -0.005208 0.098207 0 0
    0 -5.792741 19.397279 0.000237 -0.646416 -0.762985 0.000006 0 0
  phy
    0 -5.792741 19.397279 0.000237 -0.646416 -0.762985 0.000006 0 0
    0 -5.792970 0.000492 -19.397217 -0.995152 -0.005208 0.098207 0 0
    0 -5.792835 18.447858 5.994288 -0.828002 -0.523409 -0.201134 0 0
  phy
    0 -5.792835 18.447858 5.994288 -0.828002 -0.523409 -0.201134 0 0
    0 -5.792970 0.000492 -19.397217 -0.995152 -0.005208 0.098207 0 0
    0 -5.792963 15.692568 11.401557 -0.873140 -0.378728 -0.306906 0 0
  phy
    0 -5.792963 15.692568 11.401557 -0.873140 -0.378728 -0.306906 0 0
    0 -5.792970 0.000492 -19.397217 -0.995152 -0.005208 0.098207 0 0
    0 -5.793116 11.401223 15.692737 -0.897986 -0.239531 -0.369115 0 0
  phy
    0 -5.793116 11.401223 15.692737 -0.897986 -0.239531 -0.369115 0 0
    0 -5.792970 0.000492 -19.397217 -0.995152 -0.005208 0.098207 0 0
    0 -5.793276 5.993905 18.447812 -0.957175 -0.089486 -0.275334 0 0
  phy
    0 -5.793276 5.993905 18.447812 -0.957175 -0.089486 -0.275334 0 0
    0 -5.792970 0.000492 -19.397217 -0.995152 -0.005208 0.098207 0 0
    0 -5.793430 -0.000164 19.397022 -0.984200 -0.009358 -0.176811 0 0
  phy
    0 -5.793430 -0.000164 19.397022 -0.984200 -0.009358 -0.176811 0 0
    0 -5.792970 0.000492 -19.397217 -0.995152 -0.005208 0.098207 0 0
    0 -5.793658 -19.396973 -0.000431 -0.983103 0.182799 0.009664 0 0
  phy
    0 -5.793430 -0.000164 19.397022 -0.984200 -0.009358 -0.176811 0 0
    0 -5.793658 -19.396973 -0.000431 -0.983103 0.182799 0.009664 0 0
    0 -5.793655 -11.401487 15.692317 -0.576657 0.480209 -0.660958 0 0
  phy
    0 -5.793430 -0.000164 19.397022 -0.984200 -0.009358 -0.176811 0 0
    0 -5.793655 -11.401487 15.692317 -0.576657 0.480209 -0.660958 0 0
    0 -5.793560 -5.994232 18.447602 -0.055156 0.258050 -0.964556 0 0
  phy
    0 -5.793655 -11.401487 15.692317 -0.576657 0.480209 -0.660958 0 0
    0 -5.793658 -19.396973 -0.000431 -0.983103 0.182799 0.009664 0 0
    0 -5.793706 -15.692682 11.400993 -0.210650 0.820057 -0.532102 0 0
  phy
    0 -5.793706 -15.692682 11.400993 -0.210650 0.820057 -0.532102 0 0
    0 -5.793658 -19.396973 -0.000431 -0.983103 0.182799 0.009664 0 0
    0 -5.793706 -18.447758 5.993647 -0.055160 0.964557 -0.258046 0 0
  phy
    0 -5.793658 -19.396973 -0.000431 -0.983103 0.182799 0.009664 0 0
    0 -5.792970 0.000492 -19.397217 -0.995152 -0.005208 0.098207 0 0
    0 -5.793435 -15.692249 -11.401768 -0.705324 0.594659 0.385873 0 0
  phy
    0 -5.793658 -19.396973 -0.000431 -0.983103 0.182799 0.009664 0 0
    0 -5.793435 -15.692249 -11.401768 -0.705324 0.594659 0.385873 0 0
    0 -5.793564 -18.447559 -5.994462 -0.082675 0.947800 0.307962 0 0
  phy
    0 -5.793435 -15.692249 -11.401768 -0.705324 0.594659 0.385873 0 0
    0 -5.792970 0.000492 -19.397217 -0.995152 -0.005208 0.098207 0 0
    0 -5.793123 -5.993604 -18.447998 -0.159727 0.305041 0.938849 0 0
  phy
    0 -5.793435 -15.692249 -11.401768 -0.705324 0.594659 0.385873 0 0
    0 -5.793123 -5.993604 -18.447998 -0.159727 0.305041 0.938849 0 0
    0 -5.793282 -11.400932 -15.692929 -0.055131 0.628660 0.775724 0 0
  phy
    0 -5.793430 -0.000164 19.397022 -0.984200 -0.009358 -0.176811 0 0
    0 5.653474 -0.000469 19.397219 0.995051 0.005260 -0.099229 0 0
    0 5.653620 5.993590 18.448011 0.159729 -0.305041 -0.938848 0 0
  phy
    0 -5.793430 -0.000164 19.397022 -0.984200 -0.009358 -0.176811 0 0
    0 5.653620 5.993590 18.448011 0.159729 -0.305041 -0.938848 0 0
    0 -5.793276 5.993905 18.447812 -0.957175 -0.089486 -0.275334 0 0
  phy
    0 5.653474 -0.000469 19.397219 0.995051 0.005260 -0.099229 0 0
    0 -5.793430 -0.000164 19.397022 -0.984200 -0.009358 -0.176811 0 0
    0 -5.793560 -5.994232 18.447602 -0.055156 0.258050 -0.964556 0 0
  phy
    0 5.653474 -0.000469 19.397219 0.995051 0.005260 -0.099229 0 0
    0 -5.793560 -5.994232 18.447602 -0.055156 0.258050 -0.964556 0 0
    0 5.653359 -5.994518 18.447801 0.055107 0.358186 -0.932022 0 0
  phy
    0 5.653946 15.692273 11.401754 0.461531 -0.744182 -0.482889 0 0
    0 -5.792835 18.447858 5.994288 -0.828002 -0.523409 -0.201134 0 0
    0 -5.792963 15.692568 11.401557 -0.873140 -0.378728 -0.306906 0 0
  phy
    0 5.653946 15.692273 11.401754 0.461531 -0.744182 -0.482889 0 0
    0 5.654097 18.447559 5.994490 0.614807 -0.761879 -0.203842 0 0
    0 -5.792835 18.447858 5.994288 -0.828002 -0.523409 -0.201134 0 0
  phy
    0 -5.792835 18.447858 5.994288 -0.828002 -0.523409 -0.201134 0 0
    0 5.654097 18.447559 5.994490 0.614807 -0.761879 -0.203842 0 0
    0 -5.792741 19.397279 0.000237 -0.646416 -0.762985 0.000006 0 0
  phy
    0 5.654097 18.447559 5.994490 0.614807 -0.761879 -0.203842 0 0
    0 5.654216 19.396985 0.000417 0.861229 -0.508217 -0.000016 0 0
    0 -5.792741 19.397279 0.000237 -0.646416 -0.762985 0.000006 0 0
  phy
    0 -5.793435 -15.692249 -11.401768 -0.705324 0.594659 0.385873 0 0
    0 5.653642 -15.692568 -11.401543 0.684802 0.566161 0.458811 0 0
    0 5.653492 -18.447858 -5.994279 0.041414 0.950241 0.308752 0 0
  phy
    0 -5.793435 -15.692249 -11.401768 -0.705324 0.594659 0.385873 0 0
    0 5.653492 -18.447858 -5.994279 0.041414 0.950241 0.308752 0 0
    0 -5.793564 -18.447559 -5.994462 -0.082675 0.947800 0.307962 0 0
  phy
    0 -5.793435 -15.692249 -11.401768 -0.705324 0.594659 0.385873 0 0
    0 -5.793282 -11.400932 -15.692929 -0.055131 0.628660 0.775724 0 0
    0 5.653642 -15.692568 -11.401543 0.684802 0.566161 0.458811 0 0
  phy
    0 -5.793282 -11.400932 -15.692929 -0.055131 0.628660 0.775724 0 0
    0 5.653806 -11.401218 -15.692736 0.210618 0.532110 0.820061 0 0
    0 5.653642 -15.692568 -11.401543 0.684802 0.566161 0.458811 0 0
  phy
    0 5.653359 -5.994518 18.447801 0.055107 0.358186 -0.932022 0 0
    0 -5.793560 -5.994232 18.447602 -0.055156 0.258050 -0.964556 0 0
    0 -5.793655 -11.401487 15.692317 -0.576657 0.480209 -0.660958 0 0
  phy
    0 5.653359 -5.994518 18.447801 0.055107 0.358186 -0.932022 0 0
    0 -5.793655 -11.401487 15.692317 -0.576657 0.480209 -0.660958 0 0
    0 5.653287 -11.401773 15.692519 0.815974 0.339799 -0.467678 0 0
  phy
    0 5.653946 15.692273 11.401754 0.461531 -0.744182 -0.482889 0 0
    0 -5.792963 15.692568 11.401557 -0.873140 -0.378728 -0.306906 0 0
    0 5.653783 11.400946 15.692917 0.055132 -0.628660 -0.775724 0 0
  phy
    0 5.653783 11.400946 15.692917 0.055132 -0.628660 -0.775724 0 0
    0 -5.792963 15.692568 11.401557 -0.873140 -0.378728 -0.306906 0 0
    0 -5.793116 11.401223 15.692737 -0.897986 -0.239531 -0.369115 0 0
  phy
    0 -5.793116 11.401223 15.692737 -0.897986 -0.239531 -0.369115 0 0
    0 -5.793276 5.993905 18.447812 -0.957175 -0.089486 -0.275334 0 0
    0 5.653620 5.993590 18.448011 0.159729 -0.305041 -0.938848 0 0
  phy
    0 -5.793116 11.401223 15.692737 -0.897986 -0.239531 -0.369115 0 0
    0 5.653620 5.993590 18.448011 0.159729 -0.305041 -0.938848 0 0
    0 5.653783 11.400946 15.692917 0.055132 -0.628660 -0.775724 0 0
  phy
    0 -5.793655 -11.401487 15.692317 -0.576657 0.480209 -0.660958 0 0
    0 -5.793706 -15.692682 11.400993 -0.210650 0.820057 -0.532102 0 0
    0 5.653265 -15.692985 11.401176 0.210591 0.759480 -0.615500 0 0
  phy
    0 -5.793655 -11.401487 15.692317 -0.576657 0.480209 -0.660958 0 0
    0 5.653265 -15.692985 11.401176 0.210591 0.759480 -0.615500 0 0
    0 5.653287 -11.401773 15.692519 0.815974 0.339799 -0.467678 0 0
  phy
    0 5.653265 -15.692985 11.401176 0.210591 0.759480 -0.615500 0 0
    0 -5.793706 -15.692682 11.400993 -0.210650 0.820057 -0.532102 0 0
    0 5.653295 -18.448054 5.993844 0.055101 0.932025 -0.358180 0 0
  phy
    0 5.653295 -18.448054 5.993844 0.055101 0.932025 -0.358180 0 0
    0 -5.793706 -15.692682 11.400993 -0.210650 0.820057 -0.532102 0 0
    0 -5.793706 -18.447758 5.993647 -0.055160 0.964557 -0.258046 0 0
  phy
    0 5.653620 5.993590 18.448011 0.159729 -0.305041 -0.938848 0 0
    0 5.653946 15.692273 11.401754 0.461531 -0.744182 -0.482889 0 0
    0 5.653783 11.400946 15.692917 0.055132 -0.628660 -0.775724 0 0
  phy
    0 5.653620 5.993590 18.448011 0.159729 -0.305041 -0.938848 0 0
    0 5.653474 -0.000469 19.397219 0.995051 0.005260 -0.099229 0 0
    0 5.653946 15.692273 11.401754 0.461531 -0.744182 -0.482889 0 0
  phy
    0 5.653474 -0.000469 19.397219 0.995051 0.005260 -0.099229 0 0
    0 5.654097 18.447559 5.994490 0.614807 -0.761879 -0.203842 0 0
    0 5.653946 15.692273 11.401754 0.461531 -0.744182 -0.482889 0 0
  phy
    0 5.653474 -0.000469 19.397219 0.995051 0.005260 -0.099229 0 0
    0 5.654216 19.396985 0.000417 0.861229 -0.508217 -0.000016 0 0
    0 5.654097 18.447559 5.994490 0.614807 -0.761879 -0.203842 0 0
  phy
    0 5.653474 -0.000469 19.397219 0.995051 0.005260 -0.099229 0 0
    0 5.654294 18.447777 -5.993632 0.828025 -0.541645 0.144896 0 0
    0 5.654216 19.396985 0.000417 0.861229 -0.508217 -0.000016 0 0
  phy
    0 5.653474 -0.000469 19.397219 0.995051 0.005260 -0.099229 0 0
    0 5.654324 15.692692 -11.400984 0.873157 -0.408904 0.265319 0 0
    0 5.654294 18.447777 -5.993632 0.828025 -0.541645 0.144896 0 0
  phy
    0 5.653474 -0.000469 19.397219 0.995051 0.005260 -0.099229 0 0
    0 5.654302 11.401477 -15.692331 0.837522 -0.321164 0.442053 0 0
    0 5.654324 15.692692 -11.400984 0.873157 -0.408904 0.265319 0 0
  phy
    0 5.653474 -0.000469 19.397219 0.995051 0.005260 -0.099229 0 0
    0 5.654230 5.994237 -18.447599 0.910445 -0.106885 0.399581 0 0
    0 5.654302 11.401477 -15.692331 0.837522 -0.321164 0.442053 0 0
  phy
    0 5.653474 -0.000469 19.397219 0.995051 0.005260 -0.099229 0 0
    0 5.654115 0.000178 -19.397022 0.985054 0.009102 0.172004 0 0
    0 5.654230 5.994237 -18.447599 0.910445 -0.106885 0.399581 0 0
  phy
    0 5.653474 -0.000469 19.397219 0.995051 0.005260 -0.099229 0 0
    0 5.653373 -19.397271 -0.000248 0.983094 0.182844 -0.009668 0 0
    0 5.654115 0.000178 -19.397022 0.985054 0.009102 0.172004 0 0
  phy
    0 5.653474 -0.000469 19.397219 0.995051 0.005260 -0.099229 0 0
    0 5.653287 -11.401773 15.692519 0.815974 0.339799 -0.467678 0 0
    0 5.653373 -19.397271 -0.000248 0.983094 0.182844 -0.009668 0 0
  phy
    0 5.653474 -0.000469 19.397219 0.995051 0.005260 -0.099229 0 0
    0 5.653359 -5.994518 18.447801 0.055107 0.358186 -0.932022 0 0
    0 5.653287 -11.401773 15.692519 0.815974 0.339799 -0.467678 0 0
  phy
    0 5.653287 -11.401773 15.692519 0.815974 0.339799 -0.467678 0 0
    0 5.653265 -15.692985 11.401176 0.210591 0.759480 -0.615500 0 0
    0 5.653373 -19.397271 -0.000248 0.983094 0.182844 -0.009668 0 0
  phy
    0 5.653265 -15.692985 11.401176 0.210591 0.759480 -0.615500 0 0
    0 5.653295 -18.448054 5.993844 0.055101 0.932025 -0.358180 0 0
    0 5.653373 -19.397271 -0.000248 0.983094 0.182844 -0.009668 0 0
  phy
    0 5.653373 -19.397271 -0.000248 0.983094 0.182844 -0.009668 0 0
    0 5.653642 -15.692568 -11.401543 0.684802 0.566161 0.458811 0 0
    0 5.654115 0.000178 -19.397022 0.985054 0.009102 0.172004 0 0
  phy
    0 5.653373 -19.397271 -0.000248 0.983094 0.182844 -0.009668 0 0
    0 5.653492 -18.447858 -5.994279 0.041414 0.950241 0.308752 0 0
    0 5.653642 -15.692568 -11.401543 0.684802 0.566161 0.458811 0 0
  phy
    0 5.653642 -15.692568 -11.401543 0.684802 0.566161 0.458811 0 0
    0 5.653806 -11.401218 -15.692736 0.210618 0.532110 0.820061 0 0
    0 5.654115 0.000178 -19.397022 0.985054 0.009102 0.172004 0 0
  phy
    0 5.653806 -11.401218 -15.692736 0.210618 0.532110 0.820061 0 0
    0 5.653969 -5.993881 -18.447811 0.082662 0.307957 0.947803 0 0
    0 5.654115 0.000178 -19.397022 0.985054 0.009102 0.172004 0 0
  phy
    0 -5.793282 -11.400932 -15.692929 -0.055131 0.628660 0.775724 0 0
    0 -5.793123 -5.993604 -18.447998 -0.159727 0.305041 0.938849 0 0
    0 5.653806 -11.401218 -15.692736 0.210618 0.532110 0.820061 0 0
  phy
    0 -5.793123 -5.993604 -18.447998 -0.159727 0.305041 0.938849 0 0
    0 5.653969 -5.993881 -18.447811 0.082662 0.307957 0.947803 0 0
    0 5.653806 -11.401218 -15.692736 0.210618 0.532110 0.820061 0 0
  phy
    0 5.654230 5.994237 -18.447599 0.910445 -0.106885 0.399581 0 0
    0 -5.792970 0.000492 -19.397217 -0.995152 -0.005208 0.098207 0 0
    0 -5.792839 5.994542 -18.447794 -0.210593 -0.350688 0.912506 0 0
  phy
    0 5.654230 5.994237 -18.447599 0.910445 -0.106885 0.399581 0 0
    0 5.654115 0.000178 -19.397022 0.985054 0.009102 0.172004 0 0
    0 -5.792970 0.000492 -19.397217 -0.995152 -0.005208 0.098207 0 0
  phy
    0 5.653969 -5.993881 -18.447811 0.082662 0.307957 0.947803 0 0
    0 -5.793123 -5.993604 -18.447998 -0.159727 0.305041 0.938849 0 0
    0 5.654115 0.000178 -19.397022 0.985054 0.009102 0.172004 0 0
  phy
    0 -5.793123 -5.993604 -18.447998 -0.159727 0.305041 0.938849 0 0
    0 -5.792970 0.000492 -19.397217 -0.995152 -0.005208 0.098207 0 0
    0 5.654115 0.000178 -19.397022 0.985054 0.009102 0.172004 0 0
  phy
    0 -5.792839 5.994542 -18.447794 -0.210593 -0.350688 0.912506 0 0
    0 5.654302 11.401477 -15.692331 0.837522 -0.321164 0.442053 0 0
    0 5.654230 5.994237 -18.447599 0.910445 -0.106885 0.399581 0 0
  phy
    0 -5.792839 5.994542 -18.447794 -0.210593 -0.350688 0.912506 0 0
    0 -5.792744 11.401778 -15.692528 -0.082621 -0.585779 0.806248 0 0
    0 5.654302 11.401477 -15.692331 0.837522 -0.321164 0.442053 0 0
  phy
    0 5.654302 11.401477 -15.692331 0.837522 -0.321164 0.442053 0 0
    0 -5.792693 15.692987 -11.401185 -0.461490 -0.689227 0.558563 0 0
    0 5.654324 15.692692 -11.400984 0.873157 -0.408904 0.265319 0 0
  phy
    0 5.654302 11.401477 -15.692331 0.837522 -0.321164 0.442053 0 0
    0 -5.792744 11.401778 -15.692528 -0.082621 -0.585779 0.806248 0 0
    0 -5.792693 15.692987 -11.401185 -0.461490 -0.689227 0.558563 0 0
  phy
    0 5.653373 -19.397271 -0.000248 0.983094 0.182844 -0.009668 0 0
    0 5.653295 -18.448054 5.993844 0.055101 0.932025 -0.358180 0 0
    0 -5.793706 -18.447758 5.993647 -0.055160 0.964557 -0.258046 0 0
  phy
    0 5.653373 -19.397271 -0.000248 0.983094 0.182844 -0.009668 0 0
    0 -5.793706 -18.447758 5.993647 -0.055160 0.964557 -0.258046 0 0
    0 -5.793658 -19.396973 -0.000431 -0.983103 0.182799 0.009664 0 0
  phy
    0 5.653492 -18.447858 -5.994279 0.041414 0.950241 0.308752 0 0
    0 5.653373 -19.397271 -0.000248 0.983094 0.182844 -0.009668 0 0
    0 -5.793658 -19.396973 -0.000431 -0.983103 0.182799 0.009664 0 0
  phy
    0 5.653492 -18.447858 -5.994279 0.041414 0.950241 0.308752 0 0
    0 -5.793658 -19.396973 -0.000431 -0.983103 0.182799 0.009664 0 0
    0 -5.793564 -18.447559 -5.994462 -0.082675 0.947800 0.307962 0 0
  phy
    0 -5.792693 18.448068 -5.993844 -0.614768 -0.736214 0.282931 0 0
    0 5.654324 15.692692 -11.400984 0.873157 -0.408904 0.265319 0 0
    0 -5.792693 15.692987 -11.401185 -0.461490 -0.689227 0.558563 0 0
  phy
    0 -5.792693 18.448068 -5.993844 -0.614768 -0.736214 0.282931 0 0
    0 5.654294 18.447777 -5.993632 0.828025 -0.541645 0.144896 0 0
    0 5.654324 15.692692 -11.400984 0.873157 -0.408904 0.265319 0 0
  phy
    0 5.654294 18.447777 -5.993632 0.828025 -0.541645 0.144896 0 0
    0 -5.792741 19.397279 0.000237 -0.646416 -0.762985 0.000006 0 0
    0 5.654216 19.396985 0.000417 0.861229 -0.508217 -0.000016 0 0
  phy
    0 5.654294 18.447777 -5.993632 0.828025 -0.541645 0.144896 0 0
    0 -5.792693 18.448068 -5.993844 -0.614768 -0.736214 0.282931 0 0
    0 -5.792741 19.397279 0.000237 -0.646416 -0.762985 0.000006 0 0
end
