version 1
nodes
0 "root" -1
1 "steering_wheel" 0
end
skeleton
time 0
0  0.000000 0.000000 0.000000  0.000000 -0.000000 0.000000
1  19.916300 17.934299 33.308498  0.000000 -0.000000 0.000000
end
triangles
leftwindow
0  33.703888 3.094021 52.113842  0.949754 -0.008073 0.312894  0.672872 0.356670 1 0 1.000000
0  35.983112 3.226150 43.613548  0.974527 -0.004886 0.224218  0.671651 0.050508 1 0 1.000000
0  35.619755 14.247904 45.342236  0.970773 -0.000978 0.239998  0.847194 0.097873 1 0 1.000000
leftwindow
0  35.619755 14.247904 45.342236  0.970773 -0.000978 0.239998  0.847194 0.097873 1 0 1.000000
0  33.659843 13.124808 52.840549  0.947203 -0.001625 0.320631  0.832301 0.372295 1 0 1.000000
0  33.703888 3.094021 52.113842  0.949754 -0.008073 0.312894  0.672872 0.356670 1 0 1.000000
leftwindow
0  29.651934 2.950881 61.935425  0.907157 -0.009781 0.420679  0.675802 0.728751 1 0 1.000000
0  33.703888 3.094021 52.113842  0.949754 -0.008073 0.312894  0.672872 0.356670 1 0 1.000000
0  33.659843 13.124808 52.840549  0.947203 -0.001625 0.320631  0.832301 0.372295 1 0 1.000000
leftwindow
0  29.574860 3.094021 62.078564  0.906462 -0.009677 0.422176  0.677023 0.735099 1 0 1.000000
0  29.651934 2.950881 61.935425  0.907157 -0.009781 0.420679  0.675802 0.728751 1 0 1.000000
0  33.659843 13.124808 52.840549  0.947203 -0.001625 0.320631  0.832301 0.372295 1 0 1.000000
leftwindow
0  29.729010 18.454006 62.034519  0.901198 -0.003176 0.433396  0.922147 0.716056 1 0 1.000000
0  29.574860 3.094021 62.078564  0.906462 -0.009677 0.422176  0.677023 0.735099 1 0 1.000000
0  33.659843 13.124808 52.840549  0.947203 -0.001625 0.320631  0.832301 0.372295 1 0 1.000000
leftwindow
0  29.729010 18.454006 62.034519  0.901198 -0.003176 0.433396  0.922147 0.716056 1 0 1.000000
0  33.659843 13.124808 52.840549  0.947203 -0.001625 0.320631  0.832301 0.372295 1 0 1.000000
0  29.828106 20.413919 61.825317  0.901828 -0.002380 0.432089  0.953398 0.706778 1 0 1.000000
leftwindow
0  30.048321 21.636112 61.373875  0.904348 -0.001189 0.426794  0.972442 0.687735 1 0 1.000000
0  29.828106 20.413919 61.825317  0.901828 -0.002380 0.432089  0.953398 0.706778 1 0 1.000000
0  33.659843 13.124808 52.840549  0.947203 -0.001625 0.320631  0.832301 0.372295 1 0 1.000000
leftwindow
0  30.764017 22.395853 59.865406  0.912622 0.000964 0.408804  0.983184 0.627918 1 0 1.000000
0  30.048321 21.636112 61.373875  0.904348 -0.001189 0.426794  0.972442 0.687735 1 0 1.000000
0  33.659843 13.124808 52.840549  0.947203 -0.001625 0.320631  0.832301 0.372295 1 0 1.000000
leftwindow
0  32.723930 23.276712 55.020679  0.939407 0.004260 0.342778  0.994171 0.441633 1 0 1.000000
0  30.764017 22.395853 59.865406  0.912622 0.000964 0.408804  0.983184 0.627918 1 0 1.000000
0  33.659843 13.124808 52.840549  0.947203 -0.001625 0.320631  0.832301 0.372295 1 0 1.000000
leftwindow
0  34.617779 23.739162 49.350143  0.961016 0.000571 0.276493  0.999542 0.227271 1 0 1.000000
0  32.723930 23.276712 55.020679  0.939407 0.004260 0.342778  0.994171 0.441633 1 0 1.000000
0  33.659843 13.124808 52.840549  0.947203 -0.001625 0.320631  0.832301 0.372295 1 0 1.000000
leftwindow
0  33.659843 13.124808 52.840549  0.947203 -0.001625 0.320631  0.832301 0.372295 1 0 1.000000
0  34.970119 23.562992 48.050877  0.965452 -0.001119 0.260577  0.996857 0.176733 1 0 1.000000
0  34.617779 23.739162 49.350143  0.961016 0.000571 0.276493  0.999542 0.227271 1 0 1.000000
leftwindow
0  33.659843 13.124808 52.840549  0.947203 -0.001625 0.320631  0.832301 0.372295 1 0 1.000000
0  35.179321 23.023464 47.236084  0.967579 -0.002037 0.252560  0.987335 0.151585 1 0 1.000000
0  34.970119 23.562992 48.050877  0.965452 -0.001119 0.260577  0.996857 0.176733 1 0 1.000000
leftwindow
0  35.619755 14.247904 45.342236  0.970773 -0.000978 0.239998  0.847194 0.097873 1 0 1.000000
0  35.179321 23.023464 47.236084  0.967579 -0.002037 0.252560  0.987335 0.151585 1 0 1.000000
0  33.659843 13.124808 52.840549  0.947203 -0.001625 0.320631  0.832301 0.372295 1 0 1.000000
rightwindow
0  -35.619747 14.247898 45.342243  -0.970773 -0.000965 0.239996  0.847194 0.097873 1 0 1.000000
0  -35.983105 3.226145 43.613556  -0.974527 -0.004887 0.224218  0.671651 0.050508 1 0 1.000000
0  -33.703880 3.094016 52.113850  -0.949751 -0.008111 0.312900  0.672872 0.356670 1 0 1.000000
rightwindow
0  -33.703880 3.094016 52.113850  -0.949751 -0.008111 0.312900  0.672872 0.356670 1 0 1.000000
0  -33.824997 13.124803 52.840557  -0.947185 -0.001640 0.320684  0.832301 0.372295 1 0 1.000000
0  -35.619747 14.247898 45.342243  -0.970773 -0.000965 0.239996  0.847194 0.097873 1 0 1.000000
rightwindow
0  -35.619747 14.247898 45.342243  -0.970773 -0.000965 0.239996  0.847194 0.097873 1 0 1.000000
0  -33.824997 13.124803 52.840557  -0.947185 -0.001640 0.320684  0.832301 0.372295 1 0 1.000000
0  -35.179321 23.023460 47.236092  -0.967581 -0.001981 0.252555  0.987335 0.151585 1 0 1.000000
rightwindow
0  -33.824997 13.124803 52.840557  -0.947185 -0.001640 0.320684  0.832301 0.372295 1 0 1.000000
0  -34.970119 23.562988 48.050884  -0.965450 -0.001098 0.260588  0.996857 0.176733 1 0 1.000000
0  -35.179321 23.023460 47.236092  -0.967581 -0.001981 0.252555  0.987335 0.151585 1 0 1.000000
rightwindow
0  -33.824997 13.124803 52.840557  -0.947185 -0.001640 0.320684  0.832301 0.372295 1 0 1.000000
0  -34.617771 23.739159 49.350151  -0.961013 0.000580 0.276504  0.999542 0.227271 1 0 1.000000
0  -34.970119 23.562988 48.050884  -0.965450 -0.001098 0.260588  0.996857 0.176733 1 0 1.000000
rightwindow
0  -34.617771 23.739159 49.350151  -0.961013 0.000580 0.276504  0.999542 0.227271 1 0 1.000000
0  -33.824997 13.124803 52.840557  -0.947185 -0.001640 0.320684  0.832301 0.372295 1 0 1.000000
0  -32.723923 23.276709 55.020687  -0.939432 0.004276 0.342708  0.994171 0.441633 1 0 1.000000
rightwindow
0  -32.723923 23.276709 55.020687  -0.939432 0.004276 0.342708  0.994171 0.441633 1 0 1.000000
0  -33.824997 13.124803 52.840557  -0.947185 -0.001640 0.320684  0.832301 0.372295 1 0 1.000000
0  -30.764013 22.395849 59.865414  -0.912622 0.000964 0.408803  0.983184 0.627918 1 0 1.000000
rightwindow
0  -30.764013 22.395849 59.865414  -0.912622 0.000964 0.408803  0.983184 0.627918 1 0 1.000000
0  -33.824997 13.124803 52.840557  -0.947185 -0.001640 0.320684  0.832301 0.372295 1 0 1.000000
0  -30.048313 21.636108 61.373882  -0.904352 -0.001206 0.426787  0.972442 0.687735 1 0 1.000000
rightwindow
0  -30.048313 21.636108 61.373882  -0.904352 -0.001206 0.426787  0.972442 0.687735 1 0 1.000000
0  -33.824997 13.124803 52.840557  -0.947185 -0.001640 0.320684  0.832301 0.372295 1 0 1.000000
0  -29.828098 20.413916 61.825325  -0.901829 -0.002381 0.432086  0.953398 0.706778 1 0 1.000000
rightwindow
0  -29.729002 18.454002 62.034527  -0.901200 -0.003174 0.433391  0.922147 0.716056 1 0 1.000000
0  -29.828098 20.413916 61.825325  -0.901829 -0.002381 0.432086  0.953398 0.706778 1 0 1.000000
0  -33.824997 13.124803 52.840557  -0.947185 -0.001640 0.320684  0.832301 0.372295 1 0 1.000000
rightwindow
0  -29.729002 18.454002 62.034527  -0.901200 -0.003174 0.433391  0.922147 0.716056 1 0 1.000000
0  -33.824997 13.124803 52.840557  -0.947185 -0.001640 0.320684  0.832301 0.372295 1 0 1.000000
0  -29.574852 3.094017 62.078571  -0.906467 -0.009675 0.422167  0.677023 0.735099 1 0 1.000000
rightwindow
0  -29.574852 3.094017 62.078571  -0.906467 -0.009675 0.422167  0.677023 0.735099 1 0 1.000000
0  -33.824997 13.124803 52.840557  -0.947185 -0.001640 0.320684  0.832301 0.372295 1 0 1.000000
0  -29.651926 2.950877 61.935432  -0.907163 -0.009647 0.420670  0.675802 0.728751 1 0 1.000000
rightwindow
0  -29.651926 2.950877 61.935432  -0.907163 -0.009647 0.420670  0.675802 0.728751 1 0 1.000000
0  -33.824997 13.124803 52.840557  -0.947185 -0.001640 0.320684  0.832301 0.372295 1 0 1.000000
0  -33.703880 3.094016 52.113850  -0.949751 -0.008111 0.312900  0.672872 0.356670 1 0 1.000000
windowmask
0  -31.986200 -55.328987 41.389385  -0.108794 -0.613357 0.782277  0.020264 0.086642 1 0 1.000000
0  -32.008221 -55.284943 41.224224  -0.908937 -0.412980 0.057284  0.018311 0.084933 1 0 1.000000
0  -31.369598 -56.397030 40.629646  -0.110232 -0.616553 0.779559  0.029054 0.059786 1 0 1.000000
windowmask
0  -32.129341 -50.098885 45.485382  -0.102421 -0.597048 0.795641  0.018555 0.219459 1 0 1.000000
0  -32.415619 -53.005718 43.184135  -0.106295 -0.606392 0.788029  0.014405 0.144505 1 0 1.000000
0  -30.246502 -51.750496 44.538460  -0.102116 -0.600979 0.792715  0.047121 0.180639 1 0 1.000000
windowmask
0  -29.684956 -52.323051 44.175102  -0.101886 -0.602488 0.791598  0.055422 0.166967 1 0 1.000000
0  -30.246502 -51.750496 44.538460  -0.102116 -0.600979 0.792715  0.047121 0.180639 1 0 1.000000
0  -32.415619 -53.005718 43.184135  -0.106295 -0.606392 0.788029  0.014405 0.144505 1 0 1.000000
windowmask
0  -32.415619 -53.005718 43.184135  -0.106295 -0.606392 0.788029  0.014405 0.144505 1 0 1.000000
0  -31.986200 -55.328987 41.389385  -0.108794 -0.613357 0.782277  0.020264 0.086642 1 0 1.000000
0  -29.684956 -52.323051 44.175102  -0.101886 -0.602488 0.791598  0.055422 0.166967 1 0 1.000000
windowmask
0  -28.704998 -52.642365 44.087017  -0.100696 -0.602787 0.791523  0.070315 0.160619 1 0 1.000000
0  -29.684956 -52.323051 44.175102  -0.101886 -0.602488 0.791598  0.055422 0.166967 1 0 1.000000
0  -31.986200 -55.328987 41.389385  -0.108794 -0.613357 0.782277  0.020264 0.086642 1 0 1.000000
windowmask
0  -31.986200 -55.328987 41.389385  -0.108794 -0.613357 0.782277  0.020264 0.086642 1 0 1.000000
0  -31.369598 -56.397030 40.629646  -0.110232 -0.616553 0.779559  0.029054 0.059786 1 0 1.000000
0  -28.704998 -52.642365 44.087017  -0.100696 -0.602787 0.791523  0.070315 0.160619 1 0 1.000000
windowmask
0  -28.704998 -52.642365 44.087017  -0.100696 -0.602787 0.791523  0.070315 0.160619 1 0 1.000000
0  -31.369598 -56.397030 40.629646  -0.110232 -0.616553 0.779559  0.029054 0.059786 1 0 1.000000
0  -23.618036 -57.817410 40.684696  -0.098794 -0.615394 0.782004  0.146733 0.033418 1 0 1.000000
windowmask
0  -23.618036 -57.817410 40.684696  -0.098794 -0.615394 0.782004  0.146733 0.033418 1 0 1.000000
0  -21.933392 -53.523220 44.263187  -0.087897 -0.601477 0.794040  0.172124 0.147191 1 0 1.000000
0  -28.704998 -52.642365 44.087017  -0.100696 -0.602787 0.791523  0.070315 0.160619 1 0 1.000000
windowmask
0  -21.933392 -53.523220 44.263187  -0.087897 -0.601477 0.794040  0.172124 0.147191 1 0 1.000000
0  -23.618036 -57.817410 40.684696  -0.098794 -0.615394 0.782004  0.146733 0.033418 1 0 1.000000
0  -12.398088 -59.061623 40.695705  -0.045191 -0.610945 0.790382  0.316904 0.011933 1 0 1.000000
windowmask
0  -12.398088 -59.061623 40.695705  -0.045191 -0.610945 0.790382  0.316904 0.011933 1 0 1.000000
0  -11.748455 -54.293972 44.428349  -0.041362 -0.598404 0.800126  0.326670 0.135472 1 0 1.000000
0  -21.933392 -53.523220 44.263187  -0.087897 -0.601477 0.794040  0.172124 0.147191 1 0 1.000000
windowmask
0  -11.748455 -54.293972 44.428349  -0.041362 -0.598404 0.800126  0.326670 0.135472 1 0 1.000000
0  -12.398088 -59.061623 40.695705  -0.045191 -0.610945 0.790382  0.316904 0.011933 1 0 1.000000
0  0.000008 -59.656204 40.651661  0.000011 -0.609562 0.792738  0.505142 0.000214 1 0 1.000000
windowmask
0  0.000008 -59.656204 40.651661  0.000011 -0.609562 0.792738  0.505142 0.000214 1 0 1.000000
0  0.000007 -54.613285 44.516434  0.000016 -0.597557 0.801827  0.505142 0.130100 1 0 1.000000
0  -11.748455 -54.293972 44.428349  -0.041362 -0.598404 0.800126  0.326670 0.135472 1 0 1.000000
windowmask
0  11.748470 -54.293972 44.428349  0.041407 -0.598418 0.800113  0.683126 0.135472 1 0 1.000000
0  0.000007 -54.613285 44.516434  0.000016 -0.597557 0.801827  0.505142 0.130100 1 0 1.000000
0  0.000008 -59.656204 40.651661  0.000011 -0.609562 0.792738  0.505142 0.000214 1 0 1.000000
windowmask
0  0.000008 -59.656204 40.651661  0.000011 -0.609562 0.792738  0.505142 0.000214 1 0 1.000000
0  12.398104 -59.061623 40.695705  0.045191 -0.610945 0.790382  0.693381 0.011933 1 0 1.000000
0  11.748470 -54.293972 44.428349  0.041407 -0.598418 0.800113  0.683126 0.135472 1 0 1.000000
windowmask
0  21.933407 -53.523220 44.263187  0.087893 -0.601479 0.794039  0.837916 0.147191 1 0 1.000000
0  11.748470 -54.293972 44.428349  0.041407 -0.598418 0.800113  0.683126 0.135472 1 0 1.000000
0  12.398104 -59.061623 40.695705  0.045191 -0.610945 0.790382  0.693381 0.011933 1 0 1.000000
windowmask
0  12.398104 -59.061623 40.695705  0.045191 -0.610945 0.790382  0.693381 0.011933 1 0 1.000000
0  23.618052 -57.817410 40.684696  0.098795 -0.615394 0.782004  0.863308 0.033418 1 0 1.000000
0  21.933407 -53.523220 44.263187  0.087893 -0.601479 0.794039  0.837916 0.147191 1 0 1.000000
windowmask
0  28.705013 -52.642357 44.087009  0.100708 -0.602803 0.791509  0.940214 0.160619 1 0 1.000000
0  21.933407 -53.523220 44.263187  0.087893 -0.601479 0.794039  0.837916 0.147191 1 0 1.000000
0  23.618052 -57.817410 40.684696  0.098795 -0.615394 0.782004  0.863308 0.033418 1 0 1.000000
windowmask
0  23.618052 -57.817410 40.684696  0.098795 -0.615394 0.782004  0.863308 0.033418 1 0 1.000000
0  31.369614 -56.397022 40.629639  0.110231 -0.616554 0.779557  0.981231 0.059786 1 0 1.000000
0  28.705013 -52.642357 44.087009  0.100708 -0.602803 0.791509  0.940214 0.160619 1 0 1.000000
windowmask
0  28.705013 -52.642357 44.087009  0.100708 -0.602803 0.791509  0.940214 0.160619 1 0 1.000000
0  31.369614 -56.397022 40.629639  0.110231 -0.616554 0.779557  0.981231 0.059786 1 0 1.000000
0  31.986216 -55.328979 41.389378  0.108763 -0.613438 0.782218  0.989776 0.086642 1 0 1.000000
windowmask
0  28.099422 -35.080223 56.187817  0.092248 -0.501191 0.860406  0.930204 0.592029 1 0 1.000000
0  29.332626 -40.530540 52.675388  0.090171 -0.547510 0.831927  0.949004 0.460189 1 0 1.000000
0  30.334604 -40.277294 52.686401  0.090966 -0.546557 0.832467  0.964385 0.464827 1 0 1.000000
windowmask
0  29.332626 -40.530540 52.675388  0.090171 -0.547510 0.831927  0.949004 0.460189 1 0 1.000000
0  30.521786 -48.799606 46.718578  0.099176 -0.591879 0.799902  0.967071 0.254616 1 0 1.000000
0  30.334604 -40.277294 52.686401  0.090966 -0.546557 0.832467  0.964385 0.464827 1 0 1.000000
windowmask
0  30.521786 -48.799606 46.718578  0.099176 -0.591879 0.799902  0.967071 0.254616 1 0 1.000000
0  32.129356 -50.098877 45.485374  0.102428 -0.597100 0.795600  0.991729 0.219459 1 0 1.000000
0  30.334604 -40.277294 52.686401  0.090966 -0.546557 0.832467  0.964385 0.464827 1 0 1.000000
windowmask
0  32.129356 -50.098877 45.485374  0.102428 -0.597100 0.795600  0.991729 0.219459 1 0 1.000000
0  30.521786 -48.799606 46.718578  0.099176 -0.591879 0.799902  0.967071 0.254616 1 0 1.000000
0  30.246517 -51.750488 44.538452  0.102066 -0.600989 0.792713  0.963164 0.180639 1 0 1.000000
windowmask
0  30.246517 -51.750488 44.538452  0.102066 -0.600989 0.792713  0.963164 0.180639 1 0 1.000000
0  32.415634 -53.005711 43.184128  0.106298 -0.606391 0.788029  0.995880 0.144505 1 0 1.000000
0  32.129356 -50.098877 45.485374  0.102428 -0.597100 0.795600  0.991729 0.219459 1 0 1.000000
windowmask
0  32.415634 -53.005711 43.184128  0.106298 -0.606391 0.788029  0.995880 0.144505 1 0 1.000000
0  30.246517 -51.750488 44.538452  0.102066 -0.600989 0.792713  0.963164 0.180639 1 0 1.000000
0  29.684971 -52.323044 44.175095  0.101881 -0.602497 0.791592  0.955107 0.166967 1 0 1.000000
windowmask
0  29.684971 -52.323044 44.175095  0.101881 -0.602497 0.791592  0.955107 0.166967 1 0 1.000000
0  31.986216 -55.328979 41.389378  0.108763 -0.613438 0.782218  0.989776 0.086642 1 0 1.000000
0  32.415634 -53.005711 43.184128  0.106298 -0.606391 0.788029  0.995880 0.144505 1 0 1.000000
windowmask
0  31.986216 -55.328979 41.389378  0.108763 -0.613438 0.782218  0.989776 0.086642 1 0 1.000000
0  29.684971 -52.323044 44.175095  0.101881 -0.602497 0.791592  0.955107 0.166967 1 0 1.000000
0  28.705013 -52.642357 44.087009  0.100708 -0.602803 0.791509  0.940214 0.160619 1 0 1.000000
windowmask
0  31.986216 -55.328979 41.389378  0.108763 -0.613438 0.782218  0.989776 0.086642 1 0 1.000000
0  31.369614 -56.397022 40.629639  0.110231 -0.616554 0.779557  0.981231 0.059786 1 0 1.000000
0  32.008236 -55.284935 41.224216  0.908931 -0.412993 0.057281  0.991729 0.084933 1 0 1.000000
windowmask
0  31.986216 -55.328979 41.389378  0.108763 -0.613438 0.782218  0.989776 0.086642 1 0 1.000000
0  32.008236 -55.284935 41.224216  0.908931 -0.412993 0.057281  0.991729 0.084933 1 0 1.000000
0  32.481697 -52.917625 42.930882  0.981491 -0.089265 0.169434  0.999786 0.143529 1 0 1.000000
windowmask
0  32.415634 -53.005711 43.184128  0.106298 -0.606391 0.788029  0.995880 0.144505 1 0 1.000000
0  31.986216 -55.328979 41.389378  0.108763 -0.613438 0.782218  0.989776 0.086642 1 0 1.000000
0  32.481697 -52.917625 42.930882  0.981491 -0.089265 0.169434  0.999786 0.143529 1 0 1.000000
windowmask
0  32.415634 -53.005711 43.184128  0.106298 -0.606391 0.788029  0.995880 0.144505 1 0 1.000000
0  32.481697 -52.917625 42.930882  0.981491 -0.089265 0.169434  0.999786 0.143529 1 0 1.000000
0  32.162388 -49.966747 45.265160  0.983856 -0.005658 0.178873  0.995880 0.219459 1 0 1.000000
windowmask
0  32.129356 -50.098877 45.485374  0.102428 -0.597100 0.795600  0.991729 0.219459 1 0 1.000000
0  32.415634 -53.005711 43.184128  0.106298 -0.606391 0.788029  0.995880 0.144505 1 0 1.000000
0  32.162388 -49.966747 45.265160  0.983856 -0.005658 0.178873  0.995880 0.219459 1 0 1.000000
windowmask
0  32.162388 -49.966747 45.265160  0.983856 -0.005658 0.178873  0.995880 0.219459 1 0 1.000000
0  30.367636 -40.123142 52.477196  0.975351 0.053503 0.214073  0.967803 0.465804 1 0 1.000000
0  32.129356 -50.098877 45.485374  0.102428 -0.597100 0.795600  0.991729 0.219459 1 0 1.000000
windowmask
0  30.367636 -40.123142 52.477196  0.975351 0.053503 0.214073  0.967803 0.465804 1 0 1.000000
0  30.334604 -40.277294 52.686401  0.090966 -0.546557 0.832467  0.964385 0.464827 1 0 1.000000
0  32.129356 -50.098877 45.485374  0.102428 -0.597100 0.795600  0.991729 0.219459 1 0 1.000000
windowmask
0  29.123423 -34.771923 56.198826  0.093249 -0.499139 0.861490  0.946318 0.597400 1 0 1.000000
0  30.334604 -40.277294 52.686401  0.090966 -0.546557 0.832467  0.964385 0.464827 1 0 1.000000
0  30.367636 -40.123142 52.477196  0.975351 0.053503 0.214073  0.967803 0.465804 1 0 1.000000
windowmask
0  29.123423 -34.771923 56.198826  0.093249 -0.499139 0.861490  0.946318 0.597400 1 0 1.000000
0  28.099422 -35.080223 56.187817  0.092248 -0.501191 0.860406  0.930204 0.592029 1 0 1.000000
0  30.334604 -40.277294 52.686401  0.090966 -0.546557 0.832467  0.964385 0.464827 1 0 1.000000
windowmask
0  26.392757 -29.508789 59.469017  0.098136 -0.472311 0.875952  0.904813 0.721915 1 0 1.000000
0  28.099422 -35.080223 56.187817  0.092248 -0.501191 0.860406  0.930204 0.592029 1 0 1.000000
0  29.123423 -34.771923 56.198826  0.093249 -0.499139 0.861490  0.946318 0.597400 1 0 1.000000
windowmask
0  29.123423 -34.771923 56.198826  0.093249 -0.499139 0.861490  0.946318 0.597400 1 0 1.000000
0  27.769100 -29.156445 59.435986  0.099656 -0.471065 0.876451  0.924833 0.727287 1 0 1.000000
0  26.392757 -29.508789 59.469017  0.098136 -0.472311 0.875952  0.904813 0.721915 1 0 1.000000
windowmask
0  26.106478 -29.134424 59.700245  0.098317 -0.471441 0.876400  0.900174 0.729972 1 0 1.000000
0  26.392757 -29.508789 59.469017  0.098136 -0.472311 0.875952  0.904813 0.721915 1 0 1.000000
0  27.769100 -29.156445 59.435986  0.099656 -0.471065 0.876451  0.924833 0.727287 1 0 1.000000
windowmask
0  26.943293 -27.879198 60.173706  0.100821 -0.468511 0.877686  0.912870 0.756340 1 0 1.000000
0  26.106478 -29.134424 59.700245  0.098317 -0.471441 0.876400  0.900174 0.729972 1 0 1.000000
0  27.769100 -29.156445 59.435986  0.099656 -0.471065 0.876451  0.924833 0.727287 1 0 1.000000
windowmask
0  26.943293 -27.879198 60.173706  0.100821 -0.468511 0.877686  0.912870 0.756340 1 0 1.000000
0  25.566952 -28.936230 59.865406  0.097998 -0.471147 0.876594  0.892117 0.735588 1 0 1.000000
0  26.106478 -29.134424 59.700245  0.098317 -0.471441 0.876400  0.900174 0.729972 1 0 1.000000
windowmask
0  26.943293 -27.879198 60.173706  0.100821 -0.468511 0.877686  0.912870 0.756340 1 0 1.000000
0  25.181574 -27.053392 60.812332  0.099842 -0.467051 0.878575  0.887478 0.777093 1 0 1.000000
0  25.566952 -28.936230 59.865406  0.097998 -0.471147 0.876594  0.892117 0.735588 1 0 1.000000
windowmask
0  25.566952 -28.936230 59.865406  0.097998 -0.471147 0.876594  0.892117 0.735588 1 0 1.000000
0  25.181574 -27.053392 60.812332  0.099842 -0.467051 0.878575  0.887478 0.777093 1 0 1.000000
0  24.058479 -27.075415 60.955471  0.098222 -0.468434 0.878022  0.870632 0.778802 1 0 1.000000
windowmask
0  24.058479 -27.075415 60.955471  0.098222 -0.468434 0.878022  0.870632 0.778802 1 0 1.000000
0  25.181574 -27.053392 60.812332  0.099842 -0.467051 0.878575  0.887478 0.777093 1 0 1.000000
0  24.025446 -26.965307 60.735256  -0.068241 0.890919 0.449006  0.869900 0.784173 1 0 1.000000
windowmask
0  24.058479 -27.075415 60.955471  0.098222 -0.468434 0.878022  0.870632 0.778802 1 0 1.000000
0  24.025446 -26.965307 60.735256  -0.068241 0.890919 0.449006  0.869900 0.784173 1 0 1.000000
0  19.092636 -27.515844 60.988503  -0.064883 0.887212 0.456777  0.794946 0.778802 1 0 1.000000
windowmask
0  30.367636 -40.123142 52.477196  0.975351 0.053503 0.214073  0.967803 0.465804 1 0 1.000000
0  29.167465 -34.617771 55.989624  0.969992 0.076997 0.230623  0.950224 0.598376 1 0 1.000000
0  29.123423 -34.771923 56.198826  0.093249 -0.499139 0.861490  0.946318 0.597400 1 0 1.000000
windowmask
0  27.769100 -29.156445 59.435986  0.099656 -0.471065 0.876451  0.924833 0.727287 1 0 1.000000
0  29.123423 -34.771923 56.198826  0.093249 -0.499139 0.861490  0.946318 0.597400 1 0 1.000000
0  29.167465 -34.617771 55.989624  0.969992 0.076997 0.230623  0.950224 0.598376 1 0 1.000000
windowmask
0  29.167465 -34.617771 55.989624  0.969992 0.076997 0.230623  0.950224 0.598376 1 0 1.000000
0  27.802132 -29.035326 59.215771  0.931476 0.231564 0.280590  0.928983 0.729240 1 0 1.000000
0  27.769100 -29.156445 59.435986  0.099656 -0.471065 0.876451  0.924833 0.727287 1 0 1.000000
windowmask
0  27.769100 -29.156445 59.435986  0.099656 -0.471065 0.876451  0.924833 0.727287 1 0 1.000000
0  27.802132 -29.035326 59.215771  0.931476 0.231564 0.280590  0.928983 0.729240 1 0 1.000000
0  26.954304 -27.736059 59.964500  0.759127 0.521775 0.389200  0.915555 0.759758 1 0 1.000000
windowmask
0  26.943293 -27.879198 60.173706  0.100821 -0.468511 0.877686  0.912870 0.756340 1 0 1.000000
0  27.769100 -29.156445 59.435986  0.099656 -0.471065 0.876451  0.924833 0.727287 1 0 1.000000
0  26.954304 -27.736059 59.964500  0.759127 0.521775 0.389200  0.915555 0.759758 1 0 1.000000
windowmask
0  26.943293 -27.879198 60.173706  0.100821 -0.468511 0.877686  0.912870 0.756340 1 0 1.000000
0  26.954304 -27.736059 59.964500  0.759127 0.521775 0.389200  0.915555 0.759758 1 0 1.000000
0  25.159554 -26.943285 60.592117  0.171880 0.889659 0.423041  0.887967 0.781487 1 0 1.000000
windowmask
0  25.181574 -27.053392 60.812332  0.099842 -0.467051 0.878575  0.887478 0.777093 1 0 1.000000
0  26.943293 -27.879198 60.173706  0.100821 -0.468511 0.877686  0.912870 0.756340 1 0 1.000000
0  25.159554 -26.943285 60.592117  0.171880 0.889659 0.423041  0.887967 0.781487 1 0 1.000000
windowmask
0  25.181574 -27.053392 60.812332  0.099842 -0.467051 0.878575  0.887478 0.777093 1 0 1.000000
0  25.159554 -26.943285 60.592117  0.171880 0.889659 0.423041  0.887967 0.781487 1 0 1.000000
0  24.025446 -26.965307 60.735256  -0.068241 0.890919 0.449006  0.869900 0.784173 1 0 1.000000
windowmask
0  10.746491 -29.751026 60.636162  0.037171 -0.494989 0.868104  0.668477 0.732902 1 0 1.000000
0  19.511044 -29.321606 60.316849  0.088794 -0.475886 0.875013  0.801050 0.734611 1 0 1.000000
0  19.114656 -27.625952 61.208717  0.090325 -0.473130 0.876350  0.794946 0.774407 1 0 1.000000
windowmask
0  24.058479 -27.075415 60.955471  0.098222 -0.468434 0.878022  0.870632 0.778802 1 0 1.000000
0  19.114656 -27.625952 61.208717  0.090325 -0.473130 0.876350  0.794946 0.774407 1 0 1.000000
0  19.511044 -29.321606 60.316849  0.088794 -0.475886 0.875013  0.801050 0.734611 1 0 1.000000
windowmask
0  19.511044 -29.321606 60.316849  0.088794 -0.475886 0.875013  0.801050 0.734611 1 0 1.000000
0  25.566952 -28.936230 59.865406  0.097998 -0.471147 0.876594  0.892117 0.735588 1 0 1.000000
0  24.058479 -27.075415 60.955471  0.098222 -0.468434 0.878022  0.870632 0.778802 1 0 1.000000
windowmask
0  19.114656 -27.625952 61.208717  0.090325 -0.473130 0.876350  0.794946 0.774407 1 0 1.000000
0  24.058479 -27.075415 60.955471  0.098222 -0.468434 0.878022  0.870632 0.778802 1 0 1.000000
0  19.092636 -27.515844 60.988503  -0.064883 0.887212 0.456777  0.794946 0.778802 1 0 1.000000
windowmask
0  10.195954 -28.231544 61.472977  0.035623 -0.493471 0.869032  0.659688 0.768059 1 0 1.000000
0  19.114656 -27.625952 61.208717  0.090325 -0.473130 0.876350  0.794946 0.774407 1 0 1.000000
0  19.092636 -27.515844 60.988503  -0.064883 0.887212 0.456777  0.794946 0.778802 1 0 1.000000
windowmask
0  19.114656 -27.625952 61.208717  0.090325 -0.473130 0.876350  0.794946 0.774407 1 0 1.000000
0  10.195954 -28.231544 61.472977  0.035623 -0.493471 0.869032  0.659688 0.768059 1 0 1.000000
0  10.746491 -29.751026 60.636162  0.037171 -0.494989 0.868104  0.668477 0.732902 1 0 1.000000
windowmask
0  3.820735 -29.916187 60.724247  0.012014 -0.497784 0.867218  0.563494 0.730949 1 0 1.000000
0  10.746491 -29.751026 60.636162  0.037171 -0.494989 0.868104  0.668477 0.732902 1 0 1.000000
0  10.195954 -28.231544 61.472977  0.035623 -0.493471 0.869032  0.659688 0.768059 1 0 1.000000
windowmask
0  10.195954 -28.231544 61.472977  0.035623 -0.493471 0.869032  0.659688 0.768059 1 0 1.000000
0  0.000007 -28.495802 61.561062  0.000007 -0.495911 0.868373  0.505142 0.765374 1 0 1.000000
0  3.820735 -29.916187 60.724247  0.012014 -0.497784 0.867218  0.563494 0.730949 1 0 1.000000
windowmask
0  2.785725 -30.136402 60.603127  0.008695 -0.498242 0.866994  0.547380 0.726554 1 0 1.000000
0  3.820735 -29.916187 60.724247  0.012014 -0.497784 0.867218  0.563494 0.730949 1 0 1.000000
0  0.000007 -28.495802 61.561062  0.000007 -0.495911 0.868373  0.505142 0.765374 1 0 1.000000
windowmask
0  2.246198 -30.753004 60.250786  0.007062 -0.499141 0.866492  0.539323 0.712149 1 0 1.000000
0  2.785725 -30.136402 60.603127  0.008695 -0.498242 0.866994  0.547380 0.726554 1 0 1.000000
0  0.000007 -28.495802 61.561062  0.000007 -0.495911 0.868373  0.505142 0.765374 1 0 1.000000
windowmask
0  2.246198 -30.753004 60.250786  0.007062 -0.499141 0.866492  0.539323 0.712149 1 0 1.000000
0  0.000007 -28.495802 61.561062  0.000007 -0.495911 0.868373  0.505142 0.765374 1 0 1.000000
0  1.398371 -37.700783 56.176811  0.004208 -0.525916 0.850526  0.526627 0.547838 1 0 1.000000
windowmask
0  1.398371 -37.700783 56.176811  0.004208 -0.525916 0.850526  0.526627 0.547838 1 0 1.000000
0  2.180134 -37.073170 56.529152  0.006607 -0.522701 0.852490  0.538591 0.562243 1 0 1.000000
0  2.246198 -30.753004 60.250786  0.007062 -0.499141 0.866492  0.539323 0.712149 1 0 1.000000
windowmask
0  0.000007 -28.495802 61.561062  0.000007 -0.495911 0.868373  0.505142 0.765374 1 0 1.000000
0  0.000007 -37.766850 56.154789  -0.000008 -0.526117 0.850412  0.505142 0.546129 1 0 1.000000
0  1.398371 -37.700783 56.176811  0.004208 -0.525916 0.850526  0.526627 0.547838 1 0 1.000000
windowmask
0  0.000007 -28.495802 61.561062  0.000007 -0.495911 0.868373  0.505142 0.765374 1 0 1.000000
0  -1.398357 -37.700783 56.176811  -0.004207 -0.525917 0.850525  0.483657 0.547838 1 0 1.000000
0  0.000007 -37.766850 56.154789  -0.000008 -0.526117 0.850412  0.505142 0.546129 1 0 1.000000
windowmask
0  -2.246185 -30.753004 60.250786  -0.007048 -0.499143 0.866491  0.470962 0.712149 1 0 1.000000
0  -2.180120 -37.073170 56.529152  -0.006606 -0.522703 0.852490  0.471938 0.562243 1 0 1.000000
0  -1.398357 -37.700783 56.176811  -0.004207 -0.525917 0.850525  0.483657 0.547838 1 0 1.000000
windowmask
0  -1.398357 -37.700783 56.176811  -0.004207 -0.525917 0.850525  0.483657 0.547838 1 0 1.000000
0  0.000007 -28.495802 61.561062  0.000007 -0.495911 0.868373  0.505142 0.765374 1 0 1.000000
0  -2.246185 -30.753004 60.250786  -0.007048 -0.499143 0.866491  0.470962 0.712149 1 0 1.000000
windowmask
0  -2.246185 -30.753004 60.250786  -0.007048 -0.499143 0.866491  0.470962 0.712149 1 0 1.000000
0  0.000007 -28.495802 61.561062  0.000007 -0.495911 0.868373  0.505142 0.765374 1 0 1.000000
0  -2.785711 -30.136402 60.603127  -0.008686 -0.498202 0.867017  0.462905 0.726554 1 0 1.000000
windowmask
0  -2.785711 -30.136402 60.603127  -0.008686 -0.498202 0.867017  0.462905 0.726554 1 0 1.000000
0  0.000007 -28.495802 61.561062  0.000007 -0.495911 0.868373  0.505142 0.765374 1 0 1.000000
0  -3.820721 -29.916187 60.724247  -0.012014 -0.497784 0.867217  0.447279 0.730949 1 0 1.000000
windowmask
0  -3.820721 -29.916187 60.724247  -0.012014 -0.497784 0.867217  0.447279 0.730949 1 0 1.000000
0  0.000007 -28.495802 61.561062  0.000007 -0.495911 0.868373  0.505142 0.765374 1 0 1.000000
0  -10.195941 -28.231544 61.472977  -0.035548 -0.493475 0.869033  0.350108 0.768059 1 0 1.000000
windowmask
0  0.000007 -28.495802 61.561062  0.000007 -0.495911 0.868373  0.505142 0.765374 1 0 1.000000
0  0.000007 -28.374683 61.340847  -0.000001 0.873733 0.486407  0.505142 0.769768 1 0 1.000000
0  -10.195941 -28.231544 61.472977  -0.035548 -0.493475 0.869033  0.350108 0.768059 1 0 1.000000
windowmask
0  0.000007 -28.495802 61.561062  0.000007 -0.495911 0.868373  0.505142 0.765374 1 0 1.000000
0  10.195954 -28.231544 61.472977  0.035623 -0.493471 0.869032  0.659688 0.768059 1 0 1.000000
0  0.000007 -28.374683 61.340847  -0.000001 0.873733 0.486407  0.505142 0.769768 1 0 1.000000
windowmask
0  10.195954 -28.231544 61.472977  0.035623 -0.493471 0.869032  0.659688 0.768059 1 0 1.000000
0  10.195954 -28.121437 61.252762  -0.031986 0.880185 0.473552  0.659688 0.773431 1 0 1.000000
0  0.000007 -28.374683 61.340847  -0.000001 0.873733 0.486407  0.505142 0.769768 1 0 1.000000
windowmask
0  19.092636 -27.515844 60.988503  -0.064883 0.887212 0.456777  0.794946 0.778802 1 0 1.000000
0  10.195954 -28.121437 61.252762  -0.031986 0.880185 0.473552  0.659688 0.773431 1 0 1.000000
0  10.195954 -28.231544 61.472977  0.035623 -0.493471 0.869032  0.659688 0.768059 1 0 1.000000
windowmask
0  -10.195941 -28.231544 61.472977  -0.035548 -0.493475 0.869033  0.350108 0.768059 1 0 1.000000
0  -10.195941 -28.121437 61.252762  0.031985 0.880207 0.473510  0.350597 0.773431 1 0 1.000000
0  -19.092621 -27.515848 60.988503  0.064881 0.887211 0.456778  0.215583 0.778802 1 0 1.000000
windowmask
0  0.000007 -28.374683 61.340847  -0.000001 0.873733 0.486407  0.505142 0.769768 1 0 1.000000
0  -10.195941 -28.121437 61.252762  0.031985 0.880207 0.473510  0.350597 0.773431 1 0 1.000000
0  -10.195941 -28.231544 61.472977  -0.035548 -0.493475 0.869033  0.350108 0.768059 1 0 1.000000
windowmask
0  -10.195941 -28.231544 61.472977  -0.035548 -0.493475 0.869033  0.350108 0.768059 1 0 1.000000
0  -10.746478 -29.751026 60.636162  -0.037172 -0.494989 0.868104  0.342051 0.732902 1 0 1.000000
0  -3.820721 -29.916187 60.724247  -0.012014 -0.497784 0.867217  0.447279 0.730949 1 0 1.000000
windowmask
0  -10.746478 -29.751026 60.636162  -0.037172 -0.494989 0.868104  0.342051 0.732902 1 0 1.000000
0  -10.195941 -28.231544 61.472977  -0.035548 -0.493475 0.869033  0.350108 0.768059 1 0 1.000000
0  -19.114641 -27.625956 61.208717  -0.090188 -0.473147 0.876355  0.215339 0.774407 1 0 1.000000
windowmask
0  -19.092621 -27.515848 60.988503  0.064881 0.887211 0.456778  0.215583 0.778802 1 0 1.000000
0  -19.114641 -27.625956 61.208717  -0.090188 -0.473147 0.876355  0.215339 0.774407 1 0 1.000000
0  -10.195941 -28.231544 61.472977  -0.035548 -0.493475 0.869033  0.350108 0.768059 1 0 1.000000
windowmask
0  -19.114641 -27.625956 61.208717  -0.090188 -0.473147 0.876355  0.215339 0.774407 1 0 1.000000
0  -19.092621 -27.515848 60.988503  0.064881 0.887211 0.456778  0.215583 0.778802 1 0 1.000000
0  -24.058468 -27.075418 60.955471  -0.098134 -0.468440 0.878028  0.139653 0.778802 1 0 1.000000
windowmask
0  -19.092621 -27.515848 60.988503  0.064881 0.887211 0.456778  0.215583 0.778802 1 0 1.000000
0  -24.025434 -26.965311 60.735256  0.068241 0.890917 0.449010  0.139897 0.784173 1 0 1.000000
0  -24.058468 -27.075418 60.955471  -0.098134 -0.468440 0.878028  0.139653 0.778802 1 0 1.000000
windowmask
0  -24.058468 -27.075418 60.955471  -0.098134 -0.468440 0.878028  0.139653 0.778802 1 0 1.000000
0  -24.025434 -26.965311 60.735256  0.068241 0.890917 0.449010  0.139897 0.784173 1 0 1.000000
0  -25.181562 -27.053396 60.812332  -0.100004 -0.467090 0.878536  0.123295 0.777093 1 0 1.000000
windowmask
0  -25.566936 -28.936234 59.865414  -0.097995 -0.471146 0.876595  0.117924 0.735588 1 0 1.000000
0  -24.058468 -27.075418 60.955471  -0.098134 -0.468440 0.878028  0.139653 0.778802 1 0 1.000000
0  -25.181562 -27.053396 60.812332  -0.100004 -0.467090 0.878536  0.123295 0.777093 1 0 1.000000
windowmask
0  -26.943281 -27.879202 60.173714  -0.100755 -0.468456 0.877723  0.097415 0.756340 1 0 1.000000
0  -25.566936 -28.936234 59.865414  -0.097995 -0.471146 0.876595  0.117924 0.735588 1 0 1.000000
0  -25.181562 -27.053396 60.812332  -0.100004 -0.467090 0.878536  0.123295 0.777093 1 0 1.000000
windowmask
0  -26.943281 -27.879202 60.173714  -0.100755 -0.468456 0.877723  0.097415 0.756340 1 0 1.000000
0  -26.106462 -29.134428 59.700253  -0.098284 -0.471479 0.876384  0.109867 0.729972 1 0 1.000000
0  -25.566936 -28.936234 59.865414  -0.097995 -0.471146 0.876595  0.117924 0.735588 1 0 1.000000
windowmask
0  -26.943281 -27.879202 60.173714  -0.100755 -0.468456 0.877723  0.097415 0.756340 1 0 1.000000
0  -27.769085 -29.156448 59.435993  -0.099663 -0.471110 0.876426  0.084964 0.727287 1 0 1.000000
0  -26.106462 -29.134428 59.700253  -0.098284 -0.471479 0.876384  0.109867 0.729972 1 0 1.000000
windowmask
0  -27.769085 -29.156448 59.435993  -0.099663 -0.471110 0.876426  0.084964 0.727287 1 0 1.000000
0  -26.392742 -29.508793 59.469025  -0.098132 -0.472310 0.875953  0.105716 0.721915 1 0 1.000000
0  -26.106462 -29.134428 59.700253  -0.098284 -0.471479 0.876384  0.109867 0.729972 1 0 1.000000
windowmask
0  -26.392742 -29.508793 59.469025  -0.098132 -0.472310 0.875953  0.105716 0.721915 1 0 1.000000
0  -27.769085 -29.156448 59.435993  -0.099663 -0.471110 0.876426  0.084964 0.727287 1 0 1.000000
0  -29.123407 -34.771931 56.198833  -0.093199 -0.499186 0.861468  0.064211 0.597400 1 0 1.000000
windowmask
0  -29.123407 -34.771931 56.198833  -0.093199 -0.499186 0.861468  0.064211 0.597400 1 0 1.000000
0  -28.099407 -35.080231 56.187824  -0.092248 -0.501188 0.860407  0.080081 0.592029 1 0 1.000000
0  -26.392742 -29.508793 59.469025  -0.098132 -0.472310 0.875953  0.105716 0.721915 1 0 1.000000
windowmask
0  -29.123407 -34.771931 56.198833  -0.093199 -0.499186 0.861468  0.064211 0.597400 1 0 1.000000
0  -30.334589 -40.277302 52.686409  -0.090968 -0.546555 0.832468  0.046144 0.464827 1 0 1.000000
0  -28.099407 -35.080231 56.187824  -0.092248 -0.501188 0.860407  0.080081 0.592029 1 0 1.000000
windowmask
0  -30.334589 -40.277302 52.686409  -0.090968 -0.546555 0.832468  0.046144 0.464827 1 0 1.000000
0  -29.332611 -40.530548 52.675396  -0.090177 -0.547475 0.831949  0.061281 0.460189 1 0 1.000000
0  -28.099407 -35.080231 56.187824  -0.092248 -0.501188 0.860407  0.080081 0.592029 1 0 1.000000
windowmask
0  -29.332611 -40.530548 52.675396  -0.090177 -0.547475 0.831949  0.061281 0.460189 1 0 1.000000
0  -30.334589 -40.277302 52.686409  -0.090968 -0.546555 0.832468  0.046144 0.464827 1 0 1.000000
0  -30.521770 -48.799614 46.718586  -0.099175 -0.591878 0.799903  0.042970 0.254616 1 0 1.000000
windowmask
0  -30.334589 -40.277302 52.686409  -0.090968 -0.546555 0.832468  0.046144 0.464827 1 0 1.000000
0  -32.129341 -50.098885 45.485382  -0.102421 -0.597048 0.795641  0.018555 0.219459 1 0 1.000000
0  -30.521770 -48.799614 46.718586  -0.099175 -0.591878 0.799903  0.042970 0.254616 1 0 1.000000
windowmask
0  -30.246502 -51.750496 44.538460  -0.102116 -0.600979 0.792715  0.047121 0.180639 1 0 1.000000
0  -30.521770 -48.799614 46.718586  -0.099175 -0.591878 0.799903  0.042970 0.254616 1 0 1.000000
0  -32.129341 -50.098885 45.485382  -0.102421 -0.597048 0.795641  0.018555 0.219459 1 0 1.000000
windowmask
0  -24.058468 -27.075418 60.955471  -0.098134 -0.468440 0.878028  0.139653 0.778802 1 0 1.000000
0  -25.566936 -28.936234 59.865414  -0.097995 -0.471146 0.876595  0.117924 0.735588 1 0 1.000000
0  -19.511028 -29.321609 60.316849  -0.088753 -0.475912 0.875003  0.208991 0.734611 1 0 1.000000
windowmask
0  -19.511028 -29.321609 60.316849  -0.088753 -0.475912 0.875003  0.208991 0.734611 1 0 1.000000
0  -19.114641 -27.625956 61.208717  -0.090188 -0.473147 0.876355  0.215339 0.774407 1 0 1.000000
0  -24.058468 -27.075418 60.955471  -0.098134 -0.468440 0.878028  0.139653 0.778802 1 0 1.000000
windowmask
0  -19.114641 -27.625956 61.208717  -0.090188 -0.473147 0.876355  0.215339 0.774407 1 0 1.000000
0  -19.511028 -29.321609 60.316849  -0.088753 -0.475912 0.875003  0.208991 0.734611 1 0 1.000000
0  -10.746478 -29.751026 60.636162  -0.037172 -0.494989 0.868104  0.342051 0.732902 1 0 1.000000
windowmask
0  -24.025434 -26.965311 60.735256  0.068241 0.890917 0.449010  0.139897 0.784173 1 0 1.000000
0  -25.159542 -26.943289 60.592117  -0.171879 0.889659 0.423043  0.122562 0.781487 1 0 1.000000
0  -25.181562 -27.053396 60.812332  -0.100004 -0.467090 0.878536  0.123295 0.777093 1 0 1.000000
windowmask
0  -25.181562 -27.053396 60.812332  -0.100004 -0.467090 0.878536  0.123295 0.777093 1 0 1.000000
0  -25.159542 -26.943289 60.592117  -0.171879 0.889659 0.423043  0.122562 0.781487 1 0 1.000000
0  -26.943281 -27.879202 60.173714  -0.100755 -0.468456 0.877723  0.097415 0.756340 1 0 1.000000
windowmask
0  -25.159542 -26.943289 60.592117  -0.171879 0.889659 0.423043  0.122562 0.781487 1 0 1.000000
0  -26.954292 -27.736063 59.964508  -0.759142 0.521760 0.389191  0.094729 0.759758 1 0 1.000000
0  -26.943281 -27.879202 60.173714  -0.100755 -0.468456 0.877723  0.097415 0.756340 1 0 1.000000
windowmask
0  -29.409693 31.281519 48.645466  -0.005147 0.995838 0.090990  0.959502 0.128391 1 0 1.000000
0  -28.793091 31.358593 47.775616  -0.005581 0.996143 0.087571  0.949980 0.085665 1 0 1.000000
0  -31.105347 31.457689 46.421295  -0.006057 0.996336 0.085308  0.985626 0.025849 1 0 1.000000
windowmask
0  -31.105347 31.457689 46.421295  -0.006057 0.996336 0.085308  0.985626 0.025849 1 0 1.000000
0  -28.793091 31.358593 47.775616  -0.005581 0.996143 0.087571  0.949980 0.085665 1 0 1.000000
0  -30.378637 31.479712 46.234112  -0.006273 0.996384 0.084733  0.974639 0.017304 1 0 1.000000
windowmask
0  -24.774170 29.806078 59.248806  -0.004135 0.983598 0.180328  0.888211 0.641835 1 0 1.000000
0  -25.258642 29.574854 60.471001  -0.003986 0.983318 0.181852  0.895047 0.701895 1 0 1.000000
0  -20.380882 29.552832 60.724247  -0.003539 0.983090 0.183088  0.819361 0.710440 1 0 1.000000
windowmask
0  -25.258642 29.574854 60.471001  -0.003986 0.983318 0.181852  0.895047 0.701895 1 0 1.000000
0  -24.774170 29.806078 59.248806  -0.004135 0.983598 0.180328  0.888211 0.641835 1 0 1.000000
0  -26.029394 29.596874 60.338875  -0.004109 0.983369 0.181572  0.907254 0.693350 1 0 1.000000
windowmask
0  -25.258642 29.574854 60.471001  -0.003986 0.983318 0.181852  0.895047 0.701895 1 0 1.000000
0  -26.029394 29.596874 60.338875  -0.004109 0.983369 0.181572  0.907254 0.693350 1 0 1.000000
0  -25.280663 29.365648 60.592121  -0.129489 0.025882 0.991243  0.896268 0.710440 1 0 1.000000
windowmask
0  -26.029394 29.596874 60.338875  -0.004109 0.983369 0.181572  0.907254 0.693350 1 0 1.000000
0  -26.062426 29.387671 60.459991  -0.222469 0.029847 0.974483  0.907254 0.701895 1 0 1.000000
0  -25.280663 29.365648 60.592121  -0.129489 0.025882 0.991243  0.896268 0.710440 1 0 1.000000
windowmask
0  -26.062426 29.387671 60.459991  -0.222469 0.029847 0.974483  0.907254 0.701895 1 0 1.000000
0  -26.029394 29.596874 60.338875  -0.004109 0.983369 0.181572  0.907254 0.693350 1 0 1.000000
0  -26.855200 29.662939 59.931477  -0.004133 0.983483 0.180955  0.919706 0.676015 1 0 1.000000
windowmask
0  -26.855200 29.662939 59.931477  -0.004133 0.983483 0.180955  0.919706 0.676015 1 0 1.000000
0  -26.954296 29.464746 60.019562  -0.625909 0.071593 0.776603  0.921171 0.676015 1 0 1.000000
0  -26.062426 29.387671 60.459991  -0.222469 0.029847 0.974483  0.907254 0.701895 1 0 1.000000
windowmask
0  -26.954296 29.464746 60.019562  -0.625909 0.071593 0.776603  0.921171 0.676015 1 0 1.000000
0  -26.855200 29.662939 59.931477  -0.004133 0.983483 0.180955  0.919706 0.676015 1 0 1.000000
0  -27.581909 29.596874 59.281841  -0.876638 0.125500 0.464496  0.932157 0.641835 1 0 1.000000
windowmask
0  -26.855200 29.662939 59.931477  -0.004133 0.983483 0.180955  0.919706 0.676015 1 0 1.000000
0  -27.449780 29.795069 59.237801  -0.004454 0.983694 0.179796  0.928007 0.641835 1 0 1.000000
0  -27.581909 29.596874 59.281841  -0.876638 0.125500 0.464496  0.932157 0.641835 1 0 1.000000
windowmask
0  -27.581909 29.596874 59.281841  -0.876638 0.125500 0.464496  0.932157 0.641835 1 0 1.000000
0  -27.449780 29.795069 59.237801  -0.004454 0.983694 0.179796  0.928007 0.641835 1 0 1.000000
0  -29.519800 30.334595 54.778450  -0.911379 0.147408 0.384266  0.962188 0.427961 1 0 1.000000
windowmask
0  -27.449780 29.795069 59.237801  -0.004454 0.983694 0.179796  0.928007 0.641835 1 0 1.000000
0  -29.376659 30.521776 54.756428  -0.003957 0.989114 0.147099  0.958281 0.427961 1 0 1.000000
0  -29.519800 30.334595 54.778450  -0.911379 0.147408 0.384266  0.962188 0.427961 1 0 1.000000
windowmask
0  -29.519800 30.334595 54.778450  -0.911379 0.147408 0.384266  0.962188 0.427961 1 0 1.000000
0  -29.376659 30.521776 54.756428  -0.003957 0.989114 0.147099  0.958281 0.427961 1 0 1.000000
0  -31.721949 31.325562 47.929768  -0.005824 0.996192 0.086998  0.995148 0.094211 1 0 1.000000
windowmask
0  -29.453735 31.182421 49.724518  -0.004576 0.995371 0.096001  0.959502 0.179907 1 0 1.000000
0  -31.721949 31.325562 47.929768  -0.005824 0.996192 0.086998  0.995148 0.094211 1 0 1.000000
0  -29.376659 30.521776 54.756428  -0.003957 0.989114 0.147099  0.958281 0.427961 1 0 1.000000
windowmask
0  -29.453735 31.182421 49.724518  -0.004576 0.995371 0.096001  0.959502 0.179907 1 0 1.000000
0  -29.409693 31.281519 48.645466  -0.005147 0.995838 0.090990  0.959502 0.128391 1 0 1.000000
0  -31.721949 31.325562 47.929768  -0.005824 0.996192 0.086998  0.995148 0.094211 1 0 1.000000
windowmask
0  -31.721949 31.325562 47.929768  -0.005824 0.996192 0.086998  0.995148 0.094211 1 0 1.000000
0  -29.409693 31.281519 48.645466  -0.005147 0.995838 0.090990  0.959502 0.128391 1 0 1.000000
0  -31.666895 31.402636 47.092949  -0.006648 0.996280 0.085919  0.993927 0.051485 1 0 1.000000
windowmask
0  -31.666895 31.402636 47.092949  -0.006648 0.996280 0.085919  0.993927 0.051485 1 0 1.000000
0  -29.409693 31.281519 48.645466  -0.005147 0.995838 0.090990  0.959502 0.128391 1 0 1.000000
0  -31.105347 31.457689 46.421295  -0.006057 0.996336 0.085308  0.985626 0.025849 1 0 1.000000
windowmask
0  -31.810034 31.226465 47.026886  -0.923744 0.236508 -0.301266  0.996612 0.051485 1 0 1.000000
0  -31.666895 31.402636 47.092949  -0.006648 0.996280 0.085919  0.993927 0.051485 1 0 1.000000
0  -31.105347 31.457689 46.421295  -0.006057 0.996336 0.085308  0.985626 0.025849 1 0 1.000000
windowmask
0  -31.105347 31.457689 46.421295  -0.006057 0.996336 0.085308  0.985626 0.025849 1 0 1.000000
0  -31.171412 31.281519 46.267143  -0.464340 0.281092 -0.839867  0.987091 0.008759 1 0 1.000000
0  -31.810034 31.226465 47.026886  -0.923744 0.236508 -0.301266  0.996612 0.051485 1 0 1.000000
windowmask
0  -31.171412 31.281519 46.267143  -0.464340 0.281092 -0.839867  0.987091 0.008759 1 0 1.000000
0  -31.105347 31.457689 46.421295  -0.006057 0.996336 0.085308  0.985626 0.025849 1 0 1.000000
0  -30.389648 31.303539 46.068951  -0.076322 0.287086 -0.954859  0.974639 0.000214 1 0 1.000000
windowmask
0  -31.666895 31.402636 47.092949  -0.006648 0.996280 0.085919  0.993927 0.051485 1 0 1.000000
0  -31.810034 31.226465 47.026886  -0.923744 0.236508 -0.301266  0.996612 0.051485 1 0 1.000000
0  -31.876099 31.149389 47.940777  -0.952957 0.179765 0.244043  0.998077 0.094211 1 0 1.000000
windowmask
0  -31.876099 31.149389 47.940777  -0.952957 0.179765 0.244043  0.998077 0.094211 1 0 1.000000
0  -31.721949 31.325562 47.929768  -0.005824 0.996192 0.086998  0.995148 0.094211 1 0 1.000000
0  -31.666895 31.402636 47.092949  -0.006648 0.996280 0.085919  0.993927 0.051485 1 0 1.000000
windowmask
0  -31.721949 31.325562 47.929768  -0.005824 0.996192 0.086998  0.995148 0.094211 1 0 1.000000
0  -31.876099 31.149389 47.940777  -0.952957 0.179765 0.244043  0.998077 0.094211 1 0 1.000000
0  -29.519800 30.334595 54.778450  -0.911379 0.147408 0.384266  0.962188 0.427961 1 0 1.000000
windowmask
0  -29.376659 30.521776 54.756428  -0.003957 0.989114 0.147099  0.958281 0.427961 1 0 1.000000
0  -27.901220 30.620874 54.150837  -0.004235 0.989852 0.142037  0.936308 0.393780 1 0 1.000000
0  -29.453735 31.182421 49.724518  -0.004576 0.995371 0.096001  0.959502 0.179907 1 0 1.000000
windowmask
0  -26.150513 29.949219 58.434017  -0.004283 0.984096 0.177583  0.908719 0.599109 1 0 1.000000
0  -27.901220 30.620874 54.150837  -0.004235 0.989852 0.142037  0.936308 0.393780 1 0 1.000000
0  -29.376659 30.521776 54.756428  -0.003957 0.989114 0.147099  0.958281 0.427961 1 0 1.000000
windowmask
0  -29.376659 30.521776 54.756428  -0.003957 0.989114 0.147099  0.958281 0.427961 1 0 1.000000
0  -27.449780 29.795069 59.237801  -0.004454 0.983694 0.179796  0.928007 0.641835 1 0 1.000000
0  -26.150513 29.949219 58.434017  -0.004283 0.984096 0.177583  0.908719 0.599109 1 0 1.000000
windowmask
0  -26.150513 29.949219 58.434017  -0.004283 0.984096 0.177583  0.908719 0.599109 1 0 1.000000
0  -27.449780 29.795069 59.237801  -0.004454 0.983694 0.179796  0.928007 0.641835 1 0 1.000000
0  -26.855200 29.662939 59.931477  -0.004133 0.983483 0.180955  0.919706 0.676015 1 0 1.000000
windowmask
0  -26.855200 29.662939 59.931477  -0.004133 0.983483 0.180955  0.919706 0.676015 1 0 1.000000
0  -25.677050 29.861132 58.929501  -0.004191 0.983759 0.179448  0.901883 0.624744 1 0 1.000000
0  -26.150513 29.949219 58.434017  -0.004283 0.984096 0.177583  0.908719 0.599109 1 0 1.000000
windowmask
0  -26.855200 29.662939 59.931477  -0.004133 0.983483 0.180955  0.919706 0.676015 1 0 1.000000
0  -26.029394 29.596874 60.338875  -0.004109 0.983369 0.181572  0.907254 0.693350 1 0 1.000000
0  -25.677050 29.861132 58.929501  -0.004191 0.983759 0.179448  0.901883 0.624744 1 0 1.000000
windowmask
0  -26.029394 29.596874 60.338875  -0.004109 0.983369 0.181572  0.907254 0.693350 1 0 1.000000
0  -24.774170 29.806078 59.248806  -0.004135 0.983598 0.180328  0.888211 0.641835 1 0 1.000000
0  -25.677050 29.861132 58.929501  -0.004191 0.983759 0.179448  0.901883 0.624744 1 0 1.000000
windowmask
0  -31.105347 31.457689 46.421295  -0.006057 0.996336 0.085308  0.985626 0.025849 1 0 1.000000
0  -30.378637 31.479712 46.234112  -0.006273 0.996384 0.084733  0.974639 0.017304 1 0 1.000000
0  -30.389648 31.303539 46.068951  -0.076322 0.287086 -0.954859  0.974639 0.000214 1 0 1.000000
windowmask
0  -16.031639 31.391626 46.046925  -0.001354 0.292607 -0.956232  0.752220 0.000214 1 0 1.000000
0  -30.389648 31.303539 46.068951  -0.076322 0.287086 -0.954859  0.974639 0.000214 1 0 1.000000
0  -30.378637 31.479712 46.234112  -0.006273 0.996384 0.084733  0.974639 0.017304 1 0 1.000000
windowmask
0  -30.378637 31.479712 46.234112  -0.006273 0.996384 0.084733  0.974639 0.017304 1 0 1.000000
0  -16.031639 31.556787 46.212086  -0.003626 0.995784 0.091654  0.752220 0.008759 1 0 1.000000
0  -16.031639 31.391626 46.046925  -0.001354 0.292607 -0.956232  0.752220 0.000214 1 0 1.000000
windowmask
0  -16.031639 31.391626 46.046925  -0.001354 0.292607 -0.956232  0.752220 0.000214 1 0 1.000000
0  -16.031639 31.556787 46.212086  -0.003626 0.995784 0.091654  0.752220 0.008759 1 0 1.000000
0  0.000001 31.424660 46.046925  0.000019 0.295148 -0.955452  0.504898 0.000214 1 0 1.000000
windowmask
0  -16.031639 31.556787 46.212086  -0.003626 0.995784 0.091654  0.752220 0.008759 1 0 1.000000
0  0.000001 31.589821 46.212086  0.000287 0.995477 0.095005  0.504898 0.008759 1 0 1.000000
0  0.000001 31.424660 46.046925  0.000019 0.295148 -0.955452  0.504898 0.000214 1 0 1.000000
windowmask
0  0.000001 31.424660 46.046925  0.000019 0.295148 -0.955452  0.504898 0.000214 1 0 1.000000
0  0.000001 31.589821 46.212086  0.000287 0.995477 0.095005  0.504898 0.008759 1 0 1.000000
0  16.031643 31.556791 46.212086  0.003737 0.995784 0.091653  0.257576 0.008759 1 0 1.000000
windowmask
0  16.031643 31.391630 46.046925  0.001281 0.292653 -0.956218  0.257576 0.000214 1 0 1.000000
0  0.000001 31.424660 46.046925  0.000019 0.295148 -0.955452  0.504898 0.000214 1 0 1.000000
0  16.031643 31.556791 46.212086  0.003737 0.995784 0.091653  0.257576 0.008759 1 0 1.000000
windowmask
0  16.031643 31.391630 46.046925  0.001281 0.292653 -0.956218  0.257576 0.000214 1 0 1.000000
0  16.031643 31.556791 46.212086  0.003737 0.995784 0.091653  0.257576 0.008759 1 0 1.000000
0  30.378641 31.479715 46.234104  0.006248 0.996343 0.085220  0.036378 0.017304 1 0 1.000000
windowmask
0  30.378641 31.479715 46.234104  0.006248 0.996343 0.085220  0.036378 0.017304 1 0 1.000000
0  30.389652 31.303543 46.068943  0.076304 0.287090 -0.954860  0.036378 0.000214 1 0 1.000000
0  16.031643 31.391630 46.046925  0.001281 0.292653 -0.956218  0.257576 0.000214 1 0 1.000000
windowmask
0  30.389652 31.303543 46.068943  0.076304 0.287090 -0.954860  0.036378 0.000214 1 0 1.000000
0  30.378641 31.479715 46.234104  0.006248 0.996343 0.085220  0.036378 0.017304 1 0 1.000000
0  31.105350 31.457693 46.421288  0.006042 0.996291 0.085841  0.025391 0.025849 1 0 1.000000
windowmask
0  31.171415 31.281523 46.267136  0.464333 0.280997 -0.839902  0.024171 0.008759 1 0 1.000000
0  30.389652 31.303543 46.068943  0.076304 0.287090 -0.954860  0.036378 0.000214 1 0 1.000000
0  31.105350 31.457693 46.421288  0.006042 0.996291 0.085841  0.025391 0.025849 1 0 1.000000
windowmask
0  31.810038 31.226469 47.026878  0.923753 0.236506 -0.301238  0.013184 0.051485 1 0 1.000000
0  31.171415 31.281523 46.267136  0.464333 0.280997 -0.839902  0.024171 0.008759 1 0 1.000000
0  31.105350 31.457693 46.421288  0.006042 0.996291 0.085841  0.025391 0.025849 1 0 1.000000
windowmask
0  31.105350 31.457693 46.421288  0.006042 0.996291 0.085841  0.025391 0.025849 1 0 1.000000
0  31.666899 31.402639 47.092941  0.006053 0.996293 0.085808  0.017090 0.051485 1 0 1.000000
0  31.810038 31.226469 47.026878  0.923753 0.236506 -0.301238  0.013184 0.051485 1 0 1.000000
windowmask
0  31.876102 31.149393 47.940769  0.952937 0.179763 0.244122  0.013184 0.094211 1 0 1.000000
0  31.810038 31.226469 47.026878  0.923753 0.236506 -0.301238  0.013184 0.051485 1 0 1.000000
0  31.666899 31.402639 47.092941  0.006053 0.996293 0.085808  0.017090 0.051485 1 0 1.000000
windowmask
0  -30.378637 31.479712 46.234112  -0.006273 0.996384 0.084733  0.974639 0.017304 1 0 1.000000
0  -28.793091 31.358593 47.775616  -0.005581 0.996143 0.087571  0.949980 0.085665 1 0 1.000000
0  -28.077393 31.380615 47.544392  -0.005403 0.996145 0.087550  0.938994 0.077120 1 0 1.000000
windowmask
0  -30.378637 31.479712 46.234112  -0.006273 0.996384 0.084733  0.974639 0.017304 1 0 1.000000
0  -28.077393 31.380615 47.544392  -0.005403 0.996145 0.087550  0.938994 0.077120 1 0 1.000000
0  -16.031639 31.556787 46.212086  -0.003626 0.995784 0.091654  0.752220 0.008759 1 0 1.000000
windowmask
0  -28.077393 31.380615 47.544392  -0.005403 0.996145 0.087550  0.938994 0.077120 1 0 1.000000
0  -15.965576 31.435669 47.533375  -0.003457 0.995673 0.092860  0.752220 0.077120 1 0 1.000000
0  -16.031639 31.556787 46.212086  -0.003626 0.995784 0.091654  0.752220 0.008759 1 0 1.000000
windowmask
0  0.000001 31.589821 46.212086  0.000287 0.995477 0.095005  0.504898 0.008759 1 0 1.000000
0  -16.031639 31.556787 46.212086  -0.003626 0.995784 0.091654  0.752220 0.008759 1 0 1.000000
0  -15.965576 31.435669 47.533375  -0.003457 0.995673 0.092860  0.752220 0.077120 1 0 1.000000
windowmask
0  -15.965576 31.435669 47.533375  -0.003457 0.995673 0.092860  0.752220 0.077120 1 0 1.000000
0  0.000001 31.468702 47.533375  -0.000000 0.995389 0.095920  0.504898 0.068575 1 0 1.000000
0  0.000001 31.589821 46.212086  0.000287 0.995477 0.095005  0.504898 0.008759 1 0 1.000000
windowmask
0  0.000001 31.589821 46.212086  0.000287 0.995477 0.095005  0.504898 0.008759 1 0 1.000000
0  0.000001 31.468702 47.533375  -0.000000 0.995389 0.095920  0.504898 0.068575 1 0 1.000000
0  15.965578 31.435673 47.533375  0.003477 0.995664 0.092958  0.259041 0.077120 1 0 1.000000
windowmask
0  15.965578 31.435673 47.533375  0.003477 0.995664 0.092958  0.259041 0.077120 1 0 1.000000
0  16.031643 31.556791 46.212086  0.003737 0.995784 0.091653  0.257576 0.008759 1 0 1.000000
0  0.000001 31.589821 46.212086  0.000287 0.995477 0.095005  0.504898 0.008759 1 0 1.000000
windowmask
0  16.031643 31.556791 46.212086  0.003737 0.995784 0.091653  0.257576 0.008759 1 0 1.000000
0  15.965578 31.435673 47.533375  0.003477 0.995664 0.092958  0.259041 0.077120 1 0 1.000000
0  28.077396 31.380619 47.544384  0.005508 0.996141 0.087594  0.072268 0.077120 1 0 1.000000
windowmask
0  30.378641 31.479715 46.234104  0.006248 0.996343 0.085220  0.036378 0.017304 1 0 1.000000
0  16.031643 31.556791 46.212086  0.003737 0.995784 0.091653  0.257576 0.008759 1 0 1.000000
0  28.077396 31.380619 47.544384  0.005508 0.996141 0.087594  0.072268 0.077120 1 0 1.000000
windowmask
0  30.378641 31.479715 46.234104  0.006248 0.996343 0.085220  0.036378 0.017304 1 0 1.000000
0  28.077396 31.380619 47.544384  0.005508 0.996141 0.087594  0.072268 0.077120 1 0 1.000000
0  28.793095 31.358597 47.775608  0.005588 0.996138 0.087623  0.061281 0.085665 1 0 1.000000
windowmask
0  31.105350 31.457693 46.421288  0.006042 0.996291 0.085841  0.025391 0.025849 1 0 1.000000
0  30.378641 31.479715 46.234104  0.006248 0.996343 0.085220  0.036378 0.017304 1 0 1.000000
0  28.793095 31.358597 47.775608  0.005588 0.996138 0.087623  0.061281 0.085665 1 0 1.000000
windowmask
0  31.105350 31.457693 46.421288  0.006042 0.996291 0.085841  0.025391 0.025849 1 0 1.000000
0  28.793095 31.358597 47.775608  0.005588 0.996138 0.087623  0.061281 0.085665 1 0 1.000000
0  29.409697 31.281523 48.645458  0.005114 0.995837 0.091008  0.051515 0.128391 1 0 1.000000
windowmask
0  31.666899 31.402639 47.092941  0.006053 0.996293 0.085808  0.017090 0.051485 1 0 1.000000
0  31.105350 31.457693 46.421288  0.006042 0.996291 0.085841  0.025391 0.025849 1 0 1.000000
0  29.409697 31.281523 48.645458  0.005114 0.995837 0.091008  0.051515 0.128391 1 0 1.000000
windowmask
0  31.721952 31.325565 47.929760  0.005805 0.996179 0.087143  0.015870 0.094211 1 0 1.000000
0  31.666899 31.402639 47.092941  0.006053 0.996293 0.085808  0.017090 0.051485 1 0 1.000000
0  29.409697 31.281523 48.645458  0.005114 0.995837 0.091008  0.051515 0.128391 1 0 1.000000
windowmask
0  31.666899 31.402639 47.092941  0.006053 0.996293 0.085808  0.017090 0.051485 1 0 1.000000
0  31.721952 31.325565 47.929760  0.005805 0.996179 0.087143  0.015870 0.094211 1 0 1.000000
0  31.876102 31.149393 47.940769  0.952937 0.179763 0.244122  0.013184 0.094211 1 0 1.000000
windowmask
0  29.519804 30.334599 54.778442  0.911378 0.147419 0.384263  0.048830 0.427961 1 0 1.000000
0  31.876102 31.149393 47.940769  0.952937 0.179763 0.244122  0.013184 0.094211 1 0 1.000000
0  31.721952 31.325565 47.929760  0.005805 0.996179 0.087143  0.015870 0.094211 1 0 1.000000
windowmask
0  31.721952 31.325565 47.929760  0.005805 0.996179 0.087143  0.015870 0.094211 1 0 1.000000
0  29.376663 30.521780 54.756420  0.004411 0.989087 0.147264  0.052980 0.427961 1 0 1.000000
0  29.519804 30.334599 54.778442  0.911378 0.147419 0.384263  0.048830 0.427961 1 0 1.000000
windowmask
0  29.519804 30.334599 54.778442  0.911378 0.147419 0.384263  0.048830 0.427961 1 0 1.000000
0  29.376663 30.521780 54.756420  0.004411 0.989087 0.147264  0.052980 0.427961 1 0 1.000000
0  27.449783 29.795073 59.237793  0.004400 0.983697 0.179778  0.083254 0.641835 1 0 1.000000
windowmask
0  29.453739 31.182425 49.724510  0.004594 0.995372 0.095989  0.051515 0.179907 1 0 1.000000
0  31.721952 31.325565 47.929760  0.005805 0.996179 0.087143  0.015870 0.094211 1 0 1.000000
0  29.409697 31.281523 48.645458  0.005114 0.995837 0.091008  0.051515 0.128391 1 0 1.000000
windowmask
0  29.376663 30.521780 54.756420  0.004411 0.989087 0.147264  0.052980 0.427961 1 0 1.000000
0  31.721952 31.325565 47.929760  0.005805 0.996179 0.087143  0.015870 0.094211 1 0 1.000000
0  29.453739 31.182425 49.724510  0.004594 0.995372 0.095989  0.051515 0.179907 1 0 1.000000
windowmask
0  29.453739 31.182425 49.724510  0.004594 0.995372 0.095989  0.051515 0.179907 1 0 1.000000
0  27.901224 30.620878 54.150829  0.004236 0.989852 0.142037  0.074953 0.393780 1 0 1.000000
0  29.376663 30.521780 54.756420  0.004411 0.989087 0.147264  0.052980 0.427961 1 0 1.000000
windowmask
0  29.376663 30.521780 54.756420  0.004411 0.989087 0.147264  0.052980 0.427961 1 0 1.000000
0  27.901224 30.620878 54.150829  0.004236 0.989852 0.142037  0.074953 0.393780 1 0 1.000000
0  26.150517 29.949223 58.434010  0.004287 0.984087 0.177634  0.102298 0.599109 1 0 1.000000
windowmask
0  20.380886 29.343632 60.845364  0.032618 0.022257 0.999220  0.191656 0.727531 1 0 1.000000
0  25.280666 29.365652 60.592113  0.129500 0.025857 0.991242  0.114750 0.710440 1 0 1.000000
0  25.258646 29.574858 60.471001  0.004018 0.983365 0.181596  0.116214 0.701895 1 0 1.000000
windowmask
0  25.258646 29.574858 60.471001  0.004018 0.983365 0.181596  0.116214 0.701895 1 0 1.000000
0  25.280666 29.365652 60.592113  0.129500 0.025857 0.991242  0.114750 0.710440 1 0 1.000000
0  26.029398 29.596878 60.338867  0.004122 0.983359 0.181626  0.103763 0.693350 1 0 1.000000
windowmask
0  25.280666 29.365652 60.592113  0.129500 0.025857 0.991242  0.114750 0.710440 1 0 1.000000
0  26.062429 29.387674 60.459984  0.222389 0.029856 0.974501  0.103763 0.701895 1 0 1.000000
0  26.029398 29.596878 60.338867  0.004122 0.983359 0.181626  0.103763 0.693350 1 0 1.000000
windowmask
0  26.855204 29.662943 59.931469  0.004143 0.983498 0.180871  0.091311 0.676015 1 0 1.000000
0  26.029398 29.596878 60.338867  0.004122 0.983359 0.181626  0.103763 0.693350 1 0 1.000000
0  26.062429 29.387674 60.459984  0.222389 0.029856 0.974501  0.103763 0.701895 1 0 1.000000
windowmask
0  26.062429 29.387674 60.459984  0.222389 0.029856 0.974501  0.103763 0.701895 1 0 1.000000
0  26.954300 29.464750 60.019554  0.625929 0.071608 0.776585  0.090091 0.676015 1 0 1.000000
0  26.855204 29.662943 59.931469  0.004143 0.983498 0.180871  0.091311 0.676015 1 0 1.000000
windowmask
0  26.954300 29.464750 60.019554  0.625929 0.071608 0.776585  0.090091 0.676015 1 0 1.000000
0  27.581913 29.596878 59.281834  0.876607 0.125480 0.464559  0.079104 0.641835 1 0 1.000000
0  26.855204 29.662943 59.931469  0.004143 0.983498 0.180871  0.091311 0.676015 1 0 1.000000
windowmask
0  27.581913 29.596878 59.281834  0.876607 0.125480 0.464559  0.079104 0.641835 1 0 1.000000
0  27.449783 29.795073 59.237793  0.004400 0.983697 0.179778  0.083254 0.641835 1 0 1.000000
0  26.855204 29.662943 59.931469  0.004143 0.983498 0.180871  0.091311 0.676015 1 0 1.000000
windowmask
0  27.581913 29.596878 59.281834  0.876607 0.125480 0.464559  0.079104 0.641835 1 0 1.000000
0  29.519804 30.334599 54.778442  0.911378 0.147419 0.384263  0.048830 0.427961 1 0 1.000000
0  27.449783 29.795073 59.237793  0.004400 0.983697 0.179778  0.083254 0.641835 1 0 1.000000
windowmask
0  26.150517 29.949223 58.434010  0.004287 0.984087 0.177634  0.102298 0.599109 1 0 1.000000
0  27.449783 29.795073 59.237793  0.004400 0.983697 0.179778  0.083254 0.641835 1 0 1.000000
0  29.376663 30.521780 54.756420  0.004411 0.989087 0.147264  0.052980 0.427961 1 0 1.000000
windowmask
0  26.855204 29.662943 59.931469  0.004143 0.983498 0.180871  0.091311 0.676015 1 0 1.000000
0  27.449783 29.795073 59.237793  0.004400 0.983697 0.179778  0.083254 0.641835 1 0 1.000000
0  26.150517 29.949223 58.434010  0.004287 0.984087 0.177634  0.102298 0.599109 1 0 1.000000
windowmask
0  26.150517 29.949223 58.434010  0.004287 0.984087 0.177634  0.102298 0.599109 1 0 1.000000
0  25.677053 29.861135 58.929493  0.004340 0.983746 0.179512  0.109134 0.624744 1 0 1.000000
0  26.855204 29.662943 59.931469  0.004143 0.983498 0.180871  0.091311 0.676015 1 0 1.000000
windowmask
0  26.855204 29.662943 59.931469  0.004143 0.983498 0.180871  0.091311 0.676015 1 0 1.000000
0  25.677053 29.861135 58.929493  0.004340 0.983746 0.179512  0.109134 0.624744 1 0 1.000000
0  26.029398 29.596878 60.338867  0.004122 0.983359 0.181626  0.103763 0.693350 1 0 1.000000
windowmask
0  25.677053 29.861135 58.929493  0.004340 0.983746 0.179512  0.109134 0.624744 1 0 1.000000
0  24.774174 29.806082 59.248806  0.004081 0.983595 0.180345  0.123051 0.641835 1 0 1.000000
0  26.029398 29.596878 60.338867  0.004122 0.983359 0.181626  0.103763 0.693350 1 0 1.000000
windowmask
0  25.258646 29.574858 60.471001  0.004018 0.983365 0.181596  0.116214 0.701895 1 0 1.000000
0  26.029398 29.596878 60.338867  0.004122 0.983359 0.181626  0.103763 0.693350 1 0 1.000000
0  24.774174 29.806082 59.248806  0.004081 0.983595 0.180345  0.123051 0.641835 1 0 1.000000
windowmask
0  20.380886 29.552835 60.724247  0.003612 0.983188 0.182563  0.191656 0.710440 1 0 1.000000
0  25.258646 29.574858 60.471001  0.004018 0.983365 0.181596  0.116214 0.701895 1 0 1.000000
0  24.774174 29.806082 59.248806  0.004081 0.983595 0.180345  0.123051 0.641835 1 0 1.000000
windowmask
0  25.258646 29.574858 60.471001  0.004018 0.983365 0.181596  0.116214 0.701895 1 0 1.000000
0  20.380886 29.552835 60.724247  0.003612 0.983188 0.182563  0.191656 0.710440 1 0 1.000000
0  20.380886 29.343632 60.845364  0.032618 0.022257 0.999220  0.191656 0.727531 1 0 1.000000
windowmask
0  20.380886 29.343632 60.845364  0.032618 0.022257 0.999220  0.191656 0.727531 1 0 1.000000
0  20.380886 29.552835 60.724247  0.003612 0.983188 0.182563  0.191656 0.710440 1 0 1.000000
0  11.484206 29.508791 60.922440  0.002177 0.983080 0.183164  0.329112 0.718986 1 0 1.000000
windowmask
0  11.484207 29.310596 61.032547  0.013202 0.022257 0.999665  0.329112 0.736076 1 0 1.000000
0  20.380886 29.343632 60.845364  0.032618 0.022257 0.999220  0.191656 0.727531 1 0 1.000000
0  11.484206 29.508791 60.922440  0.002177 0.983080 0.183164  0.329112 0.718986 1 0 1.000000
windowmask
0  0.000002 29.310596 61.109623  0.000022 0.022513 0.999747  0.504898 0.736076 1 0 1.000000
0  11.484207 29.310596 61.032547  0.013202 0.022257 0.999665  0.329112 0.736076 1 0 1.000000
0  11.484206 29.508791 60.922440  0.002177 0.983080 0.183164  0.329112 0.718986 1 0 1.000000
windowmask
0  11.484206 29.508791 60.922440  0.002177 0.983080 0.183164  0.329112 0.718986 1 0 1.000000
0  0.000002 29.519802 60.988503  -0.000851 0.983088 0.183130  0.504898 0.727531 1 0 1.000000
0  0.000002 29.310596 61.109623  0.000022 0.022513 0.999747  0.504898 0.736076 1 0 1.000000
windowmask
0  0.000002 29.310596 61.109623  0.000022 0.022513 0.999747  0.504898 0.736076 1 0 1.000000
0  0.000002 29.519802 60.988503  -0.000851 0.983088 0.183130  0.504898 0.727531 1 0 1.000000
0  -11.484202 29.508791 60.922440  -0.002056 0.982985 0.183673  0.682150 0.718986 1 0 1.000000
windowmask
0  0.000002 29.519802 60.988503  -0.000851 0.983088 0.183130  0.504898 0.727531 1 0 1.000000
0  0.000002 29.784060 59.634182  -0.000002 0.983443 0.181219  0.504898 0.658925 1 0 1.000000
0  -11.484202 29.508791 60.922440  -0.002056 0.982985 0.183673  0.682150 0.718986 1 0 1.000000
windowmask
0  0.000002 29.784060 59.634182  -0.000002 0.983443 0.181219  0.504898 0.658925 1 0 1.000000
0  -11.484202 29.795071 59.546097  -0.002067 0.983371 0.181595  0.682150 0.658925 1 0 1.000000
0  -11.484202 29.508791 60.922440  -0.002056 0.982985 0.183673  0.682150 0.718986 1 0 1.000000
windowmask
0  -20.380882 29.552832 60.724247  -0.003539 0.983090 0.183088  0.819361 0.710440 1 0 1.000000
0  -11.484202 29.508791 60.922440  -0.002056 0.982985 0.183673  0.682150 0.718986 1 0 1.000000
0  -11.484202 29.795071 59.546097  -0.002067 0.983371 0.181595  0.682150 0.658925 1 0 1.000000
windowmask
0  -11.484202 29.795071 59.546097  -0.002067 0.983371 0.181595  0.682150 0.658925 1 0 1.000000
0  -20.424927 29.817089 59.380936  -0.003874 0.983455 0.181112  0.820826 0.650380 1 0 1.000000
0  -20.380882 29.552832 60.724247  -0.003539 0.983090 0.183088  0.819361 0.710440 1 0 1.000000
windowmask
0  -20.380882 29.552832 60.724247  -0.003539 0.983090 0.183088  0.819361 0.710440 1 0 1.000000
0  -20.424927 29.817089 59.380936  -0.003874 0.983455 0.181112  0.820826 0.650380 1 0 1.000000
0  -24.774170 29.806078 59.248806  -0.004135 0.983598 0.180328  0.888211 0.641835 1 0 1.000000
windowmask
0  24.774174 29.806082 59.248806  0.004081 0.983595 0.180345  0.123051 0.641835 1 0 1.000000
0  20.424931 29.817093 59.380936  0.003874 0.983455 0.181112  0.190191 0.650380 1 0 1.000000
0  20.380886 29.552835 60.724247  0.003612 0.983188 0.182563  0.191656 0.710440 1 0 1.000000
windowmask
0  20.380886 29.552835 60.724247  0.003612 0.983188 0.182563  0.191656 0.710440 1 0 1.000000
0  20.424931 29.817093 59.380936  0.003874 0.983455 0.181112  0.190191 0.650380 1 0 1.000000
0  11.484206 29.795071 59.546097  0.002070 0.983371 0.181595  0.327647 0.658925 1 0 1.000000
windowmask
0  11.484206 29.795071 59.546097  0.002070 0.983371 0.181595  0.327647 0.658925 1 0 1.000000
0  11.484206 29.508791 60.922440  0.002177 0.983080 0.183164  0.329112 0.718986 1 0 1.000000
0  20.380886 29.552835 60.724247  0.003612 0.983188 0.182563  0.191656 0.710440 1 0 1.000000
windowmask
0  11.484206 29.508791 60.922440  0.002177 0.983080 0.183164  0.329112 0.718986 1 0 1.000000
0  11.484206 29.795071 59.546097  0.002070 0.983371 0.181595  0.327647 0.658925 1 0 1.000000
0  0.000002 29.784060 59.634182  -0.000002 0.983443 0.181219  0.504898 0.658925 1 0 1.000000
windowmask
0  0.000002 29.519802 60.988503  -0.000851 0.983088 0.183130  0.504898 0.727531 1 0 1.000000
0  11.484206 29.508791 60.922440  0.002177 0.983080 0.183164  0.329112 0.718986 1 0 1.000000
0  0.000002 29.784060 59.634182  -0.000002 0.983443 0.181219  0.504898 0.658925 1 0 1.000000
windowmask
0  -11.484202 29.508791 60.922440  -0.002056 0.982985 0.183673  0.682150 0.718986 1 0 1.000000
0  -11.484201 29.310596 61.032547  -0.013241 0.022216 0.999665  0.682150 0.736076 1 0 1.000000
0  0.000002 29.310596 61.109623  0.000022 0.022513 0.999747  0.504898 0.736076 1 0 1.000000
windowmask
0  -11.484201 29.310596 61.032547  -0.013241 0.022216 0.999665  0.682150 0.736076 1 0 1.000000
0  -11.484202 29.508791 60.922440  -0.002056 0.982985 0.183673  0.682150 0.718986 1 0 1.000000
0  -20.380882 29.343628 60.845364  -0.032616 0.022312 0.999219  0.819361 0.727531 1 0 1.000000
windowmask
0  -11.484202 29.508791 60.922440  -0.002056 0.982985 0.183673  0.682150 0.718986 1 0 1.000000
0  -20.380882 29.552832 60.724247  -0.003539 0.983090 0.183088  0.819361 0.710440 1 0 1.000000
0  -20.380882 29.343628 60.845364  -0.032616 0.022312 0.999219  0.819361 0.727531 1 0 1.000000
windowmask
0  -20.380882 29.343628 60.845364  -0.032616 0.022312 0.999219  0.819361 0.727531 1 0 1.000000
0  -20.380882 29.552832 60.724247  -0.003539 0.983090 0.183088  0.819361 0.710440 1 0 1.000000
0  -25.258642 29.574854 60.471001  -0.003986 0.983318 0.181852  0.895047 0.701895 1 0 1.000000
windowmask
0  -25.258642 29.574854 60.471001  -0.003986 0.983318 0.181852  0.895047 0.701895 1 0 1.000000
0  -25.280663 29.365648 60.592121  -0.129489 0.025882 0.991243  0.896268 0.710440 1 0 1.000000
0  -20.380882 29.343628 60.845364  -0.032616 0.022312 0.999219  0.819361 0.727531 1 0 1.000000
windowmask
0  -26.943281 -27.879202 60.173714  -0.100755 -0.468456 0.877723  0.091067 0.437239 1 0 1.000000
0  -26.954292 -27.736063 59.964508  -0.759142 0.521760 0.389191  0.090091 0.439192 1 0 1.000000
0  -27.769085 -29.156448 59.435993  -0.099663 -0.471110 0.876426  0.086673 0.421613 1 0 1.000000
windowmask
0  -26.954292 -27.736063 59.964508  -0.759142 0.521760 0.389191  0.090091 0.439192 1 0 1.000000
0  -27.802120 -29.035330 59.215778  -0.931438 0.231567 0.280713  0.085452 0.422590 1 0 1.000000
0  -27.769085 -29.156448 59.435993  -0.099663 -0.471110 0.876426  0.086673 0.421613 1 0 1.000000
windowmask
0  -27.769085 -29.156448 59.435993  -0.099663 -0.471110 0.876426  0.086673 0.421613 1 0 1.000000
0  -27.802120 -29.035330 59.215778  -0.931438 0.231567 0.280713  0.085452 0.422590 1 0 1.000000
0  -29.167450 -34.617779 55.989632  -0.969992 0.076992 0.230626  0.077639 0.351787 1 0 1.000000
windowmask
0  -29.167450 -34.617779 55.989632  -0.969992 0.076992 0.230626  0.077639 0.351787 1 0 1.000000
0  -29.123407 -34.771931 56.198833  -0.093199 -0.499186 0.861468  0.079104 0.351299 1 0 1.000000
0  -27.769085 -29.156448 59.435993  -0.099663 -0.471110 0.876426  0.086673 0.421613 1 0 1.000000
windowmask
0  -29.123407 -34.771931 56.198833  -0.093199 -0.499186 0.861468  0.079104 0.351299 1 0 1.000000
0  -29.167450 -34.617779 55.989632  -0.969992 0.076992 0.230626  0.077639 0.351787 1 0 1.000000
0  -30.367620 -40.123150 52.477203  -0.975351 0.053508 0.214074  0.071047 0.280007 1 0 1.000000
windowmask
0  -30.367620 -40.123150 52.477203  -0.975351 0.053508 0.214074  0.071047 0.280007 1 0 1.000000
0  -30.334589 -40.277302 52.686409  -0.090968 -0.546555 0.832468  0.072512 0.279519 1 0 1.000000
0  -29.123407 -34.771931 56.198833  -0.093199 -0.499186 0.861468  0.079104 0.351299 1 0 1.000000
windowmask
0  -32.129341 -50.098885 45.485382  -0.102421 -0.597048 0.795641  0.062502 0.146702 1 0 1.000000
0  -30.334589 -40.277302 52.686409  -0.090968 -0.546555 0.832468  0.072512 0.279519 1 0 1.000000
0  -30.367620 -40.123150 52.477203  -0.975351 0.053508 0.214074  0.071047 0.280007 1 0 1.000000
windowmask
0  -32.162373 -49.966755 45.265167  -0.983856 -0.005651 0.178875  0.061037 0.146702 1 0 1.000000
0  -32.129341 -50.098885 45.485382  -0.102421 -0.597048 0.795641  0.062502 0.146702 1 0 1.000000
0  -30.367620 -40.123150 52.477203  -0.975351 0.053508 0.214074  0.071047 0.280007 1 0 1.000000
windowmask
0  -32.129341 -50.098885 45.485382  -0.102421 -0.597048 0.795641  0.062502 0.146702 1 0 1.000000
0  -32.162373 -49.966755 45.265167  -0.983856 -0.005651 0.178875  0.061037 0.146702 1 0 1.000000
0  -32.415619 -53.005718 43.184135  -0.106295 -0.606392 0.788029  0.060793 0.106174 1 0 1.000000
windowmask
0  -32.162373 -49.966755 45.265167  -0.983856 -0.005651 0.178875  0.061037 0.146702 1 0 1.000000
0  -32.481682 -52.917633 42.930889  -0.981491 -0.089273 0.169428  0.059328 0.105686 1 0 1.000000
0  -32.415619 -53.005718 43.184135  -0.106295 -0.606392 0.788029  0.060793 0.106174 1 0 1.000000
windowmask
0  -32.415619 -53.005718 43.184135  -0.106295 -0.606392 0.788029  0.060793 0.106174 1 0 1.000000
0  -32.481682 -52.917633 42.930889  -0.981491 -0.089273 0.169428  0.059328 0.105686 1 0 1.000000
0  -31.986200 -55.328987 41.389385  -0.108794 -0.613357 0.782277  0.062990 0.074923 1 0 1.000000
windowmask
0  -32.481682 -52.917633 42.930889  -0.981491 -0.089273 0.169428  0.059328 0.105686 1 0 1.000000
0  -32.008221 -55.284943 41.224224  -0.908937 -0.412980 0.057284  0.062258 0.073946 1 0 1.000000
0  -31.986200 -55.328987 41.389385  -0.108794 -0.613357 0.782277  0.062990 0.074923 1 0 1.000000
frontwindow
0  11.748470 -54.293972 44.428349  0.041407 -0.598418 0.800113  0.683126 0.135472 1 0 1.000000
0  21.933407 -53.523220 44.263187  0.087893 -0.601479 0.794039  0.837916 0.147191 1 0 1.000000
0  14.545198 -47.467312 49.273075  0.052200 -0.581726 0.811708  0.726096 0.305155 1 0 1.000000
frontwindow
0  21.933407 -53.523220 44.263187  0.087893 -0.601479 0.794039  0.837916 0.147191 1 0 1.000000
0  28.705013 -52.642357 44.087009  0.100708 -0.602803 0.791509  0.940214 0.160619 1 0 1.000000
0  14.545198 -47.467312 49.273075  0.052200 -0.581726 0.811708  0.726096 0.305155 1 0 1.000000
frontwindow
0  28.099422 -35.080223 56.187817  0.092248 -0.501191 0.860406  0.930204 0.592029 1 0 1.000000
0  13.983650 -37.392483 56.022659  0.048895 -0.521523 0.851835  0.717307 0.551500 1 0 1.000000
0  29.332626 -40.530540 52.675388  0.090171 -0.547510 0.831927  0.949004 0.460189 1 0 1.000000
frontwindow
0  13.983650 -37.392483 56.022659  0.048895 -0.521523 0.851835  0.717307 0.551500 1 0 1.000000
0  14.545198 -47.467312 49.273075  0.052200 -0.581726 0.811708  0.726096 0.305155 1 0 1.000000
0  29.332626 -40.530540 52.675388  0.090171 -0.547510 0.831927  0.949004 0.460189 1 0 1.000000
frontwindow
0  14.545198 -47.467312 49.273075  0.052200 -0.581726 0.811708  0.726096 0.305155 1 0 1.000000
0  30.521786 -48.799606 46.718578  0.099176 -0.591879 0.799902  0.967071 0.254616 1 0 1.000000
0  29.332626 -40.530540 52.675388  0.090171 -0.547510 0.831927  0.949004 0.460189 1 0 1.000000
frontwindow
0  30.246517 -51.750488 44.538452  0.102066 -0.600989 0.792713  0.963164 0.180639 1 0 1.000000
0  30.521786 -48.799606 46.718578  0.099176 -0.591879 0.799902  0.967071 0.254616 1 0 1.000000
0  14.545198 -47.467312 49.273075  0.052200 -0.581726 0.811708  0.726096 0.305155 1 0 1.000000
frontwindow
0  30.246517 -51.750488 44.538452  0.102066 -0.600989 0.792713  0.963164 0.180639 1 0 1.000000
0  14.545198 -47.467312 49.273075  0.052200 -0.581726 0.811708  0.726096 0.305155 1 0 1.000000
0  28.705013 -52.642357 44.087009  0.100708 -0.602803 0.791509  0.940214 0.160619 1 0 1.000000
frontwindow
0  30.246517 -51.750488 44.538452  0.102066 -0.600989 0.792713  0.963164 0.180639 1 0 1.000000
0  28.705013 -52.642357 44.087009  0.100708 -0.602803 0.791509  0.940214 0.160619 1 0 1.000000
0  29.684971 -52.323044 44.175095  0.101881 -0.602497 0.791592  0.955107 0.166967 1 0 1.000000
frontwindow
0  26.392757 -29.508789 59.469017  0.098136 -0.472311 0.875952  0.904813 0.721915 1 0 1.000000
0  26.106478 -29.134424 59.700245  0.098317 -0.471441 0.876400  0.900174 0.729972 1 0 1.000000
0  25.566952 -28.936230 59.865406  0.097998 -0.471147 0.876594  0.892117 0.735588 1 0 1.000000
frontwindow
0  28.099422 -35.080223 56.187817  0.092248 -0.501191 0.860406  0.930204 0.592029 1 0 1.000000
0  26.392757 -29.508789 59.469017  0.098136 -0.472311 0.875952  0.904813 0.721915 1 0 1.000000
0  25.566952 -28.936230 59.865406  0.097998 -0.471147 0.876594  0.892117 0.735588 1 0 1.000000
frontwindow
0  25.566952 -28.936230 59.865406  0.097998 -0.471147 0.876594  0.892117 0.735588 1 0 1.000000
0  13.983650 -37.392483 56.022659  0.048895 -0.521523 0.851835  0.717307 0.551500 1 0 1.000000
0  28.099422 -35.080223 56.187817  0.092248 -0.501191 0.860406  0.930204 0.592029 1 0 1.000000
frontwindow
0  25.566952 -28.936230 59.865406  0.097998 -0.471147 0.876594  0.892117 0.735588 1 0 1.000000
0  19.511044 -29.321606 60.316849  0.088794 -0.475886 0.875013  0.801050 0.734611 1 0 1.000000
0  13.983650 -37.392483 56.022659  0.048895 -0.521523 0.851835  0.717307 0.551500 1 0 1.000000
frontwindow
0  19.511044 -29.321606 60.316849  0.088794 -0.475886 0.875013  0.801050 0.734611 1 0 1.000000
0  10.746491 -29.751026 60.636162  0.037171 -0.494989 0.868104  0.668477 0.732902 1 0 1.000000
0  13.983650 -37.392483 56.022659  0.048895 -0.521523 0.851835  0.717307 0.551500 1 0 1.000000
frontwindow
0  10.746491 -29.751026 60.636162  0.037171 -0.494989 0.868104  0.668477 0.732902 1 0 1.000000
0  3.820735 -29.916187 60.724247  0.012014 -0.497784 0.867218  0.563494 0.730949 1 0 1.000000
0  13.983650 -37.392483 56.022659  0.048895 -0.521523 0.851835  0.717307 0.551500 1 0 1.000000
frontwindow
0  3.820735 -29.916187 60.724247  0.012014 -0.497784 0.867218  0.563494 0.730949 1 0 1.000000
0  2.785725 -30.136402 60.603127  0.008695 -0.498242 0.866994  0.547380 0.726554 1 0 1.000000
0  13.983650 -37.392483 56.022659  0.048895 -0.521523 0.851835  0.717307 0.551500 1 0 1.000000
frontwindow
0  13.983650 -37.392483 56.022659  0.048895 -0.521523 0.851835  0.717307 0.551500 1 0 1.000000
0  2.785725 -30.136402 60.603127  0.008695 -0.498242 0.866994  0.547380 0.726554 1 0 1.000000
0  2.246198 -30.753004 60.250786  0.007062 -0.499141 0.866492  0.539323 0.712149 1 0 1.000000
frontwindow
0  13.983650 -37.392483 56.022659  0.048895 -0.521523 0.851835  0.717307 0.551500 1 0 1.000000
0  2.246198 -30.753004 60.250786  0.007062 -0.499141 0.866492  0.539323 0.712149 1 0 1.000000
0  2.180134 -37.073170 56.529152  0.006607 -0.522701 0.852490  0.538591 0.562243 1 0 1.000000
frontwindow
0  14.545198 -47.467312 49.273075  0.052200 -0.581726 0.811708  0.726096 0.305155 1 0 1.000000
0  13.983650 -37.392483 56.022659  0.048895 -0.521523 0.851835  0.717307 0.551500 1 0 1.000000
0  2.180134 -37.073170 56.529152  0.006607 -0.522701 0.852490  0.538591 0.562243 1 0 1.000000
frontwindow
0  1.398371 -37.700783 56.176811  0.004208 -0.525916 0.850526  0.526627 0.547838 1 0 1.000000
0  14.545198 -47.467312 49.273075  0.052200 -0.581726 0.811708  0.726096 0.305155 1 0 1.000000
0  2.180134 -37.073170 56.529152  0.006607 -0.522701 0.852490  0.538591 0.562243 1 0 1.000000
frontwindow
0  0.000007 -37.766850 56.154789  -0.000008 -0.526117 0.850412  0.505142 0.546129 1 0 1.000000
0  14.545198 -47.467312 49.273075  0.052200 -0.581726 0.811708  0.726096 0.305155 1 0 1.000000
0  1.398371 -37.700783 56.176811  0.004208 -0.525916 0.850526  0.526627 0.547838 1 0 1.000000
frontwindow
0  11.748470 -54.293972 44.428349  0.041407 -0.598418 0.800113  0.683126 0.135472 1 0 1.000000
0  14.545198 -47.467312 49.273075  0.052200 -0.581726 0.811708  0.726096 0.305155 1 0 1.000000
0  0.000007 -37.766850 56.154789  -0.000008 -0.526117 0.850412  0.505142 0.546129 1 0 1.000000
frontwindow
0  0.000007 -54.613285 44.516434  0.000016 -0.597557 0.801827  0.505142 0.130100 1 0 1.000000
0  11.748470 -54.293972 44.428349  0.041407 -0.598418 0.800113  0.683126 0.135472 1 0 1.000000
0  0.000007 -37.766850 56.154789  -0.000008 -0.526117 0.850412  0.505142 0.546129 1 0 1.000000
frontwindow
0  0.000007 -54.613285 44.516434  0.000016 -0.597557 0.801827  0.505142 0.130100 1 0 1.000000
0  0.000007 -37.766850 56.154789  -0.000008 -0.526117 0.850412  0.505142 0.546129 1 0 1.000000
0  -11.748455 -54.293972 44.428349  -0.041362 -0.598404 0.800126  0.326670 0.135472 1 0 1.000000
frontwindow
0  -11.748455 -54.293972 44.428349  -0.041362 -0.598404 0.800126  0.326670 0.135472 1 0 1.000000
0  0.000007 -37.766850 56.154789  -0.000008 -0.526117 0.850412  0.505142 0.546129 1 0 1.000000
0  -14.545183 -47.467312 49.273075  -0.052199 -0.581727 0.811708  0.284433 0.305155 1 0 1.000000
frontwindow
0  -11.748455 -54.293972 44.428349  -0.041362 -0.598404 0.800126  0.326670 0.135472 1 0 1.000000
0  -14.545183 -47.467312 49.273075  -0.052199 -0.581727 0.811708  0.284433 0.305155 1 0 1.000000
0  -21.933392 -53.523220 44.263187  -0.087897 -0.601477 0.794040  0.172124 0.147191 1 0 1.000000
frontwindow
0  -21.933392 -53.523220 44.263187  -0.087897 -0.601477 0.794040  0.172124 0.147191 1 0 1.000000
0  -14.545183 -47.467312 49.273075  -0.052199 -0.581727 0.811708  0.284433 0.305155 1 0 1.000000
0  -28.704998 -52.642365 44.087017  -0.100696 -0.602787 0.791523  0.070315 0.160619 1 0 1.000000
frontwindow
0  -30.246502 -51.750496 44.538460  -0.102116 -0.600979 0.792715  0.047121 0.180639 1 0 1.000000
0  -28.704998 -52.642365 44.087017  -0.100696 -0.602787 0.791523  0.070315 0.160619 1 0 1.000000
0  -14.545183 -47.467312 49.273075  -0.052199 -0.581727 0.811708  0.284433 0.305155 1 0 1.000000
frontwindow
0  -30.246502 -51.750496 44.538460  -0.102116 -0.600979 0.792715  0.047121 0.180639 1 0 1.000000
0  -29.684956 -52.323051 44.175102  -0.101886 -0.602488 0.791598  0.055422 0.166967 1 0 1.000000
0  -28.704998 -52.642365 44.087017  -0.100696 -0.602787 0.791523  0.070315 0.160619 1 0 1.000000
frontwindow
0  -28.099407 -35.080231 56.187824  -0.092248 -0.501188 0.860407  0.080081 0.592029 1 0 1.000000
0  -29.332611 -40.530548 52.675396  -0.090177 -0.547475 0.831949  0.061281 0.460189 1 0 1.000000
0  -13.983637 -37.392483 56.022659  -0.048893 -0.521522 0.851836  0.292978 0.551500 1 0 1.000000
frontwindow
0  -13.983637 -37.392483 56.022659  -0.048893 -0.521522 0.851836  0.292978 0.551500 1 0 1.000000
0  -29.332611 -40.530548 52.675396  -0.090177 -0.547475 0.831949  0.061281 0.460189 1 0 1.000000
0  -14.545183 -47.467312 49.273075  -0.052199 -0.581727 0.811708  0.284433 0.305155 1 0 1.000000
frontwindow
0  -14.545183 -47.467312 49.273075  -0.052199 -0.581727 0.811708  0.284433 0.305155 1 0 1.000000
0  -29.332611 -40.530548 52.675396  -0.090177 -0.547475 0.831949  0.061281 0.460189 1 0 1.000000
0  -30.521770 -48.799614 46.718586  -0.099175 -0.591878 0.799903  0.042970 0.254616 1 0 1.000000
frontwindow
0  -30.246502 -51.750496 44.538460  -0.102116 -0.600979 0.792715  0.047121 0.180639 1 0 1.000000
0  -14.545183 -47.467312 49.273075  -0.052199 -0.581727 0.811708  0.284433 0.305155 1 0 1.000000
0  -30.521770 -48.799614 46.718586  -0.099175 -0.591878 0.799903  0.042970 0.254616 1 0 1.000000
frontwindow
0  -26.392742 -29.508793 59.469025  -0.098132 -0.472310 0.875953  0.105716 0.721915 1 0 1.000000
0  -25.566936 -28.936234 59.865414  -0.097995 -0.471146 0.876595  0.117924 0.735588 1 0 1.000000
0  -26.106462 -29.134428 59.700253  -0.098284 -0.471479 0.876384  0.109867 0.729972 1 0 1.000000
frontwindow
0  -25.566936 -28.936234 59.865414  -0.097995 -0.471146 0.876595  0.117924 0.735588 1 0 1.000000
0  -26.392742 -29.508793 59.469025  -0.098132 -0.472310 0.875953  0.105716 0.721915 1 0 1.000000
0  -28.099407 -35.080231 56.187824  -0.092248 -0.501188 0.860407  0.080081 0.592029 1 0 1.000000
frontwindow
0  -28.099407 -35.080231 56.187824  -0.092248 -0.501188 0.860407  0.080081 0.592029 1 0 1.000000
0  -13.983637 -37.392483 56.022659  -0.048893 -0.521522 0.851836  0.292978 0.551500 1 0 1.000000
0  -25.566936 -28.936234 59.865414  -0.097995 -0.471146 0.876595  0.117924 0.735588 1 0 1.000000
frontwindow
0  -25.566936 -28.936234 59.865414  -0.097995 -0.471146 0.876595  0.117924 0.735588 1 0 1.000000
0  -13.983637 -37.392483 56.022659  -0.048893 -0.521522 0.851836  0.292978 0.551500 1 0 1.000000
0  -19.511028 -29.321609 60.316849  -0.088753 -0.475912 0.875003  0.208991 0.734611 1 0 1.000000
frontwindow
0  -19.511028 -29.321609 60.316849  -0.088753 -0.475912 0.875003  0.208991 0.734611 1 0 1.000000
0  -13.983637 -37.392483 56.022659  -0.048893 -0.521522 0.851836  0.292978 0.551500 1 0 1.000000
0  -10.746478 -29.751026 60.636162  -0.037172 -0.494989 0.868104  0.342051 0.732902 1 0 1.000000
frontwindow
0  -10.746478 -29.751026 60.636162  -0.037172 -0.494989 0.868104  0.342051 0.732902 1 0 1.000000
0  -13.983637 -37.392483 56.022659  -0.048893 -0.521522 0.851836  0.292978 0.551500 1 0 1.000000
0  -3.820721 -29.916187 60.724247  -0.012014 -0.497784 0.867217  0.447279 0.730949 1 0 1.000000
frontwindow
0  -13.983637 -37.392483 56.022659  -0.048893 -0.521522 0.851836  0.292978 0.551500 1 0 1.000000
0  -2.785711 -30.136402 60.603127  -0.008686 -0.498202 0.867017  0.462905 0.726554 1 0 1.000000
0  -3.820721 -29.916187 60.724247  -0.012014 -0.497784 0.867217  0.447279 0.730949 1 0 1.000000
frontwindow
0  -13.983637 -37.392483 56.022659  -0.048893 -0.521522 0.851836  0.292978 0.551500 1 0 1.000000
0  -2.246185 -30.753004 60.250786  -0.007048 -0.499143 0.866491  0.470962 0.712149 1 0 1.000000
0  -2.785711 -30.136402 60.603127  -0.008686 -0.498202 0.867017  0.462905 0.726554 1 0 1.000000
frontwindow
0  -13.983637 -37.392483 56.022659  -0.048893 -0.521522 0.851836  0.292978 0.551500 1 0 1.000000
0  -2.180120 -37.073170 56.529152  -0.006606 -0.522703 0.852490  0.471938 0.562243 1 0 1.000000
0  -2.246185 -30.753004 60.250786  -0.007048 -0.499143 0.866491  0.470962 0.712149 1 0 1.000000
frontwindow
0  -14.545183 -47.467312 49.273075  -0.052199 -0.581727 0.811708  0.284433 0.305155 1 0 1.000000
0  -2.180120 -37.073170 56.529152  -0.006606 -0.522703 0.852490  0.471938 0.562243 1 0 1.000000
0  -13.983637 -37.392483 56.022659  -0.048893 -0.521522 0.851836  0.292978 0.551500 1 0 1.000000
frontwindow
0  -1.398357 -37.700783 56.176811  -0.004207 -0.525917 0.850525  0.483657 0.547838 1 0 1.000000
0  -2.180120 -37.073170 56.529152  -0.006606 -0.522703 0.852490  0.471938 0.562243 1 0 1.000000
0  -14.545183 -47.467312 49.273075  -0.052199 -0.581727 0.811708  0.284433 0.305155 1 0 1.000000
frontwindow
0  0.000007 -37.766850 56.154789  -0.000008 -0.526117 0.850412  0.505142 0.546129 1 0 1.000000
0  -1.398357 -37.700783 56.176811  -0.004207 -0.525917 0.850525  0.483657 0.547838 1 0 1.000000
0  -14.545183 -47.467312 49.273075  -0.052199 -0.581727 0.811708  0.284433 0.305155 1 0 1.000000
rearwindow
0  24.774174 29.806082 59.248806  0.004081 0.983595 0.180345  0.123051 0.641835 1 0 1.000000
0  25.677053 29.861135 58.929493  0.004340 0.983746 0.179512  0.109134 0.624744 1 0 1.000000
0  26.150517 29.949223 58.434010  0.004287 0.984087 0.177634  0.102298 0.599109 1 0 1.000000
rearwindow
0  -24.774170 29.806078 59.248806  -0.004135 0.983598 0.180328  0.888211 0.641835 1 0 1.000000
0  -26.150513 29.949219 58.434017  -0.004283 0.984096 0.177583  0.908719 0.599109 1 0 1.000000
0  -25.677050 29.861132 58.929501  -0.004191 0.983759 0.179448  0.901883 0.624744 1 0 1.000000
rearwindow
0  -26.150513 29.949219 58.434017  -0.004283 0.984096 0.177583  0.908719 0.599109 1 0 1.000000
0  -24.774170 29.806078 59.248806  -0.004135 0.983598 0.180328  0.888211 0.641835 1 0 1.000000
0  -15.965576 31.435669 47.533375  -0.003457 0.995673 0.092860  0.752220 0.077120 1 0 1.000000
rearwindow
0  -15.965576 31.435669 47.533375  -0.003457 0.995673 0.092860  0.752220 0.077120 1 0 1.000000
0  -24.774170 29.806078 59.248806  -0.004135 0.983598 0.180328  0.888211 0.641835 1 0 1.000000
0  -20.424927 29.817089 59.380936  -0.003874 0.983455 0.181112  0.820826 0.650380 1 0 1.000000
rearwindow
0  -11.484202 29.795071 59.546097  -0.002067 0.983371 0.181595  0.682150 0.658925 1 0 1.000000
0  -15.965576 31.435669 47.533375  -0.003457 0.995673 0.092860  0.752220 0.077120 1 0 1.000000
0  -20.424927 29.817089 59.380936  -0.003874 0.983455 0.181112  0.820826 0.650380 1 0 1.000000
rearwindow
0  0.000002 29.784060 59.634182  -0.000002 0.983443 0.181219  0.504898 0.658925 1 0 1.000000
0  -15.965576 31.435669 47.533375  -0.003457 0.995673 0.092860  0.752220 0.077120 1 0 1.000000
0  -11.484202 29.795071 59.546097  -0.002067 0.983371 0.181595  0.682150 0.658925 1 0 1.000000
rearwindow
0  0.000001 31.468702 47.533375  -0.000000 0.995389 0.095920  0.504898 0.068575 1 0 1.000000
0  -15.965576 31.435669 47.533375  -0.003457 0.995673 0.092860  0.752220 0.077120 1 0 1.000000
0  0.000002 29.784060 59.634182  -0.000002 0.983443 0.181219  0.504898 0.658925 1 0 1.000000
rearwindow
0  0.000001 31.468702 47.533375  -0.000000 0.995389 0.095920  0.504898 0.068575 1 0 1.000000
0  0.000002 29.784060 59.634182  -0.000002 0.983443 0.181219  0.504898 0.658925 1 0 1.000000
0  15.965578 31.435673 47.533375  0.003477 0.995664 0.092958  0.259041 0.077120 1 0 1.000000
rearwindow
0  0.000002 29.784060 59.634182  -0.000002 0.983443 0.181219  0.504898 0.658925 1 0 1.000000
0  11.484206 29.795071 59.546097  0.002070 0.983371 0.181595  0.327647 0.658925 1 0 1.000000
0  15.965578 31.435673 47.533375  0.003477 0.995664 0.092958  0.259041 0.077120 1 0 1.000000
rearwindow
0  11.484206 29.795071 59.546097  0.002070 0.983371 0.181595  0.327647 0.658925 1 0 1.000000
0  20.424931 29.817093 59.380936  0.003874 0.983455 0.181112  0.190191 0.650380 1 0 1.000000
0  15.965578 31.435673 47.533375  0.003477 0.995664 0.092958  0.259041 0.077120 1 0 1.000000
rearwindow
0  15.965578 31.435673 47.533375  0.003477 0.995664 0.092958  0.259041 0.077120 1 0 1.000000
0  20.424931 29.817093 59.380936  0.003874 0.983455 0.181112  0.190191 0.650380 1 0 1.000000
0  24.774174 29.806082 59.248806  0.004081 0.983595 0.180345  0.123051 0.641835 1 0 1.000000
rearwindow
0  26.150517 29.949223 58.434010  0.004287 0.984087 0.177634  0.102298 0.599109 1 0 1.000000
0  15.965578 31.435673 47.533375  0.003477 0.995664 0.092958  0.259041 0.077120 1 0 1.000000
0  24.774174 29.806082 59.248806  0.004081 0.983595 0.180345  0.123051 0.641835 1 0 1.000000
rearwindow
0  26.150517 29.949223 58.434010  0.004287 0.984087 0.177634  0.102298 0.599109 1 0 1.000000
0  27.901224 30.620878 54.150829  0.004236 0.989852 0.142037  0.074953 0.393780 1 0 1.000000
0  15.965578 31.435673 47.533375  0.003477 0.995664 0.092958  0.259041 0.077120 1 0 1.000000
rearwindow
0  15.965578 31.435673 47.533375  0.003477 0.995664 0.092958  0.259041 0.077120 1 0 1.000000
0  27.901224 30.620878 54.150829  0.004236 0.989852 0.142037  0.074953 0.393780 1 0 1.000000
0  29.453739 31.182425 49.724510  0.004594 0.995372 0.095989  0.051515 0.179907 1 0 1.000000
rearwindow
0  15.965578 31.435673 47.533375  0.003477 0.995664 0.092958  0.259041 0.077120 1 0 1.000000
0  29.453739 31.182425 49.724510  0.004594 0.995372 0.095989  0.051515 0.179907 1 0 1.000000
0  28.077396 31.380619 47.544384  0.005508 0.996141 0.087594  0.072268 0.077120 1 0 1.000000
rearwindow
0  29.453739 31.182425 49.724510  0.004594 0.995372 0.095989  0.051515 0.179907 1 0 1.000000
0  29.409697 31.281523 48.645458  0.005114 0.995837 0.091008  0.051515 0.128391 1 0 1.000000
0  28.077396 31.380619 47.544384  0.005508 0.996141 0.087594  0.072268 0.077120 1 0 1.000000
rearwindow
0  28.077396 31.380619 47.544384  0.005508 0.996141 0.087594  0.072268 0.077120 1 0 1.000000
0  29.409697 31.281523 48.645458  0.005114 0.995837 0.091008  0.051515 0.128391 1 0 1.000000
0  28.793095 31.358597 47.775608  0.005588 0.996138 0.087623  0.061281 0.085665 1 0 1.000000
rearwindow
0  -26.150513 29.949219 58.434017  -0.004283 0.984096 0.177583  0.908719 0.599109 1 0 1.000000
0  -15.965576 31.435669 47.533375  -0.003457 0.995673 0.092860  0.752220 0.077120 1 0 1.000000
0  -27.901220 30.620874 54.150837  -0.004235 0.989852 0.142037  0.936308 0.393780 1 0 1.000000
rearwindow
0  -27.901220 30.620874 54.150837  -0.004235 0.989852 0.142037  0.936308 0.393780 1 0 1.000000
0  -15.965576 31.435669 47.533375  -0.003457 0.995673 0.092860  0.752220 0.077120 1 0 1.000000
0  -29.453735 31.182421 49.724518  -0.004576 0.995371 0.096001  0.959502 0.179907 1 0 1.000000
rearwindow
0  -29.453735 31.182421 49.724518  -0.004576 0.995371 0.096001  0.959502 0.179907 1 0 1.000000
0  -15.965576 31.435669 47.533375  -0.003457 0.995673 0.092860  0.752220 0.077120 1 0 1.000000
0  -28.077393 31.380615 47.544392  -0.005403 0.996145 0.087550  0.938994 0.077120 1 0 1.000000
rearwindow
0  -29.453735 31.182421 49.724518  -0.004576 0.995371 0.096001  0.959502 0.179907 1 0 1.000000
0  -28.077393 31.380615 47.544392  -0.005403 0.996145 0.087550  0.938994 0.077120 1 0 1.000000
0  -29.409693 31.281519 48.645466  -0.005147 0.995838 0.090990  0.959502 0.128391 1 0 1.000000
rearwindow
0  -28.077393 31.380615 47.544392  -0.005403 0.996145 0.087550  0.938994 0.077120 1 0 1.000000
0  -28.793091 31.358593 47.775616  -0.005581 0.996143 0.087571  0.949980 0.085665 1 0 1.000000
0  -29.409693 31.281519 48.645466  -0.005147 0.995838 0.090990  0.959502 0.128391 1 0 1.000000
end
