version 1
nodes
0 "root" -1
1 "steering_wheel" 0
end
skeleton
time 0
0  0.000000 0.000000 0.000000  0.000000 -0.000000 -0.000000
1  19.916300 17.934299 33.308498  0.000000 -0.000000 0.000000
end
triangles
coplightblue3
0  7.123639 15.034739 52.600883  0.001119 -0.999998 -0.001575  0.724854 0.184204 1 0 1.000000
0  11.148779 15.038317 53.189186  0.001109 -0.999998 -0.001506  0.520493 0.215546 1 0 1.000000
0  7.122135 15.033802 53.191154  0.001120 -0.999998 -0.001582  0.724854 0.215546 1 0 1.000000
coplightblue3
0  11.150568 15.039196 52.602299  -0.000092 -0.930417 0.366504  0.520493 0.184204 1 0 1.000000
0  11.148779 15.038317 53.189186  0.001109 -0.999998 -0.001506  0.520493 0.215546 1 0 1.000000
0  7.123639 15.034739 52.600883  0.001119 -0.999998 -0.001575  0.724854 0.184204 1 0 1.000000
coplightblue3
0  6.555178 21.674145 53.316750  0.001119 0.999677 0.025400  0.724854 0.215546 1 0 1.000000
0  10.581772 21.669691 53.314613  0.001113 0.999676 0.025438  0.520493 0.215546 1 0 1.000000
0  6.556633 21.689135 52.726738  0.001119 0.999677 0.025404  0.724854 0.184204 1 0 1.000000
coplightblue3
0  10.583563 21.684622 52.727993  0.000707 0.920411 0.390951  0.520493 0.184204 1 0 1.000000
0  6.556633 21.689135 52.726738  0.001119 0.999677 0.025404  0.724854 0.184204 1 0 1.000000
0  10.581772 21.669691 53.314613  0.001113 0.999676 0.025438  0.520493 0.215546 1 0 1.000000
coplightblue3
0  0.885326 21.674145 53.316750  0.001120 0.999677 0.025394  0.724854 0.215546 1 0 1.000000
0  4.911917 21.669687 53.314613  0.001113 0.999675 0.025449  0.520493 0.215546 1 0 1.000000
0  0.886778 21.689135 52.726738  0.001119 0.999677 0.025399  0.724854 0.184204 1 0 1.000000
coplightblue3
0  4.913709 21.684622 52.727993  0.000707 0.920406 0.390963  0.520493 0.184204 1 0 1.000000
0  0.886778 21.689135 52.726738  0.001119 0.999677 0.025399  0.724854 0.184204 1 0 1.000000
0  4.911917 21.669687 53.314613  0.001113 0.999675 0.025449  0.520493 0.215546 1 0 1.000000
coplightblue3
0  -0.738758 21.674145 53.316750  -0.001120 0.999677 0.025400  0.724854 0.215546 1 0 1.000000
0  -0.740211 21.689135 52.726738  -0.001119 0.999677 0.025405  0.724854 0.184204 1 0 1.000000
0  -4.765349 21.669687 53.314613  -0.001114 0.999676 0.025444  0.520493 0.215546 1 0 1.000000
coplightblue3
0  -4.765349 21.669687 53.314613  -0.001114 0.999676 0.025444  0.520493 0.215546 1 0 1.000000
0  -0.740211 21.689135 52.726738  -0.001119 0.999677 0.025405  0.724854 0.184204 1 0 1.000000
0  -4.767139 21.684618 52.727993  0.000085 0.920410 0.390955  0.520493 0.184204 1 0 1.000000
coplightblue3
0  -6.408567 21.674141 53.316750  -0.001121 0.999677 0.025406  0.724854 0.215546 1 0 1.000000
0  -6.410067 21.689135 52.726738  -0.001120 0.999676 0.025411  0.724854 0.184204 1 0 1.000000
0  -10.435205 21.669682 53.314613  -0.001114 0.999675 0.025450  0.520493 0.215546 1 0 1.000000
coplightblue3
0  -10.435205 21.669682 53.314613  -0.001114 0.999675 0.025450  0.520493 0.215546 1 0 1.000000
0  -6.410067 21.689135 52.726738  -0.001120 0.999676 0.025411  0.724854 0.184204 1 0 1.000000
0  -10.436996 21.684618 52.727993  0.000086 0.920407 0.390961  0.520493 0.184204 1 0 1.000000
coplightblue3
0  1.075783 15.034731 52.600063  0.001118 -0.999998 -0.001566  0.724854 0.184204 1 0 1.000000
0  5.100921 15.038309 53.188366  0.001109 -0.999998 -0.001505  0.520493 0.215546 1 0 1.000000
0  1.074329 15.033798 53.190334  0.001120 -0.999998 -0.001573  0.724854 0.215546 1 0 1.000000
coplightblue3
0  5.102713 15.039190 52.601479  -0.000093 -0.930417 0.366503  0.520493 0.184204 1 0 1.000000
0  5.100921 15.038309 53.188366  0.001109 -0.999998 -0.001505  0.520493 0.215546 1 0 1.000000
0  1.075783 15.034731 52.600063  0.001118 -0.999998 -0.001566  0.724854 0.184204 1 0 1.000000
coplightblue3
0  -0.929206 15.034731 52.600063  -0.001118 -0.999998 -0.001569  0.724854 0.184204 1 0 1.000000
0  -0.927753 15.033798 53.190334  -0.001119 -0.999998 -0.001576  0.724854 0.215546 1 0 1.000000
0  -4.954346 15.038306 53.188366  -0.001108 -0.999998 -0.001508  0.520493 0.215546 1 0 1.000000
coplightblue3
0  -4.954346 15.038306 53.188366  -0.001108 -0.999998 -0.001508  0.520493 0.215546 1 0 1.000000
0  -4.956138 15.039187 52.601479  -0.000701 -0.930417 0.366502  0.520493 0.184204 1 0 1.000000
0  -0.929206 15.034731 52.600063  -0.001118 -0.999998 -0.001569  0.724854 0.184204 1 0 1.000000
coplightblue3
0  -6.977061 15.034736 52.600883  -0.001118 -0.999998 -0.001574  0.724854 0.184204 1 0 1.000000
0  -6.975562 15.033801 53.191154  -0.001119 -0.999998 -0.001583  0.724854 0.215546 1 0 1.000000
0  -11.002152 15.038309 53.189186  -0.001107 -0.999998 -0.001503  0.520493 0.215546 1 0 1.000000
coplightblue3
0  -11.002152 15.038309 53.189186  -0.001107 -0.999998 -0.001503  0.520493 0.215546 1 0 1.000000
0  -11.003996 15.039187 52.602299  -0.000721 -0.930415 0.366508  0.520493 0.184204 1 0 1.000000
0  -6.977061 15.034736 52.600883  -0.001118 -0.999998 -0.001574  0.724854 0.184204 1 0 1.000000
end
