version 1
nodes
0 "root" -1
1 "steering_wheel" 0
end
skeleton
time 0
0  0.000000 0.000000 0.000000  0.000000 -0.000000 -0.000000
1  19.916300 17.934299 33.308498  0.000000 -0.000000 0.000000
end
triangles
driver
0  26.920343 19.466341 13.927582  0.999124 0.038958 -0.015274  0.585938 0.050781 1 0 1.000000
0  24.251245 14.385629 16.028675  0.734426 -0.401307 0.547331  0.580078 0.175781 1 0 1.000000
0  26.856482 17.286177 11.739643  0.997972 -0.063217 0.007406  0.521484 0.050781 1 0 1.000000
driver
0  5.806456 15.335054 23.620682  -0.621131 0.295168 -0.725997  0.744141 0.738281 1 0 1.000000
0  9.147214 20.195065 23.549442  -0.826589 -0.010384 -0.562710  0.984375 0.691406 1 0 1.000000
0  9.599749 14.398604 23.308937  0.583184 -0.225147 -0.780516  0.744141 0.687500 1 0 1.000000
driver
0  9.147214 20.195065 23.549442  -0.826589 -0.010384 -0.562710  0.984375 0.691406 1 0 1.000000
0  5.806456 15.335054 23.620682  -0.621131 0.295168 -0.725997  0.744141 0.738281 1 0 1.000000
0  10.075072 27.452835 25.734940  -0.649941 0.659904 -0.376965  0.960938 0.738281 1 0 1.000000
driver
0  12.802297 17.407074 26.793064  0.232382 -0.956612 0.175763  0.990234 0.671875 1 0 1.000000
0  9.582016 13.486153 27.843201  0.942299 -0.136622 0.305626  0.742188 0.632812 1 0 1.000000
0  9.599749 14.398604 23.308937  0.583184 -0.225147 -0.780516  0.744141 0.687500 1 0 1.000000
driver
0  7.752975 27.368839 30.400238  -0.862948 0.446178 0.237162  0.988281 0.501953 1 0 1.000000
0  10.075072 27.452835 25.734940  -0.649941 0.659904 -0.376965  0.960938 0.414062 1 0 1.000000
0  5.806456 15.335054 23.620682  -0.621131 0.295168 -0.725997  0.744141 0.414062 1 0 1.000000
driver
0  5.806456 15.335054 23.620682  -0.621131 0.295168 -0.725997  0.744141 0.414062 1 0 1.000000
0  4.148815 15.117971 27.192486  -0.992968 0.070636 0.095003  0.744141 0.501953 1 0 1.000000
0  7.752975 27.368839 30.400238  -0.862948 0.446178 0.237162  0.988281 0.501953 1 0 1.000000
driver
0  7.101955 13.593489 30.598633  -0.425935 -0.063331 0.902534  0.744141 0.576172 1 0 1.000000
0  7.752975 27.368839 30.400238  -0.862948 0.446178 0.237162  0.988281 0.501953 1 0 1.000000
0  4.148815 15.117971 27.192486  -0.992968 0.070636 0.095003  0.744141 0.501953 1 0 1.000000
driver
0  7.752975 27.368839 30.400238  -0.862948 0.446178 0.237162  0.988281 0.501953 1 0 1.000000
0  7.101955 13.593489 30.598633  -0.425935 -0.063331 0.902534  0.744141 0.576172 1 0 1.000000
0  9.872767 24.956558 33.245468  -0.417708 0.077150 0.905300  0.982422 0.576172 1 0 1.000000
driver
0  7.101955 13.593489 30.598633  -0.425935 -0.063331 0.902534  0.744141 0.576172 1 0 1.000000
0  11.277555 20.076483 33.320358  0.149502 -0.535806 0.831000  0.958984 0.628906 1 0 1.000000
0  9.872767 24.956558 33.245468  -0.417708 0.077150 0.905300  0.982422 0.576172 1 0 1.000000
driver
0  11.277555 20.076483 33.320358  0.149502 -0.535806 0.831000  0.958984 0.628906 1 0 1.000000
0  7.101955 13.593489 30.598633  -0.425935 -0.063331 0.902534  0.744141 0.576172 1 0 1.000000
0  9.582016 13.486153 27.843201  0.942299 -0.136622 0.305626  0.742188 0.632812 1 0 1.000000
driver
0  9.582016 13.486153 27.843201  0.942299 -0.136622 0.305626  0.742188 0.632812 1 0 1.000000
0  12.802297 17.407074 26.793064  0.232382 -0.956612 0.175763  0.876953 0.748047 1 0 1.000000
0  11.277555 20.076483 33.320358  0.149502 -0.535806 0.831000  0.958984 0.628906 1 0 1.000000
driver
0  8.506486 15.233786 24.461258  0.450328 -0.082897 -0.889007  0.738281 0.687500 1 0 1.000000
0  5.569219 13.730220 24.457100  -0.468779 -0.150798 -0.870348  0.708984 0.738281 1 0 1.000000
0  5.921885 15.241230 24.711407  -0.666486 0.174157 -0.724890  0.738281 0.738281 1 0 1.000000
driver
0  8.506486 15.233786 24.461258  0.450328 -0.082897 -0.889007  0.738281 0.687500 1 0 1.000000
0  9.620250 2.237969 29.410751  -0.275131 -0.446749 -0.851304  0.490234 0.738281 1 0 1.000000
0  5.569219 13.730220 24.457100  -0.468779 -0.150798 -0.870348  0.708984 0.738281 1 0 1.000000
driver
0  8.506486 15.233786 24.461258  0.450328 -0.082897 -0.889007  0.738281 0.687500 1 0 1.000000
0  11.627651 3.255248 30.979939  0.923500 0.238949 0.300084  0.492188 0.628906 1 0 1.000000
0  9.620250 2.237969 29.410751  -0.275131 -0.446749 -0.851304  0.490234 0.738281 1 0 1.000000
driver
0  8.506486 15.233786 24.461258  0.450328 -0.082897 -0.889007  0.738281 0.687500 1 0 1.000000
0  9.582016 13.486153 27.843201  0.942299 -0.136622 0.305626  0.742188 0.632812 1 0 1.000000
0  11.627651 3.255248 30.979939  0.923500 0.238949 0.300084  0.492188 0.628906 1 0 1.000000
driver
0  9.582016 13.486153 27.843201  0.942299 -0.136622 0.305626  0.742188 0.632812 1 0 1.000000
0  10.319910 3.917672 32.257019  0.166294 0.412951 0.895443  0.492188 0.576172 1 0 1.000000
0  11.627651 3.255248 30.979939  0.923500 0.238949 0.300084  0.492188 0.628906 1 0 1.000000
driver
0  10.319910 3.917672 32.257019  0.166294 0.412951 0.895443  0.492188 0.576172 1 0 1.000000
0  9.582016 13.486153 27.843201  0.942299 -0.136622 0.305626  0.742188 0.632812 1 0 1.000000
0  7.101955 13.593489 30.598633  -0.425935 -0.063331 0.902534  0.744141 0.576172 1 0 1.000000
driver
0  8.127100 2.923275 30.593788  -0.962452 -0.026300 0.270174  0.492188 0.501953 1 0 1.000000
0  10.319910 3.917672 32.257019  0.166294 0.412951 0.895443  0.492188 0.576172 1 0 1.000000
0  7.101955 13.593489 30.598633  -0.425935 -0.063331 0.902534  0.744141 0.576172 1 0 1.000000
driver
0  7.101955 13.593489 30.598633  -0.425935 -0.063331 0.902534  0.744141 0.576172 1 0 1.000000
0  4.346916 13.207362 26.882557  -0.969533 -0.222975 -0.101430  0.712891 0.501953 1 0 1.000000
0  8.127100 2.923275 30.593788  -0.962452 -0.026300 0.270174  0.492188 0.501953 1 0 1.000000
driver
0  4.346916 13.207362 26.882557  -0.969533 -0.222975 -0.101430  0.712891 0.501953 1 0 1.000000
0  9.620250 2.237969 29.410751  -0.275131 -0.446749 -0.851304  0.492188 0.406250 1 0 1.000000
0  8.127100 2.923275 30.593788  -0.962452 -0.026300 0.270174  0.492188 0.501953 1 0 1.000000
driver
0  9.620250 2.237969 29.410751  -0.275131 -0.446749 -0.851304  0.492188 0.406250 1 0 1.000000
0  4.346916 13.207362 26.882557  -0.969533 -0.222975 -0.101430  0.712891 0.501953 1 0 1.000000
0  5.569219 13.730220 24.457100  -0.468779 -0.150798 -0.870348  0.703125 0.406250 1 0 1.000000
driver
0  4.346916 13.207362 26.882557  -0.969533 -0.222975 -0.101430  0.712891 0.501953 1 0 1.000000
0  5.921885 15.241230 24.711407  -0.666486 0.174157 -0.724890  0.738281 0.406250 1 0 1.000000
0  5.569219 13.730220 24.457100  -0.468779 -0.150798 -0.870348  0.703125 0.406250 1 0 1.000000
driver
0  5.921885 15.241230 24.711407  -0.666486 0.174157 -0.724890  0.738281 0.406250 1 0 1.000000
0  4.346916 13.207362 26.882557  -0.969533 -0.222975 -0.101430  0.712891 0.501953 1 0 1.000000
0  4.148815 15.117971 27.192486  -0.992968 0.070636 0.095003  0.738281 0.501953 1 0 1.000000
driver
0  4.346916 13.207362 26.882557  -0.969533 -0.222975 -0.101430  0.712891 0.501953 1 0 1.000000
0  7.101955 13.593489 30.598633  -0.425935 -0.063331 0.902534  0.744141 0.576172 1 0 1.000000
0  4.148815 15.117971 27.192486  -0.992968 0.070636 0.095003  0.738281 0.501953 1 0 1.000000
driver
0  17.796263 28.316145 33.795849  0.000011 0.890492 0.454998  0.441406 0.378906 1 0 1.000000
0  11.651005 28.707359 32.969017  -0.277883 0.799290 0.532838  0.431641 0.515625 1 0 1.000000
0  15.252837 26.112434 34.181309  -0.739342 0.406698 0.536628  0.441406 0.425781 1 0 1.000000
driver
0  20.339685 26.112427 34.181316  0.739362 0.406653 0.536635  0.441406 0.425781 1 0 1.000000
0  23.941515 28.707359 32.969028  0.277871 0.799291 0.532842  0.431641 0.515625 1 0 1.000000
0  17.796263 28.316145 33.795849  0.000011 0.890492 0.454998  0.441406 0.378906 1 0 1.000000
driver
0  7.752975 27.368839 30.400238  -0.862948 0.446178 0.237162  0.410156 0.611328 1 0 1.000000
0  9.872767 24.956558 33.245468  -0.417708 0.077150 0.905300  0.468750 0.527344 1 0 1.000000
0  11.651005 28.707359 32.969017  -0.277883 0.799290 0.532838  0.431641 0.515625 1 0 1.000000
driver
0  15.252837 26.112434 34.181309  -0.739342 0.406698 0.536628  0.468750 0.458984 1 0 1.000000
0  11.651005 28.707359 32.969017  -0.277883 0.799290 0.532838  0.431641 0.515625 1 0 1.000000
0  9.872767 24.956558 33.245468  -0.417708 0.077150 0.905300  0.468750 0.527344 1 0 1.000000
driver
0  23.941515 28.707359 32.969028  0.277871 0.799291 0.532842  0.431641 0.515625 1 0 1.000000
0  25.719755 24.956560 33.245476  0.417708 0.077150 0.905300  0.468750 0.527344 1 0 1.000000
0  27.839546 27.368843 30.400242  0.862947 0.446179 0.237163  0.410156 0.611328 1 0 1.000000
driver
0  25.719755 24.956560 33.245476  0.417708 0.077150 0.905300  0.468750 0.527344 1 0 1.000000
0  23.941515 28.707359 32.969028  0.277871 0.799291 0.532842  0.431641 0.515625 1 0 1.000000
0  20.339685 26.112427 34.181316  0.739362 0.406653 0.536635  0.468750 0.458984 1 0 1.000000
driver
0  27.839546 27.368843 30.400242  0.862947 0.446179 0.237163  0.410156 0.611328 1 0 1.000000
0  25.517450 27.452835 25.734936  0.649933 0.659916 -0.376959  0.316406 0.505859 1 0 1.000000
0  23.941515 28.707359 32.969028  0.277871 0.799291 0.532842  0.425781 0.511719 1 0 1.000000
driver
0  25.517450 27.452835 25.734936  0.649933 0.659916 -0.376959  0.316406 0.505859 1 0 1.000000
0  17.796261 28.939564 26.067905  -0.000004 0.999690 -0.024914  0.306641 0.378906 1 0 1.000000
0  23.941515 28.707359 32.969028  0.277871 0.799291 0.532842  0.425781 0.511719 1 0 1.000000
driver
0  17.796263 28.316145 33.795849  0.000011 0.890492 0.454998  0.380859 0.378906 1 0 1.000000
0  23.941515 28.707359 32.969028  0.277871 0.799291 0.532842  0.425781 0.511719 1 0 1.000000
0  17.796261 28.939564 26.067905  -0.000004 0.999690 -0.024914  0.306641 0.378906 1 0 1.000000
driver
0  17.796261 28.939564 26.067905  -0.000004 0.999690 -0.024914  0.306641 0.378906 1 0 1.000000
0  11.651005 28.707359 32.969017  -0.277883 0.799290 0.532838  0.425781 0.511719 1 0 1.000000
0  17.796263 28.316145 33.795849  0.000011 0.890492 0.454998  0.380859 0.378906 1 0 1.000000
driver
0  11.651005 28.707359 32.969017  -0.277883 0.799290 0.532838  0.425781 0.511719 1 0 1.000000
0  17.796261 28.939564 26.067905  -0.000004 0.999690 -0.024914  0.306641 0.378906 1 0 1.000000
0  10.075072 27.452835 25.734940  -0.649941 0.659904 -0.376965  0.316406 0.505859 1 0 1.000000
driver
0  11.651005 28.707359 32.969017  -0.277883 0.799290 0.532838  0.425781 0.511719 1 0 1.000000
0  10.075072 27.452835 25.734940  -0.649941 0.659904 -0.376965  0.316406 0.505859 1 0 1.000000
0  7.752975 27.368839 30.400238  -0.862948 0.446178 0.237162  0.410156 0.611328 1 0 1.000000
driver
0  11.297219 24.892290 10.155954  -0.947651 0.301013 -0.106530  0.107422 0.521484 1 0 1.000000
0  9.147214 20.195065 23.549442  -0.826589 -0.010384 -0.562710  0.404297 0.683594 1 0 1.000000
0  10.075072 27.452835 25.734940  -0.649941 0.659904 -0.376965  0.316406 0.505859 1 0 1.000000
driver
0  9.147214 20.195065 23.549442  -0.826589 -0.010384 -0.562710  0.404297 0.683594 1 0 1.000000
0  11.297219 24.892290 10.155954  -0.947651 0.301013 -0.106530  0.107422 0.521484 1 0 1.000000
0  8.672244 19.466341 13.927584  -0.999124 0.038955 -0.015262  0.103516 0.683594 1 0 1.000000
driver
0  25.517450 27.452835 25.734936  0.649933 0.659916 -0.376959  0.316406 0.505859 1 0 1.000000
0  26.445374 20.195066 23.549446  0.826583 -0.010415 -0.562718  0.404297 0.683594 1 0 1.000000
0  24.295301 24.892292 10.155952  0.947639 0.301052 -0.106528  0.107422 0.521484 1 0 1.000000
driver
0  26.920343 19.466341 13.927582  0.999124 0.038958 -0.015274  0.103516 0.683594 1 0 1.000000
0  24.295301 24.892292 10.155952  0.947639 0.301052 -0.106528  0.107422 0.521484 1 0 1.000000
0  26.445374 20.195066 23.549446  0.826583 -0.010415 -0.562718  0.404297 0.683594 1 0 1.000000
driver
0  11.383093 21.379498 5.181007  -0.942918 0.154585 -0.294973  0.000000 0.521484 1 0 1.000000
0  8.672244 19.466341 13.927584  -0.999124 0.038955 -0.015262  0.076172 0.683594 1 0 1.000000
0  11.297219 24.892290 10.155954  -0.947651 0.301013 -0.106530  0.109375 0.519531 1 0 1.000000
driver
0  8.672244 19.466341 13.927584  -0.999124 0.038955 -0.015262  0.076172 0.683594 1 0 1.000000
0  11.383093 21.379498 5.181007  -0.942918 0.154585 -0.294973  0.000000 0.521484 1 0 1.000000
0  8.736038 17.286175 11.739645  -0.997971 -0.063234 0.007403  0.000000 0.683594 1 0 1.000000
driver
0  15.107033 23.875732 35.883923  -0.941501 -0.235973 -0.240610  0.376953 0.191406 1 0 1.000000
0  16.537127 20.214306 35.501835  -0.516896 -0.601068 -0.609537  0.400391 0.052734 1 0 1.000000
0  14.743363 21.497145 39.357391  -0.846712 -0.510232 -0.150805  0.259766 0.126953 1 0 1.000000
driver
0  15.107033 23.875732 35.883923  -0.941501 -0.235973 -0.240610  0.376953 0.191406 1 0 1.000000
0  17.796263 22.509907 34.974606  -0.000030 -0.802431 -0.596744  0.435547 0.009766 1 0 1.000000
0  16.537127 20.214306 35.501835  -0.516896 -0.601068 -0.609537  0.400391 0.052734 1 0 1.000000
driver
0  17.796263 20.046833 35.401741  0.000004 -0.705759 -0.708452  0.410156 0.009766 1 0 1.000000
0  16.537127 20.214306 35.501835  -0.516896 -0.601068 -0.609537  0.400391 0.052734 1 0 1.000000
0  17.796263 22.509907 34.974606  -0.000030 -0.802431 -0.596744  0.435547 0.009766 1 0 1.000000
driver
0  17.796263 20.046833 35.401741  0.000004 -0.705759 -0.708452  0.410156 0.009766 1 0 1.000000
0  17.796263 19.521093 38.431015  0.000001 -0.955408 -0.295290  0.269531 0.009766 1 0 1.000000
0  16.537127 20.214306 35.501835  -0.516896 -0.601068 -0.609537  0.400391 0.052734 1 0 1.000000
driver
0  17.796263 19.521093 38.431015  0.000001 -0.955408 -0.295290  0.269531 0.009766 1 0 1.000000
0  14.743363 21.497145 39.357391  -0.846712 -0.510232 -0.150805  0.259766 0.126953 1 0 1.000000
0  16.537127 20.214306 35.501835  -0.516896 -0.601068 -0.609537  0.400391 0.052734 1 0 1.000000
driver
0  17.796263 18.793991 39.128075  0.000000 -0.991104 -0.133091  0.244141 0.009766 1 0 1.000000
0  14.743363 21.497145 39.357391  -0.846712 -0.510232 -0.150805  0.259766 0.126953 1 0 1.000000
0  17.796263 19.521093 38.431015  0.000001 -0.955408 -0.295290  0.269531 0.009766 1 0 1.000000
driver
0  17.796263 18.793991 39.128075  0.000000 -0.991104 -0.133091  0.244141 0.009766 1 0 1.000000
0  17.796263 19.957382 40.997562  -0.000006 -0.985903 0.167318  0.187500 0.009766 1 0 1.000000
0  14.743363 21.497145 39.357391  -0.846712 -0.510232 -0.150805  0.259766 0.126953 1 0 1.000000
driver
0  20.849161 21.497147 39.357399  0.846712 -0.510233 -0.150803  0.259766 0.126953 1 0 1.000000
0  17.796263 19.957382 40.997562  -0.000006 -0.985903 0.167318  0.187500 0.009766 1 0 1.000000
0  17.796263 18.793991 39.128075  0.000000 -0.991104 -0.133091  0.244141 0.009766 1 0 1.000000
driver
0  20.849161 21.497147 39.357399  0.846712 -0.510233 -0.150803  0.259766 0.126953 1 0 1.000000
0  20.811941 21.057171 41.372498  0.686341 -0.721145 0.094264  0.169922 0.121094 1 0 1.000000
0  17.796263 19.957382 40.997562  -0.000006 -0.985903 0.167318  0.187500 0.009766 1 0 1.000000
driver
0  17.796263 20.863140 45.367172  -0.000002 -0.833518 0.552492  0.019531 0.009766 1 0 1.000000
0  17.796263 19.957382 40.997562  -0.000006 -0.985903 0.167318  0.187500 0.009766 1 0 1.000000
0  20.811941 21.057171 41.372498  0.686341 -0.721145 0.094264  0.169922 0.121094 1 0 1.000000
driver
0  14.780583 21.057171 41.372486  -0.686342 -0.721144 0.094264  0.169922 0.121094 1 0 1.000000
0  17.796263 19.957382 40.997562  -0.000006 -0.985903 0.167318  0.187500 0.009766 1 0 1.000000
0  17.796263 20.863140 45.367172  -0.000002 -0.833518 0.552492  0.019531 0.009766 1 0 1.000000
driver
0  17.796263 19.957382 40.997562  -0.000006 -0.985903 0.167318  0.187500 0.009766 1 0 1.000000
0  14.780583 21.057171 41.372486  -0.686342 -0.721144 0.094264  0.169922 0.121094 1 0 1.000000
0  14.743363 21.497145 39.357391  -0.846712 -0.510232 -0.150805  0.259766 0.126953 1 0 1.000000
driver
0  17.796263 19.521093 38.431015  0.000001 -0.955408 -0.295290  0.269531 0.009766 1 0 1.000000
0  20.849161 21.497147 39.357399  0.846712 -0.510233 -0.150803  0.259766 0.126953 1 0 1.000000
0  17.796263 18.793991 39.128075  0.000000 -0.991104 -0.133091  0.244141 0.009766 1 0 1.000000
driver
0  19.055397 20.214310 35.501842  0.516898 -0.601068 -0.609536  0.400391 0.052734 1 0 1.000000
0  20.849161 21.497147 39.357399  0.846712 -0.510233 -0.150803  0.259766 0.126953 1 0 1.000000
0  17.796263 19.521093 38.431015  0.000001 -0.955408 -0.295290  0.269531 0.009766 1 0 1.000000
driver
0  19.055397 20.214310 35.501842  0.516898 -0.601068 -0.609536  0.400391 0.052734 1 0 1.000000
0  17.796263 19.521093 38.431015  0.000001 -0.955408 -0.295290  0.269531 0.009766 1 0 1.000000
0  17.796263 20.046833 35.401741  0.000004 -0.705759 -0.708452  0.410156 0.009766 1 0 1.000000
driver
0  15.107033 23.875732 35.883923  -0.941501 -0.235973 -0.240610  0.376953 0.191406 1 0 1.000000
0  15.364006 23.272617 34.324322  -0.361426 -0.525970 0.769888  0.453125 0.177734 1 0 1.000000
0  17.796263 22.509907 34.974606  -0.000030 -0.802431 -0.596744  0.435547 0.009766 1 0 1.000000
driver
0  15.107033 23.875732 35.883923  -0.941501 -0.235973 -0.240610  0.376953 0.191406 1 0 1.000000
0  15.252837 26.112434 34.181309  -0.739342 0.406698 0.536628  0.453125 0.285156 1 0 1.000000
0  15.364006 23.272617 34.324322  -0.361426 -0.525970 0.769888  0.453125 0.177734 1 0 1.000000
driver
0  15.252837 26.112434 34.181309  -0.739342 0.406698 0.536628  0.453125 0.285156 1 0 1.000000
0  15.107033 23.875732 35.883923  -0.941501 -0.235973 -0.240610  0.376953 0.191406 1 0 1.000000
0  15.244449 26.263271 37.019722  -0.918151 0.345099 -0.194692  0.343750 0.294922 1 0 1.000000
driver
0  14.743363 21.497145 39.357391  -0.846712 -0.510232 -0.150805  0.259766 0.126953 1 0 1.000000
0  15.244449 26.263271 37.019722  -0.918151 0.345099 -0.194692  0.343750 0.294922 1 0 1.000000
0  15.107033 23.875732 35.883923  -0.941501 -0.235973 -0.240610  0.376953 0.191406 1 0 1.000000
driver
0  15.244449 26.263271 37.019722  -0.918151 0.345099 -0.194692  0.343750 0.294922 1 0 1.000000
0  14.743363 21.497145 39.357391  -0.846712 -0.510232 -0.150805  0.259766 0.126953 1 0 1.000000
0  13.983808 24.988373 40.941315  -0.998964 -0.003046 -0.045410  0.179688 0.246094 1 0 1.000000
driver
0  14.780583 21.057171 41.372486  -0.686342 -0.721144 0.094264  0.169922 0.121094 1 0 1.000000
0  13.983808 24.988373 40.941315  -0.998964 -0.003046 -0.045410  0.179688 0.246094 1 0 1.000000
0  14.743363 21.497145 39.357391  -0.846712 -0.510232 -0.150805  0.259766 0.126953 1 0 1.000000
driver
0  15.460518 21.707001 45.052437  -0.717470 -0.359350 0.596744  0.031250 0.125000 1 0 1.000000
0  13.983808 24.988373 40.941315  -0.998964 -0.003046 -0.045410  0.179688 0.246094 1 0 1.000000
0  14.780583 21.057171 41.372486  -0.686342 -0.721144 0.094264  0.169922 0.121094 1 0 1.000000
driver
0  15.460518 21.707001 45.052437  -0.717470 -0.359350 0.596744  0.031250 0.125000 1 0 1.000000
0  14.780583 21.057171 41.372486  -0.686342 -0.721144 0.094264  0.169922 0.121094 1 0 1.000000
0  17.796263 20.863140 45.367172  -0.000002 -0.833518 0.552492  0.019531 0.009766 1 0 1.000000
driver
0  17.796263 23.864876 46.099209  -0.000000 -0.040685 0.999172  0.007812 0.009766 1 0 1.000000
0  15.460518 21.707001 45.052437  -0.717470 -0.359350 0.596744  0.031250 0.125000 1 0 1.000000
0  17.796263 20.863140 45.367172  -0.000002 -0.833518 0.552492  0.019531 0.009766 1 0 1.000000
driver
0  17.796263 20.863140 45.367172  -0.000002 -0.833518 0.552492  0.019531 0.009766 1 0 1.000000
0  20.132006 21.707001 45.052444  0.717471 -0.359351 0.596742  0.031250 0.125000 1 0 1.000000
0  17.796263 23.864876 46.099209  -0.000000 -0.040685 0.999172  0.007812 0.009766 1 0 1.000000
driver
0  17.796263 20.863140 45.367172  -0.000002 -0.833518 0.552492  0.019531 0.009766 1 0 1.000000
0  20.811941 21.057171 41.372498  0.686341 -0.721145 0.094264  0.169922 0.121094 1 0 1.000000
0  20.132006 21.707001 45.052444  0.717471 -0.359351 0.596742  0.031250 0.125000 1 0 1.000000
driver
0  20.811941 21.057171 41.372498  0.686341 -0.721145 0.094264  0.169922 0.121094 1 0 1.000000
0  21.608717 24.988375 40.941322  0.998964 -0.003049 -0.045411  0.179688 0.246094 1 0 1.000000
0  20.132006 21.707001 45.052444  0.717471 -0.359351 0.596742  0.031250 0.125000 1 0 1.000000
driver
0  20.849161 21.497147 39.357399  0.846712 -0.510233 -0.150803  0.259766 0.126953 1 0 1.000000
0  21.608717 24.988375 40.941322  0.998964 -0.003049 -0.045411  0.179688 0.246094 1 0 1.000000
0  20.811941 21.057171 41.372498  0.686341 -0.721145 0.094264  0.169922 0.121094 1 0 1.000000
driver
0  21.608717 24.988375 40.941322  0.998964 -0.003049 -0.045411  0.179688 0.246094 1 0 1.000000
0  20.849161 21.497147 39.357399  0.846712 -0.510233 -0.150803  0.259766 0.126953 1 0 1.000000
0  20.348076 26.263264 37.019726  0.918150 0.345098 -0.194698  0.343750 0.294922 1 0 1.000000
driver
0  20.485493 23.875734 35.883934  0.941501 -0.235972 -0.240610  0.376953 0.191406 1 0 1.000000
0  20.348076 26.263264 37.019726  0.918150 0.345098 -0.194698  0.343750 0.294922 1 0 1.000000
0  20.849161 21.497147 39.357399  0.846712 -0.510233 -0.150803  0.259766 0.126953 1 0 1.000000
driver
0  20.849161 21.497147 39.357399  0.846712 -0.510233 -0.150803  0.259766 0.126953 1 0 1.000000
0  19.055397 20.214310 35.501842  0.516898 -0.601068 -0.609536  0.400391 0.052734 1 0 1.000000
0  20.485493 23.875734 35.883934  0.941501 -0.235972 -0.240610  0.376953 0.191406 1 0 1.000000
driver
0  19.055397 20.214310 35.501842  0.516898 -0.601068 -0.609536  0.400391 0.052734 1 0 1.000000
0  17.796263 22.509907 34.974606  -0.000030 -0.802431 -0.596744  0.435547 0.009766 1 0 1.000000
0  20.485493 23.875734 35.883934  0.941501 -0.235972 -0.240610  0.376953 0.191406 1 0 1.000000
driver
0  17.796263 22.509907 34.974606  -0.000030 -0.802431 -0.596744  0.435547 0.009766 1 0 1.000000
0  19.055397 20.214310 35.501842  0.516898 -0.601068 -0.609536  0.400391 0.052734 1 0 1.000000
0  17.796263 20.046833 35.401741  0.000004 -0.705759 -0.708452  0.410156 0.009766 1 0 1.000000
driver
0  14.461081 25.544222 44.310108  -0.779794 0.113136 0.615728  0.066406 0.263672 1 0 1.000000
0  13.983808 24.988373 40.941315  -0.998964 -0.003046 -0.045410  0.179688 0.246094 1 0 1.000000
0  15.460518 21.707001 45.052437  -0.717470 -0.359350 0.596744  0.031250 0.125000 1 0 1.000000
driver
0  20.218033 28.940361 40.960709  0.653552 0.742600 -0.146337  0.193359 0.328125 1 0 1.000000
0  21.608717 24.988375 40.941322  0.998964 -0.003049 -0.045411  0.179688 0.246094 1 0 1.000000
0  20.348076 26.263264 37.019726  0.918150 0.345098 -0.194698  0.343750 0.294922 1 0 1.000000
driver
0  20.218033 28.940361 40.960709  0.653552 0.742600 -0.146337  0.193359 0.328125 1 0 1.000000
0  21.413973 26.952875 42.519093  0.932394 0.342115 0.116616  0.144531 0.287109 1 0 1.000000
0  21.608717 24.988375 40.941322  0.998964 -0.003049 -0.045411  0.179688 0.246094 1 0 1.000000
driver
0  17.796263 28.251440 36.944492  0.000073 0.967153 -0.254194  0.359375 0.359375 1 0 1.000000
0  15.252837 26.112434 34.181309  -0.739342 0.406698 0.536628  0.453125 0.285156 1 0 1.000000
0  15.244449 26.263271 37.019722  -0.918151 0.345099 -0.194692  0.343750 0.294922 1 0 1.000000
driver
0  15.244449 26.263271 37.019722  -0.918151 0.345099 -0.194692  0.343750 0.294922 1 0 1.000000
0  15.374493 28.940353 40.960701  -0.653345 0.742786 -0.146320  0.193359 0.328125 1 0 1.000000
0  17.796263 28.251440 36.944492  0.000073 0.967153 -0.254194  0.359375 0.359375 1 0 1.000000
driver
0  15.244449 26.263271 37.019722  -0.918151 0.345099 -0.194692  0.343750 0.294922 1 0 1.000000
0  13.983808 24.988373 40.941315  -0.998964 -0.003046 -0.045410  0.179688 0.246094 1 0 1.000000
0  15.374493 28.940353 40.960701  -0.653345 0.742786 -0.146320  0.193359 0.328125 1 0 1.000000
driver
0  13.983808 24.988373 40.941315  -0.998964 -0.003046 -0.045410  0.179688 0.246094 1 0 1.000000
0  14.178552 26.952875 42.519089  -0.932394 0.342115 0.116617  0.144531 0.287109 1 0 1.000000
0  15.374493 28.940353 40.960701  -0.653345 0.742786 -0.146320  0.193359 0.328125 1 0 1.000000
driver
0  14.461081 25.544222 44.310108  -0.779794 0.113136 0.615728  0.066406 0.263672 1 0 1.000000
0  14.178552 26.952875 42.519089  -0.932394 0.342115 0.116617  0.144531 0.287109 1 0 1.000000
0  13.983808 24.988373 40.941315  -0.998964 -0.003046 -0.045410  0.179688 0.246094 1 0 1.000000
driver
0  15.692427 28.657763 43.823441  -0.596560 0.643744 0.479280  0.097656 0.332031 1 0 1.000000
0  14.178552 26.952875 42.519089  -0.932394 0.342115 0.116617  0.144531 0.287109 1 0 1.000000
0  14.461081 25.544222 44.310108  -0.779794 0.113136 0.615728  0.066406 0.263672 1 0 1.000000
driver
0  15.692427 28.657763 43.823441  -0.596560 0.643744 0.479280  0.097656 0.332031 1 0 1.000000
0  15.374493 28.940353 40.960701  -0.653345 0.742786 -0.146320  0.193359 0.328125 1 0 1.000000
0  14.178552 26.952875 42.519089  -0.932394 0.342115 0.116617  0.144531 0.287109 1 0 1.000000
driver
0  17.798622 29.490383 43.660774  0.000282 0.944923 0.327291  0.111328 0.357422 1 0 1.000000
0  15.374493 28.940353 40.960701  -0.653345 0.742786 -0.146320  0.193359 0.328125 1 0 1.000000
0  15.692427 28.657763 43.823441  -0.596560 0.643744 0.479280  0.097656 0.332031 1 0 1.000000
driver
0  17.798622 29.490383 43.660774  0.000282 0.944923 0.327291  0.111328 0.357422 1 0 1.000000
0  17.798622 29.698786 40.730392  0.000334 0.989302 -0.145881  0.210938 0.357422 1 0 1.000000
0  15.374493 28.940353 40.960701  -0.653345 0.742786 -0.146320  0.193359 0.328125 1 0 1.000000
driver
0  20.218033 28.940361 40.960709  0.653552 0.742600 -0.146337  0.193359 0.328125 1 0 1.000000
0  17.798622 29.698786 40.730392  0.000334 0.989302 -0.145881  0.210938 0.357422 1 0 1.000000
0  17.798622 29.490383 43.660774  0.000282 0.944923 0.327291  0.111328 0.357422 1 0 1.000000
driver
0  17.796263 28.251440 36.944492  0.000073 0.967153 -0.254194  0.359375 0.359375 1 0 1.000000
0  17.798622 29.698786 40.730392  0.000334 0.989302 -0.145881  0.210938 0.357422 1 0 1.000000
0  20.218033 28.940361 40.960709  0.653552 0.742600 -0.146337  0.193359 0.328125 1 0 1.000000
driver
0  17.796263 28.251440 36.944492  0.000073 0.967153 -0.254194  0.359375 0.359375 1 0 1.000000
0  20.218033 28.940361 40.960709  0.653552 0.742600 -0.146337  0.193359 0.328125 1 0 1.000000
0  20.348076 26.263264 37.019726  0.918150 0.345098 -0.194698  0.343750 0.294922 1 0 1.000000
driver
0  20.348076 26.263264 37.019726  0.918150 0.345098 -0.194698  0.343750 0.294922 1 0 1.000000
0  20.339685 26.112427 34.181316  0.739362 0.406653 0.536635  0.453125 0.285156 1 0 1.000000
0  17.796263 28.251440 36.944492  0.000073 0.967153 -0.254194  0.359375 0.359375 1 0 1.000000
driver
0  20.348076 26.263264 37.019726  0.918150 0.345098 -0.194698  0.343750 0.294922 1 0 1.000000
0  20.485493 23.875734 35.883934  0.941501 -0.235972 -0.240610  0.376953 0.191406 1 0 1.000000
0  20.339685 26.112427 34.181316  0.739362 0.406653 0.536635  0.453125 0.285156 1 0 1.000000
driver
0  20.228518 23.272619 34.324326  0.361425 -0.525970 0.769888  0.453125 0.177734 1 0 1.000000
0  20.339685 26.112427 34.181316  0.739362 0.406653 0.536635  0.453125 0.285156 1 0 1.000000
0  20.485493 23.875734 35.883934  0.941501 -0.235972 -0.240610  0.376953 0.191406 1 0 1.000000
driver
0  17.796263 22.509907 34.974606  -0.000030 -0.802431 -0.596744  0.435547 0.009766 1 0 1.000000
0  20.228518 23.272619 34.324326  0.361425 -0.525970 0.769888  0.453125 0.177734 1 0 1.000000
0  20.485493 23.875734 35.883934  0.941501 -0.235972 -0.240610  0.376953 0.191406 1 0 1.000000
driver
0  17.796263 22.509907 34.974606  -0.000030 -0.802431 -0.596744  0.435547 0.009766 1 0 1.000000
0  17.796263 22.334644 33.690208  0.000037 -0.805107 0.593129  0.453125 0.009766 1 0 1.000000
0  20.228518 23.272619 34.324326  0.361425 -0.525970 0.769888  0.453125 0.177734 1 0 1.000000
driver
0  15.364006 23.272617 34.324322  -0.361426 -0.525970 0.769888  0.453125 0.177734 1 0 1.000000
0  17.796263 22.334644 33.690208  0.000037 -0.805107 0.593129  0.453125 0.009766 1 0 1.000000
0  17.796263 22.509907 34.974606  -0.000030 -0.802431 -0.596744  0.435547 0.009766 1 0 1.000000
driver
0  15.374493 28.940353 40.960701  -0.653345 0.742786 -0.146320  0.193359 0.328125 1 0 1.000000
0  17.798622 29.698786 40.730392  0.000334 0.989302 -0.145881  0.210938 0.357422 1 0 1.000000
0  17.796263 28.251440 36.944492  0.000073 0.967153 -0.254194  0.359375 0.359375 1 0 1.000000
driver
0  20.132006 21.707001 45.052444  0.717471 -0.359351 0.596742  0.031250 0.125000 1 0 1.000000
0  21.608717 24.988375 40.941322  0.998964 -0.003049 -0.045411  0.179688 0.246094 1 0 1.000000
0  21.131443 25.544224 44.310112  0.779794 0.113135 0.615729  0.066406 0.263672 1 0 1.000000
driver
0  21.608717 24.988375 40.941322  0.998964 -0.003049 -0.045411  0.179688 0.246094 1 0 1.000000
0  21.413973 26.952875 42.519093  0.932394 0.342115 0.116616  0.144531 0.287109 1 0 1.000000
0  21.131443 25.544224 44.310112  0.779794 0.113135 0.615729  0.066406 0.263672 1 0 1.000000
driver
0  21.131443 25.544224 44.310112  0.779794 0.113135 0.615729  0.066406 0.263672 1 0 1.000000
0  21.413973 26.952875 42.519093  0.932394 0.342115 0.116616  0.144531 0.287109 1 0 1.000000
0  19.900099 28.657763 43.823448  0.596728 0.643580 0.479291  0.097656 0.332031 1 0 1.000000
driver
0  21.413973 26.952875 42.519093  0.932394 0.342115 0.116616  0.144531 0.287109 1 0 1.000000
0  20.218033 28.940361 40.960709  0.653552 0.742600 -0.146337  0.193359 0.328125 1 0 1.000000
0  19.900099 28.657763 43.823448  0.596728 0.643580 0.479291  0.097656 0.332031 1 0 1.000000
driver
0  19.900099 28.657763 43.823448  0.596728 0.643580 0.479291  0.097656 0.332031 1 0 1.000000
0  20.218033 28.940361 40.960709  0.653552 0.742600 -0.146337  0.193359 0.328125 1 0 1.000000
0  17.798622 29.490383 43.660774  0.000282 0.944923 0.327291  0.111328 0.357422 1 0 1.000000
driver
0  17.796263 27.296459 45.848831  0.000064 0.418054 0.908422  0.009766 0.357422 1 0 1.000000
0  19.900099 28.657763 43.823448  0.596728 0.643580 0.479291  0.097656 0.332031 1 0 1.000000
0  17.798622 29.490383 43.660774  0.000282 0.944923 0.327291  0.111328 0.357422 1 0 1.000000
driver
0  17.798622 29.490383 43.660774  0.000282 0.944923 0.327291  0.111328 0.357422 1 0 1.000000
0  15.692427 28.657763 43.823441  -0.596560 0.643744 0.479280  0.097656 0.332031 1 0 1.000000
0  17.796263 27.296459 45.848831  0.000064 0.418054 0.908422  0.009766 0.357422 1 0 1.000000
driver
0  17.796263 27.296459 45.848831  0.000064 0.418054 0.908422  0.009766 0.357422 1 0 1.000000
0  15.692427 28.657763 43.823441  -0.596560 0.643744 0.479280  0.097656 0.332031 1 0 1.000000
0  14.461081 25.544222 44.310108  -0.779794 0.113136 0.615728  0.007812 0.320312 1 0 1.000000
driver
0  21.131443 25.544224 44.310112  0.779794 0.113135 0.615729  0.007812 0.320312 1 0 1.000000
0  19.900099 28.657763 43.823448  0.596728 0.643580 0.479291  0.097656 0.332031 1 0 1.000000
0  17.796263 27.296459 45.848831  0.000064 0.418054 0.908422  0.009766 0.357422 1 0 1.000000
driver
0  14.461081 25.544222 44.310108  -0.779794 0.113136 0.615728  0.007812 0.320312 1 0 1.000000
0  17.796263 23.864876 46.099209  -0.000000 -0.040685 0.999172  0.066406 0.263672 1 0 1.000000
0  17.796263 27.296459 45.848831  0.000064 0.418054 0.908422  0.097656 0.332031 1 0 1.000000
driver
0  17.796263 27.296459 45.848831  0.000064 0.418054 0.908422  0.097656 0.332031 1 0 1.000000
0  17.796263 23.864876 46.099209  -0.000000 -0.040685 0.999172  0.066406 0.263672 1 0 1.000000
0  21.131443 25.544224 44.310112  0.779794 0.113135 0.615729  0.007812 0.320312 1 0 1.000000
driver
0  17.796263 23.864876 46.099209  -0.000000 -0.040685 0.999172  0.031250 0.125000 1 0 1.000000
0  20.132006 21.707001 45.052444  0.717471 -0.359351 0.596742  0.007812 0.009766 1 0 1.000000
0  21.131443 25.544224 44.310112  0.779794 0.113135 0.615729  0.007812 0.320312 1 0 1.000000
driver
0  14.461081 25.544222 44.310108  -0.779794 0.113136 0.615728  0.007812 0.320312 1 0 1.000000
0  15.460518 21.707001 45.052437  -0.717470 -0.359350 0.596744  0.007812 0.009766 1 0 1.000000
0  17.796263 23.864876 46.099209  -0.000000 -0.040685 0.999172  0.031250 0.125000 1 0 1.000000
driver
0  17.796263 28.251440 36.944492  0.000073 0.967153 -0.254194  0.361328 0.359375 1 0 1.000000
0  17.796263 28.316145 33.795849  0.000011 0.890492 0.454998  0.453125 0.357422 1 0 1.000000
0  15.252837 26.112434 34.181309  -0.739342 0.406698 0.536628  0.453125 0.285156 1 0 1.000000
driver
0  20.339685 26.112427 34.181316  0.739362 0.406653 0.536635  0.453125 0.285156 1 0 1.000000
0  17.796263 28.316145 33.795849  0.000011 0.890492 0.454998  0.453125 0.357422 1 0 1.000000
0  17.796263 28.251440 36.944492  0.000073 0.967153 -0.254194  0.361328 0.359375 1 0 1.000000
driver
0  11.341278 14.385629 16.028677  -0.734426 -0.401304 0.547333  0.066406 0.867188 1 0 1.000000
0  8.736038 17.286175 11.739645  -0.997971 -0.063234 0.007403  0.072266 0.904297 1 0 1.000000
0  10.116647 2.759764 14.060555  -0.912621 -0.117314 0.391613  0.136719 0.906250 1 0 1.000000
driver
0  10.116647 2.759764 14.060555  -0.912621 -0.117314 0.391613  0.136719 0.906250 1 0 1.000000
0  13.468827 2.701148 16.705246  -0.066681 -0.146734 0.986926  0.150391 0.820312 1 0 1.000000
0  11.341278 14.385629 16.028677  -0.734426 -0.401304 0.547333  0.066406 0.867188 1 0 1.000000
driver
0  13.468827 2.701148 16.705246  -0.066681 -0.146734 0.986926  0.150391 0.820312 1 0 1.000000
0  17.796263 13.272055 17.110556  0.000002 -0.653563 0.756872  0.046875 0.820312 1 0 1.000000
0  11.341278 14.385629 16.028677  -0.734426 -0.401304 0.547333  0.066406 0.867188 1 0 1.000000
driver
0  22.123693 2.701148 16.705246  0.066678 -0.146731 0.986927  0.150391 0.820312 1 0 1.000000
0  17.796261 2.169272 13.514986  0.000000 -0.269980 0.962866  0.101562 0.703125 1 0 1.000000
0  22.408115 -0.801166 15.987103  0.087001 -0.302551 0.949154  0.246094 0.822266 1 0 1.000000
driver
0  17.796329 -18.537640 8.233877  -0.000003 -0.348749 0.937216  0.460938 0.822266 1 0 1.000000
0  22.408115 -0.801166 15.987103  0.087001 -0.302551 0.949154  0.246094 0.822266 1 0 1.000000
0  17.796261 2.169272 13.514986  0.000000 -0.269980 0.962866  0.101562 0.703125 1 0 1.000000
driver
0  22.537849 -17.704288 7.903500  0.711605 -0.340160 0.614744  0.460938 0.904297 1 0 1.000000
0  22.408115 -0.801166 15.987103  0.087001 -0.302551 0.949154  0.246094 0.822266 1 0 1.000000
0  17.796329 -18.537640 8.233877  -0.000003 -0.348749 0.937216  0.460938 0.822266 1 0 1.000000
driver
0  22.408115 -0.801166 15.987103  0.087001 -0.302551 0.949154  0.246094 0.822266 1 0 1.000000
0  22.537849 -17.704288 7.903500  0.711605 -0.340160 0.614744  0.460938 0.904297 1 0 1.000000
0  25.475874 2.759766 14.060553  0.912606 -0.117281 0.391657  0.136719 0.906250 1 0 1.000000
driver
0  25.475874 2.759766 14.060553  0.912606 -0.117281 0.391657  0.136719 0.906250 1 0 1.000000
0  22.123693 2.701148 16.705246  0.066678 -0.146731 0.986927  0.150391 0.820312 1 0 1.000000
0  22.408115 -0.801166 15.987103  0.087001 -0.302551 0.949154  0.246094 0.822266 1 0 1.000000
driver
0  24.251245 14.385629 16.028675  0.734426 -0.401307 0.547331  0.066406 0.867188 1 0 1.000000
0  22.123693 2.701148 16.705246  0.066678 -0.146731 0.986927  0.150391 0.820312 1 0 1.000000
0  25.475874 2.759766 14.060553  0.912606 -0.117281 0.391657  0.136719 0.906250 1 0 1.000000
driver
0  24.251245 14.385629 16.028675  0.734426 -0.401307 0.547331  0.066406 0.867188 1 0 1.000000
0  17.796263 13.272055 17.110556  0.000002 -0.653563 0.756872  0.046875 0.820312 1 0 1.000000
0  22.123693 2.701148 16.705246  0.066678 -0.146731 0.986927  0.150391 0.820312 1 0 1.000000
driver
0  22.123693 2.701148 16.705246  0.066678 -0.146731 0.986927  0.150391 0.820312 1 0 1.000000
0  17.796263 13.272055 17.110556  0.000002 -0.653563 0.756872  0.046875 0.820312 1 0 1.000000
0  17.796261 2.169272 13.514986  0.000000 -0.269980 0.962866  0.101562 0.703125 1 0 1.000000
driver
0  17.796261 2.169272 13.514986  0.000000 -0.269980 0.962866  0.101562 0.703125 1 0 1.000000
0  17.796263 13.272055 17.110556  0.000002 -0.653563 0.756872  0.046875 0.820312 1 0 1.000000
0  13.468827 2.701148 16.705246  -0.066681 -0.146734 0.986926  0.150391 0.820312 1 0 1.000000
driver
0  13.184406 -0.801166 15.987103  -0.087003 -0.302553 0.949153  0.246094 0.822266 1 0 1.000000
0  17.796261 2.169272 13.514986  0.000000 -0.269980 0.962866  0.101562 0.703125 1 0 1.000000
0  13.468827 2.701148 16.705246  -0.066681 -0.146734 0.986926  0.150391 0.820312 1 0 1.000000
driver
0  13.184406 -0.801166 15.987103  -0.087003 -0.302553 0.949153  0.246094 0.822266 1 0 1.000000
0  13.468827 2.701148 16.705246  -0.066681 -0.146734 0.986926  0.150391 0.820312 1 0 1.000000
0  10.116647 2.759764 14.060555  -0.912621 -0.117314 0.391613  0.136719 0.906250 1 0 1.000000
driver
0  10.116647 2.759764 14.060555  -0.912621 -0.117314 0.391613  0.136719 0.906250 1 0 1.000000
0  13.054737 -17.704288 7.903500  -0.711593 -0.340148 0.614764  0.460938 0.904297 1 0 1.000000
0  13.184406 -0.801166 15.987103  -0.087003 -0.302553 0.949153  0.246094 0.822266 1 0 1.000000
driver
0  17.796329 -18.537640 8.233877  -0.000003 -0.348749 0.937216  0.460938 0.822266 1 0 1.000000
0  13.184406 -0.801166 15.987103  -0.087003 -0.302553 0.949153  0.246094 0.822266 1 0 1.000000
0  13.054737 -17.704288 7.903500  -0.711593 -0.340148 0.614764  0.460938 0.904297 1 0 1.000000
driver
0  17.796261 2.169272 13.514986  0.000000 -0.269980 0.962866  0.101562 0.703125 1 0 1.000000
0  13.184406 -0.801166 15.987103  -0.087003 -0.302553 0.949153  0.246094 0.822266 1 0 1.000000
0  17.796329 -18.537640 8.233877  -0.000003 -0.348749 0.937216  0.460938 0.822266 1 0 1.000000
driver
0  25.475874 2.759766 14.060553  0.912606 -0.117281 0.391657  0.136719 0.906250 1 0 1.000000
0  26.856482 17.286177 11.739643  0.997972 -0.063217 0.007406  0.072266 0.904297 1 0 1.000000
0  24.251245 14.385629 16.028675  0.734426 -0.401307 0.547331  0.066406 0.867188 1 0 1.000000
driver
0  9.599749 14.398604 23.308937  0.583184 -0.225147 -0.780516  0.539062 0.046875 1 0 1.000000
0  9.147214 20.195065 23.549442  -0.826589 -0.010384 -0.562710  0.761719 0.046875 1 0 1.000000
0  12.802297 17.407074 26.793064  0.232382 -0.956612 0.175763  0.761719 0.046875 1 0 1.000000
driver
0  9.147214 20.195065 23.549442  -0.826589 -0.010384 -0.562710  0.761719 0.046875 1 0 1.000000
0  11.341278 14.385629 16.028677  -0.734426 -0.401304 0.547333  0.589844 0.169922 1 0 1.000000
0  12.802297 17.407074 26.793064  0.232382 -0.956612 0.175763  0.761719 0.046875 1 0 1.000000
driver
0  12.802297 17.407074 26.793064  0.232382 -0.956612 0.175763  0.761719 0.046875 1 0 1.000000
0  11.341278 14.385629 16.028677  -0.734426 -0.401304 0.547333  0.589844 0.169922 1 0 1.000000
0  17.796263 13.272055 17.110556  0.000002 -0.653563 0.756872  0.589844 0.378906 1 0 1.000000
driver
0  11.341278 14.385629 16.028677  -0.734426 -0.401304 0.547333  0.589844 0.169922 1 0 1.000000
0  9.147214 20.195065 23.549442  -0.826589 -0.010384 -0.562710  0.761719 0.046875 1 0 1.000000
0  8.672244 19.466341 13.927584  -0.999124 0.038955 -0.015262  0.589844 0.048828 1 0 1.000000
driver
0  9.872767 24.956558 33.245468  -0.417708 0.077150 0.905300  0.996094 0.064453 1 0 1.000000
0  15.364006 23.272617 34.324322  -0.361426 -0.525970 0.769888  0.919922 0.330078 1 0 1.000000
0  15.252837 26.112434 34.181309  -0.739342 0.406698 0.536628  0.955078 0.269531 1 0 1.000000
driver
0  15.364006 23.272617 34.324322  -0.361426 -0.525970 0.769888  0.919922 0.330078 1 0 1.000000
0  9.872767 24.956558 33.245468  -0.417708 0.077150 0.905300  0.996094 0.064453 1 0 1.000000
0  11.277555 20.076483 33.320358  0.149502 -0.535806 0.831000  0.943359 0.060547 1 0 1.000000
driver
0  11.277555 20.076483 33.320358  0.149502 -0.535806 0.831000  0.943359 0.060547 1 0 1.000000
0  17.796263 18.924103 31.974392  -0.000002 -0.737374 0.675485  0.863281 0.378906 1 0 1.000000
0  15.364006 23.272617 34.324322  -0.361426 -0.525970 0.769888  0.919922 0.330078 1 0 1.000000
driver
0  12.802297 17.407074 26.793064  0.232382 -0.956612 0.175763  0.761719 0.046875 1 0 1.000000
0  17.796263 18.924103 31.974392  -0.000002 -0.737374 0.675485  0.863281 0.378906 1 0 1.000000
0  11.277555 20.076483 33.320358  0.149502 -0.535806 0.831000  0.943359 0.060547 1 0 1.000000
driver
0  17.796263 13.272055 17.110556  0.000002 -0.653563 0.756872  0.589844 0.378906 1 0 1.000000
0  17.796263 18.924103 31.974392  -0.000002 -0.737374 0.675485  0.863281 0.378906 1 0 1.000000
0  12.802297 17.407074 26.793064  0.232382 -0.956612 0.175763  0.761719 0.046875 1 0 1.000000
driver
0  22.790226 17.407074 26.793072  -0.232377 -0.956613 0.175762  0.761719 0.046875 1 0 1.000000
0  17.796263 18.924103 31.974392  -0.000002 -0.737374 0.675485  0.863281 0.378906 1 0 1.000000
0  17.796263 13.272055 17.110556  0.000002 -0.653563 0.756872  0.589844 0.378906 1 0 1.000000
driver
0  17.796263 13.272055 17.110556  0.000002 -0.653563 0.756872  0.589844 0.378906 1 0 1.000000
0  24.251245 14.385629 16.028675  0.734426 -0.401307 0.547331  0.589844 0.169922 1 0 1.000000
0  22.790226 17.407074 26.793072  -0.232377 -0.956613 0.175762  0.761719 0.046875 1 0 1.000000
driver
0  22.790226 17.407074 26.793072  -0.232377 -0.956613 0.175762  0.761719 0.046875 1 0 1.000000
0  24.251245 14.385629 16.028675  0.734426 -0.401307 0.547331  0.589844 0.169922 1 0 1.000000
0  26.445374 20.195066 23.549446  0.826583 -0.010415 -0.562718  0.761719 0.046875 1 0 1.000000
driver
0  26.920343 19.466341 13.927582  0.999124 0.038958 -0.015274  0.589844 0.048828 1 0 1.000000
0  26.445374 20.195066 23.549446  0.826583 -0.010415 -0.562718  0.761719 0.046875 1 0 1.000000
0  24.251245 14.385629 16.028675  0.734426 -0.401307 0.547331  0.589844 0.169922 1 0 1.000000
driver
0  22.790226 17.407074 26.793072  -0.232377 -0.956613 0.175762  0.761719 0.046875 1 0 1.000000
0  26.445374 20.195066 23.549446  0.826583 -0.010415 -0.562718  0.761719 0.046875 1 0 1.000000
0  25.992842 14.398604 23.308926  -0.583175 -0.225161 -0.780519  0.539062 0.046875 1 0 1.000000
driver
0  24.314970 20.076485 33.320366  -0.149486 -0.535832 0.830986  0.943359 0.060547 1 0 1.000000
0  17.796263 18.924103 31.974392  -0.000002 -0.737374 0.675485  0.863281 0.378906 1 0 1.000000
0  22.790226 17.407074 26.793072  -0.232377 -0.956613 0.175762  0.761719 0.046875 1 0 1.000000
driver
0  20.228518 23.272619 34.324326  0.361425 -0.525970 0.769888  0.919922 0.330078 1 0 1.000000
0  17.796263 18.924103 31.974392  -0.000002 -0.737374 0.675485  0.863281 0.378906 1 0 1.000000
0  24.314970 20.076485 33.320366  -0.149486 -0.535832 0.830986  0.943359 0.060547 1 0 1.000000
driver
0  17.796263 18.924103 31.974392  -0.000002 -0.737374 0.675485  0.863281 0.378906 1 0 1.000000
0  20.228518 23.272619 34.324326  0.361425 -0.525970 0.769888  0.919922 0.330078 1 0 1.000000
0  17.796263 22.334644 33.690208  0.000037 -0.805107 0.593129  0.916016 0.378906 1 0 1.000000
driver
0  17.796263 22.334644 33.690208  0.000037 -0.805107 0.593129  0.916016 0.378906 1 0 1.000000
0  15.364006 23.272617 34.324322  -0.361426 -0.525970 0.769888  0.919922 0.330078 1 0 1.000000
0  17.796263 18.924103 31.974392  -0.000002 -0.737374 0.675485  0.863281 0.378906 1 0 1.000000
driver
0  24.314970 20.076485 33.320366  -0.149486 -0.535832 0.830986  0.943359 0.060547 1 0 1.000000
0  25.719755 24.956560 33.245476  0.417708 0.077150 0.905300  0.996094 0.064453 1 0 1.000000
0  20.228518 23.272619 34.324326  0.361425 -0.525970 0.769888  0.919922 0.330078 1 0 1.000000
driver
0  20.339685 26.112427 34.181316  0.739362 0.406653 0.536635  0.955078 0.269531 1 0 1.000000
0  20.228518 23.272619 34.324326  0.361425 -0.525970 0.769888  0.919922 0.330078 1 0 1.000000
0  25.719755 24.956560 33.245476  0.417708 0.077150 0.905300  0.996094 0.064453 1 0 1.000000
driver
0  24.609919 2.276885 8.713634  0.969310 -0.055344 -0.239530  0.531250 0.921875 1 0 1.000000
0  24.209425 21.379501 5.181006  0.942919 0.154581 -0.294972  0.484375 0.919922 1 0 1.000000
0  26.856482 17.286177 11.739643  0.997972 -0.063217 0.007406  0.496094 0.984375 1 0 1.000000
driver
0  26.856482 17.286177 11.739643  0.997972 -0.063217 0.007406  0.496094 0.984375 1 0 1.000000
0  25.475874 2.759766 14.060553  0.912606 -0.117281 0.391657  0.496094 0.984375 1 0 1.000000
0  24.609919 2.276885 8.713634  0.969310 -0.055344 -0.239530  0.531250 0.921875 1 0 1.000000
driver
0  25.475874 2.759766 14.060553  0.912606 -0.117281 0.391657  0.496094 0.984375 1 0 1.000000
0  23.465956 -15.694579 0.810746  0.996002 -0.080122 -0.039499  0.984375 0.921875 1 0 1.000000
0  24.609919 2.276885 8.713634  0.969310 -0.055344 -0.239530  0.531250 0.921875 1 0 1.000000
driver
0  25.475874 2.759766 14.060553  0.912606 -0.117281 0.391657  0.496094 0.984375 1 0 1.000000
0  22.537849 -17.704288 7.903500  0.711605 -0.340160 0.614744  0.984375 0.984375 1 0 1.000000
0  23.465956 -15.694579 0.810746  0.996002 -0.080122 -0.039499  0.984375 0.921875 1 0 1.000000
driver
0  30.023302 13.730219 24.457096  0.472723 -0.169114 -0.864831  0.703125 0.406250 1 0 1.000000
0  31.245605 13.207363 26.882545  0.947405 -0.304254 -0.099262  0.712891 0.501953 1 0 1.000000
0  25.235340 2.329939 28.274090  0.108350 -0.432021 -0.895331  0.492188 0.406250 1 0 1.000000
driver
0  30.023302 13.730219 24.457096  0.472723 -0.169114 -0.864831  0.703125 0.406250 1 0 1.000000
0  29.670637 15.241227 24.711403  0.666484 0.174163 -0.724890  0.738281 0.406250 1 0 1.000000
0  31.245605 13.207363 26.882545  0.947405 -0.304254 -0.099262  0.712891 0.501953 1 0 1.000000
driver
0  31.443708 15.117973 27.192478  0.992968 0.070634 0.094999  0.738281 0.501953 1 0 1.000000
0  31.245605 13.207363 26.882545  0.947405 -0.304254 -0.099262  0.712891 0.501953 1 0 1.000000
0  29.670637 15.241227 24.711403  0.666484 0.174163 -0.724890  0.738281 0.406250 1 0 1.000000
driver
0  31.443708 15.117973 27.192478  0.992968 0.070634 0.094999  0.738281 0.501953 1 0 1.000000
0  28.490568 13.593489 30.598637  0.457279 -0.069290 0.886620  0.744141 0.576172 1 0 1.000000
0  31.245605 13.207363 26.882545  0.947405 -0.304254 -0.099262  0.712891 0.501953 1 0 1.000000
driver
0  26.887913 3.014981 29.221794  0.981355 -0.124740 0.146226  0.492188 0.501953 1 0 1.000000
0  31.245605 13.207363 26.882545  0.947405 -0.304254 -0.099262  0.712891 0.501953 1 0 1.000000
0  28.490568 13.593489 30.598637  0.457279 -0.069290 0.886620  0.744141 0.576172 1 0 1.000000
driver
0  28.490568 13.593489 30.598637  0.457279 -0.069290 0.886620  0.744141 0.576172 1 0 1.000000
0  24.966984 4.009642 31.192780  -0.083628 0.432854 0.897577  0.492188 0.576172 1 0 1.000000
0  26.887913 3.014981 29.221794  0.981355 -0.124740 0.146226  0.492188 0.501953 1 0 1.000000
driver
0  26.887913 3.014981 29.221794  0.981355 -0.124740 0.146226  0.492188 0.501953 1 0 1.000000
0  25.235340 2.329939 28.274090  0.108350 -0.432021 -0.895331  0.492188 0.406250 1 0 1.000000
0  31.245605 13.207363 26.882545  0.947405 -0.304254 -0.099262  0.712891 0.501953 1 0 1.000000
driver
0  29.670637 15.241227 24.711403  0.666484 0.174163 -0.724890  0.738281 0.738281 1 0 1.000000
0  30.023302 13.730219 24.457096  0.472723 -0.169114 -0.864831  0.708984 0.738281 1 0 1.000000
0  27.086037 15.233787 24.461262  -0.431060 -0.014238 -0.902211  0.738281 0.687500 1 0 1.000000
driver
0  30.023302 13.730219 24.457096  0.472723 -0.169114 -0.864831  0.708984 0.738281 1 0 1.000000
0  25.235340 2.329939 28.274090  0.108350 -0.432021 -0.895331  0.490234 0.738281 1 0 1.000000
0  27.086037 15.233787 24.461262  -0.431060 -0.014238 -0.902211  0.738281 0.687500 1 0 1.000000
driver
0  25.235340 2.329939 28.274090  0.108350 -0.432021 -0.895331  0.490234 0.738281 1 0 1.000000
0  23.483793 3.347218 30.124516  -0.847910 0.334883 0.410977  0.492188 0.628906 1 0 1.000000
0  27.086037 15.233787 24.461262  -0.431060 -0.014238 -0.902211  0.738281 0.687500 1 0 1.000000
driver
0  23.483793 3.347218 30.124516  -0.847910 0.334883 0.410977  0.492188 0.628906 1 0 1.000000
0  26.010572 13.486153 27.843193  -0.935773 -0.023361 0.351828  0.742188 0.632812 1 0 1.000000
0  27.086037 15.233787 24.461262  -0.431060 -0.014238 -0.902211  0.738281 0.687500 1 0 1.000000
driver
0  23.483793 3.347218 30.124516  -0.847910 0.334883 0.410977  0.492188 0.628906 1 0 1.000000
0  24.966984 4.009642 31.192780  -0.083628 0.432854 0.897577  0.492188 0.576172 1 0 1.000000
0  26.010572 13.486153 27.843193  -0.935773 -0.023361 0.351828  0.742188 0.632812 1 0 1.000000
driver
0  28.490568 13.593489 30.598637  0.457279 -0.069290 0.886620  0.744141 0.576172 1 0 1.000000
0  26.010572 13.486153 27.843193  -0.935773 -0.023361 0.351828  0.742188 0.632812 1 0 1.000000
0  24.966984 4.009642 31.192780  -0.083628 0.432854 0.897577  0.492188 0.576172 1 0 1.000000
driver
0  26.010572 13.486153 27.843193  -0.935773 -0.023361 0.351828  0.742188 0.632812 1 0 1.000000
0  28.490568 13.593489 30.598637  0.457279 -0.069290 0.886620  0.744141 0.576172 1 0 1.000000
0  24.314970 20.076485 33.320366  -0.149486 -0.535832 0.830986  0.958984 0.628906 1 0 1.000000
driver
0  25.719755 24.956560 33.245476  0.417708 0.077150 0.905300  0.982422 0.576172 1 0 1.000000
0  24.314970 20.076485 33.320366  -0.149486 -0.535832 0.830986  0.958984 0.628906 1 0 1.000000
0  28.490568 13.593489 30.598637  0.457279 -0.069290 0.886620  0.744141 0.576172 1 0 1.000000
driver
0  24.314970 20.076485 33.320366  -0.149486 -0.535832 0.830986  0.958984 0.628906 1 0 1.000000
0  22.790226 17.407074 26.793072  -0.232377 -0.956613 0.175762  0.876953 0.748047 1 0 1.000000
0  26.010572 13.486153 27.843193  -0.935773 -0.023361 0.351828  0.742188 0.632812 1 0 1.000000
driver
0  25.992842 14.398604 23.308926  -0.583175 -0.225161 -0.780519  0.744141 0.687500 1 0 1.000000
0  26.010572 13.486153 27.843193  -0.935773 -0.023361 0.351828  0.742188 0.632812 1 0 1.000000
0  22.790226 17.407074 26.793072  -0.232377 -0.956613 0.175762  0.990234 0.671875 1 0 1.000000
driver
0  25.719755 24.956560 33.245476  0.417708 0.077150 0.905300  0.982422 0.576172 1 0 1.000000
0  28.490568 13.593489 30.598637  0.457279 -0.069290 0.886620  0.744141 0.576172 1 0 1.000000
0  27.839546 27.368843 30.400242  0.862947 0.446179 0.237163  0.988281 0.501953 1 0 1.000000
driver
0  31.443708 15.117973 27.192478  0.992968 0.070634 0.094999  0.744141 0.501953 1 0 1.000000
0  27.839546 27.368843 30.400242  0.862947 0.446179 0.237163  0.988281 0.501953 1 0 1.000000
0  28.490568 13.593489 30.598637  0.457279 -0.069290 0.886620  0.744141 0.576172 1 0 1.000000
driver
0  27.839546 27.368843 30.400242  0.862947 0.446179 0.237163  0.988281 0.501953 1 0 1.000000
0  31.443708 15.117973 27.192478  0.992968 0.070634 0.094999  0.744141 0.501953 1 0 1.000000
0  29.786066 15.335053 23.620678  0.621141 0.295155 -0.725993  0.744141 0.414062 1 0 1.000000
driver
0  29.786066 15.335053 23.620678  0.621141 0.295155 -0.725993  0.744141 0.414062 1 0 1.000000
0  25.517450 27.452835 25.734936  0.649933 0.659916 -0.376959  0.960938 0.414062 1 0 1.000000
0  27.839546 27.368843 30.400242  0.862947 0.446179 0.237163  0.988281 0.501953 1 0 1.000000
driver
0  25.992842 14.398604 23.308926  -0.583175 -0.225161 -0.780519  0.744141 0.687500 1 0 1.000000
0  26.445374 20.195066 23.549446  0.826583 -0.010415 -0.562718  0.984375 0.691406 1 0 1.000000
0  29.786066 15.335053 23.620678  0.621141 0.295155 -0.725993  0.744141 0.738281 1 0 1.000000
driver
0  25.517450 27.452835 25.734936  0.649933 0.659916 -0.376959  0.960938 0.738281 1 0 1.000000
0  29.786066 15.335053 23.620678  0.621141 0.295155 -0.725993  0.744141 0.738281 1 0 1.000000
0  26.445374 20.195066 23.549446  0.826583 -0.010415 -0.562718  0.984375 0.691406 1 0 1.000000
driver
0  9.200200 -2.929740 31.513199  -0.709505 -0.702568 0.054789  0.439453 0.996094 1 0 1.000000
0  8.718694 -1.727178 31.315678  -0.724875 -0.351600 -0.592397  0.382812 0.998047 1 0 1.000000
0  9.457208 -2.515974 30.888580  -0.734755 -0.385834 -0.557913  0.445312 0.998047 1 0 1.000000
driver
0  8.718694 -1.727178 31.315678  -0.724875 -0.351600 -0.592397  0.382812 0.998047 1 0 1.000000
0  9.200200 -2.929740 31.513199  -0.709505 -0.702568 0.054789  0.439453 0.996094 1 0 1.000000
0  8.266547 -1.939920 31.966293  -0.857157 -0.505524 0.098631  0.392578 0.998047 1 0 1.000000
driver
0  8.266547 -1.939920 31.966293  -0.857157 -0.505524 0.098631  0.392578 0.998047 1 0 1.000000
0  8.528074 -0.791458 31.103874  -0.703143 -0.260409 -0.661647  0.337891 0.998047 1 0 1.000000
0  8.718694 -1.727178 31.315678  -0.724875 -0.351600 -0.592397  0.382812 0.998047 1 0 1.000000
driver
0  8.528074 -0.791458 31.103874  -0.703143 -0.260409 -0.661647  0.337891 0.998047 1 0 1.000000
0  8.266547 -1.939920 31.966293  -0.857157 -0.505524 0.098631  0.392578 0.998047 1 0 1.000000
0  7.631598 -0.503034 31.892319  -0.969686 -0.158429 -0.186036  0.337891 0.998047 1 0 1.000000
driver
0  7.631598 -0.503034 31.892319  -0.969686 -0.158429 -0.186036  0.337891 0.998047 1 0 1.000000
0  9.620250 2.237969 29.410751  -0.275131 -0.446749 -0.851304  0.222656 0.998047 1 0 1.000000
0  8.528074 -0.791458 31.103874  -0.703143 -0.260409 -0.661647  0.337891 0.998047 1 0 1.000000
driver
0  9.620250 2.237969 29.410751  -0.275131 -0.446749 -0.851304  0.222656 0.998047 1 0 1.000000
0  7.631598 -0.503034 31.892319  -0.969686 -0.158429 -0.186036  0.337891 0.998047 1 0 1.000000
0  8.127100 2.923275 30.593788  -0.962452 -0.026300 0.270174  0.222656 0.992188 1 0 1.000000
driver
0  10.446274 0.415288 34.120441  -0.041893 0.233689 0.971408  0.333984 0.917969 1 0 1.000000
0  8.127100 2.923275 30.593788  -0.962452 -0.026300 0.270174  0.222656 0.992188 1 0 1.000000
0  7.631598 -0.503034 31.892319  -0.969686 -0.158429 -0.186036  0.337891 0.998047 1 0 1.000000
driver
0  8.127100 2.923275 30.593788  -0.962452 -0.026300 0.270174  0.222656 0.992188 1 0 1.000000
0  10.446274 0.415288 34.120441  -0.041893 0.233689 0.971408  0.333984 0.917969 1 0 1.000000
0  10.319910 3.917672 32.257019  0.166294 0.412951 0.895443  0.220703 0.927734 1 0 1.000000
driver
0  10.446274 0.415288 34.120441  -0.041893 0.233689 0.971408  0.333984 0.917969 1 0 1.000000
0  11.627651 3.255248 30.979939  0.923500 0.238949 0.300084  0.220703 0.917969 1 0 1.000000
0  10.319910 3.917672 32.257019  0.166294 0.412951 0.895443  0.220703 0.927734 1 0 1.000000
driver
0  11.627651 3.255248 30.979939  0.923500 0.238949 0.300084  0.220703 0.917969 1 0 1.000000
0  10.446274 0.415288 34.120441  -0.041893 0.233689 0.971408  0.333984 0.917969 1 0 1.000000
0  11.518111 0.104762 32.995193  0.647827 0.334636 0.684353  0.335938 0.916016 1 0 1.000000
driver
0  11.131628 -1.432495 33.999676  0.147341 -0.190102 0.970645  0.400391 0.917969 1 0 1.000000
0  11.518111 0.104762 32.995193  0.647827 0.334636 0.684353  0.335938 0.916016 1 0 1.000000
0  10.446274 0.415288 34.120441  -0.041893 0.233689 0.971408  0.333984 0.917969 1 0 1.000000
driver
0  11.518111 0.104762 32.995193  0.647827 0.334636 0.684353  0.335938 0.916016 1 0 1.000000
0  11.131628 -1.432495 33.999676  0.147341 -0.190102 0.970645  0.400391 0.917969 1 0 1.000000
0  11.562678 -1.026145 33.545662  0.634539 0.217267 0.741724  0.382812 0.917969 1 0 1.000000
driver
0  12.086423 -2.583347 33.275745  0.462120 -0.188843 0.866478  0.441406 0.919922 1 0 1.000000
0  11.562678 -1.026145 33.545662  0.634539 0.217267 0.741724  0.382812 0.917969 1 0 1.000000
0  11.131628 -1.432495 33.999676  0.147341 -0.190102 0.970645  0.400391 0.917969 1 0 1.000000
driver
0  11.562678 -1.026145 33.545662  0.634539 0.217267 0.741724  0.382812 0.917969 1 0 1.000000
0  12.086423 -2.583347 33.275745  0.462120 -0.188843 0.866478  0.441406 0.919922 1 0 1.000000
0  12.255180 -2.299648 33.028656  0.739599 0.134439 0.659484  0.445312 0.917969 1 0 1.000000
driver
0  11.131628 -1.432495 33.999676  0.147341 -0.190102 0.970645  0.400391 0.917969 1 0 1.000000
0  9.200200 -2.929740 31.513199  -0.709505 -0.702568 0.054789  0.439453 0.996094 1 0 1.000000
0  12.086423 -2.583347 33.275745  0.462120 -0.188843 0.866478  0.441406 0.919922 1 0 1.000000
driver
0  9.200200 -2.929740 31.513199  -0.709505 -0.702568 0.054789  0.439453 0.996094 1 0 1.000000
0  11.131628 -1.432495 33.999676  0.147341 -0.190102 0.970645  0.400391 0.917969 1 0 1.000000
0  8.266547 -1.939920 31.966293  -0.857157 -0.505524 0.098631  0.392578 0.998047 1 0 1.000000
driver
0  10.446274 0.415288 34.120441  -0.041893 0.233689 0.971408  0.333984 0.917969 1 0 1.000000
0  8.266547 -1.939920 31.966293  -0.857157 -0.505524 0.098631  0.392578 0.998047 1 0 1.000000
0  11.131628 -1.432495 33.999676  0.147341 -0.190102 0.970645  0.400391 0.917969 1 0 1.000000
driver
0  8.266547 -1.939920 31.966293  -0.857157 -0.505524 0.098631  0.392578 0.998047 1 0 1.000000
0  10.446274 0.415288 34.120441  -0.041893 0.233689 0.971408  0.333984 0.917969 1 0 1.000000
0  7.631598 -0.503034 31.892319  -0.969686 -0.158429 -0.186036  0.337891 0.998047 1 0 1.000000
driver
0  8.736038 17.286175 11.739645  -0.997971 -0.063234 0.007403  0.496094 0.984375 1 0 1.000000
0  11.383093 21.379498 5.181007  -0.942918 0.154585 -0.294973  0.484375 0.919922 1 0 1.000000
0  10.982601 2.276883 8.713636  -0.969310 -0.055384 -0.239520  0.531250 0.921875 1 0 1.000000
driver
0  10.982601 2.276883 8.713636  -0.969310 -0.055384 -0.239520  0.531250 0.921875 1 0 1.000000
0  10.116647 2.759764 14.060555  -0.912621 -0.117314 0.391613  0.496094 0.984375 1 0 1.000000
0  8.736038 17.286175 11.739645  -0.997971 -0.063234 0.007403  0.496094 0.984375 1 0 1.000000
driver
0  10.982601 2.276883 8.713636  -0.969310 -0.055384 -0.239520  0.531250 0.921875 1 0 1.000000
0  12.126562 -15.694579 0.810747  -0.996002 -0.080129 -0.039495  0.984375 0.921875 1 0 1.000000
0  10.116647 2.759764 14.060555  -0.912621 -0.117314 0.391613  0.496094 0.984375 1 0 1.000000
driver
0  12.126562 -15.694579 0.810747  -0.996002 -0.080129 -0.039495  0.984375 0.921875 1 0 1.000000
0  13.054737 -17.704288 7.903500  -0.711593 -0.340148 0.614764  0.984375 0.984375 1 0 1.000000
0  10.116647 2.759764 14.060555  -0.912621 -0.117314 0.391613  0.496094 0.984375 1 0 1.000000
driver
0  23.168098 -2.207681 32.243828  -0.633062 0.134321 0.762359  0.445312 0.917969 1 0 1.000000
0  23.371887 -2.491380 32.463043  -0.328103 -0.188930 0.925556  0.441406 0.919922 1 0 1.000000
0  23.929819 -0.934177 32.651997  -0.517002 0.217274 0.827950  0.382812 0.917969 1 0 1.000000
driver
0  24.423641 -1.340526 33.036812  -0.001283 -0.190099 0.981764  0.400391 0.917969 1 0 1.000000
0  23.929819 -0.934177 32.651997  -0.517002 0.217274 0.827950  0.382812 0.917969 1 0 1.000000
0  23.371887 -2.491380 32.463043  -0.328103 -0.188930 0.925556  0.441406 0.919922 1 0 1.000000
driver
0  23.371887 -2.491380 32.463043  -0.328103 -0.188930 0.925556  0.441406 0.919922 1 0 1.000000
0  25.963696 -2.837772 30.290653  0.709758 -0.702566 -0.051425  0.439453 0.996094 1 0 1.000000
0  24.423641 -1.340526 33.036812  -0.001283 -0.190099 0.981764  0.400391 0.917969 1 0 1.000000
driver
0  26.954241 -1.848218 30.599766  0.862287 -0.505530 -0.030022  0.392578 0.998047 1 0 1.000000
0  24.423641 -1.340526 33.036812  -0.001283 -0.190099 0.981764  0.400391 0.917969 1 0 1.000000
0  25.963696 -2.837772 30.290653  0.709758 -0.702566 -0.051425  0.439453 0.996094 1 0 1.000000
driver
0  26.954241 -1.848218 30.599766  0.862287 -0.505530 -0.030022  0.392578 0.998047 1 0 1.000000
0  25.963696 -2.837772 30.290653  0.709758 -0.702566 -0.051425  0.439453 0.996094 1 0 1.000000
0  26.410295 -1.635208 30.023659  0.628651 -0.351587 -0.693675  0.382812 0.998047 1 0 1.000000
driver
0  26.410295 -1.635208 30.023659  0.628651 -0.351587 -0.693675  0.382812 0.998047 1 0 1.000000
0  26.567301 -0.699489 29.785851  0.596857 -0.260421 -0.758909  0.337891 0.998047 1 0 1.000000
0  26.954241 -1.848218 30.599766  0.862287 -0.505530 -0.030022  0.392578 0.998047 1 0 1.000000
driver
0  27.571133 -0.411327 30.432137  0.931229 -0.158384 -0.328218  0.337891 0.998047 1 0 1.000000
0  26.954241 -1.848218 30.599766  0.862287 -0.505530 -0.030022  0.392578 0.998047 1 0 1.000000
0  26.567301 -0.699489 29.785851  0.596857 -0.260421 -0.758909  0.337891 0.998047 1 0 1.000000
driver
0  26.567301 -0.699489 29.785851  0.596857 -0.260421 -0.758909  0.337891 0.998047 1 0 1.000000
0  25.235340 2.329939 28.274090  0.108350 -0.432021 -0.895331  0.222656 0.998047 1 0 1.000000
0  27.571133 -0.411327 30.432137  0.931229 -0.158384 -0.328218  0.337891 0.998047 1 0 1.000000
driver
0  26.887913 3.014981 29.221794  0.981355 -0.124740 0.146226  0.222656 0.992188 1 0 1.000000
0  27.571133 -0.411327 30.432137  0.931229 -0.158384 -0.328218  0.337891 0.998047 1 0 1.000000
0  25.235340 2.329939 28.274090  0.108350 -0.432021 -0.895331  0.222656 0.998047 1 0 1.000000
driver
0  27.571133 -0.411327 30.432137  0.931229 -0.158384 -0.328218  0.337891 0.998047 1 0 1.000000
0  26.887913 3.014981 29.221794  0.981355 -0.124740 0.146226  0.222656 0.992188 1 0 1.000000
0  25.119318 0.507258 33.054260  0.185975 0.233693 0.954359  0.333984 0.917969 1 0 1.000000
driver
0  24.966984 4.009642 31.192780  -0.083628 0.432854 0.897577  0.220703 0.927734 1 0 1.000000
0  25.119318 0.507258 33.054260  0.185975 0.233693 0.954359  0.333984 0.917969 1 0 1.000000
0  26.887913 3.014981 29.221794  0.981355 -0.124740 0.146226  0.222656 0.992188 1 0 1.000000
driver
0  24.966984 4.009642 31.192780  -0.083628 0.432854 0.897577  0.220703 0.927734 1 0 1.000000
0  23.483793 3.347218 30.124516  -0.847910 0.334883 0.410977  0.220703 0.917969 1 0 1.000000
0  25.119318 0.507258 33.054260  0.185975 0.233693 0.954359  0.333984 0.917969 1 0 1.000000
driver
0  23.891981 0.196730 32.101051  -0.538776 0.334639 0.773135  0.335938 0.916016 1 0 1.000000
0  25.119318 0.507258 33.054260  0.185975 0.233693 0.954359  0.333984 0.917969 1 0 1.000000
0  23.483793 3.347218 30.124516  -0.847910 0.334883 0.410977  0.220703 0.917969 1 0 1.000000
driver
0  25.119318 0.507258 33.054260  0.185975 0.233693 0.954359  0.333984 0.917969 1 0 1.000000
0  23.891981 0.196730 32.101051  -0.538776 0.334639 0.773135  0.335938 0.916016 1 0 1.000000
0  24.423641 -1.340526 33.036812  -0.001283 -0.190099 0.981764  0.400391 0.917969 1 0 1.000000
driver
0  23.929819 -0.934177 32.651997  -0.517002 0.217274 0.827950  0.382812 0.917969 1 0 1.000000
0  24.423641 -1.340526 33.036812  -0.001283 -0.190099 0.981764  0.400391 0.917969 1 0 1.000000
0  23.891981 0.196730 32.101051  -0.538776 0.334639 0.773135  0.335938 0.916016 1 0 1.000000
driver
0  24.423641 -1.340526 33.036812  -0.001283 -0.190099 0.981764  0.400391 0.917969 1 0 1.000000
0  26.954241 -1.848218 30.599766  0.862287 -0.505530 -0.030022  0.392578 0.998047 1 0 1.000000
0  25.119318 0.507258 33.054260  0.185975 0.233693 0.954359  0.333984 0.917969 1 0 1.000000
driver
0  27.571133 -0.411327 30.432137  0.931229 -0.158384 -0.328218  0.337891 0.998047 1 0 1.000000
0  25.119318 0.507258 33.054260  0.185975 0.233693 0.954359  0.333984 0.917969 1 0 1.000000
0  26.954241 -1.848218 30.599766  0.862287 -0.505530 -0.030022  0.392578 0.998047 1 0 1.000000
driver
0  25.616600 -2.424003 29.711235  0.643595 -0.385778 -0.661030  0.445312 0.998047 1 0 1.000000
0  26.410295 -1.635208 30.023659  0.628651 -0.351587 -0.693675  0.382812 0.998047 1 0 1.000000
0  25.963696 -2.837772 30.290653  0.709758 -0.702566 -0.051425  0.439453 0.996094 1 0 1.000000
driver
0  24.295301 24.892292 10.155952  0.947639 0.301052 -0.106528  0.109375 0.519531 1 0 1.000000
0  26.920343 19.466341 13.927582  0.999124 0.038958 -0.015274  0.076172 0.683594 1 0 1.000000
0  24.209425 21.379501 5.181006  0.942919 0.154581 -0.294972  0.000000 0.521484 1 0 1.000000
driver
0  26.856482 17.286177 11.739643  0.997972 -0.063217 0.007406  0.000000 0.683594 1 0 1.000000
0  24.209425 21.379501 5.181006  0.942919 0.154581 -0.294972  0.000000 0.521484 1 0 1.000000
0  26.920343 19.466341 13.927582  0.999124 0.038958 -0.015274  0.076172 0.683594 1 0 1.000000
driver
0  8.736038 17.286175 11.739645  -0.997971 -0.063234 0.007403  0.521484 0.050781 1 0 1.000000
0  11.341278 14.385629 16.028677  -0.734426 -0.401304 0.547333  0.580078 0.175781 1 0 1.000000
0  8.672244 19.466341 13.927584  -0.999124 0.038955 -0.015262  0.585938 0.050781 1 0 1.000000
end
