version 1
nodes
0 "root" -1
1 "steering_wheel" 0
end
skeleton
time 0
0  0.000000 0.000000 0.000000  0.000000 -0.000000 -0.000000
1  19.916300 17.934299 33.308498  0.000000 -0.000000 0.000000
end
triangles
  phy
0  7.803516 96.613274 6.622759  -0.004830 -0.081286 0.996679  0.000000 0.000000 1 0 1.000000
0  8.537809 92.437683 7.130114  -0.415151 -0.116809 0.902223  0.000000 0.000000 1 0 1.000000
0  8.262205 86.546707 7.845827  -0.013836 -0.149297 0.988696  0.000000 0.000000 1 0 1.000000
  phy
0  7.803516 96.613274 6.622759  -0.004830 -0.081286 0.996679  0.000000 0.000000 1 0 1.000000
0  8.262205 86.546707 7.845827  -0.013836 -0.149297 0.988696  0.000000 0.000000 1 0 1.000000
0  -8.529365 92.438599 7.129214  0.034078 -0.121088 0.992057  0.000000 0.000000 1 0 1.000000
  phy
0  7.803516 96.613274 6.622759  -0.004830 -0.081286 0.996679  0.000000 0.000000 1 0 1.000000
0  -8.529365 92.438599 7.129214  0.034078 -0.121088 0.992057  0.000000 0.000000 1 0 1.000000
0  -7.794600 96.614059 6.621940  0.016551 -0.056686 0.998255  0.000000 0.000000 1 0 1.000000
  phy
0  -8.529365 92.438599 7.129214  0.034078 -0.121088 0.992057  0.000000 0.000000 1 0 1.000000
0  8.262205 86.546707 7.845827  -0.013836 -0.149297 0.988696  0.000000 0.000000 1 0 1.000000
0  -8.254412 86.547478 7.844961  0.019451 -0.197789 0.980052  0.000000 0.000000 1 0 1.000000
  phy
0  -8.529365 92.438599 7.129214  0.034078 -0.121088 0.992057  0.000000 0.000000 1 0 1.000000
0  -8.254412 86.547478 7.844961  0.019451 -0.197789 0.980052  0.000000 0.000000 1 0 1.000000
0  -8.928885 86.671303 8.299256  0.803674 -0.164790 0.571797  0.000000 0.000000 1 0 1.000000
  phy
0  -9.671803 92.466003 7.927467  0.784356 -0.115711 0.609424  0.000000 0.000000 1 0 1.000000
0  -8.529365 92.438599 7.129214  0.034078 -0.121088 0.992057  0.000000 0.000000 1 0 1.000000
0  -8.928885 86.671303 8.299256  0.803674 -0.164790 0.571797  0.000000 0.000000 1 0 1.000000
  phy
0  -8.529365 92.438599 7.129214  0.034078 -0.121088 0.992057  0.000000 0.000000 1 0 1.000000
0  -9.671803 92.466003 7.927467  0.784356 -0.115711 0.609424  0.000000 0.000000 1 0 1.000000
0  -9.024634 96.705231 6.895216  0.078035 0.906363 0.415231  0.000000 0.000000 1 0 1.000000
  phy
0  -8.529365 92.438599 7.129214  0.034078 -0.121088 0.992057  0.000000 0.000000 1 0 1.000000
0  -9.024634 96.705231 6.895216  0.078035 0.906363 0.415231  0.000000 0.000000 1 0 1.000000
0  -7.794600 96.614059 6.621940  0.016551 -0.056686 0.998255  0.000000 0.000000 1 0 1.000000
  phy
0  -10.070863 92.492592 9.234975  0.992347 -0.096691 -0.076796  0.000000 0.000000 1 0 1.000000
0  -9.905660 97.875221 10.597642  0.931792 0.042069 -0.360548  0.000000 0.000000 1 0 1.000000
0  -10.208366 97.063148 8.023790  0.254363 0.902080 0.348643  0.000000 0.000000 1 0 1.000000
  phy
0  -10.208366 97.063148 8.023790  0.254363 0.902080 0.348643  0.000000 0.000000 1 0 1.000000
0  -9.905660 97.875221 10.597642  0.931792 0.042069 -0.360548  0.000000 0.000000 1 0 1.000000
0  -9.024795 98.095390 11.285882  0.063285 0.513885 -0.855522  0.000000 0.000000 1 0 1.000000
  phy
0  -9.406792 92.507317 10.627074  0.640656 -0.133009 -0.756220  0.000000 0.000000 1 0 1.000000
0  -9.905660 97.875221 10.597642  0.931792 0.042069 -0.360548  0.000000 0.000000 1 0 1.000000
0  -10.070863 92.492592 9.234975  0.992347 -0.096691 -0.076796  0.000000 0.000000 1 0 1.000000
  phy
0  -9.406792 92.507317 10.627074  0.640656 -0.133009 -0.756220  0.000000 0.000000 1 0 1.000000
0  -9.024795 98.095390 11.285882  0.063285 0.513885 -0.855522  0.000000 0.000000 1 0 1.000000
0  -9.905660 97.875221 10.597642  0.931792 0.042069 -0.360548  0.000000 0.000000 1 0 1.000000
  phy
0  -8.254412 86.547478 7.844961  0.019451 -0.197789 0.980052  0.000000 0.000000 1 0 1.000000
0  8.262205 86.546707 7.845827  -0.013836 -0.149297 0.988696  0.000000 0.000000 1 0 1.000000
0  8.027954 82.266136 8.946925  -0.130957 -0.967705 -0.215400  0.000000 0.000000 1 0 1.000000
  phy
0  -8.254412 86.547478 7.844961  0.019451 -0.197789 0.980052  0.000000 0.000000 1 0 1.000000
0  8.027954 82.266136 8.946925  -0.130957 -0.967705 -0.215400  0.000000 0.000000 1 0 1.000000
0  -8.020703 82.266914 8.946079  0.240048 -0.929765 -0.279130  0.000000 0.000000 1 0 1.000000
  phy
0  -8.928885 86.671303 8.299256  0.803674 -0.164790 0.571797  0.000000 0.000000 1 0 1.000000
0  -8.254412 86.547478 7.844961  0.019451 -0.197789 0.980052  0.000000 0.000000 1 0 1.000000
0  -8.020703 82.266914 8.946079  0.240048 -0.929765 -0.279130  0.000000 0.000000 1 0 1.000000
  phy
0  -9.671803 92.466003 7.927467  0.784356 -0.115711 0.609424  0.000000 0.000000 1 0 1.000000
0  -8.928885 86.671303 8.299256  0.803674 -0.164790 0.571797  0.000000 0.000000 1 0 1.000000
0  -10.070863 92.492592 9.234975  0.992347 -0.096691 -0.076796  0.000000 0.000000 1 0 1.000000
  phy
0  -9.671803 92.466003 7.927467  0.784356 -0.115711 0.609424  0.000000 0.000000 1 0 1.000000
0  -10.070863 92.492592 9.234975  0.992347 -0.096691 -0.076796  0.000000 0.000000 1 0 1.000000
0  -10.208366 97.063148 8.023790  0.254363 0.902080 0.348643  0.000000 0.000000 1 0 1.000000
  phy
0  -9.024634 96.705231 6.895216  0.078035 0.906363 0.415231  0.000000 0.000000 1 0 1.000000
0  -9.671803 92.466003 7.927467  0.784356 -0.115711 0.609424  0.000000 0.000000 1 0 1.000000
0  -10.208366 97.063148 8.023790  0.254363 0.902080 0.348643  0.000000 0.000000 1 0 1.000000
  phy
0  9.170568 86.849411 9.070859  -0.951864 -0.188153 -0.241979  0.000000 0.000000 1 0 1.000000
0  9.418517 92.519981 10.626124  -0.632246 -0.131766 -0.763481  0.000000 0.000000 1 0 1.000000
0  8.785152 87.042183 9.855382  -0.603928 -0.207836 -0.769464  0.000000 0.000000 1 0 1.000000
  phy
0  9.170568 86.849411 9.070859  -0.951864 -0.188153 -0.241979  0.000000 0.000000 1 0 1.000000
0  10.079244 92.492577 9.236059  -0.992396 -0.096597 -0.076283  0.000000 0.000000 1 0 1.000000
0  9.418517 92.519981 10.626124  -0.632246 -0.131766 -0.763481  0.000000 0.000000 1 0 1.000000
  phy
0  8.785152 87.042183 9.855382  -0.603928 -0.207836 -0.769464  0.000000 0.000000 1 0 1.000000
0  8.027954 82.266136 8.946925  -0.130957 -0.967705 -0.215400  0.000000 0.000000 1 0 1.000000
0  9.170568 86.849411 9.070859  -0.951864 -0.188153 -0.241979  0.000000 0.000000 1 0 1.000000
  phy
0  8.936611 86.670525 8.300009  -0.803697 -0.164819 0.571757  0.000000 0.000000 1 0 1.000000
0  10.079244 92.492577 9.236059  -0.992396 -0.096597 -0.076283  0.000000 0.000000 1 0 1.000000
0  9.170568 86.849411 9.070859  -0.951864 -0.188153 -0.241979  0.000000 0.000000 1 0 1.000000
  phy
0  9.170568 86.849411 9.070859  -0.951864 -0.188153 -0.241979  0.000000 0.000000 1 0 1.000000
0  8.027954 82.266136 8.946925  -0.130957 -0.967705 -0.215400  0.000000 0.000000 1 0 1.000000
0  8.936611 86.670525 8.300009  -0.803697 -0.164819 0.571757  0.000000 0.000000 1 0 1.000000
  phy
0  -8.777522 87.042961 9.854448  0.603651 -0.207997 -0.769638  0.000000 0.000000 1 0 1.000000
0  -7.788533 87.143311 10.227174  0.018808 -0.212204 -0.977044  0.000000 0.000000 1 0 1.000000
0  -9.406792 92.507317 10.627074  0.640656 -0.133009 -0.756220  0.000000 0.000000 1 0 1.000000
  phy
0  -7.788533 87.143311 10.227174  0.018808 -0.212204 -0.977044  0.000000 0.000000 1 0 1.000000
0  -7.856917 92.461906 11.174172  0.022775 -0.073101 -0.997064  0.000000 0.000000 1 0 1.000000
0  -9.406792 92.507317 10.627074  0.640656 -0.133009 -0.756220  0.000000 0.000000 1 0 1.000000
  phy
0  -9.162886 86.850357 9.069896  0.951874 -0.187998 -0.242060  0.000000 0.000000 1 0 1.000000
0  -9.406792 92.507317 10.627074  0.640656 -0.133009 -0.756220  0.000000 0.000000 1 0 1.000000
0  -10.070863 92.492592 9.234975  0.992347 -0.096691 -0.076796  0.000000 0.000000 1 0 1.000000
  phy
0  -9.406792 92.507317 10.627074  0.640656 -0.133009 -0.756220  0.000000 0.000000 1 0 1.000000
0  -9.162886 86.850357 9.069896  0.951874 -0.187998 -0.242060  0.000000 0.000000 1 0 1.000000
0  -8.777522 87.042961 9.854448  0.603651 -0.207997 -0.769638  0.000000 0.000000 1 0 1.000000
  phy
0  -9.406792 92.507317 10.627074  0.640656 -0.133009 -0.756220  0.000000 0.000000 1 0 1.000000
0  -7.856917 92.461906 11.174172  0.022775 -0.073101 -0.997064  0.000000 0.000000 1 0 1.000000
0  -9.024795 98.095390 11.285882  0.063285 0.513885 -0.855522  0.000000 0.000000 1 0 1.000000
  phy
0  -8.928885 86.671303 8.299256  0.803674 -0.164790 0.571797  0.000000 0.000000 1 0 1.000000
0  -9.162886 86.850357 9.069896  0.951874 -0.187998 -0.242060  0.000000 0.000000 1 0 1.000000
0  -10.070863 92.492592 9.234975  0.992347 -0.096691 -0.076796  0.000000 0.000000 1 0 1.000000
  phy
0  -9.162886 86.850357 9.069896  0.951874 -0.187998 -0.242060  0.000000 0.000000 1 0 1.000000
0  -8.928885 86.671303 8.299256  0.803674 -0.164790 0.571797  0.000000 0.000000 1 0 1.000000
0  -8.020703 82.266914 8.946079  0.240048 -0.929765 -0.279130  0.000000 0.000000 1 0 1.000000
  phy
0  -8.777522 87.042961 9.854448  0.603651 -0.207997 -0.769638  0.000000 0.000000 1 0 1.000000
0  -9.162886 86.850357 9.069896  0.951874 -0.187998 -0.242060  0.000000 0.000000 1 0 1.000000
0  -8.020703 82.266914 8.946079  0.240048 -0.929765 -0.279130  0.000000 0.000000 1 0 1.000000
  phy
0  9.914148 97.878677 10.599806  -0.925185 0.052673 -0.375844  0.000000 0.000000 1 0 1.000000
0  10.217182 97.062157 8.024861  -0.916937 0.253745 0.307961  0.000000 0.000000 1 0 1.000000
0  8.907780 98.111488 11.333868  -0.029937 0.754094 -0.656083  0.000000 0.000000 1 0 1.000000
  phy
0  8.907780 98.111488 11.333868  -0.029937 0.754094 -0.656083  0.000000 0.000000 1 0 1.000000
0  10.217182 97.062157 8.024861  -0.916937 0.253745 0.307961  0.000000 0.000000 1 0 1.000000
0  9.033527 96.704353 6.896161  -0.097829 0.891534 0.442264  0.000000 0.000000 1 0 1.000000
  phy
0  8.907780 98.111488 11.333868  -0.029937 0.754094 -0.656083  0.000000 0.000000 1 0 1.000000
0  9.033527 96.704353 6.896161  -0.097829 0.891534 0.442264  0.000000 0.000000 1 0 1.000000
0  -9.024634 96.705231 6.895216  0.078035 0.906363 0.415231  0.000000 0.000000 1 0 1.000000
  phy
0  8.907780 98.111488 11.333868  -0.029937 0.754094 -0.656083  0.000000 0.000000 1 0 1.000000
0  -9.024634 96.705231 6.895216  0.078035 0.906363 0.415231  0.000000 0.000000 1 0 1.000000
0  -10.208366 97.063148 8.023790  0.254363 0.902080 0.348643  0.000000 0.000000 1 0 1.000000
  phy
0  9.914148 97.878677 10.599806  -0.925185 0.052673 -0.375844  0.000000 0.000000 1 0 1.000000
0  10.079244 92.492577 9.236059  -0.992396 -0.096597 -0.076283  0.000000 0.000000 1 0 1.000000
0  10.217182 97.062157 8.024861  -0.916937 0.253745 0.307961  0.000000 0.000000 1 0 1.000000
  phy
0  9.418517 92.519981 10.626124  -0.632246 -0.131766 -0.763481  0.000000 0.000000 1 0 1.000000
0  10.079244 92.492577 9.236059  -0.992396 -0.096597 -0.076283  0.000000 0.000000 1 0 1.000000
0  9.914148 97.878677 10.599806  -0.925185 0.052673 -0.375844  0.000000 0.000000 1 0 1.000000
  phy
0  9.914148 97.878677 10.599806  -0.925185 0.052673 -0.375844  0.000000 0.000000 1 0 1.000000
0  8.907780 98.111488 11.333868  -0.029937 0.754094 -0.656083  0.000000 0.000000 1 0 1.000000
0  9.418517 92.519981 10.626124  -0.632246 -0.131766 -0.763481  0.000000 0.000000 1 0 1.000000
  phy
0  9.418517 92.519981 10.626124  -0.632246 -0.131766 -0.763481  0.000000 0.000000 1 0 1.000000
0  7.797002 87.138496 10.226948  -0.036306 -0.210386 -0.976944  0.000000 0.000000 1 0 1.000000
0  8.785152 87.042183 9.855382  -0.603928 -0.207836 -0.769464  0.000000 0.000000 1 0 1.000000
  phy
0  7.797002 87.138496 10.226948  -0.036306 -0.210386 -0.976944  0.000000 0.000000 1 0 1.000000
0  8.027954 82.266136 8.946925  -0.130957 -0.967705 -0.215400  0.000000 0.000000 1 0 1.000000
0  8.785152 87.042183 9.855382  -0.603928 -0.207836 -0.769464  0.000000 0.000000 1 0 1.000000
  phy
0  8.936611 86.670525 8.300009  -0.803697 -0.164819 0.571757  0.000000 0.000000 1 0 1.000000
0  8.537809 92.437683 7.130114  -0.415151 -0.116809 0.902223  0.000000 0.000000 1 0 1.000000
0  9.680167 92.465042 7.928486  -0.784353 -0.115763 0.609417  0.000000 0.000000 1 0 1.000000
  phy
0  8.537809 92.437683 7.130114  -0.415151 -0.116809 0.902223  0.000000 0.000000 1 0 1.000000
0  8.936611 86.670525 8.300009  -0.803697 -0.164819 0.571757  0.000000 0.000000 1 0 1.000000
0  8.262205 86.546707 7.845827  -0.013836 -0.149297 0.988696  0.000000 0.000000 1 0 1.000000
  phy
0  9.680167 92.465042 7.928486  -0.784353 -0.115763 0.609417  0.000000 0.000000 1 0 1.000000
0  10.079244 92.492577 9.236059  -0.992396 -0.096597 -0.076283  0.000000 0.000000 1 0 1.000000
0  8.936611 86.670525 8.300009  -0.803697 -0.164819 0.571757  0.000000 0.000000 1 0 1.000000
  phy
0  8.262205 86.546707 7.845827  -0.013836 -0.149297 0.988696  0.000000 0.000000 1 0 1.000000
0  8.936611 86.670525 8.300009  -0.803697 -0.164819 0.571757  0.000000 0.000000 1 0 1.000000
0  8.027954 82.266136 8.946925  -0.130957 -0.967705 -0.215400  0.000000 0.000000 1 0 1.000000
  phy
0  10.217182 97.062157 8.024861  -0.916937 0.253745 0.307961  0.000000 0.000000 1 0 1.000000
0  10.079244 92.492577 9.236059  -0.992396 -0.096597 -0.076283  0.000000 0.000000 1 0 1.000000
0  9.680167 92.465042 7.928486  -0.784353 -0.115763 0.609417  0.000000 0.000000 1 0 1.000000
  phy
0  10.217182 97.062157 8.024861  -0.916937 0.253745 0.307961  0.000000 0.000000 1 0 1.000000
0  9.680167 92.465042 7.928486  -0.784353 -0.115763 0.609417  0.000000 0.000000 1 0 1.000000
0  9.033527 96.704353 6.896161  -0.097829 0.891534 0.442264  0.000000 0.000000 1 0 1.000000
  phy
0  9.680167 92.465042 7.928486  -0.784353 -0.115763 0.609417  0.000000 0.000000 1 0 1.000000
0  8.537809 92.437683 7.130114  -0.415151 -0.116809 0.902223  0.000000 0.000000 1 0 1.000000
0  9.033527 96.704353 6.896161  -0.097829 0.891534 0.442264  0.000000 0.000000 1 0 1.000000
  phy
0  8.537809 92.437683 7.130114  -0.415151 -0.116809 0.902223  0.000000 0.000000 1 0 1.000000
0  7.803516 96.613274 6.622759  -0.004830 -0.081286 0.996679  0.000000 0.000000 1 0 1.000000
0  9.033527 96.704353 6.896161  -0.097829 0.891534 0.442264  0.000000 0.000000 1 0 1.000000
  phy
0  9.418517 92.519981 10.626124  -0.632246 -0.131766 -0.763481  0.000000 0.000000 1 0 1.000000
0  7.826152 92.720001 11.221112  -0.022219 -0.125537 -0.991840  0.000000 0.000000 1 0 1.000000
0  7.797002 87.138496 10.226948  -0.036306 -0.210386 -0.976944  0.000000 0.000000 1 0 1.000000
  phy
0  9.418517 92.519981 10.626124  -0.632246 -0.131766 -0.763481  0.000000 0.000000 1 0 1.000000
0  8.907780 98.111488 11.333868  -0.029937 0.754094 -0.656083  0.000000 0.000000 1 0 1.000000
0  7.826152 92.720001 11.221112  -0.022219 -0.125537 -0.991840  0.000000 0.000000 1 0 1.000000
  phy
0  7.803516 96.613274 6.622759  -0.004830 -0.081286 0.996679  0.000000 0.000000 1 0 1.000000
0  -7.794600 96.614059 6.621940  0.016551 -0.056686 0.998255  0.000000 0.000000 1 0 1.000000
0  -9.024634 96.705231 6.895216  0.078035 0.906363 0.415231  0.000000 0.000000 1 0 1.000000
  phy
0  7.803516 96.613274 6.622759  -0.004830 -0.081286 0.996679  0.000000 0.000000 1 0 1.000000
0  -9.024634 96.705231 6.895216  0.078035 0.906363 0.415231  0.000000 0.000000 1 0 1.000000
0  9.033527 96.704353 6.896161  -0.097829 0.891534 0.442264  0.000000 0.000000 1 0 1.000000
  phy
0  -8.777522 87.042961 9.854448  0.603651 -0.207997 -0.769638  0.000000 0.000000 1 0 1.000000
0  -8.020703 82.266914 8.946079  0.240048 -0.929765 -0.279130  0.000000 0.000000 1 0 1.000000
0  -7.788533 87.143311 10.227174  0.018808 -0.212204 -0.977044  0.000000 0.000000 1 0 1.000000
  phy
0  7.797002 87.138496 10.226948  -0.036306 -0.210386 -0.976944  0.000000 0.000000 1 0 1.000000
0  -7.788533 87.143311 10.227174  0.018808 -0.212204 -0.977044  0.000000 0.000000 1 0 1.000000
0  8.027954 82.266136 8.946925  -0.130957 -0.967705 -0.215400  0.000000 0.000000 1 0 1.000000
  phy
0  -7.788533 87.143311 10.227174  0.018808 -0.212204 -0.977044  0.000000 0.000000 1 0 1.000000
0  -8.020703 82.266914 8.946079  0.240048 -0.929765 -0.279130  0.000000 0.000000 1 0 1.000000
0  8.027954 82.266136 8.946925  -0.130957 -0.967705 -0.215400  0.000000 0.000000 1 0 1.000000
  phy
0  7.797002 87.138496 10.226948  -0.036306 -0.210386 -0.976944  0.000000 0.000000 1 0 1.000000
0  7.826152 92.720001 11.221112  -0.022219 -0.125537 -0.991840  0.000000 0.000000 1 0 1.000000
0  -7.788533 87.143311 10.227174  0.018808 -0.212204 -0.977044  0.000000 0.000000 1 0 1.000000
  phy
0  -10.208366 97.063148 8.023790  0.254363 0.902080 0.348643  0.000000 0.000000 1 0 1.000000
0  -9.024795 98.095390 11.285882  0.063285 0.513885 -0.855522  0.000000 0.000000 1 0 1.000000
0  8.907780 98.111488 11.333868  -0.029937 0.754094 -0.656083  0.000000 0.000000 1 0 1.000000
  phy
0  7.826152 92.720001 11.221112  -0.022219 -0.125537 -0.991840  0.000000 0.000000 1 0 1.000000
0  -7.856917 92.461906 11.174172  0.022775 -0.073101 -0.997064  0.000000 0.000000 1 0 1.000000
0  -7.788533 87.143311 10.227174  0.018808 -0.212204 -0.977044  0.000000 0.000000 1 0 1.000000
  phy
0  8.907780 98.111488 11.333868  -0.029937 0.754094 -0.656083  0.000000 0.000000 1 0 1.000000
0  -7.856917 92.461906 11.174172  0.022775 -0.073101 -0.997064  0.000000 0.000000 1 0 1.000000
0  7.826152 92.720001 11.221112  -0.022219 -0.125537 -0.991840  0.000000 0.000000 1 0 1.000000
  phy
0  8.907780 98.111488 11.333868  -0.029937 0.754094 -0.656083  0.000000 0.000000 1 0 1.000000
0  -9.024795 98.095390 11.285882  0.063285 0.513885 -0.855522  0.000000 0.000000 1 0 1.000000
0  -7.856917 92.461906 11.174172  0.022775 -0.073101 -0.997064  0.000000 0.000000 1 0 1.000000
end
