version 1
nodes
0 "root" -1
1 "steering_wheel" 0
end
skeleton
time 0
0  0.000000 0.000000 0.000000  0.000000 -0.000000 -0.000000
1  19.916300 17.934299 33.308498  0.000000 -0.000000 0.000000
end
triangles
  phy
0  10.537959 -72.109344 49.843594  -0.073446 -0.198536 -0.977338  0.000000 0.000000 1 0 1.000000
0  15.330037 -67.764641 50.260468  -0.054613 -0.131533 -0.989806  0.000000 0.000000 1 0 1.000000
0  7.918126 -72.350761 49.981079  -0.056138 -0.156505 -0.986081  0.000000 0.000000 1 0 1.000000
  phy
0  7.918126 -72.350761 49.981079  -0.056138 -0.156505 -0.986081  0.000000 0.000000 1 0 1.000000
0  -0.007135 -74.717117 50.029755  0.004172 -0.153312 -0.988169  0.000000 0.000000 1 0 1.000000
0  10.537959 -72.109344 49.843594  -0.073446 -0.198536 -0.977338  0.000000 0.000000 1 0 1.000000
  phy
0  15.330037 -67.764641 50.260468  -0.054613 -0.131533 -0.989806  0.000000 0.000000 1 0 1.000000
0  -0.007135 -74.717117 50.029755  0.004172 -0.153312 -0.988169  0.000000 0.000000 1 0 1.000000
0  7.918126 -72.350761 49.981079  -0.056138 -0.156505 -0.986081  0.000000 0.000000 1 0 1.000000
  phy
0  -1.490287 -77.930176 48.630760  0.061293 -0.600136 -0.797546  0.000000 0.000000 1 0 1.000000
0  -0.006535 -78.043991 48.624374  0.025660 -0.575183 -0.817622  0.000000 0.000000 1 0 1.000000
0  -4.356123 -77.399910 48.774372  0.051741 -0.494224 -0.867794  0.000000 0.000000 1 0 1.000000
  phy
0  -0.006535 -78.043991 48.624374  0.025660 -0.575183 -0.817622  0.000000 0.000000 1 0 1.000000
0  -0.007135 -74.717117 50.029755  0.004172 -0.153312 -0.988169  0.000000 0.000000 1 0 1.000000
0  -4.356123 -77.399910 48.774372  0.051741 -0.494224 -0.867794  0.000000 0.000000 1 0 1.000000
  phy
0  -10.069690 -76.608246 48.864799  0.089863 -0.455816 -0.885526  0.000000 0.000000 1 0 1.000000
0  -9.542249 -80.320404 46.177757  0.120028 -0.709078 -0.694839  0.000000 0.000000 1 0 1.000000
0  -4.356123 -77.399910 48.774372  0.051741 -0.494224 -0.867794  0.000000 0.000000 1 0 1.000000
  phy
0  -9.542249 -80.320404 46.177757  0.120028 -0.709078 -0.694839  0.000000 0.000000 1 0 1.000000
0  -1.490287 -77.930176 48.630760  0.061293 -0.600136 -0.797546  0.000000 0.000000 1 0 1.000000
0  -4.356123 -77.399910 48.774372  0.051741 -0.494224 -0.867794  0.000000 0.000000 1 0 1.000000
  phy
0  -4.356123 -77.399910 48.774372  0.051741 -0.494224 -0.867794  0.000000 0.000000 1 0 1.000000
0  -0.007135 -74.717117 50.029755  0.004172 -0.153312 -0.988169  0.000000 0.000000 1 0 1.000000
0  -10.069690 -76.608246 48.864799  0.089863 -0.455816 -0.885526  0.000000 0.000000 1 0 1.000000
  phy
0  22.910631 -74.456734 48.407810  -0.818578 -0.382293 -0.428699  0.000000 0.000000 1 0 1.000000
0  25.305819 -65.270523 50.005779  -0.486162 -0.242208 -0.839632  0.000000 0.000000 1 0 1.000000
0  10.537959 -72.109344 49.843594  -0.073446 -0.198536 -0.977338  0.000000 0.000000 1 0 1.000000
  phy
0  10.537959 -72.109344 49.843594  -0.073446 -0.198536 -0.977338  0.000000 0.000000 1 0 1.000000
0  25.305819 -65.270523 50.005779  -0.486162 -0.242208 -0.839632  0.000000 0.000000 1 0 1.000000
0  15.330037 -67.764641 50.260468  -0.054613 -0.131533 -0.989806  0.000000 0.000000 1 0 1.000000
  phy
0  10.537959 -72.109344 49.843594  -0.073446 -0.198536 -0.977338  0.000000 0.000000 1 0 1.000000
0  10.041499 -76.609726 48.866905  -0.086124 -0.401400 -0.911844  0.000000 0.000000 1 0 1.000000
0  22.910631 -74.456734 48.407810  -0.818578 -0.382293 -0.428699  0.000000 0.000000 1 0 1.000000
  phy
0  10.537959 -72.109344 49.843594  -0.073446 -0.198536 -0.977338  0.000000 0.000000 1 0 1.000000
0  -0.007135 -74.717117 50.029755  0.004172 -0.153312 -0.988169  0.000000 0.000000 1 0 1.000000
0  10.041499 -76.609726 48.866905  -0.086124 -0.401400 -0.911844  0.000000 0.000000 1 0 1.000000
  phy
0  -32.830025 -29.974474 32.884079  0.877872 0.304683 -0.369472  0.000000 0.000000 1 0 1.000000
0  -31.922117 -36.662701 36.768379  0.960408 -0.254883 0.112480  0.000000 0.000000 1 0 1.000000
0  -30.148092 -45.988018 45.363426  0.975850 -0.218431 0.002369  0.000000 0.000000 1 0 1.000000
  phy
0  -32.830025 -29.974474 32.884079  0.877872 0.304683 -0.369472  0.000000 0.000000 1 0 1.000000
0  -30.148092 -45.988018 45.363426  0.975850 -0.218431 0.002369  0.000000 0.000000 1 0 1.000000
0  -30.078707 -46.145790 45.755035  0.972674 -0.066993 -0.222299  0.000000 0.000000 1 0 1.000000
  phy
0  -27.546890 -55.663269 50.472713  0.971088 -0.209964 -0.113591  0.000000 0.000000 1 0 1.000000
0  -30.078707 -46.145790 45.755035  0.972674 -0.066993 -0.222299  0.000000 0.000000 1 0 1.000000
0  -30.148092 -45.988018 45.363426  0.975850 -0.218431 0.002369  0.000000 0.000000 1 0 1.000000
  phy
0  -27.546890 -55.663269 50.472713  0.971088 -0.209964 -0.113591  0.000000 0.000000 1 0 1.000000
0  -30.148092 -45.988018 45.363426  0.975850 -0.218431 0.002369  0.000000 0.000000 1 0 1.000000
0  -25.455235 -65.257866 49.960655  0.793029 -0.285541 -0.538118  0.000000 0.000000 1 0 1.000000
  phy
0  -32.830025 -29.974474 32.884079  0.877872 0.304683 -0.369472  0.000000 0.000000 1 0 1.000000
0  -30.078707 -46.145790 45.755035  0.972674 -0.066993 -0.222299  0.000000 0.000000 1 0 1.000000
0  -29.954845 -45.797585 46.276260  0.112641 0.584695 -0.803395  0.000000 0.000000 1 0 1.000000
  phy
0  -30.078707 -46.145790 45.755035  0.972674 -0.066993 -0.222299  0.000000 0.000000 1 0 1.000000
0  -27.546890 -55.663269 50.472713  0.971088 -0.209964 -0.113591  0.000000 0.000000 1 0 1.000000
0  -27.409267 -55.572670 51.065678  0.051744 0.211199 -0.976073  0.000000 0.000000 1 0 1.000000
  phy
0  -29.954845 -45.797585 46.276260  0.112641 0.584695 -0.803395  0.000000 0.000000 1 0 1.000000
0  -30.078707 -46.145790 45.755035  0.972674 -0.066993 -0.222299  0.000000 0.000000 1 0 1.000000
0  -27.409267 -55.572670 51.065678  0.051744 0.211199 -0.976073  0.000000 0.000000 1 0 1.000000
  phy
0  -29.954845 -45.797585 46.276260  0.112641 0.584695 -0.803395  0.000000 0.000000 1 0 1.000000
0  -24.587847 -33.489258 36.447441  0.037703 0.645990 -0.762414  0.000000 0.000000 1 0 1.000000
0  -32.830025 -29.974474 32.884079  0.877872 0.304683 -0.369472  0.000000 0.000000 1 0 1.000000
  phy
0  -29.954845 -45.797585 46.276260  0.112641 0.584695 -0.803395  0.000000 0.000000 1 0 1.000000
0  -23.386969 -45.120003 46.220688  0.032847 0.583767 -0.811256  0.000000 0.000000 1 0 1.000000
0  -24.587847 -33.489258 36.447441  0.037703 0.645990 -0.762414  0.000000 0.000000 1 0 1.000000
  phy
0  -24.587847 -33.489258 36.447441  0.037703 0.645990 -0.762414  0.000000 0.000000 1 0 1.000000
0  -32.403179 -28.451448 31.649500  0.038578 -0.180953 0.982735  0.000000 0.000000 1 0 1.000000
0  -32.830025 -29.974474 32.884079  0.877872 0.304683 -0.369472  0.000000 0.000000 1 0 1.000000
  phy
0  -32.830025 -29.974474 32.884079  0.877872 0.304683 -0.369472  0.000000 0.000000 1 0 1.000000
0  -22.000914 -77.149521 46.485737  0.743728 -0.426871 0.514442  0.000000 0.000000 1 0 1.000000
0  -31.922117 -36.662701 36.768379  0.960408 -0.254883 0.112480  0.000000 0.000000 1 0 1.000000
  phy
0  -22.000914 -77.149521 46.485737  0.743728 -0.426871 0.514442  0.000000 0.000000 1 0 1.000000
0  -32.830025 -29.974474 32.884079  0.877872 0.304683 -0.369472  0.000000 0.000000 1 0 1.000000
0  -32.403179 -28.451448 31.649500  0.038578 -0.180953 0.982735  0.000000 0.000000 1 0 1.000000
  phy
0  -8.353209 -72.224190 49.977573  0.067089 -0.189282 -0.979628  0.000000 0.000000 1 0 1.000000
0  -25.455235 -65.257866 49.960655  0.793029 -0.285541 -0.538118  0.000000 0.000000 1 0 1.000000
0  -10.551608 -72.107841 49.842106  0.077026 -0.186868 -0.979361  0.000000 0.000000 1 0 1.000000
  phy
0  -10.551608 -72.107841 49.842106  0.077026 -0.186868 -0.979361  0.000000 0.000000 1 0 1.000000
0  -22.922754 -74.454102 48.405334  0.670248 -0.395586 -0.627917  0.000000 0.000000 1 0 1.000000
0  -8.353209 -72.224190 49.977573  0.067089 -0.189282 -0.979628  0.000000 0.000000 1 0 1.000000
  phy
0  -25.455235 -65.257866 49.960655  0.793029 -0.285541 -0.538118  0.000000 0.000000 1 0 1.000000
0  -22.922754 -74.454102 48.405334  0.670248 -0.395586 -0.627917  0.000000 0.000000 1 0 1.000000
0  -10.551608 -72.107841 49.842106  0.077026 -0.186868 -0.979361  0.000000 0.000000 1 0 1.000000
  phy
0  -8.353209 -72.224190 49.977573  0.067089 -0.189282 -0.979628  0.000000 0.000000 1 0 1.000000
0  -0.007135 -74.717117 50.029755  0.004172 -0.153312 -0.988169  0.000000 0.000000 1 0 1.000000
0  -14.035622 -68.306511 50.246136  0.055970 -0.131763 -0.989700  0.000000 0.000000 1 0 1.000000
  phy
0  -14.035622 -68.306511 50.246136  0.055970 -0.131763 -0.989700  0.000000 0.000000 1 0 1.000000
0  -0.007135 -74.717117 50.029755  0.004172 -0.153312 -0.988169  0.000000 0.000000 1 0 1.000000
0  -11.155104 -65.296204 50.793804  0.028699 -0.094864 -0.995077  0.000000 0.000000 1 0 1.000000
  phy
0  -14.035622 -68.306511 50.246136  0.055970 -0.131763 -0.989700  0.000000 0.000000 1 0 1.000000
0  -27.409267 -55.572670 51.065678  0.051744 0.211199 -0.976073  0.000000 0.000000 1 0 1.000000
0  -25.455235 -65.257866 49.960655  0.793029 -0.285541 -0.538118  0.000000 0.000000 1 0 1.000000
  phy
0  -11.155104 -65.296204 50.793804  0.028699 -0.094864 -0.995077  0.000000 0.000000 1 0 1.000000
0  -27.409267 -55.572670 51.065678  0.051744 0.211199 -0.976073  0.000000 0.000000 1 0 1.000000
0  -14.035622 -68.306511 50.246136  0.055970 -0.131763 -0.989700  0.000000 0.000000 1 0 1.000000
  phy
0  -14.035622 -68.306511 50.246136  0.055970 -0.131763 -0.989700  0.000000 0.000000 1 0 1.000000
0  -25.455235 -65.257866 49.960655  0.793029 -0.285541 -0.538118  0.000000 0.000000 1 0 1.000000
0  -8.353209 -72.224190 49.977573  0.067089 -0.189282 -0.979628  0.000000 0.000000 1 0 1.000000
  phy
0  -9.542249 -80.320404 46.177757  0.120028 -0.709078 -0.694839  0.000000 0.000000 1 0 1.000000
0  -0.006535 -78.043991 48.624374  0.025660 -0.575183 -0.817622  0.000000 0.000000 1 0 1.000000
0  -1.490287 -77.930176 48.630760  0.061293 -0.600136 -0.797546  0.000000 0.000000 1 0 1.000000
  phy
0  -9.542249 -80.320404 46.177757  0.120028 -0.709078 -0.694839  0.000000 0.000000 1 0 1.000000
0  -0.006443 -81.866020 45.463497  0.006513 -0.281675 0.959488  0.000000 0.000000 1 0 1.000000
0  -0.006535 -78.043991 48.624374  0.025660 -0.575183 -0.817622  0.000000 0.000000 1 0 1.000000
  phy
0  4.342587 -77.400131 48.774815  -0.055531 -0.512790 -0.856716  0.000000 0.000000 1 0 1.000000
0  9.531848 -80.391449 46.016338  -0.090408 -0.752148 -0.652764  0.000000 0.000000 1 0 1.000000
0  10.041499 -76.609726 48.866905  -0.086124 -0.401400 -0.911844  0.000000 0.000000 1 0 1.000000
  phy
0  4.342587 -77.400131 48.774815  -0.055531 -0.512790 -0.856716  0.000000 0.000000 1 0 1.000000
0  1.848623 -77.851585 48.653797  -0.051351 -0.588195 -0.807087  0.000000 0.000000 1 0 1.000000
0  9.531848 -80.391449 46.016338  -0.090408 -0.752148 -0.652764  0.000000 0.000000 1 0 1.000000
  phy
0  9.531848 -80.391449 46.016338  -0.090408 -0.752148 -0.652764  0.000000 0.000000 1 0 1.000000
0  9.916695 -80.300262 46.051491  -0.149916 -0.678723 -0.718930  0.000000 0.000000 1 0 1.000000
0  10.041499 -76.609726 48.866905  -0.086124 -0.401400 -0.911844  0.000000 0.000000 1 0 1.000000
  phy
0  -0.007135 -74.717117 50.029755  0.004172 -0.153312 -0.988169  0.000000 0.000000 1 0 1.000000
0  1.848623 -77.851585 48.653797  -0.051351 -0.588195 -0.807087  0.000000 0.000000 1 0 1.000000
0  4.342587 -77.400131 48.774815  -0.055531 -0.512790 -0.856716  0.000000 0.000000 1 0 1.000000
  phy
0  -0.007135 -74.717117 50.029755  0.004172 -0.153312 -0.988169  0.000000 0.000000 1 0 1.000000
0  -0.006535 -78.043991 48.624374  0.025660 -0.575183 -0.817622  0.000000 0.000000 1 0 1.000000
0  1.848623 -77.851585 48.653797  -0.051351 -0.588195 -0.807087  0.000000 0.000000 1 0 1.000000
  phy
0  -0.006443 -81.866020 45.463497  0.006513 -0.281675 0.959488  0.000000 0.000000 1 0 1.000000
0  1.848623 -77.851585 48.653797  -0.051351 -0.588195 -0.807087  0.000000 0.000000 1 0 1.000000
0  -0.006535 -78.043991 48.624374  0.025660 -0.575183 -0.817622  0.000000 0.000000 1 0 1.000000
  phy
0  -0.006443 -81.866020 45.463497  0.006513 -0.281675 0.959488  0.000000 0.000000 1 0 1.000000
0  9.531848 -80.391449 46.016338  -0.090408 -0.752148 -0.652764  0.000000 0.000000 1 0 1.000000
0  1.848623 -77.851585 48.653797  -0.051351 -0.588195 -0.807087  0.000000 0.000000 1 0 1.000000
  phy
0  22.910631 -74.456734 48.407810  -0.818578 -0.382293 -0.428699  0.000000 0.000000 1 0 1.000000
0  10.041499 -76.609726 48.866905  -0.086124 -0.401400 -0.911844  0.000000 0.000000 1 0 1.000000
0  9.916695 -80.300262 46.051491  -0.149916 -0.678723 -0.718930  0.000000 0.000000 1 0 1.000000
  phy
0  9.916695 -80.300262 46.051491  -0.149916 -0.678723 -0.718930  0.000000 0.000000 1 0 1.000000
0  21.988348 -77.151695 46.488045  -0.743345 -0.423275 0.517954  0.000000 0.000000 1 0 1.000000
0  22.910631 -74.456734 48.407810  -0.818578 -0.382293 -0.428699  0.000000 0.000000 1 0 1.000000
  phy
0  22.910631 -74.456734 48.407810  -0.818578 -0.382293 -0.428699  0.000000 0.000000 1 0 1.000000
0  31.914618 -36.665844 36.771759  -0.960970 -0.253124 0.111645  0.000000 0.000000 1 0 1.000000
0  30.069307 -46.148636 45.758228  -0.974566 -0.223855 0.010455  0.000000 0.000000 1 0 1.000000
  phy
0  22.910631 -74.456734 48.407810  -0.818578 -0.382293 -0.428699  0.000000 0.000000 1 0 1.000000
0  21.988348 -77.151695 46.488045  -0.743345 -0.423275 0.517954  0.000000 0.000000 1 0 1.000000
0  31.914618 -36.665844 36.771759  -0.960970 -0.253124 0.111645  0.000000 0.000000 1 0 1.000000
  phy
0  30.069307 -46.148636 45.758228  -0.974566 -0.223855 0.010455  0.000000 0.000000 1 0 1.000000
0  25.305819 -65.270523 50.005779  -0.486162 -0.242208 -0.839632  0.000000 0.000000 1 0 1.000000
0  22.910631 -74.456734 48.407810  -0.818578 -0.382293 -0.428699  0.000000 0.000000 1 0 1.000000
  phy
0  27.536024 -55.665966 50.475639  -0.970584 -0.220199 -0.097364  0.000000 0.000000 1 0 1.000000
0  25.305819 -65.270523 50.005779  -0.486162 -0.242208 -0.839632  0.000000 0.000000 1 0 1.000000
0  30.069307 -46.148636 45.758228  -0.974566 -0.223855 0.010455  0.000000 0.000000 1 0 1.000000
  phy
0  30.069307 -46.148636 45.758228  -0.974566 -0.223855 0.010455  0.000000 0.000000 1 0 1.000000
0  27.398348 -55.575291 51.068523  -0.051499 0.210332 -0.976273  0.000000 0.000000 1 0 1.000000
0  27.536024 -55.665966 50.475639  -0.970584 -0.220199 -0.097364  0.000000 0.000000 1 0 1.000000
  phy
0  27.536024 -55.665966 50.475639  -0.970584 -0.220199 -0.097364  0.000000 0.000000 1 0 1.000000
0  27.398348 -55.575291 51.068523  -0.051499 0.210332 -0.976273  0.000000 0.000000 1 0 1.000000
0  25.305819 -65.270523 50.005779  -0.486162 -0.242208 -0.839632  0.000000 0.000000 1 0 1.000000
  phy
0  9.916695 -80.300262 46.051491  -0.149916 -0.678723 -0.718930  0.000000 0.000000 1 0 1.000000
0  18.753750 -77.663048 45.603100  -0.110434 -0.309999 0.944301  0.000000 0.000000 1 0 1.000000
0  21.988348 -77.151695 46.488045  -0.743345 -0.423275 0.517954  0.000000 0.000000 1 0 1.000000
  phy
0  9.916695 -80.300262 46.051491  -0.149916 -0.678723 -0.718930  0.000000 0.000000 1 0 1.000000
0  9.531848 -80.391449 46.016338  -0.090408 -0.752148 -0.652764  0.000000 0.000000 1 0 1.000000
0  18.753750 -77.663048 45.603100  -0.110434 -0.309999 0.944301  0.000000 0.000000 1 0 1.000000
  phy
0  -30.148092 -45.988018 45.363426  0.975850 -0.218431 0.002369  0.000000 0.000000 1 0 1.000000
0  -31.922117 -36.662701 36.768379  0.960408 -0.254883 0.112480  0.000000 0.000000 1 0 1.000000
0  -25.455235 -65.257866 49.960655  0.793029 -0.285541 -0.538118  0.000000 0.000000 1 0 1.000000
  phy
0  -22.000914 -77.149521 46.485737  0.743728 -0.426871 0.514442  0.000000 0.000000 1 0 1.000000
0  -9.542249 -80.320404 46.177757  0.120028 -0.709078 -0.694839  0.000000 0.000000 1 0 1.000000
0  -22.922754 -74.454102 48.405334  0.670248 -0.395586 -0.627917  0.000000 0.000000 1 0 1.000000
  phy
0  -22.000914 -77.149521 46.485737  0.743728 -0.426871 0.514442  0.000000 0.000000 1 0 1.000000
0  -18.766443 -77.661110 45.601143  0.111083 -0.313075 0.943210  0.000000 0.000000 1 0 1.000000
0  -9.542249 -80.320404 46.177757  0.120028 -0.709078 -0.694839  0.000000 0.000000 1 0 1.000000
  phy
0  -18.766443 -77.661110 45.601143  0.111083 -0.313075 0.943210  0.000000 0.000000 1 0 1.000000
0  -22.000914 -77.149521 46.485737  0.743728 -0.426871 0.514442  0.000000 0.000000 1 0 1.000000
0  -32.403179 -28.451448 31.649500  0.038578 -0.180953 0.982735  0.000000 0.000000 1 0 1.000000
  phy
0  -31.922117 -36.662701 36.768379  0.960408 -0.254883 0.112480  0.000000 0.000000 1 0 1.000000
0  -22.000914 -77.149521 46.485737  0.743728 -0.426871 0.514442  0.000000 0.000000 1 0 1.000000
0  -22.922754 -74.454102 48.405334  0.670248 -0.395586 -0.627917  0.000000 0.000000 1 0 1.000000
  phy
0  -22.922754 -74.454102 48.405334  0.670248 -0.395586 -0.627917  0.000000 0.000000 1 0 1.000000
0  -0.007135 -74.717117 50.029755  0.004172 -0.153312 -0.988169  0.000000 0.000000 1 0 1.000000
0  -8.353209 -72.224190 49.977573  0.067089 -0.189282 -0.979628  0.000000 0.000000 1 0 1.000000
  phy
0  -27.546890 -55.663269 50.472713  0.971088 -0.209964 -0.113591  0.000000 0.000000 1 0 1.000000
0  -25.455235 -65.257866 49.960655  0.793029 -0.285541 -0.538118  0.000000 0.000000 1 0 1.000000
0  -27.409267 -55.572670 51.065678  0.051744 0.211199 -0.976073  0.000000 0.000000 1 0 1.000000
  phy
0  -10.069690 -76.608246 48.864799  0.089863 -0.455816 -0.885526  0.000000 0.000000 1 0 1.000000
0  -0.007135 -74.717117 50.029755  0.004172 -0.153312 -0.988169  0.000000 0.000000 1 0 1.000000
0  -22.922754 -74.454102 48.405334  0.670248 -0.395586 -0.627917  0.000000 0.000000 1 0 1.000000
  phy
0  -22.922754 -74.454102 48.405334  0.670248 -0.395586 -0.627917  0.000000 0.000000 1 0 1.000000
0  -9.542249 -80.320404 46.177757  0.120028 -0.709078 -0.694839  0.000000 0.000000 1 0 1.000000
0  -10.069690 -76.608246 48.864799  0.089863 -0.455816 -0.885526  0.000000 0.000000 1 0 1.000000
  phy
0  10.041499 -76.609726 48.866905  -0.086124 -0.401400 -0.911844  0.000000 0.000000 1 0 1.000000
0  -0.007135 -74.717117 50.029755  0.004172 -0.153312 -0.988169  0.000000 0.000000 1 0 1.000000
0  4.342587 -77.400131 48.774815  -0.055531 -0.512790 -0.856716  0.000000 0.000000 1 0 1.000000
  phy
0  11.142854 -65.297104 50.794971  -0.028705 -0.095027 -0.995061  0.000000 0.000000 1 0 1.000000
0  -0.007135 -74.717117 50.029755  0.004172 -0.153312 -0.988169  0.000000 0.000000 1 0 1.000000
0  15.330037 -67.764641 50.260468  -0.054613 -0.131533 -0.989806  0.000000 0.000000 1 0 1.000000
  phy
0  25.305819 -65.270523 50.005779  -0.486162 -0.242208 -0.839632  0.000000 0.000000 1 0 1.000000
0  27.398348 -55.575291 51.068523  -0.051499 0.210332 -0.976273  0.000000 0.000000 1 0 1.000000
0  15.330037 -67.764641 50.260468  -0.054613 -0.131533 -0.989806  0.000000 0.000000 1 0 1.000000
  phy
0  15.330037 -67.764641 50.260468  -0.054613 -0.131533 -0.989806  0.000000 0.000000 1 0 1.000000
0  27.398348 -55.575291 51.068523  -0.051499 0.210332 -0.976273  0.000000 0.000000 1 0 1.000000
0  11.142854 -65.297104 50.794971  -0.028705 -0.095027 -0.995061  0.000000 0.000000 1 0 1.000000
  phy
0  30.069307 -46.148636 45.758228  -0.974566 -0.223855 0.010455  0.000000 0.000000 1 0 1.000000
0  31.914618 -36.665844 36.771759  -0.960970 -0.253124 0.111645  0.000000 0.000000 1 0 1.000000
0  32.823505 -29.976498 32.886765  -0.875646 0.308417 -0.371648  0.000000 0.000000 1 0 1.000000
  phy
0  32.823505 -29.976498 32.886765  -0.875646 0.308417 -0.371648  0.000000 0.000000 1 0 1.000000
0  29.945406 -45.800617 46.279400  -0.079061 0.518465 -0.851436  0.000000 0.000000 1 0 1.000000
0  30.069307 -46.148636 45.758228  -0.974566 -0.223855 0.010455  0.000000 0.000000 1 0 1.000000
  phy
0  29.945406 -45.800617 46.279400  -0.079061 0.518465 -0.851436  0.000000 0.000000 1 0 1.000000
0  27.398348 -55.575291 51.068523  -0.051499 0.210332 -0.976273  0.000000 0.000000 1 0 1.000000
0  30.069307 -46.148636 45.758228  -0.974566 -0.223855 0.010455  0.000000 0.000000 1 0 1.000000
  phy
0  24.579357 -33.491772 36.450134  -0.037816 0.646022 -0.762381  0.000000 0.000000 1 0 1.000000
0  32.823505 -29.976498 32.886765  -0.875646 0.308417 -0.371648  0.000000 0.000000 1 0 1.000000
0  32.397297 -28.453922 31.652683  -0.038577 -0.180934 0.982738  0.000000 0.000000 1 0 1.000000
  phy
0  24.579357 -33.491772 36.450134  -0.037816 0.646022 -0.762381  0.000000 0.000000 1 0 1.000000
0  29.945406 -45.800617 46.279400  -0.079061 0.518465 -0.851436  0.000000 0.000000 1 0 1.000000
0  32.823505 -29.976498 32.886765  -0.875646 0.308417 -0.371648  0.000000 0.000000 1 0 1.000000
  phy
0  24.579357 -33.491772 36.450134  -0.037816 0.646022 -0.762381  0.000000 0.000000 1 0 1.000000
0  23.376051 -45.122360 46.223217  -0.031130 0.636637 -0.770535  0.000000 0.000000 1 0 1.000000
0  29.945406 -45.800617 46.279400  -0.079061 0.518465 -0.851436  0.000000 0.000000 1 0 1.000000
  phy
0  31.914618 -36.665844 36.771759  -0.960970 -0.253124 0.111645  0.000000 0.000000 1 0 1.000000
0  21.988348 -77.151695 46.488045  -0.743345 -0.423275 0.517954  0.000000 0.000000 1 0 1.000000
0  32.823505 -29.976498 32.886765  -0.875646 0.308417 -0.371648  0.000000 0.000000 1 0 1.000000
  phy
0  21.988348 -77.151695 46.488045  -0.743345 -0.423275 0.517954  0.000000 0.000000 1 0 1.000000
0  32.397297 -28.453922 31.652683  -0.038577 -0.180934 0.982738  0.000000 0.000000 1 0 1.000000
0  32.823505 -29.976498 32.886765  -0.875646 0.308417 -0.371648  0.000000 0.000000 1 0 1.000000
  phy
0  24.579357 -33.491772 36.450134  -0.037816 0.646022 -0.762381  0.000000 0.000000 1 0 1.000000
0  -0.003652 -33.471115 37.298824  -0.000131 0.669189 -0.743092  0.000000 0.000000 1 0 1.000000
0  23.376051 -45.122360 46.223217  -0.031130 0.636637 -0.770535  0.000000 0.000000 1 0 1.000000
  phy
0  -0.003652 -33.471115 37.298824  -0.000131 0.669189 -0.743092  0.000000 0.000000 1 0 1.000000
0  -0.004824 -45.495640 47.359138  -0.001482 0.501414 -0.865206  0.000000 0.000000 1 0 1.000000
0  23.376051 -45.122360 46.223217  -0.031130 0.636637 -0.770535  0.000000 0.000000 1 0 1.000000
  phy
0  24.579357 -33.491772 36.450134  -0.037816 0.646022 -0.762381  0.000000 0.000000 1 0 1.000000
0  32.397297 -28.453922 31.652683  -0.038577 -0.180934 0.982738  0.000000 0.000000 1 0 1.000000
0  -0.003652 -33.471115 37.298824  -0.000131 0.669189 -0.743092  0.000000 0.000000 1 0 1.000000
  phy
0  18.753750 -77.663048 45.603100  -0.110434 -0.309999 0.944301  0.000000 0.000000 1 0 1.000000
0  9.531848 -80.391449 46.016338  -0.090408 -0.752148 -0.652764  0.000000 0.000000 1 0 1.000000
0  -0.006443 -81.866020 45.463497  0.006513 -0.281675 0.959488  0.000000 0.000000 1 0 1.000000
  phy
0  -0.004824 -45.495640 47.359138  -0.001482 0.501414 -0.865206  0.000000 0.000000 1 0 1.000000
0  -23.386969 -45.120003 46.220688  0.032847 0.583767 -0.811256  0.000000 0.000000 1 0 1.000000
0  -27.409267 -55.572670 51.065678  0.051744 0.211199 -0.976073  0.000000 0.000000 1 0 1.000000
  phy
0  -23.386969 -45.120003 46.220688  0.032847 0.583767 -0.811256  0.000000 0.000000 1 0 1.000000
0  -29.954845 -45.797585 46.276260  0.112641 0.584695 -0.803395  0.000000 0.000000 1 0 1.000000
0  -27.409267 -55.572670 51.065678  0.051744 0.211199 -0.976073  0.000000 0.000000 1 0 1.000000
  phy
0  -24.587847 -33.489258 36.447441  0.037703 0.645990 -0.762414  0.000000 0.000000 1 0 1.000000
0  -23.386969 -45.120003 46.220688  0.032847 0.583767 -0.811256  0.000000 0.000000 1 0 1.000000
0  -0.003652 -33.471115 37.298824  -0.000131 0.669189 -0.743092  0.000000 0.000000 1 0 1.000000
  phy
0  -23.386969 -45.120003 46.220688  0.032847 0.583767 -0.811256  0.000000 0.000000 1 0 1.000000
0  -0.004824 -45.495640 47.359138  -0.001482 0.501414 -0.865206  0.000000 0.000000 1 0 1.000000
0  -0.003652 -33.471115 37.298824  -0.000131 0.669189 -0.743092  0.000000 0.000000 1 0 1.000000
  phy
0  -25.455235 -65.257866 49.960655  0.793029 -0.285541 -0.538118  0.000000 0.000000 1 0 1.000000
0  -31.922117 -36.662701 36.768379  0.960408 -0.254883 0.112480  0.000000 0.000000 1 0 1.000000
0  -22.922754 -74.454102 48.405334  0.670248 -0.395586 -0.627917  0.000000 0.000000 1 0 1.000000
  phy
0  -0.004824 -45.495640 47.359138  -0.001482 0.501414 -0.865206  0.000000 0.000000 1 0 1.000000
0  29.945406 -45.800617 46.279400  -0.079061 0.518465 -0.851436  0.000000 0.000000 1 0 1.000000
0  23.376051 -45.122360 46.223217  -0.031130 0.636637 -0.770535  0.000000 0.000000 1 0 1.000000
  phy
0  -0.004824 -45.495640 47.359138  -0.001482 0.501414 -0.865206  0.000000 0.000000 1 0 1.000000
0  27.398348 -55.575291 51.068523  -0.051499 0.210332 -0.976273  0.000000 0.000000 1 0 1.000000
0  29.945406 -45.800617 46.279400  -0.079061 0.518465 -0.851436  0.000000 0.000000 1 0 1.000000
  phy
0  21.988348 -77.151695 46.488045  -0.743345 -0.423275 0.517954  0.000000 0.000000 1 0 1.000000
0  18.753750 -77.663048 45.603100  -0.110434 -0.309999 0.944301  0.000000 0.000000 1 0 1.000000
0  32.397297 -28.453922 31.652683  -0.038577 -0.180934 0.982738  0.000000 0.000000 1 0 1.000000
  phy
0  32.397297 -28.453922 31.652683  -0.038577 -0.180934 0.982738  0.000000 0.000000 1 0 1.000000
0  18.753750 -77.663048 45.603100  -0.110434 -0.309999 0.944301  0.000000 0.000000 1 0 1.000000
0  -0.006443 -81.866020 45.463497  0.006513 -0.281675 0.959488  0.000000 0.000000 1 0 1.000000
  phy
0  -0.003652 -33.471115 37.298824  -0.000131 0.669189 -0.743092  0.000000 0.000000 1 0 1.000000
0  -32.403179 -28.451448 31.649500  0.038578 -0.180953 0.982735  0.000000 0.000000 1 0 1.000000
0  -24.587847 -33.489258 36.447441  0.037703 0.645990 -0.762414  0.000000 0.000000 1 0 1.000000
  phy
0  -18.766443 -77.661110 45.601143  0.111083 -0.313075 0.943210  0.000000 0.000000 1 0 1.000000
0  -0.006443 -81.866020 45.463497  0.006513 -0.281675 0.959488  0.000000 0.000000 1 0 1.000000
0  -9.542249 -80.320404 46.177757  0.120028 -0.709078 -0.694839  0.000000 0.000000 1 0 1.000000
  phy
0  11.142854 -65.297104 50.794971  -0.028705 -0.095027 -0.995061  0.000000 0.000000 1 0 1.000000
0  -0.004528 -55.997501 51.825779  0.000056 0.108560 -0.994090  0.000000 0.000000 1 0 1.000000
0  -0.007135 -74.717117 50.029755  0.004172 -0.153312 -0.988169  0.000000 0.000000 1 0 1.000000
  phy
0  27.398348 -55.575291 51.068523  -0.051499 0.210332 -0.976273  0.000000 0.000000 1 0 1.000000
0  -0.004528 -55.997501 51.825779  0.000056 0.108560 -0.994090  0.000000 0.000000 1 0 1.000000
0  11.142854 -65.297104 50.794971  -0.028705 -0.095027 -0.995061  0.000000 0.000000 1 0 1.000000
  phy
0  -0.007135 -74.717117 50.029755  0.004172 -0.153312 -0.988169  0.000000 0.000000 1 0 1.000000
0  -0.004528 -55.997501 51.825779  0.000056 0.108560 -0.994090  0.000000 0.000000 1 0 1.000000
0  -11.155104 -65.296204 50.793804  0.028699 -0.094864 -0.995077  0.000000 0.000000 1 0 1.000000
  phy
0  -11.155104 -65.296204 50.793804  0.028699 -0.094864 -0.995077  0.000000 0.000000 1 0 1.000000
0  -0.004528 -55.997501 51.825779  0.000056 0.108560 -0.994090  0.000000 0.000000 1 0 1.000000
0  -27.409267 -55.572670 51.065678  0.051744 0.211199 -0.976073  0.000000 0.000000 1 0 1.000000
  phy
0  -0.003652 -33.471115 37.298824  -0.000131 0.669189 -0.743092  0.000000 0.000000 1 0 1.000000
0  32.397297 -28.453922 31.652683  -0.038577 -0.180934 0.982738  0.000000 0.000000 1 0 1.000000
0  -32.403179 -28.451448 31.649500  0.038578 -0.180953 0.982735  0.000000 0.000000 1 0 1.000000
  phy
0  -0.006443 -81.866020 45.463497  0.006513 -0.281675 0.959488  0.000000 0.000000 1 0 1.000000
0  -18.766443 -77.661110 45.601143  0.111083 -0.313075 0.943210  0.000000 0.000000 1 0 1.000000
0  -32.403179 -28.451448 31.649500  0.038578 -0.180953 0.982735  0.000000 0.000000 1 0 1.000000
  phy
0  -0.004824 -45.495640 47.359138  -0.001482 0.501414 -0.865206  0.000000 0.000000 1 0 1.000000
0  -0.004528 -55.997501 51.825779  0.000056 0.108560 -0.994090  0.000000 0.000000 1 0 1.000000
0  27.398348 -55.575291 51.068523  -0.051499 0.210332 -0.976273  0.000000 0.000000 1 0 1.000000
  phy
0  -27.409267 -55.572670 51.065678  0.051744 0.211199 -0.976073  0.000000 0.000000 1 0 1.000000
0  -0.004528 -55.997501 51.825779  0.000056 0.108560 -0.994090  0.000000 0.000000 1 0 1.000000
0  -0.004824 -45.495640 47.359138  -0.001482 0.501414 -0.865206  0.000000 0.000000 1 0 1.000000
  phy
0  32.397297 -28.453922 31.652683  -0.038577 -0.180934 0.982738  0.000000 0.000000 1 0 1.000000
0  -0.006443 -81.866020 45.463497  0.006513 -0.281675 0.959488  0.000000 0.000000 1 0 1.000000
0  -32.403179 -28.451448 31.649500  0.038578 -0.180953 0.982735  0.000000 0.000000 1 0 1.000000
end
