version 1
nodes
0 "root" -1
1 "steering_wheel" 0
end
skeleton
time 0
0  0.000000 0.000000 0.000000  0.000000 -0.000000 -0.000000
1  19.916300 17.934299 33.308498  0.000000 -0.000000 0.000000
end
triangles
misc
0  37.712952 -7.060852 30.046478  0.765594 0.434043 0.474840  0.466750 0.546617 1 0 1.000000
0  37.754242 -7.115907 30.005188  0.765593 0.434039 0.474845  0.466262 0.547136 1 0 1.000000
0  37.740479 -7.047088 29.977659  0.765598 0.434044 0.474833  0.466506 0.546373 1 0 1.000000
misc
0  37.726715 -7.115907 29.991423  -0.872653 -0.108029 0.476242  0.467971 0.529252 1 0 1.000000
0  37.699184 -7.033323 29.963896  -0.872636 -0.108094 0.476257  0.468215 0.528489 1 0 1.000000
0  37.589073 -7.253546 29.702385  -0.907424 -0.143370 0.395003  0.469680 0.530961 1 0 1.000000
misc
0  37.561546 -7.184726 29.688622  -0.907413 -0.143598 0.394944  0.469680 0.530198 1 0 1.000000
0  37.589073 -7.253546 29.702385  -0.907424 -0.143370 0.395003  0.469680 0.530961 1 0 1.000000
0  37.699184 -7.033323 29.963896  -0.872636 -0.108094 0.476257  0.468215 0.528489 1 0 1.000000
misc
0  37.589073 -7.253546 29.702385  -0.907424 -0.143370 0.395003  0.469680 0.530961 1 0 1.000000
0  37.561546 -7.184726 29.688622  -0.907413 -0.143598 0.394944  0.469680 0.530198 1 0 1.000000
0  37.451435 -7.404947 29.220646  -0.964756 -0.211173 0.157007  0.471175 0.532670 1 0 1.000000
misc
0  37.437672 -7.336129 29.206882  -0.964762 -0.211177 0.156964  0.471175 0.531663 1 0 1.000000
0  37.451435 -7.404947 29.220646  -0.964756 -0.211173 0.157007  0.471175 0.532670 1 0 1.000000
0  37.561546 -7.184726 29.688622  -0.907413 -0.143598 0.394944  0.469680 0.530198 1 0 1.000000
misc
0  37.451435 -7.404947 29.220646  -0.964756 -0.211173 0.157007  0.471175 0.532670 1 0 1.000000
0  37.437672 -7.336129 29.206882  -0.964762 -0.211177 0.156964  0.471175 0.531663 1 0 1.000000
0  37.465199 -7.460003 28.628803  -0.970959 -0.239245 0.000001  0.470931 0.533158 1 0 1.000000
misc
0  37.451435 -7.391184 28.628803  -0.970964 -0.239224 -0.000030  0.471175 0.532426 1 0 1.000000
0  37.465199 -7.460003 28.628803  -0.970959 -0.239245 0.000001  0.470931 0.533158 1 0 1.000000
0  37.437672 -7.336129 29.206882  -0.964762 -0.211177 0.156964  0.471175 0.531663 1 0 1.000000
misc
0  37.520256 -7.404947 28.628803  0.279311 0.956608 -0.082988  0.470168 0.532670 1 0 1.000000
0  37.451435 -7.391184 28.628803  0.279262 0.956622 -0.082992  0.471175 0.532426 1 0 1.000000
0  37.506493 -7.349893 29.206882  0.265734 0.939151 -0.217670  0.470412 0.531907 1 0 1.000000
misc
0  37.437672 -7.336129 29.206882  0.266019 0.939058 -0.217724  0.471175 0.531663 1 0 1.000000
0  37.506493 -7.349893 29.206882  0.265734 0.939151 -0.217670  0.470412 0.531907 1 0 1.000000
0  37.451435 -7.391184 28.628803  0.279262 0.956622 -0.082992  0.471175 0.532426 1 0 1.000000
misc
0  37.506493 -7.349893 29.206882  0.265734 0.939151 -0.217670  0.470412 0.531907 1 0 1.000000
0  37.437672 -7.336129 29.206882  0.266019 0.939058 -0.217724  0.471175 0.531663 1 0 1.000000
0  37.630367 -7.212254 29.661089  0.217959 0.872329 -0.437648  0.468978 0.530442 1 0 1.000000
misc
0  37.561546 -7.184726 29.688622  0.217962 0.872314 -0.437678  0.469680 0.530198 1 0 1.000000
0  37.630367 -7.212254 29.661089  0.217959 0.872329 -0.437648  0.468978 0.530442 1 0 1.000000
0  37.437672 -7.336129 29.206882  0.266019 0.939058 -0.217724  0.471175 0.531663 1 0 1.000000
misc
0  37.630367 -7.212254 29.661089  0.217959 0.872329 -0.437648  0.468978 0.530442 1 0 1.000000
0  37.561546 -7.184726 29.688622  0.217962 0.872314 -0.437678  0.469680 0.530198 1 0 1.000000
0  37.768005 -7.060852 29.950132  0.184784 0.832564 -0.522199  0.467452 0.528733 1 0 1.000000
misc
0  37.699184 -7.033323 29.963896  0.184829 0.832538 -0.522224  0.468215 0.528489 1 0 1.000000
0  37.768005 -7.060852 29.950132  0.184784 0.832564 -0.522199  0.467452 0.528733 1 0 1.000000
0  37.561546 -7.184726 29.688622  0.217962 0.872314 -0.437678  0.469680 0.530198 1 0 1.000000
misc
0  37.712952 -7.060852 30.046478  -0.523575 0.849358 0.066790  0.466750 0.546617 1 0 1.000000
0  37.740479 -7.047088 29.977659  -0.523778 0.849192 0.067300  0.466506 0.546373 1 0 1.000000
0  37.437672 -7.212254 29.881313  -0.563328 0.825626 0.031659  0.469680 0.548326 1 0 1.000000
misc
0  37.478962 -7.184726 29.812496  -0.564829 0.824714 0.028558  0.469161 0.548143 1 0 1.000000
0  37.437672 -7.212254 29.881313  -0.563328 0.825626 0.031659  0.469680 0.548326 1 0 1.000000
0  37.740479 -7.047088 29.977659  -0.523778 0.849192 0.067300  0.466506 0.546373 1 0 1.000000
misc
0  37.437672 -7.212254 29.881313  -0.563328 0.825626 0.031659  0.469680 0.548326 1 0 1.000000
0  37.478962 -7.184726 29.812496  -0.564829 0.824714 0.028558  0.469161 0.548143 1 0 1.000000
0  37.148628 -7.432476 29.399580  -0.576382 0.817030 -0.015716  0.472884 0.550798 1 0 1.000000
misc
0  37.217449 -7.404947 29.358290  -0.575098 0.817934 -0.015693  0.472121 0.550340 1 0 1.000000
0  37.148628 -7.432476 29.399580  -0.576382 0.817030 -0.015716  0.472884 0.550798 1 0 1.000000
0  37.478962 -7.184726 29.812496  -0.564829 0.824714 0.028558  0.469161 0.548143 1 0 1.000000
misc
0  37.148628 -7.432476 29.399580  -0.576382 0.817030 -0.015716  0.472884 0.550798 1 0 1.000000
0  37.217449 -7.404947 29.358290  -0.575098 0.817934 -0.015693  0.472121 0.550340 1 0 1.000000
0  37.024754 -7.515058 28.807735  -0.568732 0.822523 0.000000  0.474105 0.551805 1 0 1.000000
misc
0  37.093575 -7.473767 28.780203  -0.568767 0.822499 0.000021  0.473586 0.551286 1 0 1.000000
0  37.024754 -7.515058 28.807735  -0.568732 0.822523 0.000000  0.474105 0.551805 1 0 1.000000
0  37.217449 -7.404947 29.358290  -0.575098 0.817934 -0.015693  0.472121 0.550340 1 0 1.000000
misc
0  37.093575 -7.556351 28.793972  0.975880 0.066132 -0.208048  0.473342 0.552049 1 0 1.000000
0  37.093575 -7.473767 28.780203  0.975893 0.066166 -0.207980  0.473586 0.551286 1 0 1.000000
0  37.217449 -7.473767 29.372053  0.932105 0.026474 -0.361220  0.472121 0.551286 1 0 1.000000
misc
0  37.217449 -7.404947 29.358290  0.930942 0.026428 -0.364210  0.472121 0.550340 1 0 1.000000
0  37.217449 -7.473767 29.372053  0.932105 0.026474 -0.361220  0.472121 0.551286 1 0 1.000000
0  37.093575 -7.473767 28.780203  0.975893 0.066166 -0.207980  0.473586 0.551286 1 0 1.000000
misc
0  37.217449 -7.473767 29.372053  0.932105 0.026474 -0.361220  0.472121 0.551286 1 0 1.000000
0  37.217449 -7.404947 29.358290  0.930942 0.026428 -0.364210  0.472121 0.550340 1 0 1.000000
0  37.492729 -7.253546 29.840023  0.740949 -0.080834 -0.666679  0.468978 0.548845 1 0 1.000000
misc
0  37.478962 -7.184726 29.812496  0.738297 -0.081529 -0.669531  0.469161 0.548143 1 0 1.000000
0  37.492729 -7.253546 29.840023  0.740949 -0.080834 -0.666679  0.468978 0.548845 1 0 1.000000
0  37.217449 -7.404947 29.358290  0.930942 0.026428 -0.364210  0.472121 0.550340 1 0 1.000000
misc
0  37.492729 -7.253546 29.840023  0.740949 -0.080834 -0.666679  0.468978 0.548845 1 0 1.000000
0  37.478962 -7.184726 29.812496  0.738297 -0.081529 -0.669531  0.469161 0.548143 1 0 1.000000
0  37.754242 -7.115907 30.005188  0.586029 -0.164254 -0.793467  0.466262 0.547136 1 0 1.000000
misc
0  37.740479 -7.047088 29.977659  0.586034 -0.164256 -0.793463  0.466506 0.546373 1 0 1.000000
0  37.754242 -7.115907 30.005188  0.586029 -0.164254 -0.793467  0.466262 0.547136 1 0 1.000000
0  37.478962 -7.184726 29.812496  0.738297 -0.081529 -0.669531  0.469161 0.548143 1 0 1.000000
misc
0  38.235973 -4.445720 29.564743  -0.705213 0.041356 -0.707788  0.473128 0.549577 1 0 1.000000
0  37.093575 -4.542067 30.679619  -0.705299 0.041286 -0.707706  0.472884 0.549577 1 0 1.000000
0  37.685421 -4.211735 30.115299  -0.705302 0.041300 -0.707703  0.472884 0.549577 1 0 1.000000
misc
0  37.093575 -4.542067 30.679619  -0.705299 0.041286 -0.707706  0.472884 0.549577 1 0 1.000000
0  38.235973 -4.445720 29.564743  -0.705213 0.041356 -0.707788  0.473128 0.549577 1 0 1.000000
0  36.818298 -5.478009 30.899839  -0.705300 0.041293 -0.707706  0.472884 0.549577 1 0 1.000000
misc
0  38.731476 -5.560592 29.000423  -0.705287 0.041317 -0.707717  0.473128 0.549577 1 0 1.000000
0  36.818298 -5.478009 30.899839  -0.705300 0.041293 -0.707706  0.472884 0.549577 1 0 1.000000
0  38.235973 -4.445720 29.564743  -0.705213 0.041356 -0.707788  0.473128 0.549577 1 0 1.000000
misc
0  36.818298 -5.478009 30.899839  -0.705300 0.041293 -0.707706  0.472884 0.549577 1 0 1.000000
0  38.731476 -5.560592 29.000423  -0.705287 0.041317 -0.707717  0.473128 0.549577 1 0 1.000000
0  36.694424 -7.336129 30.913603  -0.704962 0.041329 -0.708040  0.472884 0.549333 1 0 1.000000
misc
0  38.772766 -7.432476 28.849024  -0.705292 0.041301 -0.707713  0.473128 0.549333 1 0 1.000000
0  36.694424 -7.336129 30.913603  -0.704962 0.041329 -0.708040  0.472884 0.549333 1 0 1.000000
0  38.731476 -5.560592 29.000423  -0.705287 0.041317 -0.707717  0.473128 0.549577 1 0 1.000000
misc
0  38.772766 -7.432476 28.849024  -0.705292 0.041301 -0.707713  0.473128 0.549333 1 0 1.000000
0  38.552544 -9.111665 28.959133  -0.705091 0.040811 -0.707941  0.473128 0.549333 1 0 1.000000
0  36.694424 -7.336129 30.913603  -0.704962 0.041329 -0.708040  0.472884 0.549333 1 0 1.000000
misc
0  36.832066 -9.125429 30.679619  -0.705352 0.040713 -0.707687  0.472884 0.549333 1 0 1.000000
0  36.694424 -7.336129 30.913603  -0.704962 0.041329 -0.708040  0.472884 0.549333 1 0 1.000000
0  38.552544 -9.111665 28.959133  -0.705091 0.040811 -0.707941  0.473128 0.549333 1 0 1.000000
misc
0  36.832066 -9.125429 30.679619  -0.705352 0.040713 -0.707687  0.472884 0.549333 1 0 1.000000
0  38.552544 -9.111665 28.959133  -0.705091 0.040811 -0.707941  0.473128 0.549333 1 0 1.000000
0  37.341324 -9.965023 30.129063  -0.705280 0.040270 -0.707784  0.472884 0.549333 1 0 1.000000
misc
0  38.084572 -9.662219 29.399578  -0.706115 0.042446 -0.706824  0.473128 0.549333 1 0 1.000000
0  37.341324 -9.965023 30.129063  -0.705280 0.040270 -0.707784  0.472884 0.549333 1 0 1.000000
0  38.552544 -9.111665 28.959133  -0.705091 0.040811 -0.707941  0.473128 0.549333 1 0 1.000000
misc
0  37.451435 -7.391184 28.628803  0.022769 -0.092579 -0.995445  0.471175 0.532426 1 0 1.000000
0  37.520256 -7.404947 28.628803  0.022716 -0.092587 -0.995445  0.470168 0.532670 1 0 1.000000
0  37.465199 -7.460003 28.628803  0.022729 -0.092686 -0.995436  0.470931 0.533158 1 0 1.000000
misc
0  37.024754 -7.515058 28.807735  -0.407065 -0.889395 0.208022  0.474105 0.551805 1 0 1.000000
0  37.093575 -7.556351 28.793972  -0.407062 -0.889398 0.208019  0.473342 0.552049 1 0 1.000000
0  37.148628 -7.432476 29.399580  -0.337476 -0.859978 0.382817  0.472884 0.550798 1 0 1.000000
misc
0  37.217449 -7.473767 29.372053  -0.343528 -0.862991 0.370451  0.472121 0.551286 1 0 1.000000
0  37.148628 -7.432476 29.399580  -0.337476 -0.859978 0.382817  0.472884 0.550798 1 0 1.000000
0  37.093575 -7.556351 28.793972  -0.407062 -0.889398 0.208019  0.473342 0.552049 1 0 1.000000
misc
0  37.148628 -7.432476 29.399580  -0.337476 -0.859978 0.382817  0.472884 0.550798 1 0 1.000000
0  37.217449 -7.473767 29.372053  -0.343528 -0.862991 0.370451  0.472121 0.551286 1 0 1.000000
0  37.437672 -7.212254 29.881313  -0.163577 -0.749608 0.641350  0.469680 0.548326 1 0 1.000000
misc
0  37.492729 -7.253546 29.840023  -0.172094 -0.753925 0.634020  0.468978 0.548845 1 0 1.000000
0  37.437672 -7.212254 29.881313  -0.163577 -0.749608 0.641350  0.469680 0.548326 1 0 1.000000
0  37.217449 -7.473767 29.372053  -0.343528 -0.862991 0.370451  0.472121 0.551286 1 0 1.000000
misc
0  37.437672 -7.212254 29.881313  -0.163577 -0.749608 0.641350  0.469680 0.548326 1 0 1.000000
0  37.492729 -7.253546 29.840023  -0.172094 -0.753925 0.634020  0.468978 0.548845 1 0 1.000000
0  37.712952 -7.060852 30.046478  -0.062041 -0.684695 0.726184  0.466750 0.546617 1 0 1.000000
misc
0  37.754242 -7.115907 30.005188  -0.062030 -0.684682 0.726198  0.466262 0.547136 1 0 1.000000
0  37.712952 -7.060852 30.046478  -0.062041 -0.684695 0.726184  0.466750 0.546617 1 0 1.000000
0  37.492729 -7.253546 29.840023  -0.172094 -0.753925 0.634020  0.468978 0.548845 1 0 1.000000
misc
0  37.726715 -7.115907 29.991423  0.392466 0.424688 0.815850  0.467971 0.529252 1 0 1.000000
0  37.768005 -7.060852 29.950132  0.392465 0.424693 0.815848  0.467452 0.528733 1 0 1.000000
0  37.699184 -7.033323 29.963896  0.392462 0.424691 0.815850  0.468215 0.528489 1 0 1.000000
misc
0  37.465199 -7.460003 28.628803  0.691677 -0.717425 0.082975  0.470931 0.533158 1 0 1.000000
0  37.520256 -7.404947 28.628803  0.691704 -0.717397 0.082982  0.470168 0.532670 1 0 1.000000
0  37.451435 -7.404947 29.220646  0.689287 -0.721933 0.060795  0.471175 0.532670 1 0 1.000000
misc
0  37.506493 -7.349893 29.206882  0.689297 -0.721925 0.060785  0.470412 0.531907 1 0 1.000000
0  37.451435 -7.404947 29.220646  0.689287 -0.721933 0.060795  0.471175 0.532670 1 0 1.000000
0  37.520256 -7.404947 28.628803  0.691704 -0.717397 0.082982  0.470168 0.532670 1 0 1.000000
misc
0  37.451435 -7.404947 29.220646  0.689287 -0.721933 0.060795  0.471175 0.532670 1 0 1.000000
0  37.506493 -7.349893 29.206882  0.689297 -0.721925 0.060785  0.470412 0.531907 1 0 1.000000
0  37.589073 -7.253546 29.702385  0.686693 -0.725705 0.042482  0.469680 0.530961 1 0 1.000000
misc
0  37.630367 -7.212254 29.661089  0.686552 -0.725842 0.042434  0.468978 0.530442 1 0 1.000000
0  37.589073 -7.253546 29.702385  0.686693 -0.725705 0.042482  0.469680 0.530961 1 0 1.000000
0  37.506493 -7.349893 29.206882  0.689297 -0.721925 0.060785  0.470412 0.531907 1 0 1.000000
misc
0  37.589073 -7.253546 29.702385  0.686693 -0.725705 0.042482  0.469680 0.530961 1 0 1.000000
0  37.630367 -7.212254 29.661089  0.686552 -0.725842 0.042434  0.468978 0.530442 1 0 1.000000
0  37.726715 -7.115907 29.991423  0.688331 -0.723957 0.045681  0.467971 0.529252 1 0 1.000000
misc
0  37.768005 -7.060852 29.950132  0.688380 -0.723912 0.045664  0.467452 0.528733 1 0 1.000000
0  37.726715 -7.115907 29.991423  0.688331 -0.723957 0.045681  0.467971 0.529252 1 0 1.000000
0  37.630367 -7.212254 29.661089  0.686552 -0.725842 0.042434  0.468978 0.530442 1 0 1.000000
misc
0  37.093575 -7.473767 28.780203  -0.197542 -0.136695 -0.970717  0.473586 0.551286 1 0 1.000000
0  37.093575 -7.556351 28.793972  -0.197595 -0.136688 -0.970707  0.473342 0.552049 1 0 1.000000
0  37.024754 -7.515058 28.807735  -0.197647 -0.136660 -0.970701  0.474105 0.551805 1 0 1.000000
skin_0
0  40.988743 -2.752767 32.757957  0.683267 0.616592 0.391103  0.050838 0.168588 1 0 1.000000
0  40.878635 -2.876641 34.244453  0.760083 0.647270 0.057582  0.050194 0.176312 1 0 1.000000
0  41.140148 -2.931697 32.785484  0.687307 0.618695 0.380560  0.049908 0.168731 1 0 1.000000
skin_0
0  41.016273 -3.055571 34.244453  0.759732 0.647889 0.055195  0.049264 0.176312 1 0 1.000000
0  41.140148 -2.931697 32.785484  0.687307 0.618695 0.380560  0.049908 0.168731 1 0 1.000000
0  40.878635 -2.876641 34.244453  0.760083 0.647270 0.057582  0.050194 0.176312 1 0 1.000000
skin_0
0  41.016273 -3.055571 34.244453  0.759732 0.647889 0.055195  0.049264 0.176312 1 0 1.000000
0  40.878635 -2.876641 34.244453  0.760083 0.647270 0.057582  0.050194 0.176312 1 0 1.000000
0  41.098854 -3.138154 36.391613  0.711037 0.654279 -0.257574  0.048835 0.187470 1 0 1.000000
skin_0
0  40.947453 -2.945461 36.432903  0.707734 0.653538 -0.268329  0.049836 0.187684 1 0 1.000000
0  41.098854 -3.138154 36.391613  0.711037 0.654279 -0.257574  0.048835 0.187470 1 0 1.000000
0  40.878635 -2.876641 34.244453  0.760083 0.647270 0.057582  0.050194 0.176312 1 0 1.000000
skin_0
0  41.098854 -3.138154 36.391613  0.711037 0.654279 -0.257574  0.048835 0.187470 1 0 1.000000
0  40.947453 -2.945461 36.432903  0.707734 0.653538 -0.268329  0.049836 0.187684 1 0 1.000000
0  41.346607 -3.055571 36.790764  0.468028 0.559837 -0.683764  0.049264 0.189544 1 0 1.000000
skin_0
0  41.208965 -2.876641 36.845821  0.484597 0.567894 -0.665328  0.050194 0.189830 1 0 1.000000
0  41.346607 -3.055571 36.790764  0.468028 0.559837 -0.683764  0.049264 0.189544 1 0 1.000000
0  40.947453 -2.945461 36.432903  0.707734 0.653538 -0.268329  0.049836 0.187684 1 0 1.000000
skin_0
0  41.346607 -3.055571 36.790764  0.468028 0.559837 -0.683764  0.049264 0.189544 1 0 1.000000
0  41.208965 -2.876641 36.845821  0.484597 0.567894 -0.665328  0.050194 0.189830 1 0 1.000000
0  41.883392 -2.849114 37.134857  0.093019 0.345693 -0.933726  0.050337 0.191332 1 0 1.000000
skin_0
0  41.745758 -2.656420 37.176151  0.142572 0.376125 -0.915534  0.051338 0.191546 1 0 1.000000
0  41.883392 -2.849114 37.134857  0.093019 0.345693 -0.933726  0.050337 0.191332 1 0 1.000000
0  41.208965 -2.876641 36.845821  0.484597 0.567894 -0.665328  0.050194 0.189830 1 0 1.000000
skin_0
0  41.883392 -2.849114 37.134857  0.093019 0.345693 -0.933726  0.050337 0.191332 1 0 1.000000
0  41.745758 -2.656420 37.176151  0.142572 0.376125 -0.915534  0.051338 0.191546 1 0 1.000000
0  46.384171 -1.018521 37.066040  -0.239954 0.179375 -0.954068  0.059849 0.190974 1 0 1.000000
skin_0
0  46.342880 -0.798300 37.121094  -0.264079 0.173595 -0.948750  0.060994 0.191260 1 0 1.000000
0  46.384171 -1.018521 37.066040  -0.239954 0.179375 -0.954068  0.059849 0.190974 1 0 1.000000
0  41.745758 -2.656420 37.176151  0.142572 0.376125 -0.915534  0.051338 0.191546 1 0 1.000000
skin_0
0  46.384171 -1.018521 37.066040  -0.239954 0.179375 -0.954068  0.059849 0.190974 1 0 1.000000
0  46.342880 -0.798300 37.121094  -0.264079 0.173595 -0.948750  0.060994 0.191260 1 0 1.000000
0  47.017311 -0.743244 36.832058  -0.615166 0.070802 -0.785212  0.061280 0.189758 1 0 1.000000
skin_0
0  46.989784 -0.523023 36.873348  -0.636288 0.064005 -0.768792  0.062424 0.189973 1 0 1.000000
0  47.017311 -0.743244 36.832058  -0.615166 0.070802 -0.785212  0.061280 0.189758 1 0 1.000000
0  46.342880 -0.798300 37.121094  -0.264079 0.173595 -0.948750  0.060994 0.191260 1 0 1.000000
skin_0
0  46.989784 -0.523023 36.873348  -0.636288 0.064005 -0.768792  0.062424 0.189973 1 0 1.000000
0  47.457752 -0.302801 36.226444  -0.911321 -0.046088 -0.409109  0.063568 0.186611 1 0 1.000000
0  47.017311 -0.743244 36.832058  -0.615166 0.070802 -0.785212  0.061280 0.189758 1 0 1.000000
skin_0
0  47.485279 -0.523023 36.185154  -0.910145 -0.046067 -0.411720  0.062424 0.186397 1 0 1.000000
0  47.017311 -0.743244 36.832058  -0.615166 0.070802 -0.785212  0.061280 0.189758 1 0 1.000000
0  47.457752 -0.302801 36.226444  -0.911321 -0.046088 -0.409109  0.063568 0.186611 1 0 1.000000
skin_0
0  47.485279 -0.523023 36.185154  -0.910145 -0.046067 -0.411720  0.062424 0.186397 1 0 1.000000
0  47.457752 -0.302801 36.226444  -0.911321 -0.046088 -0.409109  0.063568 0.186611 1 0 1.000000
0  47.746796 -0.357856 34.918880  -0.994327 -0.096872 -0.043922  0.063282 0.179817 1 0 1.000000
skin_0
0  47.733032 -0.123871 34.932644  -0.994392 -0.096862 -0.042448  0.064498 0.179888 1 0 1.000000
0  47.746796 -0.357856 34.918880  -0.994327 -0.096872 -0.043922  0.063282 0.179817 1 0 1.000000
0  47.457752 -0.302801 36.226444  -0.911321 -0.046088 -0.409109  0.063568 0.186611 1 0 1.000000
skin_0
0  47.746796 -0.357856 34.918880  -0.994327 -0.096872 -0.043922  0.063282 0.179817 1 0 1.000000
0  47.733032 -0.123871 34.932644  -0.994392 -0.096862 -0.042448  0.064498 0.179888 1 0 1.000000
0  47.609154 -0.357856 33.872829  -0.949906 -0.096163 0.297375  0.063282 0.174381 1 0 1.000000
skin_0
0  47.595390 -0.123871 33.872829  -0.950324 -0.096390 0.295962  0.064498 0.174381 1 0 1.000000
0  47.609154 -0.357856 33.872829  -0.949906 -0.096163 0.297375  0.063282 0.174381 1 0 1.000000
0  47.733032 -0.123871 34.932644  -0.994392 -0.096862 -0.042448  0.064498 0.179888 1 0 1.000000
skin_0
0  47.609154 -0.357856 33.872829  -0.949906 -0.096163 0.297375  0.063282 0.174381 1 0 1.000000
0  47.595390 -0.123871 33.872829  -0.950324 -0.096390 0.295962  0.064498 0.174381 1 0 1.000000
0  47.361408 -0.440440 33.391094  -0.713347 -0.044383 0.699404  0.062853 0.171878 1 0 1.000000
skin_0
0  47.333881 -0.206454 33.377331  -0.736001 -0.049029 0.675203  0.064069 0.171807 1 0 1.000000
0  47.361408 -0.440440 33.391094  -0.713347 -0.044383 0.699404  0.062853 0.171878 1 0 1.000000
0  47.595390 -0.123871 33.872829  -0.950324 -0.096390 0.295962  0.064498 0.174381 1 0 1.000000
skin_0
0  47.361408 -0.440440 33.391094  -0.713347 -0.044383 0.699404  0.062853 0.171878 1 0 1.000000
0  47.333881 -0.206454 33.377331  -0.736001 -0.049029 0.675203  0.064069 0.171807 1 0 1.000000
0  47.044838 -0.550550 33.198402  -0.315685 0.033004 0.948290  0.062281 0.170877 1 0 1.000000
skin_0
0  47.003548 -0.330329 33.170868  -0.354485 0.025428 0.934716  0.063425 0.170734 1 0 1.000000
0  47.044838 -0.550550 33.198402  -0.315685 0.033004 0.948290  0.062281 0.170877 1 0 1.000000
0  47.333881 -0.206454 33.377331  -0.736001 -0.049029 0.675203  0.064069 0.171807 1 0 1.000000
skin_0
0  47.003548 -0.330329 33.170868  -0.354485 0.025428 0.934716  0.063425 0.170734 1 0 1.000000
0  41.511768 -2.518781 32.455151  0.018586 0.189501 0.981705  0.052054 0.167015 1 0 1.000000
0  47.044838 -0.550550 33.198402  -0.315685 0.033004 0.948290  0.062281 0.170877 1 0 1.000000
skin_0
0  41.663170 -2.711475 32.496441  -0.026594 0.157018 0.987238  0.051052 0.167229 1 0 1.000000
0  47.044838 -0.550550 33.198402  -0.315685 0.033004 0.948290  0.062281 0.170877 1 0 1.000000
0  41.511768 -2.518781 32.455151  0.018586 0.189501 0.981705  0.052054 0.167015 1 0 1.000000
skin_0
0  41.663170 -2.711475 32.496441  -0.026594 0.157018 0.987238  0.051052 0.167229 1 0 1.000000
0  41.511768 -2.518781 32.455151  0.018586 0.189501 0.981705  0.052054 0.167015 1 0 1.000000
0  41.291550 -2.862877 32.592789  0.348599 0.419907 0.837948  0.050266 0.167730 1 0 1.000000
skin_0
0  41.153912 -2.670183 32.565262  0.386507 0.444864 0.807904  0.051267 0.167587 1 0 1.000000
0  41.291550 -2.862877 32.592789  0.348599 0.419907 0.837948  0.050266 0.167730 1 0 1.000000
0  41.511768 -2.518781 32.455151  0.018586 0.189501 0.981705  0.052054 0.167015 1 0 1.000000
skin_0
0  41.153912 -2.670183 32.565262  0.386507 0.444864 0.807904  0.051267 0.167587 1 0 1.000000
0  40.988743 -2.752767 32.757957  0.683267 0.616592 0.391103  0.050838 0.168588 1 0 1.000000
0  41.291550 -2.862877 32.592789  0.348599 0.419907 0.837948  0.050266 0.167730 1 0 1.000000
skin_0
0  41.140148 -2.931697 32.785484  0.687307 0.618695 0.380560  0.049908 0.168731 1 0 1.000000
0  41.291550 -2.862877 32.592789  0.348599 0.419907 0.837948  0.050266 0.167730 1 0 1.000000
0  40.988743 -2.752767 32.757957  0.683267 0.616592 0.391103  0.050838 0.168588 1 0 1.000000
skin_0
0  41.030037 -4.280554 31.987183  0.256089 0.221671 -0.940894  0.042899 0.164583 1 0 1.000000
0  40.740993 -5.753285 31.588030  0.628385 0.000661 -0.777903  0.035246 0.162509 1 0 1.000000
0  40.672173 -4.431956 31.794487  0.257415 0.355527 -0.898520  0.042112 0.163582 1 0 1.000000
skin_0
0  38.580070 -4.074096 32.592789  -0.586984 0.784465 0.200160  0.043972 0.167730 1 0 1.000000
0  38.442432 -4.762289 33.528732  -0.812485 0.280663 0.510976  0.040396 0.172593 1 0 1.000000
0  39.598598 -3.757527 34.285744  -0.661583 0.731640 0.164351  0.045617 0.176527 1 0 1.000000
skin_0
0  37.933170 -4.982510 32.702900  -0.851854 0.242336 0.464347  0.039251 0.168302 1 0 1.000000
0  38.442432 -4.762289 33.528732  -0.812485 0.280663 0.510976  0.040396 0.172593 1 0 1.000000
0  38.580070 -4.074096 32.592789  -0.586984 0.784465 0.200160  0.043972 0.167730 1 0 1.000000
skin_0
0  37.933170 -4.982510 32.702900  -0.851854 0.242336 0.464347  0.039251 0.168302 1 0 1.000000
0  37.768005 -6.881921 32.510204  -0.783110 -0.127880 0.608593  0.029381 0.167301 1 0 1.000000
0  38.442432 -4.762289 33.528732  -0.812485 0.280663 0.510976  0.040396 0.172593 1 0 1.000000
skin_0
0  38.552544 -6.620409 33.542496  -0.708895 -0.169890 0.684548  0.030740 0.172665 1 0 1.000000
0  38.442432 -4.762289 33.528732  -0.812485 0.280663 0.510976  0.040396 0.172593 1 0 1.000000
0  37.768005 -6.881921 32.510204  -0.783110 -0.127880 0.608593  0.029381 0.167301 1 0 1.000000
skin_0
0  37.768005 -6.881921 32.510204  -0.783110 -0.127880 0.608593  0.029381 0.167301 1 0 1.000000
0  37.974461 -8.547348 32.234928  -0.453137 -0.586370 0.671443  0.020727 0.165870 1 0 1.000000
0  38.552544 -6.620409 33.542496  -0.708895 -0.169890 0.684548  0.030740 0.172665 1 0 1.000000
skin_0
0  39.048042 -7.927974 33.432384  -0.400630 -0.579791 0.709463  0.023946 0.172093 1 0 1.000000
0  38.552544 -6.620409 33.542496  -0.708895 -0.169890 0.684548  0.030740 0.172665 1 0 1.000000
0  37.974461 -8.547348 32.234928  -0.453137 -0.586370 0.671443  0.020727 0.165870 1 0 1.000000
skin_0
0  37.974461 -8.547348 32.234928  -0.453137 -0.586370 0.671443  0.020727 0.165870 1 0 1.000000
0  38.827820 -9.042846 31.877069  0.080580 -0.897821 0.432925  0.018153 0.164011 1 0 1.000000
0  39.048042 -7.927974 33.432384  -0.400630 -0.579791 0.709463  0.023946 0.172093 1 0 1.000000
skin_0
0  39.942692 -8.313362 33.115814  0.216686 -0.907989 0.358613  0.021943 0.170448 1 0 1.000000
0  39.048042 -7.927974 33.432384  -0.400630 -0.579791 0.709463  0.023946 0.172093 1 0 1.000000
0  38.827820 -9.042846 31.877069  0.080580 -0.897821 0.432925  0.018153 0.164011 1 0 1.000000
skin_0
0  38.827820 -9.042846 31.877069  0.080580 -0.897821 0.432925  0.018153 0.164011 1 0 1.000000
0  40.135387 -8.299599 31.546740  0.639545 -0.758214 -0.126857  0.022015 0.162294 1 0 1.000000
0  39.942692 -8.313362 33.115814  0.216686 -0.907989 0.358613  0.021943 0.170448 1 0 1.000000
skin_0
0  41.153912 -7.583878 32.551498  0.700627 -0.647487 -0.299804  0.025734 0.167515 1 0 1.000000
0  39.942692 -8.313362 33.115814  0.216686 -0.907989 0.358613  0.021943 0.170448 1 0 1.000000
0  40.135387 -8.299599 31.546740  0.639545 -0.758214 -0.126857  0.022015 0.162294 1 0 1.000000
skin_0
0  40.135387 -8.299599 31.546740  0.639545 -0.758214 -0.126857  0.022015 0.162294 1 0 1.000000
0  40.534538 -7.239781 31.505445  0.770990 -0.235773 -0.591595  0.027522 0.162080 1 0 1.000000
0  41.153912 -7.583878 32.551498  0.700627 -0.647487 -0.299804  0.025734 0.167515 1 0 1.000000
skin_0
0  41.112617 -6.537825 32.014709  0.694599 -0.194117 -0.692713  0.031169 0.164726 1 0 1.000000
0  41.153912 -7.583878 32.551498  0.700627 -0.647487 -0.299804  0.025734 0.167515 1 0 1.000000
0  40.534538 -7.239781 31.505445  0.770990 -0.235773 -0.591595  0.027522 0.162080 1 0 1.000000
skin_0
0  40.534538 -7.239781 31.505445  0.770990 -0.235773 -0.591595  0.027522 0.162080 1 0 1.000000
0  40.740993 -5.753285 31.588030  0.628385 0.000661 -0.777903  0.035246 0.162509 1 0 1.000000
0  41.112617 -6.537825 32.014709  0.694599 -0.194117 -0.692713  0.031169 0.164726 1 0 1.000000
skin_0
0  41.112617 -6.537825 32.014709  0.694599 -0.194117 -0.692713  0.031169 0.164726 1 0 1.000000
0  40.740993 -5.753285 31.588030  0.628385 0.000661 -0.777903  0.035246 0.162509 1 0 1.000000
0  41.718231 -5.987271 32.358807  0.558651 -0.219507 -0.799828  0.034030 0.166514 1 0 1.000000
skin_0
0  41.030037 -4.280554 31.987183  0.256089 0.221671 -0.940894  0.042899 0.164583 1 0 1.000000
0  41.718231 -5.987271 32.358807  0.558651 -0.219507 -0.799828  0.034030 0.166514 1 0 1.000000
0  40.740993 -5.753285 31.588030  0.628385 0.000661 -0.777903  0.035246 0.162509 1 0 1.000000
skin_0
0  41.030037 -4.280554 31.987183  0.256089 0.221671 -0.940894  0.042899 0.164583 1 0 1.000000
0  41.938450 -3.730000 32.207401  0.150371 0.035369 -0.987997  0.045760 0.165727 1 0 1.000000
0  41.718231 -5.987271 32.358807  0.558651 -0.219507 -0.799828  0.034030 0.166514 1 0 1.000000
skin_0
0  42.447712 -5.478009 32.592789  0.386478 -0.300780 -0.871875  0.036676 0.167730 1 0 1.000000
0  41.718231 -5.987271 32.358807  0.558651 -0.219507 -0.799828  0.034030 0.166514 1 0 1.000000
0  41.938450 -3.730000 32.207401  0.150371 0.035369 -0.987997  0.045760 0.165727 1 0 1.000000
skin_0
0  42.447712 -5.478009 32.592789  0.386478 -0.300780 -0.871875  0.036676 0.167730 1 0 1.000000
0  41.938450 -3.730000 32.207401  0.150371 0.035369 -0.987997  0.045760 0.165727 1 0 1.000000
0  47.705505 -2.449961 33.308514  0.527592 -0.195779 -0.826630  0.052411 0.171449 1 0 1.000000
skin_0
0  40.837345 -2.986752 36.474194  -0.852751 0.323433 0.410131  0.049622 0.187899 1 0 1.000000
0  40.796055 -3.413431 36.611835  -0.786210 -0.046465 0.616210  0.047405 0.188614 1 0 1.000000
0  41.126385 -2.904169 36.942165  -0.713496 0.247306 0.655563  0.050051 0.190331 1 0 1.000000
skin_0
0  40.837345 -2.986752 36.474194  -0.852751 0.323433 0.410131  0.049622 0.187899 1 0 1.000000
0  39.598598 -3.757527 34.285744  -0.661583 0.731640 0.164351  0.045617 0.176527 1 0 1.000000
0  40.796055 -3.413431 36.611835  -0.786210 -0.046465 0.616210  0.047405 0.188614 1 0 1.000000
skin_0
0  39.584835 -4.184207 35.001465  -0.821953 0.225100 0.523185  0.043400 0.180246 1 0 1.000000
0  40.796055 -3.413431 36.611835  -0.786210 -0.046465 0.616210  0.047405 0.188614 1 0 1.000000
0  39.598598 -3.757527 34.285744  -0.661583 0.731640 0.164351  0.045617 0.176527 1 0 1.000000
skin_0
0  39.584835 -4.184207 35.001465  -0.821953 0.225100 0.523185  0.043400 0.180246 1 0 1.000000
0  39.598598 -3.757527 34.285744  -0.661583 0.731640 0.164351  0.045617 0.176527 1 0 1.000000
0  38.442432 -4.762289 33.528732  -0.812485 0.280663 0.510976  0.040396 0.172593 1 0 1.000000
skin_0
0  39.584835 -4.184207 35.001465  -0.821953 0.225100 0.523185  0.043400 0.180246 1 0 1.000000
0  38.442432 -4.762289 33.528732  -0.812485 0.280663 0.510976  0.040396 0.172593 1 0 1.000000
0  40.039040 -5.932216 35.166630  -0.607595 -0.277122 0.744333  0.034316 0.181104 1 0 1.000000
skin_0
0  38.552544 -6.620409 33.542496  -0.708895 -0.169890 0.684548  0.030740 0.172665 1 0 1.000000
0  40.039040 -5.932216 35.166630  -0.607595 -0.277122 0.744333  0.034316 0.181104 1 0 1.000000
0  38.442432 -4.762289 33.528732  -0.812485 0.280663 0.510976  0.040396 0.172593 1 0 1.000000
skin_0
0  40.039040 -5.932216 35.166630  -0.607595 -0.277122 0.744333  0.034316 0.181104 1 0 1.000000
0  40.796055 -3.413431 36.611835  -0.786210 -0.046465 0.616210  0.047405 0.188614 1 0 1.000000
0  39.584835 -4.184207 35.001465  -0.821953 0.225100 0.523185  0.043400 0.180246 1 0 1.000000
skin_0
0  40.740993 -2.904169 34.244453  -0.637761 0.769375 -0.036370  0.050051 0.176312 1 0 1.000000
0  39.598598 -3.757527 34.285744  -0.661583 0.731640 0.164351  0.045617 0.176527 1 0 1.000000
0  40.837345 -2.986752 36.474194  -0.852751 0.323433 0.410131  0.049622 0.187899 1 0 1.000000
skin_0
0  40.740993 -2.904169 34.244453  -0.637761 0.769375 -0.036370  0.050051 0.176312 1 0 1.000000
0  40.534538 -3.372140 32.455151  -0.468513 0.659137 -0.588246  0.047619 0.167015 1 0 1.000000
0  39.598598 -3.757527 34.285744  -0.661583 0.731640 0.164351  0.045617 0.176527 1 0 1.000000
skin_0
0  40.878635 -2.780294 32.689137  -0.807370 0.550760 -0.211699  0.050695 0.168230 1 0 1.000000
0  40.534538 -3.372140 32.455151  -0.468513 0.659137 -0.588246  0.047619 0.167015 1 0 1.000000
0  40.740993 -2.904169 34.244453  -0.637761 0.769375 -0.036370  0.050051 0.176312 1 0 1.000000
skin_0
0  40.878635 -2.780294 32.689137  -0.807370 0.550760 -0.211699  0.050695 0.168230 1 0 1.000000
0  41.071327 -2.683947 32.455151  -0.367828 0.293897 -0.882229  0.051195 0.167015 1 0 1.000000
0  40.534538 -3.372140 32.455151  -0.468513 0.659137 -0.588246  0.047619 0.167015 1 0 1.000000
skin_0
0  47.567863 -0.261510 36.281502  0.630142 0.637460 0.443357  0.063783 0.186898 1 0 1.000000
0  47.058601 -0.495495 36.983456  0.311871 0.574734 0.756582  0.062567 0.190545 1 0 1.000000
0  47.719269 -0.412912 36.281502  0.799622 0.415487 0.433561  0.062996 0.186898 1 0 1.000000
skin_0
0  47.719269 -0.412912 36.281502  0.799622 0.415487 0.433561  0.062996 0.186898 1 0 1.000000
0  48.008305 -0.247746 34.946407  0.875669 0.478941 0.061798  0.063855 0.179960 1 0 1.000000
0  47.567863 -0.261510 36.281502  0.630142 0.637460 0.443357  0.063783 0.186898 1 0 1.000000
skin_0
0  48.008305 -0.247746 34.946407  0.875669 0.478941 0.061798  0.063855 0.179960 1 0 1.000000
0  47.719269 -0.412912 36.281502  0.799622 0.415487 0.433561  0.062996 0.186898 1 0 1.000000
0  48.448750 -2.339851 34.932644  0.998727 -0.041495 0.028675  0.052983 0.179888 1 0 1.000000
skin_0
0  48.008305 -0.247746 34.946407  0.875669 0.478941 0.061798  0.063855 0.179960 1 0 1.000000
0  48.448750 -2.339851 34.932644  0.998727 -0.041495 0.028675  0.052983 0.179888 1 0 1.000000
0  47.856907 -0.247746 33.831535  0.851371 0.446601 -0.275164  0.063855 0.174167 1 0 1.000000
skin_0
0  48.269821 -2.284795 33.955410  0.914173 -0.069948 -0.399242  0.053269 0.174810 1 0 1.000000
0  47.856907 -0.247746 33.831535  0.851371 0.446601 -0.275164  0.063855 0.174167 1 0 1.000000
0  48.448750 -2.339851 34.932644  0.998727 -0.041495 0.028675  0.052983 0.179888 1 0 1.000000
skin_0
0  47.856907 -0.247746 33.831535  0.851371 0.446601 -0.275164  0.063855 0.174167 1 0 1.000000
0  48.269821 -2.284795 33.955410  0.914173 -0.069948 -0.399242  0.053269 0.174810 1 0 1.000000
0  47.609154 -0.330329 33.253456  0.644276 0.385701 -0.660411  0.063425 0.171163 1 0 1.000000
skin_0
0  47.705505 -2.449961 33.308514  0.527592 -0.195779 -0.826630  0.052411 0.171449 1 0 1.000000
0  47.609154 -0.330329 33.253456  0.644276 0.385701 -0.660411  0.063425 0.171163 1 0 1.000000
0  48.269821 -2.284795 33.955410  0.914173 -0.069948 -0.399242  0.053269 0.174810 1 0 1.000000
skin_0
0  47.141186 -0.523023 32.991943  0.245576 0.174518 -0.953539  0.062424 0.169804 1 0 1.000000
0  47.609154 -0.330329 33.253456  0.644276 0.385701 -0.660411  0.063425 0.171163 1 0 1.000000
0  47.705505 -2.449961 33.308514  0.527592 -0.195779 -0.826630  0.052411 0.171449 1 0 1.000000
skin_0
0  47.141186 -0.523023 32.991943  0.245576 0.174518 -0.953539  0.062424 0.169804 1 0 1.000000
0  47.705505 -2.449961 33.308514  0.527592 -0.195779 -0.826630  0.052411 0.171449 1 0 1.000000
0  41.938450 -3.730000 32.207401  0.150371 0.035369 -0.987997  0.045760 0.165727 1 0 1.000000
skin_0
0  47.141186 -0.523023 32.991943  0.245576 0.174518 -0.953539  0.062424 0.169804 1 0 1.000000
0  41.938450 -3.730000 32.207401  0.150371 0.035369 -0.987997  0.045760 0.165727 1 0 1.000000
0  47.044838 -0.302801 33.060760  0.140093 0.371065 -0.917979  0.063568 0.170162 1 0 1.000000
skin_0
0  41.511768 -2.518781 32.345043  -0.086176 0.074983 -0.993454  0.052054 0.166442 1 0 1.000000
0  47.044838 -0.302801 33.060760  0.140093 0.371065 -0.917979  0.063568 0.170162 1 0 1.000000
0  41.938450 -3.730000 32.207401  0.150371 0.035369 -0.987997  0.045760 0.165727 1 0 1.000000
skin_0
0  41.511768 -2.518781 32.345043  -0.086176 0.074983 -0.993454  0.052054 0.166442 1 0 1.000000
0  41.938450 -3.730000 32.207401  0.150371 0.035369 -0.987997  0.045760 0.165727 1 0 1.000000
0  41.071327 -2.683947 32.455151  -0.367828 0.293897 -0.882229  0.051195 0.167015 1 0 1.000000
skin_0
0  41.030037 -4.280554 31.987183  0.256089 0.221671 -0.940894  0.042899 0.164583 1 0 1.000000
0  41.071327 -2.683947 32.455151  -0.367828 0.293897 -0.882229  0.051195 0.167015 1 0 1.000000
0  41.938450 -3.730000 32.207401  0.150371 0.035369 -0.987997  0.045760 0.165727 1 0 1.000000
skin_0
0  41.030037 -4.280554 31.987183  0.256089 0.221671 -0.940894  0.042899 0.164583 1 0 1.000000
0  40.534538 -3.372140 32.455151  -0.468513 0.659137 -0.588246  0.047619 0.167015 1 0 1.000000
0  41.071327 -2.683947 32.455151  -0.367828 0.293897 -0.882229  0.051195 0.167015 1 0 1.000000
skin_0
0  41.030037 -4.280554 31.987183  0.256089 0.221671 -0.940894  0.042899 0.164583 1 0 1.000000
0  40.672173 -4.431956 31.794487  0.257415 0.355527 -0.898520  0.042112 0.163582 1 0 1.000000
0  40.534538 -3.372140 32.455151  -0.468513 0.659137 -0.588246  0.047619 0.167015 1 0 1.000000
skin_0
0  39.626125 -3.771291 32.262455  -0.287446 0.914591 -0.284426  0.045545 0.166013 1 0 1.000000
0  40.534538 -3.372140 32.455151  -0.468513 0.659137 -0.588246  0.047619 0.167015 1 0 1.000000
0  40.672173 -4.431956 31.794487  0.257415 0.355527 -0.898520  0.042112 0.163582 1 0 1.000000
skin_0
0  40.534538 -3.372140 32.455151  -0.468513 0.659137 -0.588246  0.047619 0.167015 1 0 1.000000
0  39.626125 -3.771291 32.262455  -0.287446 0.914591 -0.284426  0.045545 0.166013 1 0 1.000000
0  39.598598 -3.757527 34.285744  -0.661583 0.731640 0.164351  0.045617 0.176527 1 0 1.000000
skin_0
0  38.580070 -4.074096 32.592789  -0.586984 0.784465 0.200160  0.043972 0.167730 1 0 1.000000
0  39.598598 -3.757527 34.285744  -0.661583 0.731640 0.164351  0.045617 0.176527 1 0 1.000000
0  39.626125 -3.771291 32.262455  -0.287446 0.914591 -0.284426  0.045545 0.166013 1 0 1.000000
skin_0
0  48.269821 -2.284795 33.955410  0.914173 -0.069948 -0.399242  0.053269 0.174810 1 0 1.000000
0  48.448750 -2.339851 34.932644  0.998727 -0.041495 0.028675  0.052983 0.179888 1 0 1.000000
0  47.994541 -3.317084 34.120579  0.848677 -0.420164 -0.321262  0.047905 0.175669 1 0 1.000000
skin_0
0  47.774323 -3.496014 33.900356  0.605282 -0.517562 -0.604783  0.046976 0.174524 1 0 1.000000
0  48.269821 -2.284795 33.955410  0.914173 -0.069948 -0.399242  0.053269 0.174810 1 0 1.000000
0  47.994541 -3.317084 34.120579  0.848677 -0.420164 -0.321262  0.047905 0.175669 1 0 1.000000
skin_0
0  47.774323 -3.496014 33.900356  0.605282 -0.517562 -0.604783  0.046976 0.174524 1 0 1.000000
0  47.705505 -2.449961 33.308514  0.527592 -0.195779 -0.826630  0.052411 0.171449 1 0 1.000000
0  48.269821 -2.284795 33.955410  0.914173 -0.069948 -0.399242  0.053269 0.174810 1 0 1.000000
skin_0
0  47.141186 -0.523023 32.991943  0.245576 0.174518 -0.953539  0.062424 0.169804 1 0 1.000000
0  47.044838 -0.302801 33.060760  0.140093 0.371065 -0.917979  0.063568 0.170162 1 0 1.000000
0  47.609154 -0.330329 33.253456  0.644276 0.385701 -0.660411  0.063425 0.171163 1 0 1.000000
skin_0
0  47.416462 -0.165163 33.280983  0.436819 0.608661 -0.662360  0.064284 0.171306 1 0 1.000000
0  47.609154 -0.330329 33.253456  0.644276 0.385701 -0.660411  0.063425 0.171163 1 0 1.000000
0  47.044838 -0.302801 33.060760  0.140093 0.371065 -0.917979  0.063568 0.170162 1 0 1.000000
skin_0
0  47.609154 -0.330329 33.253456  0.644276 0.385701 -0.660411  0.063425 0.171163 1 0 1.000000
0  47.416462 -0.165163 33.280983  0.436819 0.608661 -0.662360  0.064284 0.171306 1 0 1.000000
0  47.856907 -0.247746 33.831535  0.851371 0.446601 -0.275164  0.063855 0.174167 1 0 1.000000
skin_0
0  47.691742 -0.082579 33.831535  0.697941 0.658442 -0.281661  0.064713 0.174167 1 0 1.000000
0  47.856907 -0.247746 33.831535  0.851371 0.446601 -0.275164  0.063855 0.174167 1 0 1.000000
0  47.416462 -0.165163 33.280983  0.436819 0.608661 -0.662360  0.064284 0.171306 1 0 1.000000
skin_0
0  47.691742 -0.082579 33.831535  0.697941 0.658442 -0.281661  0.064713 0.174167 1 0 1.000000
0  47.843143 -0.068816 34.932644  0.690395 0.720862 0.060942  0.064784 0.179888 1 0 1.000000
0  47.856907 -0.247746 33.831535  0.851371 0.446601 -0.275164  0.063855 0.174167 1 0 1.000000
skin_0
0  48.008305 -0.247746 34.946407  0.875669 0.478941 0.061798  0.063855 0.179960 1 0 1.000000
0  47.856907 -0.247746 33.831535  0.851371 0.446601 -0.275164  0.063855 0.174167 1 0 1.000000
0  47.843143 -0.068816 34.932644  0.690395 0.720862 0.060942  0.064784 0.179888 1 0 1.000000
skin_0
0  47.843143 -0.068816 34.932644  0.690395 0.720862 0.060942  0.064784 0.179888 1 0 1.000000
0  47.567863 -0.261510 36.281502  0.630142 0.637460 0.443357  0.063783 0.186898 1 0 1.000000
0  48.008305 -0.247746 34.946407  0.875669 0.478941 0.061798  0.063855 0.179960 1 0 1.000000
skin_0
0  42.447712 -5.478009 32.592789  0.386478 -0.300780 -0.871875  0.036676 0.167730 1 0 1.000000
0  47.705505 -2.449961 33.308514  0.527592 -0.195779 -0.826630  0.052411 0.171449 1 0 1.000000
0  42.750515 -6.441477 33.377331  0.519065 -0.610701 -0.598010  0.031670 0.171807 1 0 1.000000
skin_0
0  47.774323 -3.496014 33.900356  0.605282 -0.517562 -0.604783  0.046976 0.174524 1 0 1.000000
0  42.750515 -6.441477 33.377331  0.519065 -0.610701 -0.598010  0.031670 0.171807 1 0 1.000000
0  47.705505 -2.449961 33.308514  0.527592 -0.195779 -0.826630  0.052411 0.171449 1 0 1.000000
skin_0
0  47.774323 -3.496014 33.900356  0.605282 -0.517562 -0.604783  0.046976 0.174524 1 0 1.000000
0  47.733032 -3.674944 34.120579  0.621634 -0.733933 -0.273704  0.046046 0.175669 1 0 1.000000
0  42.750515 -6.441477 33.377331  0.519065 -0.610701 -0.598010  0.031670 0.171807 1 0 1.000000
skin_0
0  47.774323 -3.496014 33.900356  0.605282 -0.517562 -0.604783  0.046976 0.174524 1 0 1.000000
0  47.994541 -3.317084 34.120579  0.848677 -0.420164 -0.321262  0.047905 0.175669 1 0 1.000000
0  47.733032 -3.674944 34.120579  0.621634 -0.733933 -0.273704  0.046046 0.175669 1 0 1.000000
skin_0
0  47.994541 -3.317084 34.120579  0.848677 -0.420164 -0.321262  0.047905 0.175669 1 0 1.000000
0  48.173477 -3.262028 34.918880  0.912000 -0.410191 -0.000015  0.048191 0.179817 1 0 1.000000
0  47.733032 -3.674944 34.120579  0.621634 -0.733933 -0.273704  0.046046 0.175669 1 0 1.000000
skin_0
0  48.173477 -3.262028 34.918880  0.912000 -0.410191 -0.000015  0.048191 0.179817 1 0 1.000000
0  47.994541 -3.317084 34.120579  0.848677 -0.420164 -0.321262  0.047905 0.175669 1 0 1.000000
0  48.448750 -2.339851 34.932644  0.998727 -0.041495 0.028675  0.052983 0.179888 1 0 1.000000
skin_0
0  48.448750 -2.339851 34.932644  0.998727 -0.041495 0.028675  0.052983 0.179888 1 0 1.000000
0  48.201004 -2.422434 35.978699  0.915026 -0.067607 0.397689  0.052554 0.185324 1 0 1.000000
0  48.173477 -3.262028 34.918880  0.912000 -0.410191 -0.000015  0.048191 0.179817 1 0 1.000000
skin_0
0  48.201004 -2.422434 35.978699  0.915026 -0.067607 0.397689  0.052554 0.185324 1 0 1.000000
0  48.448750 -2.339851 34.932644  0.998727 -0.041495 0.028675  0.052983 0.179888 1 0 1.000000
0  47.719269 -0.412912 36.281502  0.799622 0.415487 0.433561  0.062996 0.186898 1 0 1.000000
skin_0
0  48.201004 -2.422434 35.978699  0.915026 -0.067607 0.397689  0.052554 0.185324 1 0 1.000000
0  47.719269 -0.412912 36.281502  0.799622 0.415487 0.433561  0.062996 0.186898 1 0 1.000000
0  47.774323 -2.505017 36.556778  0.631901 -0.181416 0.753518  0.052125 0.188328 1 0 1.000000
skin_0
0  47.210003 -0.646897 37.038509  0.519028 0.309824 0.796630  0.061780 0.190831 1 0 1.000000
0  47.774323 -2.505017 36.556778  0.631901 -0.181416 0.753518  0.052125 0.188328 1 0 1.000000
0  47.719269 -0.412912 36.281502  0.799622 0.415487 0.433561  0.062996 0.186898 1 0 1.000000
skin_0
0  47.210003 -0.646897 37.038509  0.519028 0.309824 0.796630  0.061780 0.190831 1 0 1.000000
0  46.508049 -0.949702 37.313789  0.151612 0.113225 0.981934  0.060207 0.192262 1 0 1.000000
0  47.774323 -2.505017 36.556778  0.631901 -0.181416 0.753518  0.052125 0.188328 1 0 1.000000
skin_0
0  46.508049 -0.949702 37.313789  0.151612 0.113225 0.981934  0.060207 0.192262 1 0 1.000000
0  47.210003 -0.646897 37.038509  0.519028 0.309824 0.796630  0.061780 0.190831 1 0 1.000000
0  46.370407 -0.784536 37.244968  -0.008943 0.394610 0.918805  0.061065 0.191904 1 0 1.000000
skin_0
0  46.370407 -0.784536 37.244968  -0.008943 0.394610 0.918805  0.061065 0.191904 1 0 1.000000
0  41.718231 -2.683947 37.300026  -0.335681 0.267113 0.903310  0.051195 0.192190 1 0 1.000000
0  46.508049 -0.949702 37.313789  0.151612 0.113225 0.981934  0.060207 0.192262 1 0 1.000000
skin_0
0  41.745758 -2.890405 37.382610  -0.228989 -0.024385 0.973123  0.050123 0.192619 1 0 1.000000
0  46.508049 -0.949702 37.313789  0.151612 0.113225 0.981934  0.060207 0.192262 1 0 1.000000
0  41.718231 -2.683947 37.300026  -0.335681 0.267113 0.903310  0.051195 0.192190 1 0 1.000000
skin_0
0  41.718231 -2.683947 37.300026  -0.335681 0.267113 0.903310  0.051195 0.192190 1 0 1.000000
0  41.126385 -2.904169 36.942165  -0.713496 0.247306 0.655563  0.050051 0.190331 1 0 1.000000
0  41.745758 -2.890405 37.382610  -0.228989 -0.024385 0.973123  0.050123 0.192619 1 0 1.000000
skin_0
0  41.126385 -2.904169 36.942165  -0.713496 0.247306 0.655563  0.050051 0.190331 1 0 1.000000
0  41.153912 -3.193210 37.079803  -0.587660 -0.085163 0.804613  0.048549 0.191046 1 0 1.000000
0  41.745758 -2.890405 37.382610  -0.228989 -0.024385 0.973123  0.050123 0.192619 1 0 1.000000
skin_0
0  40.796055 -3.413431 36.611835  -0.786210 -0.046465 0.616210  0.047405 0.188614 1 0 1.000000
0  41.153912 -3.193210 37.079803  -0.587660 -0.085163 0.804613  0.048549 0.191046 1 0 1.000000
0  41.126385 -2.904169 36.942165  -0.713496 0.247306 0.655563  0.050051 0.190331 1 0 1.000000
skin_0
0  41.153912 -3.193210 37.079803  -0.587660 -0.085163 0.804613  0.048549 0.191046 1 0 1.000000
0  40.796055 -3.413431 36.611835  -0.786210 -0.046465 0.616210  0.047405 0.188614 1 0 1.000000
0  41.745758 -5.326606 36.364082  -0.259195 -0.451771 0.853652  0.037463 0.187327 1 0 1.000000
skin_0
0  47.058601 -0.495495 36.983456  0.311871 0.574734 0.756582  0.062567 0.190545 1 0 1.000000
0  46.370407 -0.784536 37.244968  -0.008943 0.394610 0.918805  0.061065 0.191904 1 0 1.000000
0  47.210003 -0.646897 37.038509  0.519028 0.309824 0.796630  0.061780 0.190831 1 0 1.000000
skin_0
0  47.210003 -0.646897 37.038509  0.519028 0.309824 0.796630  0.061780 0.190831 1 0 1.000000
0  47.719269 -0.412912 36.281502  0.799622 0.415487 0.433561  0.062996 0.186898 1 0 1.000000
0  47.058601 -0.495495 36.983456  0.311871 0.574734 0.756582  0.062567 0.190545 1 0 1.000000
skin_0
0  41.153912 -7.583878 32.551498  0.700627 -0.647487 -0.299804  0.025734 0.167515 1 0 1.000000
0  42.048561 -6.992032 33.294746  0.591583 -0.797718 -0.116943  0.028809 0.171377 1 0 1.000000
0  39.942692 -8.313362 33.115814  0.216686 -0.907989 0.358613  0.021943 0.170448 1 0 1.000000
skin_0
0  42.062325 -6.923212 33.157104  0.652109 -0.576862 -0.491920  0.029167 0.170662 1 0 1.000000
0  42.048561 -6.992032 33.294746  0.591583 -0.797718 -0.116943  0.028809 0.171377 1 0 1.000000
0  41.153912 -7.583878 32.551498  0.700627 -0.647487 -0.299804  0.025734 0.167515 1 0 1.000000
skin_0
0  41.153912 -7.583878 32.551498  0.700627 -0.647487 -0.299804  0.025734 0.167515 1 0 1.000000
0  41.112617 -6.537825 32.014709  0.694599 -0.194117 -0.692713  0.031169 0.164726 1 0 1.000000
0  42.062325 -6.923212 33.157104  0.652109 -0.576862 -0.491920  0.029167 0.170662 1 0 1.000000
skin_0
0  41.718231 -5.987271 32.358807  0.558651 -0.219507 -0.799828  0.034030 0.166514 1 0 1.000000
0  42.062325 -6.923212 33.157104  0.652109 -0.576862 -0.491920  0.029167 0.170662 1 0 1.000000
0  41.112617 -6.537825 32.014709  0.694599 -0.194117 -0.692713  0.031169 0.164726 1 0 1.000000
skin_0
0  41.718231 -5.987271 32.358807  0.558651 -0.219507 -0.799828  0.034030 0.166514 1 0 1.000000
0  42.447712 -5.478009 32.592789  0.386478 -0.300780 -0.871875  0.036676 0.167730 1 0 1.000000
0  42.062325 -6.923212 33.157104  0.652109 -0.576862 -0.491920  0.029167 0.170662 1 0 1.000000
skin_0
0  42.750515 -6.441477 33.377331  0.519065 -0.610701 -0.598010  0.031670 0.171807 1 0 1.000000
0  42.062325 -6.923212 33.157104  0.652109 -0.576862 -0.491920  0.029167 0.170662 1 0 1.000000
0  42.447712 -5.478009 32.592789  0.386478 -0.300780 -0.871875  0.036676 0.167730 1 0 1.000000
skin_0
0  42.062325 -6.923212 33.157104  0.652109 -0.576862 -0.491920  0.029167 0.170662 1 0 1.000000
0  42.750515 -6.441477 33.377331  0.519065 -0.610701 -0.598010  0.031670 0.171807 1 0 1.000000
0  42.048561 -6.992032 33.294746  0.591583 -0.797718 -0.116943  0.028809 0.171377 1 0 1.000000
skin_0
0  42.778046 -6.551589 33.583786  0.538316 -0.821737 -0.186987  0.031098 0.172879 1 0 1.000000
0  42.048561 -6.992032 33.294746  0.591583 -0.797718 -0.116943  0.028809 0.171377 1 0 1.000000
0  42.750515 -6.441477 33.377331  0.519065 -0.610701 -0.598010  0.031670 0.171807 1 0 1.000000
skin_0
0  42.778046 -6.551589 33.583786  0.538316 -0.821737 -0.186987  0.031098 0.172879 1 0 1.000000
0  42.750515 -6.441477 33.377331  0.519065 -0.610701 -0.598010  0.031670 0.171807 1 0 1.000000
0  47.733032 -3.674944 34.120579  0.621634 -0.733933 -0.273704  0.046046 0.175669 1 0 1.000000
skin_0
0  47.733032 -3.674944 34.120579  0.621634 -0.733933 -0.273704  0.046046 0.175669 1 0 1.000000
0  47.939487 -3.619889 34.905117  0.706852 -0.706842 -0.027091  0.046332 0.179745 1 0 1.000000
0  42.778046 -6.551589 33.583786  0.538316 -0.821737 -0.186987  0.031098 0.172879 1 0 1.000000
skin_0
0  47.939487 -3.619889 34.905117  0.706852 -0.706842 -0.027091  0.046332 0.179745 1 0 1.000000
0  47.733032 -3.674944 34.120579  0.621634 -0.733933 -0.273704  0.046046 0.175669 1 0 1.000000
0  48.173477 -3.262028 34.918880  0.912000 -0.410191 -0.000015  0.048191 0.179817 1 0 1.000000
skin_0
0  48.173477 -3.262028 34.918880  0.912000 -0.410191 -0.000015  0.048191 0.179817 1 0 1.000000
0  47.925724 -3.454722 35.662128  0.813659 -0.483379 0.322961  0.047190 0.183679 1 0 1.000000
0  47.939487 -3.619889 34.905117  0.706852 -0.706842 -0.027091  0.046332 0.179745 1 0 1.000000
skin_0
0  47.925724 -3.454722 35.662128  0.813659 -0.483379 0.322961  0.047190 0.183679 1 0 1.000000
0  48.173477 -3.262028 34.918880  0.912000 -0.410191 -0.000015  0.048191 0.179817 1 0 1.000000
0  48.201004 -2.422434 35.978699  0.915026 -0.067607 0.397689  0.052554 0.185324 1 0 1.000000
skin_0
0  47.925724 -3.454722 35.662128  0.813659 -0.483379 0.322961  0.047190 0.183679 1 0 1.000000
0  48.201004 -2.422434 35.978699  0.915026 -0.067607 0.397689  0.052554 0.185324 1 0 1.000000
0  47.856907 -3.055571 36.171391  0.664596 -0.430712 0.610573  0.049264 0.186325 1 0 1.000000
skin_0
0  47.856907 -3.055571 36.171391  0.664596 -0.430712 0.610573  0.049264 0.186325 1 0 1.000000
0  48.201004 -2.422434 35.978699  0.915026 -0.067607 0.397689  0.052554 0.185324 1 0 1.000000
0  47.774323 -2.505017 36.556778  0.631901 -0.181416 0.753518  0.052125 0.188328 1 0 1.000000
skin_0
0  40.039040 -5.932216 35.166630  -0.607595 -0.277122 0.744333  0.034316 0.181104 1 0 1.000000
0  41.745758 -5.326606 36.364082  -0.259195 -0.451771 0.853652  0.037463 0.187327 1 0 1.000000
0  40.796055 -3.413431 36.611835  -0.786210 -0.046465 0.616210  0.047405 0.188614 1 0 1.000000
skin_0
0  40.039040 -5.932216 35.166630  -0.607595 -0.277122 0.744333  0.034316 0.181104 1 0 1.000000
0  40.520775 -7.033323 34.918880  -0.300846 -0.604832 0.737340  0.028595 0.179817 1 0 1.000000
0  41.745758 -5.326606 36.364082  -0.259195 -0.451771 0.853652  0.037463 0.187327 1 0 1.000000
skin_0
0  40.039040 -5.932216 35.166630  -0.607595 -0.277122 0.744333  0.034316 0.181104 1 0 1.000000
0  38.552544 -6.620409 33.542496  -0.708895 -0.169890 0.684548  0.030740 0.172665 1 0 1.000000
0  40.520775 -7.033323 34.918880  -0.300846 -0.604832 0.737340  0.028595 0.179817 1 0 1.000000
skin_0
0  39.048042 -7.927974 33.432384  -0.400630 -0.579791 0.709463  0.023946 0.172093 1 0 1.000000
0  40.520775 -7.033323 34.918880  -0.300846 -0.604832 0.737340  0.028595 0.179817 1 0 1.000000
0  38.552544 -6.620409 33.542496  -0.708895 -0.169890 0.684548  0.030740 0.172665 1 0 1.000000
skin_0
0  40.520775 -7.033323 34.918880  -0.300846 -0.604832 0.737340  0.028595 0.179817 1 0 1.000000
0  39.048042 -7.927974 33.432384  -0.400630 -0.579791 0.709463  0.023946 0.172093 1 0 1.000000
0  41.057564 -7.542585 34.340797  0.093982 -0.856095 0.508202  0.025948 0.176813 1 0 1.000000
skin_0
0  39.942692 -8.313362 33.115814  0.216686 -0.907989 0.358613  0.021943 0.170448 1 0 1.000000
0  41.057564 -7.542585 34.340797  0.093982 -0.856095 0.508202  0.025948 0.176813 1 0 1.000000
0  39.048042 -7.927974 33.432384  -0.400630 -0.579791 0.709463  0.023946 0.172093 1 0 1.000000
skin_0
0  39.942692 -8.313362 33.115814  0.216686 -0.907989 0.358613  0.021943 0.170448 1 0 1.000000
0  41.167675 -7.542585 34.244453  0.409429 -0.890436 0.198727  0.025948 0.176312 1 0 1.000000
0  41.057564 -7.542585 34.340797  0.093982 -0.856095 0.508202  0.025948 0.176813 1 0 1.000000
skin_0
0  41.167675 -7.542585 34.244453  0.409429 -0.890436 0.198727  0.025948 0.176312 1 0 1.000000
0  39.942692 -8.313362 33.115814  0.216686 -0.907989 0.358613  0.021943 0.170448 1 0 1.000000
0  42.048561 -6.992032 33.294746  0.591583 -0.797718 -0.116943  0.028809 0.171377 1 0 1.000000
skin_0
0  41.167675 -7.542585 34.244453  0.409429 -0.890436 0.198727  0.025948 0.176312 1 0 1.000000
0  42.048561 -6.992032 33.294746  0.591583 -0.797718 -0.116943  0.028809 0.171377 1 0 1.000000
0  42.186199 -6.840630 35.084049  0.414827 -0.878225 0.237989  0.029596 0.180675 1 0 1.000000
skin_0
0  42.048561 -6.992032 33.294746  0.591583 -0.797718 -0.116943  0.028809 0.171377 1 0 1.000000
0  42.778046 -6.551589 33.583786  0.538316 -0.821737 -0.186987  0.031098 0.172879 1 0 1.000000
0  42.186199 -6.840630 35.084049  0.414827 -0.878225 0.237989  0.029596 0.180675 1 0 1.000000
skin_0
0  42.956974 -6.345131 35.455669  0.437124 -0.862846 0.253809  0.032171 0.182606 1 0 1.000000
0  42.186199 -6.840630 35.084049  0.414827 -0.878225 0.237989  0.029596 0.180675 1 0 1.000000
0  42.778046 -6.551589 33.583786  0.538316 -0.821737 -0.186987  0.031098 0.172879 1 0 1.000000
skin_0
0  42.956974 -6.345131 35.455669  0.437124 -0.862846 0.253809  0.032171 0.182606 1 0 1.000000
0  42.778046 -6.551589 33.583786  0.538316 -0.821737 -0.186987  0.031098 0.172879 1 0 1.000000
0  47.939487 -3.619889 34.905117  0.706852 -0.706842 -0.027091  0.046332 0.179745 1 0 1.000000
skin_0
0  47.733032 -3.757527 35.538254  0.618867 -0.760199 0.197742  0.045617 0.183035 1 0 1.000000
0  42.956974 -6.345131 35.455669  0.437124 -0.862846 0.253809  0.032171 0.182606 1 0 1.000000
0  47.939487 -3.619889 34.905117  0.706852 -0.706842 -0.027091  0.046332 0.179745 1 0 1.000000
skin_0
0  47.733032 -3.757527 35.538254  0.618867 -0.760199 0.197742  0.045617 0.183035 1 0 1.000000
0  47.939487 -3.619889 34.905117  0.706852 -0.706842 -0.027091  0.046332 0.179745 1 0 1.000000
0  47.925724 -3.454722 35.662128  0.813659 -0.483379 0.322961  0.047190 0.183679 1 0 1.000000
skin_0
0  47.925724 -3.454722 35.662128  0.813659 -0.483379 0.322961  0.047190 0.183679 1 0 1.000000
0  47.636688 -3.702471 35.772240  0.511499 -0.685900 0.517601  0.045903 0.184251 1 0 1.000000
0  47.733032 -3.757527 35.538254  0.618867 -0.760199 0.197742  0.045617 0.183035 1 0 1.000000
skin_0
0  47.925724 -3.454722 35.662128  0.813659 -0.483379 0.322961  0.047190 0.183679 1 0 1.000000
0  47.856907 -3.055571 36.171391  0.664596 -0.430712 0.610573  0.049264 0.186325 1 0 1.000000
0  47.636688 -3.702471 35.772240  0.511499 -0.685900 0.517601  0.045903 0.184251 1 0 1.000000
skin_0
0  47.856907 -3.055571 36.171391  0.664596 -0.430712 0.610573  0.049264 0.186325 1 0 1.000000
0  47.388935 -3.358376 36.240208  0.370481 -0.578462 0.726723  0.047691 0.186683 1 0 1.000000
0  47.636688 -3.702471 35.772240  0.511499 -0.685900 0.517601  0.045903 0.184251 1 0 1.000000
skin_0
0  47.856907 -3.055571 36.171391  0.664596 -0.430712 0.610573  0.049264 0.186325 1 0 1.000000
0  47.774323 -2.505017 36.556778  0.631901 -0.181416 0.753518  0.052125 0.188328 1 0 1.000000
0  47.388935 -3.358376 36.240208  0.370481 -0.578462 0.726723  0.047691 0.186683 1 0 1.000000
skin_0
0  42.956974 -6.345131 35.455669  0.437124 -0.862846 0.253809  0.032171 0.182606 1 0 1.000000
0  42.956974 -6.235020 35.675892  0.280809 -0.732908 0.619672  0.032743 0.183751 1 0 1.000000
0  42.186199 -6.840630 35.084049  0.414827 -0.878225 0.237989  0.029596 0.180675 1 0 1.000000
skin_0
0  42.956974 -6.345131 35.455669  0.437124 -0.862846 0.253809  0.032171 0.182606 1 0 1.000000
0  47.733032 -3.757527 35.538254  0.618867 -0.760199 0.197742  0.045617 0.183035 1 0 1.000000
0  42.956974 -6.235020 35.675892  0.280809 -0.732908 0.619672  0.032743 0.183751 1 0 1.000000
skin_0
0  47.636688 -3.702471 35.772240  0.511499 -0.685900 0.517601  0.045903 0.184251 1 0 1.000000
0  42.956974 -6.235020 35.675892  0.280809 -0.732908 0.619672  0.032743 0.183751 1 0 1.000000
0  47.733032 -3.757527 35.538254  0.618867 -0.760199 0.197742  0.045617 0.183035 1 0 1.000000
skin_0
0  42.956974 -6.235020 35.675892  0.280809 -0.732908 0.619672  0.032743 0.183751 1 0 1.000000
0  47.636688 -3.702471 35.772240  0.511499 -0.685900 0.517601  0.045903 0.184251 1 0 1.000000
0  42.805573 -5.711994 36.143860  0.150872 -0.581592 0.799368  0.035461 0.186182 1 0 1.000000
skin_0
0  47.388935 -3.358376 36.240208  0.370481 -0.578462 0.726723  0.047691 0.186683 1 0 1.000000
0  42.805573 -5.711994 36.143860  0.150872 -0.581592 0.799368  0.035461 0.186182 1 0 1.000000
0  47.636688 -3.702471 35.772240  0.511499 -0.685900 0.517601  0.045903 0.184251 1 0 1.000000
skin_0
0  42.805573 -5.711994 36.143860  0.150872 -0.581592 0.799368  0.035461 0.186182 1 0 1.000000
0  47.388935 -3.358376 36.240208  0.370481 -0.578462 0.726723  0.047691 0.186683 1 0 1.000000
0  42.571590 -4.996274 36.680653  0.029527 -0.452438 0.891307  0.039180 0.188972 1 0 1.000000
skin_0
0  47.237530 -2.780294 36.708179  0.313284 -0.373599 0.873085  0.050695 0.189115 1 0 1.000000
0  42.571590 -4.996274 36.680653  0.029527 -0.452438 0.891307  0.039180 0.188972 1 0 1.000000
0  47.388935 -3.358376 36.240208  0.370481 -0.578462 0.726723  0.047691 0.186683 1 0 1.000000
skin_0
0  47.237530 -2.780294 36.708179  0.313284 -0.373599 0.873085  0.050695 0.189115 1 0 1.000000
0  47.388935 -3.358376 36.240208  0.370481 -0.578462 0.726723  0.047691 0.186683 1 0 1.000000
0  47.774323 -2.505017 36.556778  0.631901 -0.181416 0.753518  0.052125 0.188328 1 0 1.000000
skin_0
0  47.237530 -2.780294 36.708179  0.313284 -0.373599 0.873085  0.050695 0.189115 1 0 1.000000
0  47.774323 -2.505017 36.556778  0.631901 -0.181416 0.753518  0.052125 0.188328 1 0 1.000000
0  46.508049 -0.949702 37.313789  0.151612 0.113225 0.981934  0.060207 0.192262 1 0 1.000000
skin_0
0  47.237530 -2.780294 36.708179  0.313284 -0.373599 0.873085  0.050695 0.189115 1 0 1.000000
0  46.508049 -0.949702 37.313789  0.151612 0.113225 0.981934  0.060207 0.192262 1 0 1.000000
0  42.571590 -4.996274 36.680653  0.029527 -0.452438 0.891307  0.039180 0.188972 1 0 1.000000
skin_0
0  41.745758 -2.890405 37.382610  -0.228989 -0.024385 0.973123  0.050123 0.192619 1 0 1.000000
0  42.571590 -4.996274 36.680653  0.029527 -0.452438 0.891307  0.039180 0.188972 1 0 1.000000
0  46.508049 -0.949702 37.313789  0.151612 0.113225 0.981934  0.060207 0.192262 1 0 1.000000
skin_0
0  41.745758 -2.890405 37.382610  -0.228989 -0.024385 0.973123  0.050123 0.192619 1 0 1.000000
0  41.153912 -3.193210 37.079803  -0.587660 -0.085163 0.804613  0.048549 0.191046 1 0 1.000000
0  42.571590 -4.996274 36.680653  0.029527 -0.452438 0.891307  0.039180 0.188972 1 0 1.000000
skin_0
0  41.745758 -5.326606 36.364082  -0.259195 -0.451771 0.853652  0.037463 0.187327 1 0 1.000000
0  42.571590 -4.996274 36.680653  0.029527 -0.452438 0.891307  0.039180 0.188972 1 0 1.000000
0  41.153912 -3.193210 37.079803  -0.587660 -0.085163 0.804613  0.048549 0.191046 1 0 1.000000
skin_0
0  42.571590 -4.996274 36.680653  0.029527 -0.452438 0.891307  0.039180 0.188972 1 0 1.000000
0  41.745758 -5.326606 36.364082  -0.259195 -0.451771 0.853652  0.037463 0.187327 1 0 1.000000
0  42.805573 -5.711994 36.143860  0.150872 -0.581592 0.799368  0.035461 0.186182 1 0 1.000000
skin_0
0  41.993504 -6.138673 35.868587  -0.047562 -0.604976 0.794822  0.033243 0.184752 1 0 1.000000
0  42.805573 -5.711994 36.143860  0.150872 -0.581592 0.799368  0.035461 0.186182 1 0 1.000000
0  41.745758 -5.326606 36.364082  -0.259195 -0.451771 0.853652  0.037463 0.187327 1 0 1.000000
skin_0
0  42.805573 -5.711994 36.143860  0.150872 -0.581592 0.799368  0.035461 0.186182 1 0 1.000000
0  41.993504 -6.138673 35.868587  -0.047562 -0.604976 0.794822  0.033243 0.184752 1 0 1.000000
0  42.956974 -6.235020 35.675892  0.280809 -0.732908 0.619672  0.032743 0.183751 1 0 1.000000
skin_0
0  42.172436 -6.744282 35.318031  0.157469 -0.793977 0.587200  0.030097 0.181891 1 0 1.000000
0  42.956974 -6.235020 35.675892  0.280809 -0.732908 0.619672  0.032743 0.183751 1 0 1.000000
0  41.993504 -6.138673 35.868587  -0.047562 -0.604976 0.794822  0.033243 0.184752 1 0 1.000000
skin_0
0  42.172436 -6.744282 35.318031  0.157469 -0.793977 0.587200  0.030097 0.181891 1 0 1.000000
0  42.186199 -6.840630 35.084049  0.414827 -0.878225 0.237989  0.029596 0.180675 1 0 1.000000
0  42.956974 -6.235020 35.675892  0.280809 -0.732908 0.619672  0.032743 0.183751 1 0 1.000000
skin_0
0  42.186199 -6.840630 35.084049  0.414827 -0.878225 0.237989  0.029596 0.180675 1 0 1.000000
0  42.172436 -6.744282 35.318031  0.157469 -0.793977 0.587200  0.030097 0.181891 1 0 1.000000
0  41.167675 -7.542585 34.244453  0.409429 -0.890436 0.198727  0.025948 0.176312 1 0 1.000000
skin_0
0  41.057564 -7.542585 34.340797  0.093982 -0.856095 0.508202  0.025948 0.176813 1 0 1.000000
0  41.167675 -7.542585 34.244453  0.409429 -0.890436 0.198727  0.025948 0.176312 1 0 1.000000
0  42.172436 -6.744282 35.318031  0.157469 -0.793977 0.587200  0.030097 0.181891 1 0 1.000000
skin_0
0  41.057564 -7.542585 34.340797  0.093982 -0.856095 0.508202  0.025948 0.176813 1 0 1.000000
0  42.172436 -6.744282 35.318031  0.157469 -0.793977 0.587200  0.030097 0.181891 1 0 1.000000
0  40.520775 -7.033323 34.918880  -0.300846 -0.604832 0.737340  0.028595 0.179817 1 0 1.000000
skin_0
0  41.993504 -6.138673 35.868587  -0.047562 -0.604976 0.794822  0.033243 0.184752 1 0 1.000000
0  40.520775 -7.033323 34.918880  -0.300846 -0.604832 0.737340  0.028595 0.179817 1 0 1.000000
0  42.172436 -6.744282 35.318031  0.157469 -0.793977 0.587200  0.030097 0.181891 1 0 1.000000
skin_0
0  41.993504 -6.138673 35.868587  -0.047562 -0.604976 0.794822  0.033243 0.184752 1 0 1.000000
0  41.745758 -5.326606 36.364082  -0.259195 -0.451771 0.853652  0.037463 0.187327 1 0 1.000000
0  40.520775 -7.033323 34.918880  -0.300846 -0.604832 0.737340  0.028595 0.179817 1 0 1.000000
skin_0
0  40.878635 -2.876641 34.244453  -0.243840 0.968422 0.051965  0.050194 0.176312 1 0 1.000000
0  40.740993 -2.904169 34.244453  -0.245798 0.967937 0.051786  0.050051 0.176312 1 0 1.000000
0  40.947453 -2.945461 36.432903  -0.305882 0.951625 0.029086  0.049836 0.187684 1 0 1.000000
skin_0
0  40.837345 -2.986752 36.474194  -0.305929 0.951655 0.027573  0.049622 0.187899 1 0 1.000000
0  40.947453 -2.945461 36.432903  -0.305882 0.951625 0.029086  0.049836 0.187684 1 0 1.000000
0  40.740993 -2.904169 34.244453  -0.245798 0.967937 0.051786  0.050051 0.176312 1 0 1.000000
skin_0
0  40.837345 -2.986752 36.474194  -0.305929 0.951655 0.027573  0.049622 0.187899 1 0 1.000000
0  41.126385 -2.904169 36.942165  -0.339105 0.940722 0.007091  0.050051 0.190331 1 0 1.000000
0  40.947453 -2.945461 36.432903  -0.305882 0.951625 0.029086  0.049836 0.187684 1 0 1.000000
skin_0
0  41.208965 -2.876641 36.845821  -0.340788 0.940102 0.008509  0.050194 0.189830 1 0 1.000000
0  40.947453 -2.945461 36.432903  -0.305882 0.951625 0.029086  0.049836 0.187684 1 0 1.000000
0  41.126385 -2.904169 36.942165  -0.339105 0.940722 0.007091  0.050051 0.190331 1 0 1.000000
skin_0
0  41.126385 -2.904169 36.942165  -0.339105 0.940722 0.007091  0.050051 0.190331 1 0 1.000000
0  41.718231 -2.683947 37.300026  -0.365320 0.930867 0.005275  0.051195 0.192190 1 0 1.000000
0  41.208965 -2.876641 36.845821  -0.340788 0.940102 0.008509  0.050194 0.189830 1 0 1.000000
skin_0
0  41.745758 -2.656420 37.176151  -0.366938 0.930229 0.005533  0.051338 0.191546 1 0 1.000000
0  41.208965 -2.876641 36.845821  -0.340788 0.940102 0.008509  0.050194 0.189830 1 0 1.000000
0  41.718231 -2.683947 37.300026  -0.365320 0.930867 0.005275  0.051195 0.192190 1 0 1.000000
skin_0
0  41.718231 -2.683947 37.300026  -0.365320 0.930867 0.005275  0.051195 0.192190 1 0 1.000000
0  46.370407 -0.784536 37.244968  -0.382795 0.923806 0.007087  0.061065 0.191904 1 0 1.000000
0  41.745758 -2.656420 37.176151  -0.366938 0.930229 0.005533  0.051338 0.191546 1 0 1.000000
skin_0
0  46.342880 -0.798300 37.121094  -0.382094 0.924097 0.007053  0.060994 0.191260 1 0 1.000000
0  41.745758 -2.656420 37.176151  -0.366938 0.930229 0.005533  0.051338 0.191546 1 0 1.000000
0  46.370407 -0.784536 37.244968  -0.382795 0.923806 0.007087  0.061065 0.191904 1 0 1.000000
skin_0
0  46.342880 -0.798300 37.121094  -0.382094 0.924097 0.007053  0.060994 0.191260 1 0 1.000000
0  46.370407 -0.784536 37.244968  -0.382795 0.923806 0.007087  0.061065 0.191904 1 0 1.000000
0  46.989784 -0.523023 36.873348  -0.398662 0.917017 0.012187  0.062424 0.189973 1 0 1.000000
skin_0
0  47.058601 -0.495495 36.983456  -0.398684 0.917008 0.012187  0.062567 0.190545 1 0 1.000000
0  46.989784 -0.523023 36.873348  -0.398662 0.917017 0.012187  0.062424 0.189973 1 0 1.000000
0  46.370407 -0.784536 37.244968  -0.382795 0.923806 0.007087  0.061065 0.191904 1 0 1.000000
skin_0
0  47.058601 -0.495495 36.983456  -0.398684 0.917008 0.012187  0.062567 0.190545 1 0 1.000000
0  47.567863 -0.261510 36.281502  -0.412096 0.910764 0.026168  0.063783 0.186898 1 0 1.000000
0  46.989784 -0.523023 36.873348  -0.398662 0.917017 0.012187  0.062424 0.189973 1 0 1.000000
skin_0
0  47.457752 -0.302801 36.226444  -0.409979 0.911707 0.026588  0.063568 0.186611 1 0 1.000000
0  46.989784 -0.523023 36.873348  -0.398662 0.917017 0.012187  0.062424 0.189973 1 0 1.000000
0  47.567863 -0.261510 36.281502  -0.412096 0.910764 0.026168  0.063783 0.186898 1 0 1.000000
skin_0
0  47.457752 -0.302801 36.226444  -0.409979 0.911707 0.026588  0.063568 0.186611 1 0 1.000000
0  47.567863 -0.261510 36.281502  -0.412096 0.910764 0.026168  0.063783 0.186898 1 0 1.000000
0  47.733032 -0.123871 34.932644  -0.470238 0.881673 0.039096  0.064498 0.179888 1 0 1.000000
skin_0
0  47.843143 -0.068816 34.932644  -0.473782 0.879766 0.039274  0.064784 0.179888 1 0 1.000000
0  47.733032 -0.123871 34.932644  -0.470238 0.881673 0.039096  0.064498 0.179888 1 0 1.000000
0  47.567863 -0.261510 36.281502  -0.412096 0.910764 0.026168  0.063783 0.186898 1 0 1.000000
skin_0
0  47.843143 -0.068816 34.932644  -0.473782 0.879766 0.039274  0.064784 0.179888 1 0 1.000000
0  47.691742 -0.082579 33.831535  -0.409901 0.910234 0.058777  0.064713 0.174167 1 0 1.000000
0  47.733032 -0.123871 34.932644  -0.470238 0.881673 0.039096  0.064498 0.179888 1 0 1.000000
skin_0
0  47.595390 -0.123871 33.872829  -0.407375 0.911349 0.059069  0.064498 0.174381 1 0 1.000000
0  47.733032 -0.123871 34.932644  -0.470238 0.881673 0.039096  0.064498 0.179888 1 0 1.000000
0  47.691742 -0.082579 33.831535  -0.409901 0.910234 0.058777  0.064713 0.174167 1 0 1.000000
skin_0
0  47.595390 -0.123871 33.872829  -0.407375 0.911349 0.059069  0.064498 0.174381 1 0 1.000000
0  47.691742 -0.082579 33.831535  -0.409901 0.910234 0.058777  0.064713 0.174167 1 0 1.000000
0  47.333881 -0.206454 33.377331  -0.396446 0.915584 0.067348  0.064069 0.171807 1 0 1.000000
skin_0
0  47.416462 -0.165163 33.280983  -0.395499 0.916042 0.066683  0.064284 0.171306 1 0 1.000000
0  47.333881 -0.206454 33.377331  -0.396446 0.915584 0.067348  0.064069 0.171807 1 0 1.000000
0  47.691742 -0.082579 33.831535  -0.409901 0.910234 0.058777  0.064713 0.174167 1 0 1.000000
skin_0
0  47.333881 -0.206454 33.377331  -0.396446 0.915584 0.067348  0.064069 0.171807 1 0 1.000000
0  47.416462 -0.165163 33.280983  -0.395499 0.916042 0.066683  0.064284 0.171306 1 0 1.000000
0  47.003548 -0.330329 33.170868  -0.382306 0.921700 0.065664  0.063425 0.170734 1 0 1.000000
skin_0
0  47.044838 -0.302801 33.060760  -0.382586 0.921649 0.064741  0.063568 0.170162 1 0 1.000000
0  47.003548 -0.330329 33.170868  -0.382306 0.921700 0.065664  0.063425 0.170734 1 0 1.000000
0  47.416462 -0.165163 33.280983  -0.395499 0.916042 0.066683  0.064284 0.171306 1 0 1.000000
skin_0
0  47.044838 -0.302801 33.060760  -0.382586 0.921649 0.064741  0.063568 0.170162 1 0 1.000000
0  41.511768 -2.518781 32.345043  -0.369888 0.926543 0.068562  0.052054 0.166442 1 0 1.000000
0  47.003548 -0.330329 33.170868  -0.382306 0.921700 0.065664  0.063425 0.170734 1 0 1.000000
skin_0
0  41.511768 -2.518781 32.455151  -0.373304 0.925591 0.062661  0.052054 0.167015 1 0 1.000000
0  47.003548 -0.330329 33.170868  -0.382306 0.921700 0.065664  0.063425 0.170734 1 0 1.000000
0  41.511768 -2.518781 32.345043  -0.369888 0.926543 0.068562  0.052054 0.166442 1 0 1.000000
skin_0
0  41.511768 -2.518781 32.455151  -0.373304 0.925591 0.062661  0.052054 0.167015 1 0 1.000000
0  41.511768 -2.518781 32.345043  -0.369888 0.926543 0.068562  0.052054 0.166442 1 0 1.000000
0  41.153912 -2.670183 32.565262  -0.325220 0.939214 0.110037  0.051267 0.167587 1 0 1.000000
skin_0
0  41.071327 -2.683947 32.455151  -0.321787 0.939867 0.114467  0.051195 0.167015 1 0 1.000000
0  41.153912 -2.670183 32.565262  -0.325220 0.939214 0.110037  0.051267 0.167587 1 0 1.000000
0  41.511768 -2.518781 32.345043  -0.369888 0.926543 0.068562  0.052054 0.166442 1 0 1.000000
skin_0
0  41.153912 -2.670183 32.565262  -0.325220 0.939214 0.110037  0.051267 0.167587 1 0 1.000000
0  41.071327 -2.683947 32.455151  -0.321787 0.939867 0.114467  0.051195 0.167015 1 0 1.000000
0  40.988743 -2.752767 32.757957  -0.288382 0.954202 0.079583  0.050838 0.168588 1 0 1.000000
skin_0
0  40.878635 -2.780294 32.689137  -0.290314 0.953280 0.083517  0.050695 0.168230 1 0 1.000000
0  40.988743 -2.752767 32.757957  -0.288382 0.954202 0.079583  0.050838 0.168588 1 0 1.000000
0  41.071327 -2.683947 32.455151  -0.321787 0.939867 0.114467  0.051195 0.167015 1 0 1.000000
skin_0
0  40.878635 -2.780294 32.689137  -0.290314 0.953280 0.083517  0.050695 0.168230 1 0 1.000000
0  40.740993 -2.904169 34.244453  -0.245798 0.967937 0.051786  0.050051 0.176312 1 0 1.000000
0  40.988743 -2.752767 32.757957  -0.288382 0.954202 0.079583  0.050838 0.168588 1 0 1.000000
skin_0
0  40.878635 -2.876641 34.244453  -0.243840 0.968422 0.051965  0.050194 0.176312 1 0 1.000000
0  40.988743 -2.752767 32.757957  -0.288382 0.954202 0.079583  0.050838 0.168588 1 0 1.000000
0  40.740993 -2.904169 34.244453  -0.245798 0.967937 0.051786  0.050051 0.176312 1 0 1.000000
skin_0
0  37.341324 -9.965023 30.129063  0.101894 -0.913994 0.392725  0.013361 0.154928 1 0 1.000000
0  38.084572 -9.662219 29.399578  0.563916 -0.825042 -0.036130  0.014934 0.151137 1 0 1.000000
0  38.745239 -9.097901 31.780724  0.181024 -0.933772 0.308708  0.017866 0.163510 1 0 1.000000
skin_0
0  40.052803 -8.354653 31.436628  0.783978 -0.558684 -0.270647  0.021729 0.161722 1 0 1.000000
0  38.745239 -9.097901 31.780724  0.181024 -0.933772 0.308708  0.017866 0.163510 1 0 1.000000
0  38.084572 -9.662219 29.399578  0.563916 -0.825042 -0.036130  0.014934 0.151137 1 0 1.000000
skin_0
0  38.084572 -9.662219 29.399578  0.563916 -0.825042 -0.036130  0.014934 0.151137 1 0 1.000000
0  38.552544 -9.111665 28.959133  0.787646 -0.505272 -0.352583  0.017795 0.148848 1 0 1.000000
0  40.052803 -8.354653 31.436628  0.783978 -0.558684 -0.270647  0.021729 0.161722 1 0 1.000000
skin_0
0  40.479485 -7.281073 31.436628  0.843035 -0.164111 -0.512210  0.027307 0.161722 1 0 1.000000
0  40.052803 -8.354653 31.436628  0.783978 -0.558684 -0.270647  0.021729 0.161722 1 0 1.000000
0  38.552544 -9.111665 28.959133  0.787646 -0.505272 -0.352583  0.017795 0.148848 1 0 1.000000
skin_0
0  38.552544 -9.111665 28.959133  0.787646 -0.505272 -0.352583  0.017795 0.148848 1 0 1.000000
0  38.772766 -7.432476 28.849024  0.820992 -0.063688 -0.567377  0.026520 0.148276 1 0 1.000000
0  40.479485 -7.281073 31.436628  0.843035 -0.164111 -0.512210  0.027307 0.161722 1 0 1.000000
skin_0
0  40.479485 -7.281073 31.436628  0.843035 -0.164111 -0.512210  0.027307 0.161722 1 0 1.000000
0  38.772766 -7.432476 28.849024  0.820992 -0.063688 -0.567377  0.026520 0.148276 1 0 1.000000
0  40.699703 -5.794577 31.546740  0.806891 0.054878 -0.588145  0.035031 0.162294 1 0 1.000000
skin_0
0  38.731476 -5.560592 29.000423  0.727810 0.269283 -0.630698  0.036247 0.149063 1 0 1.000000
0  40.699703 -5.794577 31.546740  0.806891 0.054878 -0.588145  0.035031 0.162294 1 0 1.000000
0  38.772766 -7.432476 28.849024  0.820992 -0.063688 -0.567377  0.026520 0.148276 1 0 1.000000
skin_0
0  40.699703 -5.794577 31.546740  0.806891 0.054878 -0.588145  0.035031 0.162294 1 0 1.000000
0  38.731476 -5.560592 29.000423  0.727810 0.269283 -0.630698  0.036247 0.149063 1 0 1.000000
0  40.617119 -4.445720 31.739429  0.623310 0.543729 -0.561999  0.042041 0.163296 1 0 1.000000
skin_0
0  38.235973 -4.445720 29.564743  0.387975 0.776917 -0.495858  0.042041 0.151995 1 0 1.000000
0  40.617119 -4.445720 31.739429  0.623310 0.543729 -0.561999  0.042041 0.163296 1 0 1.000000
0  38.731476 -5.560592 29.000423  0.727810 0.269283 -0.630698  0.036247 0.149063 1 0 1.000000
skin_0
0  40.617119 -4.445720 31.739429  0.623310 0.543729 -0.561999  0.042041 0.163296 1 0 1.000000
0  38.235973 -4.445720 29.564743  0.387975 0.776917 -0.495858  0.042041 0.151995 1 0 1.000000
0  39.529778 -3.757527 32.193638  0.086198 0.964579 -0.249315  0.045617 0.165656 1 0 1.000000
skin_0
0  37.685421 -4.211735 30.115299  -0.135512 0.986194 -0.095176  0.043256 0.154856 1 0 1.000000
0  39.529778 -3.757527 32.193638  0.086198 0.964579 -0.249315  0.045617 0.165656 1 0 1.000000
0  38.235973 -4.445720 29.564743  0.387975 0.776917 -0.495858  0.042041 0.151995 1 0 1.000000
skin_0
0  37.685421 -4.211735 30.115299  -0.135512 0.986194 -0.095176  0.043256 0.154856 1 0 1.000000
0  37.093575 -4.542067 30.679619  -0.648982 0.700490 0.296878  0.041540 0.157788 1 0 1.000000
0  39.529778 -3.757527 32.193638  0.086198 0.964579 -0.249315  0.045617 0.165656 1 0 1.000000
skin_0
0  38.511253 -4.074096 32.482677  -0.485209 0.860819 0.153503  0.043972 0.167158 1 0 1.000000
0  39.529778 -3.757527 32.193638  0.086198 0.964579 -0.249315  0.045617 0.165656 1 0 1.000000
0  37.093575 -4.542067 30.679619  -0.648982 0.700490 0.296878  0.041540 0.157788 1 0 1.000000
skin_0
0  38.511253 -4.074096 32.482677  -0.485209 0.860819 0.153503  0.043972 0.167158 1 0 1.000000
0  37.093575 -4.542067 30.679619  -0.648982 0.700490 0.296878  0.041540 0.157788 1 0 1.000000
0  37.864353 -5.010038 32.592789  -0.817309 0.324713 0.475992  0.039108 0.167730 1 0 1.000000
skin_0
0  36.818298 -5.478009 30.899839  -0.853915 0.172596 0.490958  0.036676 0.158933 1 0 1.000000
0  37.864353 -5.010038 32.592789  -0.817309 0.324713 0.475992  0.039108 0.167730 1 0 1.000000
0  37.093575 -4.542067 30.679619  -0.648982 0.700490 0.296878  0.041540 0.157788 1 0 1.000000
skin_0
0  37.864353 -5.010038 32.592789  -0.817309 0.324713 0.475992  0.039108 0.167730 1 0 1.000000
0  36.818298 -5.478009 30.899839  -0.853915 0.172596 0.490958  0.036676 0.158933 1 0 1.000000
0  37.712952 -6.909449 32.413860  -0.824415 -0.042002 0.564425  0.029238 0.166800 1 0 1.000000
skin_0
0  36.694424 -7.336129 30.913603  -0.822794 -0.052488 0.565911  0.027021 0.159004 1 0 1.000000
0  37.712952 -6.909449 32.413860  -0.824415 -0.042002 0.564425  0.029238 0.166800 1 0 1.000000
0  36.818298 -5.478009 30.899839  -0.853915 0.172596 0.490958  0.036676 0.158933 1 0 1.000000
skin_0
0  36.694424 -7.336129 30.913603  -0.822794 -0.052488 0.565911  0.027021 0.159004 1 0 1.000000
0  36.832066 -9.125429 30.679619  -0.548378 -0.520938 0.654145  0.017723 0.157788 1 0 1.000000
0  37.712952 -6.909449 32.413860  -0.824415 -0.042002 0.564425  0.029238 0.166800 1 0 1.000000
skin_0
0  37.905643 -8.588638 32.124821  -0.580094 -0.520964 0.626168  0.020513 0.165298 1 0 1.000000
0  37.712952 -6.909449 32.413860  -0.824415 -0.042002 0.564425  0.029238 0.166800 1 0 1.000000
0  36.832066 -9.125429 30.679619  -0.548378 -0.520938 0.654145  0.017723 0.157788 1 0 1.000000
skin_0
0  37.905643 -8.588638 32.124821  -0.580094 -0.520964 0.626168  0.020513 0.165298 1 0 1.000000
0  36.832066 -9.125429 30.679619  -0.548378 -0.520938 0.654145  0.017723 0.157788 1 0 1.000000
0  38.745239 -9.097901 31.780724  0.181024 -0.933772 0.308708  0.017866 0.163510 1 0 1.000000
skin_0
0  37.341324 -9.965023 30.129063  0.101894 -0.913994 0.392725  0.013361 0.154928 1 0 1.000000
0  38.745239 -9.097901 31.780724  0.181024 -0.933772 0.308708  0.017866 0.163510 1 0 1.000000
0  36.832066 -9.125429 30.679619  -0.548378 -0.520938 0.654145  0.017723 0.157788 1 0 1.000000
skin_0
0  38.580070 -4.115388 32.523968  -0.145233 0.558917 0.816407  0.043757 0.167372 1 0 1.000000
0  38.511253 -4.074096 32.482677  -0.205925 0.500231 0.841049  0.043972 0.167158 1 0 1.000000
0  37.933170 -5.010038 32.620316  -0.454723 0.230910 0.860179  0.039108 0.167873 1 0 1.000000
skin_0
0  37.864353 -5.010038 32.592789  -0.455983 0.113258 0.882753  0.039108 0.167730 1 0 1.000000
0  37.933170 -5.010038 32.620316  -0.454723 0.230910 0.860179  0.039108 0.167873 1 0 1.000000
0  38.511253 -4.074096 32.482677  -0.205925 0.500231 0.841049  0.043972 0.167158 1 0 1.000000
skin_0
0  37.933170 -5.010038 32.620316  -0.454723 0.230910 0.860179  0.039108 0.167873 1 0 1.000000
0  37.864353 -5.010038 32.592789  -0.455983 0.113258 0.882753  0.039108 0.167730 1 0 1.000000
0  37.768005 -6.895685 32.441387  -0.359629 -0.114482 0.926046  0.029310 0.166943 1 0 1.000000
skin_0
0  37.712952 -6.909449 32.413860  -0.348796 -0.141803 0.926409  0.029238 0.166800 1 0 1.000000
0  37.768005 -6.895685 32.441387  -0.359629 -0.114482 0.926046  0.029310 0.166943 1 0 1.000000
0  37.864353 -5.010038 32.592789  -0.455983 0.113258 0.882753  0.039108 0.167730 1 0 1.000000
skin_0
0  37.768005 -6.895685 32.441387  -0.359629 -0.114482 0.926046  0.029310 0.166943 1 0 1.000000
0  37.712952 -6.909449 32.413860  -0.348796 -0.141803 0.926409  0.029238 0.166800 1 0 1.000000
0  37.974461 -8.547348 32.152348  -0.098470 -0.355676 0.929408  0.020727 0.165441 1 0 1.000000
skin_0
0  37.905643 -8.588638 32.124821  -0.079087 -0.376771 0.922924  0.020513 0.165298 1 0 1.000000
0  37.974461 -8.547348 32.152348  -0.098470 -0.355676 0.929408  0.020727 0.165441 1 0 1.000000
0  37.712952 -6.909449 32.413860  -0.348796 -0.141803 0.926409  0.029238 0.166800 1 0 1.000000
skin_0
0  37.974461 -8.547348 32.152348  -0.098470 -0.355676 0.929408  0.020727 0.165441 1 0 1.000000
0  37.905643 -8.588638 32.124821  -0.079087 -0.376771 0.922924  0.020513 0.165298 1 0 1.000000
0  38.772766 -9.042846 31.822014  0.311675 -0.560233 0.767462  0.018153 0.163725 1 0 1.000000
skin_0
0  38.745239 -9.097901 31.780724  0.242463 -0.546126 0.801847  0.017866 0.163510 1 0 1.000000
0  38.772766 -9.042846 31.822014  0.311675 -0.560233 0.767462  0.018153 0.163725 1 0 1.000000
0  37.905643 -8.588638 32.124821  -0.079087 -0.376771 0.922924  0.020513 0.165298 1 0 1.000000
skin_0
0  38.772766 -9.042846 31.822014  0.311675 -0.560233 0.767462  0.018153 0.163725 1 0 1.000000
0  38.745239 -9.097901 31.780724  0.242463 -0.546126 0.801847  0.017866 0.163510 1 0 1.000000
0  40.066566 -8.299599 31.505445  0.797789 -0.491598 0.349091  0.022015 0.162080 1 0 1.000000
skin_0
0  40.052803 -8.354653 31.436628  0.670626 -0.590560 0.448886  0.021729 0.161722 1 0 1.000000
0  40.066566 -8.299599 31.505445  0.797789 -0.491598 0.349091  0.022015 0.162080 1 0 1.000000
0  38.745239 -9.097901 31.780724  0.242463 -0.546126 0.801847  0.017866 0.163510 1 0 1.000000
skin_0
0  40.052803 -8.354653 31.436628  0.670626 -0.590560 0.448886  0.021729 0.161722 1 0 1.000000
0  40.479485 -7.281073 31.436628  0.858965 -0.254379 0.444377  0.027307 0.161722 1 0 1.000000
0  40.066566 -8.299599 31.505445  0.797789 -0.491598 0.349091  0.022015 0.162080 1 0 1.000000
skin_0
0  40.465721 -7.253546 31.477919  0.873225 -0.218209 0.435733  0.027450 0.161937 1 0 1.000000
0  40.066566 -8.299599 31.505445  0.797789 -0.491598 0.349091  0.022015 0.162080 1 0 1.000000
0  40.479485 -7.281073 31.436628  0.858965 -0.254379 0.444377  0.027307 0.161722 1 0 1.000000
skin_0
0  40.465721 -7.253546 31.477919  0.873225 -0.218209 0.435733  0.027450 0.161937 1 0 1.000000
0  40.479485 -7.281073 31.436628  0.858965 -0.254379 0.444377  0.027307 0.161722 1 0 1.000000
0  40.685940 -5.767050 31.574266  0.855206 -0.072996 0.513123  0.035175 0.162437 1 0 1.000000
skin_0
0  40.699703 -5.794577 31.546740  0.842345 -0.111084 0.527366  0.035031 0.162294 1 0 1.000000
0  40.685940 -5.767050 31.574266  0.855206 -0.072996 0.513123  0.035175 0.162437 1 0 1.000000
0  40.479485 -7.281073 31.436628  0.858965 -0.254379 0.444377  0.027307 0.161722 1 0 1.000000
skin_0
0  40.699703 -5.794577 31.546740  0.842345 -0.111084 0.527366  0.035031 0.162294 1 0 1.000000
0  40.617119 -4.445720 31.739429  0.858663 0.342762 0.381068  0.042041 0.163296 1 0 1.000000
0  40.685940 -5.767050 31.574266  0.855206 -0.072996 0.513123  0.035175 0.162437 1 0 1.000000
skin_0
0  40.603355 -4.473248 31.808250  0.833137 0.393935 0.388197  0.041898 0.163653 1 0 1.000000
0  40.685940 -5.767050 31.574266  0.855206 -0.072996 0.513123  0.035175 0.162437 1 0 1.000000
0  40.617119 -4.445720 31.739429  0.858663 0.342762 0.381068  0.042041 0.163296 1 0 1.000000
skin_0
0  40.603355 -4.473248 31.808250  0.833137 0.393935 0.388197  0.041898 0.163653 1 0 1.000000
0  40.617119 -4.445720 31.739429  0.858663 0.342762 0.381068  0.042041 0.163296 1 0 1.000000
0  39.584835 -3.826347 32.234928  0.444948 0.669284 0.595046  0.045259 0.165870 1 0 1.000000
skin_0
0  39.529778 -3.757527 32.193638  0.264883 0.615897 0.741963  0.045617 0.165656 1 0 1.000000
0  39.584835 -3.826347 32.234928  0.444948 0.669284 0.595046  0.045259 0.165870 1 0 1.000000
0  40.617119 -4.445720 31.739429  0.858663 0.342762 0.381068  0.042041 0.163296 1 0 1.000000
skin_0
0  39.584835 -3.826347 32.234928  0.444948 0.669284 0.595046  0.045259 0.165870 1 0 1.000000
0  39.529778 -3.757527 32.193638  0.264883 0.615897 0.741963  0.045617 0.165656 1 0 1.000000
0  38.580070 -4.115388 32.523968  -0.145233 0.558917 0.816407  0.043757 0.167372 1 0 1.000000
skin_0
0  38.511253 -4.074096 32.482677  -0.205925 0.500231 0.841049  0.043972 0.167158 1 0 1.000000
0  38.580070 -4.115388 32.523968  -0.145233 0.558917 0.816407  0.043757 0.167372 1 0 1.000000
0  39.529778 -3.757527 32.193638  0.264883 0.615897 0.741963  0.045617 0.165656 1 0 1.000000
skin_0
0  38.772766 -9.042846 31.822014  -0.136635 -0.989743 -0.041700  0.018153 0.163725 1 0 1.000000
0  38.827820 -9.042846 31.877069  0.051028 -0.977474 -0.204795  0.018153 0.164011 1 0 1.000000
0  37.974461 -8.547348 32.152348  -0.788126 -0.611627 0.069061  0.020727 0.165441 1 0 1.000000
skin_0
0  37.974461 -8.547348 32.234928  -0.863075 -0.500172 0.070206  0.020727 0.165870 1 0 1.000000
0  37.974461 -8.547348 32.152348  -0.788126 -0.611627 0.069061  0.020727 0.165441 1 0 1.000000
0  38.827820 -9.042846 31.877069  0.051028 -0.977474 -0.204795  0.018153 0.164011 1 0 1.000000
skin_0
0  37.974461 -8.547348 32.152348  -0.788126 -0.611627 0.069061  0.020727 0.165441 1 0 1.000000
0  37.974461 -8.547348 32.234928  -0.863075 -0.500172 0.070206  0.020727 0.165870 1 0 1.000000
0  37.768005 -6.895685 32.441387  -0.999378 -0.034410 -0.007767  0.029310 0.166943 1 0 1.000000
skin_0
0  37.768005 -6.881921 32.510204  -0.999907 -0.000662 -0.013639  0.029381 0.167301 1 0 1.000000
0  37.768005 -6.895685 32.441387  -0.999378 -0.034410 -0.007767  0.029310 0.166943 1 0 1.000000
0  37.974461 -8.547348 32.234928  -0.863075 -0.500172 0.070206  0.020727 0.165870 1 0 1.000000
skin_0
0  37.768005 -6.895685 32.441387  -0.999378 -0.034410 -0.007767  0.029310 0.166943 1 0 1.000000
0  37.768005 -6.881921 32.510204  -0.999907 -0.000662 -0.013639  0.029381 0.167301 1 0 1.000000
0  37.933170 -5.010038 32.620316  -0.944199 0.294929 -0.146646  0.039108 0.167873 1 0 1.000000
skin_0
0  37.933170 -4.982510 32.702900  -0.908885 0.378429 -0.175268  0.039251 0.168302 1 0 1.000000
0  37.933170 -5.010038 32.620316  -0.944199 0.294929 -0.146646  0.039108 0.167873 1 0 1.000000
0  37.768005 -6.881921 32.510204  -0.999907 -0.000662 -0.013639  0.029381 0.167301 1 0 1.000000
skin_0
0  37.933170 -5.010038 32.620316  -0.944199 0.294929 -0.146646  0.039108 0.167873 1 0 1.000000
0  37.933170 -4.982510 32.702900  -0.908885 0.378429 -0.175268  0.039251 0.168302 1 0 1.000000
0  38.580070 -4.115388 32.523968  -0.624827 0.663284 -0.411881  0.043757 0.167372 1 0 1.000000
skin_0
0  38.580070 -4.074096 32.592789  -0.571305 0.692069 -0.441193  0.043972 0.167730 1 0 1.000000
0  38.580070 -4.115388 32.523968  -0.624827 0.663284 -0.411881  0.043757 0.167372 1 0 1.000000
0  37.933170 -4.982510 32.702900  -0.908885 0.378429 -0.175268  0.039251 0.168302 1 0 1.000000
skin_0
0  38.580070 -4.115388 32.523968  -0.624827 0.663284 -0.411881  0.043757 0.167372 1 0 1.000000
0  38.580070 -4.074096 32.592789  -0.571305 0.692069 -0.441193  0.043972 0.167730 1 0 1.000000
0  39.584835 -3.826347 32.234928  -0.226815 0.635549 -0.737992  0.045259 0.165870 1 0 1.000000
skin_0
0  39.626125 -3.771291 32.262455  -0.174321 0.608848 -0.773897  0.045545 0.166013 1 0 1.000000
0  39.584835 -3.826347 32.234928  -0.226815 0.635549 -0.737992  0.045259 0.165870 1 0 1.000000
0  38.580070 -4.074096 32.592789  -0.571305 0.692069 -0.441193  0.043972 0.167730 1 0 1.000000
skin_0
0  39.584835 -3.826347 32.234928  -0.226815 0.635549 -0.737992  0.045259 0.165870 1 0 1.000000
0  39.626125 -3.771291 32.262455  -0.174321 0.608848 -0.773897  0.045545 0.166013 1 0 1.000000
0  40.603355 -4.473248 31.808250  -0.155846 0.242847 -0.957464  0.041898 0.163653 1 0 1.000000
skin_0
0  40.672173 -4.431956 31.794487  -0.158825 0.233550 -0.959286  0.042112 0.163582 1 0 1.000000
0  40.603355 -4.473248 31.808250  -0.155846 0.242847 -0.957464  0.041898 0.163653 1 0 1.000000
0  39.626125 -3.771291 32.262455  -0.174321 0.608848 -0.773897  0.045545 0.166013 1 0 1.000000
skin_0
0  40.672173 -4.431956 31.794487  -0.158825 0.233550 -0.959286  0.042112 0.163582 1 0 1.000000
0  40.740993 -5.753285 31.588030  0.115560 0.124493 -0.985468  0.035246 0.162509 1 0 1.000000
0  40.603355 -4.473248 31.808250  -0.155846 0.242847 -0.957464  0.041898 0.163653 1 0 1.000000
skin_0
0  40.685940 -5.767050 31.574266  0.125844 0.096914 -0.987305  0.035175 0.162437 1 0 1.000000
0  40.603355 -4.473248 31.808250  -0.155846 0.242847 -0.957464  0.041898 0.163653 1 0 1.000000
0  40.740993 -5.753285 31.588030  0.115560 0.124493 -0.985468  0.035246 0.162509 1 0 1.000000
skin_0
0  40.685940 -5.767050 31.574266  0.125844 0.096914 -0.987305  0.035175 0.162437 1 0 1.000000
0  40.740993 -5.753285 31.588030  0.115560 0.124493 -0.985468  0.035246 0.162509 1 0 1.000000
0  40.465721 -7.253546 31.477919  0.369332 -0.112252 -0.922493  0.027450 0.161937 1 0 1.000000
skin_0
0  40.534538 -7.239781 31.505445  0.356724 -0.052520 -0.932732  0.027522 0.162080 1 0 1.000000
0  40.465721 -7.253546 31.477919  0.369332 -0.112252 -0.922493  0.027450 0.161937 1 0 1.000000
0  40.740993 -5.753285 31.588030  0.115560 0.124493 -0.985468  0.035246 0.162509 1 0 1.000000
skin_0
0  40.534538 -7.239781 31.505445  0.356724 -0.052520 -0.932732  0.027522 0.162080 1 0 1.000000
0  40.135387 -8.299599 31.546740  0.456358 -0.397250 -0.796197  0.022015 0.162294 1 0 1.000000
0  40.465721 -7.253546 31.477919  0.369332 -0.112252 -0.922493  0.027450 0.161937 1 0 1.000000
skin_0
0  40.066566 -8.299599 31.505445  0.408691 -0.649912 -0.640770  0.022015 0.162080 1 0 1.000000
0  40.465721 -7.253546 31.477919  0.369332 -0.112252 -0.922493  0.027450 0.161937 1 0 1.000000
0  40.135387 -8.299599 31.546740  0.456358 -0.397250 -0.796197  0.022015 0.162294 1 0 1.000000
skin_0
0  40.135387 -8.299599 31.546740  0.456358 -0.397250 -0.796197  0.022015 0.162294 1 0 1.000000
0  38.827820 -9.042846 31.877069  0.051028 -0.977474 -0.204795  0.018153 0.164011 1 0 1.000000
0  40.066566 -8.299599 31.505445  0.408691 -0.649912 -0.640770  0.022015 0.162080 1 0 1.000000
skin_0
0  38.772766 -9.042846 31.822014  -0.136635 -0.989743 -0.041700  0.018153 0.163725 1 0 1.000000
0  40.066566 -8.299599 31.505445  0.408691 -0.649912 -0.640770  0.022015 0.162080 1 0 1.000000
0  38.827820 -9.042846 31.877069  0.051028 -0.977474 -0.204795  0.018153 0.164011 1 0 1.000000
chrome
0  41.140148 -2.931697 32.785484  -0.081357 0.996627 0.010724  0.193793 0.030274 1 0 1.000000
0  41.016273 -3.055571 34.244453  -0.083775 0.995449 0.045414  0.193793 0.030274 1 0 1.000000
0  41.291550 -2.862877 32.592789  -0.077487 0.996972 0.006504  0.193793 0.030274 1 0 1.000000
chrome
0  41.098854 -3.138154 36.391613  -0.082233 0.991968 0.096108  0.193793 0.030793 1 0 1.000000
0  41.346607 -3.055571 36.790764  -0.076192 0.991467 0.105769  0.193793 0.030793 1 0 1.000000
0  41.016273 -3.055571 34.244453  -0.083775 0.995449 0.045414  0.193793 0.030274 1 0 1.000000
chrome
0  41.016273 -3.055571 34.244453  -0.083775 0.995449 0.045414  0.193793 0.030274 1 0 1.000000
0  41.346607 -3.055571 36.790764  -0.076192 0.991467 0.105769  0.193793 0.030793 1 0 1.000000
0  41.291550 -2.862877 32.592789  -0.077487 0.996972 0.006504  0.193793 0.030274 1 0 1.000000
chrome
0  41.291550 -2.862877 32.592789  -0.077487 0.996972 0.006504  0.193793 0.030274 1 0 1.000000
0  41.346607 -3.055571 36.790764  -0.076192 0.991467 0.105769  0.193793 0.030793 1 0 1.000000
0  41.663170 -2.711475 32.496441  -0.068883 0.997618 0.003647  0.193793 0.030274 1 0 1.000000
chrome
0  41.883392 -2.849114 37.134857  -0.063449 0.991530 0.113322  0.193793 0.030793 1 0 1.000000
0  41.663170 -2.711475 32.496441  -0.068883 0.997618 0.003647  0.193793 0.030274 1 0 1.000000
0  41.346607 -3.055571 36.790764  -0.076192 0.991467 0.105769  0.193793 0.030793 1 0 1.000000
chrome
0  41.883392 -2.849114 37.134857  -0.063449 0.991530 0.113322  0.193793 0.030793 1 0 1.000000
0  46.384171 -1.018521 37.066040  0.044680 0.992971 0.109598  0.193793 0.030793 1 0 1.000000
0  41.663170 -2.711475 32.496441  -0.068883 0.997618 0.003647  0.193793 0.030274 1 0 1.000000
chrome
0  47.044838 -0.550550 33.198402  0.060104 0.998043 0.017246  0.193793 0.030274 1 0 1.000000
0  41.663170 -2.711475 32.496441  -0.068883 0.997618 0.003647  0.193793 0.030274 1 0 1.000000
0  46.384171 -1.018521 37.066040  0.044680 0.992971 0.109598  0.193793 0.030793 1 0 1.000000
chrome
0  46.384171 -1.018521 37.066040  0.044680 0.992971 0.109598  0.193793 0.030793 1 0 1.000000
0  47.017311 -0.743244 36.832058  0.059690 0.992829 0.103577  0.193793 0.030793 1 0 1.000000
0  47.044838 -0.550550 33.198402  0.060104 0.998043 0.017246  0.193793 0.030274 1 0 1.000000
chrome
0  47.361408 -0.440440 33.391094  0.067941 0.997458 0.021499  0.193793 0.030274 1 0 1.000000
0  47.044838 -0.550550 33.198402  0.060104 0.998043 0.017246  0.193793 0.030274 1 0 1.000000
0  47.017311 -0.743244 36.832058  0.059690 0.992829 0.103577  0.193793 0.030793 1 0 1.000000
chrome
0  47.017311 -0.743244 36.832058  0.059690 0.992829 0.103577  0.193793 0.030793 1 0 1.000000
0  47.485279 -0.523023 36.185154  0.070761 0.993592 0.088131  0.193396 0.030793 1 0 1.000000
0  47.361408 -0.440440 33.391094  0.067941 0.997458 0.021499  0.193793 0.030274 1 0 1.000000
chrome
0  47.609154 -0.357856 33.872829  0.073833 0.996722 0.033077  0.193396 0.030274 1 0 1.000000
0  47.361408 -0.440440 33.391094  0.067941 0.997458 0.021499  0.193793 0.030274 1 0 1.000000
0  47.485279 -0.523023 36.185154  0.070761 0.993592 0.088131  0.193396 0.030793 1 0 1.000000
chrome
0  47.746796 -0.357856 34.918880  0.076494 0.995396 0.057755  0.193396 0.030274 1 0 1.000000
0  47.609154 -0.357856 33.872829  0.073833 0.996722 0.033077  0.193396 0.030274 1 0 1.000000
0  47.485279 -0.523023 36.185154  0.070761 0.993592 0.088131  0.193396 0.030793 1 0 1.000000
end
