version 1
nodes
0 "root" -1
1 "steering_wheel" 0
end
skeleton
time 0
0  0.000000 0.000000 0.000000  0.000000 -0.000000 -0.000000
1  19.916300 17.934299 33.308498  0.000000 -0.000000 0.000000
end
triangles
misc
0  -37.754234 -7.115913 30.005192  -0.765607 0.434005 0.474854  0.466262 0.547136 1 0 1.000000
0  -37.712944 -7.060857 30.046482  -0.765613 0.434016 0.474834  0.466750 0.546617 1 0 1.000000
0  -37.740471 -7.047093 29.977663  -0.765614 0.434017 0.474832  0.466506 0.546373 1 0 1.000000
misc
0  -37.093567 -4.542073 30.679623  0.705299 0.041279 -0.707707  0.472884 0.549577 1 0 1.000000
0  -38.235966 -4.445726 29.564751  0.705274 0.041309 -0.707730  0.473128 0.549577 1 0 1.000000
0  -37.685413 -4.211740 30.115303  0.705302 0.041290 -0.707703  0.472884 0.549577 1 0 1.000000
misc
0  -37.093567 -4.542073 30.679623  0.705299 0.041279 -0.707707  0.472884 0.549577 1 0 1.000000
0  -36.818291 -5.478015 30.899843  0.705264 0.041295 -0.707741  0.472884 0.549577 1 0 1.000000
0  -38.235966 -4.445726 29.564751  0.705274 0.041309 -0.707730  0.473128 0.549577 1 0 1.000000
misc
0  -38.731468 -5.560597 29.000431  0.705262 0.041352 -0.707740  0.473128 0.549577 1 0 1.000000
0  -38.235966 -4.445726 29.564751  0.705274 0.041309 -0.707730  0.473128 0.549577 1 0 1.000000
0  -36.818291 -5.478015 30.899843  0.705264 0.041295 -0.707741  0.472884 0.549577 1 0 1.000000
misc
0  -36.818291 -5.478015 30.899843  0.705264 0.041295 -0.707741  0.472884 0.549577 1 0 1.000000
0  -36.694416 -7.336135 30.913607  0.705132 0.041321 -0.707871  0.472884 0.549333 1 0 1.000000
0  -38.731468 -5.560597 29.000431  0.705262 0.041352 -0.707740  0.473128 0.549577 1 0 1.000000
misc
0  -38.772758 -7.432481 28.849031  0.705272 0.041343 -0.707730  0.473128 0.549333 1 0 1.000000
0  -38.731468 -5.560597 29.000431  0.705262 0.041352 -0.707740  0.473128 0.549577 1 0 1.000000
0  -36.694416 -7.336135 30.913607  0.705132 0.041321 -0.707871  0.472884 0.549333 1 0 1.000000
misc
0  -38.772758 -7.432481 28.849031  0.705272 0.041343 -0.707730  0.473128 0.549333 1 0 1.000000
0  -36.694416 -7.336135 30.913607  0.705132 0.041321 -0.707871  0.472884 0.549333 1 0 1.000000
0  -38.552536 -9.111670 28.959141  0.705091 0.040810 -0.707942  0.473128 0.549333 1 0 1.000000
misc
0  -36.832058 -9.125435 30.679623  0.705352 0.040715 -0.707687  0.472884 0.549333 1 0 1.000000
0  -38.552536 -9.111670 28.959141  0.705091 0.040810 -0.707942  0.473128 0.549333 1 0 1.000000
0  -36.694416 -7.336135 30.913607  0.705132 0.041321 -0.707871  0.472884 0.549333 1 0 1.000000
misc
0  -36.832058 -9.125435 30.679623  0.705352 0.040715 -0.707687  0.472884 0.549333 1 0 1.000000
0  -37.341316 -9.965029 30.129066  0.705281 0.040268 -0.707784  0.472884 0.549333 1 0 1.000000
0  -38.552536 -9.111670 28.959141  0.705091 0.040810 -0.707942  0.473128 0.549333 1 0 1.000000
misc
0  -38.084564 -9.662225 29.399586  0.706130 0.042401 -0.706812  0.473128 0.549333 1 0 1.000000
0  -38.552536 -9.111670 28.959141  0.705091 0.040810 -0.707942  0.473128 0.549333 1 0 1.000000
0  -37.341316 -9.965029 30.129066  0.705281 0.040268 -0.707784  0.472884 0.549333 1 0 1.000000
misc
0  -37.520248 -7.404953 28.628807  -0.022702 -0.092704 -0.995435  0.470168 0.532670 1 0 1.000000
0  -37.451427 -7.391190 28.628807  -0.022682 -0.092660 -0.995439  0.471175 0.532426 1 0 1.000000
0  -37.465191 -7.460009 28.628807  -0.022657 -0.092568 -0.995449  0.470931 0.533158 1 0 1.000000
misc
0  -37.024746 -7.515064 28.807739  0.407018 -0.889419 0.208014  0.474105 0.551805 1 0 1.000000
0  -37.148621 -7.432481 29.399584  0.337469 -0.859978 0.382822  0.472884 0.550798 1 0 1.000000
0  -37.093567 -7.556356 28.793976  0.407063 -0.889397 0.208023  0.473342 0.552049 1 0 1.000000
misc
0  -37.217442 -7.473773 29.372057  0.343519 -0.862985 0.370475  0.472121 0.551286 1 0 1.000000
0  -37.093567 -7.556356 28.793976  0.407063 -0.889397 0.208023  0.473342 0.552049 1 0 1.000000
0  -37.148621 -7.432481 29.399584  0.337469 -0.859978 0.382822  0.472884 0.550798 1 0 1.000000
misc
0  -37.148621 -7.432481 29.399584  0.337469 -0.859978 0.382822  0.472884 0.550798 1 0 1.000000
0  -37.437664 -7.212260 29.881317  0.163598 -0.749577 0.641382  0.469680 0.548326 1 0 1.000000
0  -37.217442 -7.473773 29.372057  0.343519 -0.862985 0.370475  0.472121 0.551286 1 0 1.000000
misc
0  -37.492722 -7.253551 29.840027  0.172073 -0.753923 0.634028  0.468978 0.548845 1 0 1.000000
0  -37.217442 -7.473773 29.372057  0.343519 -0.862985 0.370475  0.472121 0.551286 1 0 1.000000
0  -37.437664 -7.212260 29.881317  0.163598 -0.749577 0.641382  0.469680 0.548326 1 0 1.000000
misc
0  -37.437664 -7.212260 29.881317  0.163598 -0.749577 0.641382  0.469680 0.548326 1 0 1.000000
0  -37.712944 -7.060857 30.046482  0.061997 -0.684698 0.726185  0.466750 0.546617 1 0 1.000000
0  -37.492722 -7.253551 29.840027  0.172073 -0.753923 0.634028  0.468978 0.548845 1 0 1.000000
misc
0  -37.754234 -7.115913 30.005192  0.061989 -0.684698 0.726186  0.466262 0.547136 1 0 1.000000
0  -37.492722 -7.253551 29.840027  0.172073 -0.753923 0.634028  0.468978 0.548845 1 0 1.000000
0  -37.712944 -7.060857 30.046482  0.061997 -0.684698 0.726185  0.466750 0.546617 1 0 1.000000
misc
0  -37.740471 -7.047093 29.977663  -0.586030 -0.164294 -0.793458  0.466506 0.546373 1 0 1.000000
0  -37.478954 -7.184731 29.812500  -0.738306 -0.081552 -0.669517  0.469161 0.548143 1 0 1.000000
0  -37.754234 -7.115913 30.005192  -0.586016 -0.164285 -0.793471  0.466262 0.547136 1 0 1.000000
misc
0  -37.492722 -7.253551 29.840027  -0.740946 -0.080815 -0.666684  0.468978 0.548845 1 0 1.000000
0  -37.754234 -7.115913 30.005192  -0.586016 -0.164285 -0.793471  0.466262 0.547136 1 0 1.000000
0  -37.478954 -7.184731 29.812500  -0.738306 -0.081552 -0.669517  0.469161 0.548143 1 0 1.000000
misc
0  -37.478954 -7.184731 29.812500  -0.738306 -0.081552 -0.669517  0.469161 0.548143 1 0 1.000000
0  -37.217442 -7.404953 29.358294  -0.930973 0.026443 -0.364130  0.472121 0.550340 1 0 1.000000
0  -37.492722 -7.253551 29.840027  -0.740946 -0.080815 -0.666684  0.468978 0.548845 1 0 1.000000
misc
0  -37.217442 -7.473773 29.372057  -0.932098 0.026468 -0.361238  0.472121 0.551286 1 0 1.000000
0  -37.492722 -7.253551 29.840027  -0.740946 -0.080815 -0.666684  0.468978 0.548845 1 0 1.000000
0  -37.217442 -7.404953 29.358294  -0.930973 0.026443 -0.364130  0.472121 0.550340 1 0 1.000000
misc
0  -37.217442 -7.404953 29.358294  -0.930973 0.026443 -0.364130  0.472121 0.550340 1 0 1.000000
0  -37.093567 -7.473773 28.780207  -0.975895 0.066165 -0.207968  0.473586 0.551286 1 0 1.000000
0  -37.217442 -7.473773 29.372057  -0.932098 0.026468 -0.361238  0.472121 0.551286 1 0 1.000000
misc
0  -37.093567 -7.556356 28.793976  -0.975880 0.066131 -0.208050  0.473342 0.552049 1 0 1.000000
0  -37.217442 -7.473773 29.372057  -0.932098 0.026468 -0.361238  0.472121 0.551286 1 0 1.000000
0  -37.093567 -7.473773 28.780207  -0.975895 0.066165 -0.207968  0.473586 0.551286 1 0 1.000000
misc
0  -37.712944 -7.060857 30.046482  0.523568 0.849362 0.066783  0.466750 0.546617 1 0 1.000000
0  -37.437664 -7.212260 29.881317  0.563336 0.825621 0.031659  0.469680 0.548326 1 0 1.000000
0  -37.740471 -7.047093 29.977663  0.523629 0.849303 0.067059  0.466506 0.546373 1 0 1.000000
misc
0  -37.478954 -7.184731 29.812500  0.564838 0.824708 0.028547  0.469161 0.548143 1 0 1.000000
0  -37.740471 -7.047093 29.977663  0.523629 0.849303 0.067059  0.466506 0.546373 1 0 1.000000
0  -37.437664 -7.212260 29.881317  0.563336 0.825621 0.031659  0.469680 0.548326 1 0 1.000000
misc
0  -37.437664 -7.212260 29.881317  0.563336 0.825621 0.031659  0.469680 0.548326 1 0 1.000000
0  -37.148621 -7.432481 29.399584  0.576359 0.817045 -0.015731  0.472884 0.550798 1 0 1.000000
0  -37.478954 -7.184731 29.812500  0.564838 0.824708 0.028547  0.469161 0.548143 1 0 1.000000
misc
0  -37.217442 -7.404953 29.358294  0.575071 0.817953 -0.015696  0.472121 0.550340 1 0 1.000000
0  -37.478954 -7.184731 29.812500  0.564838 0.824708 0.028547  0.469161 0.548143 1 0 1.000000
0  -37.148621 -7.432481 29.399584  0.576359 0.817045 -0.015731  0.472884 0.550798 1 0 1.000000
misc
0  -37.148621 -7.432481 29.399584  0.576359 0.817045 -0.015731  0.472884 0.550798 1 0 1.000000
0  -37.024746 -7.515064 28.807739  0.568759 0.822504 -0.000007  0.474105 0.551805 1 0 1.000000
0  -37.217442 -7.404953 29.358294  0.575071 0.817953 -0.015696  0.472121 0.550340 1 0 1.000000
misc
0  -37.093567 -7.473773 28.780207  0.568798 0.822478 0.000008  0.473586 0.551286 1 0 1.000000
0  -37.217442 -7.404953 29.358294  0.575071 0.817953 -0.015696  0.472121 0.550340 1 0 1.000000
0  -37.024746 -7.515064 28.807739  0.568759 0.822504 -0.000007  0.474105 0.551805 1 0 1.000000
misc
0  -37.699177 -7.033329 29.963900  -0.184838 0.832533 -0.522230  0.468215 0.528489 1 0 1.000000
0  -37.561539 -7.184731 29.688625  -0.217944 0.872303 -0.437707  0.469680 0.530198 1 0 1.000000
0  -37.767998 -7.060857 29.950136  -0.184789 0.832557 -0.522209  0.467452 0.528733 1 0 1.000000
misc
0  -37.630360 -7.212260 29.661093  -0.217946 0.872328 -0.437657  0.468978 0.530442 1 0 1.000000
0  -37.767998 -7.060857 29.950136  -0.184789 0.832557 -0.522209  0.467452 0.528733 1 0 1.000000
0  -37.561539 -7.184731 29.688625  -0.217944 0.872303 -0.437707  0.469680 0.530198 1 0 1.000000
misc
0  -37.561539 -7.184731 29.688625  -0.217944 0.872303 -0.437707  0.469680 0.530198 1 0 1.000000
0  -37.437664 -7.336135 29.206886  -0.266039 0.939050 -0.217734  0.471175 0.531663 1 0 1.000000
0  -37.630360 -7.212260 29.661093  -0.217946 0.872328 -0.437657  0.468978 0.530442 1 0 1.000000
misc
0  -37.506485 -7.349898 29.206886  -0.265753 0.939144 -0.217679  0.470412 0.531907 1 0 1.000000
0  -37.630360 -7.212260 29.661093  -0.217946 0.872328 -0.437657  0.468978 0.530442 1 0 1.000000
0  -37.437664 -7.336135 29.206886  -0.266039 0.939050 -0.217734  0.471175 0.531663 1 0 1.000000
misc
0  -37.437664 -7.336135 29.206886  -0.266039 0.939050 -0.217734  0.471175 0.531663 1 0 1.000000
0  -37.451427 -7.391190 28.628807  -0.279260 0.956622 -0.082993  0.471175 0.532426 1 0 1.000000
0  -37.506485 -7.349898 29.206886  -0.265753 0.939144 -0.217679  0.470412 0.531907 1 0 1.000000
misc
0  -37.520248 -7.404953 28.628807  -0.279310 0.956608 -0.082988  0.470168 0.532670 1 0 1.000000
0  -37.506485 -7.349898 29.206886  -0.265753 0.939144 -0.217679  0.470412 0.531907 1 0 1.000000
0  -37.451427 -7.391190 28.628807  -0.279260 0.956622 -0.082993  0.471175 0.532426 1 0 1.000000
misc
0  -37.726707 -7.115913 29.991426  0.872647 -0.108088 0.476239  0.467971 0.529252 1 0 1.000000
0  -37.589066 -7.253551 29.702389  0.907431 -0.143388 0.394980  0.469680 0.530961 1 0 1.000000
0  -37.699177 -7.033329 29.963900  0.872636 -0.108148 0.476247  0.468215 0.528489 1 0 1.000000
misc
0  -37.561539 -7.184731 29.688625  0.907409 -0.143593 0.394955  0.469680 0.530198 1 0 1.000000
0  -37.699177 -7.033329 29.963900  0.872636 -0.108148 0.476247  0.468215 0.528489 1 0 1.000000
0  -37.589066 -7.253551 29.702389  0.907431 -0.143388 0.394980  0.469680 0.530961 1 0 1.000000
misc
0  -37.589066 -7.253551 29.702389  0.907431 -0.143388 0.394980  0.469680 0.530961 1 0 1.000000
0  -37.451427 -7.404953 29.220650  0.964756 -0.211171 0.157008  0.471175 0.532670 1 0 1.000000
0  -37.561539 -7.184731 29.688625  0.907409 -0.143593 0.394955  0.469680 0.530198 1 0 1.000000
misc
0  -37.437664 -7.336135 29.206886  0.964763 -0.211177 0.156961  0.471175 0.531663 1 0 1.000000
0  -37.561539 -7.184731 29.688625  0.907409 -0.143593 0.394955  0.469680 0.530198 1 0 1.000000
0  -37.451427 -7.404953 29.220650  0.964756 -0.211171 0.157008  0.471175 0.532670 1 0 1.000000
misc
0  -37.451427 -7.404953 29.220650  0.964756 -0.211171 0.157008  0.471175 0.532670 1 0 1.000000
0  -37.465191 -7.460009 28.628807  0.970959 -0.239245 -0.000001  0.470931 0.533158 1 0 1.000000
0  -37.437664 -7.336135 29.206886  0.964763 -0.211177 0.156961  0.471175 0.531663 1 0 1.000000
misc
0  -37.451427 -7.391190 28.628807  0.970965 -0.239221 -0.000001  0.471175 0.532426 1 0 1.000000
0  -37.437664 -7.336135 29.206886  0.964763 -0.211177 0.156961  0.471175 0.531663 1 0 1.000000
0  -37.465191 -7.460009 28.628807  0.970959 -0.239245 -0.000001  0.470931 0.533158 1 0 1.000000
misc
0  -37.767998 -7.060857 29.950136  -0.688418 -0.723875 0.045673  0.467452 0.528733 1 0 1.000000
0  -37.630360 -7.212260 29.661093  -0.686573 -0.725821 0.042447  0.468978 0.530442 1 0 1.000000
0  -37.726707 -7.115913 29.991426  -0.688365 -0.723925 0.045679  0.467971 0.529252 1 0 1.000000
misc
0  -37.589066 -7.253551 29.702389  -0.686707 -0.725692 0.042482  0.469680 0.530961 1 0 1.000000
0  -37.726707 -7.115913 29.991426  -0.688365 -0.723925 0.045679  0.467971 0.529252 1 0 1.000000
0  -37.630360 -7.212260 29.661093  -0.686573 -0.725821 0.042447  0.468978 0.530442 1 0 1.000000
misc
0  -37.630360 -7.212260 29.661093  -0.686573 -0.725821 0.042447  0.468978 0.530442 1 0 1.000000
0  -37.506485 -7.349898 29.206886  -0.689279 -0.721941 0.060785  0.470412 0.531907 1 0 1.000000
0  -37.589066 -7.253551 29.702389  -0.686707 -0.725692 0.042482  0.469680 0.530961 1 0 1.000000
misc
0  -37.451427 -7.404953 29.220650  -0.689272 -0.721947 0.060797  0.471175 0.532670 1 0 1.000000
0  -37.589066 -7.253551 29.702389  -0.686707 -0.725692 0.042482  0.469680 0.530961 1 0 1.000000
0  -37.506485 -7.349898 29.206886  -0.689279 -0.721941 0.060785  0.470412 0.531907 1 0 1.000000
misc
0  -37.506485 -7.349898 29.206886  -0.689279 -0.721941 0.060785  0.470412 0.531907 1 0 1.000000
0  -37.520248 -7.404953 28.628807  -0.691706 -0.717397 0.082979  0.470168 0.532670 1 0 1.000000
0  -37.451427 -7.404953 29.220650  -0.689272 -0.721947 0.060797  0.471175 0.532670 1 0 1.000000
misc
0  -37.465191 -7.460009 28.628807  -0.691719 -0.717384 0.082978  0.470931 0.533158 1 0 1.000000
0  -37.451427 -7.404953 29.220650  -0.689272 -0.721947 0.060797  0.471175 0.532670 1 0 1.000000
0  -37.520248 -7.404953 28.628807  -0.691706 -0.717397 0.082979  0.470168 0.532670 1 0 1.000000
misc
0  -37.767998 -7.060857 29.950136  -0.392513 0.424716 0.815812  0.467452 0.528733 1 0 1.000000
0  -37.726707 -7.115913 29.991426  -0.392512 0.424716 0.815813  0.467971 0.529252 1 0 1.000000
0  -37.699177 -7.033329 29.963900  -0.392515 0.424711 0.815814  0.468215 0.528489 1 0 1.000000
misc
0  -37.093567 -7.556356 28.793976  0.197517 -0.136707 -0.970721  0.473342 0.552049 1 0 1.000000
0  -37.093567 -7.473773 28.780207  0.197608 -0.136733 -0.970698  0.473586 0.551286 1 0 1.000000
0  -37.024746 -7.515064 28.807739  0.197755 -0.136722 -0.970670  0.474105 0.551805 1 0 1.000000
skin_0
0  -41.016266 -3.055578 34.244461  -0.759735 0.647886 0.055191  0.049264 0.228791 1 0 1.000000
0  -40.878628 -2.876647 34.244461  -0.760084 0.647268 0.057581  0.050193 0.228791 1 0 1.000000
0  -41.140141 -2.931703 32.785492  -0.687280 0.618726 0.380559  0.049907 0.236372 1 0 1.000000
skin_0
0  -40.988735 -2.752773 32.757965  -0.683371 0.616458 0.391132  0.050837 0.236515 1 0 1.000000
0  -41.140141 -2.931703 32.785492  -0.687280 0.618726 0.380559  0.049907 0.236372 1 0 1.000000
0  -40.878628 -2.876647 34.244461  -0.760084 0.647268 0.057581  0.050193 0.228791 1 0 1.000000
skin_0
0  -41.140141 -2.931703 32.785492  -0.687280 0.618726 0.380559  0.049907 0.236372 1 0 1.000000
0  -40.988735 -2.752773 32.757965  -0.683371 0.616458 0.391132  0.050837 0.236515 1 0 1.000000
0  -41.291542 -2.862884 32.592796  -0.348582 0.419937 0.837940  0.050265 0.237373 1 0 1.000000
skin_0
0  -41.153904 -2.670190 32.565269  -0.386513 0.444850 0.807908  0.051266 0.237516 1 0 1.000000
0  -41.291542 -2.862884 32.592796  -0.348582 0.419937 0.837940  0.050265 0.237373 1 0 1.000000
0  -40.988735 -2.752773 32.757965  -0.683371 0.616458 0.391132  0.050837 0.236515 1 0 1.000000
skin_0
0  -41.153904 -2.670190 32.565269  -0.386513 0.444850 0.807908  0.051266 0.237516 1 0 1.000000
0  -41.511761 -2.518787 32.455158  -0.018585 0.189501 0.981705  0.052053 0.238088 1 0 1.000000
0  -41.291542 -2.862884 32.592796  -0.348582 0.419937 0.837940  0.050265 0.237373 1 0 1.000000
skin_0
0  -41.663162 -2.711481 32.496449  0.026593 0.157018 0.987238  0.051052 0.237874 1 0 1.000000
0  -41.291542 -2.862884 32.592796  -0.348582 0.419937 0.837940  0.050265 0.237373 1 0 1.000000
0  -41.511761 -2.518787 32.455158  -0.018585 0.189501 0.981705  0.052053 0.238088 1 0 1.000000
skin_0
0  -41.663162 -2.711481 32.496449  0.026593 0.157018 0.987238  0.051052 0.237874 1 0 1.000000
0  -41.511761 -2.518787 32.455158  -0.018585 0.189501 0.981705  0.052053 0.238088 1 0 1.000000
0  -47.044830 -0.550557 33.198410  0.315680 0.033011 0.948291  0.062280 0.234226 1 0 1.000000
skin_0
0  -47.003540 -0.330336 33.170876  0.354472 0.025418 0.934721  0.063425 0.234369 1 0 1.000000
0  -47.044830 -0.550557 33.198410  0.315680 0.033011 0.948291  0.062280 0.234226 1 0 1.000000
0  -41.511761 -2.518787 32.455158  -0.018585 0.189501 0.981705  0.052053 0.238088 1 0 1.000000
skin_0
0  -47.003540 -0.330336 33.170876  0.354472 0.025418 0.934721  0.063425 0.234369 1 0 1.000000
0  -47.333874 -0.206461 33.377338  0.735988 -0.049059 0.675215  0.064068 0.233296 1 0 1.000000
0  -47.044830 -0.550557 33.198410  0.315680 0.033011 0.948291  0.062280 0.234226 1 0 1.000000
skin_0
0  -47.361401 -0.440447 33.391102  0.713355 -0.044420 0.699394  0.062853 0.233225 1 0 1.000000
0  -47.044830 -0.550557 33.198410  0.315680 0.033011 0.948291  0.062280 0.234226 1 0 1.000000
0  -47.333874 -0.206461 33.377338  0.735988 -0.049059 0.675215  0.064068 0.233296 1 0 1.000000
skin_0
0  -47.333874 -0.206461 33.377338  0.735988 -0.049059 0.675215  0.064068 0.233296 1 0 1.000000
0  -47.595383 -0.123878 33.872837  0.950324 -0.096390 0.295961  0.064498 0.230722 1 0 1.000000
0  -47.361401 -0.440447 33.391102  0.713355 -0.044420 0.699394  0.062853 0.233225 1 0 1.000000
skin_0
0  -47.609146 -0.357864 33.872837  0.949909 -0.096159 0.297367  0.063282 0.230722 1 0 1.000000
0  -47.361401 -0.440447 33.391102  0.713355 -0.044420 0.699394  0.062853 0.233225 1 0 1.000000
0  -47.595383 -0.123878 33.872837  0.950324 -0.096390 0.295961  0.064498 0.230722 1 0 1.000000
skin_0
0  -47.595383 -0.123878 33.872837  0.950324 -0.096390 0.295961  0.064498 0.230722 1 0 1.000000
0  -47.733025 -0.123878 34.932652  0.994455 -0.096143 -0.042602  0.064498 0.225215 1 0 1.000000
0  -47.609146 -0.357864 33.872837  0.949909 -0.096159 0.297367  0.063282 0.230722 1 0 1.000000
skin_0
0  -47.746788 -0.357864 34.918888  0.994329 -0.096857 -0.043918  0.063282 0.225286 1 0 1.000000
0  -47.609146 -0.357864 33.872837  0.949909 -0.096159 0.297367  0.063282 0.230722 1 0 1.000000
0  -47.733025 -0.123878 34.932652  0.994455 -0.096143 -0.042602  0.064498 0.225215 1 0 1.000000
skin_0
0  -47.733025 -0.123878 34.932652  0.994455 -0.096143 -0.042602  0.064498 0.225215 1 0 1.000000
0  -47.457745 -0.302808 36.226452  0.911275 -0.046383 -0.409178  0.063568 0.218491 1 0 1.000000
0  -47.746788 -0.357864 34.918888  0.994329 -0.096857 -0.043918  0.063282 0.225286 1 0 1.000000
skin_0
0  -47.485271 -0.523030 36.185162  0.910209 -0.045622 -0.411628  0.062423 0.218706 1 0 1.000000
0  -47.746788 -0.357864 34.918888  0.994329 -0.096857 -0.043918  0.063282 0.225286 1 0 1.000000
0  -47.457745 -0.302808 36.226452  0.911275 -0.046383 -0.409178  0.063568 0.218491 1 0 1.000000
skin_0
0  -47.485271 -0.523030 36.185162  0.910209 -0.045622 -0.411628  0.062423 0.218706 1 0 1.000000
0  -47.457745 -0.302808 36.226452  0.911275 -0.046383 -0.409178  0.063568 0.218491 1 0 1.000000
0  -47.017303 -0.743251 36.832066  0.615195 0.070774 -0.785192  0.061279 0.215345 1 0 1.000000
skin_0
0  -46.989777 -0.523030 36.873356  0.636290 0.063977 -0.768793  0.062423 0.215130 1 0 1.000000
0  -47.017303 -0.743251 36.832066  0.615195 0.070774 -0.785192  0.061279 0.215345 1 0 1.000000
0  -47.457745 -0.302808 36.226452  0.911275 -0.046383 -0.409178  0.063568 0.218491 1 0 1.000000
skin_0
0  -46.989777 -0.523030 36.873356  0.636290 0.063977 -0.768793  0.062423 0.215130 1 0 1.000000
0  -46.342873 -0.798307 37.121101  0.263924 0.173087 -0.948886  0.060993 0.213843 1 0 1.000000
0  -47.017303 -0.743251 36.832066  0.615195 0.070774 -0.785192  0.061279 0.215345 1 0 1.000000
skin_0
0  -46.384163 -1.018528 37.066048  0.239955 0.179415 -0.954061  0.059849 0.214129 1 0 1.000000
0  -47.017303 -0.743251 36.832066  0.615195 0.070774 -0.785192  0.061279 0.215345 1 0 1.000000
0  -46.342873 -0.798307 37.121101  0.263924 0.173087 -0.948886  0.060993 0.213843 1 0 1.000000
skin_0
0  -46.342873 -0.798307 37.121101  0.263924 0.173087 -0.948886  0.060993 0.213843 1 0 1.000000
0  -41.745750 -2.656426 37.176159  -0.142570 0.376126 -0.915534  0.051338 0.213557 1 0 1.000000
0  -46.384163 -1.018528 37.066048  0.239955 0.179415 -0.954061  0.059849 0.214129 1 0 1.000000
skin_0
0  -41.883385 -2.849120 37.134865  -0.093021 0.345693 -0.933726  0.050336 0.213771 1 0 1.000000
0  -46.384163 -1.018528 37.066048  0.239955 0.179415 -0.954061  0.059849 0.214129 1 0 1.000000
0  -41.745750 -2.656426 37.176159  -0.142570 0.376126 -0.915534  0.051338 0.213557 1 0 1.000000
skin_0
0  -41.745750 -2.656426 37.176159  -0.142570 0.376126 -0.915534  0.051338 0.213557 1 0 1.000000
0  -41.208958 -2.876647 36.845829  -0.484626 0.567905 -0.665298  0.050193 0.215273 1 0 1.000000
0  -41.883385 -2.849120 37.134865  -0.093021 0.345693 -0.933726  0.050336 0.213771 1 0 1.000000
skin_0
0  -41.346600 -3.055578 36.790771  -0.468023 0.559837 -0.683767  0.049264 0.215559 1 0 1.000000
0  -41.883385 -2.849120 37.134865  -0.093021 0.345693 -0.933726  0.050336 0.213771 1 0 1.000000
0  -41.208958 -2.876647 36.845829  -0.484626 0.567905 -0.665298  0.050193 0.215273 1 0 1.000000
skin_0
0  -41.208958 -2.876647 36.845829  -0.484626 0.567905 -0.665298  0.050193 0.215273 1 0 1.000000
0  -40.947445 -2.945467 36.432911  -0.707726 0.653548 -0.268325  0.049836 0.217419 1 0 1.000000
0  -41.346600 -3.055578 36.790771  -0.468023 0.559837 -0.683767  0.049264 0.215559 1 0 1.000000
skin_0
0  -41.098846 -3.138160 36.391621  -0.711026 0.654292 -0.257572  0.048834 0.217633 1 0 1.000000
0  -41.346600 -3.055578 36.790771  -0.468023 0.559837 -0.683767  0.049264 0.215559 1 0 1.000000
0  -40.947445 -2.945467 36.432911  -0.707726 0.653548 -0.268325  0.049836 0.217419 1 0 1.000000
skin_0
0  -40.947445 -2.945467 36.432911  -0.707726 0.653548 -0.268325  0.049836 0.217419 1 0 1.000000
0  -40.878628 -2.876647 34.244461  -0.760084 0.647268 0.057581  0.050193 0.228791 1 0 1.000000
0  -41.098846 -3.138160 36.391621  -0.711026 0.654292 -0.257572  0.048834 0.217633 1 0 1.000000
skin_0
0  -41.016266 -3.055578 34.244461  -0.759735 0.647886 0.055191  0.049264 0.228791 1 0 1.000000
0  -41.098846 -3.138160 36.391621  -0.711026 0.654292 -0.257572  0.048834 0.217633 1 0 1.000000
0  -40.878628 -2.876647 34.244461  -0.760084 0.647268 0.057581  0.050193 0.228791 1 0 1.000000
skin_0
0  -47.209995 -0.646904 37.038517  -0.518929 0.309844 0.796686  0.061780 0.214272 1 0 1.000000
0  -47.774315 -2.505024 36.556786  -0.631902 -0.181414 0.753518  0.052124 0.216775 1 0 1.000000
0  -46.508041 -0.949709 37.313797  -0.151597 0.113280 0.981930  0.060206 0.212841 1 0 1.000000
skin_0
0  -47.209995 -0.646904 37.038517  -0.518929 0.309844 0.796686  0.061780 0.214272 1 0 1.000000
0  -47.719261 -0.412919 36.281509  -0.799592 0.415495 0.433608  0.062996 0.218205 1 0 1.000000
0  -47.774315 -2.505024 36.556786  -0.631902 -0.181414 0.753518  0.052124 0.216775 1 0 1.000000
skin_0
0  -47.237522 -2.780301 36.708187  -0.313286 -0.373599 0.873084  0.050694 0.215988 1 0 1.000000
0  -46.508041 -0.949709 37.313797  -0.151597 0.113280 0.981930  0.060206 0.212841 1 0 1.000000
0  -47.774315 -2.505024 36.556786  -0.631902 -0.181414 0.753518  0.052124 0.216775 1 0 1.000000
skin_0
0  -47.237522 -2.780301 36.708187  -0.313286 -0.373599 0.873084  0.050694 0.215988 1 0 1.000000
0  -47.774315 -2.505024 36.556786  -0.631902 -0.181414 0.753518  0.052124 0.216775 1 0 1.000000
0  -47.388927 -3.358383 36.240215  -0.370484 -0.578460 0.726722  0.047690 0.218420 1 0 1.000000
skin_0
0  -47.856899 -3.055578 36.171398  -0.664596 -0.430711 0.610574  0.049264 0.218778 1 0 1.000000
0  -47.388927 -3.358383 36.240215  -0.370484 -0.578460 0.726722  0.047690 0.218420 1 0 1.000000
0  -47.774315 -2.505024 36.556786  -0.631902 -0.181414 0.753518  0.052124 0.216775 1 0 1.000000
skin_0
0  -48.200996 -2.422441 35.978706  -0.915038 -0.067441 0.397689  0.052553 0.219779 1 0 1.000000
0  -47.856899 -3.055578 36.171398  -0.664596 -0.430711 0.610574  0.049264 0.218778 1 0 1.000000
0  -47.774315 -2.505024 36.556786  -0.631902 -0.181414 0.753518  0.052124 0.216775 1 0 1.000000
skin_0
0  -48.200996 -2.422441 35.978706  -0.915038 -0.067441 0.397689  0.052553 0.219779 1 0 1.000000
0  -47.774315 -2.505024 36.556786  -0.631902 -0.181414 0.753518  0.052124 0.216775 1 0 1.000000
0  -47.719261 -0.412919 36.281509  -0.799592 0.415495 0.433608  0.062996 0.218205 1 0 1.000000
skin_0
0  -48.200996 -2.422441 35.978706  -0.915038 -0.067441 0.397689  0.052553 0.219779 1 0 1.000000
0  -47.719261 -0.412919 36.281509  -0.799592 0.415495 0.433608  0.062996 0.218205 1 0 1.000000
0  -48.448742 -2.339858 34.932652  -0.998727 -0.041494 0.028675  0.052983 0.225215 1 0 1.000000
skin_0
0  -48.008297 -0.247753 34.946415  -0.875646 0.478983 0.061804  0.063854 0.225143 1 0 1.000000
0  -48.448742 -2.339858 34.932652  -0.998727 -0.041494 0.028675  0.052983 0.225215 1 0 1.000000
0  -47.719261 -0.412919 36.281509  -0.799592 0.415495 0.433608  0.062996 0.218205 1 0 1.000000
skin_0
0  -48.008297 -0.247753 34.946415  -0.875646 0.478983 0.061804  0.063854 0.225143 1 0 1.000000
0  -47.856899 -0.247753 33.831543  -0.851374 0.446600 -0.275157  0.063854 0.230936 1 0 1.000000
0  -48.448742 -2.339858 34.932652  -0.998727 -0.041494 0.028675  0.052983 0.225215 1 0 1.000000
skin_0
0  -47.237522 -2.780301 36.708187  -0.313286 -0.373599 0.873084  0.050694 0.215988 1 0 1.000000
0  -47.388927 -3.358383 36.240215  -0.370484 -0.578460 0.726722  0.047690 0.218420 1 0 1.000000
0  -42.571583 -4.996280 36.680660  -0.029866 -0.451894 0.891572  0.039179 0.216131 1 0 1.000000
skin_0
0  -47.416454 -0.165170 33.280991  -0.436802 0.608695 -0.662340  0.064283 0.233797 1 0 1.000000
0  -47.044830 -0.302808 33.060768  -0.140087 0.371058 -0.917983  0.063568 0.234941 1 0 1.000000
0  -47.609146 -0.330336 33.253464  -0.644304 0.385651 -0.660414  0.063425 0.233940 1 0 1.000000
skin_0
0  -47.609146 -0.330336 33.253464  -0.644304 0.385651 -0.660414  0.063425 0.233940 1 0 1.000000
0  -47.856899 -0.247753 33.831543  -0.851374 0.446600 -0.275157  0.063854 0.230936 1 0 1.000000
0  -47.416454 -0.165170 33.280991  -0.436802 0.608695 -0.662340  0.064283 0.233797 1 0 1.000000
skin_0
0  -47.856899 -0.247753 33.831543  -0.851374 0.446600 -0.275157  0.063854 0.230936 1 0 1.000000
0  -47.609146 -0.330336 33.253464  -0.644304 0.385651 -0.660414  0.063425 0.233940 1 0 1.000000
0  -48.269814 -2.284802 33.955418  -0.914109 -0.069750 -0.399425  0.053269 0.230292 1 0 1.000000
skin_0
0  -48.269814 -2.284802 33.955418  -0.914109 -0.069750 -0.399425  0.053269 0.230292 1 0 1.000000
0  -48.448742 -2.339858 34.932652  -0.998727 -0.041494 0.028675  0.052983 0.225215 1 0 1.000000
0  -47.856899 -0.247753 33.831543  -0.851374 0.446600 -0.275157  0.063854 0.230936 1 0 1.000000
skin_0
0  -48.269814 -2.284802 33.955418  -0.914109 -0.069750 -0.399425  0.053269 0.230292 1 0 1.000000
0  -47.994534 -3.317091 34.120586  -0.848675 -0.420168 -0.321263  0.047905 0.229434 1 0 1.000000
0  -48.448742 -2.339858 34.932652  -0.998727 -0.041494 0.028675  0.052983 0.225215 1 0 1.000000
skin_0
0  -48.173470 -3.262036 34.918888  -0.912058 -0.410061 0.000147  0.048191 0.225286 1 0 1.000000
0  -48.448742 -2.339858 34.932652  -0.998727 -0.041494 0.028675  0.052983 0.225215 1 0 1.000000
0  -47.994534 -3.317091 34.120586  -0.848675 -0.420168 -0.321263  0.047905 0.229434 1 0 1.000000
skin_0
0  -48.448742 -2.339858 34.932652  -0.998727 -0.041494 0.028675  0.052983 0.225215 1 0 1.000000
0  -48.173470 -3.262036 34.918888  -0.912058 -0.410061 0.000147  0.048191 0.225286 1 0 1.000000
0  -48.200996 -2.422441 35.978706  -0.915038 -0.067441 0.397689  0.052553 0.219779 1 0 1.000000
skin_0
0  -47.925716 -3.454730 35.662136  -0.813661 -0.483371 0.322969  0.047189 0.221424 1 0 1.000000
0  -48.200996 -2.422441 35.978706  -0.915038 -0.067441 0.397689  0.052553 0.219779 1 0 1.000000
0  -48.173470 -3.262036 34.918888  -0.912058 -0.410061 0.000147  0.048191 0.225286 1 0 1.000000
skin_0
0  -48.200996 -2.422441 35.978706  -0.915038 -0.067441 0.397689  0.052553 0.219779 1 0 1.000000
0  -47.925716 -3.454730 35.662136  -0.813661 -0.483371 0.322969  0.047189 0.221424 1 0 1.000000
0  -47.856899 -3.055578 36.171398  -0.664596 -0.430711 0.610574  0.049264 0.218778 1 0 1.000000
skin_0
0  -47.856899 -3.055578 36.171398  -0.664596 -0.430711 0.610574  0.049264 0.218778 1 0 1.000000
0  -47.925716 -3.454730 35.662136  -0.813661 -0.483371 0.322969  0.047189 0.221424 1 0 1.000000
0  -47.636681 -3.702479 35.772247  -0.511506 -0.685894 0.517601  0.045902 0.220852 1 0 1.000000
skin_0
0  -47.388927 -3.358383 36.240215  -0.370484 -0.578460 0.726722  0.047690 0.218420 1 0 1.000000
0  -47.856899 -3.055578 36.171398  -0.664596 -0.430711 0.610574  0.049264 0.218778 1 0 1.000000
0  -47.636681 -3.702479 35.772247  -0.511506 -0.685894 0.517601  0.045902 0.220852 1 0 1.000000
skin_0
0  -47.388927 -3.358383 36.240215  -0.370484 -0.578460 0.726722  0.047690 0.218420 1 0 1.000000
0  -47.636681 -3.702479 35.772247  -0.511506 -0.685894 0.517601  0.045902 0.220852 1 0 1.000000
0  -42.805565 -5.712000 36.143867  -0.150869 -0.581591 0.799369  0.035460 0.218921 1 0 1.000000
skin_0
0  -42.805565 -5.712000 36.143867  -0.150869 -0.581591 0.799369  0.035460 0.218921 1 0 1.000000
0  -42.571583 -4.996280 36.680660  -0.029866 -0.451894 0.891572  0.039179 0.216131 1 0 1.000000
0  -47.388927 -3.358383 36.240215  -0.370484 -0.578460 0.726722  0.047690 0.218420 1 0 1.000000
skin_0
0  -42.571583 -4.996280 36.680660  -0.029866 -0.451894 0.891572  0.039179 0.216131 1 0 1.000000
0  -42.805565 -5.712000 36.143867  -0.150869 -0.581591 0.799369  0.035460 0.218921 1 0 1.000000
0  -41.745750 -5.326613 36.364090  0.259353 -0.451029 0.853996  0.037462 0.217776 1 0 1.000000
skin_0
0  -41.745750 -5.326613 36.364090  0.259353 -0.451029 0.853996  0.037462 0.217776 1 0 1.000000
0  -41.153904 -3.193216 37.079811  0.587618 -0.085190 0.804642  0.048548 0.214057 1 0 1.000000
0  -42.571583 -4.996280 36.680660  -0.029866 -0.451894 0.891572  0.039179 0.216131 1 0 1.000000
skin_0
0  -41.745750 -2.890411 37.382618  0.228984 -0.024381 0.973125  0.050122 0.212484 1 0 1.000000
0  -42.571583 -4.996280 36.680660  -0.029866 -0.451894 0.891572  0.039179 0.216131 1 0 1.000000
0  -41.153904 -3.193216 37.079811  0.587618 -0.085190 0.804642  0.048548 0.214057 1 0 1.000000
skin_0
0  -41.745750 -2.890411 37.382618  0.228984 -0.024381 0.973125  0.050122 0.212484 1 0 1.000000
0  -46.508041 -0.949709 37.313797  -0.151597 0.113280 0.981930  0.060206 0.212841 1 0 1.000000
0  -42.571583 -4.996280 36.680660  -0.029866 -0.451894 0.891572  0.039179 0.216131 1 0 1.000000
skin_0
0  -47.237522 -2.780301 36.708187  -0.313286 -0.373599 0.873084  0.050694 0.215988 1 0 1.000000
0  -42.571583 -4.996280 36.680660  -0.029866 -0.451894 0.891572  0.039179 0.216131 1 0 1.000000
0  -46.508041 -0.949709 37.313797  -0.151597 0.113280 0.981930  0.060206 0.212841 1 0 1.000000
skin_0
0  -47.705498 -2.449969 33.308521  -0.527681 -0.195727 -0.826586  0.052410 0.233654 1 0 1.000000
0  -48.269814 -2.284802 33.955418  -0.914109 -0.069750 -0.399425  0.053269 0.230292 1 0 1.000000
0  -47.609146 -0.330336 33.253464  -0.644304 0.385651 -0.660414  0.063425 0.233940 1 0 1.000000
skin_0
0  -47.705498 -2.449969 33.308521  -0.527681 -0.195727 -0.826586  0.052410 0.233654 1 0 1.000000
0  -47.774315 -3.496021 33.900364  -0.605279 -0.517569 -0.604781  0.046975 0.230579 1 0 1.000000
0  -48.269814 -2.284802 33.955418  -0.914109 -0.069750 -0.399425  0.053269 0.230292 1 0 1.000000
skin_0
0  -48.269814 -2.284802 33.955418  -0.914109 -0.069750 -0.399425  0.053269 0.230292 1 0 1.000000
0  -47.774315 -3.496021 33.900364  -0.605279 -0.517569 -0.604781  0.046975 0.230579 1 0 1.000000
0  -47.994534 -3.317091 34.120586  -0.848675 -0.420168 -0.321263  0.047905 0.229434 1 0 1.000000
skin_0
0  -47.994534 -3.317091 34.120586  -0.848675 -0.420168 -0.321263  0.047905 0.229434 1 0 1.000000
0  -47.774315 -3.496021 33.900364  -0.605279 -0.517569 -0.604781  0.046975 0.230579 1 0 1.000000
0  -47.733025 -3.674951 34.120586  -0.621672 -0.733910 -0.273678  0.046045 0.229434 1 0 1.000000
skin_0
0  -47.994534 -3.317091 34.120586  -0.848675 -0.420168 -0.321263  0.047905 0.229434 1 0 1.000000
0  -47.733025 -3.674951 34.120586  -0.621672 -0.733910 -0.273678  0.046045 0.229434 1 0 1.000000
0  -48.173470 -3.262036 34.918888  -0.912058 -0.410061 0.000147  0.048191 0.225286 1 0 1.000000
skin_0
0  -47.939480 -3.619896 34.905125  -0.706856 -0.706838 -0.027088  0.046331 0.225358 1 0 1.000000
0  -48.173470 -3.262036 34.918888  -0.912058 -0.410061 0.000147  0.048191 0.225286 1 0 1.000000
0  -47.733025 -3.674951 34.120586  -0.621672 -0.733910 -0.273678  0.046045 0.229434 1 0 1.000000
skin_0
0  -48.173470 -3.262036 34.918888  -0.912058 -0.410061 0.000147  0.048191 0.225286 1 0 1.000000
0  -47.939480 -3.619896 34.905125  -0.706856 -0.706838 -0.027088  0.046331 0.225358 1 0 1.000000
0  -47.925716 -3.454730 35.662136  -0.813661 -0.483371 0.322969  0.047189 0.221424 1 0 1.000000
skin_0
0  -47.733025 -3.757534 35.538261  -0.618868 -0.760197 0.197744  0.045616 0.222068 1 0 1.000000
0  -47.925716 -3.454730 35.662136  -0.813661 -0.483371 0.322969  0.047189 0.221424 1 0 1.000000
0  -47.939480 -3.619896 34.905125  -0.706856 -0.706838 -0.027088  0.046331 0.225358 1 0 1.000000
skin_0
0  -47.636681 -3.702479 35.772247  -0.511506 -0.685894 0.517601  0.045902 0.220852 1 0 1.000000
0  -47.925716 -3.454730 35.662136  -0.813661 -0.483371 0.322969  0.047189 0.221424 1 0 1.000000
0  -47.733025 -3.757534 35.538261  -0.618868 -0.760197 0.197744  0.045616 0.222068 1 0 1.000000
skin_0
0  -47.636681 -3.702479 35.772247  -0.511506 -0.685894 0.517601  0.045902 0.220852 1 0 1.000000
0  -47.733025 -3.757534 35.538261  -0.618868 -0.760197 0.197744  0.045616 0.222068 1 0 1.000000
0  -42.956966 -6.235027 35.675900  -0.280846 -0.732923 0.619637  0.032742 0.221352 1 0 1.000000
skin_0
0  -42.956966 -6.235027 35.675900  -0.280846 -0.732923 0.619637  0.032742 0.221352 1 0 1.000000
0  -42.805565 -5.712000 36.143867  -0.150869 -0.581591 0.799369  0.035460 0.218921 1 0 1.000000
0  -47.636681 -3.702479 35.772247  -0.511506 -0.685894 0.517601  0.045902 0.220852 1 0 1.000000
skin_0
0  -42.805565 -5.712000 36.143867  -0.150869 -0.581591 0.799369  0.035460 0.218921 1 0 1.000000
0  -42.956966 -6.235027 35.675900  -0.280846 -0.732923 0.619637  0.032742 0.221352 1 0 1.000000
0  -41.993496 -6.138680 35.868595  0.048216 -0.604508 0.795139  0.033243 0.220351 1 0 1.000000
skin_0
0  -41.993496 -6.138680 35.868595  0.048216 -0.604508 0.795139  0.033243 0.220351 1 0 1.000000
0  -41.745750 -5.326613 36.364090  0.259353 -0.451029 0.853996  0.037462 0.217776 1 0 1.000000
0  -42.805565 -5.712000 36.143867  -0.150869 -0.581591 0.799369  0.035460 0.218921 1 0 1.000000
skin_0
0  -41.993496 -6.138680 35.868595  0.048216 -0.604508 0.795139  0.033243 0.220351 1 0 1.000000
0  -40.520767 -7.033329 34.918888  0.300819 -0.604873 0.737317  0.028594 0.225286 1 0 1.000000
0  -41.745750 -5.326613 36.364090  0.259353 -0.451029 0.853996  0.037462 0.217776 1 0 1.000000
skin_0
0  -41.993496 -6.138680 35.868595  0.048216 -0.604508 0.795139  0.033243 0.220351 1 0 1.000000
0  -42.172428 -6.744289 35.318039  -0.157465 -0.793985 0.587190  0.030096 0.223212 1 0 1.000000
0  -40.520767 -7.033329 34.918888  0.300819 -0.604873 0.737317  0.028594 0.225286 1 0 1.000000
skin_0
0  -41.057556 -7.542592 34.340805  -0.093987 -0.856095 0.508201  0.025948 0.228290 1 0 1.000000
0  -40.520767 -7.033329 34.918888  0.300819 -0.604873 0.737317  0.028594 0.225286 1 0 1.000000
0  -42.172428 -6.744289 35.318039  -0.157465 -0.793985 0.587190  0.030096 0.223212 1 0 1.000000
skin_0
0  -41.057556 -7.542592 34.340805  -0.093987 -0.856095 0.508201  0.025948 0.228290 1 0 1.000000
0  -42.172428 -6.744289 35.318039  -0.157465 -0.793985 0.587190  0.030096 0.223212 1 0 1.000000
0  -41.167667 -7.542592 34.244461  -0.409427 -0.890438 0.198720  0.025948 0.228791 1 0 1.000000
skin_0
0  -41.167667 -7.542592 34.244461  -0.409427 -0.890438 0.198720  0.025948 0.228791 1 0 1.000000
0  -39.942684 -8.313368 33.115822  -0.216786 -0.907980 0.358575  0.021942 0.234655 1 0 1.000000
0  -41.057556 -7.542592 34.340805  -0.093987 -0.856095 0.508201  0.025948 0.228290 1 0 1.000000
skin_0
0  -40.520767 -7.033329 34.918888  0.300819 -0.604873 0.737317  0.028594 0.225286 1 0 1.000000
0  -41.057556 -7.542592 34.340805  -0.093987 -0.856095 0.508201  0.025948 0.228290 1 0 1.000000
0  -39.048035 -7.927979 33.432392  0.400907 -0.579477 0.709563  0.023945 0.233010 1 0 1.000000
skin_0
0  -39.942684 -8.313368 33.115822  -0.216786 -0.907980 0.358575  0.021942 0.234655 1 0 1.000000
0  -39.048035 -7.927979 33.432392  0.400907 -0.579477 0.709563  0.023945 0.233010 1 0 1.000000
0  -41.057556 -7.542592 34.340805  -0.093987 -0.856095 0.508201  0.025948 0.228290 1 0 1.000000
skin_0
0  -42.956966 -6.345138 35.455677  -0.437073 -0.862925 0.253630  0.032170 0.222497 1 0 1.000000
0  -42.778038 -6.551596 33.583794  -0.538316 -0.821736 -0.186992  0.031097 0.232224 1 0 1.000000
0  -42.186192 -6.840636 35.084057  -0.414826 -0.878227 0.237986  0.029595 0.224428 1 0 1.000000
skin_0
0  -42.956966 -6.345138 35.455677  -0.437073 -0.862925 0.253630  0.032170 0.222497 1 0 1.000000
0  -42.186192 -6.840636 35.084057  -0.414826 -0.878227 0.237986  0.029595 0.224428 1 0 1.000000
0  -42.956966 -6.235027 35.675900  -0.280846 -0.732923 0.619637  0.032742 0.221352 1 0 1.000000
skin_0
0  -42.956966 -6.345138 35.455677  -0.437073 -0.862925 0.253630  0.032170 0.222497 1 0 1.000000
0  -42.956966 -6.235027 35.675900  -0.280846 -0.732923 0.619637  0.032742 0.221352 1 0 1.000000
0  -47.733025 -3.757534 35.538261  -0.618868 -0.760197 0.197744  0.045616 0.222068 1 0 1.000000
skin_0
0  -42.956966 -6.345138 35.455677  -0.437073 -0.862925 0.253630  0.032170 0.222497 1 0 1.000000
0  -47.733025 -3.757534 35.538261  -0.618868 -0.760197 0.197744  0.045616 0.222068 1 0 1.000000
0  -47.939480 -3.619896 34.905125  -0.706856 -0.706838 -0.027088  0.046331 0.225358 1 0 1.000000
skin_0
0  -42.956966 -6.345138 35.455677  -0.437073 -0.862925 0.253630  0.032170 0.222497 1 0 1.000000
0  -47.939480 -3.619896 34.905125  -0.706856 -0.706838 -0.027088  0.046331 0.225358 1 0 1.000000
0  -42.778038 -6.551596 33.583794  -0.538316 -0.821736 -0.186992  0.031097 0.232224 1 0 1.000000
skin_0
0  -47.733025 -3.674951 34.120586  -0.621672 -0.733910 -0.273678  0.046045 0.229434 1 0 1.000000
0  -42.778038 -6.551596 33.583794  -0.538316 -0.821736 -0.186992  0.031097 0.232224 1 0 1.000000
0  -47.939480 -3.619896 34.905125  -0.706856 -0.706838 -0.027088  0.046331 0.225358 1 0 1.000000
skin_0
0  -42.778038 -6.551596 33.583794  -0.538316 -0.821736 -0.186992  0.031097 0.232224 1 0 1.000000
0  -47.733025 -3.674951 34.120586  -0.621672 -0.733910 -0.273678  0.046045 0.229434 1 0 1.000000
0  -42.750507 -6.441484 33.377338  -0.519068 -0.610696 -0.598012  0.031669 0.233296 1 0 1.000000
skin_0
0  -47.774315 -3.496021 33.900364  -0.605279 -0.517569 -0.604781  0.046975 0.230579 1 0 1.000000
0  -42.750507 -6.441484 33.377338  -0.519068 -0.610696 -0.598012  0.031669 0.233296 1 0 1.000000
0  -47.733025 -3.674951 34.120586  -0.621672 -0.733910 -0.273678  0.046045 0.229434 1 0 1.000000
skin_0
0  -47.774315 -3.496021 33.900364  -0.605279 -0.517569 -0.604781  0.046975 0.230579 1 0 1.000000
0  -47.705498 -2.449969 33.308521  -0.527681 -0.195727 -0.826586  0.052410 0.233654 1 0 1.000000
0  -42.750507 -6.441484 33.377338  -0.519068 -0.610696 -0.598012  0.031669 0.233296 1 0 1.000000
skin_0
0  -42.447704 -5.478015 32.592796  -0.386477 -0.300787 -0.871873  0.036676 0.237373 1 0 1.000000
0  -42.750507 -6.441484 33.377338  -0.519068 -0.610696 -0.598012  0.031669 0.233296 1 0 1.000000
0  -47.705498 -2.449969 33.308521  -0.527681 -0.195727 -0.826586  0.052410 0.233654 1 0 1.000000
skin_0
0  -42.750507 -6.441484 33.377338  -0.519068 -0.610696 -0.598012  0.031669 0.233296 1 0 1.000000
0  -42.447704 -5.478015 32.592796  -0.386477 -0.300787 -0.871873  0.036676 0.237373 1 0 1.000000
0  -42.062317 -6.923219 33.157112  -0.652104 -0.576867 -0.491920  0.029166 0.234441 1 0 1.000000
skin_0
0  -42.062317 -6.923219 33.157112  -0.652104 -0.576867 -0.491920  0.029166 0.234441 1 0 1.000000
0  -42.048553 -6.992039 33.294754  -0.591577 -0.797723 -0.116941  0.028808 0.233726 1 0 1.000000
0  -42.750507 -6.441484 33.377338  -0.519068 -0.610696 -0.598012  0.031669 0.233296 1 0 1.000000
skin_0
0  -42.778038 -6.551596 33.583794  -0.538316 -0.821736 -0.186992  0.031097 0.232224 1 0 1.000000
0  -42.750507 -6.441484 33.377338  -0.519068 -0.610696 -0.598012  0.031669 0.233296 1 0 1.000000
0  -42.048553 -6.992039 33.294754  -0.591577 -0.797723 -0.116941  0.028808 0.233726 1 0 1.000000
skin_0
0  -42.048553 -6.992039 33.294754  -0.591577 -0.797723 -0.116941  0.028808 0.233726 1 0 1.000000
0  -42.186192 -6.840636 35.084057  -0.414826 -0.878227 0.237986  0.029595 0.224428 1 0 1.000000
0  -42.778038 -6.551596 33.583794  -0.538316 -0.821736 -0.186992  0.031097 0.232224 1 0 1.000000
skin_0
0  -42.048553 -6.992039 33.294754  -0.591577 -0.797723 -0.116941  0.028808 0.233726 1 0 1.000000
0  -41.167667 -7.542592 34.244461  -0.409427 -0.890438 0.198720  0.025948 0.228791 1 0 1.000000
0  -42.186192 -6.840636 35.084057  -0.414826 -0.878227 0.237986  0.029595 0.224428 1 0 1.000000
skin_0
0  -42.186192 -6.840636 35.084057  -0.414826 -0.878227 0.237986  0.029595 0.224428 1 0 1.000000
0  -41.167667 -7.542592 34.244461  -0.409427 -0.890438 0.198720  0.025948 0.228791 1 0 1.000000
0  -42.172428 -6.744289 35.318039  -0.157465 -0.793985 0.587190  0.030096 0.223212 1 0 1.000000
skin_0
0  -42.172428 -6.744289 35.318039  -0.157465 -0.793985 0.587190  0.030096 0.223212 1 0 1.000000
0  -42.956966 -6.235027 35.675900  -0.280846 -0.732923 0.619637  0.032742 0.221352 1 0 1.000000
0  -42.186192 -6.840636 35.084057  -0.414826 -0.878227 0.237986  0.029595 0.224428 1 0 1.000000
skin_0
0  -42.172428 -6.744289 35.318039  -0.157465 -0.793985 0.587190  0.030096 0.223212 1 0 1.000000
0  -41.993496 -6.138680 35.868595  0.048216 -0.604508 0.795139  0.033243 0.220351 1 0 1.000000
0  -42.956966 -6.235027 35.675900  -0.280846 -0.732923 0.619637  0.032742 0.221352 1 0 1.000000
skin_0
0  -41.167667 -7.542592 34.244461  -0.409427 -0.890438 0.198720  0.025948 0.228791 1 0 1.000000
0  -42.048553 -6.992039 33.294754  -0.591577 -0.797723 -0.116941  0.028808 0.233726 1 0 1.000000
0  -39.942684 -8.313368 33.115822  -0.216786 -0.907980 0.358575  0.021942 0.234655 1 0 1.000000
skin_0
0  -41.153904 -7.583884 32.551506  -0.701083 -0.647193 -0.299372  0.025733 0.237588 1 0 1.000000
0  -39.942684 -8.313368 33.115822  -0.216786 -0.907980 0.358575  0.021942 0.234655 1 0 1.000000
0  -42.048553 -6.992039 33.294754  -0.591577 -0.797723 -0.116941  0.028808 0.233726 1 0 1.000000
skin_0
0  -42.048553 -6.992039 33.294754  -0.591577 -0.797723 -0.116941  0.028808 0.233726 1 0 1.000000
0  -42.062317 -6.923219 33.157112  -0.652104 -0.576867 -0.491920  0.029166 0.234441 1 0 1.000000
0  -41.153904 -7.583884 32.551506  -0.701083 -0.647193 -0.299372  0.025733 0.237588 1 0 1.000000
skin_0
0  -41.153904 -7.583884 32.551506  -0.701083 -0.647193 -0.299372  0.025733 0.237588 1 0 1.000000
0  -42.062317 -6.923219 33.157112  -0.652104 -0.576867 -0.491920  0.029166 0.234441 1 0 1.000000
0  -41.112610 -6.537831 32.014717  -0.694599 -0.194119 -0.692712  0.031169 0.240377 1 0 1.000000
skin_0
0  -41.718224 -5.987278 32.358814  -0.558883 -0.219568 -0.799650  0.034029 0.238589 1 0 1.000000
0  -41.112610 -6.537831 32.014717  -0.694599 -0.194119 -0.692712  0.031169 0.240377 1 0 1.000000
0  -42.062317 -6.923219 33.157112  -0.652104 -0.576867 -0.491920  0.029166 0.234441 1 0 1.000000
skin_0
0  -41.718224 -5.987278 32.358814  -0.558883 -0.219568 -0.799650  0.034029 0.238589 1 0 1.000000
0  -42.062317 -6.923219 33.157112  -0.652104 -0.576867 -0.491920  0.029166 0.234441 1 0 1.000000
0  -42.447704 -5.478015 32.592796  -0.386477 -0.300787 -0.871873  0.036676 0.237373 1 0 1.000000
skin_0
0  -42.447704 -5.478015 32.592796  -0.386477 -0.300787 -0.871873  0.036676 0.237373 1 0 1.000000
0  -41.938442 -3.730006 32.207409  -0.150325 0.035387 -0.988003  0.045759 0.239376 1 0 1.000000
0  -41.718224 -5.987278 32.358814  -0.558883 -0.219568 -0.799650  0.034029 0.238589 1 0 1.000000
skin_0
0  -42.447704 -5.478015 32.592796  -0.386477 -0.300787 -0.871873  0.036676 0.237373 1 0 1.000000
0  -47.705498 -2.449969 33.308521  -0.527681 -0.195727 -0.826586  0.052410 0.233654 1 0 1.000000
0  -41.938442 -3.730006 32.207409  -0.150325 0.035387 -0.988003  0.045759 0.239376 1 0 1.000000
skin_0
0  -47.141178 -0.523030 32.991951  -0.245590 0.174517 -0.953535  0.062423 0.235299 1 0 1.000000
0  -41.938442 -3.730006 32.207409  -0.150325 0.035387 -0.988003  0.045759 0.239376 1 0 1.000000
0  -47.705498 -2.449969 33.308521  -0.527681 -0.195727 -0.826586  0.052410 0.233654 1 0 1.000000
skin_0
0  -39.048035 -7.927979 33.432392  0.400907 -0.579477 0.709563  0.023945 0.233010 1 0 1.000000
0  -38.552536 -6.620414 33.542503  0.708624 -0.170088 0.684779  0.030739 0.232438 1 0 1.000000
0  -40.520767 -7.033329 34.918888  0.300819 -0.604873 0.737317  0.028594 0.225286 1 0 1.000000
skin_0
0  -39.048035 -7.927979 33.432392  0.400907 -0.579477 0.709563  0.023945 0.233010 1 0 1.000000
0  -37.974453 -8.547354 32.234936  0.453096 -0.586307 0.671527  0.020727 0.239233 1 0 1.000000
0  -38.552536 -6.620414 33.542503  0.708624 -0.170088 0.684779  0.030739 0.232438 1 0 1.000000
skin_0
0  -37.974453 -8.547354 32.234936  0.453096 -0.586307 0.671527  0.020727 0.239233 1 0 1.000000
0  -39.048035 -7.927979 33.432392  0.400907 -0.579477 0.709563  0.023945 0.233010 1 0 1.000000
0  -38.827812 -9.042851 31.877077  -0.080971 -0.897701 0.433101  0.018152 0.241092 1 0 1.000000
skin_0
0  -39.942684 -8.313368 33.115822  -0.216786 -0.907980 0.358575  0.021942 0.234655 1 0 1.000000
0  -38.827812 -9.042851 31.877077  -0.080971 -0.897701 0.433101  0.018152 0.241092 1 0 1.000000
0  -39.048035 -7.927979 33.432392  0.400907 -0.579477 0.709563  0.023945 0.233010 1 0 1.000000
skin_0
0  -38.827812 -9.042851 31.877077  -0.080971 -0.897701 0.433101  0.018152 0.241092 1 0 1.000000
0  -39.942684 -8.313368 33.115822  -0.216786 -0.907980 0.358575  0.021942 0.234655 1 0 1.000000
0  -40.135380 -8.299604 31.546747  -0.639536 -0.758231 -0.126805  0.022014 0.242809 1 0 1.000000
skin_0
0  -41.153904 -7.583884 32.551506  -0.701083 -0.647193 -0.299372  0.025733 0.237588 1 0 1.000000
0  -40.135380 -8.299604 31.546747  -0.639536 -0.758231 -0.126805  0.022014 0.242809 1 0 1.000000
0  -39.942684 -8.313368 33.115822  -0.216786 -0.907980 0.358575  0.021942 0.234655 1 0 1.000000
skin_0
0  -40.135380 -8.299604 31.546747  -0.639536 -0.758231 -0.126805  0.022014 0.242809 1 0 1.000000
0  -41.153904 -7.583884 32.551506  -0.701083 -0.647193 -0.299372  0.025733 0.237588 1 0 1.000000
0  -40.534531 -7.239787 31.505453  -0.770990 -0.235772 -0.591596  0.027521 0.243023 1 0 1.000000
skin_0
0  -41.112610 -6.537831 32.014717  -0.694599 -0.194119 -0.692712  0.031169 0.240377 1 0 1.000000
0  -40.534531 -7.239787 31.505453  -0.770990 -0.235772 -0.591596  0.027521 0.243023 1 0 1.000000
0  -41.153904 -7.583884 32.551506  -0.701083 -0.647193 -0.299372  0.025733 0.237588 1 0 1.000000
skin_0
0  -40.740986 -5.753291 31.588037  -0.628383 0.000657 -0.777904  0.035245 0.242594 1 0 1.000000
0  -40.534531 -7.239787 31.505453  -0.770990 -0.235772 -0.591596  0.027521 0.243023 1 0 1.000000
0  -41.112610 -6.537831 32.014717  -0.694599 -0.194119 -0.692712  0.031169 0.240377 1 0 1.000000
skin_0
0  -41.112610 -6.537831 32.014717  -0.694599 -0.194119 -0.692712  0.031169 0.240377 1 0 1.000000
0  -41.718224 -5.987278 32.358814  -0.558883 -0.219568 -0.799650  0.034029 0.238589 1 0 1.000000
0  -40.740986 -5.753291 31.588037  -0.628383 0.000657 -0.777904  0.035245 0.242594 1 0 1.000000
skin_0
0  -41.030029 -4.280560 31.987190  -0.256171 0.223029 -0.940550  0.042898 0.240520 1 0 1.000000
0  -40.740986 -5.753291 31.588037  -0.628383 0.000657 -0.777904  0.035245 0.242594 1 0 1.000000
0  -41.718224 -5.987278 32.358814  -0.558883 -0.219568 -0.799650  0.034029 0.238589 1 0 1.000000
skin_0
0  -41.030029 -4.280560 31.987190  -0.256171 0.223029 -0.940550  0.042898 0.240520 1 0 1.000000
0  -41.718224 -5.987278 32.358814  -0.558883 -0.219568 -0.799650  0.034029 0.238589 1 0 1.000000
0  -41.938442 -3.730006 32.207409  -0.150325 0.035387 -0.988003  0.045759 0.239376 1 0 1.000000
skin_0
0  -41.030029 -4.280560 31.987190  -0.256171 0.223029 -0.940550  0.042898 0.240520 1 0 1.000000
0  -41.938442 -3.730006 32.207409  -0.150325 0.035387 -0.988003  0.045759 0.239376 1 0 1.000000
0  -41.071320 -2.683954 32.455158  0.367304 0.293282 -0.882651  0.051195 0.238088 1 0 1.000000
skin_0
0  -41.511761 -2.518787 32.345051  0.086169 0.074984 -0.993455  0.052053 0.238661 1 0 1.000000
0  -41.071320 -2.683954 32.455158  0.367304 0.293282 -0.882651  0.051195 0.238088 1 0 1.000000
0  -41.938442 -3.730006 32.207409  -0.150325 0.035387 -0.988003  0.045759 0.239376 1 0 1.000000
skin_0
0  -41.511761 -2.518787 32.345051  0.086169 0.074984 -0.993455  0.052053 0.238661 1 0 1.000000
0  -41.938442 -3.730006 32.207409  -0.150325 0.035387 -0.988003  0.045759 0.239376 1 0 1.000000
0  -47.044830 -0.302808 33.060768  -0.140087 0.371058 -0.917983  0.063568 0.234941 1 0 1.000000
skin_0
0  -47.141178 -0.523030 32.991951  -0.245590 0.174517 -0.953535  0.062423 0.235299 1 0 1.000000
0  -47.044830 -0.302808 33.060768  -0.140087 0.371058 -0.917983  0.063568 0.234941 1 0 1.000000
0  -41.938442 -3.730006 32.207409  -0.150325 0.035387 -0.988003  0.045759 0.239376 1 0 1.000000
skin_0
0  -47.141178 -0.523030 32.991951  -0.245590 0.174517 -0.953535  0.062423 0.235299 1 0 1.000000
0  -47.609146 -0.330336 33.253464  -0.644304 0.385651 -0.660414  0.063425 0.233940 1 0 1.000000
0  -47.044830 -0.302808 33.060768  -0.140087 0.371058 -0.917983  0.063568 0.234941 1 0 1.000000
skin_0
0  -47.609146 -0.330336 33.253464  -0.644304 0.385651 -0.660414  0.063425 0.233940 1 0 1.000000
0  -47.141178 -0.523030 32.991951  -0.245590 0.174517 -0.953535  0.062423 0.235299 1 0 1.000000
0  -47.705498 -2.449969 33.308521  -0.527681 -0.195727 -0.826586  0.052410 0.233654 1 0 1.000000
skin_0
0  -37.767998 -6.881927 32.510212  0.783086 -0.127856 0.608628  0.029381 0.237802 1 0 1.000000
0  -38.552536 -6.620414 33.542503  0.708624 -0.170088 0.684779  0.030739 0.232438 1 0 1.000000
0  -37.974453 -8.547354 32.234936  0.453096 -0.586307 0.671527  0.020727 0.239233 1 0 1.000000
skin_0
0  -38.552536 -6.620414 33.542503  0.708624 -0.170088 0.684779  0.030739 0.232438 1 0 1.000000
0  -37.767998 -6.881927 32.510212  0.783086 -0.127856 0.608628  0.029381 0.237802 1 0 1.000000
0  -38.442425 -4.762294 33.528740  0.812536 0.280572 0.510944  0.040395 0.232510 1 0 1.000000
skin_0
0  -38.552536 -6.620414 33.542503  0.708624 -0.170088 0.684779  0.030739 0.232438 1 0 1.000000
0  -38.442425 -4.762294 33.528740  0.812536 0.280572 0.510944  0.040395 0.232510 1 0 1.000000
0  -40.039032 -5.932221 35.166637  0.607549 -0.277215 0.744336  0.034316 0.223999 1 0 1.000000
skin_0
0  -39.584827 -4.184213 35.001472  0.821953 0.225100 0.523185  0.043399 0.224857 1 0 1.000000
0  -40.039032 -5.932221 35.166637  0.607549 -0.277215 0.744336  0.034316 0.223999 1 0 1.000000
0  -38.442425 -4.762294 33.528740  0.812536 0.280572 0.510944  0.040395 0.232510 1 0 1.000000
skin_0
0  -40.796047 -3.413438 36.611843  0.786213 -0.046518 0.616203  0.047404 0.216489 1 0 1.000000
0  -40.039032 -5.932221 35.166637  0.607549 -0.277215 0.744336  0.034316 0.223999 1 0 1.000000
0  -39.584827 -4.184213 35.001472  0.821953 0.225100 0.523185  0.043399 0.224857 1 0 1.000000
skin_0
0  -39.584827 -4.184213 35.001472  0.821953 0.225100 0.523185  0.043399 0.224857 1 0 1.000000
0  -39.598591 -3.757534 34.285751  0.661682 0.731507 0.164545  0.045616 0.228576 1 0 1.000000
0  -40.796047 -3.413438 36.611843  0.786213 -0.046518 0.616203  0.047404 0.216489 1 0 1.000000
skin_0
0  -40.837337 -2.986758 36.474201  0.852756 0.323425 0.410126  0.049621 0.217204 1 0 1.000000
0  -40.796047 -3.413438 36.611843  0.786213 -0.046518 0.616203  0.047404 0.216489 1 0 1.000000
0  -39.598591 -3.757534 34.285751  0.661682 0.731507 0.164545  0.045616 0.228576 1 0 1.000000
skin_0
0  -39.598591 -3.757534 34.285751  0.661682 0.731507 0.164545  0.045616 0.228576 1 0 1.000000
0  -40.740986 -2.904175 34.244461  0.637761 0.769375 -0.036374  0.050050 0.228791 1 0 1.000000
0  -40.837337 -2.986758 36.474201  0.852756 0.323425 0.410126  0.049621 0.217204 1 0 1.000000
skin_0
0  -40.534531 -3.372146 32.455158  0.468563 0.659216 -0.588118  0.047619 0.238088 1 0 1.000000
0  -40.740986 -2.904175 34.244461  0.637761 0.769375 -0.036374  0.050050 0.228791 1 0 1.000000
0  -39.598591 -3.757534 34.285751  0.661682 0.731507 0.164545  0.045616 0.228576 1 0 1.000000
skin_0
0  -40.534531 -3.372146 32.455158  0.468563 0.659216 -0.588118  0.047619 0.238088 1 0 1.000000
0  -40.878628 -2.780300 32.689144  0.807361 0.550789 -0.211659  0.050694 0.236872 1 0 1.000000
0  -40.740986 -2.904175 34.244461  0.637761 0.769375 -0.036374  0.050050 0.228791 1 0 1.000000
skin_0
0  -40.878628 -2.780300 32.689144  0.807361 0.550789 -0.211659  0.050694 0.236872 1 0 1.000000
0  -40.534531 -3.372146 32.455158  0.468563 0.659216 -0.588118  0.047619 0.238088 1 0 1.000000
0  -41.071320 -2.683954 32.455158  0.367304 0.293282 -0.882651  0.051195 0.238088 1 0 1.000000
skin_0
0  -41.030029 -4.280560 31.987190  -0.256171 0.223029 -0.940550  0.042898 0.240520 1 0 1.000000
0  -41.071320 -2.683954 32.455158  0.367304 0.293282 -0.882651  0.051195 0.238088 1 0 1.000000
0  -40.534531 -3.372146 32.455158  0.468563 0.659216 -0.588118  0.047619 0.238088 1 0 1.000000
skin_0
0  -41.030029 -4.280560 31.987190  -0.256171 0.223029 -0.940550  0.042898 0.240520 1 0 1.000000
0  -40.534531 -3.372146 32.455158  0.468563 0.659216 -0.588118  0.047619 0.238088 1 0 1.000000
0  -40.672165 -4.431962 31.794495  -0.257413 0.355532 -0.898519  0.042111 0.241521 1 0 1.000000
skin_0
0  -40.740986 -5.753291 31.588037  -0.628383 0.000657 -0.777904  0.035245 0.242594 1 0 1.000000
0  -41.030029 -4.280560 31.987190  -0.256171 0.223029 -0.940550  0.042898 0.240520 1 0 1.000000
0  -40.672165 -4.431962 31.794495  -0.257413 0.355532 -0.898519  0.042111 0.241521 1 0 1.000000
skin_0
0  -39.598591 -3.757534 34.285751  0.661682 0.731507 0.164545  0.045616 0.228576 1 0 1.000000
0  -39.584827 -4.184213 35.001472  0.821953 0.225100 0.523185  0.043399 0.224857 1 0 1.000000
0  -38.442425 -4.762294 33.528740  0.812536 0.280572 0.510944  0.040395 0.232510 1 0 1.000000
skin_0
0  -40.796047 -3.413438 36.611843  0.786213 -0.046518 0.616203  0.047404 0.216489 1 0 1.000000
0  -40.837337 -2.986758 36.474201  0.852756 0.323425 0.410126  0.049621 0.217204 1 0 1.000000
0  -41.126377 -2.904175 36.942173  0.713496 0.247305 0.655563  0.050050 0.214772 1 0 1.000000
skin_0
0  -37.933163 -4.982516 32.702908  0.851826 0.242358 0.464386  0.039251 0.236801 1 0 1.000000
0  -38.442425 -4.762294 33.528740  0.812536 0.280572 0.510944  0.040395 0.232510 1 0 1.000000
0  -37.767998 -6.881927 32.510212  0.783086 -0.127856 0.608628  0.029381 0.237802 1 0 1.000000
skin_0
0  -38.442425 -4.762294 33.528740  0.812536 0.280572 0.510944  0.040395 0.232510 1 0 1.000000
0  -37.933163 -4.982516 32.702908  0.851826 0.242358 0.464386  0.039251 0.236801 1 0 1.000000
0  -38.580063 -4.074102 32.592796  0.586850 0.784556 0.200198  0.043971 0.237373 1 0 1.000000
skin_0
0  -38.442425 -4.762294 33.528740  0.812536 0.280572 0.510944  0.040395 0.232510 1 0 1.000000
0  -38.580063 -4.074102 32.592796  0.586850 0.784556 0.200198  0.043971 0.237373 1 0 1.000000
0  -39.598591 -3.757534 34.285751  0.661682 0.731507 0.164545  0.045616 0.228576 1 0 1.000000
skin_0
0  -38.580063 -4.074102 32.592796  0.586850 0.784556 0.200198  0.043971 0.237373 1 0 1.000000
0  -39.626118 -3.771297 32.262463  0.287426 0.914629 -0.284324  0.045544 0.239090 1 0 1.000000
0  -39.598591 -3.757534 34.285751  0.661682 0.731507 0.164545  0.045616 0.228576 1 0 1.000000
skin_0
0  -40.534531 -3.372146 32.455158  0.468563 0.659216 -0.588118  0.047619 0.238088 1 0 1.000000
0  -39.598591 -3.757534 34.285751  0.661682 0.731507 0.164545  0.045616 0.228576 1 0 1.000000
0  -39.626118 -3.771297 32.262463  0.287426 0.914629 -0.284324  0.045544 0.239090 1 0 1.000000
skin_0
0  -39.626118 -3.771297 32.262463  0.287426 0.914629 -0.284324  0.045544 0.239090 1 0 1.000000
0  -40.672165 -4.431962 31.794495  -0.257413 0.355532 -0.898519  0.042111 0.241521 1 0 1.000000
0  -40.534531 -3.372146 32.455158  0.468563 0.659216 -0.588118  0.047619 0.238088 1 0 1.000000
skin_0
0  -47.691734 -0.082587 33.831543  -0.697944 0.658437 -0.281666  0.064712 0.230936 1 0 1.000000
0  -47.416454 -0.165170 33.280991  -0.436802 0.608695 -0.662340  0.064283 0.233797 1 0 1.000000
0  -47.856899 -0.247753 33.831543  -0.851374 0.446600 -0.275157  0.063854 0.230936 1 0 1.000000
skin_0
0  -47.691734 -0.082587 33.831543  -0.697944 0.658437 -0.281666  0.064712 0.230936 1 0 1.000000
0  -47.856899 -0.247753 33.831543  -0.851374 0.446600 -0.275157  0.063854 0.230936 1 0 1.000000
0  -47.843136 -0.068823 34.932652  -0.690407 0.720848 0.060959  0.064784 0.225215 1 0 1.000000
skin_0
0  -48.008297 -0.247753 34.946415  -0.875646 0.478983 0.061804  0.063854 0.225143 1 0 1.000000
0  -47.843136 -0.068823 34.932652  -0.690407 0.720848 0.060959  0.064784 0.225215 1 0 1.000000
0  -47.856899 -0.247753 33.831543  -0.851374 0.446600 -0.275157  0.063854 0.230936 1 0 1.000000
skin_0
0  -47.843136 -0.068823 34.932652  -0.690407 0.720848 0.060959  0.064784 0.225215 1 0 1.000000
0  -48.008297 -0.247753 34.946415  -0.875646 0.478983 0.061804  0.063854 0.225143 1 0 1.000000
0  -47.567856 -0.261517 36.281509  -0.630130 0.637474 0.443354  0.063782 0.218205 1 0 1.000000
skin_0
0  -47.719261 -0.412919 36.281509  -0.799592 0.415495 0.433608  0.062996 0.218205 1 0 1.000000
0  -47.567856 -0.261517 36.281509  -0.630130 0.637474 0.443354  0.063782 0.218205 1 0 1.000000
0  -48.008297 -0.247753 34.946415  -0.875646 0.478983 0.061804  0.063854 0.225143 1 0 1.000000
skin_0
0  -47.567856 -0.261517 36.281509  -0.630130 0.637474 0.443354  0.063782 0.218205 1 0 1.000000
0  -47.719261 -0.412919 36.281509  -0.799592 0.415495 0.433608  0.062996 0.218205 1 0 1.000000
0  -47.058594 -0.495502 36.983463  -0.311866 0.574739 0.756581  0.062566 0.214558 1 0 1.000000
skin_0
0  -47.209995 -0.646904 37.038517  -0.518929 0.309844 0.796686  0.061780 0.214272 1 0 1.000000
0  -47.058594 -0.495502 36.983463  -0.311866 0.574739 0.756581  0.062566 0.214558 1 0 1.000000
0  -47.719261 -0.412919 36.281509  -0.799592 0.415495 0.433608  0.062996 0.218205 1 0 1.000000
skin_0
0  -47.058594 -0.495502 36.983463  -0.311866 0.574739 0.756581  0.062566 0.214558 1 0 1.000000
0  -47.209995 -0.646904 37.038517  -0.518929 0.309844 0.796686  0.061780 0.214272 1 0 1.000000
0  -46.370399 -0.784543 37.244976  0.008931 0.394567 0.918824  0.061065 0.213199 1 0 1.000000
skin_0
0  -46.508041 -0.949709 37.313797  -0.151597 0.113280 0.981930  0.060206 0.212841 1 0 1.000000
0  -46.370399 -0.784543 37.244976  0.008931 0.394567 0.918824  0.061065 0.213199 1 0 1.000000
0  -47.209995 -0.646904 37.038517  -0.518929 0.309844 0.796686  0.061780 0.214272 1 0 1.000000
skin_0
0  -46.370399 -0.784543 37.244976  0.008931 0.394567 0.918824  0.061065 0.213199 1 0 1.000000
0  -46.508041 -0.949709 37.313797  -0.151597 0.113280 0.981930  0.060206 0.212841 1 0 1.000000
0  -41.718224 -2.683954 37.300034  0.335675 0.267120 0.903310  0.051195 0.212913 1 0 1.000000
skin_0
0  -41.745750 -2.890411 37.382618  0.228984 -0.024381 0.973125  0.050122 0.212484 1 0 1.000000
0  -41.718224 -2.683954 37.300034  0.335675 0.267120 0.903310  0.051195 0.212913 1 0 1.000000
0  -46.508041 -0.949709 37.313797  -0.151597 0.113280 0.981930  0.060206 0.212841 1 0 1.000000
skin_0
0  -41.126377 -2.904175 36.942173  0.713496 0.247305 0.655563  0.050050 0.214772 1 0 1.000000
0  -41.718224 -2.683954 37.300034  0.335675 0.267120 0.903310  0.051195 0.212913 1 0 1.000000
0  -41.745750 -2.890411 37.382618  0.228984 -0.024381 0.973125  0.050122 0.212484 1 0 1.000000
skin_0
0  -41.153904 -3.193216 37.079811  0.587618 -0.085190 0.804642  0.048548 0.214057 1 0 1.000000
0  -41.126377 -2.904175 36.942173  0.713496 0.247305 0.655563  0.050050 0.214772 1 0 1.000000
0  -41.745750 -2.890411 37.382618  0.228984 -0.024381 0.973125  0.050122 0.212484 1 0 1.000000
skin_0
0  -41.153904 -3.193216 37.079811  0.587618 -0.085190 0.804642  0.048548 0.214057 1 0 1.000000
0  -40.796047 -3.413438 36.611843  0.786213 -0.046518 0.616203  0.047404 0.216489 1 0 1.000000
0  -41.126377 -2.904175 36.942173  0.713496 0.247305 0.655563  0.050050 0.214772 1 0 1.000000
skin_0
0  -41.153904 -3.193216 37.079811  0.587618 -0.085190 0.804642  0.048548 0.214057 1 0 1.000000
0  -41.745750 -5.326613 36.364090  0.259353 -0.451029 0.853996  0.037462 0.217776 1 0 1.000000
0  -40.796047 -3.413438 36.611843  0.786213 -0.046518 0.616203  0.047404 0.216489 1 0 1.000000
skin_0
0  -40.039032 -5.932221 35.166637  0.607549 -0.277215 0.744336  0.034316 0.223999 1 0 1.000000
0  -40.796047 -3.413438 36.611843  0.786213 -0.046518 0.616203  0.047404 0.216489 1 0 1.000000
0  -41.745750 -5.326613 36.364090  0.259353 -0.451029 0.853996  0.037462 0.217776 1 0 1.000000
skin_0
0  -40.039032 -5.932221 35.166637  0.607549 -0.277215 0.744336  0.034316 0.223999 1 0 1.000000
0  -41.745750 -5.326613 36.364090  0.259353 -0.451029 0.853996  0.037462 0.217776 1 0 1.000000
0  -40.520767 -7.033329 34.918888  0.300819 -0.604873 0.737317  0.028594 0.225286 1 0 1.000000
skin_0
0  -40.039032 -5.932221 35.166637  0.607549 -0.277215 0.744336  0.034316 0.223999 1 0 1.000000
0  -40.520767 -7.033329 34.918888  0.300819 -0.604873 0.737317  0.028594 0.225286 1 0 1.000000
0  -38.552536 -6.620414 33.542503  0.708624 -0.170088 0.684779  0.030739 0.232438 1 0 1.000000
skin_0
0  -41.208958 -2.876647 36.845829  0.340792 0.940100 0.008509  0.050193 0.215273 1 0 1.000000
0  -41.126377 -2.904175 36.942173  0.339109 0.940720 0.007093  0.050050 0.214772 1 0 1.000000
0  -40.947445 -2.945467 36.432911  0.305880 0.951626 0.029086  0.049836 0.217419 1 0 1.000000
skin_0
0  -40.837337 -2.986758 36.474201  0.305911 0.951660 0.027603  0.049621 0.217204 1 0 1.000000
0  -40.947445 -2.945467 36.432911  0.305880 0.951626 0.029086  0.049836 0.217419 1 0 1.000000
0  -41.126377 -2.904175 36.942173  0.339109 0.940720 0.007093  0.050050 0.214772 1 0 1.000000
skin_0
0  -40.837337 -2.986758 36.474201  0.305911 0.951660 0.027603  0.049621 0.217204 1 0 1.000000
0  -40.740986 -2.904175 34.244461  0.245803 0.967936 0.051786  0.050050 0.228791 1 0 1.000000
0  -40.947445 -2.945467 36.432911  0.305880 0.951626 0.029086  0.049836 0.217419 1 0 1.000000
skin_0
0  -40.878628 -2.876647 34.244461  0.243844 0.968421 0.051977  0.050193 0.228791 1 0 1.000000
0  -40.947445 -2.945467 36.432911  0.305880 0.951626 0.029086  0.049836 0.217419 1 0 1.000000
0  -40.740986 -2.904175 34.244461  0.245803 0.967936 0.051786  0.050050 0.228791 1 0 1.000000
skin_0
0  -40.878628 -2.876647 34.244461  0.243844 0.968421 0.051977  0.050193 0.228791 1 0 1.000000
0  -40.740986 -2.904175 34.244461  0.245803 0.967936 0.051786  0.050050 0.228791 1 0 1.000000
0  -40.988735 -2.752773 32.757965  0.288380 0.954203 0.079581  0.050837 0.236515 1 0 1.000000
skin_0
0  -40.878628 -2.780300 32.689144  0.290305 0.953283 0.083514  0.050694 0.236872 1 0 1.000000
0  -40.988735 -2.752773 32.757965  0.288380 0.954203 0.079581  0.050837 0.236515 1 0 1.000000
0  -40.740986 -2.904175 34.244461  0.245803 0.967936 0.051786  0.050050 0.228791 1 0 1.000000
skin_0
0  -40.878628 -2.780300 32.689144  0.290305 0.953283 0.083514  0.050694 0.236872 1 0 1.000000
0  -41.071320 -2.683954 32.455158  0.321779 0.939869 0.114471  0.051195 0.238088 1 0 1.000000
0  -40.988735 -2.752773 32.757965  0.288380 0.954203 0.079581  0.050837 0.236515 1 0 1.000000
skin_0
0  -41.153904 -2.670190 32.565269  0.325213 0.939216 0.110049  0.051266 0.237516 1 0 1.000000
0  -40.988735 -2.752773 32.757965  0.288380 0.954203 0.079581  0.050837 0.236515 1 0 1.000000
0  -41.071320 -2.683954 32.455158  0.321779 0.939869 0.114471  0.051195 0.238088 1 0 1.000000
skin_0
0  -41.071320 -2.683954 32.455158  0.321779 0.939869 0.114471  0.051195 0.238088 1 0 1.000000
0  -41.511761 -2.518787 32.345051  0.370083 0.926465 0.068572  0.052053 0.238661 1 0 1.000000
0  -41.153904 -2.670190 32.565269  0.325213 0.939216 0.110049  0.051266 0.237516 1 0 1.000000
skin_0
0  -41.511761 -2.518787 32.455158  0.373288 0.925597 0.062661  0.052053 0.238088 1 0 1.000000
0  -41.153904 -2.670190 32.565269  0.325213 0.939216 0.110049  0.051266 0.237516 1 0 1.000000
0  -41.511761 -2.518787 32.345051  0.370083 0.926465 0.068572  0.052053 0.238661 1 0 1.000000
skin_0
0  -41.511761 -2.518787 32.455158  0.373288 0.925597 0.062661  0.052053 0.238088 1 0 1.000000
0  -41.511761 -2.518787 32.345051  0.370083 0.926465 0.068572  0.052053 0.238661 1 0 1.000000
0  -47.003540 -0.330336 33.170876  0.382361 0.921678 0.065656  0.063425 0.234369 1 0 1.000000
skin_0
0  -47.044830 -0.302808 33.060768  0.382611 0.921639 0.064738  0.063568 0.234941 1 0 1.000000
0  -47.003540 -0.330336 33.170876  0.382361 0.921678 0.065656  0.063425 0.234369 1 0 1.000000
0  -41.511761 -2.518787 32.345051  0.370083 0.926465 0.068572  0.052053 0.238661 1 0 1.000000
skin_0
0  -47.044830 -0.302808 33.060768  0.382611 0.921639 0.064738  0.063568 0.234941 1 0 1.000000
0  -47.416454 -0.165170 33.280991  0.395498 0.916043 0.066683  0.064283 0.233797 1 0 1.000000
0  -47.003540 -0.330336 33.170876  0.382361 0.921678 0.065656  0.063425 0.234369 1 0 1.000000
skin_0
0  -47.333874 -0.206461 33.377338  0.396444 0.915586 0.067345  0.064068 0.233296 1 0 1.000000
0  -47.003540 -0.330336 33.170876  0.382361 0.921678 0.065656  0.063425 0.234369 1 0 1.000000
0  -47.416454 -0.165170 33.280991  0.395498 0.916043 0.066683  0.064283 0.233797 1 0 1.000000
skin_0
0  -47.416454 -0.165170 33.280991  0.395498 0.916043 0.066683  0.064283 0.233797 1 0 1.000000
0  -47.691734 -0.082587 33.831543  0.409873 0.910244 0.058822  0.064712 0.230936 1 0 1.000000
0  -47.333874 -0.206461 33.377338  0.396444 0.915586 0.067345  0.064068 0.233296 1 0 1.000000
skin_0
0  -47.595383 -0.123878 33.872837  0.407360 0.911356 0.059069  0.064498 0.230722 1 0 1.000000
0  -47.333874 -0.206461 33.377338  0.396444 0.915586 0.067345  0.064068 0.233296 1 0 1.000000
0  -47.691734 -0.082587 33.831543  0.409873 0.910244 0.058822  0.064712 0.230936 1 0 1.000000
skin_0
0  -47.595383 -0.123878 33.872837  0.407360 0.911356 0.059069  0.064498 0.230722 1 0 1.000000
0  -47.691734 -0.082587 33.831543  0.409873 0.910244 0.058822  0.064712 0.230936 1 0 1.000000
0  -47.733025 -0.123878 34.932652  0.470238 0.881673 0.039096  0.064498 0.225215 1 0 1.000000
skin_0
0  -47.843136 -0.068823 34.932652  0.473779 0.879769 0.039247  0.064784 0.225215 1 0 1.000000
0  -47.733025 -0.123878 34.932652  0.470238 0.881673 0.039096  0.064498 0.225215 1 0 1.000000
0  -47.691734 -0.082587 33.831543  0.409873 0.910244 0.058822  0.064712 0.230936 1 0 1.000000
skin_0
0  -47.843136 -0.068823 34.932652  0.473779 0.879769 0.039247  0.064784 0.225215 1 0 1.000000
0  -47.567856 -0.261517 36.281509  0.412064 0.910781 0.026109  0.063782 0.218205 1 0 1.000000
0  -47.733025 -0.123878 34.932652  0.470238 0.881673 0.039096  0.064498 0.225215 1 0 1.000000
skin_0
0  -47.457745 -0.302808 36.226452  0.409972 0.911710 0.026589  0.063568 0.218491 1 0 1.000000
0  -47.733025 -0.123878 34.932652  0.470238 0.881673 0.039096  0.064498 0.225215 1 0 1.000000
0  -47.567856 -0.261517 36.281509  0.412064 0.910781 0.026109  0.063782 0.218205 1 0 1.000000
skin_0
0  -47.457745 -0.302808 36.226452  0.409972 0.911710 0.026589  0.063568 0.218491 1 0 1.000000
0  -47.567856 -0.261517 36.281509  0.412064 0.910781 0.026109  0.063782 0.218205 1 0 1.000000
0  -46.989777 -0.523030 36.873356  0.398667 0.917015 0.012189  0.062423 0.215130 1 0 1.000000
skin_0
0  -47.058594 -0.495502 36.983463  0.398688 0.917006 0.012192  0.062566 0.214558 1 0 1.000000
0  -46.989777 -0.523030 36.873356  0.398667 0.917015 0.012189  0.062423 0.215130 1 0 1.000000
0  -47.567856 -0.261517 36.281509  0.412064 0.910781 0.026109  0.063782 0.218205 1 0 1.000000
skin_0
0  -47.058594 -0.495502 36.983463  0.398688 0.917006 0.012192  0.062566 0.214558 1 0 1.000000
0  -46.370399 -0.784543 37.244976  0.382793 0.923807 0.007087  0.061065 0.213199 1 0 1.000000
0  -46.989777 -0.523030 36.873356  0.398667 0.917015 0.012189  0.062423 0.215130 1 0 1.000000
skin_0
0  -46.342873 -0.798307 37.121101  0.382100 0.924094 0.007054  0.060993 0.213843 1 0 1.000000
0  -46.989777 -0.523030 36.873356  0.398667 0.917015 0.012189  0.062423 0.215130 1 0 1.000000
0  -46.370399 -0.784543 37.244976  0.382793 0.923807 0.007087  0.061065 0.213199 1 0 1.000000
skin_0
0  -46.342873 -0.798307 37.121101  0.382100 0.924094 0.007054  0.060993 0.213843 1 0 1.000000
0  -46.370399 -0.784543 37.244976  0.382793 0.923807 0.007087  0.061065 0.213199 1 0 1.000000
0  -41.745750 -2.656426 37.176159  0.366835 0.930269 0.005585  0.051338 0.213557 1 0 1.000000
skin_0
0  -41.718224 -2.683954 37.300034  0.365416 0.930829 0.005245  0.051195 0.212913 1 0 1.000000
0  -41.745750 -2.656426 37.176159  0.366835 0.930269 0.005585  0.051338 0.213557 1 0 1.000000
0  -46.370399 -0.784543 37.244976  0.382793 0.923807 0.007087  0.061065 0.213199 1 0 1.000000
skin_0
0  -41.745750 -2.656426 37.176159  0.366835 0.930269 0.005585  0.051338 0.213557 1 0 1.000000
0  -41.718224 -2.683954 37.300034  0.365416 0.930829 0.005245  0.051195 0.212913 1 0 1.000000
0  -41.208958 -2.876647 36.845829  0.340792 0.940100 0.008509  0.050193 0.215273 1 0 1.000000
skin_0
0  -41.126377 -2.904175 36.942173  0.339109 0.940720 0.007093  0.050050 0.214772 1 0 1.000000
0  -41.208958 -2.876647 36.845829  0.340792 0.940100 0.008509  0.050193 0.215273 1 0 1.000000
0  -41.718224 -2.683954 37.300034  0.365416 0.930829 0.005245  0.051195 0.212913 1 0 1.000000
skin_0
0  -36.818291 -5.478015 30.899843  0.853916 0.172599 0.490955  0.036676 0.246170 1 0 1.000000
0  -37.093567 -4.542073 30.679623  0.649025 0.700450 0.296877  0.041539 0.247315 1 0 1.000000
0  -37.864346 -5.010044 32.592796  0.817253 0.324796 0.476031  0.039108 0.237373 1 0 1.000000
skin_0
0  -38.511246 -4.074102 32.482685  0.485298 0.860777 0.153455  0.043971 0.237945 1 0 1.000000
0  -37.864346 -5.010044 32.592796  0.817253 0.324796 0.476031  0.039108 0.237373 1 0 1.000000
0  -37.093567 -4.542073 30.679623  0.649025 0.700450 0.296877  0.041539 0.247315 1 0 1.000000
skin_0
0  -38.511246 -4.074102 32.482685  0.485298 0.860777 0.153455  0.043971 0.237945 1 0 1.000000
0  -37.093567 -4.542073 30.679623  0.649025 0.700450 0.296877  0.041539 0.247315 1 0 1.000000
0  -39.529770 -3.757534 32.193645  -0.086216 0.964579 -0.249307  0.045616 0.239447 1 0 1.000000
skin_0
0  -37.685413 -4.211740 30.115303  0.135510 0.986194 -0.095173  0.043256 0.250247 1 0 1.000000
0  -39.529770 -3.757534 32.193645  -0.086216 0.964579 -0.249307  0.045616 0.239447 1 0 1.000000
0  -37.093567 -4.542073 30.679623  0.649025 0.700450 0.296877  0.041539 0.247315 1 0 1.000000
skin_0
0  -37.685413 -4.211740 30.115303  0.135510 0.986194 -0.095173  0.043256 0.250247 1 0 1.000000
0  -38.235966 -4.445726 29.564751  -0.387971 0.776916 -0.495862  0.042040 0.253108 1 0 1.000000
0  -39.529770 -3.757534 32.193645  -0.086216 0.964579 -0.249307  0.045616 0.239447 1 0 1.000000
skin_0
0  -40.617111 -4.445726 31.739437  -0.623324 0.543761 -0.561953  0.042040 0.241807 1 0 1.000000
0  -39.529770 -3.757534 32.193645  -0.086216 0.964579 -0.249307  0.045616 0.239447 1 0 1.000000
0  -38.235966 -4.445726 29.564751  -0.387971 0.776916 -0.495862  0.042040 0.253108 1 0 1.000000
skin_0
0  -38.235966 -4.445726 29.564751  -0.387971 0.776916 -0.495862  0.042040 0.253108 1 0 1.000000
0  -38.731468 -5.560597 29.000431  -0.727918 0.269244 -0.630589  0.036247 0.256040 1 0 1.000000
0  -40.617111 -4.445726 31.739437  -0.623324 0.543761 -0.561953  0.042040 0.241807 1 0 1.000000
skin_0
0  -40.699696 -5.794583 31.546747  -0.806920 0.054863 -0.588107  0.035031 0.242809 1 0 1.000000
0  -40.617111 -4.445726 31.739437  -0.623324 0.543761 -0.561953  0.042040 0.241807 1 0 1.000000
0  -38.731468 -5.560597 29.000431  -0.727918 0.269244 -0.630589  0.036247 0.256040 1 0 1.000000
skin_0
0  -38.731468 -5.560597 29.000431  -0.727918 0.269244 -0.630589  0.036247 0.256040 1 0 1.000000
0  -38.772758 -7.432481 28.849031  -0.820973 -0.063651 -0.567409  0.026520 0.256827 1 0 1.000000
0  -40.699696 -5.794583 31.546747  -0.806920 0.054863 -0.588107  0.035031 0.242809 1 0 1.000000
skin_0
0  -40.479477 -7.281079 31.436636  -0.843135 -0.163993 -0.512084  0.027306 0.243381 1 0 1.000000
0  -40.699696 -5.794583 31.546747  -0.806920 0.054863 -0.588107  0.035031 0.242809 1 0 1.000000
0  -38.772758 -7.432481 28.849031  -0.820973 -0.063651 -0.567409  0.026520 0.256827 1 0 1.000000
skin_0
0  -38.772758 -7.432481 28.849031  -0.820973 -0.063651 -0.567409  0.026520 0.256827 1 0 1.000000
0  -38.552536 -9.111670 28.959141  -0.787647 -0.505268 -0.352584  0.017794 0.256255 1 0 1.000000
0  -40.479477 -7.281079 31.436636  -0.843135 -0.163993 -0.512084  0.027306 0.243381 1 0 1.000000
skin_0
0  -40.479477 -7.281079 31.436636  -0.843135 -0.163993 -0.512084  0.027306 0.243381 1 0 1.000000
0  -38.552536 -9.111670 28.959141  -0.787647 -0.505268 -0.352584  0.017794 0.256255 1 0 1.000000
0  -40.052795 -8.354659 31.436636  -0.783976 -0.558687 -0.270647  0.021728 0.243381 1 0 1.000000
skin_0
0  -38.084564 -9.662225 29.399586  -0.564125 -0.824887 -0.036384  0.014933 0.253966 1 0 1.000000
0  -40.052795 -8.354659 31.436636  -0.783976 -0.558687 -0.270647  0.021728 0.243381 1 0 1.000000
0  -38.552536 -9.111670 28.959141  -0.787647 -0.505268 -0.352584  0.017794 0.256255 1 0 1.000000
skin_0
0  -40.052795 -8.354659 31.436636  -0.783976 -0.558687 -0.270647  0.021728 0.243381 1 0 1.000000
0  -38.084564 -9.662225 29.399586  -0.564125 -0.824887 -0.036384  0.014933 0.253966 1 0 1.000000
0  -38.745232 -9.097907 31.780731  -0.181024 -0.933772 0.308707  0.017866 0.241593 1 0 1.000000
skin_0
0  -37.341316 -9.965029 30.129066  -0.101991 -0.914043 0.392585  0.013360 0.250176 1 0 1.000000
0  -38.745232 -9.097907 31.780731  -0.181024 -0.933772 0.308707  0.017866 0.241593 1 0 1.000000
0  -38.084564 -9.662225 29.399586  -0.564125 -0.824887 -0.036384  0.014933 0.253966 1 0 1.000000
skin_0
0  -37.341316 -9.965029 30.129066  -0.101991 -0.914043 0.392585  0.013360 0.250176 1 0 1.000000
0  -36.832058 -9.125435 30.679623  0.548375 -0.521188 0.653948  0.017723 0.247315 1 0 1.000000
0  -38.745232 -9.097907 31.780731  -0.181024 -0.933772 0.308707  0.017866 0.241593 1 0 1.000000
skin_0
0  -37.905636 -8.588644 32.124828  0.580272 -0.520846 0.626102  0.020512 0.239805 1 0 1.000000
0  -38.745232 -9.097907 31.780731  -0.181024 -0.933772 0.308707  0.017866 0.241593 1 0 1.000000
0  -36.832058 -9.125435 30.679623  0.548375 -0.521188 0.653948  0.017723 0.247315 1 0 1.000000
skin_0
0  -37.905636 -8.588644 32.124828  0.580272 -0.520846 0.626102  0.020512 0.239805 1 0 1.000000
0  -36.832058 -9.125435 30.679623  0.548375 -0.521188 0.653948  0.017723 0.247315 1 0 1.000000
0  -37.712944 -6.909455 32.413868  0.824390 -0.042025 0.564460  0.029237 0.238303 1 0 1.000000
skin_0
0  -36.694416 -7.336135 30.913607  0.822793 -0.052481 0.565912  0.027020 0.246099 1 0 1.000000
0  -37.712944 -6.909455 32.413868  0.824390 -0.042025 0.564460  0.029237 0.238303 1 0 1.000000
0  -36.832058 -9.125435 30.679623  0.548375 -0.521188 0.653948  0.017723 0.247315 1 0 1.000000
skin_0
0  -36.694416 -7.336135 30.913607  0.822793 -0.052481 0.565912  0.027020 0.246099 1 0 1.000000
0  -36.818291 -5.478015 30.899843  0.853916 0.172599 0.490955  0.036676 0.246170 1 0 1.000000
0  -37.712944 -6.909455 32.413868  0.824390 -0.042025 0.564460  0.029237 0.238303 1 0 1.000000
skin_0
0  -37.864346 -5.010044 32.592796  0.817253 0.324796 0.476031  0.039108 0.237373 1 0 1.000000
0  -37.712944 -6.909455 32.413868  0.824390 -0.042025 0.564460  0.029237 0.238303 1 0 1.000000
0  -36.818291 -5.478015 30.899843  0.853916 0.172599 0.490955  0.036676 0.246170 1 0 1.000000
skin_0
0  -37.933163 -4.982516 32.702908  0.908883 0.378407 -0.175327  0.039251 0.236801 1 0 1.000000
0  -37.767998 -6.881927 32.510212  0.999907 -0.000662 -0.013639  0.029381 0.237802 1 0 1.000000
0  -37.933163 -5.010044 32.620323  0.944214 0.294877 -0.146654  0.039108 0.237230 1 0 1.000000
skin_0
0  -37.767998 -6.895691 32.441395  0.999377 -0.034416 -0.007767  0.029309 0.238160 1 0 1.000000
0  -37.933163 -5.010044 32.620323  0.944214 0.294877 -0.146654  0.039108 0.237230 1 0 1.000000
0  -37.767998 -6.881927 32.510212  0.999907 -0.000662 -0.013639  0.029381 0.237802 1 0 1.000000
skin_0
0  -37.767998 -6.881927 32.510212  0.999907 -0.000662 -0.013639  0.029381 0.237802 1 0 1.000000
0  -37.974453 -8.547354 32.234936  0.863062 -0.500188 0.070262  0.020727 0.239233 1 0 1.000000
0  -37.767998 -6.895691 32.441395  0.999377 -0.034416 -0.007767  0.029309 0.238160 1 0 1.000000
skin_0
0  -37.974453 -8.547354 32.152355  0.788126 -0.611627 0.069060  0.020727 0.239662 1 0 1.000000
0  -37.767998 -6.895691 32.441395  0.999377 -0.034416 -0.007767  0.029309 0.238160 1 0 1.000000
0  -37.974453 -8.547354 32.234936  0.863062 -0.500188 0.070262  0.020727 0.239233 1 0 1.000000
skin_0
0  -37.974453 -8.547354 32.234936  0.863062 -0.500188 0.070262  0.020727 0.239233 1 0 1.000000
0  -38.827812 -9.042851 31.877077  -0.051014 -0.977473 -0.204802  0.018152 0.241092 1 0 1.000000
0  -37.974453 -8.547354 32.152355  0.788126 -0.611627 0.069060  0.020727 0.239662 1 0 1.000000
skin_0
0  -38.772758 -9.042851 31.822021  0.136624 -0.989746 -0.041665  0.018152 0.241378 1 0 1.000000
0  -37.974453 -8.547354 32.152355  0.788126 -0.611627 0.069060  0.020727 0.239662 1 0 1.000000
0  -38.827812 -9.042851 31.877077  -0.051014 -0.977473 -0.204802  0.018152 0.241092 1 0 1.000000
skin_0
0  -38.772758 -9.042851 31.822021  0.136624 -0.989746 -0.041665  0.018152 0.241378 1 0 1.000000
0  -38.827812 -9.042851 31.877077  -0.051014 -0.977473 -0.204802  0.018152 0.241092 1 0 1.000000
0  -40.066559 -8.299604 31.505453  -0.408707 -0.649908 -0.640764  0.022014 0.243023 1 0 1.000000
skin_0
0  -40.135380 -8.299604 31.546747  -0.456318 -0.397272 -0.796209  0.022014 0.242809 1 0 1.000000
0  -40.066559 -8.299604 31.505453  -0.408707 -0.649908 -0.640764  0.022014 0.243023 1 0 1.000000
0  -38.827812 -9.042851 31.877077  -0.051014 -0.977473 -0.204802  0.018152 0.241092 1 0 1.000000
skin_0
0  -40.066559 -8.299604 31.505453  -0.408707 -0.649908 -0.640764  0.022014 0.243023 1 0 1.000000
0  -40.135380 -8.299604 31.546747  -0.456318 -0.397272 -0.796209  0.022014 0.242809 1 0 1.000000
0  -40.465714 -7.253551 31.477926  -0.369329 -0.112248 -0.922495  0.027450 0.243166 1 0 1.000000
skin_0
0  -40.534531 -7.239787 31.505453  -0.356725 -0.052509 -0.932733  0.027521 0.243023 1 0 1.000000
0  -40.465714 -7.253551 31.477926  -0.369329 -0.112248 -0.922495  0.027450 0.243166 1 0 1.000000
0  -40.135380 -8.299604 31.546747  -0.456318 -0.397272 -0.796209  0.022014 0.242809 1 0 1.000000
skin_0
0  -40.534531 -7.239787 31.505453  -0.356725 -0.052509 -0.932733  0.027521 0.243023 1 0 1.000000
0  -40.740986 -5.753291 31.588037  -0.115560 0.124481 -0.985470  0.035245 0.242594 1 0 1.000000
0  -40.465714 -7.253551 31.477926  -0.369329 -0.112248 -0.922495  0.027450 0.243166 1 0 1.000000
skin_0
0  -40.685932 -5.767056 31.574274  -0.125796 0.096937 -0.987309  0.035174 0.242666 1 0 1.000000
0  -40.465714 -7.253551 31.477926  -0.369329 -0.112248 -0.922495  0.027450 0.243166 1 0 1.000000
0  -40.740986 -5.753291 31.588037  -0.115560 0.124481 -0.985470  0.035245 0.242594 1 0 1.000000
skin_0
0  -40.685932 -5.767056 31.574274  -0.125796 0.096937 -0.987309  0.035174 0.242666 1 0 1.000000
0  -40.740986 -5.753291 31.588037  -0.115560 0.124481 -0.985470  0.035245 0.242594 1 0 1.000000
0  -40.603348 -4.473254 31.808258  0.155855 0.242864 -0.957458  0.041897 0.241450 1 0 1.000000
skin_0
0  -40.672165 -4.431962 31.794495  0.158822 0.233548 -0.959287  0.042111 0.241521 1 0 1.000000
0  -40.603348 -4.473254 31.808258  0.155855 0.242864 -0.957458  0.041897 0.241450 1 0 1.000000
0  -40.740986 -5.753291 31.588037  -0.115560 0.124481 -0.985470  0.035245 0.242594 1 0 1.000000
skin_0
0  -40.672165 -4.431962 31.794495  0.158822 0.233548 -0.959287  0.042111 0.241521 1 0 1.000000
0  -39.626118 -3.771297 32.262463  0.174317 0.608848 -0.773898  0.045544 0.239090 1 0 1.000000
0  -40.603348 -4.473254 31.808258  0.155855 0.242864 -0.957458  0.041897 0.241450 1 0 1.000000
skin_0
0  -39.584827 -3.826353 32.234936  0.226832 0.635553 -0.737983  0.045258 0.239233 1 0 1.000000
0  -40.603348 -4.473254 31.808258  0.155855 0.242864 -0.957458  0.041897 0.241450 1 0 1.000000
0  -39.626118 -3.771297 32.262463  0.174317 0.608848 -0.773898  0.045544 0.239090 1 0 1.000000
skin_0
0  -39.626118 -3.771297 32.262463  0.174317 0.608848 -0.773898  0.045544 0.239090 1 0 1.000000
0  -38.580063 -4.074102 32.592796  0.571300 0.692072 -0.441195  0.043971 0.237373 1 0 1.000000
0  -39.584827 -3.826353 32.234936  0.226832 0.635553 -0.737983  0.045258 0.239233 1 0 1.000000
skin_0
0  -38.580063 -4.115394 32.523975  0.624837 0.663276 -0.411877  0.043756 0.237731 1 0 1.000000
0  -39.584827 -3.826353 32.234936  0.226832 0.635553 -0.737983  0.045258 0.239233 1 0 1.000000
0  -38.580063 -4.074102 32.592796  0.571300 0.692072 -0.441195  0.043971 0.237373 1 0 1.000000
skin_0
0  -38.580063 -4.074102 32.592796  0.571300 0.692072 -0.441195  0.043971 0.237373 1 0 1.000000
0  -37.933163 -4.982516 32.702908  0.908883 0.378407 -0.175327  0.039251 0.236801 1 0 1.000000
0  -38.580063 -4.115394 32.523975  0.624837 0.663276 -0.411877  0.043756 0.237731 1 0 1.000000
skin_0
0  -37.933163 -5.010044 32.620323  0.944214 0.294877 -0.146654  0.039108 0.237230 1 0 1.000000
0  -38.580063 -4.115394 32.523975  0.624837 0.663276 -0.411877  0.043756 0.237731 1 0 1.000000
0  -37.933163 -4.982516 32.702908  0.908883 0.378407 -0.175327  0.039251 0.236801 1 0 1.000000
skin_0
0  -40.603348 -4.473254 31.808258  -0.833155 0.393907 0.388187  0.041897 0.241450 1 0 1.000000
0  -40.617111 -4.445726 31.739437  -0.858657 0.342766 0.381077  0.042040 0.241807 1 0 1.000000
0  -40.685932 -5.767056 31.574274  -0.855204 -0.073017 0.513123  0.035174 0.242666 1 0 1.000000
skin_0
0  -40.699696 -5.794583 31.546747  -0.842329 -0.111073 0.527394  0.035031 0.242809 1 0 1.000000
0  -40.685932 -5.767056 31.574274  -0.855204 -0.073017 0.513123  0.035174 0.242666 1 0 1.000000
0  -40.617111 -4.445726 31.739437  -0.858657 0.342766 0.381077  0.042040 0.241807 1 0 1.000000
skin_0
0  -40.699696 -5.794583 31.546747  -0.842329 -0.111073 0.527394  0.035031 0.242809 1 0 1.000000
0  -40.479477 -7.281079 31.436636  -0.858965 -0.254366 0.444383  0.027306 0.243381 1 0 1.000000
0  -40.685932 -5.767056 31.574274  -0.855204 -0.073017 0.513123  0.035174 0.242666 1 0 1.000000
skin_0
0  -40.465714 -7.253551 31.477926  -0.873225 -0.218204 0.435736  0.027450 0.243166 1 0 1.000000
0  -40.685932 -5.767056 31.574274  -0.855204 -0.073017 0.513123  0.035174 0.242666 1 0 1.000000
0  -40.479477 -7.281079 31.436636  -0.858965 -0.254366 0.444383  0.027306 0.243381 1 0 1.000000
skin_0
0  -40.465714 -7.253551 31.477926  -0.873225 -0.218204 0.435736  0.027450 0.243166 1 0 1.000000
0  -40.479477 -7.281079 31.436636  -0.858965 -0.254366 0.444383  0.027306 0.243381 1 0 1.000000
0  -40.066559 -8.299604 31.505453  -0.797788 -0.491601 0.349088  0.022014 0.243023 1 0 1.000000
skin_0
0  -40.052795 -8.354659 31.436636  -0.670628 -0.590560 0.448885  0.021728 0.243381 1 0 1.000000
0  -40.066559 -8.299604 31.505453  -0.797788 -0.491601 0.349088  0.022014 0.243023 1 0 1.000000
0  -40.479477 -7.281079 31.436636  -0.858965 -0.254366 0.444383  0.027306 0.243381 1 0 1.000000
skin_0
0  -40.052795 -8.354659 31.436636  -0.670628 -0.590560 0.448885  0.021728 0.243381 1 0 1.000000
0  -38.745232 -9.097907 31.780731  -0.242238 -0.546114 0.801923  0.017866 0.241593 1 0 1.000000
0  -40.066559 -8.299604 31.505453  -0.797788 -0.491601 0.349088  0.022014 0.243023 1 0 1.000000
skin_0
0  -38.772758 -9.042851 31.822021  -0.311804 -0.560225 0.767415  0.018152 0.241378 1 0 1.000000
0  -40.066559 -8.299604 31.505453  -0.797788 -0.491601 0.349088  0.022014 0.243023 1 0 1.000000
0  -38.745232 -9.097907 31.780731  -0.242238 -0.546114 0.801923  0.017866 0.241593 1 0 1.000000
skin_0
0  -38.745232 -9.097907 31.780731  -0.242238 -0.546114 0.801923  0.017866 0.241593 1 0 1.000000
0  -37.905636 -8.588644 32.124828  0.079070 -0.376754 0.922932  0.020512 0.239805 1 0 1.000000
0  -38.772758 -9.042851 31.822021  -0.311804 -0.560225 0.767415  0.018152 0.241378 1 0 1.000000
skin_0
0  -37.974453 -8.547354 32.152355  0.098401 -0.355746 0.929388  0.020727 0.239662 1 0 1.000000
0  -38.772758 -9.042851 31.822021  -0.311804 -0.560225 0.767415  0.018152 0.241378 1 0 1.000000
0  -37.905636 -8.588644 32.124828  0.079070 -0.376754 0.922932  0.020512 0.239805 1 0 1.000000
skin_0
0  -37.905636 -8.588644 32.124828  0.079070 -0.376754 0.922932  0.020512 0.239805 1 0 1.000000
0  -37.712944 -6.909455 32.413868  0.348795 -0.141798 0.926410  0.029237 0.238303 1 0 1.000000
0  -37.974453 -8.547354 32.152355  0.098401 -0.355746 0.929388  0.020727 0.239662 1 0 1.000000
skin_0
0  -37.767998 -6.895691 32.441395  0.359628 -0.114477 0.926047  0.029309 0.238160 1 0 1.000000
0  -37.974453 -8.547354 32.152355  0.098401 -0.355746 0.929388  0.020727 0.239662 1 0 1.000000
0  -37.712944 -6.909455 32.413868  0.348795 -0.141798 0.926410  0.029237 0.238303 1 0 1.000000
skin_0
0  -37.712944 -6.909455 32.413868  0.348795 -0.141798 0.926410  0.029237 0.238303 1 0 1.000000
0  -37.864346 -5.010044 32.592796  0.455954 0.113260 0.882767  0.039108 0.237373 1 0 1.000000
0  -37.767998 -6.895691 32.441395  0.359628 -0.114477 0.926047  0.029309 0.238160 1 0 1.000000
skin_0
0  -37.933163 -5.010044 32.620323  0.454700 0.230919 0.860188  0.039108 0.237230 1 0 1.000000
0  -37.767998 -6.895691 32.441395  0.359628 -0.114477 0.926047  0.029309 0.238160 1 0 1.000000
0  -37.864346 -5.010044 32.592796  0.455954 0.113260 0.882767  0.039108 0.237373 1 0 1.000000
skin_0
0  -37.864346 -5.010044 32.592796  0.455954 0.113260 0.882767  0.039108 0.237373 1 0 1.000000
0  -38.511246 -4.074102 32.482685  0.205858 0.500359 0.840989  0.043971 0.237945 1 0 1.000000
0  -37.933163 -5.010044 32.620323  0.454700 0.230919 0.860188  0.039108 0.237230 1 0 1.000000
skin_0
0  -38.580063 -4.115394 32.523975  0.145250 0.558919 0.816402  0.043756 0.237731 1 0 1.000000
0  -37.933163 -5.010044 32.620323  0.454700 0.230919 0.860188  0.039108 0.237230 1 0 1.000000
0  -38.511246 -4.074102 32.482685  0.205858 0.500359 0.840989  0.043971 0.237945 1 0 1.000000
skin_0
0  -38.511246 -4.074102 32.482685  0.205858 0.500359 0.840989  0.043971 0.237945 1 0 1.000000
0  -39.529770 -3.757534 32.193645  -0.264898 0.615913 0.741943  0.045616 0.239447 1 0 1.000000
0  -38.580063 -4.115394 32.523975  0.145250 0.558919 0.816402  0.043756 0.237731 1 0 1.000000
skin_0
0  -39.584827 -3.826353 32.234936  -0.444958 0.669269 0.595056  0.045258 0.239233 1 0 1.000000
0  -38.580063 -4.115394 32.523975  0.145250 0.558919 0.816402  0.043756 0.237731 1 0 1.000000
0  -39.529770 -3.757534 32.193645  -0.264898 0.615913 0.741943  0.045616 0.239447 1 0 1.000000
skin_0
0  -39.529770 -3.757534 32.193645  -0.264898 0.615913 0.741943  0.045616 0.239447 1 0 1.000000
0  -40.617111 -4.445726 31.739437  -0.858657 0.342766 0.381077  0.042040 0.241807 1 0 1.000000
0  -39.584827 -3.826353 32.234936  -0.444958 0.669269 0.595056  0.045258 0.239233 1 0 1.000000
skin_0
0  -40.603348 -4.473254 31.808258  -0.833155 0.393907 0.388187  0.041897 0.241450 1 0 1.000000
0  -39.584827 -3.826353 32.234936  -0.444958 0.669269 0.595056  0.045258 0.239233 1 0 1.000000
0  -40.617111 -4.445726 31.739437  -0.858657 0.342766 0.381077  0.042040 0.241807 1 0 1.000000
chrome
0  -41.016266 -3.055578 34.244461  0.377993 0.915364 0.138673  0.193793 0.030274 1 0 1.000000
0  -41.140141 -2.931703 32.785492  0.376194 0.920338 0.107032  0.193793 0.030274 1 0 1.000000
0  -41.291542 -2.862884 32.592796  0.372952 0.922143 0.102755  0.193793 0.030274 1 0 1.000000
chrome
0  -47.609146 -0.357864 33.872837  0.228566 0.964948 0.128967  0.193396 0.030274 1 0 1.000000
0  -47.746788 -0.357864 34.918888  0.224778 0.962544 0.151603  0.193396 0.030274 1 0 1.000000
0  -47.485271 -0.523030 36.185162  0.229664 0.956596 0.179386  0.193396 0.030793 1 0 1.000000
chrome
0  -47.609146 -0.357864 33.872837  0.228566 0.964948 0.128967  0.193396 0.030274 1 0 1.000000
0  -47.485271 -0.523030 36.185162  0.229664 0.956596 0.179386  0.193396 0.030793 1 0 1.000000
0  -47.361401 -0.440447 33.391102  0.234611 0.964867 0.118276  0.193793 0.030274 1 0 1.000000
chrome
0  -47.017303 -0.743251 36.832066  0.239784 0.951331 0.193577  0.193793 0.030793 1 0 1.000000
0  -47.361401 -0.440447 33.391102  0.234611 0.964867 0.118276  0.193793 0.030274 1 0 1.000000
0  -47.485271 -0.523030 36.185162  0.229664 0.956596 0.179386  0.193396 0.030793 1 0 1.000000
chrome
0  -47.361401 -0.440447 33.391102  0.234611 0.964867 0.118276  0.193793 0.030274 1 0 1.000000
0  -47.017303 -0.743251 36.832066  0.239784 0.951331 0.193577  0.193793 0.030793 1 0 1.000000
0  -47.044830 -0.550557 33.198410  0.241998 0.963581 0.113795  0.193793 0.030274 1 0 1.000000
chrome
0  -46.384163 -1.018528 37.066048  0.254120 0.946479 0.199000  0.193793 0.030793 1 0 1.000000
0  -47.044830 -0.550557 33.198410  0.241998 0.963581 0.113795  0.193793 0.030274 1 0 1.000000
0  -47.017303 -0.743251 36.832066  0.239784 0.951331 0.193577  0.193793 0.030793 1 0 1.000000
chrome
0  -47.044830 -0.550557 33.198410  0.241998 0.963581 0.113795  0.193793 0.030274 1 0 1.000000
0  -46.384163 -1.018528 37.066048  0.254120 0.946479 0.199000  0.193793 0.030793 1 0 1.000000
0  -41.663162 -2.711481 32.496449  0.364781 0.925644 0.100584  0.193793 0.030274 1 0 1.000000
chrome
0  -41.883385 -2.849120 37.134865  0.356373 0.912378 0.201404  0.193793 0.030793 1 0 1.000000
0  -41.663162 -2.711481 32.496449  0.364781 0.925644 0.100584  0.193793 0.030274 1 0 1.000000
0  -46.384163 -1.018528 37.066048  0.254120 0.946479 0.199000  0.193793 0.030793 1 0 1.000000
chrome
0  -41.883385 -2.849120 37.134865  0.356373 0.912378 0.201404  0.193793 0.030793 1 0 1.000000
0  -41.346600 -3.055578 36.790771  0.368589 0.909094 0.194139  0.193793 0.030793 1 0 1.000000
0  -41.663162 -2.711481 32.496449  0.364781 0.925644 0.100584  0.193793 0.030274 1 0 1.000000
chrome
0  -41.291542 -2.862884 32.592796  0.372952 0.922143 0.102755  0.193793 0.030274 1 0 1.000000
0  -41.663162 -2.711481 32.496449  0.364781 0.925644 0.100584  0.193793 0.030274 1 0 1.000000
0  -41.346600 -3.055578 36.790771  0.368589 0.909094 0.194139  0.193793 0.030793 1 0 1.000000
chrome
0  -41.346600 -3.055578 36.790771  0.368589 0.909094 0.194139  0.193793 0.030793 1 0 1.000000
0  -41.016266 -3.055578 34.244461  0.377993 0.915364 0.138673  0.193793 0.030274 1 0 1.000000
0  -41.291542 -2.862884 32.592796  0.372952 0.922143 0.102755  0.193793 0.030274 1 0 1.000000
chrome
0  -41.346600 -3.055578 36.790771  0.368589 0.909094 0.194139  0.193793 0.030793 1 0 1.000000
0  -41.098846 -3.138160 36.391621  0.374605 0.908463 0.185378  0.193793 0.030793 1 0 1.000000
0  -41.016266 -3.055578 34.244461  0.377993 0.915364 0.138673  0.193793 0.030274 1 0 1.000000
end
