version 1
nodes
0 "root" -1
1 "steering_wheel" 0
end
skeleton
time 0
0  0.000000 0.000000 0.000000  0.000000 -0.000000 -0.000000
1  19.916300 17.934299 33.308498  0.000000 -0.000000 0.000000
end
triangles
  phy
0  -40.523010 -7.031291 34.916786  -0.275158 -0.588327 -0.760368  0.000000 0.000000 1 0 1.000000
0  -39.944569 -8.311331 33.113731  0.349803 -0.903759 -0.246694  0.000000 0.000000 1 0 1.000000
0  -39.050159 -7.926132 33.430283  -0.353068 -0.629728 -0.691943  0.000000 0.000000 1 0 1.000000
  phy
0  -39.050159 -7.926132 33.430283  -0.353068 -0.629728 -0.691943  0.000000 0.000000 1 0 1.000000
0  -39.944569 -8.311331 33.113731  0.349803 -0.903759 -0.246694  0.000000 0.000000 1 0 1.000000
0  -38.747341 -9.095991 31.778688  0.397018 -0.903037 -0.164015  0.000000 0.000000 1 0 1.000000
  phy
0  -39.050159 -7.926132 33.430283  -0.353068 -0.629728 -0.691943  0.000000 0.000000 1 0 1.000000
0  -38.747341 -9.095991 31.778688  0.397018 -0.903037 -0.164015  0.000000 0.000000 1 0 1.000000
0  -37.976593 -8.545459 32.232952  -0.541200 -0.495378 -0.679487  0.000000 0.000000 1 0 1.000000
  phy
0  -37.976593 -8.545459 32.232952  -0.541200 -0.495378 -0.679487  0.000000 0.000000 1 0 1.000000
0  -40.040512 -5.930083 35.163937  -0.593667 -0.311390 -0.742021  0.000000 0.000000 1 0 1.000000
0  -39.050159 -7.926132 33.430283  -0.353068 -0.629728 -0.691943  0.000000 0.000000 1 0 1.000000
  phy
0  -39.050159 -7.926132 33.430283  -0.353068 -0.629728 -0.691943  0.000000 0.000000 1 0 1.000000
0  -40.040512 -5.930083 35.163937  -0.593667 -0.311390 -0.742021  0.000000 0.000000 1 0 1.000000
0  -40.523010 -7.031291 34.916786  -0.275158 -0.588327 -0.760368  0.000000 0.000000 1 0 1.000000
  phy
0  -38.747341 -9.095991 31.778688  0.397018 -0.903037 -0.164015  0.000000 0.000000 1 0 1.000000
0  -37.343407 -9.963185 30.127085  -0.482959 -0.875641 -0.001823  0.000000 0.000000 1 0 1.000000
0  -37.976593 -8.545459 32.232952  -0.541200 -0.495378 -0.679487  0.000000 0.000000 1 0 1.000000
  phy
0  -37.976593 -8.545459 32.232952  -0.541200 -0.495378 -0.679487  0.000000 0.000000 1 0 1.000000
0  -37.343407 -9.963185 30.127085  -0.482959 -0.875641 -0.001823  0.000000 0.000000 1 0 1.000000
0  -36.834167 -9.123597 30.677725  -0.907749 -0.260505 -0.328830  0.000000 0.000000 1 0 1.000000
  phy
0  -37.976593 -8.545459 32.232952  -0.541200 -0.495378 -0.679487  0.000000 0.000000 1 0 1.000000
0  -36.834167 -9.123597 30.677725  -0.907749 -0.260505 -0.328830  0.000000 0.000000 1 0 1.000000
0  -38.554596 -6.618518 33.540436  -0.742048 -0.146817 -0.654071  0.000000 0.000000 1 0 1.000000
  phy
0  -38.554596 -6.618518 33.540436  -0.742048 -0.146817 -0.654071  0.000000 0.000000 1 0 1.000000
0  -40.040512 -5.930083 35.163937  -0.593667 -0.311390 -0.742021  0.000000 0.000000 1 0 1.000000
0  -37.976593 -8.545459 32.232952  -0.541200 -0.495378 -0.679487  0.000000 0.000000 1 0 1.000000
  phy
0  -40.523010 -7.031291 34.916786  -0.275158 -0.588327 -0.760368  0.000000 0.000000 1 0 1.000000
0  -40.040512 -5.930083 35.163937  -0.593667 -0.311390 -0.742021  0.000000 0.000000 1 0 1.000000
0  -41.156120 -3.191020 37.077507  -0.747713 0.248930 -0.615596  0.000000 0.000000 1 0 1.000000
  phy
0  -41.156120 -3.191020 37.077507  -0.747713 0.248930 -0.615596  0.000000 0.000000 1 0 1.000000
0  -41.747936 -5.324538 36.361893  -0.291296 -0.428233 -0.855431  0.000000 0.000000 1 0 1.000000
0  -40.523010 -7.031291 34.916786  -0.275158 -0.588327 -0.760368  0.000000 0.000000 1 0 1.000000
  phy
0  -41.156120 -3.191020 37.077507  -0.747713 0.248930 -0.615596  0.000000 0.000000 1 0 1.000000
0  -41.747864 -2.888336 37.380424  -0.173980 0.304835 -0.936380  0.000000 0.000000 1 0 1.000000
0  -41.747936 -5.324538 36.361893  -0.291296 -0.428233 -0.855431  0.000000 0.000000 1 0 1.000000
  phy
0  -41.156120 -3.191020 37.077507  -0.747713 0.248930 -0.615596  0.000000 0.000000 1 0 1.000000
0  -40.742973 -2.902125 34.242245  -0.405080 0.910460 -0.083509  0.000000 0.000000 1 0 1.000000
0  -41.747864 -2.888336 37.380424  -0.173980 0.304835 -0.936380  0.000000 0.000000 1 0 1.000000
  phy
0  -40.742973 -2.902125 34.242245  -0.405080 0.910460 -0.083509  0.000000 0.000000 1 0 1.000000
0  -41.156120 -3.191020 37.077507  -0.747713 0.248930 -0.615596  0.000000 0.000000 1 0 1.000000
0  -37.095402 -4.540228 30.677673  -0.729919 0.671833 -0.125936  0.000000 0.000000 1 0 1.000000
  phy
0  -41.156120 -3.191020 37.077507  -0.747713 0.248930 -0.615596  0.000000 0.000000 1 0 1.000000
0  -40.040512 -5.930083 35.163937  -0.593667 -0.311390 -0.742021  0.000000 0.000000 1 0 1.000000
0  -38.554596 -6.618518 33.540436  -0.742048 -0.146817 -0.654071  0.000000 0.000000 1 0 1.000000
  phy
0  -38.444416 -4.760382 33.526695  -0.832741 0.133733 -0.537268  0.000000 0.000000 1 0 1.000000
0  -37.095402 -4.540228 30.677673  -0.729919 0.671833 -0.125936  0.000000 0.000000 1 0 1.000000
0  -41.156120 -3.191020 37.077507  -0.747713 0.248930 -0.615596  0.000000 0.000000 1 0 1.000000
  phy
0  -38.554596 -6.618518 33.540436  -0.742048 -0.146817 -0.654071  0.000000 0.000000 1 0 1.000000
0  -38.444416 -4.760382 33.526695  -0.832741 0.133733 -0.537268  0.000000 0.000000 1 0 1.000000
0  -41.156120 -3.191020 37.077507  -0.747713 0.248930 -0.615596  0.000000 0.000000 1 0 1.000000
  phy
0  -42.807735 -5.709809 36.141628  0.236397 -0.566598 -0.789356  0.000000 0.000000 1 0 1.000000
0  -47.239597 -2.778275 36.705826  0.261252 -0.397882 -0.879453  0.000000 0.000000 1 0 1.000000
0  -42.959152 -6.232865 35.673641  0.340406 -0.692712 -0.635825  0.000000 0.000000 1 0 1.000000
  phy
0  -42.807735 -5.709809 36.141628  0.236397 -0.566598 -0.789356  0.000000 0.000000 1 0 1.000000
0  -42.573723 -4.994149 36.678425  0.105626 -0.371589 -0.922369  0.000000 0.000000 1 0 1.000000
0  -47.239597 -2.778275 36.705826  0.261252 -0.397882 -0.879453  0.000000 0.000000 1 0 1.000000
  phy
0  -42.959152 -6.232865 35.673641  0.340406 -0.692712 -0.635825  0.000000 0.000000 1 0 1.000000
0  -41.995621 -6.136597 35.866405  -0.034854 -0.647935 -0.760898  0.000000 0.000000 1 0 1.000000
0  -42.807735 -5.709809 36.141628  0.236397 -0.566598 -0.789356  0.000000 0.000000 1 0 1.000000
  phy
0  -41.995621 -6.136597 35.866405  -0.034854 -0.647935 -0.760898  0.000000 0.000000 1 0 1.000000
0  -42.573723 -4.994149 36.678425  0.105626 -0.371589 -0.922369  0.000000 0.000000 1 0 1.000000
0  -42.807735 -5.709809 36.141628  0.236397 -0.566598 -0.789356  0.000000 0.000000 1 0 1.000000
  phy
0  -48.271721 -2.282382 33.952888  0.909973 -0.019965 0.414187  0.000000 0.000000 1 0 1.000000
0  -47.776272 -3.493643 33.897850  0.660373 -0.607175 0.441866  0.000000 0.000000 1 0 1.000000
0  -48.449760 -2.349369 34.911285  0.997268 0.069041 -0.026256  0.000000 0.000000 1 0 1.000000
  phy
0  -48.449760 -2.349369 34.911285  0.997268 0.069041 -0.026256  0.000000 0.000000 1 0 1.000000
0  -47.776272 -3.493643 33.897850  0.660373 -0.607175 0.441866  0.000000 0.000000 1 0 1.000000
0  -47.941467 -3.617659 34.902699  0.638246 -0.764485 0.090586  0.000000 0.000000 1 0 1.000000
  phy
0  -48.271721 -2.282382 33.952888  0.909973 -0.019965 0.414187  0.000000 0.000000 1 0 1.000000
0  -48.449760 -2.349369 34.911285  0.997268 0.069041 -0.026256  0.000000 0.000000 1 0 1.000000
0  -47.858707 -0.245366 33.829025  0.052128 0.998549 -0.013512  0.000000 0.000000 1 0 1.000000
  phy
0  -47.610920 -0.327956 33.250954  0.232639 0.446930 0.863790  0.000000 0.000000 1 0 1.000000
0  -48.271721 -2.282382 33.952888  0.909973 -0.019965 0.414187  0.000000 0.000000 1 0 1.000000
0  -47.858707 -0.245366 33.829025  0.052128 0.998549 -0.013512  0.000000 0.000000 1 0 1.000000
  phy
0  -47.707367 -2.447598 33.306004  0.527460 -0.137382 0.838399  0.000000 0.000000 1 0 1.000000
0  -48.271721 -2.282382 33.952888  0.909973 -0.019965 0.414187  0.000000 0.000000 1 0 1.000000
0  -47.610920 -0.327956 33.250954  0.232639 0.446930 0.863790  0.000000 0.000000 1 0 1.000000
  phy
0  -47.776272 -3.493643 33.897850  0.660373 -0.607175 0.441866  0.000000 0.000000 1 0 1.000000
0  -48.271721 -2.282382 33.952888  0.909973 -0.019965 0.414187  0.000000 0.000000 1 0 1.000000
0  -47.707367 -2.447598 33.306004  0.527460 -0.137382 0.838399  0.000000 0.000000 1 0 1.000000
  phy
0  -40.523010 -7.031291 34.916786  -0.275158 -0.588327 -0.760368  0.000000 0.000000 1 0 1.000000
0  -41.747936 -5.324538 36.361893  -0.291296 -0.428233 -0.855431  0.000000 0.000000 1 0 1.000000
0  -41.995621 -6.136597 35.866405  -0.034854 -0.647935 -0.760898  0.000000 0.000000 1 0 1.000000
  phy
0  -41.995621 -6.136597 35.866405  -0.034854 -0.647935 -0.760898  0.000000 0.000000 1 0 1.000000
0  -42.188267 -6.838533 35.081818  0.356441 -0.883538 -0.303827  0.000000 0.000000 1 0 1.000000
0  -40.523010 -7.031291 34.916786  -0.275158 -0.588327 -0.760368  0.000000 0.000000 1 0 1.000000
  phy
0  -40.523010 -7.031291 34.916786  -0.275158 -0.588327 -0.760368  0.000000 0.000000 1 0 1.000000
0  -42.188267 -6.838533 35.081818  0.356441 -0.883538 -0.303827  0.000000 0.000000 1 0 1.000000
0  -39.944569 -8.311331 33.113731  0.349803 -0.903759 -0.246694  0.000000 0.000000 1 0 1.000000
  phy
0  -36.834167 -9.123597 30.677725  -0.907749 -0.260505 -0.328830  0.000000 0.000000 1 0 1.000000
0  -37.770039 -6.880017 32.508205  -0.801561 -0.090145 -0.591078  0.000000 0.000000 1 0 1.000000
0  -38.554596 -6.618518 33.540436  -0.742048 -0.146817 -0.654071  0.000000 0.000000 1 0 1.000000
  phy
0  -38.554596 -6.618518 33.540436  -0.742048 -0.146817 -0.654071  0.000000 0.000000 1 0 1.000000
0  -37.770039 -6.880017 32.508205  -0.801561 -0.090145 -0.591078  0.000000 0.000000 1 0 1.000000
0  -38.444416 -4.760382 33.526695  -0.832741 0.133733 -0.537268  0.000000 0.000000 1 0 1.000000
  phy
0  -36.696407 -7.334289 30.911671  -0.954647 -0.005036 -0.297698  0.000000 0.000000 1 0 1.000000
0  -37.026634 -7.513117 28.805847  -0.844702 0.008868 0.535163  0.000000 0.000000 1 0 1.000000
0  -36.820187 -5.476208 30.897903  -0.967451 0.154875 -0.200129  0.000000 0.000000 1 0 1.000000
  phy
0  -37.026634 -7.513117 28.805847  -0.844702 0.008868 0.535163  0.000000 0.000000 1 0 1.000000
0  -37.095402 -4.540228 30.677673  -0.729919 0.671833 -0.125936  0.000000 0.000000 1 0 1.000000
0  -36.820187 -5.476208 30.897903  -0.967451 0.154875 -0.200129  0.000000 0.000000 1 0 1.000000
  phy
0  -38.444416 -4.760382 33.526695  -0.832741 0.133733 -0.537268  0.000000 0.000000 1 0 1.000000
0  -36.696407 -7.334289 30.911671  -0.954647 -0.005036 -0.297698  0.000000 0.000000 1 0 1.000000
0  -36.820187 -5.476208 30.897903  -0.967451 0.154875 -0.200129  0.000000 0.000000 1 0 1.000000
  phy
0  -36.820187 -5.476208 30.897903  -0.967451 0.154875 -0.200129  0.000000 0.000000 1 0 1.000000
0  -37.095402 -4.540228 30.677673  -0.729919 0.671833 -0.125936  0.000000 0.000000 1 0 1.000000
0  -38.444416 -4.760382 33.526695  -0.832741 0.133733 -0.537268  0.000000 0.000000 1 0 1.000000
  phy
0  -36.696407 -7.334289 30.911671  -0.954647 -0.005036 -0.297698  0.000000 0.000000 1 0 1.000000
0  -37.770039 -6.880017 32.508205  -0.801561 -0.090145 -0.591078  0.000000 0.000000 1 0 1.000000
0  -36.834167 -9.123597 30.677725  -0.907749 -0.260505 -0.328830  0.000000 0.000000 1 0 1.000000
  phy
0  -36.834167 -9.123597 30.677725  -0.907749 -0.260505 -0.328830  0.000000 0.000000 1 0 1.000000
0  -37.026634 -7.513117 28.805847  -0.844702 0.008868 0.535163  0.000000 0.000000 1 0 1.000000
0  -36.696407 -7.334289 30.911671  -0.954647 -0.005036 -0.297698  0.000000 0.000000 1 0 1.000000
  phy
0  -36.834167 -9.123597 30.677725  -0.907749 -0.260505 -0.328830  0.000000 0.000000 1 0 1.000000
0  -37.343407 -9.963185 30.127085  -0.482959 -0.875641 -0.001823  0.000000 0.000000 1 0 1.000000
0  -37.026634 -7.513117 28.805847  -0.844702 0.008868 0.535163  0.000000 0.000000 1 0 1.000000
  phy
0  -47.239597 -2.778275 36.705826  0.261252 -0.397882 -0.879453  0.000000 0.000000 1 0 1.000000
0  -47.735146 -3.755152 35.535728  0.498780 -0.847063 -0.183585  0.000000 0.000000 1 0 1.000000
0  -42.959152 -6.232865 35.673641  0.340406 -0.692712 -0.635825  0.000000 0.000000 1 0 1.000000
  phy
0  -42.959152 -6.232865 35.673641  0.340406 -0.692712 -0.635825  0.000000 0.000000 1 0 1.000000
0  -42.188267 -6.838533 35.081818  0.356441 -0.883538 -0.303827  0.000000 0.000000 1 0 1.000000
0  -41.995621 -6.136597 35.866405  -0.034854 -0.647935 -0.760898  0.000000 0.000000 1 0 1.000000
  phy
0  -47.735146 -3.755152 35.535728  0.498780 -0.847063 -0.183585  0.000000 0.000000 1 0 1.000000
0  -42.188267 -6.838533 35.081818  0.356441 -0.883538 -0.303827  0.000000 0.000000 1 0 1.000000
0  -42.959152 -6.232865 35.673641  0.340406 -0.692712 -0.635825  0.000000 0.000000 1 0 1.000000
  phy
0  -38.086529 -9.660364 29.397625  0.486435 -0.864282 0.128050  0.000000 0.000000 1 0 1.000000
0  -37.343407 -9.963185 30.127085  -0.482959 -0.875641 -0.001823  0.000000 0.000000 1 0 1.000000
0  -38.747341 -9.095991 31.778688  0.397018 -0.903037 -0.164015  0.000000 0.000000 1 0 1.000000
  phy
0  -39.944569 -8.311331 33.113731  0.349803 -0.903759 -0.246694  0.000000 0.000000 1 0 1.000000
0  -47.735146 -3.755152 35.535728  0.498780 -0.847063 -0.183585  0.000000 0.000000 1 0 1.000000
0  -38.747341 -9.095991 31.778688  0.397018 -0.903037 -0.164015  0.000000 0.000000 1 0 1.000000
  phy
0  -38.747341 -9.095991 31.778688  0.397018 -0.903037 -0.164015  0.000000 0.000000 1 0 1.000000
0  -47.735146 -3.755152 35.535728  0.498780 -0.847063 -0.183585  0.000000 0.000000 1 0 1.000000
0  -38.086529 -9.660364 29.397625  0.486435 -0.864282 0.128050  0.000000 0.000000 1 0 1.000000
  phy
0  -47.239597 -2.778275 36.705826  0.261252 -0.397882 -0.879453  0.000000 0.000000 1 0 1.000000
0  -47.211971 -0.644635 37.036026  0.009488 0.873081 -0.487484  0.000000 0.000000 1 0 1.000000
0  -48.203011 -2.420051 35.976177  0.848230 -0.129335 -0.513593  0.000000 0.000000 1 0 1.000000
  phy
0  -46.494282 -0.954193 37.317528  -0.256742 0.723638 -0.640650  0.000000 0.000000 1 0 1.000000
0  -47.211971 -0.644635 37.036026  0.009488 0.873081 -0.487484  0.000000 0.000000 1 0 1.000000
0  -47.239597 -2.778275 36.705826  0.261252 -0.397882 -0.879453  0.000000 0.000000 1 0 1.000000
  phy
0  -47.239597 -2.778275 36.705826  0.261252 -0.397882 -0.879453  0.000000 0.000000 1 0 1.000000
0  -48.203011 -2.420051 35.976177  0.848230 -0.129335 -0.513593  0.000000 0.000000 1 0 1.000000
0  -47.735146 -3.755152 35.535728  0.498780 -0.847063 -0.183585  0.000000 0.000000 1 0 1.000000
  phy
0  -47.239597 -2.778275 36.705826  0.261252 -0.397882 -0.879453  0.000000 0.000000 1 0 1.000000
0  -41.747864 -2.888336 37.380424  -0.173980 0.304835 -0.936380  0.000000 0.000000 1 0 1.000000
0  -46.494282 -0.954193 37.317528  -0.256742 0.723638 -0.640650  0.000000 0.000000 1 0 1.000000
  phy
0  -47.239597 -2.778275 36.705826  0.261252 -0.397882 -0.879453  0.000000 0.000000 1 0 1.000000
0  -42.573723 -4.994149 36.678425  0.105626 -0.371589 -0.922369  0.000000 0.000000 1 0 1.000000
0  -41.747864 -2.888336 37.380424  -0.173980 0.304835 -0.936380  0.000000 0.000000 1 0 1.000000
  phy
0  -48.203011 -2.420051 35.976177  0.848230 -0.129335 -0.513593  0.000000 0.000000 1 0 1.000000
0  -48.449760 -2.349369 34.911285  0.997268 0.069041 -0.026256  0.000000 0.000000 1 0 1.000000
0  -47.941467 -3.617659 34.902699  0.638246 -0.764485 0.090586  0.000000 0.000000 1 0 1.000000
  phy
0  -47.735146 -3.755152 35.535728  0.498780 -0.847063 -0.183585  0.000000 0.000000 1 0 1.000000
0  -48.203011 -2.420051 35.976177  0.848230 -0.129335 -0.513593  0.000000 0.000000 1 0 1.000000
0  -47.941467 -3.617659 34.902699  0.638246 -0.764485 0.090586  0.000000 0.000000 1 0 1.000000
  phy
0  -48.203011 -2.420051 35.976177  0.848230 -0.129335 -0.513593  0.000000 0.000000 1 0 1.000000
0  -47.721184 -0.410538 36.278996  -0.125135 0.987190 -0.098978  0.000000 0.000000 1 0 1.000000
0  -48.449760 -2.349369 34.911285  0.997268 0.069041 -0.026256  0.000000 0.000000 1 0 1.000000
  phy
0  -47.721184 -0.410538 36.278996  -0.125135 0.987190 -0.098978  0.000000 0.000000 1 0 1.000000
0  -48.203011 -2.420051 35.976177  0.848230 -0.129335 -0.513593  0.000000 0.000000 1 0 1.000000
0  -47.211971 -0.644635 37.036026  0.009488 0.873081 -0.487484  0.000000 0.000000 1 0 1.000000
  phy
0  -41.513588 -2.516718 32.342598  -0.352286 0.935883 0.004213  0.000000 0.000000 1 0 1.000000
0  -47.721184 -0.410538 36.278996  -0.125135 0.987190 -0.098978  0.000000 0.000000 1 0 1.000000
0  -40.742973 -2.902125 34.242245  -0.405080 0.910460 -0.083509  0.000000 0.000000 1 0 1.000000
  phy
0  -47.721184 -0.410538 36.278996  -0.125135 0.987190 -0.098978  0.000000 0.000000 1 0 1.000000
0  -47.211971 -0.644635 37.036026  0.009488 0.873081 -0.487484  0.000000 0.000000 1 0 1.000000
0  -40.742973 -2.902125 34.242245  -0.405080 0.910460 -0.083509  0.000000 0.000000 1 0 1.000000
  phy
0  -47.721184 -0.410538 36.278996  -0.125135 0.987190 -0.098978  0.000000 0.000000 1 0 1.000000
0  -41.513588 -2.516718 32.342598  -0.352286 0.935883 0.004213  0.000000 0.000000 1 0 1.000000
0  -47.858707 -0.245366 33.829025  0.052128 0.998549 -0.013512  0.000000 0.000000 1 0 1.000000
  phy
0  -48.449760 -2.349369 34.911285  0.997268 0.069041 -0.026256  0.000000 0.000000 1 0 1.000000
0  -47.721184 -0.410538 36.278996  -0.125135 0.987190 -0.098978  0.000000 0.000000 1 0 1.000000
0  -47.858707 -0.245366 33.829025  0.052128 0.998549 -0.013512  0.000000 0.000000 1 0 1.000000
  phy
0  -47.776272 -3.493643 33.897850  0.660373 -0.607175 0.441866  0.000000 0.000000 1 0 1.000000
0  -38.554344 -9.109850 28.957050  0.524829 -0.364717 0.769114  0.000000 0.000000 1 0 1.000000
0  -38.086529 -9.660364 29.397625  0.486435 -0.864282 0.128050  0.000000 0.000000 1 0 1.000000
  phy
0  -38.086529 -9.660364 29.397625  0.486435 -0.864282 0.128050  0.000000 0.000000 1 0 1.000000
0  -47.941467 -3.617659 34.902699  0.638246 -0.764485 0.090586  0.000000 0.000000 1 0 1.000000
0  -47.776272 -3.493643 33.897850  0.660373 -0.607175 0.441866  0.000000 0.000000 1 0 1.000000
  phy
0  -47.776272 -3.493643 33.897850  0.660373 -0.607175 0.441866  0.000000 0.000000 1 0 1.000000
0  -47.707367 -2.447598 33.306004  0.527460 -0.137382 0.838399  0.000000 0.000000 1 0 1.000000
0  -38.554344 -9.109850 28.957050  0.524829 -0.364717 0.769114  0.000000 0.000000 1 0 1.000000
  phy
0  -38.774761 -7.430703 28.847076  0.424500 -0.008130 0.905392  0.000000 0.000000 1 0 1.000000
0  -47.707367 -2.447598 33.306004  0.527460 -0.137382 0.838399  0.000000 0.000000 1 0 1.000000
0  -47.610920 -0.327956 33.250954  0.232639 0.446930 0.863790  0.000000 0.000000 1 0 1.000000
  phy
0  -38.774761 -7.430703 28.847076  0.424500 -0.008130 0.905392  0.000000 0.000000 1 0 1.000000
0  -47.610920 -0.327956 33.250954  0.232639 0.446930 0.863790  0.000000 0.000000 1 0 1.000000
0  -38.733265 -5.558685 28.998390  0.239534 0.266825 0.933503  0.000000 0.000000 1 0 1.000000
  phy
0  -47.707367 -2.447598 33.306004  0.527460 -0.137382 0.838399  0.000000 0.000000 1 0 1.000000
0  -38.774761 -7.430703 28.847076  0.424500 -0.008130 0.905392  0.000000 0.000000 1 0 1.000000
0  -38.554344 -9.109850 28.957050  0.524829 -0.364717 0.769114  0.000000 0.000000 1 0 1.000000
  phy
0  -38.774761 -7.430703 28.847076  0.424500 -0.008130 0.905392  0.000000 0.000000 1 0 1.000000
0  -37.453316 -7.389314 28.626837  -0.081314 0.122529 0.989128  0.000000 0.000000 1 0 1.000000
0  -38.554344 -9.109850 28.957050  0.524829 -0.364717 0.769114  0.000000 0.000000 1 0 1.000000
  phy
0  -37.453316 -7.389314 28.626837  -0.081314 0.122529 0.989128  0.000000 0.000000 1 0 1.000000
0  -38.774761 -7.430703 28.847076  0.424500 -0.008130 0.905392  0.000000 0.000000 1 0 1.000000
0  -38.733265 -5.558685 28.998390  0.239534 0.266825 0.933503  0.000000 0.000000 1 0 1.000000
  phy
0  -41.513588 -2.516718 32.342598  -0.352286 0.935883 0.004213  0.000000 0.000000 1 0 1.000000
0  -47.610920 -0.327956 33.250954  0.232639 0.446930 0.863790  0.000000 0.000000 1 0 1.000000
0  -47.858707 -0.245366 33.829025  0.052128 0.998549 -0.013512  0.000000 0.000000 1 0 1.000000
  phy
0  -37.687191 -4.209837 30.113321  -0.396480 0.880058 0.261346  0.000000 0.000000 1 0 1.000000
0  -41.513588 -2.516718 32.342598  -0.352286 0.935883 0.004213  0.000000 0.000000 1 0 1.000000
0  -40.742973 -2.902125 34.242245  -0.405080 0.910460 -0.083509  0.000000 0.000000 1 0 1.000000
  phy
0  -41.513588 -2.516718 32.342598  -0.352286 0.935883 0.004213  0.000000 0.000000 1 0 1.000000
0  -37.687191 -4.209837 30.113321  -0.396480 0.880058 0.261346  0.000000 0.000000 1 0 1.000000
0  -47.610920 -0.327956 33.250954  0.232639 0.446930 0.863790  0.000000 0.000000 1 0 1.000000
  phy
0  -38.444416 -4.760382 33.526695  -0.832741 0.133733 -0.537268  0.000000 0.000000 1 0 1.000000
0  -37.770039 -6.880017 32.508205  -0.801561 -0.090145 -0.591078  0.000000 0.000000 1 0 1.000000
0  -36.696407 -7.334289 30.911671  -0.954647 -0.005036 -0.297698  0.000000 0.000000 1 0 1.000000
  phy
0  -41.747936 -5.324538 36.361893  -0.291296 -0.428233 -0.855431  0.000000 0.000000 1 0 1.000000
0  -42.573723 -4.994149 36.678425  0.105626 -0.371589 -0.922369  0.000000 0.000000 1 0 1.000000
0  -41.995621 -6.136597 35.866405  -0.034854 -0.647935 -0.760898  0.000000 0.000000 1 0 1.000000
  phy
0  -39.944569 -8.311331 33.113731  0.349803 -0.903759 -0.246694  0.000000 0.000000 1 0 1.000000
0  -42.188267 -6.838533 35.081818  0.356441 -0.883538 -0.303827  0.000000 0.000000 1 0 1.000000
0  -47.735146 -3.755152 35.535728  0.498780 -0.847063 -0.183585  0.000000 0.000000 1 0 1.000000
  phy
0  -47.211971 -0.644635 37.036026  0.009488 0.873081 -0.487484  0.000000 0.000000 1 0 1.000000
0  -46.494282 -0.954193 37.317528  -0.256742 0.723638 -0.640650  0.000000 0.000000 1 0 1.000000
0  -40.742973 -2.902125 34.242245  -0.405080 0.910460 -0.083509  0.000000 0.000000 1 0 1.000000
  phy
0  -40.742973 -2.902125 34.242245  -0.405080 0.910460 -0.083509  0.000000 0.000000 1 0 1.000000
0  -46.494282 -0.954193 37.317528  -0.256742 0.723638 -0.640650  0.000000 0.000000 1 0 1.000000
0  -41.747864 -2.888336 37.380424  -0.173980 0.304835 -0.936380  0.000000 0.000000 1 0 1.000000
  phy
0  -37.026634 -7.513117 28.805847  -0.844702 0.008868 0.535163  0.000000 0.000000 1 0 1.000000
0  -37.453316 -7.389314 28.626837  -0.081314 0.122529 0.989128  0.000000 0.000000 1 0 1.000000
0  -38.237720 -4.443820 29.562737  -0.084849 0.598369 0.796715  0.000000 0.000000 1 0 1.000000
  phy
0  -38.237720 -4.443820 29.562737  -0.084849 0.598369 0.796715  0.000000 0.000000 1 0 1.000000
0  -37.453316 -7.389314 28.626837  -0.081314 0.122529 0.989128  0.000000 0.000000 1 0 1.000000
0  -38.733265 -5.558685 28.998390  0.239534 0.266825 0.933503  0.000000 0.000000 1 0 1.000000
  phy
0  -38.554344 -9.109850 28.957050  0.524829 -0.364717 0.769114  0.000000 0.000000 1 0 1.000000
0  -37.453316 -7.389314 28.626837  -0.081314 0.122529 0.989128  0.000000 0.000000 1 0 1.000000
0  -37.026634 -7.513117 28.805847  -0.844702 0.008868 0.535163  0.000000 0.000000 1 0 1.000000
  phy
0  -38.086529 -9.660364 29.397625  0.486435 -0.864282 0.128050  0.000000 0.000000 1 0 1.000000
0  -38.554344 -9.109850 28.957050  0.524829 -0.364717 0.769114  0.000000 0.000000 1 0 1.000000
0  -37.026634 -7.513117 28.805847  -0.844702 0.008868 0.535163  0.000000 0.000000 1 0 1.000000
  phy
0  -38.086529 -9.660364 29.397625  0.486435 -0.864282 0.128050  0.000000 0.000000 1 0 1.000000
0  -37.026634 -7.513117 28.805847  -0.844702 0.008868 0.535163  0.000000 0.000000 1 0 1.000000
0  -37.343407 -9.963185 30.127085  -0.482959 -0.875641 -0.001823  0.000000 0.000000 1 0 1.000000
  phy
0  -47.735146 -3.755152 35.535728  0.498780 -0.847063 -0.183585  0.000000 0.000000 1 0 1.000000
0  -47.941467 -3.617659 34.902699  0.638246 -0.764485 0.090586  0.000000 0.000000 1 0 1.000000
0  -38.086529 -9.660364 29.397625  0.486435 -0.864282 0.128050  0.000000 0.000000 1 0 1.000000
  phy
0  -37.687191 -4.209837 30.113321  -0.396480 0.880058 0.261346  0.000000 0.000000 1 0 1.000000
0  -40.742973 -2.902125 34.242245  -0.405080 0.910460 -0.083509  0.000000 0.000000 1 0 1.000000
0  -37.095402 -4.540228 30.677673  -0.729919 0.671833 -0.125936  0.000000 0.000000 1 0 1.000000
  phy
0  -47.610920 -0.327956 33.250954  0.232639 0.446930 0.863790  0.000000 0.000000 1 0 1.000000
0  -37.687191 -4.209837 30.113321  -0.396480 0.880058 0.261346  0.000000 0.000000 1 0 1.000000
0  -38.237720 -4.443820 29.562737  -0.084849 0.598369 0.796715  0.000000 0.000000 1 0 1.000000
  phy
0  -37.687191 -4.209837 30.113321  -0.396480 0.880058 0.261346  0.000000 0.000000 1 0 1.000000
0  -37.026634 -7.513117 28.805847  -0.844702 0.008868 0.535163  0.000000 0.000000 1 0 1.000000
0  -38.237720 -4.443820 29.562737  -0.084849 0.598369 0.796715  0.000000 0.000000 1 0 1.000000
  phy
0  -37.687191 -4.209837 30.113321  -0.396480 0.880058 0.261346  0.000000 0.000000 1 0 1.000000
0  -37.095402 -4.540228 30.677673  -0.729919 0.671833 -0.125936  0.000000 0.000000 1 0 1.000000
0  -37.026634 -7.513117 28.805847  -0.844702 0.008868 0.535163  0.000000 0.000000 1 0 1.000000
  phy
0  -41.747864 -2.888336 37.380424  -0.173980 0.304835 -0.936380  0.000000 0.000000 1 0 1.000000
0  -42.573723 -4.994149 36.678425  0.105626 -0.371589 -0.922369  0.000000 0.000000 1 0 1.000000
0  -41.747936 -5.324538 36.361893  -0.291296 -0.428233 -0.855431  0.000000 0.000000 1 0 1.000000
  phy
0  -47.610920 -0.327956 33.250954  0.232639 0.446930 0.863790  0.000000 0.000000 1 0 1.000000
0  -38.237720 -4.443820 29.562737  -0.084849 0.598369 0.796715  0.000000 0.000000 1 0 1.000000
0  -38.733265 -5.558685 28.998390  0.239534 0.266825 0.933503  0.000000 0.000000 1 0 1.000000
end
