version 1
nodes
0 "root" -1
1 "steering_wheel" 0
end
skeleton
time 0
0  0.000000 0.000000 0.000000  0.000000 -0.000000 -0.000000
1  19.916300 17.934299 33.308498  0.000000 -0.000000 0.000000
end
triangles
  phy
0  48.198898 -2.424469 35.981087  -0.846707 -0.130346 -0.515846  0.000000 0.000000 1 0 1.000000
0  47.937531 -3.622203 34.907795  -0.656878 -0.747791 0.096538  0.000000 0.000000 1 0 1.000000
0  48.446777 -2.342259 34.935211  -0.988959 0.144833 -0.031353  0.000000 0.000000 1 0 1.000000
  phy
0  47.730984 -3.759899 35.540764  -0.498680 -0.847112 -0.183629  0.000000 0.000000 1 0 1.000000
0  47.937531 -3.622203 34.907795  -0.656878 -0.747791 0.096538  0.000000 0.000000 1 0 1.000000
0  48.198898 -2.424469 35.981087  -0.846707 -0.130346 -0.515846  0.000000 0.000000 1 0 1.000000
  phy
0  47.235474 -2.782674 36.710670  -0.261162 -0.397906 -0.879468  0.000000 0.000000 1 0 1.000000
0  47.730984 -3.759899 35.540764  -0.498680 -0.847112 -0.183629  0.000000 0.000000 1 0 1.000000
0  48.198898 -2.424469 35.981087  -0.846707 -0.130346 -0.515846  0.000000 0.000000 1 0 1.000000
  phy
0  47.208027 -0.649249 37.040977  -0.422119 0.467892 -0.776461  0.000000 0.000000 1 0 1.000000
0  47.235474 -2.782674 36.710670  -0.261162 -0.397906 -0.879468  0.000000 0.000000 1 0 1.000000
0  48.198898 -2.424469 35.981087  -0.846707 -0.130346 -0.515846  0.000000 0.000000 1 0 1.000000
  phy
0  48.446777 -2.342259 34.935211  -0.988959 0.144833 -0.031353  0.000000 0.000000 1 0 1.000000
0  47.717342 -0.415295 36.283978  -0.895703 0.390364 -0.212913  0.000000 0.000000 1 0 1.000000
0  48.198898 -2.424469 35.981087  -0.846707 -0.130346 -0.515846  0.000000 0.000000 1 0 1.000000
  phy
0  48.198898 -2.424469 35.981087  -0.846707 -0.130346 -0.515846  0.000000 0.000000 1 0 1.000000
0  47.717342 -0.415295 36.283978  -0.895703 0.390364 -0.212913  0.000000 0.000000 1 0 1.000000
0  47.208027 -0.649249 37.040977  -0.422119 0.467892 -0.776461  0.000000 0.000000 1 0 1.000000
  phy
0  39.045593 -7.930084 33.434181  0.353031 -0.629790 -0.691906  0.000000 0.000000 1 0 1.000000
0  39.940430 -8.315597 33.117535  -0.349720 -0.903783 -0.246723  0.000000 0.000000 1 0 1.000000
0  40.518578 -7.035330 34.921017  0.275008 -0.588571 -0.760234  0.000000 0.000000 1 0 1.000000
  phy
0  38.743176 -9.099824 31.782801  -0.396895 -0.903096 -0.163990  0.000000 0.000000 1 0 1.000000
0  39.940430 -8.315597 33.117535  -0.349720 -0.903783 -0.246723  0.000000 0.000000 1 0 1.000000
0  39.045593 -7.930084 33.434181  0.353031 -0.629790 -0.691906  0.000000 0.000000 1 0 1.000000
  phy
0  37.972328 -8.549237 32.236908  0.541331 -0.495207 -0.679508  0.000000 0.000000 1 0 1.000000
0  38.743176 -9.099824 31.782801  -0.396895 -0.903096 -0.163990  0.000000 0.000000 1 0 1.000000
0  39.045593 -7.930084 33.434181  0.353031 -0.629790 -0.691906  0.000000 0.000000 1 0 1.000000
  phy
0  39.045593 -7.930084 33.434181  0.353031 -0.629790 -0.691906  0.000000 0.000000 1 0 1.000000
0  40.037994 -5.933973 35.169823  0.597618 -0.307015 -0.740672  0.000000 0.000000 1 0 1.000000
0  37.972328 -8.549237 32.236908  0.541331 -0.495207 -0.679508  0.000000 0.000000 1 0 1.000000
  phy
0  40.518578 -7.035330 34.921017  0.275008 -0.588571 -0.760234  0.000000 0.000000 1 0 1.000000
0  40.037994 -5.933973 35.169823  0.597618 -0.307015 -0.740672  0.000000 0.000000 1 0 1.000000
0  39.045593 -7.930084 33.434181  0.353031 -0.629790 -0.691906  0.000000 0.000000 1 0 1.000000
  phy
0  48.446777 -2.342259 34.935211  -0.988959 0.144833 -0.031353  0.000000 0.000000 1 0 1.000000
0  47.689957 -0.084958 33.834064  0.204627 0.978838 0.001866  0.000000 0.000000 1 0 1.000000
0  47.717342 -0.415295 36.283978  -0.895703 0.390364 -0.212913  0.000000 0.000000 1 0 1.000000
  phy
0  48.267914 -2.287190 33.957951  -0.935849 -0.043179 0.349745  0.000000 0.000000 1 0 1.000000
0  47.689957 -0.084958 33.834064  0.204627 0.978838 0.001866  0.000000 0.000000 1 0 1.000000
0  48.446777 -2.342259 34.935211  -0.988959 0.144833 -0.031353  0.000000 0.000000 1 0 1.000000
  phy
0  48.446777 -2.342259 34.935211  -0.988959 0.144833 -0.031353  0.000000 0.000000 1 0 1.000000
0  47.937531 -3.622203 34.907795  -0.656878 -0.747791 0.096538  0.000000 0.000000 1 0 1.000000
0  48.267914 -2.287190 33.957951  -0.935849 -0.043179 0.349745  0.000000 0.000000 1 0 1.000000
  phy
0  47.208027 -0.649249 37.040977  -0.422119 0.467892 -0.776461  0.000000 0.000000 1 0 1.000000
0  47.717342 -0.415295 36.283978  -0.895703 0.390364 -0.212913  0.000000 0.000000 1 0 1.000000
0  47.689957 -0.084958 33.834064  0.204627 0.978838 0.001866  0.000000 0.000000 1 0 1.000000
  phy
0  46.490330 -0.958975 37.322365  0.329419 0.865601 -0.377119  0.000000 0.000000 1 0 1.000000
0  47.208027 -0.649249 37.040977  -0.422119 0.467892 -0.776461  0.000000 0.000000 1 0 1.000000
0  47.689957 -0.084958 33.834064  0.204627 0.978838 0.001866  0.000000 0.000000 1 0 1.000000
  phy
0  47.208027 -0.649249 37.040977  -0.422119 0.467892 -0.776461  0.000000 0.000000 1 0 1.000000
0  46.490330 -0.958975 37.322365  0.329419 0.865601 -0.377119  0.000000 0.000000 1 0 1.000000
0  47.235474 -2.782674 36.710670  -0.261162 -0.397906 -0.879468  0.000000 0.000000 1 0 1.000000
  phy
0  37.972328 -8.549237 32.236908  0.541331 -0.495207 -0.679508  0.000000 0.000000 1 0 1.000000
0  37.339252 -9.966885 30.131048  0.483066 -0.875582 -0.001852  0.000000 0.000000 1 0 1.000000
0  38.743176 -9.099824 31.782801  -0.396895 -0.903096 -0.163990  0.000000 0.000000 1 0 1.000000
  phy
0  36.829964 -9.127275 30.681520  0.907786 -0.260418 -0.328796  0.000000 0.000000 1 0 1.000000
0  37.339252 -9.966885 30.131048  0.483066 -0.875582 -0.001852  0.000000 0.000000 1 0 1.000000
0  37.972328 -8.549237 32.236908  0.541331 -0.495207 -0.679508  0.000000 0.000000 1 0 1.000000
  phy
0  37.972328 -8.549237 32.236908  0.541331 -0.495207 -0.679508  0.000000 0.000000 1 0 1.000000
0  38.550453 -6.622344 33.544529  0.742086 -0.151087 -0.653056  0.000000 0.000000 1 0 1.000000
0  36.829964 -9.127275 30.681520  0.907786 -0.260418 -0.328796  0.000000 0.000000 1 0 1.000000
  phy
0  37.972328 -8.549237 32.236908  0.541331 -0.495207 -0.679508  0.000000 0.000000 1 0 1.000000
0  40.037994 -5.933973 35.169823  0.597618 -0.307015 -0.740672  0.000000 0.000000 1 0 1.000000
0  38.550453 -6.622344 33.544529  0.742086 -0.151087 -0.653056  0.000000 0.000000 1 0 1.000000
  phy
0  41.151615 -3.195425 37.081738  0.709558 0.418820 -0.566673  0.000000 0.000000 1 0 1.000000
0  37.091732 -4.543916 30.681574  0.729844 0.671884 -0.126093  0.000000 0.000000 1 0 1.000000
0  38.440460 -4.764187 33.530792  0.835128 0.143649 -0.530968  0.000000 0.000000 1 0 1.000000
  phy
0  41.151615 -3.195425 37.081738  0.709558 0.418820 -0.566673  0.000000 0.000000 1 0 1.000000
0  38.440460 -4.764187 33.530792  0.835128 0.143649 -0.530968  0.000000 0.000000 1 0 1.000000
0  40.788036 -3.452922 36.656582  0.748977 -0.106486 -0.653983  0.000000 0.000000 1 0 1.000000
  phy
0  40.788036 -3.452922 36.656582  0.748977 -0.106486 -0.653983  0.000000 0.000000 1 0 1.000000
0  38.440460 -4.764187 33.530792  0.835128 0.143649 -0.530968  0.000000 0.000000 1 0 1.000000
0  38.550453 -6.622344 33.544529  0.742086 -0.151087 -0.653056  0.000000 0.000000 1 0 1.000000
  phy
0  38.550453 -6.622344 33.544529  0.742086 -0.151087 -0.653056  0.000000 0.000000 1 0 1.000000
0  38.440460 -4.764187 33.530792  0.835128 0.143649 -0.530968  0.000000 0.000000 1 0 1.000000
0  37.765949 -6.883808 32.512192  0.801556 -0.090085 -0.591094  0.000000 0.000000 1 0 1.000000
  phy
0  38.550453 -6.622344 33.544529  0.742086 -0.151087 -0.653056  0.000000 0.000000 1 0 1.000000
0  40.037994 -5.933973 35.169823  0.597618 -0.307015 -0.740672  0.000000 0.000000 1 0 1.000000
0  40.788036 -3.452922 36.656582  0.748977 -0.106486 -0.653983  0.000000 0.000000 1 0 1.000000
  phy
0  40.037994 -5.933973 35.169823  0.597618 -0.307015 -0.740672  0.000000 0.000000 1 0 1.000000
0  41.151615 -3.195425 37.081738  0.709558 0.418820 -0.566673  0.000000 0.000000 1 0 1.000000
0  40.788036 -3.452922 36.656582  0.748977 -0.106486 -0.653983  0.000000 0.000000 1 0 1.000000
  phy
0  41.151615 -3.195425 37.081738  0.709558 0.418820 -0.566673  0.000000 0.000000 1 0 1.000000
0  40.037994 -5.933973 35.169823  0.597618 -0.307015 -0.740672  0.000000 0.000000 1 0 1.000000
0  40.518578 -7.035330 34.921017  0.275008 -0.588571 -0.760234  0.000000 0.000000 1 0 1.000000
  phy
0  40.518578 -7.035330 34.921017  0.275008 -0.588571 -0.760234  0.000000 0.000000 1 0 1.000000
0  41.743542 -5.328690 36.366272  0.291176 -0.428258 -0.855460  0.000000 0.000000 1 0 1.000000
0  41.151615 -3.195425 37.081738  0.709558 0.418820 -0.566673  0.000000 0.000000 1 0 1.000000
  phy
0  41.743542 -5.328690 36.366272  0.291176 -0.428258 -0.855460  0.000000 0.000000 1 0 1.000000
0  41.743637 -2.892484 37.384800  0.173809 0.304948 -0.936374  0.000000 0.000000 1 0 1.000000
0  41.151615 -3.195425 37.081738  0.709558 0.418820 -0.566673  0.000000 0.000000 1 0 1.000000
  phy
0  40.738865 -2.906250 34.246204  0.407686 0.907832 -0.098153  0.000000 0.000000 1 0 1.000000
0  41.151615 -3.195425 37.081738  0.709558 0.418820 -0.566673  0.000000 0.000000 1 0 1.000000
0  41.743637 -2.892484 37.384800  0.173809 0.304948 -0.936374  0.000000 0.000000 1 0 1.000000
  phy
0  41.151615 -3.195425 37.081738  0.709558 0.418820 -0.566673  0.000000 0.000000 1 0 1.000000
0  40.738865 -2.906250 34.246204  0.407686 0.907832 -0.098153  0.000000 0.000000 1 0 1.000000
0  37.091732 -4.543916 30.681574  0.729844 0.671884 -0.126093  0.000000 0.000000 1 0 1.000000
  phy
0  42.803394 -5.714046 36.146103  -0.236478 -0.566533 -0.789379  0.000000 0.000000 1 0 1.000000
0  41.991341 -6.140744 35.870865  0.035033 -0.647951 -0.760876  0.000000 0.000000 1 0 1.000000
0  42.954834 -6.237215 35.678165  -0.340428 -0.692664 -0.635866  0.000000 0.000000 1 0 1.000000
  phy
0  42.803394 -5.714046 36.146103  -0.236478 -0.566533 -0.789379  0.000000 0.000000 1 0 1.000000
0  42.569435 -4.998377 36.682884  -0.105715 -0.371695 -0.922316  0.000000 0.000000 1 0 1.000000
0  41.991341 -6.140744 35.870865  0.035033 -0.647951 -0.760876  0.000000 0.000000 1 0 1.000000
  phy
0  42.954834 -6.237215 35.678165  -0.340428 -0.692664 -0.635866  0.000000 0.000000 1 0 1.000000
0  47.235474 -2.782674 36.710670  -0.261162 -0.397906 -0.879468  0.000000 0.000000 1 0 1.000000
0  42.803394 -5.714046 36.146103  -0.236478 -0.566533 -0.789379  0.000000 0.000000 1 0 1.000000
  phy
0  47.235474 -2.782674 36.710670  -0.261162 -0.397906 -0.879468  0.000000 0.000000 1 0 1.000000
0  42.569435 -4.998377 36.682884  -0.105715 -0.371695 -0.922316  0.000000 0.000000 1 0 1.000000
0  42.803394 -5.714046 36.146103  -0.236478 -0.566533 -0.789379  0.000000 0.000000 1 0 1.000000
  phy
0  41.509899 -2.520846 32.347099  0.356043 0.931349 0.076304  0.000000 0.000000 1 0 1.000000
0  40.876740 -2.782398 32.691967  0.390315 0.920244 -0.028377  0.000000 0.000000 1 0 1.000000
0  47.689957 -0.084958 33.834064  0.204627 0.978838 0.001866  0.000000 0.000000 1 0 1.000000
  phy
0  40.876740 -2.782398 32.691967  0.390315 0.920244 -0.028377  0.000000 0.000000 1 0 1.000000
0  40.738865 -2.906250 34.246204  0.407686 0.907832 -0.098153  0.000000 0.000000 1 0 1.000000
0  47.689957 -0.084958 33.834064  0.204627 0.978838 0.001866  0.000000 0.000000 1 0 1.000000
  phy
0  40.876740 -2.782398 32.691967  0.390315 0.920244 -0.028377  0.000000 0.000000 1 0 1.000000
0  41.509899 -2.520846 32.347099  0.356043 0.931349 0.076304  0.000000 0.000000 1 0 1.000000
0  37.683418 -4.213698 30.117594  0.384975 0.880325 0.277168  0.000000 0.000000 1 0 1.000000
  phy
0  40.876740 -2.782398 32.691967  0.390315 0.920244 -0.028377  0.000000 0.000000 1 0 1.000000
0  37.683418 -4.213698 30.117594  0.384975 0.880325 0.277168  0.000000 0.000000 1 0 1.000000
0  40.738865 -2.906250 34.246204  0.407686 0.907832 -0.098153  0.000000 0.000000 1 0 1.000000
  phy
0  41.991341 -6.140744 35.870865  0.035033 -0.647951 -0.760876  0.000000 0.000000 1 0 1.000000
0  41.743542 -5.328690 36.366272  0.291176 -0.428258 -0.855460  0.000000 0.000000 1 0 1.000000
0  40.518578 -7.035330 34.921017  0.275008 -0.588571 -0.760234  0.000000 0.000000 1 0 1.000000
  phy
0  40.518578 -7.035330 34.921017  0.275008 -0.588571 -0.760234  0.000000 0.000000 1 0 1.000000
0  42.183975 -6.842751 35.086277  -0.356410 -0.883547 -0.303836  0.000000 0.000000 1 0 1.000000
0  41.991341 -6.140744 35.870865  0.035033 -0.647951 -0.760876  0.000000 0.000000 1 0 1.000000
  phy
0  39.940430 -8.315597 33.117535  -0.349720 -0.903783 -0.246723  0.000000 0.000000 1 0 1.000000
0  42.183975 -6.842751 35.086277  -0.356410 -0.883547 -0.303836  0.000000 0.000000 1 0 1.000000
0  40.518578 -7.035330 34.921017  0.275008 -0.588571 -0.760234  0.000000 0.000000 1 0 1.000000
  phy
0  36.829964 -9.127275 30.681520  0.907786 -0.260418 -0.328796  0.000000 0.000000 1 0 1.000000
0  38.550453 -6.622344 33.544529  0.742086 -0.151087 -0.653056  0.000000 0.000000 1 0 1.000000
0  37.765949 -6.883808 32.512192  0.801556 -0.090085 -0.591094  0.000000 0.000000 1 0 1.000000
  phy
0  36.692425 -7.337967 30.915527  0.954645 -0.004934 -0.297704  0.000000 0.000000 1 0 1.000000
0  36.816387 -5.479865 30.901775  0.967424 0.155021 -0.200148  0.000000 0.000000 1 0 1.000000
0  37.022869 -7.516790 28.809750  0.844725 0.008930 0.535126  0.000000 0.000000 1 0 1.000000
  phy
0  37.022869 -7.516790 28.809750  0.844725 0.008930 0.535126  0.000000 0.000000 1 0 1.000000
0  36.816387 -5.479865 30.901775  0.967424 0.155021 -0.200148  0.000000 0.000000 1 0 1.000000
0  37.091732 -4.543916 30.681574  0.729844 0.671884 -0.126093  0.000000 0.000000 1 0 1.000000
  phy
0  38.440460 -4.764187 33.530792  0.835128 0.143649 -0.530968  0.000000 0.000000 1 0 1.000000
0  36.816387 -5.479865 30.901775  0.967424 0.155021 -0.200148  0.000000 0.000000 1 0 1.000000
0  36.692425 -7.337967 30.915527  0.954645 -0.004934 -0.297704  0.000000 0.000000 1 0 1.000000
  phy
0  36.816387 -5.479865 30.901775  0.967424 0.155021 -0.200148  0.000000 0.000000 1 0 1.000000
0  38.440460 -4.764187 33.530792  0.835128 0.143649 -0.530968  0.000000 0.000000 1 0 1.000000
0  37.091732 -4.543916 30.681574  0.729844 0.671884 -0.126093  0.000000 0.000000 1 0 1.000000
  phy
0  36.692425 -7.337967 30.915527  0.954645 -0.004934 -0.297704  0.000000 0.000000 1 0 1.000000
0  36.829964 -9.127275 30.681520  0.907786 -0.260418 -0.328796  0.000000 0.000000 1 0 1.000000
0  37.765949 -6.883808 32.512192  0.801556 -0.090085 -0.591094  0.000000 0.000000 1 0 1.000000
  phy
0  36.829964 -9.127275 30.681520  0.907786 -0.260418 -0.328796  0.000000 0.000000 1 0 1.000000
0  36.692425 -7.337967 30.915527  0.954645 -0.004934 -0.297704  0.000000 0.000000 1 0 1.000000
0  37.022869 -7.516790 28.809750  0.844725 0.008930 0.535126  0.000000 0.000000 1 0 1.000000
  phy
0  36.829964 -9.127275 30.681520  0.907786 -0.260418 -0.328796  0.000000 0.000000 1 0 1.000000
0  37.022869 -7.516790 28.809750  0.844725 0.008930 0.535126  0.000000 0.000000 1 0 1.000000
0  37.339252 -9.966885 30.131048  0.483066 -0.875582 -0.001852  0.000000 0.000000 1 0 1.000000
  phy
0  41.991341 -6.140744 35.870865  0.035033 -0.647951 -0.760876  0.000000 0.000000 1 0 1.000000
0  42.183975 -6.842751 35.086277  -0.356410 -0.883547 -0.303836  0.000000 0.000000 1 0 1.000000
0  42.954834 -6.237215 35.678165  -0.340428 -0.692664 -0.635866  0.000000 0.000000 1 0 1.000000
  phy
0  42.954834 -6.237215 35.678165  -0.340428 -0.692664 -0.635866  0.000000 0.000000 1 0 1.000000
0  42.183975 -6.842751 35.086277  -0.356410 -0.883547 -0.303836  0.000000 0.000000 1 0 1.000000
0  47.730984 -3.759899 35.540764  -0.498680 -0.847112 -0.183629  0.000000 0.000000 1 0 1.000000
  phy
0  42.954834 -6.237215 35.678165  -0.340428 -0.692664 -0.635866  0.000000 0.000000 1 0 1.000000
0  47.730984 -3.759899 35.540764  -0.498680 -0.847112 -0.183629  0.000000 0.000000 1 0 1.000000
0  47.235474 -2.782674 36.710670  -0.261162 -0.397906 -0.879468  0.000000 0.000000 1 0 1.000000
  phy
0  38.743176 -9.099824 31.782801  -0.396895 -0.903096 -0.163990  0.000000 0.000000 1 0 1.000000
0  37.339252 -9.966885 30.131048  0.483066 -0.875582 -0.001852  0.000000 0.000000 1 0 1.000000
0  38.082428 -9.664180 29.401672  -0.492987 -0.861376 0.122457  0.000000 0.000000 1 0 1.000000
  phy
0  38.743176 -9.099824 31.782801  -0.396895 -0.903096 -0.163990  0.000000 0.000000 1 0 1.000000
0  47.730984 -3.759899 35.540764  -0.498680 -0.847112 -0.183629  0.000000 0.000000 1 0 1.000000
0  39.940430 -8.315597 33.117535  -0.349720 -0.903783 -0.246723  0.000000 0.000000 1 0 1.000000
  phy
0  38.082428 -9.664180 29.401672  -0.492987 -0.861376 0.122457  0.000000 0.000000 1 0 1.000000
0  47.730984 -3.759899 35.540764  -0.498680 -0.847112 -0.183629  0.000000 0.000000 1 0 1.000000
0  38.743176 -9.099824 31.782801  -0.396895 -0.903096 -0.163990  0.000000 0.000000 1 0 1.000000
  phy
0  47.772346 -3.498394 33.902855  -0.648292 -0.614361 0.449753  0.000000 0.000000 1 0 1.000000
0  47.703636 -2.452341 33.311024  -0.527465 -0.137425 0.838388  0.000000 0.000000 1 0 1.000000
0  48.267914 -2.287190 33.957951  -0.935849 -0.043179 0.349745  0.000000 0.000000 1 0 1.000000
  phy
0  48.267914 -2.287190 33.957951  -0.935849 -0.043179 0.349745  0.000000 0.000000 1 0 1.000000
0  47.937531 -3.622203 34.907795  -0.656878 -0.747791 0.096538  0.000000 0.000000 1 0 1.000000
0  47.772346 -3.498394 33.902855  -0.648292 -0.614361 0.449753  0.000000 0.000000 1 0 1.000000
  phy
0  47.703636 -2.452341 33.311024  -0.527465 -0.137425 0.838388  0.000000 0.000000 1 0 1.000000
0  47.607391 -0.332740 33.255966  -0.290934 0.339758 0.894383  0.000000 0.000000 1 0 1.000000
0  48.267914 -2.287190 33.957951  -0.935849 -0.043179 0.349745  0.000000 0.000000 1 0 1.000000
  phy
0  47.607391 -0.332740 33.255966  -0.290934 0.339758 0.894383  0.000000 0.000000 1 0 1.000000
0  47.689957 -0.084958 33.834064  0.204627 0.978838 0.001866  0.000000 0.000000 1 0 1.000000
0  48.267914 -2.287190 33.957951  -0.935849 -0.043179 0.349745  0.000000 0.000000 1 0 1.000000
  phy
0  38.082428 -9.664180 29.401672  -0.492987 -0.861376 0.122457  0.000000 0.000000 1 0 1.000000
0  38.550583 -9.113585 28.961199  -0.524813 -0.364772 0.769099  0.000000 0.000000 1 0 1.000000
0  47.772346 -3.498394 33.902855  -0.648292 -0.614361 0.449753  0.000000 0.000000 1 0 1.000000
  phy
0  47.772346 -3.498394 33.902855  -0.648292 -0.614361 0.449753  0.000000 0.000000 1 0 1.000000
0  47.937531 -3.622203 34.907795  -0.656878 -0.747791 0.096538  0.000000 0.000000 1 0 1.000000
0  38.082428 -9.664180 29.401672  -0.492987 -0.861376 0.122457  0.000000 0.000000 1 0 1.000000
  phy
0  47.703636 -2.452341 33.311024  -0.527465 -0.137425 0.838388  0.000000 0.000000 1 0 1.000000
0  47.772346 -3.498394 33.902855  -0.648292 -0.614361 0.449753  0.000000 0.000000 1 0 1.000000
0  38.550583 -9.113585 28.961199  -0.524813 -0.364772 0.769099  0.000000 0.000000 1 0 1.000000
  phy
0  47.703636 -2.452341 33.311024  -0.527465 -0.137425 0.838388  0.000000 0.000000 1 0 1.000000
0  38.770748 -7.434517 28.850943  -0.424453 -0.008146 0.905413  0.000000 0.000000 1 0 1.000000
0  47.607391 -0.332740 33.255966  -0.290934 0.339758 0.894383  0.000000 0.000000 1 0 1.000000
  phy
0  47.607391 -0.332740 33.255966  -0.290934 0.339758 0.894383  0.000000 0.000000 1 0 1.000000
0  38.770748 -7.434517 28.850943  -0.424453 -0.008146 0.905413  0.000000 0.000000 1 0 1.000000
0  38.729671 -5.562537 29.002468  -0.239602 0.266704 0.933520  0.000000 0.000000 1 0 1.000000
  phy
0  38.770748 -7.434517 28.850943  -0.424453 -0.008146 0.905413  0.000000 0.000000 1 0 1.000000
0  47.703636 -2.452341 33.311024  -0.527465 -0.137425 0.838388  0.000000 0.000000 1 0 1.000000
0  38.550583 -9.113585 28.961199  -0.524813 -0.364772 0.769099  0.000000 0.000000 1 0 1.000000
  phy
0  37.449562 -7.393059 28.630774  0.081347 0.122604 0.989116  0.000000 0.000000 1 0 1.000000
0  38.770748 -7.434517 28.850943  -0.424453 -0.008146 0.905413  0.000000 0.000000 1 0 1.000000
0  38.550583 -9.113585 28.961199  -0.524813 -0.364772 0.769099  0.000000 0.000000 1 0 1.000000
  phy
0  38.770748 -7.434517 28.850943  -0.424453 -0.008146 0.905413  0.000000 0.000000 1 0 1.000000
0  37.449562 -7.393059 28.630774  0.081347 0.122604 0.989116  0.000000 0.000000 1 0 1.000000
0  38.729671 -5.562537 29.002468  -0.239602 0.266704 0.933520  0.000000 0.000000 1 0 1.000000
  phy
0  37.683418 -4.213698 30.117594  0.384975 0.880325 0.277168  0.000000 0.000000 1 0 1.000000
0  41.509899 -2.520846 32.347099  0.356043 0.931349 0.076304  0.000000 0.000000 1 0 1.000000
0  47.689957 -0.084958 33.834064  0.204627 0.978838 0.001866  0.000000 0.000000 1 0 1.000000
  phy
0  38.440460 -4.764187 33.530792  0.835128 0.143649 -0.530968  0.000000 0.000000 1 0 1.000000
0  36.692425 -7.337967 30.915527  0.954645 -0.004934 -0.297704  0.000000 0.000000 1 0 1.000000
0  37.765949 -6.883808 32.512192  0.801556 -0.090085 -0.591094  0.000000 0.000000 1 0 1.000000
  phy
0  41.991341 -6.140744 35.870865  0.035033 -0.647951 -0.760876  0.000000 0.000000 1 0 1.000000
0  42.569435 -4.998377 36.682884  -0.105715 -0.371695 -0.922316  0.000000 0.000000 1 0 1.000000
0  41.743542 -5.328690 36.366272  0.291176 -0.428258 -0.855460  0.000000 0.000000 1 0 1.000000
  phy
0  47.730984 -3.759899 35.540764  -0.498680 -0.847112 -0.183629  0.000000 0.000000 1 0 1.000000
0  42.183975 -6.842751 35.086277  -0.356410 -0.883547 -0.303836  0.000000 0.000000 1 0 1.000000
0  39.940430 -8.315597 33.117535  -0.349720 -0.903783 -0.246723  0.000000 0.000000 1 0 1.000000
  phy
0  47.235474 -2.782674 36.710670  -0.261162 -0.397906 -0.879468  0.000000 0.000000 1 0 1.000000
0  41.743637 -2.892484 37.384800  0.173809 0.304948 -0.936374  0.000000 0.000000 1 0 1.000000
0  42.569435 -4.998377 36.682884  -0.105715 -0.371695 -0.922316  0.000000 0.000000 1 0 1.000000
  phy
0  47.235474 -2.782674 36.710670  -0.261162 -0.397906 -0.879468  0.000000 0.000000 1 0 1.000000
0  46.490330 -0.958975 37.322365  0.329419 0.865601 -0.377119  0.000000 0.000000 1 0 1.000000
0  41.743637 -2.892484 37.384800  0.173809 0.304948 -0.936374  0.000000 0.000000 1 0 1.000000
  phy
0  37.449562 -7.393059 28.630774  0.081347 0.122604 0.989116  0.000000 0.000000 1 0 1.000000
0  37.022869 -7.516790 28.809750  0.844725 0.008930 0.535126  0.000000 0.000000 1 0 1.000000
0  38.234207 -4.447628 29.566753  0.085000 0.598568 0.796549  0.000000 0.000000 1 0 1.000000
  phy
0  37.449562 -7.393059 28.630774  0.081347 0.122604 0.989116  0.000000 0.000000 1 0 1.000000
0  38.234207 -4.447628 29.566753  0.085000 0.598568 0.796549  0.000000 0.000000 1 0 1.000000
0  38.729671 -5.562537 29.002468  -0.239602 0.266704 0.933520  0.000000 0.000000 1 0 1.000000
  phy
0  37.449562 -7.393059 28.630774  0.081347 0.122604 0.989116  0.000000 0.000000 1 0 1.000000
0  38.550583 -9.113585 28.961199  -0.524813 -0.364772 0.769099  0.000000 0.000000 1 0 1.000000
0  37.022869 -7.516790 28.809750  0.844725 0.008930 0.535126  0.000000 0.000000 1 0 1.000000
  phy
0  38.550583 -9.113585 28.961199  -0.524813 -0.364772 0.769099  0.000000 0.000000 1 0 1.000000
0  38.082428 -9.664180 29.401672  -0.492987 -0.861376 0.122457  0.000000 0.000000 1 0 1.000000
0  37.022869 -7.516790 28.809750  0.844725 0.008930 0.535126  0.000000 0.000000 1 0 1.000000
  phy
0  37.022869 -7.516790 28.809750  0.844725 0.008930 0.535126  0.000000 0.000000 1 0 1.000000
0  38.082428 -9.664180 29.401672  -0.492987 -0.861376 0.122457  0.000000 0.000000 1 0 1.000000
0  37.339252 -9.966885 30.131048  0.483066 -0.875582 -0.001852  0.000000 0.000000 1 0 1.000000
  phy
0  38.082428 -9.664180 29.401672  -0.492987 -0.861376 0.122457  0.000000 0.000000 1 0 1.000000
0  47.937531 -3.622203 34.907795  -0.656878 -0.747791 0.096538  0.000000 0.000000 1 0 1.000000
0  47.730984 -3.759899 35.540764  -0.498680 -0.847112 -0.183629  0.000000 0.000000 1 0 1.000000
  phy
0  37.683418 -4.213698 30.117594  0.384975 0.880325 0.277168  0.000000 0.000000 1 0 1.000000
0  47.607391 -0.332740 33.255966  -0.290934 0.339758 0.894383  0.000000 0.000000 1 0 1.000000
0  38.234207 -4.447628 29.566753  0.085000 0.598568 0.796549  0.000000 0.000000 1 0 1.000000
  phy
0  47.607391 -0.332740 33.255966  -0.290934 0.339758 0.894383  0.000000 0.000000 1 0 1.000000
0  37.683418 -4.213698 30.117594  0.384975 0.880325 0.277168  0.000000 0.000000 1 0 1.000000
0  47.689957 -0.084958 33.834064  0.204627 0.978838 0.001866  0.000000 0.000000 1 0 1.000000
  phy
0  40.738865 -2.906250 34.246204  0.407686 0.907832 -0.098153  0.000000 0.000000 1 0 1.000000
0  37.683418 -4.213698 30.117594  0.384975 0.880325 0.277168  0.000000 0.000000 1 0 1.000000
0  37.091732 -4.543916 30.681574  0.729844 0.671884 -0.126093  0.000000 0.000000 1 0 1.000000
  phy
0  37.022869 -7.516790 28.809750  0.844725 0.008930 0.535126  0.000000 0.000000 1 0 1.000000
0  37.683418 -4.213698 30.117594  0.384975 0.880325 0.277168  0.000000 0.000000 1 0 1.000000
0  38.234207 -4.447628 29.566753  0.085000 0.598568 0.796549  0.000000 0.000000 1 0 1.000000
  phy
0  37.683418 -4.213698 30.117594  0.384975 0.880325 0.277168  0.000000 0.000000 1 0 1.000000
0  37.022869 -7.516790 28.809750  0.844725 0.008930 0.535126  0.000000 0.000000 1 0 1.000000
0  37.091732 -4.543916 30.681574  0.729844 0.671884 -0.126093  0.000000 0.000000 1 0 1.000000
  phy
0  41.743542 -5.328690 36.366272  0.291176 -0.428258 -0.855460  0.000000 0.000000 1 0 1.000000
0  42.569435 -4.998377 36.682884  -0.105715 -0.371695 -0.922316  0.000000 0.000000 1 0 1.000000
0  41.743637 -2.892484 37.384800  0.173809 0.304948 -0.936374  0.000000 0.000000 1 0 1.000000
  phy
0  46.490330 -0.958975 37.322365  0.329419 0.865601 -0.377119  0.000000 0.000000 1 0 1.000000
0  40.738865 -2.906250 34.246204  0.407686 0.907832 -0.098153  0.000000 0.000000 1 0 1.000000
0  41.743637 -2.892484 37.384800  0.173809 0.304948 -0.936374  0.000000 0.000000 1 0 1.000000
  phy
0  40.738865 -2.906250 34.246204  0.407686 0.907832 -0.098153  0.000000 0.000000 1 0 1.000000
0  46.490330 -0.958975 37.322365  0.329419 0.865601 -0.377119  0.000000 0.000000 1 0 1.000000
0  47.689957 -0.084958 33.834064  0.204627 0.978838 0.001866  0.000000 0.000000 1 0 1.000000
  phy
0  38.234207 -4.447628 29.566753  0.085000 0.598568 0.796549  0.000000 0.000000 1 0 1.000000
0  47.607391 -0.332740 33.255966  -0.290934 0.339758 0.894383  0.000000 0.000000 1 0 1.000000
0  38.729671 -5.562537 29.002468  -0.239602 0.266704 0.933520  0.000000 0.000000 1 0 1.000000
end
