version 1
nodes
0 "root" -1
1 "steering_wheel" 0
end
skeleton
time 0
0  0.000000 0.000000 0.000000  0.000000 -0.000000 -0.000000
1  19.916300 17.934299 33.308498  0.000000 -0.000000 0.000000
end
triangles
policemisc
0  13.171446 15.034746 52.601704  0.001117 -0.999998 -0.001569  0.724854 0.184204 1 0 1.000000
0  17.196587 15.038320 53.190025  0.001100 -0.999998 -0.001453  0.520493 0.215546 1 0 1.000000
0  13.169998 15.033812 53.191975  0.001119 -0.999998 -0.001583  0.724854 0.215546 1 0 1.000000
policemisc
0  17.198374 15.039167 52.603165  -0.000099 -0.930378 0.366602  0.520493 0.184204 1 0 1.000000
0  17.196587 15.038320 53.190025  0.001100 -0.999998 -0.001453  0.520493 0.215546 1 0 1.000000
0  13.171446 15.034746 52.601704  0.001117 -0.999998 -0.001569  0.724854 0.184204 1 0 1.000000
policemisc
0  -21.513115 17.345858 53.230618  -0.553646 -0.832672 -0.011527  0.520493 0.215546 1 0 1.000000
0  -21.514084 17.354624 52.643845  -0.534146 -0.806844 0.252372  0.520493 0.184204 1 0 1.000000
0  -18.348793 15.242352 53.195751  -0.553629 -0.832681 -0.011690  0.724854 0.215546 1 0 1.000000
policemisc
0  -18.349472 15.251103 52.605572  -0.553627 -0.832682 -0.011708  0.724854 0.184204 1 0 1.000000
0  -18.348793 15.242352 53.195751  -0.553629 -0.832681 -0.011690  0.724854 0.215546 1 0 1.000000
0  -21.514084 17.354624 52.643845  -0.534146 -0.806844 0.252372  0.520493 0.184204 1 0 1.000000
policemisc
0  21.659679 17.345869 53.230618  0.553647 -0.832672 -0.011520  0.520493 0.215546 1 0 1.000000
0  18.495363 15.242361 53.195751  0.553629 -0.832681 -0.011699  0.724854 0.215546 1 0 1.000000
0  21.660654 17.354635 52.643845  0.533639 -0.807179 0.252372  0.520493 0.184204 1 0 1.000000
policemisc
0  18.496044 15.251115 52.605572  0.553628 -0.832682 -0.011718  0.724854 0.184204 1 0 1.000000
0  21.660654 17.354635 52.643845  0.533639 -0.807179 0.252372  0.520493 0.184204 1 0 1.000000
0  18.495363 15.242361 53.195751  0.553629 -0.832681 -0.011699  0.724854 0.215546 1 0 1.000000
policemisc
0  17.894838 21.674150 53.316750  0.001121 0.999677 0.025394  0.724854 0.215546 1 0 1.000000
0  21.921436 21.669691 53.314613  0.001114 0.999676 0.025449  0.520493 0.215546 1 0 1.000000
0  17.896292 21.689138 52.726738  0.001120 0.999677 0.025399  0.724854 0.184204 1 0 1.000000
policemisc
0  21.923225 21.684624 52.728001  0.000709 0.920369 0.391051  0.520493 0.184204 1 0 1.000000
0  17.896292 21.689138 52.726738  0.001120 0.999677 0.025399  0.724854 0.184204 1 0 1.000000
0  21.921436 21.669691 53.314613  0.001114 0.999676 0.025449  0.520493 0.215546 1 0 1.000000
policemisc
0  12.224986 21.674145 53.316750  0.001119 0.999677 0.025407  0.724854 0.215546 1 0 1.000000
0  16.251583 21.669691 53.314613  0.001112 0.999676 0.025444  0.520493 0.215546 1 0 1.000000
0  12.226487 21.689135 52.726738  0.001119 0.999676 0.025410  0.724854 0.184204 1 0 1.000000
policemisc
0  16.253422 21.684624 52.728001  0.000730 0.920371 0.391046  0.520493 0.184204 1 0 1.000000
0  12.226487 21.689135 52.726738  0.001119 0.999676 0.025410  0.724854 0.184204 1 0 1.000000
0  16.251583 21.669691 53.314613  0.001112 0.999676 0.025444  0.520493 0.215546 1 0 1.000000
policemisc
0  -12.078421 21.674141 53.316750  -0.001122 0.999677 0.025407  0.724854 0.215546 1 0 1.000000
0  -12.079873 21.689131 52.726738  -0.001121 0.999677 0.025411  0.724854 0.184204 1 0 1.000000
0  -16.105011 21.669678 53.314613  -0.001115 0.999676 0.025444  0.520493 0.215546 1 0 1.000000
policemisc
0  -16.105011 21.669678 53.314613  -0.001115 0.999676 0.025444  0.520493 0.215546 1 0 1.000000
0  -12.079873 21.689131 52.726738  -0.001121 0.999677 0.025411  0.724854 0.184204 1 0 1.000000
0  -16.106804 21.684612 52.727993  0.000087 0.920372 0.391044  0.520493 0.184204 1 0 1.000000
policemisc
0  -17.748280 21.674139 53.316750  -0.001121 0.999677 0.025407  0.724854 0.215546 1 0 1.000000
0  -17.749733 21.689131 52.726738  -0.001121 0.999677 0.025410  0.724854 0.184204 1 0 1.000000
0  -21.774872 21.669678 53.314613  -0.001115 0.999676 0.025444  0.520493 0.215546 1 0 1.000000
policemisc
0  -21.774872 21.669678 53.314613  -0.001115 0.999676 0.025444  0.520493 0.215546 1 0 1.000000
0  -17.749733 21.689131 52.726738  -0.001121 0.999677 0.025410  0.724854 0.184204 1 0 1.000000
0  -21.776661 21.684608 52.727993  0.000084 0.920372 0.391043  0.520493 0.184204 1 0 1.000000
policemisc
0  -13.024868 15.034736 52.601704  -0.001117 -0.999998 -0.001566  0.724854 0.184204 1 0 1.000000
0  -13.023367 15.033802 53.191975  -0.001119 -0.999998 -0.001579  0.724854 0.215546 1 0 1.000000
0  -17.050007 15.038309 53.190025  -0.001100 -0.999998 -0.001453  0.520493 0.215546 1 0 1.000000
policemisc
0  -17.050007 15.038309 53.190025  -0.001100 -0.999998 -0.001453  0.520493 0.215546 1 0 1.000000
0  -17.051798 15.039157 52.603165  -0.000694 -0.930377 0.366603  0.520493 0.184204 1 0 1.000000
0  -13.024868 15.034736 52.601704  -0.001117 -0.999998 -0.001566  0.724854 0.184204 1 0 1.000000
end
