version 1
nodes
0 "root" -1
1 "steering_wheel" 0
end
skeleton
time 0
0  0.000000 0.000000 0.000000  0.000000 -0.000000 -0.000000
1  19.916300 17.934299 33.308498  0.000000 -0.000000 0.000000
end
triangles
  phy
0  -5.315634 0.000325 -14.492779  -0.066140 0.000072 0.997810  0.000000 0.000000 1 0 1.000000
0  -5.315883 -4.473554 -13.784177  -0.169558 0.254629 0.952058  0.000000 0.000000 1 0 1.000000
0  -5.315286 4.474177 -13.784177  -0.621837 -0.202480 0.756519  0.000000 0.000000 1 0 1.000000
  phy
0  -5.315286 4.474177 -13.784177  -0.621837 -0.202480 0.756519  0.000000 0.000000 1 0 1.000000
0  -5.315883 -4.473554 -13.784177  -0.169558 0.254629 0.952058  0.000000 0.000000 1 0 1.000000
0  -5.316009 -8.509488 -11.727801  -0.268570 0.566284 0.779225  0.000000 0.000000 1 0 1.000000
  phy
0  -5.315286 4.474177 -13.784177  -0.621837 -0.202480 0.756519  0.000000 0.000000 1 0 1.000000
0  -5.316009 -8.509488 -11.727801  -0.268570 0.566284 0.779225  0.000000 0.000000 1 0 1.000000
0  -5.315996 -11.712408 -8.524883  -0.932116 0.303866 0.197041  0.000000 0.000000 1 0 1.000000
  phy
0  -5.315286 4.474177 -13.784177  -0.621837 -0.202480 0.756519  0.000000 0.000000 1 0 1.000000
0  -5.315996 -11.712408 -8.524883  -0.932116 0.303866 0.197041  0.000000 0.000000 1 0 1.000000
0  -5.314872 8.510118 -11.727784  -0.669118 -0.404435 0.623469  0.000000 0.000000 1 0 1.000000
  phy
0  -5.314872 8.510118 -11.727784  -0.669118 -0.404435 0.623469  0.000000 0.000000 1 0 1.000000
0  -5.315996 -11.712408 -8.524883  -0.932116 0.303866 0.197041  0.000000 0.000000 1 0 1.000000
0  -5.314433 11.713071 -8.524840  -0.762353 -0.502806 0.407437  0.000000 0.000000 1 0 1.000000
  phy
0  -5.314433 11.713071 -8.524840  -0.762353 -0.502806 0.407437  0.000000 0.000000 1 0 1.000000
0  -5.315996 -11.712408 -8.524883  -0.932116 0.303866 0.197041  0.000000 0.000000 1 0 1.000000
0  -5.314012 13.769442 -4.488931  -0.916166 -0.374152 0.143700  0.000000 0.000000 1 0 1.000000
  phy
0  -5.314012 13.769442 -4.488931  -0.916166 -0.374152 0.143700  0.000000 0.000000 1 0 1.000000
0  -5.315996 -11.712408 -8.524883  -0.932116 0.303866 0.197041  0.000000 0.000000 1 0 1.000000
0  -5.315849 -13.768819 -4.488872  -0.988478 0.146259 0.038990  0.000000 0.000000 1 0 1.000000
  phy
0  -5.314012 13.769442 -4.488931  -0.916166 -0.374152 0.143700  0.000000 0.000000 1 0 1.000000
0  -5.315849 -13.768819 -4.488872  -0.988478 0.146259 0.038990  0.000000 0.000000 1 0 1.000000
0  -5.313649 14.478035 -0.015052  -0.796741 -0.604321 -0.000041  0.000000 0.000000 1 0 1.000000
  phy
0  -5.313649 14.478035 -0.015052  -0.796741 -0.604321 -0.000041  0.000000 0.000000 1 0 1.000000
0  -5.315849 -13.768819 -4.488872  -0.988478 0.146259 0.038990  0.000000 0.000000 1 0 1.000000
0  -5.313383 13.769434 4.458830  -0.935891 -0.328841 -0.126378  0.000000 0.000000 1 0 1.000000
  phy
0  -5.313383 13.769434 4.458830  -0.935891 -0.328841 -0.126378  0.000000 0.000000 1 0 1.000000
0  -5.315849 -13.768819 -4.488872  -0.988478 0.146259 0.038990  0.000000 0.000000 1 0 1.000000
0  -5.313224 8.510124 11.697642  -0.986685 -0.095565 -0.131607  0.000000 0.000000 1 0 1.000000
  phy
0  -5.313383 13.769434 4.458830  -0.935891 -0.328841 -0.126378  0.000000 0.000000 1 0 1.000000
0  -5.313224 8.510124 11.697642  -0.986685 -0.095565 -0.131607  0.000000 0.000000 1 0 1.000000
0  -5.313235 11.713038 8.494771  -0.043953 -0.776131 -0.629038  0.000000 0.000000 1 0 1.000000
  phy
0  -5.313224 8.510124 11.697642  -0.986685 -0.095565 -0.131607  0.000000 0.000000 1 0 1.000000
0  -5.315849 -13.768819 -4.488872  -0.988478 0.146259 0.038990  0.000000 0.000000 1 0 1.000000
0  -5.314359 -8.509480 11.697690  -0.935917 0.221723 -0.273676  0.000000 0.000000 1 0 1.000000
  phy
0  -5.313224 8.510124 11.697642  -0.986685 -0.095565 -0.131607  0.000000 0.000000 1 0 1.000000
0  -5.314359 -8.509480 11.697690  -0.935917 0.221723 -0.273676  0.000000 0.000000 1 0 1.000000
0  -5.313597 0.000311 14.462682  -0.383289 0.048667 -0.922345  0.000000 0.000000 1 0 1.000000
  phy
0  -5.313224 8.510124 11.697642  -0.986685 -0.095565 -0.131607  0.000000 0.000000 1 0 1.000000
0  -5.313597 0.000311 14.462682  -0.383289 0.048667 -0.922345  0.000000 0.000000 1 0 1.000000
0  -5.313348 4.474158 13.754082  -0.033068 -0.308912 -0.950516  0.000000 0.000000 1 0 1.000000
  phy
0  -5.313597 0.000311 14.462682  -0.383289 0.048667 -0.922345  0.000000 0.000000 1 0 1.000000
0  -5.314359 -8.509480 11.697690  -0.935917 0.221723 -0.273676  0.000000 0.000000 1 0 1.000000
0  -5.313945 -4.473574 13.754072  -0.044039 0.358300 -0.932567  0.000000 0.000000 1 0 1.000000
  phy
0  -5.314359 -8.509480 11.697690  -0.935917 0.221723 -0.273676  0.000000 0.000000 1 0 1.000000
0  -5.315849 -13.768819 -4.488872  -0.988478 0.146259 0.038990  0.000000 0.000000 1 0 1.000000
0  -5.315219 -13.768826 4.458801  -0.383433 0.892189 -0.238699  0.000000 0.000000 1 0 1.000000
  phy
0  -5.314359 -8.509480 11.697690  -0.935917 0.221723 -0.273676  0.000000 0.000000 1 0 1.000000
0  -5.315219 -13.768826 4.458801  -0.383433 0.892189 -0.238699  0.000000 0.000000 1 0 1.000000
0  -5.314798 -11.712462 8.494693  -0.044111 0.838022 -0.543850  0.000000 0.000000 1 0 1.000000
  phy
0  -5.315219 -13.768826 4.458801  -0.383433 0.892189 -0.238699  0.000000 0.000000 1 0 1.000000
0  -5.315849 -13.768819 -4.488872  -0.988478 0.146259 0.038990  0.000000 0.000000 1 0 1.000000
0  -5.315583 -14.477419 -0.015065  -0.066145 0.997810 -0.000061  0.000000 0.000000 1 0 1.000000
  phy
0  -5.315219 -13.768826 4.458801  -0.383433 0.892189 -0.238699  0.000000 0.000000 1 0 1.000000
0  -5.315583 -14.477419 -0.015065  -0.066145 0.997810 -0.000061  0.000000 0.000000 1 0 1.000000
0  5.392445 -14.478033 -0.015811  0.803875 0.594798 0.000005  0.000000 0.000000 1 0 1.000000
  phy
0  -5.315219 -13.768826 4.458801  -0.383433 0.892189 -0.238699  0.000000 0.000000 1 0 1.000000
0  5.392445 -14.478033 -0.015811  0.803875 0.594798 0.000005  0.000000 0.000000 1 0 1.000000
0  5.392794 -13.769437 4.458064  0.868973 0.461965 -0.177411  0.000000 0.000000 1 0 1.000000
  phy
0  -5.315583 -14.477419 -0.015065  -0.066145 0.997810 -0.000061  0.000000 0.000000 1 0 1.000000
0  -5.315849 -13.768819 -4.488872  -0.988478 0.146259 0.038990  0.000000 0.000000 1 0 1.000000
0  5.392445 -14.478033 -0.015811  0.803875 0.594798 0.000005  0.000000 0.000000 1 0 1.000000
  phy
0  5.392445 -14.478033 -0.015811  0.803875 0.594798 0.000005  0.000000 0.000000 1 0 1.000000
0  -5.315849 -13.768819 -4.488872  -0.988478 0.146259 0.038990  0.000000 0.000000 1 0 1.000000
0  5.392196 -13.769437 -4.489588  0.970094 0.226605 0.086995  0.000000 0.000000 1 0 1.000000
  phy
0  -5.315996 -11.712408 -8.524883  -0.932116 0.303866 0.197041  0.000000 0.000000 1 0 1.000000
0  -5.316009 -8.509488 -11.727801  -0.268570 0.566284 0.779225  0.000000 0.000000 1 0 1.000000
0  5.392068 -11.713026 -8.525601  0.169342 0.765681 0.620529  0.000000 0.000000 1 0 1.000000
  phy
0  5.392068 -11.713026 -8.525601  0.169342 0.765681 0.620529  0.000000 0.000000 1 0 1.000000
0  -5.316009 -8.509488 -11.727801  -0.268570 0.566284 0.779225  0.000000 0.000000 1 0 1.000000
0  5.392075 -8.510081 -11.728543  0.066035 0.586554 0.807214  0.000000 0.000000 1 0 1.000000
  phy
0  -5.315996 -11.712408 -8.524883  -0.932116 0.303866 0.197041  0.000000 0.000000 1 0 1.000000
0  5.392068 -11.713026 -8.525601  0.169342 0.765681 0.620529  0.000000 0.000000 1 0 1.000000
0  5.392196 -13.769437 -4.489588  0.970094 0.226605 0.086995  0.000000 0.000000 1 0 1.000000
  phy
0  -5.315996 -11.712408 -8.524883  -0.932116 0.303866 0.197041  0.000000 0.000000 1 0 1.000000
0  5.392196 -13.769437 -4.489588  0.970094 0.226605 0.086995  0.000000 0.000000 1 0 1.000000
0  -5.315849 -13.768819 -4.488872  -0.988478 0.146259 0.038990  0.000000 0.000000 1 0 1.000000
  phy
0  5.394056 -4.474163 13.753349  0.891931 0.116826 -0.436818  0.000000 0.000000 1 0 1.000000
0  5.394672 4.473550 13.753352  0.250055 -0.299141 -0.920862  0.000000 0.000000 1 0 1.000000
0  5.394412 -0.000306 14.461955  0.044179 -0.052729 -0.997631  0.000000 0.000000 1 0 1.000000
  phy
0  5.394056 -4.474163 13.753349  0.891931 0.116826 -0.436818  0.000000 0.000000 1 0 1.000000
0  5.394814 8.509487 11.696926  0.268572 -0.566131 -0.779336  0.000000 0.000000 1 0 1.000000
0  5.394672 4.473550 13.753352  0.250055 -0.299141 -0.920862  0.000000 0.000000 1 0 1.000000
  phy
0  5.394056 -4.474163 13.753349  0.891931 0.116826 -0.436818  0.000000 0.000000 1 0 1.000000
0  5.394821 11.712444 8.494013  0.528178 -0.712305 -0.462222  0.000000 0.000000 1 0 1.000000
0  5.394814 8.509487 11.696926  0.268572 -0.566131 -0.779336  0.000000 0.000000 1 0 1.000000
  phy
0  5.394056 -4.474163 13.753349  0.891931 0.116826 -0.436818  0.000000 0.000000 1 0 1.000000
0  5.394693 13.768826 4.458101  0.669167 -0.717867 -0.192049  0.000000 0.000000 1 0 1.000000
0  5.394821 11.712444 8.494013  0.528178 -0.712305 -0.462222  0.000000 0.000000 1 0 1.000000
  phy
0  5.394056 -4.474163 13.753349  0.891931 0.116826 -0.436818  0.000000 0.000000 1 0 1.000000
0  5.394443 14.477425 -0.015770  0.995950 -0.089904 0.000016  0.000000 0.000000 1 0 1.000000
0  5.394693 13.768826 4.458101  0.669167 -0.717867 -0.192049  0.000000 0.000000 1 0 1.000000
  phy
0  5.394056 -4.474163 13.753349  0.891931 0.116826 -0.436818  0.000000 0.000000 1 0 1.000000
0  5.393640 -8.510118 11.696946  0.819308 0.312085 -0.480975  0.000000 0.000000 1 0 1.000000
0  5.394443 14.477425 -0.015770  0.995950 -0.089904 0.000016  0.000000 0.000000 1 0 1.000000
  phy
0  5.393640 -8.510118 11.696946  0.819308 0.312085 -0.480975  0.000000 0.000000 1 0 1.000000
0  5.393205 -11.713061 8.493984  0.852123 0.406597 -0.329494  0.000000 0.000000 1 0 1.000000
0  5.394443 14.477425 -0.015770  0.995950 -0.089904 0.000016  0.000000 0.000000 1 0 1.000000
  phy
0  5.393205 -11.713061 8.493984  0.852123 0.406597 -0.329494  0.000000 0.000000 1 0 1.000000
0  5.392794 -13.769437 4.458064  0.868973 0.461965 -0.177411  0.000000 0.000000 1 0 1.000000
0  5.394443 14.477425 -0.015770  0.995950 -0.089904 0.000016  0.000000 0.000000 1 0 1.000000
  phy
0  5.392794 -13.769437 4.458064  0.868973 0.461965 -0.177411  0.000000 0.000000 1 0 1.000000
0  5.392445 -14.478033 -0.015811  0.803875 0.594798 0.000005  0.000000 0.000000 1 0 1.000000
0  5.394443 14.477425 -0.015770  0.995950 -0.089904 0.000016  0.000000 0.000000 1 0 1.000000
  phy
0  5.392445 -14.478033 -0.015811  0.803875 0.594798 0.000005  0.000000 0.000000 1 0 1.000000
0  5.392196 -13.769437 -4.489588  0.970094 0.226605 0.086995  0.000000 0.000000 1 0 1.000000
0  5.394443 14.477425 -0.015770  0.995950 -0.089904 0.000016  0.000000 0.000000 1 0 1.000000
  phy
0  5.392196 -13.769437 -4.489588  0.970094 0.226605 0.086995  0.000000 0.000000 1 0 1.000000
0  5.392833 4.473588 -13.784907  0.959029 -0.101539 0.264488  0.000000 0.000000 1 0 1.000000
0  5.394443 14.477425 -0.015770  0.995950 -0.089904 0.000016  0.000000 0.000000 1 0 1.000000
  phy
0  5.392196 -13.769437 -4.489588  0.970094 0.226605 0.086995  0.000000 0.000000 1 0 1.000000
0  5.392216 -4.474154 -13.784916  0.621739 0.280938 0.731105  0.000000 0.000000 1 0 1.000000
0  5.392833 4.473588 -13.784907  0.959029 -0.101539 0.264488  0.000000 0.000000 1 0 1.000000
  phy
0  5.392196 -13.769437 -4.489588  0.970094 0.226605 0.086995  0.000000 0.000000 1 0 1.000000
0  5.392068 -11.713026 -8.525601  0.169342 0.765681 0.620529  0.000000 0.000000 1 0 1.000000
0  5.392216 -4.474154 -13.784916  0.621739 0.280938 0.731105  0.000000 0.000000 1 0 1.000000
  phy
0  5.392068 -11.713026 -8.525601  0.169342 0.765681 0.620529  0.000000 0.000000 1 0 1.000000
0  5.392075 -8.510081 -11.728543  0.066035 0.586554 0.807214  0.000000 0.000000 1 0 1.000000
0  5.392216 -4.474154 -13.784916  0.621739 0.280938 0.731105  0.000000 0.000000 1 0 1.000000
  phy
0  5.392216 -4.474154 -13.784916  0.621739 0.280938 0.731105  0.000000 0.000000 1 0 1.000000
0  5.392477 -0.000292 -14.493515  0.033048 0.000063 0.999454  0.000000 0.000000 1 0 1.000000
0  5.392833 4.473588 -13.784907  0.959029 -0.101539 0.264488  0.000000 0.000000 1 0 1.000000
  phy
0  5.392833 4.473588 -13.784907  0.959029 -0.101539 0.264488  0.000000 0.000000 1 0 1.000000
0  5.393684 11.712468 -8.525567  0.383336 -0.774756 0.502798  0.000000 0.000000 1 0 1.000000
0  5.394443 14.477425 -0.015770  0.995950 -0.089904 0.000016  0.000000 0.000000 1 0 1.000000
  phy
0  5.392833 4.473588 -13.784907  0.959029 -0.101539 0.264488  0.000000 0.000000 1 0 1.000000
0  5.393249 8.509490 -11.728534  0.044000 -0.629043 0.776124  0.000000 0.000000 1 0 1.000000
0  5.393684 11.712468 -8.525567  0.383336 -0.774756 0.502798  0.000000 0.000000 1 0 1.000000
  phy
0  5.393684 11.712468 -8.525567  0.383336 -0.774756 0.502798  0.000000 0.000000 1 0 1.000000
0  5.394095 13.768829 -4.489687  0.044074 -0.965100 0.258144  0.000000 0.000000 1 0 1.000000
0  5.394443 14.477425 -0.015770  0.995950 -0.089904 0.000016  0.000000 0.000000 1 0 1.000000
  phy
0  5.394693 13.768826 4.458101  0.669167 -0.717867 -0.192049  0.000000 0.000000 1 0 1.000000
0  -5.313383 13.769434 4.458830  -0.935891 -0.328841 -0.126378  0.000000 0.000000 1 0 1.000000
0  5.394821 11.712444 8.494013  0.528178 -0.712305 -0.462222  0.000000 0.000000 1 0 1.000000
  phy
0  -5.313383 13.769434 4.458830  -0.935891 -0.328841 -0.126378  0.000000 0.000000 1 0 1.000000
0  -5.313235 11.713038 8.494771  -0.043953 -0.776131 -0.629038  0.000000 0.000000 1 0 1.000000
0  5.394821 11.712444 8.494013  0.528178 -0.712305 -0.462222  0.000000 0.000000 1 0 1.000000
  phy
0  5.394693 13.768826 4.458101  0.669167 -0.717867 -0.192049  0.000000 0.000000 1 0 1.000000
0  -5.313649 14.478035 -0.015052  -0.796741 -0.604321 -0.000041  0.000000 0.000000 1 0 1.000000
0  -5.313383 13.769434 4.458830  -0.935891 -0.328841 -0.126378  0.000000 0.000000 1 0 1.000000
  phy
0  5.394693 13.768826 4.458101  0.669167 -0.717867 -0.192049  0.000000 0.000000 1 0 1.000000
0  5.394443 14.477425 -0.015770  0.995950 -0.089904 0.000016  0.000000 0.000000 1 0 1.000000
0  -5.313649 14.478035 -0.015052  -0.796741 -0.604321 -0.000041  0.000000 0.000000 1 0 1.000000
  phy
0  5.392216 -4.474154 -13.784916  0.621739 0.280938 0.731105  0.000000 0.000000 1 0 1.000000
0  5.392075 -8.510081 -11.728543  0.066035 0.586554 0.807214  0.000000 0.000000 1 0 1.000000
0  -5.316009 -8.509488 -11.727801  -0.268570 0.566284 0.779225  0.000000 0.000000 1 0 1.000000
  phy
0  5.392216 -4.474154 -13.784916  0.621739 0.280938 0.731105  0.000000 0.000000 1 0 1.000000
0  -5.316009 -8.509488 -11.727801  -0.268570 0.566284 0.779225  0.000000 0.000000 1 0 1.000000
0  -5.315883 -4.473554 -13.784177  -0.169558 0.254629 0.952058  0.000000 0.000000 1 0 1.000000
  phy
0  5.392477 -0.000292 -14.493515  0.033048 0.000063 0.999454  0.000000 0.000000 1 0 1.000000
0  5.392216 -4.474154 -13.784916  0.621739 0.280938 0.731105  0.000000 0.000000 1 0 1.000000
0  -5.315883 -4.473554 -13.784177  -0.169558 0.254629 0.952058  0.000000 0.000000 1 0 1.000000
  phy
0  5.392477 -0.000292 -14.493515  0.033048 0.000063 0.999454  0.000000 0.000000 1 0 1.000000
0  -5.315883 -4.473554 -13.784177  -0.169558 0.254629 0.952058  0.000000 0.000000 1 0 1.000000
0  -5.315634 0.000325 -14.492779  -0.066140 0.000072 0.997810  0.000000 0.000000 1 0 1.000000
  phy
0  -5.313224 8.510124 11.697642  -0.986685 -0.095565 -0.131607  0.000000 0.000000 1 0 1.000000
0  -5.313348 4.474158 13.754082  -0.033068 -0.308912 -0.950516  0.000000 0.000000 1 0 1.000000
0  5.394814 8.509487 11.696926  0.268572 -0.566131 -0.779336  0.000000 0.000000 1 0 1.000000
  phy
0  -5.313348 4.474158 13.754082  -0.033068 -0.308912 -0.950516  0.000000 0.000000 1 0 1.000000
0  5.394672 4.473550 13.753352  0.250055 -0.299141 -0.920862  0.000000 0.000000 1 0 1.000000
0  5.394814 8.509487 11.696926  0.268572 -0.566131 -0.779336  0.000000 0.000000 1 0 1.000000
  phy
0  5.394814 8.509487 11.696926  0.268572 -0.566131 -0.779336  0.000000 0.000000 1 0 1.000000
0  -5.313235 11.713038 8.494771  -0.043953 -0.776131 -0.629038  0.000000 0.000000 1 0 1.000000
0  -5.313224 8.510124 11.697642  -0.986685 -0.095565 -0.131607  0.000000 0.000000 1 0 1.000000
  phy
0  5.394814 8.509487 11.696926  0.268572 -0.566131 -0.779336  0.000000 0.000000 1 0 1.000000
0  5.394821 11.712444 8.494013  0.528178 -0.712305 -0.462222  0.000000 0.000000 1 0 1.000000
0  -5.313235 11.713038 8.494771  -0.043953 -0.776131 -0.629038  0.000000 0.000000 1 0 1.000000
  phy
0  5.393684 11.712468 -8.525567  0.383336 -0.774756 0.502798  0.000000 0.000000 1 0 1.000000
0  -5.314012 13.769442 -4.488931  -0.916166 -0.374152 0.143700  0.000000 0.000000 1 0 1.000000
0  5.394095 13.768829 -4.489687  0.044074 -0.965100 0.258144  0.000000 0.000000 1 0 1.000000
  phy
0  5.393684 11.712468 -8.525567  0.383336 -0.774756 0.502798  0.000000 0.000000 1 0 1.000000
0  -5.314433 11.713071 -8.524840  -0.762353 -0.502806 0.407437  0.000000 0.000000 1 0 1.000000
0  -5.314012 13.769442 -4.488931  -0.916166 -0.374152 0.143700  0.000000 0.000000 1 0 1.000000
  phy
0  -5.314012 13.769442 -4.488931  -0.916166 -0.374152 0.143700  0.000000 0.000000 1 0 1.000000
0  -5.313649 14.478035 -0.015052  -0.796741 -0.604321 -0.000041  0.000000 0.000000 1 0 1.000000
0  5.394095 13.768829 -4.489687  0.044074 -0.965100 0.258144  0.000000 0.000000 1 0 1.000000
  phy
0  -5.313649 14.478035 -0.015052  -0.796741 -0.604321 -0.000041  0.000000 0.000000 1 0 1.000000
0  5.394443 14.477425 -0.015770  0.995950 -0.089904 0.000016  0.000000 0.000000 1 0 1.000000
0  5.394095 13.768829 -4.489687  0.044074 -0.965100 0.258144  0.000000 0.000000 1 0 1.000000
  phy
0  5.393205 -11.713061 8.493984  0.852123 0.406597 -0.329494  0.000000 0.000000 1 0 1.000000
0  -5.314359 -8.509480 11.697690  -0.935917 0.221723 -0.273676  0.000000 0.000000 1 0 1.000000
0  -5.314798 -11.712462 8.494693  -0.044111 0.838022 -0.543850  0.000000 0.000000 1 0 1.000000
  phy
0  5.393205 -11.713061 8.493984  0.852123 0.406597 -0.329494  0.000000 0.000000 1 0 1.000000
0  5.393640 -8.510118 11.696946  0.819308 0.312085 -0.480975  0.000000 0.000000 1 0 1.000000
0  -5.314359 -8.509480 11.697690  -0.935917 0.221723 -0.273676  0.000000 0.000000 1 0 1.000000
  phy
0  -5.314798 -11.712462 8.494693  -0.044111 0.838022 -0.543850  0.000000 0.000000 1 0 1.000000
0  -5.315219 -13.768826 4.458801  -0.383433 0.892189 -0.238699  0.000000 0.000000 1 0 1.000000
0  5.392794 -13.769437 4.458064  0.868973 0.461965 -0.177411  0.000000 0.000000 1 0 1.000000
  phy
0  -5.314798 -11.712462 8.494693  -0.044111 0.838022 -0.543850  0.000000 0.000000 1 0 1.000000
0  5.392794 -13.769437 4.458064  0.868973 0.461965 -0.177411  0.000000 0.000000 1 0 1.000000
0  5.393205 -11.713061 8.493984  0.852123 0.406597 -0.329494  0.000000 0.000000 1 0 1.000000
  phy
0  -5.314359 -8.509480 11.697690  -0.935917 0.221723 -0.273676  0.000000 0.000000 1 0 1.000000
0  5.393640 -8.510118 11.696946  0.819308 0.312085 -0.480975  0.000000 0.000000 1 0 1.000000
0  -5.313945 -4.473574 13.754072  -0.044039 0.358300 -0.932567  0.000000 0.000000 1 0 1.000000
  phy
0  5.393640 -8.510118 11.696946  0.819308 0.312085 -0.480975  0.000000 0.000000 1 0 1.000000
0  5.394056 -4.474163 13.753349  0.891931 0.116826 -0.436818  0.000000 0.000000 1 0 1.000000
0  -5.313945 -4.473574 13.754072  -0.044039 0.358300 -0.932567  0.000000 0.000000 1 0 1.000000
  phy
0  -5.313945 -4.473574 13.754072  -0.044039 0.358300 -0.932567  0.000000 0.000000 1 0 1.000000
0  5.394056 -4.474163 13.753349  0.891931 0.116826 -0.436818  0.000000 0.000000 1 0 1.000000
0  -5.313597 0.000311 14.462682  -0.383289 0.048667 -0.922345  0.000000 0.000000 1 0 1.000000
  phy
0  5.394056 -4.474163 13.753349  0.891931 0.116826 -0.436818  0.000000 0.000000 1 0 1.000000
0  5.394412 -0.000306 14.461955  0.044179 -0.052729 -0.997631  0.000000 0.000000 1 0 1.000000
0  -5.313597 0.000311 14.462682  -0.383289 0.048667 -0.922345  0.000000 0.000000 1 0 1.000000
  phy
0  5.392833 4.473588 -13.784907  0.959029 -0.101539 0.264488  0.000000 0.000000 1 0 1.000000
0  -5.315286 4.474177 -13.784177  -0.621837 -0.202480 0.756519  0.000000 0.000000 1 0 1.000000
0  -5.314872 8.510118 -11.727784  -0.669118 -0.404435 0.623469  0.000000 0.000000 1 0 1.000000
  phy
0  5.392833 4.473588 -13.784907  0.959029 -0.101539 0.264488  0.000000 0.000000 1 0 1.000000
0  -5.314872 8.510118 -11.727784  -0.669118 -0.404435 0.623469  0.000000 0.000000 1 0 1.000000
0  5.393249 8.509490 -11.728534  0.044000 -0.629043 0.776124  0.000000 0.000000 1 0 1.000000
  phy
0  -5.314872 8.510118 -11.727784  -0.669118 -0.404435 0.623469  0.000000 0.000000 1 0 1.000000
0  -5.314433 11.713071 -8.524840  -0.762353 -0.502806 0.407437  0.000000 0.000000 1 0 1.000000
0  5.393249 8.509490 -11.728534  0.044000 -0.629043 0.776124  0.000000 0.000000 1 0 1.000000
  phy
0  5.393249 8.509490 -11.728534  0.044000 -0.629043 0.776124  0.000000 0.000000 1 0 1.000000
0  -5.314433 11.713071 -8.524840  -0.762353 -0.502806 0.407437  0.000000 0.000000 1 0 1.000000
0  5.393684 11.712468 -8.525567  0.383336 -0.774756 0.502798  0.000000 0.000000 1 0 1.000000
  phy
0  5.392833 4.473588 -13.784907  0.959029 -0.101539 0.264488  0.000000 0.000000 1 0 1.000000
0  5.392477 -0.000292 -14.493515  0.033048 0.000063 0.999454  0.000000 0.000000 1 0 1.000000
0  -5.315286 4.474177 -13.784177  -0.621837 -0.202480 0.756519  0.000000 0.000000 1 0 1.000000
  phy
0  -5.315286 4.474177 -13.784177  -0.621837 -0.202480 0.756519  0.000000 0.000000 1 0 1.000000
0  5.392477 -0.000292 -14.493515  0.033048 0.000063 0.999454  0.000000 0.000000 1 0 1.000000
0  -5.315634 0.000325 -14.492779  -0.066140 0.000072 0.997810  0.000000 0.000000 1 0 1.000000
  phy
0  -5.313597 0.000311 14.462682  -0.383289 0.048667 -0.922345  0.000000 0.000000 1 0 1.000000
0  5.394412 -0.000306 14.461955  0.044179 -0.052729 -0.997631  0.000000 0.000000 1 0 1.000000
0  -5.313348 4.474158 13.754082  -0.033068 -0.308912 -0.950516  0.000000 0.000000 1 0 1.000000
  phy
0  5.394412 -0.000306 14.461955  0.044179 -0.052729 -0.997631  0.000000 0.000000 1 0 1.000000
0  5.394672 4.473550 13.753352  0.250055 -0.299141 -0.920862  0.000000 0.000000 1 0 1.000000
0  -5.313348 4.474158 13.754082  -0.033068 -0.308912 -0.950516  0.000000 0.000000 1 0 1.000000
end
