version 1
nodes
0 "root" -1
end
skeleton
time 0
0  0.000000 0.000000 0.000000  0.000000 -0.000000 0.000000
end
triangles
coplightblue3
0  8.006912 8.838093 71.323112  0.001063 -0.999998 -0.001576  0.724854 0.184204 1 0 1.000000
0  12.489084 8.841877 71.945389  0.001053 -0.999998 -0.001504  0.520493 0.215546 1 0 1.000000
0  8.005238 8.837103 71.947464  0.001064 -0.999998 -0.001583  0.724854 0.215546 1 0 1.000000
coplightblue3
0  12.491075 8.842808 71.324608  -0.000201 -0.930416 0.366504  0.520493 0.184204 1 0 1.000000
0  12.489084 8.841877 71.945389  0.001053 -0.999998 -0.001504  0.520493 0.215546 1 0 1.000000
0  8.006912 8.838093 71.323112  0.001063 -0.999998 -0.001576  0.724854 0.184204 1 0 1.000000
coplightblue3
0  7.373906 15.860840 72.080315  0.001064 0.999677 0.025397  0.724854 0.215546 1 0 1.000000
0  11.857697 15.856127 72.078049  0.001057 0.999676 0.025445  0.520493 0.215546 1 0 1.000000
0  7.375525 15.876694 71.456238  0.001063 0.999677 0.025402  0.724854 0.184204 1 0 1.000000
coplightblue3
0  11.859690 15.871920 71.457565  0.000597 0.920408 0.390958  0.520493 0.184204 1 0 1.000000
0  7.375525 15.876694 71.456238  0.001063 0.999677 0.025402  0.724854 0.184204 1 0 1.000000
0  11.857697 15.856127 72.078049  0.001057 0.999676 0.025445  0.520493 0.215546 1 0 1.000000
coplightblue3
0  1.060273 15.860840 72.080315  0.001065 0.999677 0.025397  0.724854 0.215546 1 0 1.000000
0  5.544061 15.856123 72.078049  0.001057 0.999676 0.025450  0.520493 0.215546 1 0 1.000000
0  1.061890 15.876694 71.456238  0.001064 0.999677 0.025402  0.724854 0.184204 1 0 1.000000
coplightblue3
0  5.546056 15.871920 71.457565  0.000597 0.920406 0.390963  0.520493 0.184204 1 0 1.000000
0  1.061890 15.876694 71.456238  0.001064 0.999677 0.025402  0.724854 0.184204 1 0 1.000000
0  5.544061 15.856123 72.078049  0.001057 0.999676 0.025450  0.520493 0.215546 1 0 1.000000
coplightblue3
0  -0.748217 15.860840 72.080315  -0.001065 0.999677 0.025397  0.724854 0.215546 1 0 1.000000
0  -0.749835 15.876694 71.456238  -0.001064 0.999677 0.025402  0.724854 0.184204 1 0 1.000000
0  -5.232004 15.856123 72.078049  -0.001058 0.999676 0.025445  0.520493 0.215546 1 0 1.000000
coplightblue3
0  -5.232004 15.856123 72.078049  -0.001058 0.999676 0.025445  0.520493 0.215546 1 0 1.000000
0  -0.749835 15.876694 71.456238  -0.001064 0.999677 0.025402  0.724854 0.184204 1 0 1.000000
0  -5.233998 15.871916 71.457565  0.000196 0.920410 0.390956  0.520493 0.184204 1 0 1.000000
coplightblue3
0  -7.061800 15.860836 72.080315  -0.001065 0.999677 0.025408  0.724854 0.215546 1 0 1.000000
0  -7.063470 15.876694 71.456238  -0.001064 0.999677 0.025412  0.724854 0.184204 1 0 1.000000
0  -11.545639 15.856119 72.078049  -0.001058 0.999676 0.025450  0.520493 0.215546 1 0 1.000000
coplightblue3
0  -11.545639 15.856119 72.078049  -0.001058 0.999676 0.025450  0.520493 0.215546 1 0 1.000000
0  -7.063470 15.876694 71.456238  -0.001064 0.999677 0.025412  0.724854 0.184204 1 0 1.000000
0  -11.547635 15.871916 71.457565  0.000198 0.920407 0.390961  0.520493 0.184204 1 0 1.000000
coplightblue3
0  1.272356 8.838085 71.322243  0.001063 -0.999998 -0.001574  0.724854 0.184204 1 0 1.000000
0  5.754525 8.841869 71.944519  0.001053 -0.999998 -0.001506  0.520493 0.215546 1 0 1.000000
0  1.270737 8.837097 71.946594  0.001064 -0.999998 -0.001581  0.724854 0.215546 1 0 1.000000
coplightblue3
0  5.756521 8.842802 71.323738  -0.000204 -0.930417 0.366502  0.520493 0.184204 1 0 1.000000
0  5.754525 8.841869 71.944519  0.001053 -0.999998 -0.001506  0.520493 0.215546 1 0 1.000000
0  1.272356 8.838085 71.322243  0.001063 -0.999998 -0.001574  0.724854 0.184204 1 0 1.000000
coplightblue3
0  -0.960289 8.838085 71.322243  -0.001062 -0.999998 -0.001576  0.724854 0.184204 1 0 1.000000
0  -0.958671 8.837097 71.946594  -0.001063 -0.999998 -0.001583  0.724854 0.215546 1 0 1.000000
0  -5.442461 8.841866 71.944519  -0.001053 -0.999998 -0.001504  0.520493 0.215546 1 0 1.000000
coplightblue3
0  -5.442461 8.841866 71.944519  -0.001053 -0.999998 -0.001504  0.520493 0.215546 1 0 1.000000
0  -5.444456 8.842798 71.323738  -0.000591 -0.930416 0.366506  0.520493 0.184204 1 0 1.000000
0  -0.960289 8.838085 71.322243  -0.001062 -0.999998 -0.001576  0.724854 0.184204 1 0 1.000000
coplightblue3
0  -7.694844 8.838089 71.323112  -0.001062 -0.999998 -0.001573  0.724854 0.184204 1 0 1.000000
0  -7.693174 8.837101 71.947464  -0.001063 -0.999998 -0.001581  0.724854 0.215546 1 0 1.000000
0  -12.176961 8.841869 71.945389  -0.001052 -0.999998 -0.001499  0.520493 0.215546 1 0 1.000000
coplightblue3
0  -12.176961 8.841869 71.945389  -0.001052 -0.999998 -0.001499  0.520493 0.215546 1 0 1.000000
0  -12.179015 8.842798 71.324608  -0.000608 -0.930414 0.366511  0.520493 0.184204 1 0 1.000000
0  -7.694844 8.838089 71.323112  -0.001062 -0.999998 -0.001573  0.724854 0.184204 1 0 1.000000
end
