version 1
nodes
0 "root" -1
end
skeleton
time 0
0  0.000000 0.000000 0.000000  0.000000 -0.000000 0.000000
end
triangles
driver
0  29.911343 -6.023169 29.879259  0.999124 0.038959 -0.015274  0.585938 0.050781 1 0 1.000000
0  27.242245 -11.103882 31.980352  0.734426 -0.401307 0.547331  0.580078 0.175781 1 0 1.000000
0  29.847481 -8.203334 27.691320  0.997972 -0.063216 0.007406  0.521484 0.050781 1 0 1.000000
driver
0  8.251660 -9.293039 38.454830  -0.589550 0.450547 -0.670401  0.744141 0.738281 1 0 1.000000
0  12.138213 -5.294444 39.501118  -0.660433 0.064043 -0.748149  0.984375 0.691406 1 0 1.000000
0  12.044953 -10.161130 37.985207  0.563527 -0.039305 -0.825162  0.744141 0.687500 1 0 1.000000
driver
0  12.138213 -5.294444 39.501118  -0.660433 0.064043 -0.748149  0.984375 0.691406 1 0 1.000000
0  8.251660 -9.293039 38.454830  -0.589550 0.450547 -0.670401  0.744141 0.738281 1 0 1.000000
0  13.066072 1.963325 41.686615  -0.614625 0.689060 -0.383968  0.960938 0.738281 1 0 1.000000
driver
0  15.793296 -8.082436 42.744740  0.162121 -0.963772 0.211805  0.990234 0.671875 1 0 1.000000
0  12.027221 -11.847085 42.292141  0.934017 -0.221699 0.280110  0.742188 0.632812 1 0 1.000000
0  12.044953 -10.161130 37.985207  0.563527 -0.039305 -0.825162  0.744141 0.687500 1 0 1.000000
driver
0  10.743975 1.879329 46.351913  -0.852470 0.451920 0.262798  0.988281 0.501953 1 0 1.000000
0  13.066072 1.963325 41.686615  -0.614625 0.689060 -0.383968  0.960938 0.414062 1 0 1.000000
0  8.251660 -9.293039 38.454830  -0.589550 0.450547 -0.670401  0.744141 0.414062 1 0 1.000000
driver
0  8.251660 -9.293039 38.454830  -0.589550 0.450547 -0.670401  0.744141 0.414062 1 0 1.000000
0  6.594019 -10.127062 41.934673  -0.991563 0.098435 0.084341  0.744141 0.501953 1 0 1.000000
0  10.743975 1.879329 46.351913  -0.852470 0.451920 0.262798  0.988281 0.501953 1 0 1.000000
driver
0  9.547160 -12.219856 45.024349  -0.427601 -0.185048 0.884825  0.744141 0.576172 1 0 1.000000
0  10.743975 1.879329 46.351913  -0.852470 0.451920 0.262798  0.988281 0.501953 1 0 1.000000
0  6.594019 -10.127062 41.934673  -0.991563 0.098435 0.084341  0.744141 0.501953 1 0 1.000000
driver
0  10.743975 1.879329 46.351913  -0.852470 0.451920 0.262798  0.988281 0.501953 1 0 1.000000
0  9.547160 -12.219856 45.024349  -0.427601 -0.185048 0.884825  0.744141 0.576172 1 0 1.000000
0  12.863767 -0.532952 49.197144  -0.430793 0.061005 0.900387  0.982422 0.576172 1 0 1.000000
driver
0  9.547160 -12.219856 45.024349  -0.427601 -0.185048 0.884825  0.744141 0.576172 1 0 1.000000
0  14.268554 -5.413027 49.272034  0.069927 -0.592281 0.802691  0.958984 0.628906 1 0 1.000000
0  12.863767 -0.532952 49.197144  -0.430793 0.061005 0.900387  0.982422 0.576172 1 0 1.000000
driver
0  14.268554 -5.413027 49.272034  0.069927 -0.592281 0.802691  0.958984 0.628906 1 0 1.000000
0  9.547160 -12.219856 45.024349  -0.427601 -0.185048 0.884825  0.744141 0.576172 1 0 1.000000
0  12.027221 -11.847085 42.292141  0.934017 -0.221699 0.280110  0.742188 0.632812 1 0 1.000000
driver
0  12.027221 -11.847085 42.292141  0.934017 -0.221699 0.280110  0.742188 0.632812 1 0 1.000000
0  15.793296 -8.082436 42.744740  0.162121 -0.963772 0.211805  0.876953 0.748047 1 0 1.000000
0  14.268554 -5.413027 49.272034  0.069927 -0.592281 0.802691  0.958984 0.628906 1 0 1.000000
driver
0  10.951691 -9.538734 39.265053  0.450328 0.072737 -0.889895  0.738281 0.687500 1 0 1.000000
0  8.014424 -11.018736 38.999863  -0.468778 0.002629 -0.883312  0.708984 0.738281 1 0 1.000000
0  8.367089 -9.574841 39.512691  -0.666400 0.297419 -0.683705  0.738281 0.738281 1 0 1.000000
driver
0  10.951691 -9.538734 39.265053  0.450328 0.072737 -0.889895  0.738281 0.687500 1 0 1.000000
0  12.065454 -23.196585 41.882648  -0.275080 -0.292048 -0.915991  0.490234 0.738281 1 0 1.000000
0  8.014424 -11.018736 38.999863  -0.468778 0.002629 -0.883312  0.708984 0.738281 1 0 1.000000
driver
0  10.951691 -9.538734 39.265053  0.450328 0.072737 -0.889895  0.738281 0.687500 1 0 1.000000
0  14.072856 -22.467247 43.604645  0.923544 0.183194 0.336908  0.492188 0.628906 1 0 1.000000
0  12.065454 -23.196585 41.882648  -0.275080 -0.292048 -0.915991  0.490234 0.738281 1 0 1.000000
driver
0  10.951691 -9.538734 39.265053  0.450328 0.072737 -0.889895  0.738281 0.687500 1 0 1.000000
0  12.027221 -11.847085 42.292141  0.934017 -0.221699 0.280110  0.742188 0.632812 1 0 1.000000
0  14.072856 -22.467247 43.604645  0.923544 0.183194 0.336908  0.492188 0.628906 1 0 1.000000
driver
0  12.027221 -11.847085 42.292141  0.934017 -0.221699 0.280110  0.742188 0.632812 1 0 1.000000
0  12.765115 -22.036650 44.977356  0.166295 0.251184 0.953547  0.492188 0.576172 1 0 1.000000
0  14.072856 -22.467247 43.604645  0.923544 0.183194 0.336908  0.492188 0.628906 1 0 1.000000
driver
0  12.765115 -22.036650 44.977356  0.166295 0.251184 0.953547  0.492188 0.576172 1 0 1.000000
0  12.027221 -11.847085 42.292141  0.934017 -0.221699 0.280110  0.742188 0.632812 1 0 1.000000
0  9.547160 -12.219856 45.024349  -0.427601 -0.185048 0.884825  0.744141 0.576172 1 0 1.000000
driver
0  10.572305 -22.727123 43.166718  -0.962478 -0.072850 0.261400  0.492188 0.501953 1 0 1.000000
0  12.765115 -22.036650 44.977356  0.166295 0.251184 0.953547  0.492188 0.576172 1 0 1.000000
0  9.547160 -12.219856 45.024349  -0.427601 -0.185048 0.884825  0.744141 0.576172 1 0 1.000000
driver
0  9.547160 -12.219856 45.024349  -0.427601 -0.185048 0.884825  0.744141 0.576172 1 0 1.000000
0  6.792120 -11.954826 41.297680  -0.969533 -0.201974 -0.138609  0.712891 0.501953 1 0 1.000000
0  10.572305 -22.727123 43.166718  -0.962478 -0.072850 0.261400  0.492188 0.501953 1 0 1.000000
driver
0  6.792120 -11.954826 41.297680  -0.969533 -0.201974 -0.138609  0.712891 0.501953 1 0 1.000000
0  12.065454 -23.196585 41.882648  -0.275080 -0.292048 -0.915991  0.492188 0.406250 1 0 1.000000
0  10.572305 -22.727123 43.166718  -0.962478 -0.072850 0.261400  0.492188 0.501953 1 0 1.000000
driver
0  12.065454 -23.196585 41.882648  -0.275080 -0.292048 -0.915991  0.492188 0.406250 1 0 1.000000
0  6.792120 -11.954826 41.297680  -0.969533 -0.201974 -0.138609  0.712891 0.501953 1 0 1.000000
0  8.014424 -11.018736 38.999863  -0.468778 0.002629 -0.883312  0.703125 0.406250 1 0 1.000000
driver
0  6.792120 -11.954826 41.297680  -0.969533 -0.201974 -0.138609  0.712891 0.501953 1 0 1.000000
0  8.367089 -9.574841 39.512691  -0.666400 0.297419 -0.683705  0.738281 0.406250 1 0 1.000000
0  8.014424 -11.018736 38.999863  -0.468778 0.002629 -0.883312  0.703125 0.406250 1 0 1.000000
driver
0  8.367089 -9.574841 39.512691  -0.666400 0.297419 -0.683705  0.738281 0.406250 1 0 1.000000
0  6.792120 -11.954826 41.297680  -0.969533 -0.201974 -0.138609  0.712891 0.501953 1 0 1.000000
0  6.594019 -10.127062 41.934673  -0.991563 0.098435 0.084341  0.738281 0.501953 1 0 1.000000
driver
0  6.792120 -11.954826 41.297680  -0.969533 -0.201974 -0.138609  0.712891 0.501953 1 0 1.000000
0  9.547160 -12.219856 45.024349  -0.427601 -0.185048 0.884825  0.744141 0.576172 1 0 1.000000
0  6.594019 -10.127062 41.934673  -0.991563 0.098435 0.084341  0.738281 0.501953 1 0 1.000000
driver
0  20.787262 2.826636 49.747524  0.000011 0.890541 0.454902  0.441406 0.378906 1 0 1.000000
0  14.642004 3.217850 48.920692  -0.277883 0.799290 0.532838  0.431641 0.515625 1 0 1.000000
0  18.243835 0.622925 50.132984  -0.739297 0.406691 0.536697  0.441406 0.425781 1 0 1.000000
driver
0  23.330685 0.622917 50.132992  0.739316 0.406645 0.536704  0.441406 0.425781 1 0 1.000000
0  26.932514 3.217850 48.920704  0.277864 0.799292 0.532845  0.431641 0.515625 1 0 1.000000
0  20.787262 2.826636 49.747524  0.000011 0.890541 0.454902  0.441406 0.378906 1 0 1.000000
driver
0  10.743975 1.879329 46.351913  -0.852470 0.451920 0.262798  0.410156 0.611328 1 0 1.000000
0  12.863767 -0.532952 49.197144  -0.430793 0.061005 0.900387  0.468750 0.527344 1 0 1.000000
0  14.642004 3.217850 48.920692  -0.277883 0.799290 0.532838  0.431641 0.515625 1 0 1.000000
driver
0  18.243835 0.622925 50.132984  -0.739297 0.406691 0.536697  0.468750 0.458984 1 0 1.000000
0  14.642004 3.217850 48.920692  -0.277883 0.799290 0.532838  0.431641 0.515625 1 0 1.000000
0  12.863767 -0.532952 49.197144  -0.430793 0.061005 0.900387  0.468750 0.527344 1 0 1.000000
driver
0  26.932514 3.217850 48.920704  0.277864 0.799292 0.532845  0.431641 0.515625 1 0 1.000000
0  28.710754 -0.532949 49.197151  0.450745 0.044483 0.891544  0.468750 0.527344 1 0 1.000000
0  30.830545 1.879334 46.351917  0.873339 0.419613 0.247395  0.410156 0.611328 1 0 1.000000
driver
0  28.710754 -0.532949 49.197151  0.450745 0.044483 0.891544  0.468750 0.527344 1 0 1.000000
0  26.932514 3.217850 48.920704  0.277864 0.799292 0.532845  0.431641 0.515625 1 0 1.000000
0  23.330685 0.622917 50.132992  0.739316 0.406645 0.536704  0.468750 0.458984 1 0 1.000000
driver
0  30.830545 1.879334 46.351917  0.873339 0.419613 0.247395  0.410156 0.611328 1 0 1.000000
0  28.508450 1.963325 41.686611  0.639164 0.669775 -0.377983  0.316406 0.505859 1 0 1.000000
0  26.932514 3.217850 48.920704  0.277864 0.799292 0.532845  0.425781 0.511719 1 0 1.000000
driver
0  28.508450 1.963325 41.686611  0.639164 0.669775 -0.377983  0.316406 0.505859 1 0 1.000000
0  20.787260 3.450054 42.019581  -0.000003 0.999690 -0.024914  0.306641 0.378906 1 0 1.000000
0  26.932514 3.217850 48.920704  0.277864 0.799292 0.532845  0.425781 0.511719 1 0 1.000000
driver
0  20.787262 2.826636 49.747524  0.000011 0.890541 0.454902  0.380859 0.378906 1 0 1.000000
0  26.932514 3.217850 48.920704  0.277864 0.799292 0.532845  0.425781 0.511719 1 0 1.000000
0  20.787260 3.450054 42.019581  -0.000003 0.999690 -0.024914  0.306641 0.378906 1 0 1.000000
driver
0  20.787260 3.450054 42.019581  -0.000003 0.999690 -0.024914  0.306641 0.378906 1 0 1.000000
0  14.642004 3.217850 48.920692  -0.277883 0.799290 0.532838  0.425781 0.511719 1 0 1.000000
0  20.787262 2.826636 49.747524  0.000011 0.890541 0.454902  0.380859 0.378906 1 0 1.000000
driver
0  14.642004 3.217850 48.920692  -0.277883 0.799290 0.532838  0.425781 0.511719 1 0 1.000000
0  20.787260 3.450054 42.019581  -0.000003 0.999690 -0.024914  0.306641 0.378906 1 0 1.000000
0  13.066072 1.963325 41.686615  -0.614625 0.689060 -0.383968  0.316406 0.505859 1 0 1.000000
driver
0  14.642004 3.217850 48.920692  -0.277883 0.799290 0.532838  0.425781 0.511719 1 0 1.000000
0  13.066072 1.963325 41.686615  -0.614625 0.689060 -0.383968  0.316406 0.505859 1 0 1.000000
0  10.743975 1.879329 46.351913  -0.852470 0.451920 0.262798  0.410156 0.611328 1 0 1.000000
driver
0  14.288218 -0.597220 26.107632  -0.947653 0.301006 -0.106532  0.107422 0.521484 1 0 1.000000
0  12.138213 -5.294444 39.501118  -0.660433 0.064043 -0.748149  0.404297 0.683594 1 0 1.000000
0  13.066072 1.963325 41.686615  -0.614625 0.689060 -0.383968  0.316406 0.505859 1 0 1.000000
driver
0  12.138213 -5.294444 39.501118  -0.660433 0.064043 -0.748149  0.404297 0.683594 1 0 1.000000
0  14.288218 -0.597220 26.107632  -0.947653 0.301006 -0.106532  0.107422 0.521484 1 0 1.000000
0  11.663243 -6.023169 29.879261  -0.999124 0.038955 -0.015262  0.103516 0.683594 1 0 1.000000
driver
0  28.508450 1.963325 41.686611  0.639164 0.669775 -0.377983  0.316406 0.505859 1 0 1.000000
0  29.436373 -5.294443 39.501122  0.677119 0.100520 -0.728975  0.404297 0.683594 1 0 1.000000
0  27.286301 -0.597218 26.107630  0.947638 0.301055 -0.106527  0.107422 0.521484 1 0 1.000000
driver
0  29.911343 -6.023169 29.879259  0.999124 0.038959 -0.015274  0.103516 0.683594 1 0 1.000000
0  27.286301 -0.597218 26.107630  0.947638 0.301055 -0.106527  0.107422 0.521484 1 0 1.000000
0  29.436373 -5.294443 39.501122  0.677119 0.100520 -0.728975  0.404297 0.683594 1 0 1.000000
driver
0  14.374092 -4.110012 21.132685  -0.942918 0.154585 -0.294973  0.000000 0.521484 1 0 1.000000
0  11.663243 -6.023169 29.879261  -0.999124 0.038955 -0.015262  0.076172 0.683594 1 0 1.000000
0  14.288218 -0.597220 26.107632  -0.947653 0.301006 -0.106532  0.109375 0.519531 1 0 1.000000
driver
0  11.663243 -6.023169 29.879261  -0.999124 0.038955 -0.015262  0.076172 0.683594 1 0 1.000000
0  14.374092 -4.110012 21.132685  -0.942918 0.154585 -0.294973  0.000000 0.521484 1 0 1.000000
0  11.727037 -8.203336 27.691322  -0.997971 -0.063234 0.007403  0.000000 0.683594 1 0 1.000000
driver
0  18.098032 -1.613776 51.835598  -0.941501 -0.235974 -0.240609  0.376953 0.191406 1 0 1.000000
0  19.528126 -5.275203 51.453510  -0.516896 -0.601068 -0.609537  0.400391 0.052734 1 0 1.000000
0  17.734364 -3.992365 55.309067  -0.846712 -0.510232 -0.150805  0.259766 0.126953 1 0 1.000000
driver
0  18.098032 -1.613776 51.835598  -0.941501 -0.235974 -0.240609  0.376953 0.191406 1 0 1.000000
0  20.787262 -2.979602 50.926281  -0.000030 -0.802432 -0.596744  0.435547 0.009766 1 0 1.000000
0  19.528126 -5.275203 51.453510  -0.516896 -0.601068 -0.609537  0.400391 0.052734 1 0 1.000000
driver
0  20.787262 -5.442677 51.353416  0.000002 -0.705759 -0.708452  0.410156 0.009766 1 0 1.000000
0  19.528126 -5.275203 51.453510  -0.516896 -0.601068 -0.609537  0.400391 0.052734 1 0 1.000000
0  20.787262 -2.979602 50.926281  -0.000030 -0.802432 -0.596744  0.435547 0.009766 1 0 1.000000
driver
0  20.787262 -5.442677 51.353416  0.000002 -0.705759 -0.708452  0.410156 0.009766 1 0 1.000000
0  20.787262 -5.968416 54.382690  -0.000001 -0.955378 -0.295385  0.269531 0.009766 1 0 1.000000
0  19.528126 -5.275203 51.453510  -0.516896 -0.601068 -0.609537  0.400391 0.052734 1 0 1.000000
driver
0  20.787262 -5.968416 54.382690  -0.000001 -0.955378 -0.295385  0.269531 0.009766 1 0 1.000000
0  17.734364 -3.992365 55.309067  -0.846712 -0.510232 -0.150805  0.259766 0.126953 1 0 1.000000
0  19.528126 -5.275203 51.453510  -0.516896 -0.601068 -0.609537  0.400391 0.052734 1 0 1.000000
driver
0  20.787262 -6.695518 55.079750  0.000002 -0.991104 -0.133091  0.244141 0.009766 1 0 1.000000
0  17.734364 -3.992365 55.309067  -0.846712 -0.510232 -0.150805  0.259766 0.126953 1 0 1.000000
0  20.787262 -5.968416 54.382690  -0.000001 -0.955378 -0.295385  0.269531 0.009766 1 0 1.000000
driver
0  20.787262 -6.695518 55.079750  0.000002 -0.991104 -0.133091  0.244141 0.009766 1 0 1.000000
0  20.787262 -5.532127 56.949238  -0.000006 -0.985903 0.167318  0.187500 0.009766 1 0 1.000000
0  17.734364 -3.992365 55.309067  -0.846712 -0.510232 -0.150805  0.259766 0.126953 1 0 1.000000
driver
0  23.840160 -3.992363 55.309074  0.846712 -0.510233 -0.150803  0.259766 0.126953 1 0 1.000000
0  20.787262 -5.532127 56.949238  -0.000006 -0.985903 0.167318  0.187500 0.009766 1 0 1.000000
0  20.787262 -6.695518 55.079750  0.000002 -0.991104 -0.133091  0.244141 0.009766 1 0 1.000000
driver
0  23.840160 -3.992363 55.309074  0.846712 -0.510233 -0.150803  0.259766 0.126953 1 0 1.000000
0  23.802940 -4.432339 57.324173  0.686341 -0.721145 0.094265  0.169922 0.121094 1 0 1.000000
0  20.787262 -5.532127 56.949238  -0.000006 -0.985903 0.167318  0.187500 0.009766 1 0 1.000000
driver
0  20.787262 -4.626369 61.318848  -0.000002 -0.833449 0.552597  0.019531 0.009766 1 0 1.000000
0  20.787262 -5.532127 56.949238  -0.000006 -0.985903 0.167318  0.187500 0.009766 1 0 1.000000
0  23.802940 -4.432339 57.324173  0.686341 -0.721145 0.094265  0.169922 0.121094 1 0 1.000000
driver
0  17.771584 -4.432339 57.324162  -0.686341 -0.721145 0.094264  0.169922 0.121094 1 0 1.000000
0  20.787262 -5.532127 56.949238  -0.000006 -0.985903 0.167318  0.187500 0.009766 1 0 1.000000
0  20.787262 -4.626369 61.318848  -0.000002 -0.833449 0.552597  0.019531 0.009766 1 0 1.000000
driver
0  20.787262 -5.532127 56.949238  -0.000006 -0.985903 0.167318  0.187500 0.009766 1 0 1.000000
0  17.771584 -4.432339 57.324162  -0.686341 -0.721145 0.094264  0.169922 0.121094 1 0 1.000000
0  17.734364 -3.992365 55.309067  -0.846712 -0.510232 -0.150805  0.259766 0.126953 1 0 1.000000
driver
0  20.787262 -5.968416 54.382690  -0.000001 -0.955378 -0.295385  0.269531 0.009766 1 0 1.000000
0  23.840160 -3.992363 55.309074  0.846712 -0.510233 -0.150803  0.259766 0.126953 1 0 1.000000
0  20.787262 -6.695518 55.079750  0.000002 -0.991104 -0.133091  0.244141 0.009766 1 0 1.000000
driver
0  22.046396 -5.275200 51.453518  0.516898 -0.601068 -0.609536  0.400391 0.052734 1 0 1.000000
0  23.840160 -3.992363 55.309074  0.846712 -0.510233 -0.150803  0.259766 0.126953 1 0 1.000000
0  20.787262 -5.968416 54.382690  -0.000001 -0.955378 -0.295385  0.269531 0.009766 1 0 1.000000
driver
0  22.046396 -5.275200 51.453518  0.516898 -0.601068 -0.609536  0.400391 0.052734 1 0 1.000000
0  20.787262 -5.968416 54.382690  -0.000001 -0.955378 -0.295385  0.269531 0.009766 1 0 1.000000
0  20.787262 -5.442677 51.353416  0.000002 -0.705759 -0.708452  0.410156 0.009766 1 0 1.000000
driver
0  18.098032 -1.613776 51.835598  -0.941501 -0.235974 -0.240609  0.376953 0.191406 1 0 1.000000
0  18.355005 -2.216893 50.275997  -0.361425 -0.525970 0.769888  0.453125 0.177734 1 0 1.000000
0  20.787262 -2.979602 50.926281  -0.000030 -0.802432 -0.596744  0.435547 0.009766 1 0 1.000000
driver
0  18.098032 -1.613776 51.835598  -0.941501 -0.235974 -0.240609  0.376953 0.191406 1 0 1.000000
0  18.243835 0.622925 50.132984  -0.739297 0.406691 0.536697  0.453125 0.285156 1 0 1.000000
0  18.355005 -2.216893 50.275997  -0.361425 -0.525970 0.769888  0.453125 0.177734 1 0 1.000000
driver
0  18.243835 0.622925 50.132984  -0.739297 0.406691 0.536697  0.453125 0.285156 1 0 1.000000
0  18.098032 -1.613776 51.835598  -0.941501 -0.235974 -0.240609  0.376953 0.191406 1 0 1.000000
0  18.235447 0.773762 52.971397  -0.918151 0.345098 -0.194692  0.343750 0.294922 1 0 1.000000
driver
0  17.734364 -3.992365 55.309067  -0.846712 -0.510232 -0.150805  0.259766 0.126953 1 0 1.000000
0  18.235447 0.773762 52.971397  -0.918151 0.345098 -0.194692  0.343750 0.294922 1 0 1.000000
0  18.098032 -1.613776 51.835598  -0.941501 -0.235974 -0.240609  0.376953 0.191406 1 0 1.000000
driver
0  18.235447 0.773762 52.971397  -0.918151 0.345098 -0.194692  0.343750 0.294922 1 0 1.000000
0  17.734364 -3.992365 55.309067  -0.846712 -0.510232 -0.150805  0.259766 0.126953 1 0 1.000000
0  16.974808 -0.501137 56.892990  -0.998964 -0.003047 -0.045410  0.179688 0.246094 1 0 1.000000
driver
0  17.771584 -4.432339 57.324162  -0.686341 -0.721145 0.094264  0.169922 0.121094 1 0 1.000000
0  16.974808 -0.501137 56.892990  -0.998964 -0.003047 -0.045410  0.179688 0.246094 1 0 1.000000
0  17.734364 -3.992365 55.309067  -0.846712 -0.510232 -0.150805  0.259766 0.126953 1 0 1.000000
driver
0  18.451517 -3.782510 61.004112  -0.717401 -0.359452 0.596766  0.031250 0.125000 1 0 1.000000
0  16.974808 -0.501137 56.892990  -0.998964 -0.003047 -0.045410  0.179688 0.246094 1 0 1.000000
0  17.771584 -4.432339 57.324162  -0.686341 -0.721145 0.094264  0.169922 0.121094 1 0 1.000000
driver
0  18.451517 -3.782510 61.004112  -0.717401 -0.359452 0.596766  0.031250 0.125000 1 0 1.000000
0  17.771584 -4.432339 57.324162  -0.686341 -0.721145 0.094264  0.169922 0.121094 1 0 1.000000
0  20.787262 -4.626369 61.318848  -0.000002 -0.833449 0.552597  0.019531 0.009766 1 0 1.000000
driver
0  20.787262 -1.624633 62.050884  -0.000001 -0.040685 0.999172  0.007812 0.009766 1 0 1.000000
0  18.451517 -3.782510 61.004112  -0.717401 -0.359452 0.596766  0.031250 0.125000 1 0 1.000000
0  20.787262 -4.626369 61.318848  -0.000002 -0.833449 0.552597  0.019531 0.009766 1 0 1.000000
driver
0  20.787262 -4.626369 61.318848  -0.000002 -0.833449 0.552597  0.019531 0.009766 1 0 1.000000
0  23.123005 -3.782508 61.004120  0.717402 -0.359454 0.596764  0.031250 0.125000 1 0 1.000000
0  20.787262 -1.624633 62.050884  -0.000001 -0.040685 0.999172  0.007812 0.009766 1 0 1.000000
driver
0  20.787262 -4.626369 61.318848  -0.000002 -0.833449 0.552597  0.019531 0.009766 1 0 1.000000
0  23.802940 -4.432339 57.324173  0.686341 -0.721145 0.094265  0.169922 0.121094 1 0 1.000000
0  23.123005 -3.782508 61.004120  0.717402 -0.359454 0.596764  0.031250 0.125000 1 0 1.000000
driver
0  23.802940 -4.432339 57.324173  0.686341 -0.721145 0.094265  0.169922 0.121094 1 0 1.000000
0  24.599716 -0.501135 56.892998  0.998964 -0.003049 -0.045411  0.179688 0.246094 1 0 1.000000
0  23.123005 -3.782508 61.004120  0.717402 -0.359454 0.596764  0.031250 0.125000 1 0 1.000000
driver
0  23.840160 -3.992363 55.309074  0.846712 -0.510233 -0.150803  0.259766 0.126953 1 0 1.000000
0  24.599716 -0.501135 56.892998  0.998964 -0.003049 -0.045411  0.179688 0.246094 1 0 1.000000
0  23.802940 -4.432339 57.324173  0.686341 -0.721145 0.094265  0.169922 0.121094 1 0 1.000000
driver
0  24.599716 -0.501135 56.892998  0.998964 -0.003049 -0.045411  0.179688 0.246094 1 0 1.000000
0  23.840160 -3.992363 55.309074  0.846712 -0.510233 -0.150803  0.259766 0.126953 1 0 1.000000
0  23.339075 0.773754 52.971401  0.918150 0.345098 -0.194698  0.343750 0.294922 1 0 1.000000
driver
0  23.476492 -1.613775 51.835609  0.941501 -0.235973 -0.240610  0.376953 0.191406 1 0 1.000000
0  23.339075 0.773754 52.971401  0.918150 0.345098 -0.194698  0.343750 0.294922 1 0 1.000000
0  23.840160 -3.992363 55.309074  0.846712 -0.510233 -0.150803  0.259766 0.126953 1 0 1.000000
driver
0  23.840160 -3.992363 55.309074  0.846712 -0.510233 -0.150803  0.259766 0.126953 1 0 1.000000
0  22.046396 -5.275200 51.453518  0.516898 -0.601068 -0.609536  0.400391 0.052734 1 0 1.000000
0  23.476492 -1.613775 51.835609  0.941501 -0.235973 -0.240610  0.376953 0.191406 1 0 1.000000
driver
0  22.046396 -5.275200 51.453518  0.516898 -0.601068 -0.609536  0.400391 0.052734 1 0 1.000000
0  20.787262 -2.979602 50.926281  -0.000030 -0.802432 -0.596744  0.435547 0.009766 1 0 1.000000
0  23.476492 -1.613775 51.835609  0.941501 -0.235973 -0.240610  0.376953 0.191406 1 0 1.000000
driver
0  20.787262 -2.979602 50.926281  -0.000030 -0.802432 -0.596744  0.435547 0.009766 1 0 1.000000
0  22.046396 -5.275200 51.453518  0.516898 -0.601068 -0.609536  0.400391 0.052734 1 0 1.000000
0  20.787262 -5.442677 51.353416  0.000002 -0.705759 -0.708452  0.410156 0.009766 1 0 1.000000
driver
0  17.452080 0.054713 60.261784  -0.779794 0.113136 0.615728  0.066406 0.263672 1 0 1.000000
0  16.974808 -0.501137 56.892990  -0.998964 -0.003047 -0.045410  0.179688 0.246094 1 0 1.000000
0  18.451517 -3.782510 61.004112  -0.717401 -0.359452 0.596766  0.031250 0.125000 1 0 1.000000
driver
0  23.209032 3.450852 56.912384  0.653552 0.742600 -0.146337  0.193359 0.328125 1 0 1.000000
0  24.599716 -0.501135 56.892998  0.998964 -0.003049 -0.045411  0.179688 0.246094 1 0 1.000000
0  23.339075 0.773754 52.971401  0.918150 0.345098 -0.194698  0.343750 0.294922 1 0 1.000000
driver
0  23.209032 3.450852 56.912384  0.653552 0.742600 -0.146337  0.193359 0.328125 1 0 1.000000
0  24.404972 1.463365 58.470768  0.932394 0.342114 0.116617  0.144531 0.287109 1 0 1.000000
0  24.599716 -0.501135 56.892998  0.998964 -0.003049 -0.045411  0.179688 0.246094 1 0 1.000000
driver
0  20.787262 2.761931 52.896168  0.000072 0.967153 -0.254194  0.359375 0.359375 1 0 1.000000
0  18.243835 0.622925 50.132984  -0.739297 0.406691 0.536697  0.453125 0.285156 1 0 1.000000
0  18.235447 0.773762 52.971397  -0.918151 0.345098 -0.194692  0.343750 0.294922 1 0 1.000000
driver
0  18.235447 0.773762 52.971397  -0.918151 0.345098 -0.194692  0.343750 0.294922 1 0 1.000000
0  18.365492 3.450844 56.912376  -0.653345 0.742786 -0.146320  0.193359 0.328125 1 0 1.000000
0  20.787262 2.761931 52.896168  0.000072 0.967153 -0.254194  0.359375 0.359375 1 0 1.000000
driver
0  18.235447 0.773762 52.971397  -0.918151 0.345098 -0.194692  0.343750 0.294922 1 0 1.000000
0  16.974808 -0.501137 56.892990  -0.998964 -0.003047 -0.045410  0.179688 0.246094 1 0 1.000000
0  18.365492 3.450844 56.912376  -0.653345 0.742786 -0.146320  0.193359 0.328125 1 0 1.000000
driver
0  16.974808 -0.501137 56.892990  -0.998964 -0.003047 -0.045410  0.179688 0.246094 1 0 1.000000
0  17.169552 1.463365 58.470764  -0.932393 0.342115 0.116617  0.144531 0.287109 1 0 1.000000
0  18.365492 3.450844 56.912376  -0.653345 0.742786 -0.146320  0.193359 0.328125 1 0 1.000000
driver
0  17.452080 0.054713 60.261784  -0.779794 0.113136 0.615728  0.066406 0.263672 1 0 1.000000
0  17.169552 1.463365 58.470764  -0.932393 0.342115 0.116617  0.144531 0.287109 1 0 1.000000
0  16.974808 -0.501137 56.892990  -0.998964 -0.003047 -0.045410  0.179688 0.246094 1 0 1.000000
driver
0  18.683426 3.168253 59.775116  -0.596559 0.643745 0.479280  0.097656 0.332031 1 0 1.000000
0  17.169552 1.463365 58.470764  -0.932393 0.342115 0.116617  0.144531 0.287109 1 0 1.000000
0  17.452080 0.054713 60.261784  -0.779794 0.113136 0.615728  0.066406 0.263672 1 0 1.000000
driver
0  18.683426 3.168253 59.775116  -0.596559 0.643745 0.479280  0.097656 0.332031 1 0 1.000000
0  18.365492 3.450844 56.912376  -0.653345 0.742786 -0.146320  0.193359 0.328125 1 0 1.000000
0  17.169552 1.463365 58.470764  -0.932393 0.342115 0.116617  0.144531 0.287109 1 0 1.000000
driver
0  20.789621 4.000873 59.612450  0.000282 0.944923 0.327292  0.111328 0.357422 1 0 1.000000
0  18.365492 3.450844 56.912376  -0.653345 0.742786 -0.146320  0.193359 0.328125 1 0 1.000000
0  18.683426 3.168253 59.775116  -0.596559 0.643745 0.479280  0.097656 0.332031 1 0 1.000000
driver
0  20.789621 4.000873 59.612450  0.000282 0.944923 0.327292  0.111328 0.357422 1 0 1.000000
0  20.789621 4.209276 56.682068  0.000333 0.989302 -0.145881  0.210938 0.357422 1 0 1.000000
0  18.365492 3.450844 56.912376  -0.653345 0.742786 -0.146320  0.193359 0.328125 1 0 1.000000
driver
0  23.209032 3.450852 56.912384  0.653552 0.742600 -0.146337  0.193359 0.328125 1 0 1.000000
0  20.789621 4.209276 56.682068  0.000333 0.989302 -0.145881  0.210938 0.357422 1 0 1.000000
0  20.789621 4.000873 59.612450  0.000282 0.944923 0.327292  0.111328 0.357422 1 0 1.000000
driver
0  20.787262 2.761931 52.896168  0.000072 0.967153 -0.254194  0.359375 0.359375 1 0 1.000000
0  20.789621 4.209276 56.682068  0.000333 0.989302 -0.145881  0.210938 0.357422 1 0 1.000000
0  23.209032 3.450852 56.912384  0.653552 0.742600 -0.146337  0.193359 0.328125 1 0 1.000000
driver
0  20.787262 2.761931 52.896168  0.000072 0.967153 -0.254194  0.359375 0.359375 1 0 1.000000
0  23.209032 3.450852 56.912384  0.653552 0.742600 -0.146337  0.193359 0.328125 1 0 1.000000
0  23.339075 0.773754 52.971401  0.918150 0.345098 -0.194698  0.343750 0.294922 1 0 1.000000
driver
0  23.339075 0.773754 52.971401  0.918150 0.345098 -0.194698  0.343750 0.294922 1 0 1.000000
0  23.330685 0.622917 50.132992  0.739316 0.406645 0.536704  0.453125 0.285156 1 0 1.000000
0  20.787262 2.761931 52.896168  0.000072 0.967153 -0.254194  0.359375 0.359375 1 0 1.000000
driver
0  23.339075 0.773754 52.971401  0.918150 0.345098 -0.194698  0.343750 0.294922 1 0 1.000000
0  23.476492 -1.613775 51.835609  0.941501 -0.235973 -0.240610  0.376953 0.191406 1 0 1.000000
0  23.330685 0.622917 50.132992  0.739316 0.406645 0.536704  0.453125 0.285156 1 0 1.000000
driver
0  23.219517 -2.216891 50.276001  0.361425 -0.525970 0.769888  0.453125 0.177734 1 0 1.000000
0  23.330685 0.622917 50.132992  0.739316 0.406645 0.536704  0.453125 0.285156 1 0 1.000000
0  23.476492 -1.613775 51.835609  0.941501 -0.235973 -0.240610  0.376953 0.191406 1 0 1.000000
driver
0  20.787262 -2.979602 50.926281  -0.000030 -0.802432 -0.596744  0.435547 0.009766 1 0 1.000000
0  23.219517 -2.216891 50.276001  0.361425 -0.525970 0.769888  0.453125 0.177734 1 0 1.000000
0  23.476492 -1.613775 51.835609  0.941501 -0.235973 -0.240610  0.376953 0.191406 1 0 1.000000
driver
0  20.787262 -2.979602 50.926281  -0.000030 -0.802432 -0.596744  0.435547 0.009766 1 0 1.000000
0  20.787262 -3.154865 49.641884  0.000037 -0.805057 0.593197  0.453125 0.009766 1 0 1.000000
0  23.219517 -2.216891 50.276001  0.361425 -0.525970 0.769888  0.453125 0.177734 1 0 1.000000
driver
0  18.355005 -2.216893 50.275997  -0.361425 -0.525970 0.769888  0.453125 0.177734 1 0 1.000000
0  20.787262 -3.154865 49.641884  0.000037 -0.805057 0.593197  0.453125 0.009766 1 0 1.000000
0  20.787262 -2.979602 50.926281  -0.000030 -0.802432 -0.596744  0.435547 0.009766 1 0 1.000000
driver
0  18.365492 3.450844 56.912376  -0.653345 0.742786 -0.146320  0.193359 0.328125 1 0 1.000000
0  20.789621 4.209276 56.682068  0.000333 0.989302 -0.145881  0.210938 0.357422 1 0 1.000000
0  20.787262 2.761931 52.896168  0.000072 0.967153 -0.254194  0.359375 0.359375 1 0 1.000000
driver
0  23.123005 -3.782508 61.004120  0.717402 -0.359454 0.596764  0.031250 0.125000 1 0 1.000000
0  24.599716 -0.501135 56.892998  0.998964 -0.003049 -0.045411  0.179688 0.246094 1 0 1.000000
0  24.122442 0.054715 60.261787  0.779794 0.113135 0.615728  0.066406 0.263672 1 0 1.000000
driver
0  24.599716 -0.501135 56.892998  0.998964 -0.003049 -0.045411  0.179688 0.246094 1 0 1.000000
0  24.404972 1.463365 58.470768  0.932394 0.342114 0.116617  0.144531 0.287109 1 0 1.000000
0  24.122442 0.054715 60.261787  0.779794 0.113135 0.615728  0.066406 0.263672 1 0 1.000000
driver
0  24.122442 0.054715 60.261787  0.779794 0.113135 0.615728  0.066406 0.263672 1 0 1.000000
0  24.404972 1.463365 58.470768  0.932394 0.342114 0.116617  0.144531 0.287109 1 0 1.000000
0  22.891098 3.168253 59.775124  0.596727 0.643581 0.479292  0.097656 0.332031 1 0 1.000000
driver
0  24.404972 1.463365 58.470768  0.932394 0.342114 0.116617  0.144531 0.287109 1 0 1.000000
0  23.209032 3.450852 56.912384  0.653552 0.742600 -0.146337  0.193359 0.328125 1 0 1.000000
0  22.891098 3.168253 59.775124  0.596727 0.643581 0.479292  0.097656 0.332031 1 0 1.000000
driver
0  22.891098 3.168253 59.775124  0.596727 0.643581 0.479292  0.097656 0.332031 1 0 1.000000
0  23.209032 3.450852 56.912384  0.653552 0.742600 -0.146337  0.193359 0.328125 1 0 1.000000
0  20.789621 4.000873 59.612450  0.000282 0.944923 0.327292  0.111328 0.357422 1 0 1.000000
driver
0  20.787262 1.806949 61.800507  0.000064 0.418054 0.908422  0.009766 0.357422 1 0 1.000000
0  22.891098 3.168253 59.775124  0.596727 0.643581 0.479292  0.097656 0.332031 1 0 1.000000
0  20.789621 4.000873 59.612450  0.000282 0.944923 0.327292  0.111328 0.357422 1 0 1.000000
driver
0  20.789621 4.000873 59.612450  0.000282 0.944923 0.327292  0.111328 0.357422 1 0 1.000000
0  18.683426 3.168253 59.775116  -0.596559 0.643745 0.479280  0.097656 0.332031 1 0 1.000000
0  20.787262 1.806949 61.800507  0.000064 0.418054 0.908422  0.009766 0.357422 1 0 1.000000
driver
0  20.787262 1.806949 61.800507  0.000064 0.418054 0.908422  0.009766 0.357422 1 0 1.000000
0  18.683426 3.168253 59.775116  -0.596559 0.643745 0.479280  0.097656 0.332031 1 0 1.000000
0  17.452080 0.054713 60.261784  -0.779794 0.113136 0.615728  0.007812 0.320312 1 0 1.000000
driver
0  24.122442 0.054715 60.261787  0.779794 0.113135 0.615728  0.007812 0.320312 1 0 1.000000
0  22.891098 3.168253 59.775124  0.596727 0.643581 0.479292  0.097656 0.332031 1 0 1.000000
0  20.787262 1.806949 61.800507  0.000064 0.418054 0.908422  0.009766 0.357422 1 0 1.000000
driver
0  17.452080 0.054713 60.261784  -0.779794 0.113136 0.615728  0.007812 0.320312 1 0 1.000000
0  20.787262 -1.624633 62.050884  -0.000001 -0.040685 0.999172  0.066406 0.263672 1 0 1.000000
0  20.787262 1.806949 61.800507  0.000064 0.418054 0.908422  0.097656 0.332031 1 0 1.000000
driver
0  20.787262 1.806949 61.800507  0.000064 0.418054 0.908422  0.097656 0.332031 1 0 1.000000
0  20.787262 -1.624633 62.050884  -0.000001 -0.040685 0.999172  0.066406 0.263672 1 0 1.000000
0  24.122442 0.054715 60.261787  0.779794 0.113135 0.615728  0.007812 0.320312 1 0 1.000000
driver
0  20.787262 -1.624633 62.050884  -0.000001 -0.040685 0.999172  0.031250 0.125000 1 0 1.000000
0  23.123005 -3.782508 61.004120  0.717402 -0.359454 0.596764  0.007812 0.009766 1 0 1.000000
0  24.122442 0.054715 60.261787  0.779794 0.113135 0.615728  0.007812 0.320312 1 0 1.000000
driver
0  17.452080 0.054713 60.261784  -0.779794 0.113136 0.615728  0.007812 0.320312 1 0 1.000000
0  18.451517 -3.782510 61.004112  -0.717401 -0.359452 0.596766  0.007812 0.009766 1 0 1.000000
0  20.787262 -1.624633 62.050884  -0.000001 -0.040685 0.999172  0.031250 0.125000 1 0 1.000000
driver
0  20.787262 2.761931 52.896168  0.000072 0.967153 -0.254194  0.361328 0.359375 1 0 1.000000
0  20.787262 2.826636 49.747524  0.000011 0.890541 0.454902  0.453125 0.357422 1 0 1.000000
0  18.243835 0.622925 50.132984  -0.739297 0.406691 0.536697  0.453125 0.285156 1 0 1.000000
driver
0  23.330685 0.622917 50.132992  0.739316 0.406645 0.536704  0.453125 0.285156 1 0 1.000000
0  20.787262 2.826636 49.747524  0.000011 0.890541 0.454902  0.453125 0.357422 1 0 1.000000
0  20.787262 2.761931 52.896168  0.000072 0.967153 -0.254194  0.361328 0.359375 1 0 1.000000
driver
0  14.332277 -11.103882 31.980356  -0.734426 -0.401304 0.547333  0.066406 0.867188 1 0 1.000000
0  11.727037 -8.203336 27.691322  -0.997971 -0.063234 0.007403  0.072266 0.904297 1 0 1.000000
0  13.107646 -22.729746 30.012232  -0.912620 -0.117315 0.391614  0.136719 0.906250 1 0 1.000000
driver
0  13.107646 -22.729746 30.012232  -0.912620 -0.117315 0.391614  0.136719 0.906250 1 0 1.000000
0  16.459827 -22.788363 32.656921  -0.066681 -0.146734 0.986926  0.150391 0.820312 1 0 1.000000
0  14.332277 -11.103882 31.980356  -0.734426 -0.401304 0.547333  0.066406 0.867188 1 0 1.000000
driver
0  16.459827 -22.788363 32.656921  -0.066681 -0.146734 0.986926  0.150391 0.820312 1 0 1.000000
0  20.787262 -12.217456 33.062233  0.000002 -0.653446 0.756973  0.046875 0.820312 1 0 1.000000
0  14.332277 -11.103882 31.980356  -0.734426 -0.401304 0.547333  0.066406 0.867188 1 0 1.000000
driver
0  25.114693 -22.788363 32.656921  0.066677 -0.146731 0.986927  0.150391 0.820312 1 0 1.000000
0  20.787260 -23.320238 29.466663  0.000000 -0.270015 0.962856  0.101562 0.703125 1 0 1.000000
0  25.399115 -26.290676 31.938780  0.087001 -0.302550 0.949155  0.246094 0.822266 1 0 1.000000
driver
0  20.787329 -44.027149 24.185555  -0.000003 -0.348749 0.937216  0.460938 0.822266 1 0 1.000000
0  25.399115 -26.290676 31.938780  0.087001 -0.302550 0.949155  0.246094 0.822266 1 0 1.000000
0  20.787260 -23.320238 29.466663  0.000000 -0.270015 0.962856  0.101562 0.703125 1 0 1.000000
driver
0  25.528849 -43.193798 23.855177  0.711605 -0.340160 0.614744  0.460938 0.904297 1 0 1.000000
0  25.399115 -26.290676 31.938780  0.087001 -0.302550 0.949155  0.246094 0.822266 1 0 1.000000
0  20.787329 -44.027149 24.185555  -0.000003 -0.348749 0.937216  0.460938 0.822266 1 0 1.000000
driver
0  25.399115 -26.290676 31.938780  0.087001 -0.302550 0.949155  0.246094 0.822266 1 0 1.000000
0  25.528849 -43.193798 23.855177  0.711605 -0.340160 0.614744  0.460938 0.904297 1 0 1.000000
0  28.466873 -22.729744 30.012230  0.912605 -0.117282 0.391658  0.136719 0.906250 1 0 1.000000
driver
0  28.466873 -22.729744 30.012230  0.912605 -0.117282 0.391658  0.136719 0.906250 1 0 1.000000
0  25.114693 -22.788363 32.656921  0.066677 -0.146731 0.986927  0.150391 0.820312 1 0 1.000000
0  25.399115 -26.290676 31.938780  0.087001 -0.302550 0.949155  0.246094 0.822266 1 0 1.000000
driver
0  27.242245 -11.103882 31.980352  0.734426 -0.401307 0.547331  0.066406 0.867188 1 0 1.000000
0  25.114693 -22.788363 32.656921  0.066677 -0.146731 0.986927  0.150391 0.820312 1 0 1.000000
0  28.466873 -22.729744 30.012230  0.912605 -0.117282 0.391658  0.136719 0.906250 1 0 1.000000
driver
0  27.242245 -11.103882 31.980352  0.734426 -0.401307 0.547331  0.066406 0.867188 1 0 1.000000
0  20.787262 -12.217456 33.062233  0.000002 -0.653446 0.756973  0.046875 0.820312 1 0 1.000000
0  25.114693 -22.788363 32.656921  0.066677 -0.146731 0.986927  0.150391 0.820312 1 0 1.000000
driver
0  25.114693 -22.788363 32.656921  0.066677 -0.146731 0.986927  0.150391 0.820312 1 0 1.000000
0  20.787262 -12.217456 33.062233  0.000002 -0.653446 0.756973  0.046875 0.820312 1 0 1.000000
0  20.787260 -23.320238 29.466663  0.000000 -0.270015 0.962856  0.101562 0.703125 1 0 1.000000
driver
0  20.787260 -23.320238 29.466663  0.000000 -0.270015 0.962856  0.101562 0.703125 1 0 1.000000
0  20.787262 -12.217456 33.062233  0.000002 -0.653446 0.756973  0.046875 0.820312 1 0 1.000000
0  16.459827 -22.788363 32.656921  -0.066681 -0.146734 0.986926  0.150391 0.820312 1 0 1.000000
driver
0  16.175406 -26.290676 31.938780  -0.087003 -0.302553 0.949153  0.246094 0.822266 1 0 1.000000
0  20.787260 -23.320238 29.466663  0.000000 -0.270015 0.962856  0.101562 0.703125 1 0 1.000000
0  16.459827 -22.788363 32.656921  -0.066681 -0.146734 0.986926  0.150391 0.820312 1 0 1.000000
driver
0  16.175406 -26.290676 31.938780  -0.087003 -0.302553 0.949153  0.246094 0.822266 1 0 1.000000
0  16.459827 -22.788363 32.656921  -0.066681 -0.146734 0.986926  0.150391 0.820312 1 0 1.000000
0  13.107646 -22.729746 30.012232  -0.912620 -0.117315 0.391614  0.136719 0.906250 1 0 1.000000
driver
0  13.107646 -22.729746 30.012232  -0.912620 -0.117315 0.391614  0.136719 0.906250 1 0 1.000000
0  16.045736 -43.193798 23.855177  -0.711593 -0.340148 0.614764  0.460938 0.904297 1 0 1.000000
0  16.175406 -26.290676 31.938780  -0.087003 -0.302553 0.949153  0.246094 0.822266 1 0 1.000000
driver
0  20.787329 -44.027149 24.185555  -0.000003 -0.348749 0.937216  0.460938 0.822266 1 0 1.000000
0  16.175406 -26.290676 31.938780  -0.087003 -0.302553 0.949153  0.246094 0.822266 1 0 1.000000
0  16.045736 -43.193798 23.855177  -0.711593 -0.340148 0.614764  0.460938 0.904297 1 0 1.000000
driver
0  20.787260 -23.320238 29.466663  0.000000 -0.270015 0.962856  0.101562 0.703125 1 0 1.000000
0  16.175406 -26.290676 31.938780  -0.087003 -0.302553 0.949153  0.246094 0.822266 1 0 1.000000
0  20.787329 -44.027149 24.185555  -0.000003 -0.348749 0.937216  0.460938 0.822266 1 0 1.000000
driver
0  28.466873 -22.729744 30.012230  0.912605 -0.117282 0.391658  0.136719 0.906250 1 0 1.000000
0  29.847481 -8.203334 27.691320  0.997972 -0.063216 0.007406  0.072266 0.904297 1 0 1.000000
0  27.242245 -11.103882 31.980352  0.734426 -0.401307 0.547331  0.066406 0.867188 1 0 1.000000
driver
0  12.044953 -10.161130 37.985207  0.563527 -0.039305 -0.825162  0.539062 0.046875 1 0 1.000000
0  12.138213 -5.294444 39.501118  -0.660433 0.064043 -0.748149  0.761719 0.046875 1 0 1.000000
0  15.793296 -8.082436 42.744740  0.162121 -0.963772 0.211805  0.761719 0.046875 1 0 1.000000
driver
0  12.138213 -5.294444 39.501118  -0.660433 0.064043 -0.748149  0.761719 0.046875 1 0 1.000000
0  14.332277 -11.103882 31.980356  -0.734426 -0.401304 0.547333  0.589844 0.169922 1 0 1.000000
0  15.793296 -8.082436 42.744740  0.162121 -0.963772 0.211805  0.761719 0.046875 1 0 1.000000
driver
0  15.793296 -8.082436 42.744740  0.162121 -0.963772 0.211805  0.761719 0.046875 1 0 1.000000
0  14.332277 -11.103882 31.980356  -0.734426 -0.401304 0.547333  0.589844 0.169922 1 0 1.000000
0  20.787262 -12.217456 33.062233  0.000002 -0.653446 0.756973  0.589844 0.378906 1 0 1.000000
driver
0  14.332277 -11.103882 31.980356  -0.734426 -0.401304 0.547333  0.589844 0.169922 1 0 1.000000
0  12.138213 -5.294444 39.501118  -0.660433 0.064043 -0.748149  0.761719 0.046875 1 0 1.000000
0  11.663243 -6.023169 29.879261  -0.999124 0.038955 -0.015262  0.589844 0.048828 1 0 1.000000
driver
0  12.863767 -0.532952 49.197144  -0.430793 0.061005 0.900387  0.996094 0.064453 1 0 1.000000
0  18.355005 -2.216893 50.275997  -0.361425 -0.525970 0.769888  0.919922 0.330078 1 0 1.000000
0  18.243835 0.622925 50.132984  -0.739297 0.406691 0.536697  0.955078 0.269531 1 0 1.000000
driver
0  18.355005 -2.216893 50.275997  -0.361425 -0.525970 0.769888  0.919922 0.330078 1 0 1.000000
0  12.863767 -0.532952 49.197144  -0.430793 0.061005 0.900387  0.996094 0.064453 1 0 1.000000
0  14.268554 -5.413027 49.272034  0.069927 -0.592281 0.802691  0.943359 0.060547 1 0 1.000000
driver
0  14.268554 -5.413027 49.272034  0.069927 -0.592281 0.802691  0.943359 0.060547 1 0 1.000000
0  20.787262 -6.565407 47.926067  -0.000002 -0.737374 0.675485  0.863281 0.378906 1 0 1.000000
0  18.355005 -2.216893 50.275997  -0.361425 -0.525970 0.769888  0.919922 0.330078 1 0 1.000000
driver
0  15.793296 -8.082436 42.744740  0.162121 -0.963772 0.211805  0.761719 0.046875 1 0 1.000000
0  20.787262 -6.565407 47.926067  -0.000002 -0.737374 0.675485  0.863281 0.378906 1 0 1.000000
0  14.268554 -5.413027 49.272034  0.069927 -0.592281 0.802691  0.943359 0.060547 1 0 1.000000
driver
0  20.787262 -12.217456 33.062233  0.000002 -0.653446 0.756973  0.589844 0.378906 1 0 1.000000
0  20.787262 -6.565407 47.926067  -0.000002 -0.737374 0.675485  0.863281 0.378906 1 0 1.000000
0  15.793296 -8.082436 42.744740  0.162121 -0.963772 0.211805  0.761719 0.046875 1 0 1.000000
driver
0  25.781225 -8.082436 42.744747  -0.260577 -0.938290 0.227401  0.761719 0.046875 1 0 1.000000
0  20.787262 -6.565407 47.926067  -0.000002 -0.737374 0.675485  0.863281 0.378906 1 0 1.000000
0  20.787262 -12.217456 33.062233  0.000002 -0.653446 0.756973  0.589844 0.378906 1 0 1.000000
driver
0  20.787262 -12.217456 33.062233  0.000002 -0.653446 0.756973  0.589844 0.378906 1 0 1.000000
0  27.242245 -11.103882 31.980352  0.734426 -0.401307 0.547331  0.589844 0.169922 1 0 1.000000
0  25.781225 -8.082436 42.744747  -0.260577 -0.938290 0.227401  0.761719 0.046875 1 0 1.000000
driver
0  25.781225 -8.082436 42.744747  -0.260577 -0.938290 0.227401  0.761719 0.046875 1 0 1.000000
0  27.242245 -11.103882 31.980352  0.734426 -0.401307 0.547331  0.589844 0.169922 1 0 1.000000
0  29.436373 -5.294443 39.501122  0.677119 0.100520 -0.728975  0.761719 0.046875 1 0 1.000000
driver
0  29.911343 -6.023169 29.879259  0.999124 0.038959 -0.015274  0.589844 0.048828 1 0 1.000000
0  29.436373 -5.294443 39.501122  0.677119 0.100520 -0.728975  0.761719 0.046875 1 0 1.000000
0  27.242245 -11.103882 31.980352  0.734426 -0.401307 0.547331  0.589844 0.169922 1 0 1.000000
driver
0  25.781225 -8.082436 42.744747  -0.260577 -0.938290 0.227401  0.761719 0.046875 1 0 1.000000
0  29.436373 -5.294443 39.501122  0.677119 0.100520 -0.728975  0.761719 0.046875 1 0 1.000000
0  28.438046 -10.161128 37.985199  -0.656315 0.067526 -0.751459  0.539062 0.046875 1 0 1.000000
driver
0  27.305969 -5.413026 49.272041  -0.044722 -0.579000 0.814100  0.943359 0.060547 1 0 1.000000
0  20.787262 -6.565407 47.926067  -0.000002 -0.737374 0.675485  0.863281 0.378906 1 0 1.000000
0  25.781225 -8.082436 42.744747  -0.260577 -0.938290 0.227401  0.761719 0.046875 1 0 1.000000
driver
0  23.219517 -2.216891 50.276001  0.361425 -0.525970 0.769888  0.919922 0.330078 1 0 1.000000
0  20.787262 -6.565407 47.926067  -0.000002 -0.737374 0.675485  0.863281 0.378906 1 0 1.000000
0  27.305969 -5.413026 49.272041  -0.044722 -0.579000 0.814100  0.943359 0.060547 1 0 1.000000
driver
0  20.787262 -6.565407 47.926067  -0.000002 -0.737374 0.675485  0.863281 0.378906 1 0 1.000000
0  23.219517 -2.216891 50.276001  0.361425 -0.525970 0.769888  0.919922 0.330078 1 0 1.000000
0  20.787262 -3.154865 49.641884  0.000037 -0.805057 0.593197  0.916016 0.378906 1 0 1.000000
driver
0  20.787262 -3.154865 49.641884  0.000037 -0.805057 0.593197  0.916016 0.378906 1 0 1.000000
0  18.355005 -2.216893 50.275997  -0.361425 -0.525970 0.769888  0.919922 0.330078 1 0 1.000000
0  20.787262 -6.565407 47.926067  -0.000002 -0.737374 0.675485  0.863281 0.378906 1 0 1.000000
driver
0  27.305969 -5.413026 49.272041  -0.044722 -0.579000 0.814100  0.943359 0.060547 1 0 1.000000
0  28.710754 -0.532949 49.197151  0.450745 0.044483 0.891544  0.996094 0.064453 1 0 1.000000
0  23.219517 -2.216891 50.276001  0.361425 -0.525970 0.769888  0.919922 0.330078 1 0 1.000000
driver
0  23.330685 0.622917 50.132992  0.739316 0.406645 0.536704  0.955078 0.269531 1 0 1.000000
0  23.219517 -2.216891 50.276001  0.361425 -0.525970 0.769888  0.919922 0.330078 1 0 1.000000
0  28.710754 -0.532949 49.197151  0.450745 0.044483 0.891544  0.996094 0.064453 1 0 1.000000
driver
0  27.600918 -23.212626 24.665312  0.969310 -0.055335 -0.239533  0.531250 0.921875 1 0 1.000000
0  27.200424 -4.110009 21.132685  0.942920 0.154580 -0.294970  0.484375 0.919922 1 0 1.000000
0  29.847481 -8.203334 27.691320  0.997972 -0.063216 0.007406  0.496094 0.984375 1 0 1.000000
driver
0  29.847481 -8.203334 27.691320  0.997972 -0.063216 0.007406  0.496094 0.984375 1 0 1.000000
0  28.466873 -22.729744 30.012230  0.912605 -0.117282 0.391658  0.496094 0.984375 1 0 1.000000
0  27.600918 -23.212626 24.665312  0.969310 -0.055335 -0.239533  0.531250 0.921875 1 0 1.000000
driver
0  28.466873 -22.729744 30.012230  0.912605 -0.117282 0.391658  0.496094 0.984375 1 0 1.000000
0  26.456955 -41.184090 16.762423  0.996001 -0.080178 -0.039420  0.984375 0.921875 1 0 1.000000
0  27.600918 -23.212626 24.665312  0.969310 -0.055335 -0.239533  0.531250 0.921875 1 0 1.000000
driver
0  28.466873 -22.729744 30.012230  0.912605 -0.117282 0.391658  0.496094 0.984375 1 0 1.000000
0  25.528849 -43.193798 23.855177  0.711605 -0.340160 0.614744  0.984375 0.984375 1 0 1.000000
0  26.456955 -41.184090 16.762423  0.996001 -0.080178 -0.039420  0.984375 0.921875 1 0 1.000000
driver
0  32.468506 -11.018736 38.999859  0.468768 0.002655 -0.883317  0.703125 0.406250 1 0 1.000000
0  33.690807 -11.954823 41.297668  0.969539 -0.201954 -0.138592  0.712891 0.501953 1 0 1.000000
0  29.680544 -22.908634 40.779228  0.145443 -0.286177 -0.947074  0.492188 0.406250 1 0 1.000000
driver
0  32.468506 -11.018736 38.999859  0.468768 0.002655 -0.883317  0.703125 0.406250 1 0 1.000000
0  32.115841 -9.574843 39.512688  0.666399 0.297426 -0.683703  0.738281 0.406250 1 0 1.000000
0  33.690807 -11.954823 41.297668  0.969539 -0.201954 -0.138592  0.712891 0.501953 1 0 1.000000
driver
0  33.888912 -10.127059 41.934666  0.993013 0.030564 0.113977  0.738281 0.501953 1 0 1.000000
0  33.690807 -11.954823 41.297668  0.969539 -0.201954 -0.138592  0.712891 0.501953 1 0 1.000000
0  32.115841 -9.574843 39.512688  0.666399 0.297426 -0.683703  0.738281 0.406250 1 0 1.000000
driver
0  33.888912 -10.127059 41.934666  0.993013 0.030564 0.113977  0.738281 0.501953 1 0 1.000000
0  30.935772 -12.219856 45.024353  0.412886 -0.211150 0.885969  0.744141 0.576172 1 0 1.000000
0  33.690807 -11.954823 41.297668  0.969539 -0.201954 -0.138592  0.712891 0.501953 1 0 1.000000
driver
0  31.333117 -22.398565 41.831490  0.991961 -0.047280 0.117379  0.492188 0.501953 1 0 1.000000
0  33.690807 -11.954823 41.297668  0.969539 -0.201954 -0.138592  0.712891 0.501953 1 0 1.000000
0  30.935772 -12.219856 45.024353  0.412886 -0.211150 0.885969  0.744141 0.576172 1 0 1.000000
driver
0  30.935772 -12.219856 45.024353  0.412886 -0.211150 0.885969  0.744141 0.576172 1 0 1.000000
0  29.412188 -21.761274 43.945251  -0.031052 0.248143 0.968226  0.492188 0.576172 1 0 1.000000
0  31.333117 -22.398565 41.831490  0.991961 -0.047280 0.117379  0.492188 0.501953 1 0 1.000000
driver
0  31.333117 -22.398565 41.831490  0.991961 -0.047280 0.117379  0.492188 0.501953 1 0 1.000000
0  29.680544 -22.908634 40.779228  0.145443 -0.286177 -0.947074  0.492188 0.406250 1 0 1.000000
0  33.690807 -11.954823 41.297668  0.969539 -0.201954 -0.138592  0.712891 0.501953 1 0 1.000000
driver
0  32.115841 -9.574843 39.512688  0.666399 0.297426 -0.683703  0.738281 0.738281 1 0 1.000000
0  32.468506 -11.018736 38.999859  0.468768 0.002655 -0.883317  0.708984 0.738281 1 0 1.000000
0  29.531240 -9.538734 39.265053  -0.450347 0.072772 -0.889883  0.738281 0.687500 1 0 1.000000
driver
0  32.468506 -11.018736 38.999859  0.468768 0.002655 -0.883317  0.708984 0.738281 1 0 1.000000
0  29.680544 -22.908634 40.779228  0.145443 -0.286177 -0.947074  0.490234 0.738281 1 0 1.000000
0  29.531240 -9.538734 39.265053  -0.450347 0.072772 -0.889883  0.738281 0.687500 1 0 1.000000
driver
0  29.680544 -22.908634 40.779228  0.145443 -0.286177 -0.947074  0.490234 0.738281 1 0 1.000000
0  27.928997 -22.228132 42.778191  -0.868629 0.159757 0.469001  0.492188 0.628906 1 0 1.000000
0  29.531240 -9.538734 39.265053  -0.450347 0.072772 -0.889883  0.738281 0.687500 1 0 1.000000
driver
0  27.928997 -22.228132 42.778191  -0.868629 0.159757 0.469001  0.492188 0.628906 1 0 1.000000
0  28.455776 -11.847084 42.292133  -0.943949 -0.152947 0.292519  0.742188 0.632812 1 0 1.000000
0  29.531240 -9.538734 39.265053  -0.450347 0.072772 -0.889883  0.738281 0.687500 1 0 1.000000
driver
0  27.928997 -22.228132 42.778191  -0.868629 0.159757 0.469001  0.492188 0.628906 1 0 1.000000
0  29.412188 -21.761274 43.945251  -0.031052 0.248143 0.968226  0.492188 0.576172 1 0 1.000000
0  28.455776 -11.847084 42.292133  -0.943949 -0.152947 0.292519  0.742188 0.632812 1 0 1.000000
driver
0  30.935772 -12.219856 45.024353  0.412886 -0.211150 0.885969  0.744141 0.576172 1 0 1.000000
0  28.455776 -11.847084 42.292133  -0.943949 -0.152947 0.292519  0.742188 0.632812 1 0 1.000000
0  29.412188 -21.761274 43.945251  -0.031052 0.248143 0.968226  0.492188 0.576172 1 0 1.000000
driver
0  28.455776 -11.847084 42.292133  -0.943949 -0.152947 0.292519  0.742188 0.632812 1 0 1.000000
0  30.935772 -12.219856 45.024353  0.412886 -0.211150 0.885969  0.744141 0.576172 1 0 1.000000
0  27.305969 -5.413026 49.272041  -0.044722 -0.579000 0.814100  0.958984 0.628906 1 0 1.000000
driver
0  28.710754 -0.532949 49.197151  0.450745 0.044483 0.891544  0.982422 0.576172 1 0 1.000000
0  27.305969 -5.413026 49.272041  -0.044722 -0.579000 0.814100  0.958984 0.628906 1 0 1.000000
0  30.935772 -12.219856 45.024353  0.412886 -0.211150 0.885969  0.744141 0.576172 1 0 1.000000
driver
0  27.305969 -5.413026 49.272041  -0.044722 -0.579000 0.814100  0.958984 0.628906 1 0 1.000000
0  25.781225 -8.082436 42.744747  -0.260577 -0.938290 0.227401  0.876953 0.748047 1 0 1.000000
0  28.455776 -11.847084 42.292133  -0.943949 -0.152947 0.292519  0.742188 0.632812 1 0 1.000000
driver
0  28.438046 -10.161128 37.985199  -0.656315 0.067526 -0.751459  0.744141 0.687500 1 0 1.000000
0  28.455776 -11.847084 42.292133  -0.943949 -0.152947 0.292519  0.742188 0.632812 1 0 1.000000
0  25.781225 -8.082436 42.744747  -0.260577 -0.938290 0.227401  0.990234 0.671875 1 0 1.000000
driver
0  28.710754 -0.532949 49.197151  0.450745 0.044483 0.891544  0.982422 0.576172 1 0 1.000000
0  30.935772 -12.219856 45.024353  0.412886 -0.211150 0.885969  0.744141 0.576172 1 0 1.000000
0  30.830545 1.879334 46.351917  0.873339 0.419613 0.247395  0.988281 0.501953 1 0 1.000000
driver
0  33.888912 -10.127059 41.934666  0.993013 0.030564 0.113977  0.744141 0.501953 1 0 1.000000
0  30.830545 1.879334 46.351917  0.873339 0.419613 0.247395  0.988281 0.501953 1 0 1.000000
0  30.935772 -12.219856 45.024353  0.412886 -0.211150 0.885969  0.744141 0.576172 1 0 1.000000
driver
0  30.830545 1.879334 46.351917  0.873339 0.419613 0.247395  0.988281 0.501953 1 0 1.000000
0  33.888912 -10.127059 41.934666  0.993013 0.030564 0.113977  0.744141 0.501953 1 0 1.000000
0  32.231270 -9.293039 38.454826  0.589119 0.403942 -0.699835  0.744141 0.414062 1 0 1.000000
driver
0  32.231270 -9.293039 38.454826  0.589119 0.403942 -0.699835  0.744141 0.414062 1 0 1.000000
0  28.508450 1.963325 41.686611  0.639164 0.669775 -0.377983  0.960938 0.414062 1 0 1.000000
0  30.830545 1.879334 46.351917  0.873339 0.419613 0.247395  0.988281 0.501953 1 0 1.000000
driver
0  28.438046 -10.161128 37.985199  -0.656315 0.067526 -0.751459  0.744141 0.687500 1 0 1.000000
0  29.436373 -5.294443 39.501122  0.677119 0.100520 -0.728975  0.984375 0.691406 1 0 1.000000
0  32.231270 -9.293039 38.454826  0.589119 0.403942 -0.699835  0.744141 0.738281 1 0 1.000000
driver
0  28.508450 1.963325 41.686611  0.639164 0.669775 -0.377983  0.960938 0.738281 1 0 1.000000
0  32.231270 -9.293039 38.454826  0.589119 0.403942 -0.699835  0.744141 0.738281 1 0 1.000000
0  29.436373 -5.294443 39.501122  0.677119 0.100520 -0.728975  0.984375 0.691406 1 0 1.000000
driver
0  11.645405 -28.650871 43.055794  -0.709504 -0.701409 -0.068044  0.439453 0.996094 1 0 1.000000
0  11.163898 -27.432280 43.070095  -0.724874 -0.243390 -0.644453  0.382812 0.998047 1 0 1.000000
0  11.902412 -28.134926 42.512516  -0.734749 -0.283093 -0.616443  0.445312 0.998047 1 0 1.000000
driver
0  11.163898 -27.432280 43.070095  -0.724874 -0.243390 -0.644453  0.382812 0.998047 1 0 1.000000
0  11.645405 -28.650871 43.055794  -0.709504 -0.701409 -0.068044  0.439453 0.996094 1 0 1.000000
0  10.711752 -27.754768 43.673885  -0.857157 -0.514970 0.009350  0.392578 0.998047 1 0 1.000000
driver
0  10.711752 -27.754768 43.673885  -0.857157 -0.514970 0.009350  0.392578 0.998047 1 0 1.000000
0  10.973279 -26.473995 43.023994  -0.703145 -0.141558 -0.696813  0.337891 0.998047 1 0 1.000000
0  11.163898 -27.432280 43.070095  -0.724874 -0.243390 -0.644453  0.382812 0.998047 1 0 1.000000
driver
0  10.973279 -26.473995 43.023994  -0.703145 -0.141558 -0.696813  0.337891 0.998047 1 0 1.000000
0  10.711752 -27.754768 43.673885  -0.857157 -0.514970 0.009350  0.392578 0.998047 1 0 1.000000
0  10.076803 -26.326866 43.850548  -0.969714 -0.123720 -0.210592  0.337891 0.998047 1 0 1.000000
driver
0  10.076803 -26.326866 43.850548  -0.969714 -0.123720 -0.210592  0.337891 0.998047 1 0 1.000000
0  12.065454 -23.196585 41.882648  -0.275080 -0.292048 -0.915991  0.222656 0.998047 1 0 1.000000
0  10.973279 -26.473995 43.023994  -0.703145 -0.141558 -0.696813  0.337891 0.998047 1 0 1.000000
driver
0  12.065454 -23.196585 41.882648  -0.275080 -0.292048 -0.915991  0.222656 0.998047 1 0 1.000000
0  10.076803 -26.326866 43.850548  -0.969714 -0.123720 -0.210592  0.337891 0.998047 1 0 1.000000
0  10.572305 -22.727123 43.166718  -0.962478 -0.072850 0.261400  0.222656 0.992188 1 0 1.000000
driver
0  12.891479 -25.809406 46.204285  -0.041892 0.061455 0.997230  0.333984 0.917969 1 0 1.000000
0  10.572305 -22.727123 43.166718  -0.962478 -0.072850 0.261400  0.222656 0.992188 1 0 1.000000
0  10.076803 -26.326866 43.850548  -0.969714 -0.123720 -0.210592  0.337891 0.998047 1 0 1.000000
driver
0  10.572305 -22.727123 43.166718  -0.962478 -0.072850 0.261400  0.222656 0.992188 1 0 1.000000
0  12.891479 -25.809406 46.204285  -0.041892 0.061455 0.997230  0.333984 0.917969 1 0 1.000000
0  12.765115 -22.036650 44.977356  0.166295 0.251184 0.953547  0.220703 0.927734 1 0 1.000000
driver
0  12.891479 -25.809406 46.204285  -0.041892 0.061455 0.997230  0.333984 0.917969 1 0 1.000000
0  14.072856 -22.467247 43.604645  0.923544 0.183194 0.336908  0.220703 0.917969 1 0 1.000000
0  12.765115 -22.036650 44.977356  0.166295 0.251184 0.953547  0.220703 0.927734 1 0 1.000000
driver
0  14.072856 -22.467247 43.604645  0.923544 0.183194 0.336908  0.220703 0.917969 1 0 1.000000
0  12.891479 -25.809406 46.204285  -0.041892 0.061455 0.997230  0.333984 0.917969 1 0 1.000000
0  13.963316 -25.919817 45.042210  0.647826 0.210716 0.732065  0.335938 0.916016 1 0 1.000000
driver
0  13.576833 -27.608145 45.764488  0.147341 -0.355765 0.922888  0.400391 0.917969 1 0 1.000000
0  13.963316 -25.919817 45.042210  0.647826 0.210716 0.732065  0.335938 0.916016 1 0 1.000000
0  12.891479 -25.809406 46.204285  -0.041892 0.061455 0.997230  0.333984 0.917969 1 0 1.000000
driver
0  13.963316 -25.919817 45.042210  0.647826 0.210716 0.732065  0.335938 0.916016 1 0 1.000000
0  13.576833 -27.608145 45.764488  0.147341 -0.355765 0.922888  0.400391 0.917969 1 0 1.000000
0  14.007883 -27.129131 45.387936  0.634437 0.085259 0.768258  0.382812 0.917969 1 0 1.000000
driver
0  14.531628 -28.615803 44.851715  0.462041 -0.336525 0.820530  0.441406 0.919922 1 0 1.000000
0  14.007883 -27.129131 45.387936  0.634437 0.085259 0.768258  0.382812 0.917969 1 0 1.000000
0  13.576833 -27.608145 45.764488  0.147341 -0.355765 0.922888  0.400391 0.917969 1 0 1.000000
driver
0  14.007883 -27.129131 45.387936  0.634437 0.085259 0.768258  0.382812 0.917969 1 0 1.000000
0  14.531628 -28.615803 44.851715  0.462041 -0.336525 0.820530  0.441406 0.919922 1 0 1.000000
0  14.700385 -28.293509 44.657642  0.739604 0.017883 0.672805  0.445312 0.917969 1 0 1.000000
driver
0  13.576833 -27.608145 45.764488  0.147341 -0.355765 0.922888  0.400391 0.917969 1 0 1.000000
0  11.645405 -28.650871 43.055794  -0.709504 -0.701409 -0.068044  0.439453 0.996094 1 0 1.000000
0  14.531628 -28.615803 44.851715  0.462041 -0.336525 0.820530  0.441406 0.919922 1 0 1.000000
driver
0  11.645405 -28.650871 43.055794  -0.709504 -0.701409 -0.068044  0.439453 0.996094 1 0 1.000000
0  13.576833 -27.608145 45.764488  0.147341 -0.355765 0.922888  0.400391 0.917969 1 0 1.000000
0  10.711752 -27.754768 43.673885  -0.857157 -0.514970 0.009350  0.392578 0.998047 1 0 1.000000
driver
0  12.891479 -25.809406 46.204285  -0.041892 0.061455 0.997230  0.333984 0.917969 1 0 1.000000
0  10.711752 -27.754768 43.673885  -0.857157 -0.514970 0.009350  0.392578 0.998047 1 0 1.000000
0  13.576833 -27.608145 45.764488  0.147341 -0.355765 0.922888  0.400391 0.917969 1 0 1.000000
driver
0  10.711752 -27.754768 43.673885  -0.857157 -0.514970 0.009350  0.392578 0.998047 1 0 1.000000
0  12.891479 -25.809406 46.204285  -0.041892 0.061455 0.997230  0.333984 0.917969 1 0 1.000000
0  10.076803 -26.326866 43.850548  -0.969714 -0.123720 -0.210592  0.337891 0.998047 1 0 1.000000
driver
0  11.727037 -8.203336 27.691322  -0.997971 -0.063234 0.007403  0.496094 0.984375 1 0 1.000000
0  14.374092 -4.110012 21.132685  -0.942918 0.154585 -0.294973  0.484375 0.919922 1 0 1.000000
0  13.973600 -23.212627 24.665314  -0.969310 -0.055384 -0.239520  0.531250 0.921875 1 0 1.000000
driver
0  13.973600 -23.212627 24.665314  -0.969310 -0.055384 -0.239520  0.531250 0.921875 1 0 1.000000
0  13.107646 -22.729746 30.012232  -0.912620 -0.117315 0.391614  0.496094 0.984375 1 0 1.000000
0  11.727037 -8.203336 27.691322  -0.997971 -0.063234 0.007403  0.496094 0.984375 1 0 1.000000
driver
0  13.973600 -23.212627 24.665314  -0.969310 -0.055384 -0.239520  0.531250 0.921875 1 0 1.000000
0  15.117561 -41.184090 16.762424  -0.996000 -0.080186 -0.039415  0.984375 0.921875 1 0 1.000000
0  13.107646 -22.729746 30.012232  -0.912620 -0.117315 0.391614  0.496094 0.984375 1 0 1.000000
driver
0  15.117561 -41.184090 16.762424  -0.996000 -0.080186 -0.039415  0.984375 0.921875 1 0 1.000000
0  16.045736 -43.193798 23.855177  -0.711593 -0.340148 0.614764  0.984375 0.984375 1 0 1.000000
0  13.107646 -22.729746 30.012232  -0.912620 -0.117315 0.391614  0.496094 0.984375 1 0 1.000000
driver
0  27.613302 -28.066654 43.900707  -0.633074 -0.000101 0.774091  0.445312 0.917969 1 0 1.000000
0  27.817091 -28.384109 44.067329  -0.328051 -0.346892 0.878663  0.441406 0.919922 1 0 1.000000
0  28.375023 -26.883375 44.523815  -0.516941 0.070253 0.853134  0.382812 0.917969 1 0 1.000000
driver
0  28.868845 -27.350374 44.832222  -0.001288 -0.357694 0.933838  0.400391 0.917969 1 0 1.000000
0  28.375023 -26.883375 44.523815  -0.516941 0.070253 0.853134  0.382812 0.917969 1 0 1.000000
0  27.817091 -28.384109 44.067329  -0.328051 -0.346892 0.878663  0.441406 0.919922 1 0 1.000000
driver
0  27.817091 -28.384109 44.067329  -0.328051 -0.346892 0.878663  0.441406 0.919922 1 0 1.000000
0  30.408899 -28.348007 41.867790  0.709760 -0.682961 -0.172640  0.439453 0.996094 1 0 1.000000
0  28.868845 -27.350374 44.832222  -0.001288 -0.357694 0.933838  0.400391 0.917969 1 0 1.000000
driver
0  31.399445 -27.427164 42.344044  0.862287 -0.492637 -0.117348  0.392578 0.998047 1 0 1.000000
0  28.868845 -27.350374 44.832222  -0.001288 -0.357694 0.933838  0.400391 0.917969 1 0 1.000000
0  30.408899 -28.348007 41.867790  0.709760 -0.682961 -0.172640  0.439453 0.996094 1 0 1.000000
driver
0  31.399445 -27.427164 42.344044  0.862287 -0.492637 -0.117348  0.392578 0.998047 1 0 1.000000
0  30.408899 -28.348007 41.867790  0.709760 -0.682961 -0.172640  0.439453 0.996094 1 0 1.000000
0  30.855499 -27.117350 41.813675  0.628656 -0.225789 -0.744185  0.382812 0.998047 1 0 1.000000
driver
0  30.855499 -27.117350 41.813675  0.628656 -0.225789 -0.744185  0.382812 0.998047 1 0 1.000000
0  31.012505 -26.154552 41.741966  0.596857 -0.124683 -0.792601  0.337891 0.998047 1 0 1.000000
0  31.399445 -27.427164 42.344044  0.862287 -0.492637 -0.117348  0.392578 0.998047 1 0 1.000000
driver
0  32.016338 -25.982994 42.428474  0.931275 -0.098988 -0.350611  0.337891 0.998047 1 0 1.000000
0  31.399445 -27.427164 42.344044  0.862287 -0.492637 -0.117348  0.392578 0.998047 1 0 1.000000
0  31.012505 -26.154552 41.741966  0.596857 -0.124683 -0.792601  0.337891 0.998047 1 0 1.000000
driver
0  31.012505 -26.154552 41.741966  0.596857 -0.124683 -0.792601  0.337891 0.998047 1 0 1.000000
0  29.680544 -22.908634 40.779228  0.145443 -0.286177 -0.947074  0.222656 0.998047 1 0 1.000000
0  32.016338 -25.982994 42.428474  0.931275 -0.098988 -0.350611  0.337891 0.998047 1 0 1.000000
driver
0  31.333117 -22.398565 41.831490  0.991961 -0.047280 0.117379  0.222656 0.992188 1 0 1.000000
0  32.016338 -25.982994 42.428474  0.931275 -0.098988 -0.350611  0.337891 0.998047 1 0 1.000000
0  29.680544 -22.908634 40.779228  0.145443 -0.286177 -0.947074  0.222656 0.998047 1 0 1.000000
driver
0  32.016338 -25.982994 42.428474  0.931275 -0.098988 -0.350611  0.337891 0.998047 1 0 1.000000
0  31.333117 -22.398565 41.831490  0.991961 -0.047280 0.117379  0.222656 0.992188 1 0 1.000000
0  29.564522 -25.533691 45.170273  0.185975 0.064419 0.980441  0.333984 0.917969 1 0 1.000000
driver
0  29.412188 -21.761274 43.945251  -0.031052 0.248143 0.968226  0.220703 0.927734 1 0 1.000000
0  29.564522 -25.533691 45.170273  0.185975 0.064419 0.980441  0.333984 0.917969 1 0 1.000000
0  31.333117 -22.398565 41.831490  0.991961 -0.047280 0.117379  0.222656 0.992188 1 0 1.000000
driver
0  29.412188 -21.761274 43.945251  -0.031052 0.248143 0.968226  0.220703 0.927734 1 0 1.000000
0  27.928997 -22.228132 42.778191  -0.868629 0.159757 0.469001  0.220703 0.917969 1 0 1.000000
0  29.564522 -25.533691 45.170273  0.185975 0.064419 0.980441  0.333984 0.917969 1 0 1.000000
driver
0  28.337185 -25.673979 44.177620  -0.538779 0.195300 0.819497  0.335938 0.916016 1 0 1.000000
0  29.564522 -25.533691 45.170273  0.185975 0.064419 0.980441  0.333984 0.917969 1 0 1.000000
0  27.928997 -22.228132 42.778191  -0.868629 0.159757 0.469001  0.220703 0.917969 1 0 1.000000
driver
0  29.564522 -25.533691 45.170273  0.185975 0.064419 0.980441  0.333984 0.917969 1 0 1.000000
0  28.337185 -25.673979 44.177620  -0.538779 0.195300 0.819497  0.335938 0.916016 1 0 1.000000
0  28.868845 -27.350374 44.832222  -0.001288 -0.357694 0.933838  0.400391 0.917969 1 0 1.000000
driver
0  28.375023 -26.883375 44.523815  -0.516941 0.070253 0.853134  0.382812 0.917969 1 0 1.000000
0  28.868845 -27.350374 44.832222  -0.001288 -0.357694 0.933838  0.400391 0.917969 1 0 1.000000
0  28.337185 -25.673979 44.177620  -0.538779 0.195300 0.819497  0.335938 0.916016 1 0 1.000000
driver
0  28.868845 -27.350374 44.832222  -0.001288 -0.357694 0.933838  0.400391 0.917969 1 0 1.000000
0  31.399445 -27.427164 42.344044  0.862287 -0.492637 -0.117348  0.392578 0.998047 1 0 1.000000
0  29.564522 -25.533691 45.170273  0.185975 0.064419 0.980441  0.333984 0.917969 1 0 1.000000
driver
0  32.016338 -25.982994 42.428474  0.931275 -0.098988 -0.350611  0.337891 0.998047 1 0 1.000000
0  29.564522 -25.533691 45.170273  0.185975 0.064419 0.980441  0.333984 0.917969 1 0 1.000000
0  31.399445 -27.427164 42.344044  0.862287 -0.492637 -0.117348  0.392578 0.998047 1 0 1.000000
driver
0  30.061804 -27.839911 41.369026  0.643602 -0.265130 -0.717972  0.445312 0.998047 1 0 1.000000
0  30.855499 -27.117350 41.813675  0.628656 -0.225789 -0.744185  0.382812 0.998047 1 0 1.000000
0  30.408899 -28.348007 41.867790  0.709760 -0.682961 -0.172640  0.439453 0.996094 1 0 1.000000
driver
0  27.286301 -0.597218 26.107630  0.947638 0.301055 -0.106527  0.109375 0.519531 1 0 1.000000
0  29.911343 -6.023169 29.879259  0.999124 0.038959 -0.015274  0.076172 0.683594 1 0 1.000000
0  27.200424 -4.110009 21.132685  0.942920 0.154580 -0.294970  0.000000 0.521484 1 0 1.000000
driver
0  29.847481 -8.203334 27.691320  0.997972 -0.063216 0.007406  0.000000 0.683594 1 0 1.000000
0  27.200424 -4.110009 21.132685  0.942920 0.154580 -0.294970  0.000000 0.521484 1 0 1.000000
0  29.911343 -6.023169 29.879259  0.999124 0.038959 -0.015274  0.076172 0.683594 1 0 1.000000
driver
0  11.727037 -8.203336 27.691322  -0.997971 -0.063234 0.007403  0.521484 0.050781 1 0 1.000000
0  14.332277 -11.103882 31.980356  -0.734426 -0.401304 0.547333  0.580078 0.175781 1 0 1.000000
0  11.663243 -6.023169 29.879261  -0.999124 0.038955 -0.015262  0.585938 0.050781 1 0 1.000000
end
