version 1
nodes
0 "root" -1
end
skeleton
time 0
0 0 0 0 0 0 0
end
triangles
  phy
0  41.806927 -103.358940 3.962504  -0.733415 -0.538069 0.415434  0.000000 0.000000 0
0  43.262749 -101.039391 3.889365  -0.781241 -0.368244 0.504041  0.000000 0.000000 0
0  43.012043 -103.037148 5.893945  -0.774853 -0.546398 0.317887  0.000000 0.000000 0
  phy
0  43.262749 -101.039391 3.889365  -0.781241 -0.368244 0.504041  0.000000 0.000000 0
0  44.069828 -101.108803 5.614432  -0.930349 0.023587 0.365916  0.000000 0.000000 0
0  43.012043 -103.037148 5.893945  -0.774853 -0.546398 0.317887  0.000000 0.000000 0
  phy
0  43.012043 -103.037148 5.893945  -0.774853 -0.546398 0.317887  0.000000 0.000000 0
0  44.069828 -101.108803 5.614432  -0.930349 0.023587 0.365916  0.000000 0.000000 0
0  43.996586 -102.767281 8.235005  -0.809680 -0.540273 0.229179  0.000000 0.000000 0
  phy
0  40.824238 -105.942963 5.967580  -0.704615 -0.644128 0.297686  0.000000 0.000000 0
0  41.806927 -103.358940 3.962504  -0.733415 -0.538069 0.415434  0.000000 0.000000 0
0  43.012043 -103.037148 5.893945  -0.774853 -0.546398 0.317887  0.000000 0.000000 0
  phy
0  43.996586 -102.767281 8.235005  -0.809680 -0.540273 0.229179  0.000000 0.000000 0
0  41.570095 -105.913643 8.073653  -0.748564 -0.635645 0.188699  0.000000 0.000000 0
0  43.012043 -103.037148 5.893945  -0.774853 -0.546398 0.317887  0.000000 0.000000 0
  phy
0  43.012043 -103.037148 5.893945  -0.774853 -0.546398 0.317887  0.000000 0.000000 0
0  41.570095 -105.913643 8.073653  -0.748564 -0.635645 0.188699  0.000000 0.000000 0
0  40.824238 -105.942963 5.967580  -0.704615 -0.644128 0.297686  0.000000 0.000000 0
  phy
0  -41.015850 -99.026764 6.656902  0.729630 -0.555155 0.399304  0.000000 0.000000 0
0  -38.444153 -102.087082 6.591432  0.708530 -0.599621 0.372074  0.000000 0.000000 0
0  -40.019817 -100.944771 8.007780  0.733353 -0.626589 0.263779  0.000000 0.000000 0
  phy
0  -40.019817 -100.944771 8.007780  0.733353 -0.626589 0.263779  0.000000 0.000000 0
0  -38.444153 -102.087082 6.591432  0.708530 -0.599621 0.372074  0.000000 0.000000 0
0  -35.119892 -106.036720 6.728106  0.608952 -0.719150 0.334664  0.000000 0.000000 0
  phy
0  -38.444153 -102.087082 6.591432  0.708530 -0.599621 0.372074  0.000000 0.000000 0
0  -41.015850 -99.026764 6.656902  0.729630 -0.555155 0.399304  0.000000 0.000000 0
0  -37.895546 -101.887413 5.482157  0.627312 -0.550350 0.550994  0.000000 0.000000 0
  phy
0  -38.444153 -102.087082 6.591432  0.708530 -0.599621 0.372074  0.000000 0.000000 0
0  -37.895546 -101.887413 5.482157  0.627312 -0.550350 0.550994  0.000000 0.000000 0
0  -35.119892 -106.036720 6.728106  0.608952 -0.719150 0.334664  0.000000 0.000000 0
  phy
0  -26.148787 -103.461128 0.038145  0.046845 0.005983 0.998884  0.000000 0.000000 0
0  -34.539497 -99.638313 0.951264  0.182885 -0.140486 0.973045  0.000000 0.000000 0
0  -26.604244 -103.040230 0.079384  0.020643 0.127201 0.991662  0.000000 0.000000 0
  phy
0  -26.604244 -103.040230 0.079384  0.020643 0.127201 0.991662  0.000000 0.000000 0
0  -34.539497 -99.638313 0.951264  0.182885 -0.140486 0.973045  0.000000 0.000000 0
0  -38.483917 -96.201599 1.316548  0.088620 0.049621 0.994829  0.000000 0.000000 0
  phy
0  -35.561481 -99.540901 1.217845  0.452776 -0.557298 0.695998  0.000000 0.000000 0
0  -34.539497 -99.638313 0.951264  0.182885 -0.140486 0.973045  0.000000 0.000000 0
0  -32.027317 -101.682198 0.920547  0.312166 -0.606958 0.730858  0.000000 0.000000 0
  phy
0  -32.027317 -101.682198 0.920547  0.312166 -0.606958 0.730858  0.000000 0.000000 0
0  -34.539497 -99.638313 0.951264  0.182885 -0.140486 0.973045  0.000000 0.000000 0
0  -26.148787 -103.461128 0.038145  0.046845 0.005983 0.998884  0.000000 0.000000 0
  phy
0  -34.539497 -99.638313 0.951264  0.182885 -0.140486 0.973045  0.000000 0.000000 0
0  -35.561481 -99.540901 1.217845  0.452776 -0.557298 0.695998  0.000000 0.000000 0
0  -37.809498 -97.605942 1.420654  0.553763 -0.524372 0.646823  0.000000 0.000000 0
  phy
0  -38.483917 -96.201599 1.316548  0.088620 0.049621 0.994829  0.000000 0.000000 0
0  -34.539497 -99.638313 0.951264  0.182885 -0.140486 0.973045  0.000000 0.000000 0
0  -37.809498 -97.605942 1.420654  0.553763 -0.524372 0.646823  0.000000 0.000000 0
  phy
0  40.824238 -105.942963 5.967580  -0.704615 -0.644128 0.297686  0.000000 0.000000 0
0  34.294117 -112.605286 6.024223  -0.550722 -0.808550 0.207248  0.000000 0.000000 0
0  37.236923 -108.861549 4.494931  -0.657487 -0.651728 0.378102  0.000000 0.000000 0
  phy
0  34.294117 -112.605286 6.024223  -0.550722 -0.808550 0.207248  0.000000 0.000000 0
0  33.689072 -112.739578 5.116022  -0.496438 -0.808623 0.315719  0.000000 0.000000 0
0  37.236923 -108.861549 4.494931  -0.657487 -0.651728 0.378102  0.000000 0.000000 0
  phy
0  37.236923 -108.861549 4.494931  -0.657487 -0.651728 0.378102  0.000000 0.000000 0
0  39.933357 -105.921715 4.223501  -0.669205 -0.598116 0.440933  0.000000 0.000000 0
0  40.824238 -105.942963 5.967580  -0.704615 -0.644128 0.297686  0.000000 0.000000 0
  phy
0  37.236923 -108.861549 4.494931  -0.657487 -0.651728 0.378102  0.000000 0.000000 0
0  33.689072 -112.739578 5.116022  -0.496438 -0.808623 0.315719  0.000000 0.000000 0
0  36.609451 -108.673218 3.427346  -0.552026 -0.599607 0.579430  0.000000 0.000000 0
  phy
0  36.609451 -108.673218 3.427346  -0.552026 -0.599607 0.579430  0.000000 0.000000 0
0  39.933357 -105.921715 4.223501  -0.669205 -0.598116 0.440933  0.000000 0.000000 0
0  37.236923 -108.861549 4.494931  -0.657487 -0.651728 0.378102  0.000000 0.000000 0
  phy
0  32.980064 -106.439667 -0.900312  -0.110216 -0.193137 0.974962  0.000000 0.000000 0
0  36.362373 -104.545837 -0.783177  -0.472920 -0.574336 0.668195  0.000000 0.000000 0
0  34.024498 -106.380997 -0.722743  -0.401439 -0.598925 0.692919  0.000000 0.000000 0
  phy
0  36.362373 -104.545837 -0.783177  -0.472920 -0.574336 0.668195  0.000000 0.000000 0
0  32.980064 -106.439667 -0.900312  -0.110216 -0.193137 0.974962  0.000000 0.000000 0
0  37.085815 -103.178642 -0.998549  0.013419 0.031883 0.999402  0.000000 0.000000 0
  phy
0  38.538971 -102.455994 -0.834064  -0.595449 -0.529004 0.604645  0.000000 0.000000 0
0  36.362373 -104.545837 -0.783177  -0.472920 -0.574336 0.668195  0.000000 0.000000 0
0  37.085815 -103.178642 -0.998549  0.013419 0.031883 0.999402  0.000000 0.000000 0
  phy
0  36.609451 -108.673218 3.427346  -0.552026 -0.599607 0.579430  0.000000 0.000000 0
0  36.362373 -104.545837 -0.783177  -0.472920 -0.574336 0.668195  0.000000 0.000000 0
0  38.538971 -102.455994 -0.834064  -0.595449 -0.529004 0.604645  0.000000 0.000000 0
  phy
0  36.362373 -104.545837 -0.783177  -0.472920 -0.574336 0.668195  0.000000 0.000000 0
0  36.609451 -108.673218 3.427346  -0.552026 -0.599607 0.579430  0.000000 0.000000 0
0  32.923004 -112.895813 4.598295  -0.443543 -0.695694 0.565048  0.000000 0.000000 0
  phy
0  36.362373 -104.545837 -0.783177  -0.472920 -0.574336 0.668195  0.000000 0.000000 0
0  32.923004 -112.895813 4.598295  -0.443543 -0.695694 0.565048  0.000000 0.000000 0
0  34.024498 -106.380997 -0.722743  -0.401439 -0.598925 0.692919  0.000000 0.000000 0
  phy
0  46.596245 -99.173866 24.720490  -0.683504 -0.645817 -0.340210  0.000000 0.000000 0
0  45.523914 -101.370209 22.065990  -0.652374 -0.708165 -0.270020  0.000000 0.000000 0
0  46.971657 -98.866364 24.274799  -0.865004 -0.482072 -0.139194  0.000000 0.000000 0
  phy
0  39.658894 -103.521721 29.906912  -0.613713 -0.720064 -0.323827  0.000000 0.000000 0
0  45.523914 -101.370209 22.065990  -0.652374 -0.708165 -0.270020  0.000000 0.000000 0
0  46.596245 -99.173866 24.720490  -0.683504 -0.645817 -0.340210  0.000000 0.000000 0
  phy
0  46.596245 -99.173866 24.720490  -0.683504 -0.645817 -0.340210  0.000000 0.000000 0
0  41.151009 -101.568115 30.823193  -0.596515 -0.597216 -0.536193  0.000000 0.000000 0
0  39.658894 -103.521721 29.906912  -0.613713 -0.720064 -0.323827  0.000000 0.000000 0
  phy
0  46.971657 -98.866364 24.274799  -0.865004 -0.482072 -0.139194  0.000000 0.000000 0
0  47.620491 -96.351845 27.140656  -0.776921 -0.456845 -0.433228  0.000000 0.000000 0
0  46.596245 -99.173866 24.720490  -0.683504 -0.645817 -0.340210  0.000000 0.000000 0
  phy
0  47.620491 -96.351845 27.140656  -0.776921 -0.456845 -0.433228  0.000000 0.000000 0
0  41.151009 -101.568115 30.823193  -0.596515 -0.597216 -0.536193  0.000000 0.000000 0
0  46.596245 -99.173866 24.720490  -0.683504 -0.645817 -0.340210  0.000000 0.000000 0
  phy
0  5.837909 -108.165627 35.886715  -0.017464 -0.089883 -0.995799  0.000000 0.000000 0
0  4.157486 -107.438454 35.965843  -0.009808 -0.081762 -0.996604  0.000000 0.000000 0
0  17.746162 -118.648727 34.715939  -0.108213 -0.246865 -0.962989  0.000000 0.000000 0
  phy
0  4.157486 -107.438454 35.965843  -0.009808 -0.081762 -0.996604  0.000000 0.000000 0
0  1.116836 -106.418900 36.075043  -0.003258 -0.054850 -0.998489  0.000000 0.000000 0
0  17.746162 -118.648727 34.715939  -0.108213 -0.246865 -0.962989  0.000000 0.000000 0
  phy
0  1.116836 -106.418900 36.075043  -0.003258 -0.054850 -0.998489  0.000000 0.000000 0
0  -18.144932 -114.173225 35.139988  0.064305 -0.164887 -0.984214  0.000000 0.000000 0
0  17.746162 -118.648727 34.715939  -0.108213 -0.246865 -0.962989  0.000000 0.000000 0
  phy
0  5.837909 -108.165627 35.886715  -0.017464 -0.089883 -0.995799  0.000000 0.000000 0
0  24.258526 -108.753586 35.495377  -0.033210 -0.097903 -0.994642  0.000000 0.000000 0
0  4.157486 -107.438454 35.965843  -0.009808 -0.081762 -0.996604  0.000000 0.000000 0
  phy
0  24.258526 -108.753586 35.495377  -0.033210 -0.097903 -0.994642  0.000000 0.000000 0
0  24.525177 -108.452950 35.509682  -0.024475 -0.045946 -0.998644  0.000000 0.000000 0
0  4.157486 -107.438454 35.965843  -0.009808 -0.081762 -0.996604  0.000000 0.000000 0
  phy
0  24.525177 -108.452950 35.509682  -0.024475 -0.045946 -0.998644  0.000000 0.000000 0
0  1.116836 -106.418900 36.075043  -0.003258 -0.054850 -0.998489  0.000000 0.000000 0
0  4.157486 -107.438454 35.965843  -0.009808 -0.081762 -0.996604  0.000000 0.000000 0
  phy
0  25.009487 -108.090271 35.504490  -0.027335 0.036276 -0.998968  0.000000 0.000000 0
0  24.525177 -108.452950 35.509682  -0.024475 -0.045946 -0.998644  0.000000 0.000000 0
0  28.884119 -106.117706 35.305866  -0.150516 -0.053595 -0.987154  0.000000 0.000000 0
  phy
0  24.525177 -108.452950 35.509682  -0.024475 -0.045946 -0.998644  0.000000 0.000000 0
0  24.258526 -108.753586 35.495377  -0.033210 -0.097903 -0.994642  0.000000 0.000000 0
0  28.884119 -106.117706 35.305866  -0.150516 -0.053595 -0.987154  0.000000 0.000000 0
  phy
0  24.258526 -108.753586 35.495377  -0.033210 -0.097903 -0.994642  0.000000 0.000000 0
0  17.746162 -118.648727 34.715939  -0.108213 -0.246865 -0.962989  0.000000 0.000000 0
0  28.884119 -106.117706 35.305866  -0.150516 -0.053595 -0.987154  0.000000 0.000000 0
  phy
0  5.837909 -108.165627 35.886715  -0.017464 -0.089883 -0.995799  0.000000 0.000000 0
0  17.746162 -118.648727 34.715939  -0.108213 -0.246865 -0.962989  0.000000 0.000000 0
0  24.258526 -108.753586 35.495377  -0.033210 -0.097903 -0.994642  0.000000 0.000000 0
  phy
0  44.069828 -101.108803 5.614432  -0.930349 0.023587 0.365916  0.000000 0.000000 0
0  44.965187 -101.037605 8.041268  -0.945374 0.038360 0.323724  0.000000 0.000000 0
0  43.996586 -102.767281 8.235005  -0.809680 -0.540273 0.229179  0.000000 0.000000 0
  phy
0  45.630344 -100.720398 10.218131  -0.940852 -0.308526 0.140034  0.000000 0.000000 0
0  44.553631 -102.563393 10.223332  -0.805483 -0.583593 0.103042  0.000000 0.000000 0
0  43.996586 -102.767281 8.235005  -0.809680 -0.540273 0.229179  0.000000 0.000000 0
  phy
0  43.996586 -102.767281 8.235005  -0.809680 -0.540273 0.229179  0.000000 0.000000 0
0  44.965187 -101.037605 8.041268  -0.945374 0.038360 0.323724  0.000000 0.000000 0
0  45.630344 -100.720398 10.218131  -0.940852 -0.308526 0.140034  0.000000 0.000000 0
  phy
0  43.996586 -102.767281 8.235005  -0.809680 -0.540273 0.229179  0.000000 0.000000 0
0  44.553631 -102.563393 10.223332  -0.805483 -0.583593 0.103042  0.000000 0.000000 0
0  41.570095 -105.913643 8.073653  -0.748564 -0.635645 0.188699  0.000000 0.000000 0
  phy
0  40.824238 -105.942963 5.967580  -0.704615 -0.644128 0.297686  0.000000 0.000000 0
0  41.570095 -105.913643 8.073653  -0.748564 -0.635645 0.188699  0.000000 0.000000 0
0  38.528206 -109.075600 8.172915  -0.691275 -0.696126 0.193770  0.000000 0.000000 0
  phy
0  38.528206 -109.075600 8.172915  -0.691275 -0.696126 0.193770  0.000000 0.000000 0
0  34.294117 -112.605286 6.024223  -0.550722 -0.808550 0.207248  0.000000 0.000000 0
0  40.824238 -105.942963 5.967580  -0.704615 -0.644128 0.297686  0.000000 0.000000 0
  phy
0  34.286243 -112.781204 6.951239  -0.592711 -0.802170 0.072233  0.000000 0.000000 0
0  34.294117 -112.605286 6.024223  -0.550722 -0.808550 0.207248  0.000000 0.000000 0
0  38.528206 -109.075600 8.172915  -0.691275 -0.696126 0.193770  0.000000 0.000000 0
  phy
0  38.528206 -109.075600 8.172915  -0.691275 -0.696126 0.193770  0.000000 0.000000 0
0  38.960896 -109.038544 10.200022  -0.699037 -0.704273 0.123880  0.000000 0.000000 0
0  34.286243 -112.781204 6.951239  -0.592711 -0.802170 0.072233  0.000000 0.000000 0
  phy
0  41.570095 -105.913643 8.073653  -0.748564 -0.635645 0.188699  0.000000 0.000000 0
0  38.960896 -109.038544 10.200022  -0.699037 -0.704273 0.123880  0.000000 0.000000 0
0  38.528206 -109.075600 8.172915  -0.691275 -0.696126 0.193770  0.000000 0.000000 0
  phy
0  40.824238 -105.942963 5.967580  -0.704615 -0.644128 0.297686  0.000000 0.000000 0
0  39.933357 -105.921715 4.223501  -0.669205 -0.598116 0.440933  0.000000 0.000000 0
0  41.806927 -103.358940 3.962504  -0.733415 -0.538069 0.415434  0.000000 0.000000 0
  phy
0  44.838684 -102.847839 18.753035  -0.810321 -0.585557 -0.022406  0.000000 0.000000 0
0  47.310017 -98.916489 19.939466  -0.889356 -0.457160 0.007129  0.000000 0.000000 0
0  45.926182 -100.971397 21.730949  -0.828904 -0.554196 -0.076057  0.000000 0.000000 0
  phy
0  44.838684 -102.847839 18.753035  -0.810321 -0.585557 -0.022406  0.000000 0.000000 0
0  46.370644 -100.536049 17.305849  -0.877536 -0.478021 0.037772  0.000000 0.000000 0
0  47.310017 -98.916489 19.939466  -0.889356 -0.457160 0.007129  0.000000 0.000000 0
  phy
0  44.838684 -102.847839 18.753035  -0.810321 -0.585557 -0.022406  0.000000 0.000000 0
0  45.926182 -100.971397 21.730949  -0.828904 -0.554196 -0.076057  0.000000 0.000000 0
0  44.463955 -103.217598 19.075228  -0.661966 -0.722855 -0.198195  0.000000 0.000000 0
  phy
0  45.521839 -101.764145 14.428260  -0.835877 -0.546159 0.054960  0.000000 0.000000 0
0  46.370644 -100.536049 17.305849  -0.877536 -0.478021 0.037772  0.000000 0.000000 0
0  44.838684 -102.847839 18.753035  -0.810321 -0.585557 -0.022406  0.000000 0.000000 0
  phy
0  44.838684 -102.847839 18.753035  -0.810321 -0.585557 -0.022406  0.000000 0.000000 0
0  43.784088 -104.207916 15.820684  -0.794284 -0.605360 0.051505  0.000000 0.000000 0
0  45.521839 -101.764145 14.428260  -0.835877 -0.546159 0.054960  0.000000 0.000000 0
  phy
0  44.838684 -102.847839 18.753035  -0.810321 -0.585557 -0.022406  0.000000 0.000000 0
0  41.603081 -106.737862 14.806324  -0.724787 -0.687051 -0.051428  0.000000 0.000000 0
0  42.746506 -105.438980 14.935064  -0.760344 -0.649118 0.022873  0.000000 0.000000 0
  phy
0  42.746506 -105.438980 14.935064  -0.760344 -0.649118 0.022873  0.000000 0.000000 0
0  43.784088 -104.207916 15.820684  -0.794284 -0.605360 0.051505  0.000000 0.000000 0
0  44.838684 -102.847839 18.753035  -0.810321 -0.585557 -0.022406  0.000000 0.000000 0
  phy
0  44.463955 -103.217598 19.075228  -0.661966 -0.722855 -0.198195  0.000000 0.000000 0
0  41.603081 -106.737862 14.806324  -0.724787 -0.687051 -0.051428  0.000000 0.000000 0
0  44.838684 -102.847839 18.753035  -0.810321 -0.585557 -0.022406  0.000000 0.000000 0
  phy
0  -41.015850 -99.026764 6.656902  0.729630 -0.555155 0.399304  0.000000 0.000000 0
0  -40.397030 -98.897469 5.582799  0.686741 -0.508813 0.519130  0.000000 0.000000 0
0  -37.895546 -101.887413 5.482157  0.627312 -0.550350 0.550994  0.000000 0.000000 0
  phy
0  -41.015850 -99.026764 6.656902  0.729630 -0.555155 0.399304  0.000000 0.000000 0
0  -40.019817 -100.944771 8.007780  0.733353 -0.626589 0.263779  0.000000 0.000000 0
0  -41.697311 -99.130424 8.398548  0.768291 -0.584053 0.261937  0.000000 0.000000 0
  phy
0  -41.015850 -99.026764 6.656902  0.729630 -0.555155 0.399304  0.000000 0.000000 0
0  -42.337692 -96.149292 5.733595  0.742788 -0.438436 0.506005  0.000000 0.000000 0
0  -40.397030 -98.897469 5.582799  0.686741 -0.508813 0.519130  0.000000 0.000000 0
  phy
0  -42.337692 -96.149292 5.733595  0.742788 -0.438436 0.506005  0.000000 0.000000 0
0  -41.015850 -99.026764 6.656902  0.729630 -0.555155 0.399304  0.000000 0.000000 0
0  -42.784161 -96.377197 6.646205  0.784976 -0.489426 0.379835  0.000000 0.000000 0
  phy
0  -41.015850 -99.026764 6.656902  0.729630 -0.555155 0.399304  0.000000 0.000000 0
0  -41.697311 -99.130424 8.398548  0.768291 -0.584053 0.261937  0.000000 0.000000 0
0  -42.784161 -96.377197 6.646205  0.784976 -0.489426 0.379835  0.000000 0.000000 0
  phy
0  -41.510448 -92.874672 1.903210  0.774922 0.430000 0.463245  0.000000 0.000000 0
0  -42.337692 -96.149292 5.733595  0.742788 -0.438436 0.506005  0.000000 0.000000 0
0  -44.131966 -93.997070 6.780928  0.836421 -0.315928 0.447871  0.000000 0.000000 0
  phy
0  -44.131966 -93.997070 6.780928  0.836421 -0.315928 0.447871  0.000000 0.000000 0
0  -42.337692 -96.149292 5.733595  0.742788 -0.438436 0.506005  0.000000 0.000000 0
0  -42.784161 -96.377197 6.646205  0.784976 -0.489426 0.379835  0.000000 0.000000 0
  phy
0  -42.337692 -96.149292 5.733595  0.742788 -0.438436 0.506005  0.000000 0.000000 0
0  -41.510448 -92.874672 1.903210  0.774922 0.430000 0.463245  0.000000 0.000000 0
0  -39.883038 -95.424446 1.627706  0.666926 -0.478309 0.571341  0.000000 0.000000 0
  phy
0  -40.397030 -98.897469 5.582799  0.686741 -0.508813 0.519130  0.000000 0.000000 0
0  -42.337692 -96.149292 5.733595  0.742788 -0.438436 0.506005  0.000000 0.000000 0
0  -39.883038 -95.424446 1.627706  0.666926 -0.478309 0.571341  0.000000 0.000000 0
  phy
0  -35.561481 -99.540901 1.217845  0.452776 -0.557298 0.695998  0.000000 0.000000 0
0  -32.027317 -101.682198 0.920547  0.312166 -0.606958 0.730858  0.000000 0.000000 0
0  -33.398552 -106.532402 5.724548  0.356107 -0.639806 0.681055  0.000000 0.000000 0
  phy
0  -34.390713 -106.212883 6.113081  0.528377 -0.633076 0.565715  0.000000 0.000000 0
0  -35.561481 -99.540901 1.217845  0.452776 -0.557298 0.695998  0.000000 0.000000 0
0  -33.398552 -106.532402 5.724548  0.356107 -0.639806 0.681055  0.000000 0.000000 0
  phy
0  -35.561481 -99.540901 1.217845  0.452776 -0.557298 0.695998  0.000000 0.000000 0
0  -34.390713 -106.212883 6.113081  0.528377 -0.633076 0.565715  0.000000 0.000000 0
0  -37.809498 -97.605942 1.420654  0.553763 -0.524372 0.646823  0.000000 0.000000 0
  phy
0  -44.797459 -94.100098 8.563045  0.955246 0.077877 0.285377  0.000000 0.000000 0
0  -43.810501 -96.081993 8.682361  0.834469 -0.490524 0.251091  0.000000 0.000000 0
0  -44.585697 -95.863815 11.106531  0.849952 -0.495198 0.179892  0.000000 0.000000 0
  phy
0  -44.797459 -94.100098 8.563045  0.955246 0.077877 0.285377  0.000000 0.000000 0
0  -44.585697 -95.863815 11.106531  0.849952 -0.495198 0.179892  0.000000 0.000000 0
0  -45.486046 -94.087746 11.057673  0.966024 0.091899 0.241560  0.000000 0.000000 0
  phy
0  -43.810501 -96.081993 8.682361  0.834469 -0.490524 0.251091  0.000000 0.000000 0
0  -43.532925 -96.379906 8.388220  0.809187 -0.509164 0.293203  0.000000 0.000000 0
0  -42.328751 -99.105461 10.628310  0.790230 -0.594083 0.150342  0.000000 0.000000 0
  phy
0  -43.810501 -96.081993 8.682361  0.834469 -0.490524 0.251091  0.000000 0.000000 0
0  -42.328751 -99.105461 10.628310  0.790230 -0.594083 0.150342  0.000000 0.000000 0
0  -44.585697 -95.863815 11.106531  0.849952 -0.495198 0.179892  0.000000 0.000000 0
  phy
0  -43.532925 -96.379906 8.388220  0.809187 -0.509164 0.293203  0.000000 0.000000 0
0  -43.810501 -96.081993 8.682361  0.834469 -0.490524 0.251091  0.000000 0.000000 0
0  -44.131966 -93.997070 6.780928  0.836421 -0.315928 0.447871  0.000000 0.000000 0
  phy
0  -43.810501 -96.081993 8.682361  0.834469 -0.490524 0.251091  0.000000 0.000000 0
0  -44.797459 -94.100098 8.563045  0.955246 0.077877 0.285377  0.000000 0.000000 0
0  -44.131966 -93.997070 6.780928  0.836421 -0.315928 0.447871  0.000000 0.000000 0
  phy
0  -46.100174 -93.897636 20.418894  0.898765 -0.438034 -0.018650  0.000000 0.000000 0
0  -46.744331 -92.346291 23.180235  0.907253 -0.417508 -0.050791  0.000000 0.000000 0
0  -45.954647 -93.829781 13.292163  0.962439 -0.261889 0.071590  0.000000 0.000000 0
  phy
0  -45.954647 -93.829781 13.292163  0.962439 -0.261889 0.071590  0.000000 0.000000 0
0  -46.744331 -92.346291 23.180235  0.907253 -0.417508 -0.050791  0.000000 0.000000 0
0  -47.343307 -90.525711 25.650370  0.955215 -0.295117 -0.021705  0.000000 0.000000 0
  phy
0  -46.048534 -92.484444 27.470530  0.871849 -0.449870 -0.193640  0.000000 0.000000 0
0  -46.744331 -92.346291 23.180235  0.907253 -0.417508 -0.050791  0.000000 0.000000 0
0  -45.312428 -94.548546 24.710094  0.844329 -0.520968 -0.125300  0.000000 0.000000 0
  phy
0  -46.744331 -92.346291 23.180235  0.907253 -0.417508 -0.050791  0.000000 0.000000 0
0  -46.048534 -92.484444 27.470530  0.871849 -0.449870 -0.193640  0.000000 0.000000 0
0  -47.343307 -90.525711 25.650370  0.955215 -0.295117 -0.021705  0.000000 0.000000 0
  phy
0  -46.744331 -92.346291 23.180235  0.907253 -0.417508 -0.050791  0.000000 0.000000 0
0  -46.100174 -93.897636 20.418894  0.898765 -0.438034 -0.018650  0.000000 0.000000 0
0  -44.562954 -96.329666 21.646360  0.834102 -0.547335 -0.068541  0.000000 0.000000 0
  phy
0  -45.312428 -94.548546 24.710094  0.844329 -0.520968 -0.125300  0.000000 0.000000 0
0  -46.744331 -92.346291 23.180235  0.907253 -0.417508 -0.050791  0.000000 0.000000 0
0  -44.562954 -96.329666 21.646360  0.834102 -0.547335 -0.068541  0.000000 0.000000 0
  phy
0  -39.758911 -102.418762 13.048977  0.721720 -0.691581 0.028924  0.000000 0.000000 0
0  -41.816826 -100.191597 15.998350  0.756462 -0.653536 0.025617  0.000000 0.000000 0
0  -42.849773 -98.812653 13.476089  0.797965 -0.602087 0.027262  0.000000 0.000000 0
  phy
0  -39.758911 -102.418762 13.048977  0.721720 -0.691581 0.028924  0.000000 0.000000 0
0  -42.849773 -98.812653 13.476089  0.797965 -0.602087 0.027262  0.000000 0.000000 0
0  -42.728882 -98.912506 12.827447  0.785165 -0.614111 0.079895  0.000000 0.000000 0
  phy
0  -41.816826 -100.191597 15.998350  0.756462 -0.653536 0.025617  0.000000 0.000000 0
0  -42.060501 -99.926147 17.425657  0.766725 -0.639547 -0.055788  0.000000 0.000000 0
0  -42.849773 -98.812653 13.476089  0.797965 -0.602087 0.027262  0.000000 0.000000 0
  phy
0  -41.816826 -100.191597 15.998350  0.756462 -0.653536 0.025617  0.000000 0.000000 0
0  -39.758911 -102.418762 13.048977  0.721720 -0.691581 0.028924  0.000000 0.000000 0
0  -39.888580 -102.377167 16.978373  0.678042 -0.727440 -0.105316  0.000000 0.000000 0
  phy
0  -42.060501 -99.926147 17.425657  0.766725 -0.639547 -0.055788  0.000000 0.000000 0
0  -41.816826 -100.191597 15.998350  0.756462 -0.653536 0.025617  0.000000 0.000000 0
0  -39.888580 -102.377167 16.978373  0.678042 -0.727440 -0.105316  0.000000 0.000000 0
  phy
0  39.533463 -108.838943 14.729753  -0.660829 -0.750243 -0.021000  0.000000 0.000000 0
0  36.134289 -111.641350 14.686009  -0.555121 -0.830724 -0.041699  0.000000 0.000000 0
0  34.286243 -112.781204 6.951239  -0.592711 -0.802170 0.072233  0.000000 0.000000 0
  phy
0  34.286243 -112.781204 6.951239  -0.592711 -0.802170 0.072233  0.000000 0.000000 0
0  39.072487 -109.017609 10.827688  -0.684194 -0.726832 0.059954  0.000000 0.000000 0
0  39.533463 -108.838943 14.729753  -0.660829 -0.750243 -0.021000  0.000000 0.000000 0
  phy
0  38.960896 -109.038544 10.200022  -0.699037 -0.704273 0.123880  0.000000 0.000000 0
0  39.072487 -109.017609 10.827688  -0.684194 -0.726832 0.059954  0.000000 0.000000 0
0  34.286243 -112.781204 6.951239  -0.592711 -0.802170 0.072233  0.000000 0.000000 0
  phy
0  36.134289 -111.641350 14.686009  -0.555121 -0.830724 -0.041699  0.000000 0.000000 0
0  34.039455 -112.960022 7.895513  -0.509109 -0.860618 0.012029  0.000000 0.000000 0
0  34.286243 -112.781204 6.951239  -0.592711 -0.802170 0.072233  0.000000 0.000000 0
  phy
0  34.286243 -112.781204 6.951239  -0.592711 -0.802170 0.072233  0.000000 0.000000 0
0  15.707797 -123.692505 12.162803  -0.148341 -0.988223 0.037547  0.000000 0.000000 0
0  34.294117 -112.605286 6.024223  -0.550722 -0.808550 0.207248  0.000000 0.000000 0
  phy
0  34.039455 -112.960022 7.895513  -0.509109 -0.860618 0.012029  0.000000 0.000000 0
0  15.707797 -123.692505 12.162803  -0.148341 -0.988223 0.037547  0.000000 0.000000 0
0  34.286243 -112.781204 6.951239  -0.592711 -0.802170 0.072233  0.000000 0.000000 0
  phy
0  39.232800 -105.802429 3.200705  -0.618208 -0.558417 0.553162  0.000000 0.000000 0
0  39.933357 -105.921715 4.223501  -0.669205 -0.598116 0.440933  0.000000 0.000000 0
0  36.609451 -108.673218 3.427346  -0.552026 -0.599607 0.579430  0.000000 0.000000 0
  phy
0  36.609451 -108.673218 3.427346  -0.552026 -0.599607 0.579430  0.000000 0.000000 0
0  38.538971 -102.455994 -0.834064  -0.595449 -0.529004 0.604645  0.000000 0.000000 0
0  39.232800 -105.802429 3.200705  -0.618208 -0.558417 0.553162  0.000000 0.000000 0
  phy
0  36.609451 -108.673218 3.427346  -0.552026 -0.599607 0.579430  0.000000 0.000000 0
0  33.689072 -112.739578 5.116022  -0.496438 -0.808623 0.315719  0.000000 0.000000 0
0  32.923004 -112.895813 4.598295  -0.443543 -0.695694 0.565048  0.000000 0.000000 0
  phy
0  -45.652649 -92.824875 27.870869  0.685049 -0.621830 -0.379519  0.000000 0.000000 0
0  -46.048534 -92.484444 27.470530  0.871849 -0.449870 -0.193640  0.000000 0.000000 0
0  -44.904488 -94.957649 25.058245  0.653847 -0.697275 -0.293755  0.000000 0.000000 0
  phy
0  -46.048534 -92.484444 27.470530  0.871849 -0.449870 -0.193640  0.000000 0.000000 0
0  -45.312428 -94.548546 24.710094  0.844329 -0.520968 -0.125300  0.000000 0.000000 0
0  -44.904488 -94.957649 25.058245  0.653847 -0.697275 -0.293755  0.000000 0.000000 0
  phy
0  -46.048534 -92.484444 27.470530  0.871849 -0.449870 -0.193640  0.000000 0.000000 0
0  -46.342323 -90.060799 30.470533  0.797408 -0.361779 -0.482967  0.000000 0.000000 0
0  -47.972656 -88.044037 27.621777  -0.033767 0.995057 -0.093385  0.000000 0.000000 0
  phy
0  -47.343307 -90.525711 25.650370  0.955215 -0.295117 -0.021705  0.000000 0.000000 0
0  -46.048534 -92.484444 27.470530  0.871849 -0.449870 -0.193640  0.000000 0.000000 0
0  -47.972656 -88.044037 27.621777  -0.033767 0.995057 -0.093385  0.000000 0.000000 0
  phy
0  -46.048534 -92.484444 27.470530  0.871849 -0.449870 -0.193640  0.000000 0.000000 0
0  -45.652649 -92.824875 27.870869  0.685049 -0.621830 -0.379519  0.000000 0.000000 0
0  -46.342323 -90.060799 30.470533  0.797408 -0.361779 -0.482967  0.000000 0.000000 0
  phy
0  46.971657 -98.866364 24.274799  -0.865004 -0.482072 -0.139194  0.000000 0.000000 0
0  45.523914 -101.370209 22.065990  -0.652374 -0.708165 -0.270020  0.000000 0.000000 0
0  45.926182 -100.971397 21.730949  -0.828904 -0.554196 -0.076057  0.000000 0.000000 0
  phy
0  45.926182 -100.971397 21.730949  -0.828904 -0.554196 -0.076057  0.000000 0.000000 0
0  47.310017 -98.916489 19.939466  -0.889356 -0.457160 0.007129  0.000000 0.000000 0
0  46.971657 -98.866364 24.274799  -0.865004 -0.482072 -0.139194  0.000000 0.000000 0
  phy
0  47.310017 -98.916489 19.939466  -0.889356 -0.457160 0.007129  0.000000 0.000000 0
0  48.192211 -97.037109 22.277376  -0.940067 -0.337991 0.045126  0.000000 0.000000 0
0  46.971657 -98.866364 24.274799  -0.865004 -0.482072 -0.139194  0.000000 0.000000 0
  phy
0  46.971657 -98.866364 24.274799  -0.865004 -0.482072 -0.139194  0.000000 0.000000 0
0  49.090836 -94.517273 24.089376  -0.096085 0.990644 0.096915  0.000000 0.000000 0
0  47.620491 -96.351845 27.140656  -0.776921 -0.456845 -0.433228  0.000000 0.000000 0
  phy
0  48.192211 -97.037109 22.277376  -0.940067 -0.337991 0.045126  0.000000 0.000000 0
0  49.090836 -94.517273 24.089376  -0.096085 0.990644 0.096915  0.000000 0.000000 0
0  46.971657 -98.866364 24.274799  -0.865004 -0.482072 -0.139194  0.000000 0.000000 0
  phy
0  25.009487 -108.090271 35.504490  -0.027335 0.036276 -0.998968  0.000000 0.000000 0
0  1.116836 -106.418900 36.075043  -0.003258 -0.054850 -0.998489  0.000000 0.000000 0
0  24.525177 -108.452950 35.509682  -0.024475 -0.045946 -0.998644  0.000000 0.000000 0
  phy
0  25.009487 -108.090271 35.504490  -0.027335 0.036276 -0.998968  0.000000 0.000000 0
0  28.884119 -106.117706 35.305866  -0.150516 -0.053595 -0.987154  0.000000 0.000000 0
0  1.116836 -106.418900 36.075043  -0.003258 -0.054850 -0.998489  0.000000 0.000000 0
  phy
0  41.465015 -106.781967 13.509817  -0.727144 -0.683505 0.063899  0.000000 0.000000 0
0  41.603081 -106.737862 14.806324  -0.724787 -0.687051 -0.051428  0.000000 0.000000 0
0  39.533463 -108.838943 14.729753  -0.660829 -0.750243 -0.021000  0.000000 0.000000 0
  phy
0  39.533463 -108.838943 14.729753  -0.660829 -0.750243 -0.021000  0.000000 0.000000 0
0  39.072487 -109.017609 10.827688  -0.684194 -0.726832 0.059954  0.000000 0.000000 0
0  41.465015 -106.781967 13.509817  -0.727144 -0.683505 0.063899  0.000000 0.000000 0
  phy
0  36.073471 -111.531082 15.343891  -0.595477 -0.774801 -0.212345  0.000000 0.000000 0
0  36.134289 -111.641350 14.686009  -0.555121 -0.830724 -0.041699  0.000000 0.000000 0
0  39.533463 -108.838943 14.729753  -0.660829 -0.750243 -0.021000  0.000000 0.000000 0
  phy
0  39.533463 -108.838943 14.729753  -0.660829 -0.750243 -0.021000  0.000000 0.000000 0
0  39.835850 -108.141991 16.333807  -0.635459 -0.741309 -0.215993  0.000000 0.000000 0
0  36.073471 -111.531082 15.343891  -0.595477 -0.774801 -0.212345  0.000000 0.000000 0
  phy
0  39.533463 -108.838943 14.729753  -0.660829 -0.750243 -0.021000  0.000000 0.000000 0
0  41.603081 -106.737862 14.806324  -0.724787 -0.687051 -0.051428  0.000000 0.000000 0
0  44.463955 -103.217598 19.075228  -0.661966 -0.722855 -0.198195  0.000000 0.000000 0
  phy
0  44.463955 -103.217598 19.075228  -0.661966 -0.722855 -0.198195  0.000000 0.000000 0
0  39.835850 -108.141991 16.333807  -0.635459 -0.741309 -0.215993  0.000000 0.000000 0
0  39.533463 -108.838943 14.729753  -0.660829 -0.750243 -0.021000  0.000000 0.000000 0
  phy
0  16.795891 -123.000183 26.606670  -0.585347 -0.777140 -0.231130  0.000000 0.000000 0
0  36.134289 -111.641350 14.686009  -0.555121 -0.830724 -0.041699  0.000000 0.000000 0
0  36.073471 -111.531082 15.343891  -0.595477 -0.774801 -0.212345  0.000000 0.000000 0
  phy
0  36.073471 -111.531082 15.343891  -0.595477 -0.774801 -0.212345  0.000000 0.000000 0
0  35.376347 -109.965485 22.926693  -0.596951 -0.756110 -0.268232  0.000000 0.000000 0
0  16.795891 -123.000183 26.606670  -0.585347 -0.777140 -0.231130  0.000000 0.000000 0
  phy
0  39.835850 -108.141991 16.333807  -0.635459 -0.741309 -0.215993  0.000000 0.000000 0
0  35.376347 -109.965485 22.926693  -0.596951 -0.756110 -0.268232  0.000000 0.000000 0
0  36.073471 -111.531082 15.343891  -0.595477 -0.774801 -0.212345  0.000000 0.000000 0
  phy
0  16.795891 -123.000183 26.606670  -0.585347 -0.777140 -0.231130  0.000000 0.000000 0
0  16.153479 -123.657616 25.123785  -0.050951 -0.998516 -0.019207  0.000000 0.000000 0
0  36.134289 -111.641350 14.686009  -0.555121 -0.830724 -0.041699  0.000000 0.000000 0
  phy
0  16.302666 -123.288498 26.778681  0.100613 -0.922188 -0.373424  0.000000 0.000000 0
0  16.153479 -123.657616 25.123785  -0.050951 -0.998516 -0.019207  0.000000 0.000000 0
0  16.795891 -123.000183 26.606670  -0.585347 -0.777140 -0.231130  0.000000 0.000000 0
  phy
0  16.795891 -123.000183 26.606670  -0.585347 -0.777140 -0.231130  0.000000 0.000000 0
0  17.412951 -119.861542 33.958332  -0.222340 -0.865542 -0.448779  0.000000 0.000000 0
0  16.302666 -123.288498 26.778681  0.100613 -0.922188 -0.373424  0.000000 0.000000 0
  phy
0  35.376347 -109.965485 22.926693  -0.596951 -0.756110 -0.268232  0.000000 0.000000 0
0  17.412951 -119.861542 33.958332  -0.222340 -0.865542 -0.448779  0.000000 0.000000 0
0  16.795891 -123.000183 26.606670  -0.585347 -0.777140 -0.231130  0.000000 0.000000 0
  phy
0  41.570095 -105.913643 8.073653  -0.748564 -0.635645 0.188699  0.000000 0.000000 0
0  42.161636 -105.662537 10.224691  -0.741598 -0.662267 0.106936  0.000000 0.000000 0
0  38.960896 -109.038544 10.200022  -0.699037 -0.704273 0.123880  0.000000 0.000000 0
  phy
0  44.553631 -102.563393 10.223332  -0.805483 -0.583593 0.103042  0.000000 0.000000 0
0  42.161636 -105.662537 10.224691  -0.741598 -0.662267 0.106936  0.000000 0.000000 0
0  41.570095 -105.913643 8.073653  -0.748564 -0.635645 0.188699  0.000000 0.000000 0
  phy
0  45.521839 -101.764145 14.428260  -0.835877 -0.546159 0.054960  0.000000 0.000000 0
0  44.553631 -102.563393 10.223332  -0.805483 -0.583593 0.103042  0.000000 0.000000 0
0  45.630344 -100.720398 10.218131  -0.940852 -0.308526 0.140034  0.000000 0.000000 0
  phy
0  45.630344 -100.720398 10.218131  -0.940852 -0.308526 0.140034  0.000000 0.000000 0
0  46.370644 -100.536049 17.305849  -0.877536 -0.478021 0.037772  0.000000 0.000000 0
0  45.521839 -101.764145 14.428260  -0.835877 -0.546159 0.054960  0.000000 0.000000 0
  phy
0  45.521839 -101.764145 14.428260  -0.835877 -0.546159 0.054960  0.000000 0.000000 0
0  43.784088 -104.207916 15.820684  -0.794284 -0.605360 0.051505  0.000000 0.000000 0
0  44.553631 -102.563393 10.223332  -0.805483 -0.583593 0.103042  0.000000 0.000000 0
  phy
0  45.630344 -100.720398 10.218131  -0.940852 -0.308526 0.140034  0.000000 0.000000 0
0  49.090836 -94.517273 24.089376  -0.096085 0.990644 0.096915  0.000000 0.000000 0
0  48.192211 -97.037109 22.277376  -0.940067 -0.337991 0.045126  0.000000 0.000000 0
  phy
0  44.965187 -101.037605 8.041268  -0.945374 0.038360 0.323724  0.000000 0.000000 0
0  49.090836 -94.517273 24.089376  -0.096085 0.990644 0.096915  0.000000 0.000000 0
0  45.630344 -100.720398 10.218131  -0.940852 -0.308526 0.140034  0.000000 0.000000 0
  phy
0  45.630344 -100.720398 10.218131  -0.940852 -0.308526 0.140034  0.000000 0.000000 0
0  48.192211 -97.037109 22.277376  -0.940067 -0.337991 0.045126  0.000000 0.000000 0
0  47.310017 -98.916489 19.939466  -0.889356 -0.457160 0.007129  0.000000 0.000000 0
  phy
0  47.310017 -98.916489 19.939466  -0.889356 -0.457160 0.007129  0.000000 0.000000 0
0  46.370644 -100.536049 17.305849  -0.877536 -0.478021 0.037772  0.000000 0.000000 0
0  45.630344 -100.720398 10.218131  -0.940852 -0.308526 0.140034  0.000000 0.000000 0
  phy
0  42.746506 -105.438980 14.935064  -0.760344 -0.649118 0.022873  0.000000 0.000000 0
0  41.465015 -106.781967 13.509817  -0.727144 -0.683505 0.063899  0.000000 0.000000 0
0  42.340698 -105.544762 10.856546  -0.781713 -0.619862 0.068520  0.000000 0.000000 0
  phy
0  41.465015 -106.781967 13.509817  -0.727144 -0.683505 0.063899  0.000000 0.000000 0
0  42.161636 -105.662537 10.224691  -0.741598 -0.662267 0.106936  0.000000 0.000000 0
0  42.340698 -105.544762 10.856546  -0.781713 -0.619862 0.068520  0.000000 0.000000 0
  phy
0  42.340698 -105.544762 10.856546  -0.781713 -0.619862 0.068520  0.000000 0.000000 0
0  43.784088 -104.207916 15.820684  -0.794284 -0.605360 0.051505  0.000000 0.000000 0
0  42.746506 -105.438980 14.935064  -0.760344 -0.649118 0.022873  0.000000 0.000000 0
  phy
0  42.340698 -105.544762 10.856546  -0.781713 -0.619862 0.068520  0.000000 0.000000 0
0  42.161636 -105.662537 10.224691  -0.741598 -0.662267 0.106936  0.000000 0.000000 0
0  44.553631 -102.563393 10.223332  -0.805483 -0.583593 0.103042  0.000000 0.000000 0
  phy
0  44.553631 -102.563393 10.223332  -0.805483 -0.583593 0.103042  0.000000 0.000000 0
0  43.784088 -104.207916 15.820684  -0.794284 -0.605360 0.051505  0.000000 0.000000 0
0  42.340698 -105.544762 10.856546  -0.781713 -0.619862 0.068520  0.000000 0.000000 0
  phy
0  45.926182 -100.971397 21.730949  -0.828904 -0.554196 -0.076057  0.000000 0.000000 0
0  45.523914 -101.370209 22.065990  -0.652374 -0.708165 -0.270020  0.000000 0.000000 0
0  44.463955 -103.217598 19.075228  -0.661966 -0.722855 -0.198195  0.000000 0.000000 0
  phy
0  38.102020 -107.594139 23.168781  -0.638072 -0.727103 -0.253349  0.000000 0.000000 0
0  39.835850 -108.141991 16.333807  -0.635459 -0.741309 -0.215993  0.000000 0.000000 0
0  44.463955 -103.217598 19.075228  -0.661966 -0.722855 -0.198195  0.000000 0.000000 0
  phy
0  44.463955 -103.217598 19.075228  -0.661966 -0.722855 -0.198195  0.000000 0.000000 0
0  45.523914 -101.370209 22.065990  -0.652374 -0.708165 -0.270020  0.000000 0.000000 0
0  38.102020 -107.594139 23.168781  -0.638072 -0.727103 -0.253349  0.000000 0.000000 0
  phy
0  42.746506 -105.438980 14.935064  -0.760344 -0.649118 0.022873  0.000000 0.000000 0
0  41.603081 -106.737862 14.806324  -0.724787 -0.687051 -0.051428  0.000000 0.000000 0
0  41.465015 -106.781967 13.509817  -0.727144 -0.683505 0.063899  0.000000 0.000000 0
  phy
0  41.465015 -106.781967 13.509817  -0.727144 -0.683505 0.063899  0.000000 0.000000 0
0  39.072487 -109.017609 10.827688  -0.684194 -0.726832 0.059954  0.000000 0.000000 0
0  42.161636 -105.662537 10.224691  -0.741598 -0.662267 0.106936  0.000000 0.000000 0
  phy
0  -40.019817 -100.944771 8.007780  0.733353 -0.626589 0.263779  0.000000 0.000000 0
0  -39.437901 -102.393982 10.354946  0.738502 -0.652795 0.168739  0.000000 0.000000 0
0  -41.697311 -99.130424 8.398548  0.768291 -0.584053 0.261937  0.000000 0.000000 0
  phy
0  -39.437901 -102.393982 10.354946  0.738502 -0.652795 0.168739  0.000000 0.000000 0
0  -40.019817 -100.944771 8.007780  0.733353 -0.626589 0.263779  0.000000 0.000000 0
0  -35.561714 -106.013329 7.732501  0.644726 -0.738848 0.196040  0.000000 0.000000 0
  phy
0  -40.019817 -100.944771 8.007780  0.733353 -0.626589 0.263779  0.000000 0.000000 0
0  -35.119892 -106.036720 6.728106  0.608952 -0.719150 0.334664  0.000000 0.000000 0
0  -35.561714 -106.013329 7.732501  0.644726 -0.738848 0.196040  0.000000 0.000000 0
  phy
0  -37.895546 -101.887413 5.482157  0.627312 -0.550350 0.550994  0.000000 0.000000 0
0  -40.397030 -98.897469 5.582799  0.686741 -0.508813 0.519130  0.000000 0.000000 0
0  -39.883038 -95.424446 1.627706  0.666926 -0.478309 0.571341  0.000000 0.000000 0
  phy
0  -41.510448 -92.874672 1.903210  0.774922 0.430000 0.463245  0.000000 0.000000 0
0  -43.903263 -93.541351 6.767555  0.784830 0.542494 0.299569  0.000000 0.000000 0
0  -47.972656 -88.044037 27.621777  -0.033767 0.995057 -0.093385  0.000000 0.000000 0
  phy
0  -40.742821 -92.716049 1.871922  -0.059925 0.938684 0.339530  0.000000 0.000000 0
0  -41.510448 -92.874672 1.903210  0.774922 0.430000 0.463245  0.000000 0.000000 0
0  -47.972656 -88.044037 27.621777  -0.033767 0.995057 -0.093385  0.000000 0.000000 0
  phy
0  -43.903263 -93.541351 6.767555  0.784830 0.542494 0.299569  0.000000 0.000000 0
0  -41.510448 -92.874672 1.903210  0.774922 0.430000 0.463245  0.000000 0.000000 0
0  -44.131966 -93.997070 6.780928  0.836421 -0.315928 0.447871  0.000000 0.000000 0
  phy
0  -41.510448 -92.874672 1.903210  0.774922 0.430000 0.463245  0.000000 0.000000 0
0  -38.483917 -96.201599 1.316548  0.088620 0.049621 0.994829  0.000000 0.000000 0
0  -39.883038 -95.424446 1.627706  0.666926 -0.478309 0.571341  0.000000 0.000000 0
  phy
0  -38.483917 -96.201599 1.316548  0.088620 0.049621 0.994829  0.000000 0.000000 0
0  -41.510448 -92.874672 1.903210  0.774922 0.430000 0.463245  0.000000 0.000000 0
0  -40.742821 -92.716049 1.871922  -0.059925 0.938684 0.339530  0.000000 0.000000 0
  phy
0  -18.547201 -118.116356 9.424742  0.226709 -0.651939 0.723587  0.000000 0.000000 0
0  -32.027317 -101.682198 0.920547  0.312166 -0.606958 0.730858  0.000000 0.000000 0
0  -24.954205 -104.228821 0.204993  0.239993 -0.608696 0.756236  0.000000 0.000000 0
  phy
0  -24.954205 -104.228821 0.204993  0.239993 -0.608696 0.756236  0.000000 0.000000 0
0  -32.027317 -101.682198 0.920547  0.312166 -0.606958 0.730858  0.000000 0.000000 0
0  -26.148787 -103.461128 0.038145  0.046845 0.005983 0.998884  0.000000 0.000000 0
  phy
0  -32.027317 -101.682198 0.920547  0.312166 -0.606958 0.730858  0.000000 0.000000 0
0  -18.547201 -118.116356 9.424742  0.226709 -0.651939 0.723587  0.000000 0.000000 0
0  -33.398552 -106.532402 5.724548  0.356107 -0.639806 0.681055  0.000000 0.000000 0
  phy
0  -43.532925 -96.379906 8.388220  0.809187 -0.509164 0.293203  0.000000 0.000000 0
0  -44.131966 -93.997070 6.780928  0.836421 -0.315928 0.447871  0.000000 0.000000 0
0  -42.784161 -96.377197 6.646205  0.784976 -0.489426 0.379835  0.000000 0.000000 0
  phy
0  -42.328751 -99.105461 10.628310  0.790230 -0.594083 0.150342  0.000000 0.000000 0
0  -43.532925 -96.379906 8.388220  0.809187 -0.509164 0.293203  0.000000 0.000000 0
0  -41.697311 -99.130424 8.398548  0.768291 -0.584053 0.261937  0.000000 0.000000 0
  phy
0  -41.697311 -99.130424 8.398548  0.768291 -0.584053 0.261937  0.000000 0.000000 0
0  -43.532925 -96.379906 8.388220  0.809187 -0.509164 0.293203  0.000000 0.000000 0
0  -42.784161 -96.377197 6.646205  0.784976 -0.489426 0.379835  0.000000 0.000000 0
  phy
0  -39.437901 -102.393982 10.354946  0.738502 -0.652795 0.168739  0.000000 0.000000 0
0  -39.374920 -102.671791 11.639360  0.716179 -0.690721 0.099961  0.000000 0.000000 0
0  -39.700531 -102.419518 12.409755  0.744567 -0.662246 0.083964  0.000000 0.000000 0
  phy
0  -39.437901 -102.393982 10.354946  0.738502 -0.652795 0.168739  0.000000 0.000000 0
0  -39.700531 -102.419518 12.409755  0.744567 -0.662246 0.083964  0.000000 0.000000 0
0  -42.328751 -99.105461 10.628310  0.790230 -0.594083 0.150342  0.000000 0.000000 0
  phy
0  -44.585697 -95.863815 11.106531  0.849952 -0.495198 0.179892  0.000000 0.000000 0
0  -42.328751 -99.105461 10.628310  0.790230 -0.594083 0.150342  0.000000 0.000000 0
0  -44.966785 -95.714920 13.131154  0.837336 -0.543813 0.055998  0.000000 0.000000 0
  phy
0  -44.966785 -95.714920 13.131154  0.837336 -0.543813 0.055998  0.000000 0.000000 0
0  -42.328751 -99.105461 10.628310  0.790230 -0.594083 0.150342  0.000000 0.000000 0
0  -42.728882 -98.912506 12.827447  0.785165 -0.614111 0.079895  0.000000 0.000000 0
  phy
0  -42.328751 -99.105461 10.628310  0.790230 -0.594083 0.150342  0.000000 0.000000 0
0  -39.700531 -102.419518 12.409755  0.744567 -0.662246 0.083964  0.000000 0.000000 0
0  -42.728882 -98.912506 12.827447  0.785165 -0.614111 0.079895  0.000000 0.000000 0
  phy
0  -39.437901 -102.393982 10.354946  0.738502 -0.652795 0.168739  0.000000 0.000000 0
0  -42.328751 -99.105461 10.628310  0.790230 -0.594083 0.150342  0.000000 0.000000 0
0  -41.697311 -99.130424 8.398548  0.768291 -0.584053 0.261937  0.000000 0.000000 0
  phy
0  -39.374920 -102.671791 11.639360  0.716179 -0.690721 0.099961  0.000000 0.000000 0
0  -39.437901 -102.393982 10.354946  0.738502 -0.652795 0.168739  0.000000 0.000000 0
0  -35.587936 -106.148422 8.715761  0.628928 -0.776844 0.031038  0.000000 0.000000 0
  phy
0  -35.587936 -106.148422 8.715761  0.628928 -0.776844 0.031038  0.000000 0.000000 0
0  -39.700531 -102.419518 12.409755  0.744567 -0.662246 0.083964  0.000000 0.000000 0
0  -39.374920 -102.671791 11.639360  0.716179 -0.690721 0.099961  0.000000 0.000000 0
  phy
0  -43.903263 -93.541351 6.767555  0.784830 0.542494 0.299569  0.000000 0.000000 0
0  -44.582539 -93.647606 8.550720  0.848776 0.446137 0.283798  0.000000 0.000000 0
0  -47.972656 -88.044037 27.621777  -0.033767 0.995057 -0.093385  0.000000 0.000000 0
  phy
0  -44.582539 -93.647606 8.550720  0.848776 0.446137 0.283798  0.000000 0.000000 0
0  -44.797459 -94.100098 8.563045  0.955246 0.077877 0.285377  0.000000 0.000000 0
0  -47.972656 -88.044037 27.621777  -0.033767 0.995057 -0.093385  0.000000 0.000000 0
  phy
0  -44.582539 -93.647606 8.550720  0.848776 0.446137 0.283798  0.000000 0.000000 0
0  -43.903263 -93.541351 6.767555  0.784830 0.542494 0.299569  0.000000 0.000000 0
0  -44.131966 -93.997070 6.780928  0.836421 -0.315928 0.447871  0.000000 0.000000 0
  phy
0  -44.797459 -94.100098 8.563045  0.955246 0.077877 0.285377  0.000000 0.000000 0
0  -44.582539 -93.647606 8.550720  0.848776 0.446137 0.283798  0.000000 0.000000 0
0  -44.131966 -93.997070 6.780928  0.836421 -0.315928 0.447871  0.000000 0.000000 0
  phy
0  -42.849773 -98.812653 13.476089  0.797965 -0.602087 0.027262  0.000000 0.000000 0
0  -43.817127 -97.614799 18.596895  0.816377 -0.577518 0.001381  0.000000 0.000000 0
0  -44.966785 -95.714920 13.131154  0.837336 -0.543813 0.055998  0.000000 0.000000 0
  phy
0  -44.966785 -95.714920 13.131154  0.837336 -0.543813 0.055998  0.000000 0.000000 0
0  -43.817127 -97.614799 18.596895  0.816377 -0.577518 0.001381  0.000000 0.000000 0
0  -45.548565 -95.044968 17.438877  0.861881 -0.507091 0.004544  0.000000 0.000000 0
  phy
0  -42.060501 -99.926147 17.425657  0.766725 -0.639547 -0.055788  0.000000 0.000000 0
0  -43.817127 -97.614799 18.596895  0.816377 -0.577518 0.001381  0.000000 0.000000 0
0  -42.849773 -98.812653 13.476089  0.797965 -0.602087 0.027262  0.000000 0.000000 0
  phy
0  -43.817127 -97.614799 18.596895  0.816377 -0.577518 0.001381  0.000000 0.000000 0
0  -42.060501 -99.926147 17.425657  0.766725 -0.639547 -0.055788  0.000000 0.000000 0
0  -44.562954 -96.329666 21.646360  0.834102 -0.547335 -0.068541  0.000000 0.000000 0
  phy
0  -43.817127 -97.614799 18.596895  0.816377 -0.577518 0.001381  0.000000 0.000000 0
0  -44.562954 -96.329666 21.646360  0.834102 -0.547335 -0.068541  0.000000 0.000000 0
0  -45.548565 -95.044968 17.438877  0.861881 -0.507091 0.004544  0.000000 0.000000 0
  phy
0  -46.100174 -93.897636 20.418894  0.898765 -0.438034 -0.018650  0.000000 0.000000 0
0  -45.954647 -93.829781 13.292163  0.962439 -0.261889 0.071590  0.000000 0.000000 0
0  -45.548565 -95.044968 17.438877  0.861881 -0.507091 0.004544  0.000000 0.000000 0
  phy
0  -44.562954 -96.329666 21.646360  0.834102 -0.547335 -0.068541  0.000000 0.000000 0
0  -46.100174 -93.897636 20.418894  0.898765 -0.438034 -0.018650  0.000000 0.000000 0
0  -45.548565 -95.044968 17.438877  0.861881 -0.507091 0.004544  0.000000 0.000000 0
  phy
0  -39.700531 -102.419518 12.409755  0.744567 -0.662246 0.083964  0.000000 0.000000 0
0  -39.758911 -102.418762 13.048977  0.721720 -0.691581 0.028924  0.000000 0.000000 0
0  -42.728882 -98.912506 12.827447  0.785165 -0.614111 0.079895  0.000000 0.000000 0
  phy
0  -39.758911 -102.418762 13.048977  0.721720 -0.691581 0.028924  0.000000 0.000000 0
0  -39.700531 -102.419518 12.409755  0.744567 -0.662246 0.083964  0.000000 0.000000 0
0  -35.587936 -106.148422 8.715761  0.628928 -0.776844 0.031038  0.000000 0.000000 0
  phy
0  -35.587936 -106.148422 8.715761  0.628928 -0.776844 0.031038  0.000000 0.000000 0
0  -39.888580 -102.377167 16.978373  0.678042 -0.727440 -0.105316  0.000000 0.000000 0
0  -39.758911 -102.418762 13.048977  0.721720 -0.691581 0.028924  0.000000 0.000000 0
  phy
0  41.806927 -103.358940 3.962504  -0.733415 -0.538069 0.415434  0.000000 0.000000 0
0  41.294170 -103.144104 3.081116  -0.678067 -0.490340 0.547532  0.000000 0.000000 0
0  43.262749 -101.039391 3.889365  -0.781241 -0.368244 0.504041  0.000000 0.000000 0
  phy
0  41.806927 -103.358940 3.962504  -0.733415 -0.538069 0.415434  0.000000 0.000000 0
0  39.933357 -105.921715 4.223501  -0.669205 -0.598116 0.440933  0.000000 0.000000 0
0  41.294170 -103.144104 3.081116  -0.678067 -0.490340 0.547532  0.000000 0.000000 0
  phy
0  29.871386 -107.952103 -0.852804  0.013110 -0.020211 0.999710  0.000000 0.000000 0
0  25.436611 -108.929283 -0.743126  0.016509 -0.073505 0.997158  0.000000 0.000000 0
0  -22.080778 -104.355064 -0.082607  0.059603 -0.394201 0.917090  0.000000 0.000000 0
  phy
0  -22.080778 -104.355064 -0.082607  0.059603 -0.394201 0.917090  0.000000 0.000000 0
0  25.436611 -108.929283 -0.743126  0.016509 -0.073505 0.997158  0.000000 0.000000 0
0  21.274788 -109.109581 -0.626268  0.044234 -0.471481 0.880766  0.000000 0.000000 0
  phy
0  26.816946 -109.224884 -0.568197  -0.082874 -0.619346 0.780732  0.000000 0.000000 0
0  25.436611 -108.929283 -0.743126  0.016509 -0.073505 0.997158  0.000000 0.000000 0
0  29.871386 -107.952103 -0.852804  0.013110 -0.020211 0.999710  0.000000 0.000000 0
  phy
0  25.436611 -108.929283 -0.743126  0.016509 -0.073505 0.997158  0.000000 0.000000 0
0  26.816946 -109.224884 -0.568197  -0.082874 -0.619346 0.780732  0.000000 0.000000 0
0  24.138807 -109.483063 -0.509510  0.003905 -0.589967 0.807418  0.000000 0.000000 0
  phy
0  25.436611 -108.929283 -0.743126  0.016509 -0.073505 0.997158  0.000000 0.000000 0
0  24.138807 -109.483063 -0.509510  0.003905 -0.589967 0.807418  0.000000 0.000000 0
0  21.274788 -109.109581 -0.626268  0.044234 -0.471481 0.880766  0.000000 0.000000 0
  phy
0  34.294117 -112.605286 6.024223  -0.550722 -0.808550 0.207248  0.000000 0.000000 0
0  15.735238 -123.349289 10.403238  -0.083522 -0.882887 0.462099  0.000000 0.000000 0
0  33.689072 -112.739578 5.116022  -0.496438 -0.808623 0.315719  0.000000 0.000000 0
  phy
0  34.294117 -112.605286 6.024223  -0.550722 -0.808550 0.207248  0.000000 0.000000 0
0  15.707797 -123.692505 12.162803  -0.148341 -0.988223 0.037547  0.000000 0.000000 0
0  15.735238 -123.349289 10.403238  -0.083522 -0.882887 0.462099  0.000000 0.000000 0
  phy
0  42.161636 -105.662537 10.224691  -0.741598 -0.662267 0.106936  0.000000 0.000000 0
0  39.072487 -109.017609 10.827688  -0.684194 -0.726832 0.059954  0.000000 0.000000 0
0  38.960896 -109.038544 10.200022  -0.699037 -0.704273 0.123880  0.000000 0.000000 0
  phy
0  41.294170 -103.144104 3.081116  -0.678067 -0.490340 0.547532  0.000000 0.000000 0
0  39.933357 -105.921715 4.223501  -0.669205 -0.598116 0.440933  0.000000 0.000000 0
0  39.232800 -105.802429 3.200705  -0.618208 -0.558417 0.553162  0.000000 0.000000 0
  phy
0  39.232800 -105.802429 3.200705  -0.618208 -0.558417 0.553162  0.000000 0.000000 0
0  38.538971 -102.455994 -0.834064  -0.595449 -0.529004 0.604645  0.000000 0.000000 0
0  41.294170 -103.144104 3.081116  -0.678067 -0.490340 0.547532  0.000000 0.000000 0
  phy
0  34.024498 -106.380997 -0.722743  -0.401439 -0.598925 0.692919  0.000000 0.000000 0
0  32.923004 -112.895813 4.598295  -0.443543 -0.695694 0.565048  0.000000 0.000000 0
0  31.944948 -113.094063 4.222480  -0.283532 -0.708933 0.645774  0.000000 0.000000 0
  phy
0  33.689072 -112.739578 5.116022  -0.496438 -0.808623 0.315719  0.000000 0.000000 0
0  15.735238 -123.349289 10.403238  -0.083522 -0.882887 0.462099  0.000000 0.000000 0
0  32.923004 -112.895813 4.598295  -0.443543 -0.695694 0.565048  0.000000 0.000000 0
  phy
0  15.735238 -123.349289 10.403238  -0.083522 -0.882887 0.462099  0.000000 0.000000 0
0  31.944948 -113.094063 4.222480  -0.283532 -0.708933 0.645774  0.000000 0.000000 0
0  32.923004 -112.895813 4.598295  -0.443543 -0.695694 0.565048  0.000000 0.000000 0
  phy
0  -39.840179 -95.694946 33.404816  0.620626 -0.618335 -0.482167  0.000000 0.000000 0
0  -45.652649 -92.824875 27.870869  0.685049 -0.621830 -0.379519  0.000000 0.000000 0
0  -38.521347 -97.672318 32.295467  0.642962 -0.689208 -0.334054  0.000000 0.000000 0
  phy
0  -45.652649 -92.824875 27.870869  0.685049 -0.621830 -0.379519  0.000000 0.000000 0
0  -44.904488 -94.957649 25.058245  0.653847 -0.697275 -0.293755  0.000000 0.000000 0
0  -38.521347 -97.672318 32.295467  0.642962 -0.689208 -0.334054  0.000000 0.000000 0
  phy
0  -45.652649 -92.824875 27.870869  0.685049 -0.621830 -0.379519  0.000000 0.000000 0
0  -39.840179 -95.694946 33.404816  0.620626 -0.618335 -0.482167  0.000000 0.000000 0
0  -41.614021 -92.811531 34.548302  0.008267 0.483546 -0.875280  0.000000 0.000000 0
  phy
0  -46.342323 -90.060799 30.470533  0.797408 -0.361779 -0.482967  0.000000 0.000000 0
0  -45.652649 -92.824875 27.870869  0.685049 -0.621830 -0.379519  0.000000 0.000000 0
0  -41.614021 -92.811531 34.548302  0.008267 0.483546 -0.875280  0.000000 0.000000 0
  phy
0  42.969147 -98.520737 31.902613  -0.112775 0.670863 -0.732956  0.000000 0.000000 0
0  41.151009 -101.568115 30.823193  -0.596515 -0.597216 -0.536193  0.000000 0.000000 0
0  47.620491 -96.351845 27.140656  -0.776921 -0.456845 -0.433228  0.000000 0.000000 0
  phy
0  42.969147 -98.520737 31.902613  -0.112775 0.670863 -0.732956  0.000000 0.000000 0
0  47.620491 -96.351845 27.140656  -0.776921 -0.456845 -0.433228  0.000000 0.000000 0
0  49.090836 -94.517273 24.089376  -0.096085 0.990644 0.096915  0.000000 0.000000 0
  phy
0  38.102020 -107.594139 23.168781  -0.638072 -0.727103 -0.253349  0.000000 0.000000 0
0  35.376347 -109.965485 22.926693  -0.596951 -0.756110 -0.268232  0.000000 0.000000 0
0  39.835850 -108.141991 16.333807  -0.635459 -0.741309 -0.215993  0.000000 0.000000 0
  phy
0  39.658894 -103.521721 29.906912  -0.613713 -0.720064 -0.323827  0.000000 0.000000 0
0  35.376347 -109.965485 22.926693  -0.596951 -0.756110 -0.268232  0.000000 0.000000 0
0  38.102020 -107.594139 23.168781  -0.638072 -0.727103 -0.253349  0.000000 0.000000 0
  phy
0  38.102020 -107.594139 23.168781  -0.638072 -0.727103 -0.253349  0.000000 0.000000 0
0  45.523914 -101.370209 22.065990  -0.652374 -0.708165 -0.270020  0.000000 0.000000 0
0  39.658894 -103.521721 29.906912  -0.613713 -0.720064 -0.323827  0.000000 0.000000 0
  phy
0  29.918779 -115.472839 14.633181  -0.508654 -0.860947 0.006417  0.000000 0.000000 0
0  34.039455 -112.960022 7.895513  -0.509109 -0.860618 0.012029  0.000000 0.000000 0
0  36.134289 -111.641350 14.686009  -0.555121 -0.830724 -0.041699  0.000000 0.000000 0
  phy
0  36.134289 -111.641350 14.686009  -0.555121 -0.830724 -0.041699  0.000000 0.000000 0
0  16.153479 -123.657616 25.123785  -0.050951 -0.998516 -0.019207  0.000000 0.000000 0
0  29.918779 -115.472839 14.633181  -0.508654 -0.860947 0.006417  0.000000 0.000000 0
  phy
0  29.918779 -115.472839 14.633181  -0.508654 -0.860947 0.006417  0.000000 0.000000 0
0  15.707797 -123.692505 12.162803  -0.148341 -0.988223 0.037547  0.000000 0.000000 0
0  34.039455 -112.960022 7.895513  -0.509109 -0.860618 0.012029  0.000000 0.000000 0
  phy
0  16.153479 -123.657616 25.123785  -0.050951 -0.998516 -0.019207  0.000000 0.000000 0
0  15.707797 -123.692505 12.162803  -0.148341 -0.988223 0.037547  0.000000 0.000000 0
0  29.918779 -115.472839 14.633181  -0.508654 -0.860947 0.006417  0.000000 0.000000 0
  phy
0  -37.895546 -101.887413 5.482157  0.627312 -0.550350 0.550994  0.000000 0.000000 0
0  -34.390713 -106.212883 6.113081  0.528377 -0.633076 0.565715  0.000000 0.000000 0
0  -35.119892 -106.036720 6.728106  0.608952 -0.719150 0.334664  0.000000 0.000000 0
  phy
0  -34.390713 -106.212883 6.113081  0.528377 -0.633076 0.565715  0.000000 0.000000 0
0  -37.895546 -101.887413 5.482157  0.627312 -0.550350 0.550994  0.000000 0.000000 0
0  -37.809498 -97.605942 1.420654  0.553763 -0.524372 0.646823  0.000000 0.000000 0
  phy
0  -37.895546 -101.887413 5.482157  0.627312 -0.550350 0.550994  0.000000 0.000000 0
0  -39.883038 -95.424446 1.627706  0.666926 -0.478309 0.571341  0.000000 0.000000 0
0  -37.809498 -97.605942 1.420654  0.553763 -0.524372 0.646823  0.000000 0.000000 0
  phy
0  -34.390713 -106.212883 6.113081  0.528377 -0.633076 0.565715  0.000000 0.000000 0
0  -18.422245 -119.281075 10.829128  0.308689 -0.887505 0.342118  0.000000 0.000000 0
0  -35.119892 -106.036720 6.728106  0.608952 -0.719150 0.334664  0.000000 0.000000 0
  phy
0  -33.398552 -106.532402 5.724548  0.356107 -0.639806 0.681055  0.000000 0.000000 0
0  -18.422245 -119.281075 10.829128  0.308689 -0.887505 0.342118  0.000000 0.000000 0
0  -34.390713 -106.212883 6.113081  0.528377 -0.633076 0.565715  0.000000 0.000000 0
  phy
0  -38.483917 -96.201599 1.316548  0.088620 0.049621 0.994829  0.000000 0.000000 0
0  -40.742821 -92.716049 1.871922  -0.059925 0.938684 0.339530  0.000000 0.000000 0
0  -26.604244 -103.040230 0.079384  0.020643 0.127201 0.991662  0.000000 0.000000 0
  phy
0  -26.604244 -103.040230 0.079384  0.020643 0.127201 0.991662  0.000000 0.000000 0
0  -40.742821 -92.716049 1.871922  -0.059925 0.938684 0.339530  0.000000 0.000000 0
0  40.291138 -99.975822 -0.796489  -0.079938 0.823687 0.561382  0.000000 0.000000 0
  phy
0  -39.883038 -95.424446 1.627706  0.666926 -0.478309 0.571341  0.000000 0.000000 0
0  -38.483917 -96.201599 1.316548  0.088620 0.049621 0.994829  0.000000 0.000000 0
0  -37.809498 -97.605942 1.420654  0.553763 -0.524372 0.646823  0.000000 0.000000 0
  phy
0  37.085815 -103.178642 -0.998549  0.013419 0.031883 0.999402  0.000000 0.000000 0
0  -26.148787 -103.461128 0.038145  0.046845 0.005983 0.998884  0.000000 0.000000 0
0  -26.604244 -103.040230 0.079384  0.020643 0.127201 0.991662  0.000000 0.000000 0
  phy
0  37.085815 -103.178642 -0.998549  0.013419 0.031883 0.999402  0.000000 0.000000 0
0  -26.604244 -103.040230 0.079384  0.020643 0.127201 0.991662  0.000000 0.000000 0
0  40.291138 -99.975822 -0.796489  -0.079938 0.823687 0.561382  0.000000 0.000000 0
  phy
0  -22.080778 -104.355064 -0.082607  0.059603 -0.394201 0.917090  0.000000 0.000000 0
0  -26.148787 -103.461128 0.038145  0.046845 0.005983 0.998884  0.000000 0.000000 0
0  37.085815 -103.178642 -0.998549  0.013419 0.031883 0.999402  0.000000 0.000000 0
  phy
0  -26.148787 -103.461128 0.038145  0.046845 0.005983 0.998884  0.000000 0.000000 0
0  -22.080778 -104.355064 -0.082607  0.059603 -0.394201 0.917090  0.000000 0.000000 0
0  -24.954205 -104.228821 0.204993  0.239993 -0.608696 0.756236  0.000000 0.000000 0
  phy
0  -45.954647 -93.829781 13.292163  0.962439 -0.261889 0.071590  0.000000 0.000000 0
0  -44.585697 -95.863815 11.106531  0.849952 -0.495198 0.179892  0.000000 0.000000 0
0  -44.966785 -95.714920 13.131154  0.837336 -0.543813 0.055998  0.000000 0.000000 0
  phy
0  -44.585697 -95.863815 11.106531  0.849952 -0.495198 0.179892  0.000000 0.000000 0
0  -45.954647 -93.829781 13.292163  0.962439 -0.261889 0.071590  0.000000 0.000000 0
0  -45.486046 -94.087746 11.057673  0.966024 0.091899 0.241560  0.000000 0.000000 0
  phy
0  -35.587936 -106.148422 8.715761  0.628928 -0.776844 0.031038  0.000000 0.000000 0
0  -39.437901 -102.393982 10.354946  0.738502 -0.652795 0.168739  0.000000 0.000000 0
0  -35.561714 -106.013329 7.732501  0.644726 -0.738848 0.196040  0.000000 0.000000 0
  phy
0  -44.797459 -94.100098 8.563045  0.955246 0.077877 0.285377  0.000000 0.000000 0
0  -45.486046 -94.087746 11.057673  0.966024 0.091899 0.241560  0.000000 0.000000 0
0  -47.972656 -88.044037 27.621777  -0.033767 0.995057 -0.093385  0.000000 0.000000 0
  phy
0  -42.060501 -99.926147 17.425657  0.766725 -0.639547 -0.055788  0.000000 0.000000 0
0  -44.173168 -96.725105 21.963646  0.662932 -0.708366 -0.242360  0.000000 0.000000 0
0  -44.562954 -96.329666 21.646360  0.834102 -0.547335 -0.068541  0.000000 0.000000 0
  phy
0  -44.173168 -96.725105 21.963646  0.662932 -0.708366 -0.242360  0.000000 0.000000 0
0  -42.060501 -99.926147 17.425657  0.766725 -0.639547 -0.055788  0.000000 0.000000 0
0  -39.888580 -102.377167 16.978373  0.678042 -0.727440 -0.105316  0.000000 0.000000 0
  phy
0  -44.173168 -96.725105 21.963646  0.662932 -0.708366 -0.242360  0.000000 0.000000 0
0  -45.312428 -94.548546 24.710094  0.844329 -0.520968 -0.125300  0.000000 0.000000 0
0  -44.562954 -96.329666 21.646360  0.834102 -0.547335 -0.068541  0.000000 0.000000 0
  phy
0  -45.312428 -94.548546 24.710094  0.844329 -0.520968 -0.125300  0.000000 0.000000 0
0  -44.173168 -96.725105 21.963646  0.662932 -0.708366 -0.242360  0.000000 0.000000 0
0  -44.904488 -94.957649 25.058245  0.653847 -0.697275 -0.293755  0.000000 0.000000 0
  phy
0  -39.578949 -102.378082 17.928194  0.656830 -0.713348 -0.244353  0.000000 0.000000 0
0  -17.994324 -119.034096 27.204453  0.446097 -0.821438 -0.355297  0.000000 0.000000 0
0  -44.173168 -96.725105 21.963646  0.662932 -0.708366 -0.242360  0.000000 0.000000 0
  phy
0  -17.994324 -119.034096 27.204453  0.446097 -0.821438 -0.355297  0.000000 0.000000 0
0  -44.904488 -94.957649 25.058245  0.653847 -0.697275 -0.293755  0.000000 0.000000 0
0  -44.173168 -96.725105 21.963646  0.662932 -0.708366 -0.242360  0.000000 0.000000 0
  phy
0  -44.173168 -96.725105 21.963646  0.662932 -0.708366 -0.242360  0.000000 0.000000 0
0  -39.888580 -102.377167 16.978373  0.678042 -0.727440 -0.105316  0.000000 0.000000 0
0  -39.578949 -102.378082 17.928194  0.656830 -0.713348 -0.244353  0.000000 0.000000 0
  phy
0  -45.954647 -93.829781 13.292163  0.962439 -0.261889 0.071590  0.000000 0.000000 0
0  -47.343307 -90.525711 25.650370  0.955215 -0.295117 -0.021705  0.000000 0.000000 0
0  -47.972656 -88.044037 27.621777  -0.033767 0.995057 -0.093385  0.000000 0.000000 0
  phy
0  -45.486046 -94.087746 11.057673  0.966024 0.091899 0.241560  0.000000 0.000000 0
0  -45.954647 -93.829781 13.292163  0.962439 -0.261889 0.071590  0.000000 0.000000 0
0  -47.972656 -88.044037 27.621777  -0.033767 0.995057 -0.093385  0.000000 0.000000 0
  phy
0  -45.954647 -93.829781 13.292163  0.962439 -0.261889 0.071590  0.000000 0.000000 0
0  -44.966785 -95.714920 13.131154  0.837336 -0.543813 0.055998  0.000000 0.000000 0
0  -45.548565 -95.044968 17.438877  0.861881 -0.507091 0.004544  0.000000 0.000000 0
  phy
0  -18.009218 -119.431892 25.550165  0.350823 -0.914147 -0.203122  0.000000 0.000000 0
0  16.302666 -123.288498 26.778681  0.100613 -0.922188 -0.373424  0.000000 0.000000 0
0  -17.994324 -119.034096 27.204453  0.446097 -0.821438 -0.355297  0.000000 0.000000 0
  phy
0  -18.009218 -119.431892 25.550165  0.350823 -0.914147 -0.203122  0.000000 0.000000 0
0  -17.831261 -119.588730 24.989834  0.317371 -0.947598 -0.036515  0.000000 0.000000 0
0  16.302666 -123.288498 26.778681  0.100613 -0.922188 -0.373424  0.000000 0.000000 0
  phy
0  -18.009218 -119.431892 25.550165  0.350823 -0.914147 -0.203122  0.000000 0.000000 0
0  -17.994324 -119.034096 27.204453  0.446097 -0.821438 -0.355297  0.000000 0.000000 0
0  -36.805111 -105.188324 16.545361  0.623117 -0.781026 -0.041522  0.000000 0.000000 0
  phy
0  -36.805111 -105.188324 16.545361  0.623117 -0.781026 -0.041522  0.000000 0.000000 0
0  -17.831261 -119.588730 24.989834  0.317371 -0.947598 -0.036515  0.000000 0.000000 0
0  -18.009218 -119.431892 25.550165  0.350823 -0.914147 -0.203122  0.000000 0.000000 0
  phy
0  -35.561714 -106.013329 7.732501  0.644726 -0.738848 0.196040  0.000000 0.000000 0
0  -18.422245 -119.281075 10.829128  0.308689 -0.887505 0.342118  0.000000 0.000000 0
0  -35.587936 -106.148422 8.715761  0.628928 -0.776844 0.031038  0.000000 0.000000 0
  phy
0  -35.587936 -106.148422 8.715761  0.628928 -0.776844 0.031038  0.000000 0.000000 0
0  -18.422245 -119.281075 10.829128  0.308689 -0.887505 0.342118  0.000000 0.000000 0
0  -18.319855 -119.615608 12.478614  0.303203 -0.952925 0.001247  0.000000 0.000000 0
  phy
0  -35.587936 -106.148422 8.715761  0.628928 -0.776844 0.031038  0.000000 0.000000 0
0  -18.319855 -119.615608 12.478614  0.303203 -0.952925 0.001247  0.000000 0.000000 0
0  -36.805111 -105.188324 16.545361  0.623117 -0.781026 -0.041522  0.000000 0.000000 0
  phy
0  -36.805111 -105.188324 16.545361  0.623117 -0.781026 -0.041522  0.000000 0.000000 0
0  -39.888580 -102.377167 16.978373  0.678042 -0.727440 -0.105316  0.000000 0.000000 0
0  -35.587936 -106.148422 8.715761  0.628928 -0.776844 0.031038  0.000000 0.000000 0
  phy
0  43.873672 -100.646423 5.601250  -0.840270 0.395993 0.370318  0.000000 0.000000 0
0  44.069828 -101.108803 5.614432  -0.930349 0.023587 0.365916  0.000000 0.000000 0
0  43.262749 -101.039391 3.889365  -0.781241 -0.368244 0.504041  0.000000 0.000000 0
  phy
0  43.262749 -101.039391 3.889365  -0.781241 -0.368244 0.504041  0.000000 0.000000 0
0  43.052753 -100.574829 3.877382  -0.779389 0.494598 0.384611  0.000000 0.000000 0
0  43.873672 -100.646423 5.601250  -0.840270 0.395993 0.370318  0.000000 0.000000 0
  phy
0  41.294170 -103.144104 3.081116  -0.678067 -0.490340 0.547532  0.000000 0.000000 0
0  40.291138 -99.975822 -0.796489  -0.079938 0.823687 0.561382  0.000000 0.000000 0
0  43.262749 -101.039391 3.889365  -0.781241 -0.368244 0.504041  0.000000 0.000000 0
  phy
0  43.262749 -101.039391 3.889365  -0.781241 -0.368244 0.504041  0.000000 0.000000 0
0  40.291138 -99.975822 -0.796489  -0.079938 0.823687 0.561382  0.000000 0.000000 0
0  43.052753 -100.574829 3.877382  -0.779389 0.494598 0.384611  0.000000 0.000000 0
  phy
0  43.873672 -100.646423 5.601250  -0.840270 0.395993 0.370318  0.000000 0.000000 0
0  49.090836 -94.517273 24.089376  -0.096085 0.990644 0.096915  0.000000 0.000000 0
0  44.069828 -101.108803 5.614432  -0.930349 0.023587 0.365916  0.000000 0.000000 0
  phy
0  43.052753 -100.574829 3.877382  -0.779389 0.494598 0.384611  0.000000 0.000000 0
0  49.090836 -94.517273 24.089376  -0.096085 0.990644 0.096915  0.000000 0.000000 0
0  43.873672 -100.646423 5.601250  -0.840270 0.395993 0.370318  0.000000 0.000000 0
  phy
0  30.847189 -113.083626 3.883417  -0.192154 -0.686491 0.701290  0.000000 0.000000 0
0  30.156078 -112.485359 3.136699  -0.165194 -0.673816 0.720197  0.000000 0.000000 0
0  29.231209 -108.658569 -0.627313  -0.173081 -0.659092 0.731875  0.000000 0.000000 0
  phy
0  30.847189 -113.083626 3.883417  -0.192154 -0.686491 0.701290  0.000000 0.000000 0
0  29.231209 -108.658569 -0.627313  -0.173081 -0.659092 0.731875  0.000000 0.000000 0
0  31.944948 -113.094063 4.222480  -0.283532 -0.708933 0.645774  0.000000 0.000000 0
  phy
0  30.156078 -112.485359 3.136699  -0.165194 -0.673816 0.720197  0.000000 0.000000 0
0  30.847189 -113.083626 3.883417  -0.192154 -0.686491 0.701290  0.000000 0.000000 0
0  15.977109 -122.204880 9.002025  0.012947 -0.619727 0.784711  0.000000 0.000000 0
  phy
0  30.847189 -113.083626 3.883417  -0.192154 -0.686491 0.701290  0.000000 0.000000 0
0  31.944948 -113.094063 4.222480  -0.283532 -0.708933 0.645774  0.000000 0.000000 0
0  15.977109 -122.204880 9.002025  0.012947 -0.619727 0.784711  0.000000 0.000000 0
  phy
0  26.816946 -109.224884 -0.568197  -0.082874 -0.619346 0.780732  0.000000 0.000000 0
0  29.871386 -107.952103 -0.852804  0.013110 -0.020211 0.999710  0.000000 0.000000 0
0  29.231209 -108.658569 -0.627313  -0.173081 -0.659092 0.731875  0.000000 0.000000 0
  phy
0  26.816946 -109.224884 -0.568197  -0.082874 -0.619346 0.780732  0.000000 0.000000 0
0  29.231209 -108.658569 -0.627313  -0.173081 -0.659092 0.731875  0.000000 0.000000 0
0  15.977109 -122.204880 9.002025  0.012947 -0.619727 0.784711  0.000000 0.000000 0
  phy
0  24.138807 -109.483063 -0.509510  0.003905 -0.589967 0.807418  0.000000 0.000000 0
0  26.816946 -109.224884 -0.568197  -0.082874 -0.619346 0.780732  0.000000 0.000000 0
0  15.977109 -122.204880 9.002025  0.012947 -0.619727 0.784711  0.000000 0.000000 0
  phy
0  32.456192 -107.303864 -0.694876  -0.274545 -0.608178 0.744812  0.000000 0.000000 0
0  32.980064 -106.439667 -0.900312  -0.110216 -0.193137 0.974962  0.000000 0.000000 0
0  34.024498 -106.380997 -0.722743  -0.401439 -0.598925 0.692919  0.000000 0.000000 0
  phy
0  32.980064 -106.439667 -0.900312  -0.110216 -0.193137 0.974962  0.000000 0.000000 0
0  32.456192 -107.303864 -0.694876  -0.274545 -0.608178 0.744812  0.000000 0.000000 0
0  29.871386 -107.952103 -0.852804  0.013110 -0.020211 0.999710  0.000000 0.000000 0
  phy
0  32.980064 -106.439667 -0.900312  -0.110216 -0.193137 0.974962  0.000000 0.000000 0
0  29.871386 -107.952103 -0.852804  0.013110 -0.020211 0.999710  0.000000 0.000000 0
0  37.085815 -103.178642 -0.998549  0.013419 0.031883 0.999402  0.000000 0.000000 0
  phy
0  29.871386 -107.952103 -0.852804  0.013110 -0.020211 0.999710  0.000000 0.000000 0
0  32.456192 -107.303864 -0.694876  -0.274545 -0.608178 0.744812  0.000000 0.000000 0
0  29.231209 -108.658569 -0.627313  -0.173081 -0.659092 0.731875  0.000000 0.000000 0
  phy
0  32.456192 -107.303864 -0.694876  -0.274545 -0.608178 0.744812  0.000000 0.000000 0
0  34.024498 -106.380997 -0.722743  -0.401439 -0.598925 0.692919  0.000000 0.000000 0
0  31.944948 -113.094063 4.222480  -0.283532 -0.708933 0.645774  0.000000 0.000000 0
  phy
0  29.231209 -108.658569 -0.627313  -0.173081 -0.659092 0.731875  0.000000 0.000000 0
0  32.456192 -107.303864 -0.694876  -0.274545 -0.608178 0.744812  0.000000 0.000000 0
0  31.944948 -113.094063 4.222480  -0.283532 -0.708933 0.645774  0.000000 0.000000 0
  phy
0  38.538971 -102.455994 -0.834064  -0.595449 -0.529004 0.604645  0.000000 0.000000 0
0  40.291138 -99.975822 -0.796489  -0.079938 0.823687 0.561382  0.000000 0.000000 0
0  41.294170 -103.144104 3.081116  -0.678067 -0.490340 0.547532  0.000000 0.000000 0
  phy
0  -38.521347 -97.672318 32.295467  0.642962 -0.689208 -0.334054  0.000000 0.000000 0
0  -18.070721 -115.429512 34.383949  0.348281 -0.772067 -0.531613  0.000000 0.000000 0
0  -39.840179 -95.694946 33.404816  0.620626 -0.618335 -0.482167  0.000000 0.000000 0
  phy
0  -18.070721 -115.429512 34.383949  0.348281 -0.772067 -0.531613  0.000000 0.000000 0
0  -41.614021 -92.811531 34.548302  0.008267 0.483546 -0.875280  0.000000 0.000000 0
0  -39.840179 -95.694946 33.404816  0.620626 -0.618335 -0.482167  0.000000 0.000000 0
  phy
0  -39.578949 -102.378082 17.928194  0.656830 -0.713348 -0.244353  0.000000 0.000000 0
0  -39.888580 -102.377167 16.978373  0.678042 -0.727440 -0.105316  0.000000 0.000000 0
0  -17.994324 -119.034096 27.204453  0.446097 -0.821438 -0.355297  0.000000 0.000000 0
  phy
0  -41.614021 -92.811531 34.548302  0.008267 0.483546 -0.875280  0.000000 0.000000 0
0  28.803785 -105.626961 35.152180  -0.051265 0.324134 -0.944621  0.000000 0.000000 0
0  42.969147 -98.520737 31.902613  -0.112775 0.670863 -0.732956  0.000000 0.000000 0
  phy
0  -41.614021 -92.811531 34.548302  0.008267 0.483546 -0.875280  0.000000 0.000000 0
0  -33.846504 -96.641823 35.456261  -0.049392 0.315959 -0.947486  0.000000 0.000000 0
0  28.803785 -105.626961 35.152180  -0.051265 0.324134 -0.944621  0.000000 0.000000 0
  phy
0  -41.614021 -92.811531 34.548302  0.008267 0.483546 -0.875280  0.000000 0.000000 0
0  42.969147 -98.520737 31.902613  -0.112775 0.670863 -0.732956  0.000000 0.000000 0
0  -47.972656 -88.044037 27.621777  -0.033767 0.995057 -0.093385  0.000000 0.000000 0
  phy
0  42.969147 -98.520737 31.902613  -0.112775 0.670863 -0.732956  0.000000 0.000000 0
0  49.090836 -94.517273 24.089376  -0.096085 0.990644 0.096915  0.000000 0.000000 0
0  -47.972656 -88.044037 27.621777  -0.033767 0.995057 -0.093385  0.000000 0.000000 0
  phy
0  28.803785 -105.626961 35.152180  -0.051265 0.324134 -0.944621  0.000000 0.000000 0
0  28.884119 -106.117706 35.305866  -0.150516 -0.053595 -0.987154  0.000000 0.000000 0
0  42.969147 -98.520737 31.902613  -0.112775 0.670863 -0.732956  0.000000 0.000000 0
  phy
0  42.969147 -98.520737 31.902613  -0.112775 0.670863 -0.732956  0.000000 0.000000 0
0  17.746162 -118.648727 34.715939  -0.108213 -0.246865 -0.962989  0.000000 0.000000 0
0  41.151009 -101.568115 30.823193  -0.596515 -0.597216 -0.536193  0.000000 0.000000 0
  phy
0  42.969147 -98.520737 31.902613  -0.112775 0.670863 -0.732956  0.000000 0.000000 0
0  28.884119 -106.117706 35.305866  -0.150516 -0.053595 -0.987154  0.000000 0.000000 0
0  17.746162 -118.648727 34.715939  -0.108213 -0.246865 -0.962989  0.000000 0.000000 0
  phy
0  41.151009 -101.568115 30.823193  -0.596515 -0.597216 -0.536193  0.000000 0.000000 0
0  17.412951 -119.861542 33.958332  -0.222340 -0.865542 -0.448779  0.000000 0.000000 0
0  39.658894 -103.521721 29.906912  -0.613713 -0.720064 -0.323827  0.000000 0.000000 0
  phy
0  39.658894 -103.521721 29.906912  -0.613713 -0.720064 -0.323827  0.000000 0.000000 0
0  17.412951 -119.861542 33.958332  -0.222340 -0.865542 -0.448779  0.000000 0.000000 0
0  35.376347 -109.965485 22.926693  -0.596951 -0.756110 -0.268232  0.000000 0.000000 0
  phy
0  28.803785 -105.626961 35.152180  -0.051265 0.324134 -0.944621  0.000000 0.000000 0
0  -26.787085 -100.244461 36.254681  0.033161 0.070730 -0.996944  0.000000 0.000000 0
0  28.884119 -106.117706 35.305866  -0.150516 -0.053595 -0.987154  0.000000 0.000000 0
  phy
0  28.803785 -105.626961 35.152180  -0.051265 0.324134 -0.944621  0.000000 0.000000 0
0  -33.846504 -96.641823 35.456261  -0.049392 0.315959 -0.947486  0.000000 0.000000 0
0  -26.787085 -100.244461 36.254681  0.033161 0.070730 -0.996944  0.000000 0.000000 0
  phy
0  -18.144932 -114.173225 35.139988  0.064305 -0.164887 -0.984214  0.000000 0.000000 0
0  -26.787085 -100.244461 36.254681  0.033161 0.070730 -0.996944  0.000000 0.000000 0
0  -41.614021 -92.811531 34.548302  0.008267 0.483546 -0.875280  0.000000 0.000000 0
  phy
0  -26.787085 -100.244461 36.254681  0.033161 0.070730 -0.996944  0.000000 0.000000 0
0  -33.846504 -96.641823 35.456261  -0.049392 0.315959 -0.947486  0.000000 0.000000 0
0  -41.614021 -92.811531 34.548302  0.008267 0.483546 -0.875280  0.000000 0.000000 0
  phy
0  -18.144932 -114.173225 35.139988  0.064305 -0.164887 -0.984214  0.000000 0.000000 0
0  -41.614021 -92.811531 34.548302  0.008267 0.483546 -0.875280  0.000000 0.000000 0
0  -18.070721 -115.429512 34.383949  0.348281 -0.772067 -0.531613  0.000000 0.000000 0
  phy
0  1.116836 -106.418900 36.075043  -0.003258 -0.054850 -0.998489  0.000000 0.000000 0
0  -23.427895 -102.517250 36.183411  0.012969 -0.087775 -0.996056  0.000000 0.000000 0
0  -18.144932 -114.173225 35.139988  0.064305 -0.164887 -0.984214  0.000000 0.000000 0
  phy
0  -18.144932 -114.173225 35.139988  0.064305 -0.164887 -0.984214  0.000000 0.000000 0
0  -23.427895 -102.517250 36.183411  0.012969 -0.087775 -0.996056  0.000000 0.000000 0
0  -26.787085 -100.244461 36.254681  0.033161 0.070730 -0.996944  0.000000 0.000000 0
  phy
0  -18.144932 -114.173225 35.139988  0.064305 -0.164887 -0.984214  0.000000 0.000000 0
0  -18.070721 -115.429512 34.383949  0.348281 -0.772067 -0.531613  0.000000 0.000000 0
0  17.746162 -118.648727 34.715939  -0.108213 -0.246865 -0.962989  0.000000 0.000000 0
  phy
0  1.116836 -106.418900 36.075043  -0.003258 -0.054850 -0.998489  0.000000 0.000000 0
0  28.884119 -106.117706 35.305866  -0.150516 -0.053595 -0.987154  0.000000 0.000000 0
0  -26.787085 -100.244461 36.254681  0.033161 0.070730 -0.996944  0.000000 0.000000 0
  phy
0  -26.787085 -100.244461 36.254681  0.033161 0.070730 -0.996944  0.000000 0.000000 0
0  -23.427895 -102.517250 36.183411  0.012969 -0.087775 -0.996056  0.000000 0.000000 0
0  1.116836 -106.418900 36.075043  -0.003258 -0.054850 -0.998489  0.000000 0.000000 0
  phy
0  -35.119892 -106.036720 6.728106  0.608952 -0.719150 0.334664  0.000000 0.000000 0
0  -18.422245 -119.281075 10.829128  0.308689 -0.887505 0.342118  0.000000 0.000000 0
0  -35.561714 -106.013329 7.732501  0.644726 -0.738848 0.196040  0.000000 0.000000 0
  phy
0  -18.547201 -118.116356 9.424742  0.226709 -0.651939 0.723587  0.000000 0.000000 0
0  -14.706416 -118.292786 9.045896  0.077447 -0.586572 0.806185  0.000000 0.000000 0
0  15.735238 -123.349289 10.403238  -0.083522 -0.882887 0.462099  0.000000 0.000000 0
  phy
0  -14.706416 -118.292786 9.045896  0.077447 -0.586572 0.806185  0.000000 0.000000 0
0  15.977109 -122.204880 9.002025  0.012947 -0.619727 0.784711  0.000000 0.000000 0
0  15.735238 -123.349289 10.403238  -0.083522 -0.882887 0.462099  0.000000 0.000000 0
  phy
0  -22.080778 -104.355064 -0.082607  0.059603 -0.394201 0.917090  0.000000 0.000000 0
0  -14.706416 -118.292786 9.045896  0.077447 -0.586572 0.806185  0.000000 0.000000 0
0  -18.547201 -118.116356 9.424742  0.226709 -0.651939 0.723587  0.000000 0.000000 0
  phy
0  -22.080778 -104.355064 -0.082607  0.059603 -0.394201 0.917090  0.000000 0.000000 0
0  -18.547201 -118.116356 9.424742  0.226709 -0.651939 0.723587  0.000000 0.000000 0
0  -24.954205 -104.228821 0.204993  0.239993 -0.608696 0.756236  0.000000 0.000000 0
  phy
0  15.735238 -123.349289 10.403238  -0.083522 -0.882887 0.462099  0.000000 0.000000 0
0  -18.422245 -119.281075 10.829128  0.308689 -0.887505 0.342118  0.000000 0.000000 0
0  -18.547201 -118.116356 9.424742  0.226709 -0.651939 0.723587  0.000000 0.000000 0
  phy
0  -18.547201 -118.116356 9.424742  0.226709 -0.651939 0.723587  0.000000 0.000000 0
0  -18.422245 -119.281075 10.829128  0.308689 -0.887505 0.342118  0.000000 0.000000 0
0  -33.398552 -106.532402 5.724548  0.356107 -0.639806 0.681055  0.000000 0.000000 0
  phy
0  -42.849773 -98.812653 13.476089  0.797965 -0.602087 0.027262  0.000000 0.000000 0
0  -44.966785 -95.714920 13.131154  0.837336 -0.543813 0.055998  0.000000 0.000000 0
0  -42.728882 -98.912506 12.827447  0.785165 -0.614111 0.079895  0.000000 0.000000 0
  phy
0  -17.994324 -119.034096 27.204453  0.446097 -0.821438 -0.355297  0.000000 0.000000 0
0  -39.888580 -102.377167 16.978373  0.678042 -0.727440 -0.105316  0.000000 0.000000 0
0  -36.805111 -105.188324 16.545361  0.623117 -0.781026 -0.041522  0.000000 0.000000 0
  phy
0  -18.319855 -119.615608 12.478614  0.303203 -0.952925 0.001247  0.000000 0.000000 0
0  -17.831261 -119.588730 24.989834  0.317371 -0.947598 -0.036515  0.000000 0.000000 0
0  -36.805111 -105.188324 16.545361  0.623117 -0.781026 -0.041522  0.000000 0.000000 0
  phy
0  44.069828 -101.108803 5.614432  -0.930349 0.023587 0.365916  0.000000 0.000000 0
0  49.090836 -94.517273 24.089376  -0.096085 0.990644 0.096915  0.000000 0.000000 0
0  44.965187 -101.037605 8.041268  -0.945374 0.038360 0.323724  0.000000 0.000000 0
  phy
0  29.231209 -108.658569 -0.627313  -0.173081 -0.659092 0.731875  0.000000 0.000000 0
0  30.156078 -112.485359 3.136699  -0.165194 -0.673816 0.720197  0.000000 0.000000 0
0  15.977109 -122.204880 9.002025  0.012947 -0.619727 0.784711  0.000000 0.000000 0
  phy
0  15.977109 -122.204880 9.002025  0.012947 -0.619727 0.784711  0.000000 0.000000 0
0  19.557104 -109.489174 -0.265322  0.073515 -0.572316 0.816731  0.000000 0.000000 0
0  21.274788 -109.109581 -0.626268  0.044234 -0.471481 0.880766  0.000000 0.000000 0
  phy
0  15.977109 -122.204880 9.002025  0.012947 -0.619727 0.784711  0.000000 0.000000 0
0  21.274788 -109.109581 -0.626268  0.044234 -0.471481 0.880766  0.000000 0.000000 0
0  24.138807 -109.483063 -0.509510  0.003905 -0.589967 0.807418  0.000000 0.000000 0
  phy
0  29.871386 -107.952103 -0.852804  0.013110 -0.020211 0.999710  0.000000 0.000000 0
0  -22.080778 -104.355064 -0.082607  0.059603 -0.394201 0.917090  0.000000 0.000000 0
0  37.085815 -103.178642 -0.998549  0.013419 0.031883 0.999402  0.000000 0.000000 0
  phy
0  -17.994324 -119.034096 27.204453  0.446097 -0.821438 -0.355297  0.000000 0.000000 0
0  -18.070721 -115.429512 34.383949  0.348281 -0.772067 -0.531613  0.000000 0.000000 0
0  -38.521347 -97.672318 32.295467  0.642962 -0.689208 -0.334054  0.000000 0.000000 0
  phy
0  -38.521347 -97.672318 32.295467  0.642962 -0.689208 -0.334054  0.000000 0.000000 0
0  -44.904488 -94.957649 25.058245  0.653847 -0.697275 -0.293755  0.000000 0.000000 0
0  -17.994324 -119.034096 27.204453  0.446097 -0.821438 -0.355297  0.000000 0.000000 0
  phy
0  16.302666 -123.288498 26.778681  0.100613 -0.922188 -0.373424  0.000000 0.000000 0
0  17.412951 -119.861542 33.958332  -0.222340 -0.865542 -0.448779  0.000000 0.000000 0
0  -17.994324 -119.034096 27.204453  0.446097 -0.821438 -0.355297  0.000000 0.000000 0
  phy
0  -17.994324 -119.034096 27.204453  0.446097 -0.821438 -0.355297  0.000000 0.000000 0
0  17.412951 -119.861542 33.958332  -0.222340 -0.865542 -0.448779  0.000000 0.000000 0
0  -18.070721 -115.429512 34.383949  0.348281 -0.772067 -0.531613  0.000000 0.000000 0
  phy
0  16.302666 -123.288498 26.778681  0.100613 -0.922188 -0.373424  0.000000 0.000000 0
0  -17.831261 -119.588730 24.989834  0.317371 -0.947598 -0.036515  0.000000 0.000000 0
0  16.153479 -123.657616 25.123785  -0.050951 -0.998516 -0.019207  0.000000 0.000000 0
  phy
0  17.746162 -118.648727 34.715939  -0.108213 -0.246865 -0.962989  0.000000 0.000000 0
0  17.412951 -119.861542 33.958332  -0.222340 -0.865542 -0.448779  0.000000 0.000000 0
0  41.151009 -101.568115 30.823193  -0.596515 -0.597216 -0.536193  0.000000 0.000000 0
  phy
0  -18.070721 -115.429512 34.383949  0.348281 -0.772067 -0.531613  0.000000 0.000000 0
0  17.412951 -119.861542 33.958332  -0.222340 -0.865542 -0.448779  0.000000 0.000000 0
0  17.746162 -118.648727 34.715939  -0.108213 -0.246865 -0.962989  0.000000 0.000000 0
  phy
0  -46.342323 -90.060799 30.470533  0.797408 -0.361779 -0.482967  0.000000 0.000000 0
0  -41.614021 -92.811531 34.548302  0.008267 0.483546 -0.875280  0.000000 0.000000 0
0  -47.972656 -88.044037 27.621777  -0.033767 0.995057 -0.093385  0.000000 0.000000 0
  phy
0  -14.706416 -118.292786 9.045896  0.077447 -0.586572 0.806185  0.000000 0.000000 0
0  -22.080778 -104.355064 -0.082607  0.059603 -0.394201 0.917090  0.000000 0.000000 0
0  19.557104 -109.489174 -0.265322  0.073515 -0.572316 0.816731  0.000000 0.000000 0
  phy
0  19.557104 -109.489174 -0.265322  0.073515 -0.572316 0.816731  0.000000 0.000000 0
0  -22.080778 -104.355064 -0.082607  0.059603 -0.394201 0.917090  0.000000 0.000000 0
0  21.274788 -109.109581 -0.626268  0.044234 -0.471481 0.880766  0.000000 0.000000 0
  phy
0  -14.706416 -118.292786 9.045896  0.077447 -0.586572 0.806185  0.000000 0.000000 0
0  19.557104 -109.489174 -0.265322  0.073515 -0.572316 0.816731  0.000000 0.000000 0
0  15.977109 -122.204880 9.002025  0.012947 -0.619727 0.784711  0.000000 0.000000 0
  phy
0  15.735238 -123.349289 10.403238  -0.083522 -0.882887 0.462099  0.000000 0.000000 0
0  15.707797 -123.692505 12.162803  -0.148341 -0.988223 0.037547  0.000000 0.000000 0
0  -18.422245 -119.281075 10.829128  0.308689 -0.887505 0.342118  0.000000 0.000000 0
  phy
0  15.977109 -122.204880 9.002025  0.012947 -0.619727 0.784711  0.000000 0.000000 0
0  31.944948 -113.094063 4.222480  -0.283532 -0.708933 0.645774  0.000000 0.000000 0
0  15.735238 -123.349289 10.403238  -0.083522 -0.882887 0.462099  0.000000 0.000000 0
  phy
0  40.291138 -99.975822 -0.796489  -0.079938 0.823687 0.561382  0.000000 0.000000 0
0  49.090836 -94.517273 24.089376  -0.096085 0.990644 0.096915  0.000000 0.000000 0
0  43.052753 -100.574829 3.877382  -0.779389 0.494598 0.384611  0.000000 0.000000 0
  phy
0  38.538971 -102.455994 -0.834064  -0.595449 -0.529004 0.604645  0.000000 0.000000 0
0  37.085815 -103.178642 -0.998549  0.013419 0.031883 0.999402  0.000000 0.000000 0
0  40.291138 -99.975822 -0.796489  -0.079938 0.823687 0.561382  0.000000 0.000000 0
  phy
0  16.153479 -123.657616 25.123785  -0.050951 -0.998516 -0.019207  0.000000 0.000000 0
0  -17.831261 -119.588730 24.989834  0.317371 -0.947598 -0.036515  0.000000 0.000000 0
0  -18.319855 -119.615608 12.478614  0.303203 -0.952925 0.001247  0.000000 0.000000 0
  phy
0  -18.319855 -119.615608 12.478614  0.303203 -0.952925 0.001247  0.000000 0.000000 0
0  15.707797 -123.692505 12.162803  -0.148341 -0.988223 0.037547  0.000000 0.000000 0
0  16.153479 -123.657616 25.123785  -0.050951 -0.998516 -0.019207  0.000000 0.000000 0
  phy
0  -18.422245 -119.281075 10.829128  0.308689 -0.887505 0.342118  0.000000 0.000000 0
0  15.707797 -123.692505 12.162803  -0.148341 -0.988223 0.037547  0.000000 0.000000 0
0  -18.319855 -119.615608 12.478614  0.303203 -0.952925 0.001247  0.000000 0.000000 0
  phy
0  49.090836 -94.517273 24.089376  -0.096085 0.990644 0.096915  0.000000 0.000000 0
0  40.291138 -99.975822 -0.796489  -0.079938 0.823687 0.561382  0.000000 0.000000 0
0  -40.742821 -92.716049 1.871922  -0.059925 0.938684 0.339530  0.000000 0.000000 0
  phy
0  49.090836 -94.517273 24.089376  -0.096085 0.990644 0.096915  0.000000 0.000000 0
0  -40.742821 -92.716049 1.871922  -0.059925 0.938684 0.339530  0.000000 0.000000 0
0  -47.972656 -88.044037 27.621777  -0.033767 0.995057 -0.093385  0.000000 0.000000 0
end
