version 1
nodes
0 "root" -1
end
skeleton
time 0
0 0 0 0 0 0 0
end
triangles
  phy
0  -30.727514 -87.666725 53.887440  0.229142 -0.425102 -0.875661  0.000000 0.000000 0
0  -25.282656 -86.516510 55.718933  0.149731 -0.351938 -0.923970  0.000000 0.000000 0
0  -32.268585 -85.725182 54.365669  0.231920 -0.312369 -0.921216  0.000000 0.000000 0
  phy
0  -28.854982 -89.565262 53.402893  0.204349 -0.449697 -0.869490  0.000000 0.000000 0
0  -25.282656 -86.516510 55.718933  0.149731 -0.351938 -0.923970  0.000000 0.000000 0
0  -30.727514 -87.666725 53.887440  0.229142 -0.425102 -0.875661  0.000000 0.000000 0
  phy
0  -29.199335 -89.983002 53.005558  0.475601 -0.670155 -0.569821  0.000000 0.000000 0
0  -28.854982 -89.565262 53.402893  0.204349 -0.449697 -0.869490  0.000000 0.000000 0
0  -30.727514 -87.666725 53.887440  0.229142 -0.425102 -0.875661  0.000000 0.000000 0
  phy
0  -30.727514 -87.666725 53.887440  0.229142 -0.425102 -0.875661  0.000000 0.000000 0
0  -31.100779 -88.040680 53.506176  0.420523 -0.549301 -0.722100  0.000000 0.000000 0
0  -29.199335 -89.983002 53.005558  0.475601 -0.670155 -0.569821  0.000000 0.000000 0
  phy
0  -32.268585 -85.725182 54.365669  0.231920 -0.312369 -0.921216  0.000000 0.000000 0
0  -31.100779 -88.040680 53.506176  0.420523 -0.549301 -0.722100  0.000000 0.000000 0
0  -30.727514 -87.666725 53.887440  0.229142 -0.425102 -0.875661  0.000000 0.000000 0
  phy
0  -5.504067 -70.740814 52.787685  0.003996 0.468605 -0.883399  0.000000 0.000000 0
0  12.903811 -71.453583 53.084003  -0.007758 0.418152 -0.908344  0.000000 0.000000 0
0  5.491891 -70.741325 52.788239  -0.001864 0.484722 -0.874666  0.000000 0.000000 0
  phy
0  -5.504067 -70.740814 52.787685  0.003996 0.468605 -0.883399  0.000000 0.000000 0
0  -12.916545 -71.452263 53.082634  0.014135 0.446641 -0.894602  0.000000 0.000000 0
0  12.903811 -71.453583 53.084003  -0.007758 0.418152 -0.908344  0.000000 0.000000 0
  phy
0  -12.916545 -71.452263 53.082634  0.014135 0.446641 -0.894602  0.000000 0.000000 0
0  -21.258989 -74.015732 54.145897  0.024410 0.436861 -0.899198  0.000000 0.000000 0
0  12.903811 -71.453583 53.084003  -0.007758 0.418152 -0.908344  0.000000 0.000000 0
  phy
0  -21.258989 -74.015732 54.145897  0.024410 0.436861 -0.899198  0.000000 0.000000 0
0  -26.294893 -76.756165 55.282742  0.002093 0.318236 -0.948009  0.000000 0.000000 0
0  12.903811 -71.453583 53.084003  -0.007758 0.418152 -0.908344  0.000000 0.000000 0
  phy
0  -26.294893 -76.756165 55.282742  0.002093 0.318236 -0.948009  0.000000 0.000000 0
0  21.246969 -74.018250 54.148281  -0.018516 0.423708 -0.905609  0.000000 0.000000 0
0  12.903811 -71.453583 53.084003  -0.007758 0.418152 -0.908344  0.000000 0.000000 0
  phy
0  -26.294893 -76.756165 55.282742  0.002093 0.318236 -0.948009  0.000000 0.000000 0
0  26.281296 -76.758804 55.285526  -0.005910 0.293296 -0.956003  0.000000 0.000000 0
0  21.246969 -74.018250 54.148281  -0.018516 0.423708 -0.905609  0.000000 0.000000 0
  phy
0  5.491891 -70.741325 52.788239  -0.001864 0.484722 -0.874666  0.000000 0.000000 0
0  -13.508635 -64.082787 49.056084  0.002900 0.489089 -0.872229  0.000000 0.000000 0
0  -5.504067 -70.740814 52.787685  0.003996 0.468605 -0.883399  0.000000 0.000000 0
  phy
0  5.491891 -70.741325 52.788239  -0.001864 0.484722 -0.874666  0.000000 0.000000 0
0  13.497921 -64.084129 49.057518  -0.003010 0.493555 -0.869709  0.000000 0.000000 0
0  -13.508635 -64.082787 49.056084  0.002900 0.489089 -0.872229  0.000000 0.000000 0
  phy
0  12.903811 -71.453583 53.084003  -0.007758 0.418152 -0.908344  0.000000 0.000000 0
0  13.497921 -64.084129 49.057518  -0.003010 0.493555 -0.869709  0.000000 0.000000 0
0  5.491891 -70.741325 52.788239  -0.001864 0.484722 -0.874666  0.000000 0.000000 0
  phy
0  12.903811 -71.453583 53.084003  -0.007758 0.418152 -0.908344  0.000000 0.000000 0
0  19.677691 -62.950756 48.362137  -0.011955 0.507842 -0.861368  0.000000 0.000000 0
0  13.497921 -64.084129 49.057518  -0.003010 0.493555 -0.869709  0.000000 0.000000 0
  phy
0  10.507925 -98.039726 47.700138  -0.079939 -0.334458 0.939014  0.000000 0.000000 0
0  17.403374 -96.878136 48.270927  -0.227169 -0.431338 0.873122  0.000000 0.000000 0
0  10.521447 -97.033012 50.752926  -0.110389 -0.933423 -0.341375  0.000000 0.000000 0
  phy
0  17.403374 -96.878136 48.270927  -0.227169 -0.431338 0.873122  0.000000 0.000000 0
0  17.235659 -95.920441 51.252495  -0.203519 -0.902620 -0.379286  0.000000 0.000000 0
0  10.521447 -97.033012 50.752926  -0.110389 -0.933423 -0.341375  0.000000 0.000000 0
  phy
0  17.235659 -95.920441 51.252495  -0.203519 -0.902620 -0.379286  0.000000 0.000000 0
0  10.509951 -96.660934 51.298187  -0.044520 -0.685747 -0.726478  0.000000 0.000000 0
0  10.521447 -97.033012 50.752926  -0.110389 -0.933423 -0.341375  0.000000 0.000000 0
  phy
0  10.521447 -97.033012 50.752926  -0.110389 -0.933423 -0.341375  0.000000 0.000000 0
0  5.278562 -97.485397 50.517891  -0.043646 -0.940596 -0.336711  0.000000 0.000000 0
0  10.507925 -98.039726 47.700138  -0.079939 -0.334458 0.939014  0.000000 0.000000 0
  phy
0  10.521447 -97.033012 50.752926  -0.110389 -0.933423 -0.341375  0.000000 0.000000 0
0  10.509951 -96.660934 51.298187  -0.044520 -0.685747 -0.726478  0.000000 0.000000 0
0  5.278562 -97.485397 50.517891  -0.043646 -0.940596 -0.336711  0.000000 0.000000 0
  phy
0  26.569674 -86.080643 55.596649  -0.190223 -0.257150 -0.947465  0.000000 0.000000 0
0  32.254391 -85.728073 54.369114  -0.237165 -0.310933 -0.920366  0.000000 0.000000 0
0  29.419136 -83.746292 55.527920  -0.195755 -0.158381 -0.967779  0.000000 0.000000 0
  phy
0  32.254391 -85.728073 54.369114  -0.237165 -0.310933 -0.920366  0.000000 0.000000 0
0  33.561924 -83.500046 54.630661  -0.229518 0.106166 -0.967497  0.000000 0.000000 0
0  29.419136 -83.746292 55.527920  -0.195755 -0.158381 -0.967779  0.000000 0.000000 0
  phy
0  32.254391 -85.728073 54.369114  -0.237165 -0.310933 -0.920366  0.000000 0.000000 0
0  34.097633 -83.815552 54.426628  -0.546557 -0.101923 -0.831196  0.000000 0.000000 0
0  33.561924 -83.500046 54.630661  -0.229518 0.106166 -0.967497  0.000000 0.000000 0
  phy
0  33.561924 -83.500046 54.630661  -0.229518 0.106166 -0.967497  0.000000 0.000000 0
0  26.143494 -82.273087 56.160748  -0.216368 0.130057 -0.967610  0.000000 0.000000 0
0  29.419136 -83.746292 55.527920  -0.195755 -0.158381 -0.967779  0.000000 0.000000 0
  phy
0  26.143494 -82.273087 56.160748  -0.216368 0.130057 -0.967610  0.000000 0.000000 0
0  25.634209 -82.410828 56.275990  -0.054969 0.055340 -0.996953  0.000000 0.000000 0
0  29.419136 -83.746292 55.527920  -0.195755 -0.158381 -0.967779  0.000000 0.000000 0
  phy
0  29.419136 -83.746292 55.527920  -0.195755 -0.158381 -0.967779  0.000000 0.000000 0
0  25.634209 -82.410828 56.275990  -0.054969 0.055340 -0.996953  0.000000 0.000000 0
0  26.569674 -86.080643 55.596649  -0.190223 -0.257150 -0.947465  0.000000 0.000000 0
  phy
0  -31.100779 -88.040680 53.506176  0.420523 -0.549301 -0.722100  0.000000 0.000000 0
0  -35.902107 -85.033188 52.842621  0.713440 -0.338865 -0.613330  0.000000 0.000000 0
0  -29.199335 -89.983002 53.005558  0.475601 -0.670155 -0.569821  0.000000 0.000000 0
  phy
0  -35.902107 -85.033188 52.842621  0.713440 -0.338865 -0.613330  0.000000 0.000000 0
0  -32.778252 -88.871239 50.968742  0.707274 -0.559394 0.432252  0.000000 0.000000 0
0  -29.199335 -89.983002 53.005558  0.475601 -0.670155 -0.569821  0.000000 0.000000 0
  phy
0  -28.125834 -93.015617 49.909027  0.379939 -0.442808 0.812138  0.000000 0.000000 0
0  -27.143883 -91.609955 52.591534  0.397744 -0.705182 -0.586957  0.000000 0.000000 0
0  -29.199335 -89.983002 53.005558  0.475601 -0.670155 -0.569821  0.000000 0.000000 0
  phy
0  -29.199335 -89.983002 53.005558  0.475601 -0.670155 -0.569821  0.000000 0.000000 0
0  -32.778252 -88.871239 50.968742  0.707274 -0.559394 0.432252  0.000000 0.000000 0
0  -28.125834 -93.015617 49.909027  0.379939 -0.442808 0.812138  0.000000 0.000000 0
  phy
0  -29.199335 -89.983002 53.005558  0.475601 -0.670155 -0.569821  0.000000 0.000000 0
0  -26.777752 -91.222176 52.976627  0.182083 -0.476447 -0.860142  0.000000 0.000000 0
0  -28.854982 -89.565262 53.402893  0.204349 -0.449697 -0.869490  0.000000 0.000000 0
  phy
0  -29.199335 -89.983002 53.005558  0.475601 -0.670155 -0.569821  0.000000 0.000000 0
0  -27.143883 -91.609955 52.591534  0.397744 -0.705182 -0.586957  0.000000 0.000000 0
0  -26.777752 -91.222176 52.976627  0.182083 -0.476447 -0.860142  0.000000 0.000000 0
  phy
0  -29.433363 -83.743362 55.524857  0.190730 -0.174761 -0.965961  0.000000 0.000000 0
0  -33.576035 -83.496681 54.627106  0.230950 0.083606 -0.969367  0.000000 0.000000 0
0  -32.268585 -85.725182 54.365669  0.231920 -0.312369 -0.921216  0.000000 0.000000 0
  phy
0  -33.576035 -83.496681 54.627106  0.230950 0.083606 -0.969367  0.000000 0.000000 0
0  -34.119083 -83.804482 54.423275  0.546747 -0.100533 -0.831240  0.000000 0.000000 0
0  -32.268585 -85.725182 54.365669  0.231920 -0.312369 -0.921216  0.000000 0.000000 0
  phy
0  -32.680939 -85.995819 54.028248  0.416108 -0.465615 -0.781061  0.000000 0.000000 0
0  -31.100779 -88.040680 53.506176  0.420523 -0.549301 -0.722100  0.000000 0.000000 0
0  -32.268585 -85.725182 54.365669  0.231920 -0.312369 -0.921216  0.000000 0.000000 0
  phy
0  -32.268585 -85.725182 54.365669  0.231920 -0.312369 -0.921216  0.000000 0.000000 0
0  -25.282656 -86.516510 55.718933  0.149731 -0.351938 -0.923970  0.000000 0.000000 0
0  -29.433363 -83.743362 55.524857  0.190730 -0.174761 -0.965961  0.000000 0.000000 0
  phy
0  -32.268585 -85.725182 54.365669  0.231920 -0.312369 -0.921216  0.000000 0.000000 0
0  -34.119083 -83.804482 54.423275  0.546747 -0.100533 -0.831240  0.000000 0.000000 0
0  -32.680939 -85.995819 54.028248  0.416108 -0.465615 -0.781061  0.000000 0.000000 0
  phy
0  -13.508635 -64.082787 49.056084  0.002900 0.489089 -0.872229  0.000000 0.000000 0
0  -12.916545 -71.452263 53.082634  0.014135 0.446641 -0.894602  0.000000 0.000000 0
0  -5.504067 -70.740814 52.787685  0.003996 0.468605 -0.883399  0.000000 0.000000 0
  phy
0  -13.508635 -64.082787 49.056084  0.002900 0.489089 -0.872229  0.000000 0.000000 0
0  -19.688446 -62.948803 48.360016  0.015031 0.497522 -0.867321  0.000000 0.000000 0
0  -12.916545 -71.452263 53.082634  0.014135 0.446641 -0.894602  0.000000 0.000000 0
  phy
0  -19.688446 -62.948803 48.360016  0.015031 0.497522 -0.867321  0.000000 0.000000 0
0  19.677691 -62.950756 48.362137  -0.011955 0.507842 -0.861368  0.000000 0.000000 0
0  -27.436014 -60.648487 46.877190  0.039261 0.582180 -0.812111  0.000000 0.000000 0
  phy
0  19.677691 -62.950756 48.362137  -0.011955 0.507842 -0.861368  0.000000 0.000000 0
0  27.424946 -60.651047 46.879951  -0.050516 0.554921 -0.830368  0.000000 0.000000 0
0  -27.436014 -60.648487 46.877190  0.039261 0.582180 -0.812111  0.000000 0.000000 0
  phy
0  -13.508635 -64.082787 49.056084  0.002900 0.489089 -0.872229  0.000000 0.000000 0
0  13.497921 -64.084129 49.057518  -0.003010 0.493555 -0.869709  0.000000 0.000000 0
0  -19.688446 -62.948803 48.360016  0.015031 0.497522 -0.867321  0.000000 0.000000 0
  phy
0  13.497921 -64.084129 49.057518  -0.003010 0.493555 -0.869709  0.000000 0.000000 0
0  19.677691 -62.950756 48.362137  -0.011955 0.507842 -0.861368  0.000000 0.000000 0
0  -19.688446 -62.948803 48.360016  0.015031 0.497522 -0.867321  0.000000 0.000000 0
  phy
0  -27.436014 -60.648487 46.877190  0.039261 0.582180 -0.812111  0.000000 0.000000 0
0  -21.258989 -74.015732 54.145897  0.024410 0.436861 -0.899198  0.000000 0.000000 0
0  -19.688446 -62.948803 48.360016  0.015031 0.497522 -0.867321  0.000000 0.000000 0
  phy
0  -21.258989 -74.015732 54.145897  0.024410 0.436861 -0.899198  0.000000 0.000000 0
0  -12.916545 -71.452263 53.082634  0.014135 0.446641 -0.894602  0.000000 0.000000 0
0  -19.688446 -62.948803 48.360016  0.015031 0.497522 -0.867321  0.000000 0.000000 0
  phy
0  30.711941 -87.669731 53.890656  -0.223631 -0.418089 -0.880449  0.000000 0.000000 0
0  28.841412 -89.567741 53.406002  -0.212626 -0.457534 -0.863396  0.000000 0.000000 0
0  31.086109 -88.043587 53.509449  -0.410508 -0.546166 -0.730195  0.000000 0.000000 0
  phy
0  28.841412 -89.567741 53.406002  -0.212626 -0.457534 -0.863396  0.000000 0.000000 0
0  29.184887 -89.985329 53.008614  -0.485609 -0.676931 -0.553126  0.000000 0.000000 0
0  31.086109 -88.043587 53.509449  -0.410508 -0.546166 -0.730195  0.000000 0.000000 0
  phy
0  30.711941 -87.669731 53.890656  -0.223631 -0.418089 -0.880449  0.000000 0.000000 0
0  31.086109 -88.043587 53.509449  -0.410508 -0.546166 -0.730195  0.000000 0.000000 0
0  32.254391 -85.728073 54.369114  -0.237165 -0.310933 -0.920366  0.000000 0.000000 0
  phy
0  26.569674 -86.080643 55.596649  -0.190223 -0.257150 -0.947465  0.000000 0.000000 0
0  25.262383 -86.518608 55.721443  -0.140968 -0.376827 -0.915494  0.000000 0.000000 0
0  30.711941 -87.669731 53.890656  -0.223631 -0.418089 -0.880449  0.000000 0.000000 0
  phy
0  30.711941 -87.669731 53.890656  -0.223631 -0.418089 -0.880449  0.000000 0.000000 0
0  32.254391 -85.728073 54.369114  -0.237165 -0.310933 -0.920366  0.000000 0.000000 0
0  26.569674 -86.080643 55.596649  -0.190223 -0.257150 -0.947465  0.000000 0.000000 0
  phy
0  30.711941 -87.669731 53.890656  -0.223631 -0.418089 -0.880449  0.000000 0.000000 0
0  25.262383 -86.518608 55.721443  -0.140968 -0.376827 -0.915494  0.000000 0.000000 0
0  28.841412 -89.567741 53.406002  -0.212626 -0.457534 -0.863396  0.000000 0.000000 0
  phy
0  28.841412 -89.567741 53.406002  -0.212626 -0.457534 -0.863396  0.000000 0.000000 0
0  25.262383 -86.518608 55.721443  -0.140968 -0.376827 -0.915494  0.000000 0.000000 0
0  26.761673 -91.225334 52.978916  -0.178247 -0.473535 -0.862550  0.000000 0.000000 0
  phy
0  26.761673 -91.225334 52.978916  -0.178247 -0.473535 -0.862550  0.000000 0.000000 0
0  25.262383 -86.518608 55.721443  -0.140968 -0.376827 -0.915494  0.000000 0.000000 0
0  23.493258 -93.135628 52.559677  -0.120650 -0.479361 -0.869285  0.000000 0.000000 0
  phy
0  26.761673 -91.225334 52.978916  -0.178247 -0.473535 -0.862550  0.000000 0.000000 0
0  27.127733 -91.613037 52.594276  -0.388960 -0.694986 -0.604735  0.000000 0.000000 0
0  28.841412 -89.567741 53.406002  -0.212626 -0.457534 -0.863396  0.000000 0.000000 0
  phy
0  26.761673 -91.225334 52.978916  -0.178247 -0.473535 -0.862550  0.000000 0.000000 0
0  24.449923 -93.391670 52.124012  -0.286308 -0.800142 -0.527068  0.000000 0.000000 0
0  27.127733 -91.613037 52.594276  -0.388960 -0.694986 -0.604735  0.000000 0.000000 0
  phy
0  23.493258 -93.135628 52.559677  -0.120650 -0.479361 -0.869285  0.000000 0.000000 0
0  24.449923 -93.391670 52.124012  -0.286308 -0.800142 -0.527068  0.000000 0.000000 0
0  26.761673 -91.225334 52.978916  -0.178247 -0.473535 -0.862550  0.000000 0.000000 0
  phy
0  17.403374 -96.878136 48.270927  -0.227169 -0.431338 0.873122  0.000000 0.000000 0
0  10.507925 -98.039726 47.700138  -0.079939 -0.334458 0.939014  0.000000 0.000000 0
0  40.968216 -61.810989 41.756741  -0.046728 -0.155032 0.986804  0.000000 0.000000 0
  phy
0  40.968216 -61.810989 41.756741  -0.046728 -0.155032 0.986804  0.000000 0.000000 0
0  10.507925 -98.039726 47.700138  -0.079939 -0.334458 0.939014  0.000000 0.000000 0
0  -0.007896 -98.648125 47.409252  -0.003389 -0.175172 0.984532  0.000000 0.000000 0
  phy
0  5.278562 -97.485397 50.517891  -0.043646 -0.940596 -0.336711  0.000000 0.000000 0
0  -0.007896 -98.648125 47.409252  -0.003389 -0.175172 0.984532  0.000000 0.000000 0
0  10.507925 -98.039726 47.700138  -0.079939 -0.334458 0.939014  0.000000 0.000000 0
  phy
0  -0.499761 -97.631020 50.427757  0.008037 -0.941362 -0.337303  0.000000 0.000000 0
0  -5.292797 -97.099808 51.068951  0.018103 -0.683501 -0.729725  0.000000 0.000000 0
0  -5.293349 -97.484901 50.517315  0.043561 -0.924021 -0.379853  0.000000 0.000000 0
  phy
0  -0.499761 -97.631020 50.427757  0.008037 -0.941362 -0.337303  0.000000 0.000000 0
0  -0.007514 -97.603752 50.479107  -0.004011 -0.823484 -0.567326  0.000000 0.000000 0
0  -5.292797 -97.099808 51.068951  0.018103 -0.683501 -0.729725  0.000000 0.000000 0
  phy
0  -0.007514 -97.603752 50.479107  -0.004011 -0.823484 -0.567326  0.000000 0.000000 0
0  -0.007186 -97.218666 51.030651  0.000027 -0.690182 -0.723636  0.000000 0.000000 0
0  -5.292797 -97.099808 51.068951  0.018103 -0.683501 -0.729725  0.000000 0.000000 0
  phy
0  -0.007514 -97.603752 50.479107  -0.004011 -0.823484 -0.567326  0.000000 0.000000 0
0  -0.499761 -97.631020 50.427757  0.008037 -0.941362 -0.337303  0.000000 0.000000 0
0  5.278562 -97.485397 50.517891  -0.043646 -0.940596 -0.336711  0.000000 0.000000 0
  phy
0  -0.499761 -97.631020 50.427757  0.008037 -0.941362 -0.337303  0.000000 0.000000 0
0  -0.007896 -98.648125 47.409252  -0.003389 -0.175172 0.984532  0.000000 0.000000 0
0  5.278562 -97.485397 50.517891  -0.043646 -0.940596 -0.336711  0.000000 0.000000 0
  phy
0  -0.007896 -98.648125 47.409252  -0.003389 -0.175172 0.984532  0.000000 0.000000 0
0  -0.499761 -97.631020 50.427757  0.008037 -0.941362 -0.337303  0.000000 0.000000 0
0  -5.292178 -98.497398 47.476482  0.080496 -0.358393 0.930094  0.000000 0.000000 0
  phy
0  -0.499761 -97.631020 50.427757  0.008037 -0.941362 -0.337303  0.000000 0.000000 0
0  -5.293349 -97.484901 50.517315  0.043561 -0.924021 -0.379853  0.000000 0.000000 0
0  -5.292178 -98.497398 47.476482  0.080496 -0.358393 0.930094  0.000000 0.000000 0
  phy
0  26.569674 -86.080643 55.596649  -0.190223 -0.257150 -0.947465  0.000000 0.000000 0
0  25.634209 -82.410828 56.275990  -0.054969 0.055340 -0.996953  0.000000 0.000000 0
0  25.262383 -86.518608 55.721443  -0.140968 -0.376827 -0.915494  0.000000 0.000000 0
  phy
0  25.207272 -94.165146 49.920540  -0.280636 -0.908647 -0.309198  0.000000 0.000000 0
0  24.449923 -93.391670 52.124012  -0.286308 -0.800142 -0.527068  0.000000 0.000000 0
0  17.235659 -95.920441 51.252495  -0.203519 -0.902620 -0.379286  0.000000 0.000000 0
  phy
0  17.235659 -95.920441 51.252495  -0.203519 -0.902620 -0.379286  0.000000 0.000000 0
0  24.449923 -93.391670 52.124012  -0.286308 -0.800142 -0.527068  0.000000 0.000000 0
0  17.375742 -95.468132 51.868523  -0.083807 -0.549190 -0.831485  0.000000 0.000000 0
  phy
0  17.235659 -95.920441 51.252495  -0.203519 -0.902620 -0.379286  0.000000 0.000000 0
0  17.403374 -96.878136 48.270927  -0.227169 -0.431338 0.873122  0.000000 0.000000 0
0  25.207272 -94.165146 49.920540  -0.280636 -0.908647 -0.309198  0.000000 0.000000 0
  phy
0  17.375742 -95.468132 51.868523  -0.083807 -0.549190 -0.831485  0.000000 0.000000 0
0  10.509951 -96.660934 51.298187  -0.044520 -0.685747 -0.726478  0.000000 0.000000 0
0  17.235659 -95.920441 51.252495  -0.203519 -0.902620 -0.379286  0.000000 0.000000 0
  phy
0  17.403374 -96.878136 48.270927  -0.227169 -0.431338 0.873122  0.000000 0.000000 0
0  28.111280 -93.018333 49.912045  -0.379992 -0.442874 0.812077  0.000000 0.000000 0
0  25.207272 -94.165146 49.920540  -0.280636 -0.908647 -0.309198  0.000000 0.000000 0
  phy
0  28.111280 -93.018333 49.912045  -0.379992 -0.442874 0.812077  0.000000 0.000000 0
0  24.449923 -93.391670 52.124012  -0.286308 -0.800142 -0.527068  0.000000 0.000000 0
0  25.207272 -94.165146 49.920540  -0.280636 -0.908647 -0.309198  0.000000 0.000000 0
  phy
0  3.358622 -94.194130 53.612961  -0.024062 -0.468662 -0.883050  0.000000 0.000000 0
0  9.212116 -92.471565 54.359997  -0.016626 -0.437093 -0.899263  0.000000 0.000000 0
0  2.925189 -94.222046 53.600780  -0.002944 -0.449306 -0.893373  0.000000 0.000000 0
  phy
0  9.212116 -92.471565 54.359997  -0.016626 -0.437093 -0.899263  0.000000 0.000000 0
0  10.355968 -91.081154 54.962826  -0.007881 -0.400905 -0.916086  0.000000 0.000000 0
0  2.925189 -94.222046 53.600780  -0.002944 -0.449306 -0.893373  0.000000 0.000000 0
  phy
0  10.355968 -91.081154 54.962826  -0.007881 -0.400905 -0.916086  0.000000 0.000000 0
0  -10.372181 -91.079353 54.961807  0.010558 -0.404621 -0.914424  0.000000 0.000000 0
0  2.925189 -94.222046 53.600780  -0.002944 -0.449306 -0.893373  0.000000 0.000000 0
  phy
0  10.355968 -91.081154 54.962826  -0.007881 -0.400905 -0.916086  0.000000 0.000000 0
0  -11.072637 -88.136093 56.237362  0.010858 -0.356010 -0.934419  0.000000 0.000000 0
0  -10.372181 -91.079353 54.961807  0.010558 -0.404621 -0.914424  0.000000 0.000000 0
  phy
0  9.212116 -92.471565 54.359997  -0.016626 -0.437093 -0.899263  0.000000 0.000000 0
0  8.359921 -93.555603 53.799801  -0.056621 -0.542629 -0.838062  0.000000 0.000000 0
0  9.599377 -92.746552 54.198681  -0.081425 -0.486651 -0.869793  0.000000 0.000000 0
  phy
0  9.212116 -92.471565 54.359997  -0.016626 -0.437093 -0.899263  0.000000 0.000000 0
0  5.224073 -94.221298 53.538933  -0.036004 -0.611988 -0.790047  0.000000 0.000000 0
0  8.359921 -93.555603 53.799801  -0.056621 -0.542629 -0.838062  0.000000 0.000000 0
  phy
0  9.212116 -92.471565 54.359997  -0.016626 -0.437093 -0.899263  0.000000 0.000000 0
0  3.358622 -94.194130 53.612961  -0.024062 -0.468662 -0.883050  0.000000 0.000000 0
0  5.224073 -94.221298 53.538933  -0.036004 -0.611988 -0.790047  0.000000 0.000000 0
  phy
0  9.212116 -92.471565 54.359997  -0.016626 -0.437093 -0.899263  0.000000 0.000000 0
0  9.599377 -92.746552 54.198681  -0.081425 -0.486651 -0.869793  0.000000 0.000000 0
0  10.355968 -91.081154 54.962826  -0.007881 -0.400905 -0.916086  0.000000 0.000000 0
  phy
0  9.599377 -92.746552 54.198681  -0.081425 -0.486651 -0.869793  0.000000 0.000000 0
0  17.912844 -88.990883 55.468559  -0.088731 -0.451317 -0.887941  0.000000 0.000000 0
0  10.355968 -91.081154 54.962826  -0.007881 -0.400905 -0.916086  0.000000 0.000000 0
  phy
0  -25.221975 -94.162575 49.917850  0.281033 -0.908726 -0.308605  0.000000 0.000000 0
0  -17.418129 -96.876396 48.269119  0.188839 -0.403221 0.895406  0.000000 0.000000 0
0  -17.376764 -95.863991 51.309322  0.202508 -0.902414 -0.380316  0.000000 0.000000 0
  phy
0  -28.125834 -93.015617 49.909027  0.379939 -0.442808 0.812138  0.000000 0.000000 0
0  -17.418129 -96.876396 48.269119  0.188839 -0.403221 0.895406  0.000000 0.000000 0
0  -25.221975 -94.162575 49.917850  0.281033 -0.908726 -0.308605  0.000000 0.000000 0
  phy
0  -17.376764 -95.863991 51.309322  0.202508 -0.902414 -0.380316  0.000000 0.000000 0
0  -24.465292 -93.389374 52.121574  0.287126 -0.798119 -0.529684  0.000000 0.000000 0
0  -25.221975 -94.162575 49.917850  0.281033 -0.908726 -0.308605  0.000000 0.000000 0
  phy
0  -25.221975 -94.162575 49.917850  0.281033 -0.908726 -0.308605  0.000000 0.000000 0
0  -24.465292 -93.389374 52.121574  0.287126 -0.798119 -0.529684  0.000000 0.000000 0
0  -28.125834 -93.015617 49.909027  0.379939 -0.442808 0.812138  0.000000 0.000000 0
  phy
0  -38.984509 -75.750275 50.393272  0.843660 0.114421 -0.524543  0.000000 0.000000 0
0  -36.961323 -75.451317 52.509315  0.680229 0.145021 -0.718511  0.000000 0.000000 0
0  -39.258377 -57.328747 42.367298  0.653294 0.331184 -0.680826  0.000000 0.000000 0
  phy
0  -38.984509 -75.750275 50.393272  0.843660 0.114421 -0.524543  0.000000 0.000000 0
0  -39.258377 -57.328747 42.367298  0.653294 0.331184 -0.680826  0.000000 0.000000 0
0  -40.979004 -61.807037 41.752491  0.047196 -0.133648 0.989904  0.000000 0.000000 0
  phy
0  -40.291504 -69.899727 45.129330  0.668732 -0.402485 0.625143  0.000000 0.000000 0
0  -38.984509 -75.750275 50.393272  0.843660 0.114421 -0.524543  0.000000 0.000000 0
0  -40.979004 -61.807037 41.752491  0.047196 -0.133648 0.989904  0.000000 0.000000 0
  phy
0  -38.984509 -75.750275 50.393272  0.843660 0.114421 -0.524543  0.000000 0.000000 0
0  -40.291504 -69.899727 45.129330  0.668732 -0.402485 0.625143  0.000000 0.000000 0
0  -37.608456 -81.380112 51.303822  0.846782 -0.415210 0.332508  0.000000 0.000000 0
  phy
0  -36.961323 -75.451317 52.509315  0.680229 0.145021 -0.718511  0.000000 0.000000 0
0  -38.984509 -75.750275 50.393272  0.843660 0.114421 -0.524543  0.000000 0.000000 0
0  -35.902107 -85.033188 52.842621  0.713440 -0.338865 -0.613330  0.000000 0.000000 0
  phy
0  -35.902107 -85.033188 52.842621  0.713440 -0.338865 -0.613330  0.000000 0.000000 0
0  -38.984509 -75.750275 50.393272  0.843660 0.114421 -0.524543  0.000000 0.000000 0
0  -37.608456 -81.380112 51.303822  0.846782 -0.415210 0.332508  0.000000 0.000000 0
  phy
0  -26.777752 -91.222176 52.976627  0.182083 -0.476447 -0.860142  0.000000 0.000000 0
0  -25.282656 -86.516510 55.718933  0.149731 -0.351938 -0.923970  0.000000 0.000000 0
0  -28.854982 -89.565262 53.402893  0.204349 -0.449697 -0.869490  0.000000 0.000000 0
  phy
0  -32.680939 -85.995819 54.028248  0.416108 -0.465615 -0.781061  0.000000 0.000000 0
0  -35.902107 -85.033188 52.842621  0.713440 -0.338865 -0.613330  0.000000 0.000000 0
0  -31.100779 -88.040680 53.506176  0.420523 -0.549301 -0.722100  0.000000 0.000000 0
  phy
0  -32.680939 -85.995819 54.028248  0.416108 -0.465615 -0.781061  0.000000 0.000000 0
0  -34.119083 -83.804482 54.423275  0.546747 -0.100533 -0.831240  0.000000 0.000000 0
0  -35.902107 -85.033188 52.842621  0.713440 -0.338865 -0.613330  0.000000 0.000000 0
  phy
0  3.358622 -94.194130 53.612961  -0.024062 -0.468662 -0.883050  0.000000 0.000000 0
0  2.925189 -94.222046 53.600780  -0.002944 -0.449306 -0.893373  0.000000 0.000000 0
0  5.224073 -94.221298 53.538933  -0.036004 -0.611988 -0.790047  0.000000 0.000000 0
  phy
0  2.925189 -94.222046 53.600780  -0.002944 -0.449306 -0.893373  0.000000 0.000000 0
0  5.278732 -97.100357 51.069481  -0.018396 -0.682365 -0.730780  0.000000 0.000000 0
0  5.224073 -94.221298 53.538933  -0.036004 -0.611988 -0.790047  0.000000 0.000000 0
  phy
0  2.925189 -94.222046 53.600780  -0.002944 -0.449306 -0.893373  0.000000 0.000000 0
0  0.000045 -94.473831 53.464710  0.003737 -0.580957 -0.813926  0.000000 0.000000 0
0  5.278732 -97.100357 51.069481  -0.018396 -0.682365 -0.730780  0.000000 0.000000 0
  phy
0  0.000045 -94.473831 53.464710  0.003737 -0.580957 -0.813926  0.000000 0.000000 0
0  -10.372181 -91.079353 54.961807  0.010558 -0.404621 -0.914424  0.000000 0.000000 0
0  -9.613782 -92.745880 54.197479  0.065086 -0.473277 -0.878506  0.000000 0.000000 0
  phy
0  0.000045 -94.473831 53.464710  0.003737 -0.580957 -0.813926  0.000000 0.000000 0
0  2.925189 -94.222046 53.600780  -0.002944 -0.449306 -0.893373  0.000000 0.000000 0
0  -10.372181 -91.079353 54.961807  0.010558 -0.404621 -0.914424  0.000000 0.000000 0
  phy
0  -5.292797 -97.099808 51.068951  0.018103 -0.683501 -0.729725  0.000000 0.000000 0
0  -5.238410 -94.220825 53.538456  0.032444 -0.610121 -0.791644  0.000000 0.000000 0
0  -10.337219 -96.665627 51.303192  0.044281 -0.683872 -0.728257  0.000000 0.000000 0
  phy
0  -5.292797 -97.099808 51.068951  0.018103 -0.683501 -0.729725  0.000000 0.000000 0
0  0.000045 -94.473831 53.464710  0.003737 -0.580957 -0.813926  0.000000 0.000000 0
0  -5.238410 -94.220825 53.538456  0.032444 -0.610121 -0.791644  0.000000 0.000000 0
  phy
0  0.000045 -94.473831 53.464710  0.003737 -0.580957 -0.813926  0.000000 0.000000 0
0  -0.007186 -97.218666 51.030651  0.000027 -0.690182 -0.723636  0.000000 0.000000 0
0  5.278732 -97.100357 51.069481  -0.018396 -0.682365 -0.730780  0.000000 0.000000 0
  phy
0  -5.292797 -97.099808 51.068951  0.018103 -0.683501 -0.729725  0.000000 0.000000 0
0  -0.007186 -97.218666 51.030651  0.000027 -0.690182 -0.723636  0.000000 0.000000 0
0  0.000045 -94.473831 53.464710  0.003737 -0.580957 -0.813926  0.000000 0.000000 0
  phy
0  0.000045 -94.473831 53.464710  0.003737 -0.580957 -0.813926  0.000000 0.000000 0
0  -9.613782 -92.745880 54.197479  0.065086 -0.473277 -0.878506  0.000000 0.000000 0
0  -5.238410 -94.220825 53.538456  0.032444 -0.610121 -0.791644  0.000000 0.000000 0
  phy
0  -19.416784 -85.002342 56.706573  0.030931 0.087960 -0.995644  0.000000 0.000000 0
0  -18.011715 -85.679741 56.790665  0.007466 -0.014560 -0.999866  0.000000 0.000000 0
0  -7.935720 -81.071625 56.176235  0.000430 0.151453 -0.988464  0.000000 0.000000 0
  phy
0  -18.011715 -85.679741 56.790665  0.007466 -0.014560 -0.999866  0.000000 0.000000 0
0  17.888287 -80.043869 55.988289  -0.002379 0.131861 -0.991265  0.000000 0.000000 0
0  -7.935720 -81.071625 56.176235  0.000430 0.151453 -0.988464  0.000000 0.000000 0
  phy
0  -18.011715 -85.679741 56.790665  0.007466 -0.014560 -0.999866  0.000000 0.000000 0
0  18.132900 -85.906723 56.741817  -0.019596 -0.019551 -0.999617  0.000000 0.000000 0
0  17.888287 -80.043869 55.988289  -0.002379 0.131861 -0.991265  0.000000 0.000000 0
  phy
0  18.132900 -85.906723 56.741817  -0.019596 -0.019551 -0.999617  0.000000 0.000000 0
0  25.634209 -82.410828 56.275990  -0.054969 0.055340 -0.996953  0.000000 0.000000 0
0  17.888287 -80.043869 55.988289  -0.002379 0.131861 -0.991265  0.000000 0.000000 0
  phy
0  17.888287 -80.043869 55.988289  -0.002379 0.131861 -0.991265  0.000000 0.000000 0
0  18.546408 -79.049507 55.805420  -0.002256 0.202949 -0.979187  0.000000 0.000000 0
0  -7.935720 -81.071625 56.176235  0.000430 0.151453 -0.988464  0.000000 0.000000 0
  phy
0  18.546408 -79.049507 55.805420  -0.002256 0.202949 -0.979187  0.000000 0.000000 0
0  -18.560686 -79.047585 55.803459  0.004139 0.180742 -0.983522  0.000000 0.000000 0
0  -7.935720 -81.071625 56.176235  0.000430 0.151453 -0.988464  0.000000 0.000000 0
  phy
0  -18.560686 -79.047585 55.803459  0.004139 0.180742 -0.983522  0.000000 0.000000 0
0  -19.416784 -85.002342 56.706573  0.030931 0.087960 -0.995644  0.000000 0.000000 0
0  -7.935720 -81.071625 56.176235  0.000430 0.151453 -0.988464  0.000000 0.000000 0
  phy
0  -18.560686 -79.047585 55.803459  0.004139 0.180742 -0.983522  0.000000 0.000000 0
0  -25.648537 -82.408272 56.273357  0.139980 0.099849 -0.985107  0.000000 0.000000 0
0  -19.416784 -85.002342 56.706573  0.030931 0.087960 -0.995644  0.000000 0.000000 0
  phy
0  -25.648537 -82.408272 56.273357  0.139980 0.099849 -0.985107  0.000000 0.000000 0
0  -25.282656 -86.516510 55.718933  0.149731 -0.351938 -0.923970  0.000000 0.000000 0
0  -19.416784 -85.002342 56.706573  0.030931 0.087960 -0.995644  0.000000 0.000000 0
  phy
0  -25.282656 -86.516510 55.718933  0.149731 -0.351938 -0.923970  0.000000 0.000000 0
0  -18.011715 -85.679741 56.790665  0.007466 -0.014560 -0.999866  0.000000 0.000000 0
0  -19.416784 -85.002342 56.706573  0.030931 0.087960 -0.995644  0.000000 0.000000 0
  phy
0  -29.433363 -83.743362 55.524857  0.190730 -0.174761 -0.965961  0.000000 0.000000 0
0  -25.282656 -86.516510 55.718933  0.149731 -0.351938 -0.923970  0.000000 0.000000 0
0  -25.648537 -82.408272 56.273357  0.139980 0.099849 -0.985107  0.000000 0.000000 0
  phy
0  -18.560686 -79.047585 55.803459  0.004139 0.180742 -0.983522  0.000000 0.000000 0
0  -26.294893 -76.756165 55.282742  0.002093 0.318236 -0.948009  0.000000 0.000000 0
0  -25.648537 -82.408272 56.273357  0.139980 0.099849 -0.985107  0.000000 0.000000 0
  phy
0  -25.648537 -82.408272 56.273357  0.139980 0.099849 -0.985107  0.000000 0.000000 0
0  -26.294893 -76.756165 55.282742  0.002093 0.318236 -0.948009  0.000000 0.000000 0
0  -26.886669 -76.546707 55.141148  0.118920 0.378667 -0.917861  0.000000 0.000000 0
  phy
0  -25.648537 -82.408272 56.273357  0.139980 0.099849 -0.985107  0.000000 0.000000 0
0  -33.576035 -83.496681 54.627106  0.230950 0.083606 -0.969367  0.000000 0.000000 0
0  -29.433363 -83.743362 55.524857  0.190730 -0.174761 -0.965961  0.000000 0.000000 0
  phy
0  -25.648537 -82.408272 56.273357  0.139980 0.099849 -0.985107  0.000000 0.000000 0
0  -36.383301 -75.411598 52.823689  0.261461 0.174365 -0.949334  0.000000 0.000000 0
0  -33.576035 -83.496681 54.627106  0.230950 0.083606 -0.969367  0.000000 0.000000 0
  phy
0  -26.886669 -76.546707 55.141148  0.118920 0.378667 -0.917861  0.000000 0.000000 0
0  -36.383301 -75.411598 52.823689  0.261461 0.174365 -0.949334  0.000000 0.000000 0
0  -25.648537 -82.408272 56.273357  0.139980 0.099849 -0.985107  0.000000 0.000000 0
  phy
0  12.903811 -71.453583 53.084003  -0.007758 0.418152 -0.908344  0.000000 0.000000 0
0  21.246969 -74.018250 54.148281  -0.018516 0.423708 -0.905609  0.000000 0.000000 0
0  19.677691 -62.950756 48.362137  -0.011955 0.507842 -0.861368  0.000000 0.000000 0
  phy
0  21.246969 -74.018250 54.148281  -0.018516 0.423708 -0.905609  0.000000 0.000000 0
0  27.424946 -60.651047 46.879951  -0.050516 0.554921 -0.830368  0.000000 0.000000 0
0  19.677691 -62.950756 48.362137  -0.011955 0.507842 -0.861368  0.000000 0.000000 0
  phy
0  27.127733 -91.613037 52.594276  -0.388960 -0.694986 -0.604735  0.000000 0.000000 0
0  29.184887 -89.985329 53.008614  -0.485609 -0.676931 -0.553126  0.000000 0.000000 0
0  28.841412 -89.567741 53.406002  -0.212626 -0.457534 -0.863396  0.000000 0.000000 0
  phy
0  27.127733 -91.613037 52.594276  -0.388960 -0.694986 -0.604735  0.000000 0.000000 0
0  28.111280 -93.018333 49.912045  -0.379992 -0.442874 0.812077  0.000000 0.000000 0
0  29.184887 -89.985329 53.008614  -0.485609 -0.676931 -0.553126  0.000000 0.000000 0
  phy
0  27.127733 -91.613037 52.594276  -0.388960 -0.694986 -0.604735  0.000000 0.000000 0
0  24.449923 -93.391670 52.124012  -0.286308 -0.800142 -0.527068  0.000000 0.000000 0
0  28.111280 -93.018333 49.912045  -0.379992 -0.442874 0.812077  0.000000 0.000000 0
  phy
0  5.278562 -97.485397 50.517891  -0.043646 -0.940596 -0.336711  0.000000 0.000000 0
0  5.278732 -97.100357 51.069481  -0.018396 -0.682365 -0.730780  0.000000 0.000000 0
0  -0.007514 -97.603752 50.479107  -0.004011 -0.823484 -0.567326  0.000000 0.000000 0
  phy
0  5.278562 -97.485397 50.517891  -0.043646 -0.940596 -0.336711  0.000000 0.000000 0
0  10.509951 -96.660934 51.298187  -0.044520 -0.685747 -0.726478  0.000000 0.000000 0
0  5.278732 -97.100357 51.069481  -0.018396 -0.682365 -0.730780  0.000000 0.000000 0
  phy
0  5.278732 -97.100357 51.069481  -0.018396 -0.682365 -0.730780  0.000000 0.000000 0
0  -0.007186 -97.218666 51.030651  0.000027 -0.690182 -0.723636  0.000000 0.000000 0
0  -0.007514 -97.603752 50.479107  -0.004011 -0.823484 -0.567326  0.000000 0.000000 0
  phy
0  -11.072637 -88.136093 56.237362  0.010858 -0.356010 -0.934419  0.000000 0.000000 0
0  11.058314 -88.137154 56.238541  -0.009637 -0.301798 -0.953323  0.000000 0.000000 0
0  -18.011715 -85.679741 56.790665  0.007466 -0.014560 -0.999866  0.000000 0.000000 0
  phy
0  11.058314 -88.137154 56.238541  -0.009637 -0.301798 -0.953323  0.000000 0.000000 0
0  18.132900 -85.906723 56.741817  -0.019596 -0.019551 -0.999617  0.000000 0.000000 0
0  -18.011715 -85.679741 56.790665  0.007466 -0.014560 -0.999866  0.000000 0.000000 0
  phy
0  25.262383 -86.518608 55.721443  -0.140968 -0.376827 -0.915494  0.000000 0.000000 0
0  25.634209 -82.410828 56.275990  -0.054969 0.055340 -0.996953  0.000000 0.000000 0
0  18.132900 -85.906723 56.741817  -0.019596 -0.019551 -0.999617  0.000000 0.000000 0
  phy
0  18.132900 -85.906723 56.741817  -0.019596 -0.019551 -0.999617  0.000000 0.000000 0
0  17.912844 -88.990883 55.468559  -0.088731 -0.451317 -0.887941  0.000000 0.000000 0
0  25.262383 -86.518608 55.721443  -0.140968 -0.376827 -0.915494  0.000000 0.000000 0
  phy
0  18.132900 -85.906723 56.741817  -0.019596 -0.019551 -0.999617  0.000000 0.000000 0
0  11.058314 -88.137154 56.238541  -0.009637 -0.301798 -0.953323  0.000000 0.000000 0
0  17.912844 -88.990883 55.468559  -0.088731 -0.451317 -0.887941  0.000000 0.000000 0
  phy
0  32.254391 -85.728073 54.369114  -0.237165 -0.310933 -0.920366  0.000000 0.000000 0
0  31.086109 -88.043587 53.509449  -0.410508 -0.546166 -0.730195  0.000000 0.000000 0
0  32.666702 -85.998970 54.031574  -0.415885 -0.465680 -0.781141  0.000000 0.000000 0
  phy
0  32.666702 -85.998970 54.031574  -0.415885 -0.465680 -0.781141  0.000000 0.000000 0
0  34.097633 -83.815552 54.426628  -0.546557 -0.101923 -0.831196  0.000000 0.000000 0
0  32.254391 -85.728073 54.369114  -0.237165 -0.310933 -0.920366  0.000000 0.000000 0
  phy
0  17.912844 -88.990883 55.468559  -0.088731 -0.451317 -0.887941  0.000000 0.000000 0
0  17.375742 -95.468132 51.868523  -0.083807 -0.549190 -0.831485  0.000000 0.000000 0
0  23.493258 -93.135628 52.559677  -0.120650 -0.479361 -0.869285  0.000000 0.000000 0
  phy
0  17.912844 -88.990883 55.468559  -0.088731 -0.451317 -0.887941  0.000000 0.000000 0
0  9.599377 -92.746552 54.198681  -0.081425 -0.486651 -0.869793  0.000000 0.000000 0
0  17.375742 -95.468132 51.868523  -0.083807 -0.549190 -0.831485  0.000000 0.000000 0
  phy
0  17.375742 -95.468132 51.868523  -0.083807 -0.549190 -0.831485  0.000000 0.000000 0
0  24.449923 -93.391670 52.124012  -0.286308 -0.800142 -0.527068  0.000000 0.000000 0
0  23.493258 -93.135628 52.559677  -0.120650 -0.479361 -0.869285  0.000000 0.000000 0
  phy
0  25.262383 -86.518608 55.721443  -0.140968 -0.376827 -0.915494  0.000000 0.000000 0
0  17.912844 -88.990883 55.468559  -0.088731 -0.451317 -0.887941  0.000000 0.000000 0
0  23.493258 -93.135628 52.559677  -0.120650 -0.479361 -0.869285  0.000000 0.000000 0
  phy
0  28.111280 -93.018333 49.912045  -0.379992 -0.442874 0.812077  0.000000 0.000000 0
0  17.403374 -96.878136 48.270927  -0.227169 -0.431338 0.873122  0.000000 0.000000 0
0  40.968216 -61.810989 41.756741  -0.046728 -0.155032 0.986804  0.000000 0.000000 0
  phy
0  17.375742 -95.468132 51.868523  -0.083807 -0.549190 -0.831485  0.000000 0.000000 0
0  8.359921 -93.555603 53.799801  -0.056621 -0.542629 -0.838062  0.000000 0.000000 0
0  5.224073 -94.221298 53.538933  -0.036004 -0.611988 -0.790047  0.000000 0.000000 0
  phy
0  5.278732 -97.100357 51.069481  -0.018396 -0.682365 -0.730780  0.000000 0.000000 0
0  10.509951 -96.660934 51.298187  -0.044520 -0.685747 -0.726478  0.000000 0.000000 0
0  5.224073 -94.221298 53.538933  -0.036004 -0.611988 -0.790047  0.000000 0.000000 0
  phy
0  5.224073 -94.221298 53.538933  -0.036004 -0.611988 -0.790047  0.000000 0.000000 0
0  10.509951 -96.660934 51.298187  -0.044520 -0.685747 -0.726478  0.000000 0.000000 0
0  17.375742 -95.468132 51.868523  -0.083807 -0.549190 -0.831485  0.000000 0.000000 0
  phy
0  9.599377 -92.746552 54.198681  -0.081425 -0.486651 -0.869793  0.000000 0.000000 0
0  8.359921 -93.555603 53.799801  -0.056621 -0.542629 -0.838062  0.000000 0.000000 0
0  17.375742 -95.468132 51.868523  -0.083807 -0.549190 -0.831485  0.000000 0.000000 0
  phy
0  27.424946 -60.651047 46.879951  -0.050516 0.554921 -0.830368  0.000000 0.000000 0
0  21.246969 -74.018250 54.148281  -0.018516 0.423708 -0.905609  0.000000 0.000000 0
0  26.873333 -76.549843 55.143990  -0.145434 0.331460 -0.932193  0.000000 0.000000 0
  phy
0  21.246969 -74.018250 54.148281  -0.018516 0.423708 -0.905609  0.000000 0.000000 0
0  26.281296 -76.758804 55.285526  -0.005910 0.293296 -0.956003  0.000000 0.000000 0
0  26.873333 -76.549843 55.143990  -0.145434 0.331460 -0.932193  0.000000 0.000000 0
  phy
0  25.634209 -82.410828 56.275990  -0.054969 0.055340 -0.996953  0.000000 0.000000 0
0  26.143494 -82.273087 56.160748  -0.216368 0.130057 -0.967610  0.000000 0.000000 0
0  26.281296 -76.758804 55.285526  -0.005910 0.293296 -0.956003  0.000000 0.000000 0
  phy
0  26.143494 -82.273087 56.160748  -0.216368 0.130057 -0.967610  0.000000 0.000000 0
0  26.873333 -76.549843 55.143990  -0.145434 0.331460 -0.932193  0.000000 0.000000 0
0  26.281296 -76.758804 55.285526  -0.005910 0.293296 -0.956003  0.000000 0.000000 0
  phy
0  26.873333 -76.549843 55.143990  -0.145434 0.331460 -0.932193  0.000000 0.000000 0
0  33.561924 -83.500046 54.630661  -0.229518 0.106166 -0.967497  0.000000 0.000000 0
0  36.328854 -75.718140 52.838718  -0.255160 0.346241 -0.902779  0.000000 0.000000 0
  phy
0  26.873333 -76.549843 55.143990  -0.145434 0.331460 -0.932193  0.000000 0.000000 0
0  26.143494 -82.273087 56.160748  -0.216368 0.130057 -0.967610  0.000000 0.000000 0
0  33.561924 -83.500046 54.630661  -0.229518 0.106166 -0.967497  0.000000 0.000000 0
  phy
0  26.873333 -76.549843 55.143990  -0.145434 0.331460 -0.932193  0.000000 0.000000 0
0  36.328854 -75.718140 52.838718  -0.255160 0.346241 -0.902779  0.000000 0.000000 0
0  30.740917 -75.592026 54.029503  -0.174582 0.449561 -0.876023  0.000000 0.000000 0
  phy
0  30.740917 -75.592026 54.029503  -0.174582 0.449561 -0.876023  0.000000 0.000000 0
0  27.424946 -60.651047 46.879951  -0.050516 0.554921 -0.830368  0.000000 0.000000 0
0  26.873333 -76.549843 55.143990  -0.145434 0.331460 -0.932193  0.000000 0.000000 0
  phy
0  -5.293349 -97.484901 50.517315  0.043561 -0.924021 -0.379853  0.000000 0.000000 0
0  -5.292797 -97.099808 51.068951  0.018103 -0.683501 -0.729725  0.000000 0.000000 0
0  -10.337219 -96.665627 51.303192  0.044281 -0.683872 -0.728257  0.000000 0.000000 0
  phy
0  -10.337219 -96.665627 51.303192  0.044281 -0.683872 -0.728257  0.000000 0.000000 0
0  -10.412133 -97.035706 50.767262  0.105923 -0.943611 -0.313654  0.000000 0.000000 0
0  -5.293349 -97.484901 50.517315  0.043561 -0.924021 -0.379853  0.000000 0.000000 0
  phy
0  -17.376764 -95.863991 51.309322  0.202508 -0.902414 -0.380316  0.000000 0.000000 0
0  -10.412133 -97.035706 50.767262  0.105923 -0.943611 -0.313654  0.000000 0.000000 0
0  -10.337219 -96.665627 51.303192  0.044281 -0.683872 -0.728257  0.000000 0.000000 0
  phy
0  -10.337219 -96.665627 51.303192  0.044281 -0.683872 -0.728257  0.000000 0.000000 0
0  -17.390385 -95.466331 51.866611  0.083196 -0.547720 -0.832515  0.000000 0.000000 0
0  -17.376764 -95.863991 51.309322  0.202508 -0.902414 -0.380316  0.000000 0.000000 0
  phy
0  -5.238410 -94.220825 53.538456  0.032444 -0.610121 -0.791644  0.000000 0.000000 0
0  -17.390385 -95.466331 51.866611  0.083196 -0.547720 -0.832515  0.000000 0.000000 0
0  -10.337219 -96.665627 51.303192  0.044281 -0.683872 -0.728257  0.000000 0.000000 0
  phy
0  -5.238410 -94.220825 53.538456  0.032444 -0.610121 -0.791644  0.000000 0.000000 0
0  -9.613782 -92.745880 54.197479  0.065086 -0.473277 -0.878506  0.000000 0.000000 0
0  -8.376537 -93.554474 53.799068  0.058667 -0.547253 -0.834909  0.000000 0.000000 0
  phy
0  -8.376537 -93.554474 53.799068  0.058667 -0.547253 -0.834909  0.000000 0.000000 0
0  -17.390385 -95.466331 51.866611  0.083196 -0.547720 -0.832515  0.000000 0.000000 0
0  -5.238410 -94.220825 53.538456  0.032444 -0.610121 -0.791644  0.000000 0.000000 0
  phy
0  -9.613782 -92.745880 54.197479  0.065086 -0.473277 -0.878506  0.000000 0.000000 0
0  -17.390385 -95.466331 51.866611  0.083196 -0.547720 -0.832515  0.000000 0.000000 0
0  -8.376537 -93.554474 53.799068  0.058667 -0.547253 -0.834909  0.000000 0.000000 0
  phy
0  -10.412133 -97.035706 50.767262  0.105923 -0.943611 -0.313654  0.000000 0.000000 0
0  -5.292178 -98.497398 47.476482  0.080496 -0.358393 0.930094  0.000000 0.000000 0
0  -5.293349 -97.484901 50.517315  0.043561 -0.924021 -0.379853  0.000000 0.000000 0
  phy
0  -17.926884 -88.988777 55.466930  0.088382 -0.447731 -0.889790  0.000000 0.000000 0
0  -17.390385 -95.466331 51.866611  0.083196 -0.547720 -0.832515  0.000000 0.000000 0
0  -9.613782 -92.745880 54.197479  0.065086 -0.473277 -0.878506  0.000000 0.000000 0
  phy
0  -17.926884 -88.988777 55.466930  0.088382 -0.447731 -0.889790  0.000000 0.000000 0
0  -23.507904 -93.133171 52.557217  0.120674 -0.479392 -0.869265  0.000000 0.000000 0
0  -17.390385 -95.466331 51.866611  0.083196 -0.547720 -0.832515  0.000000 0.000000 0
  phy
0  -23.507904 -93.133171 52.557217  0.120674 -0.479392 -0.869265  0.000000 0.000000 0
0  -25.282656 -86.516510 55.718933  0.149731 -0.351938 -0.923970  0.000000 0.000000 0
0  -26.777752 -91.222176 52.976627  0.182083 -0.476447 -0.860142  0.000000 0.000000 0
  phy
0  -17.926884 -88.988777 55.466930  0.088382 -0.447731 -0.889790  0.000000 0.000000 0
0  -25.282656 -86.516510 55.718933  0.149731 -0.351938 -0.923970  0.000000 0.000000 0
0  -23.507904 -93.133171 52.557217  0.120674 -0.479392 -0.869265  0.000000 0.000000 0
  phy
0  -26.777752 -91.222176 52.976627  0.182083 -0.476447 -0.860142  0.000000 0.000000 0
0  -24.465292 -93.389374 52.121574  0.287126 -0.798119 -0.529684  0.000000 0.000000 0
0  -23.507904 -93.133171 52.557217  0.120674 -0.479392 -0.869265  0.000000 0.000000 0
  phy
0  -24.465292 -93.389374 52.121574  0.287126 -0.798119 -0.529684  0.000000 0.000000 0
0  -17.390385 -95.466331 51.866611  0.083196 -0.547720 -0.832515  0.000000 0.000000 0
0  -23.507904 -93.133171 52.557217  0.120674 -0.479392 -0.869265  0.000000 0.000000 0
  phy
0  -17.376764 -95.863991 51.309322  0.202508 -0.902414 -0.380316  0.000000 0.000000 0
0  -17.418129 -96.876396 48.269119  0.188839 -0.403221 0.895406  0.000000 0.000000 0
0  -10.412133 -97.035706 50.767262  0.105923 -0.943611 -0.313654  0.000000 0.000000 0
  phy
0  -17.376764 -95.863991 51.309322  0.202508 -0.902414 -0.380316  0.000000 0.000000 0
0  -17.390385 -95.466331 51.866611  0.083196 -0.547720 -0.832515  0.000000 0.000000 0
0  -24.465292 -93.389374 52.121574  0.287126 -0.798119 -0.529684  0.000000 0.000000 0
  phy
0  -28.125834 -93.015617 49.909027  0.379939 -0.442808 0.812138  0.000000 0.000000 0
0  -40.291504 -69.899727 45.129330  0.668732 -0.402485 0.625143  0.000000 0.000000 0
0  -40.979004 -61.807037 41.752491  0.047196 -0.133648 0.989904  0.000000 0.000000 0
  phy
0  -17.418129 -96.876396 48.269119  0.188839 -0.403221 0.895406  0.000000 0.000000 0
0  -28.125834 -93.015617 49.909027  0.379939 -0.442808 0.812138  0.000000 0.000000 0
0  -40.979004 -61.807037 41.752491  0.047196 -0.133648 0.989904  0.000000 0.000000 0
  phy
0  -24.465292 -93.389374 52.121574  0.287126 -0.798119 -0.529684  0.000000 0.000000 0
0  -27.143883 -91.609955 52.591534  0.397744 -0.705182 -0.586957  0.000000 0.000000 0
0  -28.125834 -93.015617 49.909027  0.379939 -0.442808 0.812138  0.000000 0.000000 0
  phy
0  -40.291504 -69.899727 45.129330  0.668732 -0.402485 0.625143  0.000000 0.000000 0
0  -28.125834 -93.015617 49.909027  0.379939 -0.442808 0.812138  0.000000 0.000000 0
0  -32.778252 -88.871239 50.968742  0.707274 -0.559394 0.432252  0.000000 0.000000 0
  phy
0  -36.961323 -75.451317 52.509315  0.680229 0.145021 -0.718511  0.000000 0.000000 0
0  -36.383301 -75.411598 52.823689  0.261461 0.174365 -0.949334  0.000000 0.000000 0
0  -39.258377 -57.328747 42.367298  0.653294 0.331184 -0.680826  0.000000 0.000000 0
  phy
0  -35.902107 -85.033188 52.842621  0.713440 -0.338865 -0.613330  0.000000 0.000000 0
0  -34.119083 -83.804482 54.423275  0.546747 -0.100533 -0.831240  0.000000 0.000000 0
0  -36.961323 -75.451317 52.509315  0.680229 0.145021 -0.718511  0.000000 0.000000 0
  phy
0  -34.119083 -83.804482 54.423275  0.546747 -0.100533 -0.831240  0.000000 0.000000 0
0  -36.383301 -75.411598 52.823689  0.261461 0.174365 -0.949334  0.000000 0.000000 0
0  -36.961323 -75.451317 52.509315  0.680229 0.145021 -0.718511  0.000000 0.000000 0
  phy
0  25.634209 -82.410828 56.275990  -0.054969 0.055340 -0.996953  0.000000 0.000000 0
0  18.546408 -79.049507 55.805420  -0.002256 0.202949 -0.979187  0.000000 0.000000 0
0  17.888287 -80.043869 55.988289  -0.002379 0.131861 -0.991265  0.000000 0.000000 0
  phy
0  25.634209 -82.410828 56.275990  -0.054969 0.055340 -0.996953  0.000000 0.000000 0
0  26.281296 -76.758804 55.285526  -0.005910 0.293296 -0.956003  0.000000 0.000000 0
0  18.546408 -79.049507 55.805420  -0.002256 0.202949 -0.979187  0.000000 0.000000 0
  phy
0  -39.258377 -57.328747 42.367298  0.653294 0.331184 -0.680826  0.000000 0.000000 0
0  -36.067432 -75.109825 52.807724  0.198299 0.453286 -0.869028  0.000000 0.000000 0
0  -37.413929 -55.221897 42.098869  0.107372 0.958480 -0.264172  0.000000 0.000000 0
  phy
0  -39.258377 -57.328747 42.367298  0.653294 0.331184 -0.680826  0.000000 0.000000 0
0  -36.383301 -75.411598 52.823689  0.261461 0.174365 -0.949334  0.000000 0.000000 0
0  -36.067432 -75.109825 52.807724  0.198299 0.453286 -0.869028  0.000000 0.000000 0
  phy
0  -26.886669 -76.546707 55.141148  0.118920 0.378667 -0.917861  0.000000 0.000000 0
0  -30.768036 -75.491852 54.032047  0.153654 0.447968 -0.880747  0.000000 0.000000 0
0  -36.383301 -75.411598 52.823689  0.261461 0.174365 -0.949334  0.000000 0.000000 0
  phy
0  -30.768036 -75.491852 54.032047  0.153654 0.447968 -0.880747  0.000000 0.000000 0
0  -36.067432 -75.109825 52.807724  0.198299 0.453286 -0.869028  0.000000 0.000000 0
0  -36.383301 -75.411598 52.823689  0.261461 0.174365 -0.949334  0.000000 0.000000 0
  phy
0  -36.067432 -75.109825 52.807724  0.198299 0.453286 -0.869028  0.000000 0.000000 0
0  -27.436014 -60.648487 46.877190  0.039261 0.582180 -0.812111  0.000000 0.000000 0
0  -37.413929 -55.221897 42.098869  0.107372 0.958480 -0.264172  0.000000 0.000000 0
  phy
0  -36.067432 -75.109825 52.807724  0.198299 0.453286 -0.869028  0.000000 0.000000 0
0  -30.768036 -75.491852 54.032047  0.153654 0.447968 -0.880747  0.000000 0.000000 0
0  -27.436014 -60.648487 46.877190  0.039261 0.582180 -0.812111  0.000000 0.000000 0
  phy
0  -27.436014 -60.648487 46.877190  0.039261 0.582180 -0.812111  0.000000 0.000000 0
0  -26.886669 -76.546707 55.141148  0.118920 0.378667 -0.917861  0.000000 0.000000 0
0  -21.258989 -74.015732 54.145897  0.024410 0.436861 -0.899198  0.000000 0.000000 0
  phy
0  -26.886669 -76.546707 55.141148  0.118920 0.378667 -0.917861  0.000000 0.000000 0
0  -26.294893 -76.756165 55.282742  0.002093 0.318236 -0.948009  0.000000 0.000000 0
0  -21.258989 -74.015732 54.145897  0.024410 0.436861 -0.899198  0.000000 0.000000 0
  phy
0  -26.886669 -76.546707 55.141148  0.118920 0.378667 -0.917861  0.000000 0.000000 0
0  -27.436014 -60.648487 46.877190  0.039261 0.582180 -0.812111  0.000000 0.000000 0
0  -30.768036 -75.491852 54.032047  0.153654 0.447968 -0.880747  0.000000 0.000000 0
  phy
0  32.666702 -85.998970 54.031574  -0.415885 -0.465680 -0.781141  0.000000 0.000000 0
0  31.086109 -88.043587 53.509449  -0.410508 -0.546166 -0.730195  0.000000 0.000000 0
0  35.888054 -85.036781 52.846439  -0.712857 -0.342220 -0.612144  0.000000 0.000000 0
  phy
0  35.888054 -85.036781 52.846439  -0.712857 -0.342220 -0.612144  0.000000 0.000000 0
0  34.097633 -83.815552 54.426628  -0.546557 -0.101923 -0.831196  0.000000 0.000000 0
0  32.666702 -85.998970 54.031574  -0.415885 -0.465680 -0.781141  0.000000 0.000000 0
  phy
0  35.888054 -85.036781 52.846439  -0.712857 -0.342220 -0.612144  0.000000 0.000000 0
0  31.086109 -88.043587 53.509449  -0.410508 -0.546166 -0.730195  0.000000 0.000000 0
0  29.184887 -89.985329 53.008614  -0.485609 -0.676931 -0.553126  0.000000 0.000000 0
  phy
0  29.184887 -89.985329 53.008614  -0.485609 -0.676931 -0.553126  0.000000 0.000000 0
0  32.763565 -88.874619 50.972275  -0.707200 -0.559505 0.432229  0.000000 0.000000 0
0  35.888054 -85.036781 52.846439  -0.712857 -0.342220 -0.612144  0.000000 0.000000 0
  phy
0  28.111280 -93.018333 49.912045  -0.379992 -0.442874 0.812077  0.000000 0.000000 0
0  32.763565 -88.874619 50.972275  -0.707200 -0.559505 0.432229  0.000000 0.000000 0
0  29.184887 -89.985329 53.008614  -0.485609 -0.676931 -0.553126  0.000000 0.000000 0
  phy
0  10.355968 -91.081154 54.962826  -0.007881 -0.400905 -0.916086  0.000000 0.000000 0
0  11.058314 -88.137154 56.238541  -0.009637 -0.301798 -0.953323  0.000000 0.000000 0
0  -11.072637 -88.136093 56.237362  0.010858 -0.356010 -0.934419  0.000000 0.000000 0
  phy
0  17.912844 -88.990883 55.468559  -0.088731 -0.451317 -0.887941  0.000000 0.000000 0
0  11.058314 -88.137154 56.238541  -0.009637 -0.301798 -0.953323  0.000000 0.000000 0
0  10.355968 -91.081154 54.962826  -0.007881 -0.400905 -0.916086  0.000000 0.000000 0
  phy
0  30.740917 -75.592026 54.029503  -0.174582 0.449561 -0.876023  0.000000 0.000000 0
0  37.404415 -55.224010 42.101921  -0.092160 0.995629 0.015133  0.000000 0.000000 0
0  27.424946 -60.651047 46.879951  -0.050516 0.554921 -0.830368  0.000000 0.000000 0
  phy
0  36.328854 -75.718140 52.838718  -0.255160 0.346241 -0.902779  0.000000 0.000000 0
0  37.404415 -55.224010 42.101921  -0.092160 0.995629 0.015133  0.000000 0.000000 0
0  30.740917 -75.592026 54.029503  -0.174582 0.449561 -0.876023  0.000000 0.000000 0
  phy
0  -10.412133 -97.035706 50.767262  0.105923 -0.943611 -0.313654  0.000000 0.000000 0
0  -17.418129 -96.876396 48.269119  0.188839 -0.403221 0.895406  0.000000 0.000000 0
0  -5.292178 -98.497398 47.476482  0.080496 -0.358393 0.930094  0.000000 0.000000 0
  phy
0  -37.608456 -81.380112 51.303822  0.846782 -0.415210 0.332508  0.000000 0.000000 0
0  -40.291504 -69.899727 45.129330  0.668732 -0.402485 0.625143  0.000000 0.000000 0
0  -32.778252 -88.871239 50.968742  0.707274 -0.559394 0.432252  0.000000 0.000000 0
  phy
0  -26.777752 -91.222176 52.976627  0.182083 -0.476447 -0.860142  0.000000 0.000000 0
0  -27.143883 -91.609955 52.591534  0.397744 -0.705182 -0.586957  0.000000 0.000000 0
0  -24.465292 -93.389374 52.121574  0.287126 -0.798119 -0.529684  0.000000 0.000000 0
  phy
0  -35.902107 -85.033188 52.842621  0.713440 -0.338865 -0.613330  0.000000 0.000000 0
0  -37.608456 -81.380112 51.303822  0.846782 -0.415210 0.332508  0.000000 0.000000 0
0  -32.778252 -88.871239 50.968742  0.707274 -0.559394 0.432252  0.000000 0.000000 0
  phy
0  -10.372181 -91.079353 54.961807  0.010558 -0.404621 -0.914424  0.000000 0.000000 0
0  -11.072637 -88.136093 56.237362  0.010858 -0.356010 -0.934419  0.000000 0.000000 0
0  -17.926884 -88.988777 55.466930  0.088382 -0.447731 -0.889790  0.000000 0.000000 0
  phy
0  -11.072637 -88.136093 56.237362  0.010858 -0.356010 -0.934419  0.000000 0.000000 0
0  -18.011715 -85.679741 56.790665  0.007466 -0.014560 -0.999866  0.000000 0.000000 0
0  -17.926884 -88.988777 55.466930  0.088382 -0.447731 -0.889790  0.000000 0.000000 0
  phy
0  -17.926884 -88.988777 55.466930  0.088382 -0.447731 -0.889790  0.000000 0.000000 0
0  -18.011715 -85.679741 56.790665  0.007466 -0.014560 -0.999866  0.000000 0.000000 0
0  -25.282656 -86.516510 55.718933  0.149731 -0.351938 -0.923970  0.000000 0.000000 0
  phy
0  -17.926884 -88.988777 55.466930  0.088382 -0.447731 -0.889790  0.000000 0.000000 0
0  -9.613782 -92.745880 54.197479  0.065086 -0.473277 -0.878506  0.000000 0.000000 0
0  -10.372181 -91.079353 54.961807  0.010558 -0.404621 -0.914424  0.000000 0.000000 0
  phy
0  33.561924 -83.500046 54.630661  -0.229518 0.106166 -0.967497  0.000000 0.000000 0
0  34.097633 -83.815552 54.426628  -0.546557 -0.101923 -0.831196  0.000000 0.000000 0
0  36.328854 -75.718140 52.838718  -0.255160 0.346241 -0.902779  0.000000 0.000000 0
  phy
0  18.546408 -79.049507 55.805420  -0.002256 0.202949 -0.979187  0.000000 0.000000 0
0  -26.294893 -76.756165 55.282742  0.002093 0.318236 -0.948009  0.000000 0.000000 0
0  -18.560686 -79.047585 55.803459  0.004139 0.180742 -0.983522  0.000000 0.000000 0
  phy
0  18.546408 -79.049507 55.805420  -0.002256 0.202949 -0.979187  0.000000 0.000000 0
0  26.281296 -76.758804 55.285526  -0.005910 0.293296 -0.956003  0.000000 0.000000 0
0  -26.294893 -76.756165 55.282742  0.002093 0.318236 -0.948009  0.000000 0.000000 0
  phy
0  36.906990 -75.730598 52.522102  -0.666822 0.151401 -0.729676  0.000000 0.000000 0
0  34.097633 -83.815552 54.426628  -0.546557 -0.101923 -0.831196  0.000000 0.000000 0
0  35.888054 -85.036781 52.846439  -0.712857 -0.342220 -0.612144  0.000000 0.000000 0
  phy
0  36.328854 -75.718140 52.838718  -0.255160 0.346241 -0.902779  0.000000 0.000000 0
0  34.097633 -83.815552 54.426628  -0.546557 -0.101923 -0.831196  0.000000 0.000000 0
0  36.906990 -75.730598 52.522102  -0.666822 0.151401 -0.729676  0.000000 0.000000 0
  phy
0  35.888054 -85.036781 52.846439  -0.712857 -0.342220 -0.612144  0.000000 0.000000 0
0  38.971596 -75.753838 50.397350  -0.836197 0.116560 -0.535900  0.000000 0.000000 0
0  36.906990 -75.730598 52.522102  -0.666822 0.151401 -0.729676  0.000000 0.000000 0
  phy
0  36.906990 -75.730598 52.522102  -0.666822 0.151401 -0.729676  0.000000 0.000000 0
0  39.248306 -57.331593 42.371639  -0.586447 0.344780 -0.732944  0.000000 0.000000 0
0  36.328854 -75.718140 52.838718  -0.255160 0.346241 -0.902779  0.000000 0.000000 0
  phy
0  38.971596 -75.753838 50.397350  -0.836197 0.116560 -0.535900  0.000000 0.000000 0
0  39.248306 -57.331593 42.371639  -0.586447 0.344780 -0.732944  0.000000 0.000000 0
0  36.906990 -75.730598 52.522102  -0.666822 0.151401 -0.729676  0.000000 0.000000 0
  phy
0  -33.576035 -83.496681 54.627106  0.230950 0.083606 -0.969367  0.000000 0.000000 0
0  -36.383301 -75.411598 52.823689  0.261461 0.174365 -0.949334  0.000000 0.000000 0
0  -34.119083 -83.804482 54.423275  0.546747 -0.100533 -0.831240  0.000000 0.000000 0
  phy
0  28.111280 -93.018333 49.912045  -0.379992 -0.442874 0.812077  0.000000 0.000000 0
0  40.279480 -69.904030 45.133705  -0.668641 -0.402616 0.625155  0.000000 0.000000 0
0  32.763565 -88.874619 50.972275  -0.707200 -0.559505 0.432229  0.000000 0.000000 0
  phy
0  40.279480 -69.904030 45.133705  -0.668641 -0.402616 0.625155  0.000000 0.000000 0
0  28.111280 -93.018333 49.912045  -0.379992 -0.442874 0.812077  0.000000 0.000000 0
0  40.968216 -61.810989 41.756741  -0.046728 -0.155032 0.986804  0.000000 0.000000 0
  phy
0  37.594933 -81.383766 51.307762  -0.846698 -0.415263 0.332655  0.000000 0.000000 0
0  32.763565 -88.874619 50.972275  -0.707200 -0.559505 0.432229  0.000000 0.000000 0
0  40.279480 -69.904030 45.133705  -0.668641 -0.402616 0.625155  0.000000 0.000000 0
  phy
0  40.279480 -69.904030 45.133705  -0.668641 -0.402616 0.625155  0.000000 0.000000 0
0  38.971596 -75.753838 50.397350  -0.836197 0.116560 -0.535900  0.000000 0.000000 0
0  37.594933 -81.383766 51.307762  -0.846698 -0.415263 0.332655  0.000000 0.000000 0
  phy
0  40.279480 -69.904030 45.133705  -0.668641 -0.402616 0.625155  0.000000 0.000000 0
0  40.968216 -61.810989 41.756741  -0.046728 -0.155032 0.986804  0.000000 0.000000 0
0  38.971596 -75.753838 50.397350  -0.836197 0.116560 -0.535900  0.000000 0.000000 0
  phy
0  37.594933 -81.383766 51.307762  -0.846698 -0.415263 0.332655  0.000000 0.000000 0
0  38.971596 -75.753838 50.397350  -0.836197 0.116560 -0.535900  0.000000 0.000000 0
0  35.888054 -85.036781 52.846439  -0.712857 -0.342220 -0.612144  0.000000 0.000000 0
  phy
0  35.888054 -85.036781 52.846439  -0.712857 -0.342220 -0.612144  0.000000 0.000000 0
0  32.763565 -88.874619 50.972275  -0.707200 -0.559505 0.432229  0.000000 0.000000 0
0  37.594933 -81.383766 51.307762  -0.846698 -0.415263 0.332655  0.000000 0.000000 0
  phy
0  27.424946 -60.651047 46.879951  -0.050516 0.554921 -0.830368  0.000000 0.000000 0
0  37.404415 -55.224010 42.101921  -0.092160 0.995629 0.015133  0.000000 0.000000 0
0  -27.436014 -60.648487 46.877190  0.039261 0.582180 -0.812111  0.000000 0.000000 0
  phy
0  -5.292178 -98.497398 47.476482  0.080496 -0.358393 0.930094  0.000000 0.000000 0
0  -17.418129 -96.876396 48.269119  0.188839 -0.403221 0.895406  0.000000 0.000000 0
0  -40.979004 -61.807037 41.752491  0.047196 -0.133648 0.989904  0.000000 0.000000 0
  phy
0  -5.292178 -98.497398 47.476482  0.080496 -0.358393 0.930094  0.000000 0.000000 0
0  -40.979004 -61.807037 41.752491  0.047196 -0.133648 0.989904  0.000000 0.000000 0
0  -0.007896 -98.648125 47.409252  -0.003389 -0.175172 0.984532  0.000000 0.000000 0
  phy
0  36.328854 -75.718140 52.838718  -0.255160 0.346241 -0.902779  0.000000 0.000000 0
0  39.248306 -57.331593 42.371639  -0.586447 0.344780 -0.732944  0.000000 0.000000 0
0  37.404415 -55.224010 42.101921  -0.092160 0.995629 0.015133  0.000000 0.000000 0
  phy
0  37.404415 -55.224010 42.101921  -0.092160 0.995629 0.015133  0.000000 0.000000 0
0  -37.413929 -55.221897 42.098869  0.107372 0.958480 -0.264172  0.000000 0.000000 0
0  -27.436014 -60.648487 46.877190  0.039261 0.582180 -0.812111  0.000000 0.000000 0
  phy
0  38.971596 -75.753838 50.397350  -0.836197 0.116560 -0.535900  0.000000 0.000000 0
0  40.968216 -61.810989 41.756741  -0.046728 -0.155032 0.986804  0.000000 0.000000 0
0  40.335434 -59.423893 42.055950  -0.840232 0.257146 -0.477374  0.000000 0.000000 0
  phy
0  40.335434 -59.423893 42.055950  -0.840232 0.257146 -0.477374  0.000000 0.000000 0
0  39.248306 -57.331593 42.371639  -0.586447 0.344780 -0.732944  0.000000 0.000000 0
0  38.971596 -75.753838 50.397350  -0.836197 0.116560 -0.535900  0.000000 0.000000 0
  phy
0  37.404415 -55.224010 42.101921  -0.092160 0.995629 0.015133  0.000000 0.000000 0
0  40.335434 -59.423893 42.055950  -0.840232 0.257146 -0.477374  0.000000 0.000000 0
0  40.968216 -61.810989 41.756741  -0.046728 -0.155032 0.986804  0.000000 0.000000 0
  phy
0  40.335434 -59.423893 42.055950  -0.840232 0.257146 -0.477374  0.000000 0.000000 0
0  37.404415 -55.224010 42.101921  -0.092160 0.995629 0.015133  0.000000 0.000000 0
0  39.248306 -57.331593 42.371639  -0.586447 0.344780 -0.732944  0.000000 0.000000 0
  phy
0  -40.979004 -61.807037 41.752491  0.047196 -0.133648 0.989904  0.000000 0.000000 0
0  -39.258377 -57.328747 42.367298  0.653294 0.331184 -0.680826  0.000000 0.000000 0
0  -37.413929 -55.221897 42.098869  0.107372 0.958480 -0.264172  0.000000 0.000000 0
  phy
0  -40.979004 -61.807037 41.752491  0.047196 -0.133648 0.989904  0.000000 0.000000 0
0  37.404415 -55.224010 42.101921  -0.092160 0.995629 0.015133  0.000000 0.000000 0
0  40.968216 -61.810989 41.756741  -0.046728 -0.155032 0.986804  0.000000 0.000000 0
  phy
0  37.404415 -55.224010 42.101921  -0.092160 0.995629 0.015133  0.000000 0.000000 0
0  -40.979004 -61.807037 41.752491  0.047196 -0.133648 0.989904  0.000000 0.000000 0
0  -37.413929 -55.221897 42.098869  0.107372 0.958480 -0.264172  0.000000 0.000000 0
  phy
0  -40.979004 -61.807037 41.752491  0.047196 -0.133648 0.989904  0.000000 0.000000 0
0  40.968216 -61.810989 41.756741  -0.046728 -0.155032 0.986804  0.000000 0.000000 0
0  -0.007896 -98.648125 47.409252  -0.003389 -0.175172 0.984532  0.000000 0.000000 0
end
