version 1
nodes
0 "root" -1
end
skeleton
time 0
0  0.000000 0.000000 0.000000  0.000000 -0.000000 0.000000
end
triangles
coplightred3
0  14.741414 8.838100 71.323982  0.001061 -0.999998 -0.001569  0.724854 0.184204 1 0 1.000000
0  19.223585 8.841881 71.946274  0.001045 -0.999998 -0.001454  0.520493 0.215546 1 0 1.000000
0  14.739799 8.837111 71.948334  0.001063 -0.999998 -0.001581  0.724854 0.215546 1 0 1.000000
coplightred3
0  19.225574 8.842777 71.325523  -0.000209 -0.930414 0.366511  0.520493 0.184204 1 0 1.000000
0  19.223585 8.841881 71.946274  0.001045 -0.999998 -0.001454  0.520493 0.215546 1 0 1.000000
0  14.741414 8.838100 71.323982  0.001061 -0.999998 -0.001569  0.724854 0.184204 1 0 1.000000
coplightred3
0  -23.881384 11.282650 71.989204  -0.533950 -0.845435 -0.011700  0.520493 0.215546 1 0 1.000000
0  -23.882463 11.291922 71.368553  -0.515145 -0.819186 0.252111  0.520493 0.184204 1 0 1.000000
0  -20.357773 9.057692 71.952332  -0.533941 -0.845438 -0.011874  0.724854 0.215546 1 0 1.000000
coplightred3
0  -20.358528 9.066950 71.328072  -0.533940 -0.845439 -0.011892  0.724854 0.184204 1 0 1.000000
0  -20.357773 9.057692 71.952332  -0.533941 -0.845438 -0.011874  0.724854 0.215546 1 0 1.000000
0  -23.882463 11.291922 71.368553  -0.515145 -0.819186 0.252111  0.520493 0.184204 1 0 1.000000
coplightred3
0  24.193438 11.282661 71.989204  0.533951 -0.845435 -0.011697  0.520493 0.215546 1 0 1.000000
0  20.669830 9.057703 71.952332  0.533941 -0.845438 -0.011869  0.724854 0.215546 1 0 1.000000
0  24.194523 11.291933 71.368553  0.514631 -0.819510 0.252109  0.520493 0.184204 1 0 1.000000
coplightred3
0  20.670589 9.066961 71.328072  0.533940 -0.845439 -0.011887  0.724854 0.184204 1 0 1.000000
0  24.194523 11.291933 71.368553  0.514631 -0.819510 0.252109  0.520493 0.184204 1 0 1.000000
0  20.669830 9.057703 71.952332  0.533941 -0.845438 -0.011869  0.724854 0.215546 1 0 1.000000
coplightred3
0  20.001120 15.860844 72.080315  0.001065 0.999677 0.025397  0.724854 0.215546 1 0 1.000000
0  24.484915 15.856127 72.078049  0.001057 0.999676 0.025450  0.520493 0.215546 1 0 1.000000
0  20.002739 15.876698 71.456238  0.001064 0.999677 0.025402  0.724854 0.184204 1 0 1.000000
coplightred3
0  24.486908 15.871923 71.457573  0.000597 0.920406 0.390963  0.520493 0.184204 1 0 1.000000
0  20.002739 15.876698 71.456238  0.001064 0.999677 0.025402  0.724854 0.184204 1 0 1.000000
0  24.484915 15.856127 72.078049  0.001057 0.999676 0.025450  0.520493 0.215546 1 0 1.000000
coplightred3
0  13.687488 15.860840 72.080315  0.001064 0.999677 0.025397  0.724854 0.215546 1 0 1.000000
0  18.171280 15.856127 72.078049  0.001057 0.999676 0.025450  0.520493 0.215546 1 0 1.000000
0  13.689159 15.876694 71.456238  0.001063 0.999677 0.025402  0.724854 0.184204 1 0 1.000000
coplightred3
0  18.173330 15.871923 71.457573  0.000616 0.920406 0.390963  0.520493 0.184204 1 0 1.000000
0  13.689159 15.876694 71.456238  0.001063 0.999677 0.025402  0.724854 0.184204 1 0 1.000000
0  18.171280 15.856127 72.078049  0.001057 0.999676 0.025450  0.520493 0.215546 1 0 1.000000
coplightred3
0  -13.375435 15.860836 72.080315  -0.001065 0.999677 0.025397  0.724854 0.215546 1 0 1.000000
0  -13.377051 15.876690 71.456238  -0.001065 0.999677 0.025403  0.724854 0.184204 1 0 1.000000
0  -17.859224 15.856115 72.078049  -0.001058 0.999675 0.025455  0.520493 0.215546 1 0 1.000000
coplightred3
0  -17.859224 15.856115 72.078049  -0.001058 0.999675 0.025455  0.520493 0.215546 1 0 1.000000
0  -13.377051 15.876690 71.456238  -0.001065 0.999677 0.025403  0.724854 0.184204 1 0 1.000000
0  -17.861219 15.871912 71.457565  0.000197 0.920405 0.390965  0.520493 0.184204 1 0 1.000000
coplightred3
0  -19.689074 15.860832 72.080315  -0.001065 0.999677 0.025403  0.724854 0.215546 1 0 1.000000
0  -19.690695 15.876690 71.456238  -0.001064 0.999677 0.025407  0.724854 0.184204 1 0 1.000000
0  -24.172861 15.856115 72.078049  -0.001059 0.999676 0.025450  0.520493 0.215546 1 0 1.000000
coplightred3
0  -24.172861 15.856115 72.078049  -0.001059 0.999676 0.025450  0.520493 0.215546 1 0 1.000000
0  -19.690695 15.876690 71.456238  -0.001064 0.999677 0.025407  0.724854 0.184204 1 0 1.000000
0  -24.174856 15.871908 71.457565  0.000196 0.920407 0.390960  0.520493 0.184204 1 0 1.000000
coplightred3
0  -14.429345 8.838089 71.323982  -0.001061 -0.999998 -0.001566  0.724854 0.184204 1 0 1.000000
0  -14.427673 8.837103 71.948334  -0.001062 -0.999998 -0.001578  0.724854 0.215546 1 0 1.000000
0  -18.911516 8.841869 71.946274  -0.001045 -0.999998 -0.001454  0.520493 0.215546 1 0 1.000000
coplightred3
0  -18.911516 8.841869 71.946274  -0.001045 -0.999998 -0.001454  0.520493 0.215546 1 0 1.000000
0  -18.913513 8.842766 71.325523  -0.000582 -0.930413 0.366512  0.520493 0.184204 1 0 1.000000
0  -14.429345 8.838089 71.323982  -0.001061 -0.999998 -0.001566  0.724854 0.184204 1 0 1.000000
end
