version 1
nodes
0 "root" -1
end
skeleton
time 0
0 0 0 0 0 0 0
end
triangles
  phy
0  -2.177416 111.450439 63.224739  0.014681 0.530891 -0.847313  0.000000 0.000000 0
0  -0.707865 114.399094 60.546719  0.008092 0.694485 -0.719462  0.000000 0.000000 0
0  -1.430408 114.334137 60.599545  0.023973 0.678659 -0.734062  0.000000 0.000000 0
  phy
0  -2.177416 111.450439 63.224739  0.014681 0.530891 -0.847313  0.000000 0.000000 0
0  0.004382 114.310104 60.634014  -0.002114 0.682268 -0.731099  0.000000 0.000000 0
0  -0.707865 114.399094 60.546719  0.008092 0.694485 -0.719462  0.000000 0.000000 0
  phy
0  -3.021148 114.646370 60.242695  0.076716 0.686139 -0.723414  0.000000 0.000000 0
0  -1.430408 114.334137 60.599545  0.023973 0.678659 -0.734062  0.000000 0.000000 0
0  -0.707865 114.399094 60.546719  0.008092 0.694485 -0.719462  0.000000 0.000000 0
  phy
0  -3.021148 114.646370 60.242695  0.076716 0.686139 -0.723414  0.000000 0.000000 0
0  -0.707865 114.399094 60.546719  0.008092 0.694485 -0.719462  0.000000 0.000000 0
0  -0.004952 115.276077 59.649231  -0.000360 0.751665 -0.659545  0.000000 0.000000 0
  phy
0  1.195877 114.356255 60.581284  -0.019479 0.669937 -0.742163  0.000000 0.000000 0
0  -0.004952 115.276077 59.649231  -0.000360 0.751665 -0.659545  0.000000 0.000000 0
0  0.004382 114.310104 60.634014  -0.002114 0.682268 -0.731099  0.000000 0.000000 0
  phy
0  0.004382 114.310104 60.634014  -0.002114 0.682268 -0.731099  0.000000 0.000000 0
0  -0.004952 115.276077 59.649231  -0.000360 0.751665 -0.659545  0.000000 0.000000 0
0  -0.707865 114.399094 60.546719  0.008092 0.694485 -0.719462  0.000000 0.000000 0
  phy
0  -10.539214 117.355858 56.129860  0.080488 0.855986 -0.510696  0.000000 0.000000 0
0  -10.536673 116.900612 56.832024  0.095731 0.775026 -0.624636  0.000000 0.000000 0
0  -0.007788 117.886009 56.448509  -0.000075 0.860333 -0.509732  0.000000 0.000000 0
  phy
0  -10.539214 117.355858 56.129860  0.080488 0.855986 -0.510696  0.000000 0.000000 0
0  -0.007788 117.886009 56.448509  -0.000075 0.860333 -0.509732  0.000000 0.000000 0
0  -10.538206 126.766182 40.298679  0.109168 0.876014 -0.469768  0.000000 0.000000 0
  phy
0  -10.536673 116.900612 56.832024  0.095731 0.775026 -0.624636  0.000000 0.000000 0
0  -10.539214 117.355858 56.129860  0.080488 0.855986 -0.510696  0.000000 0.000000 0
0  -14.793117 117.372375 54.977867  0.136633 0.849461 -0.509655  0.000000 0.000000 0
  phy
0  -14.793117 117.372375 54.977867  0.136633 0.849461 -0.509655  0.000000 0.000000 0
0  -10.539214 117.355858 56.129860  0.080488 0.855986 -0.510696  0.000000 0.000000 0
0  -10.538206 126.766182 40.298679  0.109168 0.876014 -0.469768  0.000000 0.000000 0
  phy
0  -3.722924 115.253716 59.525303  0.063713 0.757398 -0.649838  0.000000 0.000000 0
0  -3.021148 114.646370 60.242695  0.076716 0.686139 -0.723414  0.000000 0.000000 0
0  -0.004952 115.276077 59.649231  -0.000360 0.751665 -0.659545  0.000000 0.000000 0
  phy
0  -3.722924 115.253716 59.525303  0.063713 0.757398 -0.649838  0.000000 0.000000 0
0  -0.004952 115.276077 59.649231  -0.000360 0.751665 -0.659545  0.000000 0.000000 0
0  0.005393 117.426201 57.108826  -0.000108 0.785681 -0.618631  0.000000 0.000000 0
  phy
0  -10.536673 116.900612 56.832024  0.095731 0.775026 -0.624636  0.000000 0.000000 0
0  -3.722924 115.253716 59.525303  0.063713 0.757398 -0.649838  0.000000 0.000000 0
0  0.005393 117.426201 57.108826  -0.000108 0.785681 -0.618631  0.000000 0.000000 0
  phy
0  -3.722924 115.253716 59.525303  0.063713 0.757398 -0.649838  0.000000 0.000000 0
0  -10.536673 116.900612 56.832024  0.095731 0.775026 -0.624636  0.000000 0.000000 0
0  -10.540405 114.627464 59.259022  0.123892 0.684697 -0.718220  0.000000 0.000000 0
  phy
0  -3.021148 114.646370 60.242695  0.076716 0.686139 -0.723414  0.000000 0.000000 0
0  -3.722924 115.253716 59.525303  0.063713 0.757398 -0.649838  0.000000 0.000000 0
0  -10.540405 114.627464 59.259022  0.123892 0.684697 -0.718220  0.000000 0.000000 0
  phy
0  26.894810 89.202644 65.609703  -0.829101 0.038846 -0.557747  0.000000 0.000000 0
0  25.284472 91.944321 67.716225  -0.766128 0.120008 -0.631383  0.000000 0.000000 0
0  25.573231 88.754486 67.543266  -0.668536 -0.130866 -0.732075  0.000000 0.000000 0
  phy
0  26.894810 89.202644 65.609703  -0.829101 0.038846 -0.557747  0.000000 0.000000 0
0  27.350002 95.046036 64.510979  -0.821740 0.053880 -0.567310  0.000000 0.000000 0
0  25.284472 91.944321 67.716225  -0.766128 0.120008 -0.631383  0.000000 0.000000 0
  phy
0  26.894810 89.202644 65.609703  -0.829101 0.038846 -0.557747  0.000000 0.000000 0
0  29.001202 96.910728 61.842274  -0.907262 -0.019457 -0.420115  0.000000 0.000000 0
0  27.350002 95.046036 64.510979  -0.821740 0.053880 -0.567310  0.000000 0.000000 0
  phy
0  26.894810 89.202644 65.609703  -0.829101 0.038846 -0.557747  0.000000 0.000000 0
0  27.376488 88.227074 64.933449  -0.886602 -0.051242 -0.459686  0.000000 0.000000 0
0  29.001202 96.910728 61.842274  -0.907262 -0.019457 -0.420115  0.000000 0.000000 0
  phy
0  26.894810 89.202644 65.609703  -0.829101 0.038846 -0.557747  0.000000 0.000000 0
0  25.573231 88.754486 67.543266  -0.668536 -0.130866 -0.732075  0.000000 0.000000 0
0  27.376488 88.227074 64.933449  -0.886602 -0.051242 -0.459686  0.000000 0.000000 0
  phy
0  -3.021148 114.646370 60.242695  0.076716 0.686139 -0.723414  0.000000 0.000000 0
0  -2.177416 111.450439 63.224739  0.014681 0.530891 -0.847313  0.000000 0.000000 0
0  -1.430408 114.334137 60.599545  0.023973 0.678659 -0.734062  0.000000 0.000000 0
  phy
0  -0.007788 117.886009 56.448509  -0.000075 0.860333 -0.509732  0.000000 0.000000 0
0  -10.536673 116.900612 56.832024  0.095731 0.775026 -0.624636  0.000000 0.000000 0
0  0.005393 117.426201 57.108826  -0.000108 0.785681 -0.618631  0.000000 0.000000 0
  phy
0  -10.536673 116.900612 56.832024  0.095731 0.775026 -0.624636  0.000000 0.000000 0
0  -17.487015 116.008621 56.288990  0.147221 0.732308 -0.664870  0.000000 0.000000 0
0  -10.540405 114.627464 59.259022  0.123892 0.684697 -0.718220  0.000000 0.000000 0
  phy
0  -17.487015 116.008621 56.288990  0.147221 0.732308 -0.664870  0.000000 0.000000 0
0  -10.536673 116.900612 56.832024  0.095731 0.775026 -0.624636  0.000000 0.000000 0
0  -17.218111 116.535248 55.624435  0.148633 0.819952 -0.552799  0.000000 0.000000 0
  phy
0  -10.536673 116.900612 56.832024  0.095731 0.775026 -0.624636  0.000000 0.000000 0
0  -14.793117 117.372375 54.977867  0.136633 0.849461 -0.509655  0.000000 0.000000 0
0  -17.218111 116.535248 55.624435  0.148633 0.819952 -0.552799  0.000000 0.000000 0
  phy
0  -22.437933 91.316422 69.099579  0.066717 -0.381819 -0.921826  0.000000 0.000000 0
0  -23.713459 92.103951 69.202911  0.343977 -0.079984 -0.935565  0.000000 0.000000 0
0  -24.161680 89.972054 68.383347  0.130221 -0.367160 -0.920997  0.000000 0.000000 0
  phy
0  -23.713459 92.103951 69.202911  0.343977 -0.079984 -0.935565  0.000000 0.000000 0
0  -24.594324 90.558640 68.531540  0.492132 -0.211414 -0.844459  0.000000 0.000000 0
0  -24.161680 89.972054 68.383347  0.130221 -0.367160 -0.920997  0.000000 0.000000 0
  phy
0  -26.039600 86.078125 66.454727  0.365803 -0.310190 -0.877480  0.000000 0.000000 0
0  -25.213896 86.014282 66.592789  0.082264 -0.413565 -0.906751  0.000000 0.000000 0
0  -24.161680 89.972054 68.383347  0.130221 -0.367160 -0.920997  0.000000 0.000000 0
  phy
0  -24.161680 89.972054 68.383347  0.130221 -0.367160 -0.920997  0.000000 0.000000 0
0  -24.594324 90.558640 68.531540  0.492132 -0.211414 -0.844459  0.000000 0.000000 0
0  -26.039600 86.078125 66.454727  0.365803 -0.310190 -0.877480  0.000000 0.000000 0
  phy
0  -24.161680 89.972054 68.383347  0.130221 -0.367160 -0.920997  0.000000 0.000000 0
0  -25.213896 86.014282 66.592789  0.082264 -0.413565 -0.906751  0.000000 0.000000 0
0  -22.437933 91.316422 69.099579  0.066717 -0.381819 -0.921826  0.000000 0.000000 0
  phy
0  -25.282457 91.946579 67.713432  0.777916 0.107339 -0.619133  0.000000 0.000000 0
0  -31.253481 109.792397 56.814968  0.961446 0.046400 -0.271051  0.000000 0.000000 0
0  -29.669226 100.580200 60.528748  0.795969 0.093845 -0.598020  0.000000 0.000000 0
  phy
0  -29.669226 100.580200 60.528748  0.795969 0.093845 -0.598020  0.000000 0.000000 0
0  -31.253481 109.792397 56.814968  0.961446 0.046400 -0.271051  0.000000 0.000000 0
0  -29.782152 101.149178 60.280357  0.986181 -0.135325 -0.095571  0.000000 0.000000 0
  phy
0  -29.782152 101.149178 60.280357  0.986181 -0.135325 -0.095571  0.000000 0.000000 0
0  -26.824209 82.923409 64.871811  0.189092 -0.602843 0.775129  0.000000 0.000000 0
0  -28.998135 96.912384 61.838432  0.886853 0.001434 -0.462050  0.000000 0.000000 0
  phy
0  -29.782152 101.149178 60.280357  0.986181 -0.135325 -0.095571  0.000000 0.000000 0
0  -28.998135 96.912384 61.838432  0.886853 0.001434 -0.462050  0.000000 0.000000 0
0  -29.669226 100.580200 60.528748  0.795969 0.093845 -0.598020  0.000000 0.000000 0
  phy
0  -29.669226 100.580200 60.528748  0.795969 0.093845 -0.598020  0.000000 0.000000 0
0  -28.998135 96.912384 61.838432  0.886853 0.001434 -0.462050  0.000000 0.000000 0
0  -25.282457 91.946579 67.713432  0.777916 0.107339 -0.619133  0.000000 0.000000 0
  phy
0  -25.282457 91.946579 67.713432  0.777916 0.107339 -0.619133  0.000000 0.000000 0
0  -28.998135 96.912384 61.838432  0.886853 0.001434 -0.462050  0.000000 0.000000 0
0  -26.892422 89.207970 65.606567  0.824785 0.042174 -0.563872  0.000000 0.000000 0
  phy
0  29.589533 100.160110 60.714828  -0.834223 0.047663 -0.549363  0.000000 0.000000 0
0  29.785923 101.146172 60.283417  -0.897303 0.021558 -0.440889  0.000000 0.000000 0
0  27.350002 95.046036 64.510979  -0.821740 0.053880 -0.567310  0.000000 0.000000 0
  phy
0  29.785923 101.146172 60.283417  -0.897303 0.021558 -0.440889  0.000000 0.000000 0
0  25.284472 91.944321 67.716225  -0.766128 0.120008 -0.631383  0.000000 0.000000 0
0  27.350002 95.046036 64.510979  -0.821740 0.053880 -0.567310  0.000000 0.000000 0
  phy
0  29.785923 101.146172 60.283417  -0.897303 0.021558 -0.440889  0.000000 0.000000 0
0  31.259209 109.789787 56.818924  -0.674233 0.296537 -0.676370  0.000000 0.000000 0
0  25.284472 91.944321 67.716225  -0.766128 0.120008 -0.631383  0.000000 0.000000 0
  phy
0  27.350002 95.046036 64.510979  -0.821740 0.053880 -0.567310  0.000000 0.000000 0
0  29.001202 96.910728 61.842274  -0.907262 -0.019457 -0.420115  0.000000 0.000000 0
0  29.589533 100.160110 60.714828  -0.834223 0.047663 -0.549363  0.000000 0.000000 0
  phy
0  10.544215 114.626770 59.260036  -0.120265 0.689868 -0.713875  0.000000 0.000000 0
0  10.546299 116.913109 56.813713  -0.092743 0.771375 -0.629587  0.000000 0.000000 0
0  3.732256 115.253716 59.523293  -0.063649 0.758759 -0.648254  0.000000 0.000000 0
  phy
0  10.544215 114.626770 59.260036  -0.120265 0.689868 -0.713875  0.000000 0.000000 0
0  3.732256 115.253716 59.523293  -0.063649 0.758759 -0.648254  0.000000 0.000000 0
0  3.223435 114.747444 60.124153  -0.089933 0.650651 -0.754033  0.000000 0.000000 0
  phy
0  10.544215 114.626770 59.260036  -0.120265 0.689868 -0.713875  0.000000 0.000000 0
0  0.394960 111.535515 63.071236  -0.127838 0.535990 -0.834489  0.000000 0.000000 0
0  10.553896 114.266853 59.525906  -0.133871 0.566702 -0.812975  0.000000 0.000000 0
  phy
0  10.544215 114.626770 59.260036  -0.120265 0.689868 -0.713875  0.000000 0.000000 0
0  3.223435 114.747444 60.124153  -0.089933 0.650651 -0.754033  0.000000 0.000000 0
0  0.394960 111.535515 63.071236  -0.127838 0.535990 -0.834489  0.000000 0.000000 0
  phy
0  10.544215 114.626770 59.260036  -0.120265 0.689868 -0.713875  0.000000 0.000000 0
0  10.553896 114.266853 59.525906  -0.133871 0.566702 -0.812975  0.000000 0.000000 0
0  18.197662 113.627083 58.681309  -0.176335 0.697921 -0.694127  0.000000 0.000000 0
  phy
0  10.546299 116.913109 56.813713  -0.092743 0.771375 -0.629587  0.000000 0.000000 0
0  10.544215 114.626770 59.260036  -0.120265 0.689868 -0.713875  0.000000 0.000000 0
0  17.499578 116.006897 56.290985  -0.147982 0.734966 -0.661760  0.000000 0.000000 0
  phy
0  10.544215 114.626770 59.260036  -0.120265 0.689868 -0.713875  0.000000 0.000000 0
0  18.197662 113.627083 58.681309  -0.176335 0.697921 -0.694127  0.000000 0.000000 0
0  17.499578 116.006897 56.290985  -0.147982 0.734966 -0.661760  0.000000 0.000000 0
  phy
0  -26.493761 86.248619 66.076500  0.756616 -0.077488 -0.649252  0.000000 0.000000 0
0  -24.594324 90.558640 68.531540  0.492132 -0.211414 -0.844459  0.000000 0.000000 0
0  -25.351486 89.784309 67.706612  0.789781 -0.016186 -0.613176  0.000000 0.000000 0
  phy
0  -24.594324 90.558640 68.531540  0.492132 -0.211414 -0.844459  0.000000 0.000000 0
0  -24.869595 90.861656 68.326675  0.707519 0.077470 -0.702435  0.000000 0.000000 0
0  -25.351486 89.784309 67.706612  0.789781 -0.016186 -0.613176  0.000000 0.000000 0
  phy
0  -25.282457 91.946579 67.713432  0.777916 0.107339 -0.619133  0.000000 0.000000 0
0  -26.892422 89.207970 65.606567  0.824785 0.042174 -0.563872  0.000000 0.000000 0
0  -25.351486 89.784309 67.706612  0.789781 -0.016186 -0.613176  0.000000 0.000000 0
  phy
0  -25.282457 91.946579 67.713432  0.777916 0.107339 -0.619133  0.000000 0.000000 0
0  -25.351486 89.784309 67.706612  0.789781 -0.016186 -0.613176  0.000000 0.000000 0
0  -24.869595 90.861656 68.326675  0.707519 0.077470 -0.702435  0.000000 0.000000 0
  phy
0  -25.351486 89.784309 67.706612  0.789781 -0.016186 -0.613176  0.000000 0.000000 0
0  -26.892422 89.207970 65.606567  0.824785 0.042174 -0.563872  0.000000 0.000000 0
0  -27.374331 88.228844 64.931534  0.904761 -0.043664 -0.423675  0.000000 0.000000 0
  phy
0  -26.493761 86.248619 66.076500  0.756616 -0.077488 -0.649252  0.000000 0.000000 0
0  -25.351486 89.784309 67.706612  0.789781 -0.016186 -0.613176  0.000000 0.000000 0
0  -27.374331 88.228844 64.931534  0.904761 -0.043664 -0.423675  0.000000 0.000000 0
  phy
0  -22.437933 91.316422 69.099579  0.066717 -0.381819 -0.921826  0.000000 0.000000 0
0  -17.822718 94.386574 70.616692  0.129284 -0.028538 -0.991197  0.000000 0.000000 0
0  -21.163664 93.467690 70.040092  0.190326 -0.112726 -0.975228  0.000000 0.000000 0
  phy
0  -22.437933 91.316422 69.099579  0.066717 -0.381819 -0.921826  0.000000 0.000000 0
0  -11.422626 95.206017 71.344521  0.056103 -0.333306 -0.941148  0.000000 0.000000 0
0  -17.822718 94.386574 70.616692  0.129284 -0.028538 -0.991197  0.000000 0.000000 0
  phy
0  -22.437933 91.316422 69.099579  0.066717 -0.381819 -0.921826  0.000000 0.000000 0
0  -11.436329 85.511246 67.463669  0.039453 -0.376760 -0.925470  0.000000 0.000000 0
0  -11.422626 95.206017 71.344521  0.056103 -0.333306 -0.941148  0.000000 0.000000 0
  phy
0  -17.822718 94.386574 70.616692  0.129284 -0.028538 -0.991197  0.000000 0.000000 0
0  -11.777040 96.132774 70.925865  0.157279 0.510292 -0.845497  0.000000 0.000000 0
0  -17.820061 95.219948 70.241455  0.204998 0.508864 -0.836082  0.000000 0.000000 0
  phy
0  -11.422626 95.206017 71.344521  0.056103 -0.333306 -0.941148  0.000000 0.000000 0
0  -11.777040 96.132774 70.925865  0.157279 0.510292 -0.845497  0.000000 0.000000 0
0  -17.822718 94.386574 70.616692  0.129284 -0.028538 -0.991197  0.000000 0.000000 0
  phy
0  -17.820061 95.219948 70.241455  0.204998 0.508864 -0.836082  0.000000 0.000000 0
0  -22.185558 94.214348 69.483841  0.342728 0.447409 -0.826052  0.000000 0.000000 0
0  -17.822718 94.386574 70.616692  0.129284 -0.028538 -0.991197  0.000000 0.000000 0
  phy
0  -22.185558 94.214348 69.483841  0.342728 0.447409 -0.826052  0.000000 0.000000 0
0  -21.163664 93.467690 70.040092  0.190326 -0.112726 -0.975228  0.000000 0.000000 0
0  -17.822718 94.386574 70.616692  0.129284 -0.028538 -0.991197  0.000000 0.000000 0
  phy
0  -11.777040 96.132774 70.925865  0.157279 0.510292 -0.845497  0.000000 0.000000 0
0  -7.899901 95.627533 71.599342  0.019413 -0.355084 -0.934633  0.000000 0.000000 0
0  -6.069003 95.880043 71.718216  0.070334 0.396763 -0.915222  0.000000 0.000000 0
  phy
0  -11.777040 96.132774 70.925865  0.157279 0.510292 -0.845497  0.000000 0.000000 0
0  -11.422626 95.206017 71.344521  0.056103 -0.333306 -0.941148  0.000000 0.000000 0
0  -7.899901 95.627533 71.599342  0.019413 -0.355084 -0.934633  0.000000 0.000000 0
  phy
0  -11.436329 85.511246 67.463669  0.039453 -0.376760 -0.925470  0.000000 0.000000 0
0  -7.899901 95.627533 71.599342  0.019413 -0.355084 -0.934633  0.000000 0.000000 0
0  -11.422626 95.206017 71.344521  0.056103 -0.333306 -0.941148  0.000000 0.000000 0
  phy
0  -11.436329 85.511246 67.463669  0.039453 -0.376760 -0.925470  0.000000 0.000000 0
0  -0.001544 85.379608 67.690491  0.002001 -0.381549 -0.924347  0.000000 0.000000 0
0  -7.899901 95.627533 71.599342  0.019413 -0.355084 -0.934633  0.000000 0.000000 0
  phy
0  -7.899901 95.627533 71.599342  0.019413 -0.355084 -0.934633  0.000000 0.000000 0
0  0.000985 96.068626 71.859367  0.007622 0.473975 -0.880506  0.000000 0.000000 0
0  -6.069003 95.880043 71.718216  0.070334 0.396763 -0.915222  0.000000 0.000000 0
  phy
0  -7.899901 95.627533 71.599342  0.019413 -0.355084 -0.934633  0.000000 0.000000 0
0  2.291410 95.943398 71.836044  -0.009843 -0.353347 -0.935441  0.000000 0.000000 0
0  0.000985 96.068626 71.859367  0.007622 0.473975 -0.880506  0.000000 0.000000 0
  phy
0  -7.899901 95.627533 71.599342  0.019413 -0.355084 -0.934633  0.000000 0.000000 0
0  -0.001544 85.379608 67.690491  0.002001 -0.381549 -0.924347  0.000000 0.000000 0
0  2.291410 95.943398 71.836044  -0.009843 -0.353347 -0.935441  0.000000 0.000000 0
  phy
0  2.291410 95.943398 71.836044  -0.009843 -0.353347 -0.935441  0.000000 0.000000 0
0  6.068905 96.626282 71.307373  -0.079140 0.500484 -0.862121  0.000000 0.000000 0
0  0.000985 96.068626 71.859367  0.007622 0.473975 -0.880506  0.000000 0.000000 0
  phy
0  6.068905 96.626282 71.307373  -0.079140 0.500484 -0.862121  0.000000 0.000000 0
0  1.085913 105.102119 66.833702  -0.034432 0.491942 -0.869947  0.000000 0.000000 0
0  0.000985 96.068626 71.859367  0.007622 0.473975 -0.880506  0.000000 0.000000 0
  phy
0  1.085913 105.102119 66.833702  -0.034432 0.491942 -0.869947  0.000000 0.000000 0
0  -2.177416 111.450439 63.224739  0.014681 0.530891 -0.847313  0.000000 0.000000 0
0  0.000985 96.068626 71.859367  0.007622 0.473975 -0.880506  0.000000 0.000000 0
  phy
0  0.000985 96.068626 71.859367  0.007622 0.473975 -0.880506  0.000000 0.000000 0
0  -2.177416 111.450439 63.224739  0.014681 0.530891 -0.847313  0.000000 0.000000 0
0  -3.468106 106.248932 66.104469  0.033280 0.485191 -0.873775  0.000000 0.000000 0
  phy
0  0.000985 96.068626 71.859367  0.007622 0.473975 -0.880506  0.000000 0.000000 0
0  -3.468106 106.248932 66.104469  0.033280 0.485191 -0.873775  0.000000 0.000000 0
0  -6.070080 96.625984 71.307182  0.074016 0.489277 -0.868982  0.000000 0.000000 0
  phy
0  -6.070080 96.625984 71.307182  0.074016 0.489277 -0.868982  0.000000 0.000000 0
0  -6.069003 95.880043 71.718216  0.070334 0.396763 -0.915222  0.000000 0.000000 0
0  0.000985 96.068626 71.859367  0.007622 0.473975 -0.880506  0.000000 0.000000 0
  phy
0  -2.764940 111.410187 63.234959  0.109417 0.558420 -0.822311  0.000000 0.000000 0
0  -2.177416 111.450439 63.224739  0.014681 0.530891 -0.847313  0.000000 0.000000 0
0  -3.021148 114.646370 60.242695  0.076716 0.686139 -0.723414  0.000000 0.000000 0
  phy
0  -3.021148 114.646370 60.242695  0.076716 0.686139 -0.723414  0.000000 0.000000 0
0  -10.540405 114.627464 59.259022  0.123892 0.684697 -0.718220  0.000000 0.000000 0
0  -2.764940 111.410187 63.234959  0.109417 0.558420 -0.822311  0.000000 0.000000 0
  phy
0  -25.514893 112.198494 57.823586  0.296137 0.678387 -0.672379  0.000000 0.000000 0
0  -18.218578 113.632469 58.668781  0.162791 0.667877 -0.726250  0.000000 0.000000 0
0  -18.981386 115.794685 56.166962  0.216565 0.735212 -0.642311  0.000000 0.000000 0
  phy
0  -25.514893 112.198494 57.823586  0.296137 0.678387 -0.672379  0.000000 0.000000 0
0  -18.272432 113.278488 58.924995  0.179990 0.521727 -0.833909  0.000000 0.000000 0
0  -18.218578 113.632469 58.668781  0.162791 0.667877 -0.726250  0.000000 0.000000 0
  phy
0  -18.218578 113.632469 58.668781  0.162791 0.667877 -0.726250  0.000000 0.000000 0
0  -17.487015 116.008621 56.288990  0.147221 0.732308 -0.664870  0.000000 0.000000 0
0  -18.981386 115.794685 56.166962  0.216565 0.735212 -0.642311  0.000000 0.000000 0
  phy
0  -17.487015 116.008621 56.288990  0.147221 0.732308 -0.664870  0.000000 0.000000 0
0  -18.218578 113.632469 58.668781  0.162791 0.667877 -0.726250  0.000000 0.000000 0
0  -10.540405 114.627464 59.259022  0.123892 0.684697 -0.718220  0.000000 0.000000 0
  phy
0  -2.764940 111.410187 63.234959  0.109417 0.558420 -0.822311  0.000000 0.000000 0
0  -10.540405 114.627464 59.259022  0.123892 0.684697 -0.718220  0.000000 0.000000 0
0  -18.218578 113.632469 58.668781  0.162791 0.667877 -0.726250  0.000000 0.000000 0
  phy
0  -18.218578 113.632469 58.668781  0.162791 0.667877 -0.726250  0.000000 0.000000 0
0  -18.272432 113.278488 58.924995  0.179990 0.521727 -0.833909  0.000000 0.000000 0
0  -2.764940 111.410187 63.234959  0.109417 0.558420 -0.822311  0.000000 0.000000 0
  phy
0  -11.777040 96.132774 70.925865  0.157279 0.510292 -0.845497  0.000000 0.000000 0
0  -6.069003 95.880043 71.718216  0.070334 0.396763 -0.915222  0.000000 0.000000 0
0  -6.070080 96.625984 71.307182  0.074016 0.489277 -0.868982  0.000000 0.000000 0
  phy
0  -2.764940 111.410187 63.234959  0.109417 0.558420 -0.822311  0.000000 0.000000 0
0  -11.777040 96.132774 70.925865  0.157279 0.510292 -0.845497  0.000000 0.000000 0
0  -6.070080 96.625984 71.307182  0.074016 0.489277 -0.868982  0.000000 0.000000 0
  phy
0  -6.070080 96.625984 71.307182  0.074016 0.489277 -0.868982  0.000000 0.000000 0
0  -3.468106 106.248932 66.104469  0.033280 0.485191 -0.873775  0.000000 0.000000 0
0  -2.764940 111.410187 63.234959  0.109417 0.558420 -0.822311  0.000000 0.000000 0
  phy
0  -18.981386 115.794685 56.166962  0.216565 0.735212 -0.642311  0.000000 0.000000 0
0  -17.487015 116.008621 56.288990  0.147221 0.732308 -0.664870  0.000000 0.000000 0
0  -17.218111 116.535248 55.624435  0.148633 0.819952 -0.552799  0.000000 0.000000 0
  phy
0  1.195877 114.356255 60.581284  -0.019479 0.669937 -0.742163  0.000000 0.000000 0
0  0.394960 111.535515 63.071236  -0.127838 0.535990 -0.834489  0.000000 0.000000 0
0  2.327080 114.508949 60.399548  -0.035369 0.676609 -0.735492  0.000000 0.000000 0
  phy
0  1.195877 114.356255 60.581284  -0.019479 0.669937 -0.742163  0.000000 0.000000 0
0  -0.644260 111.247780 63.366592  -0.030905 0.559287 -0.828398  0.000000 0.000000 0
0  0.394960 111.535515 63.071236  -0.127838 0.535990 -0.834489  0.000000 0.000000 0
  phy
0  1.195877 114.356255 60.581284  -0.019479 0.669937 -0.742163  0.000000 0.000000 0
0  2.327080 114.508949 60.399548  -0.035369 0.676609 -0.735492  0.000000 0.000000 0
0  -0.004952 115.276077 59.649231  -0.000360 0.751665 -0.659545  0.000000 0.000000 0
  phy
0  0.004382 114.310104 60.634014  -0.002114 0.682268 -0.731099  0.000000 0.000000 0
0  -2.177416 111.450439 63.224739  0.014681 0.530891 -0.847313  0.000000 0.000000 0
0  1.195877 114.356255 60.581284  -0.019479 0.669937 -0.742163  0.000000 0.000000 0
  phy
0  -2.177416 111.450439 63.224739  0.014681 0.530891 -0.847313  0.000000 0.000000 0
0  -0.644260 111.247780 63.366592  -0.030905 0.559287 -0.828398  0.000000 0.000000 0
0  1.195877 114.356255 60.581284  -0.019479 0.669937 -0.742163  0.000000 0.000000 0
  phy
0  -0.004952 115.276077 59.649231  -0.000360 0.751665 -0.659545  0.000000 0.000000 0
0  2.327080 114.508949 60.399548  -0.035369 0.676609 -0.735492  0.000000 0.000000 0
0  3.223435 114.747444 60.124153  -0.089933 0.650651 -0.754033  0.000000 0.000000 0
  phy
0  0.394960 111.535515 63.071236  -0.127838 0.535990 -0.834489  0.000000 0.000000 0
0  3.223435 114.747444 60.124153  -0.089933 0.650651 -0.754033  0.000000 0.000000 0
0  2.327080 114.508949 60.399548  -0.035369 0.676609 -0.735492  0.000000 0.000000 0
  phy
0  -23.713459 92.103951 69.202911  0.343977 -0.079984 -0.935565  0.000000 0.000000 0
0  -22.185558 94.214348 69.483841  0.342728 0.447409 -0.826052  0.000000 0.000000 0
0  -23.974813 93.272202 68.749092  0.617297 0.256164 -0.743858  0.000000 0.000000 0
  phy
0  -22.185558 94.214348 69.483841  0.342728 0.447409 -0.826052  0.000000 0.000000 0
0  -31.253481 109.792397 56.814968  0.961446 0.046400 -0.271051  0.000000 0.000000 0
0  -23.974813 93.272202 68.749092  0.617297 0.256164 -0.743858  0.000000 0.000000 0
  phy
0  -25.282457 91.946579 67.713432  0.777916 0.107339 -0.619133  0.000000 0.000000 0
0  -23.974813 93.272202 68.749092  0.617297 0.256164 -0.743858  0.000000 0.000000 0
0  -31.253481 109.792397 56.814968  0.961446 0.046400 -0.271051  0.000000 0.000000 0
  phy
0  -23.974813 93.272202 68.749092  0.617297 0.256164 -0.743858  0.000000 0.000000 0
0  -24.869595 90.861656 68.326675  0.707519 0.077470 -0.702435  0.000000 0.000000 0
0  -23.713459 92.103951 69.202911  0.343977 -0.079984 -0.935565  0.000000 0.000000 0
  phy
0  -25.282457 91.946579 67.713432  0.777916 0.107339 -0.619133  0.000000 0.000000 0
0  -24.869595 90.861656 68.326675  0.707519 0.077470 -0.702435  0.000000 0.000000 0
0  -23.974813 93.272202 68.749092  0.617297 0.256164 -0.743858  0.000000 0.000000 0
  phy
0  -22.437933 91.316422 69.099579  0.066717 -0.381819 -0.921826  0.000000 0.000000 0
0  -21.163664 93.467690 70.040092  0.190326 -0.112726 -0.975228  0.000000 0.000000 0
0  -23.713459 92.103951 69.202911  0.343977 -0.079984 -0.935565  0.000000 0.000000 0
  phy
0  -25.213896 86.014282 66.592789  0.082264 -0.413565 -0.906751  0.000000 0.000000 0
0  -11.340596 82.186974 66.037056  0.059140 -0.454079 -0.888996  0.000000 0.000000 0
0  -22.437933 91.316422 69.099579  0.066717 -0.381819 -0.921826  0.000000 0.000000 0
  phy
0  -22.437933 91.316422 69.099579  0.066717 -0.381819 -0.921826  0.000000 0.000000 0
0  -11.340596 82.186974 66.037056  0.059140 -0.454079 -0.888996  0.000000 0.000000 0
0  -11.436329 85.511246 67.463669  0.039453 -0.376760 -0.925470  0.000000 0.000000 0
  phy
0  -26.039600 86.078125 66.454727  0.365803 -0.310190 -0.877480  0.000000 0.000000 0
0  -26.824209 82.923409 64.871811  0.189092 -0.602843 0.775129  0.000000 0.000000 0
0  -25.213896 86.014282 66.592789  0.082264 -0.413565 -0.906751  0.000000 0.000000 0
  phy
0  -26.039600 86.078125 66.454727  0.365803 -0.310190 -0.877480  0.000000 0.000000 0
0  -24.594324 90.558640 68.531540  0.492132 -0.211414 -0.844459  0.000000 0.000000 0
0  -26.493761 86.248619 66.076500  0.756616 -0.077488 -0.649252  0.000000 0.000000 0
  phy
0  -26.493761 86.248619 66.076500  0.756616 -0.077488 -0.649252  0.000000 0.000000 0
0  -26.824209 82.923409 64.871811  0.189092 -0.602843 0.775129  0.000000 0.000000 0
0  -26.039600 86.078125 66.454727  0.365803 -0.310190 -0.877480  0.000000 0.000000 0
  phy
0  -26.975483 85.748375 65.374290  0.861677 -0.094904 -0.498504  0.000000 0.000000 0
0  -26.493761 86.248619 66.076500  0.756616 -0.077488 -0.649252  0.000000 0.000000 0
0  -27.374331 88.228844 64.931534  0.904761 -0.043664 -0.423675  0.000000 0.000000 0
  phy
0  -26.493761 86.248619 66.076500  0.756616 -0.077488 -0.649252  0.000000 0.000000 0
0  -26.975483 85.748375 65.374290  0.861677 -0.094904 -0.498504  0.000000 0.000000 0
0  -26.824209 82.923409 64.871811  0.189092 -0.602843 0.775129  0.000000 0.000000 0
  phy
0  -26.975483 85.748375 65.374290  0.861677 -0.094904 -0.498504  0.000000 0.000000 0
0  -27.374331 88.228844 64.931534  0.904761 -0.043664 -0.423675  0.000000 0.000000 0
0  -26.824209 82.923409 64.871811  0.189092 -0.602843 0.775129  0.000000 0.000000 0
  phy
0  -26.892422 89.207970 65.606567  0.824785 0.042174 -0.563872  0.000000 0.000000 0
0  -28.998135 96.912384 61.838432  0.886853 0.001434 -0.462050  0.000000 0.000000 0
0  -27.374331 88.228844 64.931534  0.904761 -0.043664 -0.423675  0.000000 0.000000 0
  phy
0  -27.374331 88.228844 64.931534  0.904761 -0.043664 -0.423675  0.000000 0.000000 0
0  -28.998135 96.912384 61.838432  0.886853 0.001434 -0.462050  0.000000 0.000000 0
0  -26.824209 82.923409 64.871811  0.189092 -0.602843 0.775129  0.000000 0.000000 0
  phy
0  29.001202 96.910728 61.842274  -0.907262 -0.019457 -0.420115  0.000000 0.000000 0
0  29.785923 101.146172 60.283417  -0.897303 0.021558 -0.440889  0.000000 0.000000 0
0  29.589533 100.160110 60.714828  -0.834223 0.047663 -0.549363  0.000000 0.000000 0
  phy
0  29.001202 96.910728 61.842274  -0.907262 -0.019457 -0.420115  0.000000 0.000000 0
0  26.811897 83.098526 65.088768  -0.912767 -0.309708 0.266341  0.000000 0.000000 0
0  29.785923 101.146172 60.283417  -0.897303 0.021558 -0.440889  0.000000 0.000000 0
  phy
0  17.797068 94.212456 70.614349  -0.200625 0.253514 -0.946298  0.000000 0.000000 0
0  15.418296 94.505577 70.945610  -0.072792 -0.220508 -0.972665  0.000000 0.000000 0
0  22.008806 93.307755 69.869537  -0.114910 -0.305012 -0.945390  0.000000 0.000000 0
  phy
0  15.418296 94.505577 70.945610  -0.072792 -0.220508 -0.972665  0.000000 0.000000 0
0  14.729024 90.827644 69.499641  -0.056682 -0.379767 -0.923344  0.000000 0.000000 0
0  22.008806 93.307755 69.869537  -0.114910 -0.305012 -0.945390  0.000000 0.000000 0
  phy
0  14.729024 90.827644 69.499641  -0.056682 -0.379767 -0.923344  0.000000 0.000000 0
0  25.215839 86.012413 66.595581  -0.083849 -0.393534 -0.915478  0.000000 0.000000 0
0  22.008806 93.307755 69.869537  -0.114910 -0.305012 -0.945390  0.000000 0.000000 0
  phy
0  25.215839 86.012413 66.595581  -0.083849 -0.393534 -0.915478  0.000000 0.000000 0
0  11.437979 85.509857 67.464806  -0.038232 -0.380240 -0.924097  0.000000 0.000000 0
0  11.341831 82.186005 66.038338  -0.050445 -0.460992 -0.885970  0.000000 0.000000 0
  phy
0  25.215839 86.012413 66.595581  -0.083849 -0.393534 -0.915478  0.000000 0.000000 0
0  14.729024 90.827644 69.499641  -0.056682 -0.379767 -0.923344  0.000000 0.000000 0
0  11.437979 85.509857 67.464806  -0.038232 -0.380240 -0.924097  0.000000 0.000000 0
  phy
0  23.715313 92.101562 69.205399  -0.276582 -0.237466 -0.931189  0.000000 0.000000 0
0  22.008806 93.307755 69.869537  -0.114910 -0.305012 -0.945390  0.000000 0.000000 0
0  25.215839 86.012413 66.595581  -0.083849 -0.393534 -0.915478  0.000000 0.000000 0
  phy
0  25.215839 86.012413 66.595581  -0.083849 -0.393534 -0.915478  0.000000 0.000000 0
0  25.573231 88.754486 67.543266  -0.668536 -0.130866 -0.732075  0.000000 0.000000 0
0  23.715313 92.101562 69.205399  -0.276582 -0.237466 -0.931189  0.000000 0.000000 0
  phy
0  26.811897 83.098526 65.088768  -0.912767 -0.309708 0.266341  0.000000 0.000000 0
0  25.573231 88.754486 67.543266  -0.668536 -0.130866 -0.732075  0.000000 0.000000 0
0  25.215839 86.012413 66.595581  -0.083849 -0.393534 -0.915478  0.000000 0.000000 0
  phy
0  25.614325 82.798874 65.058365  -0.004233 -0.588651 0.808376  0.000000 0.000000 0
0  26.811897 83.098526 65.088768  -0.912767 -0.309708 0.266341  0.000000 0.000000 0
0  25.215839 86.012413 66.595581  -0.083849 -0.393534 -0.915478  0.000000 0.000000 0
  phy
0  25.215839 86.012413 66.595581  -0.083849 -0.393534 -0.915478  0.000000 0.000000 0
0  11.341831 82.186005 66.038338  -0.050445 -0.460992 -0.885970  0.000000 0.000000 0
0  25.614325 82.798874 65.058365  -0.004233 -0.588651 0.808376  0.000000 0.000000 0
  phy
0  10.546299 116.913109 56.813713  -0.092743 0.771375 -0.629587  0.000000 0.000000 0
0  10.546174 117.354889 56.130817  -0.093984 0.854786 -0.510399  0.000000 0.000000 0
0  -0.007788 117.886009 56.448509  -0.000075 0.860333 -0.509732  0.000000 0.000000 0
  phy
0  10.546299 116.913109 56.813713  -0.092743 0.771375 -0.629587  0.000000 0.000000 0
0  -0.007788 117.886009 56.448509  -0.000075 0.860333 -0.509732  0.000000 0.000000 0
0  0.005393 117.426201 57.108826  -0.000108 0.785681 -0.618631  0.000000 0.000000 0
  phy
0  3.732256 115.253716 59.523293  -0.063649 0.758759 -0.648254  0.000000 0.000000 0
0  10.546299 116.913109 56.813713  -0.092743 0.771375 -0.629587  0.000000 0.000000 0
0  0.005393 117.426201 57.108826  -0.000108 0.785681 -0.618631  0.000000 0.000000 0
  phy
0  10.546174 117.354889 56.130817  -0.093984 0.854786 -0.510399  0.000000 0.000000 0
0  10.546299 116.913109 56.813713  -0.092743 0.771375 -0.629587  0.000000 0.000000 0
0  17.214264 116.534492 55.628056  -0.148720 0.831730 -0.534891  0.000000 0.000000 0
  phy
0  10.546299 116.913109 56.813713  -0.092743 0.771375 -0.629587  0.000000 0.000000 0
0  17.499578 116.006897 56.290985  -0.147982 0.734966 -0.661760  0.000000 0.000000 0
0  17.214264 116.534492 55.628056  -0.148720 0.831730 -0.534891  0.000000 0.000000 0
  phy
0  3.732256 115.253716 59.523293  -0.063649 0.758759 -0.648254  0.000000 0.000000 0
0  -0.004952 115.276077 59.649231  -0.000360 0.751665 -0.659545  0.000000 0.000000 0
0  3.223435 114.747444 60.124153  -0.089933 0.650651 -0.754033  0.000000 0.000000 0
  phy
0  -0.004952 115.276077 59.649231  -0.000360 0.751665 -0.659545  0.000000 0.000000 0
0  3.732256 115.253716 59.523293  -0.063649 0.758759 -0.648254  0.000000 0.000000 0
0  0.005393 117.426201 57.108826  -0.000108 0.785681 -0.618631  0.000000 0.000000 0
  phy
0  17.823845 95.222183 70.243637  -0.204998 0.504106 -0.838959  0.000000 0.000000 0
0  15.418296 94.505577 70.945610  -0.072792 -0.220508 -0.972665  0.000000 0.000000 0
0  17.797068 94.212456 70.614349  -0.200625 0.253514 -0.946298  0.000000 0.000000 0
  phy
0  17.797068 94.212456 70.614349  -0.200625 0.253514 -0.946298  0.000000 0.000000 0
0  22.008806 93.307755 69.869537  -0.114910 -0.305012 -0.945390  0.000000 0.000000 0
0  17.823845 95.222183 70.243637  -0.204998 0.504106 -0.838959  0.000000 0.000000 0
  phy
0  -17.820061 95.219948 70.241455  0.204998 0.508864 -0.836082  0.000000 0.000000 0
0  -25.514957 111.844070 58.079525  0.264635 0.493807 -0.828325  0.000000 0.000000 0
0  -22.185558 94.214348 69.483841  0.342728 0.447409 -0.826052  0.000000 0.000000 0
  phy
0  -11.777040 96.132774 70.925865  0.157279 0.510292 -0.845497  0.000000 0.000000 0
0  -18.272432 113.278488 58.924995  0.179990 0.521727 -0.833909  0.000000 0.000000 0
0  -17.820061 95.219948 70.241455  0.204998 0.508864 -0.836082  0.000000 0.000000 0
  phy
0  -17.820061 95.219948 70.241455  0.204998 0.508864 -0.836082  0.000000 0.000000 0
0  -18.272432 113.278488 58.924995  0.179990 0.521727 -0.833909  0.000000 0.000000 0
0  -25.514957 111.844070 58.079525  0.264635 0.493807 -0.828325  0.000000 0.000000 0
  phy
0  6.070595 95.878960 71.718735  -0.032340 -0.294506 -0.955102  0.000000 0.000000 0
0  14.729024 90.827644 69.499641  -0.056682 -0.379767 -0.923344  0.000000 0.000000 0
0  15.418296 94.505577 70.945610  -0.072792 -0.220508 -0.972665  0.000000 0.000000 0
  phy
0  6.070595 95.878960 71.718735  -0.032340 -0.294506 -0.955102  0.000000 0.000000 0
0  11.437979 85.509857 67.464806  -0.038232 -0.380240 -0.924097  0.000000 0.000000 0
0  14.729024 90.827644 69.499641  -0.056682 -0.379767 -0.923344  0.000000 0.000000 0
  phy
0  6.070595 95.878960 71.718735  -0.032340 -0.294506 -0.955102  0.000000 0.000000 0
0  2.291410 95.943398 71.836044  -0.009843 -0.353347 -0.935441  0.000000 0.000000 0
0  11.437979 85.509857 67.464806  -0.038232 -0.380240 -0.924097  0.000000 0.000000 0
  phy
0  2.291410 95.943398 71.836044  -0.009843 -0.353347 -0.935441  0.000000 0.000000 0
0  -0.001544 85.379608 67.690491  0.002001 -0.381549 -0.924347  0.000000 0.000000 0
0  11.437979 85.509857 67.464806  -0.038232 -0.380240 -0.924097  0.000000 0.000000 0
  phy
0  6.070595 95.878960 71.718735  -0.032340 -0.294506 -0.955102  0.000000 0.000000 0
0  6.068905 96.626282 71.307373  -0.079140 0.500484 -0.862121  0.000000 0.000000 0
0  2.291410 95.943398 71.836044  -0.009843 -0.353347 -0.935441  0.000000 0.000000 0
  phy
0  6.070595 95.878960 71.718735  -0.032340 -0.294506 -0.955102  0.000000 0.000000 0
0  11.782545 96.129471 70.926506  -0.141796 0.518981 -0.842943  0.000000 0.000000 0
0  6.068905 96.626282 71.307373  -0.079140 0.500484 -0.862121  0.000000 0.000000 0
  phy
0  15.418296 94.505577 70.945610  -0.072792 -0.220508 -0.972665  0.000000 0.000000 0
0  11.782545 96.129471 70.926506  -0.141796 0.518981 -0.842943  0.000000 0.000000 0
0  6.070595 95.878960 71.718735  -0.032340 -0.294506 -0.955102  0.000000 0.000000 0
  phy
0  1.085913 105.102119 66.833702  -0.034432 0.491942 -0.869947  0.000000 0.000000 0
0  0.394960 111.535515 63.071236  -0.127838 0.535990 -0.834489  0.000000 0.000000 0
0  -0.644260 111.247780 63.366592  -0.030905 0.559287 -0.828398  0.000000 0.000000 0
  phy
0  1.085913 105.102119 66.833702  -0.034432 0.491942 -0.869947  0.000000 0.000000 0
0  6.068905 96.626282 71.307373  -0.079140 0.500484 -0.862121  0.000000 0.000000 0
0  0.394960 111.535515 63.071236  -0.127838 0.535990 -0.834489  0.000000 0.000000 0
  phy
0  6.068905 96.626282 71.307373  -0.079140 0.500484 -0.862121  0.000000 0.000000 0
0  11.782545 96.129471 70.926506  -0.141796 0.518981 -0.842943  0.000000 0.000000 0
0  0.394960 111.535515 63.071236  -0.127838 0.535990 -0.834489  0.000000 0.000000 0
  phy
0  1.085913 105.102119 66.833702  -0.034432 0.491942 -0.869947  0.000000 0.000000 0
0  -0.644260 111.247780 63.366592  -0.030905 0.559287 -0.828398  0.000000 0.000000 0
0  -2.177416 111.450439 63.224739  0.014681 0.530891 -0.847313  0.000000 0.000000 0
  phy
0  -2.764940 111.410187 63.234959  0.109417 0.558420 -0.822311  0.000000 0.000000 0
0  -18.272432 113.278488 58.924995  0.179990 0.521727 -0.833909  0.000000 0.000000 0
0  -3.562126 111.094894 63.322208  0.169634 0.521112 -0.836461  0.000000 0.000000 0
  phy
0  -2.764940 111.410187 63.234959  0.109417 0.558420 -0.822311  0.000000 0.000000 0
0  -3.562126 111.094894 63.322208  0.169634 0.521112 -0.836461  0.000000 0.000000 0
0  -11.777040 96.132774 70.925865  0.157279 0.510292 -0.845497  0.000000 0.000000 0
  phy
0  -3.468106 106.248932 66.104469  0.033280 0.485191 -0.873775  0.000000 0.000000 0
0  -2.177416 111.450439 63.224739  0.014681 0.530891 -0.847313  0.000000 0.000000 0
0  -2.764940 111.410187 63.234959  0.109417 0.558420 -0.822311  0.000000 0.000000 0
  phy
0  -25.583733 114.928871 54.663868  0.275350 0.802584 -0.529189  0.000000 0.000000 0
0  -25.807133 115.788223 53.175823  0.268586 0.821122 -0.503607  0.000000 0.000000 0
0  -31.047184 113.164703 53.645325  0.428680 0.744149 -0.512324  0.000000 0.000000 0
  phy
0  -25.807133 115.788223 53.175823  0.268586 0.821122 -0.503607  0.000000 0.000000 0
0  -25.650951 117.454941 50.510273  0.298174 0.823008 -0.483478  0.000000 0.000000 0
0  -31.047184 113.164703 53.645325  0.428680 0.744149 -0.512324  0.000000 0.000000 0
  phy
0  -25.807133 115.788223 53.175823  0.268586 0.821122 -0.503607  0.000000 0.000000 0
0  -25.583733 114.928871 54.663868  0.275350 0.802584 -0.529189  0.000000 0.000000 0
0  -18.814348 116.504982 55.207741  0.208764 0.829095 -0.518671  0.000000 0.000000 0
  phy
0  -25.807133 115.788223 53.175823  0.268586 0.821122 -0.503607  0.000000 0.000000 0
0  -18.814348 116.504982 55.207741  0.208764 0.829095 -0.518671  0.000000 0.000000 0
0  -18.620239 118.926788 51.344242  0.194693 0.851973 -0.486042  0.000000 0.000000 0
  phy
0  -25.650951 117.454941 50.510273  0.298174 0.823008 -0.483478  0.000000 0.000000 0
0  -25.807133 115.788223 53.175823  0.268586 0.821122 -0.503607  0.000000 0.000000 0
0  -18.620239 118.926788 51.344242  0.194693 0.851973 -0.486042  0.000000 0.000000 0
  phy
0  -18.814348 116.504982 55.207741  0.208764 0.829095 -0.518671  0.000000 0.000000 0
0  -25.583733 114.928871 54.663868  0.275350 0.802584 -0.529189  0.000000 0.000000 0
0  -18.981386 115.794685 56.166962  0.216565 0.735212 -0.642311  0.000000 0.000000 0
  phy
0  -18.981386 115.794685 56.166962  0.216565 0.735212 -0.642311  0.000000 0.000000 0
0  -25.583733 114.928871 54.663868  0.275350 0.802584 -0.529189  0.000000 0.000000 0
0  -25.569981 114.435432 55.380100  0.288762 0.721204 -0.629667  0.000000 0.000000 0
  phy
0  -25.583733 114.928871 54.663868  0.275350 0.802584 -0.529189  0.000000 0.000000 0
0  -31.047184 113.164703 53.645325  0.428680 0.744149 -0.512324  0.000000 0.000000 0
0  -25.569981 114.435432 55.380100  0.288762 0.721204 -0.629667  0.000000 0.000000 0
  phy
0  -30.261841 121.357925 40.114769  0.967790 0.115247 0.223832  0.000000 0.000000 0
0  -30.895458 117.620537 45.982613  0.981774 0.181322 -0.056949  0.000000 0.000000 0
0  -29.849009 122.265854 39.337872  0.435064 0.806650 -0.400044  0.000000 0.000000 0
  phy
0  -30.895458 117.620537 45.982613  0.981774 0.181322 -0.056949  0.000000 0.000000 0
0  -31.047184 113.164703 53.645325  0.428680 0.744149 -0.512324  0.000000 0.000000 0
0  -29.849009 122.265854 39.337872  0.435064 0.806650 -0.400044  0.000000 0.000000 0
  phy
0  -31.047184 113.164703 53.645325  0.428680 0.744149 -0.512324  0.000000 0.000000 0
0  -30.895458 117.620537 45.982613  0.981774 0.181322 -0.056949  0.000000 0.000000 0
0  -31.253481 109.792397 56.814968  0.961446 0.046400 -0.271051  0.000000 0.000000 0
  phy
0  -30.895458 117.620537 45.982613  0.981774 0.181322 -0.056949  0.000000 0.000000 0
0  -30.427097 120.064728 40.703087  0.926973 -0.260707 0.269729  0.000000 0.000000 0
0  -31.253481 109.792397 56.814968  0.961446 0.046400 -0.271051  0.000000 0.000000 0
  phy
0  -30.895458 117.620537 45.982613  0.981774 0.181322 -0.056949  0.000000 0.000000 0
0  -30.261841 121.357925 40.114769  0.967790 0.115247 0.223832  0.000000 0.000000 0
0  -30.427097 120.064728 40.703087  0.926973 -0.260707 0.269729  0.000000 0.000000 0
  phy
0  -23.713459 92.103951 69.202911  0.343977 -0.079984 -0.935565  0.000000 0.000000 0
0  -24.869595 90.861656 68.326675  0.707519 0.077470 -0.702435  0.000000 0.000000 0
0  -24.594324 90.558640 68.531540  0.492132 -0.211414 -0.844459  0.000000 0.000000 0
  phy
0  -23.713459 92.103951 69.202911  0.343977 -0.079984 -0.935565  0.000000 0.000000 0
0  -21.163664 93.467690 70.040092  0.190326 -0.112726 -0.975228  0.000000 0.000000 0
0  -22.185558 94.214348 69.483841  0.342728 0.447409 -0.826052  0.000000 0.000000 0
  phy
0  -25.213896 86.014282 66.592789  0.082264 -0.413565 -0.906751  0.000000 0.000000 0
0  -26.824209 82.923409 64.871811  0.189092 -0.602843 0.775129  0.000000 0.000000 0
0  -11.340596 82.186974 66.037056  0.059140 -0.454079 -0.888996  0.000000 0.000000 0
  phy
0  -26.824209 82.923409 64.871811  0.189092 -0.602843 0.775129  0.000000 0.000000 0
0  -29.782152 101.149178 60.280357  0.986181 -0.135325 -0.095571  0.000000 0.000000 0
0  -31.253481 109.792397 56.814968  0.961446 0.046400 -0.271051  0.000000 0.000000 0
  phy
0  -25.829641 124.282272 38.545494  0.179246 0.977309 0.112866  0.000000 0.000000 0
0  25.838104 124.279671 38.548203  -0.135030 0.774133 0.618454  0.000000 0.000000 0
0  -27.642540 123.688332 38.464962  0.131298 0.441158 0.887773  0.000000 0.000000 0
  phy
0  -27.642540 123.688332 38.464962  0.131298 0.441158 0.887773  0.000000 0.000000 0
0  25.838104 124.279671 38.548203  -0.135030 0.774133 0.618454  0.000000 0.000000 0
0  -27.949497 121.009979 38.102314  0.009881 -0.107816 0.994122  0.000000 0.000000 0
  phy
0  -27.949497 121.009979 38.102314  0.009881 -0.107816 0.994122  0.000000 0.000000 0
0  25.838104 124.279671 38.548203  -0.135030 0.774133 0.618454  0.000000 0.000000 0
0  27.957556 121.007240 38.105259  -0.013023 -0.254006 0.967115  0.000000 0.000000 0
  phy
0  -25.829641 124.282272 38.545494  0.179246 0.977309 0.112866  0.000000 0.000000 0
0  -27.642540 123.688332 38.464962  0.131298 0.441158 0.887773  0.000000 0.000000 0
0  -25.650951 117.454941 50.510273  0.298174 0.823008 -0.483478  0.000000 0.000000 0
  phy
0  -25.650951 117.454941 50.510273  0.298174 0.823008 -0.483478  0.000000 0.000000 0
0  -27.642540 123.688332 38.464962  0.131298 0.441158 0.887773  0.000000 0.000000 0
0  -29.849009 122.265854 39.337872  0.435064 0.806650 -0.400044  0.000000 0.000000 0
  phy
0  -27.642540 123.688332 38.464962  0.131298 0.441158 0.887773  0.000000 0.000000 0
0  -27.949497 121.009979 38.102314  0.009881 -0.107816 0.994122  0.000000 0.000000 0
0  -29.849009 122.265854 39.337872  0.435064 0.806650 -0.400044  0.000000 0.000000 0
  phy
0  25.587975 115.231865 54.191338  -0.267526 0.820860 -0.504597  0.000000 0.000000 0
0  25.646812 114.787506 54.843067  -0.288413 0.788585 -0.543095  0.000000 0.000000 0
0  31.039515 113.491302 53.187374  -0.384077 0.786213 -0.484102  0.000000 0.000000 0
  phy
0  25.657196 117.451225 50.512749  -0.281093 0.826248 -0.488160  0.000000 0.000000 0
0  25.587975 115.231865 54.191338  -0.267526 0.820860 -0.504597  0.000000 0.000000 0
0  31.039515 113.491302 53.187374  -0.384077 0.786213 -0.484102  0.000000 0.000000 0
  phy
0  25.646812 114.787506 54.843067  -0.288413 0.788585 -0.543095  0.000000 0.000000 0
0  25.587975 115.231865 54.191338  -0.267526 0.820860 -0.504597  0.000000 0.000000 0
0  18.820663 116.503258 55.209274  -0.217744 0.824128 -0.522877  0.000000 0.000000 0
  phy
0  25.587975 115.231865 54.191338  -0.267526 0.820860 -0.504597  0.000000 0.000000 0
0  25.657196 117.451225 50.512749  -0.281093 0.826248 -0.488160  0.000000 0.000000 0
0  18.624798 118.924538 51.348007  -0.186642 0.851813 -0.489468  0.000000 0.000000 0
  phy
0  18.820663 116.503258 55.209274  -0.217744 0.824128 -0.522877  0.000000 0.000000 0
0  25.587975 115.231865 54.191338  -0.267526 0.820860 -0.504597  0.000000 0.000000 0
0  18.624798 118.924538 51.348007  -0.186642 0.851813 -0.489468  0.000000 0.000000 0
  phy
0  25.646812 114.787506 54.843067  -0.288413 0.788585 -0.543095  0.000000 0.000000 0
0  31.067638 112.644630 54.350784  -0.392647 0.669103 -0.630975  0.000000 0.000000 0
0  31.039515 113.491302 53.187374  -0.384077 0.786213 -0.484102  0.000000 0.000000 0
  phy
0  31.067638 112.644630 54.350784  -0.392647 0.669103 -0.630975  0.000000 0.000000 0
0  25.646812 114.787506 54.843067  -0.288413 0.788585 -0.543095  0.000000 0.000000 0
0  25.575447 114.432922 55.383091  -0.282713 0.718093 -0.635937  0.000000 0.000000 0
  phy
0  25.646812 114.787506 54.843067  -0.288413 0.788585 -0.543095  0.000000 0.000000 0
0  18.820663 116.503258 55.209274  -0.217744 0.824128 -0.522877  0.000000 0.000000 0
0  18.980108 115.792358 56.167164  -0.217334 0.731893 -0.645832  0.000000 0.000000 0
  phy
0  25.646812 114.787506 54.843067  -0.288413 0.788585 -0.543095  0.000000 0.000000 0
0  18.980108 115.792358 56.167164  -0.217334 0.731893 -0.645832  0.000000 0.000000 0
0  25.575447 114.432922 55.383091  -0.282713 0.718093 -0.635937  0.000000 0.000000 0
  phy
0  27.376488 88.227074 64.933449  -0.886602 -0.051242 -0.459686  0.000000 0.000000 0
0  26.811897 83.098526 65.088768  -0.912767 -0.309708 0.266341  0.000000 0.000000 0
0  29.001202 96.910728 61.842274  -0.907262 -0.019457 -0.420115  0.000000 0.000000 0
  phy
0  24.871599 90.859634 68.328896  -0.690227 0.050894 -0.721801  0.000000 0.000000 0
0  25.573231 88.754486 67.543266  -0.668536 -0.130866 -0.732075  0.000000 0.000000 0
0  25.284472 91.944321 67.716225  -0.766128 0.120008 -0.631383  0.000000 0.000000 0
  phy
0  23.715313 92.101562 69.205399  -0.276582 -0.237466 -0.931189  0.000000 0.000000 0
0  25.573231 88.754486 67.543266  -0.668536 -0.130866 -0.732075  0.000000 0.000000 0
0  24.871599 90.859634 68.328896  -0.690227 0.050894 -0.721801  0.000000 0.000000 0
  phy
0  25.284472 91.944321 67.716225  -0.766128 0.120008 -0.631383  0.000000 0.000000 0
0  23.977018 93.269707 68.751137  -0.614987 0.256068 -0.745802  0.000000 0.000000 0
0  24.871599 90.859634 68.328896  -0.690227 0.050894 -0.721801  0.000000 0.000000 0
  phy
0  24.871599 90.859634 68.328896  -0.690227 0.050894 -0.721801  0.000000 0.000000 0
0  23.977018 93.269707 68.751137  -0.614987 0.256068 -0.745802  0.000000 0.000000 0
0  23.715313 92.101562 69.205399  -0.276582 -0.237466 -0.931189  0.000000 0.000000 0
  phy
0  31.136280 115.632790 49.447323  -0.792436 0.539494 -0.284591  0.000000 0.000000 0
0  31.300745 111.828011 54.499432  -0.963843 -0.204220 0.171175  0.000000 0.000000 0
0  30.764839 118.233932 44.037304  -0.959567 -0.210619 0.186736  0.000000 0.000000 0
  phy
0  31.136280 115.632790 49.447323  -0.792436 0.539494 -0.284591  0.000000 0.000000 0
0  31.039515 113.491302 53.187374  -0.384077 0.786213 -0.484102  0.000000 0.000000 0
0  31.300745 111.828011 54.499432  -0.963843 -0.204220 0.171175  0.000000 0.000000 0
  phy
0  30.764839 118.233932 44.037304  -0.959567 -0.210619 0.186736  0.000000 0.000000 0
0  30.269772 121.354828 40.118092  -0.974925 0.193475 0.109946  0.000000 0.000000 0
0  31.136280 115.632790 49.447323  -0.792436 0.539494 -0.284591  0.000000 0.000000 0
  phy
0  31.136280 115.632790 49.447323  -0.792436 0.539494 -0.284591  0.000000 0.000000 0
0  29.856934 122.264923 39.340118  -0.783570 0.619434 0.048165  0.000000 0.000000 0
0  29.034613 122.911049 39.074841  -0.381153 0.853037 -0.356441  0.000000 0.000000 0
  phy
0  31.039515 113.491302 53.187374  -0.384077 0.786213 -0.484102  0.000000 0.000000 0
0  31.136280 115.632790 49.447323  -0.792436 0.539494 -0.284591  0.000000 0.000000 0
0  29.034613 122.911049 39.074841  -0.381153 0.853037 -0.356441  0.000000 0.000000 0
  phy
0  30.269772 121.354828 40.118092  -0.974925 0.193475 0.109946  0.000000 0.000000 0
0  29.856934 122.264923 39.340118  -0.783570 0.619434 0.048165  0.000000 0.000000 0
0  31.136280 115.632790 49.447323  -0.792436 0.539494 -0.284591  0.000000 0.000000 0
  phy
0  -11.340596 82.186974 66.037056  0.059140 -0.454079 -0.888996  0.000000 0.000000 0
0  -0.001544 85.379608 67.690491  0.002001 -0.381549 -0.924347  0.000000 0.000000 0
0  -11.436329 85.511246 67.463669  0.039453 -0.376760 -0.925470  0.000000 0.000000 0
  phy
0  30.764839 118.233932 44.037304  -0.959567 -0.210619 0.186736  0.000000 0.000000 0
0  30.434782 120.061699 40.706299  -0.845848 -0.343082 0.408455  0.000000 0.000000 0
0  30.269772 121.354828 40.118092  -0.974925 0.193475 0.109946  0.000000 0.000000 0
  phy
0  31.300745 111.828011 54.499432  -0.963843 -0.204220 0.171175  0.000000 0.000000 0
0  26.811897 83.098526 65.088768  -0.912767 -0.309708 0.266341  0.000000 0.000000 0
0  30.764839 118.233932 44.037304  -0.959567 -0.210619 0.186736  0.000000 0.000000 0
  phy
0  26.811897 83.098526 65.088768  -0.912767 -0.309708 0.266341  0.000000 0.000000 0
0  30.434782 120.061699 40.706299  -0.845848 -0.343082 0.408455  0.000000 0.000000 0
0  30.764839 118.233932 44.037304  -0.959567 -0.210619 0.186736  0.000000 0.000000 0
  phy
0  10.553896 114.266853 59.525906  -0.133871 0.566702 -0.812975  0.000000 0.000000 0
0  18.279800 113.276985 58.926991  -0.161302 0.528090 -0.833728  0.000000 0.000000 0
0  18.197662 113.627083 58.681309  -0.176335 0.697921 -0.694127  0.000000 0.000000 0
  phy
0  18.980108 115.792358 56.167164  -0.217334 0.731893 -0.645832  0.000000 0.000000 0
0  18.197662 113.627083 58.681309  -0.176335 0.697921 -0.694127  0.000000 0.000000 0
0  25.519825 112.195969 57.826267  -0.286504 0.675224 -0.679697  0.000000 0.000000 0
  phy
0  18.197662 113.627083 58.681309  -0.176335 0.697921 -0.694127  0.000000 0.000000 0
0  18.279800 113.276985 58.926991  -0.161302 0.528090 -0.833728  0.000000 0.000000 0
0  25.519825 112.195969 57.826267  -0.286504 0.675224 -0.679697  0.000000 0.000000 0
  phy
0  17.499578 116.006897 56.290985  -0.147982 0.734966 -0.661760  0.000000 0.000000 0
0  18.197662 113.627083 58.681309  -0.176335 0.697921 -0.694127  0.000000 0.000000 0
0  18.980108 115.792358 56.167164  -0.217334 0.731893 -0.645832  0.000000 0.000000 0
  phy
0  18.624798 118.924538 51.348007  -0.186642 0.851813 -0.489468  0.000000 0.000000 0
0  10.546174 117.354889 56.130817  -0.093984 0.854786 -0.510399  0.000000 0.000000 0
0  14.796318 117.367043 54.980480  -0.142846 0.843407 -0.517938  0.000000 0.000000 0
  phy
0  10.546174 117.354889 56.130817  -0.093984 0.854786 -0.510399  0.000000 0.000000 0
0  18.624798 118.924538 51.348007  -0.186642 0.851813 -0.489468  0.000000 0.000000 0
0  10.548143 126.765091 40.299980  -0.108725 0.876370 -0.469206  0.000000 0.000000 0
  phy
0  -0.007788 117.886009 56.448509  -0.000075 0.860333 -0.509732  0.000000 0.000000 0
0  10.546174 117.354889 56.130817  -0.093984 0.854786 -0.510399  0.000000 0.000000 0
0  10.548143 126.765091 40.299980  -0.108725 0.876370 -0.469206  0.000000 0.000000 0
  phy
0  14.796318 117.367043 54.980480  -0.142846 0.843407 -0.517938  0.000000 0.000000 0
0  10.546174 117.354889 56.130817  -0.093984 0.854786 -0.510399  0.000000 0.000000 0
0  17.214264 116.534492 55.628056  -0.148720 0.831730 -0.534891  0.000000 0.000000 0
  phy
0  17.823845 95.222183 70.243637  -0.204998 0.504106 -0.838959  0.000000 0.000000 0
0  22.008806 93.307755 69.869537  -0.114910 -0.305012 -0.945390  0.000000 0.000000 0
0  22.187735 94.212173 69.486153  -0.342926 0.452015 -0.823459  0.000000 0.000000 0
  phy
0  25.519756 111.841370 58.082436  -0.264842 0.493790 -0.828269  0.000000 0.000000 0
0  18.279800 113.276985 58.926991  -0.161302 0.528090 -0.833728  0.000000 0.000000 0
0  17.823845 95.222183 70.243637  -0.204998 0.504106 -0.838959  0.000000 0.000000 0
  phy
0  17.823845 95.222183 70.243637  -0.204998 0.504106 -0.838959  0.000000 0.000000 0
0  18.279800 113.276985 58.926991  -0.161302 0.528090 -0.833728  0.000000 0.000000 0
0  11.782545 96.129471 70.926506  -0.141796 0.518981 -0.842943  0.000000 0.000000 0
  phy
0  17.823845 95.222183 70.243637  -0.204998 0.504106 -0.838959  0.000000 0.000000 0
0  11.782545 96.129471 70.926506  -0.141796 0.518981 -0.842943  0.000000 0.000000 0
0  15.418296 94.505577 70.945610  -0.072792 -0.220508 -0.972665  0.000000 0.000000 0
  phy
0  17.823845 95.222183 70.243637  -0.204998 0.504106 -0.838959  0.000000 0.000000 0
0  22.187735 94.212173 69.486153  -0.342926 0.452015 -0.823459  0.000000 0.000000 0
0  25.519756 111.841370 58.082436  -0.264842 0.493790 -0.828269  0.000000 0.000000 0
  phy
0  -3.562126 111.094894 63.322208  0.169634 0.521112 -0.836461  0.000000 0.000000 0
0  -18.272432 113.278488 58.924995  0.179990 0.521727 -0.833909  0.000000 0.000000 0
0  -11.777040 96.132774 70.925865  0.157279 0.510292 -0.845497  0.000000 0.000000 0
  phy
0  -31.047184 113.164703 53.645325  0.428680 0.744149 -0.512324  0.000000 0.000000 0
0  -31.253481 109.792397 56.814968  0.961446 0.046400 -0.271051  0.000000 0.000000 0
0  -25.514893 112.198494 57.823586  0.296137 0.678387 -0.672379  0.000000 0.000000 0
  phy
0  -25.514893 112.198494 57.823586  0.296137 0.678387 -0.672379  0.000000 0.000000 0
0  -31.253481 109.792397 56.814968  0.961446 0.046400 -0.271051  0.000000 0.000000 0
0  -25.514957 111.844070 58.079525  0.264635 0.493807 -0.828325  0.000000 0.000000 0
  phy
0  -25.514957 111.844070 58.079525  0.264635 0.493807 -0.828325  0.000000 0.000000 0
0  -18.272432 113.278488 58.924995  0.179990 0.521727 -0.833909  0.000000 0.000000 0
0  -25.514893 112.198494 57.823586  0.296137 0.678387 -0.672379  0.000000 0.000000 0
  phy
0  -31.047184 113.164703 53.645325  0.428680 0.744149 -0.512324  0.000000 0.000000 0
0  -25.514893 112.198494 57.823586  0.296137 0.678387 -0.672379  0.000000 0.000000 0
0  -25.569981 114.435432 55.380100  0.288762 0.721204 -0.629667  0.000000 0.000000 0
  phy
0  -25.514893 112.198494 57.823586  0.296137 0.678387 -0.672379  0.000000 0.000000 0
0  -18.981386 115.794685 56.166962  0.216565 0.735212 -0.642311  0.000000 0.000000 0
0  -25.569981 114.435432 55.380100  0.288762 0.721204 -0.629667  0.000000 0.000000 0
  phy
0  -18.620239 118.926788 51.344242  0.194693 0.851973 -0.486042  0.000000 0.000000 0
0  -18.814348 116.504982 55.207741  0.208764 0.829095 -0.518671  0.000000 0.000000 0
0  -14.793117 117.372375 54.977867  0.136633 0.849461 -0.509655  0.000000 0.000000 0
  phy
0  -14.793117 117.372375 54.977867  0.136633 0.849461 -0.509655  0.000000 0.000000 0
0  -18.814348 116.504982 55.207741  0.208764 0.829095 -0.518671  0.000000 0.000000 0
0  -17.218111 116.535248 55.624435  0.148633 0.819952 -0.552799  0.000000 0.000000 0
  phy
0  -18.814348 116.504982 55.207741  0.208764 0.829095 -0.518671  0.000000 0.000000 0
0  -18.981386 115.794685 56.166962  0.216565 0.735212 -0.642311  0.000000 0.000000 0
0  -17.218111 116.535248 55.624435  0.148633 0.819952 -0.552799  0.000000 0.000000 0
  phy
0  -30.261841 121.357925 40.114769  0.967790 0.115247 0.223832  0.000000 0.000000 0
0  -29.849009 122.265854 39.337872  0.435064 0.806650 -0.400044  0.000000 0.000000 0
0  -28.926785 120.047874 38.722794  0.651185 -0.266719 0.710506  0.000000 0.000000 0
  phy
0  -30.427097 120.064728 40.703087  0.926973 -0.260707 0.269729  0.000000 0.000000 0
0  -30.261841 121.357925 40.114769  0.967790 0.115247 0.223832  0.000000 0.000000 0
0  -28.926785 120.047874 38.722794  0.651185 -0.266719 0.710506  0.000000 0.000000 0
  phy
0  25.838104 124.279671 38.548203  -0.135030 0.774133 0.618454  0.000000 0.000000 0
0  -25.829641 124.282272 38.545494  0.179246 0.977309 0.112866  0.000000 0.000000 0
0  0.004103 127.354813 40.242062  -0.000037 0.999903 -0.013940  0.000000 0.000000 0
  phy
0  -25.829641 124.282272 38.545494  0.179246 0.977309 0.112866  0.000000 0.000000 0
0  -25.650951 117.454941 50.510273  0.298174 0.823008 -0.483478  0.000000 0.000000 0
0  -18.620239 118.926788 51.344242  0.194693 0.851973 -0.486042  0.000000 0.000000 0
  phy
0  -25.829641 124.282272 38.545494  0.179246 0.977309 0.112866  0.000000 0.000000 0
0  -10.538206 126.766182 40.298679  0.109168 0.876014 -0.469768  0.000000 0.000000 0
0  0.004103 127.354813 40.242062  -0.000037 0.999903 -0.013940  0.000000 0.000000 0
  phy
0  -25.829641 124.282272 38.545494  0.179246 0.977309 0.112866  0.000000 0.000000 0
0  -18.620239 118.926788 51.344242  0.194693 0.851973 -0.486042  0.000000 0.000000 0
0  -10.538206 126.766182 40.298679  0.109168 0.876014 -0.469768  0.000000 0.000000 0
  phy
0  25.657196 117.451225 50.512749  -0.281093 0.826248 -0.488160  0.000000 0.000000 0
0  28.902170 121.532799 41.542072  -0.348475 0.801740 -0.485570  0.000000 0.000000 0
0  29.034613 122.911049 39.074841  -0.381153 0.853037 -0.356441  0.000000 0.000000 0
  phy
0  25.838104 124.279671 38.548203  -0.135030 0.774133 0.618454  0.000000 0.000000 0
0  25.657196 117.451225 50.512749  -0.281093 0.826248 -0.488160  0.000000 0.000000 0
0  29.034613 122.911049 39.074841  -0.381153 0.853037 -0.356441  0.000000 0.000000 0
  phy
0  28.902170 121.532799 41.542072  -0.348475 0.801740 -0.485570  0.000000 0.000000 0
0  25.657196 117.451225 50.512749  -0.281093 0.826248 -0.488160  0.000000 0.000000 0
0  31.039515 113.491302 53.187374  -0.384077 0.786213 -0.484102  0.000000 0.000000 0
  phy
0  25.657196 117.451225 50.512749  -0.281093 0.826248 -0.488160  0.000000 0.000000 0
0  25.838104 124.279671 38.548203  -0.135030 0.774133 0.618454  0.000000 0.000000 0
0  18.624798 118.924538 51.348007  -0.186642 0.851813 -0.489468  0.000000 0.000000 0
  phy
0  28.902170 121.532799 41.542072  -0.348475 0.801740 -0.485570  0.000000 0.000000 0
0  31.039515 113.491302 53.187374  -0.384077 0.786213 -0.484102  0.000000 0.000000 0
0  29.034613 122.911049 39.074841  -0.381153 0.853037 -0.356441  0.000000 0.000000 0
  phy
0  25.614325 82.798874 65.058365  -0.004233 -0.588651 0.808376  0.000000 0.000000 0
0  -26.824209 82.923409 64.871811  0.189092 -0.602843 0.775129  0.000000 0.000000 0
0  -28.752041 118.323631 39.834641  0.013432 -0.576188 0.817207  0.000000 0.000000 0
  phy
0  25.614325 82.798874 65.058365  -0.004233 -0.588651 0.808376  0.000000 0.000000 0
0  -28.752041 118.323631 39.834641  0.013432 -0.576188 0.817207  0.000000 0.000000 0
0  28.934677 120.044975 38.725838  -0.033015 -0.576613 0.816350  0.000000 0.000000 0
  phy
0  26.811897 83.098526 65.088768  -0.912767 -0.309708 0.266341  0.000000 0.000000 0
0  25.614325 82.798874 65.058365  -0.004233 -0.588651 0.808376  0.000000 0.000000 0
0  28.934677 120.044975 38.725838  -0.033015 -0.576613 0.816350  0.000000 0.000000 0
  phy
0  -26.824209 82.923409 64.871811  0.189092 -0.602843 0.775129  0.000000 0.000000 0
0  25.614325 82.798874 65.058365  -0.004233 -0.588651 0.808376  0.000000 0.000000 0
0  0.000669 81.798874 66.020515  0.000141 -0.983333 -0.181815  0.000000 0.000000 0
  phy
0  11.341831 82.186005 66.038338  -0.050445 -0.460992 -0.885970  0.000000 0.000000 0
0  0.000669 81.798874 66.020515  0.000141 -0.983333 -0.181815  0.000000 0.000000 0
0  25.614325 82.798874 65.058365  -0.004233 -0.588651 0.808376  0.000000 0.000000 0
  phy
0  27.376488 88.227074 64.933449  -0.886602 -0.051242 -0.459686  0.000000 0.000000 0
0  25.573231 88.754486 67.543266  -0.668536 -0.130866 -0.732075  0.000000 0.000000 0
0  26.811897 83.098526 65.088768  -0.912767 -0.309708 0.266341  0.000000 0.000000 0
  phy
0  25.284472 91.944321 67.716225  -0.766128 0.120008 -0.631383  0.000000 0.000000 0
0  31.259209 109.789787 56.818924  -0.674233 0.296537 -0.676370  0.000000 0.000000 0
0  23.977018 93.269707 68.751137  -0.614987 0.256068 -0.745802  0.000000 0.000000 0
  phy
0  30.269772 121.354828 40.118092  -0.974925 0.193475 0.109946  0.000000 0.000000 0
0  28.934677 120.044975 38.725838  -0.033015 -0.576613 0.816350  0.000000 0.000000 0
0  29.856934 122.264923 39.340118  -0.783570 0.619434 0.048165  0.000000 0.000000 0
  phy
0  30.434782 120.061699 40.706299  -0.845848 -0.343082 0.408455  0.000000 0.000000 0
0  28.934677 120.044975 38.725838  -0.033015 -0.576613 0.816350  0.000000 0.000000 0
0  30.269772 121.354828 40.118092  -0.974925 0.193475 0.109946  0.000000 0.000000 0
  phy
0  -0.001544 85.379608 67.690491  0.002001 -0.381549 -0.924347  0.000000 0.000000 0
0  11.341831 82.186005 66.038338  -0.050445 -0.460992 -0.885970  0.000000 0.000000 0
0  11.437979 85.509857 67.464806  -0.038232 -0.380240 -0.924097  0.000000 0.000000 0
  phy
0  23.977018 93.269707 68.751137  -0.614987 0.256068 -0.745802  0.000000 0.000000 0
0  22.008806 93.307755 69.869537  -0.114910 -0.305012 -0.945390  0.000000 0.000000 0
0  23.715313 92.101562 69.205399  -0.276582 -0.237466 -0.931189  0.000000 0.000000 0
  phy
0  -11.340596 82.186974 66.037056  0.059140 -0.454079 -0.888996  0.000000 0.000000 0
0  0.000669 81.798874 66.020515  0.000141 -0.983333 -0.181815  0.000000 0.000000 0
0  -0.001544 85.379608 67.690491  0.002001 -0.381549 -0.924347  0.000000 0.000000 0
  phy
0  -26.824209 82.923409 64.871811  0.189092 -0.602843 0.775129  0.000000 0.000000 0
0  0.000669 81.798874 66.020515  0.000141 -0.983333 -0.181815  0.000000 0.000000 0
0  -11.340596 82.186974 66.037056  0.059140 -0.454079 -0.888996  0.000000 0.000000 0
  phy
0  0.394960 111.535515 63.071236  -0.127838 0.535990 -0.834489  0.000000 0.000000 0
0  18.279800 113.276985 58.926991  -0.161302 0.528090 -0.833728  0.000000 0.000000 0
0  10.553896 114.266853 59.525906  -0.133871 0.566702 -0.812975  0.000000 0.000000 0
  phy
0  31.300745 111.828011 54.499432  -0.963843 -0.204220 0.171175  0.000000 0.000000 0
0  31.039515 113.491302 53.187374  -0.384077 0.786213 -0.484102  0.000000 0.000000 0
0  31.067638 112.644630 54.350784  -0.392647 0.669103 -0.630975  0.000000 0.000000 0
  phy
0  31.067638 112.644630 54.350784  -0.392647 0.669103 -0.630975  0.000000 0.000000 0
0  31.259209 109.789787 56.818924  -0.674233 0.296537 -0.676370  0.000000 0.000000 0
0  31.300745 111.828011 54.499432  -0.963843 -0.204220 0.171175  0.000000 0.000000 0
  phy
0  25.519825 112.195969 57.826267  -0.286504 0.675224 -0.679697  0.000000 0.000000 0
0  31.259209 109.789787 56.818924  -0.674233 0.296537 -0.676370  0.000000 0.000000 0
0  31.067638 112.644630 54.350784  -0.392647 0.669103 -0.630975  0.000000 0.000000 0
  phy
0  25.519825 112.195969 57.826267  -0.286504 0.675224 -0.679697  0.000000 0.000000 0
0  31.067638 112.644630 54.350784  -0.392647 0.669103 -0.630975  0.000000 0.000000 0
0  25.575447 114.432922 55.383091  -0.282713 0.718093 -0.635937  0.000000 0.000000 0
  phy
0  31.300745 111.828011 54.499432  -0.963843 -0.204220 0.171175  0.000000 0.000000 0
0  31.259209 109.789787 56.818924  -0.674233 0.296537 -0.676370  0.000000 0.000000 0
0  26.811897 83.098526 65.088768  -0.912767 -0.309708 0.266341  0.000000 0.000000 0
  phy
0  18.820663 116.503258 55.209274  -0.217744 0.824128 -0.522877  0.000000 0.000000 0
0  17.499578 116.006897 56.290985  -0.147982 0.734966 -0.661760  0.000000 0.000000 0
0  18.980108 115.792358 56.167164  -0.217334 0.731893 -0.645832  0.000000 0.000000 0
  phy
0  17.499578 116.006897 56.290985  -0.147982 0.734966 -0.661760  0.000000 0.000000 0
0  18.820663 116.503258 55.209274  -0.217744 0.824128 -0.522877  0.000000 0.000000 0
0  17.214264 116.534492 55.628056  -0.148720 0.831730 -0.534891  0.000000 0.000000 0
  phy
0  18.820663 116.503258 55.209274  -0.217744 0.824128 -0.522877  0.000000 0.000000 0
0  18.624798 118.924538 51.348007  -0.186642 0.851813 -0.489468  0.000000 0.000000 0
0  17.214264 116.534492 55.628056  -0.148720 0.831730 -0.534891  0.000000 0.000000 0
  phy
0  25.519756 111.841370 58.082436  -0.264842 0.493790 -0.828269  0.000000 0.000000 0
0  31.259209 109.789787 56.818924  -0.674233 0.296537 -0.676370  0.000000 0.000000 0
0  25.519825 112.195969 57.826267  -0.286504 0.675224 -0.679697  0.000000 0.000000 0
  phy
0  22.187735 94.212173 69.486153  -0.342926 0.452015 -0.823459  0.000000 0.000000 0
0  31.259209 109.789787 56.818924  -0.674233 0.296537 -0.676370  0.000000 0.000000 0
0  25.519756 111.841370 58.082436  -0.264842 0.493790 -0.828269  0.000000 0.000000 0
  phy
0  25.519825 112.195969 57.826267  -0.286504 0.675224 -0.679697  0.000000 0.000000 0
0  18.279800 113.276985 58.926991  -0.161302 0.528090 -0.833728  0.000000 0.000000 0
0  25.519756 111.841370 58.082436  -0.264842 0.493790 -0.828269  0.000000 0.000000 0
  phy
0  -31.047184 113.164703 53.645325  0.428680 0.744149 -0.512324  0.000000 0.000000 0
0  -25.650951 117.454941 50.510273  0.298174 0.823008 -0.483478  0.000000 0.000000 0
0  -29.849009 122.265854 39.337872  0.435064 0.806650 -0.400044  0.000000 0.000000 0
  phy
0  -0.007788 117.886009 56.448509  -0.000075 0.860333 -0.509732  0.000000 0.000000 0
0  10.548143 126.765091 40.299980  -0.108725 0.876370 -0.469206  0.000000 0.000000 0
0  0.004103 127.354813 40.242062  -0.000037 0.999903 -0.013940  0.000000 0.000000 0
  phy
0  -10.538206 126.766182 40.298679  0.109168 0.876014 -0.469768  0.000000 0.000000 0
0  -0.007788 117.886009 56.448509  -0.000075 0.860333 -0.509732  0.000000 0.000000 0
0  0.004103 127.354813 40.242062  -0.000037 0.999903 -0.013940  0.000000 0.000000 0
  phy
0  -25.514957 111.844070 58.079525  0.264635 0.493807 -0.828325  0.000000 0.000000 0
0  -31.253481 109.792397 56.814968  0.961446 0.046400 -0.271051  0.000000 0.000000 0
0  -22.185558 94.214348 69.483841  0.342728 0.447409 -0.826052  0.000000 0.000000 0
  phy
0  -28.752041 118.323631 39.834641  0.013432 -0.576188 0.817207  0.000000 0.000000 0
0  -26.824209 82.923409 64.871811  0.189092 -0.602843 0.775129  0.000000 0.000000 0
0  -30.427097 120.064728 40.703087  0.926973 -0.260707 0.269729  0.000000 0.000000 0
  phy
0  -28.752041 118.323631 39.834641  0.013432 -0.576188 0.817207  0.000000 0.000000 0
0  -30.427097 120.064728 40.703087  0.926973 -0.260707 0.269729  0.000000 0.000000 0
0  -28.926785 120.047874 38.722794  0.651185 -0.266719 0.710506  0.000000 0.000000 0
  phy
0  -30.427097 120.064728 40.703087  0.926973 -0.260707 0.269729  0.000000 0.000000 0
0  -26.824209 82.923409 64.871811  0.189092 -0.602843 0.775129  0.000000 0.000000 0
0  -31.253481 109.792397 56.814968  0.961446 0.046400 -0.271051  0.000000 0.000000 0
  phy
0  -27.949497 121.009979 38.102314  0.009881 -0.107816 0.994122  0.000000 0.000000 0
0  27.957556 121.007240 38.105259  -0.013023 -0.254006 0.967115  0.000000 0.000000 0
0  -28.752041 118.323631 39.834641  0.013432 -0.576188 0.817207  0.000000 0.000000 0
  phy
0  -27.949497 121.009979 38.102314  0.009881 -0.107816 0.994122  0.000000 0.000000 0
0  -28.752041 118.323631 39.834641  0.013432 -0.576188 0.817207  0.000000 0.000000 0
0  -28.926785 120.047874 38.722794  0.651185 -0.266719 0.710506  0.000000 0.000000 0
  phy
0  -28.752041 118.323631 39.834641  0.013432 -0.576188 0.817207  0.000000 0.000000 0
0  27.957556 121.007240 38.105259  -0.013023 -0.254006 0.967115  0.000000 0.000000 0
0  28.934677 120.044975 38.725838  -0.033015 -0.576613 0.816350  0.000000 0.000000 0
  phy
0  -29.849009 122.265854 39.337872  0.435064 0.806650 -0.400044  0.000000 0.000000 0
0  -27.949497 121.009979 38.102314  0.009881 -0.107816 0.994122  0.000000 0.000000 0
0  -28.926785 120.047874 38.722794  0.651185 -0.266719 0.710506  0.000000 0.000000 0
  phy
0  10.548143 126.765091 40.299980  -0.108725 0.876370 -0.469206  0.000000 0.000000 0
0  25.838104 124.279671 38.548203  -0.135030 0.774133 0.618454  0.000000 0.000000 0
0  0.004103 127.354813 40.242062  -0.000037 0.999903 -0.013940  0.000000 0.000000 0
  phy
0  27.957556 121.007240 38.105259  -0.013023 -0.254006 0.967115  0.000000 0.000000 0
0  25.838104 124.279671 38.548203  -0.135030 0.774133 0.618454  0.000000 0.000000 0
0  29.034613 122.911049 39.074841  -0.381153 0.853037 -0.356441  0.000000 0.000000 0
  phy
0  18.624798 118.924538 51.348007  -0.186642 0.851813 -0.489468  0.000000 0.000000 0
0  25.838104 124.279671 38.548203  -0.135030 0.774133 0.618454  0.000000 0.000000 0
0  10.548143 126.765091 40.299980  -0.108725 0.876370 -0.469206  0.000000 0.000000 0
  phy
0  26.811897 83.098526 65.088768  -0.912767 -0.309708 0.266341  0.000000 0.000000 0
0  31.259209 109.789787 56.818924  -0.674233 0.296537 -0.676370  0.000000 0.000000 0
0  29.785923 101.146172 60.283417  -0.897303 0.021558 -0.440889  0.000000 0.000000 0
  phy
0  26.811897 83.098526 65.088768  -0.912767 -0.309708 0.266341  0.000000 0.000000 0
0  28.934677 120.044975 38.725838  -0.033015 -0.576613 0.816350  0.000000 0.000000 0
0  30.434782 120.061699 40.706299  -0.845848 -0.343082 0.408455  0.000000 0.000000 0
  phy
0  29.856934 122.264923 39.340118  -0.783570 0.619434 0.048165  0.000000 0.000000 0
0  27.957556 121.007240 38.105259  -0.013023 -0.254006 0.967115  0.000000 0.000000 0
0  29.034613 122.911049 39.074841  -0.381153 0.853037 -0.356441  0.000000 0.000000 0
  phy
0  27.957556 121.007240 38.105259  -0.013023 -0.254006 0.967115  0.000000 0.000000 0
0  29.856934 122.264923 39.340118  -0.783570 0.619434 0.048165  0.000000 0.000000 0
0  28.934677 120.044975 38.725838  -0.033015 -0.576613 0.816350  0.000000 0.000000 0
  phy
0  23.977018 93.269707 68.751137  -0.614987 0.256068 -0.745802  0.000000 0.000000 0
0  31.259209 109.789787 56.818924  -0.674233 0.296537 -0.676370  0.000000 0.000000 0
0  22.187735 94.212173 69.486153  -0.342926 0.452015 -0.823459  0.000000 0.000000 0
  phy
0  22.187735 94.212173 69.486153  -0.342926 0.452015 -0.823459  0.000000 0.000000 0
0  22.008806 93.307755 69.869537  -0.114910 -0.305012 -0.945390  0.000000 0.000000 0
0  23.977018 93.269707 68.751137  -0.614987 0.256068 -0.745802  0.000000 0.000000 0
  phy
0  -0.001544 85.379608 67.690491  0.002001 -0.381549 -0.924347  0.000000 0.000000 0
0  0.000669 81.798874 66.020515  0.000141 -0.983333 -0.181815  0.000000 0.000000 0
0  11.341831 82.186005 66.038338  -0.050445 -0.460992 -0.885970  0.000000 0.000000 0
  phy
0  11.782545 96.129471 70.926506  -0.141796 0.518981 -0.842943  0.000000 0.000000 0
0  18.279800 113.276985 58.926991  -0.161302 0.528090 -0.833728  0.000000 0.000000 0
0  0.394960 111.535515 63.071236  -0.127838 0.535990 -0.834489  0.000000 0.000000 0
  phy
0  18.980108 115.792358 56.167164  -0.217334 0.731893 -0.645832  0.000000 0.000000 0
0  25.519825 112.195969 57.826267  -0.286504 0.675224 -0.679697  0.000000 0.000000 0
0  25.575447 114.432922 55.383091  -0.282713 0.718093 -0.635937  0.000000 0.000000 0
  phy
0  -18.620239 118.926788 51.344242  0.194693 0.851973 -0.486042  0.000000 0.000000 0
0  -14.793117 117.372375 54.977867  0.136633 0.849461 -0.509655  0.000000 0.000000 0
0  -10.538206 126.766182 40.298679  0.109168 0.876014 -0.469768  0.000000 0.000000 0
  phy
0  18.624798 118.924538 51.348007  -0.186642 0.851813 -0.489468  0.000000 0.000000 0
0  14.796318 117.367043 54.980480  -0.142846 0.843407 -0.517938  0.000000 0.000000 0
0  17.214264 116.534492 55.628056  -0.148720 0.831730 -0.534891  0.000000 0.000000 0
end
