version 1
nodes
0 "root" -1
1 "steering_wheel" 0
end
skeleton
time 0
0  0.000000 0.000000 0.000000  0.000000 -0.000000 0.000000
1  19.916300 17.934299 33.308498  0.000000 -0.000000 0.000000
end
triangles
sirens
0  -113.104813 -16.377329 17.922432  -0.984812 -0.173626 0.000000  0.438490 0.003876 1 0 1.000000
0  -113.082596 -16.503376 18.003883  -0.984819 -0.173585 0.000000  0.452162 0.017548 1 0 1.000000
0  -113.082596 -16.503376 19.609627  -0.984823 -0.173561 0.000000  0.452162 0.251930 1 0 1.000000
sirens
0  -113.104813 -16.377329 17.922432  -0.984812 -0.173626 0.000000  0.438490 0.003876 1 0 1.000000
0  -113.082596 -16.503376 19.609627  -0.984823 -0.173561 0.000000  0.452162 0.251930 1 0 1.000000
0  -113.104813 -16.377329 19.702713  -0.984813 -0.173618 0.000000  0.438490 0.264626 1 0 1.000000
sirens
0  -113.104813 -16.377329 17.922432  -0.984812 -0.173626 0.000000  0.438490 0.003876 1 0 1.000000
0  -113.104813 -16.377329 19.702713  -0.984813 -0.173618 0.000000  0.438490 0.264626 1 0 1.000000
0  -113.731194 -12.825022 17.922432  -0.984808 -0.173647 0.000000  0.045900 0.003876 1 0 1.000000
sirens
0  -113.104813 -16.377329 19.702713  -0.984813 -0.173618 0.000000  0.438490 0.264626 1 0 1.000000
0  -113.731194 -12.825022 19.702717  -0.984812 -0.173622 0.000000  0.045900 0.264626 1 0 1.000000
0  -113.731194 -12.825022 17.922432  -0.984808 -0.173647 0.000000  0.045900 0.003876 1 0 1.000000
sirens
0  -113.731194 -12.825022 19.702717  -0.984812 -0.173622 0.000000  0.045900 0.264626 1 0 1.000000
0  -113.753410 -12.698972 19.609631  -0.984821 -0.173575 0.000000  0.031251 0.251930 1 0 1.000000
0  -113.731194 -12.825022 17.922432  -0.984808 -0.173647 0.000000  0.045900 0.003876 1 0 1.000000
sirens
0  -113.753410 -12.698972 19.609631  -0.984821 -0.173575 0.000000  0.031251 0.251930 1 0 1.000000
0  -113.753410 -12.698972 18.003883  -0.984809 -0.173644 0.000000  0.031251 0.017548 1 0 1.000000
0  -113.731194 -12.825022 17.922432  -0.984808 -0.173647 0.000000  0.045900 0.003876 1 0 1.000000
sirens
0  -113.375771 -16.448736 17.899162  -0.781245 -0.228659 -0.580836  0.006007 0.095743 1 0 1.000000
0  -114.010231 -12.850594 17.899162  -0.812347 -0.052325 -0.580822  0.006007 0.095743 1 0 1.000000
0  -113.956284 -12.687483 17.806076  -0.525863 0.203292 -0.825918  0.006007 0.095743 1 0 1.000000
sirens
0  -113.980537 -12.549974 17.899162  -0.629767 0.670060 -0.392954  0.006007 0.095743 1 0 1.000000
0  -113.956284 -12.687483 17.806076  -0.525863 0.203292 -0.825918  0.006007 0.095743 1 0 1.000000
0  -114.010231 -12.850594 17.899162  -0.812347 -0.052325 -0.580822  0.006007 0.095743 1 0 1.000000
sirens
0  -114.010231 -12.850594 17.899162  -0.812347 -0.052325 -0.580822  0.006007 0.095743 1 0 1.000000
0  -114.032448 -12.724544 17.992249  -0.957367 0.213802 -0.194258  0.006007 0.095743 1 0 1.000000
0  -113.980537 -12.549974 17.899162  -0.629767 0.670060 -0.392954  0.006007 0.095743 1 0 1.000000
sirens
0  -113.980537 -12.549974 19.714352  -0.629087 0.671226 0.392052  0.006007 0.095743 1 0 1.000000
0  -113.980537 -12.549974 17.899162  -0.629767 0.670060 -0.392954  0.006007 0.095743 1 0 1.000000
0  -114.032448 -12.724544 17.992249  -0.957367 0.213802 -0.194258  0.006007 0.095743 1 0 1.000000
sirens
0  -114.032448 -12.724544 17.992249  -0.957367 0.213802 -0.194258  0.006007 0.095743 1 0 1.000000
0  -114.032448 -12.724544 19.632900  -0.958393 0.213474 0.189503  0.006007 0.095743 1 0 1.000000
0  -113.980537 -12.549974 19.714352  -0.629087 0.671226 0.392052  0.006007 0.095743 1 0 1.000000
sirens
0  -113.956284 -12.687483 19.807438  -0.523747 0.203760 0.827146  0.006007 0.095743 1 0 1.000000
0  -113.980537 -12.549974 19.714352  -0.629087 0.671226 0.392052  0.006007 0.095743 1 0 1.000000
0  -114.032448 -12.724544 19.632900  -0.958393 0.213474 0.189503  0.006007 0.095743 1 0 1.000000
sirens
0  -114.032448 -12.724544 19.632900  -0.958393 0.213474 0.189503  0.006007 0.095743 1 0 1.000000
0  -114.010231 -12.850594 19.714352  -0.812415 -0.054173 0.580557  0.006007 0.095743 1 0 1.000000
0  -113.956284 -12.687483 19.807438  -0.523747 0.203760 0.827146  0.006007 0.095743 1 0 1.000000
sirens
0  -113.269295 -16.583561 19.807438  -0.422446 -0.370568 0.827176  0.006007 0.095743 1 0 1.000000
0  -113.956284 -12.687483 19.807438  -0.523747 0.203760 0.827146  0.006007 0.095743 1 0 1.000000
0  -114.010231 -12.850594 19.714352  -0.812415 -0.054173 0.580557  0.006007 0.095743 1 0 1.000000
sirens
0  -114.010231 -12.850594 19.714352  -0.812415 -0.054173 0.580557  0.006007 0.095743 1 0 1.000000
0  -113.375771 -16.448736 19.714352  -0.781956 -0.226896 0.580571  0.006007 0.095743 1 0 1.000000
0  -113.269295 -16.583561 19.807438  -0.422446 -0.370568 0.827176  0.006007 0.095743 1 0 1.000000
sirens
0  -113.269295 -16.583561 19.807438  -0.422446 -0.370568 0.827176  0.006007 0.095743 1 0 1.000000
0  -113.375771 -16.448736 19.714352  -0.781956 -0.226896 0.580571  0.006007 0.095743 1 0 1.000000
0  -113.353561 -16.574787 19.632900  -0.827562 -0.528394 0.189581  0.006007 0.095743 1 0 1.000000
sirens
0  -113.353561 -16.574787 19.632900  -0.827562 -0.528394 0.189581  0.006007 0.095743 1 0 1.000000
0  -113.247086 -16.709612 19.714352  -0.361615 -0.845818 0.392208  0.006007 0.095743 1 0 1.000000
0  -113.269295 -16.583561 19.807438  -0.422446 -0.370568 0.827176  0.006007 0.095743 1 0 1.000000
sirens
0  -113.247086 -16.709612 19.714352  -0.361615 -0.845818 0.392208  0.006007 0.095743 1 0 1.000000
0  -113.353561 -16.574787 19.632900  -0.827562 -0.528394 0.189581  0.006007 0.095743 1 0 1.000000
0  -113.353561 -16.574787 17.992249  -0.826446 -0.528395 -0.194385  0.006007 0.095743 1 0 1.000000
sirens
0  -113.353561 -16.574787 17.992249  -0.826446 -0.528395 -0.194385  0.006007 0.095743 1 0 1.000000
0  -113.247086 -16.709612 17.899162  -0.362748 -0.844961 -0.393007  0.006007 0.095743 1 0 1.000000
0  -113.247086 -16.709612 19.714352  -0.361615 -0.845818 0.392208  0.006007 0.095743 1 0 1.000000
sirens
0  -113.247086 -16.709612 17.899162  -0.362748 -0.844961 -0.393007  0.006007 0.095743 1 0 1.000000
0  -113.353561 -16.574787 17.992249  -0.826446 -0.528395 -0.194385  0.006007 0.095743 1 0 1.000000
0  -113.375771 -16.448736 17.899162  -0.781245 -0.228659 -0.580836  0.006007 0.095743 1 0 1.000000
sirens
0  -113.375771 -16.448736 17.899162  -0.781245 -0.228659 -0.580836  0.006007 0.095743 1 0 1.000000
0  -113.269295 -16.583561 17.806076  -0.424650 -0.370852 -0.825918  0.006007 0.095743 1 0 1.000000
0  -113.247086 -16.709612 17.899162  -0.362748 -0.844961 -0.393007  0.006007 0.095743 1 0 1.000000
sirens
0  -113.956284 -12.687483 17.806076  -0.525863 0.203292 -0.825918  0.006007 0.095743 1 0 1.000000
0  -113.269295 -16.583561 17.806076  -0.424650 -0.370852 -0.825918  0.006007 0.095743 1 0 1.000000
0  -113.375771 -16.448736 17.899162  -0.781245 -0.228659 -0.580836  0.006007 0.095743 1 0 1.000000
sirens
0  -113.269295 -16.583561 17.806076  -0.424650 -0.370852 -0.825918  0.006007 0.095743 1 0 1.000000
0  -113.956284 -12.687483 17.806076  -0.525863 0.203292 -0.825918  0.006007 0.095743 1 0 1.000000
0  -112.912170 -12.444299 17.771168  -0.098138 0.307778 -0.946383  0.006007 0.095743 1 0 1.000000
sirens
0  -112.912170 -12.444299 17.771168  -0.098138 0.307778 -0.946383  0.006007 0.095743 1 0 1.000000
0  -113.956284 -12.687483 17.806076  -0.525863 0.203292 -0.825918  0.006007 0.095743 1 0 1.000000
0  -113.980537 -12.549974 17.899162  -0.629767 0.670060 -0.392954  0.006007 0.095743 1 0 1.000000
sirens
0  -113.980537 -12.549974 17.899162  -0.629767 0.670060 -0.392954  0.006007 0.095743 1 0 1.000000
0  -112.936409 -12.306790 17.875889  -0.215814 0.866997 -0.449155  0.006007 0.095743 1 0 1.000000
0  -112.912170 -12.444299 17.771168  -0.098138 0.307778 -0.946383  0.006007 0.095743 1 0 1.000000
sirens
0  -112.936409 -12.306790 19.737625  -0.216531 0.867671 0.447507  0.006007 0.095743 1 0 1.000000
0  -112.936409 -12.306790 17.875889  -0.215814 0.866997 -0.449155  0.006007 0.095743 1 0 1.000000
0  -113.980537 -12.549974 17.899162  -0.629767 0.670060 -0.392954  0.006007 0.095743 1 0 1.000000
sirens
0  -113.980537 -12.549974 17.899162  -0.629767 0.670060 -0.392954  0.006007 0.095743 1 0 1.000000
0  -113.980537 -12.549974 19.714352  -0.629087 0.671226 0.392052  0.006007 0.095743 1 0 1.000000
0  -112.936409 -12.306790 19.737625  -0.216531 0.867671 0.447507  0.006007 0.095743 1 0 1.000000
sirens
0  -112.936409 -12.306790 19.737625  -0.216531 0.867671 0.447507  0.006007 0.095743 1 0 1.000000
0  -113.980537 -12.549974 19.714352  -0.629087 0.671226 0.392052  0.006007 0.095743 1 0 1.000000
0  -113.956284 -12.687483 19.807438  -0.523747 0.203760 0.827146  0.006007 0.095743 1 0 1.000000
sirens
0  -113.956284 -12.687483 19.807438  -0.523747 0.203760 0.827146  0.006007 0.095743 1 0 1.000000
0  -112.912170 -12.444301 19.842346  -0.098180 0.308254 0.946224  0.006007 0.095743 1 0 1.000000
0  -112.936409 -12.306790 19.737625  -0.216531 0.867671 0.447507  0.006007 0.095743 1 0 1.000000
sirens
0  -112.204987 -16.454969 19.842346  0.013141 -0.323262 0.946218  0.006007 0.095743 1 0 1.000000
0  -112.912170 -12.444301 19.842346  -0.098180 0.308254 0.946224  0.006007 0.095743 1 0 1.000000
0  -113.956284 -12.687483 19.807438  -0.523747 0.203760 0.827146  0.006007 0.095743 1 0 1.000000
sirens
0  -113.956284 -12.687483 19.807438  -0.523747 0.203760 0.827146  0.006007 0.095743 1 0 1.000000
0  -113.269295 -16.583561 19.807438  -0.422446 -0.370568 0.827176  0.006007 0.095743 1 0 1.000000
0  -112.204987 -16.454969 19.842346  0.013141 -0.323262 0.946218  0.006007 0.095743 1 0 1.000000
sirens
0  -112.180733 -16.592478 19.737621  0.093520 -0.888779 0.448693  0.006007 0.095743 1 0 1.000000
0  -112.204987 -16.454969 19.842346  0.013141 -0.323262 0.946218  0.006007 0.095743 1 0 1.000000
0  -113.269295 -16.583561 19.807438  -0.422446 -0.370568 0.827176  0.006007 0.095743 1 0 1.000000
sirens
0  -113.269295 -16.583561 19.807438  -0.422446 -0.370568 0.827176  0.006007 0.095743 1 0 1.000000
0  -113.247086 -16.709612 19.714352  -0.361615 -0.845818 0.392208  0.006007 0.095743 1 0 1.000000
0  -112.180733 -16.592478 19.737621  0.093520 -0.888779 0.448693  0.006007 0.095743 1 0 1.000000
sirens
0  -112.180733 -16.592478 19.737621  0.093520 -0.888779 0.448693  0.006007 0.095743 1 0 1.000000
0  -113.247086 -16.709612 19.714352  -0.361615 -0.845818 0.392208  0.006007 0.095743 1 0 1.000000
0  -113.247086 -16.709612 17.899162  -0.362748 -0.844961 -0.393007  0.006007 0.095743 1 0 1.000000
sirens
0  -113.247086 -16.709612 17.899162  -0.362748 -0.844961 -0.393007  0.006007 0.095743 1 0 1.000000
0  -112.180733 -16.592476 17.875889  0.093715 -0.888527 -0.449152  0.006007 0.095743 1 0 1.000000
0  -112.180733 -16.592478 19.737621  0.093520 -0.888779 0.448693  0.006007 0.095743 1 0 1.000000
sirens
0  -112.204987 -16.454967 17.771168  0.013134 -0.322538 -0.946465  0.006007 0.095743 1 0 1.000000
0  -112.180733 -16.592476 17.875889  0.093715 -0.888527 -0.449152  0.006007 0.095743 1 0 1.000000
0  -113.247086 -16.709612 17.899162  -0.362748 -0.844961 -0.393007  0.006007 0.095743 1 0 1.000000
sirens
0  -113.247086 -16.709612 17.899162  -0.362748 -0.844961 -0.393007  0.006007 0.095743 1 0 1.000000
0  -113.269295 -16.583561 17.806076  -0.424650 -0.370852 -0.825918  0.006007 0.095743 1 0 1.000000
0  -112.204987 -16.454967 17.771168  0.013134 -0.322538 -0.946465  0.006007 0.095743 1 0 1.000000
sirens
0  -112.912170 -12.444299 17.771168  -0.098138 0.307778 -0.946383  0.006007 0.095743 1 0 1.000000
0  -112.204987 -16.454967 17.771168  0.013134 -0.322538 -0.946465  0.006007 0.095743 1 0 1.000000
0  -113.269295 -16.583561 17.806076  -0.424650 -0.370852 -0.825918  0.006007 0.095743 1 0 1.000000
sirens
0  -113.421631 16.456791 19.632904  -0.926551 0.313909 0.207280  0.977569 0.464827 1 0 1.000000
0  -113.353561 16.574757 19.632904  -0.878279 0.462188 0.122510  0.993194 0.464827 1 0 1.000000
0  -113.353561 16.574757 17.992252  -0.878684 0.461443 -0.122410  0.993194 0.284158 1 0 1.000000
sirens
0  -113.421631 16.456791 19.632904  -0.926551 0.313909 0.207280  0.977569 0.464827 1 0 1.000000
0  -113.375771 16.448704 19.714355  -0.870106 0.266607 0.414531  0.977569 0.474593 1 0 1.000000
0  -113.353561 16.574757 19.632904  -0.878279 0.462188 0.122510  0.993194 0.464827 1 0 1.000000
sirens
0  -114.010231 12.850562 19.714352  -0.908900 0.047229 0.414330  0.516617 0.474593 1 0 1.000000
0  -113.375771 16.448704 19.714355  -0.870106 0.266607 0.414531  0.977569 0.474593 1 0 1.000000
0  -113.421631 16.456791 19.632904  -0.926551 0.313909 0.207280  0.977569 0.464827 1 0 1.000000
sirens
0  -113.421631 16.456791 19.632904  -0.926551 0.313909 0.207280  0.977569 0.464827 1 0 1.000000
0  -114.056068 12.858647 19.632900  -0.978068 0.021926 0.207130  0.516617 0.464827 1 0 1.000000
0  -114.010231 12.850562 19.714352  -0.908900 0.047229 0.414330  0.516617 0.474593 1 0 1.000000
sirens
0  -114.032448 12.724513 19.632900  -0.983405 -0.133818 0.122504  0.500015 0.464827 1 0 1.000000
0  -114.010231 12.850562 19.714352  -0.908900 0.047229 0.414330  0.516617 0.474593 1 0 1.000000
0  -114.056068 12.858647 19.632900  -0.978068 0.021926 0.207130  0.516617 0.464827 1 0 1.000000
sirens
0  -114.032448 12.724513 19.632900  -0.983405 -0.133818 0.122504  0.500015 0.464827 1 0 1.000000
0  -114.056068 12.858647 19.632900  -0.978068 0.021926 0.207130  0.516617 0.464827 1 0 1.000000
0  -114.056068 12.858647 17.992249  -0.978035 0.022235 -0.207253  0.516617 0.284158 1 0 1.000000
sirens
0  -114.056068 12.858647 17.992249  -0.978035 0.022235 -0.207253  0.516617 0.284158 1 0 1.000000
0  -114.032448 12.724513 17.992249  -0.983523 -0.133176 -0.122254  0.500015 0.284158 1 0 1.000000
0  -114.032448 12.724513 19.632900  -0.983405 -0.133818 0.122504  0.500015 0.464827 1 0 1.000000
sirens
0  -114.032448 12.724513 17.992249  -0.983523 -0.133176 -0.122254  0.500015 0.284158 1 0 1.000000
0  -114.056068 12.858647 17.992249  -0.978035 0.022235 -0.207253  0.516617 0.284158 1 0 1.000000
0  -114.010231 12.850562 17.899162  -0.908807 0.047411 -0.414514  0.516617 0.274392 1 0 1.000000
sirens
0  -113.375771 16.448704 17.899166  -0.870254 0.266134 -0.414524  0.977569 0.274392 1 0 1.000000
0  -114.010231 12.850562 17.899162  -0.908807 0.047411 -0.414514  0.516617 0.274392 1 0 1.000000
0  -114.056068 12.858647 17.992249  -0.978035 0.022235 -0.207253  0.516617 0.284158 1 0 1.000000
sirens
0  -114.056068 12.858647 17.992249  -0.978035 0.022235 -0.207253  0.516617 0.284158 1 0 1.000000
0  -113.421631 16.456791 17.992252  -0.926671 0.313548 -0.207288  0.977569 0.284158 1 0 1.000000
0  -113.375771 16.448704 17.899166  -0.870254 0.266134 -0.414524  0.977569 0.274392 1 0 1.000000
sirens
0  -113.353561 16.574757 17.992252  -0.878684 0.461443 -0.122410  0.993194 0.284158 1 0 1.000000
0  -113.375771 16.448704 17.899166  -0.870254 0.266134 -0.414524  0.977569 0.274392 1 0 1.000000
0  -113.421631 16.456791 17.992252  -0.926671 0.313548 -0.207288  0.977569 0.284158 1 0 1.000000
sirens
0  -113.353561 16.574757 17.992252  -0.878684 0.461443 -0.122410  0.993194 0.284158 1 0 1.000000
0  -113.421631 16.456791 17.992252  -0.926671 0.313548 -0.207288  0.977569 0.284158 1 0 1.000000
0  -113.421631 16.456791 19.632904  -0.926551 0.313909 0.207280  0.977569 0.464827 1 0 1.000000
sirens
0  -114.056068 12.858647 19.632900  -0.978068 0.021926 0.207130  0.516617 0.464827 1 0 1.000000
0  -113.421631 16.456791 19.632904  -0.926551 0.313909 0.207280  0.977569 0.464827 1 0 1.000000
0  -113.421631 16.456791 17.992252  -0.926671 0.313548 -0.207288  0.977569 0.284158 1 0 1.000000
sirens
0  -113.421631 16.456791 17.992252  -0.926671 0.313548 -0.207288  0.977569 0.284158 1 0 1.000000
0  -114.056068 12.858647 17.992249  -0.978035 0.022235 -0.207253  0.516617 0.284158 1 0 1.000000
0  -114.056068 12.858647 19.632900  -0.978068 0.021926 0.207130  0.516617 0.464827 1 0 1.000000
sirens
0  -113.421631 -16.456821 19.632900  -0.926561 -0.313891 0.207260  0.480483 0.464827 1 0 1.000000
0  -114.056068 -12.858678 19.632900  -0.978081 -0.021956 0.207065  0.019532 0.464827 1 0 1.000000
0  -114.056068 -12.858678 17.992249  -0.978042 -0.022242 -0.207219  0.019532 0.284158 1 0 1.000000
sirens
0  -114.056068 -12.858678 17.992249  -0.978042 -0.022242 -0.207219  0.019532 0.284158 1 0 1.000000
0  -113.421631 -16.456821 17.992249  -0.926687 -0.313519 -0.207261  0.480483 0.284158 1 0 1.000000
0  -113.421631 -16.456821 19.632900  -0.926561 -0.313891 0.207260  0.480483 0.464827 1 0 1.000000
sirens
0  -113.421631 -16.456821 19.632900  -0.926561 -0.313891 0.207260  0.480483 0.464827 1 0 1.000000
0  -113.421631 -16.456821 17.992249  -0.926687 -0.313519 -0.207261  0.480483 0.284158 1 0 1.000000
0  -113.353561 -16.574787 17.992249  -0.878703 -0.461433 -0.122310  0.496109 0.284158 1 0 1.000000
sirens
0  -113.353561 -16.574787 17.992249  -0.878703 -0.461433 -0.122310  0.496109 0.284158 1 0 1.000000
0  -113.421631 -16.456821 17.992249  -0.926687 -0.313519 -0.207261  0.480483 0.284158 1 0 1.000000
0  -113.375771 -16.448736 17.899162  -0.870266 -0.266199 -0.414458  0.480483 0.274392 1 0 1.000000
sirens
0  -113.375771 -16.448736 17.899162  -0.870266 -0.266199 -0.414458  0.480483 0.274392 1 0 1.000000
0  -113.421631 -16.456821 17.992249  -0.926687 -0.313519 -0.207261  0.480483 0.284158 1 0 1.000000
0  -114.056068 -12.858678 17.992249  -0.978042 -0.022242 -0.207219  0.019532 0.284158 1 0 1.000000
sirens
0  -114.056068 -12.858678 17.992249  -0.978042 -0.022242 -0.207219  0.019532 0.284158 1 0 1.000000
0  -114.010231 -12.850594 17.899162  -0.908841 -0.047488 -0.414430  0.019532 0.274392 1 0 1.000000
0  -113.375771 -16.448736 17.899162  -0.870266 -0.266199 -0.414458  0.480483 0.274392 1 0 1.000000
sirens
0  -114.032448 -12.724544 17.992249  -0.983520 0.133161 -0.122297  0.002930 0.284158 1 0 1.000000
0  -114.010231 -12.850594 17.899162  -0.908841 -0.047488 -0.414430  0.019532 0.274392 1 0 1.000000
0  -114.056068 -12.858678 17.992249  -0.978042 -0.022242 -0.207219  0.019532 0.284158 1 0 1.000000
sirens
0  -114.032448 -12.724544 19.632900  -0.983419 0.133815 0.122395  0.002930 0.464827 1 0 1.000000
0  -114.032448 -12.724544 17.992249  -0.983520 0.133161 -0.122297  0.002930 0.284158 1 0 1.000000
0  -114.056068 -12.858678 17.992249  -0.978042 -0.022242 -0.207219  0.019532 0.284158 1 0 1.000000
sirens
0  -114.056068 -12.858678 17.992249  -0.978042 -0.022242 -0.207219  0.019532 0.284158 1 0 1.000000
0  -114.056068 -12.858678 19.632900  -0.978081 -0.021956 0.207065  0.019532 0.464827 1 0 1.000000
0  -114.032448 -12.724544 19.632900  -0.983419 0.133815 0.122395  0.002930 0.464827 1 0 1.000000
sirens
0  -114.032448 -12.724544 19.632900  -0.983419 0.133815 0.122395  0.002930 0.464827 1 0 1.000000
0  -114.056068 -12.858678 19.632900  -0.978081 -0.021956 0.207065  0.019532 0.464827 1 0 1.000000
0  -114.010231 -12.850594 19.714352  -0.908943 -0.047101 0.414250  0.019532 0.474593 1 0 1.000000
sirens
0  -114.010231 -12.850594 19.714352  -0.908943 -0.047101 0.414250  0.019532 0.474593 1 0 1.000000
0  -114.056068 -12.858678 19.632900  -0.978081 -0.021956 0.207065  0.019532 0.464827 1 0 1.000000
0  -113.421631 -16.456821 19.632900  -0.926561 -0.313891 0.207260  0.480483 0.464827 1 0 1.000000
sirens
0  -113.421631 -16.456821 19.632900  -0.926561 -0.313891 0.207260  0.480483 0.464827 1 0 1.000000
0  -113.375771 -16.448736 19.714352  -0.870190 -0.266414 0.414479  0.480483 0.474593 1 0 1.000000
0  -114.010231 -12.850594 19.714352  -0.908943 -0.047101 0.414250  0.019532 0.474593 1 0 1.000000
sirens
0  -113.421631 -16.456821 19.632900  -0.926561 -0.313891 0.207260  0.480483 0.464827 1 0 1.000000
0  -113.353561 -16.574787 19.632900  -0.878333 -0.462077 0.122537  0.496109 0.464827 1 0 1.000000
0  -113.375771 -16.448736 19.714352  -0.870190 -0.266414 0.414479  0.480483 0.474593 1 0 1.000000
sirens
0  -113.353561 -16.574787 17.992249  -0.878703 -0.461433 -0.122310  0.496109 0.284158 1 0 1.000000
0  -113.353561 -16.574787 19.632900  -0.878333 -0.462077 0.122537  0.496109 0.464827 1 0 1.000000
0  -113.421631 -16.456821 19.632900  -0.926561 -0.313891 0.207260  0.480483 0.464827 1 0 1.000000
sirens
0  -113.353561 -16.574787 19.632900  -0.241149 0.851841 -0.464988  0.006007 0.095743 1 0 1.000000
0  -113.082596 -16.503376 19.609627  -0.245183 0.852670 -0.461345  0.006007 0.095743 1 0 1.000000
0  -113.082596 -16.503376 18.003883  -0.241181 0.851931 0.464807  0.006007 0.095743 1 0 1.000000
sirens
0  -113.082596 -16.503376 19.609627  -0.245183 0.852670 -0.461345  0.006007 0.095743 1 0 1.000000
0  -113.353561 -16.574787 19.632900  -0.241149 0.851841 -0.464988  0.006007 0.095743 1 0 1.000000
0  -113.375771 -16.448736 19.714352  -0.133137 0.287593 -0.948454  0.006007 0.095743 1 0 1.000000
sirens
0  -113.375771 -16.448736 19.714352  -0.133137 0.287593 -0.948454  0.006007 0.095743 1 0 1.000000
0  -113.104813 -16.377329 19.702713  -0.130603 0.260707 -0.956543  0.006007 0.095743 1 0 1.000000
0  -113.082596 -16.503376 19.609627  -0.245183 0.852670 -0.461345  0.006007 0.095743 1 0 1.000000
sirens
0  -113.731194 -12.825022 19.702717  -0.033569 -0.289631 -0.956550  0.006007 0.095743 1 0 1.000000
0  -113.104813 -16.377329 19.702713  -0.130603 0.260707 -0.956543  0.006007 0.095743 1 0 1.000000
0  -113.375771 -16.448736 19.714352  -0.133137 0.287593 -0.948454  0.006007 0.095743 1 0 1.000000
sirens
0  -113.375771 -16.448736 19.714352  -0.133137 0.287593 -0.948454  0.006007 0.095743 1 0 1.000000
0  -114.010231 -12.850594 19.714352  -0.026743 -0.315769 -0.948459  0.006007 0.095743 1 0 1.000000
0  -113.731194 -12.825022 19.702717  -0.033569 -0.289631 -0.956550  0.006007 0.095743 1 0 1.000000
sirens
0  -113.753410 -12.698972 19.609631  0.061243 -0.885104 -0.461346  0.006007 0.095743 1 0 1.000000
0  -113.731194 -12.825022 19.702717  -0.033569 -0.289631 -0.956550  0.006007 0.095743 1 0 1.000000
0  -114.010231 -12.850594 19.714352  -0.026743 -0.315769 -0.948459  0.006007 0.095743 1 0 1.000000
sirens
0  -114.010231 -12.850594 19.714352  -0.026743 -0.315769 -0.948459  0.006007 0.095743 1 0 1.000000
0  -114.032448 -12.724544 19.632900  0.064739 -0.882927 -0.465026  0.006007 0.095743 1 0 1.000000
0  -113.753410 -12.698972 19.609631  0.061243 -0.885104 -0.461346  0.006007 0.095743 1 0 1.000000
sirens
0  -113.753410 -12.698972 18.003883  0.064733 -0.883024 0.464842  0.006007 0.095743 1 0 1.000000
0  -113.753410 -12.698972 19.609631  0.061243 -0.885104 -0.461346  0.006007 0.095743 1 0 1.000000
0  -114.032448 -12.724544 19.632900  0.064739 -0.882927 -0.465026  0.006007 0.095743 1 0 1.000000
sirens
0  -114.032448 -12.724544 19.632900  0.064739 -0.882927 -0.465026  0.006007 0.095743 1 0 1.000000
0  -114.032448 -12.724544 17.992249  0.060409 -0.881673 0.467978  0.006007 0.095743 1 0 1.000000
0  -113.753410 -12.698972 18.003883  0.064733 -0.883024 0.464842  0.006007 0.095743 1 0 1.000000
sirens
0  -113.731194 -12.825022 17.922432  -0.029892 -0.291299 0.956165  0.006007 0.095743 1 0 1.000000
0  -113.753410 -12.698972 18.003883  0.064733 -0.883024 0.464842  0.006007 0.095743 1 0 1.000000
0  -114.032448 -12.724544 17.992249  0.060409 -0.881673 0.467978  0.006007 0.095743 1 0 1.000000
sirens
0  -114.032448 -12.724544 17.992249  0.060409 -0.881673 0.467978  0.006007 0.095743 1 0 1.000000
0  -114.010231 -12.850594 17.899162  -0.030277 -0.318461 0.947452  0.006007 0.095743 1 0 1.000000
0  -113.731194 -12.825022 17.922432  -0.029892 -0.291299 0.956165  0.006007 0.095743 1 0 1.000000
sirens
0  -113.104813 -16.377329 17.922432  -0.127730 0.263514 0.956162  0.006007 0.095743 1 0 1.000000
0  -113.731194 -12.825022 17.922432  -0.029892 -0.291299 0.956165  0.006007 0.095743 1 0 1.000000
0  -114.010231 -12.850594 17.899162  -0.030277 -0.318461 0.947452  0.006007 0.095743 1 0 1.000000
sirens
0  -114.010231 -12.850594 17.899162  -0.030277 -0.318461 0.947452  0.006007 0.095743 1 0 1.000000
0  -113.375771 -16.448736 17.899162  -0.137370 0.288928 0.947444  0.006007 0.095743 1 0 1.000000
0  -113.104813 -16.377329 17.922432  -0.127730 0.263514 0.956162  0.006007 0.095743 1 0 1.000000
sirens
0  -113.104813 -16.377329 17.922432  -0.127730 0.263514 0.956162  0.006007 0.095743 1 0 1.000000
0  -113.375771 -16.448736 17.899162  -0.137370 0.288928 0.947444  0.006007 0.095743 1 0 1.000000
0  -113.353561 -16.574787 17.992249  -0.244796 0.849181 0.467938  0.006007 0.095743 1 0 1.000000
sirens
0  -113.353561 -16.574787 17.992249  -0.244796 0.849181 0.467938  0.006007 0.095743 1 0 1.000000
0  -113.082596 -16.503376 18.003883  -0.241181 0.851931 0.464807  0.006007 0.095743 1 0 1.000000
0  -113.104813 -16.377329 17.922432  -0.127730 0.263514 0.956162  0.006007 0.095743 1 0 1.000000
sirens
0  -113.082596 -16.503376 18.003883  -0.241181 0.851931 0.464807  0.006007 0.095743 1 0 1.000000
0  -113.353561 -16.574787 17.992249  -0.244796 0.849181 0.467938  0.006007 0.095743 1 0 1.000000
0  -113.353561 -16.574787 19.632900  -0.241149 0.851841 -0.464988  0.006007 0.095743 1 0 1.000000
sirens
0  -114.032448 12.724513 19.632900  0.064722 0.882932 -0.465018  0.006007 0.095743 1 0 1.000000
0  -113.753410 12.698941 19.609631  0.061243 0.885103 -0.461349  0.006007 0.095743 1 0 1.000000
0  -113.753410 12.698941 18.003883  0.064742 0.883021 0.464846  0.006007 0.095743 1 0 1.000000
sirens
0  -113.753410 12.698941 19.609631  0.061243 0.885103 -0.461349  0.006007 0.095743 1 0 1.000000
0  -114.032448 12.724513 19.632900  0.064722 0.882932 -0.465018  0.006007 0.095743 1 0 1.000000
0  -114.010231 12.850562 19.714352  -0.026745 0.315765 -0.948460  0.006007 0.095743 1 0 1.000000
sirens
0  -114.010231 12.850562 19.714352  -0.026745 0.315765 -0.948460  0.006007 0.095743 1 0 1.000000
0  -113.731194 12.824991 19.702717  -0.033558 0.289618 -0.956554  0.006007 0.095743 1 0 1.000000
0  -113.753410 12.698941 19.609631  0.061243 0.885103 -0.461349  0.006007 0.095743 1 0 1.000000
sirens
0  -113.731194 12.824991 19.702717  -0.033558 0.289618 -0.956554  0.006007 0.095743 1 0 1.000000
0  -114.010231 12.850562 19.714352  -0.026745 0.315765 -0.948460  0.006007 0.095743 1 0 1.000000
0  -113.375771 16.448704 19.714355  -0.133133 -0.287595 -0.948454  0.006007 0.095743 1 0 1.000000
sirens
0  -113.375771 16.448704 19.714355  -0.133133 -0.287595 -0.948454  0.006007 0.095743 1 0 1.000000
0  -113.104813 16.377296 19.702717  -0.130600 -0.260700 -0.956545  0.006007 0.095743 1 0 1.000000
0  -113.731194 12.824991 19.702717  -0.033558 0.289618 -0.956554  0.006007 0.095743 1 0 1.000000
sirens
0  -113.082596 16.503345 19.609631  -0.245177 -0.852671 -0.461346  0.006007 0.095743 1 0 1.000000
0  -113.104813 16.377296 19.702717  -0.130600 -0.260700 -0.956545  0.006007 0.095743 1 0 1.000000
0  -113.375771 16.448704 19.714355  -0.133133 -0.287595 -0.948454  0.006007 0.095743 1 0 1.000000
sirens
0  -113.375771 16.448704 19.714355  -0.133133 -0.287595 -0.948454  0.006007 0.095743 1 0 1.000000
0  -113.353561 16.574757 19.632904  -0.241154 -0.851840 -0.464987  0.006007 0.095743 1 0 1.000000
0  -113.082596 16.503345 19.609631  -0.245177 -0.852671 -0.461346  0.006007 0.095743 1 0 1.000000
sirens
0  -113.082596 16.503345 18.003887  -0.241186 -0.851924 0.464817  0.006007 0.095743 1 0 1.000000
0  -113.082596 16.503345 19.609631  -0.245177 -0.852671 -0.461346  0.006007 0.095743 1 0 1.000000
0  -113.353561 16.574757 19.632904  -0.241154 -0.851840 -0.464987  0.006007 0.095743 1 0 1.000000
sirens
0  -113.353561 16.574757 19.632904  -0.241154 -0.851840 -0.464987  0.006007 0.095743 1 0 1.000000
0  -113.353561 16.574757 17.992252  -0.244796 -0.849180 0.467940  0.006007 0.095743 1 0 1.000000
0  -113.082596 16.503345 18.003887  -0.241186 -0.851924 0.464817  0.006007 0.095743 1 0 1.000000
sirens
0  -113.104813 16.377296 17.922436  -0.127728 -0.263510 0.956163  0.006007 0.095743 1 0 1.000000
0  -113.082596 16.503345 18.003887  -0.241186 -0.851924 0.464817  0.006007 0.095743 1 0 1.000000
0  -113.353561 16.574757 17.992252  -0.244796 -0.849180 0.467940  0.006007 0.095743 1 0 1.000000
sirens
0  -113.353561 16.574757 17.992252  -0.244796 -0.849180 0.467940  0.006007 0.095743 1 0 1.000000
0  -113.375771 16.448704 17.899166  -0.137372 -0.288928 0.947444  0.006007 0.095743 1 0 1.000000
0  -113.104813 16.377296 17.922436  -0.127728 -0.263510 0.956163  0.006007 0.095743 1 0 1.000000
sirens
0  -113.104813 16.377296 17.922436  -0.127728 -0.263510 0.956163  0.006007 0.095743 1 0 1.000000
0  -113.375771 16.448704 17.899166  -0.137372 -0.288928 0.947444  0.006007 0.095743 1 0 1.000000
0  -114.010231 12.850562 17.899162  -0.030270 0.318474 0.947448  0.006007 0.095743 1 0 1.000000
sirens
0  -114.010231 12.850562 17.899162  -0.030270 0.318474 0.947448  0.006007 0.095743 1 0 1.000000
0  -113.731194 12.824991 17.922432  -0.029892 0.291297 0.956166  0.006007 0.095743 1 0 1.000000
0  -113.104813 16.377296 17.922436  -0.127728 -0.263510 0.956163  0.006007 0.095743 1 0 1.000000
sirens
0  -113.731194 12.824991 17.922432  -0.029892 0.291297 0.956166  0.006007 0.095743 1 0 1.000000
0  -114.010231 12.850562 17.899162  -0.030270 0.318474 0.947448  0.006007 0.095743 1 0 1.000000
0  -114.032448 12.724513 17.992249  0.060409 0.881675 0.467974  0.006007 0.095743 1 0 1.000000
sirens
0  -114.032448 12.724513 17.992249  0.060409 0.881675 0.467974  0.006007 0.095743 1 0 1.000000
0  -113.753410 12.698941 18.003883  0.064742 0.883021 0.464846  0.006007 0.095743 1 0 1.000000
0  -113.731194 12.824991 17.922432  -0.029892 0.291297 0.956166  0.006007 0.095743 1 0 1.000000
sirens
0  -113.753410 12.698941 18.003883  0.064742 0.883021 0.464846  0.006007 0.095743 1 0 1.000000
0  -114.032448 12.724513 17.992249  0.060409 0.881675 0.467974  0.006007 0.095743 1 0 1.000000
0  -114.032448 12.724513 19.632900  0.064722 0.882932 -0.465018  0.006007 0.095743 1 0 1.000000
sirens
0  -113.247086 16.709581 19.714355  -0.361651 0.845757 0.392305  0.006007 0.095743 1 0 1.000000
0  -113.247086 16.709581 17.899166  -0.362719 0.844996 -0.392960  0.006007 0.095743 1 0 1.000000
0  -113.353561 16.574757 17.992252  -0.826444 0.528377 -0.194446  0.006007 0.095743 1 0 1.000000
sirens
0  -113.353561 16.574757 17.992252  -0.826444 0.528377 -0.194446  0.006007 0.095743 1 0 1.000000
0  -113.353561 16.574757 19.632904  -0.827560 0.528398 0.189580  0.006007 0.095743 1 0 1.000000
0  -113.247086 16.709581 19.714355  -0.361651 0.845757 0.392305  0.006007 0.095743 1 0 1.000000
sirens
0  -113.269295 16.583530 19.807442  -0.422515 0.370471 0.827183  0.006007 0.095743 1 0 1.000000
0  -113.247086 16.709581 19.714355  -0.361651 0.845757 0.392305  0.006007 0.095743 1 0 1.000000
0  -113.353561 16.574757 19.632904  -0.827560 0.528398 0.189580  0.006007 0.095743 1 0 1.000000
sirens
0  -113.353561 16.574757 19.632904  -0.827560 0.528398 0.189580  0.006007 0.095743 1 0 1.000000
0  -113.375771 16.448704 19.714355  -0.781956 0.226899 0.580570  0.006007 0.095743 1 0 1.000000
0  -113.269295 16.583530 19.807442  -0.422515 0.370471 0.827183  0.006007 0.095743 1 0 1.000000
sirens
0  -113.269295 16.583530 19.807442  -0.422515 0.370471 0.827183  0.006007 0.095743 1 0 1.000000
0  -113.375771 16.448704 19.714355  -0.781956 0.226899 0.580570  0.006007 0.095743 1 0 1.000000
0  -114.010231 12.850562 19.714352  -0.812428 0.054169 0.580540  0.006007 0.095743 1 0 1.000000
sirens
0  -114.010231 12.850562 19.714352  -0.812428 0.054169 0.580540  0.006007 0.095743 1 0 1.000000
0  -113.956284 12.687452 19.807438  -0.523755 -0.203759 0.827141  0.006007 0.095743 1 0 1.000000
0  -113.269295 16.583530 19.807442  -0.422515 0.370471 0.827183  0.006007 0.095743 1 0 1.000000
sirens
0  -113.956284 12.687452 19.807438  -0.523755 -0.203759 0.827141  0.006007 0.095743 1 0 1.000000
0  -114.010231 12.850562 19.714352  -0.812428 0.054169 0.580540  0.006007 0.095743 1 0 1.000000
0  -114.032448 12.724513 19.632900  -0.958394 -0.213483 0.189487  0.006007 0.095743 1 0 1.000000
sirens
0  -114.032448 12.724513 19.632900  -0.958394 -0.213483 0.189487  0.006007 0.095743 1 0 1.000000
0  -113.980537 12.549944 19.714352  -0.629081 -0.671233 0.392051  0.006007 0.095743 1 0 1.000000
0  -113.956284 12.687452 19.807438  -0.523755 -0.203759 0.827141  0.006007 0.095743 1 0 1.000000
sirens
0  -113.980537 12.549944 19.714352  -0.629081 -0.671233 0.392051  0.006007 0.095743 1 0 1.000000
0  -114.032448 12.724513 19.632900  -0.958394 -0.213483 0.189487  0.006007 0.095743 1 0 1.000000
0  -114.032448 12.724513 17.992249  -0.957362 -0.213856 -0.194227  0.006007 0.095743 1 0 1.000000
sirens
0  -114.032448 12.724513 17.992249  -0.957362 -0.213856 -0.194227  0.006007 0.095743 1 0 1.000000
0  -113.980537 12.549944 17.899162  -0.629751 -0.670072 -0.392959  0.006007 0.095743 1 0 1.000000
0  -113.980537 12.549944 19.714352  -0.629081 -0.671233 0.392051  0.006007 0.095743 1 0 1.000000
sirens
0  -113.980537 12.549944 17.899162  -0.629751 -0.670072 -0.392959  0.006007 0.095743 1 0 1.000000
0  -114.032448 12.724513 17.992249  -0.957362 -0.213856 -0.194227  0.006007 0.095743 1 0 1.000000
0  -114.010231 12.850562 17.899162  -0.812354 0.052315 -0.580813  0.006007 0.095743 1 0 1.000000
sirens
0  -114.010231 12.850562 17.899162  -0.812354 0.052315 -0.580813  0.006007 0.095743 1 0 1.000000
0  -113.956284 12.687452 17.806076  -0.525868 -0.203276 -0.825919  0.006007 0.095743 1 0 1.000000
0  -113.980537 12.549944 17.899162  -0.629751 -0.670072 -0.392959  0.006007 0.095743 1 0 1.000000
sirens
0  -113.956284 12.687452 17.806076  -0.525868 -0.203276 -0.825919  0.006007 0.095743 1 0 1.000000
0  -114.010231 12.850562 17.899162  -0.812354 0.052315 -0.580813  0.006007 0.095743 1 0 1.000000
0  -113.375771 16.448704 17.899166  -0.781243 0.228661 -0.580839  0.006007 0.095743 1 0 1.000000
sirens
0  -113.375771 16.448704 17.899166  -0.781243 0.228661 -0.580839  0.006007 0.095743 1 0 1.000000
0  -113.269295 16.583530 17.806080  -0.424690 0.370877 -0.825887  0.006007 0.095743 1 0 1.000000
0  -113.956284 12.687452 17.806076  -0.525868 -0.203276 -0.825919  0.006007 0.095743 1 0 1.000000
sirens
0  -113.247086 16.709581 17.899166  -0.362719 0.844996 -0.392960  0.006007 0.095743 1 0 1.000000
0  -113.269295 16.583530 17.806080  -0.424690 0.370877 -0.825887  0.006007 0.095743 1 0 1.000000
0  -113.375771 16.448704 17.899166  -0.781243 0.228661 -0.580839  0.006007 0.095743 1 0 1.000000
sirens
0  -112.204987 16.454941 17.771172  0.013293 0.322358 -0.946525  0.006007 0.095743 1 0 1.000000
0  -113.269295 16.583530 17.806080  -0.424690 0.370877 -0.825887  0.006007 0.095743 1 0 1.000000
0  -113.247086 16.709581 17.899166  -0.362719 0.844996 -0.392960  0.006007 0.095743 1 0 1.000000
sirens
0  -113.247086 16.709581 17.899166  -0.362719 0.844996 -0.392960  0.006007 0.095743 1 0 1.000000
0  -112.180733 16.592449 17.875893  0.093713 0.888523 -0.449160  0.006007 0.095743 1 0 1.000000
0  -112.204987 16.454941 17.771172  0.013293 0.322358 -0.946525  0.006007 0.095743 1 0 1.000000
sirens
0  -112.180733 16.592445 19.737625  0.093519 0.888774 0.448704  0.006007 0.095743 1 0 1.000000
0  -112.180733 16.592449 17.875893  0.093713 0.888523 -0.449160  0.006007 0.095743 1 0 1.000000
0  -113.247086 16.709581 17.899166  -0.362719 0.844996 -0.392960  0.006007 0.095743 1 0 1.000000
sirens
0  -113.375771 16.448704 17.899166  -0.781243 0.228661 -0.580839  0.006007 0.095743 1 0 1.000000
0  -113.353561 16.574757 17.992252  -0.826444 0.528377 -0.194446  0.006007 0.095743 1 0 1.000000
0  -113.247086 16.709581 17.899166  -0.362719 0.844996 -0.392960  0.006007 0.095743 1 0 1.000000
sirens
0  -113.247086 16.709581 17.899166  -0.362719 0.844996 -0.392960  0.006007 0.095743 1 0 1.000000
0  -113.247086 16.709581 19.714355  -0.361651 0.845757 0.392305  0.006007 0.095743 1 0 1.000000
0  -112.180733 16.592445 19.737625  0.093519 0.888774 0.448704  0.006007 0.095743 1 0 1.000000
sirens
0  -112.180733 16.592445 19.737625  0.093519 0.888774 0.448704  0.006007 0.095743 1 0 1.000000
0  -113.247086 16.709581 19.714355  -0.361651 0.845757 0.392305  0.006007 0.095743 1 0 1.000000
0  -113.269295 16.583530 19.807442  -0.422515 0.370471 0.827183  0.006007 0.095743 1 0 1.000000
sirens
0  -113.269295 16.583530 19.807442  -0.422515 0.370471 0.827183  0.006007 0.095743 1 0 1.000000
0  -112.204987 16.454939 19.842346  0.013056 0.323319 0.946200  0.006007 0.095743 1 0 1.000000
0  -112.180733 16.592445 19.737625  0.093519 0.888774 0.448704  0.006007 0.095743 1 0 1.000000
sirens
0  -112.204987 16.454939 19.842346  0.013056 0.323319 0.946200  0.006007 0.095743 1 0 1.000000
0  -113.269295 16.583530 19.807442  -0.422515 0.370471 0.827183  0.006007 0.095743 1 0 1.000000
0  -113.956284 12.687452 19.807438  -0.523755 -0.203759 0.827141  0.006007 0.095743 1 0 1.000000
sirens
0  -113.956284 12.687452 19.807438  -0.523755 -0.203759 0.827141  0.006007 0.095743 1 0 1.000000
0  -112.912178 12.444270 19.842346  -0.098183 -0.308260 0.946222  0.006007 0.095743 1 0 1.000000
0  -112.204987 16.454939 19.842346  0.013056 0.323319 0.946200  0.006007 0.095743 1 0 1.000000
sirens
0  -112.936409 12.306760 19.737625  -0.216532 -0.867675 0.447498  0.006007 0.095743 1 0 1.000000
0  -112.912178 12.444270 19.842346  -0.098183 -0.308260 0.946222  0.006007 0.095743 1 0 1.000000
0  -113.956284 12.687452 19.807438  -0.523755 -0.203759 0.827141  0.006007 0.095743 1 0 1.000000
sirens
0  -113.956284 12.687452 19.807438  -0.523755 -0.203759 0.827141  0.006007 0.095743 1 0 1.000000
0  -113.980537 12.549944 19.714352  -0.629081 -0.671233 0.392051  0.006007 0.095743 1 0 1.000000
0  -112.936409 12.306760 19.737625  -0.216532 -0.867675 0.447498  0.006007 0.095743 1 0 1.000000
sirens
0  -112.936409 12.306760 19.737625  -0.216532 -0.867675 0.447498  0.006007 0.095743 1 0 1.000000
0  -113.980537 12.549944 19.714352  -0.629081 -0.671233 0.392051  0.006007 0.095743 1 0 1.000000
0  -113.980537 12.549944 17.899162  -0.629751 -0.670072 -0.392959  0.006007 0.095743 1 0 1.000000
sirens
0  -113.980537 12.549944 17.899162  -0.629751 -0.670072 -0.392959  0.006007 0.095743 1 0 1.000000
0  -112.936409 12.306760 17.875889  -0.215814 -0.867001 -0.449148  0.006007 0.095743 1 0 1.000000
0  -112.936409 12.306760 19.737625  -0.216532 -0.867675 0.447498  0.006007 0.095743 1 0 1.000000
sirens
0  -112.912178 12.444270 17.771168  -0.098030 -0.307692 -0.946423  0.006007 0.095743 1 0 1.000000
0  -112.936409 12.306760 17.875889  -0.215814 -0.867001 -0.449148  0.006007 0.095743 1 0 1.000000
0  -113.980537 12.549944 17.899162  -0.629751 -0.670072 -0.392959  0.006007 0.095743 1 0 1.000000
sirens
0  -113.980537 12.549944 17.899162  -0.629751 -0.670072 -0.392959  0.006007 0.095743 1 0 1.000000
0  -113.956284 12.687452 17.806076  -0.525868 -0.203276 -0.825919  0.006007 0.095743 1 0 1.000000
0  -112.912178 12.444270 17.771168  -0.098030 -0.307692 -0.946423  0.006007 0.095743 1 0 1.000000
sirens
0  -112.204987 16.454941 17.771172  0.013293 0.322358 -0.946525  0.006007 0.095743 1 0 1.000000
0  -112.912178 12.444270 17.771168  -0.098030 -0.307692 -0.946423  0.006007 0.095743 1 0 1.000000
0  -113.956284 12.687452 17.806076  -0.525868 -0.203276 -0.825919  0.006007 0.095743 1 0 1.000000
sirens
0  -113.956284 12.687452 17.806076  -0.525868 -0.203276 -0.825919  0.006007 0.095743 1 0 1.000000
0  -113.269295 16.583530 17.806080  -0.424690 0.370877 -0.825887  0.006007 0.095743 1 0 1.000000
0  -112.204987 16.454941 17.771172  0.013293 0.322358 -0.946525  0.006007 0.095743 1 0 1.000000
sirens
0  -113.731194 12.824991 17.922432  -0.984811 0.173629 0.000004  0.438490 0.003876 1 0 1.000000
0  -113.753410 12.698941 18.003883  -0.984820 0.173581 0.000000  0.452162 0.017548 1 0 1.000000
0  -113.753410 12.698941 19.609631  -0.984813 0.173621 -0.000028  0.452162 0.251930 1 0 1.000000
sirens
0  -113.731194 12.824991 17.922432  -0.984811 0.173629 0.000004  0.438490 0.003876 1 0 1.000000
0  -113.753410 12.698941 19.609631  -0.984813 0.173621 -0.000028  0.452162 0.251930 1 0 1.000000
0  -113.104813 16.377296 17.922436  -0.984814 0.173615 0.000000  0.045900 0.003876 1 0 1.000000
sirens
0  -113.753410 12.698941 19.609631  -0.984813 0.173621 -0.000028  0.452162 0.251930 1 0 1.000000
0  -113.731194 12.824991 19.702717  -0.984816 0.173601 -0.000053  0.438490 0.264626 1 0 1.000000
0  -113.104813 16.377296 17.922436  -0.984814 0.173615 0.000000  0.045900 0.003876 1 0 1.000000
sirens
0  -113.731194 12.824991 19.702717  -0.984816 0.173601 -0.000053  0.438490 0.264626 1 0 1.000000
0  -113.104813 16.377296 19.702717  -0.984812 0.173623 0.000000  0.045900 0.264626 1 0 1.000000
0  -113.104813 16.377296 17.922436  -0.984814 0.173615 0.000000  0.045900 0.003876 1 0 1.000000
sirens
0  -113.104813 16.377296 19.702717  -0.984812 0.173623 0.000000  0.045900 0.264626 1 0 1.000000
0  -113.082596 16.503345 19.609631  -0.984821 0.173573 0.000000  0.031251 0.251930 1 0 1.000000
0  -113.104813 16.377296 17.922436  -0.984814 0.173615 0.000000  0.045900 0.003876 1 0 1.000000
sirens
0  -113.082596 16.503345 19.609631  -0.984821 0.173573 0.000000  0.031251 0.251930 1 0 1.000000
0  -113.082596 16.503345 18.003887  -0.984824 0.173555 0.000000  0.031251 0.017548 1 0 1.000000
0  -113.104813 16.377296 17.922436  -0.984814 0.173615 0.000000  0.045900 0.003876 1 0 1.000000
end
