version 1
nodes
0 "root" -1
end
skeleton
time 0
0  0.000000 0.000000 0.000000  0.000000 -0.000000 0.000000
end
triangles
misc
0  11.872943 3.030947 104.751747  0.001457 0.999901 0.013991  0.974869 0.214574 1 0 1.000000
0  19.248508 3.020258 104.747551  0.001445 0.999900 0.014065  0.770508 0.214574 1 0 1.000000
0  11.875648 3.047769 103.549248  0.001456 0.999901 0.014000  0.974869 0.183232 1 0 1.000000
misc
0  19.251802 3.037081 103.552002  0.001172 0.922759 0.385376  0.770508 0.183232 1 0 1.000000
0  11.875648 3.047769 103.549248  0.001456 0.999901 0.014000  0.974869 0.183232 1 0 1.000000
0  19.248508 3.020258 104.747551  0.001445 0.999900 0.014065  0.770508 0.214574 1 0 1.000000
misc
0  19.251802 3.037081 103.552002  0.001131 0.922687 0.385549  0.770508 0.183232 1 0 1.000000
0  20.194344 3.642097 102.937424  0.000287 0.715335 0.698781  0.758888 0.153325 1 0 1.000000
0  11.875648 3.047769 103.549248  0.000277 0.715402 0.698713  0.974869 0.183232 1 0 1.000000
misc
0  10.920612 3.642097 102.934624  -0.000209 0.718713 0.695306  0.989883 0.153203 1 0 1.000000
0  11.875648 3.047769 103.549248  0.000277 0.715402 0.698713  0.974869 0.183232 1 0 1.000000
0  20.194344 3.642097 102.937424  0.000287 0.715335 0.698781  0.758888 0.153325 1 0 1.000000
misc
0  1.487451 3.030946 104.751747  0.001457 0.999901 0.013991  0.974869 0.214574 1 0 1.000000
0  8.863014 3.020258 104.747551  0.001445 0.999900 0.014065  0.770508 0.214574 1 0 1.000000
0  1.490112 3.047768 103.549248  0.001456 0.999901 0.014000  0.974869 0.183232 1 0 1.000000
misc
0  8.866306 3.037080 103.552002  0.001173 0.922759 0.385376  0.770508 0.183232 1 0 1.000000
0  1.490112 3.047768 103.549248  0.001456 0.999901 0.014000  0.974869 0.183232 1 0 1.000000
0  8.863014 3.020258 104.747551  0.001445 0.999900 0.014065  0.770508 0.214574 1 0 1.000000
misc
0  8.866306 3.037080 103.552002  0.001132 0.922687 0.385549  0.770508 0.183232 1 0 1.000000
0  9.808853 3.642097 102.937424  0.000281 0.715369 0.698747  0.758888 0.153325 1 0 1.000000
0  1.490112 3.047768 103.549248  0.000283 0.715369 0.698747  0.974869 0.183232 1 0 1.000000
misc
0  0.535119 3.642096 102.934624  -0.000209 0.718713 0.695306  0.989883 0.153203 1 0 1.000000
0  1.490112 3.047768 103.549248  0.000283 0.715369 0.698747  0.974869 0.183232 1 0 1.000000
0  9.808853 3.642097 102.937424  0.000281 0.715369 0.698747  0.758888 0.153325 1 0 1.000000
misc
0  -1.487436 3.030946 104.751747  -0.001457 0.999901 0.013991  0.974869 0.214574 1 0 1.000000
0  -1.490096 3.047768 103.549248  -0.001456 0.999901 0.014000  0.974869 0.183232 1 0 1.000000
0  -8.862999 3.020256 104.747551  -0.001445 0.999900 0.014066  0.770508 0.214574 1 0 1.000000
misc
0  -8.862999 3.020256 104.747551  -0.001445 0.999900 0.014066  0.770508 0.214574 1 0 1.000000
0  -1.490096 3.047768 103.549248  -0.001456 0.999901 0.014000  0.974869 0.183232 1 0 1.000000
0  -8.866291 3.037079 103.552002  -0.000315 0.922760 0.385376  0.770508 0.183232 1 0 1.000000
misc
0  -8.866291 3.037079 103.552002  -0.000324 0.922687 0.385549  0.770508 0.183232 1 0 1.000000
0  -1.490096 3.047768 103.549248  -0.000282 0.715379 0.698736  0.974869 0.183232 1 0 1.000000
0  -9.808838 3.642095 102.937424  -0.000290 0.715313 0.698805  0.758888 0.153325 1 0 1.000000
misc
0  -0.535104 3.642096 102.934624  0.000210 0.718714 0.695306  0.989883 0.153203 1 0 1.000000
0  -9.808838 3.642095 102.937424  -0.000289 0.715323 0.698794  0.758888 0.153325 1 0 1.000000
0  -1.490096 3.047768 103.549248  -0.000280 0.715390 0.698726  0.974869 0.183232 1 0 1.000000
misc
0  -11.872928 3.030945 104.751747  -0.001457 0.999901 0.013991  0.974869 0.214574 1 0 1.000000
0  -11.875633 3.047767 103.549248  -0.001456 0.999901 0.013999  0.974869 0.183232 1 0 1.000000
0  -19.248493 3.020256 104.747551  -0.001445 0.999900 0.014064  0.770508 0.214574 1 0 1.000000
misc
0  -19.248493 3.020256 104.747551  -0.001445 0.999900 0.014064  0.770508 0.214574 1 0 1.000000
0  -11.875633 3.047767 103.549248  -0.001456 0.999901 0.013999  0.974869 0.183232 1 0 1.000000
0  -19.251787 3.037078 103.552002  -0.000314 0.922760 0.385374  0.770508 0.183232 1 0 1.000000
misc
0  -19.251787 3.037078 103.552002  -0.000323 0.922687 0.385550  0.770508 0.183232 1 0 1.000000
0  -11.875633 3.047767 103.549248  -0.000277 0.715412 0.698703  0.974869 0.183232 1 0 1.000000
0  -20.194328 3.642094 102.937424  -0.000290 0.715312 0.698805  0.758888 0.153325 1 0 1.000000
misc
0  -10.920597 3.642095 102.934624  0.000210 0.718713 0.695306  0.989883 0.153203 1 0 1.000000
0  -20.194328 3.642094 102.937424  -0.000289 0.715323 0.698794  0.758888 0.153325 1 0 1.000000
0  -11.875633 3.047767 103.549248  -0.000275 0.715423 0.698692  0.974869 0.183232 1 0 1.000000
misc
0  -20.290348 -12.873888 103.547722  -0.001187 -0.922486 0.386028  0.770508 0.183232 1 0 1.000000
0  -21.579081 -13.478905 102.933983  -0.000230 -0.715196 0.698924  0.758888 0.153325 1 0 1.000000
0  -12.914152 -12.884621 103.544968  -0.000231 -0.715190 0.698930  0.974869 0.183232 1 0 1.000000
misc
0  -11.612971 -13.478949 102.929527  0.000308 -0.719012 0.694997  0.989883 0.153203 1 0 1.000000
0  -12.914152 -12.884621 103.544968  -0.000231 -0.715190 0.698930  0.974869 0.183232 1 0 1.000000
0  -21.579081 -13.478905 102.933983  -0.000230 -0.715196 0.698924  0.758888 0.153325 1 0 1.000000
misc
0  -12.914152 -12.884621 103.544968  -0.001462 -0.999901 0.013998  0.974869 0.183232 1 0 1.000000
0  -12.911490 -12.867799 104.747467  -0.001463 -0.999901 0.013989  0.974869 0.214574 1 0 1.000000
0  -20.287054 -12.857065 104.743317  -0.001451 -0.999900 0.014064  0.770508 0.214574 1 0 1.000000
misc
0  -20.287054 -12.857065 104.743317  -0.001451 -0.999900 0.014064  0.770508 0.214574 1 0 1.000000
0  -20.290348 -12.873888 103.547722  -0.001177 -0.922556 0.385862  0.770508 0.183232 1 0 1.000000
0  -12.914152 -12.884621 103.544968  -0.001462 -0.999901 0.013998  0.974869 0.183232 1 0 1.000000
misc
0  -9.212479 -12.873933 103.546043  -0.001178 -0.922485 0.386031  0.770508 0.183232 1 0 1.000000
0  -10.501166 -13.478949 102.932327  -0.000234 -0.715126 0.698995  0.758888 0.153325 1 0 1.000000
0  -1.836283 -12.884620 103.543251  -0.000225 -0.715181 0.698940  0.974869 0.183232 1 0 1.000000
misc
0  -0.535103 -13.478948 102.927811  0.000314 -0.719003 0.695007  0.989883 0.153203 1 0 1.000000
0  -1.836283 -12.884620 103.543251  -0.000225 -0.715181 0.698940  0.974869 0.183232 1 0 1.000000
0  -10.501166 -13.478949 102.932327  -0.000234 -0.715126 0.698995  0.758888 0.153325 1 0 1.000000
misc
0  -1.836283 -12.884620 103.543251  -0.001461 -0.999901 0.014004  0.974869 0.183232 1 0 1.000000
0  -1.833622 -12.867798 104.745743  -0.001463 -0.999901 0.013991  0.974869 0.214574 1 0 1.000000
0  -9.209187 -12.857064 104.741592  -0.001445 -0.999900 0.014102  0.770508 0.214574 1 0 1.000000
misc
0  -9.209187 -12.857064 104.741592  -0.001445 -0.999900 0.014102  0.770508 0.214574 1 0 1.000000
0  -9.212479 -12.873933 103.546043  -0.001172 -0.922558 0.385856  0.770508 0.183232 1 0 1.000000
0  -1.836283 -12.884620 103.543251  -0.001461 -0.999901 0.014004  0.974869 0.183232 1 0 1.000000
misc
0  9.212496 -12.873931 103.546043  0.000328 -0.922485 0.386033  0.770508 0.183232 1 0 1.000000
0  1.836301 -12.884620 103.543251  0.000225 -0.715179 0.698942  0.974869 0.183232 1 0 1.000000
0  10.501184 -13.478947 102.932327  0.000232 -0.715146 0.698976  0.758888 0.153325 1 0 1.000000
misc
0  0.535120 -13.478948 102.927811  -0.000315 -0.719006 0.695004  0.989883 0.153203 1 0 1.000000
0  10.501184 -13.478947 102.932327  0.000231 -0.715149 0.698972  0.758888 0.153325 1 0 1.000000
0  1.836301 -12.884620 103.543251  0.000224 -0.715182 0.698938  0.974869 0.183232 1 0 1.000000
misc
0  1.836301 -12.884620 103.543251  0.001461 -0.999901 0.014003  0.974869 0.183232 1 0 1.000000
0  9.209204 -12.857062 104.741592  0.001446 -0.999900 0.014100  0.770508 0.214574 1 0 1.000000
0  1.833640 -12.867798 104.745743  0.001463 -0.999901 0.013991  0.974869 0.214574 1 0 1.000000
misc
0  9.212496 -12.873931 103.546043  0.000313 -0.922560 0.385853  0.770508 0.183232 1 0 1.000000
0  9.209204 -12.857062 104.741592  0.001446 -0.999900 0.014100  0.770508 0.214574 1 0 1.000000
0  1.836301 -12.884620 103.543251  0.001461 -0.999901 0.014003  0.974869 0.183232 1 0 1.000000
misc
0  20.290367 -12.873884 103.547722  0.000305 -0.922487 0.386027  0.770508 0.183232 1 0 1.000000
0  12.914169 -12.884619 103.544968  0.000233 -0.715184 0.698936  0.974869 0.183232 1 0 1.000000
0  21.579100 -13.478901 102.933983  0.000231 -0.715184 0.698937  0.758888 0.153325 1 0 1.000000
misc
0  11.612988 -13.478947 102.929527  -0.000307 -0.719012 0.694997  0.989883 0.153203 1 0 1.000000
0  21.579100 -13.478901 102.933983  0.000231 -0.715189 0.698932  0.758888 0.153325 1 0 1.000000
0  12.914169 -12.884619 103.544968  0.000232 -0.715189 0.698932  0.974869 0.183232 1 0 1.000000
misc
0  12.914169 -12.884619 103.544968  0.001462 -0.999901 0.014001  0.974869 0.183232 1 0 1.000000
0  20.287073 -12.857061 104.743317  0.001451 -0.999900 0.014064  0.770508 0.214574 1 0 1.000000
0  12.911508 -12.867797 104.747467  0.001463 -0.999901 0.013993  0.974869 0.214574 1 0 1.000000
misc
0  20.290367 -12.873884 103.547722  0.000318 -0.922557 0.385860  0.770508 0.183232 1 0 1.000000
0  20.287073 -12.857061 104.743317  0.001451 -0.999900 0.014064  0.770508 0.214574 1 0 1.000000
0  12.914169 -12.884619 103.544968  0.001462 -0.999901 0.014001  0.974869 0.183232 1 0 1.000000
misc
0  12.911508 -12.867797 104.747467  0.427356 -0.903981 0.013592  0.974869 0.214574 1 0 1.000000
0  11.612945 -13.478947 104.930214  0.421384 -0.906857 0.006744  0.989883 0.235250 1 0 1.000000
0  12.914169 -12.884619 103.544968  0.421441 -0.906830 0.006809  0.974869 0.183232 1 0 1.000000
misc
0  12.914169 -12.884619 103.544968  0.421441 -0.906830 0.006809  0.974869 0.183232 1 0 1.000000
0  11.612945 -13.478947 104.930214  0.421384 -0.906857 0.006744  0.989883 0.235250 1 0 1.000000
0  11.612988 -13.478947 102.929527  0.415471 -0.909606 0.000008  0.989883 0.153203 1 0 1.000000
misc
0  20.287073 -12.857061 104.743317  -0.435630 -0.900053 0.011465  0.770508 0.214574 1 0 1.000000
0  20.290367 -12.873884 103.547722  -0.430311 -0.902664 0.005392  0.770508 0.183232 1 0 1.000000
0  21.576979 -13.478946 104.934822  -0.429830 -0.902897 0.004842  0.758888 0.235295 1 0 1.000000
misc
0  20.290367 -12.873884 103.547722  -0.430317 -0.902661 0.005399  0.770508 0.183232 1 0 1.000000
0  21.579100 -13.478901 102.933983  -0.425150 -0.905123 -0.000470  0.758888 0.153325 1 0 1.000000
0  21.576979 -13.478946 104.934822  -0.429836 -0.902894 0.004849  0.758888 0.235295 1 0 1.000000
misc
0  1.833640 -12.867798 104.745743  0.427374 -0.903973 0.013594  0.974869 0.214574 1 0 1.000000
0  0.535030 -13.478993 104.928497  0.420997 -0.907040 0.006290  0.989883 0.235250 1 0 1.000000
0  1.836301 -12.884620 103.543251  0.421356 -0.906871 0.006701  0.974869 0.183232 1 0 1.000000
misc
0  1.836301 -12.884620 103.543251  0.421356 -0.906871 0.006701  0.974869 0.183232 1 0 1.000000
0  0.535030 -13.478993 104.928497  0.420997 -0.907040 0.006290  0.989883 0.235250 1 0 1.000000
0  0.535120 -13.478948 102.927811  0.415469 -0.909607 -0.000003  0.989883 0.153203 1 0 1.000000
misc
0  9.209204 -12.857062 104.741592  -0.435634 -0.900051 0.011499  0.770508 0.214574 1 0 1.000000
0  9.212496 -12.873931 103.546043  -0.430224 -0.902706 0.005323  0.770508 0.183232 1 0 1.000000
0  10.499109 -13.478947 104.933098  -0.430043 -0.902794 0.005117  0.758888 0.235295 1 0 1.000000
misc
0  9.212496 -12.873931 103.546043  -0.430226 -0.902705 0.005326  0.770508 0.183232 1 0 1.000000
0  10.501184 -13.478947 102.932327  -0.425150 -0.905123 -0.000441  0.758888 0.153325 1 0 1.000000
0  10.499109 -13.478947 104.933098  -0.430045 -0.902793 0.005120  0.758888 0.235295 1 0 1.000000
misc
0  1.487451 3.030946 104.751747  0.541808 0.840402 0.012956  0.974869 0.214574 1 0 1.000000
0  1.490112 3.047768 103.549248  0.535066 0.844786 0.006433  0.974869 0.183232 1 0 1.000000
0  0.535029 3.642141 104.935310  0.535317 0.844625 0.006673  0.989883 0.235250 1 0 1.000000
misc
0  1.490112 3.047768 103.549248  0.535073 0.844781 0.006439  0.974869 0.183232 1 0 1.000000
0  0.535119 3.642096 102.934624  0.528369 0.849015 0.000005  0.989883 0.153203 1 0 1.000000
0  0.535029 3.642141 104.935310  0.535324 0.844620 0.006680  0.989883 0.235250 1 0 1.000000
misc
0  9.808853 3.642097 102.937424  -0.540458 0.841371 -0.000592  0.758888 0.153325 1 0 1.000000
0  8.866306 3.037080 103.552002  -0.545933 0.837816 0.004672  0.770508 0.183232 1 0 1.000000
0  9.806732 3.642142 104.938194  -0.546258 0.837602 0.004986  0.758888 0.235295 1 0 1.000000
misc
0  8.863014 3.020258 104.747551  -0.551656 0.834009 0.010216  0.770508 0.214574 1 0 1.000000
0  9.806732 3.642142 104.938194  -0.546258 0.837602 0.004986  0.758888 0.235295 1 0 1.000000
0  8.866306 3.037080 103.552002  -0.545933 0.837816 0.004672  0.770508 0.183232 1 0 1.000000
misc
0  8.863014 3.020258 104.747551  -0.000117 0.293259 -0.956033  0.770508 0.214574 1 0 1.000000
0  1.487451 3.030946 104.751747  0.000092 0.290654 -0.956828  0.974869 0.214574 1 0 1.000000
0  9.806732 3.642142 104.938194  0.000082 0.290745 -0.956801  0.758888 0.235295 1 0 1.000000
misc
0  1.487451 3.030946 104.751747  0.000098 0.290584 -0.956849  0.974869 0.214574 1 0 1.000000
0  0.535029 3.642141 104.935310  0.000299 0.288068 -0.957610  0.989883 0.235250 1 0 1.000000
0  9.806732 3.642142 104.938194  0.000084 0.290721 -0.956808  0.758888 0.235295 1 0 1.000000
misc
0  11.872943 3.030947 104.751747  0.541830 0.840388 0.012975  0.974869 0.214574 1 0 1.000000
0  11.875648 3.047769 103.549248  0.535088 0.844772 0.006452  0.974869 0.183232 1 0 1.000000
0  10.920568 3.642142 104.935310  0.535339 0.844611 0.006693  0.989883 0.235250 1 0 1.000000
misc
0  11.875648 3.047769 103.549248  0.535094 0.844768 0.006457  0.974869 0.183232 1 0 1.000000
0  10.920612 3.642097 102.934624  0.528359 0.849021 -0.000007  0.989883 0.153203 1 0 1.000000
0  10.920568 3.642142 104.935310  0.535344 0.844607 0.006699  0.989883 0.235250 1 0 1.000000
misc
0  20.194344 3.642097 102.937424  -0.540455 0.841373 -0.000579  0.758888 0.153325 1 0 1.000000
0  19.251802 3.037081 103.552002  -0.546050 0.837739 0.004803  0.770508 0.183232 1 0 1.000000
0  20.192270 3.642143 104.938194  -0.546248 0.837609 0.004992  0.758888 0.235295 1 0 1.000000
misc
0  19.248508 3.020258 104.747551  -0.551639 0.834020 0.010216  0.770508 0.214574 1 0 1.000000
0  20.192270 3.642143 104.938194  -0.546248 0.837609 0.004992  0.758888 0.235295 1 0 1.000000
0  19.251802 3.037081 103.552002  -0.546050 0.837739 0.004803  0.770508 0.183232 1 0 1.000000
misc
0  19.248508 3.020258 104.747551  -0.000121 0.293259 -0.956033  0.770508 0.214574 1 0 1.000000
0  11.872943 3.030947 104.751747  0.000108 0.290425 -0.956898  0.974869 0.214574 1 0 1.000000
0  20.192270 3.642143 104.938194  0.000059 0.291019 -0.956717  0.758888 0.235295 1 0 1.000000
misc
0  11.872943 3.030947 104.751747  0.000106 0.290447 -0.956891  0.974869 0.214574 1 0 1.000000
0  10.920568 3.642142 104.935310  0.000299 0.288068 -0.957610  0.989883 0.235250 1 0 1.000000
0  20.192270 3.642143 104.938194  0.000065 0.290950 -0.956738  0.758888 0.235295 1 0 1.000000
misc
0  -0.535103 -13.478948 102.927811  -0.415469 -0.909607 -0.000003  0.989883 0.153203 1 0 1.000000
0  -0.535012 -13.478993 104.928497  -0.420976 -0.907050 0.006264  0.989883 0.235250 1 0 1.000000
0  -1.836283 -12.884620 103.543251  -0.421307 -0.906894 0.006642  0.974869 0.183232 1 0 1.000000
misc
0  -1.836283 -12.884620 103.543251  -0.421334 -0.906881 0.006673  0.974869 0.183232 1 0 1.000000
0  -0.535012 -13.478993 104.928497  -0.420972 -0.907052 0.006259  0.989883 0.235250 1 0 1.000000
0  -1.833622 -12.867798 104.745743  -0.427374 -0.903973 0.013594  0.974869 0.214574 1 0 1.000000
misc
0  -9.209187 -12.857064 104.741592  0.000108 -0.294513 -0.955648  0.770508 0.214574 1 0 1.000000
0  -1.833622 -12.867798 104.745743  -0.000168 -0.290901 -0.956753  0.974869 0.214574 1 0 1.000000
0  -10.499092 -13.478949 104.933098  -0.000157 -0.291038 -0.956711  0.758888 0.235295 1 0 1.000000
misc
0  -1.833622 -12.867798 104.745743  -0.000167 -0.290914 -0.956749  0.974869 0.214574 1 0 1.000000
0  -0.535012 -13.478993 104.928497  -0.000443 -0.287344 -0.957827  0.989883 0.235250 1 0 1.000000
0  -10.499092 -13.478949 104.933098  -0.000156 -0.291051 -0.956707  0.758888 0.235295 1 0 1.000000
misc
0  -11.612971 -13.478949 102.929527  -0.415471 -0.909607 0.000009  0.989883 0.153203 1 0 1.000000
0  -11.612927 -13.478949 104.930214  -0.421366 -0.906866 0.006726  0.989883 0.235250 1 0 1.000000
0  -12.914152 -12.884621 103.544968  -0.421337 -0.906880 0.006691  0.974869 0.183232 1 0 1.000000
misc
0  -12.914152 -12.884621 103.544968  -0.421347 -0.906875 0.006702  0.974869 0.183232 1 0 1.000000
0  -11.612927 -13.478949 104.930214  -0.421376 -0.906861 0.006738  0.989883 0.235250 1 0 1.000000
0  -12.911490 -12.867799 104.747467  -0.427356 -0.903981 0.013590  0.974869 0.214574 1 0 1.000000
misc
0  -20.287054 -12.857065 104.743317  0.000108 -0.294514 -0.955647  0.770508 0.214574 1 0 1.000000
0  -12.911490 -12.867799 104.747467  -0.000174 -0.290810 -0.956781  0.974869 0.214574 1 0 1.000000
0  -21.576960 -13.478950 104.934822  -0.000150 -0.291177 -0.956669  0.758888 0.235295 1 0 1.000000
misc
0  -12.911490 -12.867799 104.747467  -0.000172 -0.290830 -0.956775  0.974869 0.214574 1 0 1.000000
0  -11.612927 -13.478949 104.930214  -0.000441 -0.287352 -0.957825  0.989883 0.235250 1 0 1.000000
0  -21.576960 -13.478950 104.934822  -0.000152 -0.291151 -0.956677  0.758888 0.235295 1 0 1.000000
misc
0  12.911508 -12.867797 104.747467  0.000172 -0.290892 -0.956756  0.974869 0.214574 1 0 1.000000
0  21.576979 -13.478946 104.934822  0.000151 -0.291146 -0.956679  0.758888 0.235295 1 0 1.000000
0  11.612945 -13.478947 104.930214  0.000442 -0.287351 -0.957825  0.989883 0.235250 1 0 1.000000
misc
0  20.287073 -12.857061 104.743317  -0.000108 -0.294512 -0.955648  0.770508 0.214574 1 0 1.000000
0  21.576979 -13.478946 104.934822  0.000151 -0.291146 -0.956679  0.758888 0.235295 1 0 1.000000
0  12.911508 -12.867797 104.747467  0.000172 -0.290892 -0.956756  0.974869 0.214574 1 0 1.000000
misc
0  1.833640 -12.867798 104.745743  0.000180 -0.290795 -0.956785  0.974869 0.214574 1 0 1.000000
0  10.499109 -13.478947 104.933098  0.000159 -0.291009 -0.956720  0.758888 0.235295 1 0 1.000000
0  0.535030 -13.478993 104.928497  0.000443 -0.287345 -0.957827  0.989883 0.235250 1 0 1.000000
misc
0  9.209204 -12.857062 104.741592  -0.000108 -0.294513 -0.955648  0.770508 0.214574 1 0 1.000000
0  10.499109 -13.478947 104.933098  0.000159 -0.291009 -0.956720  0.758888 0.235295 1 0 1.000000
0  1.833640 -12.867798 104.745743  0.000180 -0.290795 -0.956785  0.974869 0.214574 1 0 1.000000
misc
0  -0.535014 3.642141 104.935310  -0.535338 0.844611 0.006694  0.989883 0.235250 1 0 1.000000
0  -1.490096 3.047768 103.549248  -0.535110 0.844758 0.006474  0.974869 0.183232 1 0 1.000000
0  -1.487436 3.030946 104.751747  -0.541807 0.840403 0.012955  0.974869 0.214574 1 0 1.000000
misc
0  -0.535014 3.642141 104.935310  -0.535338 0.844611 0.006694  0.989883 0.235250 1 0 1.000000
0  -0.535104 3.642096 102.934624  -0.528369 0.849015 0.000005  0.989883 0.153203 1 0 1.000000
0  -1.490096 3.047768 103.549248  -0.535110 0.844758 0.006474  0.974869 0.183232 1 0 1.000000
misc
0  -9.806717 3.642140 104.938194  0.546248 0.837609 0.004977  0.758888 0.235295 1 0 1.000000
0  -8.866291 3.037079 103.552002  0.546093 0.837710 0.004825  0.770508 0.183232 1 0 1.000000
0  -9.808838 3.642095 102.937424  0.540460 0.841369 -0.000592  0.758888 0.153325 1 0 1.000000
misc
0  -8.862999 3.020256 104.747551  0.551649 0.834014 0.010217  0.770508 0.214574 1 0 1.000000
0  -8.866291 3.037079 103.552002  0.546092 0.837711 0.004823  0.770508 0.183232 1 0 1.000000
0  -9.806717 3.642140 104.938194  0.546247 0.837610 0.004976  0.758888 0.235295 1 0 1.000000
misc
0  -1.487436 3.030946 104.751747  -0.000114 0.290377 -0.956912  0.974869 0.214574 1 0 1.000000
0  -9.806717 3.642140 104.938194  -0.000061 0.291001 -0.956723  0.758888 0.235295 1 0 1.000000
0  -0.535014 3.642141 104.935310  -0.000298 0.288068 -0.957610  0.989883 0.235250 1 0 1.000000
misc
0  -8.862999 3.020256 104.747551  0.000121 0.293259 -0.956033  0.770508 0.214574 1 0 1.000000
0  -9.806717 3.642140 104.938194  -0.000061 0.291001 -0.956723  0.758888 0.235295 1 0 1.000000
0  -1.487436 3.030946 104.751747  -0.000114 0.290377 -0.956912  0.974869 0.214574 1 0 1.000000
misc
0  -10.920552 3.642140 104.935310  -0.535346 0.844607 0.006699  0.989883 0.235250 1 0 1.000000
0  -11.875633 3.047767 103.549248  -0.535142 0.844737 0.006504  0.974869 0.183232 1 0 1.000000
0  -11.872928 3.030945 104.751747  -0.541830 0.840388 0.012975  0.974869 0.214574 1 0 1.000000
misc
0  -10.920552 3.642140 104.935310  -0.535346 0.844607 0.006699  0.989883 0.235250 1 0 1.000000
0  -10.920597 3.642095 102.934624  -0.528359 0.849021 -0.000007  0.989883 0.153203 1 0 1.000000
0  -11.875633 3.047767 103.549248  -0.535142 0.844737 0.006504  0.974869 0.183232 1 0 1.000000
misc
0  -20.192255 3.642140 104.938194  0.546243 0.837612 0.004988  0.758888 0.235295 1 0 1.000000
0  -19.251787 3.037078 103.552002  0.546087 0.837714 0.004837  0.770508 0.183232 1 0 1.000000
0  -20.194328 3.642094 102.937424  0.540455 0.841373 -0.000579  0.758888 0.153325 1 0 1.000000
misc
0  -19.248493 3.020256 104.747551  0.551634 0.834023 0.010215  0.770508 0.214574 1 0 1.000000
0  -19.251787 3.037078 103.552002  0.546075 0.837722 0.004826  0.770508 0.183232 1 0 1.000000
0  -20.192255 3.642140 104.938194  0.546262 0.837599 0.005006  0.758888 0.235295 1 0 1.000000
misc
0  -11.872928 3.030945 104.751747  -0.000082 0.290743 -0.956801  0.974869 0.214574 1 0 1.000000
0  -20.192255 3.642140 104.938194  -0.000086 0.290681 -0.956820  0.758888 0.235295 1 0 1.000000
0  -10.920552 3.642140 104.935310  -0.000297 0.288068 -0.957610  0.989883 0.235250 1 0 1.000000
misc
0  -19.248493 3.020256 104.747551  0.000121 0.293260 -0.956033  0.770508 0.214574 1 0 1.000000
0  -20.192255 3.642140 104.938194  -0.000086 0.290681 -0.956820  0.758888 0.235295 1 0 1.000000
0  -11.872928 3.030945 104.751747  -0.000082 0.290743 -0.956801  0.974869 0.214574 1 0 1.000000
misc
0  -9.212479 -12.873933 103.546043  0.429844 -0.902890 0.004889  0.770508 0.183232 1 0 1.000000
0  -10.499092 -13.478949 104.933098  0.429829 -0.902897 0.004872  0.758888 0.235295 1 0 1.000000
0  -10.501166 -13.478949 102.932327  0.425150 -0.905123 -0.000440  0.758888 0.153325 1 0 1.000000
misc
0  -9.212479 -12.873933 103.546043  0.429844 -0.902890 0.004889  0.770508 0.183232 1 0 1.000000
0  -9.209187 -12.857064 104.741592  0.435634 -0.900051 0.011499  0.770508 0.214574 1 0 1.000000
0  -10.499092 -13.478949 104.933098  0.429829 -0.902897 0.004872  0.758888 0.235295 1 0 1.000000
misc
0  -20.290348 -12.873888 103.547722  0.430206 -0.902715 0.005269  0.770508 0.183232 1 0 1.000000
0  -21.576960 -13.478950 104.934822  0.430131 -0.902751 0.005184  0.758888 0.235295 1 0 1.000000
0  -21.579081 -13.478905 102.933983  0.425150 -0.905123 -0.000471  0.758888 0.153325 1 0 1.000000
misc
0  -20.290348 -12.873888 103.547722  0.430206 -0.902715 0.005269  0.770508 0.183232 1 0 1.000000
0  -20.287054 -12.857065 104.743317  0.435634 -0.900051 0.011465  0.770508 0.214574 1 0 1.000000
0  -21.576960 -13.478950 104.934822  0.430131 -0.902751 0.005184  0.758888 0.235295 1 0 1.000000
end
