version 1
nodes
0 "root" -1
end
skeleton
time 0
0  0.000000 0.000000 0.000000  0.000000 -0.000000 0.000000
end
triangles
misc
0  32.643932 3.030948 104.751747  0.001457 0.999901 0.013992  0.974869 0.214574 1 0 1.000000
0  40.019543 3.020260 104.747551  0.001445 0.999900 0.014065  0.770508 0.214574 1 0 1.000000
0  32.646637 3.047771 103.549248  0.001456 0.999901 0.014000  0.974869 0.183232 1 0 1.000000
misc
0  40.022835 3.037082 103.552002  0.001173 0.922722 0.385464  0.770508 0.183232 1 0 1.000000
0  32.646637 3.047771 103.549248  0.001456 0.999901 0.014000  0.974869 0.183232 1 0 1.000000
0  40.019543 3.020260 104.747551  0.001445 0.999900 0.014065  0.770508 0.214574 1 0 1.000000
misc
0  40.022835 3.037082 103.552002  0.001131 0.922649 0.385638  0.770508 0.183232 1 0 1.000000
0  40.965378 3.642099 102.937424  0.000276 0.715401 0.698714  0.758888 0.153325 1 0 1.000000
0  32.646637 3.047771 103.549248  0.000283 0.715369 0.698747  0.974869 0.183232 1 0 1.000000
misc
0  31.691641 3.642098 102.934624  -0.000209 0.718714 0.695306  0.989883 0.153203 1 0 1.000000
0  32.646637 3.047771 103.549248  0.000283 0.715369 0.698747  0.974869 0.183232 1 0 1.000000
0  40.965378 3.642099 102.937424  0.000276 0.715401 0.698714  0.758888 0.153325 1 0 1.000000
misc
0  22.258438 3.030947 104.751747  0.001457 0.999901 0.013992  0.974869 0.214574 1 0 1.000000
0  29.634003 3.020259 104.747551  0.001445 0.999900 0.014065  0.770508 0.214574 1 0 1.000000
0  22.261143 3.047770 103.549248  0.001456 0.999901 0.014001  0.974869 0.183232 1 0 1.000000
misc
0  29.637341 3.037081 103.552002  0.001212 0.922722 0.385465  0.770508 0.183232 1 0 1.000000
0  22.261143 3.047770 103.549248  0.001456 0.999901 0.014001  0.974869 0.183232 1 0 1.000000
0  29.634003 3.020259 104.747551  0.001445 0.999900 0.014065  0.770508 0.214574 1 0 1.000000
misc
0  29.637341 3.037081 103.552002  0.001180 0.922649 0.385638  0.770508 0.183232 1 0 1.000000
0  30.579840 3.642098 102.937424  0.000282 0.715368 0.698748  0.758888 0.153325 1 0 1.000000
0  22.261143 3.047770 103.549248  0.000283 0.715370 0.698746  0.974869 0.183232 1 0 1.000000
misc
0  21.306108 3.642097 102.934624  -0.000209 0.718714 0.695306  0.989883 0.153203 1 0 1.000000
0  22.261143 3.047770 103.549248  0.000283 0.715370 0.698746  0.974869 0.183232 1 0 1.000000
0  30.579840 3.642098 102.937424  0.000282 0.715368 0.698748  0.758888 0.153325 1 0 1.000000
misc
0  -22.258423 3.030944 104.751747  -0.001457 0.999901 0.013991  0.974869 0.214574 1 0 1.000000
0  -22.261127 3.047766 103.549248  -0.001456 0.999901 0.013999  0.974869 0.183232 1 0 1.000000
0  -29.633987 3.020255 104.747551  -0.001445 0.999900 0.014065  0.770508 0.214574 1 0 1.000000
misc
0  -29.633987 3.020255 104.747551  -0.001445 0.999900 0.014065  0.770508 0.214574 1 0 1.000000
0  -22.261127 3.047766 103.549248  -0.001456 0.999901 0.013999  0.974869 0.183232 1 0 1.000000
0  -29.637325 3.037077 103.552002  -0.000300 0.922723 0.385463  0.770508 0.183232 1 0 1.000000
misc
0  -29.637325 3.037077 103.552002  -0.000290 0.922650 0.385638  0.770508 0.183232 1 0 1.000000
0  -22.261127 3.047766 103.549248  -0.000277 0.715412 0.698703  0.974869 0.183232 1 0 1.000000
0  -30.579824 3.642093 102.937424  -0.000282 0.715379 0.698737  0.758888 0.153325 1 0 1.000000
misc
0  -21.306093 3.642094 102.934624  0.000210 0.718714 0.695306  0.989883 0.153203 1 0 1.000000
0  -30.579824 3.642093 102.937424  -0.000281 0.715390 0.698726  0.758888 0.153325 1 0 1.000000
0  -22.261127 3.047766 103.549248  -0.000275 0.715423 0.698692  0.974869 0.183232 1 0 1.000000
misc
0  -32.643959 3.030943 104.751747  -0.001457 0.999901 0.013991  0.974869 0.214574 1 0 1.000000
0  -32.646622 3.047766 103.549248  -0.001456 0.999901 0.014000  0.974869 0.183232 1 0 1.000000
0  -40.019527 3.020254 104.747551  -0.001445 0.999900 0.014065  0.770508 0.214574 1 0 1.000000
misc
0  -40.019527 3.020254 104.747551  -0.001445 0.999900 0.014065  0.770508 0.214574 1 0 1.000000
0  -32.646622 3.047766 103.549248  -0.001456 0.999901 0.014000  0.974869 0.183232 1 0 1.000000
0  -40.022820 3.037076 103.552002  -0.000314 0.922723 0.385463  0.770508 0.183232 1 0 1.000000
misc
0  -40.022820 3.037076 103.552002  -0.000323 0.922650 0.385639  0.770508 0.183232 1 0 1.000000
0  -32.646622 3.047766 103.549248  -0.000277 0.715411 0.698703  0.974869 0.183232 1 0 1.000000
0  -40.965363 3.642093 102.937424  -0.000275 0.715411 0.698704  0.758888 0.153325 1 0 1.000000
misc
0  -31.691626 3.642093 102.934624  0.000210 0.718714 0.695306  0.989883 0.153203 1 0 1.000000
0  -40.965363 3.642093 102.937424  -0.000273 0.715423 0.698691  0.758888 0.153325 1 0 1.000000
0  -32.646622 3.047766 103.549248  -0.000280 0.715390 0.698725  0.974869 0.183232 1 0 1.000000
misc
0  -31.368219 -12.873888 103.549423  -0.001182 -0.922447 0.386123  0.770508 0.183232 1 0 1.000000
0  -32.656948 -13.478906 102.935699  -0.000237 -0.715123 0.698999  0.758888 0.153325 1 0 1.000000
0  -23.992060 -12.884576 103.546669  -0.000230 -0.715174 0.698946  0.974869 0.183232 1 0 1.000000
misc
0  -22.690842 -13.478905 102.931252  0.000310 -0.718996 0.695014  0.989883 0.153203 1 0 1.000000
0  -23.992060 -12.884576 103.546669  -0.000230 -0.715174 0.698946  0.974869 0.183232 1 0 1.000000
0  -32.656948 -13.478906 102.935699  -0.000237 -0.715123 0.698999  0.758888 0.153325 1 0 1.000000
misc
0  -23.992060 -12.884576 103.546669  -0.001461 -0.999901 0.014005  0.974869 0.183232 1 0 1.000000
0  -23.989355 -12.867754 104.749184  -0.001463 -0.999901 0.013993  0.974869 0.214574 1 0 1.000000
0  -31.364925 -12.857019 104.744995  -0.001446 -0.999900 0.014099  0.770508 0.214574 1 0 1.000000
misc
0  -31.364925 -12.857019 104.744995  -0.001446 -0.999900 0.014099  0.770508 0.214574 1 0 1.000000
0  -31.368219 -12.873888 103.549423  -0.001172 -0.922523 0.385941  0.770508 0.183232 1 0 1.000000
0  -23.992060 -12.884576 103.546669  -0.001461 -0.999901 0.014005  0.974869 0.183232 1 0 1.000000
misc
0  31.368238 -12.873884 103.549423  0.000302 -0.922448 0.386122  0.770508 0.183232 1 0 1.000000
0  23.992079 -12.884572 103.546669  0.000230 -0.715179 0.698941  0.974869 0.183232 1 0 1.000000
0  32.656963 -13.478900 102.935699  0.000239 -0.715112 0.699010  0.758888 0.153325 1 0 1.000000
misc
0  22.690861 -13.478901 102.931252  -0.000310 -0.718996 0.695014  0.989883 0.153203 1 0 1.000000
0  32.656963 -13.478900 102.935699  0.000239 -0.715106 0.699016  0.758888 0.153325 1 0 1.000000
0  23.992079 -12.884572 103.546669  0.000230 -0.715172 0.698948  0.974869 0.183232 1 0 1.000000
misc
0  23.992079 -12.884572 103.546669  0.001461 -0.999901 0.014005  0.974869 0.183232 1 0 1.000000
0  31.364944 -12.857016 104.744995  0.001446 -0.999900 0.014099  0.770508 0.214574 1 0 1.000000
0  23.989374 -12.867750 104.749184  0.001463 -0.999901 0.013993  0.974869 0.214574 1 0 1.000000
misc
0  31.368238 -12.873884 103.549423  0.000312 -0.922524 0.385940  0.770508 0.183232 1 0 1.000000
0  31.364944 -12.857016 104.744995  0.001446 -0.999900 0.014099  0.770508 0.214574 1 0 1.000000
0  23.992079 -12.884572 103.546669  0.001461 -0.999901 0.014005  0.974869 0.183232 1 0 1.000000
misc
0  23.989374 -12.867750 104.749184  0.427390 -0.903965 0.013607  0.974869 0.214574 1 0 1.000000
0  22.690817 -13.478946 104.931915  0.420791 -0.907137 0.006050  0.989883 0.235250 1 0 1.000000
0  23.992079 -12.884572 103.546669  0.421451 -0.906826 0.006805  0.974869 0.183232 1 0 1.000000
misc
0  23.992079 -12.884572 103.546669  0.421451 -0.906826 0.006805  0.974869 0.183232 1 0 1.000000
0  22.690817 -13.478946 104.931915  0.420791 -0.907137 0.006050  0.989883 0.235250 1 0 1.000000
0  22.690861 -13.478901 102.931252  0.415466 -0.909609 -0.000011  0.989883 0.153203 1 0 1.000000
misc
0  31.364944 -12.857016 104.744995  -0.435644 -0.900046 0.011499  0.770508 0.214574 1 0 1.000000
0  31.368238 -12.873884 103.549423  -0.430324 -0.902658 0.005428  0.770508 0.183232 1 0 1.000000
0  32.654842 -13.478900 104.936516  -0.430384 -0.902629 0.005496  0.758888 0.235295 1 0 1.000000
misc
0  31.368238 -12.873884 103.549423  -0.430313 -0.902663 0.005415  0.770508 0.183232 1 0 1.000000
0  32.656963 -13.478900 102.935699  -0.425144 -0.905126 -0.000451  0.758888 0.153325 1 0 1.000000
0  32.654842 -13.478900 104.936516  -0.430373 -0.902635 0.005485  0.758888 0.235295 1 0 1.000000
misc
0  22.258438 3.030947 104.751747  0.541831 0.840387 0.012976  0.974869 0.214574 1 0 1.000000
0  22.261143 3.047770 103.549248  0.535089 0.844771 0.006453  0.974869 0.183232 1 0 1.000000
0  21.306063 3.642143 104.935310  0.535340 0.844610 0.006694  0.989883 0.235250 1 0 1.000000
misc
0  22.261143 3.047770 103.549248  0.535062 0.844788 0.006426  0.974869 0.183232 1 0 1.000000
0  21.306108 3.642097 102.934624  0.528357 0.849022 -0.000007  0.989883 0.153203 1 0 1.000000
0  21.306063 3.642143 104.935310  0.535344 0.844608 0.006698  0.989883 0.235250 1 0 1.000000
misc
0  30.579840 3.642098 102.937424  -0.540469 0.841364 -0.000580  0.758888 0.153325 1 0 1.000000
0  29.637341 3.037081 103.552002  -0.546058 0.837733 0.004796  0.770508 0.183232 1 0 1.000000
0  30.577765 3.642143 104.938194  -0.546253 0.837605 0.004982  0.758888 0.235295 1 0 1.000000
misc
0  29.634003 3.020259 104.747551  -0.551637 0.834022 0.010195  0.770508 0.214574 1 0 1.000000
0  30.577765 3.642143 104.938194  -0.546253 0.837605 0.004982  0.758888 0.235295 1 0 1.000000
0  29.637341 3.037081 103.552002  -0.546058 0.837733 0.004796  0.770508 0.183232 1 0 1.000000
misc
0  29.634003 3.020259 104.747551  -0.000117 0.293259 -0.956033  0.770508 0.214574 1 0 1.000000
0  22.258438 3.030947 104.751747  0.000095 0.290608 -0.956842  0.974869 0.214574 1 0 1.000000
0  30.577765 3.642143 104.938194  0.000071 0.290836 -0.956773  0.758888 0.235295 1 0 1.000000
misc
0  22.258438 3.030947 104.751747  0.000104 0.290492 -0.956877  0.974869 0.214574 1 0 1.000000
0  21.306063 3.642143 104.935310  0.000299 0.288067 -0.957610  0.989883 0.235250 1 0 1.000000
0  30.577765 3.642143 104.938194  0.000081 0.290721 -0.956808  0.758888 0.235295 1 0 1.000000
misc
0  32.643932 3.030948 104.751747  0.541826 0.840391 0.012976  0.974869 0.214574 1 0 1.000000
0  32.646637 3.047771 103.549248  0.535084 0.844774 0.006453  0.974869 0.183232 1 0 1.000000
0  31.691551 3.642143 104.935310  0.535367 0.844593 0.006724  0.989883 0.235250 1 0 1.000000
misc
0  32.646637 3.047771 103.549248  0.535103 0.844762 0.006469  0.974869 0.183232 1 0 1.000000
0  31.691641 3.642098 102.934624  0.528368 0.849016 0.000005  0.989883 0.153203 1 0 1.000000
0  31.691551 3.642143 104.935310  0.535353 0.844602 0.006711  0.989883 0.235250 1 0 1.000000
misc
0  40.965378 3.642099 102.937424  -0.540460 0.841370 -0.000592  0.758888 0.153325 1 0 1.000000
0  40.022835 3.037082 103.552002  -0.546089 0.837714 0.004824  0.770508 0.183232 1 0 1.000000
0  40.963257 3.642144 104.938194  -0.546256 0.837604 0.004986  0.758888 0.235295 1 0 1.000000
misc
0  40.019543 3.020260 104.747551  -0.551651 0.834012 0.010216  0.770508 0.214574 1 0 1.000000
0  40.963257 3.642144 104.938194  -0.546256 0.837604 0.004986  0.758888 0.235295 1 0 1.000000
0  40.022835 3.037082 103.552002  -0.546089 0.837714 0.004824  0.770508 0.183232 1 0 1.000000
misc
0  40.019543 3.020260 104.747551  -0.000121 0.293260 -0.956033  0.770508 0.214574 1 0 1.000000
0  32.643932 3.030948 104.751747  0.000095 0.290608 -0.956842  0.974869 0.214574 1 0 1.000000
0  40.963257 3.642144 104.938194  0.000081 0.290745 -0.956801  0.758888 0.235295 1 0 1.000000
misc
0  32.643932 3.030948 104.751747  0.000105 0.290493 -0.956877  0.974869 0.214574 1 0 1.000000
0  31.691551 3.642143 104.935310  0.000299 0.288068 -0.957610  0.989883 0.235250 1 0 1.000000
0  40.963257 3.642144 104.938194  0.000087 0.290676 -0.956822  0.758888 0.235295 1 0 1.000000
misc
0  -22.690842 -13.478905 102.931252  -0.415467 -0.909608 -0.000012  0.989883 0.153203 1 0 1.000000
0  -22.690798 -13.478950 104.931915  -0.421394 -0.906853 0.006737  0.989883 0.235250 1 0 1.000000
0  -23.992060 -12.884576 103.546669  -0.421424 -0.906838 0.006772  0.974869 0.183232 1 0 1.000000
misc
0  -23.992060 -12.884576 103.546669  -0.421410 -0.906845 0.006755  0.974869 0.183232 1 0 1.000000
0  -22.690798 -13.478950 104.931915  -0.421411 -0.906845 0.006755  0.989883 0.235250 1 0 1.000000
0  -23.989355 -12.867754 104.749184  -0.427390 -0.903965 0.013607  0.974869 0.214574 1 0 1.000000
misc
0  -31.364925 -12.857019 104.744995  0.000111 -0.294542 -0.955639  0.770508 0.214574 1 0 1.000000
0  -23.989355 -12.867754 104.749184  -0.000168 -0.290884 -0.956758  0.974869 0.214574 1 0 1.000000
0  -32.654827 -13.478906 104.936516  -0.000159 -0.291022 -0.956716  0.758888 0.235295 1 0 1.000000
misc
0  -23.989355 -12.867754 104.749184  -0.000168 -0.290881 -0.956759  0.974869 0.214574 1 0 1.000000
0  -22.690798 -13.478950 104.931915  -0.000442 -0.287311 -0.957837  0.989883 0.235250 1 0 1.000000
0  -32.654827 -13.478906 104.936516  -0.000159 -0.291018 -0.956717  0.758888 0.235295 1 0 1.000000
misc
0  -39.541870 -7.330151 103.544609  -0.597296 -0.687310 0.413331  0.770508 0.183232 1 0 1.000000
0  -40.177193 -7.724507 102.921143  -0.441066 -0.511834 0.737215  0.758888 0.153325 1 0 1.000000
0  -33.745167 -12.366560 103.546326  -0.441056 -0.511855 0.737207  0.974869 0.183232 1 0 1.000000
misc
0  -33.972427 -13.024117 102.923210  -0.450481 -0.527128 0.720557  0.989883 0.153203 1 0 1.000000
0  -33.745167 -12.366560 103.546326  -0.441056 -0.511855 0.737207  0.974869 0.183232 1 0 1.000000
0  -40.177193 -7.724507 102.921143  -0.441066 -0.511834 0.737215  0.758888 0.153325 1 0 1.000000
misc
0  -33.745167 -12.366560 103.546326  -0.655878 -0.754867 -0.000485  0.974869 0.183232 1 0 1.000000
0  -33.743950 -12.368408 104.748947  -0.655880 -0.754865 -0.000497  0.974869 0.214574 1 0 1.000000
0  -39.540112 -7.332271 104.740303  -0.655866 -0.754877 -0.000387  0.770508 0.214574 1 0 1.000000
misc
0  -39.540112 -7.332271 104.740303  -0.655866 -0.754877 -0.000387  0.770508 0.214574 1 0 1.000000
0  -39.541870 -7.330151 103.544609  -0.597318 -0.687382 0.413178  0.770508 0.183232 1 0 1.000000
0  -33.745167 -12.366560 103.546326  -0.655878 -0.754867 -0.000485  0.974869 0.183232 1 0 1.000000
misc
0  39.541885 -7.330145 103.544609  0.596483 -0.687991 0.413373  0.770508 0.183232 1 0 1.000000
0  33.745182 -12.366554 103.546326  0.441040 -0.511836 0.737230  0.974869 0.183232 1 0 1.000000
0  40.177208 -7.724502 102.921143  0.441058 -0.511823 0.737228  0.758888 0.153325 1 0 1.000000
misc
0  33.972443 -13.024111 102.923210  0.450468 -0.527132 0.720563  0.989883 0.153203 1 0 1.000000
0  40.177208 -7.724502 102.921143  0.441062 -0.511832 0.737220  0.758888 0.153325 1 0 1.000000
0  33.745182 -12.366554 103.546326  0.441067 -0.511872 0.737189  0.974869 0.183232 1 0 1.000000
misc
0  33.745182 -12.366554 103.546326  0.655884 -0.754861 -0.000485  0.974869 0.183232 1 0 1.000000
0  39.540127 -7.332265 104.740303  0.655860 -0.754882 -0.000386  0.770508 0.214574 1 0 1.000000
0  33.743965 -12.368402 104.748947  0.655887 -0.754859 -0.000497  0.974869 0.214574 1 0 1.000000
misc
0  39.541885 -7.330145 103.544609  0.596534 -0.688038 0.413220  0.770508 0.183232 1 0 1.000000
0  39.540127 -7.332265 104.740303  0.655860 -0.754882 -0.000386  0.770508 0.214574 1 0 1.000000
0  33.745182 -12.366554 103.546326  0.655884 -0.754861 -0.000485  0.974869 0.183232 1 0 1.000000
misc
0  -33.743950 -12.368408 104.748947  -0.939397 0.342829 0.001477  0.974869 0.214574 1 0 1.000000
0  -33.745167 -12.366560 103.546326  -0.941517 0.336961 -0.001799  0.974869 0.183232 1 0 1.000000
0  -33.991142 -13.046487 104.923683  -0.941445 0.337161 -0.001688  0.989883 0.235250 1 0 1.000000
misc
0  -33.745167 -12.366560 103.546326  -0.941522 0.336946 -0.001806  0.974869 0.183232 1 0 1.000000
0  -33.972427 -13.024117 102.923210  -0.943623 0.330981 -0.005127  0.989883 0.153203 1 0 1.000000
0  -33.991142 -13.046487 104.923683  -0.941436 0.337187 -0.001674  0.989883 0.235250 1 0 1.000000
misc
0  -39.540112 -7.332271 104.740303  -0.162556 -0.188755 -0.968477  0.770508 0.214574 1 0 1.000000
0  -33.743950 -12.368408 104.748947  -0.163367 -0.189887 -0.968119  0.974869 0.214574 1 0 1.000000
0  -40.171108 -7.719681 104.921722  -0.162826 -0.189133 -0.968358  0.758888 0.235295 1 0 1.000000
misc
0  -33.991142 -13.046487 104.923683  -0.163386 -0.189913 -0.968111  0.989883 0.235250 1 0 1.000000
0  -40.171108 -7.719681 104.921722  -0.162871 -0.189197 -0.968338  0.758888 0.235295 1 0 1.000000
0  -33.743950 -12.368408 104.748947  -0.163386 -0.189913 -0.968111  0.974869 0.214574 1 0 1.000000
misc
0  39.540127 -7.332265 104.740303  -0.522734 -0.852493 -0.002281  0.770508 0.214574 1 0 1.000000
0  39.541885 -7.330145 103.544609  -0.524933 -0.851143 -0.000905  0.770508 0.183232 1 0 1.000000
0  40.171124 -7.719676 104.921722  -0.524823 -0.851211 -0.000968  0.758888 0.235295 1 0 1.000000
misc
0  39.541885 -7.330145 103.544609  -0.525063 -0.851063 -0.000824  0.770508 0.183232 1 0 1.000000
0  40.177208 -7.724502 102.921143  -0.527074 -0.849819 0.000447  0.758888 0.153325 1 0 1.000000
0  40.171124 -7.719676 104.921722  -0.524845 -0.851197 -0.000955  0.758888 0.235295 1 0 1.000000
misc
0  23.989374 -12.867750 104.749184  0.000180 -0.290762 -0.956796  0.974869 0.214574 1 0 1.000000
0  32.654842 -13.478900 104.936516  0.000155 -0.291075 -0.956700  0.758888 0.235295 1 0 1.000000
0  22.690817 -13.478946 104.931915  0.000443 -0.287310 -0.957838  0.989883 0.235250 1 0 1.000000
misc
0  31.364944 -12.857016 104.744995  -0.000111 -0.294544 -0.955638  0.770508 0.214574 1 0 1.000000
0  32.654842 -13.478900 104.936516  0.000155 -0.291075 -0.956700  0.758888 0.235295 1 0 1.000000
0  23.989374 -12.867750 104.749184  0.000180 -0.290762 -0.956796  0.974869 0.214574 1 0 1.000000
misc
0  -21.306047 3.642139 104.935310  -0.535345 0.844607 0.006699  0.989883 0.235250 1 0 1.000000
0  -22.261127 3.047766 103.549248  -0.534983 0.844839 0.006353  0.974869 0.183232 1 0 1.000000
0  -22.258423 3.030944 104.751747  -0.541832 0.840387 0.012975  0.974869 0.214574 1 0 1.000000
misc
0  -21.306047 3.642139 104.935310  -0.535345 0.844607 0.006699  0.989883 0.235250 1 0 1.000000
0  -21.306093 3.642094 102.934624  -0.528356 0.849023 -0.000007  0.989883 0.153203 1 0 1.000000
0  -22.261127 3.047766 103.549248  -0.534983 0.844839 0.006353  0.974869 0.183232 1 0 1.000000
misc
0  -30.577749 3.642139 104.938194  0.546258 0.837602 0.004989  0.758888 0.235295 1 0 1.000000
0  -29.637325 3.037077 103.552002  0.546008 0.837766 0.004748  0.770508 0.183232 1 0 1.000000
0  -30.579824 3.642093 102.937424  0.540470 0.841363 -0.000580  0.758888 0.153325 1 0 1.000000
misc
0  -29.633987 3.020255 104.747551  0.551633 0.834025 0.010195  0.770508 0.214574 1 0 1.000000
0  -29.637325 3.037077 103.552002  0.546009 0.837766 0.004749  0.770508 0.183232 1 0 1.000000
0  -30.577749 3.642139 104.938194  0.546259 0.837602 0.004989  0.758888 0.235295 1 0 1.000000
misc
0  -22.258423 3.030944 104.751747  -0.000117 0.290332 -0.956926  0.974869 0.214574 1 0 1.000000
0  -30.577749 3.642139 104.938194  -0.000087 0.290635 -0.956834  0.758888 0.235295 1 0 1.000000
0  -21.306047 3.642139 104.935310  -0.000297 0.288068 -0.957610  0.989883 0.235250 1 0 1.000000
misc
0  -29.633987 3.020255 104.747551  0.000121 0.293259 -0.956033  0.770508 0.214574 1 0 1.000000
0  -30.577749 3.642139 104.938194  -0.000087 0.290635 -0.956834  0.758888 0.235295 1 0 1.000000
0  -22.258423 3.030944 104.751747  -0.000117 0.290332 -0.956926  0.974869 0.214574 1 0 1.000000
misc
0  -31.691536 3.642139 104.935310  -0.535022 0.844814 0.006393  0.989883 0.235250 1 0 1.000000
0  -32.646622 3.047766 103.549248  -0.535107 0.844759 0.006475  0.974869 0.183232 1 0 1.000000
0  -32.643959 3.030943 104.751747  -0.541805 0.840404 0.012957  0.974869 0.214574 1 0 1.000000
misc
0  -31.691536 3.642139 104.935310  -0.535022 0.844814 0.006393  0.989883 0.235250 1 0 1.000000
0  -31.691626 3.642093 102.934624  -0.528368 0.849016 0.000004  0.989883 0.153203 1 0 1.000000
0  -32.646622 3.047766 103.549248  -0.535107 0.844759 0.006475  0.974869 0.183232 1 0 1.000000
misc
0  -40.963242 3.642138 104.938194  0.546247 0.837609 0.004977  0.758888 0.235295 1 0 1.000000
0  -40.022820 3.037076 103.552002  0.546061 0.837732 0.004796  0.770508 0.183232 1 0 1.000000
0  -40.965363 3.642093 102.937424  0.540460 0.841370 -0.000592  0.758888 0.153325 1 0 1.000000
misc
0  -40.019527 3.020254 104.747551  0.551655 0.834010 0.010216  0.770508 0.214574 1 0 1.000000
0  -40.022820 3.037076 103.552002  0.546064 0.837730 0.004798  0.770508 0.183232 1 0 1.000000
0  -40.963242 3.642138 104.938194  0.546250 0.837607 0.004979  0.758888 0.235295 1 0 1.000000
misc
0  -32.643959 3.030943 104.751747  -0.000100 0.290560 -0.956857  0.974869 0.214574 1 0 1.000000
0  -40.963242 3.642138 104.938194  -0.000083 0.290727 -0.956806  0.758888 0.235295 1 0 1.000000
0  -31.691536 3.642139 104.935310  -0.000299 0.288068 -0.957610  0.989883 0.235250 1 0 1.000000
misc
0  -40.019527 3.020254 104.747551  0.000121 0.293260 -0.956033  0.770508 0.214574 1 0 1.000000
0  -40.963242 3.642138 104.938194  -0.000083 0.290727 -0.956806  0.758888 0.235295 1 0 1.000000
0  -32.643959 3.030943 104.751747  -0.000100 0.290560 -0.956857  0.974869 0.214574 1 0 1.000000
misc
0  -31.368219 -12.873888 103.549423  0.430325 -0.902658 0.005433  0.770508 0.183232 1 0 1.000000
0  -32.654827 -13.478906 104.936516  0.430402 -0.902620 0.005520  0.758888 0.235295 1 0 1.000000
0  -32.656948 -13.478906 102.935699  0.425142 -0.905127 -0.000451  0.758888 0.153325 1 0 1.000000
misc
0  -31.368219 -12.873888 103.549423  0.430325 -0.902658 0.005433  0.770508 0.183232 1 0 1.000000
0  -31.364925 -12.857019 104.744995  0.435642 -0.900046 0.011499  0.770508 0.214574 1 0 1.000000
0  -32.654827 -13.478906 104.936516  0.430402 -0.902620 0.005520  0.758888 0.235295 1 0 1.000000
misc
0  -40.171108 -7.719681 104.921722  0.524927 -0.851147 -0.000903  0.758888 0.235295 1 0 1.000000
0  -39.541870 -7.330151 103.544609  0.525159 -0.851004 -0.000762  0.770508 0.183232 1 0 1.000000
0  -39.540112 -7.332271 104.740303  0.522735 -0.852492 -0.002281  0.770508 0.214574 1 0 1.000000
misc
0  -39.541870 -7.330151 103.544609  0.525159 -0.851004 -0.000762  0.770508 0.183232 1 0 1.000000
0  -40.171108 -7.719681 104.921722  0.524927 -0.851147 -0.000903  0.758888 0.235295 1 0 1.000000
0  -40.177193 -7.724507 102.921143  0.527070 -0.849822 0.000447  0.758888 0.153325 1 0 1.000000
misc
0  33.745182 -12.366554 103.546326  0.941530 0.336925 -0.001822  0.974869 0.183232 1 0 1.000000
0  33.991158 -13.046481 104.923683  0.941509 0.336982 -0.001790  0.989883 0.235250 1 0 1.000000
0  33.972443 -13.024111 102.923210  0.943620 0.330991 -0.005126  0.989883 0.153203 1 0 1.000000
misc
0  33.743965 -12.368402 104.748947  0.939397 0.342829 0.001477  0.974869 0.214574 1 0 1.000000
0  33.991158 -13.046481 104.923683  0.941509 0.336982 -0.001790  0.989883 0.235250 1 0 1.000000
0  33.745182 -12.366554 103.546326  0.941530 0.336925 -0.001822  0.974869 0.183232 1 0 1.000000
misc
0  40.171124 -7.719676 104.921722  0.162611 -0.188835 -0.968452  0.758888 0.235295 1 0 1.000000
0  33.743965 -12.368402 104.748947  0.163326 -0.189858 -0.968132  0.974869 0.214574 1 0 1.000000
0  39.540127 -7.332265 104.740303  0.162555 -0.188755 -0.968477  0.770508 0.214574 1 0 1.000000
misc
0  33.743965 -12.368402 104.748947  0.163326 -0.189858 -0.968132  0.974869 0.214574 1 0 1.000000
0  40.171124 -7.719676 104.921722  0.162611 -0.188835 -0.968452  0.758888 0.235295 1 0 1.000000
0  33.991158 -13.046481 104.923683  0.163365 -0.189913 -0.968114  0.989883 0.235250 1 0 1.000000
end
