version 1
nodes
0 "root" -1
end
skeleton
time 0
0  0.000000 0.000000 0.000000  0.000000 -0.000000 0.000000
end
triangles
rearwindow
0  23.374245 126.034485 77.167015  0.000079 0.999991 0.004366  0.996318 0.842125 1 0 1.000000
0  23.374245 126.072990 68.344635  0.000080 0.999991 0.004364  0.996318 0.002236 1 0 1.000000
0  5.898084 126.074394 68.344635  0.000078 0.999991 0.004368  0.007919 0.002236 1 0 1.000000
rearwindow
0  5.898084 126.074394 68.344635  0.000078 0.999991 0.004368  0.007919 0.002236 1 0 1.000000
0  5.898084 126.035835 77.167015  0.000077 0.999991 0.004370  0.007919 0.842125 1 0 1.000000
0  23.374245 126.034485 77.167015  0.000079 0.999991 0.004366  0.996318 0.842125 1 0 1.000000
rearwindow
0  -23.374252 126.034485 77.167015  -0.000077 0.999991 0.004364  0.006924 0.842125 1 0 1.000000
0  -5.898092 126.035835 77.167015  -0.000079 0.999990 0.004368  0.995323 0.842125 1 0 1.000000
0  -23.374252 126.072990 68.344635  -0.000078 0.999991 0.004366  0.006924 0.002236 1 0 1.000000
rearwindow
0  -5.898092 126.074394 68.344635  -0.000080 0.999991 0.004370  0.995323 0.002236 1 0 1.000000
0  -23.374252 126.072990 68.344635  -0.000078 0.999991 0.004366  0.006924 0.002236 1 0 1.000000
0  -5.898092 126.035835 77.167015  -0.000079 0.999990 0.004368  0.995323 0.842125 1 0 1.000000
rearwindow
0  -23.374252 126.034485 77.167015  0.000077 -0.999991 -0.004364  0.006924 0.842125 1 0 1.000000
0  -23.374252 126.072990 68.344635  0.000078 -0.999991 -0.004366  0.006924 0.002236 1 0 1.000000
0  -5.898092 126.035835 77.167015  0.000079 -0.999990 -0.004368  0.995323 0.842125 1 0 1.000000
rearwindow
0  -5.898092 126.074394 68.344635  0.000080 -0.999991 -0.004370  0.995323 0.002236 1 0 1.000000
0  -5.898092 126.035835 77.167015  0.000079 -0.999990 -0.004368  0.995323 0.842125 1 0 1.000000
0  -23.374252 126.072990 68.344635  0.000078 -0.999991 -0.004366  0.006924 0.002236 1 0 1.000000
rearwindow
0  23.374245 126.034485 77.167015  -0.000079 -0.999991 -0.004366  0.996318 0.842125 1 0 1.000000
0  5.898084 126.074394 68.344635  -0.000078 -0.999991 -0.004368  0.007919 0.002236 1 0 1.000000
0  23.374245 126.072990 68.344635  -0.000080 -0.999991 -0.004364  0.996318 0.002236 1 0 1.000000
rearwindow
0  5.898084 126.074394 68.344635  -0.000078 -0.999991 -0.004368  0.007919 0.002236 1 0 1.000000
0  23.374245 126.034485 77.167015  -0.000079 -0.999991 -0.004366  0.996318 0.842125 1 0 1.000000
0  5.898084 126.035835 77.167015  -0.000077 -0.999991 -0.004370  0.007919 0.842125 1 0 1.000000
leftwindow
0  53.949482 14.155271 75.922516  1.000000 0.000262 0.000386  0.102966 0.558594 1 0 1.000000
0  53.953766 14.131953 62.268044  1.000000 0.000024 0.000314  0.102165 0.038035 1 0 1.000000
0  53.953449 26.795404 62.267998  1.000000 0.000098 0.000524  0.537706 0.038033 1 0 1.000000
leftwindow
0  53.949482 14.155271 75.922516  1.000000 0.000262 0.000386  0.102966 0.558594 1 0 1.000000
0  53.945198 26.798517 76.035904  1.000000 0.000324 0.000616  0.537812 0.562917 1 0 1.000000
0  53.947681 14.165282 81.770988  1.000000 0.000372 0.000386  0.103311 0.781560 1 0 1.000000
leftwindow
0  53.945198 26.798517 76.035904  1.000000 0.000324 0.000616  0.537812 0.562917 1 0 1.000000
0  53.949482 14.155271 75.922516  1.000000 0.000262 0.000386  0.102966 0.558594 1 0 1.000000
0  53.953449 26.795404 62.267998  1.000000 0.000098 0.000524  0.537706 0.038033 1 0 1.000000
leftwindow
0  53.953133 39.458897 62.267998  1.000000 0.000025 0.000599  0.973249 0.038033 1 0 1.000000
0  53.945198 26.798517 76.035904  1.000000 0.000324 0.000616  0.537812 0.562917 1 0 1.000000
0  53.953449 26.795404 62.267998  1.000000 0.000098 0.000524  0.537706 0.038033 1 0 1.000000
leftwindow
0  53.940826 39.441402 76.149277  1.000000 0.000385 0.000846  0.972647 0.567240 1 0 1.000000
0  53.945198 26.798517 76.035904  1.000000 0.000324 0.000616  0.537812 0.562917 1 0 1.000000
0  53.953133 39.458897 62.267998  1.000000 0.000337 0.000887  0.973249 0.038033 1 0 1.000000
leftwindow
0  53.941772 26.799824 81.770988  1.000000 0.000421 0.000635  0.537858 0.781560 1 0 1.000000
0  53.945198 26.798517 76.035904  1.000000 0.000324 0.000616  0.537812 0.562917 1 0 1.000000
0  53.940826 39.441402 76.149277  1.000000 0.000385 0.000846  0.972647 0.567240 1 0 1.000000
leftwindow
0  53.935863 39.434364 81.770988  0.999999 0.000467 0.000883  0.972405 0.781560 1 0 1.000000
0  53.941772 26.799824 81.770988  1.000000 0.000421 0.000635  0.537858 0.781560 1 0 1.000000
0  53.940826 39.441402 76.149277  1.000000 0.000385 0.000846  0.972647 0.567240 1 0 1.000000
leftwindow
0  53.941772 26.799824 81.770988  1.000000 0.000421 0.000635  0.537858 0.781560 1 0 1.000000
0  53.947681 14.165282 81.770988  1.000000 0.000372 0.000386  0.103311 0.781560 1 0 1.000000
0  53.945198 26.798517 76.035904  1.000000 0.000324 0.000616  0.537812 0.562917 1 0 1.000000
leftwindow
0  53.941772 26.799824 81.770988  -1.000000 -0.000421 -0.000635  0.537858 0.781560 1 0 1.000000
0  53.945198 26.798517 76.035904  -1.000000 -0.000324 -0.000616  0.537812 0.562917 1 0 1.000000
0  53.947681 14.165282 81.770988  -1.000000 -0.000372 -0.000386  0.103311 0.781560 1 0 1.000000
leftwindow
0  53.949482 14.155271 75.922516  -1.000000 -0.000337 -0.000307  0.102966 0.558594 1 0 1.000000
0  53.947681 14.165282 81.770988  -1.000000 -0.000372 -0.000386  0.103311 0.781560 1 0 1.000000
0  53.945198 26.798517 76.035904  -1.000000 -0.000324 -0.000616  0.537812 0.562917 1 0 1.000000
leftwindow
0  53.949482 14.155271 75.922516  -1.000000 -0.000187 -0.000464  0.102966 0.558594 1 0 1.000000
0  53.953449 26.795404 62.267998  -1.000000 -0.000098 -0.000524  0.537706 0.038033 1 0 1.000000
0  53.953766 14.131953 62.268044  -1.000000 -0.000024 -0.000314  0.102165 0.038035 1 0 1.000000
leftwindow
0  53.945198 26.798517 76.035904  -1.000000 -0.000324 -0.000616  0.537812 0.562917 1 0 1.000000
0  53.953449 26.795404 62.267998  -1.000000 -0.000098 -0.000524  0.537706 0.038033 1 0 1.000000
0  53.949482 14.155271 75.922516  -1.000000 -0.000187 -0.000464  0.102966 0.558594 1 0 1.000000
leftwindow
0  53.953133 39.458897 62.267998  -0.999999 -0.000525 -0.001061  0.973249 0.038033 1 0 1.000000
0  53.953449 26.795404 62.267998  -1.000000 -0.000098 -0.000524  0.537706 0.038033 1 0 1.000000
0  53.945198 26.798517 76.035904  -1.000000 -0.000324 -0.000616  0.537812 0.562917 1 0 1.000000
leftwindow
0  53.940826 39.441402 76.149277  -1.000000 -0.000385 -0.000846  0.972647 0.567240 1 0 1.000000
0  53.953133 39.458897 62.267998  -0.999999 -0.000525 -0.001061  0.973249 0.038033 1 0 1.000000
0  53.945198 26.798517 76.035904  -1.000000 -0.000324 -0.000616  0.537812 0.562917 1 0 1.000000
leftwindow
0  53.941772 26.799824 81.770988  -1.000000 -0.000421 -0.000635  0.537858 0.781560 1 0 1.000000
0  53.940826 39.441402 76.149277  -1.000000 -0.000385 -0.000846  0.972647 0.567240 1 0 1.000000
0  53.945198 26.798517 76.035904  -1.000000 -0.000324 -0.000616  0.537812 0.562917 1 0 1.000000
leftwindow
0  53.935863 39.434364 81.770988  -0.999999 -0.000467 -0.000883  0.972405 0.781560 1 0 1.000000
0  53.940826 39.441402 76.149277  -1.000000 -0.000385 -0.000846  0.972647 0.567240 1 0 1.000000
0  53.941772 26.799824 81.770988  -1.000000 -0.000421 -0.000635  0.537858 0.781560 1 0 1.000000
rightwindow
0  -53.935856 39.434357 81.771004  1.000000 -0.000467 -0.000883  0.972405 0.781560 1 0 1.000000
0  -53.941765 26.799816 81.771004  1.000000 -0.000467 -0.000883  0.537858 0.781560 1 0 1.000000
0  -53.940819 39.441395 76.149292  1.000000 -0.000467 -0.000883  0.972647 0.567240 1 0 1.000000
rightwindow
0  -53.945190 26.798510 76.035919  1.000000 -0.000324 -0.000617  0.537812 0.562917 1 0 1.000000
0  -53.941765 26.799816 81.771004  1.000000 -0.000414 -0.000597  0.537858 0.781560 1 0 1.000000
0  -53.947674 14.165275 81.771004  1.000000 -0.000372 -0.000386  0.103311 0.781560 1 0 1.000000
rightwindow
0  -53.945190 26.798510 76.035919  1.000000 -0.000324 -0.000617  0.537812 0.562917 1 0 1.000000
0  -53.940819 39.441395 76.149292  1.000000 -0.000338 -0.000825  0.972647 0.567240 1 0 1.000000
0  -53.941765 26.799816 81.771004  1.000000 -0.000414 -0.000597  0.537858 0.781560 1 0 1.000000
rightwindow
0  -53.940819 39.441395 76.149292  1.000000 -0.000338 -0.000825  0.972647 0.567240 1 0 1.000000
0  -53.945190 26.798510 76.035919  1.000000 -0.000324 -0.000617  0.537812 0.562917 1 0 1.000000
0  -53.953133 39.458889 62.268005  1.000000 -0.000172 -0.000736  0.973249 0.038033 1 0 1.000000
rightwindow
0  -53.953442 26.795397 62.268005  1.000000 -0.000098 -0.000524  0.537706 0.038033 1 0 1.000000
0  -53.953133 39.458889 62.268005  1.000000 -0.000172 -0.000736  0.973249 0.038033 1 0 1.000000
0  -53.945190 26.798510 76.035919  1.000000 -0.000324 -0.000617  0.537812 0.562917 1 0 1.000000
rightwindow
0  -53.945190 26.798510 76.035919  1.000000 -0.000324 -0.000617  0.537812 0.562917 1 0 1.000000
0  -53.949474 14.155263 75.922531  1.000000 -0.000261 -0.000386  0.102966 0.558594 1 0 1.000000
0  -53.953442 26.795397 62.268005  1.000000 -0.000098 -0.000524  0.537706 0.038033 1 0 1.000000
rightwindow
0  -53.953758 14.131946 62.268051  1.000000 -0.000024 -0.000314  0.102165 0.038035 1 0 1.000000
0  -53.953442 26.795397 62.268005  1.000000 -0.000098 -0.000524  0.537706 0.038033 1 0 1.000000
0  -53.949474 14.155263 75.922531  1.000000 -0.000261 -0.000386  0.102966 0.558594 1 0 1.000000
rightwindow
0  -53.947674 14.165275 81.771004  1.000000 -0.000372 -0.000386  0.103311 0.781560 1 0 1.000000
0  -53.949474 14.155263 75.922531  1.000000 -0.000261 -0.000386  0.102966 0.558594 1 0 1.000000
0  -53.945190 26.798510 76.035919  1.000000 -0.000324 -0.000617  0.537812 0.562917 1 0 1.000000
rightwindow
0  -53.953442 26.795397 62.268005  -1.000000 0.000098 0.000524  0.537706 0.038033 1 0 1.000000
0  -53.945190 26.798510 76.035919  -1.000000 0.000324 0.000617  0.537812 0.562917 1 0 1.000000
0  -53.953133 39.458889 62.268005  -1.000000 0.000172 0.000736  0.973249 0.038033 1 0 1.000000
rightwindow
0  -53.940819 39.441395 76.149292  -1.000000 0.000338 0.000825  0.972647 0.567240 1 0 1.000000
0  -53.953133 39.458889 62.268005  -1.000000 0.000172 0.000736  0.973249 0.038033 1 0 1.000000
0  -53.945190 26.798510 76.035919  -1.000000 0.000324 0.000617  0.537812 0.562917 1 0 1.000000
rightwindow
0  -53.953758 14.131946 62.268051  -1.000000 0.000024 0.000314  0.102165 0.038035 1 0 1.000000
0  -53.949474 14.155263 75.922531  -1.000000 0.000261 0.000386  0.102966 0.558594 1 0 1.000000
0  -53.953442 26.795397 62.268005  -1.000000 0.000098 0.000524  0.537706 0.038033 1 0 1.000000
rightwindow
0  -53.945190 26.798510 76.035919  -1.000000 0.000324 0.000617  0.537812 0.562917 1 0 1.000000
0  -53.953442 26.795397 62.268005  -1.000000 0.000098 0.000524  0.537706 0.038033 1 0 1.000000
0  -53.949474 14.155263 75.922531  -1.000000 0.000261 0.000386  0.102966 0.558594 1 0 1.000000
rightwindow
0  -53.947674 14.165275 81.771004  -1.000000 0.000372 0.000386  0.103311 0.781560 1 0 1.000000
0  -53.945190 26.798510 76.035919  -1.000000 0.000324 0.000617  0.537812 0.562917 1 0 1.000000
0  -53.949474 14.155263 75.922531  -1.000000 0.000261 0.000386  0.102966 0.558594 1 0 1.000000
rightwindow
0  -53.945190 26.798510 76.035919  -1.000000 0.000324 0.000617  0.537812 0.562917 1 0 1.000000
0  -53.947674 14.165275 81.771004  -1.000000 0.000372 0.000386  0.103311 0.781560 1 0 1.000000
0  -53.941765 26.799816 81.771004  -1.000000 0.000414 0.000597  0.537858 0.781560 1 0 1.000000
rightwindow
0  -53.945190 26.798510 76.035919  -1.000000 0.000324 0.000617  0.537812 0.562917 1 0 1.000000
0  -53.941765 26.799816 81.771004  -1.000000 0.000414 0.000597  0.537858 0.781560 1 0 1.000000
0  -53.940819 39.441395 76.149292  -1.000000 0.000338 0.000825  0.972647 0.567240 1 0 1.000000
rightwindow
0  -53.935856 39.434357 81.771004  -1.000000 0.000467 0.000883  0.972405 0.781560 1 0 1.000000
0  -53.940819 39.441395 76.149292  -1.000000 0.000467 0.000883  0.972647 0.567240 1 0 1.000000
0  -53.941765 26.799816 81.771004  -1.000000 0.000467 0.000883  0.537858 0.781560 1 0 1.000000
frontwindow
0  -2.839442 -57.268524 64.652351  -0.068725 -0.935180 0.347441  0.987723 0.025662 1 0 1.000000
0  -3.805710 -57.393406 64.125084  -0.074601 -0.933643 0.350350  0.965848 0.004545 1 0 1.000000
0  -3.224912 -57.388943 64.262909  -0.079614 -0.927369 0.365578  0.978996 0.010065 1 0 1.000000
frontwindow
0  -2.839442 -57.268524 64.652351  -0.068725 -0.935180 0.347441  0.987723 0.025662 1 0 1.000000
0  -2.649887 -57.085869 65.208656  -0.084286 -0.929357 0.359432  0.992014 0.047942 1 0 1.000000
0  -3.805710 -57.393406 64.125084  -0.074601 -0.933643 0.350350  0.965848 0.004545 1 0 1.000000
frontwindow
0  -4.493756 -57.310555 64.175011  -0.098683 -0.919634 0.380178  0.950270 0.006545 1 0 1.000000
0  -3.805710 -57.393406 64.125084  -0.074601 -0.933643 0.350350  0.965848 0.004545 1 0 1.000000
0  -2.649887 -57.085869 65.208656  -0.084286 -0.929357 0.359432  0.992014 0.047942 1 0 1.000000
frontwindow
0  -4.493756 -57.310555 64.175011  -0.098701 -0.919617 0.380213  0.950270 0.006545 1 0 1.000000
0  -2.649887 -57.085869 65.208656  -0.084285 -0.929358 0.359429  0.992014 0.047942 1 0 1.000000
0  -2.656335 -52.685913 75.446404  -0.095381 -0.915468 0.390922  0.991869 0.457963 1 0 1.000000
frontwindow
0  -2.656335 -52.685913 75.446404  -0.095381 -0.915468 0.390922  0.991869 0.457963 1 0 1.000000
0  -11.089992 -56.580658 64.177399  -0.101466 -0.914540 0.391563  0.800936 0.006640 1 0 1.000000
0  -4.493756 -57.310555 64.175011  -0.098701 -0.919617 0.380213  0.950270 0.006545 1 0 1.000000
frontwindow
0  -45.876976 -52.709816 64.351265  -0.058252 -0.921173 0.384768  0.013378 0.013603 1 0 1.000000
0  -45.349171 -52.815178 64.178886  -0.048571 -0.912337 0.406548  0.025327 0.006700 1 0 1.000000
0  -46.162865 -52.538845 64.717339  -0.036784 -0.910564 0.411728  0.006905 0.028265 1 0 1.000000
frontwindow
0  -46.162865 -52.538845 64.717339  -0.036784 -0.910564 0.411728  0.006905 0.028265 1 0 1.000000
0  -45.349171 -52.815178 64.178886  -0.048571 -0.912337 0.406548  0.025327 0.006700 1 0 1.000000
0  -46.276070 -52.290703 65.222412  -0.068057 -0.912140 0.404189  0.004343 0.048493 1 0 1.000000
frontwindow
0  -45.349171 -52.815178 64.178886  -0.048571 -0.912337 0.406548  0.025327 0.006700 1 0 1.000000
0  -44.693283 -52.862259 64.189445  -0.085476 -0.916458 0.390894  0.040176 0.007122 1 0 1.000000
0  -46.276070 -52.290703 65.222412  -0.068057 -0.912140 0.404189  0.004343 0.048493 1 0 1.000000
frontwindow
0  -34.274685 -49.129330 75.471794  -0.100047 -0.913536 0.394263  0.276047 0.458979 1 0 1.000000
0  -46.276070 -52.290703 65.222412  -0.068097 -0.912149 0.404162  0.004343 0.048493 1 0 1.000000
0  -44.693283 -52.862259 64.189445  -0.085502 -0.916464 0.390875  0.040176 0.007122 1 0 1.000000
frontwindow
0  -34.274685 -49.129330 75.471794  -0.100047 -0.913536 0.394263  0.276047 0.458979 1 0 1.000000
0  -44.693283 -52.862259 64.189445  -0.085502 -0.916464 0.390875  0.040176 0.007122 1 0 1.000000
0  -34.705212 -53.967476 64.185875  -0.100889 -0.913017 0.395249  0.266300 0.006980 1 0 1.000000
frontwindow
0  -34.705212 -53.967476 64.185875  -0.100889 -0.913017 0.395249  0.266300 0.006980 1 0 1.000000
0  -22.244665 -55.346317 64.181412  -0.101618 -0.913728 0.393416  0.548400 0.006801 1 0 1.000000
0  -34.274685 -49.129330 75.471794  -0.100047 -0.913536 0.394263  0.276047 0.458979 1 0 1.000000
frontwindow
0  -21.989445 -50.524090 75.467278  -0.103615 -0.913785 0.392762  0.554178 0.458799 1 0 1.000000
0  -34.274685 -49.129330 75.471794  -0.100047 -0.913536 0.394263  0.276047 0.458979 1 0 1.000000
0  -22.244665 -55.346317 64.181412  -0.101618 -0.913728 0.393416  0.548400 0.006801 1 0 1.000000
frontwindow
0  -22.244665 -55.346317 64.181412  -0.101618 -0.913728 0.393416  0.548400 0.006801 1 0 1.000000
0  -11.089992 -56.580658 64.177399  -0.101244 -0.914587 0.391509  0.800936 0.006640 1 0 1.000000
0  -21.989445 -50.524090 75.467278  -0.103615 -0.913785 0.392762  0.554178 0.458799 1 0 1.000000
frontwindow
0  -10.849969 -51.789097 75.463310  -0.101908 -0.914784 0.390878  0.806370 0.458640 1 0 1.000000
0  -21.989445 -50.524090 75.467278  -0.103615 -0.913785 0.392762  0.554178 0.458799 1 0 1.000000
0  -11.089992 -56.580658 64.177399  -0.101244 -0.914587 0.391509  0.800936 0.006640 1 0 1.000000
frontwindow
0  -2.656335 -52.685913 75.446404  -0.095381 -0.915468 0.390922  0.991869 0.457963 1 0 1.000000
0  -10.849969 -51.789097 75.463310  -0.101819 -0.914802 0.390859  0.806370 0.458640 1 0 1.000000
0  -11.089992 -56.580658 64.177399  -0.101466 -0.914540 0.391563  0.800936 0.006640 1 0 1.000000
frontwindow
0  -10.849969 -51.789097 75.463310  -0.101819 -0.914802 0.390859  0.806370 0.458640 1 0 1.000000
0  -2.656335 -52.685913 75.446404  -0.095381 -0.915468 0.390922  0.991869 0.457963 1 0 1.000000
0  -10.647153 -47.739300 85.002098  -0.104634 -0.915205 0.389167  0.810961 0.840667 1 0 1.000000
frontwindow
0  -4.247057 -48.471542 85.024200  -0.109832 -0.931402 0.347028  0.955856 0.841552 1 0 1.000000
0  -10.647153 -47.739300 85.002098  -0.104634 -0.915205 0.389167  0.810961 0.840667 1 0 1.000000
0  -2.656335 -52.685913 75.446404  -0.095381 -0.915468 0.390922  0.991869 0.457963 1 0 1.000000
frontwindow
0  -2.661747 -49.054371 83.893997  -0.121018 -0.942614 0.311181  0.991746 0.796287 1 0 1.000000
0  -4.247057 -48.471542 85.024200  -0.109832 -0.931402 0.347028  0.955856 0.841552 1 0 1.000000
0  -2.656335 -52.685913 75.446404  -0.095381 -0.915468 0.390922  0.991869 0.457963 1 0 1.000000
frontwindow
0  -3.566905 -48.592232 85.017067  -0.171756 -0.955154 0.241208  0.971254 0.841266 1 0 1.000000
0  -4.247057 -48.471542 85.024200  -0.109832 -0.931402 0.347028  0.955856 0.841552 1 0 1.000000
0  -2.661747 -49.054371 83.893997  -0.121018 -0.942614 0.311181  0.991746 0.796287 1 0 1.000000
frontwindow
0  -2.754608 -48.881004 84.439423  -0.174467 -0.956727 0.232883  0.989644 0.818132 1 0 1.000000
0  -3.566905 -48.592232 85.017067  -0.171758 -0.955155 0.241204  0.971254 0.841266 1 0 1.000000
0  -2.661747 -49.054371 83.893997  -0.121072 -0.942629 0.311116  0.991746 0.796287 1 0 1.000000
frontwindow
0  -3.566905 -48.592232 85.017067  -0.171758 -0.955155 0.241204  0.971254 0.841266 1 0 1.000000
0  -2.754608 -48.881004 84.439423  -0.174467 -0.956727 0.232883  0.989644 0.818132 1 0 1.000000
0  -3.027508 -48.745659 84.830498  -0.208477 -0.960021 0.186805  0.983466 0.833794 1 0 1.000000
frontwindow
0  -34.274685 -49.129330 75.471794  -0.100047 -0.913536 0.394263  0.276047 0.458979 1 0 1.000000
0  -46.269665 -47.789005 75.485138  -0.101525 -0.911110 0.399463  0.004488 0.459514 1 0 1.000000
0  -46.276070 -52.290703 65.222412  -0.068097 -0.912149 0.404162  0.004343 0.048493 1 0 1.000000
frontwindow
0  -10.647153 -47.739300 85.002098  -0.104634 -0.915205 0.389167  0.810961 0.840667 1 0 1.000000
0  -21.774048 -46.453995 84.992981  -0.105215 -0.913738 0.392444  0.559055 0.840302 1 0 1.000000
0  -10.849969 -51.789097 75.463310  -0.101819 -0.914802 0.390859  0.806370 0.458640 1 0 1.000000
frontwindow
0  -21.989445 -50.524090 75.467278  -0.103615 -0.913785 0.392762  0.554178 0.458799 1 0 1.000000
0  -10.849969 -51.789097 75.463310  -0.101908 -0.914784 0.390878  0.806370 0.458640 1 0 1.000000
0  -21.774048 -46.453995 84.992981  -0.105213 -0.913736 0.392450  0.559055 0.840302 1 0 1.000000
frontwindow
0  -21.774048 -46.453995 84.992981  -0.105213 -0.913736 0.392450  0.559055 0.840302 1 0 1.000000
0  -33.911808 -45.051929 84.983017  -0.105098 -0.912783 0.394692  0.284263 0.839903 1 0 1.000000
0  -21.989445 -50.524090 75.467278  -0.103615 -0.913785 0.392762  0.554178 0.458799 1 0 1.000000
frontwindow
0  -34.274685 -49.129330 75.471794  -0.100047 -0.913536 0.394263  0.276047 0.458979 1 0 1.000000
0  -21.989445 -50.524090 75.467278  -0.103615 -0.913785 0.392762  0.554178 0.458799 1 0 1.000000
0  -33.911808 -45.051929 84.983017  -0.105098 -0.912783 0.394692  0.284263 0.839903 1 0 1.000000
frontwindow
0  -33.911808 -45.051929 84.983017  -0.105240 -0.912715 0.394811  0.284263 0.839903 1 0 1.000000
0  -44.564613 -43.821377 84.974319  -0.099239 -0.914805 0.391515  0.043089 0.839554 1 0 1.000000
0  -34.274685 -49.129330 75.471794  -0.100047 -0.913536 0.394263  0.276047 0.458979 1 0 1.000000
frontwindow
0  -46.269665 -47.789005 75.485138  -0.101525 -0.911110 0.399463  0.004488 0.459514 1 0 1.000000
0  -34.274685 -49.129330 75.471794  -0.100047 -0.913536 0.394263  0.276047 0.458979 1 0 1.000000
0  -44.564613 -43.821377 84.974319  -0.099239 -0.914805 0.391515  0.043089 0.839554 1 0 1.000000
frontwindow
0  -44.564613 -43.821377 84.974319  -0.099239 -0.914805 0.391515  0.043089 0.839554 1 0 1.000000
0  -46.264381 -44.081516 83.937241  -0.092216 -0.919775 0.381459  0.004607 0.798019 1 0 1.000000
0  -46.269665 -47.789005 75.485138  -0.101525 -0.911110 0.399463  0.004488 0.459514 1 0 1.000000
frontwindow
0  -45.239487 -43.751247 84.994026  -0.081324 -0.927410 0.365099  0.027810 0.840343 1 0 1.000000
0  -46.264381 -44.081516 83.937241  -0.092216 -0.919775 0.381459  0.004607 0.798019 1 0 1.000000
0  -44.564613 -43.821377 84.974319  -0.099239 -0.914805 0.391515  0.043089 0.839554 1 0 1.000000
frontwindow
0  -46.121414 -43.884834 84.457649  -0.079331 -0.928887 0.361768  0.007844 0.818862 1 0 1.000000
0  -46.264381 -44.081516 83.937241  -0.092191 -0.919793 0.381421  0.004607 0.798019 1 0 1.000000
0  -45.239487 -43.751247 84.994026  -0.081302 -0.927425 0.365064  0.027810 0.840343 1 0 1.000000
frontwindow
0  -46.121414 -43.884834 84.457649  -0.079331 -0.928887 0.361768  0.007844 0.818862 1 0 1.000000
0  -45.239487 -43.751247 84.994026  -0.081302 -0.927425 0.365064  0.027810 0.840343 1 0 1.000000
0  -45.795254 -43.770008 84.830315  -0.071721 -0.933819 0.350483  0.015228 0.833787 1 0 1.000000
frontwindow
0  -4.247057 -48.471542 85.024200  0.109830 0.931415 -0.346992  0.955856 0.841552 1 0 1.000000
0  -2.656335 -52.685913 75.446404  0.095236 0.915473 -0.390947  0.991869 0.457963 1 0 1.000000
0  -10.647153 -47.739300 85.002098  0.104330 0.915288 -0.389053  0.810961 0.840667 1 0 1.000000
frontwindow
0  -2.661747 -49.054371 83.893997  0.121097 0.942632 -0.311096  0.991746 0.796287 1 0 1.000000
0  -2.656335 -52.685913 75.446404  0.095236 0.915473 -0.390947  0.991869 0.457963 1 0 1.000000
0  -4.247057 -48.471542 85.024200  0.109830 0.931415 -0.346992  0.955856 0.841552 1 0 1.000000
frontwindow
0  -3.566905 -48.592232 85.017067  0.171757 0.955154 -0.241208  0.971254 0.841266 1 0 1.000000
0  -2.661747 -49.054371 83.893997  0.121097 0.942632 -0.311096  0.991746 0.796287 1 0 1.000000
0  -4.247057 -48.471542 85.024200  0.109830 0.931415 -0.346992  0.955856 0.841552 1 0 1.000000
frontwindow
0  -2.754608 -48.881004 84.439423  0.174486 0.956723 -0.232887  0.989644 0.818132 1 0 1.000000
0  -2.661747 -49.054371 83.893997  0.121103 0.942637 -0.311079  0.991746 0.796287 1 0 1.000000
0  -3.566905 -48.592232 85.017067  0.171762 0.955157 -0.241191  0.971254 0.841266 1 0 1.000000
frontwindow
0  -3.566905 -48.592232 85.017067  0.171762 0.955157 -0.241191  0.971254 0.841266 1 0 1.000000
0  -3.027508 -48.745659 84.830498  0.208477 0.960021 -0.186805  0.983466 0.833794 1 0 1.000000
0  -2.754608 -48.881004 84.439423  0.174486 0.956723 -0.232887  0.989644 0.818132 1 0 1.000000
frontwindow
0  -2.839442 -57.268524 64.652351  0.068728 0.935173 -0.347459  0.987723 0.025662 1 0 1.000000
0  -3.224912 -57.388943 64.262909  0.079614 0.927369 -0.365578  0.978996 0.010065 1 0 1.000000
0  -3.805710 -57.393406 64.125084  0.074603 0.933643 -0.350351  0.965848 0.004545 1 0 1.000000
frontwindow
0  -2.839442 -57.268524 64.652351  0.068728 0.935173 -0.347459  0.987723 0.025662 1 0 1.000000
0  -3.805710 -57.393406 64.125084  0.074603 0.933643 -0.350351  0.965848 0.004545 1 0 1.000000
0  -2.649887 -57.085869 65.208656  0.084303 0.929346 -0.359456  0.992014 0.047942 1 0 1.000000
frontwindow
0  -4.493756 -57.310555 64.175011  0.098683 0.919634 -0.380178  0.950270 0.006545 1 0 1.000000
0  -2.649887 -57.085869 65.208656  0.084303 0.929346 -0.359456  0.992014 0.047942 1 0 1.000000
0  -3.805710 -57.393406 64.125084  0.074603 0.933643 -0.350351  0.965848 0.004545 1 0 1.000000
frontwindow
0  -4.493756 -57.310555 64.175011  0.098702 0.919614 -0.380221  0.950270 0.006545 1 0 1.000000
0  -2.656335 -52.685913 75.446404  0.095236 0.915473 -0.390947  0.991869 0.457963 1 0 1.000000
0  -2.649887 -57.085869 65.208656  0.084315 0.929343 -0.359463  0.992014 0.047942 1 0 1.000000
frontwindow
0  -2.656335 -52.685913 75.446404  0.095236 0.915473 -0.390947  0.991869 0.457963 1 0 1.000000
0  -4.493756 -57.310555 64.175011  0.098702 0.919614 -0.380221  0.950270 0.006545 1 0 1.000000
0  -11.089992 -56.580658 64.177399  0.101495 0.914582 -0.391457  0.800936 0.006640 1 0 1.000000
frontwindow
0  -2.656335 -52.685913 75.446404  0.095236 0.915473 -0.390947  0.991869 0.457963 1 0 1.000000
0  -11.089992 -56.580658 64.177399  0.101495 0.914582 -0.391457  0.800936 0.006640 1 0 1.000000
0  -10.849969 -51.789097 75.463310  0.102005 0.914708 -0.391029  0.806370 0.458640 1 0 1.000000
frontwindow
0  -10.849969 -51.789097 75.463310  0.102005 0.914708 -0.391029  0.806370 0.458640 1 0 1.000000
0  -10.647153 -47.739300 85.002098  0.104330 0.915288 -0.389053  0.810961 0.840667 1 0 1.000000
0  -2.656335 -52.685913 75.446404  0.095236 0.915473 -0.390947  0.991869 0.457963 1 0 1.000000
frontwindow
0  -10.647153 -47.739300 85.002098  0.104330 0.915288 -0.389053  0.810961 0.840667 1 0 1.000000
0  -10.849969 -51.789097 75.463310  0.102005 0.914708 -0.391029  0.806370 0.458640 1 0 1.000000
0  -21.774048 -46.453995 84.992981  0.105286 0.913842 -0.392184  0.559055 0.840302 1 0 1.000000
frontwindow
0  -21.989445 -50.524090 75.467278  0.103532 0.913783 -0.392787  0.554178 0.458799 1 0 1.000000
0  -21.774048 -46.453995 84.992981  0.105238 0.913790 -0.392318  0.559055 0.840302 1 0 1.000000
0  -10.849969 -51.789097 75.463310  0.101971 0.914716 -0.391019  0.806370 0.458640 1 0 1.000000
frontwindow
0  -21.774048 -46.453995 84.992981  0.105238 0.913790 -0.392318  0.559055 0.840302 1 0 1.000000
0  -21.989445 -50.524090 75.467278  0.103532 0.913783 -0.392787  0.554178 0.458799 1 0 1.000000
0  -33.911808 -45.051929 84.983017  0.105195 0.912757 -0.394726  0.284263 0.839903 1 0 1.000000
frontwindow
0  -34.274685 -49.129330 75.471794  0.100098 0.913518 -0.394291  0.276047 0.458979 1 0 1.000000
0  -33.911808 -45.051929 84.983017  0.105195 0.912757 -0.394726  0.284263 0.839903 1 0 1.000000
0  -21.989445 -50.524090 75.467278  0.103532 0.913783 -0.392787  0.554178 0.458799 1 0 1.000000
frontwindow
0  -33.911808 -45.051929 84.983017  0.105263 0.912722 -0.394788  0.284263 0.839903 1 0 1.000000
0  -34.274685 -49.129330 75.471794  0.100106 0.913511 -0.394305  0.276047 0.458979 1 0 1.000000
0  -44.564613 -43.821377 84.974319  0.099254 0.914792 -0.391540  0.043089 0.839554 1 0 1.000000
frontwindow
0  -46.269665 -47.789005 75.485138  0.101525 0.911110 -0.399463  0.004488 0.459514 1 0 1.000000
0  -44.564613 -43.821377 84.974319  0.099254 0.914792 -0.391540  0.043089 0.839554 1 0 1.000000
0  -34.274685 -49.129330 75.471794  0.100106 0.913511 -0.394305  0.276047 0.458979 1 0 1.000000
frontwindow
0  -44.564613 -43.821377 84.974319  0.099254 0.914792 -0.391540  0.043089 0.839554 1 0 1.000000
0  -46.269665 -47.789005 75.485138  0.101525 0.911110 -0.399463  0.004488 0.459514 1 0 1.000000
0  -46.264381 -44.081516 83.937241  0.092214 0.919776 -0.381456  0.004607 0.798019 1 0 1.000000
frontwindow
0  -45.239487 -43.751247 84.994026  0.081324 0.927410 -0.365099  0.027810 0.840343 1 0 1.000000
0  -44.564613 -43.821377 84.974319  0.099254 0.914792 -0.391540  0.043089 0.839554 1 0 1.000000
0  -46.264381 -44.081516 83.937241  0.092214 0.919776 -0.381456  0.004607 0.798019 1 0 1.000000
frontwindow
0  -46.121414 -43.884834 84.457649  0.079359 0.928871 -0.361803  0.007844 0.818862 1 0 1.000000
0  -45.239487 -43.751247 84.994026  0.081333 0.927403 -0.365114  0.027810 0.840343 1 0 1.000000
0  -46.264381 -44.081516 83.937241  0.092216 0.919775 -0.381458  0.004607 0.798019 1 0 1.000000
frontwindow
0  -46.121414 -43.884834 84.457649  0.079359 0.928871 -0.361803  0.007844 0.818862 1 0 1.000000
0  -45.795254 -43.770008 84.830315  0.071721 0.933819 -0.350483  0.015228 0.833787 1 0 1.000000
0  -45.239487 -43.751247 84.994026  0.081333 0.927403 -0.365114  0.027810 0.840343 1 0 1.000000
frontwindow
0  -34.274685 -49.129330 75.471794  0.100106 0.913511 -0.394305  0.276047 0.458979 1 0 1.000000
0  -46.276070 -52.290703 65.222412  0.068080 0.912145 -0.404174  0.004343 0.048493 1 0 1.000000
0  -46.269665 -47.789005 75.485138  0.101525 0.911110 -0.399463  0.004488 0.459514 1 0 1.000000
frontwindow
0  -45.876976 -52.709816 64.351265  0.058252 0.921173 -0.384768  0.013378 0.013603 1 0 1.000000
0  -46.162865 -52.538845 64.717339  0.036785 0.910558 -0.411741  0.006905 0.028265 1 0 1.000000
0  -45.349171 -52.815178 64.178886  0.048572 0.912337 -0.406548  0.025327 0.006700 1 0 1.000000
frontwindow
0  -46.162865 -52.538845 64.717339  0.036785 0.910558 -0.411741  0.006905 0.028265 1 0 1.000000
0  -46.276070 -52.290703 65.222412  0.068062 0.912140 -0.404189  0.004343 0.048493 1 0 1.000000
0  -45.349171 -52.815178 64.178886  0.048572 0.912337 -0.406548  0.025327 0.006700 1 0 1.000000
frontwindow
0  -45.349171 -52.815178 64.178886  0.048572 0.912337 -0.406548  0.025327 0.006700 1 0 1.000000
0  -46.276070 -52.290703 65.222412  0.068062 0.912140 -0.404189  0.004343 0.048493 1 0 1.000000
0  -44.693283 -52.862259 64.189445  0.085471 0.916411 -0.391006  0.040176 0.007122 1 0 1.000000
frontwindow
0  -34.274685 -49.129330 75.471794  0.100106 0.913511 -0.394305  0.276047 0.458979 1 0 1.000000
0  -44.693283 -52.862259 64.189445  0.085484 0.916419 -0.390983  0.040176 0.007122 1 0 1.000000
0  -46.276070 -52.290703 65.222412  0.068080 0.912145 -0.404174  0.004343 0.048493 1 0 1.000000
frontwindow
0  -34.274685 -49.129330 75.471794  0.100106 0.913511 -0.394305  0.276047 0.458979 1 0 1.000000
0  -34.705212 -53.967476 64.185875  0.100889 0.913017 -0.395249  0.266300 0.006980 1 0 1.000000
0  -44.693283 -52.862259 64.189445  0.085484 0.916419 -0.390983  0.040176 0.007122 1 0 1.000000
frontwindow
0  -34.705212 -53.967476 64.185875  0.100889 0.913017 -0.395249  0.266300 0.006980 1 0 1.000000
0  -34.274685 -49.129330 75.471794  0.100106 0.913511 -0.394305  0.276047 0.458979 1 0 1.000000
0  -22.244665 -55.346317 64.181412  0.101618 0.913728 -0.393416  0.548400 0.006801 1 0 1.000000
frontwindow
0  -21.989445 -50.524090 75.467278  0.103546 0.913783 -0.392783  0.554178 0.458799 1 0 1.000000
0  -22.244665 -55.346317 64.181412  0.101618 0.913728 -0.393416  0.548400 0.006801 1 0 1.000000
0  -34.274685 -49.129330 75.471794  0.100106 0.913511 -0.394305  0.276047 0.458979 1 0 1.000000
frontwindow
0  -22.244665 -55.346317 64.181412  0.101618 0.913728 -0.393416  0.548400 0.006801 1 0 1.000000
0  -21.989445 -50.524090 75.467278  0.103546 0.913783 -0.392783  0.554178 0.458799 1 0 1.000000
0  -11.089992 -56.580658 64.177399  0.101453 0.914561 -0.391517  0.800936 0.006640 1 0 1.000000
frontwindow
0  -10.849969 -51.789097 75.463310  0.101971 0.914716 -0.391019  0.806370 0.458640 1 0 1.000000
0  -11.089992 -56.580658 64.177399  0.101511 0.914588 -0.391439  0.800936 0.006640 1 0 1.000000
0  -21.989445 -50.524090 75.467278  0.103532 0.913783 -0.392787  0.554178 0.458799 1 0 1.000000
frontwindow
0  21.989464 -50.524090 75.467278  0.103616 -0.913785 0.392761  0.442756 0.458799 1 0 1.000000
0  33.911831 -45.051922 84.983017  0.105134 -0.912789 0.394668  0.712671 0.839903 1 0 1.000000
0  21.774067 -46.453995 84.992981  0.105300 -0.913824 0.392221  0.437879 0.840302 1 0 1.000000
frontwindow
0  34.274700 -49.129322 75.471794  0.100047 -0.913536 0.394263  0.720887 0.458979 1 0 1.000000
0  33.911831 -45.051922 84.983017  0.105134 -0.912789 0.394668  0.712671 0.839903 1 0 1.000000
0  21.989464 -50.524090 75.467278  0.103616 -0.913785 0.392761  0.442756 0.458799 1 0 1.000000
frontwindow
0  33.911831 -45.051922 84.983017  0.105134 -0.912789 0.394668  0.712671 0.839903 1 0 1.000000
0  34.274700 -49.129322 75.471794  0.100047 -0.913536 0.394263  0.720887 0.458979 1 0 1.000000
0  44.564636 -43.821369 84.974319  0.099208 -0.914831 0.391461  0.953845 0.839554 1 0 1.000000
frontwindow
0  46.269680 -47.788998 75.485138  0.101366 -0.911130 0.399458  0.992446 0.459514 1 0 1.000000
0  44.564636 -43.821369 84.974319  0.099208 -0.914831 0.391461  0.953845 0.839554 1 0 1.000000
0  34.274700 -49.129322 75.471794  0.100047 -0.913536 0.394263  0.720887 0.458979 1 0 1.000000
frontwindow
0  46.269680 -47.788998 75.485138  0.101928 -0.911060 0.399475  0.992446 0.459514 1 0 1.000000
0  46.264404 -44.081509 83.937241  0.092226 -0.919763 0.381486  0.992327 0.798019 1 0 1.000000
0  44.564636 -43.821369 84.974319  0.099219 -0.914825 0.391474  0.953845 0.839554 1 0 1.000000
frontwindow
0  45.239510 -43.751240 84.994026  0.081367 -0.927378 0.365171  0.969124 0.840343 1 0 1.000000
0  44.564636 -43.821369 84.974319  0.099219 -0.914825 0.391474  0.953845 0.839554 1 0 1.000000
0  46.264404 -44.081509 83.937241  0.092226 -0.919763 0.381486  0.992327 0.798019 1 0 1.000000
frontwindow
0  46.121437 -43.884827 84.457649  0.079375 -0.928854 0.361842  0.989091 0.818862 1 0 1.000000
0  45.239510 -43.751240 84.994026  0.081367 -0.927378 0.365171  0.969124 0.840343 1 0 1.000000
0  46.264404 -44.081509 83.937241  0.092226 -0.919763 0.381486  0.992327 0.798019 1 0 1.000000
frontwindow
0  45.795277 -43.770000 84.830315  0.071722 -0.933822 0.350476  0.981706 0.833787 1 0 1.000000
0  45.239510 -43.751240 84.994026  0.081356 -0.927387 0.365149  0.969124 0.840343 1 0 1.000000
0  46.121437 -43.884827 84.457649  0.079347 -0.928871 0.361804  0.989091 0.818862 1 0 1.000000
frontwindow
0  46.276085 -52.290695 65.222412  0.068096 -0.912149 0.404163  0.992591 0.048493 1 0 1.000000
0  46.269680 -47.788998 75.485138  0.101366 -0.911130 0.399458  0.992446 0.459514 1 0 1.000000
0  34.274700 -49.129322 75.471794  0.100047 -0.913536 0.394263  0.720887 0.458979 1 0 1.000000
frontwindow
0  46.162880 -52.538837 64.717339  0.036786 -0.910570 0.411716  0.990028 0.028265 1 0 1.000000
0  45.349186 -52.815170 64.178886  0.048572 -0.912342 0.406537  0.971607 0.006700 1 0 1.000000
0  45.876991 -52.709808 64.351265  0.058247 -0.921173 0.384771  0.983555 0.013603 1 0 1.000000
frontwindow
0  46.162880 -52.538837 64.717339  0.036786 -0.910570 0.411716  0.990028 0.028265 1 0 1.000000
0  46.276085 -52.290695 65.222412  0.068065 -0.912142 0.404184  0.992591 0.048493 1 0 1.000000
0  45.349186 -52.815170 64.178886  0.048572 -0.912342 0.406537  0.971607 0.006700 1 0 1.000000
frontwindow
0  45.349186 -52.815170 64.178886  0.048572 -0.912342 0.406537  0.971607 0.006700 1 0 1.000000
0  46.276085 -52.290695 65.222412  0.068065 -0.912142 0.404184  0.992591 0.048493 1 0 1.000000
0  44.693298 -52.862251 64.189445  0.085451 -0.916441 0.390941  0.956758 0.007122 1 0 1.000000
frontwindow
0  44.693298 -52.862251 64.189445  0.085486 -0.916445 0.390922  0.956758 0.007122 1 0 1.000000
0  46.276085 -52.290695 65.222412  0.068096 -0.912149 0.404163  0.992591 0.048493 1 0 1.000000
0  34.274700 -49.129322 75.471794  0.100047 -0.913536 0.394263  0.720887 0.458979 1 0 1.000000
frontwindow
0  44.693298 -52.862251 64.189445  0.085486 -0.916445 0.390922  0.956758 0.007122 1 0 1.000000
0  34.274700 -49.129322 75.471794  0.100047 -0.913536 0.394263  0.720887 0.458979 1 0 1.000000
0  34.705227 -53.967468 64.185875  0.100889 -0.913017 0.395248  0.730634 0.006980 1 0 1.000000
frontwindow
0  34.705227 -53.967468 64.185875  0.100889 -0.913017 0.395248  0.730634 0.006980 1 0 1.000000
0  34.274700 -49.129322 75.471794  0.100047 -0.913536 0.394263  0.720887 0.458979 1 0 1.000000
0  22.244684 -55.346317 64.181412  0.101660 -0.913702 0.393463  0.448534 0.006801 1 0 1.000000
frontwindow
0  22.244684 -55.346317 64.181412  0.101699 -0.913754 0.393334  0.448534 0.006801 1 0 1.000000
0  34.274700 -49.129322 75.471794  0.100047 -0.913536 0.394263  0.720887 0.458979 1 0 1.000000
0  21.989464 -50.524090 75.467278  0.103616 -0.913785 0.392761  0.442756 0.458799 1 0 1.000000
frontwindow
0  22.244684 -55.346317 64.181412  0.101699 -0.913754 0.393334  0.448534 0.006801 1 0 1.000000
0  21.989464 -50.524090 75.467278  0.103616 -0.913785 0.392761  0.442756 0.458799 1 0 1.000000
0  11.090011 -56.580658 64.177399  0.101381 -0.914558 0.391543  0.195998 0.006640 1 0 1.000000
frontwindow
0  10.849988 -51.789097 75.463310  0.101823 -0.914801 0.390860  0.190564 0.458640 1 0 1.000000
0  11.090011 -56.580658 64.177399  0.101381 -0.914558 0.391543  0.195998 0.006640 1 0 1.000000
0  21.989464 -50.524090 75.467278  0.103616 -0.913785 0.392761  0.442756 0.458799 1 0 1.000000
frontwindow
0  21.989464 -50.524090 75.467278  0.103616 -0.913785 0.392761  0.442756 0.458799 1 0 1.000000
0  21.774067 -46.453995 84.992981  0.105300 -0.913824 0.392221  0.437879 0.840302 1 0 1.000000
0  10.849988 -51.789097 75.463310  0.101823 -0.914801 0.390860  0.190564 0.458640 1 0 1.000000
frontwindow
0  10.849988 -51.789097 75.463310  0.101823 -0.914801 0.390860  0.190564 0.458640 1 0 1.000000
0  21.774067 -46.453995 84.992981  0.105300 -0.913824 0.392221  0.437879 0.840302 1 0 1.000000
0  10.647174 -47.739300 85.002098  0.104634 -0.915205 0.389168  0.185972 0.840667 1 0 1.000000
frontwindow
0  10.647174 -47.739300 85.002098  0.104634 -0.915205 0.389168  0.185972 0.840667 1 0 1.000000
0  2.656355 -52.685913 75.446404  0.095286 -0.915472 0.390938  0.005065 0.457963 1 0 1.000000
0  10.849988 -51.789097 75.463310  0.101823 -0.914801 0.390860  0.190564 0.458640 1 0 1.000000
frontwindow
0  4.247077 -48.471542 85.024200  0.109830 -0.931411 0.347002  0.041078 0.841552 1 0 1.000000
0  2.656355 -52.685913 75.446404  0.095286 -0.915472 0.390938  0.005065 0.457963 1 0 1.000000
0  10.647174 -47.739300 85.002098  0.104634 -0.915205 0.389168  0.185972 0.840667 1 0 1.000000
frontwindow
0  4.247077 -48.471542 85.024200  0.109830 -0.931411 0.347002  0.041078 0.841552 1 0 1.000000
0  2.661767 -49.054371 83.893997  0.121010 -0.942611 0.311193  0.005187 0.796287 1 0 1.000000
0  2.656355 -52.685913 75.446404  0.095286 -0.915472 0.390938  0.005065 0.457963 1 0 1.000000
frontwindow
0  3.566925 -48.592232 85.017067  0.171764 -0.955155 0.241199  0.025680 0.841266 1 0 1.000000
0  2.661767 -49.054371 83.893997  0.121080 -0.942635 0.311094  0.005187 0.796287 1 0 1.000000
0  4.247077 -48.471542 85.024200  0.109863 -0.931429 0.346943  0.041078 0.841552 1 0 1.000000
frontwindow
0  2.661767 -49.054371 83.893997  0.121080 -0.942635 0.311094  0.005187 0.796287 1 0 1.000000
0  3.566925 -48.592232 85.017067  0.171764 -0.955155 0.241199  0.025680 0.841266 1 0 1.000000
0  2.754628 -48.881004 84.439423  0.174498 -0.956717 0.232902  0.007290 0.818132 1 0 1.000000
frontwindow
0  3.027528 -48.745659 84.830498  0.208476 -0.960017 0.186827  0.013468 0.833794 1 0 1.000000
0  2.754628 -48.881004 84.439423  0.174498 -0.956717 0.232902  0.007290 0.818132 1 0 1.000000
0  3.566925 -48.592232 85.017067  0.171764 -0.955155 0.241199  0.025680 0.841266 1 0 1.000000
frontwindow
0  3.224931 -57.388943 64.262909  0.079610 -0.927369 0.365580  0.017937 0.010065 1 0 1.000000
0  3.805728 -57.393406 64.125084  0.074547 -0.933653 0.350336  0.031086 0.004545 1 0 1.000000
0  2.839460 -57.268524 64.652351  0.068719 -0.935179 0.347444  0.009210 0.025662 1 0 1.000000
frontwindow
0  2.839460 -57.268524 64.652351  0.068719 -0.935179 0.347444  0.009210 0.025662 1 0 1.000000
0  3.805728 -57.393406 64.125084  0.074547 -0.933653 0.350336  0.031086 0.004545 1 0 1.000000
0  2.649905 -57.085869 65.208656  0.084282 -0.929358 0.359430  0.004919 0.047942 1 0 1.000000
frontwindow
0  4.493774 -57.310555 64.175011  0.098687 -0.919640 0.380161  0.046663 0.006545 1 0 1.000000
0  2.649905 -57.085869 65.208656  0.084282 -0.929358 0.359430  0.004919 0.047942 1 0 1.000000
0  3.805728 -57.393406 64.125084  0.074547 -0.933653 0.350336  0.031086 0.004545 1 0 1.000000
frontwindow
0  2.656355 -52.685913 75.446404  0.095286 -0.915472 0.390938  0.005065 0.457963 1 0 1.000000
0  2.649905 -57.085869 65.208656  0.084285 -0.929359 0.359428  0.004919 0.047942 1 0 1.000000
0  4.493774 -57.310555 64.175011  0.098686 -0.919636 0.380172  0.046663 0.006545 1 0 1.000000
frontwindow
0  4.493774 -57.310555 64.175011  0.098686 -0.919636 0.380172  0.046663 0.006545 1 0 1.000000
0  11.090011 -56.580658 64.177399  0.101466 -0.914540 0.391563  0.195998 0.006640 1 0 1.000000
0  2.656355 -52.685913 75.446404  0.095286 -0.915472 0.390938  0.005065 0.457963 1 0 1.000000
frontwindow
0  11.090011 -56.580658 64.177399  0.101466 -0.914540 0.391563  0.195998 0.006640 1 0 1.000000
0  10.849988 -51.789097 75.463310  0.101823 -0.914801 0.390860  0.190564 0.458640 1 0 1.000000
0  2.656355 -52.685913 75.446404  0.095286 -0.915472 0.390938  0.005065 0.457963 1 0 1.000000
frontwindow
0  3.224931 -57.388943 64.262909  -0.079610 0.927369 -0.365580  0.017937 0.010065 1 0 1.000000
0  2.839460 -57.268524 64.652351  -0.068731 0.935174 -0.347457  0.009210 0.025662 1 0 1.000000
0  3.805728 -57.393406 64.125084  -0.074552 0.933653 -0.350334  0.031086 0.004545 1 0 1.000000
frontwindow
0  2.839460 -57.268524 64.652351  -0.068731 0.935174 -0.347457  0.009210 0.025662 1 0 1.000000
0  2.649905 -57.085869 65.208656  -0.084297 0.929347 -0.359455  0.004919 0.047942 1 0 1.000000
0  3.805728 -57.393406 64.125084  -0.074552 0.933653 -0.350334  0.031086 0.004545 1 0 1.000000
frontwindow
0  4.493774 -57.310555 64.175011  -0.098700 0.919621 -0.380204  0.046663 0.006545 1 0 1.000000
0  3.805728 -57.393406 64.125084  -0.074552 0.933653 -0.350334  0.031086 0.004545 1 0 1.000000
0  2.649905 -57.085869 65.208656  -0.084297 0.929347 -0.359455  0.004919 0.047942 1 0 1.000000
frontwindow
0  2.656355 -52.685913 75.446404  -0.095252 0.915466 -0.390959  0.005065 0.457963 1 0 1.000000
0  4.493774 -57.310555 64.175011  -0.098703 0.919614 -0.380220  0.046663 0.006545 1 0 1.000000
0  2.649905 -57.085869 65.208656  -0.084309 0.929342 -0.359466  0.004919 0.047942 1 0 1.000000
frontwindow
0  4.493774 -57.310555 64.175011  -0.098703 0.919614 -0.380220  0.046663 0.006545 1 0 1.000000
0  2.656355 -52.685913 75.446404  -0.095252 0.915466 -0.390959  0.005065 0.457963 1 0 1.000000
0  11.090011 -56.580658 64.177399  -0.101541 0.914574 -0.391464  0.195998 0.006640 1 0 1.000000
frontwindow
0  11.090011 -56.580658 64.177399  -0.101541 0.914574 -0.391464  0.195998 0.006640 1 0 1.000000
0  2.656355 -52.685913 75.446404  -0.095252 0.915466 -0.390959  0.005065 0.457963 1 0 1.000000
0  10.849988 -51.789097 75.463310  -0.101819 0.914801 -0.390859  0.190564 0.458640 1 0 1.000000
frontwindow
0  10.849988 -51.789097 75.463310  -0.101965 0.914780 -0.390872  0.190564 0.458640 1 0 1.000000
0  21.989464 -50.524090 75.467278  -0.103616 0.913785 -0.392761  0.442756 0.458799 1 0 1.000000
0  11.090011 -56.580658 64.177399  -0.101423 0.914599 -0.391436  0.195998 0.006640 1 0 1.000000
frontwindow
0  22.244684 -55.346317 64.181412  -0.101647 0.913686 -0.393505  0.448534 0.006801 1 0 1.000000
0  11.090011 -56.580658 64.177399  -0.101423 0.914599 -0.391436  0.195998 0.006640 1 0 1.000000
0  21.989464 -50.524090 75.467278  -0.103616 0.913785 -0.392761  0.442756 0.458799 1 0 1.000000
frontwindow
0  22.244684 -55.346317 64.181412  -0.101647 0.913686 -0.393505  0.448534 0.006801 1 0 1.000000
0  21.989464 -50.524090 75.467278  -0.103616 0.913785 -0.392761  0.442756 0.458799 1 0 1.000000
0  34.274700 -49.129322 75.471794  -0.100141 0.913508 -0.394303  0.720887 0.458979 1 0 1.000000
frontwindow
0  34.705227 -53.967468 64.185875  -0.100889 0.913017 -0.395248  0.730634 0.006980 1 0 1.000000
0  22.244684 -55.346317 64.181412  -0.101641 0.913687 -0.393505  0.448534 0.006801 1 0 1.000000
0  34.274700 -49.129322 75.471794  -0.099553 0.913611 -0.394212  0.720887 0.458979 1 0 1.000000
frontwindow
0  44.693298 -52.862251 64.189445  -0.085479 0.916446 -0.390923  0.956758 0.007122 1 0 1.000000
0  34.705227 -53.967468 64.185875  -0.100889 0.913017 -0.395248  0.730634 0.006980 1 0 1.000000
0  34.274700 -49.129322 75.471794  -0.099553 0.913611 -0.394212  0.720887 0.458979 1 0 1.000000
frontwindow
0  44.693298 -52.862251 64.189445  -0.085479 0.916446 -0.390923  0.956758 0.007122 1 0 1.000000
0  34.274700 -49.129322 75.471794  -0.099553 0.913611 -0.394212  0.720887 0.458979 1 0 1.000000
0  46.276085 -52.290695 65.222412  -0.068096 0.912153 -0.404153  0.992591 0.048493 1 0 1.000000
frontwindow
0  45.349186 -52.815170 64.178886  -0.048569 0.912345 -0.406531  0.971607 0.006700 1 0 1.000000
0  44.693298 -52.862251 64.189445  -0.085449 0.916444 -0.390935  0.956758 0.007122 1 0 1.000000
0  46.276085 -52.290695 65.222412  -0.068069 0.912143 -0.404181  0.992591 0.048493 1 0 1.000000
frontwindow
0  46.162880 -52.538837 64.717339  -0.036767 0.910561 -0.411736  0.990028 0.028265 1 0 1.000000
0  45.349186 -52.815170 64.178886  -0.048569 0.912345 -0.406531  0.971607 0.006700 1 0 1.000000
0  46.276085 -52.290695 65.222412  -0.068069 0.912143 -0.404181  0.992591 0.048493 1 0 1.000000
frontwindow
0  46.162880 -52.538837 64.717339  -0.036785 0.910567 -0.411721  0.990028 0.028265 1 0 1.000000
0  45.876991 -52.709808 64.351265  -0.058247 0.921173 -0.384771  0.983555 0.013603 1 0 1.000000
0  45.349186 -52.815170 64.178886  -0.048569 0.912342 -0.406539  0.971607 0.006700 1 0 1.000000
frontwindow
0  46.276085 -52.290695 65.222412  -0.068072 0.912145 -0.404175  0.992591 0.048493 1 0 1.000000
0  34.274700 -49.129322 75.471794  -0.100107 0.913514 -0.394297  0.720887 0.458979 1 0 1.000000
0  46.269680 -47.788998 75.485138  -0.101841 0.911071 -0.399472  0.992446 0.459514 1 0 1.000000
frontwindow
0  3.027528 -48.745659 84.830498  -0.208476 0.960017 -0.186827  0.013468 0.833794 1 0 1.000000
0  3.566925 -48.592232 85.017067  -0.171760 0.955155 -0.241199  0.025680 0.841266 1 0 1.000000
0  2.754628 -48.881004 84.439423  -0.174461 0.956718 -0.232924  0.007290 0.818132 1 0 1.000000
frontwindow
0  2.661767 -49.054371 83.893997  -0.121096 0.942645 -0.311058  0.005187 0.796287 1 0 1.000000
0  2.754628 -48.881004 84.439423  -0.174461 0.956718 -0.232924  0.007290 0.818132 1 0 1.000000
0  3.566925 -48.592232 85.017067  -0.171760 0.955155 -0.241199  0.025680 0.841266 1 0 1.000000
frontwindow
0  3.566925 -48.592232 85.017067  -0.171760 0.955155 -0.241199  0.025680 0.841266 1 0 1.000000
0  4.247077 -48.471542 85.024200  -0.109873 0.931427 -0.346947  0.041078 0.841552 1 0 1.000000
0  2.661767 -49.054371 83.893997  -0.121096 0.942645 -0.311058  0.005187 0.796287 1 0 1.000000
frontwindow
0  4.247077 -48.471542 85.024200  -0.109828 0.931405 -0.347021  0.041078 0.841552 1 0 1.000000
0  2.656355 -52.685913 75.446404  -0.095191 0.915476 -0.390951  0.005065 0.457963 1 0 1.000000
0  2.661767 -49.054371 83.893997  -0.121032 0.942622 -0.311152  0.005187 0.796287 1 0 1.000000
frontwindow
0  4.247077 -48.471542 85.024200  -0.109828 0.931405 -0.347021  0.041078 0.841552 1 0 1.000000
0  10.647174 -47.739300 85.002098  -0.104005 0.915354 -0.388986  0.185972 0.840667 1 0 1.000000
0  2.656355 -52.685913 75.446404  -0.095191 0.915476 -0.390951  0.005065 0.457963 1 0 1.000000
frontwindow
0  10.647174 -47.739300 85.002098  -0.104005 0.915354 -0.388986  0.185972 0.840667 1 0 1.000000
0  10.849988 -51.789097 75.463310  -0.101965 0.914780 -0.390872  0.190564 0.458640 1 0 1.000000
0  2.656355 -52.685913 75.446404  -0.095191 0.915476 -0.390951  0.005065 0.457963 1 0 1.000000
frontwindow
0  10.849988 -51.789097 75.463310  -0.101965 0.914780 -0.390872  0.190564 0.458640 1 0 1.000000
0  10.647174 -47.739300 85.002098  -0.104005 0.915354 -0.388986  0.185972 0.840667 1 0 1.000000
0  21.774067 -46.453995 84.992981  -0.105300 0.913824 -0.392221  0.437879 0.840302 1 0 1.000000
frontwindow
0  21.989464 -50.524090 75.467278  -0.103616 0.913785 -0.392761  0.442756 0.458799 1 0 1.000000
0  10.849988 -51.789097 75.463310  -0.101965 0.914780 -0.390872  0.190564 0.458640 1 0 1.000000
0  21.774067 -46.453995 84.992981  -0.105300 0.913824 -0.392221  0.437879 0.840302 1 0 1.000000
frontwindow
0  21.989464 -50.524090 75.467278  -0.103616 0.913785 -0.392761  0.442756 0.458799 1 0 1.000000
0  21.774067 -46.453995 84.992981  -0.105300 0.913824 -0.392221  0.437879 0.840302 1 0 1.000000
0  33.911831 -45.051922 84.983017  -0.105134 0.912789 -0.394668  0.712671 0.839903 1 0 1.000000
frontwindow
0  34.274700 -49.129322 75.471794  -0.100107 0.913514 -0.394297  0.720887 0.458979 1 0 1.000000
0  21.989464 -50.524090 75.467278  -0.103616 0.913785 -0.392761  0.442756 0.458799 1 0 1.000000
0  33.911831 -45.051922 84.983017  -0.105134 0.912789 -0.394668  0.712671 0.839903 1 0 1.000000
frontwindow
0  33.911831 -45.051922 84.983017  -0.105134 0.912789 -0.394668  0.712671 0.839903 1 0 1.000000
0  44.564636 -43.821369 84.974319  -0.099223 0.914818 -0.391487  0.953845 0.839554 1 0 1.000000
0  34.274700 -49.129322 75.471794  -0.100107 0.913514 -0.394297  0.720887 0.458979 1 0 1.000000
frontwindow
0  46.269680 -47.788998 75.485138  -0.101841 0.911071 -0.399472  0.992446 0.459514 1 0 1.000000
0  34.274700 -49.129322 75.471794  -0.100107 0.913514 -0.394297  0.720887 0.458979 1 0 1.000000
0  44.564636 -43.821369 84.974319  -0.099223 0.914818 -0.391487  0.953845 0.839554 1 0 1.000000
frontwindow
0  46.269680 -47.788998 75.485138  -0.101928 0.911060 -0.399475  0.992446 0.459514 1 0 1.000000
0  44.564636 -43.821369 84.974319  -0.099216 0.914823 -0.391479  0.953845 0.839554 1 0 1.000000
0  46.264404 -44.081509 83.937241  -0.092226 0.919765 -0.381481  0.992327 0.798019 1 0 1.000000
frontwindow
0  45.239510 -43.751240 84.994026  -0.081322 0.927411 -0.365096  0.969124 0.840343 1 0 1.000000
0  46.264404 -44.081509 83.937241  -0.092226 0.919765 -0.381481  0.992327 0.798019 1 0 1.000000
0  44.564636 -43.821369 84.974319  -0.099216 0.914823 -0.391479  0.953845 0.839554 1 0 1.000000
frontwindow
0  46.121437 -43.884827 84.457649  -0.079348 0.928871 -0.361806  0.989091 0.818862 1 0 1.000000
0  46.264404 -44.081509 83.937241  -0.092226 0.919765 -0.381481  0.992327 0.798019 1 0 1.000000
0  45.239510 -43.751240 84.994026  -0.081322 0.927411 -0.365096  0.969124 0.840343 1 0 1.000000
frontwindow
0  45.795277 -43.770000 84.830315  -0.071722 0.933822 -0.350476  0.981706 0.833787 1 0 1.000000
0  46.121437 -43.884827 84.457649  -0.079323 0.928888 -0.361766  0.989091 0.818862 1 0 1.000000
0  45.239510 -43.751240 84.994026  -0.081333 0.927405 -0.365111  0.969124 0.840343 1 0 1.000000
end
